<?xml version="1.0" encoding="us-ascii" standalone="no"?><svg xmlns="http://www.w3.org/2000/svg" xmlns:xlink="http://www.w3.org/1999/xlink" contentStyleType="text/css" height="1592px" preserveAspectRatio="none" style="width:1108px;height:1592px;background:#FFFFFF;" version="1.1" viewBox="0 0 1108 1592" width="1108px" zoomAndPan="magnify"><defs/><g><!--cluster Course Aggregate--><g id="cluster_Course Aggregate"><rect fill="none" height="535" rx="2.5" ry="2.5" style="stroke:#000000;stroke-width:1.5;" width="783" x="302.5" y="270"/><text fill="#000000" font-family="sans-serif" font-size="14" font-weight="bold" lengthAdjust="spacing" textLength="128" x="630" y="285.5352">Course Aggregate</text></g><!--cluster User Aggregate--><g id="cluster_User Aggregate"><rect fill="none" height="757" rx="2.5" ry="2.5" style="stroke:#000000;stroke-width:1.5;" width="802" x="300" y="829"/><text fill="#000000" font-family="sans-serif" font-size="14" font-weight="bold" lengthAdjust="spacing" textLength="110" x="646" y="844.5352">User Aggregate</text></g><!--cluster EnrollmentRequest Aggregate--><g id="cluster_EnrollmentRequest Aggregate"><rect fill="none" height="239" rx="2.5" ry="2.5" style="stroke:#000000;stroke-width:1.5;" width="492.5" x="7" y="7"/><text fill="#000000" font-family="sans-serif" font-size="14" font-weight="bold" lengthAdjust="spacing" textLength="215" x="145.75" y="22.5352">EnrollmentRequest Aggregate</text></g><!--class Course--><g id="elem_Course"><rect codeLine="26" fill="#D8F5FF" height="62.7539" id="Course" rx="2.5" ry="2.5" style="stroke:#1E90FF;stroke-width:0.5;" width="81" x="381.5" y="478.5"/><ellipse cx="396.5" cy="505.877" fill="#ADD1B2" rx="11" ry="11" style="stroke:#181818;stroke-width:1.0;"/><path d="M400.6143,511.877 L392.8945,511.877 L392.8945,499.4839 L400.6143,499.4839 L400.6143,501.6421 L395.3433,501.6421 L395.3433,504.3149 L400.1162,504.3149 L400.1162,506.4731 L395.3433,506.4731 L395.3433,509.7188 L400.6143,509.7188 Z " fill="#000000"/><text fill="#000000" font-family="sans-serif" font-size="12" font-style="italic" lengthAdjust="spacing" textLength="43" x="413.5" y="495.1016">&#171;entity&#187;</text><text fill="#000000" font-family="sans-serif" font-size="12" font-style="italic" lengthAdjust="spacing" textLength="35" x="417.5" y="509.2344">&#171;root&#187;</text><text fill="#000000" font-family="sans-serif" font-size="14" lengthAdjust="spacing" textLength="49" x="410.5" y="525.3008">Course</text><line style="stroke:#1E90FF;stroke-width:0.5;" x1="382.5" x2="461.5" y1="533.2539" y2="533.2539"/></g><g id="elem_GMN18"><path d="M863,577.5 L863,617 L743.92,621 L863,625 L863,664.0527 A0,0 0 0 0 863,664.0527 L1062,664.0527 A0,0 0 0 0 1062,664.0527 L1062,587.5 L1052,577.5 L863,577.5 A0,0 0 0 0 863,577.5 " fill="#FEFFDD" style="stroke:#181818;stroke-width:0.5;"/><path d="M1052,577.5 L1052,587.5 L1062,587.5 L1052,577.5 " fill="#FEFFDD" style="stroke:#181818;stroke-width:0.5;"/><text fill="#000000" font-family="sans-serif" font-size="13" lengthAdjust="spacing" textLength="178" x="869" y="595.0684">Can be one of the following:</text><text fill="#000000" font-family="sans-serif" font-size="13" lengthAdjust="spacing" textLength="45" x="885" y="610.3789">- Open</text><text fill="#000000" font-family="sans-serif" font-size="13" lengthAdjust="spacing" textLength="55" x="885" y="625.6895">- Closed</text><text fill="#000000" font-family="sans-serif" font-size="13" lengthAdjust="spacing" textLength="48" x="885" y="641">- Enroll</text><text fill="#000000" font-family="sans-serif" font-size="13" lengthAdjust="spacing" textLength="78" x="885" y="656.3105">- InProgress</text></g><g id="elem_GMN21"><path d="M855.5,305.5 L855.5,321.62 L743.92,325.21 L855.5,329.62 L855.5,346.1211 A0,0 0 0 0 855.5,346.1211 L1069.5,346.1211 A0,0 0 0 0 1069.5,346.1211 L1069.5,315.5 L1059.5,305.5 L855.5,305.5 A0,0 0 0 0 855.5,305.5 " fill="#FEFFDD" style="stroke:#181818;stroke-width:0.5;"/><path d="M1059.5,305.5 L1059.5,315.5 L1069.5,315.5 L1059.5,305.5 " fill="#FEFFDD" style="stroke:#181818;stroke-width:0.5;"/><text fill="#000000" font-family="sans-serif" font-size="13" lengthAdjust="spacing" textLength="193" x="861.5" y="323.0684">Each course has a unique code</text><text fill="#000000" font-family="sans-serif" font-size="13" lengthAdjust="spacing" textLength="117" x="861.5" y="338.3789">Example: "JAVA-1"</text></g><g id="elem_GMN24"><path d="M318.5,733 L318.5,788.9316 A0,0 0 0 0 318.5,788.9316 L525.5,788.9316 A0,0 0 0 0 525.5,788.9316 L525.5,768.17 L623.07,767.17 L525.5,760.17 L525.5,743 L515.5,733 L318.5,733 A0,0 0 0 0 318.5,733 " fill="#FEFFDD" style="stroke:#181818;stroke-width:0.5;"/><path d="M515.5,733 L515.5,743 L525.5,743 L515.5,733 " fill="#FEFFDD" style="stroke:#181818;stroke-width:0.5;"/><text fill="#000000" font-family="sans-serif" font-size="13" lengthAdjust="spacing" textLength="185" x="324.5" y="750.5684">Different editions of a course</text><text fill="#000000" font-family="sans-serif" font-size="13" lengthAdjust="spacing" textLength="186" x="324.5" y="765.8789">are to be considered different</text><text fill="#000000" font-family="sans-serif" font-size="13" lengthAdjust="spacing" textLength="49" x="324.5" y="781.1895">courses</text></g><!--entity Code--><g id="elem_Code"><rect fill="#D8F5FF" height="38.9766" rx="2.5" ry="2.5" style="stroke:#1E90FF;stroke-width:0.5;" width="120" x="623.5" y="305.5"/><text fill="#000000" font-family="sans-serif" font-size="14" font-style="italic" lengthAdjust="spacing" textLength="100" x="633.5" y="322.0352">&#171;Value Object&#187;</text><text fill="#000000" font-family="sans-serif" font-size="14" lengthAdjust="spacing" textLength="36" x="665.5" y="338.5234">Code</text></g><!--entity Name--><g id="elem_Name"><rect fill="#D8F5FF" height="38.9766" rx="2.5" ry="2.5" style="stroke:#1E90FF;stroke-width:0.5;" width="120" x="623.5" y="675.5"/><text fill="#000000" font-family="sans-serif" font-size="14" font-style="italic" lengthAdjust="spacing" textLength="100" x="633.5" y="692.0352">&#171;Value Object&#187;</text><text fill="#000000" font-family="sans-serif" font-size="14" lengthAdjust="spacing" textLength="39" x="664" y="708.5234">Name</text></g><!--entity State--><g id="elem_State"><rect fill="#D8F5FF" height="38.9766" rx="2.5" ry="2.5" style="stroke:#1E90FF;stroke-width:0.5;" width="120" x="623.5" y="601.5"/><text fill="#000000" font-family="sans-serif" font-size="14" font-style="italic" lengthAdjust="spacing" textLength="100" x="633.5" y="618.0352">&#171;Value Object&#187;</text><text fill="#000000" font-family="sans-serif" font-size="14" lengthAdjust="spacing" textLength="34" x="666.5" y="634.5234">State</text></g><!--entity Description--><g id="elem_Description"><rect fill="#D8F5FF" height="38.9766" rx="2.5" ry="2.5" style="stroke:#1E90FF;stroke-width:0.5;" width="120" x="623.5" y="527.5"/><text fill="#000000" font-family="sans-serif" font-size="14" font-style="italic" lengthAdjust="spacing" textLength="100" x="633.5" y="544.0352">&#171;Value Object&#187;</text><text fill="#000000" font-family="sans-serif" font-size="14" lengthAdjust="spacing" textLength="78" x="644.5" y="560.5234">Description</text></g><!--entity MaxStudents--><g id="elem_MaxStudents"><rect fill="#D8F5FF" height="38.9766" rx="2.5" ry="2.5" style="stroke:#1E90FF;stroke-width:0.5;" width="120" x="623.5" y="453.5"/><text fill="#000000" font-family="sans-serif" font-size="14" font-style="italic" lengthAdjust="spacing" textLength="100" x="633.5" y="470.0352">&#171;Value Object&#187;</text><text fill="#000000" font-family="sans-serif" font-size="14" lengthAdjust="spacing" textLength="89" x="639" y="486.5234">MaxStudents</text></g><!--entity MinStudents--><g id="elem_MinStudents"><rect fill="#D8F5FF" height="38.9766" rx="2.5" ry="2.5" style="stroke:#1E90FF;stroke-width:0.5;" width="120" x="623.5" y="379.5"/><text fill="#000000" font-family="sans-serif" font-size="14" font-style="italic" lengthAdjust="spacing" textLength="100" x="633.5" y="396.0352">&#171;Value Object&#187;</text><text fill="#000000" font-family="sans-serif" font-size="14" lengthAdjust="spacing" textLength="85" x="641" y="412.5234">MinStudents</text></g><!--entity Edition--><g id="elem_Edition"><rect fill="#D8F5FF" height="38.9766" rx="2.5" ry="2.5" style="stroke:#1E90FF;stroke-width:0.5;" width="120" x="623.5" y="749.5"/><text fill="#000000" font-family="sans-serif" font-size="14" font-style="italic" lengthAdjust="spacing" textLength="100" x="633.5" y="766.0352">&#171;Value Object&#187;</text><text fill="#000000" font-family="sans-serif" font-size="14" lengthAdjust="spacing" textLength="48" x="659.5" y="782.5234">Edition</text></g><!--class User--><g id="elem_User"><rect codeLine="73" fill="#D8F5FF" height="62.7539" id="User" rx="2.5" ry="2.5" style="stroke:#1E90FF;stroke-width:0.5;" width="71" x="386.5" y="1148.5"/><ellipse cx="401.5" cy="1175.877" fill="#ADD1B2" rx="11" ry="11" style="stroke:#181818;stroke-width:1.0;"/><path d="M405.6143,1181.877 L397.8945,1181.877 L397.8945,1169.4839 L405.6143,1169.4839 L405.6143,1171.6421 L400.3433,1171.6421 L400.3433,1174.3149 L405.1162,1174.3149 L405.1162,1176.4731 L400.3433,1176.4731 L400.3433,1179.7188 L405.6143,1179.7188 Z " fill="#000000"/><text fill="#000000" font-family="sans-serif" font-size="12" font-style="italic" lengthAdjust="spacing" textLength="43" x="413.5" y="1165.1016">&#171;entity&#187;</text><text fill="#000000" font-family="sans-serif" font-size="12" font-style="italic" lengthAdjust="spacing" textLength="35" x="417.5" y="1179.2344">&#171;root&#187;</text><text fill="#000000" font-family="sans-serif" font-size="14" lengthAdjust="spacing" textLength="31" x="419.5" y="1195.3008">User</text><line style="stroke:#1E90FF;stroke-width:0.5;" x1="387.5" x2="456.5" y1="1203.2539" y2="1203.2539"/></g><g id="elem_GMN39"><path d="M839,1537.5 L839,1546 L743.92,1550 L839,1554 L839,1562.8105 A0,0 0 0 0 839,1562.8105 L1086,1562.8105 A0,0 0 0 0 1086,1562.8105 L1086,1547.5 L1076,1537.5 L839,1537.5 A0,0 0 0 0 839,1537.5 " fill="#FEFFDD" style="stroke:#181818;stroke-width:0.5;"/><path d="M1076,1537.5 L1076,1547.5 L1086,1547.5 L1076,1537.5 " fill="#FEFFDD" style="stroke:#181818;stroke-width:0.5;"/><text fill="#000000" font-family="sans-serif" font-size="13" lengthAdjust="spacing" textLength="226" x="845" y="1555.0684">Can be Teacher, Student or Manager</text></g><g id="elem_GMN52"><path d="M316,1528.5 L316,1569.1211 A0,0 0 0 0 316,1569.1211 L528,1569.1211 A0,0 0 0 0 528,1569.1211 L528,1553.41 L623.03,1549.77 L528,1545.41 L528,1538.5 L518,1528.5 L316,1528.5 A0,0 0 0 0 316,1528.5 " fill="#FEFFDD" style="stroke:#181818;stroke-width:0.5;"/><path d="M518,1528.5 L518,1538.5 L528,1538.5 L518,1528.5 " fill="#FEFFDD" style="stroke:#181818;stroke-width:0.5;"/><text fill="#000000" font-family="sans-serif" font-size="13" lengthAdjust="spacing" textLength="191" x="322" y="1546.0684">This is only used for purposes</text><text fill="#000000" font-family="sans-serif" font-size="13" lengthAdjust="spacing" textLength="101" x="322" y="1561.3789">of authorization</text></g><!--entity EmailAddress--><g id="elem_EmailAddress"><rect fill="#D8F5FF" height="38.9766" rx="2.5" ry="2.5" style="stroke:#1E90FF;stroke-width:0.5;" width="120" x="623.5" y="1012.5"/><text fill="#000000" font-family="sans-serif" font-size="14" font-style="italic" lengthAdjust="spacing" textLength="100" x="633.5" y="1029.0352">&#171;Value Object&#187;</text><text fill="#000000" font-family="sans-serif" font-size="14" lengthAdjust="spacing" textLength="93" x="637" y="1045.5234">EmailAddress</text></g><!--entity Password--><g id="elem_Password"><rect fill="#D8F5FF" height="38.9766" rx="2.5" ry="2.5" style="stroke:#1E90FF;stroke-width:0.5;" width="120" x="623.5" y="938.5"/><text fill="#000000" font-family="sans-serif" font-size="14" font-style="italic" lengthAdjust="spacing" textLength="100" x="633.5" y="955.0352">&#171;Value Object&#187;</text><text fill="#000000" font-family="sans-serif" font-size="14" lengthAdjust="spacing" textLength="65" x="651" y="971.5234">Password</text></g><!--entity FullName--><g id="elem_FullName"><rect fill="#D8F5FF" height="38.9766" rx="2.5" ry="2.5" style="stroke:#1E90FF;stroke-width:0.5;" width="120" x="623.5" y="864.5"/><text fill="#000000" font-family="sans-serif" font-size="14" font-style="italic" lengthAdjust="spacing" textLength="100" x="633.5" y="881.0352">&#171;Value Object&#187;</text><text fill="#000000" font-family="sans-serif" font-size="14" lengthAdjust="spacing" textLength="64" x="651.5" y="897.5234">FullName</text></g><!--entity ShortName--><g id="elem_ShortName"><rect fill="#D8F5FF" height="38.9766" rx="2.5" ry="2.5" style="stroke:#1E90FF;stroke-width:0.5;" width="120" x="623.5" y="1456.5"/><text fill="#000000" font-family="sans-serif" font-size="14" font-style="italic" lengthAdjust="spacing" textLength="100" x="633.5" y="1473.0352">&#171;Value Object&#187;</text><text fill="#000000" font-family="sans-serif" font-size="14" lengthAdjust="spacing" textLength="76" x="645.5" y="1489.5234">ShortName</text></g><!--entity UserState--><g id="elem_UserState"><rect fill="#D8F5FF" height="38.9766" rx="2.5" ry="2.5" style="stroke:#1E90FF;stroke-width:0.5;" width="120" x="623.5" y="1382.5"/><text fill="#000000" font-family="sans-serif" font-size="14" font-style="italic" lengthAdjust="spacing" textLength="100" x="633.5" y="1399.0352">&#171;Value Object&#187;</text><text fill="#000000" font-family="sans-serif" font-size="14" lengthAdjust="spacing" textLength="65" x="651" y="1415.5234">UserState</text></g><!--entity MechanographicNumber--><g id="elem_MechanographicNumber"><rect fill="#D8F5FF" height="38.9766" rx="2.5" ry="2.5" style="stroke:#1E90FF;stroke-width:0.5;" width="189" x="589" y="1308.5"/><text fill="#000000" font-family="sans-serif" font-size="14" font-style="italic" lengthAdjust="spacing" textLength="100" x="633.5" y="1325.0352">&#171;Value Object&#187;</text><text fill="#000000" font-family="sans-serif" font-size="14" lengthAdjust="spacing" textLength="169" x="599" y="1341.5234">MechanographicNumber</text></g><!--entity Acronym--><g id="elem_Acronym"><rect fill="#D8F5FF" height="38.9766" rx="2.5" ry="2.5" style="stroke:#1E90FF;stroke-width:0.5;" width="120" x="623.5" y="1234.5"/><text fill="#000000" font-family="sans-serif" font-size="14" font-style="italic" lengthAdjust="spacing" textLength="100" x="633.5" y="1251.0352">&#171;Value Object&#187;</text><text fill="#000000" font-family="sans-serif" font-size="14" lengthAdjust="spacing" textLength="61" x="653" y="1267.5234">Acronym</text></g><!--entity BirthDate--><g id="elem_BirthDate"><rect fill="#D8F5FF" height="38.9766" rx="2.5" ry="2.5" style="stroke:#1E90FF;stroke-width:0.5;" width="120" x="623.5" y="1160.5"/><text fill="#000000" font-family="sans-serif" font-size="14" font-style="italic" lengthAdjust="spacing" textLength="100" x="633.5" y="1177.0352">&#171;Value Object&#187;</text><text fill="#000000" font-family="sans-serif" font-size="14" lengthAdjust="spacing" textLength="63" x="652" y="1193.5234">BirthDate</text></g><!--entity TaxPayerNumber--><g id="elem_TaxPayerNumber"><rect fill="#D8F5FF" height="38.9766" rx="2.5" ry="2.5" style="stroke:#1E90FF;stroke-width:0.5;" width="138" x="614.5" y="1086.5"/><text fill="#000000" font-family="sans-serif" font-size="14" font-style="italic" lengthAdjust="spacing" textLength="100" x="633.5" y="1103.0352">&#171;Value Object&#187;</text><text fill="#000000" font-family="sans-serif" font-size="14" lengthAdjust="spacing" textLength="118" x="624.5" y="1119.5234">TaxPayerNumber</text></g><!--entity Role--><g id="elem_Role"><rect fill="#D8F5FF" height="38.9766" rx="2.5" ry="2.5" style="stroke:#1E90FF;stroke-width:0.5;" width="120" x="623.5" y="1530.5"/><text fill="#000000" font-family="sans-serif" font-size="14" font-style="italic" lengthAdjust="spacing" textLength="100" x="633.5" y="1547.0352">&#171;Value Object&#187;</text><text fill="#000000" font-family="sans-serif" font-size="14" lengthAdjust="spacing" textLength="30" x="668.5" y="1563.5234">Role</text></g><!--class EnrollmentRequest--><g id="elem_EnrollmentRequest"><rect codeLine="116" fill="#D8F5FF" height="62.7539" id="EnrollmentRequest" rx="2.5" ry="2.5" style="stroke:#1E90FF;stroke-width:0.5;" width="162" x="23" y="166.5"/><ellipse cx="38" cy="193.877" fill="#ADD1B2" rx="11" ry="11" style="stroke:#181818;stroke-width:1.0;"/><path d="M42.1143,199.877 L34.3945,199.877 L34.3945,187.4839 L42.1143,187.4839 L42.1143,189.6421 L36.8433,189.6421 L36.8433,192.3149 L41.6162,192.3149 L41.6162,194.4731 L36.8433,194.4731 L36.8433,197.7188 L42.1143,197.7188 Z " fill="#000000"/><text fill="#000000" font-family="sans-serif" font-size="12" font-style="italic" lengthAdjust="spacing" textLength="43" x="95.5" y="183.1016">&#171;entity&#187;</text><text fill="#000000" font-family="sans-serif" font-size="12" font-style="italic" lengthAdjust="spacing" textLength="35" x="99.5" y="197.2344">&#171;root&#187;</text><text fill="#000000" font-family="sans-serif" font-size="14" lengthAdjust="spacing" textLength="130" x="52" y="213.3008">EnrollmentRequest</text><line style="stroke:#1E90FF;stroke-width:0.5;" x1="24" x2="184" y1="221.2539" y2="221.2539"/></g><!--entity RequestedDate--><g id="elem_RequestedDate"><rect fill="#D8F5FF" height="38.9766" rx="2.5" ry="2.5" style="stroke:#1E90FF;stroke-width:0.5;" width="123" x="360.5" y="190.5"/><text fill="#000000" font-family="sans-serif" font-size="14" font-style="italic" lengthAdjust="spacing" textLength="100" x="372" y="207.0352">&#171;Value Object&#187;</text><text fill="#000000" font-family="sans-serif" font-size="14" lengthAdjust="spacing" textLength="103" x="370.5" y="223.5234">RequestedDate</text></g><!--entity AnsweredDate--><g id="elem_AnsweredDate"><rect fill="#D8F5FF" height="38.9766" rx="2.5" ry="2.5" style="stroke:#1E90FF;stroke-width:0.5;" width="120" x="362" y="116.5"/><text fill="#000000" font-family="sans-serif" font-size="14" font-style="italic" lengthAdjust="spacing" textLength="100" x="372" y="133.0352">&#171;Value Object&#187;</text><text fill="#000000" font-family="sans-serif" font-size="14" lengthAdjust="spacing" textLength="99" x="372.5" y="149.5234">AnsweredDate</text></g><!--entity RequestState--><g id="elem_RequestState"><rect fill="#D8F5FF" height="38.9766" rx="2.5" ry="2.5" style="stroke:#1E90FF;stroke-width:0.5;" width="120" x="362" y="42.5"/><text fill="#000000" font-family="sans-serif" font-size="14" font-style="italic" lengthAdjust="spacing" textLength="100" x="372" y="59.0352">&#171;Value Object&#187;</text><text fill="#000000" font-family="sans-serif" font-size="14" lengthAdjust="spacing" textLength="89" x="377.5" y="75.5234">RequestState</text></g><!--link Course to Name--><g id="link_Course_Name"><path codeLine="44" d="M452.17,541.93 C483.42,574.63 535.76,625.17 589,658 C597.9,663.49 607.76,668.43 617.63,672.79 " fill="none" id="Course-to-Name" style="stroke:#1E90FF;stroke-width:1.0;"/><polygon fill="#1E90FF" points="622.12,675.15,615.4505,667.9031,617.5317,673.1632,612.2716,675.2443,622.12,675.15" style="stroke:#1E90FF;stroke-width:1.0;"/></g><!--link Course to State--><g id="link_Course_State"><path codeLine="45" d="M462.71,528.27 C496.21,543.55 545.52,565.71 589,584 C600.72,588.93 613.34,594.05 625.4,598.85 " fill="none" id="Course-to-State" style="stroke:#1E90FF;stroke-width:1.0;"/><polygon fill="#1E90FF" points="629.9,601.03,623.0032,593.9991,625.2508,599.1903,620.0596,601.4379,629.9,601.03" style="stroke:#1E90FF;stroke-width:1.0;"/></g><!--link Course to Description--><g id="link_Course_Description"><path codeLine="46" d="M462.98,515.7 C504.1,521.56 568.82,530.79 617.35,537.71 " fill="none" id="Course-to-Description" style="stroke:#1E90FF;stroke-width:1.0;"/><polygon fill="#1E90FF" points="622.19,538.54,613.8377,533.3209,617.2391,537.8409,612.7191,541.2423,622.19,538.54" style="stroke:#1E90FF;stroke-width:1.0;"/></g><!--link Course to MaxStudents--><g id="link_Course_MaxStudents"><path codeLine="47" d="M462.98,504.3 C504.1,498.44 568.82,489.21 617.35,482.29 " fill="none" id="Course-to-MaxStudents" style="stroke:#1E90FF;stroke-width:1.0;"/><polygon fill="#1E90FF" points="622.19,481.46,612.7191,478.7577,617.2391,482.1591,613.8377,486.6791,622.19,481.46" style="stroke:#1E90FF;stroke-width:1.0;"/></g><!--link Course to MinStudents--><g id="link_Course_MinStudents"><path codeLine="48" d="M462.71,491.73 C496.21,476.45 545.52,454.29 589,436 C600.72,431.07 613.34,425.95 625.4,421.15 " fill="none" id="Course-to-MinStudents" style="stroke:#1E90FF;stroke-width:1.0;"/><polygon fill="#1E90FF" points="629.9,418.97,620.0596,418.5621,625.2508,420.8097,623.0032,426.0009,629.9,418.97" style="stroke:#1E90FF;stroke-width:1.0;"/></g><!--link Course to Code--><g id="link_Course_Code"><path codeLine="49" d="M452.17,478.07 C483.42,445.37 535.76,394.83 589,362 C597.9,356.51 607.76,351.57 617.63,347.21 " fill="none" id="Course-to-Code" style="stroke:#1E90FF;stroke-width:1.0;"/><polygon fill="#1E90FF" points="622.12,344.85,612.2716,344.7557,617.5317,346.8368,615.4505,352.0969,622.12,344.85" style="stroke:#1E90FF;stroke-width:1.0;"/></g><!--link Course to Edition--><g id="link_Course_Edition"><path codeLine="50" d="M439.36,541.98 C465.17,589.53 519.61,678.95 589,732 C597.74,738.68 607.84,744.32 618.11,749.01 " fill="none" id="Course-to-Edition" style="stroke:#1E90FF;stroke-width:1.0;"/><polygon fill="#1E90FF" points="622.48,751.39,615.8569,744.1006,617.9045,749.3739,612.6312,751.4215,622.48,751.39" style="stroke:#1E90FF;stroke-width:1.0;"/></g><!--link User to EmailAddress--><g id="link_User_EmailAddress"><path codeLine="98" d="M457.91,1153.46 C490.6,1129.39 541.41,1093.96 589,1069 C599.23,1063.63 610.42,1058.57 621.39,1054.01 " fill="none" id="User-to-EmailAddress" style="stroke:#1E90FF;stroke-width:1.0;"/><polygon fill="#1E90FF" points="625.75,1051.81,615.906,1051.5013,621.1195,1053.6965,618.9244,1058.91,625.75,1051.81" style="stroke:#1E90FF;stroke-width:1.0;"/></g><!--link User to Password--><g id="link_User_Password"><path codeLine="99" d="M444.46,1148.07 C473.15,1107.55 527.55,1037.78 589,995 C597.78,988.88 607.72,983.58 617.76,979.04 " fill="none" id="User-to-Password" style="stroke:#1E90FF;stroke-width:1.0;"/><polygon fill="#1E90FF" points="622.02,976.74,612.1712,976.6972,617.4422,978.7508,615.3886,984.0218,622.02,976.74" style="stroke:#1E90FF;stroke-width:1.0;"/></g><!--link User to FullName--><g id="link_User_FullName"><path codeLine="100" d="M435.51,1148.39 C458.3,1094.59 511.49,984.82 589,921 C597.49,914.01 607.47,908.22 617.69,903.46 " fill="none" id="User-to-FullName" style="stroke:#1E90FF;stroke-width:1.0;"/><polygon fill="#1E90FF" points="622.04,901.06,612.1912,901.08,617.4751,903.1,615.4551,908.3839,622.04,901.06" style="stroke:#1E90FF;stroke-width:1.0;"/></g><!--link User to ShortName--><g id="link_User_ShortName"><path codeLine="101" d="M435.51,1211.61 C458.3,1265.41 511.49,1375.18 589,1439 C597.49,1445.99 607.47,1451.78 617.69,1456.54 " fill="none" id="User-to-ShortName" style="stroke:#1E90FF;stroke-width:1.0;"/><polygon fill="#1E90FF" points="622.04,1458.94,615.4551,1451.6161,617.4751,1456.9,612.1912,1458.92,622.04,1458.94" style="stroke:#1E90FF;stroke-width:1.0;"/></g><!--link User to Role--><g id="link_User_Role"><path codeLine="102" d="M430.58,1211.69 C447.73,1276.91 495.48,1427.17 589,1513 C597.4,1520.71 607.6,1526.89 618.13,1531.83 " fill="none" id="User-to-Role" style="stroke:#1E90FF;stroke-width:1.0;"/><polygon fill="#1E90FF" points="622.33,1534.15,615.7451,1526.8261,617.7651,1532.11,612.4812,1534.13,622.33,1534.15" style="stroke:#1E90FF;stroke-width:1.0;"/></g><!--link User to UserState--><g id="link_User_UserState"><path codeLine="103" d="M444.46,1211.93 C473.15,1252.45 527.55,1322.22 589,1365 C597.78,1371.12 607.72,1376.42 617.76,1380.96 " fill="none" id="User-to-UserState" style="stroke:#1E90FF;stroke-width:1.0;"/><polygon fill="#1E90FF" points="622.02,1383.26,615.3886,1375.9782,617.4422,1381.2492,612.1712,1383.3028,622.02,1383.26" style="stroke:#1E90FF;stroke-width:1.0;"/></g><!--link User to MechanographicNumber--><g id="link_User_MechanographicNumber"><path codeLine="104" d="M457.91,1206.54 C490.6,1230.61 541.41,1266.04 589,1291 C599.23,1296.37 610.42,1301.43 621.39,1305.99 " fill="none" id="User-to-MechanographicNumber" style="stroke:#1E90FF;stroke-width:1.0;"/><polygon fill="#1E90FF" points="625.75,1308.19,618.9244,1301.09,621.1195,1306.3035,615.906,1308.4987,625.75,1308.19" style="stroke:#1E90FF;stroke-width:1.0;"/></g><!--link User to Acronym--><g id="link_User_Acronym"><path codeLine="105" d="M458,1189.98 C498.69,1201.58 566.73,1220.99 617.26,1235.4 " fill="none" id="User-to-Acronym" style="stroke:#1E90FF;stroke-width:1.0;"/><polygon fill="#1E90FF" points="622.03,1237.04,614.4752,1230.7214,617.2224,1235.6664,612.2774,1238.4136,622.03,1237.04" style="stroke:#1E90FF;stroke-width:1.0;"/></g><!--link User to BirthDate--><g id="link_User_BirthDate"><path codeLine="106" d="M458,1180 C498.69,1180 566.73,1180 617.26,1180 " fill="none" id="User-to-BirthDate" style="stroke:#1E90FF;stroke-width:1.0;"/><polygon fill="#1E90FF" points="622.03,1180,613.03,1176,617.03,1180,613.03,1184,622.03,1180" style="stroke:#1E90FF;stroke-width:1.0;"/></g><!--link User to TaxPayerNumber--><g id="link_User_TaxPayerNumber"><path codeLine="107" d="M458,1170.02 C496.36,1159.08 559.03,1141.21 608.42,1127.13 " fill="none" id="User-to-TaxPayerNumber" style="stroke:#1E90FF;stroke-width:1.0;"/><polygon fill="#1E90FF" points="613.06,1125.52,603.3085,1124.1387,608.2513,1126.8898,605.5002,1131.8327,613.06,1125.52" style="stroke:#1E90FF;stroke-width:1.0;"/></g><!--link EnrollmentRequest to RequestedDate--><g id="link_EnrollmentRequest_RequestedDate"><path codeLine="127" d="M185.15,201.04 C237.42,203.03 304.85,205.59 354.21,207.46 " fill="none" id="EnrollmentRequest-to-RequestedDate" style="stroke:#1E90FF;stroke-width:1.0;"/><polygon fill="#1E90FF" points="359.14,207.69,350.2947,203.3587,354.1434,207.5044,349.9977,211.3532,359.14,207.69" style="stroke:#1E90FF;stroke-width:1.0;"/></g><!--link EnrollmentRequest to AnsweredDate--><g id="link_EnrollmentRequest_AnsweredDate"><path codeLine="128" d="M185.15,182.27 C238.14,171.88 306.72,158.42 356.25,148.7 " fill="none" id="EnrollmentRequest-to-AnsweredDate" style="stroke:#1E90FF;stroke-width:1.0;"/><polygon fill="#1E90FF" points="360.89,147.6,351.2913,145.3944,355.9822,148.5559,352.8207,153.2468,360.89,147.6" style="stroke:#1E90FF;stroke-width:1.0;"/></g><!--link EnrollmentRequest to RequestState--><g id="link_EnrollmentRequest_RequestState"><path codeLine="129" d="M158,166.14 C194.68,145.04 245.15,117.88 292,99 C312.43,90.77 335.37,83.57 356.17,77.76 " fill="none" id="EnrollmentRequest-to-RequestState" style="stroke:#1E90FF;stroke-width:1.0;"/><polygon fill="#1E90FF" points="360.7,76.24,350.9602,74.7783,355.8802,77.5701,353.0884,82.4901,360.7,76.24" style="stroke:#1E90FF;stroke-width:1.0;"/></g><!--link EnrollmentRequest to User--><g id="link_EnrollmentRequest_User"><path codeLine="133" d="M114.37,229.71 C141.14,319.97 220.58,585.88 292,805 C332.47,929.16 383.78,1075.18 407.66,1142.52 " fill="none" id="EnrollmentRequest-to-User" style="stroke:#1E90FF;stroke-width:1.0;"/><polygon fill="#1E90FF" points="409.6,1147.01,410.3626,1137.1907,407.9292,1142.2974,402.8225,1139.864,409.6,1147.01" style="stroke:#1E90FF;stroke-width:1.0;"/><text fill="#000000" font-family="sans-serif" font-size="13" lengthAdjust="spacing" textLength="28" x="235.5" y="569.5684">is of</text><text fill="#000000" font-family="sans-serif" font-size="13" lengthAdjust="spacing" textLength="8" x="398.3713" y="1137.8586">1</text></g><!--link EnrollmentRequest to Course--><g id="link_EnrollmentRequest_Course"><path codeLine="134" d="M137.33,229.92 C196.75,288.58 322.88,413.12 384.95,474.41 " fill="none" id="EnrollmentRequest-to-Course" style="stroke:#1E90FF;stroke-width:1.0;"/><polygon fill="#1E90FF" points="387.95,477.35,384.3588,468.1792,384.3931,473.836,378.7364,473.8702,387.95,477.35" style="stroke:#1E90FF;stroke-width:1.0;"/><text fill="#000000" font-family="sans-serif" font-size="13" lengthAdjust="spacing" textLength="67" x="216" y="304.5684">belongs to</text><text fill="#000000" font-family="sans-serif" font-size="13" lengthAdjust="spacing" textLength="8" x="373.3084" y="467.9011">1</text></g><!--SRC=[pLPBZzem4BxpAonws4kHkeTA5K98MHuIrJxGGlTkuY5nrx7JiLEMhVhVQpiXcoTmh8KKCVFP_kRnJH9p1YG14okc1mBsXXX5a4Un8OmZX8OhEHZeLovJYZGXeQ1Q1yOWtsK6Lg6I6_uEv4iBG_uCY5ttV0_tNCATGWOuKq8XcIiM0Tw93EeG6hv6g3B9SbYmNj-lPi5szVJeSKt_f_ctvTVbqli2H7NeFBtduhzLmgazcKQmCKS1n0LDPIIW5X95zlz7LCH1XZELeGOIH152H0qC2-uW3JT7KhWda_p_T3gPe59cEXrur4tX_qtjkKJjVjgCQE_nQPWfvlQ-UE-JzqwdnGL_Fs2FD6d3MgYDiVGkm-QWG-IfwyRBu0VwjZ4Piy7fAy1SNWzUC7wMWdyKsHkDfZu7JPkFk6cinDTqLQ9fkJwuDrskI4rRmJvdAPNDUovqjQ-Gydke93jRUGdEPs8WUoM4Ed0PZKkGMoFob89ic6P2QM0DuqAYFQ9XNCarAjkYMXVToJojBe9bF6ujQ1YJC0yifffGaad-ozOZhA7UQ98A69FXz-0b6DqE-oxnOy_USShFwO0vt-y1RNO9v1xjKBIukOHH13SqT-vwgUqyHM1sU1PxIrY-gn5fLRG_D62lPBspIx0ttjCZrKL2kGWOSoc-tDrhExOFThXSHYup8QxKTwpGN0TrWLmv3XuWZAcqhKFJc8UFMRBpsRcmAmXHoMDonUowusZYUHULDdPBtzRq2DZ3ehtXMOaBvzPRt-779qrkmVO-u6TI29_Oby03bRQ1CEzetmvUxPNQrpsdEjUjfvhMhMNzwcR7gMufgrStTrMgZYYgKZUM1QYRwxdka739owrjp3MnFoN5aMHs9janXYJDC5Kd8RhbD9tP3o3axxJKVwT2yo6MsBG_WnqtslJAjOtiUzdcBP63W9tlkKehItrmS-PQV771UNdvHvkvhtULu1bSbTVbu_9-SIdkXWrlXtdjnxwC-pEmuZKtjXeHIaRQJkJ1Fm00]--></g></svg>