<?xml version="1.0" encoding="us-ascii" standalone="no"?><svg xmlns="http://www.w3.org/2000/svg" xmlns:xlink="http://www.w3.org/1999/xlink" contentStyleType="text/css" height="1766px" preserveAspectRatio="none" style="width:1514px;height:1766px;background:#FFFFFF;" version="1.1" viewBox="0 0 1514 1766" width="1514px" zoomAndPan="magnify"><defs/><g><!--cluster User Aggregate--><g id="cluster_User Aggregate"><rect fill="none" height="799" rx="2.5" ry="2.5" style="stroke:#000000;stroke-width:1.5;" width="854" x="586" y="961"/><text fill="#000000" font-family="sans-serif" font-size="14" font-weight="bold" lengthAdjust="spacing" textLength="110" x="958" y="978.1074">User Aggregate</text></g><!--cluster Course Aggregate--><g id="cluster_Course Aggregate"><rect fill="none" height="653" rx="2.5" ry="2.5" style="stroke:#000000;stroke-width:1.5;" width="1225" x="283" y="284"/><text fill="#000000" font-family="sans-serif" font-size="14" font-weight="bold" lengthAdjust="spacing" textLength="128" x="831.5" y="301.1074">Course Aggregate</text></g><!--cluster EnrollmentRequest Aggregate--><g id="cluster_EnrollmentRequest Aggregate"><rect fill="none" height="253" rx="2.5" ry="2.5" style="stroke:#000000;stroke-width:1.5;" width="461.5" x="7" y="7"/><text fill="#000000" font-family="sans-serif" font-size="14" font-weight="bold" lengthAdjust="spacing" textLength="212" x="131.75" y="24.1074">EnrollmentRequest Aggregate</text></g><!--class User--><g id="elem_User"><rect codeLine="26" fill="#D8F5FF" height="68.543" id="User" rx="2.5" ry="2.5" style="stroke:#1E90FF;stroke-width:0.5;" width="71" x="663.5" y="1188.5"/><ellipse cx="678.5" cy="1218.7715" fill="#ADD1B2" rx="11" ry="11" style="stroke:#181818;stroke-width:1.0;"/><path d="M677.3594,1219.5684 L677.3594,1222.0684 L681.6875,1222.0684 L681.6875,1221.1465 Q681.6875,1220.5371 681.9219,1220.2715 Q682.1719,1220.0059 682.5469,1220.0059 Q682.9219,1220.0059 683.1563,1220.2715 Q683.3906,1220.5371 683.3906,1221.1465 L683.3906,1223.7715 L675.3906,1223.7715 Q674.7656,1223.7715 674.5,1223.5371 Q674.25,1223.3027 674.25,1222.9121 Q674.25,1222.5371 674.5156,1222.3027 Q674.7813,1222.0684 675.3906,1222.0684 L675.6563,1222.0684 L675.6563,1215.4121 L675.3906,1215.4121 Q674.7656,1215.4121 674.5,1215.1777 Q674.25,1214.9434 674.25,1214.5527 Q674.25,1214.1777 674.5,1213.9434 Q674.7656,1213.709 675.3906,1213.709 L683.0156,1213.709 L683.0156,1216.3027 Q683.0156,1216.9121 682.7813,1217.1777 Q682.5625,1217.4277 682.1719,1217.4277 Q681.7969,1217.4277 681.5625,1217.1777 Q681.3281,1216.9121 681.3281,1216.3027 L681.3281,1215.4121 L677.3594,1215.4121 L677.3594,1217.8652 L678.8438,1217.8652 Q678.8438,1217.209 678.9688,1217.0215 Q679.2344,1216.6152 679.7031,1216.6152 Q680.0781,1216.6152 680.3125,1216.8809 Q680.5469,1217.1309 680.5469,1217.7402 L680.5469,1219.709 Q680.5469,1220.2559 680.4219,1220.4434 Q680.1563,1220.834 679.7031,1220.834 Q679.2344,1220.834 678.9688,1220.4277 Q678.8438,1220.2402 678.8438,1219.5684 L677.3594,1219.5684 Z " fill="#000000"/><text fill="#000000" font-family="sans-serif" font-size="12" font-style="italic" lengthAdjust="spacing" textLength="43" x="690.5" y="1206.4492">&#171;entity&#187;</text><text fill="#000000" font-family="sans-serif" font-size="12" font-style="italic" lengthAdjust="spacing" textLength="35" x="694.5" y="1222.4102">&#171;root&#187;</text><text fill="#000000" font-family="sans-serif" font-size="14" lengthAdjust="spacing" textLength="29" x="697.5" y="1240.5293">User</text><line style="stroke:#1E90FF;stroke-width:0.5;" x1="664.5" x2="733.5" y1="1249.043" y2="1249.043"/></g><g id="elem_GMN14"><path d="M1190,1708.5 L1190,1718 L1017.52,1722 L1190,1726 L1190,1735.791 A0,0 0 0 0 1190,1735.791 L1424,1735.791 A0,0 0 0 0 1424,1735.791 L1424,1718.5 L1414,1708.5 L1190,1708.5 A0,0 0 0 0 1190,1708.5 " fill="#FEFFDD" style="stroke:#181818;stroke-width:0.5;"/><path d="M1414,1708.5 L1414,1718.5 L1424,1718.5 L1414,1708.5 " fill="#FEFFDD" style="stroke:#181818;stroke-width:0.5;"/><text fill="#000000" font-family="sans-serif" font-size="13" lengthAdjust="spacing" textLength="213" x="1196" y="1727.5283">Can be Teacher, Student or Manager</text></g><g id="elem_GMN27"><path d="M602,1698.5 L602,1743.082 A0,0 0 0 0 602,1743.082 L796,1743.082 A0,0 0 0 0 796,1743.082 L796,1725.37 L900.46,1721.78 L796,1717.37 L796,1708.5 L786,1698.5 L602,1698.5 A0,0 0 0 0 602,1698.5 " fill="#FEFFDD" style="stroke:#181818;stroke-width:0.5;"/><path d="M786,1698.5 L786,1708.5 L796,1708.5 L786,1698.5 " fill="#FEFFDD" style="stroke:#181818;stroke-width:0.5;"/><text fill="#000000" font-family="sans-serif" font-size="13" lengthAdjust="spacing" textLength="173" x="608" y="1717.5283">This is only used for purposes</text><text fill="#000000" font-family="sans-serif" font-size="13" lengthAdjust="spacing" textLength="88" x="608" y="1734.8193">of authorization</text></g><!--entity EmailAddress--><g id="elem_EmailAddress"><rect fill="#D8F5FF" height="43.2422" rx="2.5" ry="2.5" style="stroke:#1E90FF;stroke-width:0.5;" width="117" x="900.5" y="1154.5"/><text fill="#000000" font-family="sans-serif" font-size="14" font-style="italic" lengthAdjust="spacing" textLength="97" x="910.5" y="1172.6074">&#171;Value Object&#187;</text><text fill="#000000" font-family="sans-serif" font-size="14" lengthAdjust="spacing" textLength="86" x="916" y="1191.2285">EmailAddress</text></g><!--entity Password--><g id="elem_Password"><rect fill="#D8F5FF" height="43.2422" rx="2.5" ry="2.5" style="stroke:#1E90FF;stroke-width:0.5;" width="117" x="900.5" y="1076.5"/><text fill="#000000" font-family="sans-serif" font-size="14" font-style="italic" lengthAdjust="spacing" textLength="97" x="910.5" y="1094.6074">&#171;Value Object&#187;</text><text fill="#000000" font-family="sans-serif" font-size="14" lengthAdjust="spacing" textLength="61" x="928.5" y="1113.2285">Password</text></g><!--entity FullName--><g id="elem_FullName"><rect fill="#D8F5FF" height="43.2422" rx="2.5" ry="2.5" style="stroke:#1E90FF;stroke-width:0.5;" width="117" x="900.5" y="998.5"/><text fill="#000000" font-family="sans-serif" font-size="14" font-style="italic" lengthAdjust="spacing" textLength="97" x="910.5" y="1016.6074">&#171;Value Object&#187;</text><text fill="#000000" font-family="sans-serif" font-size="14" lengthAdjust="spacing" textLength="59" x="929.5" y="1035.2285">FullName</text></g><!--entity ShortName--><g id="elem_ShortName"><rect fill="#D8F5FF" height="43.2422" rx="2.5" ry="2.5" style="stroke:#1E90FF;stroke-width:0.5;" width="117" x="900.5" y="1622.5"/><text fill="#000000" font-family="sans-serif" font-size="14" font-style="italic" lengthAdjust="spacing" textLength="97" x="910.5" y="1640.6074">&#171;Value Object&#187;</text><text fill="#000000" font-family="sans-serif" font-size="14" lengthAdjust="spacing" textLength="70" x="924" y="1659.2285">ShortName</text></g><!--entity UserState--><g id="elem_UserState"><rect fill="#D8F5FF" height="43.2422" rx="2.5" ry="2.5" style="stroke:#1E90FF;stroke-width:0.5;" width="117" x="900.5" y="1544.5"/><text fill="#000000" font-family="sans-serif" font-size="14" font-style="italic" lengthAdjust="spacing" textLength="97" x="910.5" y="1562.6074">&#171;Value Object&#187;</text><text fill="#000000" font-family="sans-serif" font-size="14" lengthAdjust="spacing" textLength="62" x="928" y="1581.2285">UserState</text></g><!--entity MechanographicNumber--><g id="elem_MechanographicNumber"><rect fill="#D8F5FF" height="43.2422" rx="2.5" ry="2.5" style="stroke:#1E90FF;stroke-width:0.5;" width="174" x="872" y="1466.5"/><text fill="#000000" font-family="sans-serif" font-size="14" font-style="italic" lengthAdjust="spacing" textLength="97" x="910.5" y="1484.6074">&#171;Value Object&#187;</text><text fill="#000000" font-family="sans-serif" font-size="14" lengthAdjust="spacing" textLength="154" x="882" y="1503.2285">MechanographicNumber</text></g><!--entity Acronym--><g id="elem_Acronym"><rect fill="#D8F5FF" height="43.2422" rx="2.5" ry="2.5" style="stroke:#1E90FF;stroke-width:0.5;" width="117" x="900.5" y="1388.5"/><text fill="#000000" font-family="sans-serif" font-size="14" font-style="italic" lengthAdjust="spacing" textLength="97" x="910.5" y="1406.6074">&#171;Value Object&#187;</text><text fill="#000000" font-family="sans-serif" font-size="14" lengthAdjust="spacing" textLength="55" x="931.5" y="1425.2285">Acronym</text></g><!--entity BirthDate--><g id="elem_BirthDate"><rect fill="#D8F5FF" height="43.2422" rx="2.5" ry="2.5" style="stroke:#1E90FF;stroke-width:0.5;" width="117" x="900.5" y="1310.5"/><text fill="#000000" font-family="sans-serif" font-size="14" font-style="italic" lengthAdjust="spacing" textLength="97" x="910.5" y="1328.6074">&#171;Value Object&#187;</text><text fill="#000000" font-family="sans-serif" font-size="14" lengthAdjust="spacing" textLength="59" x="929.5" y="1347.2285">BirthDate</text></g><!--entity TaxPayerNumber--><g id="elem_TaxPayerNumber"><rect fill="#D8F5FF" height="43.2422" rx="2.5" ry="2.5" style="stroke:#1E90FF;stroke-width:0.5;" width="129" x="894.5" y="1232.5"/><text fill="#000000" font-family="sans-serif" font-size="14" font-style="italic" lengthAdjust="spacing" textLength="97" x="910.5" y="1250.6074">&#171;Value Object&#187;</text><text fill="#000000" font-family="sans-serif" font-size="14" lengthAdjust="spacing" textLength="109" x="904.5" y="1269.2285">TaxPayerNumber</text></g><!--entity Role--><g id="elem_Role"><rect fill="#D8F5FF" height="43.2422" rx="2.5" ry="2.5" style="stroke:#1E90FF;stroke-width:0.5;" width="117" x="900.5" y="1700.5"/><text fill="#000000" font-family="sans-serif" font-size="14" font-style="italic" lengthAdjust="spacing" textLength="97" x="910.5" y="1718.6074">&#171;Value Object&#187;</text><text fill="#000000" font-family="sans-serif" font-size="14" lengthAdjust="spacing" textLength="29" x="944.5" y="1737.2285">Role</text></g><!--class Course--><g id="elem_Course"><rect codeLine="69" fill="#D8F5FF" height="68.543" id="Course" rx="2.5" ry="2.5" style="stroke:#1E90FF;stroke-width:0.5;" width="78" x="354" y="678.5"/><ellipse cx="369" cy="708.7715" fill="#ADD1B2" rx="11" ry="11" style="stroke:#181818;stroke-width:1.0;"/><path d="M367.8594,709.5684 L367.8594,712.0684 L372.1875,712.0684 L372.1875,711.1465 Q372.1875,710.5371 372.4219,710.2715 Q372.6719,710.0059 373.0469,710.0059 Q373.4219,710.0059 373.6563,710.2715 Q373.8906,710.5371 373.8906,711.1465 L373.8906,713.7715 L365.8906,713.7715 Q365.2656,713.7715 365,713.5371 Q364.75,713.3027 364.75,712.9121 Q364.75,712.5371 365.0156,712.3027 Q365.2813,712.0684 365.8906,712.0684 L366.1563,712.0684 L366.1563,705.4121 L365.8906,705.4121 Q365.2656,705.4121 365,705.1777 Q364.75,704.9434 364.75,704.5527 Q364.75,704.1777 365,703.9434 Q365.2656,703.709 365.8906,703.709 L373.5156,703.709 L373.5156,706.3027 Q373.5156,706.9121 373.2813,707.1777 Q373.0625,707.4277 372.6719,707.4277 Q372.2969,707.4277 372.0625,707.1777 Q371.8281,706.9121 371.8281,706.3027 L371.8281,705.4121 L367.8594,705.4121 L367.8594,707.8652 L369.3438,707.8652 Q369.3438,707.209 369.4688,707.0215 Q369.7344,706.6152 370.2031,706.6152 Q370.5781,706.6152 370.8125,706.8809 Q371.0469,707.1309 371.0469,707.7402 L371.0469,709.709 Q371.0469,710.2559 370.9219,710.4434 Q370.6563,710.834 370.2031,710.834 Q369.7344,710.834 369.4688,710.4277 Q369.3438,710.2402 369.3438,709.5684 L367.8594,709.5684 Z " fill="#000000"/><text fill="#000000" font-family="sans-serif" font-size="12" font-style="italic" lengthAdjust="spacing" textLength="43" x="384.5" y="696.4492">&#171;entity&#187;</text><text fill="#000000" font-family="sans-serif" font-size="12" font-style="italic" lengthAdjust="spacing" textLength="35" x="388.5" y="712.4102">&#171;root&#187;</text><text fill="#000000" font-family="sans-serif" font-size="14" lengthAdjust="spacing" textLength="46" x="383" y="730.5293">Course</text><line style="stroke:#1E90FF;stroke-width:0.5;" x1="355" x2="431" y1="739.043" y2="739.043"/></g><g id="elem_GMN46"><path d="M869,695 L869,739 L757.58,743 L869,747 L869,791.4551 A0,0 0 0 0 869,791.4551 L1049,791.4551 A0,0 0 0 0 1049,791.4551 L1049,705 L1039,695 L869,695 A0,0 0 0 0 869,695 " fill="#FEFFDD" style="stroke:#181818;stroke-width:0.5;"/><path d="M1039,695 L1039,705 L1049,705 L1039,695 " fill="#FEFFDD" style="stroke:#181818;stroke-width:0.5;"/><text fill="#000000" font-family="sans-serif" font-size="13" lengthAdjust="spacing" textLength="159" x="875" y="714.0283">Can be one of the following:</text><text fill="#000000" font-family="sans-serif" font-size="13" lengthAdjust="spacing" textLength="39" x="891" y="731.3193">- Open</text><text fill="#000000" font-family="sans-serif" font-size="13" lengthAdjust="spacing" textLength="48" x="891" y="748.6104">- Closed</text><text fill="#000000" font-family="sans-serif" font-size="13" lengthAdjust="spacing" textLength="41" x="891" y="765.9014">- Enroll</text><text fill="#000000" font-family="sans-serif" font-size="13" lengthAdjust="spacing" textLength="70" x="891" y="783.1924">- InProgress</text></g><g id="elem_GMN49"><path d="M857,875.5 L857,894.39 L757.58,898.78 L857,902.39 L857,920.082 A0,0 0 0 0 857,920.082 L1061,920.082 A0,0 0 0 0 1061,920.082 L1061,885.5 L1051,875.5 L857,875.5 A0,0 0 0 0 857,875.5 " fill="#FEFFDD" style="stroke:#181818;stroke-width:0.5;"/><path d="M1051,875.5 L1051,885.5 L1061,885.5 L1051,875.5 " fill="#FEFFDD" style="stroke:#181818;stroke-width:0.5;"/><text fill="#000000" font-family="sans-serif" font-size="13" lengthAdjust="spacing" textLength="183" x="863" y="894.5283">Each course has a unique code</text><text fill="#000000" font-family="sans-serif" font-size="13" lengthAdjust="spacing" textLength="113" x="863" y="911.8193">Example: "JAVA-1"</text></g><g id="elem_GMN52"><path d="M299,321 L299,382.873 A0,0 0 0 0 299,382.873 L487,382.873 A0,0 0 0 0 487,382.873 L487,353.24 L640.25,344.71 L487,345.24 L487,331 L477,321 L299,321 A0,0 0 0 0 299,321 " fill="#FEFFDD" style="stroke:#181818;stroke-width:0.5;"/><path d="M477,321 L477,331 L487,331 L477,321 " fill="#FEFFDD" style="stroke:#181818;stroke-width:0.5;"/><text fill="#000000" font-family="sans-serif" font-size="13" lengthAdjust="spacing" textLength="164" x="305" y="340.0283">Different editions of a course</text><text fill="#000000" font-family="sans-serif" font-size="13" lengthAdjust="spacing" textLength="167" x="305" y="357.3193">are to be considered different</text><text fill="#000000" font-family="sans-serif" font-size="13" lengthAdjust="spacing" textLength="46" x="305" y="374.6104">courses</text></g><!--class Class--><g id="elem_Class"><rect codeLine="114" fill="#D8F5FF" height="52.582" id="Class" rx="2.5" ry="2.5" style="stroke:#1E90FF;stroke-width:0.5;" width="71" x="663.5" y="399.5"/><ellipse cx="678.5" cy="421.791" fill="#ADD1B2" rx="11" ry="11" style="stroke:#181818;stroke-width:1.0;"/><path d="M677.3594,422.5879 L677.3594,425.0879 L681.6875,425.0879 L681.6875,424.166 Q681.6875,423.5566 681.9219,423.291 Q682.1719,423.0254 682.5469,423.0254 Q682.9219,423.0254 683.1563,423.291 Q683.3906,423.5566 683.3906,424.166 L683.3906,426.791 L675.3906,426.791 Q674.7656,426.791 674.5,426.5566 Q674.25,426.3223 674.25,425.9316 Q674.25,425.5566 674.5156,425.3223 Q674.7813,425.0879 675.3906,425.0879 L675.6563,425.0879 L675.6563,418.4316 L675.3906,418.4316 Q674.7656,418.4316 674.5,418.1973 Q674.25,417.9629 674.25,417.5723 Q674.25,417.1973 674.5,416.9629 Q674.7656,416.7285 675.3906,416.7285 L683.0156,416.7285 L683.0156,419.3223 Q683.0156,419.9316 682.7813,420.1973 Q682.5625,420.4473 682.1719,420.4473 Q681.7969,420.4473 681.5625,420.1973 Q681.3281,419.9316 681.3281,419.3223 L681.3281,418.4316 L677.3594,418.4316 L677.3594,420.8848 L678.8438,420.8848 Q678.8438,420.2285 678.9688,420.041 Q679.2344,419.6348 679.7031,419.6348 Q680.0781,419.6348 680.3125,419.9004 Q680.5469,420.1504 680.5469,420.7598 L680.5469,422.7285 Q680.5469,423.2754 680.4219,423.4629 Q680.1563,423.8535 679.7031,423.8535 Q679.2344,423.8535 678.9688,423.4473 Q678.8438,423.2598 678.8438,422.5879 L677.3594,422.5879 Z " fill="#000000"/><text fill="#000000" font-family="sans-serif" font-size="12" font-style="italic" lengthAdjust="spacing" textLength="43" x="690.5" y="417.4492">&#171;entity&#187;</text><text fill="#000000" font-family="sans-serif" font-size="14" lengthAdjust="spacing" textLength="35" x="694.5" y="435.5684">Class</text><line style="stroke:#1E90FF;stroke-width:0.5;" x1="664.5" x2="733.5" y1="444.082" y2="444.082"/></g><g id="elem_GMN60"><path d="M1122,321 L1122,407.52 L1017.52,420.85 L1122,415.52 L1122,469.3281 A0,0 0 0 0 1122,469.3281 L1492,469.3281 A0,0 0 0 0 1492,469.3281 L1492,331 L1482,321 L1122,321 A0,0 0 0 0 1122,321 " fill="#FEFFDD" style="stroke:#181818;stroke-width:0.5;"/><path d="M1482,321 L1482,331 L1492,331 L1482,321 " fill="#FEFFDD" style="stroke:#181818;stroke-width:0.5;"/><text fill="#000000" font-family="sans-serif" font-size="13" lengthAdjust="spacing" textLength="249" x="1128" y="340.0283">A class is always a recurring weekly event.</text><text fill="#000000" font-family="sans-serif" font-size="13" lengthAdjust="spacing" textLength="4" x="1128" y="357.3193">&#160;</text><text fill="#000000" font-family="sans-serif" font-size="13" lengthAdjust="spacing" textLength="279" x="1128" y="374.6104">It should be impossible to schedule classes that</text><text fill="#000000" font-family="sans-serif" font-size="13" lengthAdjust="spacing" textLength="309" x="1128" y="391.9014">are coincident with other classes of the same course.</text><text fill="#000000" font-family="sans-serif" font-size="13" lengthAdjust="spacing" textLength="4" x="1128" y="409.1924">&#160;</text><text fill="#000000" font-family="sans-serif" font-size="13" lengthAdjust="spacing" textLength="311" x="1128" y="426.4834">The system should also warn if one of the participants</text><text fill="#000000" font-family="sans-serif" font-size="13" lengthAdjust="spacing" textLength="349" x="1128" y="443.7744">in the class (either a teacher or a student) has other classes</text><text fill="#000000" font-family="sans-serif" font-size="13" lengthAdjust="spacing" textLength="326" x="1128" y="461.0654">at the same time. Teachers can schedule extra classes.</text></g><g id="elem_GMN63"><path d="M1204,601.5 L1204,608.34 L1017.52,607.5 L1204,616.34 L1204,628.791 A0,0 0 0 0 1204,628.791 L1410,628.791 A0,0 0 0 0 1410,628.791 L1410,611.5 L1400,601.5 L1204,601.5 A0,0 0 0 0 1204,601.5 " fill="#FEFFDD" style="stroke:#181818;stroke-width:0.5;"/><path d="M1400,601.5 L1400,611.5 L1410,611.5 L1400,601.5 " fill="#FEFFDD" style="stroke:#181818;stroke-width:0.5;"/><text fill="#000000" font-family="sans-serif" font-size="13" lengthAdjust="spacing" textLength="185" x="1210" y="620.5283">A class must have a unique title</text></g><g id="elem_GMN71"><path d="M1217,504 L1217,525.07 L1017.52,515.82 L1217,533.07 L1217,565.873 A0,0 0 0 0 1217,565.873 L1397,565.873 A0,0 0 0 0 1397,565.873 L1397,514 L1387,504 L1217,504 A0,0 0 0 0 1217,504 " fill="#FEFFDD" style="stroke:#181818;stroke-width:0.5;"/><path d="M1387,504 L1387,514 L1397,514 L1387,504 " fill="#FEFFDD" style="stroke:#181818;stroke-width:0.5;"/><text fill="#000000" font-family="sans-serif" font-size="13" lengthAdjust="spacing" textLength="159" x="1223" y="523.0283">Can be one of the following:</text><text fill="#000000" font-family="sans-serif" font-size="13" lengthAdjust="spacing" textLength="63" x="1239" y="540.3193">- Recurring</text><text fill="#000000" font-family="sans-serif" font-size="13" lengthAdjust="spacing" textLength="39" x="1239" y="557.6104">- Extra</text></g><!--entity Code--><g id="elem_Code"><rect fill="#D8F5FF" height="43.2422" rx="2.5" ry="2.5" style="stroke:#1E90FF;stroke-width:0.5;" width="117" x="640.5" y="877.5"/><text fill="#000000" font-family="sans-serif" font-size="14" font-style="italic" lengthAdjust="spacing" textLength="97" x="650.5" y="895.6074">&#171;Value Object&#187;</text><text fill="#000000" font-family="sans-serif" font-size="14" lengthAdjust="spacing" textLength="34" x="682" y="914.2285">Code</text></g><!--entity Name--><g id="elem_Name"><rect fill="#D8F5FF" height="43.2422" rx="2.5" ry="2.5" style="stroke:#1E90FF;stroke-width:0.5;" width="117" x="640.5" y="799.5"/><text fill="#000000" font-family="sans-serif" font-size="14" font-style="italic" lengthAdjust="spacing" textLength="97" x="650.5" y="817.6074">&#171;Value Object&#187;</text><text fill="#000000" font-family="sans-serif" font-size="14" lengthAdjust="spacing" textLength="36" x="681" y="836.2285">Name</text></g><!--entity State--><g id="elem_State"><rect fill="#D8F5FF" height="43.2422" rx="2.5" ry="2.5" style="stroke:#1E90FF;stroke-width:0.5;" width="117" x="640.5" y="721.5"/><text fill="#000000" font-family="sans-serif" font-size="14" font-style="italic" lengthAdjust="spacing" textLength="97" x="650.5" y="739.6074">&#171;Value Object&#187;</text><text fill="#000000" font-family="sans-serif" font-size="14" lengthAdjust="spacing" textLength="33" x="682.5" y="758.2285">State</text></g><!--entity Description--><g id="elem_Description"><rect fill="#D8F5FF" height="43.2422" rx="2.5" ry="2.5" style="stroke:#1E90FF;stroke-width:0.5;" width="117" x="640.5" y="643.5"/><text fill="#000000" font-family="sans-serif" font-size="14" font-style="italic" lengthAdjust="spacing" textLength="97" x="650.5" y="661.6074">&#171;Value Object&#187;</text><text fill="#000000" font-family="sans-serif" font-size="14" lengthAdjust="spacing" textLength="71" x="663.5" y="680.2285">Description</text></g><!--entity MaxStudents--><g id="elem_MaxStudents"><rect fill="#D8F5FF" height="43.2422" rx="2.5" ry="2.5" style="stroke:#1E90FF;stroke-width:0.5;" width="117" x="640.5" y="565.5"/><text fill="#000000" font-family="sans-serif" font-size="14" font-style="italic" lengthAdjust="spacing" textLength="97" x="650.5" y="583.6074">&#171;Value Object&#187;</text><text fill="#000000" font-family="sans-serif" font-size="14" lengthAdjust="spacing" textLength="81" x="658.5" y="602.2285">MaxStudents</text></g><!--entity MinStudents--><g id="elem_MinStudents"><rect fill="#D8F5FF" height="43.2422" rx="2.5" ry="2.5" style="stroke:#1E90FF;stroke-width:0.5;" width="117" x="640.5" y="487.5"/><text fill="#000000" font-family="sans-serif" font-size="14" font-style="italic" lengthAdjust="spacing" textLength="97" x="650.5" y="505.6074">&#171;Value Object&#187;</text><text fill="#000000" font-family="sans-serif" font-size="14" lengthAdjust="spacing" textLength="78" x="660" y="524.2285">MinStudents</text></g><!--entity Edition--><g id="elem_Edition"><rect fill="#D8F5FF" height="43.2422" rx="2.5" ry="2.5" style="stroke:#1E90FF;stroke-width:0.5;" width="117" x="640.5" y="321.5"/><text fill="#000000" font-family="sans-serif" font-size="14" font-style="italic" lengthAdjust="spacing" textLength="97" x="650.5" y="339.6074">&#171;Value Object&#187;</text><text fill="#000000" font-family="sans-serif" font-size="14" lengthAdjust="spacing" textLength="43" x="677.5" y="358.2285">Edition</text></g><!--entity ClassDate--><g id="elem_ClassDate"><rect fill="#D8F5FF" height="43.2422" rx="2.5" ry="2.5" style="stroke:#1E90FF;stroke-width:0.5;" width="117" x="900.5" y="404.5"/><text fill="#000000" font-family="sans-serif" font-size="14" font-style="italic" lengthAdjust="spacing" textLength="97" x="910.5" y="422.6074">&#171;Value Object&#187;</text><text fill="#000000" font-family="sans-serif" font-size="14" lengthAdjust="spacing" textLength="65" x="926.5" y="441.2285">ClassDate</text></g><!--entity ClassDuration--><g id="elem_ClassDuration"><rect fill="#D8F5FF" height="43.2422" rx="2.5" ry="2.5" style="stroke:#1E90FF;stroke-width:0.5;" width="117" x="900.5" y="326.5"/><text fill="#000000" font-family="sans-serif" font-size="14" font-style="italic" lengthAdjust="spacing" textLength="97" x="910.5" y="344.6074">&#171;Value Object&#187;</text><text fill="#000000" font-family="sans-serif" font-size="14" lengthAdjust="spacing" textLength="89" x="914.5" y="363.2285">ClassDuration</text></g><!--entity ClassTitle--><g id="elem_ClassTitle"><rect fill="#D8F5FF" height="43.2422" rx="2.5" ry="2.5" style="stroke:#1E90FF;stroke-width:0.5;" width="117" x="900.5" y="584.5"/><text fill="#000000" font-family="sans-serif" font-size="14" font-style="italic" lengthAdjust="spacing" textLength="97" x="910.5" y="602.6074">&#171;Value Object&#187;</text><text fill="#000000" font-family="sans-serif" font-size="14" lengthAdjust="spacing" textLength="62" x="928" y="621.2285">ClassTitle</text></g><!--entity ClassType--><g id="elem_ClassType"><rect fill="#D8F5FF" height="43.2422" rx="2.5" ry="2.5" style="stroke:#1E90FF;stroke-width:0.5;" width="117" x="900.5" y="490.5"/><text fill="#000000" font-family="sans-serif" font-size="14" font-style="italic" lengthAdjust="spacing" textLength="97" x="910.5" y="508.6074">&#171;Value Object&#187;</text><text fill="#000000" font-family="sans-serif" font-size="14" lengthAdjust="spacing" textLength="67" x="925.5" y="527.2285">ClassType</text></g><!--class EnrollmentRequest--><g id="elem_EnrollmentRequest"><rect codeLine="157" fill="#D8F5FF" height="68.543" id="EnrollmentRequest" rx="2.5" ry="2.5" style="stroke:#1E90FF;stroke-width:0.5;" width="152" x="23" y="174.5"/><ellipse cx="38" cy="204.7715" fill="#ADD1B2" rx="11" ry="11" style="stroke:#181818;stroke-width:1.0;"/><path d="M36.8594,205.5684 L36.8594,208.0684 L41.1875,208.0684 L41.1875,207.1465 Q41.1875,206.5371 41.4219,206.2715 Q41.6719,206.0059 42.0469,206.0059 Q42.4219,206.0059 42.6563,206.2715 Q42.8906,206.5371 42.8906,207.1465 L42.8906,209.7715 L34.8906,209.7715 Q34.2656,209.7715 34,209.5371 Q33.75,209.3027 33.75,208.9121 Q33.75,208.5371 34.0156,208.3027 Q34.2813,208.0684 34.8906,208.0684 L35.1563,208.0684 L35.1563,201.4121 L34.8906,201.4121 Q34.2656,201.4121 34,201.1777 Q33.75,200.9434 33.75,200.5527 Q33.75,200.1777 34,199.9434 Q34.2656,199.709 34.8906,199.709 L42.5156,199.709 L42.5156,202.3027 Q42.5156,202.9121 42.2813,203.1777 Q42.0625,203.4277 41.6719,203.4277 Q41.2969,203.4277 41.0625,203.1777 Q40.8281,202.9121 40.8281,202.3027 L40.8281,201.4121 L36.8594,201.4121 L36.8594,203.8652 L38.3438,203.8652 Q38.3438,203.209 38.4688,203.0215 Q38.7344,202.6152 39.2031,202.6152 Q39.5781,202.6152 39.8125,202.8809 Q40.0469,203.1309 40.0469,203.7402 L40.0469,205.709 Q40.0469,206.2559 39.9219,206.4434 Q39.6563,206.834 39.2031,206.834 Q38.7344,206.834 38.4688,206.4277 Q38.3438,206.2402 38.3438,205.5684 L36.8594,205.5684 Z " fill="#000000"/><text fill="#000000" font-family="sans-serif" font-size="12" font-style="italic" lengthAdjust="spacing" textLength="43" x="90.5" y="192.4492">&#171;entity&#187;</text><text fill="#000000" font-family="sans-serif" font-size="12" font-style="italic" lengthAdjust="spacing" textLength="35" x="94.5" y="208.4102">&#171;root&#187;</text><text fill="#000000" font-family="sans-serif" font-size="14" lengthAdjust="spacing" textLength="120" x="52" y="226.5293">EnrollmentRequest</text><line style="stroke:#1E90FF;stroke-width:0.5;" x1="24" x2="174" y1="235.043" y2="235.043"/></g><!--entity RequestedDate--><g id="elem_RequestedDate"><rect fill="#D8F5FF" height="43.2422" rx="2.5" ry="2.5" style="stroke:#1E90FF;stroke-width:0.5;" width="119" x="333.5" y="200.5"/><text fill="#000000" font-family="sans-serif" font-size="14" font-style="italic" lengthAdjust="spacing" textLength="97" x="344.5" y="218.6074">&#171;Value Object&#187;</text><text fill="#000000" font-family="sans-serif" font-size="14" lengthAdjust="spacing" textLength="99" x="343.5" y="237.2285">RequestedDate</text></g><!--entity AnsweredDate--><g id="elem_AnsweredDate"><rect fill="#D8F5FF" height="43.2422" rx="2.5" ry="2.5" style="stroke:#1E90FF;stroke-width:0.5;" width="117" x="334.5" y="122.5"/><text fill="#000000" font-family="sans-serif" font-size="14" font-style="italic" lengthAdjust="spacing" textLength="97" x="344.5" y="140.6074">&#171;Value Object&#187;</text><text fill="#000000" font-family="sans-serif" font-size="14" lengthAdjust="spacing" textLength="92" x="347" y="159.2285">AnsweredDate</text></g><!--entity RequestState--><g id="elem_RequestState"><rect fill="#D8F5FF" height="43.2422" rx="2.5" ry="2.5" style="stroke:#1E90FF;stroke-width:0.5;" width="117" x="334.5" y="44.5"/><text fill="#000000" font-family="sans-serif" font-size="14" font-style="italic" lengthAdjust="spacing" textLength="97" x="344.5" y="62.6074">&#171;Value Object&#187;</text><text fill="#000000" font-family="sans-serif" font-size="14" lengthAdjust="spacing" textLength="86" x="350" y="81.2285">RequestState</text></g><!--link User to EmailAddress--><g id="link_User_EmailAddress"><path codeLine="51" d="M734.53,1216.71 C775.55,1209.24 844.78,1196.63 895.34,1187.42 " fill="none" id="User-to-EmailAddress" style="stroke:#1E90FF;stroke-width:1.0;"/><polygon fill="#1E90FF" points="900.48,1186.48,890.9079,1184.1618,895.5613,1187.3782,892.345,1192.0317,900.48,1186.48" style="stroke:#1E90FF;stroke-width:1.0;"/></g><!--link User to Password--><g id="link_User_Password"><path codeLine="52" d="M734.54,1202.34 C765.91,1184.01 813.73,1157.1 857,1137 C869.3,1131.29 882.69,1125.7 895.57,1120.62 " fill="none" id="User-to-Password" style="stroke:#1E90FF;stroke-width:1.0;"/><polygon fill="#1E90FF" points="900.29,1118.77,890.4507,1118.336,895.6359,1120.5974,893.3745,1125.7826,900.29,1118.77" style="stroke:#1E90FF;stroke-width:1.0;"/></g><!--link User to FullName--><g id="link_User_FullName"><path codeLine="53" d="M725.68,1188.24 C754.21,1151.72 803.37,1094.74 857,1059 C868.7,1051.2 882.19,1044.63 895.42,1039.24 " fill="none" id="User-to-FullName" style="stroke:#1E90FF;stroke-width:1.0;"/><polygon fill="#1E90FF" points="900.28,1037.3,890.4396,1036.8921,895.6308,1039.1397,893.3832,1044.3309,900.28,1037.3" style="stroke:#1E90FF;stroke-width:1.0;"/></g><!--link User to ShortName--><g id="link_User_ShortName"><path codeLine="54" d="M704.9,1257.65 C717.11,1331.49 755.54,1505.69 857,1605 C867.74,1615.51 881.63,1623.26 895.64,1628.95 " fill="none" id="User-to-ShortName" style="stroke:#1E90FF;stroke-width:1.0;"/><polygon fill="#1E90FF" points="900.4,1630.8,893.4659,1623.8059,895.7411,1628.985,890.5619,1631.2602,900.4,1630.8" style="stroke:#1E90FF;stroke-width:1.0;"/></g><!--link User to Role--><g id="link_User_Role"><path codeLine="55" d="M702.11,1257.79 C709.05,1342.08 738.15,1559.35 857,1683 C867.53,1693.96 881.49,1701.88 895.65,1707.6 " fill="none" id="User-to-Role" style="stroke:#1E90FF;stroke-width:1.0;"/><polygon fill="#1E90FF" points="900.46,1709.46,893.5001,1702.4915,895.7944,1707.6622,890.6237,1709.9565,900.46,1709.46" style="stroke:#1E90FF;stroke-width:1.0;"/></g><!--link User to UserState--><g id="link_User_UserState"><path codeLine="56" d="M709.03,1257.68 C726.96,1319.99 772.77,1451.43 857,1527 C868,1536.87 881.77,1544.35 895.57,1549.99 " fill="none" id="User-to-UserState" style="stroke:#1E90FF;stroke-width:1.0;"/><polygon fill="#1E90FF" points="900.24,1551.83,893.3245,1544.8174,895.5859,1550.0026,890.4007,1552.264,900.24,1551.83" style="stroke:#1E90FF;stroke-width:1.0;"/></g><!--link User to MechanographicNumber--><g id="link_User_MechanographicNumber"><path codeLine="57" d="M715.82,1257.7 C739.79,1306.72 789.76,1396.16 857,1449 C864.36,1454.78 872.67,1459.79 881.29,1464.11 " fill="none" id="User-to-MechanographicNumber" style="stroke:#1E90FF;stroke-width:1.0;"/><polygon fill="#1E90FF" points="886.11,1466.43,879.7427,1458.9162,881.6069,1464.2571,876.266,1466.1212,886.11,1466.43" style="stroke:#1E90FF;stroke-width:1.0;"/></g><!--link User to Acronym--><g id="link_User_Acronym"><path codeLine="58" d="M729.39,1257.59 C758.86,1290.47 806.92,1339.45 857,1371 C868.83,1378.45 882.31,1384.86 895.48,1390.21 " fill="none" id="User-to-Acronym" style="stroke:#1E90FF;stroke-width:1.0;"/><polygon fill="#1E90FF" points="900.31,1392.14,893.4132,1385.1091,895.6608,1390.3003,890.4696,1392.5479,900.31,1392.14" style="stroke:#1E90FF;stroke-width:1.0;"/></g><!--link User to BirthDate--><g id="link_User_BirthDate"><path codeLine="59" d="M734.7,1239.08 C766.37,1253.61 814.56,1275.36 857,1293 C869.52,1298.2 883.01,1303.57 895.92,1308.6 " fill="none" id="User-to-BirthDate" style="stroke:#1E90FF;stroke-width:1.0;"/><polygon fill="#1E90FF" points="900.64,1310.44,893.6986,1303.453,895.9792,1308.6298,890.8024,1310.9104,900.64,1310.44" style="stroke:#1E90FF;stroke-width:1.0;"/></g><!--link User to TaxPayerNumber--><g id="link_User_TaxPayerNumber"><path codeLine="60" d="M734.53,1227.15 C773.95,1231.89 839.44,1239.75 889.36,1245.75 " fill="none" id="User-to-TaxPayerNumber" style="stroke:#1E90FF;stroke-width:1.0;"/><polygon fill="#1E90FF" points="894.45,1246.36,885.9798,1241.3344,889.4843,1245.775,885.0438,1249.2795,894.45,1246.36" style="stroke:#1E90FF;stroke-width:1.0;"/></g><!--link Course to Name--><g id="link_Course_Name"><path codeLine="87" d="M432.23,727.9 C469.32,742.23 527.28,764.26 578,782 C596.52,788.48 616.78,795.2 635.28,801.2 " fill="none" id="Course-to-Name" style="stroke:#1E90FF;stroke-width:1.0;"/><polygon fill="#1E90FF" points="640.45,802.87,633.123,796.2886,635.6939,801.3275,630.655,803.8983,640.45,802.87" style="stroke:#1E90FF;stroke-width:1.0;"/></g><!--link Course to State--><g id="link_Course_State"><path codeLine="88" d="M432.19,716.77 C483.15,721.8 574.02,730.77 635.15,736.8 " fill="none" id="Course-to-State" style="stroke:#1E90FF;stroke-width:1.0;"/><polygon fill="#1E90FF" points="640.23,737.3,631.6755,732.4194,635.2551,736.7997,630.8749,740.3793,640.23,737.3" style="stroke:#1E90FF;stroke-width:1.0;"/></g><!--link Course to Description--><g id="link_Course_Description"><path codeLine="89" d="M432.19,706.97 C483.15,698.92 574.02,684.58 635.15,674.92 " fill="none" id="Course-to-Description" style="stroke:#1E90FF;stroke-width:1.0;"/><polygon fill="#1E90FF" points="640.23,674.12,630.7136,671.5825,635.292,674.9049,631.9696,679.4833,640.23,674.12" style="stroke:#1E90FF;stroke-width:1.0;"/></g><!--link Course to MaxStudents--><g id="link_Course_MaxStudents"><path codeLine="90" d="M432.14,693.22 C468.92,674.56 526.44,646.47 578,626 C596.33,618.72 616.61,611.74 635.2,605.74 " fill="none" id="Course-to-MaxStudents" style="stroke:#1E90FF;stroke-width:1.0;"/><polygon fill="#1E90FF" points="640.4,604.08,630.6078,603.025,635.6397,605.6096,633.0551,610.6415,640.4,604.08" style="stroke:#1E90FF;stroke-width:1.0;"/></g><!--link Course to MinStudents--><g id="link_Course_MinStudents"><path codeLine="91" d="M424.28,678.33 C458.3,641.31 516.84,583.23 578,548 C595.67,537.82 616.37,529.88 635.54,523.91 " fill="none" id="Course-to-MinStudents" style="stroke:#1E90FF;stroke-width:1.0;"/><polygon fill="#1E90FF" points="640.38,522.43,630.6051,521.2249,635.5968,523.8864,632.9353,528.878,640.38,522.43" style="stroke:#1E90FF;stroke-width:1.0;"/></g><!--link Course to Code--><g id="link_Course_Code"><path codeLine="92" d="M429.24,747.66 C464.37,780.55 521.13,829.36 578,860 C595.87,869.63 616.52,877.39 635.6,883.38 " fill="none" id="Course-to-Code" style="stroke:#1E90FF;stroke-width:1.0;"/><polygon fill="#1E90FF" points="640.41,884.87,632.983,878.4017,635.6308,883.4006,630.6319,886.0484,640.41,884.87" style="stroke:#1E90FF;stroke-width:1.0;"/></g><!--link Course to Edition--><g id="link_Course_Edition"><path codeLine="93" d="M402.09,678.28 C420.25,608.89 471.27,453.63 578,382 C595.19,370.47 616.04,362.13 635.5,356.21 " fill="none" id="Course-to-Edition" style="stroke:#1E90FF;stroke-width:1.0;"/><polygon fill="#1E90FF" points="640.42,354.75,630.6564,353.4568,635.6239,356.1631,632.9175,361.1306,640.42,354.75" style="stroke:#1E90FF;stroke-width:1.0;"/></g><!--link Class to ClassDate--><g id="link_Class_ClassDate"><path codeLine="143" d="M734.53,426 C775.55,426 844.78,426 895.34,426 " fill="none" id="Class-to-ClassDate" style="stroke:#1E90FF;stroke-width:1.0;"/><polygon fill="#1E90FF" points="900.48,426,891.48,422,895.48,426,891.48,430,900.48,426" style="stroke:#1E90FF;stroke-width:1.0;"/></g><!--link Class to ClassDuration--><g id="link_Class_ClassDuration"><path codeLine="144" d="M734.53,415.56 C775.63,403.14 845.06,382.14 895.64,366.85 " fill="none" id="Class-to-ClassDuration" style="stroke:#1E90FF;stroke-width:1.0;"/><polygon fill="#1E90FF" points="900.48,365.39,890.7051,364.1849,895.6968,366.8464,893.0353,371.838,900.48,365.39" style="stroke:#1E90FF;stroke-width:1.0;"/></g><!--link Class to ClassTitle--><g id="link_Class_ClassTitle"><path codeLine="145" d="M734.74,437.14 C754.09,444.46 777.86,455.4 796,470 C831.11,498.25 822.88,521.56 857,551 C870.95,563.04 887.98,573.55 904.05,582.07 " fill="none" id="Class-to-ClassTitle" style="stroke:#1E90FF;stroke-width:1.0;"/><polygon fill="#1E90FF" points="908.55,584.42,902.3964,576.7302,904.1097,582.1213,898.7186,583.8346,908.55,584.42" style="stroke:#1E90FF;stroke-width:1.0;"/></g><!--link Class to ClassType--><g id="link_Class_ClassType"><path codeLine="146" d="M734.53,437.51 C775.63,451.21 845.06,474.35 895.64,491.21 " fill="none" id="Class-to-ClassType" style="stroke:#1E90FF;stroke-width:1.0;"/><polygon fill="#1E90FF" points="900.48,492.83,893.2128,486.1826,895.738,491.2446,890.6761,493.7698,900.48,492.83" style="stroke:#1E90FF;stroke-width:1.0;"/></g><!--link Course to Class--><g id="link_Course_Class"><path codeLine="147" d="M411.83,678.19 C440.24,625.94 500.58,527.29 578,470 C601.91,452.3 633.69,441.08 658.54,434.39 " fill="none" id="Course-to-Class" style="stroke:#1E90FF;stroke-width:1.0;"/><polygon fill="#1E90FF" points="663.41,433.12,653.6937,431.5097,658.5704,434.3763,655.7038,439.253,663.41,433.12" style="stroke:#1E90FF;stroke-width:1.0;"/><text fill="#000000" font-family="sans-serif" font-size="13" lengthAdjust="spacing" textLength="49" x="519" y="477.0283">contains</text><text fill="#000000" font-family="sans-serif" font-size="13" lengthAdjust="spacing" textLength="5" x="650.5539" y="450.4431">*</text></g><!--link EnrollmentRequest to RequestedDate--><g id="link_EnrollmentRequest_RequestedDate"><path codeLine="168" d="M175.2,212.35 C222.55,214.46 283,217.15 328.04,219.15 " fill="none" id="EnrollmentRequest-to-RequestedDate" style="stroke:#1E90FF;stroke-width:1.0;"/><polygon fill="#1E90FF" points="333.18,219.38,324.3721,214.9732,328.1852,219.1517,324.0067,222.9648,333.18,219.38" style="stroke:#1E90FF;stroke-width:1.0;"/></g><!--link EnrollmentRequest to AnsweredDate--><g id="link_EnrollmentRequest_AnsweredDate"><path codeLine="169" d="M175.2,192.26 C222.87,181.65 283.83,168.08 328.97,158.03 " fill="none" id="EnrollmentRequest-to-AnsweredDate" style="stroke:#1E90FF;stroke-width:1.0;"/><polygon fill="#1E90FF" points="334.11,156.89,324.4566,154.9376,329.2291,157.9747,326.192,162.7471,334.11,156.89" style="stroke:#1E90FF;stroke-width:1.0;"/></g><!--link EnrollmentRequest to RequestState--><g id="link_EnrollmentRequest_RequestState"><path codeLine="170" d="M151.63,174.32 C185.66,152.48 231.77,124.77 275,105 C292.17,97.14 311.4,90.07 329.23,84.18 " fill="none" id="EnrollmentRequest-to-RequestState" style="stroke:#1E90FF;stroke-width:1.0;"/><polygon fill="#1E90FF" points="334.22,82.54,324.4241,81.5203,329.4653,84.0867,326.8988,89.1279,334.22,82.54" style="stroke:#1E90FF;stroke-width:1.0;"/></g><!--link Course to User--><g id="link_Course_User"><path codeLine="174" d="M419.63,747.63 C462.06,805.19 544.73,918.44 570,961 C615.16,1037.06 658.3,1131.34 681.14,1183.54 " fill="none" id="Course-to-User" style="stroke:#1E90FF;stroke-width:1.0;"/><polygon fill="#1E90FF" points="683.16,1188.15,683.2285,1178.3014,681.1612,1183.5669,675.8956,1181.4995,683.16,1188.15" style="stroke:#1E90FF;stroke-width:1.0;"/><text fill="#000000" font-family="sans-serif" font-size="13" lengthAdjust="spacing" textLength="51" x="518" y="885.0283">is owned</text><text fill="#000000" font-family="sans-serif" font-size="13" lengthAdjust="spacing" textLength="7" x="672.5942" y="1177.2546">1</text></g><!--link Course to User--><g id="link_Course_User"><path codeLine="175" d="M404.11,747.68 C421.21,802.46 459.66,910.71 517,988 C535.58,1013.05 549.3,1010.67 570,1034 C612.2,1081.57 651.79,1143.77 675.46,1183.57 " fill="none" id="Course-to-User-1" style="stroke:#1E90FF;stroke-width:1.0;"/><polygon fill="#1E90FF" points="678.27,1188.3,677.1319,1178.5171,675.7249,1183.9962,670.2458,1182.5893,678.27,1188.3" style="stroke:#1E90FF;stroke-width:1.0;"/><text fill="#000000" font-family="sans-serif" font-size="13" lengthAdjust="spacing" textLength="21" x="533" y="984.0283">has</text><text fill="#000000" font-family="sans-serif" font-size="13" lengthAdjust="spacing" textLength="9" x="664.4605" y="1177.1646">N</text></g><!--link Course to User--><g id="link_Course_User"><path codeLine="176" d="M400.28,747.7 C413.39,813.39 448.35,958.52 517,1061 C537.22,1091.18 612.21,1154.12 659.09,1192.05 " fill="none" id="Course-to-User-2" style="stroke:#1E90FF;stroke-width:1.0;"/><polygon fill="#1E90FF" points="663.26,1195.42,658.7622,1186.6582,659.3668,1192.2826,653.7424,1192.8873,663.26,1195.42" style="stroke:#1E90FF;stroke-width:1.0;"/><text fill="#000000" font-family="sans-serif" font-size="13" lengthAdjust="spacing" textLength="46" x="520.5" y="1057.0283">teaches</text><text fill="#000000" font-family="sans-serif" font-size="13" lengthAdjust="spacing" textLength="9" x="646.5893" y="1185.6419">N</text></g><!--link EnrollmentRequest to User--><g id="link_EnrollmentRequest_User"><path codeLine="178" d="M99.65,243.69 C100.13,356.65 114.75,720.27 275,956 C371.94,1098.59 572.95,1180.61 658.29,1210.24 " fill="none" id="EnrollmentRequest-to-User" style="stroke:#1E90FF;stroke-width:1.0;"/><polygon fill="#1E90FF" points="663.25,1211.95,656.0431,1205.2373,658.5225,1210.3218,653.438,1212.8012,663.25,1211.95" style="stroke:#1E90FF;stroke-width:1.0;"/><text fill="#000000" font-family="sans-serif" font-size="13" lengthAdjust="spacing" textLength="24" x="381" y="952.0283">is of</text><text fill="#000000" font-family="sans-serif" font-size="13" lengthAdjust="spacing" textLength="7" x="648.5227" y="1225.5499">1</text></g><!--link EnrollmentRequest to Course--><g id="link_EnrollmentRequest_Course"><path codeLine="179" d="M120.07,243.64 C172.64,334.39 314.12,578.58 369.42,674.02 " fill="none" id="EnrollmentRequest-to-Course" style="stroke:#1E90FF;stroke-width:1.0;"/><polygon fill="#1E90FF" points="371.98,678.45,370.9426,668.6559,369.4793,674.1203,364.015,672.657,371.98,678.45" style="stroke:#1E90FF;stroke-width:1.0;"/><text fill="#000000" font-family="sans-serif" font-size="13" lengthAdjust="spacing" textLength="60" x="206" y="398.0283">belongs to</text><text fill="#000000" font-family="sans-serif" font-size="13" lengthAdjust="spacing" textLength="7" x="360.3059" y="667.3432">1</text></g><!--SRC=[pLPBR-Cs4BxhLn3UmxP54tGF1Gh3CE3O2U0Y3oDszqvBOuaDHQea5STRx7_laDIBilpOMuK0IMO-3kVnpGmpbW39mMGoqH67dI564iNIp924AOWDaoAAz1iJ1LKq9p6dMi-CKMnR6bZ6KgpPDo2_7M78ln71xv7ju949k9Cg0JMNN2goa4aAwewN449e_9OgMOh4msQhrUDoFjiiNvuThg__jFZZuVU71wURAINtWzPFNFozwt21bcaAQtFWG6pGLAGSWf2eIlx_4LLnaD5V6l2sD5MGKWEZodCGXfa3SSh9nFytdKucIaepdKRHPwTvfsYDoEtVc0VjphdWxtFA-2n9561j9vEl3lNYKDEfj_-zHQ-G0NlqypBoeUJycUPm6RdEf3BNGMqWQuEXNuO-GPnH8LD5Yup5psM-TTcvS6eMAoaE-H6G727lc3BPOiYLO-o6Vgpe0TG9BuuFl4f-mQwGUBFlPxbp-36PKq6sG3P0umpKhsHjoWJPG91FJrGWWLJapZewtDnCWzg7chhEeRIkQIXjwXUAhK-XfAbUA1wgL8YegX8AcmA4uZ3NKPiiDmIhN3cf_JOPqmH_fE07Kcf8o0wpLPIga1fq0yDZjCHPgjWtwYQdRxl4MGuwT2vBfU5aZrRgeIwrgC-L_aIlpcLo3TskRBlh-cW1EbQii55VqNJqeoBT5RFaYOdhmVS9E-k2-rLbpzAWuMD7rdAl8-p4rrTreZbIjRxtLRP8VLdbVJJGkgrJxenlOId0wam6o4VEvPw9TDo0x7T3NWeGFT6S8skJdl1UA3JH4ox5Ic77rNtVK7d0mIOU-ztZQ26n3ooZcb1I2lOFrYCEK1yqB-n46lqv-pgx-J8wTKdTatL-QWCBjjk1ihCBl4Qx5gnkRc1KWNtMREtrGkEBHs439_NP1kPF3KLQTwLxsBHD6NLQpgeMvpgbZoqLlSpK5hzXXbzjV7CeBc07wbT7451WLhtcSFPHlgS7Mqfy8PLA8TN87k0D1oAyOqPke-3WqX2ToP8dDkqinpcfsPQxEcXSEqc9VplJe96_r0I7RS5YoKJCt6BQCvCHYInNpP6AzTgEC5-ttlqRgpre0tdj1-LQaZrLWh1TjtFmXMTOp0fQDsdzCU7qFW4_0NCEK6BythJhaXBjk_jdn_B0nJ0WqxfhM0wtzVRLM3NHPWG-ZAArXTl6HCZ64xLp31aiNbvgWmw-Gzk79W27zZtDtOmAED6NLmmUqhM-z1N8pFxK6_qogc1Zsw26Cg479qnWu0V7u6jDslxOina_lQVzLConnA-0USCydbhPnyXJszi_tJm8alDlmywJK-Yz7LpNugiBpgzlz-lOS_Skwpfu1jVrwx8vlyQYuqKy-ZBoZxEnUsVjHRMWkf3d1eBTTaRhErIVYwvttUu2jBfdZ6pZKgGuicJq7m00]--></g></svg>