<?xml version="1.0" encoding="UTF-8" standalone="no"?><svg xmlns="http://www.w3.org/2000/svg" xmlns:xlink="http://www.w3.org/1999/xlink" contentStyleType="text/css" height="1726px" preserveAspectRatio="none" style="width:1326px;height:1726px;background:#FFFFFF;" version="1.1" viewBox="0 0 1326 1726" width="1326px" zoomAndPan="magnify"><defs/><g><!--cluster ExamAggregate--><g id="cluster_ExamAggregate"><rect fill="none" height="1304" rx="2.5" ry="2.5" style="stroke:#000000;stroke-width:1.5;" width="1119.5" x="200.5" y="185"/><text fill="#000000" font-family="sans-serif" font-size="20" font-weight="bold" lengthAdjust="spacing" textLength="149" x="685.75" y="207.7617">ExamAggregate</text></g><!--cluster TeacherAggregate--><g id="cluster_TeacherAggregate"><rect fill="none" height="154" rx="2.5" ry="2.5" style="stroke:#000000;stroke-width:1.5;" width="354" x="7" y="7"/><text fill="#000000" font-family="sans-serif" font-size="20" font-weight="bold" lengthAdjust="spacing" textLength="174" x="97" y="29.7617">TeacherAggregate</text></g><!--cluster StudentAggregate--><g id="cluster_StudentAggregate"><rect fill="none" height="154" rx="2.5" ry="2.5" style="stroke:#000000;stroke-width:1.5;" width="515" x="479" y="1513"/><text fill="#000000" font-family="sans-serif" font-size="20" font-weight="bold" lengthAdjust="spacing" textLength="171" x="651" y="1535.7617">StudentAggregate</text></g><!--cluster CourseAggregate--><g id="cluster_CourseAggregate"><rect fill="none" height="207" rx="2.5" ry="2.5" style="stroke:#000000;stroke-width:1.5;" width="351.5" x="9.5" y="1513"/><text fill="#000000" font-family="sans-serif" font-size="20" font-weight="bold" lengthAdjust="spacing" textLength="165" x="102.75" y="1535.7617">CourseAggregate</text></g><!--class Exam--><g id="elem_Exam"><rect codeLine="27" fill="#D8F5FF" height="93.4688" id="Exam" rx="2.5" ry="2.5" style="stroke:#1E90FF;stroke-width:0.5;" width="101" x="216.5" y="541.5"/><ellipse cx="232.5" cy="584.2344" fill="#ADD1B2" rx="12" ry="12" style="stroke:#181818;stroke-width:1.0;"/><path d="M230.4531,585.2969 L230.4531,588.2344 L235.5469,588.2344 L235.5469,587.1406 Q235.5469,586.4219 235.8281,586.125 Q236.1094,585.8125 236.5625,585.8125 Q237,585.8125 237.2813,586.125 Q237.5625,586.4219 237.5625,587.1406 L237.5625,590.2344 L228.125,590.2344 Q227.4063,590.2344 227.0938,589.9531 Q226.7969,589.6719 226.7969,589.2344 Q226.7969,588.7813 227.1094,588.5156 Q227.4219,588.2344 228.125,588.2344 L228.4375,588.2344 L228.4375,580.4063 L228.125,580.4063 Q227.4063,580.4063 227.0938,580.125 Q226.7969,579.8438 226.7969,579.3906 Q226.7969,578.9375 227.0938,578.6719 Q227.4063,578.3906 228.125,578.3906 L237.1094,578.3906 L237.1094,581.4375 Q237.1094,582.1563 236.8281,582.4688 Q236.5625,582.7656 236.125,582.7656 Q235.6719,582.7656 235.3906,582.4688 Q235.1094,582.1719 235.1094,581.4375 L235.1094,580.4063 L230.4531,580.4063 L230.4531,583.2969 L232.2031,583.2969 Q232.2031,582.5156 232.3438,582.2813 Q232.6563,581.8125 233.2031,581.8125 Q233.6563,581.8125 233.9219,582.125 Q234.2031,582.4219 234.2031,583.1406 L234.2031,585.4531 Q234.2031,586.1094 234.0469,586.3281 Q233.7344,586.7813 233.2031,586.7813 Q232.6563,586.7813 232.3438,586.3125 Q232.2031,586.0781 232.2031,585.2969 L230.4531,585.2969 Z " fill="#000000"/><text fill="#000000" font-family="sans-serif" font-size="20" font-style="italic" lengthAdjust="spacing" textLength="71" x="245.5" y="567.2617">«Entity»</text><text fill="#000000" font-family="sans-serif" font-size="20" font-style="italic" lengthAdjust="spacing" textLength="56" x="253" y="592.418">«root»</text><text fill="#000000" font-family="sans-serif" font-size="20" lengthAdjust="spacing" textLength="49" x="256.5" y="617.5742">Exam</text><line style="stroke:#1E90FF;stroke-width:0.5;" x1="217.5" x2="316.5" y1="626.9688" y2="626.9688"/></g><!--class Header--><g id="elem_Header"><rect codeLine="51" fill="#D8F5FF" height="68.3125" id="Header" rx="2.5" ry="2.5" style="stroke:#1E90FF;stroke-width:0.5;" width="101" x="495" y="605"/><ellipse cx="511" cy="635.1563" fill="#ADD1B2" rx="12" ry="12" style="stroke:#181818;stroke-width:1.0;"/><path d="M508.9531,636.2188 L508.9531,639.1563 L514.0469,639.1563 L514.0469,638.0625 Q514.0469,637.3438 514.3281,637.0469 Q514.6094,636.7344 515.0625,636.7344 Q515.5,636.7344 515.7813,637.0469 Q516.0625,637.3438 516.0625,638.0625 L516.0625,641.1563 L506.625,641.1563 Q505.9063,641.1563 505.5938,640.875 Q505.2969,640.5938 505.2969,640.1563 Q505.2969,639.7031 505.6094,639.4375 Q505.9219,639.1563 506.625,639.1563 L506.9375,639.1563 L506.9375,631.3281 L506.625,631.3281 Q505.9063,631.3281 505.5938,631.0469 Q505.2969,630.7656 505.2969,630.3125 Q505.2969,629.8594 505.5938,629.5938 Q505.9063,629.3125 506.625,629.3125 L515.6094,629.3125 L515.6094,632.3594 Q515.6094,633.0781 515.3281,633.3906 Q515.0625,633.6875 514.625,633.6875 Q514.1719,633.6875 513.8906,633.3906 Q513.6094,633.0938 513.6094,632.3594 L513.6094,631.3281 L508.9531,631.3281 L508.9531,634.2188 L510.7031,634.2188 Q510.7031,633.4375 510.8438,633.2031 Q511.1563,632.7344 511.7031,632.7344 Q512.1563,632.7344 512.4219,633.0469 Q512.7031,633.3438 512.7031,634.0625 L512.7031,636.375 Q512.7031,637.0313 512.5469,637.25 Q512.2344,637.7031 511.7031,637.7031 Q511.1563,637.7031 510.8438,637.2344 Q510.7031,637 510.7031,636.2188 L508.9531,636.2188 Z " fill="#000000"/><text fill="#000000" font-family="sans-serif" font-size="20" font-style="italic" lengthAdjust="spacing" textLength="71" x="524" y="630.7617">«Entity»</text><text fill="#000000" font-family="sans-serif" font-size="20" lengthAdjust="spacing" textLength="64" x="527.5" y="655.918">Header</text><line style="stroke:#1E90FF;stroke-width:0.5;" x1="496" x2="595" y1="665.3125" y2="665.3125"/></g><!--class Section--><g id="elem_Section"><rect codeLine="63" fill="#D8F5FF" height="68.3125" id="Section" rx="2.5" ry="2.5" style="stroke:#1E90FF;stroke-width:0.5;" width="101" x="495" y="502"/><ellipse cx="511" cy="532.1563" fill="#ADD1B2" rx="12" ry="12" style="stroke:#181818;stroke-width:1.0;"/><path d="M508.9531,533.2188 L508.9531,536.1563 L514.0469,536.1563 L514.0469,535.0625 Q514.0469,534.3438 514.3281,534.0469 Q514.6094,533.7344 515.0625,533.7344 Q515.5,533.7344 515.7813,534.0469 Q516.0625,534.3438 516.0625,535.0625 L516.0625,538.1563 L506.625,538.1563 Q505.9063,538.1563 505.5938,537.875 Q505.2969,537.5938 505.2969,537.1563 Q505.2969,536.7031 505.6094,536.4375 Q505.9219,536.1563 506.625,536.1563 L506.9375,536.1563 L506.9375,528.3281 L506.625,528.3281 Q505.9063,528.3281 505.5938,528.0469 Q505.2969,527.7656 505.2969,527.3125 Q505.2969,526.8594 505.5938,526.5938 Q505.9063,526.3125 506.625,526.3125 L515.6094,526.3125 L515.6094,529.3594 Q515.6094,530.0781 515.3281,530.3906 Q515.0625,530.6875 514.625,530.6875 Q514.1719,530.6875 513.8906,530.3906 Q513.6094,530.0938 513.6094,529.3594 L513.6094,528.3281 L508.9531,528.3281 L508.9531,531.2188 L510.7031,531.2188 Q510.7031,530.4375 510.8438,530.2031 Q511.1563,529.7344 511.7031,529.7344 Q512.1563,529.7344 512.4219,530.0469 Q512.7031,530.3438 512.7031,531.0625 L512.7031,533.375 Q512.7031,534.0313 512.5469,534.25 Q512.2344,534.7031 511.7031,534.7031 Q511.1563,534.7031 510.8438,534.2344 Q510.7031,534 510.7031,533.2188 L508.9531,533.2188 Z " fill="#000000"/><text fill="#000000" font-family="sans-serif" font-size="20" font-style="italic" lengthAdjust="spacing" textLength="71" x="524" y="527.7617">«Entity»</text><text fill="#000000" font-family="sans-serif" font-size="20" lengthAdjust="spacing" textLength="65" x="527" y="552.918">Section</text><line style="stroke:#1E90FF;stroke-width:0.5;" x1="496" x2="595" y1="562.3125" y2="562.3125"/></g><!--class Question--><g id="elem_Question"><rect codeLine="72" fill="#D8F5FF" height="43.1563" id="Question" rx="2.5" ry="2.5" style="stroke:#1E90FF;stroke-width:0.5;" width="114" x="805" y="1108.5"/><ellipse cx="821" cy="1126.0781" fill="#A9DCDF" rx="12" ry="12" style="stroke:#181818;stroke-width:1.0;"/><path d="M823.4531,1128.1094 L818.5781,1128.1094 L818.0938,1129.3281 L818.5781,1129.3281 Q819.3125,1129.3281 819.6094,1129.6094 Q819.9219,1129.875 819.9219,1130.3281 Q819.9219,1130.7656 819.6094,1131.0469 Q819.3125,1131.3281 818.5781,1131.3281 L815.8906,1131.3281 Q815.1719,1131.3281 814.8594,1131.0469 Q814.5469,1130.7656 814.5469,1130.3281 Q814.5469,1129.875 814.875,1129.5938 Q815.2031,1129.3125 815.9375,1129.3281 L819.0781,1121.5 L817.7813,1121.5 Q817.0469,1121.5 816.7344,1121.2188 Q816.4375,1120.9375 816.4375,1120.4844 Q816.4375,1120.0313 816.7344,1119.7656 Q817.0469,1119.4844 817.7813,1119.4844 L822.0938,1119.4844 L826.0781,1129.3281 Q826.7813,1129.3281 827.0156,1129.4844 Q827.4688,1129.7969 827.4688,1130.3281 Q827.4688,1130.7656 827.1563,1131.0469 Q826.8594,1131.3281 826.1406,1131.3281 L823.4375,1131.3281 Q822.7188,1131.3281 822.4063,1131.0469 Q822.0938,1130.7656 822.0938,1130.3281 Q822.0938,1129.875 822.4063,1129.6094 Q822.7188,1129.3281 823.4375,1129.3281 L823.9219,1129.3281 L823.4531,1128.1094 Z M822.625,1126.1094 L821,1122.1406 L819.3906,1126.1094 L822.625,1126.1094 Z " fill="#000000"/><text fill="#000000" font-family="sans-serif" font-size="20" font-style="italic" lengthAdjust="spacing" textLength="80" x="836" y="1134.2617">Question</text><line style="stroke:#1E90FF;stroke-width:0.5;" x1="806" x2="918" y1="1143.6563" y2="1143.6563"/></g><!--class MatchingQuestion--><g id="elem_MatchingQuestion"><rect codeLine="75" fill="#D8F5FF" height="68.3125" id="MatchingQuestion" rx="2.5" ry="2.5" style="stroke:#1E90FF;stroke-width:0.5;" width="191" x="450" y="890"/><ellipse cx="466" cy="920.1563" fill="#ADD1B2" rx="12" ry="12" style="stroke:#181818;stroke-width:1.0;"/><path d="M463.9531,921.2188 L463.9531,924.1563 L469.0469,924.1563 L469.0469,923.0625 Q469.0469,922.3438 469.3281,922.0469 Q469.6094,921.7344 470.0625,921.7344 Q470.5,921.7344 470.7813,922.0469 Q471.0625,922.3438 471.0625,923.0625 L471.0625,926.1563 L461.625,926.1563 Q460.9063,926.1563 460.5938,925.875 Q460.2969,925.5938 460.2969,925.1563 Q460.2969,924.7031 460.6094,924.4375 Q460.9219,924.1563 461.625,924.1563 L461.9375,924.1563 L461.9375,916.3281 L461.625,916.3281 Q460.9063,916.3281 460.5938,916.0469 Q460.2969,915.7656 460.2969,915.3125 Q460.2969,914.8594 460.5938,914.5938 Q460.9063,914.3125 461.625,914.3125 L470.6094,914.3125 L470.6094,917.3594 Q470.6094,918.0781 470.3281,918.3906 Q470.0625,918.6875 469.625,918.6875 Q469.1719,918.6875 468.8906,918.3906 Q468.6094,918.0938 468.6094,917.3594 L468.6094,916.3281 L463.9531,916.3281 L463.9531,919.2188 L465.7031,919.2188 Q465.7031,918.4375 465.8438,918.2031 Q466.1563,917.7344 466.7031,917.7344 Q467.1563,917.7344 467.4219,918.0469 Q467.7031,918.3438 467.7031,919.0625 L467.7031,921.375 Q467.7031,922.0313 467.5469,922.25 Q467.2344,922.7031 466.7031,922.7031 Q466.1563,922.7031 465.8438,922.2344 Q465.7031,922 465.7031,921.2188 L463.9531,921.2188 Z " fill="#000000"/><text fill="#000000" font-family="sans-serif" font-size="20" font-style="italic" lengthAdjust="spacing" textLength="71" x="524" y="915.7617">«Entity»</text><text fill="#000000" font-family="sans-serif" font-size="20" lengthAdjust="spacing" textLength="157" x="481" y="940.918">MatchingQuestion</text><line style="stroke:#1E90FF;stroke-width:0.5;" x1="451" x2="640" y1="950.3125" y2="950.3125"/></g><!--class MultipleChoiceQuestion--><g id="elem_MultipleChoiceQuestion"><rect codeLine="78" fill="#D8F5FF" height="68.3125" id="MultipleChoiceQuestion" rx="2.5" ry="2.5" style="stroke:#1E90FF;stroke-width:0.5;" width="239" x="426" y="993"/><ellipse cx="442" cy="1023.1563" fill="#ADD1B2" rx="12" ry="12" style="stroke:#181818;stroke-width:1.0;"/><path d="M439.9531,1024.2188 L439.9531,1027.1563 L445.0469,1027.1563 L445.0469,1026.0625 Q445.0469,1025.3438 445.3281,1025.0469 Q445.6094,1024.7344 446.0625,1024.7344 Q446.5,1024.7344 446.7813,1025.0469 Q447.0625,1025.3438 447.0625,1026.0625 L447.0625,1029.1563 L437.625,1029.1563 Q436.9063,1029.1563 436.5938,1028.875 Q436.2969,1028.5938 436.2969,1028.1563 Q436.2969,1027.7031 436.6094,1027.4375 Q436.9219,1027.1563 437.625,1027.1563 L437.9375,1027.1563 L437.9375,1019.3281 L437.625,1019.3281 Q436.9063,1019.3281 436.5938,1019.0469 Q436.2969,1018.7656 436.2969,1018.3125 Q436.2969,1017.8594 436.5938,1017.5938 Q436.9063,1017.3125 437.625,1017.3125 L446.6094,1017.3125 L446.6094,1020.3594 Q446.6094,1021.0781 446.3281,1021.3906 Q446.0625,1021.6875 445.625,1021.6875 Q445.1719,1021.6875 444.8906,1021.3906 Q444.6094,1021.0938 444.6094,1020.3594 L444.6094,1019.3281 L439.9531,1019.3281 L439.9531,1022.2188 L441.7031,1022.2188 Q441.7031,1021.4375 441.8438,1021.2031 Q442.1563,1020.7344 442.7031,1020.7344 Q443.1563,1020.7344 443.4219,1021.0469 Q443.7031,1021.3438 443.7031,1022.0625 L443.7031,1024.375 Q443.7031,1025.0313 443.5469,1025.25 Q443.2344,1025.7031 442.7031,1025.7031 Q442.1563,1025.7031 441.8438,1025.2344 Q441.7031,1025 441.7031,1024.2188 L439.9531,1024.2188 Z " fill="#000000"/><text fill="#000000" font-family="sans-serif" font-size="20" font-style="italic" lengthAdjust="spacing" textLength="71" x="524" y="1018.7617">«Entity»</text><text fill="#000000" font-family="sans-serif" font-size="20" lengthAdjust="spacing" textLength="205" x="457" y="1043.918">MultipleChoiceQuestion</text><line style="stroke:#1E90FF;stroke-width:0.5;" x1="427" x2="664" y1="1053.3125" y2="1053.3125"/></g><!--class ShortAnswerQuestion--><g id="elem_ShortAnswerQuestion"><rect codeLine="81" fill="#D8F5FF" height="68.3125" id="ShortAnswerQuestion" rx="2.5" ry="2.5" style="stroke:#1E90FF;stroke-width:0.5;" width="225" x="433" y="1096"/><ellipse cx="449" cy="1126.1563" fill="#ADD1B2" rx="12" ry="12" style="stroke:#181818;stroke-width:1.0;"/><path d="M446.9531,1127.2188 L446.9531,1130.1563 L452.0469,1130.1563 L452.0469,1129.0625 Q452.0469,1128.3438 452.3281,1128.0469 Q452.6094,1127.7344 453.0625,1127.7344 Q453.5,1127.7344 453.7813,1128.0469 Q454.0625,1128.3438 454.0625,1129.0625 L454.0625,1132.1563 L444.625,1132.1563 Q443.9063,1132.1563 443.5938,1131.875 Q443.2969,1131.5938 443.2969,1131.1563 Q443.2969,1130.7031 443.6094,1130.4375 Q443.9219,1130.1563 444.625,1130.1563 L444.9375,1130.1563 L444.9375,1122.3281 L444.625,1122.3281 Q443.9063,1122.3281 443.5938,1122.0469 Q443.2969,1121.7656 443.2969,1121.3125 Q443.2969,1120.8594 443.5938,1120.5938 Q443.9063,1120.3125 444.625,1120.3125 L453.6094,1120.3125 L453.6094,1123.3594 Q453.6094,1124.0781 453.3281,1124.3906 Q453.0625,1124.6875 452.625,1124.6875 Q452.1719,1124.6875 451.8906,1124.3906 Q451.6094,1124.0938 451.6094,1123.3594 L451.6094,1122.3281 L446.9531,1122.3281 L446.9531,1125.2188 L448.7031,1125.2188 Q448.7031,1124.4375 448.8438,1124.2031 Q449.1563,1123.7344 449.7031,1123.7344 Q450.1563,1123.7344 450.4219,1124.0469 Q450.7031,1124.3438 450.7031,1125.0625 L450.7031,1127.375 Q450.7031,1128.0313 450.5469,1128.25 Q450.2344,1128.7031 449.7031,1128.7031 Q449.1563,1128.7031 448.8438,1128.2344 Q448.7031,1128 448.7031,1127.2188 L446.9531,1127.2188 Z " fill="#000000"/><text fill="#000000" font-family="sans-serif" font-size="20" font-style="italic" lengthAdjust="spacing" textLength="71" x="524" y="1121.7617">«Entity»</text><text fill="#000000" font-family="sans-serif" font-size="20" lengthAdjust="spacing" textLength="191" x="464" y="1146.918">ShortAnswerQuestion</text><line style="stroke:#1E90FF;stroke-width:0.5;" x1="434" x2="657" y1="1156.3125" y2="1156.3125"/></g><!--class NumericQuestion--><g id="elem_NumericQuestion"><rect codeLine="84" fill="#D8F5FF" height="68.3125" id="NumericQuestion" rx="2.5" ry="2.5" style="stroke:#1E90FF;stroke-width:0.5;" width="183" x="454" y="1199"/><ellipse cx="470" cy="1229.1563" fill="#ADD1B2" rx="12" ry="12" style="stroke:#181818;stroke-width:1.0;"/><path d="M467.9531,1230.2188 L467.9531,1233.1563 L473.0469,1233.1563 L473.0469,1232.0625 Q473.0469,1231.3438 473.3281,1231.0469 Q473.6094,1230.7344 474.0625,1230.7344 Q474.5,1230.7344 474.7813,1231.0469 Q475.0625,1231.3438 475.0625,1232.0625 L475.0625,1235.1563 L465.625,1235.1563 Q464.9063,1235.1563 464.5938,1234.875 Q464.2969,1234.5938 464.2969,1234.1563 Q464.2969,1233.7031 464.6094,1233.4375 Q464.9219,1233.1563 465.625,1233.1563 L465.9375,1233.1563 L465.9375,1225.3281 L465.625,1225.3281 Q464.9063,1225.3281 464.5938,1225.0469 Q464.2969,1224.7656 464.2969,1224.3125 Q464.2969,1223.8594 464.5938,1223.5938 Q464.9063,1223.3125 465.625,1223.3125 L474.6094,1223.3125 L474.6094,1226.3594 Q474.6094,1227.0781 474.3281,1227.3906 Q474.0625,1227.6875 473.625,1227.6875 Q473.1719,1227.6875 472.8906,1227.3906 Q472.6094,1227.0938 472.6094,1226.3594 L472.6094,1225.3281 L467.9531,1225.3281 L467.9531,1228.2188 L469.7031,1228.2188 Q469.7031,1227.4375 469.8438,1227.2031 Q470.1563,1226.7344 470.7031,1226.7344 Q471.1563,1226.7344 471.4219,1227.0469 Q471.7031,1227.3438 471.7031,1228.0625 L471.7031,1230.375 Q471.7031,1231.0313 471.5469,1231.25 Q471.2344,1231.7031 470.7031,1231.7031 Q470.1563,1231.7031 469.8438,1231.2344 Q469.7031,1231 469.7031,1230.2188 L467.9531,1230.2188 Z " fill="#000000"/><text fill="#000000" font-family="sans-serif" font-size="20" font-style="italic" lengthAdjust="spacing" textLength="71" x="524" y="1224.7617">«Entity»</text><text fill="#000000" font-family="sans-serif" font-size="20" lengthAdjust="spacing" textLength="149" x="485" y="1249.918">NumericQuestion</text><line style="stroke:#1E90FF;stroke-width:0.5;" x1="455" x2="636" y1="1259.3125" y2="1259.3125"/></g><!--class SelectMissingWordQuestion--><g id="elem_SelectMissingWordQuestion"><rect codeLine="87" fill="#D8F5FF" height="68.3125" id="SelectMissingWordQuestion" rx="2.5" ry="2.5" style="stroke:#1E90FF;stroke-width:0.5;" width="281" x="405" y="1302"/><ellipse cx="421" cy="1332.1563" fill="#ADD1B2" rx="12" ry="12" style="stroke:#181818;stroke-width:1.0;"/><path d="M418.9531,1333.2188 L418.9531,1336.1563 L424.0469,1336.1563 L424.0469,1335.0625 Q424.0469,1334.3438 424.3281,1334.0469 Q424.6094,1333.7344 425.0625,1333.7344 Q425.5,1333.7344 425.7813,1334.0469 Q426.0625,1334.3438 426.0625,1335.0625 L426.0625,1338.1563 L416.625,1338.1563 Q415.9063,1338.1563 415.5938,1337.875 Q415.2969,1337.5938 415.2969,1337.1563 Q415.2969,1336.7031 415.6094,1336.4375 Q415.9219,1336.1563 416.625,1336.1563 L416.9375,1336.1563 L416.9375,1328.3281 L416.625,1328.3281 Q415.9063,1328.3281 415.5938,1328.0469 Q415.2969,1327.7656 415.2969,1327.3125 Q415.2969,1326.8594 415.5938,1326.5938 Q415.9063,1326.3125 416.625,1326.3125 L425.6094,1326.3125 L425.6094,1329.3594 Q425.6094,1330.0781 425.3281,1330.3906 Q425.0625,1330.6875 424.625,1330.6875 Q424.1719,1330.6875 423.8906,1330.3906 Q423.6094,1330.0938 423.6094,1329.3594 L423.6094,1328.3281 L418.9531,1328.3281 L418.9531,1331.2188 L420.7031,1331.2188 Q420.7031,1330.4375 420.8438,1330.2031 Q421.1563,1329.7344 421.7031,1329.7344 Q422.1563,1329.7344 422.4219,1330.0469 Q422.7031,1330.3438 422.7031,1331.0625 L422.7031,1333.375 Q422.7031,1334.0313 422.5469,1334.25 Q422.2344,1334.7031 421.7031,1334.7031 Q421.1563,1334.7031 420.8438,1334.2344 Q420.7031,1334 420.7031,1333.2188 L418.9531,1333.2188 Z " fill="#000000"/><text fill="#000000" font-family="sans-serif" font-size="20" font-style="italic" lengthAdjust="spacing" textLength="71" x="524" y="1327.7617">«Entity»</text><text fill="#000000" font-family="sans-serif" font-size="20" lengthAdjust="spacing" textLength="247" x="436" y="1352.918">SelectMissingWordQuestion</text><line style="stroke:#1E90FF;stroke-width:0.5;" x1="406" x2="685" y1="1362.3125" y2="1362.3125"/></g><!--class TrueOrFalseQuestion--><g id="elem_TrueOrFalseQuestion"><rect codeLine="90" fill="#D8F5FF" height="68.3125" id="TrueOrFalseQuestion" rx="2.5" ry="2.5" style="stroke:#1E90FF;stroke-width:0.5;" width="223" x="434" y="1405"/><ellipse cx="450" cy="1435.1563" fill="#ADD1B2" rx="12" ry="12" style="stroke:#181818;stroke-width:1.0;"/><path d="M447.9531,1436.2188 L447.9531,1439.1563 L453.0469,1439.1563 L453.0469,1438.0625 Q453.0469,1437.3438 453.3281,1437.0469 Q453.6094,1436.7344 454.0625,1436.7344 Q454.5,1436.7344 454.7813,1437.0469 Q455.0625,1437.3438 455.0625,1438.0625 L455.0625,1441.1563 L445.625,1441.1563 Q444.9063,1441.1563 444.5938,1440.875 Q444.2969,1440.5938 444.2969,1440.1563 Q444.2969,1439.7031 444.6094,1439.4375 Q444.9219,1439.1563 445.625,1439.1563 L445.9375,1439.1563 L445.9375,1431.3281 L445.625,1431.3281 Q444.9063,1431.3281 444.5938,1431.0469 Q444.2969,1430.7656 444.2969,1430.3125 Q444.2969,1429.8594 444.5938,1429.5938 Q444.9063,1429.3125 445.625,1429.3125 L454.6094,1429.3125 L454.6094,1432.3594 Q454.6094,1433.0781 454.3281,1433.3906 Q454.0625,1433.6875 453.625,1433.6875 Q453.1719,1433.6875 452.8906,1433.3906 Q452.6094,1433.0938 452.6094,1432.3594 L452.6094,1431.3281 L447.9531,1431.3281 L447.9531,1434.2188 L449.7031,1434.2188 Q449.7031,1433.4375 449.8438,1433.2031 Q450.1563,1432.7344 450.7031,1432.7344 Q451.1563,1432.7344 451.4219,1433.0469 Q451.7031,1433.3438 451.7031,1434.0625 L451.7031,1436.375 Q451.7031,1437.0313 451.5469,1437.25 Q451.2344,1437.7031 450.7031,1437.7031 Q450.1563,1437.7031 449.8438,1437.2344 Q449.7031,1437 449.7031,1436.2188 L447.9531,1436.2188 Z " fill="#000000"/><text fill="#000000" font-family="sans-serif" font-size="20" font-style="italic" lengthAdjust="spacing" textLength="71" x="524" y="1430.7617">«Entity»</text><text fill="#000000" font-family="sans-serif" font-size="20" lengthAdjust="spacing" textLength="189" x="465" y="1455.918">TrueOrFalseQuestion</text><line style="stroke:#1E90FF;stroke-width:0.5;" x1="435" x2="656" y1="1465.3125" y2="1465.3125"/></g><g id="elem_GMN46"><path d="M1038,571.5 L1038,682.125 L1304,682.125 L1304,581.5 L1294,571.5 L1038,571.5 " fill="#FEFFDD" style="stroke:#181818;stroke-width:0.5;"/><path d="M1294,571.5 L1294,581.5 L1304,581.5 L1294,571.5 " fill="#FEFFDD" style="stroke:#181818;stroke-width:1.0;"/><text fill="#000000" font-family="sans-serif" font-size="20" lengthAdjust="spacing" textLength="245" x="1044" y="597.2617">Can be one of the following:</text><text fill="#000000" font-family="sans-serif" font-size="20" lengthAdjust="spacing" textLength="58" x="1044" y="622.418">- None</text><text fill="#000000" font-family="sans-serif" font-size="20" lengthAdjust="spacing" textLength="145" x="1044" y="647.5742">- On-Submission</text><text fill="#000000" font-family="sans-serif" font-size="20" lengthAdjust="spacing" textLength="127" x="1044" y="672.7305">- After-Closing</text></g><g id="elem_GMN49"><path d="M1038,753.5 L1038,864.125 L1304,864.125 L1304,763.5 L1294,753.5 L1038,753.5 " fill="#FEFFDD" style="stroke:#181818;stroke-width:0.5;"/><path d="M1294,753.5 L1294,763.5 L1304,763.5 L1294,753.5 " fill="#FEFFDD" style="stroke:#181818;stroke-width:1.0;"/><text fill="#000000" font-family="sans-serif" font-size="20" lengthAdjust="spacing" textLength="245" x="1044" y="779.2617">Can be one of the following:</text><text fill="#000000" font-family="sans-serif" font-size="20" lengthAdjust="spacing" textLength="58" x="1044" y="804.418">- None</text><text fill="#000000" font-family="sans-serif" font-size="20" lengthAdjust="spacing" textLength="145" x="1044" y="829.5742">- On-Submission</text><text fill="#000000" font-family="sans-serif" font-size="20" lengthAdjust="spacing" textLength="127" x="1044" y="854.7305">- After-Closing</text></g><!--entity Title--><g id="elem_Title"><rect fill="#D8F5FF" height="56.3125" rx="2.5" ry="2.5" style="stroke:#1E90FF;stroke-width:0.5;" width="156" x="467.5" y="411"/><text fill="#000000" font-family="sans-serif" font-size="20" font-style="italic" lengthAdjust="spacing" textLength="136" x="477.5" y="434.7617">«Value Object»</text><text fill="#000000" font-family="sans-serif" font-size="20" lengthAdjust="spacing" textLength="37" x="527" y="459.918">Title</text></g><!--entity ExamDescription--><g id="elem_ExamDescription"><rect fill="#D8F5FF" height="56.3125" rx="2.5" ry="2.5" style="stroke:#1E90FF;stroke-width:0.5;" width="167" x="462" y="320"/><text fill="#000000" font-family="sans-serif" font-size="20" font-style="italic" lengthAdjust="spacing" textLength="136" x="477.5" y="343.7617">«Value Object»</text><text fill="#000000" font-family="sans-serif" font-size="20" lengthAdjust="spacing" textLength="147" x="472" y="368.918">ExamDescription</text></g><!--entity Grade--><g id="elem_Grade"><rect fill="#D8F5FF" height="56.3125" rx="2.5" ry="2.5" style="stroke:#1E90FF;stroke-width:0.5;" width="156" x="467.5" y="229"/><text fill="#000000" font-family="sans-serif" font-size="20" font-style="italic" lengthAdjust="spacing" textLength="136" x="477.5" y="252.7617">«Value Object»</text><text fill="#000000" font-family="sans-serif" font-size="20" lengthAdjust="spacing" textLength="56" x="517.5" y="277.918">Grade</text></g><!--entity Feedback--><g id="elem_Feedback"><rect fill="#D8F5FF" height="56.3125" rx="2.5" ry="2.5" style="stroke:#1E90FF;stroke-width:0.5;" width="156" x="1093" y="1148"/><text fill="#000000" font-family="sans-serif" font-size="20" font-style="italic" lengthAdjust="spacing" textLength="136" x="1103" y="1171.7617">«Value Object»</text><text fill="#000000" font-family="sans-serif" font-size="20" lengthAdjust="spacing" textLength="87" x="1127.5" y="1196.918">Feedback</text></g><!--entity Solution--><g id="elem_Solution"><rect fill="#D8F5FF" height="56.3125" rx="2.5" ry="2.5" style="stroke:#1E90FF;stroke-width:0.5;" width="156" x="1093" y="1057"/><text fill="#000000" font-family="sans-serif" font-size="20" font-style="italic" lengthAdjust="spacing" textLength="136" x="1103" y="1080.7617">«Value Object»</text><text fill="#000000" font-family="sans-serif" font-size="20" lengthAdjust="spacing" textLength="69" x="1136.5" y="1105.918">Solution</text></g><!--entity OpenDate--><g id="elem_OpenDate"><rect fill="#D8F5FF" height="56.3125" rx="2.5" ry="2.5" style="stroke:#1E90FF;stroke-width:0.5;" width="156" x="467.5" y="799"/><text fill="#000000" font-family="sans-serif" font-size="20" font-style="italic" lengthAdjust="spacing" textLength="136" x="477.5" y="822.7617">«Value Object»</text><text fill="#000000" font-family="sans-serif" font-size="20" lengthAdjust="spacing" textLength="90" x="500.5" y="847.918">OpenDate</text></g><!--entity CloseDate--><g id="elem_CloseDate"><rect fill="#D8F5FF" height="56.3125" rx="2.5" ry="2.5" style="stroke:#1E90FF;stroke-width:0.5;" width="156" x="467.5" y="708"/><text fill="#000000" font-family="sans-serif" font-size="20" font-style="italic" lengthAdjust="spacing" textLength="136" x="477.5" y="731.7617">«Value Object»</text><text fill="#000000" font-family="sans-serif" font-size="20" lengthAdjust="spacing" textLength="92" x="499.5" y="756.918">CloseDate</text></g><!--entity HeaderDescription--><g id="elem_HeaderDescription"><rect fill="#D8F5FF" height="56.3125" rx="2.5" ry="2.5" style="stroke:#1E90FF;stroke-width:0.5;" width="182" x="771" y="690"/><text fill="#000000" font-family="sans-serif" font-size="20" font-style="italic" lengthAdjust="spacing" textLength="136" x="794" y="713.7617">«Value Object»</text><text fill="#000000" font-family="sans-serif" font-size="20" lengthAdjust="spacing" textLength="162" x="781" y="738.918">HeaderDescription</text></g><!--entity FeedbackType--><g id="elem_FeedbackType"><rect fill="#D8F5FF" height="56.3125" rx="2.5" ry="2.5" style="stroke:#1E90FF;stroke-width:0.5;" width="156" x="784" y="599"/><text fill="#000000" font-family="sans-serif" font-size="20" font-style="italic" lengthAdjust="spacing" textLength="136" x="794" y="622.7617">«Value Object»</text><text fill="#000000" font-family="sans-serif" font-size="20" lengthAdjust="spacing" textLength="131" x="796.5" y="647.918">FeedbackType</text></g><!--entity GradeType--><g id="elem_GradeType"><rect fill="#D8F5FF" height="56.3125" rx="2.5" ry="2.5" style="stroke:#1E90FF;stroke-width:0.5;" width="156" x="784" y="781"/><text fill="#000000" font-family="sans-serif" font-size="20" font-style="italic" lengthAdjust="spacing" textLength="136" x="794" y="804.7617">«Value Object»</text><text fill="#000000" font-family="sans-serif" font-size="20" lengthAdjust="spacing" textLength="100" x="812" y="829.918">GradeType</text></g><!--entity SectionDescription--><g id="elem_SectionDescription"><rect fill="#D8F5FF" height="56.3125" rx="2.5" ry="2.5" style="stroke:#1E90FF;stroke-width:0.5;" width="183" x="770.5" y="508"/><text fill="#000000" font-family="sans-serif" font-size="20" font-style="italic" lengthAdjust="spacing" textLength="136" x="794" y="531.7617">«Value Object»</text><text fill="#000000" font-family="sans-serif" font-size="20" lengthAdjust="spacing" textLength="163" x="780.5" y="556.918">SectionDescription</text></g><!--entity SectionTitle--><g id="elem_SectionTitle"><rect fill="#D8F5FF" height="56.3125" rx="2.5" ry="2.5" style="stroke:#1E90FF;stroke-width:0.5;" width="156" x="784" y="417"/><text fill="#000000" font-family="sans-serif" font-size="20" font-style="italic" lengthAdjust="spacing" textLength="136" x="794" y="440.7617">«Value Object»</text><text fill="#000000" font-family="sans-serif" font-size="20" lengthAdjust="spacing" textLength="102" x="811" y="465.918">SectionTitle</text></g><!--class Teacher--><g id="elem_Teacher"><rect codeLine="137" fill="#D8F5FF" height="93.4688" id="Teacher" rx="2.5" ry="2.5" style="stroke:#1E90FF;stroke-width:0.5;" width="106" x="23" y="51.5"/><ellipse cx="39" cy="94.2344" fill="#ADD1B2" rx="12" ry="12" style="stroke:#181818;stroke-width:1.0;"/><path d="M36.9531,95.2969 L36.9531,98.2344 L42.0469,98.2344 L42.0469,97.1406 Q42.0469,96.4219 42.3281,96.125 Q42.6094,95.8125 43.0625,95.8125 Q43.5,95.8125 43.7813,96.125 Q44.0625,96.4219 44.0625,97.1406 L44.0625,100.2344 L34.625,100.2344 Q33.9063,100.2344 33.5938,99.9531 Q33.2969,99.6719 33.2969,99.2344 Q33.2969,98.7813 33.6094,98.5156 Q33.9219,98.2344 34.625,98.2344 L34.9375,98.2344 L34.9375,90.4063 L34.625,90.4063 Q33.9063,90.4063 33.5938,90.125 Q33.2969,89.8438 33.2969,89.3906 Q33.2969,88.9375 33.5938,88.6719 Q33.9063,88.3906 34.625,88.3906 L43.6094,88.3906 L43.6094,91.4375 Q43.6094,92.1563 43.3281,92.4688 Q43.0625,92.7656 42.625,92.7656 Q42.1719,92.7656 41.8906,92.4688 Q41.6094,92.1719 41.6094,91.4375 L41.6094,90.4063 L36.9531,90.4063 L36.9531,93.2969 L38.7031,93.2969 Q38.7031,92.5156 38.8438,92.2813 Q39.1563,91.8125 39.7031,91.8125 Q40.1563,91.8125 40.4219,92.125 Q40.7031,92.4219 40.7031,93.1406 L40.7031,95.4531 Q40.7031,96.1094 40.5469,96.3281 Q40.2344,96.7813 39.7031,96.7813 Q39.1563,96.7813 38.8438,96.3125 Q38.7031,96.0781 38.7031,95.2969 L36.9531,95.2969 Z " fill="#000000"/><text fill="#000000" font-family="sans-serif" font-size="20" font-style="italic" lengthAdjust="spacing" textLength="71" x="54.5" y="77.2617">«Entity»</text><text fill="#000000" font-family="sans-serif" font-size="20" font-style="italic" lengthAdjust="spacing" textLength="56" x="62" y="102.418">«root»</text><text fill="#000000" font-family="sans-serif" font-size="20" lengthAdjust="spacing" textLength="72" x="54" y="127.5742">Teacher</text><line style="stroke:#1E90FF;stroke-width:0.5;" x1="24" x2="128" y1="136.9688" y2="136.9688"/></g><!--entity Acronym--><g id="elem_Acronym"><rect fill="#D8F5FF" height="56.3125" rx="2.5" ry="2.5" style="stroke:#1E90FF;stroke-width:0.5;" width="156" x="189" y="70"/><text fill="#000000" font-family="sans-serif" font-size="20" font-style="italic" lengthAdjust="spacing" textLength="136" x="199" y="93.7617">«Value Object»</text><text fill="#000000" font-family="sans-serif" font-size="20" lengthAdjust="spacing" textLength="77" x="228.5" y="118.918">Acronym</text></g><!--class Student--><g id="elem_Student"><rect codeLine="150" fill="#D8F5FF" height="93.4688" id="Student" rx="2.5" ry="2.5" style="stroke:#1E90FF;stroke-width:0.5;" width="101" x="495" y="1557.5"/><ellipse cx="511" cy="1600.2344" fill="#ADD1B2" rx="12" ry="12" style="stroke:#181818;stroke-width:1.0;"/><path d="M508.9531,1601.2969 L508.9531,1604.2344 L514.0469,1604.2344 L514.0469,1603.1406 Q514.0469,1602.4219 514.3281,1602.125 Q514.6094,1601.8125 515.0625,1601.8125 Q515.5,1601.8125 515.7813,1602.125 Q516.0625,1602.4219 516.0625,1603.1406 L516.0625,1606.2344 L506.625,1606.2344 Q505.9063,1606.2344 505.5938,1605.9531 Q505.2969,1605.6719 505.2969,1605.2344 Q505.2969,1604.7813 505.6094,1604.5156 Q505.9219,1604.2344 506.625,1604.2344 L506.9375,1604.2344 L506.9375,1596.4063 L506.625,1596.4063 Q505.9063,1596.4063 505.5938,1596.125 Q505.2969,1595.8438 505.2969,1595.3906 Q505.2969,1594.9375 505.5938,1594.6719 Q505.9063,1594.3906 506.625,1594.3906 L515.6094,1594.3906 L515.6094,1597.4375 Q515.6094,1598.1563 515.3281,1598.4688 Q515.0625,1598.7656 514.625,1598.7656 Q514.1719,1598.7656 513.8906,1598.4688 Q513.6094,1598.1719 513.6094,1597.4375 L513.6094,1596.4063 L508.9531,1596.4063 L508.9531,1599.2969 L510.7031,1599.2969 Q510.7031,1598.5156 510.8438,1598.2813 Q511.1563,1597.8125 511.7031,1597.8125 Q512.1563,1597.8125 512.4219,1598.125 Q512.7031,1598.4219 512.7031,1599.1406 L512.7031,1601.4531 Q512.7031,1602.1094 512.5469,1602.3281 Q512.2344,1602.7813 511.7031,1602.7813 Q511.1563,1602.7813 510.8438,1602.3125 Q510.7031,1602.0781 510.7031,1601.2969 L508.9531,1601.2969 Z " fill="#000000"/><text fill="#000000" font-family="sans-serif" font-size="20" font-style="italic" lengthAdjust="spacing" textLength="71" x="524" y="1583.2617">«Entity»</text><text fill="#000000" font-family="sans-serif" font-size="20" font-style="italic" lengthAdjust="spacing" textLength="56" x="531.5" y="1608.418">«root»</text><text fill="#000000" font-family="sans-serif" font-size="20" lengthAdjust="spacing" textLength="67" x="526" y="1633.5742">Student</text><line style="stroke:#1E90FF;stroke-width:0.5;" x1="496" x2="595" y1="1642.9688" y2="1642.9688"/></g><!--entity MechanographicNumber--><g id="elem_MechanographicNumber"><rect fill="#D8F5FF" height="56.3125" rx="2.5" ry="2.5" style="stroke:#1E90FF;stroke-width:0.5;" width="232" x="746" y="1576"/><text fill="#000000" font-family="sans-serif" font-size="20" font-style="italic" lengthAdjust="spacing" textLength="136" x="794" y="1599.7617">«Value Object»</text><text fill="#000000" font-family="sans-serif" font-size="20" lengthAdjust="spacing" textLength="212" x="756" y="1624.918">MechanographicNumber</text></g><!--class Course--><g id="elem_Course"><rect codeLine="162" fill="#D8F5FF" height="93.4688" id="Course" rx="2.5" ry="2.5" style="stroke:#1E90FF;stroke-width:0.5;" width="101" x="25.5" y="1557.5"/><ellipse cx="41.5" cy="1600.2344" fill="#ADD1B2" rx="12" ry="12" style="stroke:#181818;stroke-width:1.0;"/><path d="M39.4531,1601.2969 L39.4531,1604.2344 L44.5469,1604.2344 L44.5469,1603.1406 Q44.5469,1602.4219 44.8281,1602.125 Q45.1094,1601.8125 45.5625,1601.8125 Q46,1601.8125 46.2813,1602.125 Q46.5625,1602.4219 46.5625,1603.1406 L46.5625,1606.2344 L37.125,1606.2344 Q36.4063,1606.2344 36.0938,1605.9531 Q35.7969,1605.6719 35.7969,1605.2344 Q35.7969,1604.7813 36.1094,1604.5156 Q36.4219,1604.2344 37.125,1604.2344 L37.4375,1604.2344 L37.4375,1596.4063 L37.125,1596.4063 Q36.4063,1596.4063 36.0938,1596.125 Q35.7969,1595.8438 35.7969,1595.3906 Q35.7969,1594.9375 36.0938,1594.6719 Q36.4063,1594.3906 37.125,1594.3906 L46.1094,1594.3906 L46.1094,1597.4375 Q46.1094,1598.1563 45.8281,1598.4688 Q45.5625,1598.7656 45.125,1598.7656 Q44.6719,1598.7656 44.3906,1598.4688 Q44.1094,1598.1719 44.1094,1597.4375 L44.1094,1596.4063 L39.4531,1596.4063 L39.4531,1599.2969 L41.2031,1599.2969 Q41.2031,1598.5156 41.3438,1598.2813 Q41.6563,1597.8125 42.2031,1597.8125 Q42.6563,1597.8125 42.9219,1598.125 Q43.2031,1598.4219 43.2031,1599.1406 L43.2031,1601.4531 Q43.2031,1602.1094 43.0469,1602.3281 Q42.7344,1602.7813 42.2031,1602.7813 Q41.6563,1602.7813 41.3438,1602.3125 Q41.2031,1602.0781 41.2031,1601.2969 L39.4531,1601.2969 Z " fill="#000000"/><text fill="#000000" font-family="sans-serif" font-size="20" font-style="italic" lengthAdjust="spacing" textLength="71" x="54.5" y="1583.2617">«Entity»</text><text fill="#000000" font-family="sans-serif" font-size="20" font-style="italic" lengthAdjust="spacing" textLength="56" x="62" y="1608.418">«root»</text><text fill="#000000" font-family="sans-serif" font-size="20" lengthAdjust="spacing" textLength="63" x="58.5" y="1633.5742">Course</text><line style="stroke:#1E90FF;stroke-width:0.5;" x1="26.5" x2="125.5" y1="1642.9688" y2="1642.9688"/></g><!--entity Code--><g id="elem_Code"><rect fill="#D8F5FF" height="56.3125" rx="2.5" ry="2.5" style="stroke:#1E90FF;stroke-width:0.5;" width="156" x="189" y="1648"/><text fill="#000000" font-family="sans-serif" font-size="20" font-style="italic" lengthAdjust="spacing" textLength="136" x="199" y="1671.7617">«Value Object»</text><text fill="#000000" font-family="sans-serif" font-size="20" lengthAdjust="spacing" textLength="47" x="243.5" y="1696.918">Code</text></g><!--entity Edition--><g id="elem_Edition"><rect fill="#D8F5FF" height="56.3125" rx="2.5" ry="2.5" style="stroke:#1E90FF;stroke-width:0.5;" width="156" x="189" y="1557"/><text fill="#000000" font-family="sans-serif" font-size="20" font-style="italic" lengthAdjust="spacing" textLength="136" x="199" y="1580.7617">«Value Object»</text><text fill="#000000" font-family="sans-serif" font-size="20" lengthAdjust="spacing" textLength="59" x="237.5" y="1605.918">Edition</text></g><!--link Exam to Title--><g id="link_Exam_Title"><path codeLine="93" d="M317.59,543.86 C342.48,523.46 373.89,500.22 405,484 C422.89,474.67 443.08,466.8 462.42,460.39 " fill="none" id="Exam-to-Title" style="stroke:#1E90FF;stroke-width:1.0;"/><polygon fill="#1E90FF" points="467.32,458.79,457.525,457.7617,462.5639,460.3325,459.993,465.3714,467.32,458.79" style="stroke:#1E90FF;stroke-width:1.0;"/></g><!--link Exam to Header--><g id="link_Exam_Header"><path codeLine="94" d="M317.75,597.18 C366.15,606.1 439.52,619.64 489.61,628.87 " fill="none" id="Exam-to-Header" style="stroke:#1E90FF;stroke-width:1.0;"/><polygon fill="#1E90FF" points="494.68,629.81,486.545,624.2583,489.7613,628.9118,485.1079,632.1282,494.68,629.81" style="stroke:#1E90FF;stroke-width:1.0;"/><text fill="#000000" font-family="sans-serif" font-size="20" lengthAdjust="spacing" textLength="11" x="476.112" y="651.006">1</text></g><!--link Exam to Grade--><g id="link_Exam_Grade"><path codeLine="95" d="M278.12,541.42 C294.21,478.29 331.61,366.11 405,302 C421.23,287.82 442,278.09 462.52,271.43 " fill="none" id="Exam-to-Grade" style="stroke:#1E90FF;stroke-width:1.0;"/><polygon fill="#1E90FF" points="467.45,269.89,457.6647,268.7732,462.6801,271.3895,460.0639,276.405,467.45,269.89" style="stroke:#1E90FF;stroke-width:1.0;"/></g><!--link Exam to OpenDate--><g id="link_Exam_OpenDate"><path codeLine="96" d="M290.12,634.66 C313.08,678.37 352.94,742.56 405,781 C421.9,793.48 442.38,802.69 462.37,809.45 " fill="none" id="Exam-to-OpenDate" style="stroke:#1E90FF;stroke-width:1.0;"/><polygon fill="#1E90FF" points="467.17,811.02,459.8788,804.3989,462.4223,809.4517,457.3695,811.9952,467.17,811.02" style="stroke:#1E90FF;stroke-width:1.0;"/></g><!--link Exam to CloseDate--><g id="link_Exam_CloseDate"><path codeLine="97" d="M317.76,631.15 C342.69,651.13 374.08,673.93 405,690 C422.94,699.32 443.15,707.28 462.5,713.83 " fill="none" id="Exam-to-CloseDate" style="stroke:#1E90FF;stroke-width:1.0;"/><polygon fill="#1E90FF" points="467.4,715.46,460.1328,708.8126,462.658,713.8746,457.5961,716.3998,467.4,715.46" style="stroke:#1E90FF;stroke-width:1.0;"/></g><!--link Exam to ExamDescription--><g id="link_Exam_ExamDescription"><path codeLine="98" d="M289.72,541.2 C312.53,496.98 352.38,431.79 405,393 C420.26,381.75 438.45,373.24 456.58,366.82 " fill="none" id="Exam-to-ExamDescription" style="stroke:#1E90FF;stroke-width:1.0;"/><polygon fill="#1E90FF" points="461.68,365.07,451.8703,364.1922,456.9481,366.6854,454.455,371.7632,461.68,365.07" style="stroke:#1E90FF;stroke-width:1.0;"/></g><!--link Exam to Section--><g id="link_Exam_Section"><path codeLine="99" d="M317.75,578.64 C366.15,569.54 439.52,555.74 489.61,546.32 " fill="none" id="Exam-to-Section" style="stroke:#1E90FF;stroke-width:1.0;"/><polygon fill="#1E90FF" points="494.68,545.37,485.0938,543.1106,489.7669,546.2983,486.5792,550.9715,494.68,545.37" style="stroke:#1E90FF;stroke-width:1.0;"/><text fill="#000000" font-family="sans-serif" font-size="20" lengthAdjust="spacing" textLength="8" x="478.9709" y="569.1962">*</text></g><!--link Header to HeaderDescription--><g id="link_Header_HeaderDescription"><path codeLine="101" d="M596.33,651.52 C641.73,662.92 710,680.07 765.83,694.09 " fill="none" id="Header-to-HeaderDescription" style="stroke:#1E90FF;stroke-width:1.0;"/><polygon fill="#1E90FF" points="770.85,695.36,763.0889,689.2966,765.9993,694.1473,761.1486,697.0577,770.85,695.36" style="stroke:#1E90FF;stroke-width:1.0;"/></g><!--link Header to FeedbackType--><g id="link_Header_FeedbackType"><path codeLine="102" d="M596.33,637.1 C645.26,635.23 720.76,632.35 778.62,630.14 " fill="none" id="Header-to-FeedbackType" style="stroke:#1E90FF;stroke-width:1.0;"/><polygon fill="#1E90FF" points="783.81,629.95,774.6673,626.2878,778.8135,630.1361,774.9651,634.2822,783.81,629.95" style="stroke:#1E90FF;stroke-width:1.0;"/></g><!--link Header to GradeType--><g id="link_Header_GradeType"><path codeLine="103" d="M596.05,650.18 C624.2,658.16 659.07,670.91 686,690 C720.26,714.29 712.11,738.2 746,763 C756.11,770.4 767.58,776.81 779.26,782.31 " fill="none" id="Header-to-GradeType" style="stroke:#1E90FF;stroke-width:1.0;"/><polygon fill="#1E90FF" points="783.92,784.44,777.4098,777.0496,779.376,782.3538,774.0719,784.32,783.92,784.44" style="stroke:#1E90FF;stroke-width:1.0;"/></g><!--link Section to SectionDescription--><g id="link_Section_SectionDescription"><path codeLine="105" d="M596.33,536 C641.56,536 709.5,536 765.21,536 " fill="none" id="Section-to-SectionDescription" style="stroke:#1E90FF;stroke-width:1.0;"/><polygon fill="#1E90FF" points="770.22,536,761.22,532,765.22,536,761.22,540,770.22,536" style="stroke:#1E90FF;stroke-width:1.0;"/></g><!--link Section to SectionTitle--><g id="link_Section_SectionTitle"><path codeLine="106" d="M596.33,521.58 C645.36,507.4 721.06,485.49 778.97,468.74 " fill="none" id="Section-to-SectionTitle" style="stroke:#1E90FF;stroke-width:1.0;"/><polygon fill="#1E90FF" points="783.81,467.34,774.0547,465.9855,779.0051,468.723,776.2676,473.6734,783.81,467.34" style="stroke:#1E90FF;stroke-width:1.0;"/></g><!--link Section to Question--><g id="link_Section_Question"><path codeLine="107" d="M596.15,542.09 C626.32,548.38 663.28,561.13 686,587 C766.26,678.39 709.14,738.09 746,854 C775.96,948.22 825,1055.01 848.14,1103.52 " fill="none" id="Section-to-Question" style="stroke:#1E90FF;stroke-width:1.0;"/><polygon fill="#1E90FF" points="850.43,1108.31,850.1587,1098.4649,848.2742,1103.7986,842.9405,1101.9141,850.43,1108.31" style="stroke:#1E90FF;stroke-width:1.0;"/><text fill="#000000" font-family="sans-serif" font-size="20" lengthAdjust="spacing" textLength="8" x="838.8294" y="1096.1653">*</text></g><!--link Question to Feedback--><g id="link_Question_Feedback"><path codeLine="109" d="M919.31,1138.44 C966.51,1145.51 1034.55,1155.7 1087.84,1163.69 " fill="none" id="Question-to-Feedback" style="stroke:#1E90FF;stroke-width:1.0;"/><polygon fill="#1E90FF" points="1092.95,1164.45,1084.6444,1159.1568,1088.0055,1163.7069,1083.4555,1167.068,1092.95,1164.45" style="stroke:#1E90FF;stroke-width:1.0;"/></g><!--link Question to Solution--><g id="link_Question_Solution"><path codeLine="110" d="M919.31,1121.75 C966.51,1114.83 1034.55,1104.85 1087.84,1097.04 " fill="none" id="Question-to-Solution" style="stroke:#1E90FF;stroke-width:1.0;"/><polygon fill="#1E90FF" points="1092.95,1096.29,1083.4629,1093.6452,1088.0034,1097.0191,1084.6295,1101.5597,1092.95,1096.29" style="stroke:#1E90FF;stroke-width:1.0;"/></g><!--link MatchingQuestion to Question--><g id="link_MatchingQuestion_Question"><path codeLine="112" d="M641.02,953.07 C656.51,959.37 672.05,966.68 686,975 C740.92,1007.75 794.52,1058.89 827.63,1093.39 " fill="none" id="MatchingQuestion-to-Question" style="stroke:#1E90FF;stroke-width:1.0;"/><polygon fill="none" points="833.13,1089.02,841.74,1108.39,822.94,1098.62,833.13,1089.02" style="stroke:#1E90FF;stroke-width:1.0;"/></g><!--link MultipleChoiceQuestion to Question--><g id="link_MultipleChoiceQuestion_Question"><path codeLine="113" d="M650.35,1061.01 C694.63,1075.51 745.33,1092.12 785.89,1105.4 " fill="none" id="MultipleChoiceQuestion-to-Question" style="stroke:#1E90FF;stroke-width:1.0;"/><polygon fill="none" points="788.08,1098.75,804.91,1111.63,783.72,1112.06,788.08,1098.75" style="stroke:#1E90FF;stroke-width:1.0;"/></g><!--link ShortAnswerQuestion to Question--><g id="link_ShortAnswerQuestion_Question"><path codeLine="114" d="M658.27,1130 C700.13,1130 746.69,1130 784.63,1130 " fill="none" id="ShortAnswerQuestion-to-Question" style="stroke:#1E90FF;stroke-width:1.0;"/><polygon fill="none" points="784.73,1123,804.73,1130,784.73,1137,784.73,1123" style="stroke:#1E90FF;stroke-width:1.0;"/></g><!--link NumericQuestion to Question--><g id="link_NumericQuestion_Question"><path codeLine="115" d="M637.04,1203.35 C684.04,1187.95 740.8,1169.36 785.42,1154.75 " fill="none" id="NumericQuestion-to-Question" style="stroke:#1E90FF;stroke-width:1.0;"/><polygon fill="none" points="783.49,1148.02,804.67,1148.45,787.85,1161.32,783.49,1148.02" style="stroke:#1E90FF;stroke-width:1.0;"/></g><!--link SelectMissingWordQuestion to Question--><g id="link_SelectMissingWordQuestion_Question"><path codeLine="116" d="M650.94,1301.9 C663.07,1296.54 675.02,1290.57 686,1284 C740.56,1251.35 794.07,1200.77 827.26,1166.57 " fill="none" id="SelectMissingWordQuestion-to-Question" style="stroke:#1E90FF;stroke-width:1.0;"/><polygon fill="none" points="822.57,1161.34,841.43,1151.68,832.71,1171,822.57,1161.34" style="stroke:#1E90FF;stroke-width:1.0;"/></g><!--link TrueOrFalseQuestion to Question--><g id="link_TrueOrFalseQuestion_Question"><path codeLine="117" d="M657.35,1405.15 C667.51,1399.88 677.25,1393.86 686,1387 C761.86,1327.53 817.04,1225.98 843.48,1169.99 " fill="none" id="TrueOrFalseQuestion-to-Question" style="stroke:#1E90FF;stroke-width:1.0;"/><polygon fill="none" points="837.21,1166.86,851.9,1151.58,849.94,1172.68,837.21,1166.86" style="stroke:#1E90FF;stroke-width:1.0;"/></g><!--link FeedbackType to GMN46--><g id="link_FeedbackType_GMN46"><path d="M940.07,627 C969.73,627 1004.51,627 1037.9,627 " fill="none" id="FeedbackType-GMN46" style="stroke:#1E90FF;stroke-width:1.0;stroke-dasharray:7.0,7.0;"/></g><!--link GradeType to GMN49--><g id="link_GradeType_GMN49"><path d="M940.07,809 C969.73,809 1004.51,809 1037.9,809 " fill="none" id="GradeType-GMN49" style="stroke:#1E90FF;stroke-width:1.0;stroke-dasharray:7.0,7.0;"/></g><!--link Teacher to Acronym--><g id="link_Teacher_Acronym"><path codeLine="144" d="M129.15,98 C146.02,98 165.18,98 183.69,98 " fill="none" id="Teacher-to-Acronym" style="stroke:#1E90FF;stroke-width:1.0;"/><polygon fill="#1E90FF" points="188.9,98,179.9,94,183.9,98,179.9,102,188.9,98" style="stroke:#1E90FF;stroke-width:1.0;"/></g><!--link Student to MechanographicNumber--><g id="link_Student_MechanographicNumber"><path codeLine="156" d="M596.33,1604 C635.1,1604 690.55,1604 740.69,1604 " fill="none" id="Student-to-MechanographicNumber" style="stroke:#1E90FF;stroke-width:1.0;"/><polygon fill="#1E90FF" points="745.83,1604,736.83,1600,740.83,1604,736.83,1608,745.83,1604" style="stroke:#1E90FF;stroke-width:1.0;"/></g><!--link Course to Code--><g id="link_Course_Code"><path codeLine="171" d="M126.66,1622.92 C145.37,1630.04 167.13,1638.33 187.81,1646.22 " fill="none" id="Course-to-Code" style="stroke:#1E90FF;stroke-width:1.0;"/><polygon fill="#1E90FF" points="192.49,1648,185.5115,1641.0501,187.8196,1646.2147,182.655,1648.5227,192.49,1648" style="stroke:#1E90FF;stroke-width:1.0;"/></g><!--link Course to Edition--><g id="link_Course_Edition"><path codeLine="172" d="M126.66,1599.01 C144.05,1597.26 164.09,1595.25 183.44,1593.3 " fill="none" id="Course-to-Edition" style="stroke:#1E90FF;stroke-width:1.0;"/><polygon fill="#1E90FF" points="188.88,1592.75,179.5249,1589.6707,183.9051,1593.2503,180.3255,1597.6306,188.88,1592.75" style="stroke:#1E90FF;stroke-width:1.0;"/></g><!--link Teacher to Exam--><g id="link_Teacher_Exam"><path codeLine="176" d="M94.95,144.54 C130.43,236.51 209.27,440.91 246.2,536.66 " fill="none" id="Teacher-to-Exam" style="stroke:#1E90FF;stroke-width:1.0;"/><polygon fill="#1E90FF" points="248.03,541.41,248.5164,531.5732,246.2274,536.7462,241.0544,534.4573,248.03,541.41" style="stroke:#1E90FF;stroke-width:1.0;"/><text fill="#000000" font-family="sans-serif" font-size="20" lengthAdjust="spacing" textLength="8" x="236.9434" y="529.2105">*</text></g><!--link Course to Exam--><g id="link_Course_Exam"><path codeLine="177" d="M85.67,1557.37 C116.94,1389.32 223.7,815.4 256.4,639.6 " fill="none" id="Course-to-Exam" style="stroke:#1E90FF;stroke-width:1.0;"/><polygon fill="#1E90FF" points="257.35,634.52,251.7713,642.6365,256.4355,639.4357,259.6363,644.0998,257.35,634.52" style="stroke:#1E90FF;stroke-width:1.0;"/><text fill="#000000" font-family="sans-serif" font-size="20" lengthAdjust="spacing" textLength="8" x="247.4305" y="663.5594">*</text></g><!--link Exam to Student--><g id="link_Exam_Student"><path codeLine="178" d="M270.71,634.53 C280.84,797.37 320.37,1339.86 405,1489 C425.01,1524.26 460.33,1553.21 490.42,1573.24 " fill="none" id="Exam-to-Student" style="stroke:#1E90FF;stroke-width:1.0;"/><polygon fill="#1E90FF" points="494.82,1576.13,489.5174,1567.8304,490.6488,1573.373,485.1062,1574.5044,494.82,1576.13" style="stroke:#1E90FF;stroke-width:1.0;"/><text fill="#000000" font-family="sans-serif" font-size="20" lengthAdjust="spacing" textLength="8" x="479.1306" y="1594.7083">*</text></g><!--SRC=[pLLDYzim4BthLuZjhM3O5WgbX83NITg5tSsMXFOiInDRNKKoaims_VZlbMmvjXEdzXuAzKcQUPfvCtuQcISk2wB9NYZw10mps95Is9MITiD_07vxZP20dSLMOSspt6B6DL3BbKGevmpm7cokc478DA4m5SIOs5hDqzB2BLMoYdLzXi4_4NRV7T_17PTmepG3dIYXD5uebe6-4INq8OG-PLgLajMm-F7nxZQ9jxVhXmftwd-rUBzwjrfLlbXhzJmO_KBYtrt2XOjCCjZOWm3iMq1a9g1N4j7ilwyeb86Ntya-pZ8D6R7WMAEbjDmUAZkUpUhTVEwMMYdh5dLXhYLLcLjkNHjcio_4XSNhz9jho1d8nrg0ePeNNZ1Zy8-QiD6OAm2MkXh6S1iboYb9rmN8XM_122uHoi08CBJm4xWwTBU9_L2r_mMDQMhU7WgOrCGHOE2vgU_nPQ81y0AcuSIOEaXgh2RKXYdmkGHJHJzbU4yipRdCZe0XgWtMZIrU24XonIbCER79bRQnDC-Wfy0VoZreJYT51k4glkV6EF9VtLMSScYhIrZh5H5cXBs_eL4qh-zWkxrwSnMarTegDRJRHkojvIZhrdHoQpi9NbyrFnYX879lFzDprzdLRjT-r2b2ZGwz-LnoG-wwygx3SskwXj2nVrq6VMip7n0w4raK_PgtmIxegWyQab8VSQgUa_CN1TF73McaZq1IkHbLFzLgrs-_5r1294u1AmdURNF0EoM4UdPvFrI023yuPrYkPRGfqxtdvMBNjdXdGKTUEEuC0icmJtcQkFs__pQhkn3DaxO5GdFGGwzQS4rus6AgbJpi_pAyK1FCooZ0UpmsjcGWxH2Fu9h0unveJgJAD2boJfrwqeh-9L9DOCzfw6YFOA9ARM28N-sPG2zHuq_ral6HDoEagmQH2zZTXyCLxsx3_KNt4wcBFThwewfkYVjXVm00]--></g></svg>