<?xml version="1.0" encoding="UTF-8" standalone="no"?><svg xmlns="http://www.w3.org/2000/svg" xmlns:xlink="http://www.w3.org/1999/xlink" contentStyleType="text/css" height="741px" preserveAspectRatio="none" style="width:692px;height:741px;background:#FFFFFF;" version="1.1" viewBox="0 0 692 741" width="692px" zoomAndPan="magnify"><defs/><g><!--MD5=[c8a87cdc9487918d1d1197eccc4f9ae0]
class ChangeUserStateUI--><g id="elem_ChangeUserStateUI"><polygon fill="#F1F1F1" points="383,7,383,7.2102,393.0667,6.5857,403.1333,7.1933,413.2,7.3997,423.2667,6.2866,433.3333,6.9223,443.4,6.5735,453.4667,6.6165,463.5333,6.9318,473.6,6.3086,483.6667,7.5536,493.7333,6.3697,503.8,6.8022,513.8667,7.4319,523.9333,6.9142,534,7,534.0087,7.021,534.3495,7.1366,534.7299,7.3479,535.0912,7.513,535.4889,7.7662,535.7678,7.7322,535.9744,7.8178,536.1234,8.1724,536.1391,8.4718,536.3499,8.852,536.5698,9.236,536.5,9.5,535.7788,9.5,537.1785,19.6875,536.2035,29.875,537.0338,40.0625,536.005,50.25,536.4315,60.4375,537.2416,70.625,536.5,80.8125,536.485,80.8063,536.386,81.1795,536.3114,81.5628,536.1888,81.9263,535.913,82.2262,535.7678,82.5803,535.8044,82.6687,535.3412,82.5504,535.0969,82.9607,534.777,83.1884,534.4103,83.303,534,83.3125,534,83.9255,523.9333,82.8294,513.8667,82.6603,503.8,82.6911,493.7333,83.2536,483.6667,83.116,473.6,83.9939,463.5333,83.1378,453.4667,82.9694,443.4,83.5408,433.3333,82.6457,423.2667,82.7934,413.2,83.9615,403.1333,83.7482,393.0667,84.047,383,83.3125,382.959,83.2134,382.6872,83.2644,382.3682,83.2014,381.8791,82.7277,381.5736,82.6972,381.2322,82.5803,381.271,82.5963,381.2865,82.3099,380.938,81.8726,380.9353,81.5786,380.4759,81.0954,380.5,80.8125,379.8227,80.8125,381.0036,70.625,379.7831,60.4375,381.009,50.25,380.7066,40.0625,380.2321,29.875,380.1462,19.6875,380.5,9.5,380.6413,9.5585,380.5543,9.1083,380.9752,8.8684,380.7691,8.3688,381.2759,8.1645,381.2322,7.7322,381.294,7.8814,381.617,7.6612,381.9454,7.4539,382.3856,7.5167,382.7247,7.3354,383,7" style="stroke:#181818;stroke-width:0.5;"/><polygon fill="#C2C2C2" points="406.5608,31.0272,404.9484,33.2304,403.0412,36.4573,400.3136,38.632,397.4474,39.8212,395.162,39.9244,392.2247,38.4371,389.4532,37.4655,387.3495,35.4927,386.2461,33.2343,385.5917,31.4361,384.9506,29.0873,383.91,27.066,384.7096,25.0926,385.4102,22.9308,388.0393,21.221,389.889,19.0027,392.1784,18.266,394.9001,17.6316,398.3904,18.0085,400.3021,18.9101,402.5247,19.3188,405.2272,22.0875,406.1693,25.0105,406.5786,27.0049,406.115,30.2914" style="stroke:#181818;stroke-width:1.0;"/><path d="M398.2656,24.2266 Q398.4219,24.0078 398.6094,23.8984 Q398.7969,23.7891 399.0156,23.7891 Q399.3906,23.7891 399.625,24.0547 Q399.8594,24.3047 399.8594,24.9141 L399.8594,26.3672 Q399.8594,26.9766 399.625,27.2422 Q399.3906,27.5078 399.0156,27.5078 Q398.6719,27.5078 398.4688,27.3047 Q398.2656,27.1172 398.1563,26.6016 Q398.1094,26.2422 397.9219,26.0547 Q397.5938,25.6797 396.9844,25.4609 Q396.375,25.2422 395.75,25.2422 Q394.9844,25.2422 394.3438,25.5703 Q393.7188,25.8984 393.2188,26.6484 Q392.7344,27.3984 392.7344,28.4297 L392.7344,29.5234 Q392.7344,30.7578 393.625,31.5859 Q394.5156,32.3984 396.1094,32.3984 Q397.0469,32.3984 397.7031,32.1484 Q398.0938,31.9922 398.5156,31.5547 Q398.7813,31.2891 398.9219,31.2109 Q399.0781,31.1328 399.2813,31.1328 Q399.6094,31.1328 399.8594,31.3984 Q400.125,31.6484 400.125,31.9922 Q400.125,32.3359 399.7813,32.7422 Q399.2813,33.3203 398.4844,33.6484 Q397.4063,34.1016 396.1094,34.1016 Q394.5938,34.1016 393.3906,33.4766 Q392.4063,32.9766 391.7188,31.9141 Q391.0313,30.8359 391.0313,29.5547 L391.0313,28.3984 Q391.0313,27.0703 391.6406,25.9297 Q392.2656,24.7734 393.3594,24.1641 Q394.4531,23.5391 395.6875,23.5391 Q396.4219,23.5391 397.0625,23.7109 Q397.7188,23.8672 398.2656,24.2266 Z " fill="#000000"/><text fill="#000000" font-family="FG Virgil" font-size="12" font-style="italic" lengthAdjust="spacing" textLength="82" x="430.5" y="24.457">«presentation»</text><text fill="#000000" font-family="FG Virgil" font-size="14" lengthAdjust="spacing" textLength="124" x="409.5" y="41.627">ChangeUserStateUI</text><path d="M381.5,49.7031 L381.5,49.9834 L391.7667,49.1507 L402.0333,49.9608 L412.3,50.236 L422.5667,48.7519 L432.8333,49.5995 L443.1,49.1345 L453.3667,49.1918 L463.6333,49.6122 L473.9,48.7813 L484.1667,50.4413 L494.4333,48.8628 L504.7,49.4394 L514.9667,50.2791 L525.2333,49.5888 L535.5,49.7031 " fill="#F1F1F1" style="stroke:#181818;stroke-width:0.5;"/><path d="M381.5,57.7031 L381.5,57.9834 L391.7667,57.1507 L402.0333,57.9608 L412.3,58.236 L422.5667,56.7519 L432.8333,57.5995 L443.1,57.1345 L453.3667,57.1918 L463.6333,57.6122 L473.9,56.7813 L484.1667,58.4413 L494.4333,56.8628 L504.7,57.4394 L514.9667,58.2791 L525.2333,57.5888 L535.5,57.7031 " fill="#F1F1F1" style="stroke:#181818;stroke-width:0.5;"/><text fill="#000000" font-family="FG Virgil" font-size="14" lengthAdjust="spacing" textLength="60" x="386.5" y="76.2363">doShow()</text></g><!--MD5=[62848162c92c404759fa28c8759a215a]
class ChangeUserStateController--><g id="elem_ChangeUserStateController"><polygon fill="#F1F1F1" points="358,161,358,161.2102,368.05,160.5857,378.1,161.1933,388.15,161.3997,398.2,160.2866,408.25,160.9223,418.3,160.5735,428.35,160.6165,438.4,160.9318,448.45,160.3086,458.5,161.5536,468.55,160.3697,478.6,160.8022,488.65,161.4319,498.7,160.9142,508.75,161.0682,518.8,160.9681,528.85,161.1785,538.9,161.2391,548.95,161.5857,559,161,559.0856,161.2067,559.4402,161.3556,559.7396,161.3713,560.1198,161.5821,560.5038,161.802,560.7678,161.7322,560.5457,161.6402,561.1232,162.1723,560.9693,162.4015,561.3715,162.861,561.2011,163.0833,561.5,163.5,561.4315,163.5,562.2416,173.6875,561.4513,183.875,561.6053,194.0625,561.8386,204.25,561.9162,214.4375,561.4961,224.625,561.5,234.8125,561.5885,234.8491,561.1773,235.093,561.2947,235.5559,561.2295,235.9431,561.0511,236.2834,560.7678,236.5803,560.846,236.7691,560.3526,236.5779,559.9775,236.6723,559.6278,236.8282,559.346,237.1479,559,237.3125,559,237.116,548.95,237.9939,538.9,237.1378,528.85,236.9694,518.8,237.5408,508.75,236.6457,498.7,236.7934,488.65,237.9615,478.6,237.7482,468.55,238.047,458.5,236.9907,448.45,237.6317,438.4,237.9029,428.35,236.8401,418.3,237.2166,408.25,237.4385,398.2,237.9643,388.15,237.3083,378.1,237.7751,368.05,236.7587,358,237.3125,357.9136,237.1039,357.7107,237.3211,357.2014,236.7988,357.0043,237.0299,356.6121,236.7903,356.2322,236.5803,356.1497,236.5461,355.9768,236.1816,356.0806,235.9317,355.7007,235.4814,355.8287,235.2416,355.5,234.8125,354.9473,234.8125,356.1174,224.625,355.9843,214.4375,355.745,204.25,355.5472,194.0625,356.2266,183.875,356.1136,173.6875,355.5,163.5,355.5521,163.5216,355.729,163.1807,355.7528,162.7763,356.16,162.5307,356.1335,162.1055,356.2322,161.7322,356.2542,161.7854,356.5082,161.3984,356.8876,161.3145,357.3606,161.4563,357.7013,161.2788,358,161" style="stroke:#181818;stroke-width:0.5;"/><polygon fill="#C2C2C2" points="381.5608,185.0272,379.9484,187.2304,378.0412,190.4573,375.3136,192.632,372.4474,193.8212,370.162,193.9244,367.2247,192.4371,364.4532,191.4655,362.3495,189.4927,361.2461,187.2343,360.5917,185.4361,359.9506,183.0873,358.91,181.066,359.7096,179.0926,360.4102,176.9308,363.0393,175.221,364.889,173.0027,367.1784,172.266,369.9001,171.6316,373.3904,172.0085,375.3021,172.9101,377.5247,173.3188,380.2272,176.0875,381.1693,179.0105,381.5786,181.0049,381.115,184.2914" style="stroke:#181818;stroke-width:1.0;"/><path d="M373.2656,178.2266 Q373.4219,178.0078 373.6094,177.8984 Q373.7969,177.7891 374.0156,177.7891 Q374.3906,177.7891 374.625,178.0547 Q374.8594,178.3047 374.8594,178.9141 L374.8594,180.3672 Q374.8594,180.9766 374.625,181.2422 Q374.3906,181.5078 374.0156,181.5078 Q373.6719,181.5078 373.4688,181.3047 Q373.2656,181.1172 373.1563,180.6016 Q373.1094,180.2422 372.9219,180.0547 Q372.5938,179.6797 371.9844,179.4609 Q371.375,179.2422 370.75,179.2422 Q369.9844,179.2422 369.3438,179.5703 Q368.7188,179.8984 368.2188,180.6484 Q367.7344,181.3984 367.7344,182.4297 L367.7344,183.5234 Q367.7344,184.7578 368.625,185.5859 Q369.5156,186.3984 371.1094,186.3984 Q372.0469,186.3984 372.7031,186.1484 Q373.0938,185.9922 373.5156,185.5547 Q373.7813,185.2891 373.9219,185.2109 Q374.0781,185.1328 374.2813,185.1328 Q374.6094,185.1328 374.8594,185.3984 Q375.125,185.6484 375.125,185.9922 Q375.125,186.3359 374.7813,186.7422 Q374.2813,187.3203 373.4844,187.6484 Q372.4063,188.1016 371.1094,188.1016 Q369.5938,188.1016 368.3906,187.4766 Q367.4063,186.9766 366.7188,185.9141 Q366.0313,184.8359 366.0313,183.5547 L366.0313,182.3984 Q366.0313,181.0703 366.6406,179.9297 Q367.2656,178.7734 368.3594,178.1641 Q369.4531,177.5391 370.6875,177.5391 Q371.4219,177.5391 372.0625,177.7109 Q372.7188,177.8672 373.2656,178.2266 Z " fill="#000000"/><text fill="#000000" font-family="FG Virgil" font-size="12" font-style="italic" lengthAdjust="spacing" textLength="74" x="434.5" y="178.457">«application»</text><text fill="#000000" font-family="FG Virgil" font-size="14" lengthAdjust="spacing" textLength="174" x="384.5" y="195.627">ChangeUserStateController</text><path d="M356.5,203.7031 L356.5,203.9834 L366.7,203.1507 L376.9,203.9608 L387.1,204.236 L397.3,202.7519 L407.5,203.5995 L417.7,203.1345 L427.9,203.1918 L438.1,203.6122 L448.3,202.7813 L458.5,204.4413 L468.7,202.8628 L478.9,203.4394 L489.1,204.2791 L499.3,203.5888 L509.5,203.7941 L519.7,203.6605 L529.9,203.9412 L540.1,204.022 L550.3,204.484 L560.5,203.7031 " fill="#F1F1F1" style="stroke:#181818;stroke-width:0.5;"/><path d="M356.5,211.7031 L356.5,211.9834 L366.7,211.1507 L376.9,211.9608 L387.1,212.236 L397.3,210.7519 L407.5,211.5995 L417.7,211.1345 L427.9,211.1918 L438.1,211.6122 L448.3,210.7813 L458.5,212.4413 L468.7,210.8628 L478.9,211.4394 L489.1,212.2791 L499.3,211.5888 L509.5,211.7941 L519.7,211.6605 L529.9,211.9412 L540.1,212.022 L550.3,212.484 L560.5,211.7031 " fill="#F1F1F1" style="stroke:#181818;stroke-width:0.5;"/><text fill="#000000" font-family="FG Virgil" font-size="14" lengthAdjust="spacing" textLength="169" x="361.5" y="230.2363">enableUserByEmail(String)</text></g><!--MD5=[54a33dd013dd881697601ca49de6dfbc]
class AuthorizationService--><g id="elem_AuthorizationService"><polygon fill="#F1F1F1" points="9.5,324,9.5,324.2102,19.3621,323.5857,29.2241,324.1933,39.0862,324.3997,48.9483,323.2866,58.8103,323.9223,68.6724,323.5735,78.5345,323.6165,88.3966,323.9318,98.2586,323.3086,108.1207,324.5536,117.9828,323.3697,127.8448,323.8022,137.7069,324.4319,147.569,323.9142,157.431,324.0682,167.2931,323.9681,177.1552,324.1785,187.0172,324.2391,196.8793,324.5857,206.7414,324.6711,216.6034,324.6793,226.4655,324.2546,236.3276,324.4636,246.1897,324.7022,256.0517,323.2788,265.9138,324.6785,275.7759,323.7035,285.6379,324.5338,295.5,324,295.4369,323.8476,295.8448,324.1254,296.3017,324.5213,296.5544,324.4243,296.9276,324.6182,297.2678,324.7322,297.3721,324.7754,297.5424,325.1389,297.5595,325.4388,297.7956,325.8295,297.6773,326.0734,298,326.5,298.2844,326.5,298.5482,336.6875,298.4445,346.875,298.613,357.0625,297.5169,367.25,297.3478,377.4375,297.3786,387.625,298,397.8125,297.9819,397.805,297.793,398.141,297.917,398.6065,297.5069,398.8509,297.3086,399.183,297.2678,399.5803,297.2969,399.6506,296.8292,399.5214,296.4944,399.7133,296.2899,400.2195,295.9091,400.3002,295.5,400.3125,295.5,401.047,285.6379,399.9907,275.7759,400.6317,265.9138,400.9029,256.0517,399.8401,246.1897,400.2166,236.3276,400.4385,226.4655,400.9643,216.6034,400.3083,206.7414,400.7751,196.8793,399.7587,187.0172,399.6352,177.1552,400.8161,167.2931,399.5956,157.431,400.8215,147.569,400.5191,137.7069,400.0446,127.8448,399.9587,117.9828,400.7713,108.1207,400.0132,98.2586,400.9044,88.3966,399.7598,78.5345,400.9299,68.6724,400.7968,58.8103,400.5575,48.9483,400.3597,39.0862,401.0391,29.2241,400.9261,19.3621,400.4818,9.5,400.3125,9.5342,400.3951,9.1298,400.1259,8.8843,400.2402,8.4591,399.9209,8.1078,399.7799,7.7322,399.5803,7.5449,399.5027,7.461,399.175,7.6028,398.9409,7.4252,398.5744,7.1332,398.1606,7,397.8125,6.6778,397.8125,6.7811,387.625,6.3138,377.4375,7.4147,367.25,7.7396,357.0625,7.5264,346.875,7.6949,336.6875,7,326.5,6.9579,326.4826,7.1733,326.1576,7.1735,325.7435,7.5268,325.4756,7.6618,325.1173,7.7322,324.7322,7.8027,324.9023,8.0565,324.5151,8.4222,324.3979,8.8495,324.4295,9.2188,324.3212,9.5,324" style="stroke:#181818;stroke-width:0.5;"/><polygon fill="#C2C2C2" points="94.8108,348.0272,93.1984,350.2304,91.2912,353.4573,88.5636,355.632,85.6974,356.8212,83.412,356.9244,80.4747,355.4371,77.7032,354.4655,75.5995,352.4927,74.4961,350.2343,73.8417,348.4361,73.2006,346.0873,72.16,344.066,72.9596,342.0926,73.6602,339.9308,76.2893,338.221,78.139,336.0027,80.4284,335.266,83.1501,334.6316,86.6404,335.0085,88.5521,335.9101,90.7747,336.3188,93.4772,339.0875,94.4193,342.0105,94.8286,344.0049,94.365,347.2914" style="stroke:#181818;stroke-width:1.0;"/><path d="M86.5156,341.2266 Q86.6719,341.0078 86.8594,340.8984 Q87.0469,340.7891 87.2656,340.7891 Q87.6406,340.7891 87.875,341.0547 Q88.1094,341.3047 88.1094,341.9141 L88.1094,343.3672 Q88.1094,343.9766 87.875,344.2422 Q87.6406,344.5078 87.2656,344.5078 Q86.9219,344.5078 86.7188,344.3047 Q86.5156,344.1172 86.4063,343.6016 Q86.3594,343.2422 86.1719,343.0547 Q85.8438,342.6797 85.2344,342.4609 Q84.625,342.2422 84,342.2422 Q83.2344,342.2422 82.5938,342.5703 Q81.9688,342.8984 81.4688,343.6484 Q80.9844,344.3984 80.9844,345.4297 L80.9844,346.5234 Q80.9844,347.7578 81.875,348.5859 Q82.7656,349.3984 84.3594,349.3984 Q85.2969,349.3984 85.9531,349.1484 Q86.3438,348.9922 86.7656,348.5547 Q87.0313,348.2891 87.1719,348.2109 Q87.3281,348.1328 87.5313,348.1328 Q87.8594,348.1328 88.1094,348.3984 Q88.375,348.6484 88.375,348.9922 Q88.375,349.3359 88.0313,349.7422 Q87.5313,350.3203 86.7344,350.6484 Q85.6563,351.1016 84.3594,351.1016 Q82.8438,351.1016 81.6406,350.4766 Q80.6563,349.9766 79.9688,348.9141 Q79.2813,347.8359 79.2813,346.5547 L79.2813,345.3984 Q79.2813,344.0703 79.8906,342.9297 Q80.5156,341.7734 81.6094,341.1641 Q82.7031,340.5391 83.9375,340.5391 Q84.6719,340.5391 85.3125,340.7109 Q85.9688,340.8672 86.5156,341.2266 Z " fill="#000000"/><text fill="#000000" font-family="FG Virgil" font-size="12" font-style="italic" lengthAdjust="spacing" textLength="53" x="142.25" y="341.457">«service»</text><text fill="#000000" font-family="FG Virgil" font-size="14" lengthAdjust="spacing" textLength="129" x="104.25" y="358.627">AuthorizationService</text><path d="M8,366.7031 L8,366.9834 L17.9655,366.1507 L27.931,366.9608 L37.8966,367.236 L47.8621,365.7519 L57.8276,366.5995 L67.7931,366.1345 L77.7586,366.1918 L87.7241,366.6122 L97.6897,365.7813 L107.6552,367.4413 L117.6207,365.8628 L127.5862,366.4394 L137.5517,367.2791 L147.5172,366.5888 L157.4828,366.7941 L167.4483,366.6605 L177.4138,366.9412 L187.3793,367.022 L197.3448,367.484 L207.3103,367.5979 L217.2759,367.6088 L227.2414,367.0426 L237.2069,367.3212 L247.1724,367.6394 L257.1379,365.7415 L267.1034,367.6078 L277.069,366.3078 L287.0345,367.4149 L297,366.7031 " fill="#F1F1F1" style="stroke:#181818;stroke-width:0.5;"/><path d="M8,374.7031 L8,374.9834 L17.9655,374.1507 L27.931,374.9608 L37.8966,375.236 L47.8621,373.7519 L57.8276,374.5995 L67.7931,374.1345 L77.7586,374.1918 L87.7241,374.6122 L97.6897,373.7813 L107.6552,375.4413 L117.6207,373.8628 L127.5862,374.4394 L137.5517,375.2791 L147.5172,374.5888 L157.4828,374.7941 L167.4483,374.6605 L177.4138,374.9412 L187.3793,375.022 L197.3448,375.484 L207.3103,375.5979 L217.2759,375.6088 L227.2414,375.0426 L237.2069,375.3212 L247.1724,375.6394 L257.1379,373.7415 L267.1034,375.6078 L277.069,374.3078 L287.0345,375.4149 L297,374.7031 " fill="#F1F1F1" style="stroke:#181818;stroke-width:0.5;"/><text fill="#000000" font-family="FG Virgil" font-size="14" lengthAdjust="spacing" textLength="279" x="13" y="393.2363">ensureAuthenticatedUserHasAnyOf(Role...))</text></g><!--MD5=[49911543bde009bea1ce58d6156faf98]
class user:User--><g id="elem_user:User"><polygon fill="#F1F1F1" points="335.5,315,335.5,315.2102,345.2778,314.5857,355.0556,315.1933,364.8333,315.3997,374.6111,314.2866,384.3889,314.9223,394.1667,314.5735,403.9444,314.6165,413.7222,314.9318,423.5,315,423.4118,314.7871,423.9242,315.3169,424.1267,315.0988,424.5354,315.3784,424.9693,315.7188,425.2678,315.7322,425.2414,315.7213,425.4352,316.0945,425.5508,316.4353,425.7621,316.8157,425.9272,317.177,426,317.5,426.5857,317.5,426.6711,327.3802,426.6793,337.2604,426.2546,347.1406,426.4636,357.0208,426.7022,366.901,425.2788,376.7813,426.6785,386.6615,425.7035,396.5417,426,406.4219,426.1644,406.49,425.7011,406.7123,425.686,407.1202,425.789,407.5771,425.3992,407.8299,425.2678,408.1896,425.2812,408.2221,424.9574,408.4404,424.6138,408.6107,424.2066,408.6278,423.8902,408.8639,423.5,408.9219,423.5,408.3495,413.7222,409.2063,403.9444,409.4701,394.1667,409.3664,384.3889,409.5349,374.6111,408.4388,364.8333,408.2697,355.0556,408.3005,345.2778,408.863,335.5,408.9219,335.4749,408.8614,335.2334,408.9853,334.7706,408.5752,334.3956,408.3769,334.1149,408.4064,333.7322,408.1896,333.5269,408.1046,333.4259,407.7699,333.6392,407.5653,333.4271,407.1846,333.3726,406.8691,333,406.4219,332.6782,406.4219,333.3192,396.5417,333.5904,386.6615,332.5276,376.7813,332.9041,366.901,333.126,357.0208,333.6518,347.1406,332.9958,337.2604,333.4626,327.3802,333,317.5,332.8295,317.4294,332.9379,317.0601,333.448,316.8571,333.2186,316.3479,333.7425,316.1507,333.7322,315.7322,333.7586,315.7959,334.0516,315.5033,334.3942,315.3304,334.8514,315.4342,335.1083,315.0543,335.5,315" style="stroke:#181818;stroke-width:0.5;"/><polygon fill="#C2C2C2" points="359.0608,339.0272,357.4484,341.2304,355.5412,344.4573,352.8136,346.632,349.9474,347.8212,347.662,347.9244,344.7247,346.4371,341.9532,345.4655,339.8495,343.4927,338.7461,341.2343,338.0917,339.4361,337.4506,337.0873,336.41,335.066,337.2096,333.0926,337.9102,330.9308,340.5393,329.221,342.389,327.0027,344.6784,326.266,347.4001,325.6316,350.8904,326.0085,352.8021,326.9101,355.0247,327.3188,357.7272,330.0875,358.6693,333.0105,359.0786,335.0049,358.615,338.2914" style="stroke:#181818;stroke-width:1.0;"/><path d="M350.7656,332.2266 Q350.9219,332.0078 351.1094,331.8984 Q351.2969,331.7891 351.5156,331.7891 Q351.8906,331.7891 352.125,332.0547 Q352.3594,332.3047 352.3594,332.9141 L352.3594,334.3672 Q352.3594,334.9766 352.125,335.2422 Q351.8906,335.5078 351.5156,335.5078 Q351.1719,335.5078 350.9688,335.3047 Q350.7656,335.1172 350.6563,334.6016 Q350.6094,334.2422 350.4219,334.0547 Q350.0938,333.6797 349.4844,333.4609 Q348.875,333.2422 348.25,333.2422 Q347.4844,333.2422 346.8438,333.5703 Q346.2188,333.8984 345.7188,334.6484 Q345.2344,335.3984 345.2344,336.4297 L345.2344,337.5234 Q345.2344,338.7578 346.125,339.5859 Q347.0156,340.3984 348.6094,340.3984 Q349.5469,340.3984 350.2031,340.1484 Q350.5938,339.9922 351.0156,339.5547 Q351.2813,339.2891 351.4219,339.2109 Q351.5781,339.1328 351.7813,339.1328 Q352.1094,339.1328 352.3594,339.3984 Q352.625,339.6484 352.625,339.9922 Q352.625,340.3359 352.2813,340.7422 Q351.7813,341.3203 350.9844,341.6484 Q349.9063,342.1016 348.6094,342.1016 Q347.0938,342.1016 345.8906,341.4766 Q344.9063,340.9766 344.2188,339.9141 Q343.5313,338.8359 343.5313,337.5547 L343.5313,336.3984 Q343.5313,335.0703 344.1406,333.9297 Q344.7656,332.7734 345.8594,332.1641 Q346.9531,331.5391 348.1875,331.5391 Q348.9219,331.5391 349.5625,331.7109 Q350.2188,331.8672 350.7656,332.2266 Z " fill="#000000"/><text fill="#000000" font-family="FG Virgil" font-size="12" font-style="italic" lengthAdjust="spacing" textLength="56" x="364.5" y="332.457">«domain»</text><text fill="#000000" font-family="FG Virgil" font-size="14" lengthAdjust="spacing" textLength="61" x="362" y="349.627">user:User</text><path d="M334,357.7031 L334,357.9834 L344.1111,357.1507 L354.2222,357.9608 L364.3333,358.236 L374.4444,356.7519 L384.5556,357.5995 L394.6667,357.1345 L404.7778,357.1918 L414.8889,357.6122 L425,357.7031 " fill="#F1F1F1" style="stroke:#181818;stroke-width:0.5;"/><path d="M334,365.7031 L334,365.9834 L344.1111,365.1507 L354.2222,365.9608 L364.3333,366.236 L374.4444,364.7519 L384.5556,365.5995 L394.6667,365.1345 L404.7778,365.1918 L414.8889,365.6122 L425,365.7031 " fill="#F1F1F1" style="stroke:#181818;stroke-width:0.5;"/><text fill="#000000" font-family="FG Virgil" font-size="14" lengthAdjust="spacing" textLength="53" x="339" y="384.2363">enable()</text><text fill="#000000" font-family="FG Virgil" font-size="14" lengthAdjust="spacing" textLength="55" x="339" y="401.8457">disable()</text></g><!--MD5=[e8c189551b7885b999ad7cefb30fc2a3]
class PersistenceContext--><g id="elem_PersistenceContext"><polygon fill="#F1F1F1" points="464,324,464,324.2102,473.9333,323.5857,483.8667,324.1933,493.8,324.3997,503.7333,323.2866,513.6667,323.9223,523.6,323.5735,533.5333,323.6165,543.4667,323.9318,553.4,323.3086,563.3333,324.5536,573.2667,323.3697,583.2,323.8022,593.1333,324.4319,603.0667,323.9142,613,324,613.0087,324.021,613.3495,324.1366,613.7299,324.3479,614.0912,324.513,614.4889,324.7662,614.7678,324.7322,614.9744,324.8178,615.1234,325.1724,615.1391,325.4718,615.3499,325.852,615.5698,326.236,615.5,326.5,614.7788,326.5,616.1785,336.6875,615.2035,346.875,616.0338,357.0625,615.005,367.25,615.4315,377.4375,616.2416,387.625,615.5,397.8125,615.485,397.8063,615.386,398.1795,615.3114,398.5628,615.1888,398.9263,614.913,399.2262,614.7678,399.5803,614.8044,399.6687,614.3412,399.5504,614.0969,399.9607,613.777,400.1884,613.4103,400.303,613,400.3125,613,400.9255,603.0667,399.8294,593.1333,399.6603,583.2,399.6911,573.2667,400.2536,563.3333,400.116,553.4,400.9939,543.4667,400.1378,533.5333,399.9694,523.6,400.5408,513.6667,399.6457,503.7333,399.7934,493.8,400.9615,483.8667,400.7482,473.9333,401.047,464,400.3125,463.959,400.2134,463.6872,400.2644,463.3682,400.2014,462.8791,399.7277,462.5736,399.6972,462.2322,399.5803,462.271,399.5963,462.2865,399.3099,461.938,398.8726,461.9353,398.5786,461.4759,398.0954,461.5,397.8125,460.8227,397.8125,462.0036,387.625,460.7831,377.4375,462.009,367.25,461.7066,357.0625,461.2321,346.875,461.1462,336.6875,461.5,326.5,461.6413,326.5585,461.5543,326.1083,461.9752,325.8684,461.7691,325.3688,462.2759,325.1645,462.2322,324.7322,462.294,324.8814,462.617,324.6612,462.9454,324.4539,463.3856,324.5167,463.7247,324.3354,464,324" style="stroke:#181818;stroke-width:0.5;"/><polygon fill="#C2C2C2" points="487.5608,348.0272,485.9484,350.2304,484.0412,353.4573,481.3136,355.632,478.4474,356.8212,476.162,356.9244,473.2247,355.4371,470.4532,354.4655,468.3495,352.4927,467.2461,350.2343,466.5917,348.4361,465.9506,346.0873,464.91,344.066,465.7096,342.0926,466.4102,339.9308,469.0393,338.221,470.889,336.0027,473.1784,335.266,475.9001,334.6316,479.3904,335.0085,481.3021,335.9101,483.5247,336.3188,486.2272,339.0875,487.1693,342.0105,487.5786,344.0049,487.115,347.2914" style="stroke:#181818;stroke-width:1.0;"/><path d="M479.2656,341.2266 Q479.4219,341.0078 479.6094,340.8984 Q479.7969,340.7891 480.0156,340.7891 Q480.3906,340.7891 480.625,341.0547 Q480.8594,341.3047 480.8594,341.9141 L480.8594,343.3672 Q480.8594,343.9766 480.625,344.2422 Q480.3906,344.5078 480.0156,344.5078 Q479.6719,344.5078 479.4688,344.3047 Q479.2656,344.1172 479.1563,343.6016 Q479.1094,343.2422 478.9219,343.0547 Q478.5938,342.6797 477.9844,342.4609 Q477.375,342.2422 476.75,342.2422 Q475.9844,342.2422 475.3438,342.5703 Q474.7188,342.8984 474.2188,343.6484 Q473.7344,344.3984 473.7344,345.4297 L473.7344,346.5234 Q473.7344,347.7578 474.625,348.5859 Q475.5156,349.3984 477.1094,349.3984 Q478.0469,349.3984 478.7031,349.1484 Q479.0938,348.9922 479.5156,348.5547 Q479.7813,348.2891 479.9219,348.2109 Q480.0781,348.1328 480.2813,348.1328 Q480.6094,348.1328 480.8594,348.3984 Q481.125,348.6484 481.125,348.9922 Q481.125,349.3359 480.7813,349.7422 Q480.2813,350.3203 479.4844,350.6484 Q478.4063,351.1016 477.1094,351.1016 Q475.5938,351.1016 474.3906,350.4766 Q473.4063,349.9766 472.7188,348.9141 Q472.0313,347.8359 472.0313,346.5547 L472.0313,345.3984 Q472.0313,344.0703 472.6406,342.9297 Q473.2656,341.7734 474.3594,341.1641 Q475.4531,340.5391 476.6875,340.5391 Q477.4219,340.5391 478.0625,340.7109 Q478.7188,340.8672 479.2656,341.2266 Z " fill="#000000"/><text fill="#000000" font-family="FG Virgil" font-size="12" font-style="italic" lengthAdjust="spacing" textLength="77" x="513" y="341.457">«persistence»</text><text fill="#000000" font-family="FG Virgil" font-size="14" lengthAdjust="spacing" textLength="122" x="490.5" y="358.627">PersistenceContext</text><path d="M462.5,366.7031 L462.5,366.9834 L472.6333,366.1507 L482.7667,366.9608 L492.9,367.236 L503.0333,365.7519 L513.1667,366.5995 L523.3,366.1345 L533.4333,366.1918 L543.5667,366.6122 L553.7,365.7813 L563.8333,367.4413 L573.9667,365.8628 L584.1,366.4394 L594.2333,367.2791 L604.3667,366.5888 L614.5,366.7031 " fill="#F1F1F1" style="stroke:#181818;stroke-width:0.5;"/><path d="M462.5,374.7031 L462.5,374.9834 L472.6333,374.1507 L482.7667,374.9608 L492.9,375.236 L503.0333,373.7519 L513.1667,374.5995 L523.3,374.1345 L533.4333,374.1918 L543.5667,374.6122 L553.7,373.7813 L563.8333,375.4413 L573.9667,373.8628 L584.1,374.4394 L594.2333,375.2791 L604.3667,374.5888 L614.5,374.7031 " fill="#F1F1F1" style="stroke:#181818;stroke-width:0.5;"/><text fill="#000000" font-family="FG Virgil" font-size="14" lengthAdjust="spacing" textLength="84" x="467.5" y="393.2363">repositories()</text></g><!--MD5=[48590afff58a68e2fcba47824d6f8a11]
class RepositoryFactory--><g id="elem_RepositoryFactory"><polygon fill="#F1F1F1" points="469,487,469,487.2102,479.2143,486.5857,489.4286,487.1933,499.6429,487.3997,509.8571,486.2866,520.0714,486.9223,530.2857,486.5735,540.5,486.6165,550.7143,486.9318,560.9286,486.3086,571.1429,487.5536,581.3571,486.3697,591.5714,486.8022,601.7857,487.4319,612,487,611.9891,486.9736,612.3623,487.1675,612.703,487.2831,613.0834,487.4943,613.4447,487.6594,613.7678,487.7322,613.9481,487.8069,614.1209,488.1714,614.2698,488.526,614.2855,488.8254,614.4963,489.2056,614.5,489.5,615.2022,489.5,613.7788,499.6875,615.1785,509.875,614.2035,520.0625,615.0338,530.25,614.005,540.4375,614.4315,550.625,614.5,560.8125,614.7284,560.9071,614.3385,561.1598,614.2395,561.533,614.1649,561.9164,614.0424,562.2798,613.7678,562.5803,613.7673,562.5791,613.4509,562.8152,612.9876,562.6969,612.7434,563.1072,612.4235,563.3349,612,563.3125,612,563.757,601.7857,563.9255,591.5714,562.8294,581.3571,562.6603,571.1429,562.6911,560.9286,563.2536,550.7143,563.116,540.5,563.9939,530.2857,563.1378,520.0714,562.9694,509.8571,563.5408,499.6429,562.6457,489.4286,562.7934,479.2143,563.9615,469,563.3125,469.0556,563.4467,468.7401,563.3922,468.2518,562.9205,467.9801,562.9715,467.6611,562.9085,467.2322,562.5803,467.0868,562.52,467.0563,562.2145,466.9781,561.8892,466.9936,561.6027,466.6452,561.1655,466.5,560.8125,466.9626,560.8125,465.9462,550.625,465.8227,540.4375,467.0036,530.25,465.7831,520.0625,467.009,509.875,466.7066,499.6875,466.5,489.5,466.4175,489.4658,466.5375,489.1013,466.9342,488.8514,466.8472,488.4012,467.2681,488.1613,467.2322,487.7322,467.1617,487.562,467.6645,487.7759,468.0011,487.5885,468.3241,487.3683,468.6525,487.161,469,487" style="stroke:#181818;stroke-width:0.5;"/><polygon fill="#C2C2C2" points="492.5608,511.0272,490.9484,513.2304,489.0412,516.4573,486.3136,518.632,483.4474,519.8212,481.162,519.9244,478.2247,518.4371,475.4532,517.4655,473.3495,515.4927,472.2461,513.2343,471.5917,511.4361,470.9506,509.0873,469.91,507.066,470.7096,505.0926,471.4102,502.9308,474.0393,501.221,475.889,499.0027,478.1784,498.266,480.9001,497.6316,484.3904,498.0085,486.3021,498.9101,488.5247,499.3188,491.2272,502.0875,492.1693,505.0105,492.5786,507.0049,492.115,510.2914" style="stroke:#181818;stroke-width:1.0;"/><path d="M484.2656,504.2266 Q484.4219,504.0078 484.6094,503.8984 Q484.7969,503.7891 485.0156,503.7891 Q485.3906,503.7891 485.625,504.0547 Q485.8594,504.3047 485.8594,504.9141 L485.8594,506.3672 Q485.8594,506.9766 485.625,507.2422 Q485.3906,507.5078 485.0156,507.5078 Q484.6719,507.5078 484.4688,507.3047 Q484.2656,507.1172 484.1563,506.6016 Q484.1094,506.2422 483.9219,506.0547 Q483.5938,505.6797 482.9844,505.4609 Q482.375,505.2422 481.75,505.2422 Q480.9844,505.2422 480.3438,505.5703 Q479.7188,505.8984 479.2188,506.6484 Q478.7344,507.3984 478.7344,508.4297 L478.7344,509.5234 Q478.7344,510.7578 479.625,511.5859 Q480.5156,512.3984 482.1094,512.3984 Q483.0469,512.3984 483.7031,512.1484 Q484.0938,511.9922 484.5156,511.5547 Q484.7813,511.2891 484.9219,511.2109 Q485.0781,511.1328 485.2813,511.1328 Q485.6094,511.1328 485.8594,511.3984 Q486.125,511.6484 486.125,511.9922 Q486.125,512.3359 485.7813,512.7422 Q485.2813,513.3203 484.4844,513.6484 Q483.4063,514.1016 482.1094,514.1016 Q480.5938,514.1016 479.3906,513.4766 Q478.4063,512.9766 477.7188,511.9141 Q477.0313,510.8359 477.0313,509.5547 L477.0313,508.3984 Q477.0313,507.0703 477.6406,505.9297 Q478.2656,504.7734 479.3594,504.1641 Q480.4531,503.5391 481.6875,503.5391 Q482.4219,503.5391 483.0625,503.7109 Q483.7188,503.8672 484.2656,504.2266 Z " fill="#000000"/><text fill="#000000" font-family="FG Virgil" font-size="12" font-style="italic" lengthAdjust="spacing" textLength="50" x="528.5" y="504.457">«factory»</text><text fill="#000000" font-family="FG Virgil" font-size="14" lengthAdjust="spacing" textLength="116" x="495.5" y="521.627">RepositoryFactory</text><path d="M467.5,529.7031 L467.5,529.9834 L477.2333,529.1507 L486.9667,529.9608 L496.7,530.236 L506.4333,528.7519 L516.1667,529.5995 L525.9,529.1345 L535.6333,529.1918 L545.3667,529.6122 L555.1,528.7813 L564.8333,530.4413 L574.5667,528.8628 L584.3,529.4394 L594.0333,530.2791 L603.7667,529.5888 L613.5,529.7031 " fill="#F1F1F1" style="stroke:#181818;stroke-width:0.5;"/><path d="M467.5,537.7031 L467.5,537.9834 L477.2333,537.1507 L486.9667,537.9608 L496.7,538.236 L506.4333,536.7519 L516.1667,537.5995 L525.9,537.1345 L535.6333,537.1918 L545.3667,537.6122 L555.1,536.7813 L564.8333,538.4413 L574.5667,536.8628 L584.3,537.4394 L594.0333,538.2791 L603.7667,537.5888 L613.5,537.7031 " fill="#F1F1F1" style="stroke:#181818;stroke-width:0.5;"/><text fill="#000000" font-family="FG Virgil" font-size="14" lengthAdjust="spacing" textLength="45" x="472.5" y="556.2363">users()</text></g><!--MD5=[093c210125347143eef5bb9199eae634]
class UserRepository--><g id="elem_UserRepository"><polygon fill="#F1F1F1" points="528.5,641,528.5,641.2102,538.6333,640.5857,548.7667,641.1933,558.9,641.3997,569.0333,640.2866,579.1667,640.9223,589.3,640.5735,599.4333,640.6165,609.5667,640.9318,619.7,640.3086,629.8333,641.5536,639.9667,640.3697,650.1,640.8022,660.2333,641.4319,670.3667,640.9142,680.5,641,680.5087,641.021,680.8495,641.1366,681.2299,641.3479,681.5912,641.513,681.9889,641.7662,682.2678,641.7322,682.4744,641.8178,682.6234,642.1724,682.6391,642.4718,682.8499,642.852,683.0698,643.236,683,643.5,682.2788,643.5,683.6785,653.3802,682.7035,663.2604,683.5338,673.1406,682.505,683.0208,682.9315,692.901,683.7416,702.7813,682.9513,712.6615,683.1053,722.5417,683,732.4219,683.1043,732.4651,682.9817,732.8285,682.7059,733.1285,682.6491,733.5192,682.2379,733.7631,682.2678,734.1896,682.304,734.2772,681.9841,734.5049,681.6174,734.6194,681.2853,734.8178,680.7919,734.6267,680.5,734.9219,680.5,734.2697,670.3667,734.3005,660.2333,734.863,650.1,734.7253,639.9667,735.6033,629.8333,734.7472,619.7,734.5788,609.5667,735.1501,599.4333,734.255,589.3,734.4027,579.1667,735.5708,569.0333,735.3575,558.9,735.6564,548.7667,734.6001,538.6333,735.2411,528.5,734.9219,528.5753,735.1037,528.0862,734.6299,527.7807,734.5995,527.4554,734.5213,527.1689,734.5368,526.7322,734.1896,526.7309,734.1891,526.7282,733.8951,526.2688,733.4119,526.0843,733.0426,526.3015,732.8397,526,732.4219,525.2831,732.4219,526.509,722.5417,526.2066,712.6615,525.7321,702.7813,525.6462,692.901,526.4588,683.0208,525.7007,673.1406,526.5919,663.2604,525.4473,653.3802,526,643.5,526.1901,643.5788,526.2956,643.2082,526.3683,642.8241,526.4539,642.4454,526.8096,642.1785,526.7322,641.7322,526.8105,641.9212,527.1074,641.6379,527.4736,641.5219,527.7763,641.2528,528.2378,641.3671,528.5,641" style="stroke:#181818;stroke-width:0.5;"/><polygon fill="#C2C2C2" points="564.6608,665.0272,563.0484,667.2304,561.1412,670.4573,558.4136,672.632,555.5474,673.8212,553.262,673.9244,550.3247,672.4371,547.5532,671.4655,545.4495,669.4927,544.3461,667.2343,543.6917,665.4361,543.0506,663.0873,542.01,661.066,542.8096,659.0926,543.5102,656.9308,546.1393,655.221,547.989,653.0027,550.2784,652.266,553.0001,651.6316,556.4904,652.0085,558.4021,652.9101,560.6247,653.3188,563.3272,656.0875,564.2693,659.0105,564.6786,661.0049,564.215,664.2914" style="stroke:#181818;stroke-width:1.0;"/><path d="M556.3656,658.2266 Q556.5219,658.0078 556.7094,657.8984 Q556.8969,657.7891 557.1156,657.7891 Q557.4906,657.7891 557.725,658.0547 Q557.9594,658.3047 557.9594,658.9141 L557.9594,660.3672 Q557.9594,660.9766 557.725,661.2422 Q557.4906,661.5078 557.1156,661.5078 Q556.7719,661.5078 556.5688,661.3047 Q556.3656,661.1172 556.2563,660.6016 Q556.2094,660.2422 556.0219,660.0547 Q555.6938,659.6797 555.0844,659.4609 Q554.475,659.2422 553.85,659.2422 Q553.0844,659.2422 552.4438,659.5703 Q551.8188,659.8984 551.3188,660.6484 Q550.8344,661.3984 550.8344,662.4297 L550.8344,663.5234 Q550.8344,664.7578 551.725,665.5859 Q552.6156,666.3984 554.2094,666.3984 Q555.1469,666.3984 555.8031,666.1484 Q556.1938,665.9922 556.6156,665.5547 Q556.8813,665.2891 557.0219,665.2109 Q557.1781,665.1328 557.3813,665.1328 Q557.7094,665.1328 557.9594,665.3984 Q558.225,665.6484 558.225,665.9922 Q558.225,666.3359 557.8813,666.7422 Q557.3813,667.3203 556.5844,667.6484 Q555.5063,668.1016 554.2094,668.1016 Q552.6938,668.1016 551.4906,667.4766 Q550.5063,666.9766 549.8188,665.9141 Q549.1313,664.8359 549.1313,663.5547 L549.1313,662.3984 Q549.1313,661.0703 549.7406,659.9297 Q550.3656,658.7734 551.4594,658.1641 Q552.5531,657.5391 553.7875,657.5391 Q554.5219,657.5391 555.1625,657.7109 Q555.8188,657.8672 556.3656,658.2266 Z " fill="#000000"/><text fill="#000000" font-family="FG Virgil" font-size="12" font-style="italic" lengthAdjust="spacing" textLength="68" x="584.9" y="658.457">«repository»</text><text fill="#000000" font-family="FG Virgil" font-size="14" lengthAdjust="spacing" textLength="97" x="570.4" y="675.627">UserRepository</text><path d="M527,683.7031 L527,683.9834 L536.6875,683.1507 L546.375,683.9608 L556.0625,684.236 L565.75,682.7519 L575.4375,683.5995 L585.125,683.1345 L594.8125,683.1918 L604.5,683.6122 L614.1875,682.7813 L623.875,684.4413 L633.5625,682.8628 L643.25,683.4394 L652.9375,684.2791 L662.625,683.5888 L672.3125,683.7941 L682,683.7031 " fill="#F1F1F1" style="stroke:#181818;stroke-width:0.5;"/><path d="M527,691.7031 L527,691.9834 L536.6875,691.1507 L546.375,691.9608 L556.0625,692.236 L565.75,690.7519 L575.4375,691.5995 L585.125,691.1345 L594.8125,691.1918 L604.5,691.6122 L614.1875,690.7813 L623.875,692.4413 L633.5625,690.8628 L643.25,691.4394 L652.9375,692.2791 L662.625,691.5888 L672.3125,691.7941 L682,691.7031 " fill="#F1F1F1" style="stroke:#181818;stroke-width:0.5;"/><text fill="#000000" font-family="FG Virgil" font-size="14" lengthAdjust="spacing" textLength="145" x="532" y="710.2363">findUserByEmail(email)</text><text fill="#000000" font-family="FG Virgil" font-size="14" lengthAdjust="spacing" textLength="69" x="532" y="727.8457">save(User)</text></g><!--MD5=[9446d8b5aed54972f0488291b5131fc0]
link ChangeUserStateUI to ChangeUserStateController--><g id="link_ChangeUserStateUI_ChangeUserStateController"><path d="M458.5,83.18 L458.7802,83.18 L457.9476,93.5629 L458.7577,103.9457 L459.0329,114.3286 L457.5488,124.7114 L458.3964,135.0943 L457.9313,145.4771 L458.5,155.86 " fill="none" style="stroke:#181818;stroke-width:1.0;"/><polygon fill="#181818" points="458.5,160.94,458.564,160.9685,459.1738,159.0839,460.1589,157.3662,461.0217,155.5941,461.4827,153.6434,462.5,151.94,462.4817,151.9217,461.5995,152.6395,460.8096,153.4496,460.0839,154.3239,459.137,154.977,458.5,155.94,458.6305,156.0705,457.5514,154.9914,456.8534,154.2934,456.2018,153.6418,455.2798,152.7198,454.5,151.94,454.5208,151.9492,455.2903,153.7357,456.1544,155.5642,456.9728,157.3724,457.8784,159.2193,458.5,160.94" style="stroke:#181818;stroke-width:1.0;"/><text fill="#000000" font-family="FG Virgil" font-size="13" lengthAdjust="spacing" textLength="73" x="459.5" y="127.4951">theController</text></g><!--MD5=[dbfce5067b79689ed5524d6855322e14]
link ChangeUserStateController to UserRepository--><g id="link_ChangeUserStateController_UserRepository"><path d="M552.42,237.11 L552.4677,237.1903 L554.7317,238.3801 L557.2752,240.0407 L559.7277,241.5479 L561.8808,242.551 L564.4484,244.252 L564.4293,244.2232 L566.7075,245.6637 L569.0821,247.2491 L571.5236,248.9355 L573.7343,250.2743 L576.2683,252.0998 L576.4159,252.2967 L578.3857,253.59 L580.7865,255.4581 L583.2399,257.3962 L585.3873,258.9264 L587.6956,260.6712 L587.7154,260.6942 L589.8565,262.5229 L592.0875,264.4564 L594.2752,266.3394 L596.5457,268.3188 L598.5463,269.9838 L598.7569,270.1948 L600.7775,272.2117 L602.6621,274.0924 L604.7457,276.1725 L606.8386,278.2618 L608.6361,280.0552 L608.391,279.8486 L610.6957,282.4192 L612.1934,284.3095 L614.3045,286.717 L615.7839,288.5919 L617.7811,290.9033 L617.756,290.886 L619.6558,293.4187 L620.9697,295.5479 L622.6292,297.9152 L624.3179,300.3025 L625.7971,302.5456 L625.96,302.6333 L627.1361,305.0357 L628.5907,307.5879 L629.5948,309.8977 L631.2707,312.569 L632.5,315 L632.7233,315.0975 L633.5553,317.0815 L634.4981,319.114 L634.9259,320.9216 L635.7312,322.894 L636.8711,325.0124 L636.6131,324.9138 L637.627,327.0432 L638.3501,329.0614 L639.4949,331.2409 L639.9198,333.1451 L640.7726,335.2129 L640.6279,335.1648 L641.5586,337.3189 L641.8709,339.2674 L642.6229,341.3621 L643.8053,343.5999 L644.2213,345.5828 L644.4075,345.6361 L645.1378,347.7768 L645.2891,349.7517 L646.1655,351.9342 L646.884,354.0716 L647.2344,356.1034 L647.0304,356.0538 L647.7118,358.2239 L648.3264,360.3778 L649.0723,362.5636 L649.3079,364.6251 L649.8285,366.7561 L650.03,366.7971 L650.0258,368.8602 L650.4105,371.0025 L651.3632,373.2604 L651.2701,375.3054 L652.0208,377.5222 L652.2439,377.5594 L652.4728,379.7095 L652.6263,381.847 L652.9501,384.0129 L653.6678,386.2444 L653.8281,388.3831 L653.6962,388.3657 L654.3767,390.6048 L654.1602,392.7258 L654.9637,394.981 L655.1929,397.1607 L655.2673,399.32 L655.3757,399.3307 L655.5059,401.5209 L656.024,403.7495 L656.1916,405.9435 L656.2127,408.1229 L656.3555,410.3144 L656.4744,410.3225 L656.4485,412.517 L656.9748,414.7493 L656.8765,416.9389 L657.0352,419.1461 L657.1095,421.3475 L656.8393,421.3368 L657.0168,423.551 L657.5199,425.7781 L657.5624,427.9869 L657.4398,430.1893 L657.5462,432.4007 L657.403,432.3989 L657.4762,434.6104 L657.2958,436.8188 L657.8123,439.0357 L657.984,441.2484 L657.6826,443.4553 L657.9165,443.4584 L657.962,445.6669 L657.563,447.8695 L657.6332,450.0783 L657.3928,452.283 L657.5356,454.4927 L657.6618,454.4975 L657.5625,456.6972 L657.6156,458.9026 L657.1856,461.0898 L657.1452,463.2917 L657.1222,465.4943 L657.3189,465.5062 L657.2413,467.6989 L656.6297,469.8593 L656.6384,472.0572 L656.6581,474.2558 L656.4593,476.4412 L656.1887,476.419 L656.4367,478.6289 L656.2153,480.8002 L655.8773,482.9618 L655.8059,485.1454 L655.5638,487.315 L655.8859,487.3482 L655.2032,489.4571 L655.2585,491.6421 L655.0233,493.7971 L654.726,495.9458 L654.4526,498.0969 L654.5147,498.1045 L654.2407,500.2373 L653.6533,502.3316 L653.4898,504.478 L653.2011,506.609 L653.1427,508.7682 L653.1708,508.7722 L652.8831,510.8822 L652.6172,512.9952 L652.1196,515.0754 L651.9196,517.1978 L651.651,519.3104 L651.5982,519.302 L651.5729,521.4296 L651.1756,523.498 L650.444,525.513 L650.2937,527.6207 L649.9944,529.7047 L649.7418,529.6601 L649.7598,531.7725 L649.539,533.8428 L649.1501,535.8834 L648.3602,537.8533 L648.19,539.9325 L648.3924,539.9715 L647.4787,541.8785 L647.5031,543.9663 L646.898,545.9328 L646.6838,547.9747 L646.2545,549.975 L646.3589,549.9976 L645.6204,553.9103 L644.2632,557.6896 L643.9433,561.6926 L642.9749,565.5557 L642.0583,569.43 L642.2117,569.4675 L641.4777,573.2069 L640.2538,576.8267 L639.4238,580.5427 L638.5368,584.2447 L637.5413,587.9203 L637.6259,587.9432 L636.6005,591.3954 L635.9652,594.9533 L634.4583,598.2753 L634.0219,601.8869 L632.8389,605.2966 L632.5729,605.2181 L631.6581,608.4512 L630.9551,611.7468 L629.9996,614.9679 L628.827,618.125 L628.0867,621.4096 L628.2619,621.4652 L627.1995,624.3643 L626.5278,627.3875 L625.5693,630.3195 L624.1634,633.1096 L623.42,636.11 " fill="none" style="stroke:#181818;stroke-width:1.0;"/><polygon fill="#181818" points="621.83,640.92,621.8818,640.9671,623.0534,639.37,624.5287,638.0493,625.9051,636.6385,626.9562,634.9318,628.4576,633.6348,628.446,633.6116,627.3828,634.0155,626.3782,634.5361,625.4144,635.1378,624.3101,635.46,623.4026,636.1737,623.5675,636.2566,622.707,635.0684,622.3281,634.1221,622.0078,633.2053,621.3458,632.1169,620.8636,631.1187,620.8862,631.1209,621.0463,633.0779,621.3094,635.045,621.5228,637.0073,621.831,638.9789,621.83,640.92" style="stroke:#181818;stroke-width:1.0;"/><text fill="#000000" font-family="FG Virgil" font-size="13" lengthAdjust="spacing" textLength="25" x="659.5" y="453.4951">repo</text></g><!--MD5=[34702d9dc0743cb9daaf2ae22be3b136]
link ChangeUserStateController to AuthorizationService--><g id="link_ChangeUserStateController_AuthorizationService"><path d="M376.24,237.08 L376.2804,237.1642 L370.0428,239.8528 L364.0422,243.0349 L357.9644,246.0564 L351.6327,248.5492 L345.6525,251.7738 L345.6371,251.7428 L342.5134,253.124 L339.4673,254.661 L336.4751,256.3063 L333.2971,257.5783 L330.3794,259.3733 L330.4916,259.5923 L327.2757,260.6493 L324.3875,262.3457 L321.5393,264.1202 L318.4585,265.4407 L315.5,267 L315.5143,267.0268 L310.5693,269.6146 L305.6893,272.3242 L300.7779,274.9751 L295.9264,277.738 L290.8798,280.1355 L291.0243,280.3964 L286.0538,283.1518 L280.9902,285.7388 L276.063,288.5722 L271.1421,291.4172 L266.0188,293.8963 L265.8602,293.6177 L261.3078,296.9244 L256.2334,299.3138 L251.5558,302.4005 L246.4696,304.7692 L241.7183,307.7264 L241.703,307.7001 L237.2964,310.68 L232.5321,313.0451 L227.9788,315.773 L223.4433,318.5314 L218.78,321.07 " fill="none" style="stroke:#181818;stroke-width:1.0;"/><polygon fill="#181818" points="214.12,323.81,214.128,323.8796,216.0611,323.448,218.0412,323.4244,220.0059,323.268,221.9205,322.6746,223.9045,322.6861,223.898,322.661,222.7735,322.2654,221.6817,321.9963,220.6126,321.8151,219.4652,321.331,218.4275,321.2712,218.6062,321.3173,218.507,320.1232,218.9296,319.0639,219.4158,318.0209,219.5317,316.8824,219.8424,315.7941,219.8609,315.8073,218.6892,317.3911,217.6019,319.035,216.4738,320.65,215.4234,322.3203,214.12,323.81" style="stroke:#181818;stroke-width:1.0;"/><text fill="#000000" font-family="FG Virgil" font-size="13" lengthAdjust="spacing" textLength="94" x="316.5" y="281.4951">theAuthzService</text></g><!--MD5=[e3c6df609e86b7b04c32a4ade537a939]
link ChangeUserStateController to PersistenceContext--><g id="link_ChangeUserStateController_PersistenceContext"><path d="M477.05,237.34 L477.301,237.4647 L481.0764,246.1908 L486.323,255.648 L491.0905,264.8672 L494.2827,273.3033 L499.5628,282.7772 L503.6674,291.6669 L508.2399,300.7891 L513.1375,310.0729 L517.74,319.21 " fill="none" style="stroke:#181818;stroke-width:1.0;"/><polygon fill="#181818" points="520.05,323.86,520.12,323.863,519.8276,321.8861,519.9455,319.9268,519.9298,317.9618,519.4747,315.978,519.6279,314.0202,519.6033,314.0119,519.1326,315.0473,518.7857,316.1243,518.5248,317.2301,517.9674,318.2363,517.8253,319.3822,517.8842,319.5571,516.686,318.8225,515.6595,318.5987,514.654,318.4371,513.5267,317.913,512.4634,317.5796,512.4779,317.5972,513.9739,318.8275,515.536,320.1376,517.0662,321.4093,518.6572,322.7543,520.05,323.86" style="stroke:#181818;stroke-width:1.0;"/><text fill="#000000" font-family="FG Virgil" font-size="13" lengthAdjust="spacing" textLength="67" x="499.5" y="281.4951">persistence</text></g><!--MD5=[c40dd4de5fea40433b9cb3b5cd053c6d]
link ChangeUserStateController to user:User--><g id="link_ChangeUserStateController_user:User"><path d="M440.18,237.34 L440.4316,237.4635 L435.2103,246.2129 L431.4639,255.686 L427.2372,264.9235 L421.4311,273.3859 L417.7182,282.8756 L412.827,291.787 L408.4047,300.9285 L404.39,310.27 " fill="none" style="stroke:#181818;stroke-width:1.0;"/><polygon fill="#181818" points="402.1,314.94,402.145,314.9937,403.5223,313.5702,405.1631,312.4618,406.7181,311.2507,407.9909,309.7023,409.6544,308.6209,409.646,308.5964,408.5378,308.8523,407.4719,309.2319,406.4354,309.6974,405.2977,309.8668,404.3017,310.4508,404.4763,310.5105,403.7369,309.3123,403.5073,308.2884,403.3399,307.2858,402.8107,306.1594,402.4717,305.0982,402.4944,305.099,402.3867,307.0661,402.3825,309.0371,402.3283,311.0063,402.3694,312.979,402.1,314.94" style="stroke:#181818;stroke-width:1.0;"/></g><!--MD5=[754b775031405e096442b27febffa290]
link PersistenceContext to RepositoryFactory--><g id="link_PersistenceContext_RepositoryFactory"><path d="M538.96,400.34 L539.2402,400.3435 L538.5339,410.4881 L539.4702,420.6532 L539.8716,430.8116 L538.5139,440.9482 L539.4876,451.1137 L539.1489,461.2629 L539.3325,471.4186 L539.97,481.58 " fill="none" style="stroke:#181818;stroke-width:1.0;"/><polygon fill="#181818" points="540.04,486.86,540.1043,486.8877,540.6925,484.9963,541.6579,483.2674,542.5005,481.4856,542.9391,479.5298,543.9369,477.8149,543.9184,477.7968,543.0444,478.5246,542.2639,479.3437,541.5482,480.2263,540.6089,480.8902,539.9829,481.8603,540.1119,481.9923,539.0269,480.9193,538.3186,480.2316,537.6562,479.5909,536.7265,478.6767,535.9374,477.9063,535.9581,477.9158,536.7482,479.6926,537.6325,481.5126,538.4714,483.3117,539.397,485.1506,540.04,486.86" style="stroke:#181818;stroke-width:1.0;"/><text fill="#000000" font-family="FG Virgil" font-size="13" lengthAdjust="spacing" textLength="39" x="541.5" y="453.4951">factory</text></g><!--MD5=[0bde64d3861a2e0b7bf5316115f64c06]
link RepositoryFactory to UserRepository--><g id="link_RepositoryFactory_UserRepository"><path d="M555.34,563.34 L555.6004,563.4435 L558.4517,572.2521 L562.8295,581.6677 L566.7102,590.8857 L568.9561,599.4535 L573.3687,608.883 L576.5616,617.8274 L580.2399,626.9648 L584.34,636.27 " fill="none" style="stroke:#181818;stroke-width:1.0;"/><polygon fill="#181818" points="586.19,640.94,586.26,640.9428,586.1315,638.9663,586.4134,637.0063,586.5616,635.0409,586.2704,633.0577,586.5875,631.0992,586.5637,631.0889,586.0086,632.0815,585.5733,633.1259,585.2214,634.2063,584.5822,635.1627,584.3454,636.2927,584.4185,636.4621,583.2234,635.6514,582.2418,635.3353,581.2863,635.0796,580.1792,634.4727,579.1518,634.0506,579.1678,634.0668,580.552,635.4208,582.0087,636.8489,583.4305,638.2412,584.9189,639.7016,586.19,640.94" style="stroke:#181818;stroke-width:1.0;"/><text fill="#000000" font-family="FG Virgil" font-size="13" lengthAdjust="spacing" textLength="25" x="573.5" y="607.4951">repo</text></g><!--MD5=[1dfd301bacb9e2027e69b011dc8f6ee0]
@startuml
'http://plantuml.com/skinparam.html
skinparam handwritten true
skinparam monochrome true
skinparam packageStyle rect
skinparam defaultFontName FG Virgil
skinparam shadowing false

class ChangeUserStateUI <<presentation>>
class ChangeUserStateController <<application>>
class AuthorizationService <<service>>
class "user:User" <<domain>>
class PersistenceContext  <<persistence>>
class RepositoryFactory  <<factory>>
class UserRepository <<repository>>

ChangeUserStateUI - -> ChangeUserStateController : theController
ChangeUserStateController - -> UserRepository: repo
ChangeUserStateController - -> AuthorizationService: theAuthzService
ChangeUserStateController - -> PersistenceContext: persistence
ChangeUserStateController - -> "user:User"
PersistenceContext - -> RepositoryFactory: factory
RepositoryFactory - -> UserRepository: repo

ChangeUserStateUI : doShow()
ChangeUserStateController : enableUserByEmail(String)
AuthorizationService : ensureAuthenticatedUserHasAnyOf(Role...))
PersistenceContext : repositories()
RepositoryFactory : users()
"user:User" : enable()
"user:User" : disable()
UserRepository : findUserByEmail(email)
UserRepository : save(User)

@enduml

@startuml
skinparam handwritten true
skinparam monochrome true
skinparam packageStyle rect
skinparam defaultFontName FG Virgil
skinparam shadowing false

class ChangeUserStateUI <<presentation>>
class ChangeUserStateController <<application>>
class AuthorizationService <<service>>
class "user:User" <<domain>>
class PersistenceContext  <<persistence>>
class RepositoryFactory  <<factory>>
class UserRepository <<repository>>

ChangeUserStateUI - -> ChangeUserStateController : theController
ChangeUserStateController - -> UserRepository: repo
ChangeUserStateController - -> AuthorizationService: theAuthzService
ChangeUserStateController - -> PersistenceContext: persistence
ChangeUserStateController - -> "user:User"
PersistenceContext - -> RepositoryFactory: factory
RepositoryFactory - -> UserRepository: repo

ChangeUserStateUI : doShow()
ChangeUserStateController : enableUserByEmail(String)
AuthorizationService : ensureAuthenticatedUserHasAnyOf(Role...))
PersistenceContext : repositories()
RepositoryFactory : users()
"user:User" : enable()
"user:User" : disable()
UserRepository : findUserByEmail(email)
UserRepository : save(User)

@enduml

PlantUML version 1.2022.7(Mon Aug 22 18:01:30 BST 2022)
(GPL source distribution)
Java Runtime: Java(TM) SE Runtime Environment
JVM: Java HotSpot(TM) 64-Bit Server VM
Default Encoding: Cp1252
Language: pt
Country: PT
--></g></svg>