<?xml version="1.0" encoding="UTF-8" standalone="no"?><svg xmlns="http://www.w3.org/2000/svg" xmlns:xlink="http://www.w3.org/1999/xlink" contentStyleType="text/css" height="878px" preserveAspectRatio="none" style="width:525px;height:878px;background:#FFFFFF;" version="1.1" viewBox="0 0 525 878" width="525px" zoomAndPan="magnify"><defs/><g><!--MD5=[e068204f24efae014cc250f4748ce942]
class ListUsersUI--><g id="elem_ListUsersUI"><polygon fill="#F1F1F1" points="199.5,7,199.5,7.2102,209.0455,6.5857,218.5909,7.1933,228.1364,7.3997,237.6818,6.2866,247.2273,6.9223,256.7727,6.5735,266.3182,6.6165,275.8636,6.9318,285.4091,6.3086,294.9545,7.5536,304.5,7,304.4196,6.8059,304.8283,7.0855,305.2622,7.4259,305.5497,7.4129,305.9229,7.6068,306.2678,7.7322,306.2579,7.7282,306.4692,8.1086,306.6343,8.4698,306.8875,8.8676,307.0602,9.232,307,9.5,307.6793,9.5,307.2546,19.3802,307.4636,29.2604,307.7022,39.1406,306.2788,49.0208,307.6785,58.901,306.7035,68.7813,307.5338,78.6615,306.505,88.5417,307,98.4219,306.9789,98.4131,307.0819,98.87,306.6921,99.1228,306.5931,99.496,306.5185,99.8793,306.2678,100.1896,306.3209,100.3178,305.9137,100.3349,305.5973,100.571,305.1341,100.4527,304.8898,100.863,304.5,100.9219,304.5,101.4701,294.9545,101.3664,285.4091,101.5349,275.8636,100.4388,266.3182,100.2697,256.7727,100.3005,247.2273,100.863,237.6818,100.7253,228.1364,101.6033,218.5909,100.7472,209.0455,100.5788,199.5,100.9219,199.5291,100.9922,199.0614,100.5701,198.7267,100.4691,198.5221,100.6824,198.1414,100.4703,197.7322,100.1896,197.9584,100.2833,197.4867,99.795,197.5376,99.5233,197.4747,99.2043,197.001,98.7152,197,98.4219,196.9041,98.4219,197.126,88.5417,197.6518,78.6615,196.9958,68.7813,197.4626,58.901,196.4462,49.0208,196.3227,39.1406,197.5036,29.2604,196.2831,19.3802,197,9.5,197.1567,9.5649,197.2101,9.1728,197.2104,8.7587,197.3304,8.3942,197.7271,8.1443,197.7322,7.7322,197.694,7.6401,198.1613,7.7681,198.3688,7.2691,198.8717,7.483,199.2082,7.2956,199.5,7" style="stroke:#181818;stroke-width:0.5;"/><polygon fill="#C2C2C2" points="223.0608,31.0272,221.4484,33.2304,219.5412,36.4573,216.8136,38.632,213.9474,39.8212,211.662,39.9244,208.7247,38.4371,205.9532,37.4655,203.8495,35.4927,202.7461,33.2343,202.0917,31.4361,201.4506,29.0873,200.41,27.066,201.2096,25.0926,201.9102,22.9308,204.5393,21.221,206.389,19.0027,208.6784,18.266,211.4001,17.6316,214.8904,18.0085,216.8021,18.9101,219.0247,19.3188,221.7272,22.0875,222.6693,25.0105,223.0786,27.0049,222.615,30.2914" style="stroke:#181818;stroke-width:1.0;"/><path d="M214.7656,24.2266 Q214.9219,24.0078 215.1094,23.8984 Q215.2969,23.7891 215.5156,23.7891 Q215.8906,23.7891 216.125,24.0547 Q216.3594,24.3047 216.3594,24.9141 L216.3594,26.3672 Q216.3594,26.9766 216.125,27.2422 Q215.8906,27.5078 215.5156,27.5078 Q215.1719,27.5078 214.9688,27.3047 Q214.7656,27.1172 214.6563,26.6016 Q214.6094,26.2422 214.4219,26.0547 Q214.0938,25.6797 213.4844,25.4609 Q212.875,25.2422 212.25,25.2422 Q211.4844,25.2422 210.8438,25.5703 Q210.2188,25.8984 209.7188,26.6484 Q209.2344,27.3984 209.2344,28.4297 L209.2344,29.5234 Q209.2344,30.7578 210.125,31.5859 Q211.0156,32.3984 212.6094,32.3984 Q213.5469,32.3984 214.2031,32.1484 Q214.5938,31.9922 215.0156,31.5547 Q215.2813,31.2891 215.4219,31.2109 Q215.5781,31.1328 215.7813,31.1328 Q216.1094,31.1328 216.3594,31.3984 Q216.625,31.6484 216.625,31.9922 Q216.625,32.3359 216.2813,32.7422 Q215.7813,33.3203 214.9844,33.6484 Q213.9063,34.1016 212.6094,34.1016 Q211.0938,34.1016 209.8906,33.4766 Q208.9063,32.9766 208.2188,31.9141 Q207.5313,30.8359 207.5313,29.5547 L207.5313,28.3984 Q207.5313,27.0703 208.1406,25.9297 Q208.7656,24.7734 209.8594,24.1641 Q210.9531,23.5391 212.1875,23.5391 Q212.9219,23.5391 213.5625,23.7109 Q214.2188,23.8672 214.7656,24.2266 Z " fill="#000000"/><text fill="#000000" font-family="FG Virgil" font-size="12" font-style="italic" lengthAdjust="spacing" textLength="82" x="224" y="24.457">«presentation»</text><text fill="#000000" font-family="FG Virgil" font-size="14" lengthAdjust="spacing" textLength="70" x="230" y="41.627">ListUsersUI</text><path d="M198,49.7031 L198,49.9834 L207.8182,49.1507 L217.6364,49.9608 L227.4545,50.236 L237.2727,48.7519 L247.0909,49.5995 L256.9091,49.1345 L266.7273,49.1918 L276.5455,49.6122 L286.3636,48.7813 L296.1818,50.4413 L306,49.7031 " fill="#F1F1F1" style="stroke:#181818;stroke-width:0.5;"/><path d="M198,57.7031 L198,57.9834 L207.8182,57.1507 L217.6364,57.9608 L227.4545,58.236 L237.2727,56.7519 L247.0909,57.5995 L256.9091,57.1345 L266.7273,57.1918 L276.5455,57.6122 L286.3636,56.7813 L296.1818,58.4413 L306,57.7031 " fill="#F1F1F1" style="stroke:#181818;stroke-width:0.5;"/><text fill="#000000" font-family="FG Virgil" font-size="14" lengthAdjust="spacing" textLength="60" x="203" y="76.2363">doShow()</text><text fill="#000000" font-family="FG Virgil" font-size="14" lengthAdjust="spacing" textLength="42" x="203" y="93.8457">show()</text></g><!--MD5=[f415f89b6a39f78e45412d639a322eb4]
class ListUsersController--><g id="elem_ListUsersController"><polygon fill="#F1F1F1" points="178.5,179,178.5,179.2102,188.3,178.5857,198.1,179.1933,207.9,179.3997,217.7,178.2866,227.5,178.9223,237.3,178.5735,247.1,178.6165,256.9,178.9318,266.7,178.3086,276.5,179.5536,286.3,178.3697,296.1,178.8022,305.9,179.4319,315.7,178.9142,325.5,179,325.5087,179.021,325.8495,179.1366,326.2299,179.3479,326.5912,179.513,326.9889,179.7662,327.2678,179.7322,327.4744,179.8178,327.6234,180.1724,327.6391,180.4718,327.8499,180.852,328.0698,181.236,328,181.5,327.2788,181.5,328.6785,191.6875,327.7035,201.875,328.5338,212.0625,327.505,222.25,327.9315,232.4375,328.7416,242.625,328,252.8125,327.985,252.8063,327.886,253.1795,327.8114,253.5628,327.6888,253.9263,327.413,254.2262,327.2678,254.5803,327.3044,254.6687,326.8412,254.5504,326.5969,254.9607,326.277,255.1884,325.9103,255.303,325.5,255.3125,325.5,255.9255,315.7,254.8294,305.9,254.6603,296.1,254.6911,286.3,255.2536,276.5,255.116,266.7,255.9939,256.9,255.1378,247.1,254.9694,237.3,255.5408,227.5,254.6457,217.7,254.7934,207.9,255.9615,198.1,255.7482,188.3,256.047,178.5,255.3125,178.459,255.2134,178.1872,255.2644,177.8682,255.2014,177.3791,254.7277,177.0736,254.6972,176.7322,254.5803,176.771,254.5963,176.7865,254.3099,176.438,253.8726,176.4353,253.5786,175.9759,253.0954,176,252.8125,175.3227,252.8125,176.5036,242.625,175.2831,232.4375,176.509,222.25,176.2066,212.0625,175.7321,201.875,175.6462,191.6875,176,181.5,176.1413,181.5585,176.0543,181.1083,176.4752,180.8684,176.2691,180.3688,176.7759,180.1645,176.7322,179.7322,176.794,179.8814,177.117,179.6612,177.4454,179.4539,177.8856,179.5167,178.2247,179.3354,178.5,179" style="stroke:#181818;stroke-width:0.5;"/><polygon fill="#C2C2C2" points="202.0608,203.0272,200.4484,205.2304,198.5412,208.4573,195.8136,210.632,192.9474,211.8212,190.662,211.9244,187.7247,210.4371,184.9532,209.4655,182.8495,207.4927,181.7461,205.2343,181.0917,203.4361,180.4506,201.0873,179.41,199.066,180.2096,197.0926,180.9102,194.9308,183.5393,193.221,185.389,191.0027,187.6784,190.266,190.4001,189.6316,193.8904,190.0085,195.8021,190.9101,198.0247,191.3188,200.7272,194.0875,201.6693,197.0105,202.0786,199.0049,201.615,202.2914" style="stroke:#181818;stroke-width:1.0;"/><path d="M193.7656,196.2266 Q193.9219,196.0078 194.1094,195.8984 Q194.2969,195.7891 194.5156,195.7891 Q194.8906,195.7891 195.125,196.0547 Q195.3594,196.3047 195.3594,196.9141 L195.3594,198.3672 Q195.3594,198.9766 195.125,199.2422 Q194.8906,199.5078 194.5156,199.5078 Q194.1719,199.5078 193.9688,199.3047 Q193.7656,199.1172 193.6563,198.6016 Q193.6094,198.2422 193.4219,198.0547 Q193.0938,197.6797 192.4844,197.4609 Q191.875,197.2422 191.25,197.2422 Q190.4844,197.2422 189.8438,197.5703 Q189.2188,197.8984 188.7188,198.6484 Q188.2344,199.3984 188.2344,200.4297 L188.2344,201.5234 Q188.2344,202.7578 189.125,203.5859 Q190.0156,204.3984 191.6094,204.3984 Q192.5469,204.3984 193.2031,204.1484 Q193.5938,203.9922 194.0156,203.5547 Q194.2813,203.2891 194.4219,203.2109 Q194.5781,203.1328 194.7813,203.1328 Q195.1094,203.1328 195.3594,203.3984 Q195.625,203.6484 195.625,203.9922 Q195.625,204.3359 195.2813,204.7422 Q194.7813,205.3203 193.9844,205.6484 Q192.9063,206.1016 191.6094,206.1016 Q190.0938,206.1016 188.8906,205.4766 Q187.9063,204.9766 187.2188,203.9141 Q186.5313,202.8359 186.5313,201.5547 L186.5313,200.3984 Q186.5313,199.0703 187.1406,197.9297 Q187.7656,196.7734 188.8594,196.1641 Q189.9531,195.5391 191.1875,195.5391 Q191.9219,195.5391 192.5625,195.7109 Q193.2188,195.8672 193.7656,196.2266 Z " fill="#000000"/><text fill="#000000" font-family="FG Virgil" font-size="12" font-style="italic" lengthAdjust="spacing" textLength="74" x="228" y="196.457">«application»</text><text fill="#000000" font-family="FG Virgil" font-size="14" lengthAdjust="spacing" textLength="120" x="205" y="213.627">ListUsersController</text><path d="M177,221.7031 L177,221.9834 L187,221.1507 L197,221.9608 L207,222.236 L217,220.7519 L227,221.5995 L237,221.1345 L247,221.1918 L257,221.6122 L267,220.7813 L277,222.4413 L287,220.8628 L297,221.4394 L307,222.2791 L317,221.5888 L327,221.7031 " fill="#F1F1F1" style="stroke:#181818;stroke-width:0.5;"/><path d="M177,229.7031 L177,229.9834 L187,229.1507 L197,229.9608 L207,230.236 L217,228.7519 L227,229.5995 L237,229.1345 L247,229.1918 L257,229.6122 L267,228.7813 L277,230.4413 L287,228.8628 L297,229.4394 L307,230.2791 L317,229.5888 L327,229.7031 " fill="#F1F1F1" style="stroke:#181818;stroke-width:0.5;"/><text fill="#000000" font-family="FG Virgil" font-size="14" lengthAdjust="spacing" textLength="78" x="182" y="248.2363">listAllUsers()</text></g><!--MD5=[54a33dd013dd881697601ca49de6dfbc]
class AuthorizationService--><g id="elem_AuthorizationService"><polygon fill="#F1F1F1" points="9.5,333,9.5,333.2102,19.5357,332.5857,29.5714,333.1933,39.6071,333.3997,49.6429,332.2866,59.6786,332.9223,69.7143,332.5735,79.75,332.6165,89.7857,332.9318,99.8214,332.3086,109.8571,333.5536,119.8929,332.3697,129.9286,332.8022,139.9643,333.4319,150,332.9142,160.0357,333.0682,170.0714,332.9681,180.1071,333.1785,190.1429,333.2391,200.1786,333.5857,210.2143,333.6711,220.25,333.6793,230.2857,333.2546,240.3214,333.4636,250.3571,333.7022,260.3929,332.2788,270.4286,333.6785,280.4643,332.7035,290.5,333,290.5681,333.1644,290.7904,332.994,291.1984,333.2718,291.6553,333.6677,291.908,333.5708,292.2678,333.7322,292.3002,333.7457,292.5185,334.129,292.6888,334.4924,292.7059,334.7924,292.942,335.1831,293,335.5,292.4276,335.5,293.2844,345.6875,293.5482,355.875,293.4445,366.0625,293.613,376.25,292.5169,386.4375,292.3478,396.625,293,406.8125,292.8086,406.7332,292.8354,407.1585,292.6466,407.4945,292.7705,407.9601,292.3604,408.2044,292.2678,408.5803,292.224,408.4746,291.9433,408.797,291.4756,408.6678,291.1409,408.8597,290.9363,409.3659,290.5,409.3125,290.5,409.7482,280.4643,410.047,270.4286,408.9907,260.3929,409.6317,250.3571,409.9029,240.3214,408.8401,230.2857,409.2166,220.25,409.4385,210.2143,409.9643,200.1786,409.3083,190.1429,409.7751,180.1071,408.7587,170.0714,408.6352,160.0357,409.8161,150,408.5956,139.9643,409.8215,129.9286,409.5191,119.8929,409.0446,109.8571,408.9587,99.8214,409.7713,89.7857,409.0132,79.75,409.9044,69.7143,408.7598,59.6786,409.9299,49.6429,409.7968,39.6071,409.5575,29.5714,409.3597,19.5357,410.0391,9.5,409.3125,9.5783,409.5015,9.168,409.2182,8.8271,409.1022,8.4227,408.833,8.1772,408.9474,7.7322,408.5803,7.7799,408.6,7.6389,408.2487,7.252,407.7956,7.1681,407.4679,7.3099,407.2338,7,406.8125,7.4298,406.8125,6.9571,396.625,6.6778,386.4375,6.7811,376.25,6.3138,366.0625,7.4147,355.875,7.7396,345.6875,7,335.5,7.1621,335.5671,7.3605,335.2351,7.2508,334.7755,7.4662,334.4505,7.4664,334.0363,7.7322,333.7322,7.7685,333.8197,8.1173,333.6618,8.5098,333.6095,8.7636,333.2222,9.1293,333.1051,9.5,333" style="stroke:#181818;stroke-width:0.5;"/><polygon fill="#C2C2C2" points="92.3108,357.0272,90.6984,359.2304,88.7912,362.4573,86.0636,364.632,83.1974,365.8212,80.912,365.9244,77.9747,364.4371,75.2032,363.4655,73.0995,361.4927,71.9961,359.2343,71.3417,357.4361,70.7006,355.0873,69.66,353.066,70.4596,351.0926,71.1602,348.9308,73.7893,347.221,75.639,345.0027,77.9284,344.266,80.6501,343.6316,84.1404,344.0085,86.0521,344.9101,88.2747,345.3188,90.9772,348.0875,91.9193,351.0105,92.3286,353.0049,91.865,356.2914" style="stroke:#181818;stroke-width:1.0;"/><path d="M84.0156,350.2266 Q84.1719,350.0078 84.3594,349.8984 Q84.5469,349.7891 84.7656,349.7891 Q85.1406,349.7891 85.375,350.0547 Q85.6094,350.3047 85.6094,350.9141 L85.6094,352.3672 Q85.6094,352.9766 85.375,353.2422 Q85.1406,353.5078 84.7656,353.5078 Q84.4219,353.5078 84.2188,353.3047 Q84.0156,353.1172 83.9063,352.6016 Q83.8594,352.2422 83.6719,352.0547 Q83.3438,351.6797 82.7344,351.4609 Q82.125,351.2422 81.5,351.2422 Q80.7344,351.2422 80.0938,351.5703 Q79.4688,351.8984 78.9688,352.6484 Q78.4844,353.3984 78.4844,354.4297 L78.4844,355.5234 Q78.4844,356.7578 79.375,357.5859 Q80.2656,358.3984 81.8594,358.3984 Q82.7969,358.3984 83.4531,358.1484 Q83.8438,357.9922 84.2656,357.5547 Q84.5313,357.2891 84.6719,357.2109 Q84.8281,357.1328 85.0313,357.1328 Q85.3594,357.1328 85.6094,357.3984 Q85.875,357.6484 85.875,357.9922 Q85.875,358.3359 85.5313,358.7422 Q85.0313,359.3203 84.2344,359.6484 Q83.1563,360.1016 81.8594,360.1016 Q80.3438,360.1016 79.1406,359.4766 Q78.1563,358.9766 77.4688,357.9141 Q76.7813,356.8359 76.7813,355.5547 L76.7813,354.3984 Q76.7813,353.0703 77.3906,351.9297 Q78.0156,350.7734 79.1094,350.1641 Q80.2031,349.5391 81.4375,349.5391 Q82.1719,349.5391 82.8125,349.7109 Q83.4688,349.8672 84.0156,350.2266 Z " fill="#000000"/><text fill="#000000" font-family="FG Virgil" font-size="12" font-style="italic" lengthAdjust="spacing" textLength="53" x="139.75" y="350.457">«service»</text><text fill="#000000" font-family="FG Virgil" font-size="14" lengthAdjust="spacing" textLength="129" x="101.75" y="367.627">AuthorizationService</text><path d="M8,375.7031 L8,375.9834 L18.1429,375.1507 L28.2857,375.9608 L38.4286,376.236 L48.5714,374.7519 L58.7143,375.5995 L68.8571,375.1345 L79,375.1918 L89.1429,375.6122 L99.2857,374.7813 L109.4286,376.4413 L119.5714,374.8628 L129.7143,375.4394 L139.8571,376.2791 L150,375.5888 L160.1429,375.7941 L170.2857,375.6605 L180.4286,375.9412 L190.5714,376.022 L200.7143,376.484 L210.8571,376.5979 L221,376.6088 L231.1429,376.0426 L241.2857,376.3212 L251.4286,376.6394 L261.5714,374.7415 L271.7143,376.6078 L281.8571,375.3078 L292,375.7031 " fill="#F1F1F1" style="stroke:#181818;stroke-width:0.5;"/><path d="M8,383.7031 L8,383.9834 L18.1429,383.1507 L28.2857,383.9608 L38.4286,384.236 L48.5714,382.7519 L58.7143,383.5995 L68.8571,383.1345 L79,383.1918 L89.1429,383.6122 L99.2857,382.7813 L109.4286,384.4413 L119.5714,382.8628 L129.7143,383.4394 L139.8571,384.2791 L150,383.5888 L160.1429,383.7941 L170.2857,383.6605 L180.4286,383.9412 L190.5714,384.022 L200.7143,384.484 L210.8571,384.5979 L221,384.6088 L231.1429,384.0426 L241.2857,384.3212 L251.4286,384.6394 L261.5714,382.7415 L271.7143,384.6078 L281.8571,383.3078 L292,383.7031 " fill="#F1F1F1" style="stroke:#181818;stroke-width:0.5;"/><text fill="#000000" font-family="FG Virgil" font-size="14" lengthAdjust="spacing" textLength="274" x="13" y="402.2363">ensureAuthenticatedUserHasAnyOf(Role...)</text></g><!--MD5=[dee3711f8c64a3e2b37828f172d71c22]
class UserManagementService--><g id="elem_UserManagementService"><polygon fill="#F1F1F1" points="330.5,333,330.5,333.2102,340.2368,332.5857,349.9737,333.1933,359.7105,333.3997,369.4474,332.2866,379.1842,332.9223,388.9211,332.5735,398.6579,332.6165,408.3947,332.9318,418.1316,332.3086,427.8684,333.5536,437.6053,332.3697,447.3421,332.8022,457.0789,333.4319,466.8158,332.9142,476.5526,333.0682,486.2895,332.9681,496.0263,333.1785,505.7632,333.2391,515.5,333,515.5747,333.1804,515.9392,333.3531,516.2938,333.5021,516.5931,333.5178,516.9733,333.7286,517.2678,333.7322,517.484,333.8218,517.1921,333.9938,517.7696,334.5259,517.6158,334.7551,518.0179,335.2145,518,335.5,517.505,335.5,517.9315,345.6875,518.7416,355.875,517.9513,366.0625,518.1053,376.25,518.3386,386.4375,518.4162,396.625,518,406.8125,517.9988,406.812,517.942,407.2027,517.5308,407.4466,517.6482,407.9094,517.583,408.2966,517.2678,408.5803,517.3245,408.7172,516.9924,408.9155,516.499,408.7244,516.1239,408.8188,515.7743,408.9747,515.5,409.3125,515.5,409.2536,505.7632,409.116,496.0263,409.9939,486.2895,409.1378,476.5526,408.9694,466.8158,409.5408,457.0789,408.6457,447.3421,408.7934,437.6053,409.9615,427.8684,409.7482,418.1316,410.047,408.3947,408.9907,398.6579,409.6317,388.9211,409.9029,379.1842,408.8401,369.4474,409.2166,359.7105,409.4385,349.9737,409.9643,340.2368,409.3083,330.5,409.3125,330.559,409.455,330.0758,408.9955,329.7065,408.811,329.5036,409.0283,328.9943,408.5059,328.7322,408.5803,328.889,408.6452,328.6494,408.2531,328.3568,407.839,328.1839,407.4745,328.2877,407.2246,328,406.8125,327.7007,406.8125,328.5919,396.625,327.4473,386.4375,328.6174,376.25,328.4843,366.0625,328.245,355.875,328.0472,345.6875,328,335.5,328.2238,335.5927,328.3354,335.2247,328.345,334.8145,328.5219,334.4736,328.5457,334.0692,328.7322,333.7322,328.8236,333.9529,329.1055,333.6335,329.4614,333.4925,329.7153,333.1055,330.0948,333.0217,330.5,333" style="stroke:#181818;stroke-width:0.5;"/><polygon fill="#C2C2C2" points="354.0608,357.0272,352.4484,359.2304,350.5412,362.4573,347.8136,364.632,344.9474,365.8212,342.662,365.9244,339.7247,364.4371,336.9532,363.4655,334.8495,361.4927,333.7461,359.2343,333.0917,357.4361,332.4506,355.0873,331.41,353.066,332.2096,351.0926,332.9102,348.9308,335.5393,347.221,337.389,345.0027,339.6784,344.266,342.4001,343.6316,345.8904,344.0085,347.8021,344.9101,350.0247,345.3188,352.7272,348.0875,353.6693,351.0105,354.0786,353.0049,353.615,356.2914" style="stroke:#181818;stroke-width:1.0;"/><path d="M345.7656,350.2266 Q345.9219,350.0078 346.1094,349.8984 Q346.2969,349.7891 346.5156,349.7891 Q346.8906,349.7891 347.125,350.0547 Q347.3594,350.3047 347.3594,350.9141 L347.3594,352.3672 Q347.3594,352.9766 347.125,353.2422 Q346.8906,353.5078 346.5156,353.5078 Q346.1719,353.5078 345.9688,353.3047 Q345.7656,353.1172 345.6563,352.6016 Q345.6094,352.2422 345.4219,352.0547 Q345.0938,351.6797 344.4844,351.4609 Q343.875,351.2422 343.25,351.2422 Q342.4844,351.2422 341.8438,351.5703 Q341.2188,351.8984 340.7188,352.6484 Q340.2344,353.3984 340.2344,354.4297 L340.2344,355.5234 Q340.2344,356.7578 341.125,357.5859 Q342.0156,358.3984 343.6094,358.3984 Q344.5469,358.3984 345.2031,358.1484 Q345.5938,357.9922 346.0156,357.5547 Q346.2813,357.2891 346.4219,357.2109 Q346.5781,357.1328 346.7813,357.1328 Q347.1094,357.1328 347.3594,357.3984 Q347.625,357.6484 347.625,357.9922 Q347.625,358.3359 347.2813,358.7422 Q346.7813,359.3203 345.9844,359.6484 Q344.9063,360.1016 343.6094,360.1016 Q342.0938,360.1016 340.8906,359.4766 Q339.9063,358.9766 339.2188,357.9141 Q338.5313,356.8359 338.5313,355.5547 L338.5313,354.3984 Q338.5313,353.0703 339.1406,351.9297 Q339.7656,350.7734 340.8594,350.1641 Q341.9531,349.5391 343.1875,349.5391 Q343.9219,349.5391 344.5625,349.7109 Q345.2188,349.8672 345.7656,350.2266 Z " fill="#000000"/><text fill="#000000" font-family="FG Virgil" font-size="12" font-style="italic" lengthAdjust="spacing" textLength="53" x="409.5" y="350.457">«service»</text><text fill="#000000" font-family="FG Virgil" font-size="14" lengthAdjust="spacing" textLength="158" x="357" y="367.627">UserManagementService</text><path d="M329,375.7031 L329,375.9834 L338.8947,375.1507 L348.7895,375.9608 L358.6842,376.236 L368.5789,374.7519 L378.4737,375.5995 L388.3684,375.1345 L398.2632,375.1918 L408.1579,375.6122 L418.0526,374.7813 L427.9474,376.4413 L437.8421,374.8628 L447.7368,375.4394 L457.6316,376.2791 L467.5263,375.5888 L477.4211,375.7941 L487.3158,375.6605 L497.2105,375.9412 L507.1053,376.022 L517,375.7031 " fill="#F1F1F1" style="stroke:#181818;stroke-width:0.5;"/><path d="M329,383.7031 L329,383.9834 L338.8947,383.1507 L348.7895,383.9608 L358.6842,384.236 L368.5789,382.7519 L378.4737,383.5995 L388.3684,383.1345 L398.2632,383.1918 L408.1579,383.6122 L418.0526,382.7813 L427.9474,384.4413 L437.8421,382.8628 L447.7368,383.4394 L457.6316,384.2791 L467.5263,383.5888 L477.4211,383.7941 L487.3158,383.6605 L497.2105,383.9412 L507.1053,384.022 L517,383.7031 " fill="#F1F1F1" style="stroke:#181818;stroke-width:0.5;"/><text fill="#000000" font-family="FG Virgil" font-size="14" lengthAdjust="spacing" textLength="60" x="334" y="402.2363">allUsers()</text></g><!--MD5=[e8c189551b7885b999ad7cefb30fc2a3]
class PersistenceContext--><g id="elem_PersistenceContext"><polygon fill="#F1F1F1" points="273.5,487,273.5,487.2102,283.4333,486.5857,293.3667,487.1933,303.3,487.3997,313.2333,486.2866,323.1667,486.9223,333.1,486.5735,343.0333,486.6165,352.9667,486.9318,362.9,486.3086,372.8333,487.5536,382.7667,486.3697,392.7,486.8022,402.6333,487.4319,412.5667,486.9142,422.5,487,422.5087,487.021,422.8495,487.1366,423.2299,487.3479,423.5912,487.513,423.9889,487.7662,424.2678,487.7322,424.4744,487.8178,424.6234,488.1724,424.6391,488.4718,424.8499,488.852,425.0698,489.236,425,489.5,424.2788,489.5,425.6785,499.6875,424.7035,509.875,425.5338,520.0625,424.505,530.25,424.9315,540.4375,425.7416,550.625,425,560.8125,424.985,560.8063,424.886,561.1795,424.8114,561.5628,424.6888,561.9263,424.413,562.2262,424.2678,562.5803,424.3044,562.6687,423.8412,562.5504,423.5969,562.9607,423.277,563.1884,422.9103,563.303,422.5,563.3125,422.5,563.9255,412.5667,562.8294,402.6333,562.6603,392.7,562.6911,382.7667,563.2536,372.8333,563.116,362.9,563.9939,352.9667,563.1378,343.0333,562.9694,333.1,563.5408,323.1667,562.6457,313.2333,562.7934,303.3,563.9615,293.3667,563.7482,283.4333,564.047,273.5,563.3125,273.459,563.2134,273.1872,563.2644,272.8682,563.2014,272.3791,562.7277,272.0736,562.6972,271.7322,562.5803,271.771,562.5963,271.7865,562.3099,271.438,561.8726,271.4353,561.5786,270.9759,561.0954,271,560.8125,270.3227,560.8125,271.5036,550.625,270.2831,540.4375,271.509,530.25,271.2066,520.0625,270.7321,509.875,270.6462,499.6875,271,489.5,271.1413,489.5585,271.0543,489.1083,271.4752,488.8684,271.2691,488.3688,271.7759,488.1645,271.7322,487.7322,271.794,487.8814,272.117,487.6612,272.4454,487.4539,272.8856,487.5167,273.2247,487.3354,273.5,487" style="stroke:#181818;stroke-width:0.5;"/><polygon fill="#C2C2C2" points="297.0608,511.0272,295.4484,513.2304,293.5412,516.4573,290.8136,518.632,287.9474,519.8212,285.662,519.9244,282.7247,518.4371,279.9532,517.4655,277.8495,515.4927,276.7461,513.2343,276.0917,511.4361,275.4506,509.0873,274.41,507.066,275.2096,505.0926,275.9102,502.9308,278.5393,501.221,280.389,499.0027,282.6784,498.266,285.4001,497.6316,288.8904,498.0085,290.8021,498.9101,293.0247,499.3188,295.7272,502.0875,296.6693,505.0105,297.0786,507.0049,296.615,510.2914" style="stroke:#181818;stroke-width:1.0;"/><path d="M288.7656,504.2266 Q288.9219,504.0078 289.1094,503.8984 Q289.2969,503.7891 289.5156,503.7891 Q289.8906,503.7891 290.125,504.0547 Q290.3594,504.3047 290.3594,504.9141 L290.3594,506.3672 Q290.3594,506.9766 290.125,507.2422 Q289.8906,507.5078 289.5156,507.5078 Q289.1719,507.5078 288.9688,507.3047 Q288.7656,507.1172 288.6563,506.6016 Q288.6094,506.2422 288.4219,506.0547 Q288.0938,505.6797 287.4844,505.4609 Q286.875,505.2422 286.25,505.2422 Q285.4844,505.2422 284.8438,505.5703 Q284.2188,505.8984 283.7188,506.6484 Q283.2344,507.3984 283.2344,508.4297 L283.2344,509.5234 Q283.2344,510.7578 284.125,511.5859 Q285.0156,512.3984 286.6094,512.3984 Q287.5469,512.3984 288.2031,512.1484 Q288.5938,511.9922 289.0156,511.5547 Q289.2813,511.2891 289.4219,511.2109 Q289.5781,511.1328 289.7813,511.1328 Q290.1094,511.1328 290.3594,511.3984 Q290.625,511.6484 290.625,511.9922 Q290.625,512.3359 290.2813,512.7422 Q289.7813,513.3203 288.9844,513.6484 Q287.9063,514.1016 286.6094,514.1016 Q285.0938,514.1016 283.8906,513.4766 Q282.9063,512.9766 282.2188,511.9141 Q281.5313,510.8359 281.5313,509.5547 L281.5313,508.3984 Q281.5313,507.0703 282.1406,505.9297 Q282.7656,504.7734 283.8594,504.1641 Q284.9531,503.5391 286.1875,503.5391 Q286.9219,503.5391 287.5625,503.7109 Q288.2188,503.8672 288.7656,504.2266 Z " fill="#000000"/><text fill="#000000" font-family="FG Virgil" font-size="12" font-style="italic" lengthAdjust="spacing" textLength="77" x="322.5" y="504.457">«persistence»</text><text fill="#000000" font-family="FG Virgil" font-size="14" lengthAdjust="spacing" textLength="122" x="300" y="521.627">PersistenceContext</text><path d="M272,529.7031 L272,529.9834 L282.1333,529.1507 L292.2667,529.9608 L302.4,530.236 L312.5333,528.7519 L322.6667,529.5995 L332.8,529.1345 L342.9333,529.1918 L353.0667,529.6122 L363.2,528.7813 L373.3333,530.4413 L383.4667,528.8628 L393.6,529.4394 L403.7333,530.2791 L413.8667,529.5888 L424,529.7031 " fill="#F1F1F1" style="stroke:#181818;stroke-width:0.5;"/><path d="M272,537.7031 L272,537.9834 L282.1333,537.1507 L292.2667,537.9608 L302.4,538.236 L312.5333,536.7519 L322.6667,537.5995 L332.8,537.1345 L342.9333,537.1918 L353.0667,537.6122 L363.2,536.7813 L373.3333,538.4413 L383.4667,536.8628 L393.6,537.4394 L403.7333,538.2791 L413.8667,537.5888 L424,537.7031 " fill="#F1F1F1" style="stroke:#181818;stroke-width:0.5;"/><text fill="#000000" font-family="FG Virgil" font-size="14" lengthAdjust="spacing" textLength="84" x="277" y="556.2363">repositories()</text></g><!--MD5=[48590afff58a68e2fcba47824d6f8a11]
class RepositoryFactory--><g id="elem_RepositoryFactory"><polygon fill="#F1F1F1" points="278.5,641,278.5,641.2102,288.7143,640.5857,298.9286,641.1933,309.1429,641.3997,319.3571,640.2866,329.5714,640.9223,339.7857,640.5735,350,640.6165,360.2143,640.9318,370.4286,640.3086,380.6429,641.5536,390.8571,640.3697,401.0714,640.8022,411.2857,641.4319,421.5,641,421.4891,640.9736,421.8623,641.1675,422.203,641.2831,422.5834,641.4943,422.9447,641.6594,423.2678,641.7322,423.4481,641.8069,423.6209,642.1714,423.7698,642.526,423.7855,642.8254,423.9963,643.2056,424,643.5,424.7022,643.5,423.2788,653.6875,424.6785,663.875,423.7035,674.0625,424.5338,684.25,423.505,694.4375,423.9315,704.625,424,714.8125,424.2284,714.9071,423.8385,715.1598,423.7395,715.533,423.6649,715.9164,423.5424,716.2798,423.2678,716.5803,423.2673,716.5791,422.9509,716.8152,422.4876,716.6969,422.2434,717.1072,421.9235,717.3349,421.5,717.3125,421.5,717.757,411.2857,717.9255,401.0714,716.8294,390.8571,716.6603,380.6429,716.6911,370.4286,717.2536,360.2143,717.116,350,717.9939,339.7857,717.1378,329.5714,716.9694,319.3571,717.5408,309.1429,716.6457,298.9286,716.7934,288.7143,717.9615,278.5,717.3125,278.5556,717.4467,278.2401,717.3922,277.7518,716.9205,277.4801,716.9715,277.1611,716.9085,276.7322,716.5803,276.5868,716.52,276.5563,716.2145,276.4781,715.8892,276.4936,715.6027,276.1452,715.1655,276,714.8125,276.4626,714.8125,275.4462,704.625,275.3227,694.4375,276.5036,684.25,275.2831,674.0625,276.509,663.875,276.2066,653.6875,276,643.5,275.9175,643.4658,276.0375,643.1013,276.4342,642.8514,276.3472,642.4012,276.7681,642.1613,276.7322,641.7322,276.6617,641.562,277.1645,641.7759,277.5011,641.5885,277.8241,641.3683,278.1525,641.161,278.5,641" style="stroke:#181818;stroke-width:0.5;"/><polygon fill="#C2C2C2" points="302.0608,665.0272,300.4484,667.2304,298.5412,670.4573,295.8136,672.632,292.9474,673.8212,290.662,673.9244,287.7247,672.4371,284.9532,671.4655,282.8495,669.4927,281.7461,667.2343,281.0917,665.4361,280.4506,663.0873,279.41,661.066,280.2096,659.0926,280.9102,656.9308,283.5393,655.221,285.389,653.0027,287.6784,652.266,290.4001,651.6316,293.8904,652.0085,295.8021,652.9101,298.0247,653.3188,300.7272,656.0875,301.6693,659.0105,302.0786,661.0049,301.615,664.2914" style="stroke:#181818;stroke-width:1.0;"/><path d="M293.7656,658.2266 Q293.9219,658.0078 294.1094,657.8984 Q294.2969,657.7891 294.5156,657.7891 Q294.8906,657.7891 295.125,658.0547 Q295.3594,658.3047 295.3594,658.9141 L295.3594,660.3672 Q295.3594,660.9766 295.125,661.2422 Q294.8906,661.5078 294.5156,661.5078 Q294.1719,661.5078 293.9688,661.3047 Q293.7656,661.1172 293.6563,660.6016 Q293.6094,660.2422 293.4219,660.0547 Q293.0938,659.6797 292.4844,659.4609 Q291.875,659.2422 291.25,659.2422 Q290.4844,659.2422 289.8438,659.5703 Q289.2188,659.8984 288.7188,660.6484 Q288.2344,661.3984 288.2344,662.4297 L288.2344,663.5234 Q288.2344,664.7578 289.125,665.5859 Q290.0156,666.3984 291.6094,666.3984 Q292.5469,666.3984 293.2031,666.1484 Q293.5938,665.9922 294.0156,665.5547 Q294.2813,665.2891 294.4219,665.2109 Q294.5781,665.1328 294.7813,665.1328 Q295.1094,665.1328 295.3594,665.3984 Q295.625,665.6484 295.625,665.9922 Q295.625,666.3359 295.2813,666.7422 Q294.7813,667.3203 293.9844,667.6484 Q292.9063,668.1016 291.6094,668.1016 Q290.0938,668.1016 288.8906,667.4766 Q287.9063,666.9766 287.2188,665.9141 Q286.5313,664.8359 286.5313,663.5547 L286.5313,662.3984 Q286.5313,661.0703 287.1406,659.9297 Q287.7656,658.7734 288.8594,658.1641 Q289.9531,657.5391 291.1875,657.5391 Q291.9219,657.5391 292.5625,657.7109 Q293.2188,657.8672 293.7656,658.2266 Z " fill="#000000"/><text fill="#000000" font-family="FG Virgil" font-size="12" font-style="italic" lengthAdjust="spacing" textLength="50" x="338" y="658.457">«factory»</text><text fill="#000000" font-family="FG Virgil" font-size="14" lengthAdjust="spacing" textLength="116" x="305" y="675.627">RepositoryFactory</text><path d="M277,683.7031 L277,683.9834 L286.7333,683.1507 L296.4667,683.9608 L306.2,684.236 L315.9333,682.7519 L325.6667,683.5995 L335.4,683.1345 L345.1333,683.1918 L354.8667,683.6122 L364.6,682.7813 L374.3333,684.4413 L384.0667,682.8628 L393.8,683.4394 L403.5333,684.2791 L413.2667,683.5888 L423,683.7031 " fill="#F1F1F1" style="stroke:#181818;stroke-width:0.5;"/><path d="M277,691.7031 L277,691.9834 L286.7333,691.1507 L296.4667,691.9608 L306.2,692.236 L315.9333,690.7519 L325.6667,691.5995 L335.4,691.1345 L345.1333,691.1918 L354.8667,691.6122 L364.6,690.7813 L374.3333,692.4413 L384.0667,690.8628 L393.8,691.4394 L403.5333,692.2791 L413.2667,691.5888 L423,691.7031 " fill="#F1F1F1" style="stroke:#181818;stroke-width:0.5;"/><text fill="#000000" font-family="FG Virgil" font-size="14" lengthAdjust="spacing" textLength="45" x="282" y="710.2363">users()</text></g><!--MD5=[093c210125347143eef5bb9199eae634]
class UserRepository--><g id="elem_UserRepository"><polygon fill="#F1F1F1" points="353,795,353,795.2102,363.3333,794.5857,373.6667,795.1933,384,795.3997,394.3333,794.2866,404.6667,794.9223,415,794.5735,425.3333,794.6165,435.6667,794.9318,446,794.3086,456.3333,795.5536,466.6667,794.3697,477,795,476.9748,794.9391,477.4087,795.2795,477.6962,795.2665,478.0694,795.4604,478.4101,795.5759,478.7678,795.7322,478.8227,795.755,478.9879,796.1163,479.241,796.5141,479.4138,796.8785,479.5627,797.2331,479.5,797.5,479.7546,797.5,479.9636,807.6875,480.2022,817.875,478.7788,828.0625,480.1785,838.25,479.2035,848.4375,480.0338,858.625,479.5,868.8125,479.3476,868.7494,479.3325,869.1573,479.4355,869.6142,479.0457,869.8669,478.9466,870.2401,478.7678,870.5803,478.811,870.6846,478.4673,870.8549,478.0602,870.872,477.7437,871.1081,477.2805,870.9898,477,871.3125,477,871.5969,466.6667,871.8607,456.3333,871.757,446,871.9255,435.6667,870.8294,425.3333,870.6603,415,870.6911,404.6667,871.2536,394.3333,871.116,384,871.9939,373.6667,871.1378,363.3333,870.9694,353,871.3125,353.0291,871.3828,352.5614,870.9607,352.2267,870.8597,352.0221,871.073,351.6414,870.8609,351.2322,870.5803,351.4584,870.674,350.9867,870.1857,351.0376,869.9139,350.9747,869.5949,350.501,869.1058,350.5,868.8125,350.4041,868.8125,350.626,858.625,351.1518,848.4375,350.4958,838.25,350.9626,828.0625,349.9462,817.875,349.8227,807.6875,350.5,797.5,350.6551,797.5642,350.4257,797.055,350.9496,796.8578,351.003,796.4657,351.0033,796.0516,351.2322,795.7322,351.1871,795.6233,351.6443,795.7271,351.9012,795.3472,352.3684,795.4752,352.5759,794.9762,353,795" style="stroke:#181818;stroke-width:0.5;"/><polygon fill="#C2C2C2" points="376.5608,819.0272,374.9484,821.2304,373.0412,824.4573,370.3136,826.632,367.4474,827.8212,365.162,827.9244,362.2247,826.4371,359.4532,825.4655,357.3495,823.4927,356.2461,821.2343,355.5917,819.4361,354.9506,817.0873,353.91,815.066,354.7096,813.0926,355.4102,810.9308,358.0393,809.221,359.889,807.0027,362.1784,806.266,364.9001,805.6316,368.3904,806.0085,370.3021,806.9101,372.5247,807.3188,375.2272,810.0875,376.1693,813.0105,376.5786,815.0049,376.115,818.2914" style="stroke:#181818;stroke-width:1.0;"/><path d="M368.2656,812.2266 Q368.4219,812.0078 368.6094,811.8984 Q368.7969,811.7891 369.0156,811.7891 Q369.3906,811.7891 369.625,812.0547 Q369.8594,812.3047 369.8594,812.9141 L369.8594,814.3672 Q369.8594,814.9766 369.625,815.2422 Q369.3906,815.5078 369.0156,815.5078 Q368.6719,815.5078 368.4688,815.3047 Q368.2656,815.1172 368.1563,814.6016 Q368.1094,814.2422 367.9219,814.0547 Q367.5938,813.6797 366.9844,813.4609 Q366.375,813.2422 365.75,813.2422 Q364.9844,813.2422 364.3438,813.5703 Q363.7188,813.8984 363.2188,814.6484 Q362.7344,815.3984 362.7344,816.4297 L362.7344,817.5234 Q362.7344,818.7578 363.625,819.5859 Q364.5156,820.3984 366.1094,820.3984 Q367.0469,820.3984 367.7031,820.1484 Q368.0938,819.9922 368.5156,819.5547 Q368.7813,819.2891 368.9219,819.2109 Q369.0781,819.1328 369.2813,819.1328 Q369.6094,819.1328 369.8594,819.3984 Q370.125,819.6484 370.125,819.9922 Q370.125,820.3359 369.7813,820.7422 Q369.2813,821.3203 368.4844,821.6484 Q367.4063,822.1016 366.1094,822.1016 Q364.5938,822.1016 363.3906,821.4766 Q362.4063,820.9766 361.7188,819.9141 Q361.0313,818.8359 361.0313,817.5547 L361.0313,816.3984 Q361.0313,815.0703 361.6406,813.9297 Q362.2656,812.7734 363.3594,812.1641 Q364.4531,811.5391 365.6875,811.5391 Q366.4219,811.5391 367.0625,811.7109 Q367.7188,811.8672 368.2656,812.2266 Z " fill="#000000"/><text fill="#000000" font-family="FG Virgil" font-size="12" font-style="italic" lengthAdjust="spacing" textLength="68" x="394" y="812.457">«repository»</text><text fill="#000000" font-family="FG Virgil" font-size="14" lengthAdjust="spacing" textLength="97" x="379.5" y="829.627">UserRepository</text><path d="M351.5,837.7031 L351.5,837.9834 L361.2692,837.1507 L371.0385,837.9608 L380.8077,838.236 L390.5769,836.7519 L400.3462,837.5995 L410.1154,837.1345 L419.8846,837.1918 L429.6538,837.6122 L439.4231,836.7813 L449.1923,838.4413 L458.9615,836.8628 L468.7308,837.4394 L478.5,837.7031 " fill="#F1F1F1" style="stroke:#181818;stroke-width:0.5;"/><path d="M351.5,845.7031 L351.5,845.9834 L361.2692,845.1507 L371.0385,845.9608 L380.8077,846.236 L390.5769,844.7519 L400.3462,845.5995 L410.1154,845.1345 L419.8846,845.1918 L429.6538,845.6122 L439.4231,844.7813 L449.1923,846.4413 L458.9615,844.8628 L468.7308,845.4394 L478.5,845.7031 " fill="#F1F1F1" style="stroke:#181818;stroke-width:0.5;"/><text fill="#000000" font-family="FG Virgil" font-size="14" lengthAdjust="spacing" textLength="48" x="356.5" y="864.2363">findAll()</text></g><!--MD5=[d1fdfbe69774d5eebb32a2cfa1746ce1]
link ListUsersUI to ListUsersController--><g id="link_ListUsersUI_ListUsersController"><path d="M252,101.14 L252.2802,101.14 L251.4476,111.4814 L252.2577,121.8229 L252.5329,132.1643 L251.0488,142.5057 L251.8964,152.8471 L251.4313,163.1886 L252,173.53 " fill="none" style="stroke:#181818;stroke-width:1.0;"/><polygon fill="#181818" points="252,178.79,252.064,178.8185,252.6738,176.9339,253.6589,175.2162,254.5217,173.4441,254.9827,171.4934,256,169.79,255.9817,169.7717,255.0995,170.4895,254.3096,171.2996,253.5839,172.1739,252.637,172.827,252,173.79,252.1305,173.9205,251.0514,172.8414,250.3534,172.1434,249.7018,171.4918,248.7798,170.5698,248,169.79,248.0208,169.7992,248.7903,171.5857,249.6544,173.4142,250.4728,175.2224,251.3784,177.0693,252,178.79" style="stroke:#181818;stroke-width:1.0;"/><text fill="#000000" font-family="FG Virgil" font-size="13" lengthAdjust="spacing" textLength="73" x="253" y="145.4951">theController</text></g><!--MD5=[4aebd9904aa32d79c0c8a6f34f000b95]
link ListUsersController to AuthorizationService--><g id="link_ListUsersController_AuthorizationService"><path d="M227.05,255.18 L227.2827,255.3362 L221.108,263.0433 L216.2973,271.6658 L211.0425,279.9903 L204.3268,287.3344 L199.5473,295.9778 L193.6778,303.8898 L188.2421,312.0929 L183.1079,320.4983 L177.7,328.72 " fill="none" style="stroke:#181818;stroke-width:1.0;"/><polygon fill="#181818" points="174.87,332.94,174.9073,332.9993,176.463,331.7732,178.2375,330.8946,179.9408,329.9028,181.4096,328.5389,183.203,327.6901,183.198,327.6647,182.0655,327.7699,180.9584,328.0032,179.8688,328.3256,178.7186,328.341,177.6534,328.7863,177.8344,328.8221,177.228,327.6357,177.1502,326.5537,177.1369,325.4845,176.7483,324.3411,176.5572,323.2367,176.5796,323.2406,176.2092,325.1756,175.9409,327.1282,175.6234,329.0723,175.3998,331.0328,174.87,332.94" style="stroke:#181818;stroke-width:1.0;"/><text fill="#000000" font-family="FG Virgil" font-size="13" lengthAdjust="spacing" textLength="94" x="206" y="299.4951">theAuthzService</text></g><!--MD5=[87941850f4221cb3925a030c008032ec]
link ListUsersController to UserManagementService--><g id="link_ListUsersController_UserManagementService"><path d="M293.83,255.18 L294.0162,255.3895 L301.0712,261.5298 L309.2176,268.8981 L317.0086,275.8665 L323.6308,281.52 L331.8021,288.9162 L339.1013,295.3313 L346.7476,302.1369 L354.6351,309.2139 L361.6912,315.3556 L370.4022,323.359 L377.52,329.57 " fill="none" style="stroke:#181818;stroke-width:1.0;"/><polygon fill="#181818" points="381.3,332.94,381.3639,332.9688,380.3641,331.0877,379.7387,329.3755,378.9914,327.6082,377.8432,325.6601,377.2499,323.9624,377.2241,323.9609,377.172,325.0839,377.2504,326.2143,377.4193,327.3498,377.2759,328.4676,377.5701,329.6102,377.5805,329.7945,376.4286,329.4645,375.3072,329.6724,374.1895,329.946,373.0502,329.8378,371.9223,329.9303,371.9292,329.952,373.7946,330.5221,375.6915,331.1909,377.5733,331.812,379.4841,332.524,381.3,332.94" style="stroke:#181818;stroke-width:1.0;"/><text fill="#000000" font-family="FG Virgil" font-size="13" lengthAdjust="spacing" textLength="60" x="343" y="299.4951">theService</text></g><!--MD5=[b0877f5a81ed13f00912ab218cf366e4]
link UserManagementService to PersistenceContext--><g id="link_UserManagementService_PersistenceContext"><path d="M399.58,409.02 L399.6609,409.0666 L397.7077,411.9013 L396.2289,415.0094 L394.5957,418.0284 L392.4543,420.7547 L391.0163,423.8863 L390.9857,423.8701 L389.2455,426.8202 L387.6592,429.8519 L386.1797,432.9403 L384.3318,435.8333 L383,439 L383.2216,439.107 L381.728,440.9892 L380.8814,443.1838 L380.1137,445.4165 L378.8868,447.4274 L377.9014,449.555 L377.929,449.5675 L376.9004,451.7261 L375.9976,453.9418 L375.0341,456.1299 L374.1863,458.3706 L372.9613,460.44 L373.2351,460.5581 L372.2973,462.7425 L371.1829,464.8508 L370.327,467.0706 L369.4832,469.2956 L368.2555,471.355 L367.9592,471.2327 L367.6551,473.5991 L366.3755,475.5627 L365.8375,477.8325 L364.5357,479.787 L363.86,482 " fill="none" style="stroke:#181818;stroke-width:1.0;"/><polygon fill="#181818" points="362,486.65,362.0489,486.7002,363.3149,485.1769,364.8675,483.9479,366.3268,482.623,367.4792,480.983,369.0564,479.7793,369.0462,479.7555,367.9605,480.0943,366.9263,480.5531,365.9278,481.0954,364.8061,481.3501,363.857,482.0076,364.0266,482.0803,363.2182,480.885,362.905,479.9019,362.6523,478.9447,362.048,477.8368,361.6286,476.8081,361.6513,476.809,361.6922,478.7761,361.8366,480.7471,361.9311,482.7163,362.1208,484.689,362,486.65" style="stroke:#181818;stroke-width:1.0;"/><text fill="#000000" font-family="FG Virgil" font-size="13" lengthAdjust="spacing" textLength="67" x="384" y="453.4951">persistence</text></g><!--MD5=[754b775031405e096442b27febffa290]
link PersistenceContext to RepositoryFactory--><g id="link_PersistenceContext_RepositoryFactory"><path d="M348.49,563.18 L348.7702,563.1837 L348.0748,573.5556 L349.022,583.9491 L349.4343,594.3356 L348.0875,604.6989 L349.0721,615.0929 L348.7442,625.4696 L349.45,635.86 " fill="none" style="stroke:#181818;stroke-width:1.0;"/><polygon fill="#181818" points="349.51,640.94,349.5744,640.9675,350.1572,639.0745,351.1177,637.3428,351.9551,635.5586,352.3882,633.6016,353.381,631.8838,353.3625,631.8657,352.4906,632.596,351.7124,633.4174,350.9993,634.302,350.0618,634.9686,349.4386,635.9405,349.5672,636.0729,348.4808,635.0014,347.7699,634.3163,347.1049,633.6783,346.1733,632.766,345.3818,631.9981,345.4025,632.0076,346.1978,633.782,347.0871,635.5998,347.9311,637.3966,348.8616,639.2334,349.51,640.94" style="stroke:#181818;stroke-width:1.0;"/><text fill="#000000" font-family="FG Virgil" font-size="13" lengthAdjust="spacing" textLength="39" x="350" y="607.4951">factory</text></g><!--MD5=[0bde64d3861a2e0b7bf5316115f64c06]
link RepositoryFactory to UserRepository--><g id="link_RepositoryFactory_UserRepository"><path d="M365.9,717.18 L366.1577,717.2902 L369.2921,726.0841 L373.937,735.5238 L378.09,744.7533 L380.6254,753.291 L385.3047,762.7455 L388.7771,771.6839 L392.7298,780.8277 L397.1,790.15 " fill="none" style="stroke:#181818;stroke-width:1.0;"/><polygon fill="#181818" points="399.15,794.94,399.2201,794.9409,399.0359,792.9687,399.2625,791.0015,399.3553,789.0328,399.0084,787.0586,399.2702,785.0919,399.2461,785.0823,398.7192,786.0902,398.3135,787.1464,397.9921,788.2362,397.3801,789.2102,397.1752,790.3465,397.2436,790.5179,396.0465,789.7323,395.049,789.4473,394.0758,789.2233,392.9609,788.644,391.9206,788.2515,391.936,788.2682,393.3592,789.5814,394.8528,790.9706,396.3124,792.3231,397.8367,793.7456,399.15,794.94" style="stroke:#181818;stroke-width:1.0;"/><text fill="#000000" font-family="FG Virgil" font-size="13" lengthAdjust="spacing" textLength="25" x="385" y="761.4951">repo</text></g><!--MD5=[18f98f898b33518a07ec32b030c48693]
link UserManagementService to UserRepository--><g id="link_UserManagementService_UserRepository"><path d="M445.01,409.14 L445.0958,409.1769 L446.1033,412.003 L447.6139,415.0454 L448.9607,418.0174 L449.7687,420.7577 L451.3225,423.8188 L451.2895,423.8086 L452.0769,426.7992 L453.0306,429.8411 L454.1001,432.9186 L454.7708,435.8733 L456,439 L456.2461,439 L455.7199,442.6 L455.9121,446.2 L456.192,449.8 L455.9619,453.4 L456,457 L456.0303,457.0006 L455.8214,464.937 L455.7506,472.8762 L455.6132,480.814 L455.6028,488.7545 L455.1782,496.6863 L455.4764,496.6896 L455.4058,503.4162 L455.1428,510.1406 L455.1613,516.8682 L455.1931,523.5958 L454.8067,530.3189 L454.4862,530.3159 L455.0525,536.2376 L454.5634,542.1493 L454.8766,548.0686 L454.3636,553.9801 L454.5278,559.8979 L454.4974,559.8973 L454.7486,565.4096 L454.2885,570.9078 L454.2482,576.4144 L454.243,581.9216 L453.9838,587.4238 L454.1686,587.4303 L453.8854,590.1473 L453.918,592.8755 L453.4395,595.5855 L453.7234,598.3226 L453.5005,601.0418 L453.7438,601.0538 L453.561,603.8225 L453.4991,606.5971 L452.8758,609.3441 L452.6639,612.1113 L452.8167,614.8966 L452.5411,614.8787 L452.6048,617.7632 L452.358,620.6276 L452.5615,623.5211 L451.9961,626.3649 L451.8878,629.2382 L451.7358,629.2259 L451.7451,632.2621 L451.1048,635.2457 L450.9265,638.2667 L451.2002,641.3243 L450.6689,644.3167 L450.8616,644.3354 L450.6831,647.5612 L449.9052,650.7291 L449.878,653.9696 L449.6873,657.1943 L449.1154,660.3821 L448.9068,660.3588 L448.6865,663.8378 L448.3979,667.3093 L448.2436,670.7957 L447.5673,674.2238 L447.1826,677.6844 L447.3866,677.71 L446.467,681.4117 L445.9412,685.1627 L445.9905,688.9859 L444.9809,692.6762 L444.8257,696.4737 L445.0498,696.5046 L444.3515,700.5915 L443.5775,704.668 L442.9745,708.768 L442.7671,712.9225 L442,717 L441.8687,716.9784 L441.6477,720.7607 L440.5338,724.3961 L440.4351,728.1986 L439.7649,731.907 L438.9406,735.59 L439.0474,735.6113 L438.2106,739.3511 L437.7561,743.1673 L436.9562,746.9144 L436.0119,750.6327 L435.1875,754.375 L435.3037,754.4013 L434.3032,758.0157 L433.8423,761.7524 L432.771,765.3507 L431.9508,769.006 L431.0481,772.6425 L430.7857,772.5775 L430.0297,776.0067 L429.5898,779.5142 L428.7027,782.9109 L427.6551,786.2679 L426.83,789.68 " fill="none" style="stroke:#181818;stroke-width:1.0;"/><polygon fill="#181818" points="425.51,794.77,425.5648,794.8136,426.6285,793.1428,428.0136,791.7276,429.2941,790.2292,430.2303,788.4569,431.643,787.0638,431.6299,787.0414,430.5956,787.5145,429.6275,788.1002,428.7055,788.7642,427.6249,789.1584,426.7663,789.9304,426.9254,790.0239,426.0118,788.8486,425.5628,787.9463,425.1704,787.0773,424.4483,786.0145,423.8997,785.0537,423.9221,785.0574,424.2112,786.9952,424.6025,788.9499,424.9445,790.8965,425.3805,792.8587,425.51,794.77" style="stroke:#181818;stroke-width:1.0;"/><text fill="#000000" font-family="FG Virgil" font-size="13" lengthAdjust="spacing" textLength="25" x="454" y="607.4951">repo</text></g><!--MD5=[b59015660e3387ed8003098a00038f4e]
@startuml
'http://plantuml.com/skinparam.html
skinparam handwritten true
skinparam monochrome true
skinparam packageStyle rect
skinparam defaultFontName FG Virgil
skinparam shadowing false

class ListUsersUI <<presentation>>
class ListUsersController <<application>>
class AuthorizationService <<service>>
class UserManagementService <<service>>
class PersistenceContext  <<persistence>>
class RepositoryFactory  <<factory>>
class UserRepository <<repository>>

ListUsersUI - -> ListUsersController : theController
ListUsersController - -> AuthorizationService: theAuthzService
ListUsersController - -> UserManagementService: theService
UserManagementService - -> PersistenceContext: persistence
PersistenceContext - -> RepositoryFactory: factory
RepositoryFactory - -> UserRepository: repo
UserManagementService - -> UserRepository: repo

ListUsersUI : doShow()
ListUsersUI : show()
ListUsersController : listAllUsers()
AuthorizationService : ensureAuthenticatedUserHasAnyOf(Role...)
UserManagementService : allUsers()
PersistenceContext : repositories()
RepositoryFactory : users()
UserRepository : findAll()

@enduml

@startuml
skinparam handwritten true
skinparam monochrome true
skinparam packageStyle rect
skinparam defaultFontName FG Virgil
skinparam shadowing false

class ListUsersUI <<presentation>>
class ListUsersController <<application>>
class AuthorizationService <<service>>
class UserManagementService <<service>>
class PersistenceContext  <<persistence>>
class RepositoryFactory  <<factory>>
class UserRepository <<repository>>

ListUsersUI - -> ListUsersController : theController
ListUsersController - -> AuthorizationService: theAuthzService
ListUsersController - -> UserManagementService: theService
UserManagementService - -> PersistenceContext: persistence
PersistenceContext - -> RepositoryFactory: factory
RepositoryFactory - -> UserRepository: repo
UserManagementService - -> UserRepository: repo

ListUsersUI : doShow()
ListUsersUI : show()
ListUsersController : listAllUsers()
AuthorizationService : ensureAuthenticatedUserHasAnyOf(Role...)
UserManagementService : allUsers()
PersistenceContext : repositories()
RepositoryFactory : users()
UserRepository : findAll()

@enduml

PlantUML version 1.2022.7(Mon Aug 22 18:01:30 BST 2022)
(GPL source distribution)
Java Runtime: Java(TM) SE Runtime Environment
JVM: Java HotSpot(TM) 64-Bit Server VM
Default Encoding: Cp1252
Language: pt
Country: PT
--></g></svg>