<?xml version="1.0" encoding="UTF-8" standalone="no"?><svg xmlns="http://www.w3.org/2000/svg" xmlns:xlink="http://www.w3.org/1999/xlink" contentStyleType="text/css" height="896px" preserveAspectRatio="none" style="width:710px;height:896px;background:#FFFFFF;" version="1.1" viewBox="0 0 710 896" width="710px" zoomAndPan="magnify"><defs/><g><!--MD5=[e068204f24efae014cc250f4748ce942]
class ListUsersUI--><g id="elem_ListUsersUI"><polygon fill="#F1F1F1" points="282.5,7,282.5,7.2102,292.0455,6.5857,301.5909,7.1933,311.1364,7.3997,320.6818,6.2866,330.2273,6.9223,339.7727,6.5735,349.3182,6.6165,358.8636,6.9318,368.4091,6.3086,377.9545,7.5536,387.5,7,387.4196,6.8059,387.8283,7.0855,388.2622,7.4259,388.5497,7.4129,388.9229,7.6068,389.2678,7.7322,389.2579,7.7282,389.4692,8.1086,389.6343,8.4698,389.8875,8.8676,390.0602,9.232,390,9.5,390.6793,9.5,390.2546,19.3802,390.4636,29.2604,390.7022,39.1406,389.2788,49.0208,390.6785,58.901,389.7035,68.7813,390.5338,78.6615,389.505,88.5417,390,98.4219,389.9789,98.4131,390.0819,98.87,389.6921,99.1228,389.5931,99.496,389.5185,99.8793,389.2678,100.1896,389.3209,100.3178,388.9137,100.3349,388.5973,100.571,388.1341,100.4527,387.8898,100.863,387.5,100.9219,387.5,101.4701,377.9545,101.3664,368.4091,101.5349,358.8636,100.4388,349.3182,100.2697,339.7727,100.3005,330.2273,100.863,320.6818,100.7253,311.1364,101.6033,301.5909,100.7472,292.0455,100.5788,282.5,100.9219,282.5291,100.9922,282.0614,100.5701,281.7267,100.4691,281.5221,100.6824,281.1414,100.4703,280.7322,100.1896,280.9584,100.2833,280.4867,99.795,280.5376,99.5233,280.4747,99.2043,280.001,98.7152,280,98.4219,279.9041,98.4219,280.126,88.5417,280.6518,78.6615,279.9958,68.7813,280.4626,58.901,279.4462,49.0208,279.3227,39.1406,280.5036,29.2604,279.2831,19.3802,280,9.5,280.1567,9.5649,280.2101,9.1728,280.2104,8.7587,280.3304,8.3942,280.7271,8.1443,280.7322,7.7322,280.694,7.6401,281.1613,7.7681,281.3688,7.2691,281.8717,7.483,282.2082,7.2956,282.5,7" style="stroke:#181818;stroke-width:0.5;"/><polygon fill="#C2C2C2" points="306.0608,31.0272,304.4484,33.2304,302.5412,36.4573,299.8136,38.632,296.9474,39.8212,294.662,39.9244,291.7247,38.4371,288.9532,37.4655,286.8495,35.4927,285.7461,33.2343,285.0917,31.4361,284.4506,29.0873,283.41,27.066,284.2096,25.0926,284.9102,22.9308,287.5393,21.221,289.389,19.0027,291.6784,18.266,294.4001,17.6316,297.8904,18.0085,299.8021,18.9101,302.0247,19.3188,304.7272,22.0875,305.6693,25.0105,306.0786,27.0049,305.615,30.2914" style="stroke:#181818;stroke-width:1.0;"/><path d="M297.7656,24.2266 Q297.9219,24.0078 298.1094,23.8984 Q298.2969,23.7891 298.5156,23.7891 Q298.8906,23.7891 299.125,24.0547 Q299.3594,24.3047 299.3594,24.9141 L299.3594,26.3672 Q299.3594,26.9766 299.125,27.2422 Q298.8906,27.5078 298.5156,27.5078 Q298.1719,27.5078 297.9688,27.3047 Q297.7656,27.1172 297.6563,26.6016 Q297.6094,26.2422 297.4219,26.0547 Q297.0938,25.6797 296.4844,25.4609 Q295.875,25.2422 295.25,25.2422 Q294.4844,25.2422 293.8438,25.5703 Q293.2188,25.8984 292.7188,26.6484 Q292.2344,27.3984 292.2344,28.4297 L292.2344,29.5234 Q292.2344,30.7578 293.125,31.5859 Q294.0156,32.3984 295.6094,32.3984 Q296.5469,32.3984 297.2031,32.1484 Q297.5938,31.9922 298.0156,31.5547 Q298.2813,31.2891 298.4219,31.2109 Q298.5781,31.1328 298.7813,31.1328 Q299.1094,31.1328 299.3594,31.3984 Q299.625,31.6484 299.625,31.9922 Q299.625,32.3359 299.2813,32.7422 Q298.7813,33.3203 297.9844,33.6484 Q296.9063,34.1016 295.6094,34.1016 Q294.0938,34.1016 292.8906,33.4766 Q291.9063,32.9766 291.2188,31.9141 Q290.5313,30.8359 290.5313,29.5547 L290.5313,28.3984 Q290.5313,27.0703 291.1406,25.9297 Q291.7656,24.7734 292.8594,24.1641 Q293.9531,23.5391 295.1875,23.5391 Q295.9219,23.5391 296.5625,23.7109 Q297.2188,23.8672 297.7656,24.2266 Z " fill="#000000"/><text fill="#000000" font-family="FG Virgil" font-size="12" font-style="italic" lengthAdjust="spacing" textLength="82" x="307" y="24.457">«presentation»</text><text fill="#000000" font-family="FG Virgil" font-size="14" lengthAdjust="spacing" textLength="70" x="313" y="41.627">ListUsersUI</text><path d="M281,49.7031 L281,49.9834 L290.8182,49.1507 L300.6364,49.9608 L310.4545,50.236 L320.2727,48.7519 L330.0909,49.5995 L339.9091,49.1345 L349.7273,49.1918 L359.5455,49.6122 L369.3636,48.7813 L379.1818,50.4413 L389,49.7031 " fill="#F1F1F1" style="stroke:#181818;stroke-width:0.5;"/><path d="M281,57.7031 L281,57.9834 L290.8182,57.1507 L300.6364,57.9608 L310.4545,58.236 L320.2727,56.7519 L330.0909,57.5995 L339.9091,57.1345 L349.7273,57.1918 L359.5455,57.6122 L369.3636,56.7813 L379.1818,58.4413 L389,57.7031 " fill="#F1F1F1" style="stroke:#181818;stroke-width:0.5;"/><text fill="#000000" font-family="FG Virgil" font-size="14" lengthAdjust="spacing" textLength="60" x="286" y="76.2363">doShow()</text><text fill="#000000" font-family="FG Virgil" font-size="14" lengthAdjust="spacing" textLength="42" x="286" y="93.8457">show()</text></g><!--MD5=[f415f89b6a39f78e45412d639a322eb4]
class ListUsersController--><g id="elem_ListUsersController"><polygon fill="#F1F1F1" points="261.5,179,261.5,179.2102,271.3,178.5857,281.1,179.1933,290.9,179.3997,300.7,178.2866,310.5,178.9223,320.3,178.5735,330.1,178.6165,339.9,178.9318,349.7,178.3086,359.5,179.5536,369.3,178.3697,379.1,178.8022,388.9,179.4319,398.7,178.9142,408.5,179,408.5087,179.021,408.8495,179.1366,409.2299,179.3479,409.5912,179.513,409.9889,179.7662,410.2678,179.7322,410.4744,179.8178,410.6234,180.1724,410.6391,180.4718,410.8499,180.852,411.0698,181.236,411,181.5,410.2788,181.5,411.6785,191.6875,410.7035,201.875,411.5338,212.0625,410.505,222.25,410.9315,232.4375,411.7416,242.625,411,252.8125,410.985,252.8063,410.886,253.1795,410.8114,253.5628,410.6888,253.9263,410.413,254.2262,410.2678,254.5803,410.3044,254.6687,409.8412,254.5504,409.5969,254.9607,409.277,255.1884,408.9103,255.303,408.5,255.3125,408.5,255.9255,398.7,254.8294,388.9,254.6603,379.1,254.6911,369.3,255.2536,359.5,255.116,349.7,255.9939,339.9,255.1378,330.1,254.9694,320.3,255.5408,310.5,254.6457,300.7,254.7934,290.9,255.9615,281.1,255.7482,271.3,256.047,261.5,255.3125,261.459,255.2134,261.1872,255.2644,260.8682,255.2014,260.3791,254.7277,260.0736,254.6972,259.7322,254.5803,259.771,254.5963,259.7865,254.3099,259.438,253.8726,259.4353,253.5786,258.9759,253.0954,259,252.8125,258.3227,252.8125,259.5036,242.625,258.2831,232.4375,259.509,222.25,259.2066,212.0625,258.7321,201.875,258.6462,191.6875,259,181.5,259.1413,181.5585,259.0543,181.1083,259.4752,180.8684,259.2691,180.3688,259.7759,180.1645,259.7322,179.7322,259.794,179.8814,260.117,179.6612,260.4454,179.4539,260.8856,179.5167,261.2247,179.3354,261.5,179" style="stroke:#181818;stroke-width:0.5;"/><polygon fill="#C2C2C2" points="285.0608,203.0272,283.4484,205.2304,281.5412,208.4573,278.8136,210.632,275.9474,211.8212,273.662,211.9244,270.7247,210.4371,267.9532,209.4655,265.8495,207.4927,264.7461,205.2343,264.0917,203.4361,263.4506,201.0873,262.41,199.066,263.2096,197.0926,263.9102,194.9308,266.5393,193.221,268.389,191.0027,270.6784,190.266,273.4001,189.6316,276.8904,190.0085,278.8021,190.9101,281.0247,191.3188,283.7272,194.0875,284.6693,197.0105,285.0786,199.0049,284.615,202.2914" style="stroke:#181818;stroke-width:1.0;"/><path d="M276.7656,196.2266 Q276.9219,196.0078 277.1094,195.8984 Q277.2969,195.7891 277.5156,195.7891 Q277.8906,195.7891 278.125,196.0547 Q278.3594,196.3047 278.3594,196.9141 L278.3594,198.3672 Q278.3594,198.9766 278.125,199.2422 Q277.8906,199.5078 277.5156,199.5078 Q277.1719,199.5078 276.9688,199.3047 Q276.7656,199.1172 276.6563,198.6016 Q276.6094,198.2422 276.4219,198.0547 Q276.0938,197.6797 275.4844,197.4609 Q274.875,197.2422 274.25,197.2422 Q273.4844,197.2422 272.8438,197.5703 Q272.2188,197.8984 271.7188,198.6484 Q271.2344,199.3984 271.2344,200.4297 L271.2344,201.5234 Q271.2344,202.7578 272.125,203.5859 Q273.0156,204.3984 274.6094,204.3984 Q275.5469,204.3984 276.2031,204.1484 Q276.5938,203.9922 277.0156,203.5547 Q277.2813,203.2891 277.4219,203.2109 Q277.5781,203.1328 277.7813,203.1328 Q278.1094,203.1328 278.3594,203.3984 Q278.625,203.6484 278.625,203.9922 Q278.625,204.3359 278.2813,204.7422 Q277.7813,205.3203 276.9844,205.6484 Q275.9063,206.1016 274.6094,206.1016 Q273.0938,206.1016 271.8906,205.4766 Q270.9063,204.9766 270.2188,203.9141 Q269.5313,202.8359 269.5313,201.5547 L269.5313,200.3984 Q269.5313,199.0703 270.1406,197.9297 Q270.7656,196.7734 271.8594,196.1641 Q272.9531,195.5391 274.1875,195.5391 Q274.9219,195.5391 275.5625,195.7109 Q276.2188,195.8672 276.7656,196.2266 Z " fill="#000000"/><text fill="#000000" font-family="FG Virgil" font-size="12" font-style="italic" lengthAdjust="spacing" textLength="74" x="311" y="196.457">«application»</text><text fill="#000000" font-family="FG Virgil" font-size="14" lengthAdjust="spacing" textLength="120" x="288" y="213.627">ListUsersController</text><path d="M260,221.7031 L260,221.9834 L270,221.1507 L280,221.9608 L290,222.236 L300,220.7519 L310,221.5995 L320,221.1345 L330,221.1918 L340,221.6122 L350,220.7813 L360,222.4413 L370,220.8628 L380,221.4394 L390,222.2791 L400,221.5888 L410,221.7031 " fill="#F1F1F1" style="stroke:#181818;stroke-width:0.5;"/><path d="M260,229.7031 L260,229.9834 L270,229.1507 L280,229.9608 L290,230.236 L300,228.7519 L310,229.5995 L320,229.1345 L330,229.1918 L340,229.6122 L350,228.7813 L360,230.4413 L370,228.8628 L380,229.4394 L390,230.2791 L400,229.5888 L410,229.7031 " fill="#F1F1F1" style="stroke:#181818;stroke-width:0.5;"/><text fill="#000000" font-family="FG Virgil" font-size="14" lengthAdjust="spacing" textLength="78" x="265" y="248.2363">listAllUsers()</text></g><!--MD5=[0b1f3d1c1978f9b151365e147219e3b1]
class AuthzRegistry--><g id="elem_AuthzRegistry"><polygon fill="#F1F1F1" points="9.5,333,9.5,333.2102,19.1667,332.5857,28.8333,333.1933,38.5,333.3997,48.1667,332.2866,57.8333,332.9223,67.5,332.5735,77.1667,332.6165,86.8333,332.9318,96.5,332.3086,106.1667,333.5536,115.8333,332.3697,125.5,332.8022,135.1667,333.4319,144.8333,332.9142,154.5,333,154.5087,333.021,154.8495,333.1366,155.2299,333.3479,155.5912,333.513,155.9889,333.7662,156.2678,333.7322,156.4744,333.8178,156.6234,334.1724,156.6391,334.4718,156.8499,334.852,157.0698,335.236,157,335.5,156.2788,335.5,157.6785,345.3802,156.7035,355.2604,157.5338,365.1406,156.505,375.0208,156.9315,384.901,157.7416,394.7813,156.9513,404.6615,157.1053,414.5417,157,424.4219,157.1043,424.4651,156.9817,424.8285,156.7059,425.1285,156.6491,425.5192,156.2379,425.7631,156.2678,426.1896,156.304,426.2772,155.9841,426.5049,155.6174,426.6194,155.2853,426.8178,154.7919,426.6267,154.5,426.9219,154.5,426.2697,144.8333,426.3005,135.1667,426.863,125.5,426.7253,115.8333,427.6033,106.1667,426.7472,96.5,426.5788,86.8333,427.1501,77.1667,426.255,67.5,426.4027,57.8333,427.5708,48.1667,427.3575,38.5,427.6564,28.8333,426.6001,19.1667,427.2411,9.5,426.9219,9.5753,427.1037,9.0862,426.6299,8.7807,426.5995,8.4554,426.5213,8.1689,426.5368,7.7322,426.1896,7.7309,426.1891,7.7282,425.8951,7.2688,425.4119,7.0843,425.0426,7.3015,424.8397,7,424.4219,6.2831,424.4219,7.509,414.5417,7.2066,404.6615,6.7321,394.7813,6.6462,384.901,7.4588,375.0208,6.7007,365.1406,7.5919,355.2604,6.4473,345.3802,7,335.5,7.1901,335.5788,7.2956,335.2082,7.3683,334.8241,7.4539,334.4454,7.8096,334.1785,7.7322,333.7322,7.8105,333.9212,8.1074,333.6379,8.4736,333.5219,8.7763,333.2528,9.2378,333.3671,9.5,333" style="stroke:#181818;stroke-width:0.5;"/><polygon fill="#C2C2C2" points="47.0108,357.0272,45.3984,359.2304,43.4912,362.4573,40.7636,364.632,37.8974,365.8212,35.612,365.9244,32.6747,364.4371,29.9032,363.4655,27.7995,361.4927,26.6961,359.2343,26.0417,357.4361,25.4006,355.0873,24.36,353.066,25.1596,351.0926,25.8602,348.9308,28.4893,347.221,30.339,345.0027,32.6284,344.266,35.3501,343.6316,38.8404,344.0085,40.7521,344.9101,42.9747,345.3188,45.6772,348.0875,46.6193,351.0105,47.0286,353.0049,46.565,356.2914" style="stroke:#181818;stroke-width:1.0;"/><path d="M38.7156,350.2266 Q38.8719,350.0078 39.0594,349.8984 Q39.2469,349.7891 39.4656,349.7891 Q39.8406,349.7891 40.075,350.0547 Q40.3094,350.3047 40.3094,350.9141 L40.3094,352.3672 Q40.3094,352.9766 40.075,353.2422 Q39.8406,353.5078 39.4656,353.5078 Q39.1219,353.5078 38.9188,353.3047 Q38.7156,353.1172 38.6063,352.6016 Q38.5594,352.2422 38.3719,352.0547 Q38.0438,351.6797 37.4344,351.4609 Q36.825,351.2422 36.2,351.2422 Q35.4344,351.2422 34.7938,351.5703 Q34.1688,351.8984 33.6688,352.6484 Q33.1844,353.3984 33.1844,354.4297 L33.1844,355.5234 Q33.1844,356.7578 34.075,357.5859 Q34.9656,358.3984 36.5594,358.3984 Q37.4969,358.3984 38.1531,358.1484 Q38.5438,357.9922 38.9656,357.5547 Q39.2313,357.2891 39.3719,357.2109 Q39.5281,357.1328 39.7313,357.1328 Q40.0594,357.1328 40.3094,357.3984 Q40.575,357.6484 40.575,357.9922 Q40.575,358.3359 40.2313,358.7422 Q39.7313,359.3203 38.9344,359.6484 Q37.8563,360.1016 36.5594,360.1016 Q35.0438,360.1016 33.8406,359.4766 Q32.8563,358.9766 32.1688,357.9141 Q31.4813,356.8359 31.4813,355.5547 L31.4813,354.3984 Q31.4813,353.0703 32.0906,351.9297 Q32.7156,350.7734 33.8094,350.1641 Q34.9031,349.5391 36.1375,349.5391 Q36.8719,349.5391 37.5125,349.7109 Q38.1688,349.8672 38.7156,350.2266 Z " fill="#000000"/><text fill="#000000" font-family="FG Virgil" font-size="12" font-style="italic" lengthAdjust="spacing" textLength="30" x="81.55" y="350.457">«util»</text><text fill="#000000" font-family="FG Virgil" font-size="14" lengthAdjust="spacing" textLength="87" x="53.05" y="367.627">AuthzRegistry</text><path d="M8,375.7031 L8,375.9834 L17.8667,375.1507 L27.7333,375.9608 L37.6,376.236 L47.4667,374.7519 L57.3333,375.5995 L67.2,375.1345 L77.0667,375.1918 L86.9333,375.6122 L96.8,374.7813 L106.6667,376.4413 L116.5333,374.8628 L126.4,375.4394 L136.2667,376.2791 L146.1333,375.5888 L156,375.7031 " fill="#F1F1F1" style="stroke:#181818;stroke-width:0.5;"/><path d="M8,383.7031 L8,383.9834 L17.8667,383.1507 L27.7333,383.9608 L37.6,384.236 L47.4667,382.7519 L57.3333,383.5995 L67.2,383.1345 L77.0667,383.1918 L86.9333,383.6122 L96.8,382.7813 L106.6667,384.4413 L116.5333,382.8628 L126.4,383.4394 L136.2667,384.2791 L146.1333,383.5888 L156,383.7031 " fill="#F1F1F1" style="stroke:#181818;stroke-width:0.5;"/><text fill="#000000" font-family="FG Virgil" font-size="14" lengthAdjust="spacing" textLength="138" x="13" y="402.2363">authorizationService()</text><text fill="#000000" font-family="FG Virgil" font-size="14" lengthAdjust="spacing" textLength="85" x="13" y="419.8457">userService()</text></g><!--MD5=[54a33dd013dd881697601ca49de6dfbc]
class AuthorizationService--><g id="elem_AuthorizationService"><polygon fill="#F1F1F1" points="194.5,342,194.5,342.2102,204.5357,341.5857,214.5714,342.1933,224.6071,342.3997,234.6429,341.2866,244.6786,341.9223,254.7143,341.5735,264.75,341.6165,274.7857,341.9318,284.8214,341.3086,294.8571,342.5536,304.8929,341.3697,314.9286,341.8022,324.9643,342.4319,335,341.9142,345.0357,342.0682,355.0714,341.9681,365.1071,342.1785,375.1429,342.2391,385.1786,342.5857,395.2143,342.6711,405.25,342.6793,415.2857,342.2546,425.3214,342.4636,435.3571,342.7022,445.3929,341.2788,455.4286,342.6785,465.4643,341.7035,475.5,342,475.5681,342.1644,475.7904,341.994,476.1984,342.2718,476.6553,342.6677,476.908,342.5708,477.2678,342.7322,477.3002,342.7457,477.5185,343.129,477.6888,343.4924,477.7059,343.7924,477.942,344.1831,478,344.5,477.4276,344.5,478.2844,354.6875,478.5482,364.875,478.4445,375.0625,478.613,385.25,477.5169,395.4375,477.3478,405.625,478,415.8125,477.8086,415.7332,477.8354,416.1585,477.6466,416.4945,477.7705,416.9601,477.3604,417.2044,477.2678,417.5803,477.224,417.4746,476.9433,417.797,476.4756,417.6678,476.1409,417.8597,475.9363,418.3659,475.5,418.3125,475.5,418.7482,465.4643,419.047,455.4286,417.9907,445.3929,418.6317,435.3571,418.9029,425.3214,417.8401,415.2857,418.2166,405.25,418.4385,395.2143,418.9643,385.1786,418.3083,375.1429,418.7751,365.1071,417.7587,355.0714,417.6352,345.0357,418.8161,335,417.5956,324.9643,418.8215,314.9286,418.5191,304.8929,418.0446,294.8571,417.9587,284.8214,418.7713,274.7857,418.0132,264.75,418.9044,254.7143,417.7598,244.6786,418.9299,234.6429,418.7968,224.6071,418.5575,214.5714,418.3597,204.5357,419.0391,194.5,418.3125,194.5783,418.5015,194.168,418.2182,193.8271,418.1022,193.4227,417.833,193.1772,417.9474,192.7322,417.5803,192.7799,417.6,192.6389,417.2487,192.252,416.7956,192.1681,416.4679,192.3099,416.2338,192,415.8125,192.4298,415.8125,191.9571,405.625,191.6778,395.4375,191.7811,385.25,191.3138,375.0625,192.4147,364.875,192.7396,354.6875,192,344.5,192.1621,344.5671,192.3605,344.2351,192.2508,343.7755,192.4662,343.4505,192.4664,343.0363,192.7322,342.7322,192.7685,342.8197,193.1173,342.6618,193.5098,342.6095,193.7636,342.2222,194.1293,342.1051,194.5,342" style="stroke:#181818;stroke-width:0.5;"/><polygon fill="#C2C2C2" points="277.3108,366.0272,275.6984,368.2304,273.7912,371.4573,271.0636,373.632,268.1974,374.8212,265.912,374.9244,262.9747,373.4371,260.2032,372.4655,258.0995,370.4927,256.9961,368.2343,256.3417,366.4361,255.7006,364.0873,254.66,362.066,255.4596,360.0926,256.1602,357.9308,258.7893,356.221,260.639,354.0027,262.9284,353.266,265.6501,352.6316,269.1404,353.0085,271.0521,353.9101,273.2747,354.3188,275.9772,357.0875,276.9193,360.0105,277.3286,362.0049,276.865,365.2914" style="stroke:#181818;stroke-width:1.0;"/><path d="M269.0156,359.2266 Q269.1719,359.0078 269.3594,358.8984 Q269.5469,358.7891 269.7656,358.7891 Q270.1406,358.7891 270.375,359.0547 Q270.6094,359.3047 270.6094,359.9141 L270.6094,361.3672 Q270.6094,361.9766 270.375,362.2422 Q270.1406,362.5078 269.7656,362.5078 Q269.4219,362.5078 269.2188,362.3047 Q269.0156,362.1172 268.9063,361.6016 Q268.8594,361.2422 268.6719,361.0547 Q268.3438,360.6797 267.7344,360.4609 Q267.125,360.2422 266.5,360.2422 Q265.7344,360.2422 265.0938,360.5703 Q264.4688,360.8984 263.9688,361.6484 Q263.4844,362.3984 263.4844,363.4297 L263.4844,364.5234 Q263.4844,365.7578 264.375,366.5859 Q265.2656,367.3984 266.8594,367.3984 Q267.7969,367.3984 268.4531,367.1484 Q268.8438,366.9922 269.2656,366.5547 Q269.5313,366.2891 269.6719,366.2109 Q269.8281,366.1328 270.0313,366.1328 Q270.3594,366.1328 270.6094,366.3984 Q270.875,366.6484 270.875,366.9922 Q270.875,367.3359 270.5313,367.7422 Q270.0313,368.3203 269.2344,368.6484 Q268.1563,369.1016 266.8594,369.1016 Q265.3438,369.1016 264.1406,368.4766 Q263.1563,367.9766 262.4688,366.9141 Q261.7813,365.8359 261.7813,364.5547 L261.7813,363.3984 Q261.7813,362.0703 262.3906,360.9297 Q263.0156,359.7734 264.1094,359.1641 Q265.2031,358.5391 266.4375,358.5391 Q267.1719,358.5391 267.8125,358.7109 Q268.4688,358.8672 269.0156,359.2266 Z " fill="#000000"/><text fill="#000000" font-family="FG Virgil" font-size="12" font-style="italic" lengthAdjust="spacing" textLength="53" x="324.75" y="359.457">«service»</text><text fill="#000000" font-family="FG Virgil" font-size="14" lengthAdjust="spacing" textLength="129" x="286.75" y="376.627">AuthorizationService</text><path d="M193,384.7031 L193,384.9834 L203.1429,384.1507 L213.2857,384.9608 L223.4286,385.236 L233.5714,383.7519 L243.7143,384.5995 L253.8571,384.1345 L264,384.1918 L274.1429,384.6122 L284.2857,383.7813 L294.4286,385.4413 L304.5714,383.8628 L314.7143,384.4394 L324.8571,385.2791 L335,384.5888 L345.1429,384.7941 L355.2857,384.6605 L365.4286,384.9412 L375.5714,385.022 L385.7143,385.484 L395.8571,385.5979 L406,385.6088 L416.1429,385.0426 L426.2857,385.3212 L436.4286,385.6394 L446.5714,383.7415 L456.7143,385.6078 L466.8571,384.3078 L477,384.7031 " fill="#F1F1F1" style="stroke:#181818;stroke-width:0.5;"/><path d="M193,392.7031 L193,392.9834 L203.1429,392.1507 L213.2857,392.9608 L223.4286,393.236 L233.5714,391.7519 L243.7143,392.5995 L253.8571,392.1345 L264,392.1918 L274.1429,392.6122 L284.2857,391.7813 L294.4286,393.4413 L304.5714,391.8628 L314.7143,392.4394 L324.8571,393.2791 L335,392.5888 L345.1429,392.7941 L355.2857,392.6605 L365.4286,392.9412 L375.5714,393.022 L385.7143,393.484 L395.8571,393.5979 L406,393.6088 L416.1429,393.0426 L426.2857,393.3212 L436.4286,393.6394 L446.5714,391.7415 L456.7143,393.6078 L466.8571,392.3078 L477,392.7031 " fill="#F1F1F1" style="stroke:#181818;stroke-width:0.5;"/><text fill="#000000" font-family="FG Virgil" font-size="14" lengthAdjust="spacing" textLength="274" x="198" y="411.2363">ensureAuthenticatedUserHasAnyOf(Role...)</text></g><!--MD5=[dee3711f8c64a3e2b37828f172d71c22]
class UserManagementService--><g id="elem_UserManagementService"><polygon fill="#F1F1F1" points="515.5,342,515.5,342.2102,525.2368,341.5857,534.9737,342.1933,544.7105,342.3997,554.4474,341.2866,564.1842,341.9223,573.9211,341.5735,583.6579,341.6165,593.3947,341.9318,603.1316,341.3086,612.8684,342.5536,622.6053,341.3697,632.3421,341.8022,642.0789,342.4319,651.8158,341.9142,661.5526,342.0682,671.2895,341.9681,681.0263,342.1785,690.7632,342.2391,700.5,342,700.5747,342.1804,700.9392,342.3531,701.2938,342.5021,701.5931,342.5178,701.9733,342.7286,702.2678,342.7322,702.484,342.8218,702.1921,342.9938,702.7696,343.5259,702.6158,343.7551,703.0179,344.2145,703,344.5,702.505,344.5,702.9315,354.6875,703.7416,364.875,702.9513,375.0625,703.1053,385.25,703.3386,395.4375,703.4162,405.625,703,415.8125,702.9988,415.812,702.942,416.2027,702.5308,416.4466,702.6482,416.9094,702.583,417.2966,702.2678,417.5803,702.3245,417.7172,701.9924,417.9155,701.499,417.7244,701.1239,417.8188,700.7743,417.9747,700.5,418.3125,700.5,418.2536,690.7632,418.116,681.0263,418.9939,671.2895,418.1378,661.5526,417.9694,651.8158,418.5408,642.0789,417.6457,632.3421,417.7934,622.6053,418.9615,612.8684,418.7482,603.1316,419.047,593.3947,417.9907,583.6579,418.6317,573.9211,418.9029,564.1842,417.8401,554.4474,418.2166,544.7105,418.4385,534.9737,418.9643,525.2368,418.3083,515.5,418.3125,515.559,418.455,515.0758,417.9955,514.7065,417.811,514.5036,418.0283,513.9943,417.5059,513.7322,417.5803,513.889,417.6452,513.6494,417.2531,513.3568,416.839,513.1839,416.4745,513.2877,416.2246,513,415.8125,512.7007,415.8125,513.5919,405.625,512.4473,395.4375,513.6174,385.25,513.4843,375.0625,513.245,364.875,513.0472,354.6875,513,344.5,513.2238,344.5927,513.3354,344.2247,513.345,343.8145,513.5219,343.4736,513.5457,343.0692,513.7322,342.7322,513.8236,342.9529,514.1055,342.6335,514.4614,342.4925,514.7153,342.1055,515.0948,342.0217,515.5,342" style="stroke:#181818;stroke-width:0.5;"/><polygon fill="#C2C2C2" points="539.0608,366.0272,537.4484,368.2304,535.5412,371.4573,532.8136,373.632,529.9474,374.8212,527.662,374.9244,524.7247,373.4371,521.9532,372.4655,519.8495,370.4927,518.7461,368.2343,518.0917,366.4361,517.4506,364.0873,516.41,362.066,517.2096,360.0926,517.9102,357.9308,520.5393,356.221,522.389,354.0027,524.6784,353.266,527.4001,352.6316,530.8904,353.0085,532.8021,353.9101,535.0247,354.3188,537.7272,357.0875,538.6693,360.0105,539.0786,362.0049,538.615,365.2914" style="stroke:#181818;stroke-width:1.0;"/><path d="M530.7656,359.2266 Q530.9219,359.0078 531.1094,358.8984 Q531.2969,358.7891 531.5156,358.7891 Q531.8906,358.7891 532.125,359.0547 Q532.3594,359.3047 532.3594,359.9141 L532.3594,361.3672 Q532.3594,361.9766 532.125,362.2422 Q531.8906,362.5078 531.5156,362.5078 Q531.1719,362.5078 530.9688,362.3047 Q530.7656,362.1172 530.6563,361.6016 Q530.6094,361.2422 530.4219,361.0547 Q530.0938,360.6797 529.4844,360.4609 Q528.875,360.2422 528.25,360.2422 Q527.4844,360.2422 526.8438,360.5703 Q526.2188,360.8984 525.7188,361.6484 Q525.2344,362.3984 525.2344,363.4297 L525.2344,364.5234 Q525.2344,365.7578 526.125,366.5859 Q527.0156,367.3984 528.6094,367.3984 Q529.5469,367.3984 530.2031,367.1484 Q530.5938,366.9922 531.0156,366.5547 Q531.2813,366.2891 531.4219,366.2109 Q531.5781,366.1328 531.7813,366.1328 Q532.1094,366.1328 532.3594,366.3984 Q532.625,366.6484 532.625,366.9922 Q532.625,367.3359 532.2813,367.7422 Q531.7813,368.3203 530.9844,368.6484 Q529.9063,369.1016 528.6094,369.1016 Q527.0938,369.1016 525.8906,368.4766 Q524.9063,367.9766 524.2188,366.9141 Q523.5313,365.8359 523.5313,364.5547 L523.5313,363.3984 Q523.5313,362.0703 524.1406,360.9297 Q524.7656,359.7734 525.8594,359.1641 Q526.9531,358.5391 528.1875,358.5391 Q528.9219,358.5391 529.5625,358.7109 Q530.2188,358.8672 530.7656,359.2266 Z " fill="#000000"/><text fill="#000000" font-family="FG Virgil" font-size="12" font-style="italic" lengthAdjust="spacing" textLength="53" x="594.5" y="359.457">«service»</text><text fill="#000000" font-family="FG Virgil" font-size="14" lengthAdjust="spacing" textLength="158" x="542" y="376.627">UserManagementService</text><path d="M514,384.7031 L514,384.9834 L523.8947,384.1507 L533.7895,384.9608 L543.6842,385.236 L553.5789,383.7519 L563.4737,384.5995 L573.3684,384.1345 L583.2632,384.1918 L593.1579,384.6122 L603.0526,383.7813 L612.9474,385.4413 L622.8421,383.8628 L632.7368,384.4394 L642.6316,385.2791 L652.5263,384.5888 L662.4211,384.7941 L672.3158,384.6605 L682.2105,384.9412 L692.1053,385.022 L702,384.7031 " fill="#F1F1F1" style="stroke:#181818;stroke-width:0.5;"/><path d="M514,392.7031 L514,392.9834 L523.8947,392.1507 L533.7895,392.9608 L543.6842,393.236 L553.5789,391.7519 L563.4737,392.5995 L573.3684,392.1345 L583.2632,392.1918 L593.1579,392.6122 L603.0526,391.7813 L612.9474,393.4413 L622.8421,391.8628 L632.7368,392.4394 L642.6316,393.2791 L652.5263,392.5888 L662.4211,392.7941 L672.3158,392.6605 L682.2105,392.9412 L692.1053,393.022 L702,392.7031 " fill="#F1F1F1" style="stroke:#181818;stroke-width:0.5;"/><text fill="#000000" font-family="FG Virgil" font-size="14" lengthAdjust="spacing" textLength="60" x="519" y="411.2363">allUsers()</text></g><!--MD5=[e8c189551b7885b999ad7cefb30fc2a3]
class PersistenceContext--><g id="elem_PersistenceContext"><polygon fill="#F1F1F1" points="458.5,505,458.5,505.2102,468.4333,504.5857,478.3667,505.1933,488.3,505.3997,498.2333,504.2866,508.1667,504.9223,518.1,504.5735,528.0333,504.6165,537.9667,504.9318,547.9,504.3086,557.8333,505.5536,567.7667,504.3697,577.7,504.8022,587.6333,505.4319,597.5667,504.9142,607.5,505,607.5087,505.021,607.8495,505.1366,608.2299,505.3479,608.5912,505.513,608.9889,505.7662,609.2678,505.7322,609.4744,505.8178,609.6234,506.1724,609.6391,506.4718,609.8499,506.852,610.0698,507.236,610,507.5,609.2788,507.5,610.6785,517.6875,609.7035,527.875,610.5338,538.0625,609.505,548.25,609.9315,558.4375,610.7416,568.625,610,578.8125,609.985,578.8063,609.886,579.1795,609.8114,579.5628,609.6888,579.9263,609.413,580.2262,609.2678,580.5803,609.3044,580.6687,608.8412,580.5504,608.5969,580.9607,608.277,581.1884,607.9103,581.303,607.5,581.3125,607.5,581.9255,597.5667,580.8294,587.6333,580.6603,577.7,580.6911,567.7667,581.2536,557.8333,581.116,547.9,581.9939,537.9667,581.1378,528.0333,580.9694,518.1,581.5408,508.1667,580.6457,498.2333,580.7934,488.3,581.9615,478.3667,581.7482,468.4333,582.047,458.5,581.3125,458.459,581.2134,458.1872,581.2644,457.8682,581.2014,457.3791,580.7277,457.0736,580.6972,456.7322,580.5803,456.771,580.5963,456.7865,580.3099,456.438,579.8726,456.4353,579.5786,455.9759,579.0954,456,578.8125,455.3227,578.8125,456.5036,568.625,455.2831,558.4375,456.509,548.25,456.2066,538.0625,455.7321,527.875,455.6462,517.6875,456,507.5,456.1413,507.5585,456.0543,507.1083,456.4752,506.8684,456.2691,506.3688,456.7759,506.1645,456.7322,505.7322,456.794,505.8814,457.117,505.6612,457.4454,505.4539,457.8856,505.5167,458.2247,505.3354,458.5,505" style="stroke:#181818;stroke-width:0.5;"/><polygon fill="#C2C2C2" points="482.0608,529.0272,480.4484,531.2304,478.5412,534.4573,475.8136,536.632,472.9474,537.8212,470.662,537.9244,467.7247,536.4371,464.9532,535.4655,462.8495,533.4927,461.7461,531.2343,461.0917,529.4361,460.4506,527.0873,459.41,525.066,460.2096,523.0926,460.9102,520.9308,463.5393,519.221,465.389,517.0027,467.6784,516.266,470.4001,515.6316,473.8904,516.0085,475.8021,516.9101,478.0247,517.3188,480.7272,520.0875,481.6693,523.0105,482.0786,525.0049,481.615,528.2914" style="stroke:#181818;stroke-width:1.0;"/><path d="M473.7656,522.2266 Q473.9219,522.0078 474.1094,521.8984 Q474.2969,521.7891 474.5156,521.7891 Q474.8906,521.7891 475.125,522.0547 Q475.3594,522.3047 475.3594,522.9141 L475.3594,524.3672 Q475.3594,524.9766 475.125,525.2422 Q474.8906,525.5078 474.5156,525.5078 Q474.1719,525.5078 473.9688,525.3047 Q473.7656,525.1172 473.6563,524.6016 Q473.6094,524.2422 473.4219,524.0547 Q473.0938,523.6797 472.4844,523.4609 Q471.875,523.2422 471.25,523.2422 Q470.4844,523.2422 469.8438,523.5703 Q469.2188,523.8984 468.7188,524.6484 Q468.2344,525.3984 468.2344,526.4297 L468.2344,527.5234 Q468.2344,528.7578 469.125,529.5859 Q470.0156,530.3984 471.6094,530.3984 Q472.5469,530.3984 473.2031,530.1484 Q473.5938,529.9922 474.0156,529.5547 Q474.2813,529.2891 474.4219,529.2109 Q474.5781,529.1328 474.7813,529.1328 Q475.1094,529.1328 475.3594,529.3984 Q475.625,529.6484 475.625,529.9922 Q475.625,530.3359 475.2813,530.7422 Q474.7813,531.3203 473.9844,531.6484 Q472.9063,532.1016 471.6094,532.1016 Q470.0938,532.1016 468.8906,531.4766 Q467.9063,530.9766 467.2188,529.9141 Q466.5313,528.8359 466.5313,527.5547 L466.5313,526.3984 Q466.5313,525.0703 467.1406,523.9297 Q467.7656,522.7734 468.8594,522.1641 Q469.9531,521.5391 471.1875,521.5391 Q471.9219,521.5391 472.5625,521.7109 Q473.2188,521.8672 473.7656,522.2266 Z " fill="#000000"/><text fill="#000000" font-family="FG Virgil" font-size="12" font-style="italic" lengthAdjust="spacing" textLength="77" x="507.5" y="522.457">«persistence»</text><text fill="#000000" font-family="FG Virgil" font-size="14" lengthAdjust="spacing" textLength="122" x="485" y="539.627">PersistenceContext</text><path d="M457,547.7031 L457,547.9834 L467.1333,547.1507 L477.2667,547.9608 L487.4,548.236 L497.5333,546.7519 L507.6667,547.5995 L517.8,547.1345 L527.9333,547.1918 L538.0667,547.6122 L548.2,546.7813 L558.3333,548.4413 L568.4667,546.8628 L578.6,547.4394 L588.7333,548.2791 L598.8667,547.5888 L609,547.7031 " fill="#F1F1F1" style="stroke:#181818;stroke-width:0.5;"/><path d="M457,555.7031 L457,555.9834 L467.1333,555.1507 L477.2667,555.9608 L487.4,556.236 L497.5333,554.7519 L507.6667,555.5995 L517.8,555.1345 L527.9333,555.1918 L538.0667,555.6122 L548.2,554.7813 L558.3333,556.4413 L568.4667,554.8628 L578.6,555.4394 L588.7333,556.2791 L598.8667,555.5888 L609,555.7031 " fill="#F1F1F1" style="stroke:#181818;stroke-width:0.5;"/><text fill="#000000" font-family="FG Virgil" font-size="14" lengthAdjust="spacing" textLength="84" x="462" y="574.2363">repositories()</text></g><!--MD5=[48590afff58a68e2fcba47824d6f8a11]
class RepositoryFactory--><g id="elem_RepositoryFactory"><polygon fill="#F1F1F1" points="463.5,659,463.5,659.2102,473.7143,658.5857,483.9286,659.1933,494.1429,659.3997,504.3571,658.2866,514.5714,658.9223,524.7857,658.5735,535,658.6165,545.2143,658.9318,555.4286,658.3086,565.6429,659.5536,575.8571,658.3697,586.0714,658.8022,596.2857,659.4319,606.5,659,606.4891,658.9736,606.8623,659.1675,607.203,659.2831,607.5834,659.4943,607.9447,659.6594,608.2678,659.7322,608.4481,659.8069,608.6209,660.1714,608.7698,660.526,608.7855,660.8254,608.9963,661.2056,609,661.5,609.7022,661.5,608.2788,671.6875,609.6785,681.875,608.7035,692.0625,609.5338,702.25,608.505,712.4375,608.9315,722.625,609,732.8125,609.2284,732.9071,608.8385,733.1598,608.7395,733.533,608.6649,733.9164,608.5424,734.2798,608.2678,734.5803,608.2673,734.5791,607.9509,734.8152,607.4876,734.6969,607.2434,735.1072,606.9235,735.3349,606.5,735.3125,606.5,735.757,596.2857,735.9255,586.0714,734.8294,575.8571,734.6603,565.6429,734.6911,555.4286,735.2536,545.2143,735.116,535,735.9939,524.7857,735.1378,514.5714,734.9694,504.3571,735.5408,494.1429,734.6457,483.9286,734.7934,473.7143,735.9615,463.5,735.3125,463.5556,735.4467,463.2401,735.3922,462.7518,734.9205,462.4801,734.9715,462.1611,734.9085,461.7322,734.5803,461.5868,734.52,461.5563,734.2145,461.4781,733.8892,461.4936,733.6027,461.1452,733.1655,461,732.8125,461.4626,732.8125,460.4462,722.625,460.3227,712.4375,461.5036,702.25,460.2831,692.0625,461.509,681.875,461.2066,671.6875,461,661.5,460.9175,661.4658,461.0375,661.1013,461.4342,660.8514,461.3472,660.4012,461.7681,660.1613,461.7322,659.7322,461.6617,659.562,462.1645,659.7759,462.5011,659.5885,462.8241,659.3683,463.1525,659.161,463.5,659" style="stroke:#181818;stroke-width:0.5;"/><polygon fill="#C2C2C2" points="487.0608,683.0272,485.4484,685.2304,483.5412,688.4573,480.8136,690.632,477.9474,691.8212,475.662,691.9244,472.7247,690.4371,469.9532,689.4655,467.8495,687.4927,466.7461,685.2343,466.0917,683.4361,465.4506,681.0873,464.41,679.066,465.2096,677.0926,465.9102,674.9308,468.5393,673.221,470.389,671.0027,472.6784,670.266,475.4001,669.6316,478.8904,670.0085,480.8021,670.9101,483.0247,671.3188,485.7272,674.0875,486.6693,677.0105,487.0786,679.0049,486.615,682.2914" style="stroke:#181818;stroke-width:1.0;"/><path d="M478.7656,676.2266 Q478.9219,676.0078 479.1094,675.8984 Q479.2969,675.7891 479.5156,675.7891 Q479.8906,675.7891 480.125,676.0547 Q480.3594,676.3047 480.3594,676.9141 L480.3594,678.3672 Q480.3594,678.9766 480.125,679.2422 Q479.8906,679.5078 479.5156,679.5078 Q479.1719,679.5078 478.9688,679.3047 Q478.7656,679.1172 478.6563,678.6016 Q478.6094,678.2422 478.4219,678.0547 Q478.0938,677.6797 477.4844,677.4609 Q476.875,677.2422 476.25,677.2422 Q475.4844,677.2422 474.8438,677.5703 Q474.2188,677.8984 473.7188,678.6484 Q473.2344,679.3984 473.2344,680.4297 L473.2344,681.5234 Q473.2344,682.7578 474.125,683.5859 Q475.0156,684.3984 476.6094,684.3984 Q477.5469,684.3984 478.2031,684.1484 Q478.5938,683.9922 479.0156,683.5547 Q479.2813,683.2891 479.4219,683.2109 Q479.5781,683.1328 479.7813,683.1328 Q480.1094,683.1328 480.3594,683.3984 Q480.625,683.6484 480.625,683.9922 Q480.625,684.3359 480.2813,684.7422 Q479.7813,685.3203 478.9844,685.6484 Q477.9063,686.1016 476.6094,686.1016 Q475.0938,686.1016 473.8906,685.4766 Q472.9063,684.9766 472.2188,683.9141 Q471.5313,682.8359 471.5313,681.5547 L471.5313,680.3984 Q471.5313,679.0703 472.1406,677.9297 Q472.7656,676.7734 473.8594,676.1641 Q474.9531,675.5391 476.1875,675.5391 Q476.9219,675.5391 477.5625,675.7109 Q478.2188,675.8672 478.7656,676.2266 Z " fill="#000000"/><text fill="#000000" font-family="FG Virgil" font-size="12" font-style="italic" lengthAdjust="spacing" textLength="50" x="523" y="676.457">«factory»</text><text fill="#000000" font-family="FG Virgil" font-size="14" lengthAdjust="spacing" textLength="116" x="490" y="693.627">RepositoryFactory</text><path d="M462,701.7031 L462,701.9834 L471.7333,701.1507 L481.4667,701.9608 L491.2,702.236 L500.9333,700.7519 L510.6667,701.5995 L520.4,701.1345 L530.1333,701.1918 L539.8667,701.6122 L549.6,700.7813 L559.3333,702.4413 L569.0667,700.8628 L578.8,701.4394 L588.5333,702.2791 L598.2667,701.5888 L608,701.7031 " fill="#F1F1F1" style="stroke:#181818;stroke-width:0.5;"/><path d="M462,709.7031 L462,709.9834 L471.7333,709.1507 L481.4667,709.9608 L491.2,710.236 L500.9333,708.7519 L510.6667,709.5995 L520.4,709.1345 L530.1333,709.1918 L539.8667,709.6122 L549.6,708.7813 L559.3333,710.4413 L569.0667,708.8628 L578.8,709.4394 L588.5333,710.2791 L598.2667,709.5888 L608,709.7031 " fill="#F1F1F1" style="stroke:#181818;stroke-width:0.5;"/><text fill="#000000" font-family="FG Virgil" font-size="14" lengthAdjust="spacing" textLength="45" x="467" y="728.2363">users()</text></g><!--MD5=[093c210125347143eef5bb9199eae634]
class UserRepository--><g id="elem_UserRepository"><polygon fill="#F1F1F1" points="538,813,538,813.2102,548.3333,812.5857,558.6667,813.1933,569,813.3997,579.3333,812.2866,589.6667,812.9223,600,812.5735,610.3333,812.6165,620.6667,812.9318,631,812.3086,641.3333,813.5536,651.6667,812.3697,662,813,661.9748,812.9391,662.4087,813.2795,662.6962,813.2665,663.0694,813.4604,663.4101,813.5759,663.7678,813.7322,663.8227,813.755,663.9879,814.1163,664.241,814.5141,664.4138,814.8785,664.5627,815.2331,664.5,815.5,664.7546,815.5,664.9636,825.6875,665.2022,835.875,663.7788,846.0625,665.1785,856.25,664.2035,866.4375,665.0338,876.625,664.5,886.8125,664.3476,886.7494,664.3325,887.1573,664.4355,887.6142,664.0457,887.8669,663.9466,888.2401,663.7678,888.5803,663.811,888.6846,663.4673,888.8549,663.0602,888.872,662.7437,889.1081,662.2805,888.9898,662,889.3125,662,889.5969,651.6667,889.8607,641.3333,889.757,631,889.9255,620.6667,888.8294,610.3333,888.6603,600,888.6911,589.6667,889.2536,579.3333,889.116,569,889.9939,558.6667,889.1378,548.3333,888.9694,538,889.3125,538.0291,889.3828,537.5614,888.9607,537.2267,888.8597,537.0221,889.073,536.6414,888.8609,536.2322,888.5803,536.4584,888.674,535.9867,888.1857,536.0376,887.9139,535.9747,887.5949,535.501,887.1058,535.5,886.8125,535.4041,886.8125,535.626,876.625,536.1518,866.4375,535.4958,856.25,535.9626,846.0625,534.9462,835.875,534.8227,825.6875,535.5,815.5,535.6551,815.5642,535.4257,815.055,535.9496,814.8578,536.003,814.4657,536.0033,814.0516,536.2322,813.7322,536.1871,813.6233,536.6443,813.7271,536.9012,813.3472,537.3684,813.4752,537.5759,812.9762,538,813" style="stroke:#181818;stroke-width:0.5;"/><polygon fill="#C2C2C2" points="561.5608,837.0272,559.9484,839.2304,558.0412,842.4573,555.3136,844.632,552.4474,845.8212,550.162,845.9244,547.2247,844.4371,544.4532,843.4655,542.3495,841.4927,541.2461,839.2343,540.5917,837.4361,539.9506,835.0873,538.91,833.066,539.7096,831.0926,540.4102,828.9308,543.0393,827.221,544.889,825.0027,547.1784,824.266,549.9001,823.6316,553.3904,824.0085,555.3021,824.9101,557.5247,825.3188,560.2272,828.0875,561.1693,831.0105,561.5786,833.0049,561.115,836.2914" style="stroke:#181818;stroke-width:1.0;"/><path d="M553.2656,830.2266 Q553.4219,830.0078 553.6094,829.8984 Q553.7969,829.7891 554.0156,829.7891 Q554.3906,829.7891 554.625,830.0547 Q554.8594,830.3047 554.8594,830.9141 L554.8594,832.3672 Q554.8594,832.9766 554.625,833.2422 Q554.3906,833.5078 554.0156,833.5078 Q553.6719,833.5078 553.4688,833.3047 Q553.2656,833.1172 553.1563,832.6016 Q553.1094,832.2422 552.9219,832.0547 Q552.5938,831.6797 551.9844,831.4609 Q551.375,831.2422 550.75,831.2422 Q549.9844,831.2422 549.3438,831.5703 Q548.7188,831.8984 548.2188,832.6484 Q547.7344,833.3984 547.7344,834.4297 L547.7344,835.5234 Q547.7344,836.7578 548.625,837.5859 Q549.5156,838.3984 551.1094,838.3984 Q552.0469,838.3984 552.7031,838.1484 Q553.0938,837.9922 553.5156,837.5547 Q553.7813,837.2891 553.9219,837.2109 Q554.0781,837.1328 554.2813,837.1328 Q554.6094,837.1328 554.8594,837.3984 Q555.125,837.6484 555.125,837.9922 Q555.125,838.3359 554.7813,838.7422 Q554.2813,839.3203 553.4844,839.6484 Q552.4063,840.1016 551.1094,840.1016 Q549.5938,840.1016 548.3906,839.4766 Q547.4063,838.9766 546.7188,837.9141 Q546.0313,836.8359 546.0313,835.5547 L546.0313,834.3984 Q546.0313,833.0703 546.6406,831.9297 Q547.2656,830.7734 548.3594,830.1641 Q549.4531,829.5391 550.6875,829.5391 Q551.4219,829.5391 552.0625,829.7109 Q552.7188,829.8672 553.2656,830.2266 Z " fill="#000000"/><text fill="#000000" font-family="FG Virgil" font-size="12" font-style="italic" lengthAdjust="spacing" textLength="68" x="579" y="830.457">«repository»</text><text fill="#000000" font-family="FG Virgil" font-size="14" lengthAdjust="spacing" textLength="97" x="564.5" y="847.627">UserRepository</text><path d="M536.5,855.7031 L536.5,855.9834 L546.2692,855.1507 L556.0385,855.9608 L565.8077,856.236 L575.5769,854.7519 L585.3462,855.5995 L595.1154,855.1345 L604.8846,855.1918 L614.6538,855.6122 L624.4231,854.7813 L634.1923,856.4413 L643.9615,854.8628 L653.7308,855.4394 L663.5,855.7031 " fill="#F1F1F1" style="stroke:#181818;stroke-width:0.5;"/><path d="M536.5,863.7031 L536.5,863.9834 L546.2692,863.1507 L556.0385,863.9608 L565.8077,864.236 L575.5769,862.7519 L585.3462,863.5995 L595.1154,863.1345 L604.8846,863.1918 L614.6538,863.6122 L624.4231,862.7813 L634.1923,864.4413 L643.9615,862.8628 L653.7308,863.4394 L663.5,863.7031 " fill="#F1F1F1" style="stroke:#181818;stroke-width:0.5;"/><text fill="#000000" font-family="FG Virgil" font-size="14" lengthAdjust="spacing" textLength="48" x="541.5" y="882.2363">findAll()</text></g><!--MD5=[d1fdfbe69774d5eebb32a2cfa1746ce1]
link ListUsersUI to ListUsersController--><g id="link_ListUsersUI_ListUsersController"><path d="M335,101.14 L335.2802,101.14 L334.4476,111.4814 L335.2577,121.8229 L335.5329,132.1643 L334.0488,142.5057 L334.8964,152.8471 L334.4313,163.1886 L335,173.53 " fill="none" style="stroke:#181818;stroke-width:1.0;"/><polygon fill="#181818" points="335,178.79,335.064,178.8185,335.6738,176.9339,336.6589,175.2162,337.5217,173.4441,337.9827,171.4934,339,169.79,338.9817,169.7717,338.0995,170.4895,337.3096,171.2996,336.5839,172.1739,335.637,172.827,335,173.79,335.1305,173.9205,334.0514,172.8414,333.3534,172.1434,332.7018,171.4918,331.7798,170.5698,331,169.79,331.0208,169.7992,331.7903,171.5857,332.6544,173.4142,333.4728,175.2224,334.3784,177.0693,335,178.79" style="stroke:#181818;stroke-width:1.0;"/><text fill="#000000" font-family="FG Virgil" font-size="13" lengthAdjust="spacing" textLength="73" x="336" y="145.4951">theController</text></g><!--MD5=[4aebd9904aa32d79c0c8a6f34f000b95]
link ListUsersController to AuthorizationService--><g id="link_ListUsersController_AuthorizationService"><path d="M335,255.34 L335.2802,255.34 L334.4476,265.495 L335.2577,275.65 L335.5329,285.805 L334.0488,295.96 L334.8964,306.115 L334.4313,316.27 L334.4887,326.425 L335,336.58 " fill="none" style="stroke:#181818;stroke-width:1.0;"/><polygon fill="#181818" points="335,341.86,335.064,341.8885,335.6738,340.0039,336.6589,338.2862,337.5217,336.5141,337.9827,334.5634,339,332.86,338.9817,332.8417,338.0995,333.5595,337.3096,334.3696,336.5839,335.2439,335.637,335.897,335,336.86,335.1305,336.9905,334.0514,335.9114,333.3534,335.2134,332.7018,334.5618,331.7798,333.6398,331,332.86,331.0208,332.8692,331.7903,334.6557,332.6544,336.4842,333.4728,338.2924,334.3784,340.1393,335,341.86" style="stroke:#181818;stroke-width:1.0;"/><text fill="#000000" font-family="FG Virgil" font-size="13" lengthAdjust="spacing" textLength="94" x="336" y="299.4951">theAuthzService</text></g><!--MD5=[87941850f4221cb3925a030c008032ec]
link ListUsersController to UserManagementService--><g id="link_ListUsersController_UserManagementService"><path d="M397.97,255.14 L398.1124,255.3814 L406.0694,259.6059 L414.8609,265.2455 L423.3807,270.4243 L431.0068,274.0877 L439.8174,279.7596 L447.9611,284.3008 L456.3703,289.2919 L464.9638,294.5958 L472.9217,298.8218 L482.145,305.1935 L489.7231,308.7755 L498.3961,314.214 L507.2026,319.879 L515.2319,324.2262 L523.7162,329.3448 L532.0284,334.1715 L540.43,339.15 " fill="none" style="stroke:#181818;stroke-width:1.0;"/><polygon fill="#181818" points="544.87,341.77,544.927,341.8107,543.6131,340.0866,542.6335,338.6011,541.545,337.0379,540.0986,335.2191,539.1476,333.7541,539.1225,333.7476,539.293,334.814,539.5898,335.913,539.9746,337.0347,540.0564,338.0781,540.5625,339.2312,540.6087,339.4098,539.4146,339.3107,538.3552,339.7333,537.3123,340.2195,536.1737,340.3354,535.0855,340.6461,535.0881,340.6687,537.0412,340.8603,539.0061,341.1548,540.9653,341.3996,542.9354,341.7392,544.87,341.77" style="stroke:#181818;stroke-width:1.0;"/><text fill="#000000" font-family="FG Virgil" font-size="13" lengthAdjust="spacing" textLength="60" x="472" y="299.4951">theService</text></g><!--MD5=[b0877f5a81ed13f00912ab218cf366e4]
link UserManagementService to PersistenceContext--><g id="link_UserManagementService_PersistenceContext"><path d="M587.56,418.15 L587.6429,418.193 L585.4031,421.9067 L583.6492,425.8726 L581.7372,429.7563 L579.3046,433.37 L577.5925,437.3575 L577.5616,437.3421 L576.439,439.2495 L575.4723,441.2344 L574.6139,443.2733 L573.3822,445.1263 L572.6734,447.2397 L572.8954,447.346 L571.4861,449.0708 L570.7248,451.1059 L570.0425,453.1788 L568.9003,455.0315 L568,457 L568.0276,457.0126 L567.0132,459.1271 L566.1244,461.299 L565.175,463.4432 L564.3412,465.6402 L563.1305,467.6652 L563.4036,467.7849 L562.4471,469.9766 L561.3144,472.091 L560.4396,474.3185 L559.577,476.5513 L558.3313,478.6163 L558.0355,478.4926 L556.8032,483.0514 L554.5972,487.2029 L553.1314,491.664 L550.9033,495.8064 L549.3,500.21 " fill="none" style="stroke:#181818;stroke-width:1.0;"/><polygon fill="#181818" points="547.41,504.85,547.4586,504.9005,548.7343,503.3853,550.2947,502.1662,551.7624,500.8507,552.9252,499.2181,554.51,498.0244,554.5,498.0005,553.4122,498.3324,552.375,498.7846,551.3731,499.3205,550.2498,499.5681,549.2965,500.2195,549.4666,500.2912,548.6638,499.0953,548.3577,498.1085,548.1121,497.1473,547.514,496.0376,547.1013,495.006,547.124,495.0067,547.1524,496.9745,547.2843,498.9455,547.3662,500.9149,547.5434,502.8873,547.41,504.85" style="stroke:#181818;stroke-width:1.0;"/><text fill="#000000" font-family="FG Virgil" font-size="13" lengthAdjust="spacing" textLength="67" x="569" y="471.4951">persistence</text></g><!--MD5=[754b775031405e096442b27febffa290]
link PersistenceContext to RepositoryFactory--><g id="link_PersistenceContext_RepositoryFactory"><path d="M533.49,581.18 L533.7702,581.1837 L533.0748,591.5556 L534.022,601.9491 L534.4343,612.3356 L533.0875,622.6989 L534.0721,633.0929 L533.7442,643.4696 L534.45,653.86 " fill="none" style="stroke:#181818;stroke-width:1.0;"/><polygon fill="#181818" points="534.51,658.94,534.5744,658.9675,535.1572,657.0745,536.1177,655.3428,536.9551,653.5586,537.3882,651.6016,538.381,649.8838,538.3625,649.8657,537.4906,650.596,536.7124,651.4174,535.9993,652.302,535.0618,652.9686,534.4386,653.9405,534.5672,654.0729,533.4808,653.0014,532.7699,652.3163,532.1049,651.6783,531.1733,650.766,530.3818,649.9981,530.4025,650.0076,531.1978,651.782,532.0871,653.5998,532.9311,655.3966,533.8616,657.2334,534.51,658.94" style="stroke:#181818;stroke-width:1.0;"/><text fill="#000000" font-family="FG Virgil" font-size="13" lengthAdjust="spacing" textLength="39" x="535" y="625.4951">factory</text></g><!--MD5=[0bde64d3861a2e0b7bf5316115f64c06]
link RepositoryFactory to UserRepository--><g id="link_RepositoryFactory_UserRepository"><path d="M550.9,735.18 L551.1577,735.2902 L554.2921,744.0841 L558.937,753.5238 L563.09,762.7533 L565.6254,771.291 L570.3047,780.7455 L573.7771,789.6839 L577.7298,798.8277 L582.1,808.15 " fill="none" style="stroke:#181818;stroke-width:1.0;"/><polygon fill="#181818" points="584.15,812.94,584.2201,812.9409,584.0359,810.9687,584.2625,809.0015,584.3553,807.0328,584.0084,805.0586,584.2702,803.0919,584.2461,803.0823,583.7192,804.0902,583.3135,805.1464,582.9921,806.2362,582.3801,807.2102,582.1752,808.3465,582.2436,808.5179,581.0465,807.7323,580.049,807.4473,579.0758,807.2233,577.9609,806.644,576.9206,806.2515,576.936,806.2682,578.3592,807.5814,579.8528,808.9706,581.3124,810.3231,582.8367,811.7456,584.15,812.94" style="stroke:#181818;stroke-width:1.0;"/><text fill="#000000" font-family="FG Virgil" font-size="13" lengthAdjust="spacing" textLength="25" x="570" y="779.4951">repo</text></g><!--MD5=[18f98f898b33518a07ec32b030c48693]
link UserManagementService to UserRepository--><g id="link_UserManagementService_UserRepository"><path d="M627.79,418.27 L627.8759,418.3066 L628.4117,420.0539 L629.4512,422.0158 L630.3267,423.9078 L630.6627,425.5699 L631.7455,427.5503 L631.7132,427.5381 L632.2983,429.4194 L633.0463,431.362 L633.9076,433.3474 L634.3786,435.1856 L635.3963,437.23 L635.6307,437.3047 L635.7594,439.1214 L636.5726,441.1562 L637.4693,443.2176 L637.8801,445.1242 L638.5464,447.1122 L638.5758,447.1195 L639.0233,449.0863 L639.6049,451.0864 L640.1217,453.0705 L640.7619,455.0851 L641,457 L641.2982,457 L641.3019,460.6 L641.1132,464.2 L641.206,467.8 L641.3121,471.4 L641,475 L640.6795,474.9934 L641.1371,482.9435 L640.5395,490.8718 L640.7441,498.8167 L640.1226,506.7445 L640.1782,514.6863 L640.1477,514.686 L640.4335,521.4165 L640.0079,528.1391 L640.0021,534.8664 L640.0315,541.5941 L639.8067,548.3189 L639.9917,548.3207 L639.7492,554.2347 L639.8228,560.1517 L639.385,566.0639 L639.71,571.9833 L639.5278,577.8979 L639.7714,577.9028 L639.6165,583.407 L639.5826,588.9137 L638.9867,594.4092 L638.8028,599.9129 L638.9838,605.4238 L638.7077,605.414 L638.8609,608.1464 L638.7031,610.8679 L638.9964,613.6053 L638.5195,616.3154 L638.5005,619.0418 L638.3482,619.0343 L638.465,621.8177 L637.9309,624.5691 L637.8598,627.3433 L638.2415,630.1398 L637.8167,632.8966 L638.0099,632.9091 L637.9567,635.786 L637.3024,638.624 L637.4009,641.5107 L637.3354,644.3869 L636.8878,647.2382 L636.6785,647.2213 L636.6015,650.2505 L636.456,653.2741 L636.4452,656.3087 L635.9108,659.3009 L635.6689,662.3167 L635.8735,662.3365 L635.1132,665.5061 L634.7479,668.7139 L634.9596,671.9775 L634.109,675.1384 L634.1154,678.3821 L634.3402,678.4072 L633.8201,681.8528 L633.224,685.2898 L632.7995,688.746 L632.7718,692.2466 L632.1826,695.6844 L632.0506,695.6679 L631.9722,699.475 L630.9961,703.1696 L631.0407,706.9922 L630.5106,710.7427 L629.8257,714.4737 L629.9336,714.4886 L629.2813,718.5818 L629.0153,722.7283 L628.4004,726.8267 L627.6397,730.905 L627,735 L627.1176,735.0194 L626.331,738.7086 L626.0904,742.4877 L625.2323,746.1652 L624.6282,749.8845 L623.9406,753.59 L623.6755,753.537 L623.0134,757.3117 L622.6707,761.1502 L621.8761,764.8984 L620.9194,768.6143 L620.1875,772.375 L620.0479,772.3434 L619.2647,776.007 L618.2343,779.6146 L617.8836,783.3762 L617.1966,787.0616 L616.0481,790.6425 L616.2752,790.6987 L615.5043,794.1242 L614.3019,797.4429 L613.5549,800.8743 L612.5064,804.2311 L611.83,807.68 " fill="none" style="stroke:#181818;stroke-width:1.0;"/><polygon fill="#181818" points="610.51,812.77,610.5648,812.8136,611.6285,811.1428,613.0136,809.7276,614.2941,808.2292,615.2303,806.4569,616.643,805.0638,616.6299,805.0414,615.5956,805.5145,614.6275,806.1002,613.7055,806.7642,612.6249,807.1584,611.7663,807.9304,611.9254,808.0239,611.0118,806.8486,610.5628,805.9463,610.1704,805.0773,609.4483,804.0145,608.8997,803.0537,608.9221,803.0574,609.2112,804.9952,609.6025,806.9499,609.9445,808.8965,610.3805,810.8587,610.51,812.77" style="stroke:#181818;stroke-width:1.0;"/><text fill="#000000" font-family="FG Virgil" font-size="13" lengthAdjust="spacing" textLength="25" x="639" y="625.4951">repo</text></g><!--MD5=[5f29a7ecc8bfe922e351ae5e77e40a63]
link ListUsersController to AuthzRegistry--><g id="link_ListUsersController_AuthzRegistry"><path d="M276.64,255.14 L276.7904,255.3764 L267.9491,260.0154 L259.9898,266.0403 L251.7432,271.6139 L242.5522,275.7032 L234.6129,281.7597 L225.969,286.7088 L217.6055,292.0986 L209.4369,297.7948 L200.5965,302.4351 L193.0934,309.1771 L183.8517,313.1867 L175.767,319.0147 L167.8235,325.0645 L159.12,329.92 " fill="none" style="stroke:#181818;stroke-width:1.0;"/><polygon fill="#181818" points="154.55,332.83,154.5601,332.8993,156.4791,332.4083,158.4574,332.3237,160.4164,332.1067,162.3117,331.4545,164.2952,331.4048,164.2895,331.3795,163.1603,331.017,162.0598,330.782,160.9793,330.6354,159.83,330.1838,158.7771,330.1595,158.9571,330.2001,158.8212,329.0096,159.2109,327.9378,159.6647,326.8803,159.7454,325.7387,160.0224,324.6414,160.0413,324.6541,158.9191,326.2732,157.8829,327.9499,156.8052,329.5989,155.8068,331.3008,154.55,332.83" style="stroke:#181818;stroke-width:1.0;"/><text fill="#000000" font-family="FG Virgil" font-size="13" lengthAdjust="spacing" textLength="43" x="224" y="299.4951">registry</text></g><!--MD5=[6c50e44e7d23cdecd13adbee3ba0e2ab]
@startuml
'http://plantuml.com/skinparam.html
skinparam handwritten true
skinparam monochrome true
skinparam packageStyle rect
skinparam defaultFontName FG Virgil
skinparam shadowing false

class ListUsersUI <<presentation>>
class ListUsersController <<application>>
class AuthzRegistry <<util>>
class AuthorizationService <<service>>
class UserManagementService <<service>>
class PersistenceContext  <<persistence>>
class RepositoryFactory  <<factory>>
class UserRepository <<repository>>

ListUsersUI - -> ListUsersController : theController
ListUsersController - -> AuthorizationService: theAuthzService
ListUsersController - -> UserManagementService: theService
UserManagementService - -> PersistenceContext: persistence
PersistenceContext - -> RepositoryFactory: factory
RepositoryFactory - -> UserRepository: repo
UserManagementService - -> UserRepository: repo
ListUsersController - -> AuthzRegistry: registry

ListUsersUI : doShow()
ListUsersUI : show()
ListUsersController : listAllUsers()
AuthzRegistry : authorizationService()
AuthzRegistry : userService()
AuthorizationService : ensureAuthenticatedUserHasAnyOf(Role...)
UserManagementService : allUsers()
PersistenceContext : repositories()
RepositoryFactory : users()
UserRepository : findAll()

@enduml

@startuml
skinparam handwritten true
skinparam monochrome true
skinparam packageStyle rect
skinparam defaultFontName FG Virgil
skinparam shadowing false

class ListUsersUI <<presentation>>
class ListUsersController <<application>>
class AuthzRegistry <<util>>
class AuthorizationService <<service>>
class UserManagementService <<service>>
class PersistenceContext  <<persistence>>
class RepositoryFactory  <<factory>>
class UserRepository <<repository>>

ListUsersUI - -> ListUsersController : theController
ListUsersController - -> AuthorizationService: theAuthzService
ListUsersController - -> UserManagementService: theService
UserManagementService - -> PersistenceContext: persistence
PersistenceContext - -> RepositoryFactory: factory
RepositoryFactory - -> UserRepository: repo
UserManagementService - -> UserRepository: repo
ListUsersController - -> AuthzRegistry: registry

ListUsersUI : doShow()
ListUsersUI : show()
ListUsersController : listAllUsers()
AuthzRegistry : authorizationService()
AuthzRegistry : userService()
AuthorizationService : ensureAuthenticatedUserHasAnyOf(Role...)
UserManagementService : allUsers()
PersistenceContext : repositories()
RepositoryFactory : users()
UserRepository : findAll()

@enduml

PlantUML version 1.2022.7(Mon Aug 22 18:01:30 BST 2022)
(GPL source distribution)
Java Runtime: Java(TM) SE Runtime Environment
JVM: Java HotSpot(TM) 64-Bit Server VM
Default Encoding: Cp1252
Language: pt
Country: PT
--></g></svg>