<?xml version="1.0" encoding="UTF-8" standalone="no"?><svg xmlns="http://www.w3.org/2000/svg" xmlns:xlink="http://www.w3.org/1999/xlink" contentStyleType="text/css" height="1020px" preserveAspectRatio="none" style="width:1243px;height:1020px;background:#FFFFFF;" version="1.1" viewBox="0 0 1243 1020" width="1243px" zoomAndPan="magnify"><defs/><g><!--MD5=[eae7ec724ddb57b8442b173ee9ef684e]
class AddUserUI--><g id="elem_AddUserUI"><polygon fill="#F1F1F1" points="470,7,470,7.2102,479.5455,6.5857,489.0909,7.1933,498.6364,7.3997,508.1818,6.2866,517.7273,6.9223,527.2727,6.5735,536.8182,6.6165,546.3636,6.9318,555.9091,6.3086,565.4545,7.5536,575,7,574.9196,6.8059,575.3283,7.0855,575.7622,7.4259,576.0497,7.4129,576.4229,7.6068,576.7678,7.7322,576.7579,7.7282,576.9692,8.1086,577.1343,8.4698,577.3875,8.8676,577.5602,9.232,577.5,9.5,578.1793,9.5,577.7546,19.6875,577.9636,29.875,578.2022,40.0625,576.7788,50.25,578.1785,60.4375,577.2035,70.625,577.5,80.8125,577.6644,80.8806,577.2011,81.1029,577.186,81.5109,577.289,81.9678,576.8992,82.2205,576.7678,82.5803,576.7812,82.6127,576.4574,82.831,576.1138,83.0013,575.7066,83.0184,575.3902,83.2545,575,83.3125,575,82.7401,565.4545,83.5969,555.9091,83.8607,546.3636,83.757,536.8182,83.9255,527.2727,82.8294,517.7273,82.6603,508.1818,82.6911,498.6364,83.2536,489.0909,83.116,479.5455,83.9939,470,83.3125,469.9777,83.2587,469.6027,83.0604,469.322,83.0899,468.8543,82.6678,468.5196,82.5668,468.2322,82.5803,468.4321,82.663,468.22,82.2823,468.1655,81.9669,467.6938,81.4786,467.7447,81.2068,467.5,80.8125,468.0904,80.8125,467.0276,70.625,467.4041,60.4375,467.626,50.25,468.1518,40.0625,467.4958,29.875,467.9626,19.6875,467.5,9.5,467.3295,9.4294,467.4379,9.0601,467.948,8.8571,467.7186,8.3479,468.2425,8.1507,468.2322,7.7322,468.2586,7.7959,468.5516,7.5033,468.8942,7.3304,469.3514,7.4342,469.6083,7.0543,470,7" style="stroke:#181818;stroke-width:0.5;"/><polygon fill="#C2C2C2" points="493.5608,31.0272,491.9484,33.2304,490.0412,36.4573,487.3136,38.632,484.4474,39.8212,482.162,39.9244,479.2247,38.4371,476.4532,37.4655,474.3495,35.4927,473.2461,33.2343,472.5917,31.4361,471.9506,29.0873,470.91,27.066,471.7096,25.0926,472.4102,22.9308,475.0393,21.221,476.889,19.0027,479.1784,18.266,481.9001,17.6316,485.3904,18.0085,487.3021,18.9101,489.5247,19.3188,492.2272,22.0875,493.1693,25.0105,493.5786,27.0049,493.115,30.2914" style="stroke:#181818;stroke-width:1.0;"/><path d="M485.2656,24.2266 Q485.4219,24.0078 485.6094,23.8984 Q485.7969,23.7891 486.0156,23.7891 Q486.3906,23.7891 486.625,24.0547 Q486.8594,24.3047 486.8594,24.9141 L486.8594,26.3672 Q486.8594,26.9766 486.625,27.2422 Q486.3906,27.5078 486.0156,27.5078 Q485.6719,27.5078 485.4688,27.3047 Q485.2656,27.1172 485.1563,26.6016 Q485.1094,26.2422 484.9219,26.0547 Q484.5938,25.6797 483.9844,25.4609 Q483.375,25.2422 482.75,25.2422 Q481.9844,25.2422 481.3438,25.5703 Q480.7188,25.8984 480.2188,26.6484 Q479.7344,27.3984 479.7344,28.4297 L479.7344,29.5234 Q479.7344,30.7578 480.625,31.5859 Q481.5156,32.3984 483.1094,32.3984 Q484.0469,32.3984 484.7031,32.1484 Q485.0938,31.9922 485.5156,31.5547 Q485.7813,31.2891 485.9219,31.2109 Q486.0781,31.1328 486.2813,31.1328 Q486.6094,31.1328 486.8594,31.3984 Q487.125,31.6484 487.125,31.9922 Q487.125,32.3359 486.7813,32.7422 Q486.2813,33.3203 485.4844,33.6484 Q484.4063,34.1016 483.1094,34.1016 Q481.5938,34.1016 480.3906,33.4766 Q479.4063,32.9766 478.7188,31.9141 Q478.0313,30.8359 478.0313,29.5547 L478.0313,28.3984 Q478.0313,27.0703 478.6406,25.9297 Q479.2656,24.7734 480.3594,24.1641 Q481.4531,23.5391 482.6875,23.5391 Q483.4219,23.5391 484.0625,23.7109 Q484.7188,23.8672 485.2656,24.2266 Z " fill="#000000"/><text fill="#000000" font-family="FG Virgil" font-size="12" font-style="italic" lengthAdjust="spacing" textLength="82" x="494.5" y="24.457">«presentation»</text><text fill="#000000" font-family="FG Virgil" font-size="14" lengthAdjust="spacing" textLength="66" x="502.5" y="41.627">AddUserUI</text><path d="M468.5,49.7031 L468.5,49.9834 L478.3182,49.1507 L488.1364,49.9608 L497.9545,50.236 L507.7727,48.7519 L517.5909,49.5995 L527.4091,49.1345 L537.2273,49.1918 L547.0455,49.6122 L556.8636,48.7813 L566.6818,50.4413 L576.5,49.7031 " fill="#F1F1F1" style="stroke:#181818;stroke-width:0.5;"/><path d="M468.5,57.7031 L468.5,57.9834 L478.3182,57.1507 L488.1364,57.9608 L497.9545,58.236 L507.7727,56.7519 L517.5909,57.5995 L527.4091,57.1345 L537.2273,57.1918 L547.0455,57.6122 L556.8636,56.7813 L566.6818,58.4413 L576.5,57.7031 " fill="#F1F1F1" style="stroke:#181818;stroke-width:0.5;"/><text fill="#000000" font-family="FG Virgil" font-size="14" lengthAdjust="spacing" textLength="60" x="473.5" y="76.2363">doShow()</text></g><!--MD5=[8c59cfbc2252cb07c050d5e7108b82d8]
class AddUserController--><g id="elem_AddUserController"><polygon fill="#F1F1F1" points="282.5,161,282.5,161.2102,292.5,160.5857,302.5,161.1933,312.5,161.3997,322.5,160.2866,332.5,160.9223,342.5,160.5735,352.5,160.6165,362.5,160.9318,372.5,160.3086,382.5,161.5536,392.5,160.3697,402.5,160.8022,412.5,161.4319,422.5,160.9142,432.5,161.0682,442.5,160.9681,452.5,161.1785,462.5,161.2391,472.5,161.5857,482.5,161.6711,492.5,161.6793,502.5,161.2546,512.5,161.4636,522.5,161.7022,532.5,160.2788,542.5,161.6785,552.5,160.7035,562.5,161.5338,572.5,160.505,582.5,160.9315,592.5,161.7416,602.5,160.9513,612.5,161.1053,622.5,161.3386,632.5,161.4162,642.5,160.9961,652.5,161.2872,662.5,160.4276,672.5,161.2844,682.5,161.5482,692.5,161.4445,702.5,161.613,712.5,160.5169,722.5,160.3478,732.5,160.3786,742.5,160.9411,752.5,160.8035,762.5,161,762.5869,161.2098,762.8313,161.0927,763.1633,161.1872,763.5898,161.5096,763.8292,161.3804,764.2678,161.7322,764.1079,161.666,764.6141,162.1686,764.6948,162.4949,764.9333,162.8866,764.7545,163.1054,765,163.5,765.3192,163.5,765.5904,173.3802,764.5276,183.2604,764.9041,193.1406,765.126,203.0208,765.6518,212.901,764.9958,222.7813,765.4626,232.6615,764.4462,242.5417,765,252.4219,764.7914,252.3355,765.0086,252.8397,764.4863,253.0375,764.7174,253.5475,764.4778,253.8624,764.2678,254.1896,764.2336,254.1071,763.8691,254.2271,763.6192,254.6238,763.1689,254.5368,762.9291,254.9577,762.5,254.9219,762.5,254.3691,752.5,255.5393,742.5,255.4062,732.5,255.1668,722.5,254.9691,712.5,255.6485,702.5,255.5355,692.5,255.0911,682.5,255.1901,672.5,254.7916,662.5,255.6383,652.5,255.0767,642.5,255.0944,632.5,254.3135,622.5,254.5167,612.5,255.4526,602.5,255.3516,592.5,254.8789,582.5,254.5997,572.5,254.7029,562.5,254.2357,552.5,255.3366,542.5,255.6614,532.5,255.4483,522.5,255.6168,512.5,254.7851,502.5,255.0091,492.5,254.5343,482.5,255.2059,472.5,255.1686,462.5,255.4743,452.5,254.6922,442.5,254.7875,432.5,255.3653,422.5,255.4892,412.5,254.4093,402.5,254.728,392.5,255.0711,382.5,254.311,372.5,255.2753,362.5,255.1799,352.5,254.8211,342.5,255.0641,332.5,255.6506,322.5,254.609,312.5,255.2369,302.5,255.2075,292.5,255.0376,282.5,254.9219,282.518,254.9653,282.1609,254.8104,281.7133,254.4368,281.3882,254.3591,281.0269,254.194,280.7322,254.1896,280.7519,254.1978,280.6129,253.8473,280.4892,253.5032,280.2033,253.0919,280.1257,252.7668,280,252.4219,279.8798,252.4219,280.5769,242.5417,280.4266,232.6615,279.5145,222.7813,279.9271,212.901,279.4228,203.0208,280.2884,193.1406,280.6085,183.2604,280.5446,173.3802,280,163.5,279.8659,163.4444,280.2893,163.2056,280.0641,162.6981,280.501,162.4649,280.4936,162.0476,280.7322,161.7322,280.7446,161.762,281.1164,161.6598,281.4996,161.5847,281.7011,161.0712,282.2071,161.2929,282.5,161" style="stroke:#181818;stroke-width:0.5;"/><polygon fill="#C2C2C2" points="471.3108,185.0272,469.6984,187.2304,467.7912,190.4573,465.0636,192.632,462.1974,193.8212,459.912,193.9244,456.9747,192.4371,454.2032,191.4655,452.0995,189.4927,450.9961,187.2343,450.3417,185.4361,449.7006,183.0873,448.66,181.066,449.4596,179.0926,450.1602,176.9308,452.7893,175.221,454.639,173.0027,456.9284,172.266,459.6501,171.6316,463.1404,172.0085,465.0521,172.9101,467.2747,173.3188,469.9772,176.0875,470.9193,179.0105,471.3286,181.0049,470.865,184.2914" style="stroke:#181818;stroke-width:1.0;"/><path d="M463.0156,178.2266 Q463.1719,178.0078 463.3594,177.8984 Q463.5469,177.7891 463.7656,177.7891 Q464.1406,177.7891 464.375,178.0547 Q464.6094,178.3047 464.6094,178.9141 L464.6094,180.3672 Q464.6094,180.9766 464.375,181.2422 Q464.1406,181.5078 463.7656,181.5078 Q463.4219,181.5078 463.2188,181.3047 Q463.0156,181.1172 462.9063,180.6016 Q462.8594,180.2422 462.6719,180.0547 Q462.3438,179.6797 461.7344,179.4609 Q461.125,179.2422 460.5,179.2422 Q459.7344,179.2422 459.0938,179.5703 Q458.4688,179.8984 457.9688,180.6484 Q457.4844,181.3984 457.4844,182.4297 L457.4844,183.5234 Q457.4844,184.7578 458.375,185.5859 Q459.2656,186.3984 460.8594,186.3984 Q461.7969,186.3984 462.4531,186.1484 Q462.8438,185.9922 463.2656,185.5547 Q463.5313,185.2891 463.6719,185.2109 Q463.8281,185.1328 464.0313,185.1328 Q464.3594,185.1328 464.6094,185.3984 Q464.875,185.6484 464.875,185.9922 Q464.875,186.3359 464.5313,186.7422 Q464.0313,187.3203 463.2344,187.6484 Q462.1563,188.1016 460.8594,188.1016 Q459.3438,188.1016 458.1406,187.4766 Q457.1563,186.9766 456.4688,185.9141 Q455.7813,184.8359 455.7813,183.5547 L455.7813,182.3984 Q455.7813,181.0703 456.3906,179.9297 Q457.0156,178.7734 458.1094,178.1641 Q459.2031,177.5391 460.4375,177.5391 Q461.1719,177.5391 461.8125,177.7109 Q462.4688,177.8672 463.0156,178.2266 Z " fill="#000000"/><text fill="#000000" font-family="FG Virgil" font-size="12" font-style="italic" lengthAdjust="spacing" textLength="74" x="501.75" y="178.457">«application»</text><text fill="#000000" font-family="FG Virgil" font-size="14" lengthAdjust="spacing" textLength="116" x="480.75" y="195.627">AddUserController</text><path d="M281,203.7031 L281,203.9834 L291.0625,203.1507 L301.125,203.9608 L311.1875,204.236 L321.25,202.7519 L331.3125,203.5995 L341.375,203.1345 L351.4375,203.1918 L361.5,203.6122 L371.5625,202.7813 L381.625,204.4413 L391.6875,202.8628 L401.75,203.4394 L411.8125,204.2791 L421.875,203.5888 L431.9375,203.7941 L442,203.6605 L452.0625,203.9412 L462.125,204.022 L472.1875,204.484 L482.25,204.5979 L492.3125,204.6088 L502.375,204.0426 L512.4375,204.3212 L522.5,204.6394 L532.5625,202.7415 L542.625,204.6078 L552.6875,203.3078 L562.75,204.4149 L572.8125,203.0431 L582.875,203.6118 L592.9375,204.6919 L603,203.6381 L613.0625,203.8435 L623.125,204.1546 L633.1875,204.2581 L643.25,203.6979 L653.3125,204.0861 L663.375,202.9399 L673.4375,204.0823 L683.5,204.4341 L693.5625,204.2958 L703.625,204.5205 L713.6875,203.059 L723.75,202.8335 L733.8125,202.8746 L743.875,203.6246 L753.9375,203.4411 L764,203.7031 " fill="#F1F1F1" style="stroke:#181818;stroke-width:0.5;"/><path d="M281,211.7031 L281,211.9834 L291.0625,211.1507 L301.125,211.9608 L311.1875,212.236 L321.25,210.7519 L331.3125,211.5995 L341.375,211.1345 L351.4375,211.1918 L361.5,211.6122 L371.5625,210.7813 L381.625,212.4413 L391.6875,210.8628 L401.75,211.4394 L411.8125,212.2791 L421.875,211.5888 L431.9375,211.7941 L442,211.6605 L452.0625,211.9412 L462.125,212.022 L472.1875,212.484 L482.25,212.5979 L492.3125,212.6088 L502.375,212.0426 L512.4375,212.3212 L522.5,212.6394 L532.5625,210.7415 L542.625,212.6078 L552.6875,211.3078 L562.75,212.4149 L572.8125,211.0431 L582.875,211.6118 L592.9375,212.6919 L603,211.6381 L613.0625,211.8435 L623.125,212.1546 L633.1875,212.2581 L643.25,211.6979 L653.3125,212.0861 L663.375,210.9399 L673.4375,212.0823 L683.5,212.4341 L693.5625,212.2958 L703.625,212.5205 L713.6875,211.059 L723.75,210.8335 L733.8125,210.8746 L743.875,211.6246 L753.9375,211.4411 L764,211.7031 " fill="#F1F1F1" style="stroke:#181818;stroke-width:0.5;"/><text fill="#000000" font-family="FG Virgil" font-size="14" lengthAdjust="spacing" textLength="407" x="286" y="230.2363">addUser(String, String, String, String, Role, String, String, String)</text><text fill="#000000" font-family="FG Virgil" font-size="14" lengthAdjust="spacing" textLength="473" x="286" y="247.8457">addUser(String, String, String, String, Role, String, String, String, Calendar)</text></g><!--MD5=[0b1f3d1c1978f9b151365e147219e3b1]
class AuthzRegistry--><g id="elem_AuthzRegistry"><polygon fill="#F1F1F1" points="197,333,197,333.2102,206.6667,332.5857,216.3333,333.1933,226,333.3997,235.6667,332.2866,245.3333,332.9223,255,332.5735,264.6667,332.6165,274.3333,332.9318,284,332.3086,293.6667,333.5536,303.3333,332.3697,313,332.8022,322.6667,333.4319,332.3333,332.9142,342,333,342.0087,333.021,342.3495,333.1366,342.7299,333.3479,343.0912,333.513,343.4889,333.7662,343.7678,333.7322,343.9744,333.8178,344.1234,334.1724,344.1391,334.4718,344.3499,334.852,344.5698,335.236,344.5,335.5,343.7788,335.5,345.1785,345.3802,344.2035,355.2604,345.0338,365.1406,344.005,375.0208,344.4315,384.901,345.2416,394.7813,344.4513,404.6615,344.6053,414.5417,344.5,424.4219,344.6043,424.4651,344.4817,424.8285,344.2059,425.1285,344.1491,425.5192,343.7379,425.7631,343.7678,426.1896,343.804,426.2772,343.4841,426.5049,343.1174,426.6194,342.7853,426.8178,342.2919,426.6267,342,426.9219,342,426.2697,332.3333,426.3005,322.6667,426.863,313,426.7253,303.3333,427.6033,293.6667,426.7472,284,426.5788,274.3333,427.1501,264.6667,426.255,255,426.4027,245.3333,427.5708,235.6667,427.3575,226,427.6564,216.3333,426.6001,206.6667,427.2411,197,426.9219,197.0753,427.1037,196.5862,426.6299,196.2807,426.5995,195.9554,426.5213,195.6689,426.5368,195.2322,426.1896,195.2309,426.1891,195.2282,425.8951,194.7688,425.4119,194.5843,425.0426,194.8015,424.8397,194.5,424.4219,193.7831,424.4219,195.009,414.5417,194.7066,404.6615,194.2321,394.7813,194.1462,384.901,194.9588,375.0208,194.2007,365.1406,195.0919,355.2604,193.9473,345.3802,194.5,335.5,194.6901,335.5788,194.7956,335.2082,194.8683,334.8241,194.9539,334.4454,195.3096,334.1785,195.2322,333.7322,195.3105,333.9212,195.6074,333.6379,195.9736,333.5219,196.2763,333.2528,196.7378,333.3671,197,333" style="stroke:#181818;stroke-width:0.5;"/><polygon fill="#C2C2C2" points="234.5108,357.0272,232.8984,359.2304,230.9912,362.4573,228.2636,364.632,225.3974,365.8212,223.112,365.9244,220.1747,364.4371,217.4032,363.4655,215.2995,361.4927,214.1961,359.2343,213.5417,357.4361,212.9006,355.0873,211.86,353.066,212.6596,351.0926,213.3602,348.9308,215.9893,347.221,217.839,345.0027,220.1284,344.266,222.8501,343.6316,226.3404,344.0085,228.2521,344.9101,230.4747,345.3188,233.1772,348.0875,234.1193,351.0105,234.5286,353.0049,234.065,356.2914" style="stroke:#181818;stroke-width:1.0;"/><path d="M226.2156,350.2266 Q226.3719,350.0078 226.5594,349.8984 Q226.7469,349.7891 226.9656,349.7891 Q227.3406,349.7891 227.575,350.0547 Q227.8094,350.3047 227.8094,350.9141 L227.8094,352.3672 Q227.8094,352.9766 227.575,353.2422 Q227.3406,353.5078 226.9656,353.5078 Q226.6219,353.5078 226.4188,353.3047 Q226.2156,353.1172 226.1063,352.6016 Q226.0594,352.2422 225.8719,352.0547 Q225.5438,351.6797 224.9344,351.4609 Q224.325,351.2422 223.7,351.2422 Q222.9344,351.2422 222.2938,351.5703 Q221.6688,351.8984 221.1688,352.6484 Q220.6844,353.3984 220.6844,354.4297 L220.6844,355.5234 Q220.6844,356.7578 221.575,357.5859 Q222.4656,358.3984 224.0594,358.3984 Q224.9969,358.3984 225.6531,358.1484 Q226.0438,357.9922 226.4656,357.5547 Q226.7313,357.2891 226.8719,357.2109 Q227.0281,357.1328 227.2313,357.1328 Q227.5594,357.1328 227.8094,357.3984 Q228.075,357.6484 228.075,357.9922 Q228.075,358.3359 227.7313,358.7422 Q227.2313,359.3203 226.4344,359.6484 Q225.3563,360.1016 224.0594,360.1016 Q222.5438,360.1016 221.3406,359.4766 Q220.3563,358.9766 219.6688,357.9141 Q218.9813,356.8359 218.9813,355.5547 L218.9813,354.3984 Q218.9813,353.0703 219.5906,351.9297 Q220.2156,350.7734 221.3094,350.1641 Q222.4031,349.5391 223.6375,349.5391 Q224.3719,349.5391 225.0125,349.7109 Q225.6688,349.8672 226.2156,350.2266 Z " fill="#000000"/><text fill="#000000" font-family="FG Virgil" font-size="12" font-style="italic" lengthAdjust="spacing" textLength="30" x="269.05" y="350.457">«util»</text><text fill="#000000" font-family="FG Virgil" font-size="14" lengthAdjust="spacing" textLength="87" x="240.55" y="367.627">AuthzRegistry</text><path d="M195.5,375.7031 L195.5,375.9834 L205.3667,375.1507 L215.2333,375.9608 L225.1,376.236 L234.9667,374.7519 L244.8333,375.5995 L254.7,375.1345 L264.5667,375.1918 L274.4333,375.6122 L284.3,374.7813 L294.1667,376.4413 L304.0333,374.8628 L313.9,375.4394 L323.7667,376.2791 L333.6333,375.5888 L343.5,375.7031 " fill="#F1F1F1" style="stroke:#181818;stroke-width:0.5;"/><path d="M195.5,383.7031 L195.5,383.9834 L205.3667,383.1507 L215.2333,383.9608 L225.1,384.236 L234.9667,382.7519 L244.8333,383.5995 L254.7,383.1345 L264.5667,383.1918 L274.4333,383.6122 L284.3,382.7813 L294.1667,384.4413 L304.0333,382.8628 L313.9,383.4394 L323.7667,384.2791 L333.6333,383.5888 L343.5,383.7031 " fill="#F1F1F1" style="stroke:#181818;stroke-width:0.5;"/><text fill="#000000" font-family="FG Virgil" font-size="14" lengthAdjust="spacing" textLength="138" x="200.5" y="402.2363">authorizationService()</text><text fill="#000000" font-family="FG Virgil" font-size="14" lengthAdjust="spacing" textLength="85" x="200.5" y="419.8457">userService()</text></g><!--MD5=[54a33dd013dd881697601ca49de6dfbc]
class AuthorizationService--><g id="elem_AuthorizationService"><polygon fill="#F1F1F1" points="382,342,382,342.2102,392.0357,341.5857,402.0714,342.1933,412.1071,342.3997,422.1429,341.2866,432.1786,341.9223,442.2143,341.5735,452.25,341.6165,462.2857,341.9318,472.3214,341.3086,482.3571,342.5536,492.3929,341.3697,502.4286,341.8022,512.4643,342.4319,522.5,341.9142,532.5357,342.0682,542.5714,341.9681,552.6071,342.1785,562.6429,342.2391,572.6786,342.5857,582.7143,342.6711,592.75,342.6793,602.7857,342.2546,612.8214,342.4636,622.8571,342.7022,632.8929,341.2788,642.9286,342.6785,652.9643,341.7035,663,342,663.0681,342.1644,663.2904,341.994,663.6984,342.2718,664.1553,342.6677,664.408,342.5708,664.7678,342.7322,664.8002,342.7457,665.0185,343.129,665.1888,343.4924,665.2059,343.7924,665.442,344.1831,665.5,344.5,664.9276,344.5,665.7844,354.6875,666.0482,364.875,665.9445,375.0625,666.113,385.25,665.0169,395.4375,664.8478,405.625,665.5,415.8125,665.3086,415.7332,665.3354,416.1585,665.1466,416.4945,665.2705,416.9601,664.8604,417.2044,664.7678,417.5803,664.724,417.4746,664.4433,417.797,663.9756,417.6678,663.6409,417.8597,663.4363,418.3659,663,418.3125,663,418.7482,652.9643,419.047,642.9286,417.9907,632.8929,418.6317,622.8571,418.9029,612.8214,417.8401,602.7857,418.2166,592.75,418.4385,582.7143,418.9643,572.6786,418.3083,562.6429,418.7751,552.6071,417.7587,542.5714,417.6352,532.5357,418.8161,522.5,417.5956,512.4643,418.8215,502.4286,418.5191,492.3929,418.0446,482.3571,417.9587,472.3214,418.7713,462.2857,418.0132,452.25,418.9044,442.2143,417.7598,432.1786,418.9299,422.1429,418.7968,412.1071,418.5575,402.0714,418.3597,392.0357,419.0391,382,418.3125,382.0783,418.5015,381.668,418.2182,381.3271,418.1022,380.9227,417.833,380.6772,417.9474,380.2322,417.5803,380.2799,417.6,380.1389,417.2487,379.752,416.7956,379.6681,416.4679,379.8099,416.2338,379.5,415.8125,379.9298,415.8125,379.4571,405.625,379.1778,395.4375,379.2811,385.25,378.8138,375.0625,379.9147,364.875,380.2396,354.6875,379.5,344.5,379.6621,344.5671,379.8605,344.2351,379.7508,343.7755,379.9662,343.4505,379.9664,343.0363,380.2322,342.7322,380.2685,342.8197,380.6173,342.6618,381.0098,342.6095,381.2636,342.2222,381.6293,342.1051,382,342" style="stroke:#181818;stroke-width:0.5;"/><polygon fill="#C2C2C2" points="464.8108,366.0272,463.1984,368.2304,461.2912,371.4573,458.5636,373.632,455.6974,374.8212,453.412,374.9244,450.4747,373.4371,447.7032,372.4655,445.5995,370.4927,444.4961,368.2343,443.8417,366.4361,443.2006,364.0873,442.16,362.066,442.9596,360.0926,443.6602,357.9308,446.2893,356.221,448.139,354.0027,450.4284,353.266,453.1501,352.6316,456.6404,353.0085,458.5521,353.9101,460.7747,354.3188,463.4772,357.0875,464.4193,360.0105,464.8286,362.0049,464.365,365.2914" style="stroke:#181818;stroke-width:1.0;"/><path d="M456.5156,359.2266 Q456.6719,359.0078 456.8594,358.8984 Q457.0469,358.7891 457.2656,358.7891 Q457.6406,358.7891 457.875,359.0547 Q458.1094,359.3047 458.1094,359.9141 L458.1094,361.3672 Q458.1094,361.9766 457.875,362.2422 Q457.6406,362.5078 457.2656,362.5078 Q456.9219,362.5078 456.7188,362.3047 Q456.5156,362.1172 456.4063,361.6016 Q456.3594,361.2422 456.1719,361.0547 Q455.8438,360.6797 455.2344,360.4609 Q454.625,360.2422 454,360.2422 Q453.2344,360.2422 452.5938,360.5703 Q451.9688,360.8984 451.4688,361.6484 Q450.9844,362.3984 450.9844,363.4297 L450.9844,364.5234 Q450.9844,365.7578 451.875,366.5859 Q452.7656,367.3984 454.3594,367.3984 Q455.2969,367.3984 455.9531,367.1484 Q456.3438,366.9922 456.7656,366.5547 Q457.0313,366.2891 457.1719,366.2109 Q457.3281,366.1328 457.5313,366.1328 Q457.8594,366.1328 458.1094,366.3984 Q458.375,366.6484 458.375,366.9922 Q458.375,367.3359 458.0313,367.7422 Q457.5313,368.3203 456.7344,368.6484 Q455.6563,369.1016 454.3594,369.1016 Q452.8438,369.1016 451.6406,368.4766 Q450.6563,367.9766 449.9688,366.9141 Q449.2813,365.8359 449.2813,364.5547 L449.2813,363.3984 Q449.2813,362.0703 449.8906,360.9297 Q450.5156,359.7734 451.6094,359.1641 Q452.7031,358.5391 453.9375,358.5391 Q454.6719,358.5391 455.3125,358.7109 Q455.9688,358.8672 456.5156,359.2266 Z " fill="#000000"/><text fill="#000000" font-family="FG Virgil" font-size="12" font-style="italic" lengthAdjust="spacing" textLength="53" x="512.25" y="359.457">«service»</text><text fill="#000000" font-family="FG Virgil" font-size="14" lengthAdjust="spacing" textLength="129" x="474.25" y="376.627">AuthorizationService</text><path d="M380.5,384.7031 L380.5,384.9834 L390.6429,384.1507 L400.7857,384.9608 L410.9286,385.236 L421.0714,383.7519 L431.2143,384.5995 L441.3571,384.1345 L451.5,384.1918 L461.6429,384.6122 L471.7857,383.7813 L481.9286,385.4413 L492.0714,383.8628 L502.2143,384.4394 L512.3571,385.2791 L522.5,384.5888 L532.6429,384.7941 L542.7857,384.6605 L552.9286,384.9412 L563.0714,385.022 L573.2143,385.484 L583.3571,385.5979 L593.5,385.6088 L603.6429,385.0426 L613.7857,385.3212 L623.9286,385.6394 L634.0714,383.7415 L644.2143,385.6078 L654.3571,384.3078 L664.5,384.7031 " fill="#F1F1F1" style="stroke:#181818;stroke-width:0.5;"/><path d="M380.5,392.7031 L380.5,392.9834 L390.6429,392.1507 L400.7857,392.9608 L410.9286,393.236 L421.0714,391.7519 L431.2143,392.5995 L441.3571,392.1345 L451.5,392.1918 L461.6429,392.6122 L471.7857,391.7813 L481.9286,393.4413 L492.0714,391.8628 L502.2143,392.4394 L512.3571,393.2791 L522.5,392.5888 L532.6429,392.7941 L542.7857,392.6605 L552.9286,392.9412 L563.0714,393.022 L573.2143,393.484 L583.3571,393.5979 L593.5,393.6088 L603.6429,393.0426 L613.7857,393.3212 L623.9286,393.6394 L634.0714,391.7415 L644.2143,393.6078 L654.3571,392.3078 L664.5,392.7031 " fill="#F1F1F1" style="stroke:#181818;stroke-width:0.5;"/><text fill="#000000" font-family="FG Virgil" font-size="14" lengthAdjust="spacing" textLength="274" x="385.5" y="411.2363">ensureAuthenticatedUserHasAnyOf(Role...)</text></g><!--MD5=[dee3711f8c64a3e2b37828f172d71c22]
class UserManagementService--><g id="elem_UserManagementService"><polygon fill="#F1F1F1" points="703.5,333,703.5,333.2102,713.5,332.5857,723.5,333.1933,733.5,333.3997,743.5,332.2866,753.5,332.9223,763.5,332.5735,773.5,332.6165,783.5,332.9318,793.5,332.3086,803.5,333.5536,813.5,332.3697,823.5,332.8022,833.5,333.4319,843.5,332.9142,853.5,333.0682,863.5,332.9681,873.5,333.1785,883.5,333.2391,893.5,333.5857,903.5,333.6711,913.5,333.6793,923.5,333.2546,933.5,333.4636,943.5,333.7022,953.5,332.2788,963.5,333.6785,973.5,332.7035,983.5,333.5338,993.5,332.505,1003.5,332.9315,1013.5,333.7416,1023.5,332.9513,1033.5,333.1053,1043.5,333.3386,1053.5,333.4162,1063.5,332.9961,1073.5,333.2872,1083.5,332.4276,1093.5,333.2844,1103.5,333.5482,1113.5,333.4445,1123.5,333.613,1133.5,332.5169,1143.5,332.3478,1153.5,332.3786,1163.5,332.9411,1173.5,332.8035,1183.5,333.6814,1193.5,332.8253,1203.5,332.6569,1213.5,333.2283,1223.5,332.3332,1233.5,333,1233.4338,332.8401,1233.9363,333.3463,1234.2627,333.4271,1234.6544,333.6655,1234.8732,333.4867,1235.2678,333.7322,1235.3661,333.773,1235.596,334.1611,1235.4152,334.3791,1235.6776,334.7807,1235.8924,335.1625,1236,335.5,1236.6518,335.5,1235.9958,345.3802,1236.4626,355.2604,1235.4462,365.1406,1235.3227,375.0208,1236.5036,384.901,1235.2831,394.7813,1236.509,404.6615,1236.2066,414.5417,1236,424.4219,1235.9175,424.3877,1235.7446,424.7303,1235.8484,425.1875,1235.4685,425.4444,1235.5965,425.9116,1235.2678,426.1896,1235.1973,426.0194,1234.993,426.5262,1234.6224,426.6317,1234.2384,426.7044,1233.8596,426.79,1233.5,426.9219,1233.5,427.6485,1223.5,427.5355,1213.5,427.0911,1203.5,427.1901,1193.5,426.7916,1183.5,427.6383,1173.5,427.0767,1163.5,427.0944,1153.5,426.3135,1143.5,426.5167,1133.5,427.4526,1123.5,427.3516,1113.5,426.8789,1103.5,426.5997,1093.5,426.7029,1083.5,426.2357,1073.5,427.3366,1063.5,427.6614,1053.5,427.4483,1043.5,427.6168,1033.5,426.7851,1023.5,427.0091,1013.5,426.5343,1003.5,427.2059,993.5,427.1686,983.5,427.4743,973.5,426.6922,963.5,426.7875,953.5,427.3653,943.5,427.4892,933.5,426.4093,923.5,426.728,913.5,427.0711,903.5,426.311,893.5,427.2753,883.5,427.1799,873.5,426.8211,863.5,427.0641,853.5,427.6506,843.5,426.609,833.5,427.2369,823.5,427.2075,813.5,427.0376,803.5,427.0628,793.5,427.0354,783.5,426.2977,773.5,426.5211,763.5,426.4603,753.5,426.9857,743.5,427.01,733.5,427.0836,723.5,426.6309,713.5,426.8544,703.5,426.9219,703.4847,426.8849,703.22,426.9531,702.8473,426.7603,702.3774,426.333,702.0765,426.3136,701.7322,426.1896,701.5545,426.116,701.6746,425.8729,701.6267,425.5602,701.4606,425.1984,701.0123,424.7199,701,424.4219,701.464,424.4219,700.2572,414.5417,701.2002,404.6615,700.7007,394.7813,701.0967,384.901,701.2403,375.0208,701.4721,365.1406,700.2801,355.2604,701.4755,345.3802,701,335.5,701.0549,335.5227,701.2559,335.1918,701.5232,334.8883,701.441,334.44,701.6398,334.1081,701.7322,333.7322,701.7595,333.798,702.1109,333.6465,702.4392,333.4391,702.8836,333.5118,703.0687,332.9587,703.5,333" style="stroke:#181818;stroke-width:0.5;"/><polygon fill="#C2C2C2" points="896.3108,357.0272,894.6984,359.2304,892.7912,362.4573,890.0636,364.632,887.1974,365.8212,884.912,365.9244,881.9747,364.4371,879.2032,363.4655,877.0995,361.4927,875.9961,359.2343,875.3417,357.4361,874.7006,355.0873,873.66,353.066,874.4596,351.0926,875.1602,348.9308,877.7893,347.221,879.639,345.0027,881.9284,344.266,884.6501,343.6316,888.1404,344.0085,890.0521,344.9101,892.2747,345.3188,894.9772,348.0875,895.9193,351.0105,896.3286,353.0049,895.865,356.2914" style="stroke:#181818;stroke-width:1.0;"/><path d="M888.0156,350.2266 Q888.1719,350.0078 888.3594,349.8984 Q888.5469,349.7891 888.7656,349.7891 Q889.1406,349.7891 889.375,350.0547 Q889.6094,350.3047 889.6094,350.9141 L889.6094,352.3672 Q889.6094,352.9766 889.375,353.2422 Q889.1406,353.5078 888.7656,353.5078 Q888.4219,353.5078 888.2188,353.3047 Q888.0156,353.1172 887.9063,352.6016 Q887.8594,352.2422 887.6719,352.0547 Q887.3438,351.6797 886.7344,351.4609 Q886.125,351.2422 885.5,351.2422 Q884.7344,351.2422 884.0938,351.5703 Q883.4688,351.8984 882.9688,352.6484 Q882.4844,353.3984 882.4844,354.4297 L882.4844,355.5234 Q882.4844,356.7578 883.375,357.5859 Q884.2656,358.3984 885.8594,358.3984 Q886.7969,358.3984 887.4531,358.1484 Q887.8438,357.9922 888.2656,357.5547 Q888.5313,357.2891 888.6719,357.2109 Q888.8281,357.1328 889.0313,357.1328 Q889.3594,357.1328 889.6094,357.3984 Q889.875,357.6484 889.875,357.9922 Q889.875,358.3359 889.5313,358.7422 Q889.0313,359.3203 888.2344,359.6484 Q887.1563,360.1016 885.8594,360.1016 Q884.3438,360.1016 883.1406,359.4766 Q882.1563,358.9766 881.4688,357.9141 Q880.7813,356.8359 880.7813,355.5547 L880.7813,354.3984 Q880.7813,353.0703 881.3906,351.9297 Q882.0156,350.7734 883.1094,350.1641 Q884.2031,349.5391 885.4375,349.5391 Q886.1719,349.5391 886.8125,349.7109 Q887.4688,349.8672 888.0156,350.2266 Z " fill="#000000"/><text fill="#000000" font-family="FG Virgil" font-size="12" font-style="italic" lengthAdjust="spacing" textLength="53" x="958.25" y="350.457">«service»</text><text fill="#000000" font-family="FG Virgil" font-size="14" lengthAdjust="spacing" textLength="158" x="905.75" y="367.627">UserManagementService</text><path d="M702,375.7031 L702,375.9834 L712.0566,375.1507 L722.1132,375.9608 L732.1698,376.236 L742.2264,374.7519 L752.283,375.5995 L762.3396,375.1345 L772.3962,375.1918 L782.4528,375.6122 L792.5094,374.7813 L802.566,376.4413 L812.6226,374.8628 L822.6792,375.4394 L832.7358,376.2791 L842.7925,375.5888 L852.8491,375.7941 L862.9057,375.6605 L872.9623,375.9412 L883.0189,376.022 L893.0755,376.484 L903.1321,376.5979 L913.1887,376.6088 L923.2453,376.0426 L933.3019,376.3212 L943.3585,376.6394 L953.4151,374.7415 L963.4717,376.6078 L973.5283,375.3078 L983.5849,376.4149 L993.6415,375.0431 L1003.6981,375.6118 L1013.7547,376.6919 L1023.8113,375.6381 L1033.8679,375.8435 L1043.9245,376.1546 L1053.9811,376.2581 L1064.0377,375.6979 L1074.0943,376.0861 L1084.1509,374.9399 L1094.2075,376.0823 L1104.2642,376.4341 L1114.3208,376.2958 L1124.3774,376.5205 L1134.434,375.059 L1144.4906,374.8335 L1154.5472,374.8746 L1164.6038,375.6246 L1174.6604,375.4411 L1184.717,376.6117 L1194.7736,375.4702 L1204.8302,375.2457 L1214.8868,376.0075 L1224.9434,374.814 L1235,375.7031 " fill="#F1F1F1" style="stroke:#181818;stroke-width:0.5;"/><path d="M702,383.7031 L702,383.9834 L712.0566,383.1507 L722.1132,383.9608 L732.1698,384.236 L742.2264,382.7519 L752.283,383.5995 L762.3396,383.1345 L772.3962,383.1918 L782.4528,383.6122 L792.5094,382.7813 L802.566,384.4413 L812.6226,382.8628 L822.6792,383.4394 L832.7358,384.2791 L842.7925,383.5888 L852.8491,383.7941 L862.9057,383.6605 L872.9623,383.9412 L883.0189,384.022 L893.0755,384.484 L903.1321,384.5979 L913.1887,384.6088 L923.2453,384.0426 L933.3019,384.3212 L943.3585,384.6394 L953.4151,382.7415 L963.4717,384.6078 L973.5283,383.3078 L983.5849,384.4149 L993.6415,383.0431 L1003.6981,383.6118 L1013.7547,384.6919 L1023.8113,383.6381 L1033.8679,383.8435 L1043.9245,384.1546 L1053.9811,384.2581 L1064.0377,383.6979 L1074.0943,384.0861 L1084.1509,382.9399 L1094.2075,384.0823 L1104.2642,384.4341 L1114.3208,384.2958 L1124.3774,384.5205 L1134.434,383.059 L1144.4906,382.8335 L1154.5472,382.8746 L1164.6038,383.6246 L1174.6604,383.4411 L1184.717,384.6117 L1194.7736,383.4702 L1204.8302,383.2457 L1214.8868,384.0075 L1224.9434,382.814 L1235,383.7031 " fill="#F1F1F1" style="stroke:#181818;stroke-width:0.5;"/><text fill="#000000" font-family="FG Virgil" font-size="14" lengthAdjust="spacing" textLength="523" x="707" y="402.2363">registerNewUser(String, String, String, String, Role, String, String, String, Calendar)</text><text fill="#000000" font-family="FG Virgil" font-size="14" lengthAdjust="spacing" textLength="142" x="707" y="419.8457">generateMecNumber()</text></g><!--MD5=[c04a228c2edc8cb4edb0b8536253a65d]
class UserBuilder--><g id="elem_UserBuilder"><polygon fill="#F1F1F1" points="389.5,505,389.5,505.2102,399.5,504.5857,409.5,505.1933,419.5,505.3997,429.5,504.2866,439.5,504.9223,449.5,504.5735,459.5,504.6165,469.5,504.9318,479.5,504.3086,489.5,505.5536,499.5,504.3697,509.5,504.8022,519.5,505.4319,529.5,504.9142,539.5,505.0682,549.5,504.9681,559.5,505.1785,569.5,505.2391,579.5,505.5857,589.5,505.6711,599.5,505.6793,609.5,505.2546,619.5,505.4636,629.5,505.7022,639.5,504.2788,649.5,505.6785,659.5,504.7035,669.5,505.5338,679.5,504.505,689.5,504.9315,699.5,505.7416,709.5,504.9513,719.5,505.1053,729.5,505,729.5432,505.1043,729.9066,505.2746,730.2066,505.2917,730.5973,505.5278,730.8412,505.4095,731.2678,505.7322,731.3553,505.7685,731.583,506.1557,731.6976,506.496,731.8959,506.8711,731.7048,507.0848,732,507.5,731.3478,507.5,731.3786,517.625,731.9411,527.75,731.8035,537.875,732.6814,548,731.8253,558.125,731.6569,568.25,732.2283,578.375,731.3332,588.5,731.4809,598.625,732.649,608.75,732.4357,618.875,732.7345,629,731.6782,639.125,732,649.25,732.0983,649.2907,732.0354,649.6789,731.5616,649.8968,731.5311,650.2984,731.453,650.6803,731.2678,651.0178,731.3509,651.2185,730.9137,651.1629,730.6197,651.4531,730.1365,651.2866,729.7672,651.395,729.5,651.75,729.5,652.2536,719.5,651.0331,709.5,652.259,699.5,651.9566,689.5,651.4821,679.5,651.3962,669.5,652.2088,659.5,651.4507,649.5,652.3419,639.5,651.1973,629.5,652.3674,619.5,652.2343,609.5,651.995,599.5,651.7972,589.5,652.4766,579.5,652.3636,569.5,651.9193,559.5,652.0182,549.5,651.6197,539.5,652.4665,529.5,651.9049,519.5,651.9226,509.5,651.1416,499.5,651.3448,489.5,652.2807,479.5,652.1798,469.5,651.7071,459.5,651.4278,449.5,651.5311,439.5,651.0638,429.5,652.1647,419.5,652.4896,409.5,652.2764,399.5,652.4449,389.5,651.75,389.4826,651.7079,389.1576,651.6304,388.7435,651.3377,388.4756,651.3981,388.1173,651.2402,387.7322,651.0178,387.9023,651.0882,387.5151,650.6349,387.3979,650.2935,387.4295,650.0137,387.3212,649.6759,387,649.25,386.4875,649.25,386.8061,639.125,387.1493,629,386.3892,618.875,387.3534,608.75,387.258,598.625,386.8992,588.5,387.1422,578.375,387.7287,568.25,386.6871,558.125,387.315,548,387.2856,537.875,387.1158,527.75,387.1409,517.625,387,507.5,387.0349,507.5145,386.9542,507.0668,387.1695,506.7418,387.2972,506.3805,387.6054,506.0939,387.7322,505.7322,387.7435,505.7594,388.1064,505.6356,388.4022,505.3497,388.7843,505.2721,389.1311,505.1094,389.5,505" style="stroke:#181818;stroke-width:0.5;"/><polygon fill="#C2C2C2" points="529.8108,529.0272,528.1984,531.2304,526.2912,534.4573,523.5636,536.632,520.6974,537.8212,518.412,537.9244,515.4747,536.4371,512.7032,535.4655,510.5995,533.4927,509.4961,531.2343,508.8417,529.4361,508.2006,527.0873,507.16,525.066,507.9596,523.0926,508.6602,520.9308,511.2893,519.221,513.139,517.0027,515.4284,516.266,518.1501,515.6316,521.6404,516.0085,523.5521,516.9101,525.7747,517.3188,528.4772,520.0875,529.4193,523.0105,529.8286,525.0049,529.365,528.2914" style="stroke:#181818;stroke-width:1.0;"/><path d="M521.5156,522.2266 Q521.6719,522.0078 521.8594,521.8984 Q522.0469,521.7891 522.2656,521.7891 Q522.6406,521.7891 522.875,522.0547 Q523.1094,522.3047 523.1094,522.9141 L523.1094,524.3672 Q523.1094,524.9766 522.875,525.2422 Q522.6406,525.5078 522.2656,525.5078 Q521.9219,525.5078 521.7188,525.3047 Q521.5156,525.1172 521.4063,524.6016 Q521.3594,524.2422 521.1719,524.0547 Q520.8438,523.6797 520.2344,523.4609 Q519.625,523.2422 519,523.2422 Q518.2344,523.2422 517.5938,523.5703 Q516.9688,523.8984 516.4688,524.6484 Q515.9844,525.3984 515.9844,526.4297 L515.9844,527.5234 Q515.9844,528.7578 516.875,529.5859 Q517.7656,530.3984 519.3594,530.3984 Q520.2969,530.3984 520.9531,530.1484 Q521.3438,529.9922 521.7656,529.5547 Q522.0313,529.2891 522.1719,529.2109 Q522.3281,529.1328 522.5313,529.1328 Q522.8594,529.1328 523.1094,529.3984 Q523.375,529.6484 523.375,529.9922 Q523.375,530.3359 523.0313,530.7422 Q522.5313,531.3203 521.7344,531.6484 Q520.6563,532.1016 519.3594,532.1016 Q517.8438,532.1016 516.6406,531.4766 Q515.6563,530.9766 514.9688,529.9141 Q514.2813,528.8359 514.2813,527.5547 L514.2813,526.3984 Q514.2813,525.0703 514.8906,523.9297 Q515.5156,522.7734 516.6094,522.1641 Q517.7031,521.5391 518.9375,521.5391 Q519.6719,521.5391 520.3125,521.7109 Q520.9688,521.8672 521.5156,522.2266 Z " fill="#000000"/><text fill="#000000" font-family="FG Virgil" font-size="12" font-style="italic" lengthAdjust="spacing" textLength="53" x="549.25" y="522.457">«builder»</text><text fill="#000000" font-family="FG Virgil" font-size="14" lengthAdjust="spacing" textLength="73" x="539.25" y="539.627">UserBuilder</text><path d="M388,547.7031 L388,547.9834 L398.0882,547.1507 L408.1765,547.9608 L418.2647,548.236 L428.3529,546.7519 L438.4412,547.5995 L448.5294,547.1345 L458.6176,547.1918 L468.7059,547.6122 L478.7941,546.7813 L488.8824,548.4413 L498.9706,546.8628 L509.0588,547.4394 L519.1471,548.2791 L529.2353,547.5888 L539.3235,547.7941 L549.4118,547.6605 L559.5,547.9412 L569.5882,548.022 L579.6765,548.484 L589.7647,548.5979 L599.8529,548.6088 L609.9412,548.0426 L620.0294,548.3212 L630.1176,548.6394 L640.2059,546.7415 L650.2941,548.6078 L660.3824,547.3078 L670.4706,548.4149 L680.5588,547.0431 L690.6471,547.6118 L700.7353,548.6919 L710.8235,547.6381 L720.9118,547.8435 L731,547.7031 " fill="#F1F1F1" style="stroke:#181818;stroke-width:0.5;"/><path d="M388,555.7031 L388,555.9834 L398.0882,555.1507 L408.1765,555.9608 L418.2647,556.236 L428.3529,554.7519 L438.4412,555.5995 L448.5294,555.1345 L458.6176,555.1918 L468.7059,555.6122 L478.7941,554.7813 L488.8824,556.4413 L498.9706,554.8628 L509.0588,555.4394 L519.1471,556.2791 L529.2353,555.5888 L539.3235,555.7941 L549.4118,555.6605 L559.5,555.9412 L569.5882,556.022 L579.6765,556.484 L589.7647,556.5979 L599.8529,556.6088 L609.9412,556.0426 L620.0294,556.3212 L630.1176,556.6394 L640.2059,554.7415 L650.2941,556.6078 L660.3824,555.3078 L670.4706,556.4149 L680.5588,555.0431 L690.6471,555.6118 L700.7353,556.6919 L710.8235,555.6381 L720.9118,555.8435 L731,555.7031 " fill="#F1F1F1" style="stroke:#181818;stroke-width:0.5;"/><text fill="#000000" font-family="FG Virgil" font-size="14" lengthAdjust="spacing" textLength="333" x="393" y="574.2363">with(String, String, String, String, String, Role, String)</text><text fill="#000000" font-family="FG Virgil" font-size="14" lengthAdjust="spacing" textLength="135" x="393" y="591.8457">createdOn(Calendar)</text><text fill="#000000" font-family="FG Virgil" font-size="14" lengthAdjust="spacing" textLength="126" x="393" y="609.4551">withAcronym(String)</text><text fill="#000000" font-family="FG Virgil" font-size="14" lengthAdjust="spacing" textLength="217" x="393" y="627.0645">withMecanographicNumber(String)</text><text fill="#000000" font-family="FG Virgil" font-size="14" lengthAdjust="spacing" textLength="40" x="393" y="644.6738">build()</text></g><!--MD5=[49911543bde009bea1ce58d6156faf98]
class user:User--><g id="elem_user:User"><polygon fill="#F1F1F1" points="9.5,730,9.5,730.2102,19.5,729.5857,29.5,730.1933,39.5,730.3997,49.5,729.2866,59.5,729.9223,69.5,729.5735,79.5,729.6165,89.5,729.9318,99.5,729.3086,109.5,730.5536,119.5,729.3697,129.5,729.8022,139.5,730.4319,149.5,729.9142,159.5,730.0682,169.5,729.9681,179.5,730.1785,189.5,730.2391,199.5,730.5857,209.5,730.6711,219.5,730.6793,229.5,730.2546,239.5,730.4636,249.5,730.7022,259.5,729.2788,269.5,730.6785,279.5,729.7035,289.5,730.5338,299.5,729.505,309.5,729.9315,319.5,730.7416,329.5,729.9513,339.5,730.1053,349.5,730.3386,359.5,730.4162,369.5,729.9961,379.5,730.2872,389.5,729.4276,399.5,730.2844,409.5,730.5482,419.5,730.4445,429.5,730.613,439.5,729.5169,449.5,729.3478,459.5,729.3786,469.5,729.9411,479.5,729.8035,489.5,730.6814,499.5,729.8253,509.5,729.6569,519.5,730.2283,529.5,729.3332,539.5,729.4809,549.5,730.649,559.5,730.4357,569.5,730.7345,579.5,729.6782,589.5,730.3192,599.5,730.5904,609.5,729.5276,619.5,729.9041,629.5,730.126,639.5,730.6518,649.5,729.9958,659.5,730.4626,669.5,729.4462,679.5,729.3227,689.5,730.5036,699.5,729.2831,709.5,730.509,719.5,730.2066,729.5,729.7321,739.5,729.6462,749.5,730.4588,759.5,729.7007,769.5,730.5919,779.5,729.4473,789.5,730.6174,799.5,730.4843,809.5,730.245,819.5,730.0472,829.5,730.7266,839.5,730.6136,849.5,730.1693,859.5,730,859.5342,730.0826,859.8369,730.1063,860.2985,730.5135,860.5804,730.487,860.9362,730.6389,861.2678,730.7322,861.0804,730.6546,861.2894,731.0341,861.7241,731.507,861.8395,731.8477,861.8403,732.141,862,732.5,861.6778,732.5,861.7811,742.8451,861.3138,753.1901,862.4147,763.5352,862.7396,773.8802,862.5264,784.2253,862.6949,794.5703,861.8633,804.9154,862.0872,815.2604,861.6124,825.6055,862.284,835.9505,862.2468,846.2956,862,856.6406,862.1701,856.7111,861.7828,856.9649,861.6657,857.3306,861.6972,857.7579,861.5889,858.1272,861.2678,858.4084,861.2024,858.2506,860.8895,858.4951,860.5797,858.7473,860.1292,858.6596,859.8986,859.103,859.5,859.1406,859.5,859.3986,849.5,859.0399,839.5,859.2829,829.5,859.8693,819.5,858.8278,809.5,859.4556,799.5,859.4263,789.5,859.2564,779.5,859.2815,769.5,859.2541,759.5,858.5165,749.5,858.7398,739.5,858.6791,729.5,859.2044,719.5,859.2288,709.5,859.3024,699.5,858.8496,689.5,859.0731,679.5,859.0204,669.5,859.7175,659.5,859.5672,649.5,858.6551,639.5,859.0677,629.5,858.5634,619.5,859.429,609.5,859.7491,599.5,859.6852,589.5,858.7051,579.5,859.6046,569.5,858.3978,559.5,859.3408,549.5,858.8413,539.5,859.2373,529.5,859.381,519.5,859.6127,509.5,858.4207,499.5,859.6161,489.5,859.3188,479.5,859.496,469.5,859.8884,459.5,859.1461,449.5,859.3159,439.5,859.3541,429.5,859.3379,419.5,859.1398,409.5,859.8513,399.5,858.5309,389.5,859.7059,379.5,858.5166,369.5,858.6003,359.5,859.1806,349.5,859.1689,339.5,858.6478,329.5,859.5543,319.5,859.2495,309.5,859.8673,299.5,859.8077,289.5,858.6924,279.5,858.7427,269.5,859.0114,259.5,859.4961,249.5,859.5436,239.5,859.4418,229.5,858.7987,219.5,859.777,209.5,859.7744,199.5,859.0933,189.5,858.9016,179.5,858.7392,169.5,858.926,159.5,859.278,149.5,859.0722,139.5,858.7228,129.5,859.628,119.5,858.6817,109.5,859.643,99.5,859.5679,89.5,859.5125,79.5,859.8331,69.5,858.8947,59.5,858.84,49.5,859.6595,39.5,858.5437,29.5,858.9066,19.5,859.2561,9.5,859.1406,9.5088,859.1618,9.1007,858.8838,8.7874,858.8345,8.5343,858.9306,8.1685,858.7545,7.7322,858.4084,7.5486,858.3323,7.61,858.0649,7.2811,857.6357,7.2848,857.3444,7.2367,857.0316,7,856.6406,7.4199,856.6406,6.3353,846.2956,7.4005,835.9505,7.0084,825.6055,6.4447,815.2604,6.5289,804.9154,7.3266,794.5703,7.2499,784.2253,6.9836,773.8802,6.3279,763.5352,7.6581,753.1901,6.6882,742.8451,7,732.5,6.8374,732.4326,7.1257,732.1379,7.4745,731.8681,7.6289,731.5178,7.5966,731.0903,7.7322,730.7322,7.7129,730.6857,8.1074,730.6381,8.4631,730.4967,8.7281,730.1365,9.1993,730.2739,9.5,730" style="stroke:#181818;stroke-width:0.5;"/><polygon fill="#C2C2C2" points="410.8108,754.0272,409.1984,756.2304,407.2912,759.4573,404.5636,761.632,401.6974,762.8212,399.412,762.9244,396.4747,761.4371,393.7032,760.4655,391.5995,758.4927,390.4961,756.2343,389.8417,754.4361,389.2006,752.0873,388.16,750.066,388.9596,748.0926,389.6602,745.9308,392.2893,744.221,394.139,742.0027,396.4284,741.266,399.1501,740.6316,402.6404,741.0085,404.5521,741.9101,406.7747,742.3188,409.4772,745.0875,410.4193,748.0105,410.8286,750.0049,410.365,753.2914" style="stroke:#181818;stroke-width:1.0;"/><path d="M402.5156,747.2266 Q402.6719,747.0078 402.8594,746.8984 Q403.0469,746.7891 403.2656,746.7891 Q403.6406,746.7891 403.875,747.0547 Q404.1094,747.3047 404.1094,747.9141 L404.1094,749.3672 Q404.1094,749.9766 403.875,750.2422 Q403.6406,750.5078 403.2656,750.5078 Q402.9219,750.5078 402.7188,750.3047 Q402.5156,750.1172 402.4063,749.6016 Q402.3594,749.2422 402.1719,749.0547 Q401.8438,748.6797 401.2344,748.4609 Q400.625,748.2422 400,748.2422 Q399.2344,748.2422 398.5938,748.5703 Q397.9688,748.8984 397.4688,749.6484 Q396.9844,750.3984 396.9844,751.4297 L396.9844,752.5234 Q396.9844,753.7578 397.875,754.5859 Q398.7656,755.3984 400.3594,755.3984 Q401.2969,755.3984 401.9531,755.1484 Q402.3438,754.9922 402.7656,754.5547 Q403.0313,754.2891 403.1719,754.2109 Q403.3281,754.1328 403.5313,754.1328 Q403.8594,754.1328 404.1094,754.3984 Q404.375,754.6484 404.375,754.9922 Q404.375,755.3359 404.0313,755.7422 Q403.5313,756.3203 402.7344,756.6484 Q401.6563,757.1016 400.3594,757.1016 Q398.8438,757.1016 397.6406,756.4766 Q396.6563,755.9766 395.9688,754.9141 Q395.2813,753.8359 395.2813,752.5547 L395.2813,751.3984 Q395.2813,750.0703 395.8906,748.9297 Q396.5156,747.7734 397.6094,747.1641 Q398.7031,746.5391 399.9375,746.5391 Q400.6719,746.5391 401.3125,746.7109 Q401.9688,746.8672 402.5156,747.2266 Z " fill="#000000"/><text fill="#000000" font-family="FG Virgil" font-size="12" font-style="italic" lengthAdjust="spacing" textLength="56" x="422.75" y="747.457">«domain»</text><text fill="#000000" font-family="FG Virgil" font-size="14" lengthAdjust="spacing" textLength="61" x="420.25" y="764.627">user:User</text><path d="M8,772.7031 L8,772.9834 L18.0353,772.1507 L28.0706,772.9608 L38.1059,773.236 L48.1412,771.7519 L58.1765,772.5995 L68.2118,772.1345 L78.2471,772.1918 L88.2824,772.6122 L98.3176,771.7813 L108.3529,773.4413 L118.3882,771.8628 L128.4235,772.4394 L138.4588,773.2791 L148.4941,772.5888 L158.5294,772.7941 L168.5647,772.6605 L178.6,772.9412 L188.6353,773.022 L198.6706,773.484 L208.7059,773.5979 L218.7412,773.6088 L228.7765,773.0426 L238.8118,773.3212 L248.8471,773.6394 L258.8824,771.7415 L268.9176,773.6078 L278.9529,772.3078 L288.9882,773.4149 L299.0235,772.0431 L309.0588,772.6118 L319.0941,773.6919 L329.1294,772.6381 L339.1647,772.8435 L349.2,773.1546 L359.2353,773.2581 L369.2706,772.6979 L379.3059,773.0861 L389.3412,771.9399 L399.3765,773.0823 L409.4118,773.4341 L419.4471,773.2958 L429.4824,773.5205 L439.5176,772.059 L449.5529,771.8335 L459.5882,771.8746 L469.6235,772.6246 L479.6588,772.4411 L489.6941,773.6117 L499.7294,772.4702 L509.7647,772.2457 L519.8,773.0075 L529.8353,771.814 L539.8706,772.011 L549.9059,773.5684 L559.9412,773.284 L569.9765,773.6824 L580.0118,772.2741 L590.0471,773.1287 L600.0824,773.4904 L610.1176,772.0733 L620.1529,772.5753 L630.1882,772.8711 L640.2235,773.5721 L650.2588,772.6975 L660.2941,773.3199 L670.3294,771.9647 L680.3647,771.8001 L690.4,773.3746 L700.4353,771.7472 L710.4706,773.3817 L720.5059,772.9786 L730.5412,772.3459 L740.5765,772.2314 L750.6118,773.3148 L760.6471,772.304 L770.6824,773.4923 L780.7176,771.9661 L790.7529,773.5264 L800.7882,773.3489 L810.8235,773.0297 L820.8588,772.7661 L830.8941,773.6719 L840.9294,773.5212 L850.9647,772.9288 L861,772.7031 " fill="#F1F1F1" style="stroke:#181818;stroke-width:0.5;"/><path d="M8,780.7031 L8,780.9834 L18.0353,780.1507 L28.0706,780.9608 L38.1059,781.236 L48.1412,779.7519 L58.1765,780.5995 L68.2118,780.1345 L78.2471,780.1918 L88.2824,780.6122 L98.3176,779.7813 L108.3529,781.4413 L118.3882,779.8628 L128.4235,780.4394 L138.4588,781.2791 L148.4941,780.5888 L158.5294,780.7941 L168.5647,780.6605 L178.6,780.9412 L188.6353,781.022 L198.6706,781.484 L208.7059,781.5979 L218.7412,781.6088 L228.7765,781.0426 L238.8118,781.3212 L248.8471,781.6394 L258.8824,779.7415 L268.9176,781.6078 L278.9529,780.3078 L288.9882,781.4149 L299.0235,780.0431 L309.0588,780.6118 L319.0941,781.6919 L329.1294,780.6381 L339.1647,780.8435 L349.2,781.1546 L359.2353,781.2581 L369.2706,780.6979 L379.3059,781.0861 L389.3412,779.9399 L399.3765,781.0823 L409.4118,781.4341 L419.4471,781.2958 L429.4824,781.5205 L439.5176,780.059 L449.5529,779.8335 L459.5882,779.8746 L469.6235,780.6246 L479.6588,780.4411 L489.6941,781.6117 L499.7294,780.4702 L509.7647,780.2457 L519.8,781.0075 L529.8353,779.814 L539.8706,780.011 L549.9059,781.5684 L559.9412,781.284 L569.9765,781.6824 L580.0118,780.2741 L590.0471,781.1287 L600.0824,781.4904 L610.1176,780.0733 L620.1529,780.5753 L630.1882,780.8711 L640.2235,781.5721 L650.2588,780.6975 L660.2941,781.3199 L670.3294,779.9647 L680.3647,779.8001 L690.4,781.3746 L700.4353,779.7472 L710.4706,781.3817 L720.5059,780.9786 L730.5412,780.3459 L740.5765,780.2314 L750.6118,781.3148 L760.6471,780.304 L770.6824,781.4923 L780.7176,779.9661 L790.7529,781.5264 L800.7882,781.3489 L810.8235,781.0297 L820.8588,780.7661 L830.8941,781.6719 L840.9294,781.5212 L850.9647,780.9288 L861,780.7031 " fill="#F1F1F1" style="stroke:#181818;stroke-width:0.5;"/><text fill="#000000" font-family="FG Virgil" font-size="14" lengthAdjust="spacing" textLength="843" x="13" y="799.2363">User(ShortName, FullName, Password, EmailAddress, Role, BirthDate, MecanographicNumber, TaxPayerNumber, Acronym, Calendar)</text><text fill="#000000" font-family="FG Virgil" font-size="14" lengthAdjust="spacing" textLength="535" x="13" y="816.8457">validateParameters(ShortName, FullName, EmailAddress, Role, Password, Calendar)</text><text fill="#000000" font-family="FG Virgil" font-size="14" lengthAdjust="spacing" textLength="317" x="13" y="834.4551">validateMecNumber(MecanographicNumber, Role)</text><text fill="#000000" font-family="FG Virgil" font-size="14" lengthAdjust="spacing" textLength="226" x="13" y="852.0645">validateMecNumber(Acronym, Role)</text></g><!--MD5=[e8c189551b7885b999ad7cefb30fc2a3]
class PersistenceContext--><g id="elem_PersistenceContext"><polygon fill="#F1F1F1" points="894,540.5,894,540.7102,903.9333,540.0857,913.8667,540.6933,923.8,540.8997,933.7333,539.7866,943.6667,540.4223,953.6,540.0735,963.5333,540.1165,973.4667,540.4318,983.4,539.8086,993.3333,541.0536,1003.2667,539.8697,1013.2,540.3022,1023.1333,540.9319,1033.0667,540.4142,1043,540.5,1043.0087,540.521,1043.3495,540.6366,1043.7299,540.8479,1044.0912,541.013,1044.4889,541.2662,1044.7678,541.2322,1044.9744,541.3178,1045.1234,541.6724,1045.1391,541.9718,1045.3499,542.352,1045.5698,542.736,1045.5,543,1044.7788,543,1046.1785,553.1875,1045.2035,563.375,1046.0338,573.5625,1045.005,583.75,1045.4315,593.9375,1046.2416,604.125,1045.5,614.3125,1045.485,614.3063,1045.386,614.6795,1045.3114,615.0628,1045.1888,615.4263,1044.913,615.7262,1044.7678,616.0803,1044.8044,616.1687,1044.3412,616.0504,1044.0969,616.4607,1043.777,616.6884,1043.4103,616.803,1043,616.8125,1043,617.4255,1033.0667,616.3294,1023.1333,616.1603,1013.2,616.1911,1003.2667,616.7536,993.3333,616.616,983.4,617.4939,973.4667,616.6378,963.5333,616.4694,953.6,617.0408,943.6667,616.1457,933.7333,616.2934,923.8,617.4615,913.8667,617.2482,903.9333,617.547,894,616.8125,893.959,616.7134,893.6872,616.7644,893.3682,616.7014,892.8791,616.2277,892.5736,616.1972,892.2322,616.0803,892.271,616.0963,892.2865,615.8099,891.938,615.3726,891.9353,615.0786,891.4759,614.5954,891.5,614.3125,890.8227,614.3125,892.0036,604.125,890.7831,593.9375,892.009,583.75,891.7066,573.5625,891.2321,563.375,891.1462,553.1875,891.5,543,891.6413,543.0585,891.5543,542.6083,891.9752,542.3684,891.7691,541.8688,892.2759,541.6645,892.2322,541.2322,892.294,541.3814,892.617,541.1612,892.9454,540.9539,893.3856,541.0167,893.7247,540.8354,894,540.5" style="stroke:#181818;stroke-width:0.5;"/><polygon fill="#C2C2C2" points="917.5608,564.5272,915.9484,566.7304,914.0412,569.9573,911.3136,572.132,908.4474,573.3212,906.162,573.4244,903.2247,571.9371,900.4532,570.9655,898.3495,568.9927,897.2461,566.7343,896.5917,564.9361,895.9506,562.5873,894.91,560.566,895.7096,558.5926,896.4102,556.4308,899.0393,554.721,900.889,552.5027,903.1784,551.766,905.9001,551.1316,909.3904,551.5085,911.3021,552.4101,913.5247,552.8188,916.2272,555.5875,917.1693,558.5105,917.5786,560.5049,917.115,563.7914" style="stroke:#181818;stroke-width:1.0;"/><path d="M909.2656,557.7266 Q909.4219,557.5078 909.6094,557.3984 Q909.7969,557.2891 910.0156,557.2891 Q910.3906,557.2891 910.625,557.5547 Q910.8594,557.8047 910.8594,558.4141 L910.8594,559.8672 Q910.8594,560.4766 910.625,560.7422 Q910.3906,561.0078 910.0156,561.0078 Q909.6719,561.0078 909.4688,560.8047 Q909.2656,560.6172 909.1563,560.1016 Q909.1094,559.7422 908.9219,559.5547 Q908.5938,559.1797 907.9844,558.9609 Q907.375,558.7422 906.75,558.7422 Q905.9844,558.7422 905.3438,559.0703 Q904.7188,559.3984 904.2188,560.1484 Q903.7344,560.8984 903.7344,561.9297 L903.7344,563.0234 Q903.7344,564.2578 904.625,565.0859 Q905.5156,565.8984 907.1094,565.8984 Q908.0469,565.8984 908.7031,565.6484 Q909.0938,565.4922 909.5156,565.0547 Q909.7813,564.7891 909.9219,564.7109 Q910.0781,564.6328 910.2813,564.6328 Q910.6094,564.6328 910.8594,564.8984 Q911.125,565.1484 911.125,565.4922 Q911.125,565.8359 910.7813,566.2422 Q910.2813,566.8203 909.4844,567.1484 Q908.4063,567.6016 907.1094,567.6016 Q905.5938,567.6016 904.3906,566.9766 Q903.4063,566.4766 902.7188,565.4141 Q902.0313,564.3359 902.0313,563.0547 L902.0313,561.8984 Q902.0313,560.5703 902.6406,559.4297 Q903.2656,558.2734 904.3594,557.6641 Q905.4531,557.0391 906.6875,557.0391 Q907.4219,557.0391 908.0625,557.2109 Q908.7188,557.3672 909.2656,557.7266 Z " fill="#000000"/><text fill="#000000" font-family="FG Virgil" font-size="12" font-style="italic" lengthAdjust="spacing" textLength="77" x="943" y="557.957">«persistence»</text><text fill="#000000" font-family="FG Virgil" font-size="14" lengthAdjust="spacing" textLength="122" x="920.5" y="575.127">PersistenceContext</text><path d="M892.5,583.2031 L892.5,583.4834 L902.6333,582.6507 L912.7667,583.4608 L922.9,583.736 L933.0333,582.2519 L943.1667,583.0995 L953.3,582.6345 L963.4333,582.6918 L973.5667,583.1122 L983.7,582.2813 L993.8333,583.9413 L1003.9667,582.3628 L1014.1,582.9394 L1024.2333,583.7791 L1034.3667,583.0888 L1044.5,583.2031 " fill="#F1F1F1" style="stroke:#181818;stroke-width:0.5;"/><path d="M892.5,591.2031 L892.5,591.4834 L902.6333,590.6507 L912.7667,591.4608 L922.9,591.736 L933.0333,590.2519 L943.1667,591.0995 L953.3,590.6345 L963.4333,590.6918 L973.5667,591.1122 L983.7,590.2813 L993.8333,591.9413 L1003.9667,590.3628 L1014.1,590.9394 L1024.2333,591.7791 L1034.3667,591.0888 L1044.5,591.2031 " fill="#F1F1F1" style="stroke:#181818;stroke-width:0.5;"/><text fill="#000000" font-family="FG Virgil" font-size="14" lengthAdjust="spacing" textLength="84" x="897.5" y="609.7363">repositories()</text></g><!--MD5=[48590afff58a68e2fcba47824d6f8a11]
class RepositoryFactory--><g id="elem_RepositoryFactory"><polygon fill="#F1F1F1" points="900,756.5,900,756.7102,910.2143,756.0857,920.4286,756.6933,930.6429,756.8997,940.8571,755.7866,951.0714,756.4223,961.2857,756.0735,971.5,756.1165,981.7143,756.4318,991.9286,755.8086,1002.1429,757.0536,1012.3571,755.8697,1022.5714,756.3022,1032.7857,756.9319,1043,756.5,1042.9891,756.4736,1043.3623,756.6675,1043.703,756.7831,1044.0834,756.9943,1044.4447,757.1594,1044.7678,757.2322,1044.9481,757.3069,1045.1209,757.6714,1045.2698,758.026,1045.2855,758.3254,1045.4963,758.7056,1045.5,759,1046.2022,759,1044.7788,769.1875,1046.1785,779.375,1045.2035,789.5625,1046.0338,799.75,1045.005,809.9375,1045.4315,820.125,1045.5,830.3125,1045.7284,830.4071,1045.3385,830.6598,1045.2395,831.033,1045.1649,831.4164,1045.0424,831.7798,1044.7678,832.0803,1044.7673,832.0791,1044.4509,832.3152,1043.9876,832.1969,1043.7434,832.6072,1043.4235,832.8349,1043,832.8125,1043,833.257,1032.7857,833.4255,1022.5714,832.3294,1012.3571,832.1603,1002.1429,832.1911,991.9286,832.7536,981.7143,832.616,971.5,833.4939,961.2857,832.6378,951.0714,832.4694,940.8571,833.0408,930.6429,832.1457,920.4286,832.2934,910.2143,833.4615,900,832.8125,900.0556,832.9467,899.7401,832.8922,899.2518,832.4205,898.9801,832.4715,898.6611,832.4085,898.2322,832.0803,898.0868,832.02,898.0563,831.7145,897.9781,831.3892,897.9936,831.1027,897.6452,830.6655,897.5,830.3125,897.9626,830.3125,896.9462,820.125,896.8227,809.9375,898.0036,799.75,896.7831,789.5625,898.009,779.375,897.7066,769.1875,897.5,759,897.4175,758.9658,897.5375,758.6013,897.9342,758.3514,897.8472,757.9012,898.2681,757.6613,898.2322,757.2322,898.1617,757.062,898.6645,757.2759,899.0011,757.0885,899.3241,756.8683,899.6525,756.661,900,756.5" style="stroke:#181818;stroke-width:0.5;"/><polygon fill="#C2C2C2" points="923.5608,780.5272,921.9484,782.7304,920.0412,785.9573,917.3136,788.132,914.4474,789.3212,912.162,789.4244,909.2247,787.9371,906.4532,786.9655,904.3495,784.9927,903.2461,782.7343,902.5917,780.9361,901.9506,778.5873,900.91,776.566,901.7096,774.5926,902.4102,772.4308,905.0393,770.721,906.889,768.5027,909.1784,767.766,911.9001,767.1316,915.3904,767.5085,917.3021,768.4101,919.5247,768.8188,922.2272,771.5875,923.1693,774.5105,923.5786,776.5049,923.115,779.7914" style="stroke:#181818;stroke-width:1.0;"/><path d="M915.2656,773.7266 Q915.4219,773.5078 915.6094,773.3984 Q915.7969,773.2891 916.0156,773.2891 Q916.3906,773.2891 916.625,773.5547 Q916.8594,773.8047 916.8594,774.4141 L916.8594,775.8672 Q916.8594,776.4766 916.625,776.7422 Q916.3906,777.0078 916.0156,777.0078 Q915.6719,777.0078 915.4688,776.8047 Q915.2656,776.6172 915.1563,776.1016 Q915.1094,775.7422 914.9219,775.5547 Q914.5938,775.1797 913.9844,774.9609 Q913.375,774.7422 912.75,774.7422 Q911.9844,774.7422 911.3438,775.0703 Q910.7188,775.3984 910.2188,776.1484 Q909.7344,776.8984 909.7344,777.9297 L909.7344,779.0234 Q909.7344,780.2578 910.625,781.0859 Q911.5156,781.8984 913.1094,781.8984 Q914.0469,781.8984 914.7031,781.6484 Q915.0938,781.4922 915.5156,781.0547 Q915.7813,780.7891 915.9219,780.7109 Q916.0781,780.6328 916.2813,780.6328 Q916.6094,780.6328 916.8594,780.8984 Q917.125,781.1484 917.125,781.4922 Q917.125,781.8359 916.7813,782.2422 Q916.2813,782.8203 915.4844,783.1484 Q914.4063,783.6016 913.1094,783.6016 Q911.5938,783.6016 910.3906,782.9766 Q909.4063,782.4766 908.7188,781.4141 Q908.0313,780.3359 908.0313,779.0547 L908.0313,777.8984 Q908.0313,776.5703 908.6406,775.4297 Q909.2656,774.2734 910.3594,773.6641 Q911.4531,773.0391 912.6875,773.0391 Q913.4219,773.0391 914.0625,773.2109 Q914.7188,773.3672 915.2656,773.7266 Z " fill="#000000"/><text fill="#000000" font-family="FG Virgil" font-size="12" font-style="italic" lengthAdjust="spacing" textLength="50" x="959.5" y="773.957">«factory»</text><text fill="#000000" font-family="FG Virgil" font-size="14" lengthAdjust="spacing" textLength="116" x="926.5" y="791.127">RepositoryFactory</text><path d="M898.5,799.2031 L898.5,799.4834 L908.2333,798.6507 L917.9667,799.4608 L927.7,799.736 L937.4333,798.2519 L947.1667,799.0995 L956.9,798.6345 L966.6333,798.6918 L976.3667,799.1122 L986.1,798.2813 L995.8333,799.9413 L1005.5667,798.3628 L1015.3,798.9394 L1025.0333,799.7791 L1034.7667,799.0888 L1044.5,799.2031 " fill="#F1F1F1" style="stroke:#181818;stroke-width:0.5;"/><path d="M898.5,807.2031 L898.5,807.4834 L908.2333,806.6507 L917.9667,807.4608 L927.7,807.736 L937.4333,806.2519 L947.1667,807.0995 L956.9,806.6345 L966.6333,806.6918 L976.3667,807.1122 L986.1,806.2813 L995.8333,807.9413 L1005.5667,806.3628 L1015.3,806.9394 L1025.0333,807.7791 L1034.7667,807.0888 L1044.5,807.2031 " fill="#F1F1F1" style="stroke:#181818;stroke-width:0.5;"/><text fill="#000000" font-family="FG Virgil" font-size="14" lengthAdjust="spacing" textLength="45" x="903.5" y="825.7363">users()</text></g><!--MD5=[093c210125347143eef5bb9199eae634]
class UserRepository--><g id="elem_UserRepository"><polygon fill="#F1F1F1" points="973.5,937,973.5,937.2102,983.8333,936.5857,994.1667,937.1933,1004.5,937.3997,1014.8333,936.2866,1025.1667,936.9223,1035.5,936.5735,1045.8333,936.6165,1056.1667,936.9318,1066.5,936.3086,1076.8333,937.5536,1087.1667,936.3697,1097.5,937,1097.4748,936.9391,1097.9087,937.2795,1098.1962,937.2665,1098.5694,937.4604,1098.9101,937.5759,1099.2678,937.7322,1099.3227,937.755,1099.4879,938.1163,1099.741,938.5141,1099.9138,938.8785,1100.0627,939.2331,1100,939.5,1100.2546,939.5,1100.4636,949.6875,1100.7022,959.875,1099.2788,970.0625,1100.6785,980.25,1099.7035,990.4375,1100.5338,1000.625,1100,1010.8125,1099.8476,1010.7494,1099.8325,1011.1573,1099.9355,1011.6142,1099.5457,1011.8669,1099.4466,1012.2401,1099.2678,1012.5803,1099.311,1012.6846,1098.9673,1012.8549,1098.5602,1012.872,1098.2437,1013.1081,1097.7805,1012.9898,1097.5,1013.3125,1097.5,1013.5969,1087.1667,1013.8607,1076.8333,1013.757,1066.5,1013.9255,1056.1667,1012.8294,1045.8333,1012.6603,1035.5,1012.6911,1025.1667,1013.2536,1014.8333,1013.116,1004.5,1013.9939,994.1667,1013.1378,983.8333,1012.9694,973.5,1013.3125,973.5291,1013.3828,973.0614,1012.9607,972.7267,1012.8597,972.5221,1013.073,972.1414,1012.8609,971.7322,1012.5803,971.9584,1012.674,971.4867,1012.1857,971.5376,1011.9139,971.4747,1011.5949,971.001,1011.1058,971,1010.8125,970.9041,1010.8125,971.126,1000.625,971.6518,990.4375,970.9958,980.25,971.4626,970.0625,970.4462,959.875,970.3227,949.6875,971,939.5,971.1551,939.5642,970.9257,939.055,971.4496,938.8578,971.503,938.4657,971.5033,938.0516,971.7322,937.7322,971.6871,937.6233,972.1443,937.7271,972.4012,937.3472,972.8684,937.4752,973.0759,936.9762,973.5,937" style="stroke:#181818;stroke-width:0.5;"/><polygon fill="#C2C2C2" points="997.0608,961.0272,995.4484,963.2304,993.5412,966.4573,990.8136,968.632,987.9474,969.8212,985.662,969.9244,982.7247,968.4371,979.9532,967.4655,977.8495,965.4927,976.7461,963.2343,976.0917,961.4361,975.4506,959.0873,974.41,957.066,975.2096,955.0926,975.9102,952.9308,978.5393,951.221,980.389,949.0027,982.6784,948.266,985.4001,947.6316,988.8904,948.0085,990.8021,948.9101,993.0247,949.3188,995.7272,952.0875,996.6693,955.0105,997.0786,957.0049,996.615,960.2914" style="stroke:#181818;stroke-width:1.0;"/><path d="M988.7656,954.2266 Q988.9219,954.0078 989.1094,953.8984 Q989.2969,953.7891 989.5156,953.7891 Q989.8906,953.7891 990.125,954.0547 Q990.3594,954.3047 990.3594,954.9141 L990.3594,956.3672 Q990.3594,956.9766 990.125,957.2422 Q989.8906,957.5078 989.5156,957.5078 Q989.1719,957.5078 988.9688,957.3047 Q988.7656,957.1172 988.6563,956.6016 Q988.6094,956.2422 988.4219,956.0547 Q988.0938,955.6797 987.4844,955.4609 Q986.875,955.2422 986.25,955.2422 Q985.4844,955.2422 984.8438,955.5703 Q984.2188,955.8984 983.7188,956.6484 Q983.2344,957.3984 983.2344,958.4297 L983.2344,959.5234 Q983.2344,960.7578 984.125,961.5859 Q985.0156,962.3984 986.6094,962.3984 Q987.5469,962.3984 988.2031,962.1484 Q988.5938,961.9922 989.0156,961.5547 Q989.2813,961.2891 989.4219,961.2109 Q989.5781,961.1328 989.7813,961.1328 Q990.1094,961.1328 990.3594,961.3984 Q990.625,961.6484 990.625,961.9922 Q990.625,962.3359 990.2813,962.7422 Q989.7813,963.3203 988.9844,963.6484 Q987.9063,964.1016 986.6094,964.1016 Q985.0938,964.1016 983.8906,963.4766 Q982.9063,962.9766 982.2188,961.9141 Q981.5313,960.8359 981.5313,959.5547 L981.5313,958.3984 Q981.5313,957.0703 982.1406,955.9297 Q982.7656,954.7734 983.8594,954.1641 Q984.9531,953.5391 986.1875,953.5391 Q986.9219,953.5391 987.5625,953.7109 Q988.2188,953.8672 988.7656,954.2266 Z " fill="#000000"/><text fill="#000000" font-family="FG Virgil" font-size="12" font-style="italic" lengthAdjust="spacing" textLength="68" x="1014.5" y="954.457">«repository»</text><text fill="#000000" font-family="FG Virgil" font-size="14" lengthAdjust="spacing" textLength="97" x="1000" y="971.627">UserRepository</text><path d="M972,979.7031 L972,979.9834 L981.7692,979.1507 L991.5385,979.9608 L1001.3077,980.236 L1011.0769,978.7519 L1020.8462,979.5995 L1030.6154,979.1345 L1040.3846,979.1918 L1050.1538,979.6122 L1059.9231,978.7813 L1069.6923,980.4413 L1079.4615,978.8628 L1089.2308,979.4394 L1099,979.7031 " fill="#F1F1F1" style="stroke:#181818;stroke-width:0.5;"/><path d="M972,987.7031 L972,987.9834 L981.7692,987.1507 L991.5385,987.9608 L1001.3077,988.236 L1011.0769,986.7519 L1020.8462,987.5995 L1030.6154,987.1345 L1040.3846,987.1918 L1050.1538,987.6122 L1059.9231,986.7813 L1069.6923,988.4413 L1079.4615,986.8628 L1089.2308,987.4394 L1099,987.7031 " fill="#F1F1F1" style="stroke:#181818;stroke-width:0.5;"/><text fill="#000000" font-family="FG Virgil" font-size="14" lengthAdjust="spacing" textLength="69" x="977" y="1006.2363">save(User)</text></g><!--MD5=[0f6c5aca6998816433db9e5ce6ee5e43]
link AddUserUI to AddUserController--><g id="link_AddUserUI_AddUserController"><path d="M522.5,83.34 L522.7802,83.34 L521.9476,93.6743 L522.7577,104.0086 L523.0329,114.3429 L521.5488,124.6771 L522.3964,135.0114 L521.9313,145.3457 L522.5,155.68 " fill="none" style="stroke:#181818;stroke-width:1.0;"/><polygon fill="#181818" points="522.5,160.94,522.564,160.9685,523.1738,159.0839,524.1589,157.3662,525.0217,155.5941,525.4827,153.6434,526.5,151.94,526.4817,151.9217,525.5995,152.6395,524.8096,153.4496,524.0839,154.3239,523.137,154.977,522.5,155.94,522.6305,156.0705,521.5514,154.9914,520.8534,154.2934,520.2018,153.6418,519.2798,152.7198,518.5,151.94,518.5208,151.9492,519.2903,153.7357,520.1544,155.5642,520.9728,157.3724,521.8784,159.2193,522.5,160.94" style="stroke:#181818;stroke-width:1.0;"/><text fill="#000000" font-family="FG Virgil" font-size="13" lengthAdjust="spacing" textLength="73" x="523.5" y="127.4951">theController</text></g><!--MD5=[aa5637fc1292a9b6857494c6f27b043d]
link AddUserController to AuthorizationService--><g id="link_AddUserController_AuthorizationService"><path d="M522.5,255 L522.7802,255 L521.9476,265.2038 L522.7577,275.4075 L523.0329,285.6113 L521.5488,295.815 L522.3964,306.0188 L521.9313,316.2225 L521.9887,326.4263 L522.5,336.63 " fill="none" style="stroke:#181818;stroke-width:1.0;"/><polygon fill="#181818" points="522.5,341.83,522.564,341.8585,523.1738,339.9739,524.1589,338.2562,525.0217,336.4841,525.4827,334.5334,526.5,332.83,526.4817,332.8117,525.5995,333.5295,524.8096,334.3396,524.0839,335.2139,523.137,335.867,522.5,336.83,522.6305,336.9605,521.5514,335.8814,520.8534,335.1834,520.2018,334.5318,519.2798,333.6098,518.5,332.83,518.5208,332.8392,519.2903,334.6257,520.1544,336.4542,520.9728,338.2624,521.8784,340.1093,522.5,341.83" style="stroke:#181818;stroke-width:1.0;"/><text fill="#000000" font-family="FG Virgil" font-size="13" lengthAdjust="spacing" textLength="94" x="523.5" y="299.4951">theAuthzService</text></g><!--MD5=[89f4040e1f7d65a25a98e95f070c1f24]
link AddUserController to UserManagementService--><g id="link_AddUserController_UserManagementService"><path d="M643.19,255 L643.2898,255.2619 L652.5008,258.1081 L662.297,262.4894 L671.9027,266.3708 L680.8817,268.6083 L690.6912,273.0246 L700.0332,276.2144 L709.5612,279.8922 L719.2186,283.9094 L728.4302,286.7572 L738.5291,291.9326 L747.4745,294.0819 L757.1875,298.245 L766.9942,302.6539 L776.2559,305.6331 L785.8367,309.4493 L795.2967,312.9488 L804.9043,316.8353 L814.4407,320.5351 L824.1129,324.5911 L833.6611,328.3218 L842.85,331.11 " fill="none" style="stroke:#181818;stroke-width:1.0;"/><polygon fill="#181818" points="847.71,332.96,847.7594,333.0096,846.2169,331.4722,844.9641,330.2257,843.6169,328.8845,841.9594,327.2316,840.7315,326.0101,840.7079,325.9995,841.0634,326.985,841.5381,328.0238,842.0956,329.0996,842.3676,330.0477,843.0396,331.1747,843.1149,331.3432,841.921,331.4445,840.9469,332.0377,839.9996,332.691,838.8963,332.995,837.875,333.4827,837.8762,333.5055,839.8415,333.3676,841.8122,333.3331,843.7802,333.2487,845.7534,333.2595,847.71,332.96" style="stroke:#181818;stroke-width:1.0;"/><text fill="#000000" font-family="FG Virgil" font-size="13" lengthAdjust="spacing" textLength="60" x="760.5" y="299.4951">theService</text></g><!--MD5=[1f48414fe089902c53c4c535c797c369]
link UserManagementService to UserBuilder--><g id="link_UserManagementService_UserBuilder"><path d="M872.61,427.07 L872.7314,427.3226 L863.1108,431.0209 L854.2016,436.1999 L845.0608,440.8968 L835.1581,444.0079 L826.2651,449.2207 L816.8037,453.2504 L807.5686,457.7509 L798.4906,462.5787 L788.8708,466.2785 L780.3297,472.2236 L770.3861,475.2496 L761.3758,480.2182 L752.4794,485.4238 L742.9205,489.2504 L733.7494,493.8844 L724.4316,498.2128 L715.19,502.7 " fill="none" style="stroke:#181818;stroke-width:1.0;"/><polygon fill="#181818" points="710.41,505,710.4119,505.07,712.3752,504.8077,714.3498,504.9559,716.3207,504.9704,718.2795,504.5453,720.2551,504.7287,720.2465,504.7043,719.141,504.2178,718.079,503.8544,717.0473,503.5766,715.9114,503.0038,714.9214,502.8442,715.0954,502.9057,715.1002,501.7075,715.613,500.6888,716.1879,499.692,716.402,498.5677,716.8059,497.5105,716.8232,497.5253,715.5186,499.0015,714.2928,500.545,713.029,502.056,711.8376,503.6289,710.41,505" style="stroke:#181818;stroke-width:1.0;"/><text fill="#000000" font-family="FG Virgil" font-size="13" lengthAdjust="spacing" textLength="58" x="802.5" y="471.4951">theBuilder</text></g><!--MD5=[d01b369f51dc63c9c96969c504c5cf1a]
link UserBuilder to user:User--><g id="link_UserBuilder_user:User"><path d="M517.01,652.25 L517.252,652.3914 L511.1792,661.1364 L506.525,670.71 L501.4089,680.0138 L494.7737,688.4302 L490.1518,698.0227 L484.3965,706.9532 L479.0922,716.1471 L474.18,725.57 " fill="none" style="stroke:#181818;stroke-width:1.0;"/><polygon fill="#181818" points="471.65,729.9,471.691,729.9568,473.1667,728.6356,474.8827,727.6475,476.5205,726.551,477.9009,725.0977,479.6376,724.1382,479.631,724.1131,478.5073,724.2891,477.417,724.5913,476.3498,724.9813,475.2028,725.0688,474.1676,725.5801,474.346,725.6271,473.676,724.4325,473.5271,723.3753,473.4417,722.3348,472.9864,721.1968,472.7257,720.1101,472.7483,720.1125,472.5,722.0669,472.3546,724.0325,472.1595,725.9927,472.0592,727.9633,471.65,729.9" style="stroke:#181818;stroke-width:1.0;"/></g><!--MD5=[b0877f5a81ed13f00912ab218cf366e4]
link UserManagementService to PersistenceContext--><g id="link_UserManagementService_PersistenceContext"><path d="M968.5,427.07 L968.7802,427.07 L967.9476,436.9055 L968.7577,446.7409 L969.0329,456.5764 L967.5488,466.4118 L968.3964,476.2473 L967.9313,486.0827 L967.9887,495.9182 L968.4091,505.7536 L967.5782,515.5891 L969.2382,525.4245 L968.5,535.26 " fill="none" style="stroke:#181818;stroke-width:1.0;"/><polygon fill="#181818" points="968.5,540.27,968.564,540.2985,969.1738,538.4139,970.1589,536.6962,971.0217,534.9241,971.4827,532.9734,972.5,531.27,972.4817,531.2517,971.5995,531.9695,970.8096,532.7796,970.0839,533.6539,969.137,534.307,968.5,535.27,968.6305,535.4005,967.5514,534.3214,966.8534,533.6234,966.2018,532.9718,965.2798,532.0498,964.5,531.27,964.5208,531.2792,965.2903,533.0657,966.1544,534.8942,966.9728,536.7024,967.8784,538.5493,968.5,540.27" style="stroke:#181818;stroke-width:1.0;"/><text fill="#000000" font-family="FG Virgil" font-size="13" lengthAdjust="spacing" textLength="67" x="969.5" y="471.4951">persistence</text></g><!--MD5=[754b775031405e096442b27febffa290]
link PersistenceContext to RepositoryFactory--><g id="link_PersistenceContext_RepositoryFactory"><path d="M969.02,616.78 L969.3002,616.7839 L968.613,627.1068 L969.5685,637.4529 L969.989,647.7913 L968.6504,658.1051 L969.6433,668.4516 L969.3237,678.7797 L969.5264,689.1151 L970.0922,699.4556 L969.4067,709.7786 L971.212,720.1365 L969.7789,730.4489 L970.501,740.7917 L970.91,751.13 " fill="none" style="stroke:#181818;stroke-width:1.0;"/><polygon fill="#181818" points="970.98,756.29,971.0444,756.3175,971.6272,754.4245,972.5877,752.6928,973.4251,750.9086,973.8582,748.9516,974.851,747.2338,974.8325,747.2157,973.9606,747.946,973.1824,748.7674,972.4693,749.652,971.5318,750.3186,970.9086,751.2905,971.0372,751.4229,969.9508,750.3514,969.2399,749.6663,968.5749,749.0283,967.6433,748.116,966.8518,747.3481,966.8725,747.3576,967.6678,749.132,968.5571,750.9498,969.4011,752.7466,970.3316,754.5834,970.98,756.29" style="stroke:#181818;stroke-width:1.0;"/><text fill="#000000" font-family="FG Virgil" font-size="13" lengthAdjust="spacing" textLength="39" x="971.5" y="696.4951">factory</text></g><!--MD5=[0bde64d3861a2e0b7bf5316115f64c06]
link RepositoryFactory to UserRepository--><g id="link_RepositoryFactory_UserRepository"><path d="M984.92,832.92 L985.1838,833.0146 L987.6354,841.759 L991.6335,851.0579 L995.128,860.1762 L996.9664,868.7008 L1000.9997,878.0123 L1003.7974,886.8808 L1007.0868,895.9256 L1010.7181,905.093 L1013.1713,913.838 L1017.9694,923.4236 L1020.51,932.2 " fill="none" style="stroke:#181818;stroke-width:1.0;"/><polygon fill="#181818" points="1022.21,936.94,1022.2799,936.9452,1022.2176,934.9654,1022.5649,933.0159,1022.7789,931.0566,1022.5542,929.0648,1022.9367,927.118,1022.9133,927.1069,1022.3252,928.0804,1021.8552,929.1096,1021.4673,930.1776,1020.7965,931.1121,1020.522,932.2336,1020.6008,932.4004,1019.4092,931.5606,1018.4476,931.2081,1017.5141,930.9149,1016.4173,930.2759,1015.4064,929.8188,1015.4229,929.8345,1016.7594,931.2357,1018.1709,932.7084,1019.5462,934.1466,1020.9904,935.6506,1022.21,936.94" style="stroke:#181818;stroke-width:1.0;"/><text fill="#000000" font-family="FG Virgil" font-size="13" lengthAdjust="spacing" textLength="25" x="1012.5" y="903.4951">repo</text></g><!--MD5=[18f98f898b33518a07ec32b030c48693]
link UserManagementService to UserRepository--><g id="link_UserManagementService_UserRepository"><path d="M1021.64,427.26 L1021.7102,427.3216 L1024.0361,430.0263 L1026.7736,433.0922 L1029.377,436.0404 L1031.5397,438.6019 L1034.3125,441.6988 L1034.2846,441.6784 L1036.397,444.6471 L1038.6499,447.7187 L1041.0005,450.8616 L1043.0145,453.7584 L1045.5,457 L1045.7108,457.1269 L1046.7543,459.3382 L1048.4133,461.92 L1050.1473,464.5471 L1051.4445,466.9111 L1052.9714,469.4134 L1052.9991,469.4259 L1053.8889,471.4774 L1054.9047,473.5856 L1055.8597,475.6665 L1056.9307,477.7994 L1057.6238,479.7625 L1057.9108,479.8434 L1058.5324,482.0379 L1058.9689,484.1803 L1059.6763,486.3991 L1060.3965,488.6214 L1060.7142,490.7303 L1060.3996,490.6689 L1061.5673,493.642 L1061.6992,496.4129 L1062.6185,499.3376 L1062.7269,502.1039 L1063.5,505 L1063.47,504.9948 L1064.7911,510.6108 L1065.4113,516.1048 L1066.4451,521.6708 L1067.5136,527.2428 L1068.3317,532.7713 L1068.5144,532.8 L1069.1292,537.867 L1070.0562,542.9831 L1070.478,548.0199 L1071.6534,553.1749 L1072.3278,558.2513 L1072.5692,558.2842 L1073.1639,562.9816 L1073.8784,567.6954 L1074.036,572.3333 L1074.6018,577.0268 L1075.5293,581.7696 L1075.2549,581.7389 L1075.9929,586.144 L1076.4217,590.5144 L1077.2991,594.9351 L1077.4106,599.27 L1077.9773,603.6559 L1077.8254,603.6431 L1078.4255,607.7813 L1078.3762,611.8647 L1078.7887,615.987 L1079.6531,620.1474 L1079.7128,624.24 L1079.9061,624.2505 L1080.2515,628.1799 L1079.9955,632.0768 L1080.4928,636.0145 L1080.8259,639.9433 L1080.7767,643.8514 L1080.5668,643.8466 L1080.8207,647.6441 L1081.006,651.44 L1081.3262,655.2391 L1081.1215,659.0261 L1081.21,662.8198 L1081.4156,662.8215 L1080.9326,666.5488 L1080.8465,670.2794 L1081.3401,674.0148 L1080.7664,677.7413 L1081.0537,681.475 L1081.2798,681.4835 L1081.0046,685.2128 L1080.6528,688.9391 L1080.4738,692.672 L1080.6937,696.42 L1080.349,700.1466 L1080.2162,700.1381 L1080.369,703.9669 L1079.6189,707.738 L1079.8954,711.5746 L1079.5939,715.3744 L1079.1366,719.1643 L1079.2451,719.1735 L1078.8218,723.1047 L1078.7868,727.0691 L1078.401,731.0035 L1077.8685,734.9254 L1077.4577,738.8577 L1077.5763,738.8697 L1076.9792,742.9916 L1076.9327,747.1694 L1076.2635,751.284 L1075.8505,755.4245 L1075.3533,759.5566 L1075.0846,759.5262 L1074.6765,763.9431 L1074.5921,768.3966 L1074.0497,772.7984 L1073.3431,777.1816 L1072.8643,781.5906 L1072.7221,781.5736 L1072.2012,786.3188 L1071.4285,791.0339 L1071.3478,795.8317 L1070.9246,800.5886 L1070.0317,805.2893 L1070.7285,805.3741 L1069.6452,816.1433 L1067.2381,826.7516 L1066.2281,837.5298 L1064.2933,848.1955 L1063.5,859 L1063.6249,859.0186 L1063.0534,862.7483 L1062.6328,866.5004 L1061.7339,870.1814 L1061.2208,873.9197 L1060.7248,877.6606 L1060.9183,877.6986 L1060.2341,881.4735 L1059.0249,885.1455 L1058.4256,888.9372 L1057.8371,892.7309 L1057.0337,896.4825 L1056.7693,896.421 L1056.3371,900.1737 L1055.4462,903.8197 L1054.4413,907.4392 L1053.697,911.1193 L1052.7858,914.7606 L1053.0991,914.8424 L1051.7621,918.1314 L1051.1429,921.6077 L1050.2412,925.0103 L1049.2789,928.3971 L1048.34,931.79 " fill="none" style="stroke:#181818;stroke-width:1.0;"/><polygon fill="#181818" points="1046.93,936.86,1046.9841,936.9045,1048.0733,935.25,1049.4798,933.8562,1050.783,932.3776,1051.7463,930.6198,1053.1801,929.2484,1053.1673,929.2258,1052.1259,929.6831,1051.149,930.2539,1050.2169,930.9037,1049.1304,931.2814,1048.2601,932.0402,1048.4206,932.1312,1047.519,930.9525,1047.0861,930.0396,1046.7103,929.1593,1046.0018,928.0901,1045.4683,927.1202,1045.4908,927.1236,1045.7501,929.0666,1046.1118,931.025,1046.4242,932.9759,1046.8307,934.941,1046.93,936.86" style="stroke:#181818;stroke-width:1.0;"/><text fill="#000000" font-family="FG Virgil" font-size="13" lengthAdjust="spacing" textLength="25" x="1081.5" y="696.4951">repo</text></g><!--MD5=[63474190aefe726c5fa4221b27b4fd76]
link AddUserController to AuthzRegistry--><g id="link_AddUserController_AuthzRegistry"><path d="M454.03,255 L454.1863,255.2326 L445.1257,260.3184 L436.9814,266.7677 L428.5388,272.7731 L419.1148,277.3182 L410.9914,283.7986 L402.1359,289.1896 L393.5717,295.0141 L385.2101,301.14 L376.1504,306.2272 L368.4802,313.3819 L359.0036,317.8487 L350.7291,324.1042 L342.28,330.1 " fill="none" style="stroke:#181818;stroke-width:1.0;"/><polygon fill="#181818" points="338.02,332.96,338.0323,333.029,339.9351,332.4789,341.9099,332.3332,343.8612,332.0558,345.7355,331.3454,347.7165,331.2344,347.7116,331.209,346.5787,330.88,345.4707,330.6792,344.3798,330.5676,343.2296,330.1488,342.1626,330.1602,342.3438,330.1952,342.1712,329.0095,342.5276,327.9261,342.9485,326.8552,342.9939,325.7116,343.2368,324.6063,343.2561,324.6183,342.1844,326.2714,341.2006,327.9793,340.1743,329.6607,339.229,331.3927,338.02,332.96" style="stroke:#181818;stroke-width:1.0;"/><text fill="#000000" font-family="FG Virgil" font-size="13" lengthAdjust="spacing" textLength="43" x="405.5" y="299.4951">registry</text></g><!--MD5=[c8f3c91c6d2b9e30cd6356e7a963551a]
@startuml
'http://plantuml.com/skinparam.html
skinparam handwritten true
skinparam monochrome true
skinparam packageStyle rect
skinparam defaultFontName FG Virgil
skinparam shadowing false

class AddUserUI <<presentation>>
class AddUserController <<application>>
class AuthzRegistry <<util>>
class AuthorizationService <<service>>
class UserManagementService <<service>>
class UserBuilder <<builder>>
class "user:User" <<domain>>
class PersistenceContext  <<persistence>>
class RepositoryFactory  <<factory>>
class UserRepository <<repository>>

AddUserUI - -> AddUserController : theController
AddUserController - -> AuthorizationService: theAuthzService
AddUserController - -> UserManagementService: theService
UserManagementService - -> UserBuilder: theBuilder
UserBuilder - -> "user:User"
UserManagementService - -> PersistenceContext: persistence
PersistenceContext - -> RepositoryFactory: factory
RepositoryFactory - -> UserRepository: repo
UserManagementService - -> UserRepository: repo
AddUserController - -> AuthzRegistry: registry

AddUserUI : doShow()
UserRepository : save(User)
AddUserController : addUser(String, String, String, String, Role, String, String, String)
AddUserController : addUser(String, String, String, String, Role, String, String, String, Calendar)
AuthzRegistry : authorizationService()
AuthzRegistry : userService()
AuthorizationService : ensureAuthenticatedUserHasAnyOf(Role...)
UserManagementService : registerNewUser(String, String, String, String, Role, String, String, String, Calendar)
UserManagementService : generateMecNumber()
UserBuilder : with(String, String, String, String, String, Role, String)
UserBuilder : createdOn(Calendar)
UserBuilder : withAcronym(String)
UserBuilder : withMecanographicNumber(String)
UserBuilder : build()
PersistenceContext : repositories()
RepositoryFactory : users()
"user:User" : User(ShortName, FullName, Password, EmailAddress, Role, BirthDate, MecanographicNumber, TaxPayerNumber, Acronym, Calendar)
"user:User" : validateParameters(ShortName, FullName, EmailAddress, Role, Password, Calendar)
"user:User" : validateMecNumber(MecanographicNumber, Role)
"user:User" : validateMecNumber(Acronym, Role)

@enduml

@startuml
skinparam handwritten true
skinparam monochrome true
skinparam packageStyle rect
skinparam defaultFontName FG Virgil
skinparam shadowing false

class AddUserUI <<presentation>>
class AddUserController <<application>>
class AuthzRegistry <<util>>
class AuthorizationService <<service>>
class UserManagementService <<service>>
class UserBuilder <<builder>>
class "user:User" <<domain>>
class PersistenceContext  <<persistence>>
class RepositoryFactory  <<factory>>
class UserRepository <<repository>>

AddUserUI - -> AddUserController : theController
AddUserController - -> AuthorizationService: theAuthzService
AddUserController - -> UserManagementService: theService
UserManagementService - -> UserBuilder: theBuilder
UserBuilder - -> "user:User"
UserManagementService - -> PersistenceContext: persistence
PersistenceContext - -> RepositoryFactory: factory
RepositoryFactory - -> UserRepository: repo
UserManagementService - -> UserRepository: repo
AddUserController - -> AuthzRegistry: registry

AddUserUI : doShow()
UserRepository : save(User)
AddUserController : addUser(String, String, String, String, Role, String, String, String)
AddUserController : addUser(String, String, String, String, Role, String, String, String, Calendar)
AuthzRegistry : authorizationService()
AuthzRegistry : userService()
AuthorizationService : ensureAuthenticatedUserHasAnyOf(Role...)
UserManagementService : registerNewUser(String, String, String, String, Role, String, String, String, Calendar)
UserManagementService : generateMecNumber()
UserBuilder : with(String, String, String, String, String, Role, String)
UserBuilder : createdOn(Calendar)
UserBuilder : withAcronym(String)
UserBuilder : withMecanographicNumber(String)
UserBuilder : build()
PersistenceContext : repositories()
RepositoryFactory : users()
"user:User" : User(ShortName, FullName, Password, EmailAddress, Role, BirthDate, MecanographicNumber, TaxPayerNumber, Acronym, Calendar)
"user:User" : validateParameters(ShortName, FullName, EmailAddress, Role, Password, Calendar)
"user:User" : validateMecNumber(MecanographicNumber, Role)
"user:User" : validateMecNumber(Acronym, Role)

@enduml

PlantUML version 1.2022.7(Mon Aug 22 18:01:30 BST 2022)
(GPL source distribution)
Java Runtime: Java(TM) SE Runtime Environment
JVM: Java HotSpot(TM) 64-Bit Server VM
Default Encoding: Cp1252
Language: pt
Country: PT
--></g></svg>