<?xml version="1.0" encoding="us-ascii" standalone="no"?><svg xmlns="http://www.w3.org/2000/svg" xmlns:xlink="http://www.w3.org/1999/xlink" contentStyleType="text/css" height="927px" preserveAspectRatio="none" style="width:1529px;height:927px;background:#FFFFFF;" version="1.1" viewBox="0 0 1529 927" width="1529px" zoomAndPan="magnify"><defs/><g><rect fill="#FFFFFF" height="688.4023" style="stroke:#181818;stroke-width:1.0;" width="10" x="201.5" y="121.5332"/><rect fill="#FFFFFF" height="594.5293" style="stroke:#181818;stroke-width:1.0;" width="10" x="367.5" y="184.1152"/><rect fill="#FFFFFF" height="62.582" style="stroke:#181818;stroke-width:1.0;" width="10" x="746.5" y="277.9883"/><rect fill="#FFFFFF" height="31.291" style="stroke:#181818;stroke-width:1.0;" width="10" x="878.5" y="371.8613"/><rect fill="#FFFFFF" height="281.6191" style="stroke:#181818;stroke-width:1.0;" width="10" x="1023.5" y="465.7344"/><rect fill="#FFFFFF" height="62.582" style="stroke:#181818;stroke-width:1.0;" width="10" x="1190" y="497.0254"/><rect fill="#FFFFFF" height="62.582" style="stroke:#181818;stroke-width:1.0;" width="10" x="1333" y="590.8984"/><rect fill="#FFFFFF" height="31.291" style="stroke:#181818;stroke-width:1.0;" width="10" x="1465.5" y="684.7715"/><line style="stroke:#181818;stroke-width:0.5;stroke-dasharray:5.0,5.0;" x1="32" x2="32" y1="88.2422" y2="827.9355"/><line style="stroke:#181818;stroke-width:0.5;stroke-dasharray:5.0,5.0;" x1="206" x2="206" y1="88.2422" y2="827.9355"/><line style="stroke:#181818;stroke-width:0.5;stroke-dasharray:5.0,5.0;" x1="372" x2="372" y1="88.2422" y2="827.9355"/><line style="stroke:#181818;stroke-width:0.5;stroke-dasharray:5.0,5.0;" x1="751" x2="751" y1="88.2422" y2="827.9355"/><line style="stroke:#181818;stroke-width:0.5;stroke-dasharray:5.0,5.0;" x1="883" x2="883" y1="88.2422" y2="827.9355"/><line style="stroke:#181818;stroke-width:0.5;stroke-dasharray:5.0,5.0;" x1="1028" x2="1028" y1="88.2422" y2="827.9355"/><line style="stroke:#181818;stroke-width:0.5;stroke-dasharray:5.0,5.0;" x1="1195" x2="1195" y1="88.2422" y2="827.9355"/><line style="stroke:#181818;stroke-width:0.5;stroke-dasharray:5.0,5.0;" x1="1338" x2="1338" y1="88.2422" y2="827.9355"/><line style="stroke:#181818;stroke-width:0.5;stroke-dasharray:5.0,5.0;" x1="1470" x2="1470" y1="88.2422" y2="827.9355"/><text fill="#000000" font-family="FG Virgil" font-size="14" lengthAdjust="spacing" textLength="49" x="5" y="84.7285">Student</text><ellipse cx="32.5" cy="18.1211" fill="#E3E3E3" rx="8" ry="8" style="stroke:#181818;stroke-width:0.5;"/><path d="M32.5,26.1211 L32.5,53.1211 M19.5,34.1211 L45.5,34.1211 M32.5,53.1211 L19.5,68.1211 M32.5,53.1211 L45.5,68.1211 " fill="none" style="stroke:#181818;stroke-width:0.5;"/><text fill="#000000" font-family="FG Virgil" font-size="14" lengthAdjust="spacing" textLength="49" x="5" y="842.043">Student</text><ellipse cx="32.5" cy="854.0566" fill="#E3E3E3" rx="8" ry="8" style="stroke:#181818;stroke-width:0.5;"/><path d="M32.5,862.0566 L32.5,889.0566 M19.5,870.0566 L45.5,870.0566 M32.5,889.0566 L19.5,904.0566 M32.5,889.0566 L45.5,904.0566 " fill="none" style="stroke:#181818;stroke-width:0.5;"/><rect fill="#E3E3E3" height="51.2422" rx="2.5" ry="2.5" style="stroke:#181818;stroke-width:0.5;" width="131" x="141" y="36"/><text fill="#000000" font-family="FG Virgil" font-size="14" font-style="italic" lengthAdjust="spacing" textLength="95" x="159" y="58.1074">&#171;presentation&#187;</text><text fill="#000000" font-family="FG Virgil" font-size="14" lengthAdjust="spacing" textLength="117" x="148" y="76.7285">ListFutureExamsUI</text><rect fill="#E3E3E3" height="51.2422" rx="2.5" ry="2.5" style="stroke:#181818;stroke-width:0.5;" width="131" x="141" y="826.9355"/><text fill="#000000" font-family="FG Virgil" font-size="14" font-style="italic" lengthAdjust="spacing" textLength="95" x="159" y="849.043">&#171;presentation&#187;</text><text fill="#000000" font-family="FG Virgil" font-size="14" lengthAdjust="spacing" textLength="117" x="148" y="867.6641">ListFutureExamsUI</text><rect fill="#E3E3E3" height="32.6211" rx="2.5" ry="2.5" style="stroke:#181818;stroke-width:0.5;" width="181" x="282" y="54.6211"/><text fill="#000000" font-family="FG Virgil" font-size="14" lengthAdjust="spacing" textLength="167" x="289" y="76.7285">ListFutureExamsController</text><rect fill="#E3E3E3" height="32.6211" rx="2.5" ry="2.5" style="stroke:#181818;stroke-width:0.5;" width="181" x="282" y="826.9355"/><text fill="#000000" font-family="FG Virgil" font-size="14" lengthAdjust="spacing" textLength="167" x="289" y="849.043">ListFutureExamsController</text><rect fill="#E3E3E3" height="51.2422" rx="2.5" ry="2.5" style="stroke:#181818;stroke-width:0.5;" width="151" x="676" y="36"/><text fill="#000000" font-family="FG Virgil" font-size="14" font-style="italic" lengthAdjust="spacing" textLength="60" x="721.5" y="58.1074">&#171;service&#187;</text><text fill="#000000" font-family="FG Virgil" font-size="14" lengthAdjust="spacing" textLength="137" x="683" y="76.7285">AuthenticationService</text><rect fill="#E3E3E3" height="51.2422" rx="2.5" ry="2.5" style="stroke:#181818;stroke-width:0.5;" width="151" x="676" y="826.9355"/><text fill="#000000" font-family="FG Virgil" font-size="14" font-style="italic" lengthAdjust="spacing" textLength="60" x="721.5" y="849.043">&#171;service&#187;</text><text fill="#000000" font-family="FG Virgil" font-size="14" lengthAdjust="spacing" textLength="137" x="683" y="867.6641">AuthenticationService</text><rect fill="#E3E3E3" height="51.2422" rx="2.5" ry="2.5" style="stroke:#181818;stroke-width:0.5;" width="93" x="837" y="36"/><text fill="#000000" font-family="FG Virgil" font-size="14" font-style="italic" lengthAdjust="spacing" textLength="64" x="851.5" y="58.1074">&#171;session&#187;</text><text fill="#000000" font-family="FG Virgil" font-size="14" lengthAdjust="spacing" textLength="79" x="844" y="76.7285">UserSession</text><rect fill="#E3E3E3" height="51.2422" rx="2.5" ry="2.5" style="stroke:#181818;stroke-width:0.5;" width="93" x="837" y="826.9355"/><text fill="#000000" font-family="FG Virgil" font-size="14" font-style="italic" lengthAdjust="spacing" textLength="64" x="851.5" y="849.043">&#171;session&#187;</text><text fill="#000000" font-family="FG Virgil" font-size="14" lengthAdjust="spacing" textLength="79" x="844" y="867.6641">UserSession</text><rect fill="#E3E3E3" height="51.2422" rx="2.5" ry="2.5" style="stroke:#181818;stroke-width:0.5;" width="177" x="940" y="36"/><text fill="#000000" font-family="FG Virgil" font-size="14" font-style="italic" lengthAdjust="spacing" textLength="60" x="998.5" y="58.1074">&#171;service&#187;</text><text fill="#000000" font-family="FG Virgil" font-size="14" lengthAdjust="spacing" textLength="163" x="947" y="76.7285">ExamManagementService</text><rect fill="#E3E3E3" height="51.2422" rx="2.5" ry="2.5" style="stroke:#181818;stroke-width:0.5;" width="177" x="940" y="826.9355"/><text fill="#000000" font-family="FG Virgil" font-size="14" font-style="italic" lengthAdjust="spacing" textLength="60" x="998.5" y="849.043">&#171;service&#187;</text><text fill="#000000" font-family="FG Virgil" font-size="14" lengthAdjust="spacing" textLength="163" x="947" y="867.6641">ExamManagementService</text><rect fill="#E3E3E3" height="51.2422" rx="2.5" ry="2.5" style="stroke:#181818;stroke-width:0.5;" width="136" x="1127" y="36"/><text fill="#000000" font-family="FG Virgil" font-size="14" font-style="italic" lengthAdjust="spacing" textLength="89" x="1150.5" y="58.1074">&#171;persistence&#187;</text><text fill="#000000" font-family="FG Virgil" font-size="14" lengthAdjust="spacing" textLength="122" x="1134" y="76.7285">PersistenceContext</text><rect fill="#E3E3E3" height="51.2422" rx="2.5" ry="2.5" style="stroke:#181818;stroke-width:0.5;" width="136" x="1127" y="826.9355"/><text fill="#000000" font-family="FG Virgil" font-size="14" font-style="italic" lengthAdjust="spacing" textLength="89" x="1150.5" y="849.043">&#171;persistence&#187;</text><text fill="#000000" font-family="FG Virgil" font-size="14" lengthAdjust="spacing" textLength="122" x="1134" y="867.6641">PersistenceContext</text><rect fill="#E3E3E3" height="51.2422" rx="2.5" ry="2.5" style="stroke:#181818;stroke-width:0.5;" width="130" x="1273" y="36"/><text fill="#000000" font-family="FG Virgil" font-size="14" font-style="italic" lengthAdjust="spacing" textLength="59" x="1308.5" y="58.1074">&#171;factory&#187;</text><text fill="#000000" font-family="FG Virgil" font-size="14" lengthAdjust="spacing" textLength="116" x="1280" y="76.7285">RepositoryFactory</text><rect fill="#E3E3E3" height="51.2422" rx="2.5" ry="2.5" style="stroke:#181818;stroke-width:0.5;" width="130" x="1273" y="826.9355"/><text fill="#000000" font-family="FG Virgil" font-size="14" font-style="italic" lengthAdjust="spacing" textLength="59" x="1308.5" y="849.043">&#171;factory&#187;</text><text fill="#000000" font-family="FG Virgil" font-size="14" lengthAdjust="spacing" textLength="116" x="1280" y="867.6641">RepositoryFactory</text><text fill="#000000" font-family="FG Virgil" font-size="14" font-style="italic" lengthAdjust="spacing" textLength="79" x="1428" y="66.1074">&#171;repository&#187;</text><text fill="#000000" font-family="FG Virgil" font-size="14" lengthAdjust="spacing" textLength="109" x="1413" y="84.7285">ExamsRepository</text><path d="M1452.5,15 C1452.5,5 1470.5,5 1470.5,5 C1470.5,5 1488.5,5 1488.5,15 L1488.5,41 C1488.5,51 1470.5,51 1470.5,51 C1470.5,51 1452.5,51 1452.5,41 L1452.5,15 " fill="#E3E3E3" style="stroke:#181818;stroke-width:1.5;"/><path d="M1452.5,15 C1452.5,25 1470.5,25 1470.5,25 C1470.5,25 1488.5,25 1488.5,15 " fill="none" style="stroke:#181818;stroke-width:1.5;"/><text fill="#000000" font-family="FG Virgil" font-size="14" font-style="italic" lengthAdjust="spacing" textLength="79" x="1428" y="842.043">&#171;repository&#187;</text><text fill="#000000" font-family="FG Virgil" font-size="14" lengthAdjust="spacing" textLength="109" x="1413" y="860.6641">ExamsRepository</text><path d="M1452.5,874.1777 C1452.5,864.1777 1470.5,864.1777 1470.5,864.1777 C1470.5,864.1777 1488.5,864.1777 1488.5,874.1777 L1488.5,900.1777 C1488.5,910.1777 1470.5,910.1777 1470.5,910.1777 C1470.5,910.1777 1452.5,910.1777 1452.5,900.1777 L1452.5,874.1777 " fill="#E3E3E3" style="stroke:#181818;stroke-width:1.5;"/><path d="M1452.5,874.1777 C1452.5,884.1777 1470.5,884.1777 1470.5,884.1777 C1470.5,884.1777 1488.5,884.1777 1488.5,874.1777 " fill="none" style="stroke:#181818;stroke-width:1.5;"/><rect fill="#FFFFFF" height="688.4023" style="stroke:#181818;stroke-width:1.0;" width="10" x="201.5" y="121.5332"/><rect fill="#FFFFFF" height="594.5293" style="stroke:#181818;stroke-width:1.0;" width="10" x="367.5" y="184.1152"/><rect fill="#FFFFFF" height="62.582" style="stroke:#181818;stroke-width:1.0;" width="10" x="746.5" y="277.9883"/><rect fill="#FFFFFF" height="31.291" style="stroke:#181818;stroke-width:1.0;" width="10" x="878.5" y="371.8613"/><rect fill="#FFFFFF" height="281.6191" style="stroke:#181818;stroke-width:1.0;" width="10" x="1023.5" y="465.7344"/><rect fill="#FFFFFF" height="62.582" style="stroke:#181818;stroke-width:1.0;" width="10" x="1190" y="497.0254"/><rect fill="#FFFFFF" height="62.582" style="stroke:#181818;stroke-width:1.0;" width="10" x="1333" y="590.8984"/><rect fill="#FFFFFF" height="31.291" style="stroke:#181818;stroke-width:1.0;" width="10" x="1465.5" y="684.7715"/><polygon fill="#181818" points="189.5,117.5332,199.5,121.5332,189.5,125.5332,193.5,121.5332" style="stroke:#181818;stroke-width:1.0;"/><line style="stroke:#181818;stroke-width:1.0;stroke-dasharray:2.0,2.0;" x1="32.5" x2="195.5" y1="121.5332" y2="121.5332"/><text fill="#000000" font-family="FG Virgil" font-size="13" lengthAdjust="spacing" textLength="96" x="39.5" y="116.2705">list future exams</text><polygon fill="#181818" points="360.5,148.8242,370.5,152.8242,360.5,156.8242,364.5,152.8242" style="stroke:#181818;stroke-width:1.0;"/><line style="stroke:#181818;stroke-width:1.0;" x1="211.5" x2="366.5" y1="152.8242" y2="152.8242"/><text fill="#000000" font-family="FG Virgil" font-size="13" lengthAdjust="spacing" textLength="44" x="218.5" y="147.5615">create()</text><polygon fill="#181818" points="355.5,180.1152,365.5,184.1152,355.5,188.1152,359.5,184.1152" style="stroke:#181818;stroke-width:1.0;"/><line style="stroke:#181818;stroke-width:1.0;" x1="211.5" x2="361.5" y1="184.1152" y2="184.1152"/><text fill="#000000" font-family="FG Virgil" font-size="13" lengthAdjust="spacing" textLength="103" x="218.5" y="178.8525">listFutureExams()</text><polygon fill="#181818" points="739.5,211.4063,749.5,215.4063,739.5,219.4063,743.5,215.4063" style="stroke:#181818;stroke-width:1.0;"/><line style="stroke:#181818;stroke-width:1.0;" x1="377.5" x2="745.5" y1="215.4063" y2="215.4063"/><text fill="#000000" font-family="FG Virgil" font-size="13" lengthAdjust="spacing" textLength="44" x="384.5" y="210.1436">create()</text><polygon fill="#181818" points="739.5,242.6973,749.5,246.6973,739.5,250.6973,743.5,246.6973" style="stroke:#181818;stroke-width:1.0;"/><line style="stroke:#181818;stroke-width:1.0;" x1="377.5" x2="745.5" y1="246.6973" y2="246.6973"/><text fill="#000000" font-family="FG Virgil" font-size="13" lengthAdjust="spacing" textLength="350" x="384.5" y="241.4346">ensureAuthenticatedUserHasAnyOf(CourseRoles.STUDENT)</text><polygon fill="#181818" points="871.5,273.9883,881.5,277.9883,871.5,281.9883,875.5,277.9883" style="stroke:#181818;stroke-width:1.0;"/><line style="stroke:#181818;stroke-width:1.0;" x1="756.5" x2="877.5" y1="277.9883" y2="277.9883"/><text fill="#000000" font-family="FG Virgil" font-size="13" lengthAdjust="spacing" textLength="44" x="763.5" y="272.7256">create()</text><polygon fill="#181818" points="734.5,305.2793,744.5,309.2793,734.5,313.2793,738.5,309.2793" style="stroke:#181818;stroke-width:1.0;"/><line style="stroke:#181818;stroke-width:1.0;" x1="377.5" x2="740.5" y1="309.2793" y2="309.2793"/><text fill="#000000" font-family="FG Virgil" font-size="13" lengthAdjust="spacing" textLength="53" x="384.5" y="304.0166">session()</text><polygon fill="#181818" points="388.5,336.5703,378.5,340.5703,388.5,344.5703,384.5,340.5703" style="stroke:#181818;stroke-width:1.0;"/><line style="stroke:#181818;stroke-width:1.0;" x1="382.5" x2="750.5" y1="340.5703" y2="340.5703"/><text fill="#000000" font-family="FG Virgil" font-size="13" lengthAdjust="spacing" textLength="45" x="394.5" y="335.3076">session</text><polygon fill="#181818" points="866.5,367.8613,876.5,371.8613,866.5,375.8613,870.5,371.8613" style="stroke:#181818;stroke-width:1.0;"/><line style="stroke:#181818;stroke-width:1.0;" x1="377.5" x2="872.5" y1="371.8613" y2="371.8613"/><text fill="#000000" font-family="FG Virgil" font-size="13" lengthAdjust="spacing" textLength="113" x="384.5" y="366.5986">authenticatedUser()</text><polygon fill="#181818" points="388.5,399.1523,378.5,403.1523,388.5,407.1523,384.5,403.1523" style="stroke:#181818;stroke-width:1.0;"/><line style="stroke:#181818;stroke-width:1.0;" x1="382.5" x2="882.5" y1="403.1523" y2="403.1523"/><text fill="#000000" font-family="FG Virgil" font-size="13" lengthAdjust="spacing" textLength="25" x="394.5" y="397.8896">user</text><polygon fill="#181818" points="1016.5,430.4434,1026.5,434.4434,1016.5,438.4434,1020.5,434.4434" style="stroke:#181818;stroke-width:1.0;"/><line style="stroke:#181818;stroke-width:1.0;" x1="377.5" x2="1022.5" y1="434.4434" y2="434.4434"/><text fill="#000000" font-family="FG Virgil" font-size="13" lengthAdjust="spacing" textLength="44" x="384.5" y="429.1807">create()</text><polygon fill="#181818" points="1011.5,461.7344,1021.5,465.7344,1011.5,469.7344,1015.5,465.7344" style="stroke:#181818;stroke-width:1.0;"/><line style="stroke:#181818;stroke-width:1.0;" x1="377.5" x2="1017.5" y1="465.7344" y2="465.7344"/><text fill="#000000" font-family="FG Virgil" font-size="13" lengthAdjust="spacing" textLength="148" x="384.5" y="460.4717">listStudentFutureExams()</text><polygon fill="#181818" points="1178,493.0254,1188,497.0254,1178,501.0254,1182,497.0254" style="stroke:#181818;stroke-width:1.0;"/><line style="stroke:#181818;stroke-width:1.0;" x1="1033.5" x2="1184" y1="497.0254" y2="497.0254"/><text fill="#000000" font-family="FG Virgil" font-size="13" lengthAdjust="spacing" textLength="75" x="1040.5" y="491.7627">repositories()</text><polygon fill="#181818" points="1326,524.3164,1336,528.3164,1326,532.3164,1330,528.3164" style="stroke:#181818;stroke-width:1.0;"/><line style="stroke:#181818;stroke-width:1.0;" x1="1200" x2="1332" y1="528.3164" y2="528.3164"/><text fill="#000000" font-family="FG Virgil" font-size="13" lengthAdjust="spacing" textLength="44" x="1207" y="523.0537">create()</text><polygon fill="#181818" points="1044.5,555.6074,1034.5,559.6074,1044.5,563.6074,1040.5,559.6074" style="stroke:#181818;stroke-width:1.0;"/><line style="stroke:#181818;stroke-width:1.0;" x1="1038.5" x2="1194" y1="559.6074" y2="559.6074"/><text fill="#000000" font-family="FG Virgil" font-size="13" lengthAdjust="spacing" textLength="39" x="1050.5" y="554.3447">factory</text><polygon fill="#181818" points="1321,586.8984,1331,590.8984,1321,594.8984,1325,590.8984" style="stroke:#181818;stroke-width:1.0;"/><line style="stroke:#181818;stroke-width:1.0;" x1="1033.5" x2="1327" y1="590.8984" y2="590.8984"/><text fill="#000000" font-family="FG Virgil" font-size="13" lengthAdjust="spacing" textLength="47" x="1040.5" y="585.6357">exams()</text><polygon fill="#181818" points="1458.5,618.1895,1468.5,622.1895,1458.5,626.1895,1462.5,622.1895" style="stroke:#181818;stroke-width:1.0;"/><line style="stroke:#181818;stroke-width:1.0;" x1="1343" x2="1464.5" y1="622.1895" y2="622.1895"/><text fill="#000000" font-family="FG Virgil" font-size="13" lengthAdjust="spacing" textLength="44" x="1350" y="616.9268">create()</text><polygon fill="#181818" points="1044.5,649.4805,1034.5,653.4805,1044.5,657.4805,1040.5,653.4805" style="stroke:#181818;stroke-width:1.0;"/><line style="stroke:#181818;stroke-width:1.0;" x1="1038.5" x2="1337" y1="653.4805" y2="653.4805"/><text fill="#000000" font-family="FG Virgil" font-size="13" lengthAdjust="spacing" textLength="94" x="1050.5" y="648.2178">examRepository</text><polygon fill="#181818" points="1453.5,680.7715,1463.5,684.7715,1453.5,688.7715,1457.5,684.7715" style="stroke:#181818;stroke-width:1.0;"/><line style="stroke:#181818;stroke-width:1.0;" x1="1033.5" x2="1459.5" y1="684.7715" y2="684.7715"/><text fill="#000000" font-family="FG Virgil" font-size="13" lengthAdjust="spacing" textLength="177" x="1040.5" y="679.5088">findFutureExamsByStudentId()</text><polygon fill="#181818" points="1044.5,712.0625,1034.5,716.0625,1044.5,720.0625,1040.5,716.0625" style="stroke:#181818;stroke-width:1.0;"/><line style="stroke:#181818;stroke-width:1.0;stroke-dasharray:2.0,2.0;" x1="1038.5" x2="1469.5" y1="716.0625" y2="716.0625"/><text fill="#000000" font-family="FG Virgil" font-size="13" lengthAdjust="spacing" textLength="73" x="1050.5" y="710.7998">futureExams</text><polygon fill="#181818" points="388.5,743.3535,378.5,747.3535,388.5,751.3535,384.5,747.3535" style="stroke:#181818;stroke-width:1.0;"/><line style="stroke:#181818;stroke-width:1.0;stroke-dasharray:2.0,2.0;" x1="382.5" x2="1027.5" y1="747.3535" y2="747.3535"/><text fill="#000000" font-family="FG Virgil" font-size="13" lengthAdjust="spacing" textLength="73" x="394.5" y="742.0908">futureExams</text><polygon fill="#181818" points="222.5,774.6445,212.5,778.6445,222.5,782.6445,218.5,778.6445" style="stroke:#181818;stroke-width:1.0;"/><line style="stroke:#181818;stroke-width:1.0;stroke-dasharray:2.0,2.0;" x1="216.5" x2="371.5" y1="778.6445" y2="778.6445"/><text fill="#000000" font-family="FG Virgil" font-size="13" lengthAdjust="spacing" textLength="73" x="228.5" y="773.3818">futureExams</text><polygon fill="#181818" points="43.5,805.9355,33.5,809.9355,43.5,813.9355,39.5,809.9355" style="stroke:#181818;stroke-width:1.0;"/><line style="stroke:#181818;stroke-width:1.0;" x1="37.5" x2="205.5" y1="809.9355" y2="809.9355"/><text fill="#000000" font-family="FG Virgil" font-size="13" lengthAdjust="spacing" textLength="145" x="49.5" y="804.6729">show the operation result</text><!--SRC=[VLN1Rjim3BthAtHC3za714Q0h6ks0bitrCtkcat7Gct9aEIstjUFaYsBTkjT0bbyx_69f1JxB5KdZ6XvgvKkQgDRuCxqmEmSwKJnBAwGkw41Rg1m95P29Vh6dRLo3mAfvw_yjpHNsH2ChKMfNwMwyaeq5XWJXTE6vwulGJakB3_v3OPe9mlP2TpyBgqxzwutSFScMdkvzp3ypRBEW4MQS5Ahu_5_f5iqPNJJWF7azBNWd7fNevmiWc0EvaKM43prxc-D-UoujKfrmUqSh4LES4O-FIMiLXJlwOTGMCaM4v9CSRcLwnSOYoS3LO0_1BovU1w_n8ga-8hv29ss4cixd4FD1q-CooohnXMIIk747s4XcBI9vl7aAylC_84i5lh6z_kZRys1D-Y2Lw417BnGQBLy4GuGm123IDAL0oyCO71tmpuADijsUjGiHxf9EAWmjeqeVnm6PL6ND1zAtyDlmfxKyBFQtUhUM7ZK3TXF-TFbozt3qmqRoVwqfDtq4BEzWDn8FKt7ZkWjZZt5MGahkPNUqeHO7mNrK_4Jb57QEdMFCPgNybRPuz1kLZe1V1-doxxLpWdC8caovkVxmEUPa_1-21328XHPSRXNjgPeyZIDFZriLACcaXoyypp5MCGWd5mLOe00aW6lb-3KHzIbFXR2bLGbAUJdOIhkVUdz9OD4dl3topea7KPD4EviOpqjMzpOJ3eFyOdOuf3xFBu4uzE2jw7Mhnn7csjyvi8RZVDWyIzdGSVNvHy0]--></g></svg>