<?xml version="1.0" encoding="us-ascii" standalone="no"?><svg xmlns="http://www.w3.org/2000/svg" xmlns:xlink="http://www.w3.org/1999/xlink" contentStyleType="text/css" height="762px" preserveAspectRatio="none" style="width:1046px;height:762px;background:#FFFFFF;" version="1.1" viewBox="0 0 1046 762" width="1046px" zoomAndPan="magnify"><defs/><g><rect fill="#FFFFFF" height="523.9473" style="stroke:#181818;stroke-width:1.0;" width="10" x="288.5" y="121.5332"/><rect fill="#FFFFFF" height="273.6191" style="stroke:#181818;stroke-width:1.0;" width="10" x="460.5" y="340.5703"/><rect fill="#FFFFFF" height="31.291" style="stroke:#181818;stroke-width:1.0;" width="10" x="623.5" y="277.9883"/><rect fill="#FFFFFF" height="156.4551" style="stroke:#181818;stroke-width:1.0;" width="10" x="743" y="426.4434"/><rect fill="#FFFFFF" height="93.873" style="stroke:#181818;stroke-width:1.0;" width="10" x="853" y="457.7344"/><rect fill="#FFFFFF" height="31.291" style="stroke:#181818;stroke-width:1.0;" width="10" x="984" y="489.0254"/><line style="stroke:#181818;stroke-width:0.5;stroke-dasharray:5.0,5.0;" x1="22" x2="22" y1="88.2422" y2="663.4805"/><line style="stroke:#181818;stroke-width:0.5;stroke-dasharray:5.0,5.0;" x1="293" x2="293" y1="88.2422" y2="663.4805"/><line style="stroke:#181818;stroke-width:0.5;stroke-dasharray:5.0,5.0;" x1="465.5" x2="465.5" y1="88.2422" y2="663.4805"/><line style="stroke:#181818;stroke-width:0.5;stroke-dasharray:5.0,5.0;" x1="628.5" x2="628.5" y1="88.2422" y2="663.4805"/><line style="stroke:#181818;stroke-width:0.5;stroke-dasharray:5.0,5.0;" x1="747.5" x2="747.5" y1="88.2422" y2="663.4805"/><line style="stroke:#181818;stroke-width:0.5;stroke-dasharray:5.0,5.0;" x1="858" x2="858" y1="88.2422" y2="663.4805"/><line style="stroke:#181818;stroke-width:0.5;stroke-dasharray:5.0,5.0;" x1="989" x2="989" y1="88.2422" y2="663.4805"/><text fill="#000000" font-family="FG Virgil" font-size="14" lengthAdjust="spacing" textLength="29" x="5" y="84.7285">User</text><ellipse cx="22.5" cy="18.1211" fill="#E3E3E3" rx="8" ry="8" style="stroke:#181818;stroke-width:0.5;"/><path d="M22.5,26.1211 L22.5,53.1211 M9.5,34.1211 L35.5,34.1211 M22.5,53.1211 L9.5,68.1211 M22.5,53.1211 L35.5,68.1211 " fill="none" style="stroke:#181818;stroke-width:0.5;"/><text fill="#000000" font-family="FG Virgil" font-size="14" lengthAdjust="spacing" textLength="29" x="5" y="677.5879">User</text><ellipse cx="22.5" cy="689.6016" fill="#E3E3E3" rx="8" ry="8" style="stroke:#181818;stroke-width:0.5;"/><path d="M22.5,697.6016 L22.5,724.6016 M9.5,705.6016 L35.5,705.6016 M22.5,724.6016 L9.5,739.6016 M22.5,724.6016 L35.5,739.6016 " fill="none" style="stroke:#181818;stroke-width:0.5;"/><rect fill="#E3E3E3" height="51.2422" rx="2.5" ry="2.5" style="stroke:#181818;stroke-width:0.5;" width="107" x="240" y="36"/><text fill="#000000" font-family="FG Virgil" font-size="14" font-style="italic" lengthAdjust="spacing" textLength="83" x="252" y="58.1074">&#171;http server&#187;</text><text fill="#000000" font-family="FG Virgil" font-size="14" lengthAdjust="spacing" textLength="93" x="247" y="76.7285">HttpServerAjax</text><rect fill="#E3E3E3" height="51.2422" rx="2.5" ry="2.5" style="stroke:#181818;stroke-width:0.5;" width="107" x="240" y="662.4805"/><text fill="#000000" font-family="FG Virgil" font-size="14" font-style="italic" lengthAdjust="spacing" textLength="83" x="252" y="684.5879">&#171;http server&#187;</text><text fill="#000000" font-family="FG Virgil" font-size="14" lengthAdjust="spacing" textLength="93" x="247" y="703.209">HttpServerAjax</text><rect fill="#E3E3E3" height="51.2422" rx="2.5" ry="2.5" style="stroke:#181818;stroke-width:0.5;" width="186" x="372.5" y="36"/><text fill="#000000" font-family="FG Virgil" font-size="14" font-style="italic" lengthAdjust="spacing" textLength="84" x="423.5" y="58.1074">&#171;application&#187;</text><text fill="#000000" font-family="FG Virgil" font-size="14" lengthAdjust="spacing" textLength="172" x="379.5" y="76.7285">ViewBoardHistoryController</text><rect fill="#E3E3E3" height="51.2422" rx="2.5" ry="2.5" style="stroke:#181818;stroke-width:0.5;" width="186" x="372.5" y="662.4805"/><text fill="#000000" font-family="FG Virgil" font-size="14" font-style="italic" lengthAdjust="spacing" textLength="84" x="423.5" y="684.5879">&#171;application&#187;</text><text fill="#000000" font-family="FG Virgil" font-size="14" lengthAdjust="spacing" textLength="172" x="379.5" y="703.209">ViewBoardHistoryController</text><rect fill="#E3E3E3" height="32.6211" rx="2.5" ry="2.5" style="stroke:#181818;stroke-width:0.5;" width="120" x="568.5" y="54.6211"/><text fill="#000000" font-family="FG Virgil" font-size="14" lengthAdjust="spacing" textLength="106" x="575.5" y="76.7285">SessionManager</text><rect fill="#E3E3E3" height="32.6211" rx="2.5" ry="2.5" style="stroke:#181818;stroke-width:0.5;" width="120" x="568.5" y="662.4805"/><text fill="#000000" font-family="FG Virgil" font-size="14" lengthAdjust="spacing" textLength="106" x="575.5" y="684.5879">SessionManager</text><rect fill="#E3E3E3" height="51.2422" rx="2.5" ry="2.5" style="stroke:#181818;stroke-width:0.5;" width="99" x="698.5" y="36"/><text fill="#000000" font-family="FG Virgil" font-size="14" font-style="italic" lengthAdjust="spacing" textLength="60" x="718" y="58.1074">&#171;service&#187;</text><text fill="#000000" font-family="FG Virgil" font-size="14" lengthAdjust="spacing" textLength="85" x="705.5" y="76.7285">BoardService</text><rect fill="#E3E3E3" height="51.2422" rx="2.5" ry="2.5" style="stroke:#181818;stroke-width:0.5;" width="99" x="698.5" y="662.4805"/><text fill="#000000" font-family="FG Virgil" font-size="14" font-style="italic" lengthAdjust="spacing" textLength="60" x="718" y="684.5879">&#171;service&#187;</text><text fill="#000000" font-family="FG Virgil" font-size="14" lengthAdjust="spacing" textLength="85" x="705.5" y="703.209">BoardService</text><rect fill="#E3E3E3" height="51.2422" rx="2.5" ry="2.5" style="stroke:#181818;stroke-width:0.5;" width="76" x="820" y="36"/><text fill="#000000" font-family="FG Virgil" font-size="14" font-style="italic" lengthAdjust="spacing" textLength="62" x="827" y="58.1074">&#171;domain&#187;</text><text fill="#000000" font-family="FG Virgil" font-size="14" lengthAdjust="spacing" textLength="38" x="839" y="76.7285">Board</text><rect fill="#E3E3E3" height="51.2422" rx="2.5" ry="2.5" style="stroke:#181818;stroke-width:0.5;" width="76" x="820" y="662.4805"/><text fill="#000000" font-family="FG Virgil" font-size="14" font-style="italic" lengthAdjust="spacing" textLength="62" x="827" y="684.5879">&#171;domain&#187;</text><text fill="#000000" font-family="FG Virgil" font-size="14" lengthAdjust="spacing" textLength="38" x="839" y="703.209">Board</text><text fill="#000000" font-family="FG Virgil" font-size="14" font-style="italic" lengthAdjust="spacing" textLength="79" x="946.5" y="66.1074">&#171;repository&#187;</text><text fill="#000000" font-family="FG Virgil" font-size="14" lengthAdjust="spacing" textLength="106" x="933" y="84.7285">BoardRepository</text><path d="M971,15 C971,5 989,5 989,5 C989,5 1007,5 1007,15 L1007,41 C1007,51 989,51 989,51 C989,51 971,51 971,41 L971,15 " fill="#E3E3E3" style="stroke:#181818;stroke-width:1.5;"/><path d="M971,15 C971,25 989,25 989,25 C989,25 1007,25 1007,15 " fill="none" style="stroke:#181818;stroke-width:1.5;"/><text fill="#000000" font-family="FG Virgil" font-size="14" font-style="italic" lengthAdjust="spacing" textLength="79" x="946.5" y="677.5879">&#171;repository&#187;</text><text fill="#000000" font-family="FG Virgil" font-size="14" lengthAdjust="spacing" textLength="106" x="933" y="696.209">BoardRepository</text><path d="M971,709.7227 C971,699.7227 989,699.7227 989,699.7227 C989,699.7227 1007,699.7227 1007,709.7227 L1007,735.7227 C1007,745.7227 989,745.7227 989,745.7227 C989,745.7227 971,745.7227 971,735.7227 L971,709.7227 " fill="#E3E3E3" style="stroke:#181818;stroke-width:1.5;"/><path d="M971,709.7227 C971,719.7227 989,719.7227 989,719.7227 C989,719.7227 1007,719.7227 1007,709.7227 " fill="none" style="stroke:#181818;stroke-width:1.5;"/><rect fill="#FFFFFF" height="523.9473" style="stroke:#181818;stroke-width:1.0;" width="10" x="288.5" y="121.5332"/><rect fill="#FFFFFF" height="273.6191" style="stroke:#181818;stroke-width:1.0;" width="10" x="460.5" y="340.5703"/><rect fill="#FFFFFF" height="31.291" style="stroke:#181818;stroke-width:1.0;" width="10" x="623.5" y="277.9883"/><rect fill="#FFFFFF" height="156.4551" style="stroke:#181818;stroke-width:1.0;" width="10" x="743" y="426.4434"/><rect fill="#FFFFFF" height="93.873" style="stroke:#181818;stroke-width:1.0;" width="10" x="853" y="457.7344"/><rect fill="#FFFFFF" height="31.291" style="stroke:#181818;stroke-width:1.0;" width="10" x="984" y="489.0254"/><polygon fill="#181818" points="276.5,117.5332,286.5,121.5332,276.5,125.5332,280.5,121.5332" style="stroke:#181818;stroke-width:1.0;"/><line style="stroke:#181818;stroke-width:1.0;" x1="22.5" x2="282.5" y1="121.5332" y2="121.5332"/><text fill="#000000" font-family="FG Virgil" font-size="13" lengthAdjust="spacing" textLength="154" x="29.5" y="116.2705">View the history of a board</text><polygon fill="#181818" points="453.5,148.8242,463.5,152.8242,453.5,156.8242,457.5,152.8242" style="stroke:#181818;stroke-width:1.0;"/><line style="stroke:#181818;stroke-width:1.0;" x1="298.5" x2="459.5" y1="152.8242" y2="152.8242"/><text fill="#000000" font-family="FG Virgil" font-size="13" lengthAdjust="spacing" textLength="44" x="305.5" y="147.5615">create()</text><polygon fill="#181818" points="616.5,180.1152,626.5,184.1152,616.5,188.1152,620.5,184.1152" style="stroke:#181818;stroke-width:1.0;"/><line style="stroke:#181818;stroke-width:1.0;" x1="298.5" x2="622.5" y1="184.1152" y2="184.1152"/><text fill="#000000" font-family="FG Virgil" font-size="13" lengthAdjust="spacing" textLength="44" x="305.5" y="178.8525">create()</text><polygon fill="#181818" points="33.5,211.4063,23.5,215.4063,33.5,219.4063,29.5,215.4063" style="stroke:#181818;stroke-width:1.0;"/><line style="stroke:#181818;stroke-width:1.0;" x1="27.5" x2="287.5" y1="215.4063" y2="215.4063"/><text fill="#000000" font-family="FG Virgil" font-size="13" lengthAdjust="spacing" textLength="242" x="39.5" y="210.1436">onLoad after clicking on the previous page</text><polygon fill="#181818" points="276.5,242.6973,286.5,246.6973,276.5,250.6973,280.5,246.6973" style="stroke:#181818;stroke-width:1.0;"/><line style="stroke:#181818;stroke-width:1.0;" x1="22.5" x2="282.5" y1="246.6973" y2="246.6973"/><text fill="#000000" font-family="FG Virgil" font-size="13" lengthAdjust="spacing" textLength="42" x="29.5" y="241.4346">boardId</text><polygon fill="#181818" points="611.5,273.9883,621.5,277.9883,611.5,281.9883,615.5,277.9883" style="stroke:#181818;stroke-width:1.0;"/><line style="stroke:#181818;stroke-width:1.0;" x1="298.5" x2="617.5" y1="277.9883" y2="277.9883"/><text fill="#000000" font-family="FG Virgil" font-size="13" lengthAdjust="spacing" textLength="136" x="305.5" y="272.7256">getUserByToken(token)</text><polygon fill="#181818" points="309.5,305.2793,299.5,309.2793,309.5,313.2793,305.5,309.2793" style="stroke:#181818;stroke-width:1.0;"/><line style="stroke:#181818;stroke-width:1.0;" x1="303.5" x2="627.5" y1="309.2793" y2="309.2793"/><text fill="#000000" font-family="FG Virgil" font-size="13" lengthAdjust="spacing" textLength="52" x="315.5" y="304.0166">authUser</text><polygon fill="#181818" points="448.5,336.5703,458.5,340.5703,448.5,344.5703,452.5,340.5703" style="stroke:#181818;stroke-width:1.0;"/><line style="stroke:#181818;stroke-width:1.0;" x1="298.5" x2="454.5" y1="340.5703" y2="340.5703"/><text fill="#000000" font-family="FG Virgil" font-size="13" lengthAdjust="spacing" textLength="143" x="305.5" y="335.3076">getBoardHistory(boardId)</text><polygon fill="#181818" points="736,379.5068,746,383.5068,736,387.5068,740,383.5068" style="stroke:#181818;stroke-width:1.0;"/><line style="stroke:#181818;stroke-width:1.0;" x1="470.5" x2="742" y1="383.5068" y2="383.5068"/><text fill="#000000" font-family="FG Virgil" font-size="13" lengthAdjust="spacing" textLength="44" x="477.5" y="378.2441">create()</text><path d="M753,353.5703 L753,397.5703 L995,397.5703 L995,363.5703 L985,353.5703 L753,353.5703 " fill="#FAFAFA" style="stroke:#181818;stroke-width:0.5;"/><path d="M985,353.5703 L985,363.5703 L995,363.5703 L985,353.5703 " fill="#FAFAFA" style="stroke:#181818;stroke-width:0.5;"/><text fill="#000000" font-family="FG Virgil" font-size="13" lengthAdjust="spacing" textLength="221" x="759" y="372.5986">dependency injection was abastracted</text><text fill="#000000" font-family="FG Virgil" font-size="13" lengthAdjust="spacing" textLength="127" x="759" y="389.8896">for diagram readability</text><polygon fill="#181818" points="731,422.4434,741,426.4434,731,430.4434,735,426.4434" style="stroke:#181818;stroke-width:1.0;"/><line style="stroke:#181818;stroke-width:1.0;" x1="470.5" x2="737" y1="426.4434" y2="426.4434"/><text fill="#000000" font-family="FG Virgil" font-size="13" lengthAdjust="spacing" textLength="149" x="477.5" y="421.1807">viewBoardHistory(boardId)</text><polygon fill="#181818" points="841,453.7344,851,457.7344,841,461.7344,845,457.7344" style="stroke:#181818;stroke-width:1.0;"/><line style="stroke:#181818;stroke-width:1.0;" x1="753" x2="847" y1="457.7344" y2="457.7344"/><text fill="#000000" font-family="FG Virgil" font-size="13" lengthAdjust="spacing" textLength="81" x="760" y="452.4717">boardHistory()</text><polygon fill="#181818" points="972,485.0254,982,489.0254,972,493.0254,976,489.0254" style="stroke:#181818;stroke-width:1.0;"/><line style="stroke:#181818;stroke-width:1.0;" x1="863" x2="978" y1="489.0254" y2="489.0254"/><text fill="#000000" font-family="FG Virgil" font-size="13" lengthAdjust="spacing" textLength="102" x="870" y="483.7627">ofIdentity(boardId)</text><polygon fill="#181818" points="874,516.3164,864,520.3164,874,524.3164,870,520.3164" style="stroke:#181818;stroke-width:1.0;"/><line style="stroke:#181818;stroke-width:1.0;" x1="868" x2="988" y1="520.3164" y2="520.3164"/><text fill="#000000" font-family="FG Virgil" font-size="13" lengthAdjust="spacing" textLength="32" x="880" y="515.0537">board</text><polygon fill="#181818" points="764,547.6074,754,551.6074,764,555.6074,760,551.6074" style="stroke:#181818;stroke-width:1.0;"/><line style="stroke:#181818;stroke-width:1.0;" x1="758" x2="857" y1="551.6074" y2="551.6074"/><text fill="#000000" font-family="FG Virgil" font-size="13" lengthAdjust="spacing" textLength="73" x="770" y="546.3447">boardHistory</text><polygon fill="#181818" points="481.5,578.8984,471.5,582.8984,481.5,586.8984,477.5,582.8984" style="stroke:#181818;stroke-width:1.0;"/><line style="stroke:#181818;stroke-width:1.0;" x1="475.5" x2="747" y1="582.8984" y2="582.8984"/><text fill="#000000" font-family="FG Virgil" font-size="13" lengthAdjust="spacing" textLength="73" x="487.5" y="577.6357">boardHistory</text><polygon fill="#181818" points="309.5,610.1895,299.5,614.1895,309.5,618.1895,305.5,614.1895" style="stroke:#181818;stroke-width:1.0;"/><line style="stroke:#181818;stroke-width:1.0;" x1="303.5" x2="464.5" y1="614.1895" y2="614.1895"/><text fill="#000000" font-family="FG Virgil" font-size="13" lengthAdjust="spacing" textLength="73" x="315.5" y="608.9268">boardHistory</text><polygon fill="#181818" points="33.5,641.4805,23.5,645.4805,33.5,649.4805,29.5,645.4805" style="stroke:#181818;stroke-width:1.0;"/><line style="stroke:#181818;stroke-width:1.0;" x1="27.5" x2="292.5" y1="645.4805" y2="645.4805"/><text fill="#000000" font-family="FG Virgil" font-size="13" lengthAdjust="spacing" textLength="73" x="39.5" y="640.2178">boardHistory</text><!--SRC=[VLFBRjim4BppA_Re7Fe3Xc0WRf4cGDL3rURKorfSIOnbKY3NTlNtNKfoHDbEBWANdDcPVIZiZUtGum4EphgoyUv0mFv8Aho_T5ZkiQQ2-vR0Kyd9cwOAZoq_ESi_KQXFt-7L-Dgq2IOqgDtPs1egR0CfXIKx3ty2US00Zp5I0cLJcWujmpDpLv0_aNzymtyHCqQGPOqyGHYYpMP1UZLqtZhq-ja4ITX_5KlUjUqeaaHPXbtNcXBPE7kLfA0Gv3P7AmKFn29V00Q5wCQKT34MZraMnjDLmW4VWT_S0OqLd1uE0jF8kCD08-ONTIwOQ3oYvsWh5FyU2KqD_O8lcwafww5ou8QW6Ii7Lm72BcQDhJOdP9h0IasT5FhSaZMKdWIqUaYUYnpkte_oQt3sXqCfhMAvBwMV-pXXPmSddQUJSSSWkrFJjMCX3-PUzBLSJHotOjl_TdkoAuxVXwI6NFpdYqHuv2PIbAObx4wPeq2w8wl9Hw8nmvLAg9Dc77NI5Uk4uKtTy5h-X8wi9blsOEoR_2MoHt2MMSOXinS1qdzj9OtG1kluNqWMZJlJ6ku_rZfThVKTonDuB3go9C6qRbEdBzo4D0BKX1D6kd8otUf5Qc6nTaSmWQgKTgERJYKbpQfpeQdHb3SPJOjRZFGZtgKhjutzb9RC_tRdFzEA2_CV]--></g></svg>