<?xml version="1.0" encoding="us-ascii" standalone="no"?><svg xmlns="http://www.w3.org/2000/svg" xmlns:xlink="http://www.w3.org/1999/xlink" contentStyleType="text/css" height="726px" preserveAspectRatio="none" style="width:427px;height:726px;background:#FFFFFF;" version="1.1" viewBox="0 0 427 726" width="427px" zoomAndPan="magnify"><defs/><g><!--class HttpServerAjax--><g id="elem_HttpServerAjax"><rect codeLine="7" fill="#F1F1F1" height="79.2031" id="HttpServerAjax" rx="2.5" ry="2.5" style="stroke:#181818;stroke-width:0.5;" width="130" x="182" y="7"/><ellipse cx="199.25" cy="29.291" fill="#C2C2C2" rx="11" ry="11" style="stroke:#181818;stroke-width:1.0;"/><path d="M202.0156,25.166 Q202.1719,24.9473 202.3594,24.8379 Q202.5469,24.7285 202.7656,24.7285 Q203.1406,24.7285 203.375,24.9941 Q203.6094,25.2441 203.6094,25.8535 L203.6094,27.3066 Q203.6094,27.916 203.375,28.1816 Q203.1406,28.4473 202.7656,28.4473 Q202.4219,28.4473 202.2188,28.2441 Q202.0156,28.0566 201.9063,27.541 Q201.8594,27.1816 201.6719,26.9941 Q201.3438,26.6191 200.7344,26.4004 Q200.125,26.1816 199.5,26.1816 Q198.7344,26.1816 198.0938,26.5098 Q197.4688,26.8379 196.9688,27.5879 Q196.4844,28.3379 196.4844,29.3691 L196.4844,30.4629 Q196.4844,31.6973 197.375,32.5254 Q198.2656,33.3379 199.8594,33.3379 Q200.7969,33.3379 201.4531,33.0879 Q201.8438,32.9316 202.2656,32.4941 Q202.5313,32.2285 202.6719,32.1504 Q202.8281,32.0723 203.0313,32.0723 Q203.3594,32.0723 203.6094,32.3379 Q203.875,32.5879 203.875,32.9316 Q203.875,33.2754 203.5313,33.6816 Q203.0313,34.2598 202.2344,34.5879 Q201.1563,35.041 199.8594,35.041 Q198.3438,35.041 197.1406,34.416 Q196.1563,33.916 195.4688,32.8535 Q194.7813,31.7754 194.7813,30.4941 L194.7813,29.3379 Q194.7813,28.0098 195.3906,26.8691 Q196.0156,25.7129 197.1094,25.1035 Q198.2031,24.4785 199.4375,24.4785 Q200.1719,24.4785 200.8125,24.6504 Q201.4688,24.8066 202.0156,25.166 Z " fill="#000000"/><text fill="#000000" font-family="FG Virgil" font-size="12" font-style="italic" lengthAdjust="spacing" textLength="71" x="224.75" y="24.9492">&#171;http server&#187;</text><text fill="#000000" font-family="FG Virgil" font-size="14" lengthAdjust="spacing" textLength="93" x="213.75" y="43.0684">HttpServerAjax</text><line style="stroke:#181818;stroke-width:0.5;" x1="183" x2="311" y1="51.582" y2="51.582"/><line style="stroke:#181818;stroke-width:0.5;" x1="183" x2="311" y1="59.582" y2="59.582"/><text fill="#000000" font-family="FG Virgil" font-size="14" lengthAdjust="spacing" textLength="118" x="188" y="78.6895">viewBoardHistory()</text></g><!--class ViewBoardHistoryController--><g id="elem_ViewBoardHistoryController"><rect codeLine="8" fill="#F1F1F1" height="79.2031" id="ViewBoardHistoryController" rx="2.5" ry="2.5" style="stroke:#181818;stroke-width:0.5;" width="204" x="43" y="165"/><ellipse cx="58" cy="187.291" fill="#C2C2C2" rx="11" ry="11" style="stroke:#181818;stroke-width:1.0;"/><path d="M60.7656,183.166 Q60.9219,182.9473 61.1094,182.8379 Q61.2969,182.7285 61.5156,182.7285 Q61.8906,182.7285 62.125,182.9941 Q62.3594,183.2441 62.3594,183.8535 L62.3594,185.3066 Q62.3594,185.916 62.125,186.1816 Q61.8906,186.4473 61.5156,186.4473 Q61.1719,186.4473 60.9688,186.2441 Q60.7656,186.0566 60.6563,185.541 Q60.6094,185.1816 60.4219,184.9941 Q60.0938,184.6191 59.4844,184.4004 Q58.875,184.1816 58.25,184.1816 Q57.4844,184.1816 56.8438,184.5098 Q56.2188,184.8379 55.7188,185.5879 Q55.2344,186.3379 55.2344,187.3691 L55.2344,188.4629 Q55.2344,189.6973 56.125,190.5254 Q57.0156,191.3379 58.6094,191.3379 Q59.5469,191.3379 60.2031,191.0879 Q60.5938,190.9316 61.0156,190.4941 Q61.2813,190.2285 61.4219,190.1504 Q61.5781,190.0723 61.7813,190.0723 Q62.1094,190.0723 62.3594,190.3379 Q62.625,190.5879 62.625,190.9316 Q62.625,191.2754 62.2813,191.6816 Q61.7813,192.2598 60.9844,192.5879 Q59.9063,193.041 58.6094,193.041 Q57.0938,193.041 55.8906,192.416 Q54.9063,191.916 54.2188,190.8535 Q53.5313,189.7754 53.5313,188.4941 L53.5313,187.3379 Q53.5313,186.0098 54.1406,184.8691 Q54.7656,183.7129 55.8594,183.1035 Q56.9531,182.4785 58.1875,182.4785 Q58.9219,182.4785 59.5625,182.6504 Q60.2188,182.8066 60.7656,183.166 Z " fill="#000000"/><text fill="#000000" font-family="FG Virgil" font-size="12" font-style="italic" lengthAdjust="spacing" textLength="74" x="121" y="182.9492">&#171;application&#187;</text><text fill="#000000" font-family="FG Virgil" font-size="14" lengthAdjust="spacing" textLength="172" x="72" y="201.0684">ViewBoardHistoryController</text><line style="stroke:#181818;stroke-width:0.5;" x1="44" x2="246" y1="209.582" y2="209.582"/><line style="stroke:#181818;stroke-width:0.5;" x1="44" x2="246" y1="217.582" y2="217.582"/><text fill="#000000" font-family="FG Virgil" font-size="14" lengthAdjust="spacing" textLength="118" x="49" y="236.6895">viewBoardHistory()</text></g><!--class SessionManager--><g id="elem_SessionManager"><rect codeLine="9" fill="#F1F1F1" height="66.6211" id="SessionManager" rx="2.5" ry="2.5" style="stroke:#181818;stroke-width:0.5;" width="138" x="282" y="171"/><ellipse cx="297" cy="187" fill="#C2C2C2" rx="11" ry="11" style="stroke:#181818;stroke-width:1.0;"/><path d="M299.7656,182.875 Q299.9219,182.6563 300.1094,182.5469 Q300.2969,182.4375 300.5156,182.4375 Q300.8906,182.4375 301.125,182.7031 Q301.3594,182.9531 301.3594,183.5625 L301.3594,185.0156 Q301.3594,185.625 301.125,185.8906 Q300.8906,186.1563 300.5156,186.1563 Q300.1719,186.1563 299.9688,185.9531 Q299.7656,185.7656 299.6563,185.25 Q299.6094,184.8906 299.4219,184.7031 Q299.0938,184.3281 298.4844,184.1094 Q297.875,183.8906 297.25,183.8906 Q296.4844,183.8906 295.8438,184.2188 Q295.2188,184.5469 294.7188,185.2969 Q294.2344,186.0469 294.2344,187.0781 L294.2344,188.1719 Q294.2344,189.4063 295.125,190.2344 Q296.0156,191.0469 297.6094,191.0469 Q298.5469,191.0469 299.2031,190.7969 Q299.5938,190.6406 300.0156,190.2031 Q300.2813,189.9375 300.4219,189.8594 Q300.5781,189.7813 300.7813,189.7813 Q301.1094,189.7813 301.3594,190.0469 Q301.625,190.2969 301.625,190.6406 Q301.625,190.9844 301.2813,191.3906 Q300.7813,191.9688 299.9844,192.2969 Q298.9063,192.75 297.6094,192.75 Q296.0938,192.75 294.8906,192.125 Q293.9063,191.625 293.2188,190.5625 Q292.5313,189.4844 292.5313,188.2031 L292.5313,187.0469 Q292.5313,185.7188 293.1406,184.5781 Q293.7656,183.4219 294.8594,182.8125 Q295.9531,182.1875 297.1875,182.1875 Q297.9219,182.1875 298.5625,182.3594 Q299.2188,182.5156 299.7656,182.875 Z " fill="#000000"/><text fill="#000000" font-family="FG Virgil" font-size="14" lengthAdjust="spacing" textLength="106" x="311" y="192.7969">SessionManager</text><line style="stroke:#181818;stroke-width:0.5;" x1="283" x2="419" y1="203" y2="203"/><line style="stroke:#181818;stroke-width:0.5;" x1="283" x2="419" y1="211" y2="211"/><text fill="#000000" font-family="FG Virgil" font-size="14" lengthAdjust="spacing" textLength="115" x="288" y="230.1074">getUserByToken()</text></g><!--class BoardRepository--><g id="elem_BoardRepository"><rect codeLine="10" fill="#F1F1F1" height="97.8242" id="BoardRepository" rx="2.5" ry="2.5" style="stroke:#181818;stroke-width:0.5;" width="138" x="7" y="481"/><ellipse cx="22" cy="503.291" fill="#C2C2C2" rx="11" ry="11" style="stroke:#181818;stroke-width:1.0;"/><path d="M24.7656,499.166 Q24.9219,498.9473 25.1094,498.8379 Q25.2969,498.7285 25.5156,498.7285 Q25.8906,498.7285 26.125,498.9941 Q26.3594,499.2441 26.3594,499.8535 L26.3594,501.3066 Q26.3594,501.916 26.125,502.1816 Q25.8906,502.4473 25.5156,502.4473 Q25.1719,502.4473 24.9688,502.2441 Q24.7656,502.0566 24.6563,501.541 Q24.6094,501.1816 24.4219,500.9941 Q24.0938,500.6191 23.4844,500.4004 Q22.875,500.1816 22.25,500.1816 Q21.4844,500.1816 20.8438,500.5098 Q20.2188,500.8379 19.7188,501.5879 Q19.2344,502.3379 19.2344,503.3691 L19.2344,504.4629 Q19.2344,505.6973 20.125,506.5254 Q21.0156,507.3379 22.6094,507.3379 Q23.5469,507.3379 24.2031,507.0879 Q24.5938,506.9316 25.0156,506.4941 Q25.2813,506.2285 25.4219,506.1504 Q25.5781,506.0723 25.7813,506.0723 Q26.1094,506.0723 26.3594,506.3379 Q26.625,506.5879 26.625,506.9316 Q26.625,507.2754 26.2813,507.6816 Q25.7813,508.2598 24.9844,508.5879 Q23.9063,509.041 22.6094,509.041 Q21.0938,509.041 19.8906,508.416 Q18.9063,507.916 18.2188,506.8535 Q17.5313,505.7754 17.5313,504.4941 L17.5313,503.3379 Q17.5313,502.0098 18.1406,500.8691 Q18.7656,499.7129 19.8594,499.1035 Q20.9531,498.4785 22.1875,498.4785 Q22.9219,498.4785 23.5625,498.6504 Q24.2188,498.8066 24.7656,499.166 Z " fill="#000000"/><text fill="#000000" font-family="FG Virgil" font-size="12" font-style="italic" lengthAdjust="spacing" textLength="68" x="55" y="498.9492">&#171;repository&#187;</text><text fill="#000000" font-family="FG Virgil" font-size="14" lengthAdjust="spacing" textLength="106" x="36" y="517.0684">BoardRepository</text><line style="stroke:#181818;stroke-width:0.5;" x1="8" x2="144" y1="525.582" y2="525.582"/><line style="stroke:#181818;stroke-width:0.5;" x1="8" x2="144" y1="533.582" y2="533.582"/><text fill="#000000" font-family="FG Virgil" font-size="14" lengthAdjust="spacing" textLength="99" x="13" y="552.6895">ofIdentity(Long)</text><text fill="#000000" font-family="FG Virgil" font-size="14" lengthAdjust="spacing" textLength="78" x="13" y="571.3105">save(Board)</text></g><!--class BoardService--><g id="elem_BoardService"><rect codeLine="11" fill="#F1F1F1" height="79.2031" id="BoardService" rx="2.5" ry="2.5" style="stroke:#181818;stroke-width:0.5;" width="182" x="54" y="323"/><ellipse cx="98.25" cy="345.291" fill="#C2C2C2" rx="11" ry="11" style="stroke:#181818;stroke-width:1.0;"/><path d="M101.0156,341.166 Q101.1719,340.9473 101.3594,340.8379 Q101.5469,340.7285 101.7656,340.7285 Q102.1406,340.7285 102.375,340.9941 Q102.6094,341.2441 102.6094,341.8535 L102.6094,343.3066 Q102.6094,343.916 102.375,344.1816 Q102.1406,344.4473 101.7656,344.4473 Q101.4219,344.4473 101.2188,344.2441 Q101.0156,344.0566 100.9063,343.541 Q100.8594,343.1816 100.6719,342.9941 Q100.3438,342.6191 99.7344,342.4004 Q99.125,342.1816 98.5,342.1816 Q97.7344,342.1816 97.0938,342.5098 Q96.4688,342.8379 95.9688,343.5879 Q95.4844,344.3379 95.4844,345.3691 L95.4844,346.4629 Q95.4844,347.6973 96.375,348.5254 Q97.2656,349.3379 98.8594,349.3379 Q99.7969,349.3379 100.4531,349.0879 Q100.8438,348.9316 101.2656,348.4941 Q101.5313,348.2285 101.6719,348.1504 Q101.8281,348.0723 102.0313,348.0723 Q102.3594,348.0723 102.6094,348.3379 Q102.875,348.5879 102.875,348.9316 Q102.875,349.2754 102.5313,349.6816 Q102.0313,350.2598 101.2344,350.5879 Q100.1563,351.041 98.8594,351.041 Q97.3438,351.041 96.1406,350.416 Q95.1563,349.916 94.4688,348.8535 Q93.7813,347.7754 93.7813,346.4941 L93.7813,345.3379 Q93.7813,344.0098 94.3906,342.8691 Q95.0156,341.7129 96.1094,341.1035 Q97.2031,340.4785 98.4375,340.4785 Q99.1719,340.4785 99.8125,340.6504 Q100.4688,340.8066 101.0156,341.166 Z " fill="#000000"/><text fill="#000000" font-family="FG Virgil" font-size="12" font-style="italic" lengthAdjust="spacing" textLength="53" x="134.75" y="340.9492">&#171;service&#187;</text><text fill="#000000" font-family="FG Virgil" font-size="14" lengthAdjust="spacing" textLength="85" x="118.75" y="359.0684">BoardService</text><line style="stroke:#181818;stroke-width:0.5;" x1="55" x2="235" y1="367.582" y2="367.582"/><line style="stroke:#181818;stroke-width:0.5;" x1="55" x2="235" y1="375.582" y2="375.582"/><text fill="#000000" font-family="FG Virgil" font-size="14" lengthAdjust="spacing" textLength="170" x="60" y="394.6895">viewBoardHistoryUpdates()</text></g><!--class Board--><g id="elem_Board"><rect codeLine="12" fill="#F1F1F1" height="79.2031" id="Board" rx="2.5" ry="2.5" style="stroke:#181818;stroke-width:0.5;" width="259" x="15.5" y="640"/><ellipse cx="114.75" cy="662.291" fill="#C2C2C2" rx="11" ry="11" style="stroke:#181818;stroke-width:1.0;"/><path d="M117.5156,658.166 Q117.6719,657.9473 117.8594,657.8379 Q118.0469,657.7285 118.2656,657.7285 Q118.6406,657.7285 118.875,657.9941 Q119.1094,658.2441 119.1094,658.8535 L119.1094,660.3066 Q119.1094,660.916 118.875,661.1816 Q118.6406,661.4473 118.2656,661.4473 Q117.9219,661.4473 117.7188,661.2441 Q117.5156,661.0566 117.4063,660.541 Q117.3594,660.1816 117.1719,659.9941 Q116.8438,659.6191 116.2344,659.4004 Q115.625,659.1816 115,659.1816 Q114.2344,659.1816 113.5938,659.5098 Q112.9688,659.8379 112.4688,660.5879 Q111.9844,661.3379 111.9844,662.3691 L111.9844,663.4629 Q111.9844,664.6973 112.875,665.5254 Q113.7656,666.3379 115.3594,666.3379 Q116.2969,666.3379 116.9531,666.0879 Q117.3438,665.9316 117.7656,665.4941 Q118.0313,665.2285 118.1719,665.1504 Q118.3281,665.0723 118.5313,665.0723 Q118.8594,665.0723 119.1094,665.3379 Q119.375,665.5879 119.375,665.9316 Q119.375,666.2754 119.0313,666.6816 Q118.5313,667.2598 117.7344,667.5879 Q116.6563,668.041 115.3594,668.041 Q113.8438,668.041 112.6406,667.416 Q111.6563,666.916 110.9688,665.8535 Q110.2813,664.7754 110.2813,663.4941 L110.2813,662.3379 Q110.2813,661.0098 110.8906,659.8691 Q111.5156,658.7129 112.6094,658.1035 Q113.7031,657.4785 114.9375,657.4785 Q115.6719,657.4785 116.3125,657.6504 Q116.9688,657.8066 117.5156,658.166 Z " fill="#000000"/><text fill="#000000" font-family="FG Virgil" font-size="12" font-style="italic" lengthAdjust="spacing" textLength="56" x="133.25" y="657.9492">&#171;domain&#187;</text><text fill="#000000" font-family="FG Virgil" font-size="14" lengthAdjust="spacing" textLength="38" x="142.25" y="676.0684">Board</text><line style="stroke:#181818;stroke-width:0.5;" x1="16.5" x2="273.5" y1="684.582" y2="684.582"/><line style="stroke:#181818;stroke-width:0.5;" x1="16.5" x2="273.5" y1="692.582" y2="692.582"/><text fill="#000000" font-family="FG Virgil" font-size="14" lengthAdjust="spacing" textLength="247" x="21.5" y="711.6895">userHasPermission(User, AccessLevel)</text></g><!--class User--><g id="elem_User"><rect codeLine="13" fill="#F1F1F1" height="60.582" id="User" rx="2.5" ry="2.5" style="stroke:#181818;stroke-width:0.5;" width="84" x="309" y="332"/><ellipse cx="324" cy="354.291" fill="#C2C2C2" rx="11" ry="11" style="stroke:#181818;stroke-width:1.0;"/><path d="M326.7656,350.166 Q326.9219,349.9473 327.1094,349.8379 Q327.2969,349.7285 327.5156,349.7285 Q327.8906,349.7285 328.125,349.9941 Q328.3594,350.2441 328.3594,350.8535 L328.3594,352.3066 Q328.3594,352.916 328.125,353.1816 Q327.8906,353.4473 327.5156,353.4473 Q327.1719,353.4473 326.9688,353.2441 Q326.7656,353.0566 326.6563,352.541 Q326.6094,352.1816 326.4219,351.9941 Q326.0938,351.6191 325.4844,351.4004 Q324.875,351.1816 324.25,351.1816 Q323.4844,351.1816 322.8438,351.5098 Q322.2188,351.8379 321.7188,352.5879 Q321.2344,353.3379 321.2344,354.3691 L321.2344,355.4629 Q321.2344,356.6973 322.125,357.5254 Q323.0156,358.3379 324.6094,358.3379 Q325.5469,358.3379 326.2031,358.0879 Q326.5938,357.9316 327.0156,357.4941 Q327.2813,357.2285 327.4219,357.1504 Q327.5781,357.0723 327.7813,357.0723 Q328.1094,357.0723 328.3594,357.3379 Q328.625,357.5879 328.625,357.9316 Q328.625,358.2754 328.2813,358.6816 Q327.7813,359.2598 326.9844,359.5879 Q325.9063,360.041 324.6094,360.041 Q323.0938,360.041 321.8906,359.416 Q320.9063,358.916 320.2188,357.8535 Q319.5313,356.7754 319.5313,355.4941 L319.5313,354.3379 Q319.5313,353.0098 320.1406,351.8691 Q320.7656,350.7129 321.8594,350.1035 Q322.9531,349.4785 324.1875,349.4785 Q324.9219,349.4785 325.5625,349.6504 Q326.2188,349.8066 326.7656,350.166 Z " fill="#000000"/><text fill="#000000" font-family="FG Virgil" font-size="12" font-style="italic" lengthAdjust="spacing" textLength="56" x="336" y="349.9492">&#171;domain&#187;</text><text fill="#000000" font-family="FG Virgil" font-size="14" lengthAdjust="spacing" textLength="29" x="349.5" y="368.0684">User</text><line style="stroke:#181818;stroke-width:0.5;" x1="310" x2="392" y1="376.582" y2="376.582"/><line style="stroke:#181818;stroke-width:0.5;" x1="310" x2="392" y1="384.582" y2="384.582"/></g><!--link HttpServerAjax to ViewBoardHistoryController--><g id="link_HttpServerAjax_ViewBoardHistoryController"><path codeLine="15" d="M221.79,86.06 C207.01,108.66 188.32,137.24 173.08,160.55 " fill="none" id="HttpServerAjax-to-ViewBoardHistoryController" style="stroke:#181818;stroke-width:1.0;"/><polygon fill="#181818" points="170.28,164.84,178.5457,159.4849,173.0105,160.6514,171.8439,155.1161,170.28,164.84" style="stroke:#181818;stroke-width:1.0;"/><text fill="#000000" font-family="FG Virgil" font-size="13" lengthAdjust="spacing" textLength="73" x="204" y="131.0283">theController</text></g><!--link HttpServerAjax to SessionManager--><g id="link_HttpServerAjax_SessionManager"><path codeLine="16" d="M272.71,86.06 C289.07,110.61 310.15,142.23 326.32,166.47 " fill="none" id="HttpServerAjax-to-SessionManager" style="stroke:#181818;stroke-width:1.0;"/><polygon fill="#181818" points="329.27,170.91,327.6213,161.2001,326.5031,166.7454,320.9578,165.6272,329.27,170.91" style="stroke:#181818;stroke-width:1.0;"/><text fill="#000000" font-family="FG Virgil" font-size="13" lengthAdjust="spacing" textLength="95" x="306" y="131.0283">sessionManager</text></g><!--link SessionManager to User--><g id="link_SessionManager_User"><path codeLine="17" d="M351,238.2 C351,264.08 351,300.15 351,326.59 " fill="none" id="SessionManager-to-User" style="stroke:#181818;stroke-width:1.0;stroke-dasharray:7.0,7.0;"/><polygon fill="#181818" points="351,331.74,355,322.74,351,326.74,347,322.74,351,331.74" style="stroke:#181818;stroke-width:1.0;"/></g><!--link ViewBoardHistoryController to BoardService--><g id="link_ViewBoardHistoryController_BoardService"><path codeLine="18" d="M145,244.06 C145,266.37 145,294.53 145,317.68 " fill="none" id="ViewBoardHistoryController-to-BoardService" style="stroke:#181818;stroke-width:1.0;"/><polygon fill="#181818" points="145,322.84,149,313.84,145,317.84,141,313.84,145,322.84" style="stroke:#181818;stroke-width:1.0;"/><text fill="#000000" font-family="FG Virgil" font-size="13" lengthAdjust="spacing" textLength="74" x="146" y="289.0283">boardService</text></g><!--link BoardService to BoardRepository--><g id="link_BoardService_BoardRepository"><path codeLine="19" d="M110.76,402.05 C103.96,411.34 97.54,421.6 93,432 C87.09,445.54 83.24,460.98 80.72,475.51 " fill="none" id="BoardService-to-BoardRepository" style="stroke:#181818;stroke-width:1.0;"/><polygon fill="#181818" points="79.85,480.82,85.2366,472.5747,80.6489,475.8842,77.3393,471.2965,79.85,480.82" style="stroke:#181818;stroke-width:1.0;"/><text fill="#000000" font-family="FG Virgil" font-size="13" lengthAdjust="spacing" textLength="94" x="94" y="447.0283">boardRepository</text></g><!--link BoardRepository to Board--><g id="link_BoardRepository_Board"><path codeLine="20" d="M98.59,579.3 C107,597.27 116.48,617.54 124.67,635.05 " fill="none" id="BoardRepository-to-Board" style="stroke:#181818;stroke-width:1.0;"/><polygon fill="#181818" points="126.95,639.91,126.7671,630.0628,124.8348,635.3794,119.5182,633.4472,126.95,639.91" style="stroke:#181818;stroke-width:1.0;"/></g><!--link BoardService to Board--><g id="link_BoardService_Board"><path codeLine="21" d="M178.14,402.23 C184.25,411.43 189.72,421.61 193,432 C214.92,501.48 187.77,585.29 166.27,635.11 " fill="none" id="BoardService-to-Board" style="stroke:#181818;stroke-width:1.0;"/><polygon fill="#181818" points="164.21,639.83,171.4744,633.1795,166.2088,635.2469,164.1415,629.9814,164.21,639.83" style="stroke:#181818;stroke-width:1.0;"/><text fill="#000000" font-family="FG Virgil" font-size="13" lengthAdjust="spacing" textLength="32" x="203" y="535.5283">board</text></g><!--SRC=[VL11Ri8m4Bpx5Ju6gVG124M2IfHAjAfAuRvrbiJ5iIsl2StlwxWGaa2vsRCpipDBUwajE2XvQRGHXJCbSkyEoAYTM11xo77jQuNSeV2TMOOxE2Y_CDg_GP0kdlbMkbog3eSAoCnHwfplG14o9XGGyQNtTeskGZVxXXy-dHO1u1IHD3sHjXAFSmCkMqhonjLFOP4pIg4B0h1MIG5U6jqAraWK_g-WGsHt0gF31rf3iZ49KjT-McKaDO6amC2WlrT_7F3Cb20l-pOKexGe6zGQZzDx9IRS5tZvtrBt6mK5zIiEve-FQGp5xcnjR7jr9_ohysMzMKlk7F34lo1io6XL_vYTBQuEDk7L87WoObStoD4t9UVrfzcZ3eoxDxxXEAW_P6ni1XxfJ0oCGrYt17f7LyeO9ca2FF2P427S2YjK8tPz9xDxoL1xwUjaPNH-Yq9GOHBX4ME_]--></g></svg>