<?xml version="1.0" encoding="us-ascii" standalone="no"?><svg xmlns="http://www.w3.org/2000/svg" xmlns:xlink="http://www.w3.org/1999/xlink" contentStyleType="text/css" height="851px" preserveAspectRatio="none" style="width:767px;height:851px;background:#FFFFFF;" version="1.1" viewBox="0 0 767 851" width="767px" zoomAndPan="magnify"><defs/><g><text fill="#000000" font-family="sans-serif" font-size="14" font-weight="bold" lengthAdjust="spacing" textLength="158" x="297.5" y="25.1074">Domain Model Excerpt</text><!--cluster User Aggregate--><g id="cluster_User Aggregate"><rect fill="none" height="799" rx="2.5" ry="2.5" style="stroke:#000000;stroke-width:1.5;" width="754" x="7" y="46.6211"/><text fill="#000000" font-family="sans-serif" font-size="14" font-weight="bold" lengthAdjust="spacing" textLength="110" x="329" y="63.7285">User Aggregate</text></g><!--class User--><g id="elem_User"><rect codeLine="28" fill="#D8F5FF" height="68.543" id="User" rx="2.5" ry="2.5" style="stroke:#1E90FF;stroke-width:0.5;" width="71" x="84.5" y="422.1211"/><ellipse cx="99.5" cy="452.3926" fill="#ADD1B2" rx="11" ry="11" style="stroke:#181818;stroke-width:1.0;"/><path d="M98.3594,453.1895 L98.3594,455.6895 L102.6875,455.6895 L102.6875,454.7676 Q102.6875,454.1582 102.9219,453.8926 Q103.1719,453.627 103.5469,453.627 Q103.9219,453.627 104.1563,453.8926 Q104.3906,454.1582 104.3906,454.7676 L104.3906,457.3926 L96.3906,457.3926 Q95.7656,457.3926 95.5,457.1582 Q95.25,456.9238 95.25,456.5332 Q95.25,456.1582 95.5156,455.9238 Q95.7813,455.6895 96.3906,455.6895 L96.6563,455.6895 L96.6563,449.0332 L96.3906,449.0332 Q95.7656,449.0332 95.5,448.7988 Q95.25,448.5645 95.25,448.1738 Q95.25,447.7988 95.5,447.5645 Q95.7656,447.3301 96.3906,447.3301 L104.0156,447.3301 L104.0156,449.9238 Q104.0156,450.5332 103.7813,450.7988 Q103.5625,451.0488 103.1719,451.0488 Q102.7969,451.0488 102.5625,450.7988 Q102.3281,450.5332 102.3281,449.9238 L102.3281,449.0332 L98.3594,449.0332 L98.3594,451.4863 L99.8438,451.4863 Q99.8438,450.8301 99.9688,450.6426 Q100.2344,450.2363 100.7031,450.2363 Q101.0781,450.2363 101.3125,450.502 Q101.5469,450.752 101.5469,451.3613 L101.5469,453.3301 Q101.5469,453.877 101.4219,454.0645 Q101.1563,454.4551 100.7031,454.4551 Q100.2344,454.4551 99.9688,454.0488 Q99.8438,453.8613 99.8438,453.1895 L98.3594,453.1895 Z " fill="#000000"/><text fill="#000000" font-family="sans-serif" font-size="12" font-style="italic" lengthAdjust="spacing" textLength="43" x="111.5" y="440.0703">&#171;entity&#187;</text><text fill="#000000" font-family="sans-serif" font-size="12" font-style="italic" lengthAdjust="spacing" textLength="35" x="115.5" y="456.0313">&#171;root&#187;</text><text fill="#000000" font-family="sans-serif" font-size="14" lengthAdjust="spacing" textLength="29" x="118.5" y="474.1504">User</text><line style="stroke:#1E90FF;stroke-width:0.5;" x1="85.5" x2="154.5" y1="482.6641" y2="482.6641"/></g><g id="elem_GMN14"><path d="M511,794.1211 L511,803.6211 L422.82,807.6211 L511,811.6211 L511,821.4121 A0,0 0 0 0 511,821.4121 L745,821.4121 A0,0 0 0 0 745,821.4121 L745,804.1211 L735,794.1211 L511,794.1211 A0,0 0 0 0 511,794.1211 " fill="#FEFFDD" style="stroke:#181818;stroke-width:0.5;"/><path d="M735,794.1211 L735,804.1211 L745,804.1211 L735,794.1211 " fill="#FEFFDD" style="stroke:#181818;stroke-width:0.5;"/><text fill="#000000" font-family="sans-serif" font-size="13" lengthAdjust="spacing" textLength="213" x="517" y="813.1494">Can be Teacher, Student or Manager</text></g><g id="elem_GMN27"><path d="M23,784.1211 L23,828.7031 A0,0 0 0 0 23,828.7031 L217,828.7031 A0,0 0 0 0 217,828.7031 L217,811.0211 L305.31,807.3811 L217,803.0211 L217,794.1211 L207,784.1211 L23,784.1211 A0,0 0 0 0 23,784.1211 " fill="#FEFFDD" style="stroke:#181818;stroke-width:0.5;"/><path d="M207,784.1211 L207,794.1211 L217,794.1211 L207,784.1211 " fill="#FEFFDD" style="stroke:#181818;stroke-width:0.5;"/><text fill="#000000" font-family="sans-serif" font-size="13" lengthAdjust="spacing" textLength="173" x="29" y="803.1494">This is only used for purposes</text><text fill="#000000" font-family="sans-serif" font-size="13" lengthAdjust="spacing" textLength="88" x="29" y="820.4404">of authorization</text></g><!--entity EmailAddress--><g id="elem_EmailAddress"><rect fill="#D8F5FF" height="43.2422" rx="2.5" ry="2.5" style="stroke:#1E90FF;stroke-width:0.5;" width="117" x="305.5" y="708.1211"/><text fill="#000000" font-family="sans-serif" font-size="14" font-style="italic" lengthAdjust="spacing" textLength="97" x="315.5" y="726.2285">&#171;Value Object&#187;</text><text fill="#000000" font-family="sans-serif" font-size="14" lengthAdjust="spacing" textLength="86" x="321" y="744.8496">EmailAddress</text></g><!--entity Password--><g id="elem_Password"><rect fill="#D8F5FF" height="43.2422" rx="2.5" ry="2.5" style="stroke:#1E90FF;stroke-width:0.5;" width="117" x="305.5" y="630.1211"/><text fill="#000000" font-family="sans-serif" font-size="14" font-style="italic" lengthAdjust="spacing" textLength="97" x="315.5" y="648.2285">&#171;Value Object&#187;</text><text fill="#000000" font-family="sans-serif" font-size="14" lengthAdjust="spacing" textLength="61" x="333.5" y="666.8496">Password</text></g><!--entity FullName--><g id="elem_FullName"><rect fill="#D8F5FF" height="43.2422" rx="2.5" ry="2.5" style="stroke:#1E90FF;stroke-width:0.5;" width="117" x="305.5" y="552.1211"/><text fill="#000000" font-family="sans-serif" font-size="14" font-style="italic" lengthAdjust="spacing" textLength="97" x="315.5" y="570.2285">&#171;Value Object&#187;</text><text fill="#000000" font-family="sans-serif" font-size="14" lengthAdjust="spacing" textLength="59" x="334.5" y="588.8496">FullName</text></g><!--entity ShortName--><g id="elem_ShortName"><rect fill="#D8F5FF" height="43.2422" rx="2.5" ry="2.5" style="stroke:#1E90FF;stroke-width:0.5;" width="117" x="305.5" y="474.1211"/><text fill="#000000" font-family="sans-serif" font-size="14" font-style="italic" lengthAdjust="spacing" textLength="97" x="315.5" y="492.2285">&#171;Value Object&#187;</text><text fill="#000000" font-family="sans-serif" font-size="14" lengthAdjust="spacing" textLength="70" x="329" y="510.8496">ShortName</text></g><!--entity UserState--><g id="elem_UserState"><rect fill="#D8F5FF" height="43.2422" rx="2.5" ry="2.5" style="stroke:#1E90FF;stroke-width:0.5;" width="117" x="305.5" y="396.1211"/><text fill="#000000" font-family="sans-serif" font-size="14" font-style="italic" lengthAdjust="spacing" textLength="97" x="315.5" y="414.2285">&#171;Value Object&#187;</text><text fill="#000000" font-family="sans-serif" font-size="14" lengthAdjust="spacing" textLength="62" x="333" y="432.8496">UserState</text></g><!--entity MechanographicNumber--><g id="elem_MechanographicNumber"><rect fill="#D8F5FF" height="43.2422" rx="2.5" ry="2.5" style="stroke:#1E90FF;stroke-width:0.5;" width="174" x="277" y="318.1211"/><text fill="#000000" font-family="sans-serif" font-size="14" font-style="italic" lengthAdjust="spacing" textLength="97" x="315.5" y="336.2285">&#171;Value Object&#187;</text><text fill="#000000" font-family="sans-serif" font-size="14" lengthAdjust="spacing" textLength="154" x="287" y="354.8496">MechanographicNumber</text></g><!--entity Acronym--><g id="elem_Acronym"><rect fill="#D8F5FF" height="43.2422" rx="2.5" ry="2.5" style="stroke:#1E90FF;stroke-width:0.5;" width="117" x="305.5" y="240.1211"/><text fill="#000000" font-family="sans-serif" font-size="14" font-style="italic" lengthAdjust="spacing" textLength="97" x="315.5" y="258.2285">&#171;Value Object&#187;</text><text fill="#000000" font-family="sans-serif" font-size="14" lengthAdjust="spacing" textLength="55" x="336.5" y="276.8496">Acronym</text></g><!--entity BirthDate--><g id="elem_BirthDate"><rect fill="#D8F5FF" height="43.2422" rx="2.5" ry="2.5" style="stroke:#1E90FF;stroke-width:0.5;" width="117" x="305.5" y="162.1211"/><text fill="#000000" font-family="sans-serif" font-size="14" font-style="italic" lengthAdjust="spacing" textLength="97" x="315.5" y="180.2285">&#171;Value Object&#187;</text><text fill="#000000" font-family="sans-serif" font-size="14" lengthAdjust="spacing" textLength="59" x="334.5" y="198.8496">BirthDate</text></g><!--entity TaxPayerNumber--><g id="elem_TaxPayerNumber"><rect fill="#D8F5FF" height="43.2422" rx="2.5" ry="2.5" style="stroke:#1E90FF;stroke-width:0.5;" width="129" x="299.5" y="84.1211"/><text fill="#000000" font-family="sans-serif" font-size="14" font-style="italic" lengthAdjust="spacing" textLength="97" x="315.5" y="102.2285">&#171;Value Object&#187;</text><text fill="#000000" font-family="sans-serif" font-size="14" lengthAdjust="spacing" textLength="109" x="309.5" y="120.8496">TaxPayerNumber</text></g><!--entity Role--><g id="elem_Role"><rect fill="#D8F5FF" height="43.2422" rx="2.5" ry="2.5" style="stroke:#1E90FF;stroke-width:0.5;" width="117" x="305.5" y="786.1211"/><text fill="#000000" font-family="sans-serif" font-size="14" font-style="italic" lengthAdjust="spacing" textLength="97" x="315.5" y="804.2285">&#171;Value Object&#187;</text><text fill="#000000" font-family="sans-serif" font-size="14" lengthAdjust="spacing" textLength="29" x="349.5" y="822.8496">Role</text></g><!--link User to EmailAddress--><g id="link_User_EmailAddress"><path codeLine="53" d="M136.37,491.2011 C160.11,541.1511 210.02,633.7211 277,690.6211 C284.06,696.6211 292.2,701.8711 300.59,706.4111 " fill="none" id="User-to-EmailAddress" style="stroke:#1E90FF;stroke-width:1.0;"/><polygon fill="#1E90FF" points="305.28,708.8711,299.1756,701.1421,300.8545,706.5441,295.4525,708.223,305.28,708.8711" style="stroke:#1E90FF;stroke-width:1.0;"/></g><!--link User to Password--><g id="link_User_Password"><path codeLine="54" d="M149.1,491.2611 C178.27,525.5211 226.61,577.7411 277,612.6211 C284.96,618.1311 293.83,623.1811 302.75,627.6811 " fill="none" id="User-to-Password" style="stroke:#1E90FF;stroke-width:1.0;"/><polygon fill="#1E90FF" points="307.72,630.1211,301.4009,622.5667,303.2308,627.9194,297.8782,629.7494,307.72,630.1211" style="stroke:#1E90FF;stroke-width:1.0;"/></g><!--link User to FullName--><g id="link_User_FullName"><path codeLine="55" d="M155.51,474.3511 C187,490.4111 234.9,514.5611 277,534.6211 C287.62,539.6811 299.04,544.9711 309.98,549.9611 " fill="none" id="User-to-FullName" style="stroke:#1E90FF;stroke-width:1.0;"/><polygon fill="#1E90FF" points="314.64,552.0811,308.1019,544.7154,310.0882,550.0121,304.7915,551.9983,314.64,552.0811" style="stroke:#1E90FF;stroke-width:1.0;"/></g><!--link User to ShortName--><g id="link_User_ShortName"><path codeLine="56" d="M155.67,462.2111 C193.38,468.2811 254.41,478.1211 300.52,485.5511 " fill="none" id="User-to-ShortName" style="stroke:#1E90FF;stroke-width:1.0;"/><polygon fill="#1E90FF" points="305.5,486.3511,297.2547,480.9645,300.5642,485.5522,295.9765,488.8618,305.5,486.3511" style="stroke:#1E90FF;stroke-width:1.0;"/></g><!--link User to Role--><g id="link_User_Role"><path codeLine="57" d="M129.95,491.2311 C147.85,554.2011 193.67,688.3911 277,768.6211 C283.88,775.2411 292.07,780.8711 300.63,785.6111 " fill="none" id="User-to-Role" style="stroke:#1E90FF;stroke-width:1.0;"/><polygon fill="#1E90FF" points="305.42,788.1511,299.3651,780.3833,301.0094,785.7959,295.5968,787.4403,305.42,788.1511" style="stroke:#1E90FF;stroke-width:1.0;"/></g><!--link User to UserState--><g id="link_User_UserState"><path codeLine="58" d="M155.67,451.0311 C193.38,444.9611 254.41,435.1211 300.52,427.6911 " fill="none" id="User-to-UserState" style="stroke:#1E90FF;stroke-width:1.0;"/><polygon fill="#1E90FF" points="305.5,426.8911,295.9765,424.3804,300.5642,427.6899,297.2547,432.2776,305.5,426.8911" style="stroke:#1E90FF;stroke-width:1.0;"/></g><!--link User to MechanographicNumber--><g id="link_User_MechanographicNumber"><path codeLine="59" d="M155.51,438.8911 C187,422.8311 234.9,398.6811 277,378.6211 C287.62,373.5611 299.04,368.2711 309.98,363.2811 " fill="none" id="User-to-MechanographicNumber" style="stroke:#1E90FF;stroke-width:1.0;"/><polygon fill="#1E90FF" points="314.64,361.1611,304.7915,361.2439,310.0882,363.2301,308.1019,368.5268,314.64,361.1611" style="stroke:#1E90FF;stroke-width:1.0;"/></g><!--link User to Acronym--><g id="link_User_Acronym"><path codeLine="60" d="M149.1,421.9811 C178.27,387.7211 226.61,335.5011 277,300.6211 C284.96,295.1111 293.83,290.0611 302.75,285.5611 " fill="none" id="User-to-Acronym" style="stroke:#1E90FF;stroke-width:1.0;"/><polygon fill="#1E90FF" points="307.72,283.1211,297.8782,283.4928,303.2308,285.3228,301.4009,290.6755,307.72,283.1211" style="stroke:#1E90FF;stroke-width:1.0;"/></g><!--link User to BirthDate--><g id="link_User_BirthDate"><path codeLine="61" d="M136.37,422.0411 C160.11,372.0911 210.02,279.5211 277,222.6211 C284.06,216.6211 292.2,211.3711 300.59,206.8311 " fill="none" id="User-to-BirthDate" style="stroke:#1E90FF;stroke-width:1.0;"/><polygon fill="#1E90FF" points="305.28,204.3711,295.4525,205.0192,300.8545,206.6981,299.1756,212.1,305.28,204.3711" style="stroke:#1E90FF;stroke-width:1.0;"/></g><!--link User to TaxPayerNumber--><g id="link_User_TaxPayerNumber"><path codeLine="62" d="M129.95,422.0111 C147.85,359.0411 193.67,224.8511 277,144.6211 C282.87,138.9711 289.7,134.0411 296.9,129.7711 " fill="none" id="User-to-TaxPayerNumber" style="stroke:#1E90FF;stroke-width:1.0;"/><polygon fill="#1E90FF" points="301.42,127.2011,291.6195,128.176,297.0744,129.6741,295.5763,135.129,301.42,127.2011" style="stroke:#1E90FF;stroke-width:1.0;"/></g><!--SRC=[pPJ1Rjim38RlVWgYE-oo0hiK60R3W9CqG80a3UPiTyLYRAsoQD3oMdVekuzHqdHQKcJ76hc4_4YH_2bvuot2X1fb72n8euNRnnAvzKbI6utGeAz9Tud5hGTFmAQgFMZ3M7f3BacwU-DQnQg1qggkoxrdi-azpafoXNb2-7p2mEy4v9kRBSwDmn6nHXwJ9PPAT8KyiZt6Y2hlAwRUwJsMhrRpsJXVp-wMWVlN_s7oPNepdGPVpamFPxE_SV3ptmMtabbLMFX1vhHhMhdAOjIIOlt-Ephq0LVVEvJJgegnKXwl3fMZyyOF49nfkl-NPMdAH3xBakHZyFnIaWreyrFcq8MuqFojR8_DjMOKRTFqHw3k0fLb-_pFh_HADk11whnCJdjhbwh1osHH4_l_GtUD55vQlumkiAoLeufLMvjosJURC9qBKNd9v8Rc18GJScJOrvDpfPooQ_MuKWFo6rMS1dmZUo6l8pbvVvzf6_YlC5OEDWXhL6MD_0aAtslP1f1zMYWd2yH9Y0thS7sTHTh7dXUTO-kBfh7rg5zitjKKMuxgnUPpIiN4GPNOU1GWDiUpJbw75Hx1mwo2TVUjQzE1_CZP0VeEDMnbMctFBNNO7J49KxsyfMoUL7WvzzTEXynoG_y0]--></g></svg>