<?xml version="1.0" encoding="us-ascii" standalone="no"?><svg xmlns="http://www.w3.org/2000/svg" xmlns:xlink="http://www.w3.org/1999/xlink" contentStyleType="text/css" height="1182px" preserveAspectRatio="none" style="width:742px;height:1182px;background:#FFFFFF;" version="1.1" viewBox="0 0 742 1182" width="742px" zoomAndPan="magnify"><defs/><g><!--class RequestEnrollmentUI--><g id="elem_RequestEnrollmentUI"><rect codeLine="5" fill="#F1F1F1" height="48" id="RequestEnrollmentUI" rx="2.5" ry="2.5" style="stroke:#181818;stroke-width:0.5;" width="164" x="436" y="7"/><ellipse cx="451" cy="23" fill="#ADD1B2" rx="11" ry="11" style="stroke:#181818;stroke-width:1.0;"/><path d="M453.7656,18.875 Q453.9219,18.6563 454.1094,18.5469 Q454.2969,18.4375 454.5156,18.4375 Q454.8906,18.4375 455.125,18.7031 Q455.3594,18.9531 455.3594,19.5625 L455.3594,21.0156 Q455.3594,21.625 455.125,21.8906 Q454.8906,22.1563 454.5156,22.1563 Q454.1719,22.1563 453.9688,21.9531 Q453.7656,21.7656 453.6563,21.25 Q453.6094,20.8906 453.4219,20.7031 Q453.0938,20.3281 452.4844,20.1094 Q451.875,19.8906 451.25,19.8906 Q450.4844,19.8906 449.8438,20.2188 Q449.2188,20.5469 448.7188,21.2969 Q448.2344,22.0469 448.2344,23.0781 L448.2344,24.1719 Q448.2344,25.4063 449.125,26.2344 Q450.0156,27.0469 451.6094,27.0469 Q452.5469,27.0469 453.2031,26.7969 Q453.5938,26.6406 454.0156,26.2031 Q454.2813,25.9375 454.4219,25.8594 Q454.5781,25.7813 454.7813,25.7813 Q455.1094,25.7813 455.3594,26.0469 Q455.625,26.2969 455.625,26.6406 Q455.625,26.9844 455.2813,27.3906 Q454.7813,27.9688 453.9844,28.2969 Q452.9063,28.75 451.6094,28.75 Q450.0938,28.75 448.8906,28.125 Q447.9063,27.625 447.2188,26.5625 Q446.5313,25.4844 446.5313,24.2031 L446.5313,23.0469 Q446.5313,21.7188 447.1406,20.5781 Q447.7656,19.4219 448.8594,18.8125 Q449.9531,18.1875 451.1875,18.1875 Q451.9219,18.1875 452.5625,18.3594 Q453.2188,18.5156 453.7656,18.875 Z " fill="#000000"/><text fill="#000000" font-family="sans-serif" font-size="14" lengthAdjust="spacing" textLength="132" x="465" y="28.7969">RequestEnrollmentUI</text><line style="stroke:#181818;stroke-width:0.5;" x1="437" x2="599" y1="39" y2="39"/><line style="stroke:#181818;stroke-width:0.5;" x1="437" x2="599" y1="47" y2="47"/></g><!--class RequestEnrollmentController--><g id="elem_RequestEnrollmentController"><rect codeLine="8" fill="#F1F1F1" height="79.2031" id="RequestEnrollmentController" rx="2.5" ry="2.5" style="stroke:#181818;stroke-width:0.5;" width="233" x="401.5" y="116"/><ellipse cx="425.05" cy="138.291" fill="#ADD1B2" rx="11" ry="11" style="stroke:#181818;stroke-width:1.0;"/><path d="M427.8156,134.166 Q427.9719,133.9473 428.1594,133.8379 Q428.3469,133.7285 428.5656,133.7285 Q428.9406,133.7285 429.175,133.9941 Q429.4094,134.2441 429.4094,134.8535 L429.4094,136.3066 Q429.4094,136.916 429.175,137.1816 Q428.9406,137.4473 428.5656,137.4473 Q428.2219,137.4473 428.0188,137.2441 Q427.8156,137.0566 427.7063,136.541 Q427.6594,136.1816 427.4719,135.9941 Q427.1438,135.6191 426.5344,135.4004 Q425.925,135.1816 425.3,135.1816 Q424.5344,135.1816 423.8938,135.5098 Q423.2688,135.8379 422.7688,136.5879 Q422.2844,137.3379 422.2844,138.3691 L422.2844,139.4629 Q422.2844,140.6973 423.175,141.5254 Q424.0656,142.3379 425.6594,142.3379 Q426.5969,142.3379 427.2531,142.0879 Q427.6438,141.9316 428.0656,141.4941 Q428.3313,141.2285 428.4719,141.1504 Q428.6281,141.0723 428.8313,141.0723 Q429.1594,141.0723 429.4094,141.3379 Q429.675,141.5879 429.675,141.9316 Q429.675,142.2754 429.3313,142.6816 Q428.8313,143.2598 428.0344,143.5879 Q426.9563,144.041 425.6594,144.041 Q424.1438,144.041 422.9406,143.416 Q421.9563,142.916 421.2688,141.8535 Q420.5813,140.7754 420.5813,139.4941 L420.5813,138.3379 Q420.5813,137.0098 421.1906,135.8691 Q421.8156,134.7129 422.9094,134.1035 Q424.0031,133.4785 425.2375,133.4785 Q425.9719,133.4785 426.6125,133.6504 Q427.2688,133.8066 427.8156,134.166 Z " fill="#000000"/><text fill="#000000" font-family="sans-serif" font-size="12" font-style="italic" lengthAdjust="spacing" textLength="74" x="494.95" y="133.9492">&#171;application&#187;</text><text fill="#000000" font-family="sans-serif" font-size="14" lengthAdjust="spacing" textLength="182" x="440.95" y="152.0684">RequestEnrollmentController</text><line style="stroke:#181818;stroke-width:0.5;" x1="402.5" x2="633.5" y1="160.582" y2="160.582"/><line style="stroke:#181818;stroke-width:0.5;" x1="402.5" x2="633.5" y1="168.582" y2="168.582"/><text fill="#000000" font-family="sans-serif" font-size="14" lengthAdjust="spacing" textLength="221" x="407.5" y="187.6895">createRequest(String courseCode)</text></g><!--class EnrollmentRequest--><g id="elem_EnrollmentRequest"><rect codeLine="13" fill="#F1F1F1" height="116.4453" id="EnrollmentRequest" rx="2.5" ry="2.5" style="stroke:#181818;stroke-width:0.5;" width="243" x="255.5" y="882"/><ellipse cx="312.75" cy="904.291" fill="#ADD1B2" rx="11" ry="11" style="stroke:#181818;stroke-width:1.0;"/><path d="M315.5156,900.166 Q315.6719,899.9473 315.8594,899.8379 Q316.0469,899.7285 316.2656,899.7285 Q316.6406,899.7285 316.875,899.9941 Q317.1094,900.2441 317.1094,900.8535 L317.1094,902.3066 Q317.1094,902.916 316.875,903.1816 Q316.6406,903.4473 316.2656,903.4473 Q315.9219,903.4473 315.7188,903.2441 Q315.5156,903.0566 315.4063,902.541 Q315.3594,902.1816 315.1719,901.9941 Q314.8438,901.6191 314.2344,901.4004 Q313.625,901.1816 313,901.1816 Q312.2344,901.1816 311.5938,901.5098 Q310.9688,901.8379 310.4688,902.5879 Q309.9844,903.3379 309.9844,904.3691 L309.9844,905.4629 Q309.9844,906.6973 310.875,907.5254 Q311.7656,908.3379 313.3594,908.3379 Q314.2969,908.3379 314.9531,908.0879 Q315.3438,907.9316 315.7656,907.4941 Q316.0313,907.2285 316.1719,907.1504 Q316.3281,907.0723 316.5313,907.0723 Q316.8594,907.0723 317.1094,907.3379 Q317.375,907.5879 317.375,907.9316 Q317.375,908.2754 317.0313,908.6816 Q316.5313,909.2598 315.7344,909.5879 Q314.6563,910.041 313.3594,910.041 Q311.8438,910.041 310.6406,909.416 Q309.6563,908.916 308.9688,907.8535 Q308.2813,906.7754 308.2813,905.4941 L308.2813,904.3379 Q308.2813,903.0098 308.8906,901.8691 Q309.5156,900.7129 310.6094,900.1035 Q311.7031,899.4785 312.9375,899.4785 Q313.6719,899.4785 314.3125,899.6504 Q314.9688,899.8066 315.5156,900.166 Z " fill="#000000"/><text fill="#000000" font-family="sans-serif" font-size="12" font-style="italic" lengthAdjust="spacing" textLength="35" x="375.75" y="899.9492">&#171;root&#187;</text><text fill="#000000" font-family="sans-serif" font-size="14" lengthAdjust="spacing" textLength="120" x="333.25" y="918.0684">EnrollmentRequest</text><line style="stroke:#181818;stroke-width:0.5;" x1="256.5" x2="497.5" y1="926.582" y2="926.582"/><line style="stroke:#181818;stroke-width:0.5;" x1="256.5" x2="497.5" y1="934.582" y2="934.582"/><text fill="#000000" font-family="sans-serif" font-size="14" lengthAdjust="spacing" textLength="231" x="261.5" y="953.6895">create(User student, Course course)</text><text fill="#000000" font-family="sans-serif" font-size="14" lengthAdjust="spacing" textLength="52" x="261.5" y="972.3105">accept()</text><text fill="#000000" font-family="sans-serif" font-size="14" lengthAdjust="spacing" textLength="55" x="261.5" y="990.9316">decline()</text></g><!--class Course--><g id="elem_Course"><rect codeLine="19" fill="#F1F1F1" height="79.2031" id="Course" rx="2.5" ry="2.5" style="stroke:#181818;stroke-width:0.5;" width="78" x="486" y="1077.5"/><ellipse cx="501" cy="1099.791" fill="#ADD1B2" rx="11" ry="11" style="stroke:#181818;stroke-width:1.0;"/><path d="M503.7656,1095.666 Q503.9219,1095.4473 504.1094,1095.3379 Q504.2969,1095.2285 504.5156,1095.2285 Q504.8906,1095.2285 505.125,1095.4941 Q505.3594,1095.7441 505.3594,1096.3535 L505.3594,1097.8066 Q505.3594,1098.416 505.125,1098.6816 Q504.8906,1098.9473 504.5156,1098.9473 Q504.1719,1098.9473 503.9688,1098.7441 Q503.7656,1098.5566 503.6563,1098.041 Q503.6094,1097.6816 503.4219,1097.4941 Q503.0938,1097.1191 502.4844,1096.9004 Q501.875,1096.6816 501.25,1096.6816 Q500.4844,1096.6816 499.8438,1097.0098 Q499.2188,1097.3379 498.7188,1098.0879 Q498.2344,1098.8379 498.2344,1099.8691 L498.2344,1100.9629 Q498.2344,1102.1973 499.125,1103.0254 Q500.0156,1103.8379 501.6094,1103.8379 Q502.5469,1103.8379 503.2031,1103.5879 Q503.5938,1103.4316 504.0156,1102.9941 Q504.2813,1102.7285 504.4219,1102.6504 Q504.5781,1102.5723 504.7813,1102.5723 Q505.1094,1102.5723 505.3594,1102.8379 Q505.625,1103.0879 505.625,1103.4316 Q505.625,1103.7754 505.2813,1104.1816 Q504.7813,1104.7598 503.9844,1105.0879 Q502.9063,1105.541 501.6094,1105.541 Q500.0938,1105.541 498.8906,1104.916 Q497.9063,1104.416 497.2188,1103.3535 Q496.5313,1102.2754 496.5313,1100.9941 L496.5313,1099.8379 Q496.5313,1098.5098 497.1406,1097.3691 Q497.7656,1096.2129 498.8594,1095.6035 Q499.9531,1094.9785 501.1875,1094.9785 Q501.9219,1094.9785 502.5625,1095.1504 Q503.2188,1095.3066 503.7656,1095.666 Z " fill="#000000"/><text fill="#000000" font-family="sans-serif" font-size="12" font-style="italic" lengthAdjust="spacing" textLength="35" x="520.5" y="1095.4492">&#171;root&#187;</text><text fill="#000000" font-family="sans-serif" font-size="14" lengthAdjust="spacing" textLength="46" x="515" y="1113.5684">Course</text><line style="stroke:#181818;stroke-width:0.5;" x1="487" x2="563" y1="1122.082" y2="1122.082"/><line style="stroke:#181818;stroke-width:0.5;" x1="487" x2="563" y1="1130.082" y2="1130.082"/><text fill="#000000" font-family="sans-serif" font-size="14" lengthAdjust="spacing" textLength="41" x="492" y="1149.1895">state()</text></g><!--class User--><g id="elem_User"><rect codeLine="23" fill="#F1F1F1" height="79.2031" id="User" rx="2.5" ry="2.5" style="stroke:#181818;stroke-width:0.5;" width="63" x="615.5" y="1077.5"/><ellipse cx="630.5" cy="1099.791" fill="#ADD1B2" rx="11" ry="11" style="stroke:#181818;stroke-width:1.0;"/><path d="M633.2656,1095.666 Q633.4219,1095.4473 633.6094,1095.3379 Q633.7969,1095.2285 634.0156,1095.2285 Q634.3906,1095.2285 634.625,1095.4941 Q634.8594,1095.7441 634.8594,1096.3535 L634.8594,1097.8066 Q634.8594,1098.416 634.625,1098.6816 Q634.3906,1098.9473 634.0156,1098.9473 Q633.6719,1098.9473 633.4688,1098.7441 Q633.2656,1098.5566 633.1563,1098.041 Q633.1094,1097.6816 632.9219,1097.4941 Q632.5938,1097.1191 631.9844,1096.9004 Q631.375,1096.6816 630.75,1096.6816 Q629.9844,1096.6816 629.3438,1097.0098 Q628.7188,1097.3379 628.2188,1098.0879 Q627.7344,1098.8379 627.7344,1099.8691 L627.7344,1100.9629 Q627.7344,1102.1973 628.625,1103.0254 Q629.5156,1103.8379 631.1094,1103.8379 Q632.0469,1103.8379 632.7031,1103.5879 Q633.0938,1103.4316 633.5156,1102.9941 Q633.7813,1102.7285 633.9219,1102.6504 Q634.0781,1102.5723 634.2813,1102.5723 Q634.6094,1102.5723 634.8594,1102.8379 Q635.125,1103.0879 635.125,1103.4316 Q635.125,1103.7754 634.7813,1104.1816 Q634.2813,1104.7598 633.4844,1105.0879 Q632.4063,1105.541 631.1094,1105.541 Q629.5938,1105.541 628.3906,1104.916 Q627.4063,1104.416 626.7188,1103.3535 Q626.0313,1102.2754 626.0313,1100.9941 L626.0313,1099.8379 Q626.0313,1098.5098 626.6406,1097.3691 Q627.2656,1096.2129 628.3594,1095.6035 Q629.4531,1094.9785 630.6875,1094.9785 Q631.4219,1094.9785 632.0625,1095.1504 Q632.7188,1095.3066 633.2656,1095.666 Z " fill="#000000"/><text fill="#000000" font-family="sans-serif" font-size="12" font-style="italic" lengthAdjust="spacing" textLength="35" x="642.5" y="1095.4492">&#171;root&#187;</text><text fill="#000000" font-family="sans-serif" font-size="14" lengthAdjust="spacing" textLength="29" x="645.5" y="1113.5684">User</text><line style="stroke:#181818;stroke-width:0.5;" x1="616.5" x2="677.5" y1="1122.082" y2="1122.082"/><line style="stroke:#181818;stroke-width:0.5;" x1="616.5" x2="677.5" y1="1130.082" y2="1130.082"/><text fill="#000000" font-family="sans-serif" font-size="14" lengthAdjust="spacing" textLength="34" x="621.5" y="1149.1895">role()</text></g><!--class UserSession--><g id="elem_UserSession"><rect codeLine="27" fill="#F1F1F1" height="66.6211" id="UserSession" rx="2.5" ry="2.5" style="stroke:#181818;stroke-width:0.5;" width="137" x="584.5" y="785"/><ellipse cx="611.2" cy="801" fill="#ADD1B2" rx="11" ry="11" style="stroke:#181818;stroke-width:1.0;"/><path d="M613.9656,796.875 Q614.1219,796.6563 614.3094,796.5469 Q614.4969,796.4375 614.7156,796.4375 Q615.0906,796.4375 615.325,796.7031 Q615.5594,796.9531 615.5594,797.5625 L615.5594,799.0156 Q615.5594,799.625 615.325,799.8906 Q615.0906,800.1563 614.7156,800.1563 Q614.3719,800.1563 614.1688,799.9531 Q613.9656,799.7656 613.8563,799.25 Q613.8094,798.8906 613.6219,798.7031 Q613.2938,798.3281 612.6844,798.1094 Q612.075,797.8906 611.45,797.8906 Q610.6844,797.8906 610.0438,798.2188 Q609.4188,798.5469 608.9188,799.2969 Q608.4344,800.0469 608.4344,801.0781 L608.4344,802.1719 Q608.4344,803.4063 609.325,804.2344 Q610.2156,805.0469 611.8094,805.0469 Q612.7469,805.0469 613.4031,804.7969 Q613.7938,804.6406 614.2156,804.2031 Q614.4813,803.9375 614.6219,803.8594 Q614.7781,803.7813 614.9813,803.7813 Q615.3094,803.7813 615.5594,804.0469 Q615.825,804.2969 615.825,804.6406 Q615.825,804.9844 615.4813,805.3906 Q614.9813,805.9688 614.1844,806.2969 Q613.1063,806.75 611.8094,806.75 Q610.2938,806.75 609.0906,806.125 Q608.1063,805.625 607.4188,804.5625 Q606.7313,803.4844 606.7313,802.2031 L606.7313,801.0469 Q606.7313,799.7188 607.3406,798.5781 Q607.9656,797.4219 609.0594,796.8125 Q610.1531,796.1875 611.3875,796.1875 Q612.1219,796.1875 612.7625,796.3594 Q613.4188,796.5156 613.9656,796.875 Z " fill="#000000"/><text fill="#000000" font-family="sans-serif" font-size="14" lengthAdjust="spacing" textLength="79" x="627.8" y="806.7969">UserSession</text><line style="stroke:#181818;stroke-width:0.5;" x1="585.5" x2="720.5" y1="817" y2="817"/><line style="stroke:#181818;stroke-width:0.5;" x1="585.5" x2="720.5" y1="825" y2="825"/><text fill="#000000" font-family="sans-serif" font-size="14" lengthAdjust="spacing" textLength="125" x="590.5" y="844.1074">authenticatedUser()</text></g><!--class RequestState--><g id="elem_RequestState"><rect codeLine="32" fill="#F1F1F1" height="116.4453" id="RequestState" rx="2.5" ry="2.5" style="stroke:#181818;stroke-width:0.5;" width="118" x="7" y="1059"/><ellipse cx="22" cy="1081.291" fill="#EB937F" rx="11" ry="11" style="stroke:#181818;stroke-width:1.0;"/><path d="M20.8594,1082.0879 L20.8594,1084.5879 L25.1875,1084.5879 L25.1875,1083.666 Q25.1875,1083.0566 25.4219,1082.791 Q25.6719,1082.5254 26.0469,1082.5254 Q26.4219,1082.5254 26.6563,1082.791 Q26.8906,1083.0566 26.8906,1083.666 L26.8906,1086.291 L18.8906,1086.291 Q18.2656,1086.291 18,1086.0566 Q17.75,1085.8223 17.75,1085.4316 Q17.75,1085.0566 18.0156,1084.8223 Q18.2813,1084.5879 18.8906,1084.5879 L19.1563,1084.5879 L19.1563,1077.9316 L18.8906,1077.9316 Q18.2656,1077.9316 18,1077.6973 Q17.75,1077.4629 17.75,1077.0723 Q17.75,1076.6973 18,1076.4629 Q18.2656,1076.2285 18.8906,1076.2285 L26.5156,1076.2285 L26.5156,1078.8223 Q26.5156,1079.4316 26.2813,1079.6973 Q26.0625,1079.9473 25.6719,1079.9473 Q25.2969,1079.9473 25.0625,1079.6973 Q24.8281,1079.4316 24.8281,1078.8223 L24.8281,1077.9316 L20.8594,1077.9316 L20.8594,1080.3848 L22.3438,1080.3848 Q22.3438,1079.7285 22.4688,1079.541 Q22.7344,1079.1348 23.2031,1079.1348 Q23.5781,1079.1348 23.8125,1079.4004 Q24.0469,1079.6504 24.0469,1080.2598 L24.0469,1082.2285 Q24.0469,1082.7754 23.9219,1082.9629 Q23.6563,1083.3535 23.2031,1083.3535 Q22.7344,1083.3535 22.4688,1082.9473 Q22.3438,1082.7598 22.3438,1082.0879 L20.8594,1082.0879 Z " fill="#000000"/><text fill="#000000" font-family="sans-serif" font-size="12" font-style="italic" lengthAdjust="spacing" textLength="44" x="57" y="1076.9492">&#171;value&#187;</text><text fill="#000000" font-family="sans-serif" font-size="14" lengthAdjust="spacing" textLength="86" x="36" y="1095.0684">RequestState</text><line style="stroke:#181818;stroke-width:0.5;" x1="8" x2="124" y1="1103.582" y2="1103.582"/><text fill="#000000" font-family="sans-serif" font-size="14" lengthAdjust="spacing" textLength="60" x="13" y="1122.6895">PENDING</text><text fill="#000000" font-family="sans-serif" font-size="14" lengthAdjust="spacing" textLength="75" x="13" y="1141.3105">ACCEPTED</text><text fill="#000000" font-family="sans-serif" font-size="14" lengthAdjust="spacing" textLength="68" x="13" y="1159.9316">DECLINED</text><line style="stroke:#181818;stroke-width:0.5;" x1="8" x2="124" y1="1167.4453" y2="1167.4453"/></g><!--class AnsweredDate--><g id="elem_AnsweredDate"><rect codeLine="38" fill="#F1F1F1" height="60.582" id="AnsweredDate" rx="2.5" ry="2.5" style="stroke:#181818;stroke-width:0.5;" width="124" x="160" y="1086.5"/><ellipse cx="175" cy="1108.791" fill="#ADD1B2" rx="11" ry="11" style="stroke:#181818;stroke-width:1.0;"/><path d="M177.7656,1104.666 Q177.9219,1104.4473 178.1094,1104.3379 Q178.2969,1104.2285 178.5156,1104.2285 Q178.8906,1104.2285 179.125,1104.4941 Q179.3594,1104.7441 179.3594,1105.3535 L179.3594,1106.8066 Q179.3594,1107.416 179.125,1107.6816 Q178.8906,1107.9473 178.5156,1107.9473 Q178.1719,1107.9473 177.9688,1107.7441 Q177.7656,1107.5566 177.6563,1107.041 Q177.6094,1106.6816 177.4219,1106.4941 Q177.0938,1106.1191 176.4844,1105.9004 Q175.875,1105.6816 175.25,1105.6816 Q174.4844,1105.6816 173.8438,1106.0098 Q173.2188,1106.3379 172.7188,1107.0879 Q172.2344,1107.8379 172.2344,1108.8691 L172.2344,1109.9629 Q172.2344,1111.1973 173.125,1112.0254 Q174.0156,1112.8379 175.6094,1112.8379 Q176.5469,1112.8379 177.2031,1112.5879 Q177.5938,1112.4316 178.0156,1111.9941 Q178.2813,1111.7285 178.4219,1111.6504 Q178.5781,1111.5723 178.7813,1111.5723 Q179.1094,1111.5723 179.3594,1111.8379 Q179.625,1112.0879 179.625,1112.4316 Q179.625,1112.7754 179.2813,1113.1816 Q178.7813,1113.7598 177.9844,1114.0879 Q176.9063,1114.541 175.6094,1114.541 Q174.0938,1114.541 172.8906,1113.916 Q171.9063,1113.416 171.2188,1112.3535 Q170.5313,1111.2754 170.5313,1109.9941 L170.5313,1108.8379 Q170.5313,1107.5098 171.1406,1106.3691 Q171.7656,1105.2129 172.8594,1104.6035 Q173.9531,1103.9785 175.1875,1103.9785 Q175.9219,1103.9785 176.5625,1104.1504 Q177.2188,1104.3066 177.7656,1104.666 Z " fill="#000000"/><text fill="#000000" font-family="sans-serif" font-size="12" font-style="italic" lengthAdjust="spacing" textLength="44" x="213" y="1104.4492">&#171;value&#187;</text><text fill="#000000" font-family="sans-serif" font-size="14" lengthAdjust="spacing" textLength="92" x="189" y="1122.5684">AnsweredDate</text><line style="stroke:#181818;stroke-width:0.5;" x1="161" x2="283" y1="1131.082" y2="1131.082"/><line style="stroke:#181818;stroke-width:0.5;" x1="161" x2="283" y1="1139.082" y2="1139.082"/></g><!--class RequestedDate--><g id="elem_RequestedDate"><rect codeLine="41" fill="#F1F1F1" height="60.582" id="RequestedDate" rx="2.5" ry="2.5" style="stroke:#181818;stroke-width:0.5;" width="131" x="319.5" y="1086.5"/><ellipse cx="334.5" cy="1108.791" fill="#ADD1B2" rx="11" ry="11" style="stroke:#181818;stroke-width:1.0;"/><path d="M337.2656,1104.666 Q337.4219,1104.4473 337.6094,1104.3379 Q337.7969,1104.2285 338.0156,1104.2285 Q338.3906,1104.2285 338.625,1104.4941 Q338.8594,1104.7441 338.8594,1105.3535 L338.8594,1106.8066 Q338.8594,1107.416 338.625,1107.6816 Q338.3906,1107.9473 338.0156,1107.9473 Q337.6719,1107.9473 337.4688,1107.7441 Q337.2656,1107.5566 337.1563,1107.041 Q337.1094,1106.6816 336.9219,1106.4941 Q336.5938,1106.1191 335.9844,1105.9004 Q335.375,1105.6816 334.75,1105.6816 Q333.9844,1105.6816 333.3438,1106.0098 Q332.7188,1106.3379 332.2188,1107.0879 Q331.7344,1107.8379 331.7344,1108.8691 L331.7344,1109.9629 Q331.7344,1111.1973 332.625,1112.0254 Q333.5156,1112.8379 335.1094,1112.8379 Q336.0469,1112.8379 336.7031,1112.5879 Q337.0938,1112.4316 337.5156,1111.9941 Q337.7813,1111.7285 337.9219,1111.6504 Q338.0781,1111.5723 338.2813,1111.5723 Q338.6094,1111.5723 338.8594,1111.8379 Q339.125,1112.0879 339.125,1112.4316 Q339.125,1112.7754 338.7813,1113.1816 Q338.2813,1113.7598 337.4844,1114.0879 Q336.4063,1114.541 335.1094,1114.541 Q333.5938,1114.541 332.3906,1113.916 Q331.4063,1113.416 330.7188,1112.3535 Q330.0313,1111.2754 330.0313,1109.9941 L330.0313,1108.8379 Q330.0313,1107.5098 330.6406,1106.3691 Q331.2656,1105.2129 332.3594,1104.6035 Q333.4531,1103.9785 334.6875,1103.9785 Q335.4219,1103.9785 336.0625,1104.1504 Q336.7188,1104.3066 337.2656,1104.666 Z " fill="#000000"/><text fill="#000000" font-family="sans-serif" font-size="12" font-style="italic" lengthAdjust="spacing" textLength="44" x="376" y="1104.4492">&#171;value&#187;</text><text fill="#000000" font-family="sans-serif" font-size="14" lengthAdjust="spacing" textLength="99" x="348.5" y="1122.5684">RequestedDate</text><line style="stroke:#181818;stroke-width:0.5;" x1="320.5" x2="449.5" y1="1131.082" y2="1131.082"/><line style="stroke:#181818;stroke-width:0.5;" x1="320.5" x2="449.5" y1="1139.082" y2="1139.082"/></g><!--class PersistenceContext--><g id="elem_PersistenceContext"><rect codeLine="45" fill="#F1F1F1" height="79.2031" id="PersistenceContext" rx="2.5" ry="2.5" style="stroke:#181818;stroke-width:0.5;" width="154" x="311" y="396"/><ellipse cx="326" cy="418.291" fill="#ADD1B2" rx="11" ry="11" style="stroke:#181818;stroke-width:1.0;"/><path d="M328.7656,414.166 Q328.9219,413.9473 329.1094,413.8379 Q329.2969,413.7285 329.5156,413.7285 Q329.8906,413.7285 330.125,413.9941 Q330.3594,414.2441 330.3594,414.8535 L330.3594,416.3066 Q330.3594,416.916 330.125,417.1816 Q329.8906,417.4473 329.5156,417.4473 Q329.1719,417.4473 328.9688,417.2441 Q328.7656,417.0566 328.6563,416.541 Q328.6094,416.1816 328.4219,415.9941 Q328.0938,415.6191 327.4844,415.4004 Q326.875,415.1816 326.25,415.1816 Q325.4844,415.1816 324.8438,415.5098 Q324.2188,415.8379 323.7188,416.5879 Q323.2344,417.3379 323.2344,418.3691 L323.2344,419.4629 Q323.2344,420.6973 324.125,421.5254 Q325.0156,422.3379 326.6094,422.3379 Q327.5469,422.3379 328.2031,422.0879 Q328.5938,421.9316 329.0156,421.4941 Q329.2813,421.2285 329.4219,421.1504 Q329.5781,421.0723 329.7813,421.0723 Q330.1094,421.0723 330.3594,421.3379 Q330.625,421.5879 330.625,421.9316 Q330.625,422.2754 330.2813,422.6816 Q329.7813,423.2598 328.9844,423.5879 Q327.9063,424.041 326.6094,424.041 Q325.0938,424.041 323.8906,423.416 Q322.9063,422.916 322.2188,421.8535 Q321.5313,420.7754 321.5313,419.4941 L321.5313,418.3379 Q321.5313,417.0098 322.1406,415.8691 Q322.7656,414.7129 323.8594,414.1035 Q324.9531,413.4785 326.1875,413.4785 Q326.9219,413.4785 327.5625,413.6504 Q328.2188,413.8066 328.7656,414.166 Z " fill="#000000"/><text fill="#000000" font-family="sans-serif" font-size="12" font-style="italic" lengthAdjust="spacing" textLength="77" x="362.5" y="413.9492">&#171;persistence&#187;</text><text fill="#000000" font-family="sans-serif" font-size="14" lengthAdjust="spacing" textLength="122" x="340" y="432.0684">PersistenceContext</text><line style="stroke:#181818;stroke-width:0.5;" x1="312" x2="464" y1="440.582" y2="440.582"/><line style="stroke:#181818;stroke-width:0.5;" x1="312" x2="464" y1="448.582" y2="448.582"/><text fill="#000000" font-family="sans-serif" font-size="14" lengthAdjust="spacing" textLength="84" x="317" y="467.6895">repositories()</text></g><!--class RepositoryFactory--><g id="elem_RepositoryFactory"><rect codeLine="49" fill="#F1F1F1" height="79.2031" id="RepositoryFactory" rx="2.5" ry="2.5" style="stroke:#181818;stroke-width:0.5;" width="148" x="314" y="536"/><ellipse cx="329" cy="558.291" fill="#ADD1B2" rx="11" ry="11" style="stroke:#181818;stroke-width:1.0;"/><path d="M331.7656,554.166 Q331.9219,553.9473 332.1094,553.8379 Q332.2969,553.7285 332.5156,553.7285 Q332.8906,553.7285 333.125,553.9941 Q333.3594,554.2441 333.3594,554.8535 L333.3594,556.3066 Q333.3594,556.916 333.125,557.1816 Q332.8906,557.4473 332.5156,557.4473 Q332.1719,557.4473 331.9688,557.2441 Q331.7656,557.0566 331.6563,556.541 Q331.6094,556.1816 331.4219,555.9941 Q331.0938,555.6191 330.4844,555.4004 Q329.875,555.1816 329.25,555.1816 Q328.4844,555.1816 327.8438,555.5098 Q327.2188,555.8379 326.7188,556.5879 Q326.2344,557.3379 326.2344,558.3691 L326.2344,559.4629 Q326.2344,560.6973 327.125,561.5254 Q328.0156,562.3379 329.6094,562.3379 Q330.5469,562.3379 331.2031,562.0879 Q331.5938,561.9316 332.0156,561.4941 Q332.2813,561.2285 332.4219,561.1504 Q332.5781,561.0723 332.7813,561.0723 Q333.1094,561.0723 333.3594,561.3379 Q333.625,561.5879 333.625,561.9316 Q333.625,562.2754 333.2813,562.6816 Q332.7813,563.2598 331.9844,563.5879 Q330.9063,564.041 329.6094,564.041 Q328.0938,564.041 326.8906,563.416 Q325.9063,562.916 325.2188,561.8535 Q324.5313,560.7754 324.5313,559.4941 L324.5313,558.3379 Q324.5313,557.0098 325.1406,555.8691 Q325.7656,554.7129 326.8594,554.1035 Q327.9531,553.4785 329.1875,553.4785 Q329.9219,553.4785 330.5625,553.6504 Q331.2188,553.8066 331.7656,554.166 Z " fill="#000000"/><text fill="#000000" font-family="sans-serif" font-size="12" font-style="italic" lengthAdjust="spacing" textLength="50" x="376" y="553.9492">&#171;factory&#187;</text><text fill="#000000" font-family="sans-serif" font-size="14" lengthAdjust="spacing" textLength="116" x="343" y="572.0684">RepositoryFactory</text><line style="stroke:#181818;stroke-width:0.5;" x1="315" x2="461" y1="580.582" y2="580.582"/><line style="stroke:#181818;stroke-width:0.5;" x1="315" x2="461" y1="588.582" y2="588.582"/><text fill="#000000" font-family="sans-serif" font-size="14" lengthAdjust="spacing" textLength="60" x="320" y="607.6895">courses()</text></g><!--class CourseRepository--><g id="elem_CourseRepository"><rect codeLine="53" fill="#F1F1F1" height="79.2031" id="CourseRepository" rx="2.5" ry="2.5" style="stroke:#181818;stroke-width:0.5;" width="174" x="428" y="676"/><ellipse cx="455.6" cy="698.291" fill="#ADD1B2" rx="11" ry="11" style="stroke:#181818;stroke-width:1.0;"/><path d="M458.3656,694.166 Q458.5219,693.9473 458.7094,693.8379 Q458.8969,693.7285 459.1156,693.7285 Q459.4906,693.7285 459.725,693.9941 Q459.9594,694.2441 459.9594,694.8535 L459.9594,696.3066 Q459.9594,696.916 459.725,697.1816 Q459.4906,697.4473 459.1156,697.4473 Q458.7719,697.4473 458.5688,697.2441 Q458.3656,697.0566 458.2563,696.541 Q458.2094,696.1816 458.0219,695.9941 Q457.6938,695.6191 457.0844,695.4004 Q456.475,695.1816 455.85,695.1816 Q455.0844,695.1816 454.4438,695.5098 Q453.8188,695.8379 453.3188,696.5879 Q452.8344,697.3379 452.8344,698.3691 L452.8344,699.4629 Q452.8344,700.6973 453.725,701.5254 Q454.6156,702.3379 456.2094,702.3379 Q457.1469,702.3379 457.8031,702.0879 Q458.1938,701.9316 458.6156,701.4941 Q458.8813,701.2285 459.0219,701.1504 Q459.1781,701.0723 459.3813,701.0723 Q459.7094,701.0723 459.9594,701.3379 Q460.225,701.5879 460.225,701.9316 Q460.225,702.2754 459.8813,702.6816 Q459.3813,703.2598 458.5844,703.5879 Q457.5063,704.041 456.2094,704.041 Q454.6938,704.041 453.4906,703.416 Q452.5063,702.916 451.8188,701.8535 Q451.1313,700.7754 451.1313,699.4941 L451.1313,698.3379 Q451.1313,697.0098 451.7406,695.8691 Q452.3656,694.7129 453.4594,694.1035 Q454.5531,693.4785 455.7875,693.4785 Q456.5219,693.4785 457.1625,693.6504 Q457.8188,693.8066 458.3656,694.166 Z " fill="#000000"/><text fill="#000000" font-family="sans-serif" font-size="12" font-style="italic" lengthAdjust="spacing" textLength="68" x="495.4" y="693.9492">&#171;repository&#187;</text><text fill="#000000" font-family="sans-serif" font-size="14" lengthAdjust="spacing" textLength="114" x="472.4" y="712.0684">CourseRepository</text><line style="stroke:#181818;stroke-width:0.5;" x1="429" x2="601" y1="720.582" y2="720.582"/><line style="stroke:#181818;stroke-width:0.5;" x1="429" x2="601" y1="728.582" y2="728.582"/><text fill="#000000" font-family="sans-serif" font-size="14" lengthAdjust="spacing" textLength="162" x="434" y="747.6895">ofIdentity(CourseCode id)</text></g><!--class EnrollmentRequestRepository--><g id="elem_EnrollmentRequestRepository"><rect codeLine="57" fill="#F1F1F1" height="79.2031" id="EnrollmentRequestRepository" rx="2.5" ry="2.5" style="stroke:#181818;stroke-width:0.5;" width="224" x="169" y="676"/><ellipse cx="185.8" cy="698.291" fill="#ADD1B2" rx="11" ry="11" style="stroke:#181818;stroke-width:1.0;"/><path d="M188.5656,694.166 Q188.7219,693.9473 188.9094,693.8379 Q189.0969,693.7285 189.3156,693.7285 Q189.6906,693.7285 189.925,693.9941 Q190.1594,694.2441 190.1594,694.8535 L190.1594,696.3066 Q190.1594,696.916 189.925,697.1816 Q189.6906,697.4473 189.3156,697.4473 Q188.9719,697.4473 188.7688,697.2441 Q188.5656,697.0566 188.4563,696.541 Q188.4094,696.1816 188.2219,695.9941 Q187.8938,695.6191 187.2844,695.4004 Q186.675,695.1816 186.05,695.1816 Q185.2844,695.1816 184.6438,695.5098 Q184.0188,695.8379 183.5188,696.5879 Q183.0344,697.3379 183.0344,698.3691 L183.0344,699.4629 Q183.0344,700.6973 183.925,701.5254 Q184.8156,702.3379 186.4094,702.3379 Q187.3469,702.3379 188.0031,702.0879 Q188.3938,701.9316 188.8156,701.4941 Q189.0813,701.2285 189.2219,701.1504 Q189.3781,701.0723 189.5813,701.0723 Q189.9094,701.0723 190.1594,701.3379 Q190.425,701.5879 190.425,701.9316 Q190.425,702.2754 190.0813,702.6816 Q189.5813,703.2598 188.7844,703.5879 Q187.7063,704.041 186.4094,704.041 Q184.8938,704.041 183.6906,703.416 Q182.7063,702.916 182.0188,701.8535 Q181.3313,700.7754 181.3313,699.4941 L181.3313,698.3379 Q181.3313,697.0098 181.9406,695.8691 Q182.5656,694.7129 183.6594,694.1035 Q184.7531,693.4785 185.9875,693.4785 Q186.7219,693.4785 187.3625,693.6504 Q188.0188,693.8066 188.5656,694.166 Z " fill="#000000"/><text fill="#000000" font-family="sans-serif" font-size="12" font-style="italic" lengthAdjust="spacing" textLength="68" x="260.2" y="693.9492">&#171;repository&#187;</text><text fill="#000000" font-family="sans-serif" font-size="14" lengthAdjust="spacing" textLength="188" x="200.2" y="712.0684">EnrollmentRequestRepository</text><line style="stroke:#181818;stroke-width:0.5;" x1="170" x2="392" y1="720.582" y2="720.582"/><line style="stroke:#181818;stroke-width:0.5;" x1="170" x2="392" y1="728.582" y2="728.582"/><text fill="#000000" font-family="sans-serif" font-size="14" lengthAdjust="spacing" textLength="212" x="175" y="747.6895">save(EnrollmentRequest request)</text></g><!--class EnrollmentRequestManagementService--><g id="elem_EnrollmentRequestManagementService"><rect codeLine="62" fill="#F1F1F1" height="79.2031" id="EnrollmentRequestManagementService" rx="2.5" ry="2.5" style="stroke:#181818;stroke-width:0.5;" width="281" x="377.5" y="256"/><ellipse cx="392.5" cy="278.291" fill="#ADD1B2" rx="11" ry="11" style="stroke:#181818;stroke-width:1.0;"/><path d="M395.2656,274.166 Q395.4219,273.9473 395.6094,273.8379 Q395.7969,273.7285 396.0156,273.7285 Q396.3906,273.7285 396.625,273.9941 Q396.8594,274.2441 396.8594,274.8535 L396.8594,276.3066 Q396.8594,276.916 396.625,277.1816 Q396.3906,277.4473 396.0156,277.4473 Q395.6719,277.4473 395.4688,277.2441 Q395.2656,277.0566 395.1563,276.541 Q395.1094,276.1816 394.9219,275.9941 Q394.5938,275.6191 393.9844,275.4004 Q393.375,275.1816 392.75,275.1816 Q391.9844,275.1816 391.3438,275.5098 Q390.7188,275.8379 390.2188,276.5879 Q389.7344,277.3379 389.7344,278.3691 L389.7344,279.4629 Q389.7344,280.6973 390.625,281.5254 Q391.5156,282.3379 393.1094,282.3379 Q394.0469,282.3379 394.7031,282.0879 Q395.0938,281.9316 395.5156,281.4941 Q395.7813,281.2285 395.9219,281.1504 Q396.0781,281.0723 396.2813,281.0723 Q396.6094,281.0723 396.8594,281.3379 Q397.125,281.5879 397.125,281.9316 Q397.125,282.2754 396.7813,282.6816 Q396.2813,283.2598 395.4844,283.5879 Q394.4063,284.041 393.1094,284.041 Q391.5938,284.041 390.3906,283.416 Q389.4063,282.916 388.7188,281.8535 Q388.0313,280.7754 388.0313,279.4941 L388.0313,278.3379 Q388.0313,277.0098 388.6406,275.8691 Q389.2656,274.7129 390.3594,274.1035 Q391.4531,273.4785 392.6875,273.4785 Q393.4219,273.4785 394.0625,273.6504 Q394.7188,273.8066 395.2656,274.166 Z " fill="#000000"/><text fill="#000000" font-family="sans-serif" font-size="12" font-style="italic" lengthAdjust="spacing" textLength="53" x="504.5" y="273.9492">&#171;service&#187;</text><text fill="#000000" font-family="sans-serif" font-size="14" lengthAdjust="spacing" textLength="249" x="406.5" y="292.0684">EnrollmentRequestManagementService</text><line style="stroke:#181818;stroke-width:0.5;" x1="378.5" x2="657.5" y1="300.582" y2="300.582"/><line style="stroke:#181818;stroke-width:0.5;" x1="378.5" x2="657.5" y1="308.582" y2="308.582"/><text fill="#000000" font-family="sans-serif" font-size="14" lengthAdjust="spacing" textLength="264" x="383.5" y="327.6895">createRequest(CourseCode courseCode)</text></g><!--class AuthorizationService--><g id="elem_AuthorizationService"><rect codeLine="66" fill="#F1F1F1" height="79.2031" id="AuthorizationService" rx="2.5" ry="2.5" style="stroke:#181818;stroke-width:0.5;" width="161" x="574.5" y="536"/><ellipse cx="589.5" cy="558.291" fill="#ADD1B2" rx="11" ry="11" style="stroke:#181818;stroke-width:1.0;"/><path d="M592.2656,554.166 Q592.4219,553.9473 592.6094,553.8379 Q592.7969,553.7285 593.0156,553.7285 Q593.3906,553.7285 593.625,553.9941 Q593.8594,554.2441 593.8594,554.8535 L593.8594,556.3066 Q593.8594,556.916 593.625,557.1816 Q593.3906,557.4473 593.0156,557.4473 Q592.6719,557.4473 592.4688,557.2441 Q592.2656,557.0566 592.1563,556.541 Q592.1094,556.1816 591.9219,555.9941 Q591.5938,555.6191 590.9844,555.4004 Q590.375,555.1816 589.75,555.1816 Q588.9844,555.1816 588.3438,555.5098 Q587.7188,555.8379 587.2188,556.5879 Q586.7344,557.3379 586.7344,558.3691 L586.7344,559.4629 Q586.7344,560.6973 587.625,561.5254 Q588.5156,562.3379 590.1094,562.3379 Q591.0469,562.3379 591.7031,562.0879 Q592.0938,561.9316 592.5156,561.4941 Q592.7813,561.2285 592.9219,561.1504 Q593.0781,561.0723 593.2813,561.0723 Q593.6094,561.0723 593.8594,561.3379 Q594.125,561.5879 594.125,561.9316 Q594.125,562.2754 593.7813,562.6816 Q593.2813,563.2598 592.4844,563.5879 Q591.4063,564.041 590.1094,564.041 Q588.5938,564.041 587.3906,563.416 Q586.4063,562.916 585.7188,561.8535 Q585.0313,560.7754 585.0313,559.4941 L585.0313,558.3379 Q585.0313,557.0098 585.6406,555.8691 Q586.2656,554.7129 587.3594,554.1035 Q588.4531,553.4785 589.6875,553.4785 Q590.4219,553.4785 591.0625,553.6504 Q591.7188,553.8066 592.2656,554.166 Z " fill="#000000"/><text fill="#000000" font-family="sans-serif" font-size="12" font-style="italic" lengthAdjust="spacing" textLength="53" x="641.5" y="553.9492">&#171;service&#187;</text><text fill="#000000" font-family="sans-serif" font-size="14" lengthAdjust="spacing" textLength="129" x="603.5" y="572.0684">AuthorizationService</text><line style="stroke:#181818;stroke-width:0.5;" x1="575.5" x2="734.5" y1="580.582" y2="580.582"/><line style="stroke:#181818;stroke-width:0.5;" x1="575.5" x2="734.5" y1="588.582" y2="588.582"/><text fill="#000000" font-family="sans-serif" font-size="14" lengthAdjust="spacing" textLength="58" x="580.5" y="607.6895">session()</text></g><!--class AuthzRegistry--><g id="elem_AuthzRegistry"><rect codeLine="70" fill="#F1F1F1" height="60.582" id="AuthzRegistry" rx="2.5" ry="2.5" style="stroke:#181818;stroke-width:0.5;" width="119" x="571.5" y="405"/><ellipse cx="586.5" cy="427.291" fill="#ADD1B2" rx="11" ry="11" style="stroke:#181818;stroke-width:1.0;"/><path d="M589.2656,423.166 Q589.4219,422.9473 589.6094,422.8379 Q589.7969,422.7285 590.0156,422.7285 Q590.3906,422.7285 590.625,422.9941 Q590.8594,423.2441 590.8594,423.8535 L590.8594,425.3066 Q590.8594,425.916 590.625,426.1816 Q590.3906,426.4473 590.0156,426.4473 Q589.6719,426.4473 589.4688,426.2441 Q589.2656,426.0566 589.1563,425.541 Q589.1094,425.1816 588.9219,424.9941 Q588.5938,424.6191 587.9844,424.4004 Q587.375,424.1816 586.75,424.1816 Q585.9844,424.1816 585.3438,424.5098 Q584.7188,424.8379 584.2188,425.5879 Q583.7344,426.3379 583.7344,427.3691 L583.7344,428.4629 Q583.7344,429.6973 584.625,430.5254 Q585.5156,431.3379 587.1094,431.3379 Q588.0469,431.3379 588.7031,431.0879 Q589.0938,430.9316 589.5156,430.4941 Q589.7813,430.2285 589.9219,430.1504 Q590.0781,430.0723 590.2813,430.0723 Q590.6094,430.0723 590.8594,430.3379 Q591.125,430.5879 591.125,430.9316 Q591.125,431.2754 590.7813,431.6816 Q590.2813,432.2598 589.4844,432.5879 Q588.4063,433.041 587.1094,433.041 Q585.5938,433.041 584.3906,432.416 Q583.4063,431.916 582.7188,430.8535 Q582.0313,429.7754 582.0313,428.4941 L582.0313,427.3379 Q582.0313,426.0098 582.6406,424.8691 Q583.2656,423.7129 584.3594,423.1035 Q585.4531,422.4785 586.6875,422.4785 Q587.4219,422.4785 588.0625,422.6504 Q588.7188,422.8066 589.2656,423.166 Z " fill="#000000"/><text fill="#000000" font-family="sans-serif" font-size="12" font-style="italic" lengthAdjust="spacing" textLength="30" x="629" y="422.9492">&#171;util&#187;</text><text fill="#000000" font-family="sans-serif" font-size="14" lengthAdjust="spacing" textLength="87" x="600.5" y="441.0684">AuthzRegistry</text><line style="stroke:#181818;stroke-width:0.5;" x1="572.5" x2="689.5" y1="449.582" y2="449.582"/><line style="stroke:#181818;stroke-width:0.5;" x1="572.5" x2="689.5" y1="457.582" y2="457.582"/></g><!--link EnrollmentRequest to Course--><g id="link_EnrollmentRequest_Course"><path codeLine="74" d="M425.46,998.3 C444.3,1020.57 465.65,1045.82 483.74,1067.21 " fill="none" id="EnrollmentRequest-to-Course" style="stroke:#181818;stroke-width:1.0;"/><polygon fill="#181818" points="492.33,1077.37,491.5084,1070.2059,484.5793,1068.2089,485.4009,1075.373,492.33,1077.37" style="stroke:#181818;stroke-width:1.0;"/></g><!--link EnrollmentRequest to User--><g id="link_EnrollmentRequest_User"><path codeLine="75" d="M485.36,998.07 C517.3,1016.29 551.78,1037.37 582,1059 C589.8,1064.58 597.76,1070.94 605.32,1077.32 " fill="none" id="EnrollmentRequest-to-User" style="stroke:#181818;stroke-width:1.0;"/><polygon fill="#181818" points="615.31,1085.98,613.3991,1079.0267,606.2457,1078.1163,608.1566,1085.0696,615.31,1085.98" style="stroke:#181818;stroke-width:1.0;"/></g><!--link EnrollmentRequest to RequestState--><g id="link_EnrollmentRequest_RequestState"><path codeLine="76" d="M255.2,997.01 C218.1,1015.43 177.71,1036.89 142,1059 C139.98,1060.25 137.96,1061.54 135.92,1062.85 " fill="none" id="EnrollmentRequest-to-RequestState" style="stroke:#181818;stroke-width:1.0;"/><polygon fill="#181818" points="125.03,1070.16,132.2411,1070.1424,134.9983,1063.4792,127.7872,1063.4968,125.03,1070.16" style="stroke:#181818;stroke-width:1.0;"/></g><!--link EnrollmentRequest to RequestedDate--><g id="link_EnrollmentRequest_RequestedDate"><path codeLine="77" d="M379.62,998.3 C380.73,1022.57 382,1050.37 383.03,1072.86 " fill="none" id="EnrollmentRequest-to-RequestedDate" style="stroke:#181818;stroke-width:1.0;"/><polygon fill="#181818" points="383.63,1086.1,387.3488,1079.9218,383.0761,1074.1128,379.3573,1080.291,383.63,1086.1" style="stroke:#181818;stroke-width:1.0;"/></g><!--link EnrollmentRequest to AnsweredDate--><g id="link_EnrollmentRequest_AnsweredDate"><path codeLine="78" d="M326.25,998.3 C303.64,1023.83 277.56,1053.27 257.15,1076.32 " fill="none" id="EnrollmentRequest-to-AnsweredDate" style="stroke:#181818;stroke-width:1.0;"/><polygon fill="none" points="248.49,1086.1,255.4623,1084.2596,256.4452,1077.1158,249.4729,1078.9562,248.49,1086.1" style="stroke:#181818;stroke-width:1.0;"/></g><!--link EnrollmentRequestRepository to EnrollmentRequest--><g id="link_EnrollmentRequestRepository_EnrollmentRequest"><path codeLine="80" d="M297.61,755 C312.1,788.59 333.39,837.93 350.27,877.06 " fill="none" id="EnrollmentRequestRepository-to-EnrollmentRequest" style="stroke:#181818;stroke-width:1.0;"/><polygon fill="#181818" points="352.31,881.78,352.4155,871.9317,350.3284,877.1895,345.0706,875.1023,352.31,881.78" style="stroke:#181818;stroke-width:1.0;"/><polygon fill="#000000" points="344.9807,823.2365,344.0961,813.7671,338.6991,816.0955,344.9807,823.2365" style="stroke:#000000;stroke-width:1.0;"/><text fill="#000000" font-family="sans-serif" font-size="13" lengthAdjust="spacing" textLength="37" x="352" y="824.0283">knows</text></g><!--link RequestEnrollmentUI to RequestEnrollmentController--><g id="link_RequestEnrollmentUI_RequestEnrollmentController"><path codeLine="82" d="M518,55.04 C518,70.63 518,91.7 518,110.45 " fill="none" id="RequestEnrollmentUI-to-RequestEnrollmentController" style="stroke:#181818;stroke-width:1.0;stroke-dasharray:7.0,7.0;"/><polygon fill="#181818" points="518,115.66,522,106.66,518,110.66,514,106.66,518,115.66" style="stroke:#181818;stroke-width:1.0;"/></g><!--link RequestEnrollmentController to EnrollmentRequestManagementService--><g id="link_RequestEnrollmentController_EnrollmentRequestManagementService"><path codeLine="84" d="M518,195.31 C518,212.5 518,232.81 518,250.56 " fill="none" id="RequestEnrollmentController-to-EnrollmentRequestManagementService" style="stroke:#181818;stroke-width:1.0;stroke-dasharray:7.0,7.0;"/><polygon fill="#181818" points="518,255.98,522,246.98,518,250.98,514,246.98,518,255.98" style="stroke:#181818;stroke-width:1.0;"/></g><!--link EnrollmentRequestManagementService to PersistenceContext--><g id="link_EnrollmentRequestManagementService_PersistenceContext"><path codeLine="86" d="M481.44,335.31 C464.82,352.95 445.12,373.87 428.1,391.94 " fill="none" id="EnrollmentRequestManagementService-to-PersistenceContext" style="stroke:#181818;stroke-width:1.0;stroke-dasharray:7.0,7.0;"/><polygon fill="#181818" points="424.28,395.98,433.3611,392.1677,427.7068,392.339,427.5355,386.6847,424.28,395.98" style="stroke:#181818;stroke-width:1.0;"/></g><!--link EnrollmentRequestManagementService to EnrollmentRequestRepository--><g id="link_EnrollmentRequestManagementService_EnrollmentRequestRepository"><path codeLine="87" d="M377.35,330.55 C344.47,345.27 313.2,366.22 293,396 C236.46,479.35 254.25,605.17 269.26,670.95 " fill="none" id="EnrollmentRequestManagementService-to-EnrollmentRequestRepository" style="stroke:#181818;stroke-width:1.0;"/><polygon fill="#181818" points="270.42,675.96,272.2855,666.2894,269.2915,671.089,264.492,668.095,270.42,675.96" style="stroke:#181818;stroke-width:1.0;"/></g><!--link EnrollmentRequestManagementService to CourseRepository--><g id="link_EnrollmentRequestManagementService_CourseRepository"><path codeLine="88" d="M517.72,335.08 C517.16,412.9 515.91,588.26 515.32,670.44 " fill="none" id="EnrollmentRequestManagementService-to-CourseRepository" style="stroke:#181818;stroke-width:1.0;"/><polygon fill="#181818" points="515.28,675.71,519.357,666.7446,515.3229,670.7102,511.3573,666.676,515.28,675.71" style="stroke:#181818;stroke-width:1.0;"/></g><!--link PersistenceContext to RepositoryFactory--><g id="link_PersistenceContext_RepositoryFactory"><path codeLine="90" d="M388,475.31 C388,492.5 388,512.81 388,530.56 " fill="none" id="PersistenceContext-to-RepositoryFactory" style="stroke:#181818;stroke-width:1.0;stroke-dasharray:7.0,7.0;"/><polygon fill="#181818" points="388,535.98,392,526.98,388,530.98,384,526.98,388,535.98" style="stroke:#181818;stroke-width:1.0;"/></g><!--link RepositoryFactory to EnrollmentRequestRepository--><g id="link_RepositoryFactory_EnrollmentRequestRepository"><path codeLine="93" d="M357.91,615.31 C344.23,632.95 328.01,653.87 314,671.94 " fill="none" id="RepositoryFactory-to-EnrollmentRequestRepository" style="stroke:#181818;stroke-width:1.0;stroke-dasharray:7.0,7.0;"/><polygon fill="#181818" points="310.86,675.98,319.5359,671.3185,313.9238,672.0286,313.2136,666.4165,310.86,675.98" style="stroke:#181818;stroke-width:1.0;"/></g><!--link RepositoryFactory to CourseRepository--><g id="link_RepositoryFactory_CourseRepository"><path codeLine="94" d="M423.71,615.31 C439.95,632.95 459.2,653.87 475.83,671.94 " fill="none" id="RepositoryFactory-to-CourseRepository" style="stroke:#181818;stroke-width:1.0;stroke-dasharray:7.0,7.0;"/><polygon fill="#181818" points="479.55,675.98,476.4073,666.646,476.1675,672.2978,470.5157,672.058,479.55,675.98" style="stroke:#181818;stroke-width:1.0;"/></g><!--link AuthzRegistry to AuthorizationService--><g id="link_AuthzRegistry_AuthorizationService"><path codeLine="97" d="M636.15,466.1 C639.43,484.95 643.73,509.69 647.39,530.77 " fill="none" id="AuthzRegistry-to-AuthorizationService" style="stroke:#181818;stroke-width:1.0;stroke-dasharray:7.0,7.0;"/><polygon fill="#181818" points="648.26,535.77,650.6588,526.2177,647.4033,530.8439,642.7771,527.5885,648.26,535.77" style="stroke:#181818;stroke-width:1.0;"/></g><!--link AuthorizationService to UserSession--><g id="link_AuthorizationService_UserSession"><path codeLine="98" d="M654.68,615.22 C654.3,660.45 653.69,734.77 653.31,779.63 " fill="none" id="AuthorizationService-to-UserSession" style="stroke:#181818;stroke-width:1.0;"/><polygon fill="#181818" points="653.27,784.68,657.347,775.7146,653.3129,779.6802,649.3473,775.646,653.27,784.68" style="stroke:#181818;stroke-width:1.0;"/></g><!--link UserSession to User--><g id="link_UserSession_User"><path codeLine="99" d="M652.34,852.08 C651.26,905.52 649.11,1011.88 647.89,1071.98 " fill="none" id="UserSession-to-User" style="stroke:#181818;stroke-width:1.0;"/><polygon fill="#181818" points="647.78,1077.29,651.9846,1068.3838,647.8943,1072.2913,643.9867,1068.2009,647.78,1077.29" style="stroke:#181818;stroke-width:1.0;"/></g><!--link EnrollmentRequestManagementService to AuthzRegistry--><g id="link_EnrollmentRequestManagementService_AuthzRegistry"><path codeLine="101" d="M549.78,335.31 C566.67,355.94 587.23,381.05 603.44,400.84 " fill="none" id="EnrollmentRequestManagementService-to-AuthzRegistry" style="stroke:#181818;stroke-width:1.0;stroke-dasharray:7.0,7.0;"/><polygon fill="#181818" points="606.62,404.73,604.011,395.233,603.4515,400.8621,597.8224,400.3026,606.62,404.73" style="stroke:#181818;stroke-width:1.0;"/></g><!--link EnrollmentRequestManagementService to AuthorizationService--><g id="link_EnrollmentRequestManagementService_AuthorizationService"><path codeLine="102" d="M639.11,335.18 C666.4,349.8 692,369.56 708,396 C733.57,438.26 709.74,493.66 686.37,531.46 " fill="none" id="EnrollmentRequestManagementService-to-AuthorizationService" style="stroke:#181818;stroke-width:1.0;"/><polygon fill="#181818" points="683.52,535.98,691.687,530.4754,686.1738,531.7424,684.9068,526.2293,683.52,535.98" style="stroke:#181818;stroke-width:1.0;"/></g><!--SRC=[ZLHTRzem57tth_0ROHhj-rH5gWARa3g4OFq1ddEXteBDR8UkhVRVTvquYPCuBJmGVvpxUSxrh823fLPHBOvFbkP20xT2IK9cj3H0ESC_3GMpa5DUC6F0aEfBT_2d16DNKgkYE86qZ-ityezCtMPAMhS6JU_ksFbS2CvSf3Hz8nH_N0C6yMR9tceXZvIhKXl8L0vpvtgMgnCJSf185yDROm2jbErxJXuDXZQsp17ucMQLPnzWNk4Ovt2sIRt9WHT2GZBlIl8cVUV6Ejy1gWhJns1w8yWUZC7gQOrWfNt2j5nB87VNDNn6eQqDMQYBkx2Y1Af-_aAc305Pdffcxrqk6Bj2fAdtlLrjbklDjsfzdsMhxO_LijeiLzd3UeERDh5xQPv1GxuS-XdI6eVCCCUpCi8gBS3Sda4RWLZ9mLjlknCd1_Zhg0fWRSC2Ds7ZTitvorV6tGVD3_MgBRTcr8o9wumTFUscYQaEQwSCOL-Ih5KT5NdWPoIqIPS-5yCka8pbwPdq52FR5z6sQ8J-pYGxWZlOrq0CvKswcdkp4wG_c1_FCeeDM_jQZT-qKrChD1bOlkxWY7HL9PTM50tvP5pdOl79ztxYqYbzuYgKzFkGMejHZEefEf9YGE1YaKPUaY_qjrJFXgQ4HDuxUdEJllVIHOo2Pz0PVqnt9Ekn99ohyN1TOnajkslBjIw68qP8PDRhRWr6cBWc3SSwsfh0UznYd0JfAzQ1OkedqP5mTGLFDGcVxURkQdPwYLpRrMYkXFm7]--></g></svg>