<?xml version="1.0" encoding="us-ascii" standalone="no"?><svg xmlns="http://www.w3.org/2000/svg" xmlns:xlink="http://www.w3.org/1999/xlink" contentStyleType="text/css" height="1162px" preserveAspectRatio="none" style="width:1180px;height:1162px;background:#FFFFFF;" version="1.1" viewBox="0 0 1180 1162" width="1180px" zoomAndPan="magnify"><defs/><g><!--class RequestEnrollmentUI--><g id="elem_RequestEnrollmentUI"><rect codeLine="5" fill="#F1F1F1" height="48" id="RequestEnrollmentUI" rx="2.5" ry="2.5" style="stroke:#181818;stroke-width:0.5;" width="176" x="42" y="7"/><ellipse cx="57" cy="23" fill="#ADD1B2" rx="11" ry="11" style="stroke:#181818;stroke-width:1.0;"/><path d="M59.9731,28.6431 Q59.3921,28.9419 58.7529,29.0913 Q58.1138,29.2407 57.4082,29.2407 Q54.9014,29.2407 53.5815,27.5889 Q52.2617,25.937 52.2617,22.8159 Q52.2617,19.6865 53.5815,18.0347 Q54.9014,16.3828 57.4082,16.3828 Q58.1138,16.3828 58.7612,16.5322 Q59.4087,16.6816 59.9731,16.9805 L59.9731,19.7031 Q59.3423,19.1221 58.7488,18.8523 Q58.1553,18.5825 57.5244,18.5825 Q56.1797,18.5825 55.4949,19.6492 Q54.8101,20.7158 54.8101,22.8159 Q54.8101,24.9077 55.4949,25.9744 Q56.1797,27.041 57.5244,27.041 Q58.1553,27.041 58.7488,26.7712 Q59.3423,26.5015 59.9731,25.9204 Z " fill="#000000"/><text fill="#000000" font-family="sans-serif" font-size="14" lengthAdjust="spacing" textLength="144" x="71" y="28.291">RequestEnrollmentUI</text><line style="stroke:#181818;stroke-width:0.5;" x1="43" x2="217" y1="39" y2="39"/><line style="stroke:#181818;stroke-width:0.5;" x1="43" x2="217" y1="47" y2="47"/></g><!--class RequestEnrollmentController--><g id="elem_RequestEnrollmentController"><rect codeLine="8" fill="#F1F1F1" height="73.1094" id="RequestEnrollmentController" rx="2.5" ry="2.5" style="stroke:#181818;stroke-width:0.5;" width="246" x="7" y="116"/><ellipse cx="28.3" cy="136.3105" fill="#ADD1B2" rx="11" ry="11" style="stroke:#181818;stroke-width:1.0;"/><path d="M31.2731,141.9536 Q30.6921,142.2524 30.0529,142.4019 Q29.4138,142.5513 28.7082,142.5513 Q26.2014,142.5513 24.8815,140.8994 Q23.5617,139.2476 23.5617,136.1265 Q23.5617,132.9971 24.8815,131.3452 Q26.2014,129.6934 28.7082,129.6934 Q29.4138,129.6934 30.0612,129.8428 Q30.7087,129.9922 31.2731,130.291 L31.2731,133.0137 Q30.6423,132.4326 30.0488,132.1628 Q29.4553,131.8931 28.8244,131.8931 Q27.4797,131.8931 26.7949,132.9597 Q26.1101,134.0264 26.1101,136.1265 Q26.1101,138.2183 26.7949,139.2849 Q27.4797,140.3516 28.8244,140.3516 Q29.4553,140.3516 30.0488,140.0818 Q30.6423,139.812 31.2731,139.231 Z " fill="#000000"/><text fill="#000000" font-family="sans-serif" font-size="12" font-style="italic" lengthAdjust="spacing" textLength="75" x="106.2" y="132.6016">&#171;application&#187;</text><text fill="#000000" font-family="sans-serif" font-size="14" lengthAdjust="spacing" textLength="200" x="43.7" y="148.668">RequestEnrollmentController</text><line style="stroke:#181818;stroke-width:0.5;" x1="8" x2="252" y1="156.6211" y2="156.6211"/><line style="stroke:#181818;stroke-width:0.5;" x1="8" x2="252" y1="164.6211" y2="164.6211"/><text fill="#000000" font-family="sans-serif" font-size="14" lengthAdjust="spacing" textLength="234" x="13" y="182.1563">createRequest(String courseCode)</text></g><!--class EnrollmentRequest--><g id="elem_EnrollmentRequest"><rect codeLine="13" fill="#F1F1F1" height="106.0859" id="EnrollmentRequest" rx="2.5" ry="2.5" style="stroke:#181818;stroke-width:0.5;" width="258" x="706" y="882"/><ellipse cx="765.75" cy="902.3105" fill="#ADD1B2" rx="11" ry="11" style="stroke:#181818;stroke-width:1.0;"/><path d="M768.7231,907.9536 Q768.1421,908.2524 767.5029,908.4019 Q766.8638,908.5513 766.1582,908.5513 Q763.6514,908.5513 762.3315,906.8994 Q761.0117,905.2476 761.0117,902.1265 Q761.0117,898.9971 762.3315,897.3452 Q763.6514,895.6934 766.1582,895.6934 Q766.8638,895.6934 767.5112,895.8428 Q768.1587,895.9922 768.7231,896.291 L768.7231,899.0137 Q768.0923,898.4326 767.4988,898.1628 Q766.9053,897.8931 766.2744,897.8931 Q764.9297,897.8931 764.2449,898.9597 Q763.5601,900.0264 763.5601,902.1265 Q763.5601,904.2183 764.2449,905.2849 Q764.9297,906.3516 766.2744,906.3516 Q766.9053,906.3516 767.4988,906.0818 Q768.0923,905.812 768.7231,905.231 Z " fill="#000000"/><text fill="#000000" font-family="sans-serif" font-size="12" font-style="italic" lengthAdjust="spacing" textLength="35" x="833.75" y="898.6016">&#171;root&#187;</text><text fill="#000000" font-family="sans-serif" font-size="14" lengthAdjust="spacing" textLength="130" x="786.25" y="914.668">EnrollmentRequest</text><line style="stroke:#181818;stroke-width:0.5;" x1="707" x2="963" y1="922.6211" y2="922.6211"/><line style="stroke:#181818;stroke-width:0.5;" x1="707" x2="963" y1="930.6211" y2="930.6211"/><text fill="#000000" font-family="sans-serif" font-size="14" lengthAdjust="spacing" textLength="246" x="712" y="948.1563">create(User student, Course course)</text><text fill="#000000" font-family="sans-serif" font-size="14" lengthAdjust="spacing" textLength="54" x="712" y="964.6445">accept()</text><text fill="#000000" font-family="sans-serif" font-size="14" lengthAdjust="spacing" textLength="59" x="712" y="981.1328">decline()</text></g><!--class Course--><g id="elem_Course"><rect codeLine="19" fill="#F1F1F1" height="73.1094" id="Course" rx="2.5" ry="2.5" style="stroke:#181818;stroke-width:0.5;" width="81" x="1092.5" y="1065.5"/><ellipse cx="1107.5" cy="1085.8105" fill="#ADD1B2" rx="11" ry="11" style="stroke:#181818;stroke-width:1.0;"/><path d="M1110.4731,1091.4536 Q1109.8921,1091.7524 1109.2529,1091.9019 Q1108.6138,1092.0513 1107.9082,1092.0513 Q1105.4014,1092.0513 1104.0815,1090.3994 Q1102.7617,1088.7476 1102.7617,1085.6265 Q1102.7617,1082.4971 1104.0815,1080.8452 Q1105.4014,1079.1934 1107.9082,1079.1934 Q1108.6138,1079.1934 1109.2612,1079.3428 Q1109.9087,1079.4922 1110.4731,1079.791 L1110.4731,1082.5137 Q1109.8423,1081.9326 1109.2488,1081.6628 Q1108.6553,1081.3931 1108.0244,1081.3931 Q1106.6797,1081.3931 1105.9949,1082.4597 Q1105.3101,1083.5264 1105.3101,1085.6265 Q1105.3101,1087.7183 1105.9949,1088.7849 Q1106.6797,1089.8516 1108.0244,1089.8516 Q1108.6553,1089.8516 1109.2488,1089.5818 Q1109.8423,1089.312 1110.4731,1088.731 Z " fill="#000000"/><text fill="#000000" font-family="sans-serif" font-size="12" font-style="italic" lengthAdjust="spacing" textLength="35" x="1128.5" y="1082.1016">&#171;root&#187;</text><text fill="#000000" font-family="sans-serif" font-size="14" lengthAdjust="spacing" textLength="49" x="1121.5" y="1098.168">Course</text><line style="stroke:#181818;stroke-width:0.5;" x1="1093.5" x2="1172.5" y1="1106.1211" y2="1106.1211"/><line style="stroke:#181818;stroke-width:0.5;" x1="1093.5" x2="1172.5" y1="1114.1211" y2="1114.1211"/><text fill="#000000" font-family="sans-serif" font-size="14" lengthAdjust="spacing" textLength="43" x="1098.5" y="1131.6563">state()</text></g><!--class User--><g id="elem_User"><rect codeLine="23" fill="#F1F1F1" height="73.1094" id="User" rx="2.5" ry="2.5" style="stroke:#181818;stroke-width:0.5;" width="63" x="476.5" y="1065.5"/><ellipse cx="491.5" cy="1085.8105" fill="#ADD1B2" rx="11" ry="11" style="stroke:#181818;stroke-width:1.0;"/><path d="M494.4731,1091.4536 Q493.8921,1091.7524 493.2529,1091.9019 Q492.6138,1092.0513 491.9082,1092.0513 Q489.4014,1092.0513 488.0815,1090.3994 Q486.7617,1088.7476 486.7617,1085.6265 Q486.7617,1082.4971 488.0815,1080.8452 Q489.4014,1079.1934 491.9082,1079.1934 Q492.6138,1079.1934 493.2612,1079.3428 Q493.9087,1079.4922 494.4731,1079.791 L494.4731,1082.5137 Q493.8423,1081.9326 493.2488,1081.6628 Q492.6553,1081.3931 492.0244,1081.3931 Q490.6797,1081.3931 489.9949,1082.4597 Q489.3101,1083.5264 489.3101,1085.6265 Q489.3101,1087.7183 489.9949,1088.7849 Q490.6797,1089.8516 492.0244,1089.8516 Q492.6553,1089.8516 493.2488,1089.5818 Q493.8423,1089.312 494.4731,1088.731 Z " fill="#000000"/><text fill="#000000" font-family="sans-serif" font-size="12" font-style="italic" lengthAdjust="spacing" textLength="35" x="503.5" y="1082.1016">&#171;root&#187;</text><text fill="#000000" font-family="sans-serif" font-size="14" lengthAdjust="spacing" textLength="31" x="505.5" y="1098.168">User</text><line style="stroke:#181818;stroke-width:0.5;" x1="477.5" x2="538.5" y1="1106.1211" y2="1106.1211"/><line style="stroke:#181818;stroke-width:0.5;" x1="477.5" x2="538.5" y1="1114.1211" y2="1114.1211"/><text fill="#000000" font-family="sans-serif" font-size="14" lengthAdjust="spacing" textLength="37" x="482.5" y="1131.6563">role()</text></g><!--class UserSession--><g id="elem_UserSession"><rect codeLine="27" fill="#F1F1F1" height="64.4883" id="UserSession" rx="2.5" ry="2.5" style="stroke:#181818;stroke-width:0.5;" width="147" x="281.5" y="788"/><ellipse cx="310.9" cy="804" fill="#ADD1B2" rx="11" ry="11" style="stroke:#181818;stroke-width:1.0;"/><path d="M313.8731,809.6431 Q313.2921,809.9419 312.6529,810.0913 Q312.0138,810.2407 311.3082,810.2407 Q308.8014,810.2407 307.4815,808.5889 Q306.1617,806.937 306.1617,803.8159 Q306.1617,800.6865 307.4815,799.0347 Q308.8014,797.3828 311.3082,797.3828 Q312.0138,797.3828 312.6612,797.5322 Q313.3087,797.6816 313.8731,797.9805 L313.8731,800.7031 Q313.2423,800.1221 312.6488,799.8523 Q312.0553,799.5825 311.4244,799.5825 Q310.0797,799.5825 309.3949,800.6492 Q308.7101,801.7158 308.7101,803.8159 Q308.7101,805.9077 309.3949,806.9744 Q310.0797,808.041 311.4244,808.041 Q312.0553,808.041 312.6488,807.7712 Q313.2423,807.5015 313.8731,806.9204 Z " fill="#000000"/><text fill="#000000" font-family="sans-serif" font-size="14" lengthAdjust="spacing" textLength="83" x="328.1" y="809.291">UserSession</text><line style="stroke:#181818;stroke-width:0.5;" x1="282.5" x2="427.5" y1="820" y2="820"/><line style="stroke:#181818;stroke-width:0.5;" x1="282.5" x2="427.5" y1="828" y2="828"/><text fill="#000000" font-family="sans-serif" font-size="14" lengthAdjust="spacing" textLength="135" x="287.5" y="845.5352">authenticatedUser()</text></g><!--class RequestState--><g id="elem_RequestState"><rect codeLine="32" fill="#F1F1F1" height="106.0859" id="RequestState" rx="2.5" ry="2.5" style="stroke:#181818;stroke-width:0.5;" width="121" x="600.5" y="1049"/><ellipse cx="615.5" cy="1069.3105" fill="#EB937F" rx="11" ry="11" style="stroke:#181818;stroke-width:1.0;"/><path d="M619.6143,1075.3105 L611.8945,1075.3105 L611.8945,1062.9175 L619.6143,1062.9175 L619.6143,1065.0757 L614.3433,1065.0757 L614.3433,1067.7485 L619.1162,1067.7485 L619.1162,1069.9067 L614.3433,1069.9067 L614.3433,1073.1523 L619.6143,1073.1523 Z " fill="#000000"/><text fill="#000000" font-family="sans-serif" font-size="12" font-style="italic" lengthAdjust="spacing" textLength="42" x="653" y="1065.6016">&#171;value&#187;</text><text fill="#000000" font-family="sans-serif" font-size="14" lengthAdjust="spacing" textLength="89" x="629.5" y="1081.668">RequestState</text><line style="stroke:#181818;stroke-width:0.5;" x1="601.5" x2="720.5" y1="1089.6211" y2="1089.6211"/><text fill="#000000" font-family="sans-serif" font-size="14" lengthAdjust="spacing" textLength="60" x="606.5" y="1107.1563">PENDING</text><text fill="#000000" font-family="sans-serif" font-size="14" lengthAdjust="spacing" textLength="73" x="606.5" y="1123.6445">ACCEPTED</text><text fill="#000000" font-family="sans-serif" font-size="14" lengthAdjust="spacing" textLength="67" x="606.5" y="1140.1328">DECLINED</text><line style="stroke:#181818;stroke-width:0.5;" x1="601.5" x2="720.5" y1="1147.0859" y2="1147.0859"/></g><!--class AnsweredDate--><g id="elem_AnsweredDate"><rect codeLine="38" fill="#F1F1F1" height="56.6211" id="AnsweredDate" rx="2.5" ry="2.5" style="stroke:#181818;stroke-width:0.5;" width="131" x="756.5" y="1073.5"/><ellipse cx="771.5" cy="1093.8105" fill="#ADD1B2" rx="11" ry="11" style="stroke:#181818;stroke-width:1.0;"/><path d="M774.4731,1099.4536 Q773.8921,1099.7524 773.2529,1099.9019 Q772.6138,1100.0513 771.9082,1100.0513 Q769.4014,1100.0513 768.0815,1098.3994 Q766.7617,1096.7476 766.7617,1093.6265 Q766.7617,1090.4971 768.0815,1088.8452 Q769.4014,1087.1934 771.9082,1087.1934 Q772.6138,1087.1934 773.2612,1087.3428 Q773.9087,1087.4922 774.4731,1087.791 L774.4731,1090.5137 Q773.8423,1089.9326 773.2488,1089.6628 Q772.6553,1089.3931 772.0244,1089.3931 Q770.6797,1089.3931 769.9949,1090.4597 Q769.3101,1091.5264 769.3101,1093.6265 Q769.3101,1095.7183 769.9949,1096.7849 Q770.6797,1097.8516 772.0244,1097.8516 Q772.6553,1097.8516 773.2488,1097.5818 Q773.8423,1097.312 774.4731,1096.731 Z " fill="#000000"/><text fill="#000000" font-family="sans-serif" font-size="12" font-style="italic" lengthAdjust="spacing" textLength="42" x="814" y="1090.1016">&#171;value&#187;</text><text fill="#000000" font-family="sans-serif" font-size="14" lengthAdjust="spacing" textLength="99" x="785.5" y="1106.168">AnsweredDate</text><line style="stroke:#181818;stroke-width:0.5;" x1="757.5" x2="886.5" y1="1114.1211" y2="1114.1211"/><line style="stroke:#181818;stroke-width:0.5;" x1="757.5" x2="886.5" y1="1122.1211" y2="1122.1211"/></g><!--class RequestedDate--><g id="elem_RequestedDate"><rect codeLine="41" fill="#F1F1F1" height="56.6211" id="RequestedDate" rx="2.5" ry="2.5" style="stroke:#181818;stroke-width:0.5;" width="135" x="922.5" y="1073.5"/><ellipse cx="937.5" cy="1093.8105" fill="#ADD1B2" rx="11" ry="11" style="stroke:#181818;stroke-width:1.0;"/><path d="M940.4731,1099.4536 Q939.8921,1099.7524 939.2529,1099.9019 Q938.6138,1100.0513 937.9082,1100.0513 Q935.4014,1100.0513 934.0815,1098.3994 Q932.7617,1096.7476 932.7617,1093.6265 Q932.7617,1090.4971 934.0815,1088.8452 Q935.4014,1087.1934 937.9082,1087.1934 Q938.6138,1087.1934 939.2612,1087.3428 Q939.9087,1087.4922 940.4731,1087.791 L940.4731,1090.5137 Q939.8423,1089.9326 939.2488,1089.6628 Q938.6553,1089.3931 938.0244,1089.3931 Q936.6797,1089.3931 935.9949,1090.4597 Q935.3101,1091.5264 935.3101,1093.6265 Q935.3101,1095.7183 935.9949,1096.7849 Q936.6797,1097.8516 938.0244,1097.8516 Q938.6553,1097.8516 939.2488,1097.5818 Q939.8423,1097.312 940.4731,1096.731 Z " fill="#000000"/><text fill="#000000" font-family="sans-serif" font-size="12" font-style="italic" lengthAdjust="spacing" textLength="42" x="982" y="1090.1016">&#171;value&#187;</text><text fill="#000000" font-family="sans-serif" font-size="14" lengthAdjust="spacing" textLength="103" x="951.5" y="1106.168">RequestedDate</text><line style="stroke:#181818;stroke-width:0.5;" x1="923.5" x2="1056.5" y1="1114.1211" y2="1114.1211"/><line style="stroke:#181818;stroke-width:0.5;" x1="923.5" x2="1056.5" y1="1122.1211" y2="1122.1211"/></g><!--class PersistenceContext--><g id="elem_PersistenceContext"><rect codeLine="45" fill="#F1F1F1" height="73.1094" id="PersistenceContext" rx="2.5" ry="2.5" style="stroke:#181818;stroke-width:0.5;" width="164" x="508" y="384"/><ellipse cx="523" cy="404.3105" fill="#ADD1B2" rx="11" ry="11" style="stroke:#181818;stroke-width:1.0;"/><path d="M525.9731,409.9536 Q525.3921,410.2524 524.7529,410.4019 Q524.1138,410.5513 523.4082,410.5513 Q520.9014,410.5513 519.5815,408.8994 Q518.2617,407.2476 518.2617,404.1265 Q518.2617,400.9971 519.5815,399.3452 Q520.9014,397.6934 523.4082,397.6934 Q524.1138,397.6934 524.7612,397.8428 Q525.4087,397.9922 525.9731,398.291 L525.9731,401.0137 Q525.3423,400.4326 524.7488,400.1628 Q524.1553,399.8931 523.5244,399.8931 Q522.1797,399.8931 521.4949,400.9597 Q520.8101,402.0264 520.8101,404.1265 Q520.8101,406.2183 521.4949,407.2849 Q522.1797,408.3516 523.5244,408.3516 Q524.1553,408.3516 524.7488,408.0818 Q525.3423,407.812 525.9731,407.231 Z " fill="#000000"/><text fill="#000000" font-family="sans-serif" font-size="12" font-style="italic" lengthAdjust="spacing" textLength="78" x="564" y="400.6016">&#171;persistence&#187;</text><text fill="#000000" font-family="sans-serif" font-size="14" lengthAdjust="spacing" textLength="132" x="537" y="416.668">PersistenceContext</text><line style="stroke:#181818;stroke-width:0.5;" x1="509" x2="671" y1="424.6211" y2="424.6211"/><line style="stroke:#181818;stroke-width:0.5;" x1="509" x2="671" y1="432.6211" y2="432.6211"/><text fill="#000000" font-family="sans-serif" font-size="14" lengthAdjust="spacing" textLength="92" x="514" y="450.1563">repositories()</text></g><!--class RepositoryFactory--><g id="elem_RepositoryFactory"><rect codeLine="49" fill="#F1F1F1" height="106.0859" id="RepositoryFactory" rx="2.5" ry="2.5" style="stroke:#181818;stroke-width:0.5;" width="159" x="509.5" y="518"/><ellipse cx="526.3" cy="538.3105" fill="#ADD1B2" rx="11" ry="11" style="stroke:#181818;stroke-width:1.0;"/><path d="M529.2731,543.9536 Q528.6921,544.2524 528.0529,544.4019 Q527.4138,544.5513 526.7082,544.5513 Q524.2014,544.5513 522.8815,542.8994 Q521.5617,541.2476 521.5617,538.1265 Q521.5617,534.9971 522.8815,533.3452 Q524.2014,531.6934 526.7082,531.6934 Q527.4138,531.6934 528.0612,531.8428 Q528.7087,531.9922 529.2731,532.291 L529.2731,535.0137 Q528.6423,534.4326 528.0488,534.1628 Q527.4553,533.8931 526.8244,533.8931 Q525.4797,533.8931 524.7949,534.9597 Q524.1101,536.0264 524.1101,538.1265 Q524.1101,540.2183 524.7949,541.2849 Q525.4797,542.3516 526.8244,542.3516 Q527.4553,542.3516 528.0488,542.0818 Q528.6423,541.812 529.2731,541.231 Z " fill="#000000"/><text fill="#000000" font-family="sans-serif" font-size="12" font-style="italic" lengthAdjust="spacing" textLength="51" x="576.7" y="534.6016">&#171;factory&#187;</text><text fill="#000000" font-family="sans-serif" font-size="14" lengthAdjust="spacing" textLength="123" x="540.7" y="550.668">RepositoryFactory</text><line style="stroke:#181818;stroke-width:0.5;" x1="510.5" x2="667.5" y1="558.6211" y2="558.6211"/><line style="stroke:#181818;stroke-width:0.5;" x1="510.5" x2="667.5" y1="566.6211" y2="566.6211"/><text fill="#000000" font-family="sans-serif" font-size="14" lengthAdjust="spacing" textLength="63" x="515.5" y="584.1563">courses()</text><text fill="#000000" font-family="sans-serif" font-size="14" lengthAdjust="spacing" textLength="147" x="515.5" y="600.6445">enrollmentRequests()</text><text fill="#000000" font-family="sans-serif" font-size="14" lengthAdjust="spacing" textLength="47" x="515.5" y="617.1328">users()</text></g><!--class CourseRepository--><g id="elem_CourseRepository"><rect codeLine="55" fill="#F1F1F1" height="73.1094" id="CourseRepository" rx="2.5" ry="2.5" style="stroke:#181818;stroke-width:0.5;" width="189" x="203.5" y="685"/><ellipse cx="234.25" cy="705.3105" fill="#ADD1B2" rx="11" ry="11" style="stroke:#181818;stroke-width:1.0;"/><path d="M237.2231,710.9536 Q236.6421,711.2524 236.0029,711.4019 Q235.3638,711.5513 234.6582,711.5513 Q232.1514,711.5513 230.8315,709.8994 Q229.5117,708.2476 229.5117,705.1265 Q229.5117,701.9971 230.8315,700.3452 Q232.1514,698.6934 234.6582,698.6934 Q235.3638,698.6934 236.0112,698.8428 Q236.6587,698.9922 237.2231,699.291 L237.2231,702.0137 Q236.5923,701.4326 235.9988,701.1628 Q235.4053,700.8931 234.7744,700.8931 Q233.4297,700.8931 232.7449,701.9597 Q232.0601,703.0264 232.0601,705.1265 Q232.0601,707.2183 232.7449,708.2849 Q233.4297,709.3516 234.7744,709.3516 Q235.4053,709.3516 235.9988,709.0818 Q236.5923,708.812 237.2231,708.231 Z " fill="#000000"/><text fill="#000000" font-family="sans-serif" font-size="12" font-style="italic" lengthAdjust="spacing" textLength="70" x="277.75" y="701.6016">&#171;repository&#187;</text><text fill="#000000" font-family="sans-serif" font-size="14" lengthAdjust="spacing" textLength="122" x="251.75" y="717.668">CourseRepository</text><line style="stroke:#181818;stroke-width:0.5;" x1="204.5" x2="391.5" y1="725.6211" y2="725.6211"/><line style="stroke:#181818;stroke-width:0.5;" x1="204.5" x2="391.5" y1="733.6211" y2="733.6211"/><text fill="#000000" font-family="sans-serif" font-size="14" lengthAdjust="spacing" textLength="177" x="209.5" y="751.1563">ofIdentity(CourseCode id)</text></g><!--class EnrollmentRequestRepository--><g id="elem_EnrollmentRequestRepository"><rect codeLine="59" fill="#F1F1F1" height="73.1094" id="EnrollmentRequestRepository" rx="2.5" ry="2.5" style="stroke:#181818;stroke-width:0.5;" width="238" x="729" y="685"/><ellipse cx="745.35" cy="705.3105" fill="#ADD1B2" rx="11" ry="11" style="stroke:#181818;stroke-width:1.0;"/><path d="M748.3231,710.9536 Q747.7421,711.2524 747.1029,711.4019 Q746.4638,711.5513 745.7582,711.5513 Q743.2514,711.5513 741.9315,709.8994 Q740.6117,708.2476 740.6117,705.1265 Q740.6117,701.9971 741.9315,700.3452 Q743.2514,698.6934 745.7582,698.6934 Q746.4638,698.6934 747.1112,698.8428 Q747.7587,698.9922 748.3231,699.291 L748.3231,702.0137 Q747.6923,701.4326 747.0988,701.1628 Q746.5053,700.8931 745.8744,700.8931 Q744.5297,700.8931 743.8449,701.9597 Q743.1601,703.0264 743.1601,705.1265 Q743.1601,707.2183 743.8449,708.2849 Q744.5297,709.3516 745.8744,709.3516 Q746.5053,709.3516 747.0988,709.0818 Q747.6923,708.812 748.3231,708.231 Z " fill="#000000"/><text fill="#000000" font-family="sans-serif" font-size="12" font-style="italic" lengthAdjust="spacing" textLength="70" x="826.15" y="701.6016">&#171;repository&#187;</text><text fill="#000000" font-family="sans-serif" font-size="14" lengthAdjust="spacing" textLength="203" x="759.65" y="717.668">EnrollmentRequestRepository</text><line style="stroke:#181818;stroke-width:0.5;" x1="730" x2="966" y1="725.6211" y2="725.6211"/><line style="stroke:#181818;stroke-width:0.5;" x1="730" x2="966" y1="733.6211" y2="733.6211"/><text fill="#000000" font-family="sans-serif" font-size="14" lengthAdjust="spacing" textLength="226" x="735" y="751.1563">save(EnrollmentRequest request)</text></g><!--class UserRepository--><g id="elem_UserRepository"><rect codeLine="63" fill="#F1F1F1" height="73.1094" id="UserRepository" rx="2.5" ry="2.5" style="stroke:#181818;stroke-width:0.5;" width="266" x="428" y="685"/><ellipse cx="504.75" cy="705.3105" fill="#ADD1B2" rx="11" ry="11" style="stroke:#181818;stroke-width:1.0;"/><path d="M507.7231,710.9536 Q507.1421,711.2524 506.5029,711.4019 Q505.8638,711.5513 505.1582,711.5513 Q502.6514,711.5513 501.3315,709.8994 Q500.0117,708.2476 500.0117,705.1265 Q500.0117,701.9971 501.3315,700.3452 Q502.6514,698.6934 505.1582,698.6934 Q505.8638,698.6934 506.5112,698.8428 Q507.1587,698.9922 507.7231,699.291 L507.7231,702.0137 Q507.0923,701.4326 506.4988,701.1628 Q505.9053,700.8931 505.2744,700.8931 Q503.9297,700.8931 503.2449,701.9597 Q502.5601,703.0264 502.5601,705.1265 Q502.5601,707.2183 503.2449,708.2849 Q503.9297,709.3516 505.2744,709.3516 Q505.9053,709.3516 506.4988,709.0818 Q507.0923,708.812 507.7231,708.231 Z " fill="#000000"/><text fill="#000000" font-family="sans-serif" font-size="12" font-style="italic" lengthAdjust="spacing" textLength="70" x="542.25" y="701.6016">&#171;repository&#187;</text><text fill="#000000" font-family="sans-serif" font-size="14" lengthAdjust="spacing" textLength="104" x="525.25" y="717.668">UserRepository</text><line style="stroke:#181818;stroke-width:0.5;" x1="429" x2="693" y1="725.6211" y2="725.6211"/><line style="stroke:#181818;stroke-width:0.5;" x1="429" x2="693" y1="733.6211" y2="733.6211"/><text fill="#000000" font-family="sans-serif" font-size="14" lengthAdjust="spacing" textLength="254" x="434" y="751.1563">findUserByEmail(EmailAddress email)</text></g><!--class EnrollmentRequestManagementService--><g id="elem_EnrollmentRequestManagementService"><rect codeLine="68" fill="#F1F1F1" height="73.1094" id="EnrollmentRequestManagementService" rx="2.5" ry="2.5" style="stroke:#181818;stroke-width:0.5;" width="299" x="234.5" y="250"/><ellipse cx="249.5" cy="270.3105" fill="#ADD1B2" rx="11" ry="11" style="stroke:#181818;stroke-width:1.0;"/><path d="M252.4731,275.9536 Q251.8921,276.2524 251.2529,276.4019 Q250.6138,276.5513 249.9082,276.5513 Q247.4014,276.5513 246.0815,274.8994 Q244.7617,273.2476 244.7617,270.1265 Q244.7617,266.9971 246.0815,265.3452 Q247.4014,263.6934 249.9082,263.6934 Q250.6138,263.6934 251.2612,263.8428 Q251.9087,263.9922 252.4731,264.291 L252.4731,267.0137 Q251.8423,266.4326 251.2488,266.1628 Q250.6553,265.8931 250.0244,265.8931 Q248.6797,265.8931 247.9949,266.9597 Q247.3101,268.0264 247.3101,270.1265 Q247.3101,272.2183 247.9949,273.2849 Q248.6797,274.3516 250.0244,274.3516 Q250.6553,274.3516 251.2488,274.0818 Q251.8423,273.812 252.4731,273.231 Z " fill="#000000"/><text fill="#000000" font-family="sans-serif" font-size="12" font-style="italic" lengthAdjust="spacing" textLength="52" x="371" y="266.6016">&#171;service&#187;</text><text fill="#000000" font-family="sans-serif" font-size="14" lengthAdjust="spacing" textLength="267" x="263.5" y="282.668">EnrollmentRequestManagementService</text><line style="stroke:#181818;stroke-width:0.5;" x1="235.5" x2="532.5" y1="290.6211" y2="290.6211"/><line style="stroke:#181818;stroke-width:0.5;" x1="235.5" x2="532.5" y1="298.6211" y2="298.6211"/><text fill="#000000" font-family="sans-serif" font-size="14" lengthAdjust="spacing" textLength="278" x="240.5" y="316.1563">createRequest(CourseCode courseCode)</text></g><!--class AuthorizationService--><g id="elem_AuthorizationService"><rect codeLine="72" fill="#F1F1F1" height="73.1094" id="AuthorizationService" rx="2.5" ry="2.5" style="stroke:#181818;stroke-width:0.5;" width="175" x="62.5" y="534.5"/><ellipse cx="77.5" cy="554.8105" fill="#ADD1B2" rx="11" ry="11" style="stroke:#181818;stroke-width:1.0;"/><path d="M80.4731,560.4536 Q79.8921,560.7524 79.2529,560.9019 Q78.6138,561.0513 77.9082,561.0513 Q75.4014,561.0513 74.0815,559.3994 Q72.7617,557.7476 72.7617,554.6265 Q72.7617,551.4971 74.0815,549.8452 Q75.4014,548.1934 77.9082,548.1934 Q78.6138,548.1934 79.2612,548.3428 Q79.9087,548.4922 80.4731,548.791 L80.4731,551.5137 Q79.8423,550.9326 79.2488,550.6628 Q78.6553,550.3931 78.0244,550.3931 Q76.6797,550.3931 75.9949,551.4597 Q75.3101,552.5264 75.3101,554.6265 Q75.3101,556.7183 75.9949,557.7849 Q76.6797,558.8516 78.0244,558.8516 Q78.6553,558.8516 79.2488,558.5818 Q79.8423,558.312 80.4731,557.731 Z " fill="#000000"/><text fill="#000000" font-family="sans-serif" font-size="12" font-style="italic" lengthAdjust="spacing" textLength="52" x="137" y="551.1016">&#171;service&#187;</text><text fill="#000000" font-family="sans-serif" font-size="14" lengthAdjust="spacing" textLength="143" x="91.5" y="567.168">AuthorizationService</text><line style="stroke:#181818;stroke-width:0.5;" x1="63.5" x2="236.5" y1="575.1211" y2="575.1211"/><line style="stroke:#181818;stroke-width:0.5;" x1="63.5" x2="236.5" y1="583.1211" y2="583.1211"/><text fill="#000000" font-family="sans-serif" font-size="14" lengthAdjust="spacing" textLength="61" x="68.5" y="600.6563">session()</text></g><!--class AuthzRegistry--><g id="elem_AuthzRegistry"><rect codeLine="76" fill="#F1F1F1" height="56.6211" id="AuthzRegistry" rx="2.5" ry="2.5" style="stroke:#181818;stroke-width:0.5;" width="128" x="203" y="392"/><ellipse cx="218" cy="412.3105" fill="#ADD1B2" rx="11" ry="11" style="stroke:#181818;stroke-width:1.0;"/><path d="M220.9731,417.9536 Q220.3921,418.2524 219.7529,418.4019 Q219.1138,418.5513 218.4082,418.5513 Q215.9014,418.5513 214.5815,416.8994 Q213.2617,415.2476 213.2617,412.1265 Q213.2617,408.9971 214.5815,407.3452 Q215.9014,405.6934 218.4082,405.6934 Q219.1138,405.6934 219.7612,405.8428 Q220.4087,405.9922 220.9731,406.291 L220.9731,409.0137 Q220.3423,408.4326 219.7488,408.1628 Q219.1553,407.8931 218.5244,407.8931 Q217.1797,407.8931 216.4949,408.9597 Q215.8101,410.0264 215.8101,412.1265 Q215.8101,414.2183 216.4949,415.2849 Q217.1797,416.3516 218.5244,416.3516 Q219.1553,416.3516 219.7488,416.0818 Q220.3423,415.812 220.9731,415.231 Z " fill="#000000"/><text fill="#000000" font-family="sans-serif" font-size="12" font-style="italic" lengthAdjust="spacing" textLength="29" x="265.5" y="408.6016">&#171;util&#187;</text><text fill="#000000" font-family="sans-serif" font-size="14" lengthAdjust="spacing" textLength="96" x="232" y="424.668">AuthzRegistry</text><line style="stroke:#181818;stroke-width:0.5;" x1="204" x2="330" y1="432.6211" y2="432.6211"/><line style="stroke:#181818;stroke-width:0.5;" x1="204" x2="330" y1="440.6211" y2="440.6211"/></g><!--link EnrollmentRequest to Course--><g id="link_EnrollmentRequest_Course"><path codeLine="80" d="M964.22,988.46 C1001.2,1005.68 1040.74,1026.29 1075,1049 C1078.49,1051.32 1081.99,1053.83 1085.44,1056.47 " fill="none" id="EnrollmentRequest-to-Course" style="stroke:#181818;stroke-width:1.0;"/><polygon fill="#181818" points="1095.24,1065.2,1093.0914,1058.3164,1085.9109,1057.6523,1088.0595,1064.5358,1095.24,1065.2" style="stroke:#181818;stroke-width:1.0;"/></g><!--link EnrollmentRequest to User--><g id="link_EnrollmentRequest_User"><path codeLine="81" d="M705.84,988.44 C665.71,1006.17 621.83,1027.08 583,1049 C572.27,1055.05 561.14,1062.23 550.85,1069.28 " fill="none" id="EnrollmentRequest-to-User" style="stroke:#181818;stroke-width:1.0;"/><polygon fill="#181818" points="540.64,1077.13,547.8493,1076.9675,550.472,1070.2502,543.2628,1070.4128,540.64,1077.13" style="stroke:#181818;stroke-width:1.0;"/></g><!--link EnrollmentRequest to RequestState--><g id="link_EnrollmentRequest_RequestState"><path codeLine="82" d="M779.95,988.21 C762.81,1004.46 743.75,1022.53 726,1039.36 " fill="none" id="EnrollmentRequest-to-RequestState" style="stroke:#181818;stroke-width:1.0;"/><polygon fill="#181818" points="717.29,1047.57,724.396,1046.3432,725.9966,1039.3119,718.8906,1040.5388,717.29,1047.57" style="stroke:#181818;stroke-width:1.0;"/></g><!--link EnrollmentRequest to RequestedDate--><g id="link_EnrollmentRequest_RequestedDate"><path codeLine="83" d="M884.04,988.21 C906.86,1012.5 933.5,1040.85 954.36,1063.06 " fill="none" id="EnrollmentRequest-to-RequestedDate" style="stroke:#181818;stroke-width:1.0;"/><polygon fill="#181818" points="962.79,1072.1,961.5963,1064.9884,954.5726,1063.355,955.7663,1070.4666,962.79,1072.1" style="stroke:#181818;stroke-width:1.0;"/></g><!--link EnrollmentRequest to AnsweredDate--><g id="link_EnrollmentRequest_AnsweredDate"><path codeLine="84" d="M830.89,988.21 C829.08,1011.18 826.98,1037.78 825.28,1059.39 " fill="none" id="EnrollmentRequest-to-AnsweredDate" style="stroke:#181818;stroke-width:1.0;"/><polygon fill="none" points="824.2,1072.1,828.6556,1066.4301,825.1355,1060.1365,820.6799,1065.8064,824.2,1072.1" style="stroke:#181818;stroke-width:1.0;"/></g><!--link EnrollmentRequestRepository to EnrollmentRequest--><g id="link_EnrollmentRequestRepository_EnrollmentRequest"><path codeLine="86" d="M845.79,758.38 C843.82,790.48 840.89,838.15 838.58,875.72 " fill="none" id="EnrollmentRequestRepository-to-EnrollmentRequest" style="stroke:#181818;stroke-width:1.0;"/><polygon fill="#181818" points="838.22,880.66,842.7533,871.9165,838.5203,875.669,834.7678,871.436,838.22,880.66" style="stroke:#181818;stroke-width:1.0;"/><polygon fill="#000000" points="847.6934,825.1459,851.1815,816.298,845.3147,815.9376,847.6934,825.1459" style="stroke:#000000;stroke-width:1.0;"/><text fill="#000000" font-family="sans-serif" font-size="13" lengthAdjust="spacing" textLength="41" x="857" y="825.0684">knows</text></g><!--link RequestEnrollmentUI to RequestEnrollmentController--><g id="link_RequestEnrollmentUI_RequestEnrollmentController"><path codeLine="88" d="M130,55.32 C130,70.84 130,91.65 130,109.94 " fill="none" id="RequestEnrollmentUI-to-RequestEnrollmentController" style="stroke:#181818;stroke-width:1.0;stroke-dasharray:7.0,7.0;"/><polygon fill="#181818" points="130,114.53,134,105.53,130,109.53,126,105.53,130,114.53" style="stroke:#181818;stroke-width:1.0;"/></g><!--link RequestEnrollmentController to EnrollmentRequestManagementService--><g id="link_RequestEnrollmentController_EnrollmentRequestManagementService"><path codeLine="90" d="M199.07,189.4 C233.38,207.22 274.86,228.78 309.83,246.96 " fill="none" id="RequestEnrollmentController-to-EnrollmentRequestManagementService" style="stroke:#181818;stroke-width:1.0;stroke-dasharray:7.0,7.0;"/><polygon fill="#181818" points="313.94,249.61,307.7864,241.9202,309.4997,247.3113,304.1086,249.0246,313.94,249.61" style="stroke:#181818;stroke-width:1.0;"/></g><!--link RequestEnrollmentController to AuthzRegistry--><g id="link_RequestEnrollmentController_AuthzRegistry"><path codeLine="91" d="M148.29,189.23 C165.87,223.55 193.2,276.85 217,323 C227.91,344.15 240.21,367.89 249.88,386.53 " fill="none" id="RequestEnrollmentController-to-AuthzRegistry" style="stroke:#181818;stroke-width:1.0;stroke-dasharray:7.0,7.0;"/><polygon fill="#181818" points="252.53,390.64,251.9446,380.8086,250.2313,386.1997,244.8402,384.4864,252.53,390.64" style="stroke:#181818;stroke-width:1.0;"/></g><!--link RequestEnrollmentController to AuthorizationService--><g id="link_RequestEnrollmentController_AuthorizationService"><path codeLine="92" d="M130.56,189.18 C131.68,250.38 134.75,379.28 142,488 C142.87,501.12 144.15,515.39 145.43,528.29 " fill="none" id="RequestEnrollmentController-to-AuthorizationService" style="stroke:#181818;stroke-width:1.0;"/><polygon fill="#181818" points="146.02,533.12,149.0993,523.7649,145.5197,528.1451,141.1394,524.5655,146.02,533.12" style="stroke:#181818;stroke-width:1.0;"/></g><!--link EnrollmentRequestManagementService to PersistenceContext--><g id="link_EnrollmentRequestManagementService_PersistenceContext"><path codeLine="94" d="M440.02,323.4 C467.61,341.08 500.93,362.43 529.15,380.51 " fill="none" id="EnrollmentRequestManagementService-to-PersistenceContext" style="stroke:#181818;stroke-width:1.0;stroke-dasharray:7.0,7.0;"/><polygon fill="#181818" points="532.99,383.61,527.5697,375.3868,528.7799,380.9127,523.2541,382.1229,532.99,383.61" style="stroke:#181818;stroke-width:1.0;"/></g><!--link EnrollmentRequestManagementService to EnrollmentRequestRepository--><g id="link_EnrollmentRequestManagementService_EnrollmentRequestRepository"><path codeLine="95" d="M533.8,308.92 C588,322.89 646.5,345.95 690,384 C781.31,463.87 823.71,607.86 839.8,678.76 " fill="none" id="EnrollmentRequestManagementService-to-EnrollmentRequestRepository" style="stroke:#181818;stroke-width:1.0;"/><polygon fill="#181818" points="841.1,683.56,843.0464,673.9054,840.0123,678.6797,835.238,675.6457,841.1,683.56" style="stroke:#181818;stroke-width:1.0;"/></g><!--link EnrollmentRequestManagementService to CourseRepository--><g id="link_EnrollmentRequestManagementService_CourseRepository"><path codeLine="96" d="M376.89,323.3 C361.07,402.93 323.06,594.31 306.24,678.99 " fill="none" id="EnrollmentRequestManagementService-to-CourseRepository" style="stroke:#181818;stroke-width:1.0;"/><polygon fill="#181818" points="305.12,683.66,310.7938,675.6097,306.0923,678.7555,302.9466,674.054,305.12,683.66" style="stroke:#181818;stroke-width:1.0;"/></g><!--link EnrollmentRequestManagementService to UserRepository--><g id="link_EnrollmentRequestManagementService_UserRepository"><path codeLine="97" d="M391.62,323.29 C405.88,386.35 439.93,520.39 492,624 C501.81,643.51 515.33,663.42 527.8,680.04 " fill="none" id="EnrollmentRequestManagementService-to-UserRepository" style="stroke:#181818;stroke-width:1.0;"/><polygon fill="#181818" points="531.29,683.64,529.0516,674.0489,528.274,679.652,522.6709,678.8745,531.29,683.64" style="stroke:#181818;stroke-width:1.0;"/></g><!--link PersistenceContext to RepositoryFactory--><g id="link_PersistenceContext_RepositoryFactory"><path codeLine="99" d="M589.76,457.45 C589.65,473.78 589.51,493.53 589.39,511.89 " fill="none" id="PersistenceContext-to-RepositoryFactory" style="stroke:#181818;stroke-width:1.0;stroke-dasharray:7.0,7.0;"/><polygon fill="#181818" points="589.35,516.53,593.427,507.5646,589.3929,511.5302,585.4273,507.496,589.35,516.53" style="stroke:#181818;stroke-width:1.0;"/></g><!--link RepositoryFactory to EnrollmentRequestRepository--><g id="link_RepositoryFactory_EnrollmentRequestRepository"><path codeLine="102" d="M668.82,617.77 C704.52,638.24 746.16,662.11 780.31,681.69 " fill="none" id="RepositoryFactory-to-EnrollmentRequestRepository" style="stroke:#181818;stroke-width:1.0;stroke-dasharray:7.0,7.0;"/><polygon fill="#181818" points="784.29,684.54,778.4773,676.5894,779.9541,682.0501,774.4934,683.5269,784.29,684.54" style="stroke:#181818;stroke-width:1.0;"/></g><!--link RepositoryFactory to CourseRepository--><g id="link_RepositoryFactory_CourseRepository"><path codeLine="103" d="M509.1,612.77 C466.82,634.35 415.2,660.69 373.59,681.93 " fill="none" id="RepositoryFactory-to-CourseRepository" style="stroke:#181818;stroke-width:1.0;stroke-dasharray:7.0,7.0;"/><polygon fill="#181818" points="369.31,684.62,379.145,684.0974,373.7649,682.3497,375.5126,676.9696,369.31,684.62" style="stroke:#181818;stroke-width:1.0;"/></g><!--link RepositoryFactory to UserRepository--><g id="link_RepositoryFactory_UserRepository"><path codeLine="104" d="M579.13,624.36 C575.73,642.36 571.98,662.25 568.78,679.25 " fill="none" id="RepositoryFactory-to-UserRepository" style="stroke:#181818;stroke-width:1.0;stroke-dasharray:7.0,7.0;"/><polygon fill="#181818" points="567.71,683.9,573.3115,675.7992,568.6383,678.9869,565.4506,674.3138,567.71,683.9" style="stroke:#181818;stroke-width:1.0;"/></g><!--link AuthzRegistry to AuthorizationService--><g id="link_AuthzRegistry_AuthorizationService"><path codeLine="108" d="M244.99,449.43 C227.23,471.97 202,504 182.01,529.38 " fill="none" id="AuthzRegistry-to-AuthorizationService" style="stroke:#181818;stroke-width:1.0;stroke-dasharray:7.0,7.0;"/><polygon fill="#181818" points="178.34,533.04,187.0531,528.4484,181.4354,529.1134,180.7705,523.4957,178.34,533.04" style="stroke:#181818;stroke-width:1.0;"/></g><!--link AuthorizationService to UserSession--><g id="link_AuthorizationService_UserSession"><path codeLine="109" d="M147.1,607.94 C145.8,649.03 150.07,716.02 186,758 C208.53,784.33 243.32,799.29 275.5,807.8 " fill="none" id="AuthorizationService-to-UserSession" style="stroke:#181818;stroke-width:1.0;"/><polygon fill="#181818" points="280.05,809.21,272.3268,803.0983,275.2069,807.9671,270.3382,810.8472,280.05,809.21" style="stroke:#181818;stroke-width:1.0;"/></g><!--link UserSession to User--><g id="link_UserSession_User"><path codeLine="110" d="M372.11,852.3 C399.89,903.14 454.8,1003.64 485.64,1060.07 " fill="none" id="UserSession-to-User" style="stroke:#181818;stroke-width:1.0;"/><polygon fill="#181818" points="488.36,1064.06,487.5485,1054.2446,485.9597,1059.6738,480.5306,1058.0851,488.36,1064.06" style="stroke:#181818;stroke-width:1.0;"/></g><!--link EnrollmentRequestManagementService to AuthzRegistry--><g id="link_EnrollmentRequestManagementService_AuthzRegistry"><path codeLine="112" d="M352.34,323.22 C334.6,343.24 312.65,368 295.45,387.4 " fill="none" id="EnrollmentRequestManagementService-to-AuthzRegistry" style="stroke:#181818;stroke-width:1.0;stroke-dasharray:7.0,7.0;"/><polygon fill="#181818" points="292.64,390.7,301.6012,386.6138,295.9547,386.9567,295.6118,381.3102,292.64,390.7" style="stroke:#181818;stroke-width:1.0;"/></g><!--link EnrollmentRequestManagementService to AuthorizationService--><g id="link_EnrollmentRequestManagementService_AuthorizationService"><path codeLine="113" d="M264.85,323.44 C234.77,337.81 205.29,357.46 185,384 C153.14,425.68 147.41,487.71 147.6,528.5 " fill="none" id="EnrollmentRequestManagementService-to-AuthorizationService" style="stroke:#181818;stroke-width:1.0;"/><polygon fill="#181818" points="147.67,533.36,151.5669,524.3149,147.6129,528.3603,143.5674,524.4063,147.67,533.36" style="stroke:#181818;stroke-width:1.0;"/></g><!--SRC=[ZLNRZjem47ttL_YDK9NjUxMAH4DQ8RK8GVS3t6HWlGqsjHssxAh_td7Y94vYBZn079-vdZF3f82TeKPInVVFXkPSGMQu58HCQAc1PWo_51JCG4wpWcaDcbI_T0D_Ij0c5KeMnG64ULg-at_aqcqYXR7FeEZZ8piU2vun6ocEtmd5JwO0WpYpQ6iK5tkQoL9fI6GEK-jwaii3usAGI1V3MMC09QNfUuwUD8RMfimH-94cbMSNO5hXM9R1qKJr8OUiu0AYQLUIC-axryRwzb1Lc3u6qnj1jg0rLazh12lDCwPbMmAvlQxX4mfjRSX2NTo95ILG-Ui5cT84H7bechsrkM3i2X77plSwNIsMgs_Lypn9qlNFT54T5cdoVRd2GvlONEXNK90lXdw6j8OX4ypnA3KtKd7GduwWD4UioC1PhxitLWxmrrBbmTg6UMxyncsQz-UlBBC_QBwhdzfoQqQren66scWkKDnAZzdj8bWEsqEJcDmjhNouEKT9AqtASy_FI8qNNRg4DJj1DDQmetiWcrlETbnK-lboJd5IYgZwdkUvGhbHi0SdBCISU4lCAFmF9jWUx8jj3SHmpgJhT6zYlNuCfjPf2oMEXBvLGt_PgQxd8XfOlcrWZoAfoYuDBnh9aN7ZPhCFZimBbxO_5wxyGReEgISWY96zEGgaw94ucyM1_VMP_XRoLTEOaC2MfGyFyRNz6Z3obgyrlattJHSzKgwYROaXyWED6QlEXXflZNiiWvtjEd-lY-5QkDUkFwo415PVJUDWen7Btd3B1Jdpl8SjHgc7OSDC2UaFNCFsYB_WH3Urk_ytul_NDNTtCzyNsPsT3skD_0S0]--></g></svg>