<?xml version="1.0" encoding="us-ascii" standalone="no"?><svg xmlns="http://www.w3.org/2000/svg" xmlns:xlink="http://www.w3.org/1999/xlink" contentStyleType="text/css" height="1062px" preserveAspectRatio="none" style="width:1350px;height:1062px;background:#FFFFFF;" version="1.1" viewBox="0 0 1350 1062" width="1350px" zoomAndPan="magnify"><defs/><g><rect fill="#FFFFFF" height="855.7939" style="stroke:#181818;stroke-width:1.0;" width="10" x="32.5" y="93.6211"/><rect fill="#FFFFFF" height="116.8242" style="stroke:#181818;stroke-width:1.0;" width="10" x="324.5" y="93.6211"/><rect fill="#FFFFFF" height="31.291" style="stroke:#181818;stroke-width:1.0;" width="10" x="324.5" y="516.6953"/><rect fill="#FFFFFF" height="180.3916" style="stroke:#181818;stroke-width:1.0;" width="10" x="324.5" y="769.0234"/><rect fill="#FFFFFF" height="93.873" style="stroke:#181818;stroke-width:1.0;" width="10" x="530.5" y="210.4453"/><rect fill="#FFFFFF" height="61.291" style="stroke:#181818;stroke-width:1.0;" width="10" x="530.5" y="737.7324"/><rect fill="#FFFFFF" height="31.291" style="stroke:#181818;stroke-width:1.0;" width="10" x="694.5" y="241.7363"/><rect fill="#FFFFFF" height="433.4141" style="stroke:#181818;stroke-width:1.0;" width="10" x="842.5" y="304.3184"/><rect fill="#FFFFFF" height="105.5039" style="stroke:#181818;stroke-width:1.0;" width="10" x="1116.5" y="379.9004"/><rect fill="#FFFFFF" height="31.291" style="stroke:#181818;stroke-width:1.0;" width="10" x="1206.5" y="586.2773"/><rect fill="#FFFFFF" height="31.291" style="stroke:#181818;stroke-width:1.0;" width="10" x="1301" y="648.8594"/><rect fill="none" height="161.0859" style="stroke:#000000;stroke-width:1.5;" width="1155" x="10" y="394.9004"/><rect fill="none" height="177.7461" style="stroke:#000000;stroke-width:1.5;" width="919" x="10" y="695.1504"/><line style="stroke:#181818;stroke-width:0.5;stroke-dasharray:5.0,5.0;" x1="37" x2="37" y1="83.6211" y2="979.0605"/><line style="stroke:#181818;stroke-width:0.5;stroke-dasharray:5.0,5.0;" x1="329" x2="329" y1="83.6211" y2="979.0605"/><line style="stroke:#181818;stroke-width:0.5;stroke-dasharray:5.0,5.0;" x1="535.5" x2="535.5" y1="166.0332" y2="979.0605"/><line style="stroke:#181818;stroke-width:0.5;stroke-dasharray:5.0,5.0;" x1="699" x2="699" y1="83.6211" y2="979.0605"/><line style="stroke:#181818;stroke-width:0.5;stroke-dasharray:5.0,5.0;" x1="847" x2="847" y1="83.6211" y2="979.0605"/><line style="stroke:#181818;stroke-width:0.5;stroke-dasharray:5.0,5.0;" x1="1121" x2="1121" y1="83.6211" y2="979.0605"/><line style="stroke:#181818;stroke-width:0.5;stroke-dasharray:5.0,5.0;" x1="1211" x2="1211" y1="83.6211" y2="979.0605"/><line style="stroke:#181818;stroke-width:0.5;stroke-dasharray:5.0,5.0;" x1="1306" x2="1306" y1="83.6211" y2="979.0605"/><text fill="#000000" font-family="sans-serif" font-size="14" lengthAdjust="spacing" textLength="29" x="20" y="80.1074">User</text><ellipse cx="37.5" cy="13.5" fill="#E2E2F0" rx="8" ry="8" style="stroke:#181818;stroke-width:0.5;"/><path d="M37.5,21.5 L37.5,48.5 M24.5,29.5 L50.5,29.5 M37.5,48.5 L24.5,63.5 M37.5,48.5 L50.5,63.5 " fill="none" style="stroke:#181818;stroke-width:0.5;"/><text fill="#000000" font-family="sans-serif" font-size="14" lengthAdjust="spacing" textLength="29" x="20" y="993.168">User</text><ellipse cx="37.5" cy="1005.1816" fill="#E2E2F0" rx="8" ry="8" style="stroke:#181818;stroke-width:0.5;"/><path d="M37.5,1013.1816 L37.5,1040.1816 M24.5,1021.1816 L50.5,1021.1816 M37.5,1040.1816 L24.5,1055.1816 M37.5,1040.1816 L50.5,1055.1816 " fill="none" style="stroke:#181818;stroke-width:0.5;"/><rect fill="#E2E2F0" height="51.2422" rx="2.5" ry="2.5" style="stroke:#181818;stroke-width:0.5;" width="109" x="275" y="31.3789"/><text fill="#000000" font-family="sans-serif" font-size="14" font-style="italic" lengthAdjust="spacing" textLength="95" x="282" y="53.4863">&#171;presentation&#187;</text><text fill="#000000" font-family="sans-serif" font-size="14" lengthAdjust="spacing" textLength="18" x="320.5" y="72.1074">xUI</text><rect fill="#E2E2F0" height="51.2422" rx="2.5" ry="2.5" style="stroke:#181818;stroke-width:0.5;" width="109" x="275" y="978.0605"/><text fill="#000000" font-family="sans-serif" font-size="14" font-style="italic" lengthAdjust="spacing" textLength="95" x="282" y="1000.168">&#171;presentation&#187;</text><text fill="#000000" font-family="sans-serif" font-size="14" lengthAdjust="spacing" textLength="18" x="320.5" y="1018.7891">xUI</text><rect fill="#E2E2F0" height="51.2422" rx="2.5" ry="2.5" style="stroke:#181818;stroke-width:0.5;" width="98" x="486.5" y="978.0605"/><text fill="#000000" font-family="sans-serif" font-size="14" font-style="italic" lengthAdjust="spacing" textLength="84" x="493.5" y="1000.168">&#171;application&#187;</text><text fill="#000000" font-family="sans-serif" font-size="14" lengthAdjust="spacing" textLength="68" x="501.5" y="1018.7891">xController</text><rect fill="#E2E2F0" height="51.2422" rx="2.5" ry="2.5" style="stroke:#181818;stroke-width:0.5;" width="101" x="649" y="31.3789"/><text fill="#000000" font-family="sans-serif" font-size="14" font-style="italic" lengthAdjust="spacing" textLength="34" x="682.5" y="53.4863">&#171;util&#187;</text><text fill="#000000" font-family="sans-serif" font-size="14" lengthAdjust="spacing" textLength="87" x="656" y="72.1074">AuthzRegistry</text><rect fill="#E2E2F0" height="51.2422" rx="2.5" ry="2.5" style="stroke:#181818;stroke-width:0.5;" width="101" x="649" y="978.0605"/><text fill="#000000" font-family="sans-serif" font-size="14" font-style="italic" lengthAdjust="spacing" textLength="34" x="682.5" y="1000.168">&#171;util&#187;</text><text fill="#000000" font-family="sans-serif" font-size="14" lengthAdjust="spacing" textLength="87" x="656" y="1018.7891">AuthzRegistry</text><rect fill="#E2E2F0" height="51.2422" rx="2.5" ry="2.5" style="stroke:#181818;stroke-width:0.5;" width="143" x="776" y="31.3789"/><text fill="#000000" font-family="sans-serif" font-size="14" font-style="italic" lengthAdjust="spacing" textLength="60" x="817.5" y="53.4863">&#171;service&#187;</text><text fill="#000000" font-family="sans-serif" font-size="14" lengthAdjust="spacing" textLength="129" x="783" y="72.1074">AuthorizationService</text><rect fill="#E2E2F0" height="51.2422" rx="2.5" ry="2.5" style="stroke:#181818;stroke-width:0.5;" width="143" x="776" y="978.0605"/><text fill="#000000" font-family="sans-serif" font-size="14" font-style="italic" lengthAdjust="spacing" textLength="60" x="817.5" y="1000.168">&#171;service&#187;</text><text fill="#000000" font-family="sans-serif" font-size="14" lengthAdjust="spacing" textLength="129" x="783" y="1018.7891">AuthorizationService</text><rect fill="#E2E2F0" height="32.6211" rx="2.5" ry="2.5" style="stroke:#181818;stroke-width:0.5;" width="67" x="1088" y="50"/><text fill="#000000" font-family="sans-serif" font-size="14" lengthAdjust="spacing" textLength="53" x="1095" y="72.1074">Optional</text><rect fill="#E2E2F0" height="32.6211" rx="2.5" ry="2.5" style="stroke:#181818;stroke-width:0.5;" width="67" x="1088" y="978.0605"/><text fill="#000000" font-family="sans-serif" font-size="14" lengthAdjust="spacing" textLength="53" x="1095" y="1000.168">Optional</text><rect fill="#E2E2F0" height="32.6211" rx="2.5" ry="2.5" style="stroke:#181818;stroke-width:0.5;" width="93" x="1165" y="50"/><text fill="#000000" font-family="sans-serif" font-size="14" lengthAdjust="spacing" textLength="79" x="1172" y="72.1074">UserSession</text><rect fill="#E2E2F0" height="32.6211" rx="2.5" ry="2.5" style="stroke:#181818;stroke-width:0.5;" width="93" x="1165" y="978.0605"/><text fill="#000000" font-family="sans-serif" font-size="14" lengthAdjust="spacing" textLength="79" x="1172" y="1000.168">UserSession</text><rect fill="#E2E2F0" height="51.2422" rx="2.5" ry="2.5" style="stroke:#181818;stroke-width:0.5;" width="76" x="1268" y="31.3789"/><text fill="#000000" font-family="sans-serif" font-size="14" font-style="italic" lengthAdjust="spacing" textLength="62" x="1275" y="53.4863">&#171;domain&#187;</text><text fill="#000000" font-family="sans-serif" font-size="14" lengthAdjust="spacing" textLength="29" x="1291.5" y="72.1074">User</text><rect fill="#E2E2F0" height="51.2422" rx="2.5" ry="2.5" style="stroke:#181818;stroke-width:0.5;" width="76" x="1268" y="978.0605"/><text fill="#000000" font-family="sans-serif" font-size="14" font-style="italic" lengthAdjust="spacing" textLength="62" x="1275" y="1000.168">&#171;domain&#187;</text><text fill="#000000" font-family="sans-serif" font-size="14" lengthAdjust="spacing" textLength="29" x="1291.5" y="1018.7891">User</text><rect fill="#FFFFFF" height="855.7939" style="stroke:#181818;stroke-width:1.0;" width="10" x="32.5" y="93.6211"/><rect fill="#FFFFFF" height="116.8242" style="stroke:#181818;stroke-width:1.0;" width="10" x="324.5" y="93.6211"/><rect fill="#FFFFFF" height="31.291" style="stroke:#181818;stroke-width:1.0;" width="10" x="324.5" y="516.6953"/><rect fill="#FFFFFF" height="180.3916" style="stroke:#181818;stroke-width:1.0;" width="10" x="324.5" y="769.0234"/><rect fill="#FFFFFF" height="93.873" style="stroke:#181818;stroke-width:1.0;" width="10" x="530.5" y="210.4453"/><rect fill="#FFFFFF" height="61.291" style="stroke:#181818;stroke-width:1.0;" width="10" x="530.5" y="737.7324"/><rect fill="#FFFFFF" height="31.291" style="stroke:#181818;stroke-width:1.0;" width="10" x="694.5" y="241.7363"/><rect fill="#FFFFFF" height="433.4141" style="stroke:#181818;stroke-width:1.0;" width="10" x="842.5" y="304.3184"/><rect fill="#FFFFFF" height="105.5039" style="stroke:#181818;stroke-width:1.0;" width="10" x="1116.5" y="379.9004"/><rect fill="#FFFFFF" height="31.291" style="stroke:#181818;stroke-width:1.0;" width="10" x="1206.5" y="586.2773"/><rect fill="#FFFFFF" height="31.291" style="stroke:#181818;stroke-width:1.0;" width="10" x="1301" y="648.8594"/><polygon fill="#181818" points="312.5,112.9121,322.5,116.9121,312.5,120.9121,316.5,116.9121" style="stroke:#181818;stroke-width:1.0;"/><line style="stroke:#181818;stroke-width:1.0;" x1="42.5" x2="318.5" y1="116.9121" y2="116.9121"/><text fill="#000000" font-family="sans-serif" font-size="13" font-weight="bold" lengthAdjust="spacing" textLength="7" x="49.5" y="111.6494">1</text><text fill="#000000" font-family="sans-serif" font-size="13" lengthAdjust="spacing" textLength="146" x="60.5" y="111.6494">want to perform use case</text><polygon fill="#181818" points="474.5,144.2031,484.5,148.2031,474.5,152.2031,478.5,148.2031" style="stroke:#181818;stroke-width:1.0;"/><line style="stroke:#181818;stroke-width:1.0;" x1="334.5" x2="480.5" y1="148.2031" y2="148.2031"/><text fill="#000000" font-family="sans-serif" font-size="13" font-weight="bold" lengthAdjust="spacing" textLength="7" x="341.5" y="142.9404">2</text><text fill="#000000" font-family="sans-serif" font-size="13" lengthAdjust="spacing" textLength="43" x="352.5" y="142.9404">creates</text><rect fill="#E2E2F0" height="51.2422" rx="2.5" ry="2.5" style="stroke:#181818;stroke-width:0.5;" width="98" x="486.5" y="124.9121"/><text fill="#000000" font-family="sans-serif" font-size="14" font-style="italic" lengthAdjust="spacing" textLength="84" x="493.5" y="147.0195">&#171;application&#187;</text><text fill="#000000" font-family="sans-serif" font-size="14" lengthAdjust="spacing" textLength="68" x="501.5" y="165.6406">xController</text><polygon fill="#181818" points="518.5,206.4453,528.5,210.4453,518.5,214.4453,522.5,210.4453" style="stroke:#181818;stroke-width:1.0;"/><line style="stroke:#181818;stroke-width:1.0;" x1="329.5" x2="524.5" y1="210.4453" y2="210.4453"/><text fill="#000000" font-family="sans-serif" font-size="13" font-weight="bold" lengthAdjust="spacing" textLength="7" x="336.5" y="205.1826">3</text><text fill="#000000" font-family="sans-serif" font-size="13" lengthAdjust="spacing" textLength="74" x="347.5" y="205.1826">calls method</text><polygon fill="#181818" points="682.5,237.7363,692.5,241.7363,682.5,245.7363,686.5,241.7363" style="stroke:#181818;stroke-width:1.0;"/><line style="stroke:#181818;stroke-width:1.0;" x1="540.5" x2="688.5" y1="241.7363" y2="241.7363"/><text fill="#000000" font-family="sans-serif" font-size="13" font-weight="bold" lengthAdjust="spacing" textLength="7" x="547.5" y="236.4736">4</text><text fill="#000000" font-family="sans-serif" font-size="13" lengthAdjust="spacing" textLength="124" x="558.5" y="236.4736">authorizationService()</text><polygon fill="#181818" points="551.5,269.0273,541.5,273.0273,551.5,277.0273,547.5,273.0273" style="stroke:#181818;stroke-width:1.0;"/><line style="stroke:#181818;stroke-width:1.0;stroke-dasharray:2.0,2.0;" x1="545.5" x2="698.5" y1="273.0273" y2="273.0273"/><text fill="#000000" font-family="sans-serif" font-size="13" font-weight="bold" lengthAdjust="spacing" textLength="7" x="557.5" y="267.7646">5</text><text fill="#000000" font-family="sans-serif" font-size="13" lengthAdjust="spacing" textLength="74" x="568.5" y="267.7646">authzService</text><polygon fill="#181818" points="830.5,300.3184,840.5,304.3184,830.5,308.3184,834.5,304.3184" style="stroke:#181818;stroke-width:1.0;"/><line style="stroke:#181818;stroke-width:1.0;" x1="535.5" x2="836.5" y1="304.3184" y2="304.3184"/><text fill="#000000" font-family="sans-serif" font-size="13" font-weight="bold" lengthAdjust="spacing" textLength="7" x="542.5" y="299.0557">6</text><text fill="#000000" font-family="sans-serif" font-size="13" lengthAdjust="spacing" textLength="195" x="553.5" y="299.0557">ensureUserHasOneOfRoles(roles)</text><line style="stroke:#181818;stroke-width:1.0;" x1="852.5" x2="894.5" y1="335.6094" y2="335.6094"/><line style="stroke:#181818;stroke-width:1.0;" x1="894.5" x2="894.5" y1="335.6094" y2="348.6094"/><line style="stroke:#181818;stroke-width:1.0;" x1="853.5" x2="894.5" y1="348.6094" y2="348.6094"/><polygon fill="#181818" points="863.5,344.6094,853.5,348.6094,863.5,352.6094,859.5,348.6094" style="stroke:#181818;stroke-width:1.0;"/><text fill="#000000" font-family="sans-serif" font-size="13" font-weight="bold" lengthAdjust="spacing" textLength="7" x="859.5" y="330.3467">7</text><text fill="#000000" font-family="sans-serif" font-size="13" lengthAdjust="spacing" textLength="87" x="870.5" y="330.3467">opt = session()</text><polygon fill="#181818" points="1104.5,375.9004,1114.5,379.9004,1104.5,383.9004,1108.5,379.9004" style="stroke:#181818;stroke-width:1.0;"/><line style="stroke:#181818;stroke-width:1.0;" x1="852.5" x2="1110.5" y1="379.9004" y2="379.9004"/><text fill="#000000" font-family="sans-serif" font-size="13" font-weight="bold" lengthAdjust="spacing" textLength="7" x="859.5" y="374.6377">8</text><text fill="#000000" font-family="sans-serif" font-size="13" lengthAdjust="spacing" textLength="79" x="870.5" y="374.6377">orElseThrow()</text><path d="M10,394.9004 L71,394.9004 L71,404.1914 L61,414.1914 L10,414.1914 L10,394.9004 " fill="#EEEEEE" style="stroke:#000000;stroke-width:1.5;"/><rect fill="none" height="161.0859" style="stroke:#000000;stroke-width:1.5;" width="1155" x="10" y="394.9004"/><text fill="#000000" font-family="sans-serif" font-size="13" font-weight="bold" lengthAdjust="spacing" textLength="16" x="25" y="409.9287">alt</text><text fill="#000000" font-family="sans-serif" font-size="11" font-weight="bold" lengthAdjust="spacing" textLength="88" x="86" y="408.7705">[user is logged]</text><polygon fill="#181818" points="863.5,433.4824,853.5,437.4824,863.5,441.4824,859.5,437.4824" style="stroke:#181818;stroke-width:1.0;"/><line style="stroke:#181818;stroke-width:1.0;stroke-dasharray:2.0,2.0;" x1="857.5" x2="1115.5" y1="437.4824" y2="437.4824"/><text fill="#000000" font-family="sans-serif" font-size="13" font-weight="bold" lengthAdjust="spacing" textLength="7" x="869.5" y="432.2197">9</text><text fill="#000000" font-family="sans-serif" font-size="13" lengthAdjust="spacing" textLength="45" x="880.5" y="432.2197">session</text><line style="stroke:#000000;stroke-width:1.0;stroke-dasharray:2.0,2.0;" x1="10" x2="1165" y1="446.4824" y2="446.4824"/><text fill="#000000" font-family="sans-serif" font-size="11" font-weight="bold" lengthAdjust="spacing" textLength="122" x="15" y="458.3525">[user is not logged in]</text><polygon fill="#181818" points="863.5,481.4043,853.5,485.4043,863.5,489.4043,859.5,485.4043" style="stroke:#181818;stroke-width:1.0;"/><line style="stroke:#181818;stroke-width:1.0;stroke-dasharray:2.0,2.0;" x1="857.5" x2="1120.5" y1="485.4043" y2="485.4043"/><text fill="#000000" font-family="sans-serif" font-size="13" font-weight="bold" lengthAdjust="spacing" textLength="14" x="869.5" y="480.1416">10</text><text fill="#000000" font-family="sans-serif" font-size="13" lengthAdjust="spacing" textLength="222" x="887.5" y="480.1416">throw new UnauthenticatedException()</text><polygon fill="#181818" points="345.5,512.6953,335.5,516.6953,345.5,520.6953,341.5,516.6953" style="stroke:#181818;stroke-width:1.0;"/><line style="stroke:#181818;stroke-width:1.0;stroke-dasharray:2.0,2.0;" x1="339.5" x2="841.5" y1="516.6953" y2="516.6953"/><text fill="#000000" font-family="sans-serif" font-size="13" font-weight="bold" lengthAdjust="spacing" textLength="14" x="351.5" y="511.4326">11</text><text fill="#000000" font-family="sans-serif" font-size="13" lengthAdjust="spacing" textLength="159" x="369.5" y="511.4326">transports exception into UI</text><polygon fill="#181818" points="53.5,543.9863,43.5,547.9863,53.5,551.9863,49.5,547.9863" style="stroke:#181818;stroke-width:1.0;"/><line style="stroke:#181818;stroke-width:1.0;stroke-dasharray:2.0,2.0;" x1="47.5" x2="328.5" y1="547.9863" y2="547.9863"/><text fill="#000000" font-family="sans-serif" font-size="13" font-weight="bold" lengthAdjust="spacing" textLength="14" x="59.5" y="542.7236">12</text><text fill="#000000" font-family="sans-serif" font-size="13" lengthAdjust="spacing" textLength="240" x="77.5" y="542.7236">informs insuccess of performing use case</text><polygon fill="#181818" points="1194.5,582.2773,1204.5,586.2773,1194.5,590.2773,1198.5,586.2773" style="stroke:#181818;stroke-width:1.0;"/><line style="stroke:#181818;stroke-width:1.0;" x1="852.5" x2="1200.5" y1="586.2773" y2="586.2773"/><text fill="#000000" font-family="sans-serif" font-size="13" font-weight="bold" lengthAdjust="spacing" textLength="14" x="859.5" y="581.0146">13</text><text fill="#000000" font-family="sans-serif" font-size="13" lengthAdjust="spacing" textLength="113" x="877.5" y="581.0146">authenticatedUser()</text><polygon fill="#181818" points="863.5,613.5684,853.5,617.5684,863.5,621.5684,859.5,617.5684" style="stroke:#181818;stroke-width:1.0;"/><line style="stroke:#181818;stroke-width:1.0;stroke-dasharray:2.0,2.0;" x1="857.5" x2="1210.5" y1="617.5684" y2="617.5684"/><text fill="#000000" font-family="sans-serif" font-size="13" font-weight="bold" lengthAdjust="spacing" textLength="14" x="869.5" y="612.3057">14</text><text fill="#000000" font-family="sans-serif" font-size="13" lengthAdjust="spacing" textLength="25" x="887.5" y="612.3057">user</text><polygon fill="#181818" points="1289,644.8594,1299,648.8594,1289,652.8594,1293,648.8594" style="stroke:#181818;stroke-width:1.0;"/><line style="stroke:#181818;stroke-width:1.0;" x1="852.5" x2="1295" y1="648.8594" y2="648.8594"/><text fill="#000000" font-family="sans-serif" font-size="13" font-weight="bold" lengthAdjust="spacing" textLength="14" x="859.5" y="643.5967">15</text><text fill="#000000" font-family="sans-serif" font-size="13" lengthAdjust="spacing" textLength="80" x="877.5" y="643.5967">hasAny(roles)</text><polygon fill="#181818" points="863.5,676.1504,853.5,680.1504,863.5,684.1504,859.5,680.1504" style="stroke:#181818;stroke-width:1.0;"/><line style="stroke:#181818;stroke-width:1.0;stroke-dasharray:2.0,2.0;" x1="857.5" x2="1305" y1="680.1504" y2="680.1504"/><text fill="#000000" font-family="sans-serif" font-size="13" font-weight="bold" lengthAdjust="spacing" textLength="14" x="869.5" y="674.8877">16</text><text fill="#000000" font-family="sans-serif" font-size="13" lengthAdjust="spacing" textLength="24" x="887.5" y="674.8877">bool</text><path d="M10,695.1504 L71,695.1504 L71,704.4414 L61,714.4414 L10,714.4414 L10,695.1504 " fill="#EEEEEE" style="stroke:#000000;stroke-width:1.5;"/><rect fill="none" height="177.7461" style="stroke:#000000;stroke-width:1.5;" width="919" x="10" y="695.1504"/><text fill="#000000" font-family="sans-serif" font-size="13" font-weight="bold" lengthAdjust="spacing" textLength="16" x="25" y="710.1787">alt</text><text fill="#000000" font-family="sans-serif" font-size="11" font-weight="bold" lengthAdjust="spacing" textLength="238" x="86" y="709.0205">[user role is not present in accepted roles]</text><polygon fill="#181818" points="551.5,733.7324,541.5,737.7324,551.5,741.7324,547.5,737.7324" style="stroke:#181818;stroke-width:1.0;"/><line style="stroke:#181818;stroke-width:1.0;stroke-dasharray:2.0,2.0;" x1="545.5" x2="846.5" y1="737.7324" y2="737.7324"/><text fill="#000000" font-family="sans-serif" font-size="13" font-weight="bold" lengthAdjust="spacing" textLength="14" x="557.5" y="732.4697">17</text><text fill="#000000" font-family="sans-serif" font-size="13" lengthAdjust="spacing" textLength="265" x="575.5" y="732.4697">throw new UnauthorizedException(user, roles)</text><polygon fill="#181818" points="345.5,765.0234,335.5,769.0234,345.5,773.0234,341.5,769.0234" style="stroke:#181818;stroke-width:1.0;"/><line style="stroke:#181818;stroke-width:1.0;stroke-dasharray:2.0,2.0;" x1="339.5" x2="529.5" y1="769.0234" y2="769.0234"/><text fill="#000000" font-family="sans-serif" font-size="13" font-weight="bold" lengthAdjust="spacing" textLength="14" x="351.5" y="763.7607">18</text><text fill="#000000" font-family="sans-serif" font-size="13" lengthAdjust="spacing" textLength="159" x="369.5" y="763.7607">transports exception into UI</text><polygon fill="#181818" points="53.5,860.8965,43.5,864.8965,53.5,868.8965,49.5,864.8965" style="stroke:#181818;stroke-width:1.0;"/><line style="stroke:#181818;stroke-width:1.0;stroke-dasharray:2.0,2.0;" x1="47.5" x2="323.5" y1="864.8965" y2="864.8965"/><text fill="#000000" font-family="sans-serif" font-size="13" font-weight="bold" lengthAdjust="spacing" textLength="14" x="59.5" y="842.3428">19</text><text fill="#000000" font-family="sans-serif" font-size="13" lengthAdjust="spacing" textLength="142" x="77.5" y="825.0518">informs that user doesn't</text><text fill="#000000" font-family="sans-serif" font-size="13" lengthAdjust="spacing" textLength="87" x="77.5" y="842.3428">have access to</text><text fill="#000000" font-family="sans-serif" font-size="13" lengthAdjust="spacing" textLength="78" x="77.5" y="859.6338">this use case</text><polygon fill="#181818" points="48.5,945.415,38.5,949.415,48.5,953.415,44.5,949.415" style="stroke:#181818;stroke-width:1.0;"/><line style="stroke:#181818;stroke-width:1.0;stroke-dasharray:2.0,2.0;" x1="42.5" x2="328.5" y1="949.415" y2="949.415"/><text fill="#000000" font-family="sans-serif" font-size="13" font-weight="bold" lengthAdjust="spacing" textLength="14" x="54.5" y="926.8613">20</text><text fill="#000000" font-family="sans-serif" font-size="13" lengthAdjust="spacing" textLength="82" x="72.5" y="909.5703">asks data and</text><text fill="#000000" font-family="sans-serif" font-size="13" lengthAdjust="spacing" textLength="108" x="72.5" y="926.8613">is ready to perform</text><text fill="#000000" font-family="sans-serif" font-size="13" lengthAdjust="spacing" textLength="53" x="72.5" y="944.1523">use case</text><path d="M339,884.8965 L339,963.8965 L574,963.8965 L574,894.8965 L564,884.8965 L339,884.8965 " fill="#FEFFDD" style="stroke:#181818;stroke-width:0.5;"/><path d="M564,884.8965 L564,894.8965 L574,894.8965 L564,884.8965 " fill="#FEFFDD" style="stroke:#181818;stroke-width:0.5;"/><text fill="#000000" font-family="sans-serif" font-size="13" lengthAdjust="spacing" textLength="167" x="345" y="903.9248">do nothing since user is valid</text><text fill="#000000" font-family="sans-serif" font-size="13" lengthAdjust="spacing" textLength="191" x="345" y="921.2158">UI has by default to accept users</text><text fill="#000000" font-family="sans-serif" font-size="13" lengthAdjust="spacing" textLength="214" x="345" y="938.5068">only if user does not have permission</text><text fill="#000000" font-family="sans-serif" font-size="13" lengthAdjust="spacing" textLength="91" x="345" y="955.7979">throw exception</text><!--SRC=[bLNBJYCn4BpxArfS5j3o0n6BX13ISaA2pIsNPgQJiTQnHsvF87pzTdjUdf0zm04IkwhRNLKssANWk_qRHMEmIY72nPefNW0oT2oBBSPaAzkYJ_2nVihh5cvlsqXCFc6omT_TBM4FmQSOdAEey2f59mHiMsUhS_ZxBZMVBxIpdE9H6P5sGkYITMUG8ThFNEMLui5Mf0JK2aBXVkc4zTmg79qYGviMUphiAp4BGBUv__W5qij1yS4XipIgmnwjpg6YsGCcochDNwmniW0tTwhM2jwrK0hGKjo6kDTQK26JaLt1g4JNruAh8WcTYsLTHESOzYIprwQciidqMQ4cuuMd-gsoAATYNLxD544PHTxCdRAE0xJifD2nUA_r2iXp5qd5-OtyxEbv-n8SyMNKtrSbEvzj-fRvfgzIb1DZuDUelnvp1EY6RCT7n_IdYU6zd47jDEXIDWSiWmkx7TK6v4U9DqM7qLkIGXFUXpHmmFgpjAGzmTCxhBskIUWrnbG_VbIKatMvc5QFf7M60SO4f8YUsn0J0ur4QIcPM3yjSgDSjL-9ag2LW3GoB7-vgoeP0i9s39BrkpbBosYGhq6KCREIWm23pzCSQc6fwQZJ22_5KDdAFYDswZ5VaXKqoFV-E0QYk2W3nCpWiiTR26unouG_rtbsN_kCbWwlasW6MAdQucy-nuarG-vFFTPhKngizN_2rsGFMLu4NHlqT-NRrf_UcVz68JKu35q7OlyZRNo31ygpYffIUUDJOtdEnfI6HJtalmmr9WIK_Ost-lPYVIoUgesVQXXHLju2kslwXDT1jMuqWsnzDL-g0phRtq7vXo4fWBSZrBJ5pkL7i7Saeti_WdT7iDjveknXdaXEiRUzquhiZPfKp6FfgSn9-1VnYUOV]--></g></svg>