<?xml version="1.0" encoding="us-ascii" standalone="no"?><svg xmlns="http://www.w3.org/2000/svg" xmlns:xlink="http://www.w3.org/1999/xlink" contentStyleType="text/css" height="1013px" preserveAspectRatio="none" style="width:1318px;height:1013px;background:#FFFFFF;" version="1.1" viewBox="0 0 1318 1013" width="1318px" zoomAndPan="magnify"><defs/><g><rect fill="#FFFFFF" height="807.1729" style="stroke:#181818;stroke-width:1.0;" width="10" x="32.5" y="93.6211"/><rect fill="#FFFFFF" height="98.2031" style="stroke:#181818;stroke-width:1.0;" width="10" x="324.5" y="93.6211"/><rect fill="#FFFFFF" height="402.7197" style="stroke:#181818;stroke-width:1.0;" width="10" x="324.5" y="498.0742"/><rect fill="#FFFFFF" height="93.873" style="stroke:#181818;stroke-width:1.0;" width="10" x="535.5" y="191.8242"/><rect fill="#FFFFFF" height="31.291" style="stroke:#181818;stroke-width:1.0;" width="10" x="535.5" y="719.1113"/><rect fill="#FFFFFF" height="433.4141" style="stroke:#181818;stroke-width:1.0;" width="10" x="847.5" y="285.6973"/><rect fill="#FFFFFF" height="31.291" style="stroke:#181818;stroke-width:1.0;" width="10" x="1007.5" y="567.6563"/><rect fill="#FFFFFF" height="31.291" style="stroke:#181818;stroke-width:1.0;" width="10" x="1118.5" y="223.1152"/><rect fill="#FFFFFF" height="105.5039" style="stroke:#181818;stroke-width:1.0;" width="10" x="1212.5" y="361.2793"/><rect fill="#FFFFFF" height="31.291" style="stroke:#181818;stroke-width:1.0;" width="10" x="1281.5" y="630.2383"/><rect fill="none" height="161.0859" style="stroke:#000000;stroke-width:1.5;" width="1251" x="10" y="376.2793"/><rect fill="none" height="147.7461" style="stroke:#000000;stroke-width:1.5;" width="928" x="10" y="676.5293"/><line style="stroke:#181818;stroke-width:0.5;stroke-dasharray:5.0,5.0;" x1="37" x2="37" y1="83.6211" y2="930.4395"/><line style="stroke:#181818;stroke-width:0.5;stroke-dasharray:5.0,5.0;" x1="329.5" x2="329.5" y1="83.6211" y2="930.4395"/><line style="stroke:#181818;stroke-width:0.5;stroke-dasharray:5.0,5.0;" x1="540.5" x2="540.5" y1="156.7227" y2="930.4395"/><line style="stroke:#181818;stroke-width:0.5;stroke-dasharray:5.0,5.0;" x1="852" x2="852" y1="83.6211" y2="930.4395"/><line style="stroke:#181818;stroke-width:0.5;stroke-dasharray:5.0,5.0;" x1="1012" x2="1012" y1="83.6211" y2="930.4395"/><line style="stroke:#181818;stroke-width:0.5;stroke-dasharray:5.0,5.0;" x1="1123" x2="1123" y1="83.6211" y2="930.4395"/><line style="stroke:#181818;stroke-width:0.5;stroke-dasharray:5.0,5.0;" x1="1217" x2="1217" y1="83.6211" y2="930.4395"/><line style="stroke:#181818;stroke-width:0.5;stroke-dasharray:5.0,5.0;" x1="1286" x2="1286" y1="83.6211" y2="930.4395"/><text fill="#000000" font-family="sans-serif" font-size="14" lengthAdjust="spacing" textLength="29" x="20" y="80.1074">User</text><ellipse cx="37.5" cy="13.5" fill="#E2E2F0" rx="8" ry="8" style="stroke:#181818;stroke-width:0.5;"/><path d="M37.5,21.5 L37.5,48.5 M24.5,29.5 L50.5,29.5 M37.5,48.5 L24.5,63.5 M37.5,48.5 L50.5,63.5 " fill="none" style="stroke:#181818;stroke-width:0.5;"/><text fill="#000000" font-family="sans-serif" font-size="14" lengthAdjust="spacing" textLength="29" x="20" y="944.5469">User</text><ellipse cx="37.5" cy="956.5605" fill="#E2E2F0" rx="8" ry="8" style="stroke:#181818;stroke-width:0.5;"/><path d="M37.5,964.5605 L37.5,991.5605 M24.5,972.5605 L50.5,972.5605 M37.5,991.5605 L24.5,1006.5605 M37.5,991.5605 L50.5,1006.5605 " fill="none" style="stroke:#181818;stroke-width:0.5;"/><rect fill="#E2E2F0" height="32.6211" rx="2.5" ry="2.5" style="stroke:#181818;stroke-width:0.5;" width="40" x="309.5" y="50"/><text fill="#000000" font-family="sans-serif" font-size="14" lengthAdjust="spacing" textLength="26" x="316.5" y="72.1074">: xUI</text><rect fill="#E2E2F0" height="32.6211" rx="2.5" ry="2.5" style="stroke:#181818;stroke-width:0.5;" width="40" x="309.5" y="929.4395"/><text fill="#000000" font-family="sans-serif" font-size="14" lengthAdjust="spacing" textLength="26" x="316.5" y="951.5469">: xUI</text><rect fill="#E2E2F0" height="32.6211" rx="2.5" ry="2.5" style="stroke:#181818;stroke-width:0.5;" width="90" x="495.5" y="929.4395"/><text fill="#000000" font-family="sans-serif" font-size="14" lengthAdjust="spacing" textLength="76" x="502.5" y="951.5469">: xController</text><rect fill="#E2E2F0" height="32.6211" rx="2.5" ry="2.5" style="stroke:#181818;stroke-width:0.5;" width="151" x="777" y="50"/><text fill="#000000" font-family="sans-serif" font-size="14" lengthAdjust="spacing" textLength="137" x="784" y="72.1074">: AuthorizationService</text><rect fill="#E2E2F0" height="32.6211" rx="2.5" ry="2.5" style="stroke:#181818;stroke-width:0.5;" width="151" x="777" y="929.4395"/><text fill="#000000" font-family="sans-serif" font-size="14" lengthAdjust="spacing" textLength="137" x="784" y="951.5469">: AuthorizationService</text><rect fill="#E2E2F0" height="32.6211" rx="2.5" ry="2.5" style="stroke:#181818;stroke-width:0.5;" width="101" x="962" y="50"/><text fill="#000000" font-family="sans-serif" font-size="14" lengthAdjust="spacing" textLength="87" x="969" y="72.1074">: UserSession</text><rect fill="#E2E2F0" height="32.6211" rx="2.5" ry="2.5" style="stroke:#181818;stroke-width:0.5;" width="101" x="962" y="929.4395"/><text fill="#000000" font-family="sans-serif" font-size="14" lengthAdjust="spacing" textLength="87" x="969" y="951.5469">: UserSession</text><rect fill="#E2E2F0" height="32.6211" rx="2.5" ry="2.5" style="stroke:#181818;stroke-width:0.5;" width="101" x="1073" y="50"/><text fill="#000000" font-family="sans-serif" font-size="14" lengthAdjust="spacing" textLength="87" x="1080" y="72.1074">AuthzRegistry</text><rect fill="#E2E2F0" height="32.6211" rx="2.5" ry="2.5" style="stroke:#181818;stroke-width:0.5;" width="101" x="1073" y="929.4395"/><text fill="#000000" font-family="sans-serif" font-size="14" lengthAdjust="spacing" textLength="87" x="1080" y="951.5469">AuthzRegistry</text><rect fill="#E2E2F0" height="32.6211" rx="2.5" ry="2.5" style="stroke:#181818;stroke-width:0.5;" width="67" x="1184" y="50"/><text fill="#000000" font-family="sans-serif" font-size="14" lengthAdjust="spacing" textLength="53" x="1191" y="72.1074">Optional</text><rect fill="#E2E2F0" height="32.6211" rx="2.5" ry="2.5" style="stroke:#181818;stroke-width:0.5;" width="67" x="1184" y="929.4395"/><text fill="#000000" font-family="sans-serif" font-size="14" lengthAdjust="spacing" textLength="53" x="1191" y="951.5469">Optional</text><rect fill="#E2E2F0" height="32.6211" rx="2.5" ry="2.5" style="stroke:#181818;stroke-width:0.5;" width="51" x="1261" y="50"/><text fill="#000000" font-family="sans-serif" font-size="14" lengthAdjust="spacing" textLength="37" x="1268" y="72.1074">: User</text><rect fill="#E2E2F0" height="32.6211" rx="2.5" ry="2.5" style="stroke:#181818;stroke-width:0.5;" width="51" x="1261" y="929.4395"/><text fill="#000000" font-family="sans-serif" font-size="14" lengthAdjust="spacing" textLength="37" x="1268" y="951.5469">: User</text><rect fill="#FFFFFF" height="807.1729" style="stroke:#181818;stroke-width:1.0;" width="10" x="32.5" y="93.6211"/><rect fill="#FFFFFF" height="98.2031" style="stroke:#181818;stroke-width:1.0;" width="10" x="324.5" y="93.6211"/><rect fill="#FFFFFF" height="402.7197" style="stroke:#181818;stroke-width:1.0;" width="10" x="324.5" y="498.0742"/><rect fill="#FFFFFF" height="93.873" style="stroke:#181818;stroke-width:1.0;" width="10" x="535.5" y="191.8242"/><rect fill="#FFFFFF" height="31.291" style="stroke:#181818;stroke-width:1.0;" width="10" x="535.5" y="719.1113"/><rect fill="#FFFFFF" height="433.4141" style="stroke:#181818;stroke-width:1.0;" width="10" x="847.5" y="285.6973"/><rect fill="#FFFFFF" height="31.291" style="stroke:#181818;stroke-width:1.0;" width="10" x="1007.5" y="567.6563"/><rect fill="#FFFFFF" height="31.291" style="stroke:#181818;stroke-width:1.0;" width="10" x="1118.5" y="223.1152"/><rect fill="#FFFFFF" height="105.5039" style="stroke:#181818;stroke-width:1.0;" width="10" x="1212.5" y="361.2793"/><rect fill="#FFFFFF" height="31.291" style="stroke:#181818;stroke-width:1.0;" width="10" x="1281.5" y="630.2383"/><polygon fill="#181818" points="312.5,112.9121,322.5,116.9121,312.5,120.9121,316.5,116.9121" style="stroke:#181818;stroke-width:1.0;"/><line style="stroke:#181818;stroke-width:1.0;" x1="42.5" x2="318.5" y1="116.9121" y2="116.9121"/><text fill="#000000" font-family="sans-serif" font-size="13" font-weight="bold" lengthAdjust="spacing" textLength="7" x="49.5" y="111.6494">1</text><text fill="#000000" font-family="sans-serif" font-size="13" lengthAdjust="spacing" textLength="146" x="60.5" y="111.6494">want to perform use case</text><polygon fill="#181818" points="483.5,144.2031,493.5,148.2031,483.5,152.2031,487.5,148.2031" style="stroke:#181818;stroke-width:1.0;"/><line style="stroke:#181818;stroke-width:1.0;" x1="334.5" x2="489.5" y1="148.2031" y2="148.2031"/><text fill="#000000" font-family="sans-serif" font-size="13" font-weight="bold" lengthAdjust="spacing" textLength="7" x="341.5" y="142.9404">2</text><text fill="#000000" font-family="sans-serif" font-size="13" lengthAdjust="spacing" textLength="43" x="352.5" y="142.9404">creates</text><rect fill="#E2E2F0" height="32.6211" rx="2.5" ry="2.5" style="stroke:#181818;stroke-width:0.5;" width="90" x="495.5" y="124.9121"/><text fill="#000000" font-family="sans-serif" font-size="14" lengthAdjust="spacing" textLength="76" x="502.5" y="147.0195">: xController</text><polygon fill="#181818" points="523.5,187.8242,533.5,191.8242,523.5,195.8242,527.5,191.8242" style="stroke:#181818;stroke-width:1.0;"/><line style="stroke:#181818;stroke-width:1.0;" x1="329.5" x2="529.5" y1="191.8242" y2="191.8242"/><text fill="#000000" font-family="sans-serif" font-size="13" font-weight="bold" lengthAdjust="spacing" textLength="7" x="336.5" y="186.5615">3</text><text fill="#000000" font-family="sans-serif" font-size="13" lengthAdjust="spacing" textLength="74" x="347.5" y="186.5615">calls method</text><polygon fill="#181818" points="1106.5,219.1152,1116.5,223.1152,1106.5,227.1152,1110.5,223.1152" style="stroke:#181818;stroke-width:1.0;"/><line style="stroke:#181818;stroke-width:1.0;" x1="545.5" x2="1112.5" y1="223.1152" y2="223.1152"/><text fill="#000000" font-family="sans-serif" font-size="13" font-weight="bold" lengthAdjust="spacing" textLength="7" x="552.5" y="217.8525">4</text><text fill="#000000" font-family="sans-serif" font-size="13" lengthAdjust="spacing" textLength="124" x="563.5" y="217.8525">authorizationService()</text><polygon fill="#181818" points="556.5,250.4063,546.5,254.4063,556.5,258.4063,552.5,254.4063" style="stroke:#181818;stroke-width:1.0;"/><line style="stroke:#181818;stroke-width:1.0;stroke-dasharray:2.0,2.0;" x1="550.5" x2="1122.5" y1="254.4063" y2="254.4063"/><text fill="#000000" font-family="sans-serif" font-size="13" font-weight="bold" lengthAdjust="spacing" textLength="7" x="562.5" y="249.1436">5</text><text fill="#000000" font-family="sans-serif" font-size="13" lengthAdjust="spacing" textLength="74" x="573.5" y="249.1436">authzService</text><polygon fill="#181818" points="835.5,281.6973,845.5,285.6973,835.5,289.6973,839.5,285.6973" style="stroke:#181818;stroke-width:1.0;"/><line style="stroke:#181818;stroke-width:1.0;" x1="540.5" x2="841.5" y1="285.6973" y2="285.6973"/><text fill="#000000" font-family="sans-serif" font-size="13" font-weight="bold" lengthAdjust="spacing" textLength="7" x="547.5" y="280.4346">6</text><text fill="#000000" font-family="sans-serif" font-size="13" lengthAdjust="spacing" textLength="195" x="558.5" y="280.4346">ensureUserHasOneOfRoles(roles)</text><line style="stroke:#181818;stroke-width:1.0;" x1="857.5" x2="899.5" y1="316.9883" y2="316.9883"/><line style="stroke:#181818;stroke-width:1.0;" x1="899.5" x2="899.5" y1="316.9883" y2="329.9883"/><line style="stroke:#181818;stroke-width:1.0;" x1="858.5" x2="899.5" y1="329.9883" y2="329.9883"/><polygon fill="#181818" points="868.5,325.9883,858.5,329.9883,868.5,333.9883,864.5,329.9883" style="stroke:#181818;stroke-width:1.0;"/><text fill="#000000" font-family="sans-serif" font-size="13" font-weight="bold" lengthAdjust="spacing" textLength="7" x="864.5" y="311.7256">7</text><text fill="#000000" font-family="sans-serif" font-size="13" lengthAdjust="spacing" textLength="87" x="875.5" y="311.7256">opt = session()</text><polygon fill="#181818" points="1200.5,357.2793,1210.5,361.2793,1200.5,365.2793,1204.5,361.2793" style="stroke:#181818;stroke-width:1.0;"/><line style="stroke:#181818;stroke-width:1.0;" x1="857.5" x2="1206.5" y1="361.2793" y2="361.2793"/><text fill="#000000" font-family="sans-serif" font-size="13" font-weight="bold" lengthAdjust="spacing" textLength="7" x="864.5" y="356.0166">8</text><text fill="#000000" font-family="sans-serif" font-size="13" lengthAdjust="spacing" textLength="79" x="875.5" y="356.0166">orElseThrow()</text><path d="M10,376.2793 L71,376.2793 L71,385.5703 L61,395.5703 L10,395.5703 L10,376.2793 " fill="#EEEEEE" style="stroke:#000000;stroke-width:1.5;"/><rect fill="none" height="161.0859" style="stroke:#000000;stroke-width:1.5;" width="1251" x="10" y="376.2793"/><text fill="#000000" font-family="sans-serif" font-size="13" font-weight="bold" lengthAdjust="spacing" textLength="16" x="25" y="391.3076">alt</text><text fill="#000000" font-family="sans-serif" font-size="11" font-weight="bold" lengthAdjust="spacing" textLength="88" x="86" y="390.1494">[user is logged]</text><polygon fill="#181818" points="868.5,414.8613,858.5,418.8613,868.5,422.8613,864.5,418.8613" style="stroke:#181818;stroke-width:1.0;"/><line style="stroke:#181818;stroke-width:1.0;stroke-dasharray:2.0,2.0;" x1="862.5" x2="1211.5" y1="418.8613" y2="418.8613"/><text fill="#000000" font-family="sans-serif" font-size="13" font-weight="bold" lengthAdjust="spacing" textLength="7" x="874.5" y="413.5986">9</text><text fill="#000000" font-family="sans-serif" font-size="13" lengthAdjust="spacing" textLength="45" x="885.5" y="413.5986">session</text><line style="stroke:#000000;stroke-width:1.0;stroke-dasharray:2.0,2.0;" x1="10" x2="1261" y1="427.8613" y2="427.8613"/><text fill="#000000" font-family="sans-serif" font-size="11" font-weight="bold" lengthAdjust="spacing" textLength="122" x="15" y="439.7314">[user is not logged in]</text><polygon fill="#181818" points="868.5,462.7832,858.5,466.7832,868.5,470.7832,864.5,466.7832" style="stroke:#181818;stroke-width:1.0;"/><line style="stroke:#181818;stroke-width:1.0;stroke-dasharray:2.0,2.0;" x1="862.5" x2="1216.5" y1="466.7832" y2="466.7832"/><text fill="#000000" font-family="sans-serif" font-size="13" font-weight="bold" lengthAdjust="spacing" textLength="14" x="874.5" y="461.5205">10</text><text fill="#000000" font-family="sans-serif" font-size="13" lengthAdjust="spacing" textLength="222" x="892.5" y="461.5205">throw new UnauthenticatedException()</text><polygon fill="#181818" points="345.5,494.0742,335.5,498.0742,345.5,502.0742,341.5,498.0742" style="stroke:#181818;stroke-width:1.0;"/><line style="stroke:#181818;stroke-width:1.0;stroke-dasharray:2.0,2.0;" x1="339.5" x2="846.5" y1="498.0742" y2="498.0742"/><text fill="#000000" font-family="sans-serif" font-size="13" font-weight="bold" lengthAdjust="spacing" textLength="14" x="351.5" y="492.8115">11</text><text fill="#000000" font-family="sans-serif" font-size="13" lengthAdjust="spacing" textLength="159" x="369.5" y="492.8115">transports exception into UI</text><polygon fill="#181818" points="53.5,525.3652,43.5,529.3652,53.5,533.3652,49.5,529.3652" style="stroke:#181818;stroke-width:1.0;"/><line style="stroke:#181818;stroke-width:1.0;stroke-dasharray:2.0,2.0;" x1="47.5" x2="323.5" y1="529.3652" y2="529.3652"/><text fill="#000000" font-family="sans-serif" font-size="13" font-weight="bold" lengthAdjust="spacing" textLength="14" x="59.5" y="524.1025">12</text><text fill="#000000" font-family="sans-serif" font-size="13" lengthAdjust="spacing" textLength="240" x="77.5" y="524.1025">informs insuccess of performing use case</text><polygon fill="#181818" points="995.5,563.6563,1005.5,567.6563,995.5,571.6563,999.5,567.6563" style="stroke:#181818;stroke-width:1.0;"/><line style="stroke:#181818;stroke-width:1.0;" x1="857.5" x2="1001.5" y1="567.6563" y2="567.6563"/><text fill="#000000" font-family="sans-serif" font-size="13" font-weight="bold" lengthAdjust="spacing" textLength="14" x="864.5" y="562.3936">13</text><text fill="#000000" font-family="sans-serif" font-size="13" lengthAdjust="spacing" textLength="113" x="882.5" y="562.3936">authenticatedUser()</text><polygon fill="#181818" points="868.5,594.9473,858.5,598.9473,868.5,602.9473,864.5,598.9473" style="stroke:#181818;stroke-width:1.0;"/><line style="stroke:#181818;stroke-width:1.0;stroke-dasharray:2.0,2.0;" x1="862.5" x2="1011.5" y1="598.9473" y2="598.9473"/><text fill="#000000" font-family="sans-serif" font-size="13" font-weight="bold" lengthAdjust="spacing" textLength="14" x="874.5" y="593.6846">14</text><text fill="#000000" font-family="sans-serif" font-size="13" lengthAdjust="spacing" textLength="25" x="892.5" y="593.6846">user</text><polygon fill="#181818" points="1269.5,626.2383,1279.5,630.2383,1269.5,634.2383,1273.5,630.2383" style="stroke:#181818;stroke-width:1.0;"/><line style="stroke:#181818;stroke-width:1.0;" x1="857.5" x2="1275.5" y1="630.2383" y2="630.2383"/><text fill="#000000" font-family="sans-serif" font-size="13" font-weight="bold" lengthAdjust="spacing" textLength="14" x="864.5" y="624.9756">15</text><text fill="#000000" font-family="sans-serif" font-size="13" lengthAdjust="spacing" textLength="80" x="882.5" y="624.9756">hasAny(roles)</text><polygon fill="#181818" points="868.5,657.5293,858.5,661.5293,868.5,665.5293,864.5,661.5293" style="stroke:#181818;stroke-width:1.0;"/><line style="stroke:#181818;stroke-width:1.0;stroke-dasharray:2.0,2.0;" x1="862.5" x2="1285.5" y1="661.5293" y2="661.5293"/><text fill="#000000" font-family="sans-serif" font-size="13" font-weight="bold" lengthAdjust="spacing" textLength="14" x="874.5" y="656.2666">16</text><text fill="#000000" font-family="sans-serif" font-size="13" lengthAdjust="spacing" textLength="24" x="892.5" y="656.2666">bool</text><path d="M10,676.5293 L71,676.5293 L71,685.8203 L61,695.8203 L10,695.8203 L10,676.5293 " fill="#EEEEEE" style="stroke:#000000;stroke-width:1.5;"/><rect fill="none" height="147.7461" style="stroke:#000000;stroke-width:1.5;" width="928" x="10" y="676.5293"/><text fill="#000000" font-family="sans-serif" font-size="13" font-weight="bold" lengthAdjust="spacing" textLength="16" x="25" y="691.5576">alt</text><text fill="#000000" font-family="sans-serif" font-size="11" font-weight="bold" lengthAdjust="spacing" textLength="238" x="86" y="690.3994">[user role is not present in accepted roles]</text><polygon fill="#181818" points="556.5,715.1113,546.5,719.1113,556.5,723.1113,552.5,719.1113" style="stroke:#181818;stroke-width:1.0;"/><line style="stroke:#181818;stroke-width:1.0;stroke-dasharray:2.0,2.0;" x1="550.5" x2="851.5" y1="719.1113" y2="719.1113"/><text fill="#000000" font-family="sans-serif" font-size="13" font-weight="bold" lengthAdjust="spacing" textLength="14" x="562.5" y="713.8486">17</text><text fill="#000000" font-family="sans-serif" font-size="13" lengthAdjust="spacing" textLength="265" x="580.5" y="713.8486">throw new UnauthorizedException(user, roles)</text><polygon fill="#181818" points="345.5,746.4023,335.5,750.4023,345.5,754.4023,341.5,750.4023" style="stroke:#181818;stroke-width:1.0;"/><line style="stroke:#181818;stroke-width:1.0;stroke-dasharray:2.0,2.0;" x1="339.5" x2="539.5" y1="750.4023" y2="750.4023"/><text fill="#000000" font-family="sans-serif" font-size="13" font-weight="bold" lengthAdjust="spacing" textLength="14" x="351.5" y="745.1396">18</text><text fill="#000000" font-family="sans-serif" font-size="13" lengthAdjust="spacing" textLength="159" x="369.5" y="745.1396">transports exception into UI</text><polygon fill="#181818" points="53.5,812.2754,43.5,816.2754,53.5,820.2754,49.5,816.2754" style="stroke:#181818;stroke-width:1.0;"/><line style="stroke:#181818;stroke-width:1.0;stroke-dasharray:2.0,2.0;" x1="47.5" x2="323.5" y1="816.2754" y2="816.2754"/><text fill="#000000" font-family="sans-serif" font-size="13" font-weight="bold" lengthAdjust="spacing" textLength="14" x="59.5" y="793.7217">19</text><text fill="#000000" font-family="sans-serif" font-size="13" lengthAdjust="spacing" textLength="142" x="77.5" y="776.4307">informs that user doesn't</text><text fill="#000000" font-family="sans-serif" font-size="13" lengthAdjust="spacing" textLength="87" x="77.5" y="793.7217">have access to</text><text fill="#000000" font-family="sans-serif" font-size="13" lengthAdjust="spacing" textLength="78" x="77.5" y="811.0127">this use case</text><polygon fill="#181818" points="48.5,896.7939,38.5,900.7939,48.5,904.7939,44.5,900.7939" style="stroke:#181818;stroke-width:1.0;"/><line style="stroke:#181818;stroke-width:1.0;stroke-dasharray:2.0,2.0;" x1="42.5" x2="328.5" y1="900.7939" y2="900.7939"/><text fill="#000000" font-family="sans-serif" font-size="13" font-weight="bold" lengthAdjust="spacing" textLength="14" x="54.5" y="878.2402">20</text><text fill="#000000" font-family="sans-serif" font-size="13" lengthAdjust="spacing" textLength="82" x="72.5" y="860.9492">asks data and</text><text fill="#000000" font-family="sans-serif" font-size="13" lengthAdjust="spacing" textLength="108" x="72.5" y="878.2402">is ready to perform</text><text fill="#000000" font-family="sans-serif" font-size="13" lengthAdjust="spacing" textLength="53" x="72.5" y="895.5313">use case</text><path d="M339,836.2754 L339,915.2754 L574,915.2754 L574,846.2754 L564,836.2754 L339,836.2754 " fill="#FEFFDD" style="stroke:#181818;stroke-width:0.5;"/><path d="M564,836.2754 L564,846.2754 L574,846.2754 L564,836.2754 " fill="#FEFFDD" style="stroke:#181818;stroke-width:0.5;"/><text fill="#000000" font-family="sans-serif" font-size="13" lengthAdjust="spacing" textLength="167" x="345" y="855.3037">do nothing since user is valid</text><text fill="#000000" font-family="sans-serif" font-size="13" lengthAdjust="spacing" textLength="191" x="345" y="872.5947">UI has by default to accept users</text><text fill="#000000" font-family="sans-serif" font-size="13" lengthAdjust="spacing" textLength="214" x="345" y="889.8857">only if user does not have permission</text><text fill="#000000" font-family="sans-serif" font-size="13" lengthAdjust="spacing" textLength="91" x="345" y="907.1768">throw exception</text><!--SRC=[ZLJBRjim4BphAnQvD0cQ7p3G0a4Ge3u5IEgRBnjfRH6bIO5BsN6-lhkKA56E2zG7MoPdNpEpmZvwrn_UALGLrj47kDamXHj0XfxbiCCGJMqwT15kLl2nMGztvilDatSnU6l7w3e6Uubvx6FhW_d4QBnxet0qDIKmoiNd9LeRUIDcmIOG3yzBcARyVAMzuHZE2HPeluIyT5eERRhrNRnMPnoOmfD5viI5EMAaHCBynrIL7C33Jtc45PmqG_JGKTZvSD04K2DJ9RU2KGhkxmLN1v9mBexr4ArbE91GqbGDbKMcvqHYmakS32PXU8N3sxivHCTNvCDSAR4xGijA2it94qQmvBWFf9JyGdvnzB9xzPRuDkZtNHcTUfl-3GeEMOfqGZVyoCffcncW5t8TdYtJxpRuKpc3YbIXZKaHC0pMx_VKL20V3NmeAcHNa2IQyCx7CGQCkneMjIOuEi76wHaviOJKRfu_Qag6kLrCgorfdd60x80Oq77dGsIW72WbnHERzS8t6gloQw0uQ2KWjGpBB_TrBKE0tsKZ6RUVlKIk0U6YchaRHnwLdJfNqKeMCpCPNewlH9NZPUnKOze50RV8Z-wSBL2iHbwN6LpMUFVUBemzhzULohFUMYUBs0LY6L1O0goLNr4qzN4XnkZqIrLrKKf9DVzt-EhbqRqBQsk1OJl-I-pBpVYduB75ST364xjlSUjQF5AQJnYKR5iNMyDN7B38X_o7eS68W7A_TKPVVTYSYnVIraqvAc5JDjxisy77ZLT-MtKQ6rVFgtD4QuPDswnLUNW_GqCxx6rwrGqg9FIWWNVs36OtJvHqInD95mSpgAl8GPo9kJIMTbLTlFqMbWdLNm00]--></g></svg>