<?xml version="1.0" encoding="us-ascii" standalone="no"?><svg xmlns="http://www.w3.org/2000/svg" xmlns:xlink="http://www.w3.org/1999/xlink" contentStyleType="text/css" height="1177px" preserveAspectRatio="none" style="width:2334px;height:1177px;background:#FFFFFF;" version="1.1" viewBox="0 0 2334 1177" width="2334px" zoomAndPan="magnify"><defs/><g><rect fill="#FFFFFF" height="938.7305" style="stroke:#181818;stroke-width:1.0;" width="10" x="344.5" y="121.5332"/><rect fill="#FFFFFF" height="782.2754" style="stroke:#181818;stroke-width:1.0;" width="10" x="737.5" y="246.6973"/><rect fill="#FFFFFF" height="500.6563" style="stroke:#181818;stroke-width:1.0;" width="10" x="1193.5" y="497.0254"/><rect fill="#FFFFFF" height="62.582" style="stroke:#181818;stroke-width:1.0;" width="10" x="1367.5" y="340.5703"/><rect fill="#FFFFFF" height="31.291" style="stroke:#181818;stroke-width:1.0;" width="10" x="1499.5" y="434.4434"/><rect fill="#FFFFFF" height="93.873" style="stroke:#181818;stroke-width:1.0;" width="10" x="1602" y="778.6445"/><rect fill="#FFFFFF" height="31.291" style="stroke:#181818;stroke-width:1.0;" width="10" x="1882" y="809.9355"/><rect fill="#FFFFFF" height="62.582" style="stroke:#181818;stroke-width:1.0;" width="10" x="2002" y="559.6074"/><rect fill="#FFFFFF" height="62.582" style="stroke:#181818;stroke-width:1.0;" width="10" x="2145" y="653.4805"/><rect fill="#FFFFFF" height="31.291" style="stroke:#181818;stroke-width:1.0;" width="10" x="2274" y="935.0996"/><line style="stroke:#181818;stroke-width:0.5;stroke-dasharray:5.0,5.0;" x1="34" x2="34" y1="88.2422" y2="1078.2637"/><line style="stroke:#181818;stroke-width:0.5;stroke-dasharray:5.0,5.0;" x1="349" x2="349" y1="88.2422" y2="1078.2637"/><line style="stroke:#181818;stroke-width:0.5;stroke-dasharray:5.0,5.0;" x1="742" x2="742" y1="88.2422" y2="1078.2637"/><line style="stroke:#181818;stroke-width:0.5;stroke-dasharray:5.0,5.0;" x1="1198" x2="1198" y1="88.2422" y2="1078.2637"/><line style="stroke:#181818;stroke-width:0.5;stroke-dasharray:5.0,5.0;" x1="1372" x2="1372" y1="88.2422" y2="1078.2637"/><line style="stroke:#181818;stroke-width:0.5;stroke-dasharray:5.0,5.0;" x1="1504" x2="1504" y1="88.2422" y2="1078.2637"/><line style="stroke:#181818;stroke-width:0.5;stroke-dasharray:5.0,5.0;" x1="1607" x2="1607" y1="88.2422" y2="1078.2637"/><line style="stroke:#181818;stroke-width:0.5;stroke-dasharray:5.0,5.0;" x1="1887" x2="1887" y1="88.2422" y2="1078.2637"/><line style="stroke:#181818;stroke-width:0.5;stroke-dasharray:5.0,5.0;" x1="2007" x2="2007" y1="88.2422" y2="1078.2637"/><line style="stroke:#181818;stroke-width:0.5;stroke-dasharray:5.0,5.0;" x1="2150" x2="2150" y1="88.2422" y2="1078.2637"/><line style="stroke:#181818;stroke-width:0.5;stroke-dasharray:5.0,5.0;" x1="2279" x2="2279" y1="88.2422" y2="1078.2637"/><text fill="#000000" font-family="FG Virgil" font-size="14" lengthAdjust="spacing" textLength="53" x="5" y="84.7285">Teacher</text><ellipse cx="34.5" cy="18.1211" fill="#E3E3E3" rx="8" ry="8" style="stroke:#181818;stroke-width:0.5;"/><path d="M34.5,26.1211 L34.5,53.1211 M21.5,34.1211 L47.5,34.1211 M34.5,53.1211 L21.5,68.1211 M34.5,53.1211 L47.5,68.1211 " fill="none" style="stroke:#181818;stroke-width:0.5;"/><text fill="#000000" font-family="FG Virgil" font-size="14" lengthAdjust="spacing" textLength="53" x="5" y="1092.3711">Teacher</text><ellipse cx="34.5" cy="1104.3848" fill="#E3E3E3" rx="8" ry="8" style="stroke:#181818;stroke-width:0.5;"/><path d="M34.5,1112.3848 L34.5,1139.3848 M21.5,1120.3848 L47.5,1120.3848 M34.5,1139.3848 L21.5,1154.3848 M34.5,1139.3848 L47.5,1154.3848 " fill="none" style="stroke:#181818;stroke-width:0.5;"/><rect fill="#E3E3E3" height="51.2422" rx="2.5" ry="2.5" style="stroke:#181818;stroke-width:0.5;" width="109" x="295" y="36"/><text fill="#000000" font-family="FG Virgil" font-size="14" font-style="italic" lengthAdjust="spacing" textLength="95" x="302" y="58.1074">&#171;presentation&#187;</text><text fill="#000000" font-family="FG Virgil" font-size="14" lengthAdjust="spacing" textLength="89" x="305" y="76.7285">CreateExamUI</text><rect fill="#E3E3E3" height="51.2422" rx="2.5" ry="2.5" style="stroke:#181818;stroke-width:0.5;" width="109" x="295" y="1077.2637"/><text fill="#000000" font-family="FG Virgil" font-size="14" font-style="italic" lengthAdjust="spacing" textLength="95" x="302" y="1099.3711">&#171;presentation&#187;</text><text fill="#000000" font-family="FG Virgil" font-size="14" lengthAdjust="spacing" textLength="89" x="305" y="1117.9922">CreateExamUI</text><rect fill="#E3E3E3" height="51.2422" rx="2.5" ry="2.5" style="stroke:#181818;stroke-width:0.5;" width="153" x="666" y="36"/><text fill="#000000" font-family="FG Virgil" font-size="14" font-style="italic" lengthAdjust="spacing" textLength="84" x="700.5" y="58.1074">&#171;application&#187;</text><text fill="#000000" font-family="FG Virgil" font-size="14" lengthAdjust="spacing" textLength="139" x="673" y="76.7285">CreateExamController</text><rect fill="#E3E3E3" height="51.2422" rx="2.5" ry="2.5" style="stroke:#181818;stroke-width:0.5;" width="153" x="666" y="1077.2637"/><text fill="#000000" font-family="FG Virgil" font-size="14" font-style="italic" lengthAdjust="spacing" textLength="84" x="700.5" y="1099.3711">&#171;application&#187;</text><text fill="#000000" font-family="FG Virgil" font-size="14" lengthAdjust="spacing" textLength="139" x="673" y="1117.9922">CreateExamController</text><rect fill="#E3E3E3" height="51.2422" rx="2.5" ry="2.5" style="stroke:#181818;stroke-width:0.5;" width="177" x="1110" y="36"/><text fill="#000000" font-family="FG Virgil" font-size="14" font-style="italic" lengthAdjust="spacing" textLength="60" x="1168.5" y="58.1074">&#171;service&#187;</text><text fill="#000000" font-family="FG Virgil" font-size="14" lengthAdjust="spacing" textLength="163" x="1117" y="76.7285">ExamManagementService</text><rect fill="#E3E3E3" height="51.2422" rx="2.5" ry="2.5" style="stroke:#181818;stroke-width:0.5;" width="177" x="1110" y="1077.2637"/><text fill="#000000" font-family="FG Virgil" font-size="14" font-style="italic" lengthAdjust="spacing" textLength="60" x="1168.5" y="1099.3711">&#171;service&#187;</text><text fill="#000000" font-family="FG Virgil" font-size="14" lengthAdjust="spacing" textLength="163" x="1117" y="1117.9922">ExamManagementService</text><rect fill="#E3E3E3" height="51.2422" rx="2.5" ry="2.5" style="stroke:#181818;stroke-width:0.5;" width="151" x="1297" y="36"/><text fill="#000000" font-family="FG Virgil" font-size="14" font-style="italic" lengthAdjust="spacing" textLength="60" x="1342.5" y="58.1074">&#171;service&#187;</text><text fill="#000000" font-family="FG Virgil" font-size="14" lengthAdjust="spacing" textLength="137" x="1304" y="76.7285">AuthenticationService</text><rect fill="#E3E3E3" height="51.2422" rx="2.5" ry="2.5" style="stroke:#181818;stroke-width:0.5;" width="151" x="1297" y="1077.2637"/><text fill="#000000" font-family="FG Virgil" font-size="14" font-style="italic" lengthAdjust="spacing" textLength="60" x="1342.5" y="1099.3711">&#171;service&#187;</text><text fill="#000000" font-family="FG Virgil" font-size="14" lengthAdjust="spacing" textLength="137" x="1304" y="1117.9922">AuthenticationService</text><rect fill="#E3E3E3" height="51.2422" rx="2.5" ry="2.5" style="stroke:#181818;stroke-width:0.5;" width="93" x="1458" y="36"/><text fill="#000000" font-family="FG Virgil" font-size="14" font-style="italic" lengthAdjust="spacing" textLength="64" x="1472.5" y="58.1074">&#171;session&#187;</text><text fill="#000000" font-family="FG Virgil" font-size="14" lengthAdjust="spacing" textLength="79" x="1465" y="76.7285">UserSession</text><rect fill="#E3E3E3" height="51.2422" rx="2.5" ry="2.5" style="stroke:#181818;stroke-width:0.5;" width="93" x="1458" y="1077.2637"/><text fill="#000000" font-family="FG Virgil" font-size="14" font-style="italic" lengthAdjust="spacing" textLength="64" x="1472.5" y="1099.3711">&#171;session&#187;</text><text fill="#000000" font-family="FG Virgil" font-size="14" lengthAdjust="spacing" textLength="79" x="1465" y="1117.9922">UserSession</text><rect fill="#E3E3E3" height="51.2422" rx="2.5" ry="2.5" style="stroke:#181818;stroke-width:0.5;" width="92" x="1561" y="36"/><text fill="#000000" font-family="FG Virgil" font-size="14" font-style="italic" lengthAdjust="spacing" textLength="59" x="1577.5" y="58.1074">&#171;builder&#187;</text><text fill="#000000" font-family="FG Virgil" font-size="14" lengthAdjust="spacing" textLength="78" x="1568" y="76.7285">ExamBuilder</text><rect fill="#E3E3E3" height="51.2422" rx="2.5" ry="2.5" style="stroke:#181818;stroke-width:0.5;" width="92" x="1561" y="1077.2637"/><text fill="#000000" font-family="FG Virgil" font-size="14" font-style="italic" lengthAdjust="spacing" textLength="59" x="1577.5" y="1099.3711">&#171;builder&#187;</text><text fill="#000000" font-family="FG Virgil" font-size="14" lengthAdjust="spacing" textLength="78" x="1568" y="1117.9922">ExamBuilder</text><rect fill="#E3E3E3" height="51.2422" rx="2.5" ry="2.5" style="stroke:#181818;stroke-width:0.5;" width="84" x="1845" y="36"/><text fill="#000000" font-family="FG Virgil" font-size="14" font-style="italic" lengthAdjust="spacing" textLength="62" x="1856" y="58.1074">&#171;domain&#187;</text><text fill="#000000" font-family="FG Virgil" font-size="14" lengthAdjust="spacing" textLength="70" x="1852" y="76.7285">class:Exam</text><rect fill="#E3E3E3" height="51.2422" rx="2.5" ry="2.5" style="stroke:#181818;stroke-width:0.5;" width="84" x="1845" y="1077.2637"/><text fill="#000000" font-family="FG Virgil" font-size="14" font-style="italic" lengthAdjust="spacing" textLength="62" x="1856" y="1099.3711">&#171;domain&#187;</text><text fill="#000000" font-family="FG Virgil" font-size="14" lengthAdjust="spacing" textLength="70" x="1852" y="1117.9922">class:Exam</text><rect fill="#E3E3E3" height="51.2422" rx="2.5" ry="2.5" style="stroke:#181818;stroke-width:0.5;" width="136" x="1939" y="36"/><text fill="#000000" font-family="FG Virgil" font-size="14" font-style="italic" lengthAdjust="spacing" textLength="89" x="1962.5" y="58.1074">&#171;persistence&#187;</text><text fill="#000000" font-family="FG Virgil" font-size="14" lengthAdjust="spacing" textLength="122" x="1946" y="76.7285">PersistenceContext</text><rect fill="#E3E3E3" height="51.2422" rx="2.5" ry="2.5" style="stroke:#181818;stroke-width:0.5;" width="136" x="1939" y="1077.2637"/><text fill="#000000" font-family="FG Virgil" font-size="14" font-style="italic" lengthAdjust="spacing" textLength="89" x="1962.5" y="1099.3711">&#171;persistence&#187;</text><text fill="#000000" font-family="FG Virgil" font-size="14" lengthAdjust="spacing" textLength="122" x="1946" y="1117.9922">PersistenceContext</text><rect fill="#E3E3E3" height="51.2422" rx="2.5" ry="2.5" style="stroke:#181818;stroke-width:0.5;" width="130" x="2085" y="36"/><text fill="#000000" font-family="FG Virgil" font-size="14" font-style="italic" lengthAdjust="spacing" textLength="59" x="2120.5" y="58.1074">&#171;factory&#187;</text><text fill="#000000" font-family="FG Virgil" font-size="14" lengthAdjust="spacing" textLength="116" x="2092" y="76.7285">RepositoryFactory</text><rect fill="#E3E3E3" height="51.2422" rx="2.5" ry="2.5" style="stroke:#181818;stroke-width:0.5;" width="130" x="2085" y="1077.2637"/><text fill="#000000" font-family="FG Virgil" font-size="14" font-style="italic" lengthAdjust="spacing" textLength="59" x="2120.5" y="1099.3711">&#171;factory&#187;</text><text fill="#000000" font-family="FG Virgil" font-size="14" lengthAdjust="spacing" textLength="116" x="2092" y="1117.9922">RepositoryFactory</text><text fill="#000000" font-family="FG Virgil" font-size="14" font-style="italic" lengthAdjust="spacing" textLength="79" x="2236.5" y="66.1074">&#171;repository&#187;</text><text fill="#000000" font-family="FG Virgil" font-size="14" lengthAdjust="spacing" textLength="102" x="2225" y="84.7285">ExamRepository</text><path d="M2261,15 C2261,5 2279,5 2279,5 C2279,5 2297,5 2297,15 L2297,41 C2297,51 2279,51 2279,51 C2279,51 2261,51 2261,41 L2261,15 " fill="#E3E3E3" style="stroke:#181818;stroke-width:1.5;"/><path d="M2261,15 C2261,25 2279,25 2279,25 C2279,25 2297,25 2297,15 " fill="none" style="stroke:#181818;stroke-width:1.5;"/><text fill="#000000" font-family="FG Virgil" font-size="14" font-style="italic" lengthAdjust="spacing" textLength="79" x="2236.5" y="1092.3711">&#171;repository&#187;</text><text fill="#000000" font-family="FG Virgil" font-size="14" lengthAdjust="spacing" textLength="102" x="2225" y="1110.9922">ExamRepository</text><path d="M2261,1124.5059 C2261,1114.5059 2279,1114.5059 2279,1114.5059 C2279,1114.5059 2297,1114.5059 2297,1124.5059 L2297,1150.5059 C2297,1160.5059 2279,1160.5059 2279,1160.5059 C2279,1160.5059 2261,1160.5059 2261,1150.5059 L2261,1124.5059 " fill="#E3E3E3" style="stroke:#181818;stroke-width:1.5;"/><path d="M2261,1124.5059 C2261,1134.5059 2279,1134.5059 2279,1134.5059 C2279,1134.5059 2297,1134.5059 2297,1124.5059 " fill="none" style="stroke:#181818;stroke-width:1.5;"/><rect fill="#FFFFFF" height="938.7305" style="stroke:#181818;stroke-width:1.0;" width="10" x="344.5" y="121.5332"/><rect fill="#FFFFFF" height="782.2754" style="stroke:#181818;stroke-width:1.0;" width="10" x="737.5" y="246.6973"/><rect fill="#FFFFFF" height="500.6563" style="stroke:#181818;stroke-width:1.0;" width="10" x="1193.5" y="497.0254"/><rect fill="#FFFFFF" height="62.582" style="stroke:#181818;stroke-width:1.0;" width="10" x="1367.5" y="340.5703"/><rect fill="#FFFFFF" height="31.291" style="stroke:#181818;stroke-width:1.0;" width="10" x="1499.5" y="434.4434"/><rect fill="#FFFFFF" height="93.873" style="stroke:#181818;stroke-width:1.0;" width="10" x="1602" y="778.6445"/><rect fill="#FFFFFF" height="31.291" style="stroke:#181818;stroke-width:1.0;" width="10" x="1882" y="809.9355"/><rect fill="#FFFFFF" height="62.582" style="stroke:#181818;stroke-width:1.0;" width="10" x="2002" y="559.6074"/><rect fill="#FFFFFF" height="62.582" style="stroke:#181818;stroke-width:1.0;" width="10" x="2145" y="653.4805"/><rect fill="#FFFFFF" height="31.291" style="stroke:#181818;stroke-width:1.0;" width="10" x="2274" y="935.0996"/><polygon fill="#181818" points="332.5,117.5332,342.5,121.5332,332.5,125.5332,336.5,121.5332" style="stroke:#181818;stroke-width:1.0;"/><line style="stroke:#181818;stroke-width:1.0;stroke-dasharray:2.0,2.0;" x1="34.5" x2="338.5" y1="121.5332" y2="121.5332"/><text fill="#000000" font-family="FG Virgil" font-size="13" lengthAdjust="spacing" textLength="90" x="41.5" y="116.2705">create an exam</text><polygon fill="#181818" points="730.5,148.8242,740.5,152.8242,730.5,156.8242,734.5,152.8242" style="stroke:#181818;stroke-width:1.0;"/><line style="stroke:#181818;stroke-width:1.0;" x1="354.5" x2="736.5" y1="152.8242" y2="152.8242"/><text fill="#000000" font-family="FG Virgil" font-size="13" lengthAdjust="spacing" textLength="44" x="361.5" y="147.5615">create()</text><polygon fill="#181818" points="45.5,180.1152,35.5,184.1152,45.5,188.1152,41.5,184.1152" style="stroke:#181818;stroke-width:1.0;"/><line style="stroke:#181818;stroke-width:1.0;" x1="39.5" x2="343.5" y1="184.1152" y2="184.1152"/><text fill="#000000" font-family="FG Virgil" font-size="13" lengthAdjust="spacing" textLength="133" x="51.5" y="178.8525">ask exam's first details</text><polygon fill="#181818" points="332.5,211.4063,342.5,215.4063,332.5,219.4063,336.5,215.4063" style="stroke:#181818;stroke-width:1.0;"/><line style="stroke:#181818;stroke-width:1.0;" x1="34.5" x2="338.5" y1="215.4063" y2="215.4063"/><text fill="#000000" font-family="FG Virgil" font-size="13" lengthAdjust="spacing" textLength="286" x="41.5" y="210.1436">courseCode, title, description, startDate, endDate</text><polygon fill="#181818" points="725.5,242.6973,735.5,246.6973,725.5,250.6973,729.5,246.6973" style="stroke:#181818;stroke-width:1.0;"/><line style="stroke:#181818;stroke-width:1.0;" x1="354.5" x2="731.5" y1="246.6973" y2="246.6973"/><text fill="#000000" font-family="FG Virgil" font-size="13" lengthAdjust="spacing" textLength="364" x="361.5" y="241.4346">createExam(courseCode, title, description, startDate, endDate)</text><polygon fill="#181818" points="1360.5,273.9883,1370.5,277.9883,1360.5,281.9883,1364.5,277.9883" style="stroke:#181818;stroke-width:1.0;"/><line style="stroke:#181818;stroke-width:1.0;" x1="747.5" x2="1366.5" y1="277.9883" y2="277.9883"/><text fill="#000000" font-family="FG Virgil" font-size="13" lengthAdjust="spacing" textLength="44" x="754.5" y="272.7256">create()</text><polygon fill="#181818" points="1360.5,305.2793,1370.5,309.2793,1360.5,313.2793,1364.5,309.2793" style="stroke:#181818;stroke-width:1.0;"/><line style="stroke:#181818;stroke-width:1.0;" x1="747.5" x2="1366.5" y1="309.2793" y2="309.2793"/><text fill="#000000" font-family="FG Virgil" font-size="13" lengthAdjust="spacing" textLength="352" x="754.5" y="304.0166">ensureAuthenticatedUserHasAnyOf(CourseRoles.TEACHER)</text><polygon fill="#181818" points="1492.5,336.5703,1502.5,340.5703,1492.5,344.5703,1496.5,340.5703" style="stroke:#181818;stroke-width:1.0;"/><line style="stroke:#181818;stroke-width:1.0;" x1="1377.5" x2="1498.5" y1="340.5703" y2="340.5703"/><text fill="#000000" font-family="FG Virgil" font-size="13" lengthAdjust="spacing" textLength="44" x="1384.5" y="335.3076">create()</text><polygon fill="#181818" points="1355.5,367.8613,1365.5,371.8613,1355.5,375.8613,1359.5,371.8613" style="stroke:#181818;stroke-width:1.0;"/><line style="stroke:#181818;stroke-width:1.0;" x1="747.5" x2="1361.5" y1="371.8613" y2="371.8613"/><text fill="#000000" font-family="FG Virgil" font-size="13" lengthAdjust="spacing" textLength="53" x="754.5" y="366.5986">session()</text><polygon fill="#181818" points="758.5,399.1523,748.5,403.1523,758.5,407.1523,754.5,403.1523" style="stroke:#181818;stroke-width:1.0;"/><line style="stroke:#181818;stroke-width:1.0;" x1="752.5" x2="1371.5" y1="403.1523" y2="403.1523"/><text fill="#000000" font-family="FG Virgil" font-size="13" lengthAdjust="spacing" textLength="45" x="764.5" y="397.8896">session</text><polygon fill="#181818" points="1487.5,430.4434,1497.5,434.4434,1487.5,438.4434,1491.5,434.4434" style="stroke:#181818;stroke-width:1.0;"/><line style="stroke:#181818;stroke-width:1.0;" x1="747.5" x2="1493.5" y1="434.4434" y2="434.4434"/><text fill="#000000" font-family="FG Virgil" font-size="13" lengthAdjust="spacing" textLength="113" x="754.5" y="429.1807">authenticatedUser()</text><polygon fill="#181818" points="758.5,461.7344,748.5,465.7344,758.5,469.7344,754.5,465.7344" style="stroke:#181818;stroke-width:1.0;"/><line style="stroke:#181818;stroke-width:1.0;" x1="752.5" x2="1503.5" y1="465.7344" y2="465.7344"/><text fill="#000000" font-family="FG Virgil" font-size="13" lengthAdjust="spacing" textLength="25" x="764.5" y="460.4717">user</text><polygon fill="#181818" points="1181.5,493.0254,1191.5,497.0254,1181.5,501.0254,1185.5,497.0254" style="stroke:#181818;stroke-width:1.0;"/><line style="stroke:#181818;stroke-width:1.0;" x1="747.5" x2="1187.5" y1="497.0254" y2="497.0254"/><text fill="#000000" font-family="FG Virgil" font-size="13" lengthAdjust="spacing" textLength="44" x="754.5" y="491.7627">create()</text><polygon fill="#181818" points="1181.5,524.3164,1191.5,528.3164,1181.5,532.3164,1185.5,528.3164" style="stroke:#181818;stroke-width:1.0;"/><line style="stroke:#181818;stroke-width:1.0;" x1="747.5" x2="1187.5" y1="528.3164" y2="528.3164"/><text fill="#000000" font-family="FG Virgil" font-size="13" lengthAdjust="spacing" textLength="422" x="754.5" y="523.0537">createNewExam(courseCode, title, description, startDate, endDate, user)</text><polygon fill="#181818" points="1990,555.6074,2000,559.6074,1990,563.6074,1994,559.6074" style="stroke:#181818;stroke-width:1.0;"/><line style="stroke:#181818;stroke-width:1.0;" x1="1203.5" x2="1996" y1="559.6074" y2="559.6074"/><text fill="#000000" font-family="FG Virgil" font-size="13" lengthAdjust="spacing" textLength="75" x="1210.5" y="554.3447">repositories()</text><polygon fill="#181818" points="2138,586.8984,2148,590.8984,2138,594.8984,2142,590.8984" style="stroke:#181818;stroke-width:1.0;"/><line style="stroke:#181818;stroke-width:1.0;" x1="2012" x2="2144" y1="590.8984" y2="590.8984"/><text fill="#000000" font-family="FG Virgil" font-size="13" lengthAdjust="spacing" textLength="44" x="2019" y="585.6357">create()</text><polygon fill="#181818" points="1214.5,618.1895,1204.5,622.1895,1214.5,626.1895,1210.5,622.1895" style="stroke:#181818;stroke-width:1.0;"/><line style="stroke:#181818;stroke-width:1.0;" x1="1208.5" x2="2006" y1="622.1895" y2="622.1895"/><text fill="#000000" font-family="FG Virgil" font-size="13" lengthAdjust="spacing" textLength="39" x="1220.5" y="616.9268">factory</text><polygon fill="#181818" points="2133,649.4805,2143,653.4805,2133,657.4805,2137,653.4805" style="stroke:#181818;stroke-width:1.0;"/><line style="stroke:#181818;stroke-width:1.0;" x1="1203.5" x2="2139" y1="653.4805" y2="653.4805"/><text fill="#000000" font-family="FG Virgil" font-size="13" lengthAdjust="spacing" textLength="47" x="1210.5" y="648.2178">exams()</text><polygon fill="#181818" points="2267,680.7715,2277,684.7715,2267,688.7715,2271,684.7715" style="stroke:#181818;stroke-width:1.0;"/><line style="stroke:#181818;stroke-width:1.0;" x1="2155" x2="2273" y1="684.7715" y2="684.7715"/><text fill="#000000" font-family="FG Virgil" font-size="13" lengthAdjust="spacing" textLength="44" x="2162" y="679.5088">create()</text><polygon fill="#181818" points="1214.5,712.0625,1204.5,716.0625,1214.5,720.0625,1210.5,716.0625" style="stroke:#181818;stroke-width:1.0;"/><line style="stroke:#181818;stroke-width:1.0;" x1="1208.5" x2="2149" y1="716.0625" y2="716.0625"/><text fill="#000000" font-family="FG Virgil" font-size="13" lengthAdjust="spacing" textLength="94" x="1220.5" y="710.7998">examRepository</text><polygon fill="#181818" points="1595,743.3535,1605,747.3535,1595,751.3535,1599,747.3535" style="stroke:#181818;stroke-width:1.0;"/><line style="stroke:#181818;stroke-width:1.0;" x1="1203.5" x2="1601" y1="747.3535" y2="747.3535"/><text fill="#000000" font-family="FG Virgil" font-size="13" lengthAdjust="spacing" textLength="35" x="1210.5" y="742.0908">build()</text><polygon fill="#181818" points="1590,774.6445,1600,778.6445,1590,782.6445,1594,778.6445" style="stroke:#181818;stroke-width:1.0;"/><line style="stroke:#181818;stroke-width:1.0;" x1="1203.5" x2="1596" y1="778.6445" y2="778.6445"/><text fill="#000000" font-family="FG Virgil" font-size="13" lengthAdjust="spacing" textLength="240" x="1210.5" y="773.3818">with(title, description, startDate, endDate)</text><polygon fill="#181818" points="1870,805.9355,1880,809.9355,1870,813.9355,1874,809.9355" style="stroke:#181818;stroke-width:1.0;"/><line style="stroke:#181818;stroke-width:1.0;" x1="1612" x2="1876" y1="809.9355" y2="809.9355"/><text fill="#000000" font-family="FG Virgil" font-size="13" lengthAdjust="spacing" textLength="251" x="1619" y="804.6729">Exam(title, description, startDate, endDate)</text><polygon fill="#181818" points="1623,837.2266,1613,841.2266,1623,845.2266,1619,841.2266" style="stroke:#181818;stroke-width:1.0;"/><line style="stroke:#181818;stroke-width:1.0;stroke-dasharray:2.0,2.0;" x1="1617" x2="1886" y1="841.2266" y2="841.2266"/><text fill="#000000" font-family="FG Virgil" font-size="13" lengthAdjust="spacing" textLength="32" x="1629" y="835.9639">exam</text><polygon fill="#181818" points="1214.5,868.5176,1204.5,872.5176,1214.5,876.5176,1210.5,872.5176" style="stroke:#181818;stroke-width:1.0;"/><line style="stroke:#181818;stroke-width:1.0;" x1="1208.5" x2="1606" y1="872.5176" y2="872.5176"/><text fill="#000000" font-family="FG Virgil" font-size="13" lengthAdjust="spacing" textLength="32" x="1220.5" y="867.2549">exam</text><polygon fill="#181818" points="1875,899.8086,1885,903.8086,1875,907.8086,1879,903.8086" style="stroke:#181818;stroke-width:1.0;"/><line style="stroke:#181818;stroke-width:1.0;" x1="1203.5" x2="1881" y1="903.8086" y2="903.8086"/><text fill="#000000" font-family="FG Virgil" font-size="13" lengthAdjust="spacing" textLength="63" x="1210.5" y="898.5459">addExam()</text><polygon fill="#181818" points="2262,931.0996,2272,935.0996,2262,939.0996,2266,935.0996" style="stroke:#181818;stroke-width:1.0;"/><line style="stroke:#181818;stroke-width:1.0;" x1="1203.5" x2="2268" y1="935.0996" y2="935.0996"/><text fill="#000000" font-family="FG Virgil" font-size="13" lengthAdjust="spacing" textLength="66" x="1210.5" y="929.8369">save(exam)</text><polygon fill="#181818" points="1214.5,962.3906,1204.5,966.3906,1214.5,970.3906,1210.5,966.3906" style="stroke:#181818;stroke-width:1.0;"/><line style="stroke:#181818;stroke-width:1.0;stroke-dasharray:2.0,2.0;" x1="1208.5" x2="2278" y1="966.3906" y2="966.3906"/><text fill="#000000" font-family="FG Virgil" font-size="13" lengthAdjust="spacing" textLength="32" x="1220.5" y="961.1279">exam</text><polygon fill="#181818" points="758.5,993.6816,748.5,997.6816,758.5,1001.6816,754.5,997.6816" style="stroke:#181818;stroke-width:1.0;"/><line style="stroke:#181818;stroke-width:1.0;stroke-dasharray:2.0,2.0;" x1="752.5" x2="1197.5" y1="997.6816" y2="997.6816"/><text fill="#000000" font-family="FG Virgil" font-size="13" lengthAdjust="spacing" textLength="32" x="764.5" y="992.4189">exam</text><polygon fill="#181818" points="365.5,1024.9727,355.5,1028.9727,365.5,1032.9727,361.5,1028.9727" style="stroke:#181818;stroke-width:1.0;"/><line style="stroke:#181818;stroke-width:1.0;stroke-dasharray:2.0,2.0;" x1="359.5" x2="741.5" y1="1028.9727" y2="1028.9727"/><text fill="#000000" font-family="FG Virgil" font-size="13" lengthAdjust="spacing" textLength="32" x="371.5" y="1023.71">exam</text><polygon fill="#181818" points="45.5,1056.2637,35.5,1060.2637,45.5,1064.2637,41.5,1060.2637" style="stroke:#181818;stroke-width:1.0;"/><line style="stroke:#181818;stroke-width:1.0;stroke-dasharray:2.0,2.0;" x1="39.5" x2="348.5" y1="1060.2637" y2="1060.2637"/><text fill="#000000" font-family="FG Virgil" font-size="13" lengthAdjust="spacing" textLength="162" x="51.5" y="1055.001">show the operation success</text><!--SRC=[dLNRRjim37tNLmXzMGea-u30A92bxTg7TKClUsTjfXRgM8OeDys-VfHinRIHREjU4jayv_0YagPNKpVWOAktjhPvwUmMjNSjAZfO6iXVuGKV_Bv2xJ3tmbRW1jhANzlQtm5Jhx_gdyQzc4fWg8J2xapzeZTG4Ie5kRTEFoBa9JeDf5VXXMAqDxbfeFPwxH0yNht3zkas8FWtong7XBK7RsnzSN42l-PGdAsgJbayPHaqJMNoO_H0_0OrPxbb1m_etaoEWP-EMKRTQK9SjRvaHgygY6puLPwaFV7h1oHYJinEF0PAF1q9yKjhgg9BB1spxBaxJU1dUGL4oy0w2_XmO71Xjs2cqZ_GaI6FTOwXNlZkK-d2aUi-s2VCUsmi6Rwy_NMyr7qWfcEMRReJamhmy0o4COw15U3YASlSuO59AlQ5NYmkmlqlTHulMKEjaLLY7vctyERfLZ60OUAw4tnstjiwiIMxV8tyJwGtnf7d7lPWAahUaZFREk9w53ZNtlYA_mgat9actFHSa-SwNBA3kSQw28VJCOIaPnyNF1Sf3gfAE0XfnKOJsHutOqsjGz6kM8Ikkm5QrVllczawHdTlAwJFZrUhzStL_RdgoA4Yea65go6yY3pXkk_dcT0RrQYtgm8dSXEzSH0mJONrXuOOe4hIfgvRjac_aZVndcPRf7-WzRQ_CEvmzv-DC8-1ShsJP9z76C-bFioCGP9HzGYLa4nAepbfbzuw1DmFhYnDKfCn379Xe4REUvDA44QBGHV-1M3mZwCj8SCu_ZPvay6b3RdKSKEogwF6dV7bxEFps0ke9CIQSSKkuzy_2nxq0aj5XSKelBZfHAOH9voEQoQHAKAPTXyY54MCSbIIqVKGlE4iACgSHUq5UF77A0HdS3OTmoafpTDeeD9YdeB5PemRMAnwAkrEyvhGbZzXyGkjgSrp7d0rclfRzHi0]--></g></svg>