<?xml version="1.0" encoding="us-ascii" standalone="no"?><svg xmlns="http://www.w3.org/2000/svg" xmlns:xlink="http://www.w3.org/1999/xlink" contentStyleType="text/css" height="1396px" preserveAspectRatio="none" style="width:2706px;height:1396px;background:#FFFFFF;" version="1.1" viewBox="0 0 2706 1396" width="2706px" zoomAndPan="magnify"><defs/><g><rect fill="#FFFFFF" height="1157.7676" style="stroke:#181818;stroke-width:1.0;" width="10" x="220.5" y="121.5332"/><rect fill="#FFFFFF" height="1001.3125" style="stroke:#181818;stroke-width:1.0;" width="10" x="447.5" y="246.6973"/><rect fill="#FFFFFF" height="719.6934" style="stroke:#181818;stroke-width:1.0;" width="10" x="730.5" y="497.0254"/><rect fill="#FFFFFF" height="62.582" style="stroke:#181818;stroke-width:1.0;" width="10" x="904.5" y="340.5703"/><rect fill="#FFFFFF" height="31.291" style="stroke:#181818;stroke-width:1.0;" width="10" x="1036.5" y="434.4434"/><rect fill="#FFFFFF" height="62.582" style="stroke:#181818;stroke-width:1.0;" width="10" x="1161" y="559.6074"/><rect fill="#FFFFFF" height="62.582" style="stroke:#181818;stroke-width:1.0;" width="10" x="1161" y="966.3906"/><rect fill="#FFFFFF" height="62.582" style="stroke:#181818;stroke-width:1.0;" width="10" x="1304" y="653.4805"/><rect fill="#FFFFFF" height="62.582" style="stroke:#181818;stroke-width:1.0;" width="10" x="1304" y="1060.2637"/><rect fill="#FFFFFF" height="31.291" style="stroke:#181818;stroke-width:1.0;" width="10" x="1462.5" y="809.9355"/><rect fill="#FFFFFF" height="93.873" style="stroke:#181818;stroke-width:1.0;" width="10" x="1602" y="841.2266"/><rect fill="#FFFFFF" height="31.291" style="stroke:#181818;stroke-width:1.0;" width="10" x="2381" y="872.5176"/><rect fill="#FFFFFF" height="31.291" style="stroke:#181818;stroke-width:1.0;" width="10" x="2522.5" y="747.3535"/><rect fill="#FFFFFF" height="31.291" style="stroke:#181818;stroke-width:1.0;" width="10" x="2646.5" y="1154.1367"/><line style="stroke:#181818;stroke-width:0.5;stroke-dasharray:5.0,5.0;" x1="34" x2="34" y1="88.2422" y2="1297.3008"/><line style="stroke:#181818;stroke-width:0.5;stroke-dasharray:5.0,5.0;" x1="225" x2="225" y1="88.2422" y2="1297.3008"/><line style="stroke:#181818;stroke-width:0.5;stroke-dasharray:5.0,5.0;" x1="452" x2="452" y1="88.2422" y2="1297.3008"/><line style="stroke:#181818;stroke-width:0.5;stroke-dasharray:5.0,5.0;" x1="735" x2="735" y1="88.2422" y2="1297.3008"/><line style="stroke:#181818;stroke-width:0.5;stroke-dasharray:5.0,5.0;" x1="909" x2="909" y1="88.2422" y2="1297.3008"/><line style="stroke:#181818;stroke-width:0.5;stroke-dasharray:5.0,5.0;" x1="1041" x2="1041" y1="88.2422" y2="1297.3008"/><line style="stroke:#181818;stroke-width:0.5;stroke-dasharray:5.0,5.0;" x1="1166" x2="1166" y1="88.2422" y2="1297.3008"/><line style="stroke:#181818;stroke-width:0.5;stroke-dasharray:5.0,5.0;" x1="1309" x2="1309" y1="88.2422" y2="1297.3008"/><line style="stroke:#181818;stroke-width:0.5;stroke-dasharray:5.0,5.0;" x1="1467" x2="1467" y1="88.2422" y2="1297.3008"/><line style="stroke:#181818;stroke-width:0.5;stroke-dasharray:5.0,5.0;" x1="1607" x2="1607" y1="88.2422" y2="1297.3008"/><line style="stroke:#181818;stroke-width:0.5;stroke-dasharray:5.0,5.0;" x1="2385.5" x2="2385.5" y1="88.2422" y2="1297.3008"/><line style="stroke:#181818;stroke-width:0.5;stroke-dasharray:5.0,5.0;" x1="2527.5" x2="2527.5" y1="88.2422" y2="1297.3008"/><line style="stroke:#181818;stroke-width:0.5;stroke-dasharray:5.0,5.0;" x1="2651.5" x2="2651.5" y1="88.2422" y2="1297.3008"/><text fill="#000000" font-family="FG Virgil" font-size="14" lengthAdjust="spacing" textLength="53" x="5" y="84.7285">Teacher</text><ellipse cx="34.5" cy="18.1211" fill="#E3E3E3" rx="8" ry="8" style="stroke:#181818;stroke-width:0.5;"/><path d="M34.5,26.1211 L34.5,53.1211 M21.5,34.1211 L47.5,34.1211 M34.5,53.1211 L21.5,68.1211 M34.5,53.1211 L47.5,68.1211 " fill="none" style="stroke:#181818;stroke-width:0.5;"/><text fill="#000000" font-family="FG Virgil" font-size="14" lengthAdjust="spacing" textLength="53" x="5" y="1311.4082">Teacher</text><ellipse cx="34.5" cy="1323.4219" fill="#E3E3E3" rx="8" ry="8" style="stroke:#181818;stroke-width:0.5;"/><path d="M34.5,1331.4219 L34.5,1358.4219 M21.5,1339.4219 L47.5,1339.4219 M34.5,1358.4219 L21.5,1373.4219 M34.5,1358.4219 L47.5,1373.4219 " fill="none" style="stroke:#181818;stroke-width:0.5;"/><rect fill="#E3E3E3" height="51.2422" rx="2.5" ry="2.5" style="stroke:#181818;stroke-width:0.5;" width="109" x="171" y="36"/><text fill="#000000" font-family="FG Virgil" font-size="14" font-style="italic" lengthAdjust="spacing" textLength="95" x="178" y="58.1074">&#171;presentation&#187;</text><text fill="#000000" font-family="FG Virgil" font-size="14" lengthAdjust="spacing" textLength="89" x="181" y="76.7285">CreateExamUI</text><rect fill="#E3E3E3" height="51.2422" rx="2.5" ry="2.5" style="stroke:#181818;stroke-width:0.5;" width="109" x="171" y="1296.3008"/><text fill="#000000" font-family="FG Virgil" font-size="14" font-style="italic" lengthAdjust="spacing" textLength="95" x="178" y="1318.4082">&#171;presentation&#187;</text><text fill="#000000" font-family="FG Virgil" font-size="14" lengthAdjust="spacing" textLength="89" x="181" y="1337.0293">CreateExamUI</text><rect fill="#E3E3E3" height="51.2422" rx="2.5" ry="2.5" style="stroke:#181818;stroke-width:0.5;" width="153" x="376" y="36"/><text fill="#000000" font-family="FG Virgil" font-size="14" font-style="italic" lengthAdjust="spacing" textLength="84" x="410.5" y="58.1074">&#171;application&#187;</text><text fill="#000000" font-family="FG Virgil" font-size="14" lengthAdjust="spacing" textLength="139" x="383" y="76.7285">CreateExamController</text><rect fill="#E3E3E3" height="51.2422" rx="2.5" ry="2.5" style="stroke:#181818;stroke-width:0.5;" width="153" x="376" y="1296.3008"/><text fill="#000000" font-family="FG Virgil" font-size="14" font-style="italic" lengthAdjust="spacing" textLength="84" x="410.5" y="1318.4082">&#171;application&#187;</text><text fill="#000000" font-family="FG Virgil" font-size="14" lengthAdjust="spacing" textLength="139" x="383" y="1337.0293">CreateExamController</text><rect fill="#E3E3E3" height="51.2422" rx="2.5" ry="2.5" style="stroke:#181818;stroke-width:0.5;" width="177" x="647" y="36"/><text fill="#000000" font-family="FG Virgil" font-size="14" font-style="italic" lengthAdjust="spacing" textLength="60" x="705.5" y="58.1074">&#171;service&#187;</text><text fill="#000000" font-family="FG Virgil" font-size="14" lengthAdjust="spacing" textLength="163" x="654" y="76.7285">ExamManagementService</text><rect fill="#E3E3E3" height="51.2422" rx="2.5" ry="2.5" style="stroke:#181818;stroke-width:0.5;" width="177" x="647" y="1296.3008"/><text fill="#000000" font-family="FG Virgil" font-size="14" font-style="italic" lengthAdjust="spacing" textLength="60" x="705.5" y="1318.4082">&#171;service&#187;</text><text fill="#000000" font-family="FG Virgil" font-size="14" lengthAdjust="spacing" textLength="163" x="654" y="1337.0293">ExamManagementService</text><rect fill="#E3E3E3" height="51.2422" rx="2.5" ry="2.5" style="stroke:#181818;stroke-width:0.5;" width="151" x="834" y="36"/><text fill="#000000" font-family="FG Virgil" font-size="14" font-style="italic" lengthAdjust="spacing" textLength="60" x="879.5" y="58.1074">&#171;service&#187;</text><text fill="#000000" font-family="FG Virgil" font-size="14" lengthAdjust="spacing" textLength="137" x="841" y="76.7285">AuthenticationService</text><rect fill="#E3E3E3" height="51.2422" rx="2.5" ry="2.5" style="stroke:#181818;stroke-width:0.5;" width="151" x="834" y="1296.3008"/><text fill="#000000" font-family="FG Virgil" font-size="14" font-style="italic" lengthAdjust="spacing" textLength="60" x="879.5" y="1318.4082">&#171;service&#187;</text><text fill="#000000" font-family="FG Virgil" font-size="14" lengthAdjust="spacing" textLength="137" x="841" y="1337.0293">AuthenticationService</text><rect fill="#E3E3E3" height="51.2422" rx="2.5" ry="2.5" style="stroke:#181818;stroke-width:0.5;" width="93" x="995" y="36"/><text fill="#000000" font-family="FG Virgil" font-size="14" font-style="italic" lengthAdjust="spacing" textLength="64" x="1009.5" y="58.1074">&#171;session&#187;</text><text fill="#000000" font-family="FG Virgil" font-size="14" lengthAdjust="spacing" textLength="79" x="1002" y="76.7285">UserSession</text><rect fill="#E3E3E3" height="51.2422" rx="2.5" ry="2.5" style="stroke:#181818;stroke-width:0.5;" width="93" x="995" y="1296.3008"/><text fill="#000000" font-family="FG Virgil" font-size="14" font-style="italic" lengthAdjust="spacing" textLength="64" x="1009.5" y="1318.4082">&#171;session&#187;</text><text fill="#000000" font-family="FG Virgil" font-size="14" lengthAdjust="spacing" textLength="79" x="1002" y="1337.0293">UserSession</text><rect fill="#E3E3E3" height="51.2422" rx="2.5" ry="2.5" style="stroke:#181818;stroke-width:0.5;" width="136" x="1098" y="36"/><text fill="#000000" font-family="FG Virgil" font-size="14" font-style="italic" lengthAdjust="spacing" textLength="89" x="1121.5" y="58.1074">&#171;persistence&#187;</text><text fill="#000000" font-family="FG Virgil" font-size="14" lengthAdjust="spacing" textLength="122" x="1105" y="76.7285">PersistenceContext</text><rect fill="#E3E3E3" height="51.2422" rx="2.5" ry="2.5" style="stroke:#181818;stroke-width:0.5;" width="136" x="1098" y="1296.3008"/><text fill="#000000" font-family="FG Virgil" font-size="14" font-style="italic" lengthAdjust="spacing" textLength="89" x="1121.5" y="1318.4082">&#171;persistence&#187;</text><text fill="#000000" font-family="FG Virgil" font-size="14" lengthAdjust="spacing" textLength="122" x="1105" y="1337.0293">PersistenceContext</text><rect fill="#E3E3E3" height="51.2422" rx="2.5" ry="2.5" style="stroke:#181818;stroke-width:0.5;" width="130" x="1244" y="36"/><text fill="#000000" font-family="FG Virgil" font-size="14" font-style="italic" lengthAdjust="spacing" textLength="59" x="1279.5" y="58.1074">&#171;factory&#187;</text><text fill="#000000" font-family="FG Virgil" font-size="14" lengthAdjust="spacing" textLength="116" x="1251" y="76.7285">RepositoryFactory</text><rect fill="#E3E3E3" height="51.2422" rx="2.5" ry="2.5" style="stroke:#181818;stroke-width:0.5;" width="130" x="1244" y="1296.3008"/><text fill="#000000" font-family="FG Virgil" font-size="14" font-style="italic" lengthAdjust="spacing" textLength="59" x="1279.5" y="1318.4082">&#171;factory&#187;</text><text fill="#000000" font-family="FG Virgil" font-size="14" lengthAdjust="spacing" textLength="116" x="1251" y="1337.0293">RepositoryFactory</text><rect fill="#E3E3E3" height="51.2422" rx="2.5" ry="2.5" style="stroke:#181818;stroke-width:0.5;" width="167" x="1384" y="36"/><text fill="#000000" font-family="FG Virgil" font-size="14" font-style="italic" lengthAdjust="spacing" textLength="60" x="1437.5" y="58.1074">&#171;service&#187;</text><text fill="#000000" font-family="FG Virgil" font-size="14" lengthAdjust="spacing" textLength="153" x="1391" y="76.7285">ExamTemplateEvaluator</text><rect fill="#E3E3E3" height="51.2422" rx="2.5" ry="2.5" style="stroke:#181818;stroke-width:0.5;" width="167" x="1384" y="1296.3008"/><text fill="#000000" font-family="FG Virgil" font-size="14" font-style="italic" lengthAdjust="spacing" textLength="60" x="1437.5" y="1318.4082">&#171;service&#187;</text><text fill="#000000" font-family="FG Virgil" font-size="14" lengthAdjust="spacing" textLength="153" x="1391" y="1337.0293">ExamTemplateEvaluator</text><rect fill="#E3E3E3" height="51.2422" rx="2.5" ry="2.5" style="stroke:#181818;stroke-width:0.5;" width="92" x="1561" y="36"/><text fill="#000000" font-family="FG Virgil" font-size="14" font-style="italic" lengthAdjust="spacing" textLength="59" x="1577.5" y="58.1074">&#171;builder&#187;</text><text fill="#000000" font-family="FG Virgil" font-size="14" lengthAdjust="spacing" textLength="78" x="1568" y="76.7285">ExamBuilder</text><rect fill="#E3E3E3" height="51.2422" rx="2.5" ry="2.5" style="stroke:#181818;stroke-width:0.5;" width="92" x="1561" y="1296.3008"/><text fill="#000000" font-family="FG Virgil" font-size="14" font-style="italic" lengthAdjust="spacing" textLength="59" x="1577.5" y="1318.4082">&#171;builder&#187;</text><text fill="#000000" font-family="FG Virgil" font-size="14" lengthAdjust="spacing" textLength="78" x="1568" y="1337.0293">ExamBuilder</text><rect fill="#E3E3E3" height="51.2422" rx="2.5" ry="2.5" style="stroke:#181818;stroke-width:0.5;" width="143" x="2314.5" y="36"/><text fill="#000000" font-family="FG Virgil" font-size="14" font-style="italic" lengthAdjust="spacing" textLength="62" x="2355" y="58.1074">&#171;domain&#187;</text><text fill="#000000" font-family="FG Virgil" font-size="14" lengthAdjust="spacing" textLength="129" x="2321.5" y="76.7285">class:ExamTemplate</text><rect fill="#E3E3E3" height="51.2422" rx="2.5" ry="2.5" style="stroke:#181818;stroke-width:0.5;" width="143" x="2314.5" y="1296.3008"/><text fill="#000000" font-family="FG Virgil" font-size="14" font-style="italic" lengthAdjust="spacing" textLength="62" x="2355" y="1318.4082">&#171;domain&#187;</text><text fill="#000000" font-family="FG Virgil" font-size="14" lengthAdjust="spacing" textLength="129" x="2321.5" y="1337.0293">class:ExamTemplate</text><text fill="#000000" font-family="FG Virgil" font-size="14" font-style="italic" lengthAdjust="spacing" textLength="79" x="2485" y="66.1074">&#171;repository&#187;</text><text fill="#000000" font-family="FG Virgil" font-size="14" lengthAdjust="spacing" textLength="114" x="2467.5" y="84.7285">CourseRepository</text><path d="M2509.5,15 C2509.5,5 2527.5,5 2527.5,5 C2527.5,5 2545.5,5 2545.5,15 L2545.5,41 C2545.5,51 2527.5,51 2527.5,51 C2527.5,51 2509.5,51 2509.5,41 L2509.5,15 " fill="#E3E3E3" style="stroke:#181818;stroke-width:1.5;"/><path d="M2509.5,15 C2509.5,25 2527.5,25 2527.5,25 C2527.5,25 2545.5,25 2545.5,15 " fill="none" style="stroke:#181818;stroke-width:1.5;"/><text fill="#000000" font-family="FG Virgil" font-size="14" font-style="italic" lengthAdjust="spacing" textLength="79" x="2485" y="1311.4082">&#171;repository&#187;</text><text fill="#000000" font-family="FG Virgil" font-size="14" lengthAdjust="spacing" textLength="114" x="2467.5" y="1330.0293">CourseRepository</text><path d="M2509.5,1343.543 C2509.5,1333.543 2527.5,1333.543 2527.5,1333.543 C2527.5,1333.543 2545.5,1333.543 2545.5,1343.543 L2545.5,1369.543 C2545.5,1379.543 2527.5,1379.543 2527.5,1379.543 C2527.5,1379.543 2509.5,1379.543 2509.5,1369.543 L2509.5,1343.543 " fill="#E3E3E3" style="stroke:#181818;stroke-width:1.5;"/><path d="M2509.5,1343.543 C2509.5,1353.543 2527.5,1353.543 2527.5,1353.543 C2527.5,1353.543 2545.5,1353.543 2545.5,1343.543 " fill="none" style="stroke:#181818;stroke-width:1.5;"/><text fill="#000000" font-family="FG Virgil" font-size="14" font-style="italic" lengthAdjust="spacing" textLength="79" x="2609" y="66.1074">&#171;repository&#187;</text><text fill="#000000" font-family="FG Virgil" font-size="14" lengthAdjust="spacing" textLength="102" x="2597.5" y="84.7285">ExamRepository</text><path d="M2633.5,15 C2633.5,5 2651.5,5 2651.5,5 C2651.5,5 2669.5,5 2669.5,15 L2669.5,41 C2669.5,51 2651.5,51 2651.5,51 C2651.5,51 2633.5,51 2633.5,41 L2633.5,15 " fill="#E3E3E3" style="stroke:#181818;stroke-width:1.5;"/><path d="M2633.5,15 C2633.5,25 2651.5,25 2651.5,25 C2651.5,25 2669.5,25 2669.5,15 " fill="none" style="stroke:#181818;stroke-width:1.5;"/><text fill="#000000" font-family="FG Virgil" font-size="14" font-style="italic" lengthAdjust="spacing" textLength="79" x="2609" y="1311.4082">&#171;repository&#187;</text><text fill="#000000" font-family="FG Virgil" font-size="14" lengthAdjust="spacing" textLength="102" x="2597.5" y="1330.0293">ExamRepository</text><path d="M2633.5,1343.543 C2633.5,1333.543 2651.5,1333.543 2651.5,1333.543 C2651.5,1333.543 2669.5,1333.543 2669.5,1343.543 L2669.5,1369.543 C2669.5,1379.543 2651.5,1379.543 2651.5,1379.543 C2651.5,1379.543 2633.5,1379.543 2633.5,1369.543 L2633.5,1343.543 " fill="#E3E3E3" style="stroke:#181818;stroke-width:1.5;"/><path d="M2633.5,1343.543 C2633.5,1353.543 2651.5,1353.543 2651.5,1353.543 C2651.5,1353.543 2669.5,1353.543 2669.5,1343.543 " fill="none" style="stroke:#181818;stroke-width:1.5;"/><rect fill="#FFFFFF" height="1157.7676" style="stroke:#181818;stroke-width:1.0;" width="10" x="220.5" y="121.5332"/><rect fill="#FFFFFF" height="1001.3125" style="stroke:#181818;stroke-width:1.0;" width="10" x="447.5" y="246.6973"/><rect fill="#FFFFFF" height="719.6934" style="stroke:#181818;stroke-width:1.0;" width="10" x="730.5" y="497.0254"/><rect fill="#FFFFFF" height="62.582" style="stroke:#181818;stroke-width:1.0;" width="10" x="904.5" y="340.5703"/><rect fill="#FFFFFF" height="31.291" style="stroke:#181818;stroke-width:1.0;" width="10" x="1036.5" y="434.4434"/><rect fill="#FFFFFF" height="62.582" style="stroke:#181818;stroke-width:1.0;" width="10" x="1161" y="559.6074"/><rect fill="#FFFFFF" height="62.582" style="stroke:#181818;stroke-width:1.0;" width="10" x="1161" y="966.3906"/><rect fill="#FFFFFF" height="62.582" style="stroke:#181818;stroke-width:1.0;" width="10" x="1304" y="653.4805"/><rect fill="#FFFFFF" height="62.582" style="stroke:#181818;stroke-width:1.0;" width="10" x="1304" y="1060.2637"/><rect fill="#FFFFFF" height="31.291" style="stroke:#181818;stroke-width:1.0;" width="10" x="1462.5" y="809.9355"/><rect fill="#FFFFFF" height="93.873" style="stroke:#181818;stroke-width:1.0;" width="10" x="1602" y="841.2266"/><rect fill="#FFFFFF" height="31.291" style="stroke:#181818;stroke-width:1.0;" width="10" x="2381" y="872.5176"/><rect fill="#FFFFFF" height="31.291" style="stroke:#181818;stroke-width:1.0;" width="10" x="2522.5" y="747.3535"/><rect fill="#FFFFFF" height="31.291" style="stroke:#181818;stroke-width:1.0;" width="10" x="2646.5" y="1154.1367"/><polygon fill="#181818" points="208.5,117.5332,218.5,121.5332,208.5,125.5332,212.5,121.5332" style="stroke:#181818;stroke-width:1.0;"/><line style="stroke:#181818;stroke-width:1.0;stroke-dasharray:2.0,2.0;" x1="34.5" x2="214.5" y1="121.5332" y2="121.5332"/><text fill="#000000" font-family="FG Virgil" font-size="13" lengthAdjust="spacing" textLength="90" x="41.5" y="116.2705">create an exam</text><polygon fill="#181818" points="440.5,148.8242,450.5,152.8242,440.5,156.8242,444.5,152.8242" style="stroke:#181818;stroke-width:1.0;"/><line style="stroke:#181818;stroke-width:1.0;" x1="230.5" x2="446.5" y1="152.8242" y2="152.8242"/><text fill="#000000" font-family="FG Virgil" font-size="13" lengthAdjust="spacing" textLength="44" x="237.5" y="147.5615">create()</text><polygon fill="#181818" points="45.5,180.1152,35.5,184.1152,45.5,188.1152,41.5,184.1152" style="stroke:#181818;stroke-width:1.0;"/><line style="stroke:#181818;stroke-width:1.0;" x1="39.5" x2="219.5" y1="184.1152" y2="184.1152"/><text fill="#000000" font-family="FG Virgil" font-size="13" lengthAdjust="spacing" textLength="108" x="51.5" y="178.8525">ask exam's details</text><polygon fill="#181818" points="208.5,211.4063,218.5,215.4063,208.5,219.4063,212.5,215.4063" style="stroke:#181818;stroke-width:1.0;"/><line style="stroke:#181818;stroke-width:1.0;" x1="34.5" x2="214.5" y1="215.4063" y2="215.4063"/><text fill="#000000" font-family="FG Virgil" font-size="13" lengthAdjust="spacing" textLength="120" x="41.5" y="210.1436">courseCode, filePath</text><polygon fill="#181818" points="435.5,242.6973,445.5,246.6973,435.5,250.6973,439.5,246.6973" style="stroke:#181818;stroke-width:1.0;"/><line style="stroke:#181818;stroke-width:1.0;" x1="230.5" x2="441.5" y1="246.6973" y2="246.6973"/><text fill="#000000" font-family="FG Virgil" font-size="13" lengthAdjust="spacing" textLength="198" x="237.5" y="241.4346">createExam(courseCode, filePath)</text><polygon fill="#181818" points="897.5,273.9883,907.5,277.9883,897.5,281.9883,901.5,277.9883" style="stroke:#181818;stroke-width:1.0;"/><line style="stroke:#181818;stroke-width:1.0;" x1="457.5" x2="903.5" y1="277.9883" y2="277.9883"/><text fill="#000000" font-family="FG Virgil" font-size="13" lengthAdjust="spacing" textLength="44" x="464.5" y="272.7256">create()</text><polygon fill="#181818" points="897.5,305.2793,907.5,309.2793,897.5,313.2793,901.5,309.2793" style="stroke:#181818;stroke-width:1.0;"/><line style="stroke:#181818;stroke-width:1.0;" x1="457.5" x2="903.5" y1="309.2793" y2="309.2793"/><text fill="#000000" font-family="FG Virgil" font-size="13" lengthAdjust="spacing" textLength="352" x="464.5" y="304.0166">ensureAuthenticatedUserHasAnyOf(CourseRoles.TEACHER)</text><polygon fill="#181818" points="1029.5,336.5703,1039.5,340.5703,1029.5,344.5703,1033.5,340.5703" style="stroke:#181818;stroke-width:1.0;"/><line style="stroke:#181818;stroke-width:1.0;" x1="914.5" x2="1035.5" y1="340.5703" y2="340.5703"/><text fill="#000000" font-family="FG Virgil" font-size="13" lengthAdjust="spacing" textLength="44" x="921.5" y="335.3076">create()</text><polygon fill="#181818" points="892.5,367.8613,902.5,371.8613,892.5,375.8613,896.5,371.8613" style="stroke:#181818;stroke-width:1.0;"/><line style="stroke:#181818;stroke-width:1.0;" x1="457.5" x2="898.5" y1="371.8613" y2="371.8613"/><text fill="#000000" font-family="FG Virgil" font-size="13" lengthAdjust="spacing" textLength="53" x="464.5" y="366.5986">session()</text><polygon fill="#181818" points="468.5,399.1523,458.5,403.1523,468.5,407.1523,464.5,403.1523" style="stroke:#181818;stroke-width:1.0;"/><line style="stroke:#181818;stroke-width:1.0;" x1="462.5" x2="908.5" y1="403.1523" y2="403.1523"/><text fill="#000000" font-family="FG Virgil" font-size="13" lengthAdjust="spacing" textLength="45" x="474.5" y="397.8896">session</text><polygon fill="#181818" points="1024.5,430.4434,1034.5,434.4434,1024.5,438.4434,1028.5,434.4434" style="stroke:#181818;stroke-width:1.0;"/><line style="stroke:#181818;stroke-width:1.0;" x1="457.5" x2="1030.5" y1="434.4434" y2="434.4434"/><text fill="#000000" font-family="FG Virgil" font-size="13" lengthAdjust="spacing" textLength="113" x="464.5" y="429.1807">authenticatedUser()</text><polygon fill="#181818" points="468.5,461.7344,458.5,465.7344,468.5,469.7344,464.5,465.7344" style="stroke:#181818;stroke-width:1.0;"/><line style="stroke:#181818;stroke-width:1.0;" x1="462.5" x2="1040.5" y1="465.7344" y2="465.7344"/><text fill="#000000" font-family="FG Virgil" font-size="13" lengthAdjust="spacing" textLength="25" x="474.5" y="460.4717">user</text><polygon fill="#181818" points="718.5,493.0254,728.5,497.0254,718.5,501.0254,722.5,497.0254" style="stroke:#181818;stroke-width:1.0;"/><line style="stroke:#181818;stroke-width:1.0;" x1="457.5" x2="724.5" y1="497.0254" y2="497.0254"/><text fill="#000000" font-family="FG Virgil" font-size="13" lengthAdjust="spacing" textLength="44" x="464.5" y="491.7627">create()</text><polygon fill="#181818" points="718.5,524.3164,728.5,528.3164,718.5,532.3164,722.5,528.3164" style="stroke:#181818;stroke-width:1.0;"/><line style="stroke:#181818;stroke-width:1.0;" x1="457.5" x2="724.5" y1="528.3164" y2="528.3164"/><text fill="#000000" font-family="FG Virgil" font-size="13" lengthAdjust="spacing" textLength="249" x="464.5" y="523.0537">createExam(courseCode, filePath, teacher)</text><polygon fill="#181818" points="1149,555.6074,1159,559.6074,1149,563.6074,1153,559.6074" style="stroke:#181818;stroke-width:1.0;"/><line style="stroke:#181818;stroke-width:1.0;" x1="740.5" x2="1155" y1="559.6074" y2="559.6074"/><text fill="#000000" font-family="FG Virgil" font-size="13" lengthAdjust="spacing" textLength="75" x="747.5" y="554.3447">repositories()</text><polygon fill="#181818" points="1297,586.8984,1307,590.8984,1297,594.8984,1301,590.8984" style="stroke:#181818;stroke-width:1.0;"/><line style="stroke:#181818;stroke-width:1.0;" x1="1171" x2="1303" y1="590.8984" y2="590.8984"/><text fill="#000000" font-family="FG Virgil" font-size="13" lengthAdjust="spacing" textLength="44" x="1178" y="585.6357">create()</text><polygon fill="#181818" points="751.5,618.1895,741.5,622.1895,751.5,626.1895,747.5,622.1895" style="stroke:#181818;stroke-width:1.0;"/><line style="stroke:#181818;stroke-width:1.0;" x1="745.5" x2="1165" y1="622.1895" y2="622.1895"/><text fill="#000000" font-family="FG Virgil" font-size="13" lengthAdjust="spacing" textLength="39" x="757.5" y="616.9268">factory</text><polygon fill="#181818" points="1292,649.4805,1302,653.4805,1292,657.4805,1296,653.4805" style="stroke:#181818;stroke-width:1.0;"/><line style="stroke:#181818;stroke-width:1.0;" x1="740.5" x2="1298" y1="653.4805" y2="653.4805"/><text fill="#000000" font-family="FG Virgil" font-size="13" lengthAdjust="spacing" textLength="54" x="747.5" y="648.2178">courses()</text><polygon fill="#181818" points="2515.5,680.7715,2525.5,684.7715,2515.5,688.7715,2519.5,684.7715" style="stroke:#181818;stroke-width:1.0;"/><line style="stroke:#181818;stroke-width:1.0;" x1="1314" x2="2521.5" y1="684.7715" y2="684.7715"/><text fill="#000000" font-family="FG Virgil" font-size="13" lengthAdjust="spacing" textLength="44" x="1321" y="679.5088">create()</text><polygon fill="#181818" points="751.5,712.0625,741.5,716.0625,751.5,720.0625,747.5,716.0625" style="stroke:#181818;stroke-width:1.0;"/><line style="stroke:#181818;stroke-width:1.0;" x1="745.5" x2="1308" y1="716.0625" y2="716.0625"/><text fill="#000000" font-family="FG Virgil" font-size="13" lengthAdjust="spacing" textLength="46" x="757.5" y="710.7998">courses</text><polygon fill="#181818" points="2510.5,743.3535,2520.5,747.3535,2510.5,751.3535,2514.5,747.3535" style="stroke:#181818;stroke-width:1.0;"/><line style="stroke:#181818;stroke-width:1.0;" x1="740.5" x2="2516.5" y1="747.3535" y2="747.3535"/><text fill="#000000" font-family="FG Virgil" font-size="13" lengthAdjust="spacing" textLength="143" x="747.5" y="742.0908">findByCode(courseCode)</text><polygon fill="#181818" points="751.5,774.6445,741.5,778.6445,751.5,782.6445,747.5,778.6445" style="stroke:#181818;stroke-width:1.0;"/><line style="stroke:#181818;stroke-width:1.0;" x1="745.5" x2="2526.5" y1="778.6445" y2="778.6445"/><text fill="#000000" font-family="FG Virgil" font-size="13" lengthAdjust="spacing" textLength="39" x="757.5" y="773.3818">course</text><polygon fill="#181818" points="1450.5,805.9355,1460.5,809.9355,1450.5,813.9355,1454.5,809.9355" style="stroke:#181818;stroke-width:1.0;"/><line style="stroke:#181818;stroke-width:1.0;" x1="740.5" x2="1456.5" y1="809.9355" y2="809.9355"/><text fill="#000000" font-family="FG Virgil" font-size="13" lengthAdjust="spacing" textLength="346" x="747.5" y="804.6729">evaluateFromFile(filePath, teacher, course, courseStudents)</text><polygon fill="#181818" points="1590,837.2266,1600,841.2266,1590,845.2266,1594,841.2266" style="stroke:#181818;stroke-width:1.0;"/><line style="stroke:#181818;stroke-width:1.0;" x1="1467.5" x2="1596" y1="841.2266" y2="841.2266"/><text fill="#000000" font-family="FG Virgil" font-size="13" lengthAdjust="spacing" textLength="35" x="1474.5" y="835.9639">build()</text><polygon fill="#181818" points="2369,868.5176,2379,872.5176,2369,876.5176,2373,872.5176" style="stroke:#181818;stroke-width:1.0;"/><line style="stroke:#181818;stroke-width:1.0;" x1="1612" x2="2375" y1="872.5176" y2="872.5176"/><text fill="#000000" font-family="FG Virgil" font-size="13" lengthAdjust="spacing" textLength="750" x="1619" y="867.2549">ExamTemplate(exanTitle, openDate, closeDate, examDescription, feedbackType, gradeType, sections, teacher, students, course)</text><polygon fill="#181818" points="1623,899.8086,1613,903.8086,1623,907.8086,1619,903.8086" style="stroke:#181818;stroke-width:1.0;"/><line style="stroke:#181818;stroke-width:1.0;stroke-dasharray:2.0,2.0;" x1="1617" x2="2385" y1="903.8086" y2="903.8086"/><text fill="#000000" font-family="FG Virgil" font-size="13" lengthAdjust="spacing" textLength="85" x="1629" y="898.5459">examTemplate</text><polygon fill="#181818" points="751.5,931.0996,741.5,935.0996,751.5,939.0996,747.5,935.0996" style="stroke:#181818;stroke-width:1.0;"/><line style="stroke:#181818;stroke-width:1.0;" x1="745.5" x2="1606" y1="935.0996" y2="935.0996"/><text fill="#000000" font-family="FG Virgil" font-size="13" lengthAdjust="spacing" textLength="85" x="757.5" y="929.8369">examTemplate</text><polygon fill="#181818" points="1149,962.3906,1159,966.3906,1149,970.3906,1153,966.3906" style="stroke:#181818;stroke-width:1.0;"/><line style="stroke:#181818;stroke-width:1.0;" x1="740.5" x2="1155" y1="966.3906" y2="966.3906"/><text fill="#000000" font-family="FG Virgil" font-size="13" lengthAdjust="spacing" textLength="75" x="747.5" y="961.1279">repositories()</text><polygon fill="#181818" points="1297,993.6816,1307,997.6816,1297,1001.6816,1301,997.6816" style="stroke:#181818;stroke-width:1.0;"/><line style="stroke:#181818;stroke-width:1.0;" x1="1171" x2="1303" y1="997.6816" y2="997.6816"/><text fill="#000000" font-family="FG Virgil" font-size="13" lengthAdjust="spacing" textLength="44" x="1178" y="992.4189">create()</text><polygon fill="#181818" points="751.5,1024.9727,741.5,1028.9727,751.5,1032.9727,747.5,1028.9727" style="stroke:#181818;stroke-width:1.0;"/><line style="stroke:#181818;stroke-width:1.0;" x1="745.5" x2="1165" y1="1028.9727" y2="1028.9727"/><text fill="#000000" font-family="FG Virgil" font-size="13" lengthAdjust="spacing" textLength="39" x="757.5" y="1023.71">factory</text><polygon fill="#181818" points="1292,1056.2637,1302,1060.2637,1292,1064.2637,1296,1060.2637" style="stroke:#181818;stroke-width:1.0;"/><line style="stroke:#181818;stroke-width:1.0;" x1="740.5" x2="1298" y1="1060.2637" y2="1060.2637"/><text fill="#000000" font-family="FG Virgil" font-size="13" lengthAdjust="spacing" textLength="43" x="747.5" y="1055.001">exans()</text><polygon fill="#181818" points="2639.5,1087.5547,2649.5,1091.5547,2639.5,1095.5547,2643.5,1091.5547" style="stroke:#181818;stroke-width:1.0;"/><line style="stroke:#181818;stroke-width:1.0;" x1="1314" x2="2645.5" y1="1091.5547" y2="1091.5547"/><text fill="#000000" font-family="FG Virgil" font-size="13" lengthAdjust="spacing" textLength="44" x="1321" y="1086.292">create()</text><polygon fill="#181818" points="751.5,1118.8457,741.5,1122.8457,751.5,1126.8457,747.5,1122.8457" style="stroke:#181818;stroke-width:1.0;"/><line style="stroke:#181818;stroke-width:1.0;" x1="745.5" x2="1308" y1="1122.8457" y2="1122.8457"/><text fill="#000000" font-family="FG Virgil" font-size="13" lengthAdjust="spacing" textLength="94" x="757.5" y="1117.583">examRepository</text><polygon fill="#181818" points="2634.5,1150.1367,2644.5,1154.1367,2634.5,1158.1367,2638.5,1154.1367" style="stroke:#181818;stroke-width:1.0;"/><line style="stroke:#181818;stroke-width:1.0;" x1="740.5" x2="2640.5" y1="1154.1367" y2="1154.1367"/><text fill="#000000" font-family="FG Virgil" font-size="13" lengthAdjust="spacing" textLength="119" x="747.5" y="1148.874">save(examTemplate)</text><polygon fill="#181818" points="751.5,1181.4277,741.5,1185.4277,751.5,1189.4277,747.5,1185.4277" style="stroke:#181818;stroke-width:1.0;"/><line style="stroke:#181818;stroke-width:1.0;stroke-dasharray:2.0,2.0;" x1="745.5" x2="2650.5" y1="1185.4277" y2="1185.4277"/><text fill="#000000" font-family="FG Virgil" font-size="13" lengthAdjust="spacing" textLength="85" x="757.5" y="1180.165">examTemplate</text><polygon fill="#181818" points="468.5,1212.7188,458.5,1216.7188,468.5,1220.7188,464.5,1216.7188" style="stroke:#181818;stroke-width:1.0;"/><line style="stroke:#181818;stroke-width:1.0;stroke-dasharray:2.0,2.0;" x1="462.5" x2="734.5" y1="1216.7188" y2="1216.7188"/><text fill="#000000" font-family="FG Virgil" font-size="13" lengthAdjust="spacing" textLength="85" x="474.5" y="1211.4561">examTemplate</text><polygon fill="#181818" points="241.5,1244.0098,231.5,1248.0098,241.5,1252.0098,237.5,1248.0098" style="stroke:#181818;stroke-width:1.0;"/><line style="stroke:#181818;stroke-width:1.0;stroke-dasharray:2.0,2.0;" x1="235.5" x2="451.5" y1="1248.0098" y2="1248.0098"/><text fill="#000000" font-family="FG Virgil" font-size="13" lengthAdjust="spacing" textLength="85" x="247.5" y="1242.7471">examTemplate</text><polygon fill="#181818" points="45.5,1275.3008,35.5,1279.3008,45.5,1283.3008,41.5,1279.3008" style="stroke:#181818;stroke-width:1.0;"/><line style="stroke:#181818;stroke-width:1.0;stroke-dasharray:2.0,2.0;" x1="39.5" x2="224.5" y1="1279.3008" y2="1279.3008"/><text fill="#000000" font-family="FG Virgil" font-size="13" lengthAdjust="spacing" textLength="162" x="51.5" y="1274.0381">show the operation success</text><!--SRC=[pLRDRjim3BxhAOHTbWBD7Y0m2gG_MNlOLZJfxgpD948LsP3ajDdJZv8jc_RYTSTTMbhaHtwaA3BkLPaAB1paeJHblhVb0QMtDGhNQIh8Ns67Qt_IA2tcdkaAt4Aj_Qeq_ZiGTFLL_bHsfpIpSNieoZTbTd8Bsg4GaFlIoWr2laShmSbbE11axLMkAZ1UtbW4ZtVlS7X-21RqDyigYmwD1wzAStKrONz3L6ofTUEPVMKPL9LM-Jbu07u3GraUAC0QxL7b6F19p3BNI2FWilPxGhHU6P0Kl_QJi6SwNgDpX8dPiSy0YT88yeZMAUVHv1YImdUVyWiY5QVNZv1FM9LEKOLFgrZvKm0cCSksZNIc8XiyL3gKzGYwXd1d1Em_ff8BqEjQwQAvWYHcsKiZZSm_vHgSM_20ds8WEY1GKHv0XM8KuE4575BEjNNOPzNK8PqHn7Og3Wl-XY3sDGA9s95oFhyAdRUGUMml2KOYUOaTh8xXvFb1a06PiKPBvhEBLjSuMr38ruZ_xEZTU53QfJWfJCpYfYpmKcwLnaVm-sd_8Q7PESW58zZZ17CHICK6PLpFgz6usY9hSon2jzw3MvhJZ-siBNofqNtPt2rlxk-UBaG33bcnncQXUdhHSY9q-mvcpD-W2grU53XoD_8t907ZLCX_VvszgU2mSUYQT3mknusYfvd0qkzWhUu3nEGzNqhVp52gQ0ArJCDCMCYkfnKw7hUr4CcIG6aUZ1gYrVQKscd1aq_UE0VcBX8VX6-L8Xb5pjtxPGoO0IjAuv0pI0u7HM0EjyeKrwTGF5R7GJsIiM2uCr67QNSW5hSVZ_Hs6XbNj5LNT6UpFoxkilMR_gzzNL1pEiQjSoXwrnGdJTM5Z5ELYiMezPZkgBKN2HUeXW6x64pw6Oqdir5U4wEoGdDBPyHDbmuRCOolMtIvLLLOUDIBYCKB_K3Od2fIxomKs8YEVYYGXMEvkZQxb2tFCepLI6W-I0uPkK66mPxbqb_K528LuFzzAQ7s7xqJjh8-UYSus7VddWix-hiXvpjWuE0OUwQhE9_jp2S3pV_fjXYs3pwUmbFWD5O7SpNjs2aGMvHnvRAzxVRbcwIj4Pw4ZJ_qfAlpdEQz62o11_4R]--></g></svg>