<?xml version="1.0" encoding="us-ascii" standalone="no"?><svg xmlns="http://www.w3.org/2000/svg" xmlns:xlink="http://www.w3.org/1999/xlink" contentStyleType="text/css" height="1684px" preserveAspectRatio="none" style="width:2658px;height:1684px;background:#FFFFFF;" version="1.1" viewBox="0 0 2658 1684" width="2658px" zoomAndPan="magnify"><defs/><g><rect fill="#FFFFFF" height="29.3105" style="stroke:#181818;stroke-width:1.0;" width="10" x="358.5" y="115.2871"/><rect fill="#FFFFFF" height="1398.0391" style="stroke:#181818;stroke-width:1.0;" width="10" x="358.5" y="173.9082"/><rect fill="#FFFFFF" height="205.1738" style="stroke:#181818;stroke-width:1.0;" width="10" x="579.5" y="261.8398"/><rect fill="#FFFFFF" height="1046.3125" style="stroke:#181818;stroke-width:1.0;" width="10" x="579.5" y="496.3242"/><rect fill="#FFFFFF" height="545.9004" style="stroke:#181818;stroke-width:1.0;" width="10" x="906.5" y="967.4258"/><rect fill="#FFFFFF" height="29.3105" style="stroke:#181818;stroke-width:1.0;" width="10" x="1112" y="203.2188"/><rect fill="#FFFFFF" height="29.3105" style="stroke:#181818;stroke-width:1.0;" width="10" x="1255.5" y="686.6758"/><rect fill="#FFFFFF" height="29.3105" style="stroke:#181818;stroke-width:1.0;" width="10" x="1392.5" y="908.8047"/><rect fill="#FFFFFF" height="29.3105" style="stroke:#181818;stroke-width:1.0;" width="10" x="1524" y="291.1504"/><rect fill="#FFFFFF" height="29.3105" style="stroke:#181818;stroke-width:1.0;" width="10" x="1675.5" y="349.7715"/><rect fill="#FFFFFF" height="29.3105" style="stroke:#181818;stroke-width:1.0;" width="10" x="1675.5" y="408.3926"/><rect fill="#FFFFFF" height="29.3105" style="stroke:#181818;stroke-width:1.0;" width="10" x="1818" y="996.7363"/><rect fill="#FFFFFF" height="47.9766" style="stroke:#181818;stroke-width:1.0;" width="10" x="2183" y="1377.418"/><rect fill="#FFFFFF" height="47.9766" style="stroke:#181818;stroke-width:1.0;" width="10" x="2320" y="609.3887"/><rect fill="#FFFFFF" height="127.1973" style="stroke:#181818;stroke-width:1.0;" width="10" x="2421.5" y="745.2969"/><rect fill="#FFFFFF" height="127.1973" style="stroke:#181818;stroke-width:1.0;" width="10" x="2421.5" y="1055.3574"/><rect fill="#FFFFFF" height="29.3105" style="stroke:#181818;stroke-width:1.0;" width="10" x="2557.5" y="1218.8652"/><rect fill="#FFFFFF" height="29.3105" style="stroke:#181818;stroke-width:1.0;" width="10" x="2557.5" y="1454.7051"/><rect fill="none" height="120.1973" style="stroke:#000000;stroke-width:1.5;" width="2463" x="10" y="760.2969"/><rect fill="none" height="120.1973" style="stroke:#000000;stroke-width:1.5;" width="2463" x="10" y="1070.3574"/><rect fill="none" height="75.9316" style="stroke:#000000;stroke-width:1.5;" width="1052" x="10" y="1263.1758"/><line style="stroke:#181818;stroke-width:0.5;stroke-dasharray:5.0,5.0;" x1="49" x2="49" y1="83.9766" y2="1589.9473"/><line style="stroke:#181818;stroke-width:0.5;stroke-dasharray:5.0,5.0;" x1="363.5" x2="363.5" y1="83.9766" y2="1589.9473"/><line style="stroke:#181818;stroke-width:0.5;stroke-dasharray:5.0,5.0;" x1="584.5" x2="584.5" y1="83.9766" y2="1589.9473"/><line style="stroke:#181818;stroke-width:0.5;stroke-dasharray:5.0,5.0;" x1="911" x2="911" y1="83.9766" y2="1589.9473"/><line style="stroke:#181818;stroke-width:0.5;stroke-dasharray:5.0,5.0;" x1="1117" x2="1117" y1="83.9766" y2="1589.9473"/><line style="stroke:#181818;stroke-width:0.5;stroke-dasharray:5.0,5.0;" x1="1260" x2="1260" y1="83.9766" y2="1589.9473"/><line style="stroke:#181818;stroke-width:0.5;stroke-dasharray:5.0,5.0;" x1="1397" x2="1397" y1="83.9766" y2="1589.9473"/><line style="stroke:#181818;stroke-width:0.5;stroke-dasharray:5.0,5.0;" x1="1529" x2="1529" y1="83.9766" y2="1589.9473"/><line style="stroke:#181818;stroke-width:0.5;stroke-dasharray:5.0,5.0;" x1="1680" x2="1680" y1="83.9766" y2="1589.9473"/><line style="stroke:#181818;stroke-width:0.5;stroke-dasharray:5.0,5.0;" x1="1823" x2="1823" y1="83.9766" y2="1589.9473"/><line style="stroke:#181818;stroke-width:0.5;stroke-dasharray:5.0,5.0;" x1="2001" x2="2001" y1="83.9766" y2="1589.9473"/><line style="stroke:#181818;stroke-width:0.5;stroke-dasharray:5.0,5.0;" x1="2188" x2="2188" y1="1385.0957" y2="1589.9473"/><line style="stroke:#181818;stroke-width:0.5;stroke-dasharray:5.0,5.0;" x1="2325" x2="2325" y1="617.0664" y2="1589.9473"/><line style="stroke:#181818;stroke-width:0.5;stroke-dasharray:5.0,5.0;" x1="2426" x2="2426" y1="83.9766" y2="1589.9473"/><line style="stroke:#181818;stroke-width:0.5;stroke-dasharray:5.0,5.0;" x1="2562" x2="2562" y1="83.9766" y2="1589.9473"/><text fill="#000000" font-family="sans-serif" font-size="14" lengthAdjust="spacing" textLength="53" x="20" y="81.0234">Student</text><ellipse cx="49.5" cy="15.9883" fill="#E2E2F0" rx="8" ry="8" style="stroke:#181818;stroke-width:0.5;"/><path d="M49.5,23.9883 L49.5,50.9883 M36.5,31.9883 L62.5,31.9883 M49.5,50.9883 L36.5,65.9883 M49.5,50.9883 L62.5,65.9883 " fill="none" style="stroke:#181818;stroke-width:0.5;"/><text fill="#000000" font-family="sans-serif" font-size="14" lengthAdjust="spacing" textLength="53" x="20" y="1602.4824">Student</text><ellipse cx="49.5" cy="1613.9355" fill="#E2E2F0" rx="8" ry="8" style="stroke:#181818;stroke-width:0.5;"/><path d="M49.5,1621.9355 L49.5,1648.9355 M36.5,1629.9355 L62.5,1629.9355 M49.5,1648.9355 L36.5,1663.9355 M49.5,1648.9355 L62.5,1663.9355 " fill="none" style="stroke:#181818;stroke-width:0.5;"/><rect fill="#E2E2F0" height="46.9766" rx="2.5" ry="2.5" style="stroke:#181818;stroke-width:0.5;" width="158" x="284.5" y="36"/><text fill="#000000" font-family="sans-serif" font-size="14" font-style="italic" lengthAdjust="spacing" textLength="101" x="313" y="56.5352">&#171;presentation&#187;</text><text fill="#000000" font-family="sans-serif" font-size="14" lengthAdjust="spacing" textLength="144" x="291.5" y="73.0234">RequestEnrollmentUI</text><rect fill="#E2E2F0" height="46.9766" rx="2.5" ry="2.5" style="stroke:#181818;stroke-width:0.5;" width="158" x="284.5" y="1588.9473"/><text fill="#000000" font-family="sans-serif" font-size="14" font-style="italic" lengthAdjust="spacing" textLength="101" x="313" y="1609.4824">&#171;presentation&#187;</text><text fill="#000000" font-family="sans-serif" font-size="14" lengthAdjust="spacing" textLength="144" x="291.5" y="1625.9707">RequestEnrollmentUI</text><rect fill="#E2E2F0" height="46.9766" rx="2.5" ry="2.5" style="stroke:#181818;stroke-width:0.5;" width="214" x="477.5" y="36"/><text fill="#000000" font-family="sans-serif" font-size="14" font-style="italic" lengthAdjust="spacing" textLength="90" x="539.5" y="56.5352">&#171;application&#187;</text><text fill="#000000" font-family="sans-serif" font-size="14" lengthAdjust="spacing" textLength="200" x="484.5" y="73.0234">RequestEnrollmentController</text><rect fill="#E2E2F0" height="46.9766" rx="2.5" ry="2.5" style="stroke:#181818;stroke-width:0.5;" width="214" x="477.5" y="1588.9473"/><text fill="#000000" font-family="sans-serif" font-size="14" font-style="italic" lengthAdjust="spacing" textLength="90" x="539.5" y="1609.4824">&#171;application&#187;</text><text fill="#000000" font-family="sans-serif" font-size="14" lengthAdjust="spacing" textLength="200" x="484.5" y="1625.9707">RequestEnrollmentController</text><rect fill="#E2E2F0" height="46.9766" rx="2.5" ry="2.5" style="stroke:#181818;stroke-width:0.5;" width="281" x="771" y="36"/><text fill="#000000" font-family="sans-serif" font-size="14" font-style="italic" lengthAdjust="spacing" textLength="61" x="881" y="56.5352">&#171;service&#187;</text><text fill="#000000" font-family="sans-serif" font-size="14" lengthAdjust="spacing" textLength="267" x="778" y="73.0234">EnrollmentRequestManagementService</text><rect fill="#E2E2F0" height="46.9766" rx="2.5" ry="2.5" style="stroke:#181818;stroke-width:0.5;" width="281" x="771" y="1588.9473"/><text fill="#000000" font-family="sans-serif" font-size="14" font-style="italic" lengthAdjust="spacing" textLength="61" x="881" y="1609.4824">&#171;service&#187;</text><text fill="#000000" font-family="sans-serif" font-size="14" lengthAdjust="spacing" textLength="267" x="778" y="1625.9707">EnrollmentRequestManagementService</text><rect fill="#E2E2F0" height="46.9766" rx="2.5" ry="2.5" style="stroke:#181818;stroke-width:0.5;" width="110" x="1062" y="36"/><text fill="#000000" font-family="sans-serif" font-size="14" font-style="italic" lengthAdjust="spacing" textLength="36" x="1099" y="56.5352">&#171;util&#187;</text><text fill="#000000" font-family="sans-serif" font-size="14" lengthAdjust="spacing" textLength="96" x="1069" y="73.0234">AuthzRegistry</text><rect fill="#E2E2F0" height="46.9766" rx="2.5" ry="2.5" style="stroke:#181818;stroke-width:0.5;" width="110" x="1062" y="1588.9473"/><text fill="#000000" font-family="sans-serif" font-size="14" font-style="italic" lengthAdjust="spacing" textLength="36" x="1099" y="1609.4824">&#171;util&#187;</text><text fill="#000000" font-family="sans-serif" font-size="14" lengthAdjust="spacing" textLength="96" x="1069" y="1625.9707">AuthzRegistry</text><rect fill="#E2E2F0" height="46.9766" rx="2.5" ry="2.5" style="stroke:#181818;stroke-width:0.5;" width="157" x="1182" y="36"/><text fill="#000000" font-family="sans-serif" font-size="14" font-style="italic" lengthAdjust="spacing" textLength="61" x="1230" y="56.5352">&#171;service&#187;</text><text fill="#000000" font-family="sans-serif" font-size="14" lengthAdjust="spacing" textLength="143" x="1189" y="73.0234">AuthorizationService</text><rect fill="#E2E2F0" height="46.9766" rx="2.5" ry="2.5" style="stroke:#181818;stroke-width:0.5;" width="157" x="1182" y="1588.9473"/><text fill="#000000" font-family="sans-serif" font-size="14" font-style="italic" lengthAdjust="spacing" textLength="61" x="1230" y="1609.4824">&#171;service&#187;</text><text fill="#000000" font-family="sans-serif" font-size="14" lengthAdjust="spacing" textLength="143" x="1189" y="1625.9707">AuthorizationService</text><rect fill="#E2E2F0" height="30.4883" rx="2.5" ry="2.5" style="stroke:#181818;stroke-width:0.5;" width="97" x="1349" y="52.4883"/><text fill="#000000" font-family="sans-serif" font-size="14" lengthAdjust="spacing" textLength="83" x="1356" y="73.0234">UserSession</text><rect fill="#E2E2F0" height="30.4883" rx="2.5" ry="2.5" style="stroke:#181818;stroke-width:0.5;" width="97" x="1349" y="1588.9473"/><text fill="#000000" font-family="sans-serif" font-size="14" lengthAdjust="spacing" textLength="83" x="1356" y="1609.4824">UserSession</text><rect fill="#E2E2F0" height="46.9766" rx="2.5" ry="2.5" style="stroke:#181818;stroke-width:0.5;" width="146" x="1456" y="36"/><text fill="#000000" font-family="sans-serif" font-size="14" font-style="italic" lengthAdjust="spacing" textLength="92" x="1483" y="56.5352">&#171;persistence&#187;</text><text fill="#000000" font-family="sans-serif" font-size="14" lengthAdjust="spacing" textLength="132" x="1463" y="73.0234">PersistenceContext</text><rect fill="#E2E2F0" height="46.9766" rx="2.5" ry="2.5" style="stroke:#181818;stroke-width:0.5;" width="146" x="1456" y="1588.9473"/><text fill="#000000" font-family="sans-serif" font-size="14" font-style="italic" lengthAdjust="spacing" textLength="92" x="1483" y="1609.4824">&#171;persistence&#187;</text><text fill="#000000" font-family="sans-serif" font-size="14" lengthAdjust="spacing" textLength="132" x="1463" y="1625.9707">PersistenceContext</text><rect fill="#E2E2F0" height="46.9766" rx="2.5" ry="2.5" style="stroke:#181818;stroke-width:0.5;" width="137" x="1612" y="36"/><text fill="#000000" font-family="sans-serif" font-size="14" font-style="italic" lengthAdjust="spacing" textLength="61" x="1650" y="56.5352">&#171;factory&#187;</text><text fill="#000000" font-family="sans-serif" font-size="14" lengthAdjust="spacing" textLength="123" x="1619" y="73.0234">RepositoryFactory</text><rect fill="#E2E2F0" height="46.9766" rx="2.5" ry="2.5" style="stroke:#181818;stroke-width:0.5;" width="137" x="1612" y="1588.9473"/><text fill="#000000" font-family="sans-serif" font-size="14" font-style="italic" lengthAdjust="spacing" textLength="61" x="1650" y="1609.4824">&#171;factory&#187;</text><text fill="#000000" font-family="sans-serif" font-size="14" lengthAdjust="spacing" textLength="123" x="1619" y="1625.9707">RepositoryFactory</text><text fill="#000000" font-family="sans-serif" font-size="14" font-style="italic" lengthAdjust="spacing" textLength="84" x="1778" y="64.5352">&#171;repository&#187;</text><text fill="#000000" font-family="sans-serif" font-size="14" lengthAdjust="spacing" textLength="122" x="1759" y="81.0234">CourseRepository</text><path d="M1805,15 C1805,5 1823,5 1823,5 C1823,5 1841,5 1841,15 L1841,41 C1841,51 1823,51 1823,51 C1823,51 1805,51 1805,41 L1805,15 " fill="#E2E2F0" style="stroke:#181818;stroke-width:1.5;"/><path d="M1805,15 C1805,25 1823,25 1823,25 C1823,25 1841,25 1841,15 " fill="none" style="stroke:#181818;stroke-width:1.5;"/><text fill="#000000" font-family="sans-serif" font-size="14" font-style="italic" lengthAdjust="spacing" textLength="84" x="1778" y="1602.4824">&#171;repository&#187;</text><text fill="#000000" font-family="sans-serif" font-size="14" lengthAdjust="spacing" textLength="122" x="1759" y="1618.9707">CourseRepository</text><path d="M1805,1631.9238 C1805,1621.9238 1823,1621.9238 1823,1621.9238 C1823,1621.9238 1841,1621.9238 1841,1631.9238 L1841,1657.9238 C1841,1667.9238 1823,1667.9238 1823,1667.9238 C1823,1667.9238 1805,1667.9238 1805,1657.9238 L1805,1631.9238 " fill="#E2E2F0" style="stroke:#181818;stroke-width:1.5;"/><path d="M1805,1631.9238 C1805,1641.9238 1823,1641.9238 1823,1641.9238 C1823,1641.9238 1841,1641.9238 1841,1631.9238 " fill="none" style="stroke:#181818;stroke-width:1.5;"/><text fill="#000000" font-family="sans-serif" font-size="14" font-style="italic" lengthAdjust="spacing" textLength="84" x="1956.5" y="64.5352">&#171;repository&#187;</text><text fill="#000000" font-family="sans-serif" font-size="14" lengthAdjust="spacing" textLength="203" x="1897" y="81.0234">EnrollmentRequestRepository</text><path d="M1983.5,15 C1983.5,5 2001.5,5 2001.5,5 C2001.5,5 2019.5,5 2019.5,15 L2019.5,41 C2019.5,51 2001.5,51 2001.5,51 C2001.5,51 1983.5,51 1983.5,41 L1983.5,15 " fill="#E2E2F0" style="stroke:#181818;stroke-width:1.5;"/><path d="M1983.5,15 C1983.5,25 2001.5,25 2001.5,25 C2001.5,25 2019.5,25 2019.5,15 " fill="none" style="stroke:#181818;stroke-width:1.5;"/><text fill="#000000" font-family="sans-serif" font-size="14" font-style="italic" lengthAdjust="spacing" textLength="84" x="1956.5" y="1602.4824">&#171;repository&#187;</text><text fill="#000000" font-family="sans-serif" font-size="14" lengthAdjust="spacing" textLength="203" x="1897" y="1618.9707">EnrollmentRequestRepository</text><path d="M1983.5,1631.9238 C1983.5,1621.9238 2001.5,1621.9238 2001.5,1621.9238 C2001.5,1621.9238 2019.5,1621.9238 2019.5,1631.9238 L2019.5,1657.9238 C2019.5,1667.9238 2001.5,1667.9238 2001.5,1667.9238 C2001.5,1667.9238 1983.5,1667.9238 1983.5,1657.9238 L1983.5,1631.9238 " fill="#E2E2F0" style="stroke:#181818;stroke-width:1.5;"/><path d="M1983.5,1631.9238 C1983.5,1641.9238 2001.5,1641.9238 2001.5,1641.9238 C2001.5,1641.9238 2019.5,1641.9238 2019.5,1631.9238 " fill="none" style="stroke:#181818;stroke-width:1.5;"/><rect fill="#E2E2F0" height="46.9766" rx="2.5" ry="2.5" style="stroke:#181818;stroke-width:0.5;" width="144" x="2116" y="1588.9473"/><text fill="#000000" font-family="sans-serif" font-size="14" font-style="italic" lengthAdjust="spacing" textLength="52" x="2162" y="1609.4824">&#171;entity&#187;</text><text fill="#000000" font-family="sans-serif" font-size="14" lengthAdjust="spacing" textLength="130" x="2123" y="1625.9707">EnrollmentRequest</text><rect fill="#E2E2F0" height="46.9766" rx="2.5" ry="2.5" style="stroke:#181818;stroke-width:0.5;" width="110" x="2270" y="1588.9473"/><text fill="#000000" font-family="sans-serif" font-size="14" font-style="italic" lengthAdjust="spacing" textLength="96" x="2277" y="1609.4824">&#171;value object&#187;</text><text fill="#000000" font-family="sans-serif" font-size="14" lengthAdjust="spacing" textLength="85" x="2282.5" y="1625.9707">CourseCode</text><rect fill="#E2E2F0" height="46.9766" rx="2.5" ry="2.5" style="stroke:#181818;stroke-width:0.5;" width="73" x="2390" y="36"/><text fill="#000000" font-family="sans-serif" font-size="14" font-style="italic" lengthAdjust="spacing" textLength="36" x="2408.5" y="56.5352">&#171;util&#187;</text><text fill="#000000" font-family="sans-serif" font-size="14" lengthAdjust="spacing" textLength="59" x="2397" y="73.0234">Optional</text><rect fill="#E2E2F0" height="46.9766" rx="2.5" ry="2.5" style="stroke:#181818;stroke-width:0.5;" width="73" x="2390" y="1588.9473"/><text fill="#000000" font-family="sans-serif" font-size="14" font-style="italic" lengthAdjust="spacing" textLength="36" x="2408.5" y="1609.4824">&#171;util&#187;</text><text fill="#000000" font-family="sans-serif" font-size="14" lengthAdjust="spacing" textLength="59" x="2397" y="1625.9707">Optional</text><rect fill="#E2E2F0" height="30.4883" rx="2.5" ry="2.5" style="stroke:#181818;stroke-width:0.5;" width="179" x="2473" y="52.4883"/><text fill="#000000" font-family="sans-serif" font-size="14" lengthAdjust="spacing" textLength="165" x="2480" y="73.0234">enrollmentRequestRepo</text><rect fill="#E2E2F0" height="30.4883" rx="2.5" ry="2.5" style="stroke:#181818;stroke-width:0.5;" width="179" x="2473" y="1588.9473"/><text fill="#000000" font-family="sans-serif" font-size="14" lengthAdjust="spacing" textLength="165" x="2480" y="1609.4824">enrollmentRequestRepo</text><rect fill="#FFFFFF" height="29.3105" style="stroke:#181818;stroke-width:1.0;" width="10" x="358.5" y="115.2871"/><rect fill="#FFFFFF" height="1398.0391" style="stroke:#181818;stroke-width:1.0;" width="10" x="358.5" y="173.9082"/><rect fill="#FFFFFF" height="205.1738" style="stroke:#181818;stroke-width:1.0;" width="10" x="579.5" y="261.8398"/><rect fill="#FFFFFF" height="1046.3125" style="stroke:#181818;stroke-width:1.0;" width="10" x="579.5" y="496.3242"/><rect fill="#FFFFFF" height="545.9004" style="stroke:#181818;stroke-width:1.0;" width="10" x="906.5" y="967.4258"/><rect fill="#FFFFFF" height="29.3105" style="stroke:#181818;stroke-width:1.0;" width="10" x="1112" y="203.2188"/><rect fill="#FFFFFF" height="29.3105" style="stroke:#181818;stroke-width:1.0;" width="10" x="1255.5" y="686.6758"/><rect fill="#FFFFFF" height="29.3105" style="stroke:#181818;stroke-width:1.0;" width="10" x="1392.5" y="908.8047"/><rect fill="#FFFFFF" height="29.3105" style="stroke:#181818;stroke-width:1.0;" width="10" x="1524" y="291.1504"/><rect fill="#FFFFFF" height="29.3105" style="stroke:#181818;stroke-width:1.0;" width="10" x="1675.5" y="349.7715"/><rect fill="#FFFFFF" height="29.3105" style="stroke:#181818;stroke-width:1.0;" width="10" x="1675.5" y="408.3926"/><rect fill="#FFFFFF" height="29.3105" style="stroke:#181818;stroke-width:1.0;" width="10" x="1818" y="996.7363"/><rect fill="#FFFFFF" height="47.9766" style="stroke:#181818;stroke-width:1.0;" width="10" x="2183" y="1377.418"/><rect fill="#FFFFFF" height="47.9766" style="stroke:#181818;stroke-width:1.0;" width="10" x="2320" y="609.3887"/><rect fill="#FFFFFF" height="127.1973" style="stroke:#181818;stroke-width:1.0;" width="10" x="2421.5" y="745.2969"/><rect fill="#FFFFFF" height="127.1973" style="stroke:#181818;stroke-width:1.0;" width="10" x="2421.5" y="1055.3574"/><rect fill="#FFFFFF" height="29.3105" style="stroke:#181818;stroke-width:1.0;" width="10" x="2557.5" y="1218.8652"/><rect fill="#FFFFFF" height="29.3105" style="stroke:#181818;stroke-width:1.0;" width="10" x="2557.5" y="1454.7051"/><polygon fill="#181818" points="346.5,111.2871,356.5,115.2871,346.5,119.2871,350.5,115.2871" style="stroke:#181818;stroke-width:1.0;"/><line style="stroke:#181818;stroke-width:1.0;" x1="49.5" x2="352.5" y1="115.2871" y2="115.2871"/><text fill="#000000" font-family="sans-serif" font-size="13" font-weight="bold" lengthAdjust="spacing" textLength="9" x="56.5" y="110.5449">1</text><text fill="#000000" font-family="sans-serif" font-size="13" lengthAdjust="spacing" textLength="119" x="69.5" y="110.5449">request enrollment</text><polygon fill="#181818" points="60.5,140.5977,50.5,144.5977,60.5,148.5977,56.5,144.5977" style="stroke:#181818;stroke-width:1.0;"/><line style="stroke:#181818;stroke-width:1.0;stroke-dasharray:2.0,2.0;" x1="54.5" x2="362.5" y1="144.5977" y2="144.5977"/><text fill="#000000" font-family="sans-serif" font-size="13" font-weight="bold" lengthAdjust="spacing" textLength="9" x="66.5" y="139.8555">2</text><text fill="#000000" font-family="sans-serif" font-size="13" lengthAdjust="spacing" textLength="131" x="79.5" y="139.8555">asks for course code</text><polygon fill="#181818" points="346.5,169.9082,356.5,173.9082,346.5,177.9082,350.5,173.9082" style="stroke:#181818;stroke-width:1.0;"/><line style="stroke:#181818;stroke-width:1.0;" x1="49.5" x2="352.5" y1="173.9082" y2="173.9082"/><text fill="#000000" font-family="sans-serif" font-size="13" font-weight="bold" lengthAdjust="spacing" textLength="9" x="56.5" y="169.166">3</text><text fill="#000000" font-family="sans-serif" font-size="13" lengthAdjust="spacing" textLength="112" x="69.5" y="169.166">enter course code</text><polygon fill="#181818" points="1100,199.2188,1110,203.2188,1100,207.2188,1104,203.2188" style="stroke:#181818;stroke-width:1.0;"/><line style="stroke:#181818;stroke-width:1.0;" x1="368.5" x2="1106" y1="203.2188" y2="203.2188"/><text fill="#000000" font-family="sans-serif" font-size="13" font-weight="bold" lengthAdjust="spacing" textLength="9" x="375.5" y="198.4766">4</text><text fill="#000000" font-family="sans-serif" font-size="13" lengthAdjust="spacing" textLength="136" x="388.5" y="198.4766">authorizationService()</text><polygon fill="#181818" points="379.5,228.5293,369.5,232.5293,379.5,236.5293,375.5,232.5293" style="stroke:#181818;stroke-width:1.0;"/><line style="stroke:#181818;stroke-width:1.0;stroke-dasharray:2.0,2.0;" x1="373.5" x2="1116" y1="232.5293" y2="232.5293"/><text fill="#000000" font-family="sans-serif" font-size="13" font-weight="bold" lengthAdjust="spacing" textLength="9" x="385.5" y="227.7871">5</text><text fill="#000000" font-family="sans-serif" font-size="13" lengthAdjust="spacing" textLength="79" x="398.5" y="227.7871">authzService</text><polygon fill="#181818" points="567.5,257.8398,577.5,261.8398,567.5,265.8398,571.5,261.8398" style="stroke:#181818;stroke-width:1.0;"/><line style="stroke:#181818;stroke-width:1.0;" x1="368.5" x2="573.5" y1="261.8398" y2="261.8398"/><text fill="#000000" font-family="sans-serif" font-size="13" font-weight="bold" lengthAdjust="spacing" textLength="9" x="375.5" y="257.0977">6</text><text fill="#000000" font-family="sans-serif" font-size="13" lengthAdjust="spacing" textLength="125" x="388.5" y="257.0977">create(authzService)</text><polygon fill="#181818" points="1512,287.1504,1522,291.1504,1512,295.1504,1516,291.1504" style="stroke:#181818;stroke-width:1.0;"/><line style="stroke:#181818;stroke-width:1.0;" x1="589.5" x2="1518" y1="291.1504" y2="291.1504"/><text fill="#000000" font-family="sans-serif" font-size="13" font-weight="bold" lengthAdjust="spacing" textLength="9" x="596.5" y="286.4082">7</text><text fill="#000000" font-family="sans-serif" font-size="13" lengthAdjust="spacing" textLength="83" x="609.5" y="286.4082">repositories()</text><polygon fill="#181818" points="600.5,316.4609,590.5,320.4609,600.5,324.4609,596.5,320.4609" style="stroke:#181818;stroke-width:1.0;"/><line style="stroke:#181818;stroke-width:1.0;stroke-dasharray:2.0,2.0;" x1="594.5" x2="1528" y1="320.4609" y2="320.4609"/><text fill="#000000" font-family="sans-serif" font-size="13" font-weight="bold" lengthAdjust="spacing" textLength="9" x="606.5" y="315.7188">8</text><text fill="#000000" font-family="sans-serif" font-size="13" lengthAdjust="spacing" textLength="110" x="619.5" y="315.7188">repositoryFactory</text><polygon fill="#181818" points="1663.5,345.7715,1673.5,349.7715,1663.5,353.7715,1667.5,349.7715" style="stroke:#181818;stroke-width:1.0;"/><line style="stroke:#181818;stroke-width:1.0;" x1="589.5" x2="1669.5" y1="349.7715" y2="349.7715"/><text fill="#000000" font-family="sans-serif" font-size="13" font-weight="bold" lengthAdjust="spacing" textLength="9" x="596.5" y="345.0293">9</text><text fill="#000000" font-family="sans-serif" font-size="13" lengthAdjust="spacing" textLength="57" x="609.5" y="345.0293">courses()</text><polygon fill="#181818" points="600.5,375.082,590.5,379.082,600.5,383.082,596.5,379.082" style="stroke:#181818;stroke-width:1.0;"/><line style="stroke:#181818;stroke-width:1.0;stroke-dasharray:2.0,2.0;" x1="594.5" x2="1679.5" y1="379.082" y2="379.082"/><text fill="#000000" font-family="sans-serif" font-size="13" font-weight="bold" lengthAdjust="spacing" textLength="18" x="606.5" y="374.3398">10</text><text fill="#000000" font-family="sans-serif" font-size="13" lengthAdjust="spacing" textLength="73" x="628.5" y="374.3398">courseRepo</text><polygon fill="#181818" points="1663.5,404.3926,1673.5,408.3926,1663.5,412.3926,1667.5,408.3926" style="stroke:#181818;stroke-width:1.0;"/><line style="stroke:#181818;stroke-width:1.0;" x1="589.5" x2="1669.5" y1="408.3926" y2="408.3926"/><text fill="#000000" font-family="sans-serif" font-size="13" font-weight="bold" lengthAdjust="spacing" textLength="18" x="596.5" y="403.6504">11</text><text fill="#000000" font-family="sans-serif" font-size="13" lengthAdjust="spacing" textLength="133" x="618.5" y="403.6504">enrollmentRequests()</text><polygon fill="#181818" points="600.5,433.7031,590.5,437.7031,600.5,441.7031,596.5,437.7031" style="stroke:#181818;stroke-width:1.0;"/><line style="stroke:#181818;stroke-width:1.0;stroke-dasharray:2.0,2.0;" x1="594.5" x2="1679.5" y1="437.7031" y2="437.7031"/><text fill="#000000" font-family="sans-serif" font-size="13" font-weight="bold" lengthAdjust="spacing" textLength="18" x="606.5" y="432.9609">12</text><text fill="#000000" font-family="sans-serif" font-size="13" lengthAdjust="spacing" textLength="149" x="628.5" y="432.9609">enrollmentRequestRepo</text><polygon fill="#181818" points="899.5,463.0137,909.5,467.0137,899.5,471.0137,903.5,467.0137" style="stroke:#181818;stroke-width:1.0;"/><line style="stroke:#181818;stroke-width:1.0;" x1="584.5" x2="905.5" y1="467.0137" y2="467.0137"/><text fill="#000000" font-family="sans-serif" font-size="13" font-weight="bold" lengthAdjust="spacing" textLength="18" x="591.5" y="462.2715">13</text><text fill="#000000" font-family="sans-serif" font-size="13" lengthAdjust="spacing" textLength="276" x="613.5" y="462.2715">create(courseRepo, enrollmentRequestRepo)</text><polygon fill="#181818" points="567.5,492.3242,577.5,496.3242,567.5,500.3242,571.5,496.3242" style="stroke:#181818;stroke-width:1.0;"/><line style="stroke:#181818;stroke-width:1.0;" x1="368.5" x2="573.5" y1="496.3242" y2="496.3242"/><text fill="#000000" font-family="sans-serif" font-size="13" font-weight="bold" lengthAdjust="spacing" textLength="18" x="375.5" y="491.582">14</text><text fill="#000000" font-family="sans-serif" font-size="13" lengthAdjust="spacing" textLength="170" x="397.5" y="491.582">createRequest(courseCode)</text><polygon fill="#181818" points="1248.5,521.6348,1258.5,525.6348,1248.5,529.6348,1252.5,525.6348" style="stroke:#181818;stroke-width:1.0;"/><line style="stroke:#181818;stroke-width:1.0;" x1="589.5" x2="1254.5" y1="525.6348" y2="525.6348"/><text fill="#000000" font-family="sans-serif" font-size="13" font-weight="bold" lengthAdjust="spacing" textLength="18" x="596.5" y="520.8926">15</text><text fill="#000000" font-family="sans-serif" font-size="13" lengthAdjust="spacing" textLength="370" x="618.5" y="520.8926">ensureAuthenticatedUserHasAnyOf(CourseRoles.STUDENT)</text><rect fill="none" height="39.4434" style="stroke:#000000;stroke-width:1.5;" width="191" x="1179" y="533.6348"/><path d="M1179,533.6348 L1243,533.6348 L1243,540.6348 L1233,550.6348 L1179,550.6348 L1179,533.6348 " fill="#EEEEEE" style="stroke:#000000;stroke-width:2.0;"/><text fill="#000000" font-family="sans-serif" font-size="13" font-weight="bold" lengthAdjust="spacing" textLength="19" x="1192" y="548.2031">ref</text><text fill="#000000" font-family="sans-serif" font-size="12" lengthAdjust="spacing" textLength="183" x="1183" y="566.2363">Implementation of authorization</text><polygon fill="#181818" points="2258,595.3887,2268,599.3887,2258,603.3887,2262,599.3887" style="stroke:#181818;stroke-width:1.0;"/><line style="stroke:#181818;stroke-width:1.0;" x1="589.5" x2="2264" y1="599.3887" y2="599.3887"/><text fill="#000000" font-family="sans-serif" font-size="13" font-weight="bold" lengthAdjust="spacing" textLength="18" x="596.5" y="594.6465">16</text><text fill="#000000" font-family="sans-serif" font-size="13" lengthAdjust="spacing" textLength="132" x="618.5" y="594.6465">of(courseCodeString)</text><rect fill="#E2E2F0" height="46.9766" rx="2.5" ry="2.5" style="stroke:#181818;stroke-width:0.5;" width="110" x="2270" y="578.0781"/><text fill="#000000" font-family="sans-serif" font-size="14" font-style="italic" lengthAdjust="spacing" textLength="96" x="2277" y="598.6133">&#171;value object&#187;</text><text fill="#000000" font-family="sans-serif" font-size="14" lengthAdjust="spacing" textLength="85" x="2282.5" y="615.1016">CourseCode</text><polygon fill="#181818" points="600.5,653.3652,590.5,657.3652,600.5,661.3652,596.5,657.3652" style="stroke:#181818;stroke-width:1.0;"/><line style="stroke:#181818;stroke-width:1.0;stroke-dasharray:2.0,2.0;" x1="594.5" x2="2324" y1="657.3652" y2="657.3652"/><text fill="#000000" font-family="sans-serif" font-size="13" font-weight="bold" lengthAdjust="spacing" textLength="18" x="606.5" y="652.623">17</text><text fill="#000000" font-family="sans-serif" font-size="13" lengthAdjust="spacing" textLength="74" x="628.5" y="652.623">courseCode</text><polygon fill="#181818" points="1243.5,682.6758,1253.5,686.6758,1243.5,690.6758,1247.5,686.6758" style="stroke:#181818;stroke-width:1.0;"/><line style="stroke:#181818;stroke-width:1.0;" x1="589.5" x2="1249.5" y1="686.6758" y2="686.6758"/><text fill="#000000" font-family="sans-serif" font-size="13" font-weight="bold" lengthAdjust="spacing" textLength="18" x="596.5" y="681.9336">18</text><text fill="#000000" font-family="sans-serif" font-size="13" lengthAdjust="spacing" textLength="56" x="618.5" y="681.9336">session()</text><polygon fill="#181818" points="600.5,711.9863,590.5,715.9863,600.5,719.9863,596.5,715.9863" style="stroke:#181818;stroke-width:1.0;"/><line style="stroke:#181818;stroke-width:1.0;stroke-dasharray:2.0,2.0;" x1="594.5" x2="1259.5" y1="715.9863" y2="715.9863"/><text fill="#000000" font-family="sans-serif" font-size="13" font-weight="bold" lengthAdjust="spacing" textLength="18" x="606.5" y="711.2441">19</text><text fill="#000000" font-family="sans-serif" font-size="13" lengthAdjust="spacing" textLength="102" x="628.5" y="711.2441">sessionOptional</text><polygon fill="#181818" points="2409.5,741.2969,2419.5,745.2969,2409.5,749.2969,2413.5,745.2969" style="stroke:#181818;stroke-width:1.0;"/><line style="stroke:#181818;stroke-width:1.0;" x1="589.5" x2="2415.5" y1="745.2969" y2="745.2969"/><text fill="#000000" font-family="sans-serif" font-size="13" font-weight="bold" lengthAdjust="spacing" textLength="18" x="596.5" y="740.5547">20</text><text fill="#000000" font-family="sans-serif" font-size="13" lengthAdjust="spacing" textLength="85" x="618.5" y="740.5547">orElseThrow()</text><path d="M10,760.2969 L72,760.2969 L72,767.6074 L62,777.6074 L10,777.6074 L10,760.2969 " fill="#EEEEEE" style="stroke:#000000;stroke-width:1.5;"/><rect fill="none" height="120.1973" style="stroke:#000000;stroke-width:1.5;" width="2463" x="10" y="760.2969"/><text fill="#000000" font-family="sans-serif" font-size="13" font-weight="bold" lengthAdjust="spacing" textLength="17" x="25" y="773.8652">alt</text><text fill="#000000" font-family="sans-serif" font-size="11" font-weight="bold" lengthAdjust="spacing" textLength="110" x="87" y="772.9316">[user is not logged]</text><polygon fill="#181818" points="379.5,794.918,369.5,798.918,379.5,802.918,375.5,798.918" style="stroke:#181818;stroke-width:1.0;"/><line style="stroke:#181818;stroke-width:1.0;stroke-dasharray:2.0,2.0;" x1="373.5" x2="2420.5" y1="798.918" y2="798.918"/><text fill="#000000" font-family="sans-serif" font-size="13" font-weight="bold" lengthAdjust="spacing" textLength="18" x="385.5" y="794.1758">21</text><text fill="#000000" font-family="sans-serif" font-size="13" lengthAdjust="spacing" textLength="404" x="407.5" y="794.1758">throw new IllegalArgumentException("There is no user Logged.")</text><polygon fill="#181818" points="60.5,824.2285,50.5,828.2285,60.5,832.2285,56.5,828.2285" style="stroke:#181818;stroke-width:1.0;"/><line style="stroke:#181818;stroke-width:1.0;stroke-dasharray:2.0,2.0;" x1="54.5" x2="357.5" y1="828.2285" y2="828.2285"/><text fill="#000000" font-family="sans-serif" font-size="13" font-weight="bold" lengthAdjust="spacing" textLength="18" x="66.5" y="823.4863">22</text><text fill="#000000" font-family="sans-serif" font-size="13" lengthAdjust="spacing" textLength="114" x="88.5" y="823.4863">user is not logged</text><line style="stroke:#000000;stroke-width:1.0;stroke-dasharray:2.0,2.0;" x1="10" x2="2473" y1="837.2285" y2="837.2285"/><text fill="#000000" font-family="sans-serif" font-size="11" font-weight="bold" lengthAdjust="spacing" textLength="88" x="15" y="847.8633">[user is logged]</text><polygon fill="#181818" points="600.5,868.4941,590.5,872.4941,600.5,876.4941,596.5,872.4941" style="stroke:#181818;stroke-width:1.0;"/><line style="stroke:#181818;stroke-width:1.0;stroke-dasharray:2.0,2.0;" x1="594.5" x2="2425.5" y1="872.4941" y2="872.4941"/><text fill="#000000" font-family="sans-serif" font-size="13" font-weight="bold" lengthAdjust="spacing" textLength="18" x="606.5" y="867.752">23</text><text fill="#000000" font-family="sans-serif" font-size="13" lengthAdjust="spacing" textLength="48" x="628.5" y="867.752">session</text><polygon fill="#181818" points="1380.5,904.8047,1390.5,908.8047,1380.5,912.8047,1384.5,908.8047" style="stroke:#181818;stroke-width:1.0;"/><line style="stroke:#181818;stroke-width:1.0;" x1="589.5" x2="1386.5" y1="908.8047" y2="908.8047"/><text fill="#000000" font-family="sans-serif" font-size="13" font-weight="bold" lengthAdjust="spacing" textLength="18" x="596.5" y="904.0625">24</text><text fill="#000000" font-family="sans-serif" font-size="13" lengthAdjust="spacing" textLength="122" x="618.5" y="904.0625">authenticatedUser()</text><polygon fill="#181818" points="600.5,934.1152,590.5,938.1152,600.5,942.1152,596.5,938.1152" style="stroke:#181818;stroke-width:1.0;"/><line style="stroke:#181818;stroke-width:1.0;stroke-dasharray:2.0,2.0;" x1="594.5" x2="1396.5" y1="938.1152" y2="938.1152"/><text fill="#000000" font-family="sans-serif" font-size="13" font-weight="bold" lengthAdjust="spacing" textLength="18" x="606.5" y="933.373">25</text><text fill="#000000" font-family="sans-serif" font-size="13" lengthAdjust="spacing" textLength="27" x="628.5" y="933.373">user</text><polygon fill="#181818" points="894.5,963.4258,904.5,967.4258,894.5,971.4258,898.5,967.4258" style="stroke:#181818;stroke-width:1.0;"/><line style="stroke:#181818;stroke-width:1.0;" x1="589.5" x2="900.5" y1="967.4258" y2="967.4258"/><text fill="#000000" font-family="sans-serif" font-size="13" font-weight="bold" lengthAdjust="spacing" textLength="18" x="596.5" y="962.6836">26</text><text fill="#000000" font-family="sans-serif" font-size="13" lengthAdjust="spacing" textLength="205" x="618.5" y="962.6836">createRequest(courseCode, user)</text><polygon fill="#181818" points="1806,992.7363,1816,996.7363,1806,1000.7363,1810,996.7363" style="stroke:#181818;stroke-width:1.0;"/><line style="stroke:#181818;stroke-width:1.0;" x1="916.5" x2="1812" y1="996.7363" y2="996.7363"/><text fill="#000000" font-family="sans-serif" font-size="13" font-weight="bold" lengthAdjust="spacing" textLength="18" x="923.5" y="991.9941">27</text><text fill="#000000" font-family="sans-serif" font-size="13" lengthAdjust="spacing" textLength="153" x="945.5" y="991.9941">findByCode(courseCode)</text><polygon fill="#181818" points="927.5,1022.0469,917.5,1026.0469,927.5,1030.0469,923.5,1026.0469" style="stroke:#181818;stroke-width:1.0;"/><line style="stroke:#181818;stroke-width:1.0;stroke-dasharray:2.0,2.0;" x1="921.5" x2="1822" y1="1026.0469" y2="1026.0469"/><text fill="#000000" font-family="sans-serif" font-size="13" font-weight="bold" lengthAdjust="spacing" textLength="18" x="933.5" y="1021.3047">28</text><text fill="#000000" font-family="sans-serif" font-size="13" lengthAdjust="spacing" textLength="96" x="955.5" y="1021.3047">courseOptional</text><polygon fill="#181818" points="2409.5,1051.3574,2419.5,1055.3574,2409.5,1059.3574,2413.5,1055.3574" style="stroke:#181818;stroke-width:1.0;"/><line style="stroke:#181818;stroke-width:1.0;" x1="916.5" x2="2415.5" y1="1055.3574" y2="1055.3574"/><text fill="#000000" font-family="sans-serif" font-size="13" font-weight="bold" lengthAdjust="spacing" textLength="18" x="923.5" y="1050.6152">29</text><text fill="#000000" font-family="sans-serif" font-size="13" lengthAdjust="spacing" textLength="85" x="945.5" y="1050.6152">orElseThrow()</text><path d="M10,1070.3574 L72,1070.3574 L72,1077.668 L62,1087.668 L10,1087.668 L10,1070.3574 " fill="#EEEEEE" style="stroke:#000000;stroke-width:1.5;"/><rect fill="none" height="120.1973" style="stroke:#000000;stroke-width:1.5;" width="2463" x="10" y="1070.3574"/><text fill="#000000" font-family="sans-serif" font-size="13" font-weight="bold" lengthAdjust="spacing" textLength="17" x="25" y="1083.9258">alt</text><text fill="#000000" font-family="sans-serif" font-size="11" font-weight="bold" lengthAdjust="spacing" textLength="127" x="87" y="1082.9922">[course does not exist]</text><polygon fill="#181818" points="379.5,1104.9785,369.5,1108.9785,379.5,1112.9785,375.5,1108.9785" style="stroke:#181818;stroke-width:1.0;"/><line style="stroke:#181818;stroke-width:1.0;stroke-dasharray:2.0,2.0;" x1="373.5" x2="2420.5" y1="1108.9785" y2="1108.9785"/><text fill="#000000" font-family="sans-serif" font-size="13" font-weight="bold" lengthAdjust="spacing" textLength="18" x="385.5" y="1104.2363">30</text><text fill="#000000" font-family="sans-serif" font-size="13" lengthAdjust="spacing" textLength="391" x="407.5" y="1104.2363">throw new IllegalArgumentException("Course does not exist.")</text><polygon fill="#181818" points="60.5,1134.2891,50.5,1138.2891,60.5,1142.2891,56.5,1138.2891" style="stroke:#181818;stroke-width:1.0;"/><line style="stroke:#181818;stroke-width:1.0;stroke-dasharray:2.0,2.0;" x1="54.5" x2="357.5" y1="1138.2891" y2="1138.2891"/><text fill="#000000" font-family="sans-serif" font-size="13" font-weight="bold" lengthAdjust="spacing" textLength="18" x="66.5" y="1133.5469">31</text><text fill="#000000" font-family="sans-serif" font-size="13" lengthAdjust="spacing" textLength="138" x="88.5" y="1133.5469">no such course exists</text><line style="stroke:#000000;stroke-width:1.0;stroke-dasharray:2.0,2.0;" x1="10" x2="2473" y1="1147.2891" y2="1147.2891"/><text fill="#000000" font-family="sans-serif" font-size="11" font-weight="bold" lengthAdjust="spacing" textLength="81" x="15" y="1157.9238">[course exists]</text><polygon fill="#181818" points="927.5,1178.5547,917.5,1182.5547,927.5,1186.5547,923.5,1182.5547" style="stroke:#181818;stroke-width:1.0;"/><line style="stroke:#181818;stroke-width:1.0;stroke-dasharray:2.0,2.0;" x1="921.5" x2="2425.5" y1="1182.5547" y2="1182.5547"/><text fill="#000000" font-family="sans-serif" font-size="13" font-weight="bold" lengthAdjust="spacing" textLength="18" x="933.5" y="1177.8125">32</text><text fill="#000000" font-family="sans-serif" font-size="13" lengthAdjust="spacing" textLength="42" x="955.5" y="1177.8125">course</text><polygon fill="#181818" points="2545.5,1214.8652,2555.5,1218.8652,2545.5,1222.8652,2549.5,1218.8652" style="stroke:#181818;stroke-width:1.0;"/><line style="stroke:#181818;stroke-width:1.0;" x1="916.5" x2="2551.5" y1="1218.8652" y2="1218.8652"/><text fill="#000000" font-family="sans-serif" font-size="13" font-weight="bold" lengthAdjust="spacing" textLength="18" x="923.5" y="1214.123">33</text><text fill="#000000" font-family="sans-serif" font-size="13" lengthAdjust="spacing" textLength="221" x="945.5" y="1214.123">findByCourseAndUser(course, user)</text><polygon fill="#181818" points="927.5,1244.1758,917.5,1248.1758,927.5,1252.1758,923.5,1248.1758" style="stroke:#181818;stroke-width:1.0;"/><line style="stroke:#181818;stroke-width:1.0;stroke-dasharray:2.0,2.0;" x1="921.5" x2="2561.5" y1="1248.1758" y2="1248.1758"/><text fill="#000000" font-family="sans-serif" font-size="13" font-weight="bold" lengthAdjust="spacing" textLength="18" x="933.5" y="1243.4336">34</text><text fill="#000000" font-family="sans-serif" font-size="13" lengthAdjust="spacing" textLength="47" x="955.5" y="1243.4336">request</text><path d="M10,1263.1758 L72,1263.1758 L72,1270.4863 L62,1280.4863 L10,1280.4863 L10,1263.1758 " fill="#EEEEEE" style="stroke:#000000;stroke-width:1.5;"/><rect fill="none" height="75.9316" style="stroke:#000000;stroke-width:1.5;" width="1052" x="10" y="1263.1758"/><text fill="#000000" font-family="sans-serif" font-size="13" font-weight="bold" lengthAdjust="spacing" textLength="17" x="25" y="1276.7441">alt</text><text fill="#000000" font-family="sans-serif" font-size="11" font-weight="bold" lengthAdjust="spacing" textLength="91" x="87" y="1275.8105">[request != null]</text><polygon fill="#181818" points="379.5,1297.7969,369.5,1301.7969,379.5,1305.7969,375.5,1301.7969" style="stroke:#181818;stroke-width:1.0;"/><line style="stroke:#181818;stroke-width:1.0;stroke-dasharray:2.0,2.0;" x1="373.5" x2="905.5" y1="1301.7969" y2="1301.7969"/><text fill="#000000" font-family="sans-serif" font-size="13" font-weight="bold" lengthAdjust="spacing" textLength="18" x="385.5" y="1297.0547">35</text><text fill="#000000" font-family="sans-serif" font-size="13" lengthAdjust="spacing" textLength="394" x="407.5" y="1297.0547">throw new IllegalArgumentException("Request already exists.")</text><polygon fill="#181818" points="60.5,1327.1074,50.5,1331.1074,60.5,1335.1074,56.5,1331.1074" style="stroke:#181818;stroke-width:1.0;"/><line style="stroke:#181818;stroke-width:1.0;stroke-dasharray:2.0,2.0;" x1="54.5" x2="357.5" y1="1331.1074" y2="1331.1074"/><text fill="#000000" font-family="sans-serif" font-size="13" font-weight="bold" lengthAdjust="spacing" textLength="18" x="66.5" y="1326.3652">36</text><text fill="#000000" font-family="sans-serif" font-size="13" lengthAdjust="spacing" textLength="210" x="88.5" y="1326.3652">enrollment request already exists</text><polygon fill="#181818" points="2104,1363.418,2114,1367.418,2104,1371.418,2108,1367.418" style="stroke:#181818;stroke-width:1.0;"/><line style="stroke:#181818;stroke-width:1.0;" x1="916.5" x2="2110" y1="1367.418" y2="1367.418"/><text fill="#000000" font-family="sans-serif" font-size="13" font-weight="bold" lengthAdjust="spacing" textLength="18" x="923.5" y="1362.6758">37</text><text fill="#000000" font-family="sans-serif" font-size="13" lengthAdjust="spacing" textLength="144" x="945.5" y="1362.6758">create(student, course)</text><rect fill="#E2E2F0" height="46.9766" rx="2.5" ry="2.5" style="stroke:#181818;stroke-width:0.5;" width="144" x="2116" y="1346.1074"/><text fill="#000000" font-family="sans-serif" font-size="14" font-style="italic" lengthAdjust="spacing" textLength="52" x="2162" y="1366.6426">&#171;entity&#187;</text><text fill="#000000" font-family="sans-serif" font-size="14" lengthAdjust="spacing" textLength="130" x="2123" y="1383.1309">EnrollmentRequest</text><polygon fill="#181818" points="927.5,1421.3945,917.5,1425.3945,927.5,1429.3945,923.5,1425.3945" style="stroke:#181818;stroke-width:1.0;"/><line style="stroke:#181818;stroke-width:1.0;stroke-dasharray:2.0,2.0;" x1="921.5" x2="2187" y1="1425.3945" y2="1425.3945"/><text fill="#000000" font-family="sans-serif" font-size="13" font-weight="bold" lengthAdjust="spacing" textLength="18" x="933.5" y="1420.6523">38</text><text fill="#000000" font-family="sans-serif" font-size="13" lengthAdjust="spacing" textLength="47" x="955.5" y="1420.6523">request</text><polygon fill="#181818" points="2545.5,1450.7051,2555.5,1454.7051,2545.5,1458.7051,2549.5,1454.7051" style="stroke:#181818;stroke-width:1.0;"/><line style="stroke:#181818;stroke-width:1.0;" x1="916.5" x2="2551.5" y1="1454.7051" y2="1454.7051"/><text fill="#000000" font-family="sans-serif" font-size="13" font-weight="bold" lengthAdjust="spacing" textLength="18" x="923.5" y="1449.9629">39</text><text fill="#000000" font-family="sans-serif" font-size="13" lengthAdjust="spacing" textLength="83" x="945.5" y="1449.9629">save(request)</text><polygon fill="#181818" points="927.5,1480.0156,917.5,1484.0156,927.5,1488.0156,923.5,1484.0156" style="stroke:#181818;stroke-width:1.0;"/><line style="stroke:#181818;stroke-width:1.0;stroke-dasharray:2.0,2.0;" x1="921.5" x2="2561.5" y1="1484.0156" y2="1484.0156"/><text fill="#000000" font-family="sans-serif" font-size="13" font-weight="bold" lengthAdjust="spacing" textLength="18" x="933.5" y="1479.2734">40</text><text fill="#000000" font-family="sans-serif" font-size="13" lengthAdjust="spacing" textLength="109" x="955.5" y="1479.2734">request(mirrored)</text><polygon fill="#181818" points="600.5,1509.3262,590.5,1513.3262,600.5,1517.3262,596.5,1513.3262" style="stroke:#181818;stroke-width:1.0;"/><line style="stroke:#181818;stroke-width:1.0;stroke-dasharray:2.0,2.0;" x1="594.5" x2="910.5" y1="1513.3262" y2="1513.3262"/><text fill="#000000" font-family="sans-serif" font-size="13" font-weight="bold" lengthAdjust="spacing" textLength="18" x="606.5" y="1508.584">41</text><text fill="#000000" font-family="sans-serif" font-size="13" lengthAdjust="spacing" textLength="47" x="628.5" y="1508.584">request</text><polygon fill="#181818" points="379.5,1538.6367,369.5,1542.6367,379.5,1546.6367,375.5,1542.6367" style="stroke:#181818;stroke-width:1.0;"/><line style="stroke:#181818;stroke-width:1.0;stroke-dasharray:2.0,2.0;" x1="373.5" x2="583.5" y1="1542.6367" y2="1542.6367"/><text fill="#000000" font-family="sans-serif" font-size="13" font-weight="bold" lengthAdjust="spacing" textLength="18" x="385.5" y="1537.8945">42</text><text fill="#000000" font-family="sans-serif" font-size="13" lengthAdjust="spacing" textLength="47" x="407.5" y="1537.8945">request</text><polygon fill="#181818" points="60.5,1567.9473,50.5,1571.9473,60.5,1575.9473,56.5,1571.9473" style="stroke:#181818;stroke-width:1.0;"/><line style="stroke:#181818;stroke-width:1.0;stroke-dasharray:2.0,2.0;" x1="54.5" x2="362.5" y1="1571.9473" y2="1571.9473"/><text fill="#000000" font-family="sans-serif" font-size="13" font-weight="bold" lengthAdjust="spacing" textLength="18" x="66.5" y="1567.2051">43</text><text fill="#000000" font-family="sans-serif" font-size="13" lengthAdjust="spacing" textLength="263" x="88.5" y="1567.2051">informs request was created with success</text><!--SRC=[hLRRSjis47tdLw1vYPInx7SDwnb7TIQUQPkEPNy0JAuaD1310g0ivUkx2u00ID6NTAeNWS3ksTlP1Jxkh6tDykggbRontLvULcf_PU2V3feA5hNWMyttHS4xgvfk_mGQrvLLcgrjLqDZ6JVC-6LHj5nRKOaMeTWzOHXxssWbvHwF7-z8jXEiB5iD1dUu5Qgvldv3RwKQIslGf5zPBH61jwqKrIH0qWnGV_26Ru4srg0FeWBdyw526ECt4297kEdixiSzR8Mn-aJ2kb-NPMU5d11NMlnmtcGcEC6yQEGHjzTW3EgulAJFOJX_WJPedCf1cO2ZzMauKXxJsGZz7bfb1DRfzCMLAuJHglwpB3T-HUchkULFt01RgKuRIChELDn39HsFK2-gdQLyYA3JvXZYrSAHBfnjbYL-27iQrztxlb8r9A_TLraUkEo0gQU_eR8ZezzQgXgNfADQcofS587MR76Dh5tsKMGUKIU80xU0vmKIUu6IGMc9UDyDss2ZU4_mhuQYXbnbR06NC9GVI9E5wyZ5fUFNc7UpUTBf9Oj8tqKmv9WPD7AVeeOtHRssP9K6F9lbEfaHaYbSKpg5uvB5-Wemiu7aiI3QBYAo7fCqzyMBUzoCkCkG7pECD9uNEScJgKJYORn9RzhO6Vr-qYvCTSQRBk1mYdbFdbzCeys7MSDoJ9GloCzIMunh68sxGfFdfjD0iutQ3KSjr3Iold9pqvo-RMPXL2W9vdBzyFZRxPyFSqp2Xga3JMe2AHZ-xlQjTCFNqPIfpP2t1JGr9c6Jx2SNFtrQedpcyzfgqMnpp-DHaJNykEohKUlbMiEWZP_0UOrz97wM9-0Ws4-F7DqhzC0uKp08VIiDFEoqUiwXyGnlKsdTy6V2i4PP9jLs2xLB7SsZlcKjARC6djaTNeLRBc_qjgEqtXuhS5xCFZpiG8F7yP2_EwpB3tC7DvvG4rO1tOpx4vuCWdSdMU0K3bKJ8qhLpEurFtS6RCgpaT-0sJgpIxk34PhVcHEzSqxw2wUJ6KLf7CFu5eZ4evPQierewiydKdcXPT8yoUx7HRJlzgROaIa6i-zYIBWKQWM-Nd34GVsVIBAQGdg98aWaqrMxthoJDPubmwtSaom3hr8an3yvr5852EQcyMpne6T5d1woaxl9mN2TvxMPnd7vxo__NtvbJIUbYylvxpBFtfVw-AoHIC_w57BtKkwJDz7wKF7jJD803TT8WBq8XNajU-UP-xcilLLPmmym2q3_KnLdUw6rqb3Ftr7Flcxz8-Gi8ZSK_3mPllscRzgyQAB19zy-FddPCpr5NGLgzYpiZjgfmf4rVWaMnRy0]--></g></svg>