<?xml version="1.0" encoding="us-ascii" standalone="no"?><svg xmlns="http://www.w3.org/2000/svg" xmlns:xlink="http://www.w3.org/1999/xlink" contentStyleType="text/css" height="1752px" preserveAspectRatio="none" style="width:2739px;height:1752px;background:#FFFFFF;" version="1.1" viewBox="0 0 2739 1752" width="2739px" zoomAndPan="magnify"><defs/><g><rect fill="#FFFFFF" height="29.3105" style="stroke:#181818;stroke-width:1.0;" width="10" x="358.5" y="112.7988"/><rect fill="#FFFFFF" height="1482.3047" style="stroke:#181818;stroke-width:1.0;" width="10" x="358.5" y="171.4199"/><rect fill="#FFFFFF" height="322.416" style="stroke:#181818;stroke-width:1.0;" width="10" x="579.5" y="259.3516"/><rect fill="#FFFFFF" height="1013.3359" style="stroke:#181818;stroke-width:1.0;" width="10" x="579.5" y="611.0781"/><rect fill="#FFFFFF" height="529.4121" style="stroke:#181818;stroke-width:1.0;" width="10" x="998.5" y="1065.6914"/><rect fill="#FFFFFF" height="29.3105" style="stroke:#181818;stroke-width:1.0;" width="10" x="1204" y="200.7305"/><rect fill="#FFFFFF" height="29.3105" style="stroke:#181818;stroke-width:1.0;" width="10" x="1347.5" y="784.9414"/><rect fill="#FFFFFF" height="29.3105" style="stroke:#181818;stroke-width:1.0;" width="10" x="1484.5" y="1007.0703"/><rect fill="#FFFFFF" height="29.3105" style="stroke:#181818;stroke-width:1.0;" width="10" x="1616" y="288.6621"/><rect fill="#FFFFFF" height="29.3105" style="stroke:#181818;stroke-width:1.0;" width="10" x="1767.5" y="347.2832"/><rect fill="#FFFFFF" height="29.3105" style="stroke:#181818;stroke-width:1.0;" width="10" x="1767.5" y="405.9043"/><rect fill="#FFFFFF" height="29.3105" style="stroke:#181818;stroke-width:1.0;" width="10" x="1767.5" y="464.5254"/><rect fill="#FFFFFF" height="29.3105" style="stroke:#181818;stroke-width:1.0;" width="10" x="1767.5" y="523.1465"/><rect fill="#FFFFFF" height="29.3105" style="stroke:#181818;stroke-width:1.0;" width="10" x="1910" y="1095.002"/><rect fill="#FFFFFF" height="31.4883" style="stroke:#181818;stroke-width:1.0;" width="10" x="2275" y="1475.6836"/><rect fill="#FFFFFF" height="31.4883" style="stroke:#181818;stroke-width:1.0;" width="10" x="2406.5" y="724.1426"/><rect fill="#FFFFFF" height="127.1973" style="stroke:#181818;stroke-width:1.0;" width="10" x="2502.5" y="843.5625"/><rect fill="#FFFFFF" height="127.1973" style="stroke:#181818;stroke-width:1.0;" width="10" x="2502.5" y="1153.623"/><rect fill="#FFFFFF" height="29.3105" style="stroke:#181818;stroke-width:1.0;" width="10" x="2638.5" y="1317.1309"/><rect fill="#FFFFFF" height="29.3105" style="stroke:#181818;stroke-width:1.0;" width="10" x="2638.5" y="1536.4824"/><rect fill="none" height="120.1973" style="stroke:#000000;stroke-width:1.5;" width="2544" x="10" y="858.5625"/><rect fill="none" height="120.1973" style="stroke:#000000;stroke-width:1.5;" width="2544" x="10" y="1168.623"/><rect fill="none" height="75.9316" style="stroke:#000000;stroke-width:1.5;" width="1144" x="10" y="1361.4414"/><line style="stroke:#181818;stroke-width:0.5;stroke-dasharray:5.0,5.0;" x1="49" x2="49" y1="81.4883" y2="1671.7246"/><line style="stroke:#181818;stroke-width:0.5;stroke-dasharray:5.0,5.0;" x1="363.5" x2="363.5" y1="81.4883" y2="1671.7246"/><line style="stroke:#181818;stroke-width:0.5;stroke-dasharray:5.0,5.0;" x1="584.5" x2="584.5" y1="81.4883" y2="1671.7246"/><line style="stroke:#181818;stroke-width:0.5;stroke-dasharray:5.0,5.0;" x1="1003" x2="1003" y1="81.4883" y2="1671.7246"/><line style="stroke:#181818;stroke-width:0.5;stroke-dasharray:5.0,5.0;" x1="1209" x2="1209" y1="81.4883" y2="1671.7246"/><line style="stroke:#181818;stroke-width:0.5;stroke-dasharray:5.0,5.0;" x1="1352" x2="1352" y1="81.4883" y2="1671.7246"/><line style="stroke:#181818;stroke-width:0.5;stroke-dasharray:5.0,5.0;" x1="1489" x2="1489" y1="81.4883" y2="1671.7246"/><line style="stroke:#181818;stroke-width:0.5;stroke-dasharray:5.0,5.0;" x1="1621" x2="1621" y1="81.4883" y2="1671.7246"/><line style="stroke:#181818;stroke-width:0.5;stroke-dasharray:5.0,5.0;" x1="1772" x2="1772" y1="81.4883" y2="1671.7246"/><line style="stroke:#181818;stroke-width:0.5;stroke-dasharray:5.0,5.0;" x1="1915" x2="1915" y1="81.4883" y2="1671.7246"/><line style="stroke:#181818;stroke-width:0.5;stroke-dasharray:5.0,5.0;" x1="2093" x2="2093" y1="81.4883" y2="1671.7246"/><line style="stroke:#181818;stroke-width:0.5;stroke-dasharray:5.0,5.0;" x1="2280" x2="2280" y1="1475.1172" y2="1671.7246"/><line style="stroke:#181818;stroke-width:0.5;stroke-dasharray:5.0,5.0;" x1="2411" x2="2411" y1="723.5762" y2="1671.7246"/><line style="stroke:#181818;stroke-width:0.5;stroke-dasharray:5.0,5.0;" x1="2507" x2="2507" y1="81.4883" y2="1671.7246"/><line style="stroke:#181818;stroke-width:0.5;stroke-dasharray:5.0,5.0;" x1="2643" x2="2643" y1="81.4883" y2="1671.7246"/><text fill="#000000" font-family="sans-serif" font-size="14" lengthAdjust="spacing" textLength="53" x="20" y="78.5352">Student</text><ellipse cx="49.5" cy="13.5" fill="#E2E2F0" rx="8" ry="8" style="stroke:#181818;stroke-width:0.5;"/><path d="M49.5,21.5 L49.5,48.5 M36.5,29.5 L62.5,29.5 M49.5,48.5 L36.5,63.5 M49.5,48.5 L62.5,63.5 " fill="none" style="stroke:#181818;stroke-width:0.5;"/><text fill="#000000" font-family="sans-serif" font-size="14" lengthAdjust="spacing" textLength="53" x="20" y="1684.2598">Student</text><ellipse cx="49.5" cy="1695.7129" fill="#E2E2F0" rx="8" ry="8" style="stroke:#181818;stroke-width:0.5;"/><path d="M49.5,1703.7129 L49.5,1730.7129 M36.5,1711.7129 L62.5,1711.7129 M49.5,1730.7129 L36.5,1745.7129 M49.5,1730.7129 L62.5,1745.7129 " fill="none" style="stroke:#181818;stroke-width:0.5;"/><rect fill="#E2E2F0" height="30.4883" rx="2.5" ry="2.5" style="stroke:#181818;stroke-width:0.5;" width="158" x="284.5" y="50"/><text fill="#000000" font-family="sans-serif" font-size="14" lengthAdjust="spacing" textLength="144" x="291.5" y="70.5352">RequestEnrollmentUI</text><rect fill="#E2E2F0" height="30.4883" rx="2.5" ry="2.5" style="stroke:#181818;stroke-width:0.5;" width="158" x="284.5" y="1670.7246"/><text fill="#000000" font-family="sans-serif" font-size="14" lengthAdjust="spacing" textLength="144" x="291.5" y="1691.2598">RequestEnrollmentUI</text><rect fill="#E2E2F0" height="30.4883" rx="2.5" ry="2.5" style="stroke:#181818;stroke-width:0.5;" width="214" x="477.5" y="50"/><text fill="#000000" font-family="sans-serif" font-size="14" lengthAdjust="spacing" textLength="200" x="484.5" y="70.5352">RequestEnrollmentController</text><rect fill="#E2E2F0" height="30.4883" rx="2.5" ry="2.5" style="stroke:#181818;stroke-width:0.5;" width="214" x="477.5" y="1670.7246"/><text fill="#000000" font-family="sans-serif" font-size="14" lengthAdjust="spacing" textLength="200" x="484.5" y="1691.2598">RequestEnrollmentController</text><rect fill="#E2E2F0" height="30.4883" rx="2.5" ry="2.5" style="stroke:#181818;stroke-width:0.5;" width="281" x="863" y="50"/><text fill="#000000" font-family="sans-serif" font-size="14" lengthAdjust="spacing" textLength="267" x="870" y="70.5352">EnrollmentRequestManagementService</text><rect fill="#E2E2F0" height="30.4883" rx="2.5" ry="2.5" style="stroke:#181818;stroke-width:0.5;" width="281" x="863" y="1670.7246"/><text fill="#000000" font-family="sans-serif" font-size="14" lengthAdjust="spacing" textLength="267" x="870" y="1691.2598">EnrollmentRequestManagementService</text><rect fill="#E2E2F0" height="30.4883" rx="2.5" ry="2.5" style="stroke:#181818;stroke-width:0.5;" width="110" x="1154" y="50"/><text fill="#000000" font-family="sans-serif" font-size="14" lengthAdjust="spacing" textLength="96" x="1161" y="70.5352">AuthzRegistry</text><rect fill="#E2E2F0" height="30.4883" rx="2.5" ry="2.5" style="stroke:#181818;stroke-width:0.5;" width="110" x="1154" y="1670.7246"/><text fill="#000000" font-family="sans-serif" font-size="14" lengthAdjust="spacing" textLength="96" x="1161" y="1691.2598">AuthzRegistry</text><rect fill="#E2E2F0" height="30.4883" rx="2.5" ry="2.5" style="stroke:#181818;stroke-width:0.5;" width="157" x="1274" y="50"/><text fill="#000000" font-family="sans-serif" font-size="14" lengthAdjust="spacing" textLength="143" x="1281" y="70.5352">AuthorizationService</text><rect fill="#E2E2F0" height="30.4883" rx="2.5" ry="2.5" style="stroke:#181818;stroke-width:0.5;" width="157" x="1274" y="1670.7246"/><text fill="#000000" font-family="sans-serif" font-size="14" lengthAdjust="spacing" textLength="143" x="1281" y="1691.2598">AuthorizationService</text><rect fill="#E2E2F0" height="30.4883" rx="2.5" ry="2.5" style="stroke:#181818;stroke-width:0.5;" width="97" x="1441" y="50"/><text fill="#000000" font-family="sans-serif" font-size="14" lengthAdjust="spacing" textLength="83" x="1448" y="70.5352">UserSession</text><rect fill="#E2E2F0" height="30.4883" rx="2.5" ry="2.5" style="stroke:#181818;stroke-width:0.5;" width="97" x="1441" y="1670.7246"/><text fill="#000000" font-family="sans-serif" font-size="14" lengthAdjust="spacing" textLength="83" x="1448" y="1691.2598">UserSession</text><rect fill="#E2E2F0" height="30.4883" rx="2.5" ry="2.5" style="stroke:#181818;stroke-width:0.5;" width="146" x="1548" y="50"/><text fill="#000000" font-family="sans-serif" font-size="14" lengthAdjust="spacing" textLength="132" x="1555" y="70.5352">PersistenceContext</text><rect fill="#E2E2F0" height="30.4883" rx="2.5" ry="2.5" style="stroke:#181818;stroke-width:0.5;" width="146" x="1548" y="1670.7246"/><text fill="#000000" font-family="sans-serif" font-size="14" lengthAdjust="spacing" textLength="132" x="1555" y="1691.2598">PersistenceContext</text><rect fill="#E2E2F0" height="30.4883" rx="2.5" ry="2.5" style="stroke:#181818;stroke-width:0.5;" width="137" x="1704" y="50"/><text fill="#000000" font-family="sans-serif" font-size="14" lengthAdjust="spacing" textLength="123" x="1711" y="70.5352">RepositoryFactory</text><rect fill="#E2E2F0" height="30.4883" rx="2.5" ry="2.5" style="stroke:#181818;stroke-width:0.5;" width="137" x="1704" y="1670.7246"/><text fill="#000000" font-family="sans-serif" font-size="14" lengthAdjust="spacing" textLength="123" x="1711" y="1691.2598">RepositoryFactory</text><text fill="#000000" font-family="sans-serif" font-size="14" lengthAdjust="spacing" textLength="122" x="1851" y="78.5352">CourseRepository</text><path d="M1897,29 C1897,19 1915,19 1915,19 C1915,19 1933,19 1933,29 L1933,55 C1933,65 1915,65 1915,65 C1915,65 1897,65 1897,55 L1897,29 " fill="#E2E2F0" style="stroke:#181818;stroke-width:1.5;"/><path d="M1897,29 C1897,39 1915,39 1915,39 C1915,39 1933,39 1933,29 " fill="none" style="stroke:#181818;stroke-width:1.5;"/><text fill="#000000" font-family="sans-serif" font-size="14" lengthAdjust="spacing" textLength="122" x="1851" y="1684.2598">CourseRepository</text><path d="M1897,1697.2129 C1897,1687.2129 1915,1687.2129 1915,1687.2129 C1915,1687.2129 1933,1687.2129 1933,1697.2129 L1933,1723.2129 C1933,1733.2129 1915,1733.2129 1915,1733.2129 C1915,1733.2129 1897,1733.2129 1897,1723.2129 L1897,1697.2129 " fill="#E2E2F0" style="stroke:#181818;stroke-width:1.5;"/><path d="M1897,1697.2129 C1897,1707.2129 1915,1707.2129 1915,1707.2129 C1915,1707.2129 1933,1707.2129 1933,1697.2129 " fill="none" style="stroke:#181818;stroke-width:1.5;"/><text fill="#000000" font-family="sans-serif" font-size="14" lengthAdjust="spacing" textLength="203" x="1989" y="78.5352">EnrollmentRequestRepository</text><path d="M2075.5,29 C2075.5,19 2093.5,19 2093.5,19 C2093.5,19 2111.5,19 2111.5,29 L2111.5,55 C2111.5,65 2093.5,65 2093.5,65 C2093.5,65 2075.5,65 2075.5,55 L2075.5,29 " fill="#E2E2F0" style="stroke:#181818;stroke-width:1.5;"/><path d="M2075.5,29 C2075.5,39 2093.5,39 2093.5,39 C2093.5,39 2111.5,39 2111.5,29 " fill="none" style="stroke:#181818;stroke-width:1.5;"/><text fill="#000000" font-family="sans-serif" font-size="14" lengthAdjust="spacing" textLength="203" x="1989" y="1684.2598">EnrollmentRequestRepository</text><path d="M2075.5,1697.2129 C2075.5,1687.2129 2093.5,1687.2129 2093.5,1687.2129 C2093.5,1687.2129 2111.5,1687.2129 2111.5,1697.2129 L2111.5,1723.2129 C2111.5,1733.2129 2093.5,1733.2129 2093.5,1733.2129 C2093.5,1733.2129 2075.5,1733.2129 2075.5,1723.2129 L2075.5,1697.2129 " fill="#E2E2F0" style="stroke:#181818;stroke-width:1.5;"/><path d="M2075.5,1697.2129 C2075.5,1707.2129 2093.5,1707.2129 2093.5,1707.2129 C2093.5,1707.2129 2111.5,1707.2129 2111.5,1697.2129 " fill="none" style="stroke:#181818;stroke-width:1.5;"/><rect fill="#E2E2F0" height="30.4883" rx="2.5" ry="2.5" style="stroke:#181818;stroke-width:0.5;" width="144" x="2208" y="1670.7246"/><text fill="#000000" font-family="sans-serif" font-size="14" lengthAdjust="spacing" textLength="130" x="2215" y="1691.2598">EnrollmentRequest</text><rect fill="#E2E2F0" height="30.4883" rx="2.5" ry="2.5" style="stroke:#181818;stroke-width:0.5;" width="99" x="2362" y="1670.7246"/><text fill="#000000" font-family="sans-serif" font-size="14" lengthAdjust="spacing" textLength="85" x="2369" y="1691.2598">CourseCode</text><rect fill="#E2E2F0" height="30.4883" rx="2.5" ry="2.5" style="stroke:#181818;stroke-width:0.5;" width="73" x="2471" y="50"/><text fill="#000000" font-family="sans-serif" font-size="14" lengthAdjust="spacing" textLength="59" x="2478" y="70.5352">Optional</text><rect fill="#E2E2F0" height="30.4883" rx="2.5" ry="2.5" style="stroke:#181818;stroke-width:0.5;" width="73" x="2471" y="1670.7246"/><text fill="#000000" font-family="sans-serif" font-size="14" lengthAdjust="spacing" textLength="59" x="2478" y="1691.2598">Optional</text><rect fill="#E2E2F0" height="30.4883" rx="2.5" ry="2.5" style="stroke:#181818;stroke-width:0.5;" width="179" x="2554" y="50"/><text fill="#000000" font-family="sans-serif" font-size="14" lengthAdjust="spacing" textLength="165" x="2561" y="70.5352">enrollmentRequestRepo</text><rect fill="#E2E2F0" height="30.4883" rx="2.5" ry="2.5" style="stroke:#181818;stroke-width:0.5;" width="179" x="2554" y="1670.7246"/><text fill="#000000" font-family="sans-serif" font-size="14" lengthAdjust="spacing" textLength="165" x="2561" y="1691.2598">enrollmentRequestRepo</text><rect fill="#FFFFFF" height="29.3105" style="stroke:#181818;stroke-width:1.0;" width="10" x="358.5" y="112.7988"/><rect fill="#FFFFFF" height="1482.3047" style="stroke:#181818;stroke-width:1.0;" width="10" x="358.5" y="171.4199"/><rect fill="#FFFFFF" height="322.416" style="stroke:#181818;stroke-width:1.0;" width="10" x="579.5" y="259.3516"/><rect fill="#FFFFFF" height="1013.3359" style="stroke:#181818;stroke-width:1.0;" width="10" x="579.5" y="611.0781"/><rect fill="#FFFFFF" height="529.4121" style="stroke:#181818;stroke-width:1.0;" width="10" x="998.5" y="1065.6914"/><rect fill="#FFFFFF" height="29.3105" style="stroke:#181818;stroke-width:1.0;" width="10" x="1204" y="200.7305"/><rect fill="#FFFFFF" height="29.3105" style="stroke:#181818;stroke-width:1.0;" width="10" x="1347.5" y="784.9414"/><rect fill="#FFFFFF" height="29.3105" style="stroke:#181818;stroke-width:1.0;" width="10" x="1484.5" y="1007.0703"/><rect fill="#FFFFFF" height="29.3105" style="stroke:#181818;stroke-width:1.0;" width="10" x="1616" y="288.6621"/><rect fill="#FFFFFF" height="29.3105" style="stroke:#181818;stroke-width:1.0;" width="10" x="1767.5" y="347.2832"/><rect fill="#FFFFFF" height="29.3105" style="stroke:#181818;stroke-width:1.0;" width="10" x="1767.5" y="405.9043"/><rect fill="#FFFFFF" height="29.3105" style="stroke:#181818;stroke-width:1.0;" width="10" x="1767.5" y="464.5254"/><rect fill="#FFFFFF" height="29.3105" style="stroke:#181818;stroke-width:1.0;" width="10" x="1767.5" y="523.1465"/><rect fill="#FFFFFF" height="29.3105" style="stroke:#181818;stroke-width:1.0;" width="10" x="1910" y="1095.002"/><rect fill="#FFFFFF" height="31.4883" style="stroke:#181818;stroke-width:1.0;" width="10" x="2275" y="1475.6836"/><rect fill="#FFFFFF" height="31.4883" style="stroke:#181818;stroke-width:1.0;" width="10" x="2406.5" y="724.1426"/><rect fill="#FFFFFF" height="127.1973" style="stroke:#181818;stroke-width:1.0;" width="10" x="2502.5" y="843.5625"/><rect fill="#FFFFFF" height="127.1973" style="stroke:#181818;stroke-width:1.0;" width="10" x="2502.5" y="1153.623"/><rect fill="#FFFFFF" height="29.3105" style="stroke:#181818;stroke-width:1.0;" width="10" x="2638.5" y="1317.1309"/><rect fill="#FFFFFF" height="29.3105" style="stroke:#181818;stroke-width:1.0;" width="10" x="2638.5" y="1536.4824"/><polygon fill="#181818" points="346.5,108.7988,356.5,112.7988,346.5,116.7988,350.5,112.7988" style="stroke:#181818;stroke-width:1.0;"/><line style="stroke:#181818;stroke-width:1.0;" x1="49.5" x2="352.5" y1="112.7988" y2="112.7988"/><text fill="#000000" font-family="sans-serif" font-size="13" font-weight="bold" lengthAdjust="spacing" textLength="9" x="56.5" y="108.0566">1</text><text fill="#000000" font-family="sans-serif" font-size="13" lengthAdjust="spacing" textLength="119" x="69.5" y="108.0566">request enrollment</text><polygon fill="#181818" points="60.5,138.1094,50.5,142.1094,60.5,146.1094,56.5,142.1094" style="stroke:#181818;stroke-width:1.0;"/><line style="stroke:#181818;stroke-width:1.0;stroke-dasharray:2.0,2.0;" x1="54.5" x2="362.5" y1="142.1094" y2="142.1094"/><text fill="#000000" font-family="sans-serif" font-size="13" font-weight="bold" lengthAdjust="spacing" textLength="9" x="66.5" y="137.3672">2</text><text fill="#000000" font-family="sans-serif" font-size="13" lengthAdjust="spacing" textLength="131" x="79.5" y="137.3672">asks for course code</text><polygon fill="#181818" points="346.5,167.4199,356.5,171.4199,346.5,175.4199,350.5,171.4199" style="stroke:#181818;stroke-width:1.0;"/><line style="stroke:#181818;stroke-width:1.0;" x1="49.5" x2="352.5" y1="171.4199" y2="171.4199"/><text fill="#000000" font-family="sans-serif" font-size="13" font-weight="bold" lengthAdjust="spacing" textLength="9" x="56.5" y="166.6777">3</text><text fill="#000000" font-family="sans-serif" font-size="13" lengthAdjust="spacing" textLength="112" x="69.5" y="166.6777">enter course code</text><polygon fill="#181818" points="1192,196.7305,1202,200.7305,1192,204.7305,1196,200.7305" style="stroke:#181818;stroke-width:1.0;"/><line style="stroke:#181818;stroke-width:1.0;" x1="368.5" x2="1198" y1="200.7305" y2="200.7305"/><text fill="#000000" font-family="sans-serif" font-size="13" font-weight="bold" lengthAdjust="spacing" textLength="9" x="375.5" y="195.9883">4</text><text fill="#000000" font-family="sans-serif" font-size="13" lengthAdjust="spacing" textLength="136" x="388.5" y="195.9883">authorizationService()</text><polygon fill="#181818" points="379.5,226.041,369.5,230.041,379.5,234.041,375.5,230.041" style="stroke:#181818;stroke-width:1.0;"/><line style="stroke:#181818;stroke-width:1.0;stroke-dasharray:2.0,2.0;" x1="373.5" x2="1208" y1="230.041" y2="230.041"/><text fill="#000000" font-family="sans-serif" font-size="13" font-weight="bold" lengthAdjust="spacing" textLength="9" x="385.5" y="225.2988">5</text><text fill="#000000" font-family="sans-serif" font-size="13" lengthAdjust="spacing" textLength="79" x="398.5" y="225.2988">authzService</text><polygon fill="#181818" points="567.5,255.3516,577.5,259.3516,567.5,263.3516,571.5,259.3516" style="stroke:#181818;stroke-width:1.0;"/><line style="stroke:#181818;stroke-width:1.0;" x1="368.5" x2="573.5" y1="259.3516" y2="259.3516"/><text fill="#000000" font-family="sans-serif" font-size="13" font-weight="bold" lengthAdjust="spacing" textLength="9" x="375.5" y="254.6094">6</text><text fill="#000000" font-family="sans-serif" font-size="13" lengthAdjust="spacing" textLength="125" x="388.5" y="254.6094">create(authzService)</text><polygon fill="#181818" points="1604,284.6621,1614,288.6621,1604,292.6621,1608,288.6621" style="stroke:#181818;stroke-width:1.0;"/><line style="stroke:#181818;stroke-width:1.0;" x1="589.5" x2="1610" y1="288.6621" y2="288.6621"/><text fill="#000000" font-family="sans-serif" font-size="13" font-weight="bold" lengthAdjust="spacing" textLength="9" x="596.5" y="283.9199">7</text><text fill="#000000" font-family="sans-serif" font-size="13" lengthAdjust="spacing" textLength="83" x="609.5" y="283.9199">repositories()</text><polygon fill="#181818" points="600.5,313.9727,590.5,317.9727,600.5,321.9727,596.5,317.9727" style="stroke:#181818;stroke-width:1.0;"/><line style="stroke:#181818;stroke-width:1.0;stroke-dasharray:2.0,2.0;" x1="594.5" x2="1620" y1="317.9727" y2="317.9727"/><text fill="#000000" font-family="sans-serif" font-size="13" font-weight="bold" lengthAdjust="spacing" textLength="9" x="606.5" y="313.2305">8</text><text fill="#000000" font-family="sans-serif" font-size="13" lengthAdjust="spacing" textLength="110" x="619.5" y="313.2305">repositoryFactory</text><polygon fill="#181818" points="1755.5,343.2832,1765.5,347.2832,1755.5,351.2832,1759.5,347.2832" style="stroke:#181818;stroke-width:1.0;"/><line style="stroke:#181818;stroke-width:1.0;" x1="589.5" x2="1761.5" y1="347.2832" y2="347.2832"/><text fill="#000000" font-family="sans-serif" font-size="13" font-weight="bold" lengthAdjust="spacing" textLength="9" x="596.5" y="342.541">9</text><text fill="#000000" font-family="sans-serif" font-size="13" lengthAdjust="spacing" textLength="57" x="609.5" y="342.541">courses()</text><polygon fill="#181818" points="600.5,372.5938,590.5,376.5938,600.5,380.5938,596.5,376.5938" style="stroke:#181818;stroke-width:1.0;"/><line style="stroke:#181818;stroke-width:1.0;stroke-dasharray:2.0,2.0;" x1="594.5" x2="1771.5" y1="376.5938" y2="376.5938"/><text fill="#000000" font-family="sans-serif" font-size="13" font-weight="bold" lengthAdjust="spacing" textLength="18" x="606.5" y="371.8516">10</text><text fill="#000000" font-family="sans-serif" font-size="13" lengthAdjust="spacing" textLength="73" x="628.5" y="371.8516">courseRepo</text><polygon fill="#181818" points="1755.5,401.9043,1765.5,405.9043,1755.5,409.9043,1759.5,405.9043" style="stroke:#181818;stroke-width:1.0;"/><line style="stroke:#181818;stroke-width:1.0;" x1="589.5" x2="1761.5" y1="405.9043" y2="405.9043"/><text fill="#000000" font-family="sans-serif" font-size="13" font-weight="bold" lengthAdjust="spacing" textLength="18" x="596.5" y="401.1621">11</text><text fill="#000000" font-family="sans-serif" font-size="13" lengthAdjust="spacing" textLength="133" x="618.5" y="401.1621">enrollmentRequests()</text><polygon fill="#181818" points="600.5,431.2148,590.5,435.2148,600.5,439.2148,596.5,435.2148" style="stroke:#181818;stroke-width:1.0;"/><line style="stroke:#181818;stroke-width:1.0;stroke-dasharray:2.0,2.0;" x1="594.5" x2="1771.5" y1="435.2148" y2="435.2148"/><text fill="#000000" font-family="sans-serif" font-size="13" font-weight="bold" lengthAdjust="spacing" textLength="18" x="606.5" y="430.4727">12</text><text fill="#000000" font-family="sans-serif" font-size="13" lengthAdjust="spacing" textLength="149" x="628.5" y="430.4727">enrollmentRequestRepo</text><polygon fill="#181818" points="1755.5,460.5254,1765.5,464.5254,1755.5,468.5254,1759.5,464.5254" style="stroke:#181818;stroke-width:1.0;"/><line style="stroke:#181818;stroke-width:1.0;" x1="589.5" x2="1761.5" y1="464.5254" y2="464.5254"/><text fill="#000000" font-family="sans-serif" font-size="13" font-weight="bold" lengthAdjust="spacing" textLength="18" x="596.5" y="459.7832">13</text><text fill="#000000" font-family="sans-serif" font-size="13" lengthAdjust="spacing" textLength="42" x="618.5" y="459.7832">users()</text><polygon fill="#181818" points="600.5,489.8359,590.5,493.8359,600.5,497.8359,596.5,493.8359" style="stroke:#181818;stroke-width:1.0;"/><line style="stroke:#181818;stroke-width:1.0;stroke-dasharray:2.0,2.0;" x1="594.5" x2="1771.5" y1="493.8359" y2="493.8359"/><text fill="#000000" font-family="sans-serif" font-size="13" font-weight="bold" lengthAdjust="spacing" textLength="18" x="606.5" y="489.0938">14</text><text fill="#000000" font-family="sans-serif" font-size="13" lengthAdjust="spacing" textLength="58" x="628.5" y="489.0938">userRepo</text><polygon fill="#181818" points="1755.5,519.1465,1765.5,523.1465,1755.5,527.1465,1759.5,523.1465" style="stroke:#181818;stroke-width:1.0;"/><line style="stroke:#181818;stroke-width:1.0;" x1="589.5" x2="1761.5" y1="523.1465" y2="523.1465"/><text fill="#000000" font-family="sans-serif" font-size="13" font-weight="bold" lengthAdjust="spacing" textLength="18" x="596.5" y="518.4043">15</text><text fill="#000000" font-family="sans-serif" font-size="13" lengthAdjust="spacing" textLength="161" x="618.5" y="518.4043">newTransationalContext()</text><polygon fill="#181818" points="600.5,548.457,590.5,552.457,600.5,556.457,596.5,552.457" style="stroke:#181818;stroke-width:1.0;"/><line style="stroke:#181818;stroke-width:1.0;stroke-dasharray:2.0,2.0;" x1="594.5" x2="1771.5" y1="552.457" y2="552.457"/><text fill="#000000" font-family="sans-serif" font-size="13" font-weight="bold" lengthAdjust="spacing" textLength="18" x="606.5" y="547.7148">16</text><text fill="#000000" font-family="sans-serif" font-size="13" lengthAdjust="spacing" textLength="18" x="628.5" y="547.7148">txt</text><polygon fill="#181818" points="991.5,577.7676,1001.5,581.7676,991.5,585.7676,995.5,581.7676" style="stroke:#181818;stroke-width:1.0;"/><line style="stroke:#181818;stroke-width:1.0;" x1="584.5" x2="997.5" y1="581.7676" y2="581.7676"/><text fill="#000000" font-family="sans-serif" font-size="13" font-weight="bold" lengthAdjust="spacing" textLength="18" x="591.5" y="577.0254">17</text><text fill="#000000" font-family="sans-serif" font-size="13" lengthAdjust="spacing" textLength="368" x="613.5" y="577.0254">create(courseRepo, enrollmentRequestRepo, userRepo, txt)</text><polygon fill="#181818" points="567.5,607.0781,577.5,611.0781,567.5,615.0781,571.5,611.0781" style="stroke:#181818;stroke-width:1.0;"/><line style="stroke:#181818;stroke-width:1.0;" x1="368.5" x2="573.5" y1="611.0781" y2="611.0781"/><text fill="#000000" font-family="sans-serif" font-size="13" font-weight="bold" lengthAdjust="spacing" textLength="18" x="375.5" y="606.3359">18</text><text fill="#000000" font-family="sans-serif" font-size="13" lengthAdjust="spacing" textLength="170" x="397.5" y="606.3359">createRequest(courseCode)</text><polygon fill="#181818" points="1340.5,636.3887,1350.5,640.3887,1340.5,644.3887,1344.5,640.3887" style="stroke:#181818;stroke-width:1.0;"/><line style="stroke:#181818;stroke-width:1.0;" x1="589.5" x2="1346.5" y1="640.3887" y2="640.3887"/><text fill="#000000" font-family="sans-serif" font-size="13" font-weight="bold" lengthAdjust="spacing" textLength="18" x="596.5" y="635.6465">19</text><text fill="#000000" font-family="sans-serif" font-size="13" lengthAdjust="spacing" textLength="370" x="618.5" y="635.6465">ensureAuthenticatedUserHasAnyOf(CourseRoles.STUDENT)</text><rect fill="none" height="39.4434" style="stroke:#000000;stroke-width:1.5;" width="191" x="1271" y="648.3887"/><path d="M1271,648.3887 L1335,648.3887 L1335,655.3887 L1325,665.3887 L1271,665.3887 L1271,648.3887 " fill="#EEEEEE" style="stroke:#000000;stroke-width:2.0;"/><text fill="#000000" font-family="sans-serif" font-size="13" font-weight="bold" lengthAdjust="spacing" textLength="19" x="1284" y="662.957">ref</text><text fill="#000000" font-family="sans-serif" font-size="12" lengthAdjust="spacing" textLength="183" x="1275" y="680.9902">Implementation of authorization</text><polygon fill="#181818" points="2350,710.1426,2360,714.1426,2350,718.1426,2354,714.1426" style="stroke:#181818;stroke-width:1.0;"/><line style="stroke:#181818;stroke-width:1.0;" x1="589.5" x2="2356" y1="714.1426" y2="714.1426"/><text fill="#000000" font-family="sans-serif" font-size="13" font-weight="bold" lengthAdjust="spacing" textLength="18" x="596.5" y="709.4004">20</text><text fill="#000000" font-family="sans-serif" font-size="13" lengthAdjust="spacing" textLength="132" x="618.5" y="709.4004">of(courseCodeString)</text><rect fill="#E2E2F0" height="30.4883" rx="2.5" ry="2.5" style="stroke:#181818;stroke-width:0.5;" width="99" x="2362" y="692.832"/><text fill="#000000" font-family="sans-serif" font-size="14" lengthAdjust="spacing" textLength="85" x="2369" y="713.3672">CourseCode</text><polygon fill="#181818" points="600.5,751.6309,590.5,755.6309,600.5,759.6309,596.5,755.6309" style="stroke:#181818;stroke-width:1.0;"/><line style="stroke:#181818;stroke-width:1.0;stroke-dasharray:2.0,2.0;" x1="594.5" x2="2410.5" y1="755.6309" y2="755.6309"/><text fill="#000000" font-family="sans-serif" font-size="13" font-weight="bold" lengthAdjust="spacing" textLength="18" x="606.5" y="750.8887">21</text><text fill="#000000" font-family="sans-serif" font-size="13" lengthAdjust="spacing" textLength="74" x="628.5" y="750.8887">courseCode</text><polygon fill="#181818" points="1335.5,780.9414,1345.5,784.9414,1335.5,788.9414,1339.5,784.9414" style="stroke:#181818;stroke-width:1.0;"/><line style="stroke:#181818;stroke-width:1.0;" x1="589.5" x2="1341.5" y1="784.9414" y2="784.9414"/><text fill="#000000" font-family="sans-serif" font-size="13" font-weight="bold" lengthAdjust="spacing" textLength="18" x="596.5" y="780.1992">22</text><text fill="#000000" font-family="sans-serif" font-size="13" lengthAdjust="spacing" textLength="56" x="618.5" y="780.1992">session()</text><polygon fill="#181818" points="600.5,810.252,590.5,814.252,600.5,818.252,596.5,814.252" style="stroke:#181818;stroke-width:1.0;"/><line style="stroke:#181818;stroke-width:1.0;stroke-dasharray:2.0,2.0;" x1="594.5" x2="1351.5" y1="814.252" y2="814.252"/><text fill="#000000" font-family="sans-serif" font-size="13" font-weight="bold" lengthAdjust="spacing" textLength="18" x="606.5" y="809.5098">23</text><text fill="#000000" font-family="sans-serif" font-size="13" lengthAdjust="spacing" textLength="102" x="628.5" y="809.5098">sessionOptional</text><polygon fill="#181818" points="2490.5,839.5625,2500.5,843.5625,2490.5,847.5625,2494.5,843.5625" style="stroke:#181818;stroke-width:1.0;"/><line style="stroke:#181818;stroke-width:1.0;" x1="589.5" x2="2496.5" y1="843.5625" y2="843.5625"/><text fill="#000000" font-family="sans-serif" font-size="13" font-weight="bold" lengthAdjust="spacing" textLength="18" x="596.5" y="838.8203">24</text><text fill="#000000" font-family="sans-serif" font-size="13" lengthAdjust="spacing" textLength="85" x="618.5" y="838.8203">orElseThrow()</text><path d="M10,858.5625 L72,858.5625 L72,865.873 L62,875.873 L10,875.873 L10,858.5625 " fill="#EEEEEE" style="stroke:#000000;stroke-width:1.5;"/><rect fill="none" height="120.1973" style="stroke:#000000;stroke-width:1.5;" width="2544" x="10" y="858.5625"/><text fill="#000000" font-family="sans-serif" font-size="13" font-weight="bold" lengthAdjust="spacing" textLength="17" x="25" y="872.1309">alt</text><text fill="#000000" font-family="sans-serif" font-size="11" font-weight="bold" lengthAdjust="spacing" textLength="110" x="87" y="871.1973">[user is not logged]</text><polygon fill="#181818" points="379.5,893.1836,369.5,897.1836,379.5,901.1836,375.5,897.1836" style="stroke:#181818;stroke-width:1.0;"/><line style="stroke:#181818;stroke-width:1.0;stroke-dasharray:2.0,2.0;" x1="373.5" x2="2501.5" y1="897.1836" y2="897.1836"/><text fill="#000000" font-family="sans-serif" font-size="13" font-weight="bold" lengthAdjust="spacing" textLength="18" x="385.5" y="892.4414">25</text><text fill="#000000" font-family="sans-serif" font-size="13" lengthAdjust="spacing" textLength="404" x="407.5" y="892.4414">throw new IllegalArgumentException("There is no user Logged.")</text><polygon fill="#181818" points="60.5,922.4941,50.5,926.4941,60.5,930.4941,56.5,926.4941" style="stroke:#181818;stroke-width:1.0;"/><line style="stroke:#181818;stroke-width:1.0;stroke-dasharray:2.0,2.0;" x1="54.5" x2="357.5" y1="926.4941" y2="926.4941"/><text fill="#000000" font-family="sans-serif" font-size="13" font-weight="bold" lengthAdjust="spacing" textLength="18" x="66.5" y="921.752">26</text><text fill="#000000" font-family="sans-serif" font-size="13" lengthAdjust="spacing" textLength="114" x="88.5" y="921.752">user is not logged</text><line style="stroke:#000000;stroke-width:1.0;stroke-dasharray:2.0,2.0;" x1="10" x2="2554" y1="935.4941" y2="935.4941"/><text fill="#000000" font-family="sans-serif" font-size="11" font-weight="bold" lengthAdjust="spacing" textLength="88" x="15" y="946.1289">[user is logged]</text><polygon fill="#181818" points="600.5,966.7598,590.5,970.7598,600.5,974.7598,596.5,970.7598" style="stroke:#181818;stroke-width:1.0;"/><line style="stroke:#181818;stroke-width:1.0;stroke-dasharray:2.0,2.0;" x1="594.5" x2="2506.5" y1="970.7598" y2="970.7598"/><text fill="#000000" font-family="sans-serif" font-size="13" font-weight="bold" lengthAdjust="spacing" textLength="18" x="606.5" y="966.0176">27</text><text fill="#000000" font-family="sans-serif" font-size="13" lengthAdjust="spacing" textLength="48" x="628.5" y="966.0176">session</text><polygon fill="#181818" points="1472.5,1003.0703,1482.5,1007.0703,1472.5,1011.0703,1476.5,1007.0703" style="stroke:#181818;stroke-width:1.0;"/><line style="stroke:#181818;stroke-width:1.0;" x1="589.5" x2="1478.5" y1="1007.0703" y2="1007.0703"/><text fill="#000000" font-family="sans-serif" font-size="13" font-weight="bold" lengthAdjust="spacing" textLength="18" x="596.5" y="1002.3281">28</text><text fill="#000000" font-family="sans-serif" font-size="13" lengthAdjust="spacing" textLength="122" x="618.5" y="1002.3281">authenticatedUser()</text><polygon fill="#181818" points="600.5,1032.3809,590.5,1036.3809,600.5,1040.3809,596.5,1036.3809" style="stroke:#181818;stroke-width:1.0;"/><line style="stroke:#181818;stroke-width:1.0;stroke-dasharray:2.0,2.0;" x1="594.5" x2="1488.5" y1="1036.3809" y2="1036.3809"/><text fill="#000000" font-family="sans-serif" font-size="13" font-weight="bold" lengthAdjust="spacing" textLength="18" x="606.5" y="1031.6387">29</text><text fill="#000000" font-family="sans-serif" font-size="13" lengthAdjust="spacing" textLength="27" x="628.5" y="1031.6387">user</text><polygon fill="#181818" points="986.5,1061.6914,996.5,1065.6914,986.5,1069.6914,990.5,1065.6914" style="stroke:#181818;stroke-width:1.0;"/><line style="stroke:#181818;stroke-width:1.0;" x1="589.5" x2="992.5" y1="1065.6914" y2="1065.6914"/><text fill="#000000" font-family="sans-serif" font-size="13" font-weight="bold" lengthAdjust="spacing" textLength="18" x="596.5" y="1060.9492">30</text><text fill="#000000" font-family="sans-serif" font-size="13" lengthAdjust="spacing" textLength="205" x="618.5" y="1060.9492">createRequest(courseCode, user)</text><polygon fill="#181818" points="1898,1091.002,1908,1095.002,1898,1099.002,1902,1095.002" style="stroke:#181818;stroke-width:1.0;"/><line style="stroke:#181818;stroke-width:1.0;" x1="1008.5" x2="1904" y1="1095.002" y2="1095.002"/><text fill="#000000" font-family="sans-serif" font-size="13" font-weight="bold" lengthAdjust="spacing" textLength="18" x="1015.5" y="1090.2598">31</text><text fill="#000000" font-family="sans-serif" font-size="13" lengthAdjust="spacing" textLength="153" x="1037.5" y="1090.2598">findByCode(courseCode)</text><polygon fill="#181818" points="1019.5,1120.3125,1009.5,1124.3125,1019.5,1128.3125,1015.5,1124.3125" style="stroke:#181818;stroke-width:1.0;"/><line style="stroke:#181818;stroke-width:1.0;stroke-dasharray:2.0,2.0;" x1="1013.5" x2="1914" y1="1124.3125" y2="1124.3125"/><text fill="#000000" font-family="sans-serif" font-size="13" font-weight="bold" lengthAdjust="spacing" textLength="18" x="1025.5" y="1119.5703">32</text><text fill="#000000" font-family="sans-serif" font-size="13" lengthAdjust="spacing" textLength="96" x="1047.5" y="1119.5703">courseOptional</text><polygon fill="#181818" points="2490.5,1149.623,2500.5,1153.623,2490.5,1157.623,2494.5,1153.623" style="stroke:#181818;stroke-width:1.0;"/><line style="stroke:#181818;stroke-width:1.0;" x1="1008.5" x2="2496.5" y1="1153.623" y2="1153.623"/><text fill="#000000" font-family="sans-serif" font-size="13" font-weight="bold" lengthAdjust="spacing" textLength="18" x="1015.5" y="1148.8809">33</text><text fill="#000000" font-family="sans-serif" font-size="13" lengthAdjust="spacing" textLength="85" x="1037.5" y="1148.8809">orElseThrow()</text><path d="M10,1168.623 L72,1168.623 L72,1175.9336 L62,1185.9336 L10,1185.9336 L10,1168.623 " fill="#EEEEEE" style="stroke:#000000;stroke-width:1.5;"/><rect fill="none" height="120.1973" style="stroke:#000000;stroke-width:1.5;" width="2544" x="10" y="1168.623"/><text fill="#000000" font-family="sans-serif" font-size="13" font-weight="bold" lengthAdjust="spacing" textLength="17" x="25" y="1182.1914">alt</text><text fill="#000000" font-family="sans-serif" font-size="11" font-weight="bold" lengthAdjust="spacing" textLength="127" x="87" y="1181.2578">[course does not exist]</text><polygon fill="#181818" points="379.5,1203.2441,369.5,1207.2441,379.5,1211.2441,375.5,1207.2441" style="stroke:#181818;stroke-width:1.0;"/><line style="stroke:#181818;stroke-width:1.0;stroke-dasharray:2.0,2.0;" x1="373.5" x2="2501.5" y1="1207.2441" y2="1207.2441"/><text fill="#000000" font-family="sans-serif" font-size="13" font-weight="bold" lengthAdjust="spacing" textLength="18" x="385.5" y="1202.502">34</text><text fill="#000000" font-family="sans-serif" font-size="13" lengthAdjust="spacing" textLength="391" x="407.5" y="1202.502">throw new IllegalArgumentException("Course does not exist.")</text><polygon fill="#181818" points="60.5,1232.5547,50.5,1236.5547,60.5,1240.5547,56.5,1236.5547" style="stroke:#181818;stroke-width:1.0;"/><line style="stroke:#181818;stroke-width:1.0;stroke-dasharray:2.0,2.0;" x1="54.5" x2="357.5" y1="1236.5547" y2="1236.5547"/><text fill="#000000" font-family="sans-serif" font-size="13" font-weight="bold" lengthAdjust="spacing" textLength="18" x="66.5" y="1231.8125">35</text><text fill="#000000" font-family="sans-serif" font-size="13" lengthAdjust="spacing" textLength="138" x="88.5" y="1231.8125">no such course exists</text><line style="stroke:#000000;stroke-width:1.0;stroke-dasharray:2.0,2.0;" x1="10" x2="2554" y1="1245.5547" y2="1245.5547"/><text fill="#000000" font-family="sans-serif" font-size="11" font-weight="bold" lengthAdjust="spacing" textLength="81" x="15" y="1256.1895">[course exists]</text><polygon fill="#181818" points="1019.5,1276.8203,1009.5,1280.8203,1019.5,1284.8203,1015.5,1280.8203" style="stroke:#181818;stroke-width:1.0;"/><line style="stroke:#181818;stroke-width:1.0;stroke-dasharray:2.0,2.0;" x1="1013.5" x2="2506.5" y1="1280.8203" y2="1280.8203"/><text fill="#000000" font-family="sans-serif" font-size="13" font-weight="bold" lengthAdjust="spacing" textLength="18" x="1025.5" y="1276.0781">36</text><text fill="#000000" font-family="sans-serif" font-size="13" lengthAdjust="spacing" textLength="42" x="1047.5" y="1276.0781">course</text><polygon fill="#181818" points="2626.5,1313.1309,2636.5,1317.1309,2626.5,1321.1309,2630.5,1317.1309" style="stroke:#181818;stroke-width:1.0;"/><line style="stroke:#181818;stroke-width:1.0;" x1="1008.5" x2="2632.5" y1="1317.1309" y2="1317.1309"/><text fill="#000000" font-family="sans-serif" font-size="13" font-weight="bold" lengthAdjust="spacing" textLength="18" x="1015.5" y="1312.3887">37</text><text fill="#000000" font-family="sans-serif" font-size="13" lengthAdjust="spacing" textLength="221" x="1037.5" y="1312.3887">findByCourseAndUser(course, user)</text><polygon fill="#181818" points="1019.5,1342.4414,1009.5,1346.4414,1019.5,1350.4414,1015.5,1346.4414" style="stroke:#181818;stroke-width:1.0;"/><line style="stroke:#181818;stroke-width:1.0;stroke-dasharray:2.0,2.0;" x1="1013.5" x2="2642.5" y1="1346.4414" y2="1346.4414"/><text fill="#000000" font-family="sans-serif" font-size="13" font-weight="bold" lengthAdjust="spacing" textLength="18" x="1025.5" y="1341.6992">38</text><text fill="#000000" font-family="sans-serif" font-size="13" lengthAdjust="spacing" textLength="47" x="1047.5" y="1341.6992">request</text><path d="M10,1361.4414 L72,1361.4414 L72,1368.752 L62,1378.752 L10,1378.752 L10,1361.4414 " fill="#EEEEEE" style="stroke:#000000;stroke-width:1.5;"/><rect fill="none" height="75.9316" style="stroke:#000000;stroke-width:1.5;" width="1144" x="10" y="1361.4414"/><text fill="#000000" font-family="sans-serif" font-size="13" font-weight="bold" lengthAdjust="spacing" textLength="17" x="25" y="1375.0098">alt</text><text fill="#000000" font-family="sans-serif" font-size="11" font-weight="bold" lengthAdjust="spacing" textLength="91" x="87" y="1374.0762">[request != null]</text><polygon fill="#181818" points="379.5,1396.0625,369.5,1400.0625,379.5,1404.0625,375.5,1400.0625" style="stroke:#181818;stroke-width:1.0;"/><line style="stroke:#181818;stroke-width:1.0;stroke-dasharray:2.0,2.0;" x1="373.5" x2="997.5" y1="1400.0625" y2="1400.0625"/><text fill="#000000" font-family="sans-serif" font-size="13" font-weight="bold" lengthAdjust="spacing" textLength="18" x="385.5" y="1395.3203">39</text><text fill="#000000" font-family="sans-serif" font-size="13" lengthAdjust="spacing" textLength="394" x="407.5" y="1395.3203">throw new IllegalArgumentException("Request already exists.")</text><polygon fill="#181818" points="60.5,1425.373,50.5,1429.373,60.5,1433.373,56.5,1429.373" style="stroke:#181818;stroke-width:1.0;"/><line style="stroke:#181818;stroke-width:1.0;stroke-dasharray:2.0,2.0;" x1="54.5" x2="357.5" y1="1429.373" y2="1429.373"/><text fill="#000000" font-family="sans-serif" font-size="13" font-weight="bold" lengthAdjust="spacing" textLength="18" x="66.5" y="1424.6309">40</text><text fill="#000000" font-family="sans-serif" font-size="13" lengthAdjust="spacing" textLength="210" x="88.5" y="1424.6309">enrollment request already exists</text><polygon fill="#181818" points="2196,1461.6836,2206,1465.6836,2196,1469.6836,2200,1465.6836" style="stroke:#181818;stroke-width:1.0;"/><line style="stroke:#181818;stroke-width:1.0;" x1="1008.5" x2="2202" y1="1465.6836" y2="1465.6836"/><text fill="#000000" font-family="sans-serif" font-size="13" font-weight="bold" lengthAdjust="spacing" textLength="18" x="1015.5" y="1460.9414">41</text><text fill="#000000" font-family="sans-serif" font-size="13" lengthAdjust="spacing" textLength="144" x="1037.5" y="1460.9414">create(student, course)</text><rect fill="#E2E2F0" height="30.4883" rx="2.5" ry="2.5" style="stroke:#181818;stroke-width:0.5;" width="144" x="2208" y="1444.373"/><text fill="#000000" font-family="sans-serif" font-size="14" lengthAdjust="spacing" textLength="130" x="2215" y="1464.9082">EnrollmentRequest</text><polygon fill="#181818" points="1019.5,1503.1719,1009.5,1507.1719,1019.5,1511.1719,1015.5,1507.1719" style="stroke:#181818;stroke-width:1.0;"/><line style="stroke:#181818;stroke-width:1.0;stroke-dasharray:2.0,2.0;" x1="1013.5" x2="2279" y1="1507.1719" y2="1507.1719"/><text fill="#000000" font-family="sans-serif" font-size="13" font-weight="bold" lengthAdjust="spacing" textLength="18" x="1025.5" y="1502.4297">42</text><text fill="#000000" font-family="sans-serif" font-size="13" lengthAdjust="spacing" textLength="47" x="1047.5" y="1502.4297">request</text><polygon fill="#181818" points="2626.5,1532.4824,2636.5,1536.4824,2626.5,1540.4824,2630.5,1536.4824" style="stroke:#181818;stroke-width:1.0;"/><line style="stroke:#181818;stroke-width:1.0;" x1="1008.5" x2="2632.5" y1="1536.4824" y2="1536.4824"/><text fill="#000000" font-family="sans-serif" font-size="13" font-weight="bold" lengthAdjust="spacing" textLength="18" x="1015.5" y="1531.7402">43</text><text fill="#000000" font-family="sans-serif" font-size="13" lengthAdjust="spacing" textLength="83" x="1037.5" y="1531.7402">save(request)</text><polygon fill="#181818" points="1019.5,1561.793,1009.5,1565.793,1019.5,1569.793,1015.5,1565.793" style="stroke:#181818;stroke-width:1.0;"/><line style="stroke:#181818;stroke-width:1.0;stroke-dasharray:2.0,2.0;" x1="1013.5" x2="2642.5" y1="1565.793" y2="1565.793"/><text fill="#000000" font-family="sans-serif" font-size="13" font-weight="bold" lengthAdjust="spacing" textLength="18" x="1025.5" y="1561.0508">44</text><text fill="#000000" font-family="sans-serif" font-size="13" lengthAdjust="spacing" textLength="109" x="1047.5" y="1561.0508">request(mirrored)</text><polygon fill="#181818" points="600.5,1591.1035,590.5,1595.1035,600.5,1599.1035,596.5,1595.1035" style="stroke:#181818;stroke-width:1.0;"/><line style="stroke:#181818;stroke-width:1.0;stroke-dasharray:2.0,2.0;" x1="594.5" x2="1002.5" y1="1595.1035" y2="1595.1035"/><text fill="#000000" font-family="sans-serif" font-size="13" font-weight="bold" lengthAdjust="spacing" textLength="18" x="606.5" y="1590.3613">45</text><text fill="#000000" font-family="sans-serif" font-size="13" lengthAdjust="spacing" textLength="47" x="628.5" y="1590.3613">request</text><polygon fill="#181818" points="379.5,1620.4141,369.5,1624.4141,379.5,1628.4141,375.5,1624.4141" style="stroke:#181818;stroke-width:1.0;"/><line style="stroke:#181818;stroke-width:1.0;stroke-dasharray:2.0,2.0;" x1="373.5" x2="583.5" y1="1624.4141" y2="1624.4141"/><text fill="#000000" font-family="sans-serif" font-size="13" font-weight="bold" lengthAdjust="spacing" textLength="18" x="385.5" y="1619.6719">46</text><text fill="#000000" font-family="sans-serif" font-size="13" lengthAdjust="spacing" textLength="47" x="407.5" y="1619.6719">request</text><polygon fill="#181818" points="60.5,1649.7246,50.5,1653.7246,60.5,1657.7246,56.5,1653.7246" style="stroke:#181818;stroke-width:1.0;"/><line style="stroke:#181818;stroke-width:1.0;stroke-dasharray:2.0,2.0;" x1="54.5" x2="362.5" y1="1653.7246" y2="1653.7246"/><text fill="#000000" font-family="sans-serif" font-size="13" font-weight="bold" lengthAdjust="spacing" textLength="18" x="66.5" y="1648.9824">47</text><text fill="#000000" font-family="sans-serif" font-size="13" lengthAdjust="spacing" textLength="263" x="88.5" y="1648.9824">informs request was created with success</text><!--SRC=[hLRRZjis47tNLx1vYHtivLr00spT3R90smInzmCOQMmJaKcLfBnslZup92MIalRYellWfUcPEJDd3eTylxUsDUNjRTjmQRj3SrEfmws1VpkG5LpNWkyqFnG5xwoItU4xQ5nNLccsjbqDqZ9kcF7BecYvjg8IBOPYtoY6iVTIgwOvuC-F3sJRYLVCLafQMeCcyyhg9dU8bi7rRoxv3cXZ3VeeAd0f7QlCwwwp-v_VO2UCrMSoq64ziL9Q_EHMA9b4u-ITMJuQq6im1krSLV5hdkrNq0PnY4mg34xMLtKQaT0g8v3LyoT7RiYmLU5hKTJSyk_S05kfJXk83YxSi1Vj9ZJbBZfklimk6SDuCw_HfxHIDSHaw5jczAKbJdb39gh524LG3Rl-YA8e-umIC1AQE78B99fEi6kq34ubXlbXs1PrwF7m7mBMaBgC4N09kNrcJGWV1rsKhkbZCIoMqMTGKBzm2HAGaqlmI7CQF3mKQRjabGRyRP7w921E__JX7KwbauNhem2po2nFQ7XoIVZ8UgogD1TlxkCcIYi3FoQlD2enMITGgG9XrcyURAAi2t5XJkMNfK17zq9KShaSICBJHdDfk3y8OHnSXcnFzZdG7XCdto2gs9QhUQgkXbgkAFOoLmYDtgbKW_iY7lInNeTSdAYfIwRJGCCLqKM5TZNDpy_StCdpb-qYp3JLWBbPRnx_lFzdiqG2jamTwHPmmvVXtyEXRToWTnGojStFQ06oHags4J-c-E53YVP9pckhXTobcSUv5PSJYQz6OoRroeis_Zf8- -ihSPz9u63O3yWqkdVe0-FOn2BqVMDWizVgAGtjHYflhEid4uP9PLcZTZke7NNu-p2UB3cJ7Da3NhCxtjpfNKUqtfygS5aitctseC77yI7_Sh5ktYrTkF4qda45J7FOdyaaAzxzaXHEvL0tiQBOpUIIzJCsKrFAHdeT9-lH4SwkY_G2dpbAKz7xevE0qfEZm8yeF3fN9TiAMVzn9fTdZaoSdN7fwNNuRczE7ObZW7sJGi85M2lm_O8JNah_IIIhkKZFIGI5PBfgtyCxM-DLac-bcIGCl2YHKF_iZ8iTe31tqgl51vqqSVv2cTsD2OQdIzgR-JYE__wXyzllJ7PDu-fo-JlcsTke7rvd3SgpFWVkdkC-PZEWvuwlCqa3DDmg8UnLQCnBx4sPkuorrpfh-14M8T3_rCN5GMYjDDJBD_Ipxrl_u9fKv8Q2doVvEtV-fasR9YG-Rm_3KvqzqUFQTQ1cJyBkwJXLEBB6hzwY-0K0]--></g></svg>