<?xml version="1.0" encoding="UTF-8" standalone="no"?><svg xmlns="http://www.w3.org/2000/svg" xmlns:xlink="http://www.w3.org/1999/xlink" contentStyleType="text/css" height="1446px" preserveAspectRatio="none" style="width:1999px;height:1446px;background:#FFFFFF;" version="1.1" viewBox="0 0 1999 1446" width="1999px" zoomAndPan="magnify"><defs/><g><!--cluster User Aggregate--><g id="cluster_User Aggregate"><rect fill="none" height="389" rx="2.5" ry="2.5" style="stroke:#000000;stroke-width:1.5;" width="375" x="7" y="7"/><text fill="#000000" font-family="sans-serif" font-size="20" font-weight="bold" lengthAdjust="spacing" textLength="147" x="121" y="29.7617">User Aggregate</text></g><!--cluster Invite Aggregate--><g id="cluster_Invite Aggregate"><rect fill="none" height="154" rx="2.5" ry="2.5" style="stroke:#000000;stroke-width:1.5;" width="1162.5" x="222.5" y="420"/><text fill="#000000" font-family="sans-serif" font-size="20" font-weight="bold" lengthAdjust="spacing" textLength="154" x="726.75" y="442.7617">Invite Aggregate</text></g><!--cluster Meeting Aggregate--><g id="cluster_Meeting Aggregate"><rect fill="none" height="298" rx="2.5" ry="2.5" style="stroke:#000000;stroke-width:1.5;" width="665" x="440" y="598"/><text fill="#000000" font-family="sans-serif" font-size="20" font-weight="bold" lengthAdjust="spacing" textLength="178" x="683.5" y="620.7617">Meeting Aggregate</text></g><!--cluster Teacher Aggregate--><g id="cluster_Teacher Aggregate"><rect fill="none" height="154" rx="2.5" ry="2.5" style="stroke:#000000;stroke-width:1.5;" width="196" x="190" y="838"/><text fill="#000000" font-family="sans-serif" font-size="20" font-weight="bold" lengthAdjust="spacing" textLength="180" x="198" y="860.7617">Teacher Aggregate</text></g><!--cluster Class Aggregate--><g id="cluster_Class Aggregate"><rect fill="none" height="342" rx="2.5" ry="2.5" style="stroke:#000000;stroke-width:1.5;" width="1550.5" x="442.5" y="920"/><text fill="#000000" font-family="sans-serif" font-size="20" font-weight="bold" lengthAdjust="spacing" textLength="155" x="1140.25" y="942.7617">Class Aggregate</text></g><!--cluster Student Aggregate--><g id="cluster_Student Aggregate"><rect fill="none" height="154" rx="2.5" ry="2.5" style="stroke:#000000;stroke-width:1.5;" width="193" x="911" y="1286"/><text fill="#000000" font-family="sans-serif" font-size="20" font-weight="bold" lengthAdjust="spacing" textLength="177" x="919" y="1308.7617">Student Aggregate</text></g><!--class User--><g id="elem_User"><rect codeLine="27" fill="#D8F5FF" height="93.4688" id="User" rx="2.5" ry="2.5" style="stroke:#1E90FF;stroke-width:0.5;" width="99" x="23" y="286.5"/><ellipse cx="39" cy="329.2344" fill="#ADD1B2" rx="12" ry="12" style="stroke:#181818;stroke-width:1.0;"/><path d="M36.9531,330.2969 L36.9531,333.2344 L42.0469,333.2344 L42.0469,332.1406 Q42.0469,331.4219 42.3281,331.125 Q42.6094,330.8125 43.0625,330.8125 Q43.5,330.8125 43.7813,331.125 Q44.0625,331.4219 44.0625,332.1406 L44.0625,335.2344 L34.625,335.2344 Q33.9063,335.2344 33.5938,334.9531 Q33.2969,334.6719 33.2969,334.2344 Q33.2969,333.7813 33.6094,333.5156 Q33.9219,333.2344 34.625,333.2344 L34.9375,333.2344 L34.9375,325.4063 L34.625,325.4063 Q33.9063,325.4063 33.5938,325.125 Q33.2969,324.8438 33.2969,324.3906 Q33.2969,323.9375 33.5938,323.6719 Q33.9063,323.3906 34.625,323.3906 L43.6094,323.3906 L43.6094,326.4375 Q43.6094,327.1563 43.3281,327.4688 Q43.0625,327.7656 42.625,327.7656 Q42.1719,327.7656 41.8906,327.4688 Q41.6094,327.1719 41.6094,326.4375 L41.6094,325.4063 L36.9531,325.4063 L36.9531,328.2969 L38.7031,328.2969 Q38.7031,327.5156 38.8438,327.2813 Q39.1563,326.8125 39.7031,326.8125 Q40.1563,326.8125 40.4219,327.125 Q40.7031,327.4219 40.7031,328.1406 L40.7031,330.4531 Q40.7031,331.1094 40.5469,331.3281 Q40.2344,331.7813 39.7031,331.7813 Q39.1563,331.7813 38.8438,331.3125 Q38.7031,331.0781 38.7031,330.2969 L36.9531,330.2969 Z " fill="#000000"/><text fill="#000000" font-family="sans-serif" font-size="20" font-style="italic" lengthAdjust="spacing" textLength="69" x="52" y="312.2617">«entity»</text><text fill="#000000" font-family="sans-serif" font-size="20" font-style="italic" lengthAdjust="spacing" textLength="56" x="58.5" y="337.418">«root»</text><text fill="#000000" font-family="sans-serif" font-size="20" lengthAdjust="spacing" textLength="41" x="66" y="362.5742">User</text><line style="stroke:#1E90FF;stroke-width:0.5;" x1="24" x2="121" y1="371.9688" y2="371.9688"/></g><!--entity Email--><g id="elem_Email"><rect fill="#D8F5FF" height="56.3125" rx="2.5" ry="2.5" style="stroke:#1E90FF;stroke-width:0.5;" width="156" x="210" y="324"/><text fill="#000000" font-family="sans-serif" font-size="20" font-style="italic" lengthAdjust="spacing" textLength="136" x="220" y="347.7617">«Value Object»</text><text fill="#000000" font-family="sans-serif" font-size="20" lengthAdjust="spacing" textLength="48" x="264" y="372.918">Email</text></g><!--entity Password--><g id="elem_Password"><rect fill="#D8F5FF" height="56.3125" rx="2.5" ry="2.5" style="stroke:#1E90FF;stroke-width:0.5;" width="156" x="210" y="233"/><text fill="#000000" font-family="sans-serif" font-size="20" font-style="italic" lengthAdjust="spacing" textLength="136" x="220" y="256.7617">«Value Object»</text><text fill="#000000" font-family="sans-serif" font-size="20" lengthAdjust="spacing" textLength="88" x="244" y="281.918">Password</text></g><!--entity FullName--><g id="elem_FullName"><rect fill="#D8F5FF" height="56.3125" rx="2.5" ry="2.5" style="stroke:#1E90FF;stroke-width:0.5;" width="156" x="210" y="142"/><text fill="#000000" font-family="sans-serif" font-size="20" font-style="italic" lengthAdjust="spacing" textLength="136" x="220" y="165.7617">«Value Object»</text><text fill="#000000" font-family="sans-serif" font-size="20" lengthAdjust="spacing" textLength="81" x="247.5" y="190.918">FullName</text></g><!--entity ShortName--><g id="elem_ShortName"><rect fill="#D8F5FF" height="56.3125" rx="2.5" ry="2.5" style="stroke:#1E90FF;stroke-width:0.5;" width="156" x="210" y="51"/><text fill="#000000" font-family="sans-serif" font-size="20" font-style="italic" lengthAdjust="spacing" textLength="136" x="220" y="74.7617">«Value Object»</text><text fill="#000000" font-family="sans-serif" font-size="20" lengthAdjust="spacing" textLength="98" x="239" y="99.918">ShortName</text></g><!--class Invite--><g id="elem_Invite"><rect codeLine="45" fill="#D8F5FF" height="93.4688" id="Invite" rx="2.5" ry="2.5" style="stroke:#1E90FF;stroke-width:0.5;" width="99" x="238.5" y="464.5"/><ellipse cx="254.5" cy="507.2344" fill="#ADD1B2" rx="12" ry="12" style="stroke:#181818;stroke-width:1.0;"/><path d="M252.4531,508.2969 L252.4531,511.2344 L257.5469,511.2344 L257.5469,510.1406 Q257.5469,509.4219 257.8281,509.125 Q258.1094,508.8125 258.5625,508.8125 Q259,508.8125 259.2813,509.125 Q259.5625,509.4219 259.5625,510.1406 L259.5625,513.2344 L250.125,513.2344 Q249.4063,513.2344 249.0938,512.9531 Q248.7969,512.6719 248.7969,512.2344 Q248.7969,511.7813 249.1094,511.5156 Q249.4219,511.2344 250.125,511.2344 L250.4375,511.2344 L250.4375,503.4063 L250.125,503.4063 Q249.4063,503.4063 249.0938,503.125 Q248.7969,502.8438 248.7969,502.3906 Q248.7969,501.9375 249.0938,501.6719 Q249.4063,501.3906 250.125,501.3906 L259.1094,501.3906 L259.1094,504.4375 Q259.1094,505.1563 258.8281,505.4688 Q258.5625,505.7656 258.125,505.7656 Q257.6719,505.7656 257.3906,505.4688 Q257.1094,505.1719 257.1094,504.4375 L257.1094,503.4063 L252.4531,503.4063 L252.4531,506.2969 L254.2031,506.2969 Q254.2031,505.5156 254.3438,505.2813 Q254.6563,504.8125 255.2031,504.8125 Q255.6563,504.8125 255.9219,505.125 Q256.2031,505.4219 256.2031,506.1406 L256.2031,508.4531 Q256.2031,509.1094 256.0469,509.3281 Q255.7344,509.7813 255.2031,509.7813 Q254.6563,509.7813 254.3438,509.3125 Q254.2031,509.0781 254.2031,508.2969 L252.4531,508.2969 Z " fill="#000000"/><text fill="#000000" font-family="sans-serif" font-size="20" font-style="italic" lengthAdjust="spacing" textLength="69" x="267.5" y="490.2617">«entity»</text><text fill="#000000" font-family="sans-serif" font-size="20" font-style="italic" lengthAdjust="spacing" textLength="56" x="274" y="515.418">«root»</text><text fill="#000000" font-family="sans-serif" font-size="20" lengthAdjust="spacing" textLength="46" x="279" y="540.5742">Invite</text><line style="stroke:#1E90FF;stroke-width:0.5;" x1="239.5" x2="336.5" y1="549.9688" y2="549.9688"/></g><g id="elem_GMN15"><path d="M646,481 L646,541.3125 L1369,541.3125 L1369,491 L1359,481 L646,481 " fill="#FEFFDD" style="stroke:#181818;stroke-width:0.5;"/><path d="M1359,481 L1359,491 L1369,491 L1359,481 " fill="#FEFFDD" style="stroke:#181818;stroke-width:1.0;"/><text fill="#000000" font-family="sans-serif" font-size="20" lengthAdjust="spacing" textLength="355" x="652" y="506.7617">The user accepts or rejects an invitation.</text><text fill="#000000" font-family="sans-serif" font-size="20" lengthAdjust="spacing" textLength="702" x="652" y="531.918">The status of someone that did not answer should be "no answer" or "unknown".</text></g><!--entity Response--><g id="elem_Response"><rect fill="#D8F5FF" height="56.3125" rx="2.5" ry="2.5" style="stroke:#1E90FF;stroke-width:0.5;" width="156" x="430" y="483"/><text fill="#000000" font-family="sans-serif" font-size="20" font-style="italic" lengthAdjust="spacing" textLength="136" x="440" y="506.7617">«Value Object»</text><text fill="#000000" font-family="sans-serif" font-size="20" lengthAdjust="spacing" textLength="88" x="464" y="531.918">Response</text></g><!--class Meeting--><g id="elem_Meeting"><rect codeLine="58" fill="#D8F5FF" height="93.4688" id="Meeting" rx="2.5" ry="2.5" style="stroke:#1E90FF;stroke-width:0.5;" width="104" x="456" y="642.5"/><ellipse cx="472" cy="685.2344" fill="#ADD1B2" rx="12" ry="12" style="stroke:#181818;stroke-width:1.0;"/><path d="M469.9531,686.2969 L469.9531,689.2344 L475.0469,689.2344 L475.0469,688.1406 Q475.0469,687.4219 475.3281,687.125 Q475.6094,686.8125 476.0625,686.8125 Q476.5,686.8125 476.7813,687.125 Q477.0625,687.4219 477.0625,688.1406 L477.0625,691.2344 L467.625,691.2344 Q466.9063,691.2344 466.5938,690.9531 Q466.2969,690.6719 466.2969,690.2344 Q466.2969,689.7813 466.6094,689.5156 Q466.9219,689.2344 467.625,689.2344 L467.9375,689.2344 L467.9375,681.4063 L467.625,681.4063 Q466.9063,681.4063 466.5938,681.125 Q466.2969,680.8438 466.2969,680.3906 Q466.2969,679.9375 466.5938,679.6719 Q466.9063,679.3906 467.625,679.3906 L476.6094,679.3906 L476.6094,682.4375 Q476.6094,683.1563 476.3281,683.4688 Q476.0625,683.7656 475.625,683.7656 Q475.1719,683.7656 474.8906,683.4688 Q474.6094,683.1719 474.6094,682.4375 L474.6094,681.4063 L469.9531,681.4063 L469.9531,684.2969 L471.7031,684.2969 Q471.7031,683.5156 471.8438,683.2813 Q472.1563,682.8125 472.7031,682.8125 Q473.1563,682.8125 473.4219,683.125 Q473.7031,683.4219 473.7031,684.1406 L473.7031,686.4531 Q473.7031,687.1094 473.5469,687.3281 Q473.2344,687.7813 472.7031,687.7813 Q472.1563,687.7813 471.8438,687.3125 Q471.7031,687.0781 471.7031,686.2969 L469.9531,686.2969 Z " fill="#000000"/><text fill="#000000" font-family="sans-serif" font-size="20" font-style="italic" lengthAdjust="spacing" textLength="69" x="487.5" y="668.2617">«entity»</text><text fill="#000000" font-family="sans-serif" font-size="20" font-style="italic" lengthAdjust="spacing" textLength="56" x="494" y="693.418">«root»</text><text fill="#000000" font-family="sans-serif" font-size="20" lengthAdjust="spacing" textLength="70" x="487" y="718.5742">Meeting</text><line style="stroke:#1E90FF;stroke-width:0.5;" x1="457" x2="559" y1="727.9688" y2="727.9688"/></g><!--entity MeetingID--><g id="elem_MeetingID"><rect fill="#D8F5FF" height="56.3125" rx="2.5" ry="2.5" style="stroke:#1E90FF;stroke-width:0.5;" width="153" x="931" y="824"/><text fill="#000000" font-family="sans-serif" font-size="20" font-style="italic" lengthAdjust="spacing" textLength="133" x="941" y="847.7617">«value Object»</text><text fill="#000000" font-family="sans-serif" font-size="20" lengthAdjust="spacing" textLength="90" x="962.5" y="872.918">MeetingID</text></g><!--entity MeetingDate--><g id="elem_MeetingDate"><rect fill="#D8F5FF" height="56.3125" rx="2.5" ry="2.5" style="stroke:#1E90FF;stroke-width:0.5;" width="153" x="931" y="733"/><text fill="#000000" font-family="sans-serif" font-size="20" font-style="italic" lengthAdjust="spacing" textLength="133" x="941" y="756.7617">«value Object»</text><text fill="#000000" font-family="sans-serif" font-size="20" lengthAdjust="spacing" textLength="112" x="951.5" y="781.918">MeetingDate</text></g><!--entity MeetingDuration--><g id="elem_MeetingDuration"><rect fill="#D8F5FF" height="56.3125" rx="2.5" ry="2.5" style="stroke:#1E90FF;stroke-width:0.5;" width="163" x="926" y="642"/><text fill="#000000" font-family="sans-serif" font-size="20" font-style="italic" lengthAdjust="spacing" textLength="133" x="941" y="665.7617">«value Object»</text><text fill="#000000" font-family="sans-serif" font-size="20" lengthAdjust="spacing" textLength="143" x="936" y="690.918">MeetingDuration</text></g><!--class Teacher--><g id="elem_Teacher"><rect codeLine="72" fill="#D8F5FF" height="93.4688" id="Teacher" rx="2.5" ry="2.5" style="stroke:#1E90FF;stroke-width:0.5;" width="106" x="235" y="882.5"/><ellipse cx="251" cy="925.2344" fill="#ADD1B2" rx="12" ry="12" style="stroke:#181818;stroke-width:1.0;"/><path d="M248.9531,926.2969 L248.9531,929.2344 L254.0469,929.2344 L254.0469,928.1406 Q254.0469,927.4219 254.3281,927.125 Q254.6094,926.8125 255.0625,926.8125 Q255.5,926.8125 255.7813,927.125 Q256.0625,927.4219 256.0625,928.1406 L256.0625,931.2344 L246.625,931.2344 Q245.9063,931.2344 245.5938,930.9531 Q245.2969,930.6719 245.2969,930.2344 Q245.2969,929.7813 245.6094,929.5156 Q245.9219,929.2344 246.625,929.2344 L246.9375,929.2344 L246.9375,921.4063 L246.625,921.4063 Q245.9063,921.4063 245.5938,921.125 Q245.2969,920.8438 245.2969,920.3906 Q245.2969,919.9375 245.5938,919.6719 Q245.9063,919.3906 246.625,919.3906 L255.6094,919.3906 L255.6094,922.4375 Q255.6094,923.1563 255.3281,923.4688 Q255.0625,923.7656 254.625,923.7656 Q254.1719,923.7656 253.8906,923.4688 Q253.6094,923.1719 253.6094,922.4375 L253.6094,921.4063 L248.9531,921.4063 L248.9531,924.2969 L250.7031,924.2969 Q250.7031,923.5156 250.8438,923.2813 Q251.1563,922.8125 251.7031,922.8125 Q252.1563,922.8125 252.4219,923.125 Q252.7031,923.4219 252.7031,924.1406 L252.7031,926.4531 Q252.7031,927.1094 252.5469,927.3281 Q252.2344,927.7813 251.7031,927.7813 Q251.1563,927.7813 250.8438,927.3125 Q250.7031,927.0781 250.7031,926.2969 L248.9531,926.2969 Z " fill="#000000"/><text fill="#000000" font-family="sans-serif" font-size="20" font-style="italic" lengthAdjust="spacing" textLength="69" x="267.5" y="908.2617">«entity»</text><text fill="#000000" font-family="sans-serif" font-size="20" font-style="italic" lengthAdjust="spacing" textLength="56" x="274" y="933.418">«root»</text><text fill="#000000" font-family="sans-serif" font-size="20" lengthAdjust="spacing" textLength="72" x="266" y="958.5742">Teacher</text><line style="stroke:#1E90FF;stroke-width:0.5;" x1="236" x2="340" y1="967.9688" y2="967.9688"/></g><!--class Class--><g id="elem_Class"><rect codeLine="76" fill="#D8F5FF" height="93.4688" id="Class" rx="2.5" ry="2.5" style="stroke:#1E90FF;stroke-width:0.5;" width="99" x="458.5" y="1036.5"/><ellipse cx="474.5" cy="1079.2344" fill="#ADD1B2" rx="12" ry="12" style="stroke:#181818;stroke-width:1.0;"/><path d="M472.4531,1080.2969 L472.4531,1083.2344 L477.5469,1083.2344 L477.5469,1082.1406 Q477.5469,1081.4219 477.8281,1081.125 Q478.1094,1080.8125 478.5625,1080.8125 Q479,1080.8125 479.2813,1081.125 Q479.5625,1081.4219 479.5625,1082.1406 L479.5625,1085.2344 L470.125,1085.2344 Q469.4063,1085.2344 469.0938,1084.9531 Q468.7969,1084.6719 468.7969,1084.2344 Q468.7969,1083.7813 469.1094,1083.5156 Q469.4219,1083.2344 470.125,1083.2344 L470.4375,1083.2344 L470.4375,1075.4063 L470.125,1075.4063 Q469.4063,1075.4063 469.0938,1075.125 Q468.7969,1074.8438 468.7969,1074.3906 Q468.7969,1073.9375 469.0938,1073.6719 Q469.4063,1073.3906 470.125,1073.3906 L479.1094,1073.3906 L479.1094,1076.4375 Q479.1094,1077.1563 478.8281,1077.4688 Q478.5625,1077.7656 478.125,1077.7656 Q477.6719,1077.7656 477.3906,1077.4688 Q477.1094,1077.1719 477.1094,1076.4375 L477.1094,1075.4063 L472.4531,1075.4063 L472.4531,1078.2969 L474.2031,1078.2969 Q474.2031,1077.5156 474.3438,1077.2813 Q474.6563,1076.8125 475.2031,1076.8125 Q475.6563,1076.8125 475.9219,1077.125 Q476.2031,1077.4219 476.2031,1078.1406 L476.2031,1080.4531 Q476.2031,1081.1094 476.0469,1081.3281 Q475.7344,1081.7813 475.2031,1081.7813 Q474.6563,1081.7813 474.3438,1081.3125 Q474.2031,1081.0781 474.2031,1080.2969 L472.4531,1080.2969 Z " fill="#000000"/><text fill="#000000" font-family="sans-serif" font-size="20" font-style="italic" lengthAdjust="spacing" textLength="69" x="487.5" y="1062.2617">«entity»</text><text fill="#000000" font-family="sans-serif" font-size="20" font-style="italic" lengthAdjust="spacing" textLength="56" x="494" y="1087.418">«root»</text><text fill="#000000" font-family="sans-serif" font-size="20" lengthAdjust="spacing" textLength="49" x="497.5" y="1112.5742">Class</text><line style="stroke:#1E90FF;stroke-width:0.5;" x1="459.5" x2="556.5" y1="1121.9688" y2="1121.9688"/></g><g id="elem_GMN34"><path d="M1429,1034.5 L1429,1245.75 L1977,1245.75 L1977,1044.5 L1967,1034.5 L1429,1034.5 " fill="#FEFFDD" style="stroke:#181818;stroke-width:0.5;"/><path d="M1967,1034.5 L1967,1044.5 L1977,1044.5 L1967,1034.5 " fill="#FEFFDD" style="stroke:#181818;stroke-width:1.0;"/><text fill="#000000" font-family="sans-serif" font-size="20" lengthAdjust="spacing" textLength="377" x="1435" y="1060.2617">A class is always a recurring weekly event.</text><text fill="#000000" font-family="sans-serif" font-size="20" lengthAdjust="spacing" textLength="6" x="1435" y="1085.418"> </text><text fill="#000000" font-family="sans-serif" font-size="20" lengthAdjust="spacing" textLength="417" x="1435" y="1110.5742">It should be impossible to schedule classes that</text><text fill="#000000" font-family="sans-serif" font-size="20" lengthAdjust="spacing" textLength="467" x="1435" y="1135.7305">are coincident with other classes of the same course.</text><text fill="#000000" font-family="sans-serif" font-size="20" lengthAdjust="spacing" textLength="6" x="1435" y="1160.8867"> </text><text fill="#000000" font-family="sans-serif" font-size="20" lengthAdjust="spacing" textLength="472" x="1435" y="1186.043">The system should also warn if one of the participants</text><text fill="#000000" font-family="sans-serif" font-size="20" lengthAdjust="spacing" textLength="527" x="1435" y="1211.1992">in the class (either a teacher or a student) has other classes</text><text fill="#000000" font-family="sans-serif" font-size="20" lengthAdjust="spacing" textLength="489" x="1435" y="1236.3555">at the same time. Teachers can schedule extra classes.</text></g><g id="elem_GMN37"><path d="M1555,964.5 L1555,999.6563 L1851,999.6563 L1851,974.5 L1841,964.5 L1555,964.5 " fill="#FEFFDD" style="stroke:#181818;stroke-width:0.5;"/><path d="M1841,964.5 L1841,974.5 L1851,974.5 L1841,964.5 " fill="#FEFFDD" style="stroke:#181818;stroke-width:1.0;"/><text fill="#000000" font-family="sans-serif" font-size="20" lengthAdjust="spacing" textLength="275" x="1561" y="990.2617">A class must have a unique title</text></g><!--entity ClassDate--><g id="elem_ClassDate"><rect fill="#D8F5FF" height="56.3125" rx="2.5" ry="2.5" style="stroke:#1E90FF;stroke-width:0.5;" width="153" x="931" y="1146"/><text fill="#000000" font-family="sans-serif" font-size="20" font-style="italic" lengthAdjust="spacing" textLength="133" x="941" y="1169.7617">«value Object»</text><text fill="#000000" font-family="sans-serif" font-size="20" lengthAdjust="spacing" textLength="91" x="962" y="1194.918">ClassDate</text></g><!--entity ClassDuration--><g id="elem_ClassDuration"><rect fill="#D8F5FF" height="56.3125" rx="2.5" ry="2.5" style="stroke:#1E90FF;stroke-width:0.5;" width="153" x="931" y="1055"/><text fill="#000000" font-family="sans-serif" font-size="20" font-style="italic" lengthAdjust="spacing" textLength="133" x="941" y="1078.7617">«value Object»</text><text fill="#000000" font-family="sans-serif" font-size="20" lengthAdjust="spacing" textLength="122" x="946.5" y="1103.918">ClassDuration</text></g><!--entity Title--><g id="elem_Title"><rect fill="#D8F5FF" height="56.3125" rx="2.5" ry="2.5" style="stroke:#1E90FF;stroke-width:0.5;" width="153" x="931" y="964"/><text fill="#000000" font-family="sans-serif" font-size="20" font-style="italic" lengthAdjust="spacing" textLength="133" x="941" y="987.7617">«value Object»</text><text fill="#000000" font-family="sans-serif" font-size="20" lengthAdjust="spacing" textLength="37" x="989" y="1012.918">Title</text></g><!--class Student--><g id="elem_Student"><rect codeLine="107" fill="#D8F5FF" height="93.4688" id="Student" rx="2.5" ry="2.5" style="stroke:#1E90FF;stroke-width:0.5;" width="101" x="957" y="1330.5"/><ellipse cx="973" cy="1373.2344" fill="#ADD1B2" rx="12" ry="12" style="stroke:#181818;stroke-width:1.0;"/><path d="M970.9531,1374.2969 L970.9531,1377.2344 L976.0469,1377.2344 L976.0469,1376.1406 Q976.0469,1375.4219 976.3281,1375.125 Q976.6094,1374.8125 977.0625,1374.8125 Q977.5,1374.8125 977.7813,1375.125 Q978.0625,1375.4219 978.0625,1376.1406 L978.0625,1379.2344 L968.625,1379.2344 Q967.9063,1379.2344 967.5938,1378.9531 Q967.2969,1378.6719 967.2969,1378.2344 Q967.2969,1377.7813 967.6094,1377.5156 Q967.9219,1377.2344 968.625,1377.2344 L968.9375,1377.2344 L968.9375,1369.4063 L968.625,1369.4063 Q967.9063,1369.4063 967.5938,1369.125 Q967.2969,1368.8438 967.2969,1368.3906 Q967.2969,1367.9375 967.5938,1367.6719 Q967.9063,1367.3906 968.625,1367.3906 L977.6094,1367.3906 L977.6094,1370.4375 Q977.6094,1371.1563 977.3281,1371.4688 Q977.0625,1371.7656 976.625,1371.7656 Q976.1719,1371.7656 975.8906,1371.4688 Q975.6094,1371.1719 975.6094,1370.4375 L975.6094,1369.4063 L970.9531,1369.4063 L970.9531,1372.2969 L972.7031,1372.2969 Q972.7031,1371.5156 972.8438,1371.2813 Q973.1563,1370.8125 973.7031,1370.8125 Q974.1563,1370.8125 974.4219,1371.125 Q974.7031,1371.4219 974.7031,1372.1406 L974.7031,1374.4531 Q974.7031,1375.1094 974.5469,1375.3281 Q974.2344,1375.7813 973.7031,1375.7813 Q973.1563,1375.7813 972.8438,1375.3125 Q972.7031,1375.0781 972.7031,1374.2969 L970.9531,1374.2969 Z " fill="#000000"/><text fill="#000000" font-family="sans-serif" font-size="20" font-style="italic" lengthAdjust="spacing" textLength="69" x="987" y="1356.2617">«entity»</text><text fill="#000000" font-family="sans-serif" font-size="20" font-style="italic" lengthAdjust="spacing" textLength="56" x="993.5" y="1381.418">«root»</text><text fill="#000000" font-family="sans-serif" font-size="20" lengthAdjust="spacing" textLength="67" x="988" y="1406.5742">Student</text><line style="stroke:#1E90FF;stroke-width:0.5;" x1="958" x2="1057" y1="1415.9688" y2="1415.9688"/></g><!--link User to Email--><g id="link_User_Email"><path codeLine="38" d="M122.21,337.34 C146.54,339.5 176.65,342.18 204.45,344.65 " fill="none" id="User-to-Email" style="stroke:#1E90FF;stroke-width:1.0;"/><polygon fill="#1E90FF" points="209.61,345.11,201.0004,340.3272,204.6297,344.6664,200.2906,348.2957,209.61,345.11" style="stroke:#1E90FF;stroke-width:1.0;"/></g><!--link User to Password--><g id="link_User_Password"><path codeLine="39" d="M122.21,316.57 C146.65,308.33 176.9,298.13 204.8,288.72 " fill="none" id="User-to-Password" style="stroke:#1E90FF;stroke-width:1.0;"/><polygon fill="#1E90FF" points="209.61,287.1,199.8027,286.1957,204.8738,288.7026,202.3669,293.7736,209.61,287.1" style="stroke:#1E90FF;stroke-width:1.0;"/></g><!--link User to FullName--><g id="link_User_FullName"><path codeLine="40" d="M108.55,286.27 C128.14,262.57 154.18,234.7 182,215 C189.51,209.68 197.75,204.81 206.21,200.4 " fill="none" id="User-to-FullName" style="stroke:#1E90FF;stroke-width:1.0;"/><polygon fill="#1E90FF" points="210.92,198,201.085,198.5226,206.4651,200.2703,204.7174,205.6504,210.92,198" style="stroke:#1E90FF;stroke-width:1.0;"/></g><!--link User to ShortName--><g id="link_User_ShortName"><path codeLine="41" d="M87.46,286.09 C103.48,239.47 133.92,168.65 182,124 C188.87,117.62 196.78,112.07 205.11,107.25 " fill="none" id="User-to-ShortName" style="stroke:#1E90FF;stroke-width:1.0;"/><polygon fill="#1E90FF" points="209.78,104.64,199.97,105.5142,205.4092,107.0682,203.8552,112.5074,209.78,104.64" style="stroke:#1E90FF;stroke-width:1.0;"/></g><!--link Response to GMN15--><g id="link_Response_GMN15"><path d="M586.19,511 C604.07,511 624.25,511 645.85,511 " fill="none" id="Response-GMN15" style="stroke:#1E90FF;stroke-width:1.0;stroke-dasharray:7.0,7.0;"/></g><!--link Invite to Response--><g id="link_Invite_Response"><path codeLine="54" d="M337.65,511 C363.28,511 395.39,511 424.75,511 " fill="none" id="Invite-to-Response" style="stroke:#1E90FF;stroke-width:1.0;"/><polygon fill="#1E90FF" points="429.82,511,420.82,507,424.82,511,420.82,515,429.82,511" style="stroke:#1E90FF;stroke-width:1.0;"/></g><!--link Meeting to MeetingID--><g id="link_Meeting_MeetingID"><path codeLine="67" d="M550.34,735.64 C575.41,760.77 609.54,789.85 646,806 C735.86,845.79 849.83,854.19 925.3,854.67 " fill="none" id="Meeting-to-MeetingID" style="stroke:#1E90FF;stroke-width:1.0;"/><polygon fill="#1E90FF" points="930.67,854.69,921.693,850.6386,925.6701,854.6614,921.6473,858.6385,930.67,854.69" style="stroke:#1E90FF;stroke-width:1.0;"/></g><!--link Meeting to MeetingDate--><g id="link_Meeting_MeetingDate"><path codeLine="68" d="M560.27,699.49 C585.94,704.55 617.55,710.49 646,715 C741.7,730.17 852.3,743.69 925.5,752.09 " fill="none" id="Meeting-to-MeetingDate" style="stroke:#1E90FF;stroke-width:1.0;"/><polygon fill="#1E90FF" points="930.7,752.68,922.2015,747.7025,925.7311,752.1231,921.3105,755.6528,930.7,752.68" style="stroke:#1E90FF;stroke-width:1.0;"/></g><!--link Meeting to MeetingDuration--><g id="link_Meeting_MeetingDuration"><path codeLine="69" d="M560.37,687.04 C645.57,683.78 817.01,677.24 920.79,673.27 " fill="none" id="Meeting-to-MeetingDuration" style="stroke:#1E90FF;stroke-width:1.0;"/><polygon fill="#1E90FF" points="925.98,673.07,916.8269,669.434,920.984,673.2704,917.1476,677.4275,925.98,673.07" style="stroke:#1E90FF;stroke-width:1.0;"/></g><!--link ClassDate to GMN34--><g id="link_ClassDate_GMN34"><path d="M1084.04,1170.3 C1166.8,1166.24 1304.36,1159.49 1428.71,1153.4 " fill="none" id="ClassDate-GMN34" style="stroke:#1E90FF;stroke-width:1.0;stroke-dasharray:7.0,7.0;"/></g><!--link Title to GMN37--><g id="link_Title_GMN37"><path d="M1084.04,990.91 C1196.64,989.29 1410.68,986.2 1554.88,984.12 " fill="none" id="Title-GMN37" style="stroke:#1E90FF;stroke-width:1.0;stroke-dasharray:7.0,7.0;"/></g><!--link Class to ClassDate--><g id="link_Class_ClassDate"><path codeLine="102" d="M557.51,1101.44 C583.43,1110.65 616.09,1121.24 646,1128 C740.81,1149.41 852.06,1161.71 925.63,1168.11 " fill="none" id="Class-to-ClassDate" style="stroke:#1E90FF;stroke-width:1.0;"/><polygon fill="#1E90FF" points="930.86,1168.56,922.2356,1163.8039,925.8784,1168.1318,921.5505,1171.7745,930.86,1168.56" style="stroke:#1E90FF;stroke-width:1.0;"/></g><!--link Class to ClassDuration--><g id="link_Class_ClassDuration"><path codeLine="103" d="M557.61,1083 C643.08,1083 821.12,1083 925.46,1083 " fill="none" id="Class-to-ClassDuration" style="stroke:#1E90FF;stroke-width:1.0;"/><polygon fill="#1E90FF" points="930.68,1083,921.68,1079,925.68,1083,921.68,1087,930.68,1083" style="stroke:#1E90FF;stroke-width:1.0;"/></g><!--link Class to Title--><g id="link_Class_Title"><path codeLine="104" d="M557.78,1063.97 C583.64,1054.57 616.16,1043.8 646,1037 C740.74,1015.41 852,1003.51 925.59,997.45 " fill="none" id="Class-to-Title" style="stroke:#1E90FF;stroke-width:1.0;"/><polygon fill="#1E90FF" points="930.83,997.03,921.5389,993.7626,925.846,997.4299,922.1787,1001.7369,930.83,997.03" style="stroke:#1E90FF;stroke-width:1.0;"/></g><!--link User to Meeting--><g id="link_User_Meeting"><path codeLine="109" d="M82.92,379.87 C96.1,433.8 125.11,521.64 182,574 C258.23,644.16 379.96,672.02 450.81,682.7 " fill="none" id="User-to-Meeting" style="stroke:#1E90FF;stroke-width:1.0;"/><polygon fill="#1E90FF" points="455.82,683.44,447.4995,678.1703,450.8734,682.7109,446.3329,686.0848,455.82,683.44" style="stroke:#1E90FF;stroke-width:1.0;"/><text fill="#000000" font-family="sans-serif" font-size="20" lengthAdjust="spacing" textLength="11" x="437.0693" y="705.1133">1</text></g><!--link User to Invite--><g id="link_User_Invite"><path codeLine="110" d="M122.21,373.61 C155.68,401.52 200.09,438.54 234.37,467.12 " fill="none" id="User-to-Invite" style="stroke:#1E90FF;stroke-width:1.0;"/><polygon fill="#1E90FF" points="238.5,470.56,234.1629,461.7175,234.6647,467.3521,229.0302,467.8539,238.5,470.56" style="stroke:#1E90FF;stroke-width:1.0;"/><text fill="#000000" font-family="sans-serif" font-size="20" lengthAdjust="spacing" textLength="11" x="219.4219" y="487.1951">1</text></g><!--link Invite to Meeting--><g id="link_Invite_Meeting"><path codeLine="111" d="M337.65,550.73 C371.42,578.29 416.46,615.07 451.61,643.77 " fill="none" id="Invite-to-Meeting" style="stroke:#1E90FF;stroke-width:1.0;"/><polygon fill="#1E90FF" points="455.84,647.23,451.4126,638.4324,451.9721,644.0615,446.343,644.621,455.84,647.23" style="stroke:#1E90FF;stroke-width:1.0;"/><text fill="#000000" font-family="sans-serif" font-size="20" lengthAdjust="spacing" textLength="11" x="437.0919" y="664.0376">1</text></g><!--link Teacher to Class--><g id="link_Teacher_Class"><path codeLine="113" d="M341.22,965.89 C375.35,990 419.79,1021.39 454.07,1045.61 " fill="none" id="Teacher-to-Class" style="stroke:#1E90FF;stroke-width:1.0;"/><polygon fill="#1E90FF" points="458.2,1048.52,453.1563,1040.0606,454.116,1045.6355,448.5411,1046.5951,458.2,1048.52" style="stroke:#1E90FF;stroke-width:1.0;"/><text fill="#000000" font-family="sans-serif" font-size="20" lengthAdjust="spacing" textLength="8" x="442.6344" y="1066.1688">*</text></g><!--link Class to Student--><g id="link_Class_Student"><path codeLine="114" d="M533.91,1129.88 C557.66,1170.34 597.03,1227.54 646,1262 C740.97,1328.82 876.65,1358.19 951.56,1369.97 " fill="none" id="Class-to-Student" style="stroke:#1E90FF;stroke-width:1.0;"/><polygon fill="#1E90FF" points="956.84,1370.79,948.5494,1365.4734,951.8976,1370.0329,947.3381,1373.3812,956.84,1370.79" style="stroke:#1E90FF;stroke-width:1.0;"/><text fill="#000000" font-family="sans-serif" font-size="20" lengthAdjust="spacing" textLength="8" x="941.1534" y="1363.8987">*</text></g><!--link User to Student--><g id="link_User_Student"><path codeLine="116" d="M77.68,379.52 C90.02,510.99 128.84,882.8 182,992 C253.32,1138.5 287.99,1182.12 430,1262 C602.5,1359.03 844.47,1375.05 951.67,1377.11 " fill="none" id="User-to-Student" style="stroke:#1E90FF;stroke-width:1.0;"/><polygon fill="#1E90FF" points="956.67,1377.2,947.7518,1373.0208,951.671,1377.1,947.5918,1381.0192,956.67,1377.2" style="stroke:#1E90FF;stroke-width:1.0;"/><text fill="#000000" font-family="sans-serif" font-size="20" lengthAdjust="spacing" textLength="11" x="938.1007" y="1399.6473">1</text></g><!--link User to Teacher--><g id="link_User_Teacher"><path codeLine="117" d="M86.88,379.76 C106.22,446.18 143.84,571.42 182,676 C207.82,746.76 241.88,826.81 264.11,877.57 " fill="none" id="User-to-Teacher" style="stroke:#1E90FF;stroke-width:1.0;"/><polygon fill="#1E90FF" points="266.22,882.39,266.2515,872.5412,264.2039,877.8145,258.9306,875.7669,266.22,882.39" style="stroke:#1E90FF;stroke-width:1.0;"/><text fill="#000000" font-family="sans-serif" font-size="20" lengthAdjust="spacing" textLength="11" x="251.5543" y="870.1878">1</text></g><!--SRC=[pLLDRzim3BtxLmZUPHlGe1imO8SYGDeiG82kBPPiTyLcR2sob4bKl6peVvy-tJYDqnwNYsFoaNny8cMzOM9B5MsuB3PGaXBMr72SIO4BzWV8nyiigra9f06iPQap3ciaA8bYLOsaP0eAP59acKwPIC6frXD4nLO6OLv8uLDTFiEGlncnlrksXbicu5gg4jIDv5AHgImhKDVSG1z2Yqsbf15bW4qU7cxdDvFb_FxEuuxzRwQVPvzcC- -RA2NRaza72ZyU4jxQpBI21Uuv4DSq5HM7NajKbVz_HrbiXEJVDTXoLQMWeWXvO0u26Uw9zrrTXRVn-EfAIOdZSUOnlj4l3MNSGdvGcvZShtvQISRZaEJn2VPWZxcrP5v6pWpdTxI1bv6BMYey2_KFtyF5nJXGxPiIhRurKUXRkt9ElawzkTWnX27zelUiWjz0RwNGvniMqgO9koRNNOXtBMiWnf6aHG5RrCIUjGANGXCg27CKgDlDKGVNrc2qowHb0r80mPgwBIvT8HkbMvjFrzBmagnibq96O-wovqPiX6n5Fegz-Z08FSMMdM8TpKF1lW8W4zMGOibzLh88cayjR7T-I29qIlqnl19ib1TiCC0_4bFNQKTeoEFg3_fYEIjJfz8IQ54FxsLodrBf8CkDlrq7SWJdMPqzvAnqnzXNAUVnIuRyXRpzeU_8X3ilVZgO7NBUqhrzkElOAENKRG4sV4zWPviRnRd4Wu5cpLPgpLQMWVs6QQjbQUn_dnAqtmOVH9KrIYOA- -aJI5g6DP7eb4zGImpTHhbhg916QOZr_9xjDKAJwbAk9McfiZkv9cxfOgpzR20hs9OAr3wK2MyF3Ru5vWjIWl7GfNlHQ1obTwIckayf4CSdMiWQ6AMHqLPzyTGn_4P5K-IfTUwVWJ-qdlwDqMWvxC1oCeBzCgvU0lLJXO5pWzy_ocDxMeU-BvG-6Ev5K61el9Fxn80_zYxs_4EUDh5_uJj7kCsEBxR3a73OyMYyytqUQ1yruEoHLFQyKF8ySyJK_m00]--></g></svg>