<?xml version="1.0" encoding="us-ascii" standalone="no"?><svg xmlns="http://www.w3.org/2000/svg" xmlns:xlink="http://www.w3.org/1999/xlink" contentStyleType="text/css" height="1659px" preserveAspectRatio="none" style="width:2473px;height:1659px;background:#FFFFFF;" version="1.1" viewBox="0 0 2473 1659" width="2473px" zoomAndPan="magnify"><defs/><g><rect fill="#FFFFFF" height="1357.3301" style="stroke:#181818;stroke-width:1.0;" width="10" x="293.5" y="189.2188"/><rect fill="#FFFFFF" height="29.3105" style="stroke:#181818;stroke-width:1.0;" width="10" x="885.5" y="218.5293"/><rect fill="#FFFFFF" height="891.0508" style="stroke:#181818;stroke-width:1.0;" width="10" x="885.5" y="626.1875"/><rect fill="#FFFFFF" height="832.4297" style="stroke:#181818;stroke-width:1.0;" width="10" x="1348.5" y="655.498"/><rect fill="#FFFFFF" height="29.3105" style="stroke:#181818;stroke-width:1.0;" width="10" x="1808.5" y="343.082"/><rect fill="#FFFFFF" height="29.3105" style="stroke:#181818;stroke-width:1.0;" width="10" x="1808.5" y="401.7031"/><rect fill="#FFFFFF" height="29.3105" style="stroke:#181818;stroke-width:1.0;" width="10" x="1941" y="684.8086"/><rect fill="#FFFFFF" height="29.3105" style="stroke:#181818;stroke-width:1.0;" width="10" x="2069" y="870.3613"/><rect fill="#FFFFFF" height="29.3105" style="stroke:#181818;stroke-width:1.0;" width="10" x="2069" y="1305.0645"/><rect fill="#FFFFFF" height="29.3105" style="stroke:#181818;stroke-width:1.0;" width="10" x="2069" y="1429.3066"/><rect fill="#FFFFFF" height="29.3105" style="stroke:#181818;stroke-width:1.0;" width="10" x="2177.5" y="928.9824"/><rect fill="#FFFFFF" height="29.3105" style="stroke:#181818;stroke-width:1.0;" width="10" x="2401.5" y="1246.4434"/><rect fill="#FFFFFF" height="29.3105" style="stroke:#181818;stroke-width:1.0;" width="10" x="2401.5" y="1370.6855"/><rect fill="none" height="77.9316" style="stroke:#000000;stroke-width:1.5;" width="1035" x="1293.5" y="1015.6035"/><rect fill="none" height="176.8633" style="stroke:#000000;stroke-width:1.5;" width="1174" x="1293.5" y="1165.5117"/><line style="stroke:#181818;stroke-width:0.5;stroke-dasharray:5.0,5.0;" x1="23" x2="23" y1="83.9766" y2="1564.5488"/><line style="stroke:#181818;stroke-width:0.5;stroke-dasharray:5.0,5.0;" x1="298" x2="298" y1="83.9766" y2="1564.5488"/><line style="stroke:#181818;stroke-width:0.5;stroke-dasharray:5.0,5.0;" x1="890" x2="890" y1="83.9766" y2="1564.5488"/><line style="stroke:#181818;stroke-width:0.5;stroke-dasharray:5.0,5.0;" x1="1353.5" x2="1353.5" y1="83.9766" y2="1564.5488"/><line style="stroke:#181818;stroke-width:0.5;stroke-dasharray:5.0,5.0;" x1="1813.5" x2="1813.5" y1="83.9766" y2="1564.5488"/><line style="stroke:#181818;stroke-width:0.5;stroke-dasharray:5.0,5.0;" x1="1945.5" x2="1945.5" y1="83.9766" y2="1564.5488"/><line style="stroke:#181818;stroke-width:0.5;stroke-dasharray:5.0,5.0;" x1="2073.5" x2="2073.5" y1="83.9766" y2="1564.5488"/><line style="stroke:#181818;stroke-width:0.5;stroke-dasharray:5.0,5.0;" x1="2182.5" x2="2182.5" y1="83.9766" y2="1564.5488"/><line style="stroke:#181818;stroke-width:0.5;stroke-dasharray:5.0,5.0;" x1="2275.5" x2="2275.5" y1="83.9766" y2="1564.5488"/><line style="stroke:#181818;stroke-width:0.5;stroke-dasharray:5.0,5.0;" x1="2406.5" x2="2406.5" y1="1139.5234" y2="1564.5488"/><text fill="#000000" font-family="sans-serif" font-size="14" lengthAdjust="spacing" textLength="31" x="5" y="81.0234">User</text><ellipse cx="23.5" cy="15.9883" fill="#E2E2F0" rx="8" ry="8" style="stroke:#181818;stroke-width:0.5;"/><path d="M23.5,23.9883 L23.5,50.9883 M10.5,31.9883 L36.5,31.9883 M23.5,50.9883 L10.5,65.9883 M23.5,50.9883 L36.5,65.9883 " fill="none" style="stroke:#181818;stroke-width:0.5;"/><text fill="#000000" font-family="sans-serif" font-size="14" lengthAdjust="spacing" textLength="31" x="5" y="1577.084">User</text><ellipse cx="23.5" cy="1588.5371" fill="#E2E2F0" rx="8" ry="8" style="stroke:#181818;stroke-width:0.5;"/><path d="M23.5,1596.5371 L23.5,1623.5371 M10.5,1604.5371 L36.5,1604.5371 M23.5,1623.5371 L10.5,1638.5371 M23.5,1623.5371 L36.5,1638.5371 " fill="none" style="stroke:#181818;stroke-width:0.5;"/><rect fill="#E2E2F0" height="46.9766" rx="2.5" ry="2.5" style="stroke:#181818;stroke-width:0.5;" width="117" x="240" y="36"/><text fill="#000000" font-family="sans-serif" font-size="14" font-style="italic" lengthAdjust="spacing" textLength="88" x="254.5" y="56.5352">&#171;http server&#187;</text><text fill="#000000" font-family="sans-serif" font-size="14" lengthAdjust="spacing" textLength="103" x="247" y="73.0234">HttpServerAjax</text><rect fill="#E2E2F0" height="46.9766" rx="2.5" ry="2.5" style="stroke:#181818;stroke-width:0.5;" width="117" x="240" y="1563.5488"/><text fill="#000000" font-family="sans-serif" font-size="14" font-style="italic" lengthAdjust="spacing" textLength="88" x="254.5" y="1584.084">&#171;http server&#187;</text><text fill="#000000" font-family="sans-serif" font-size="14" lengthAdjust="spacing" textLength="103" x="247" y="1600.5723">HttpServerAjax</text><rect fill="#E2E2F0" height="46.9766" rx="2.5" ry="2.5" style="stroke:#181818;stroke-width:0.5;" width="159" x="811" y="36"/><text fill="#000000" font-family="sans-serif" font-size="14" font-style="italic" lengthAdjust="spacing" textLength="90" x="845.5" y="56.5352">&#171;application&#187;</text><text fill="#000000" font-family="sans-serif" font-size="14" lengthAdjust="spacing" textLength="145" x="818" y="73.0234">UndoPostItController</text><rect fill="#E2E2F0" height="46.9766" rx="2.5" ry="2.5" style="stroke:#181818;stroke-width:0.5;" width="159" x="811" y="1563.5488"/><text fill="#000000" font-family="sans-serif" font-size="14" font-style="italic" lengthAdjust="spacing" textLength="90" x="845.5" y="1584.084">&#171;application&#187;</text><text fill="#000000" font-family="sans-serif" font-size="14" lengthAdjust="spacing" textLength="145" x="818" y="1600.5723">UndoPostItController</text><rect fill="#E2E2F0" height="46.9766" rx="2.5" ry="2.5" style="stroke:#181818;stroke-width:0.5;" width="100" x="1303.5" y="36"/><text fill="#000000" font-family="sans-serif" font-size="14" font-style="italic" lengthAdjust="spacing" textLength="61" x="1323" y="56.5352">&#171;service&#187;</text><text fill="#000000" font-family="sans-serif" font-size="14" lengthAdjust="spacing" textLength="86" x="1310.5" y="73.0234">PostItService</text><rect fill="#E2E2F0" height="46.9766" rx="2.5" ry="2.5" style="stroke:#181818;stroke-width:0.5;" width="100" x="1303.5" y="1563.5488"/><text fill="#000000" font-family="sans-serif" font-size="14" font-style="italic" lengthAdjust="spacing" textLength="61" x="1323" y="1584.084">&#171;service&#187;</text><text fill="#000000" font-family="sans-serif" font-size="14" lengthAdjust="spacing" textLength="86" x="1310.5" y="1600.5723">PostItService</text><rect fill="#E2E2F0" height="46.9766" rx="2.5" ry="2.5" style="stroke:#181818;stroke-width:0.5;" width="126" x="1750.5" y="36"/><text fill="#000000" font-family="sans-serif" font-size="14" font-style="italic" lengthAdjust="spacing" textLength="61" x="1783" y="56.5352">&#171;service&#187;</text><text fill="#000000" font-family="sans-serif" font-size="14" lengthAdjust="spacing" textLength="112" x="1757.5" y="73.0234">SessionManager</text><rect fill="#E2E2F0" height="46.9766" rx="2.5" ry="2.5" style="stroke:#181818;stroke-width:0.5;" width="126" x="1750.5" y="1563.5488"/><text fill="#000000" font-family="sans-serif" font-size="14" font-style="italic" lengthAdjust="spacing" textLength="61" x="1783" y="1584.084">&#171;service&#187;</text><text fill="#000000" font-family="sans-serif" font-size="14" lengthAdjust="spacing" textLength="112" x="1757.5" y="1600.5723">SessionManager</text><text fill="#000000" font-family="sans-serif" font-size="14" font-style="italic" lengthAdjust="spacing" textLength="84" x="1901" y="64.5352">&#171;repository&#187;</text><text fill="#000000" font-family="sans-serif" font-size="14" lengthAdjust="spacing" textLength="113" x="1886.5" y="81.0234">BoardRepository</text><path d="M1928,15 C1928,5 1946,5 1946,5 C1946,5 1964,5 1964,15 L1964,41 C1964,51 1946,51 1946,51 C1946,51 1928,51 1928,41 L1928,15 " fill="#E2E2F0" style="stroke:#181818;stroke-width:1.5;"/><path d="M1928,15 C1928,25 1946,25 1946,25 C1946,25 1964,25 1964,15 " fill="none" style="stroke:#181818;stroke-width:1.5;"/><text fill="#000000" font-family="sans-serif" font-size="14" font-style="italic" lengthAdjust="spacing" textLength="84" x="1901" y="1577.084">&#171;repository&#187;</text><text fill="#000000" font-family="sans-serif" font-size="14" lengthAdjust="spacing" textLength="113" x="1886.5" y="1593.5723">BoardRepository</text><path d="M1928,1606.5254 C1928,1596.5254 1946,1596.5254 1946,1596.5254 C1946,1596.5254 1964,1596.5254 1964,1606.5254 L1964,1632.5254 C1964,1642.5254 1946,1642.5254 1946,1642.5254 C1946,1642.5254 1928,1642.5254 1928,1632.5254 L1928,1606.5254 " fill="#E2E2F0" style="stroke:#181818;stroke-width:1.5;"/><path d="M1928,1606.5254 C1928,1616.5254 1946,1616.5254 1946,1616.5254 C1946,1616.5254 1964,1616.5254 1964,1606.5254 " fill="none" style="stroke:#181818;stroke-width:1.5;"/><text fill="#000000" font-family="sans-serif" font-size="14" font-style="italic" lengthAdjust="spacing" textLength="84" x="2029" y="64.5352">&#171;repository&#187;</text><text fill="#000000" font-family="sans-serif" font-size="14" lengthAdjust="spacing" textLength="111" x="2015.5" y="81.0234">PostItRepository</text><path d="M2056,15 C2056,5 2074,5 2074,5 C2074,5 2092,5 2092,15 L2092,41 C2092,51 2074,51 2074,51 C2074,51 2056,51 2056,41 L2056,15 " fill="#E2E2F0" style="stroke:#181818;stroke-width:1.5;"/><path d="M2056,15 C2056,25 2074,25 2074,25 C2074,25 2092,25 2092,15 " fill="none" style="stroke:#181818;stroke-width:1.5;"/><text fill="#000000" font-family="sans-serif" font-size="14" font-style="italic" lengthAdjust="spacing" textLength="84" x="2029" y="1577.084">&#171;repository&#187;</text><text fill="#000000" font-family="sans-serif" font-size="14" lengthAdjust="spacing" textLength="111" x="2015.5" y="1593.5723">PostItRepository</text><path d="M2056,1606.5254 C2056,1596.5254 2074,1596.5254 2074,1596.5254 C2074,1596.5254 2092,1596.5254 2092,1606.5254 L2092,1632.5254 C2092,1642.5254 2074,1642.5254 2074,1642.5254 C2074,1642.5254 2056,1642.5254 2056,1632.5254 L2056,1606.5254 " fill="#E2E2F0" style="stroke:#181818;stroke-width:1.5;"/><path d="M2056,1606.5254 C2056,1616.5254 2074,1616.5254 2074,1616.5254 C2074,1616.5254 2092,1616.5254 2092,1606.5254 " fill="none" style="stroke:#181818;stroke-width:1.5;"/><rect fill="#E2E2F0" height="46.9766" rx="2.5" ry="2.5" style="stroke:#181818;stroke-width:0.5;" width="80" x="2142.5" y="36"/><text fill="#000000" font-family="sans-serif" font-size="14" font-style="italic" lengthAdjust="spacing" textLength="66" x="2149.5" y="56.5352">&#171;domain&#187;</text><text fill="#000000" font-family="sans-serif" font-size="14" lengthAdjust="spacing" textLength="38" x="2163.5" y="73.0234">PostIt</text><rect fill="#E2E2F0" height="46.9766" rx="2.5" ry="2.5" style="stroke:#181818;stroke-width:0.5;" width="80" x="2142.5" y="1563.5488"/><text fill="#000000" font-family="sans-serif" font-size="14" font-style="italic" lengthAdjust="spacing" textLength="66" x="2149.5" y="1584.084">&#171;domain&#187;</text><text fill="#000000" font-family="sans-serif" font-size="14" lengthAdjust="spacing" textLength="38" x="2163.5" y="1600.5723">PostIt</text><rect fill="#E2E2F0" height="46.9766" rx="2.5" ry="2.5" style="stroke:#181818;stroke-width:0.5;" width="86" x="2232.5" y="36"/><text fill="#000000" font-family="sans-serif" font-size="14" font-style="italic" lengthAdjust="spacing" textLength="66" x="2242.5" y="56.5352">&#171;domain&#187;</text><text fill="#000000" font-family="sans-serif" font-size="14" lengthAdjust="spacing" textLength="72" x="2239.5" y="73.0234">PostItState</text><rect fill="#E2E2F0" height="46.9766" rx="2.5" ry="2.5" style="stroke:#181818;stroke-width:0.5;" width="86" x="2232.5" y="1563.5488"/><text fill="#000000" font-family="sans-serif" font-size="14" font-style="italic" lengthAdjust="spacing" textLength="66" x="2242.5" y="1584.084">&#171;domain&#187;</text><text fill="#000000" font-family="sans-serif" font-size="14" lengthAdjust="spacing" textLength="72" x="2239.5" y="1600.5723">PostItState</text><rect fill="#E2E2F0" height="46.9766" rx="2.5" ry="2.5" style="stroke:#181818;stroke-width:0.5;" width="102" x="2355.5" y="1563.5488"/><text fill="#000000" font-family="sans-serif" font-size="14" font-style="italic" lengthAdjust="spacing" textLength="61" x="2376" y="1584.084">&#171;factory&#187;</text><text fill="#000000" font-family="sans-serif" font-size="14" lengthAdjust="spacing" textLength="88" x="2362.5" y="1600.5723">PostItFactory</text><rect fill="#FFFFFF" height="1357.3301" style="stroke:#181818;stroke-width:1.0;" width="10" x="293.5" y="189.2188"/><rect fill="#FFFFFF" height="29.3105" style="stroke:#181818;stroke-width:1.0;" width="10" x="885.5" y="218.5293"/><rect fill="#FFFFFF" height="891.0508" style="stroke:#181818;stroke-width:1.0;" width="10" x="885.5" y="626.1875"/><rect fill="#FFFFFF" height="832.4297" style="stroke:#181818;stroke-width:1.0;" width="10" x="1348.5" y="655.498"/><rect fill="#FFFFFF" height="29.3105" style="stroke:#181818;stroke-width:1.0;" width="10" x="1808.5" y="343.082"/><rect fill="#FFFFFF" height="29.3105" style="stroke:#181818;stroke-width:1.0;" width="10" x="1808.5" y="401.7031"/><rect fill="#FFFFFF" height="29.3105" style="stroke:#181818;stroke-width:1.0;" width="10" x="1941" y="684.8086"/><rect fill="#FFFFFF" height="29.3105" style="stroke:#181818;stroke-width:1.0;" width="10" x="2069" y="870.3613"/><rect fill="#FFFFFF" height="29.3105" style="stroke:#181818;stroke-width:1.0;" width="10" x="2069" y="1305.0645"/><rect fill="#FFFFFF" height="29.3105" style="stroke:#181818;stroke-width:1.0;" width="10" x="2069" y="1429.3066"/><rect fill="#FFFFFF" height="29.3105" style="stroke:#181818;stroke-width:1.0;" width="10" x="2177.5" y="928.9824"/><rect fill="#FFFFFF" height="29.3105" style="stroke:#181818;stroke-width:1.0;" width="10" x="2401.5" y="1246.4434"/><rect fill="#FFFFFF" height="29.3105" style="stroke:#181818;stroke-width:1.0;" width="10" x="2401.5" y="1370.6855"/><polygon fill="#181818" points="286.5,111.2871,296.5,115.2871,286.5,119.2871,290.5,115.2871" style="stroke:#181818;stroke-width:1.0;"/><line style="stroke:#181818;stroke-width:1.0;stroke-dasharray:2.0,2.0;" x1="23.5" x2="292.5" y1="115.2871" y2="115.2871"/><text fill="#000000" font-family="sans-serif" font-size="13" font-weight="bold" lengthAdjust="spacing" textLength="9" x="30.5" y="110.5449">1</text><text fill="#000000" font-family="sans-serif" font-size="13" lengthAdjust="spacing" textLength="150" x="43.5" y="110.5449">wants to undo a post-it</text><polygon fill="#181818" points="34.5,140.5977,24.5,144.5977,34.5,148.5977,30.5,144.5977" style="stroke:#181818;stroke-width:1.0;"/><line style="stroke:#181818;stroke-width:1.0;stroke-dasharray:2.0,2.0;" x1="28.5" x2="297.5" y1="144.5977" y2="144.5977"/><text fill="#000000" font-family="sans-serif" font-size="13" font-weight="bold" lengthAdjust="spacing" textLength="9" x="40.5" y="139.8555">2</text><text fill="#000000" font-family="sans-serif" font-size="13" lengthAdjust="spacing" textLength="157" x="53.5" y="139.8555">waits for the post-it info</text><polygon fill="#181818" points="281.5,185.2188,291.5,189.2188,281.5,193.2188,285.5,189.2188" style="stroke:#181818;stroke-width:1.0;"/><line style="stroke:#181818;stroke-width:1.0;stroke-dasharray:2.0,2.0;" x1="23.5" x2="287.5" y1="189.2188" y2="189.2188"/><text fill="#000000" font-family="sans-serif" font-size="13" font-weight="bold" lengthAdjust="spacing" textLength="9" x="30.5" y="176.8213">3</text><text fill="#000000" font-family="sans-serif" font-size="13" lengthAdjust="spacing" textLength="207" x="43.5" y="169.166">sends through http request body</text><text fill="#000000" font-family="sans-serif" font-size="13" lengthAdjust="spacing" textLength="213" x="43.5" y="184.4766">the row, column, board and token</text><polygon fill="#181818" points="873.5,214.5293,883.5,218.5293,873.5,222.5293,877.5,218.5293" style="stroke:#181818;stroke-width:1.0;"/><line style="stroke:#181818;stroke-width:1.0;" x1="303.5" x2="879.5" y1="218.5293" y2="218.5293"/><text fill="#000000" font-family="sans-serif" font-size="13" font-weight="bold" lengthAdjust="spacing" textLength="9" x="310.5" y="213.7871">4</text><text fill="#000000" font-family="sans-serif" font-size="13" lengthAdjust="spacing" textLength="46" x="323.5" y="213.7871">create()</text><polygon fill="#181818" points="1341.5,243.8398,1351.5,247.8398,1341.5,251.8398,1345.5,247.8398" style="stroke:#181818;stroke-width:1.0;"/><line style="stroke:#181818;stroke-width:1.0;" x1="890.5" x2="1347.5" y1="247.8398" y2="247.8398"/><text fill="#000000" font-family="sans-serif" font-size="13" font-weight="bold" lengthAdjust="spacing" textLength="9" x="897.5" y="243.0977">5</text><text fill="#000000" font-family="sans-serif" font-size="13" lengthAdjust="spacing" textLength="46" x="910.5" y="243.0977">create()</text><path d="M1358,260.8398 L1358,315.8398 L1611,315.8398 L1611,270.8398 L1601,260.8398 L1358,260.8398 " fill="#FEFFDD" style="stroke:#181818;stroke-width:0.5;"/><path d="M1601,260.8398 L1601,270.8398 L1611,270.8398 L1601,260.8398 " fill="#FEFFDD" style="stroke:#181818;stroke-width:0.5;"/><text fill="#000000" font-family="sans-serif" font-size="13" lengthAdjust="spacing" textLength="232" x="1364" y="278.4082">dependency injection was abstracted</text><text fill="#000000" font-family="sans-serif" font-size="13" lengthAdjust="spacing" textLength="75" x="1364" y="293.7188">for the sake</text><text fill="#000000" font-family="sans-serif" font-size="13" lengthAdjust="spacing" textLength="138" x="1364" y="309.0293">of diagram readability</text><polygon fill="#181818" points="1796.5,339.082,1806.5,343.082,1796.5,347.082,1800.5,343.082" style="stroke:#181818;stroke-width:1.0;"/><line style="stroke:#181818;stroke-width:1.0;" x1="303.5" x2="1802.5" y1="343.082" y2="343.082"/><text fill="#000000" font-family="sans-serif" font-size="13" font-weight="bold" lengthAdjust="spacing" textLength="9" x="310.5" y="338.3398">6</text><text fill="#000000" font-family="sans-serif" font-size="13" lengthAdjust="spacing" textLength="81" x="323.5" y="338.3398">getInstance()</text><polygon fill="#181818" points="314.5,368.3926,304.5,372.3926,314.5,376.3926,310.5,372.3926" style="stroke:#181818;stroke-width:1.0;"/><line style="stroke:#181818;stroke-width:1.0;stroke-dasharray:2.0,2.0;" x1="308.5" x2="1812.5" y1="372.3926" y2="372.3926"/><text fill="#000000" font-family="sans-serif" font-size="13" font-weight="bold" lengthAdjust="spacing" textLength="9" x="320.5" y="367.6504">7</text><text fill="#000000" font-family="sans-serif" font-size="13" lengthAdjust="spacing" textLength="109" x="333.5" y="367.6504">sessionManager()</text><polygon fill="#181818" points="1796.5,397.7031,1806.5,401.7031,1796.5,405.7031,1800.5,401.7031" style="stroke:#181818;stroke-width:1.0;"/><line style="stroke:#181818;stroke-width:1.0;" x1="303.5" x2="1802.5" y1="401.7031" y2="401.7031"/><text fill="#000000" font-family="sans-serif" font-size="13" font-weight="bold" lengthAdjust="spacing" textLength="9" x="310.5" y="396.9609">8</text><text fill="#000000" font-family="sans-serif" font-size="13" lengthAdjust="spacing" textLength="145" x="323.5" y="396.9609">getUserByToken(token)</text><polygon fill="#181818" points="314.5,427.0137,304.5,431.0137,314.5,435.0137,310.5,431.0137" style="stroke:#181818;stroke-width:1.0;"/><line style="stroke:#181818;stroke-width:1.0;stroke-dasharray:2.0,2.0;" x1="308.5" x2="1812.5" y1="431.0137" y2="431.0137"/><text fill="#000000" font-family="sans-serif" font-size="13" font-weight="bold" lengthAdjust="spacing" textLength="9" x="320.5" y="426.2715">9</text><text fill="#000000" font-family="sans-serif" font-size="13" lengthAdjust="spacing" textLength="56" x="333.5" y="426.2715">authUser</text><line style="stroke:#181818;stroke-width:1.0;" x1="303.5" x2="345.5" y1="460.3242" y2="460.3242"/><line style="stroke:#181818;stroke-width:1.0;" x1="345.5" x2="345.5" y1="460.3242" y2="473.3242"/><line style="stroke:#181818;stroke-width:1.0;" x1="304.5" x2="345.5" y1="473.3242" y2="473.3242"/><polygon fill="#181818" points="314.5,469.3242,304.5,473.3242,314.5,477.3242,310.5,473.3242" style="stroke:#181818;stroke-width:1.0;"/><text fill="#000000" font-family="sans-serif" font-size="13" font-weight="bold" lengthAdjust="spacing" textLength="18" x="310.5" y="455.582">10</text><text fill="#000000" font-family="sans-serif" font-size="13" lengthAdjust="spacing" textLength="258" x="332.5" y="455.582">lockKey = generateLockKey(requestBody)</text><line style="stroke:#181818;stroke-width:1.0;" x1="303.5" x2="345.5" y1="502.6348" y2="502.6348"/><line style="stroke:#181818;stroke-width:1.0;" x1="345.5" x2="345.5" y1="502.6348" y2="515.6348"/><line style="stroke:#181818;stroke-width:1.0;" x1="304.5" x2="345.5" y1="515.6348" y2="515.6348"/><polygon fill="#181818" points="314.5,511.6348,304.5,515.6348,314.5,519.6348,310.5,515.6348" style="stroke:#181818;stroke-width:1.0;"/><text fill="#000000" font-family="sans-serif" font-size="13" font-weight="bold" lengthAdjust="spacing" textLength="18" x="310.5" y="497.8926">11</text><text fill="#000000" font-family="sans-serif" font-size="13" lengthAdjust="spacing" textLength="248" x="332.5" y="497.8926">lock = getOrCreateLockObject(lockKey)</text><path d="M308,528.6348 L308,599.6348 L579,599.6348 L579,538.6348 L569,528.6348 L308,528.6348 " fill="#FEFFDD" style="stroke:#181818;stroke-width:0.5;"/><path d="M569,528.6348 L569,538.6348 L579,538.6348 L569,528.6348 " fill="#FEFFDD" style="stroke:#181818;stroke-width:0.5;"/><text fill="#000000" font-family="sans-serif" font-size="13" lengthAdjust="spacing" textLength="189" x="314" y="546.2031">the lockKey gets or creates an</text><text fill="#000000" font-family="sans-serif" font-size="13" lengthAdjust="spacing" textLength="190" x="314" y="561.5137">object that will act as a mutex</text><text fill="#000000" font-family="sans-serif" font-size="13" lengthAdjust="spacing" textLength="155" x="314" y="576.8242">when changing a post-it</text><text fill="#000000" font-family="sans-serif" font-size="13" lengthAdjust="spacing" textLength="250" x="314" y="592.1348">(based on the row, column and boardId)</text><polygon fill="#181818" points="873.5,622.1875,883.5,626.1875,873.5,630.1875,877.5,626.1875" style="stroke:#181818;stroke-width:1.0;"/><line style="stroke:#181818;stroke-width:1.0;" x1="303.5" x2="879.5" y1="626.1875" y2="626.1875"/><text fill="#000000" font-family="sans-serif" font-size="13" font-weight="bold" lengthAdjust="spacing" textLength="18" x="310.5" y="621.4453">12</text><text fill="#000000" font-family="sans-serif" font-size="13" lengthAdjust="spacing" textLength="541" x="332.5" y="621.4453">undoPostIt(requestBody.row(), requestBody.column(), requestBody.boardId(), authUser)</text><polygon fill="#181818" points="1336.5,651.498,1346.5,655.498,1336.5,659.498,1340.5,655.498" style="stroke:#181818;stroke-width:1.0;"/><line style="stroke:#181818;stroke-width:1.0;" x1="895.5" x2="1342.5" y1="655.498" y2="655.498"/><text fill="#000000" font-family="sans-serif" font-size="13" font-weight="bold" lengthAdjust="spacing" textLength="18" x="902.5" y="650.7559">13</text><text fill="#000000" font-family="sans-serif" font-size="13" lengthAdjust="spacing" textLength="412" x="924.5" y="650.7559">undoPostIt(row, column, Long.parseLong(boardId), authenticated)</text><polygon fill="#181818" points="1929,680.8086,1939,684.8086,1929,688.8086,1933,684.8086" style="stroke:#181818;stroke-width:1.0;"/><line style="stroke:#181818;stroke-width:1.0;" x1="1358.5" x2="1935" y1="684.8086" y2="684.8086"/><text fill="#000000" font-family="sans-serif" font-size="13" font-weight="bold" lengthAdjust="spacing" textLength="18" x="1365.5" y="680.0664">14</text><text fill="#000000" font-family="sans-serif" font-size="13" lengthAdjust="spacing" textLength="117" x="1387.5" y="680.0664">ofIdentity(boardId)</text><polygon fill="#181818" points="1369.5,710.1191,1359.5,714.1191,1369.5,718.1191,1365.5,714.1191" style="stroke:#181818;stroke-width:1.0;"/><line style="stroke:#181818;stroke-width:1.0;stroke-dasharray:2.0,2.0;" x1="1363.5" x2="1945" y1="714.1191" y2="714.1191"/><text fill="#000000" font-family="sans-serif" font-size="13" font-weight="bold" lengthAdjust="spacing" textLength="18" x="1375.5" y="709.377">15</text><text fill="#000000" font-family="sans-serif" font-size="13" lengthAdjust="spacing" textLength="36" x="1397.5" y="709.377">board</text><line style="stroke:#181818;stroke-width:1.0;" x1="1358.5" x2="1400.5" y1="743.4297" y2="743.4297"/><line style="stroke:#181818;stroke-width:1.0;" x1="1400.5" x2="1400.5" y1="743.4297" y2="756.4297"/><line style="stroke:#181818;stroke-width:1.0;" x1="1359.5" x2="1400.5" y1="756.4297" y2="756.4297"/><polygon fill="#181818" points="1369.5,752.4297,1359.5,756.4297,1369.5,760.4297,1365.5,756.4297" style="stroke:#181818;stroke-width:1.0;"/><text fill="#000000" font-family="sans-serif" font-size="13" font-weight="bold" lengthAdjust="spacing" textLength="18" x="1365.5" y="738.6875">16</text><text fill="#000000" font-family="sans-serif" font-size="13" lengthAdjust="spacing" textLength="218" x="1387.5" y="738.6875">checkIfIsRowEntryTitle(row, board)</text><line style="stroke:#181818;stroke-width:1.0;" x1="1358.5" x2="1400.5" y1="785.7402" y2="785.7402"/><line style="stroke:#181818;stroke-width:1.0;" x1="1400.5" x2="1400.5" y1="785.7402" y2="798.7402"/><line style="stroke:#181818;stroke-width:1.0;" x1="1359.5" x2="1400.5" y1="798.7402" y2="798.7402"/><polygon fill="#181818" points="1369.5,794.7402,1359.5,798.7402,1369.5,802.7402,1365.5,798.7402" style="stroke:#181818;stroke-width:1.0;"/><text fill="#000000" font-family="sans-serif" font-size="13" font-weight="bold" lengthAdjust="spacing" textLength="18" x="1365.5" y="780.998">17</text><text fill="#000000" font-family="sans-serif" font-size="13" lengthAdjust="spacing" textLength="265" x="1387.5" y="780.998">checkIfIsColumnEntryTitle(column, board)</text><line style="stroke:#181818;stroke-width:1.0;" x1="1358.5" x2="1400.5" y1="828.0508" y2="828.0508"/><line style="stroke:#181818;stroke-width:1.0;" x1="1400.5" x2="1400.5" y1="828.0508" y2="841.0508"/><line style="stroke:#181818;stroke-width:1.0;" x1="1359.5" x2="1400.5" y1="841.0508" y2="841.0508"/><polygon fill="#181818" points="1369.5,837.0508,1359.5,841.0508,1369.5,845.0508,1365.5,841.0508" style="stroke:#181818;stroke-width:1.0;"/><text fill="#000000" font-family="sans-serif" font-size="13" font-weight="bold" lengthAdjust="spacing" textLength="18" x="1365.5" y="823.3086">18</text><text fill="#000000" font-family="sans-serif" font-size="13" lengthAdjust="spacing" textLength="265" x="1387.5" y="823.3086">postItByPosition(row, column, board, true)</text><polygon fill="#181818" points="2057,866.3613,2067,870.3613,2057,874.3613,2061,870.3613" style="stroke:#181818;stroke-width:1.0;"/><line style="stroke:#181818;stroke-width:1.0;" x1="1358.5" x2="2063" y1="870.3613" y2="870.3613"/><text fill="#000000" font-family="sans-serif" font-size="13" font-weight="bold" lengthAdjust="spacing" textLength="18" x="1365.5" y="865.6191">19</text><text fill="#000000" font-family="sans-serif" font-size="13" lengthAdjust="spacing" textLength="227" x="1387.5" y="865.6191">positByPosition(row, column, board)</text><polygon fill="#181818" points="1369.5,895.6719,1359.5,899.6719,1369.5,903.6719,1365.5,899.6719" style="stroke:#181818;stroke-width:1.0;"/><line style="stroke:#181818;stroke-width:1.0;stroke-dasharray:2.0,2.0;" x1="1363.5" x2="2073" y1="899.6719" y2="899.6719"/><text fill="#000000" font-family="sans-serif" font-size="13" font-weight="bold" lengthAdjust="spacing" textLength="18" x="1375.5" y="894.9297">20</text><text fill="#000000" font-family="sans-serif" font-size="13" lengthAdjust="spacing" textLength="59" x="1397.5" y="894.9297">lastPostIt</text><polygon fill="#181818" points="2165.5,924.9824,2175.5,928.9824,2165.5,932.9824,2169.5,928.9824" style="stroke:#181818;stroke-width:1.0;"/><line style="stroke:#181818;stroke-width:1.0;" x1="1358.5" x2="2171.5" y1="928.9824" y2="928.9824"/><text fill="#000000" font-family="sans-serif" font-size="13" font-weight="bold" lengthAdjust="spacing" textLength="18" x="1365.5" y="924.2402">21</text><text fill="#000000" font-family="sans-serif" font-size="13" lengthAdjust="spacing" textLength="95" x="1387.5" y="924.2402">rollbackPostIt()</text><polygon fill="#181818" points="1369.5,954.293,1359.5,958.293,1369.5,962.293,1365.5,958.293" style="stroke:#181818;stroke-width:1.0;"/><line style="stroke:#181818;stroke-width:1.0;stroke-dasharray:2.0,2.0;" x1="1363.5" x2="2181.5" y1="958.293" y2="958.293"/><text fill="#000000" font-family="sans-serif" font-size="13" font-weight="bold" lengthAdjust="spacing" textLength="18" x="1375.5" y="953.5508">22</text><text fill="#000000" font-family="sans-serif" font-size="13" lengthAdjust="spacing" textLength="90" x="1397.5" y="953.5508">previousPostIt</text><line style="stroke:#181818;stroke-width:1.0;" x1="1358.5" x2="1400.5" y1="987.6035" y2="987.6035"/><line style="stroke:#181818;stroke-width:1.0;" x1="1400.5" x2="1400.5" y1="987.6035" y2="1000.6035"/><line style="stroke:#181818;stroke-width:1.0;" x1="1359.5" x2="1400.5" y1="1000.6035" y2="1000.6035"/><polygon fill="#181818" points="1369.5,996.6035,1359.5,1000.6035,1369.5,1004.6035,1365.5,1000.6035" style="stroke:#181818;stroke-width:1.0;"/><text fill="#000000" font-family="sans-serif" font-size="13" font-weight="bold" lengthAdjust="spacing" textLength="18" x="1365.5" y="982.8613">23</text><text fill="#000000" font-family="sans-serif" font-size="13" lengthAdjust="spacing" textLength="327" x="1387.5" y="982.8613">checkForUserOwnership(authUser, board, lastPostIt)</text><path d="M1293.5,1015.6035 L1355.5,1015.6035 L1355.5,1022.9141 L1345.5,1032.9141 L1293.5,1032.9141 L1293.5,1015.6035 " fill="#EEEEEE" style="stroke:#000000;stroke-width:1.5;"/><rect fill="none" height="77.9316" style="stroke:#000000;stroke-width:1.5;" width="1035" x="1293.5" y="1015.6035"/><text fill="#000000" font-family="sans-serif" font-size="13" font-weight="bold" lengthAdjust="spacing" textLength="17" x="1308.5" y="1029.1719">alt</text><text fill="#000000" font-family="sans-serif" font-size="11" font-weight="bold" lengthAdjust="spacing" textLength="271" x="1370.5" y="1028.2383">[previousState.equals(PostItStateType.DELETED)]</text><polygon fill="#181818" points="2263.5,1050.2246,2273.5,1054.2246,2263.5,1058.2246,2267.5,1054.2246" style="stroke:#181818;stroke-width:1.0;"/><line style="stroke:#181818;stroke-width:1.0;" x1="1358.5" x2="2269.5" y1="1054.2246" y2="1054.2246"/><text fill="#000000" font-family="sans-serif" font-size="13" font-weight="bold" lengthAdjust="spacing" textLength="18" x="1365.5" y="1049.4824">24</text><text fill="#000000" font-family="sans-serif" font-size="13" lengthAdjust="spacing" textLength="231" x="1387.5" y="1049.4824">newState = PostItStateType.DELETED</text><line style="stroke:#000000;stroke-width:1.0;stroke-dasharray:2.0,2.0;" x1="1293.5" x2="2328.5" y1="1063.2246" y2="1063.2246"/><polygon fill="#181818" points="2263.5,1081.5352,2273.5,1085.5352,2263.5,1089.5352,2267.5,1085.5352" style="stroke:#181818;stroke-width:1.0;"/><line style="stroke:#181818;stroke-width:1.0;" x1="1358.5" x2="2269.5" y1="1085.5352" y2="1085.5352"/><text fill="#000000" font-family="sans-serif" font-size="13" font-weight="bold" lengthAdjust="spacing" textLength="18" x="1365.5" y="1080.793">25</text><text fill="#000000" font-family="sans-serif" font-size="13" lengthAdjust="spacing" textLength="235" x="1387.5" y="1080.793">newState = PostItStateType.UPDATED</text><polygon fill="#181818" points="2343.5,1117.8457,2353.5,1121.8457,2343.5,1125.8457,2347.5,1121.8457" style="stroke:#181818;stroke-width:1.0;"/><line style="stroke:#181818;stroke-width:1.0;" x1="1358.5" x2="2349.5" y1="1121.8457" y2="1121.8457"/><text fill="#000000" font-family="sans-serif" font-size="13" font-weight="bold" lengthAdjust="spacing" textLength="18" x="1365.5" y="1117.1035">26</text><text fill="#000000" font-family="sans-serif" font-size="13" lengthAdjust="spacing" textLength="46" x="1387.5" y="1117.1035">create()</text><rect fill="#E2E2F0" height="46.9766" rx="2.5" ry="2.5" style="stroke:#181818;stroke-width:0.5;" width="102" x="2355.5" y="1100.5352"/><text fill="#000000" font-family="sans-serif" font-size="14" font-style="italic" lengthAdjust="spacing" textLength="61" x="2376" y="1121.0703">&#171;factory&#187;</text><text fill="#000000" font-family="sans-serif" font-size="14" lengthAdjust="spacing" textLength="88" x="2362.5" y="1137.5586">PostItFactory</text><path d="M1293.5,1165.5117 L1355.5,1165.5117 L1355.5,1172.8223 L1345.5,1182.8223 L1293.5,1182.8223 L1293.5,1165.5117 " fill="#EEEEEE" style="stroke:#000000;stroke-width:1.5;"/><rect fill="none" height="176.8633" style="stroke:#000000;stroke-width:1.5;" width="1174" x="1293.5" y="1165.5117"/><text fill="#000000" font-family="sans-serif" font-size="13" font-weight="bold" lengthAdjust="spacing" textLength="17" x="1308.5" y="1179.0801">alt</text><text fill="#000000" font-family="sans-serif" font-size="11" font-weight="bold" lengthAdjust="spacing" textLength="261" x="1370.5" y="1178.1465">[previousState.equals(PostItStateType.MOVED)]</text><line style="stroke:#181818;stroke-width:1.0;" x1="1358.5" x2="1400.5" y1="1204.1328" y2="1204.1328"/><line style="stroke:#181818;stroke-width:1.0;" x1="1400.5" x2="1400.5" y1="1204.1328" y2="1217.1328"/><line style="stroke:#181818;stroke-width:1.0;" x1="1359.5" x2="1400.5" y1="1217.1328" y2="1217.1328"/><polygon fill="#181818" points="1369.5,1213.1328,1359.5,1217.1328,1369.5,1221.1328,1365.5,1217.1328" style="stroke:#181818;stroke-width:1.0;"/><text fill="#000000" font-family="sans-serif" font-size="13" font-weight="bold" lengthAdjust="spacing" textLength="18" x="1365.5" y="1199.3906">27</text><text fill="#000000" font-family="sans-serif" font-size="13" lengthAdjust="spacing" textLength="414" x="1387.5" y="1199.3906">savePreviousPostItMoved(lastPostIt, previousPostIt, postItFactory)</text><polygon fill="#181818" points="2389.5,1242.4434,2399.5,1246.4434,2389.5,1250.4434,2393.5,1246.4434" style="stroke:#181818;stroke-width:1.0;"/><line style="stroke:#181818;stroke-width:1.0;" x1="1358.5" x2="2395.5" y1="1246.4434" y2="1246.4434"/><text fill="#000000" font-family="sans-serif" font-size="13" font-weight="bold" lengthAdjust="spacing" textLength="18" x="1365.5" y="1241.7012">28</text><text fill="#000000" font-family="sans-serif" font-size="13" lengthAdjust="spacing" textLength="903" x="1387.5" y="1241.7012">createChange(lastPostIt.content(), lastPostIt.rowPos(), lastPostIt.columnPos(), lastPostIt.owner(), lastPostIt.board(), PostItStateType.MOVED, null)</text><polygon fill="#181818" points="1369.5,1271.7539,1359.5,1275.7539,1369.5,1279.7539,1365.5,1275.7539" style="stroke:#181818;stroke-width:1.0;"/><line style="stroke:#181818;stroke-width:1.0;stroke-dasharray:2.0,2.0;" x1="1363.5" x2="2405.5" y1="1275.7539" y2="1275.7539"/><text fill="#000000" font-family="sans-serif" font-size="13" font-weight="bold" lengthAdjust="spacing" textLength="18" x="1375.5" y="1271.0117">29</text><text fill="#000000" font-family="sans-serif" font-size="13" lengthAdjust="spacing" textLength="78" x="1397.5" y="1271.0117">movedPostIt</text><polygon fill="#181818" points="2057,1301.0645,2067,1305.0645,2057,1309.0645,2061,1305.0645" style="stroke:#181818;stroke-width:1.0;"/><line style="stroke:#181818;stroke-width:1.0;" x1="1358.5" x2="2063" y1="1305.0645" y2="1305.0645"/><text fill="#000000" font-family="sans-serif" font-size="13" font-weight="bold" lengthAdjust="spacing" textLength="18" x="1365.5" y="1300.3223">30</text><text fill="#000000" font-family="sans-serif" font-size="13" lengthAdjust="spacing" textLength="114" x="1387.5" y="1300.3223">save(movedPostIt)</text><polygon fill="#181818" points="1369.5,1330.375,1359.5,1334.375,1369.5,1338.375,1365.5,1334.375" style="stroke:#181818;stroke-width:1.0;"/><line style="stroke:#181818;stroke-width:1.0;stroke-dasharray:2.0,2.0;" x1="1363.5" x2="2073" y1="1334.375" y2="1334.375"/><text fill="#000000" font-family="sans-serif" font-size="13" font-weight="bold" lengthAdjust="spacing" textLength="18" x="1375.5" y="1329.6328">31</text><text fill="#000000" font-family="sans-serif" font-size="13" lengthAdjust="spacing" textLength="155" x="1397.5" y="1329.6328">lastPostIt = movedPostIt</text><polygon fill="#181818" points="2389.5,1366.6855,2399.5,1370.6855,2389.5,1374.6855,2393.5,1370.6855" style="stroke:#181818;stroke-width:1.0;"/><line style="stroke:#181818;stroke-width:1.0;" x1="1358.5" x2="2395.5" y1="1370.6855" y2="1370.6855"/><text fill="#000000" font-family="sans-serif" font-size="13" font-weight="bold" lengthAdjust="spacing" textLength="18" x="1365.5" y="1365.9434">32</text><text fill="#000000" font-family="sans-serif" font-size="13" lengthAdjust="spacing" textLength="1002" x="1387.5" y="1365.9434">createChange(previousPostIt.content(), previousPostIt.rowPos(), previousPostIt.columnPos(), previousPostIt.owner(), previousPostIt.board(), newState, lastPostIt)</text><polygon fill="#181818" points="1369.5,1395.9961,1359.5,1399.9961,1369.5,1403.9961,1365.5,1399.9961" style="stroke:#181818;stroke-width:1.0;"/><line style="stroke:#181818;stroke-width:1.0;stroke-dasharray:2.0,2.0;" x1="1363.5" x2="2405.5" y1="1399.9961" y2="1399.9961"/><text fill="#000000" font-family="sans-serif" font-size="13" font-weight="bold" lengthAdjust="spacing" textLength="18" x="1375.5" y="1395.2539">33</text><text fill="#000000" font-family="sans-serif" font-size="13" lengthAdjust="spacing" textLength="61" x="1397.5" y="1395.2539">newPostIt</text><polygon fill="#181818" points="2057,1425.3066,2067,1429.3066,2057,1433.3066,2061,1429.3066" style="stroke:#181818;stroke-width:1.0;"/><line style="stroke:#181818;stroke-width:1.0;" x1="1358.5" x2="2063" y1="1429.3066" y2="1429.3066"/><text fill="#000000" font-family="sans-serif" font-size="13" font-weight="bold" lengthAdjust="spacing" textLength="18" x="1365.5" y="1424.5645">34</text><text fill="#000000" font-family="sans-serif" font-size="13" lengthAdjust="spacing" textLength="97" x="1387.5" y="1424.5645">save(newPostIt)</text><polygon fill="#181818" points="1369.5,1454.6172,1359.5,1458.6172,1369.5,1462.6172,1365.5,1458.6172" style="stroke:#181818;stroke-width:1.0;"/><line style="stroke:#181818;stroke-width:1.0;stroke-dasharray:2.0,2.0;" x1="1363.5" x2="2073" y1="1458.6172" y2="1458.6172"/><text fill="#000000" font-family="sans-serif" font-size="13" font-weight="bold" lengthAdjust="spacing" textLength="18" x="1375.5" y="1453.875">35</text><text fill="#000000" font-family="sans-serif" font-size="13" lengthAdjust="spacing" textLength="61" x="1397.5" y="1453.875">newPostIt</text><polygon fill="#181818" points="906.5,1483.9277,896.5,1487.9277,906.5,1491.9277,902.5,1487.9277" style="stroke:#181818;stroke-width:1.0;"/><line style="stroke:#181818;stroke-width:1.0;stroke-dasharray:2.0,2.0;" x1="900.5" x2="1352.5" y1="1487.9277" y2="1487.9277"/><text fill="#000000" font-family="sans-serif" font-size="13" font-weight="bold" lengthAdjust="spacing" textLength="18" x="912.5" y="1483.1855">36</text><text fill="#000000" font-family="sans-serif" font-size="13" lengthAdjust="spacing" textLength="61" x="934.5" y="1483.1855">newPostIt</text><polygon fill="#181818" points="314.5,1513.2383,304.5,1517.2383,314.5,1521.2383,310.5,1517.2383" style="stroke:#181818;stroke-width:1.0;"/><line style="stroke:#181818;stroke-width:1.0;stroke-dasharray:2.0,2.0;" x1="308.5" x2="889.5" y1="1517.2383" y2="1517.2383"/><text fill="#000000" font-family="sans-serif" font-size="13" font-weight="bold" lengthAdjust="spacing" textLength="18" x="320.5" y="1512.4961">37</text><text fill="#000000" font-family="sans-serif" font-size="13" lengthAdjust="spacing" textLength="61" x="342.5" y="1512.4961">newPostIt</text><polygon fill="#181818" points="34.5,1542.5488,24.5,1546.5488,34.5,1550.5488,30.5,1546.5488" style="stroke:#181818;stroke-width:1.0;"/><line style="stroke:#181818;stroke-width:1.0;stroke-dasharray:2.0,2.0;" x1="28.5" x2="297.5" y1="1546.5488" y2="1546.5488"/><text fill="#000000" font-family="sans-serif" font-size="13" font-weight="bold" lengthAdjust="spacing" textLength="18" x="40.5" y="1541.8066">38</text><text fill="#000000" font-family="sans-serif" font-size="13" lengthAdjust="spacing" textLength="224" x="62.5" y="1541.8066">sends response and updates screen</text><!--SRC=[dLTBRziu4BxhL_2sSc4xTyCDq3oADPeWGPliQI-qDBPOowHAKdRzxtU6r8EKPJVON28CvvlNDpEa_ogihSpYvgOgkRJrlfndQdzZu5SDCeDPBlXMytsIyDegMU_NeF4xiqgpTmEQSSDgGxAAQoioKQ4HzZUQ_07w0FhBJ_wRTCW9MoxTF-DERczZpBlCrQioTcNlbRHQbQMtdbbT8f9NLIaoReMIGwH7aJ-H0K5CyxbSDbz3n0ym1WqzSycttelnaXYISylNt02xKrpdtw5IHc3Y9mAiMn52T7SIeNnSCQpgP6UuyvHw02hdQi_5fTmjjpvpzt5T-QjZpqMpQJwNo-QB40dnoMQpMq_QWXqHQvXLh4QA67SXpOHD4dTEYWv1YW8LDzWQje1MZGcvKUT63SWSZHPQrTl22pNrdB5Oslp4_fLaGwlZb6MghFTowalEkCmnbXr8ruRYG0aJl0tdrdVCWcKQy2oT17fqaYJk7FNQDWbLfK8rBRQ5ROyJXdyvL1Wl3iG9q_a96RKXfciONnkhqJxaJg_DtV2T1weDQoO8q-CvNujIs5E2nXYvId8O1DScqJRaWct1hYGIYzCO9TDe94ch6bKtR7221OuwuAWlckgxqnjLE7Lr_gXFN135kri5rtmrogNATj_Wn3wZImaQLP-y96swu0wRO38ASnZxekyTQGHxMHCbQMCpPj6rXkEaTObWmv0dJpfIA1Ecd0LKuvOTHLaoJ806XBDzRU5tmeu5I9OLN6w5t0Opm58QzPnXAGRzwXhLjUmgd_I43xkqxjPUcFaS3QMJAGj5tknGsdWWSKl0Hpe-T1lEs9EIspdk30FqbRRnU-CWBQrWoEEMy6EIjCRHJxyS5pW1gvo0zjHP2z2TPfBqe5aKgfD7JHM00gV1E1UGxLQRbVckZezubvpUX2t19-gmapy1xrqv0coqWox1_Qw-ExtILiUkJy_NrvHPNKDi8BWJd0rntSIahrwFn4NVMudhLt9ZFTLH4KFiMJ08enjupRDTqoKXQLLZhT6DtLKQ3aBLvgBBQxN_gZHryCiHTu8fH9MsFTsLhy-68Yfjvy_TWNES35wQDBWMtquLp1yUdnxV7XycRYU7xjrzkM0IZluE_SmkG1Ce3VmF-FlhmnS7nmM0uKR9DvVkfq_nRVNHf9vV_XbBgQkeuGTuZTXuLWV8qxw4qm5RquQYvec0mGoCjm-6DjvxseWGMCGj9IsEE-sZG8fTZ5y3eU_gSxaYzWSonpx9HeimPR8kooRShjsQOBsqZJnkrZqLfErKVz6Fmo-DAzKu3QmCOmYdZ0u-CANOHDV22YnUwQaXGp7F8Kk3avwfCqZ0rk2iOsmWxrXh1sGulsUr7gS9uIFhf0DT9QV3dc-mFopESQ-ZUxE_pyT1tINfR-B-GJEk7Zu5- -UrVp9hC9MI-FE2tXTrbRitZ46owKKSsF1luly0]--></g></svg>