<?xml version="1.0" encoding="us-ascii" standalone="no"?><svg xmlns="http://www.w3.org/2000/svg" xmlns:xlink="http://www.w3.org/1999/xlink" contentStyleType="text/css" height="927px" preserveAspectRatio="none" style="width:1541px;height:927px;background:#FFFFFF;" version="1.1" viewBox="0 0 1541 927" width="1541px" zoomAndPan="magnify"><defs/><g><rect fill="#FFFFFF" height="688.4023" style="stroke:#181818;stroke-width:1.0;" width="10" x="207.5" y="121.5332"/><rect fill="#FFFFFF" height="594.5293" style="stroke:#181818;stroke-width:1.0;" width="10" x="377.5" y="184.1152"/><rect fill="#FFFFFF" height="62.582" style="stroke:#181818;stroke-width:1.0;" width="10" x="758.5" y="277.9883"/><rect fill="#FFFFFF" height="31.291" style="stroke:#181818;stroke-width:1.0;" width="10" x="890.5" y="371.8613"/><rect fill="#FFFFFF" height="281.6191" style="stroke:#181818;stroke-width:1.0;" width="10" x="1035.5" y="465.7344"/><rect fill="#FFFFFF" height="62.582" style="stroke:#181818;stroke-width:1.0;" width="10" x="1202" y="497.0254"/><rect fill="#FFFFFF" height="62.582" style="stroke:#181818;stroke-width:1.0;" width="10" x="1345" y="590.8984"/><rect fill="#FFFFFF" height="31.291" style="stroke:#181818;stroke-width:1.0;" width="10" x="1477.5" y="684.7715"/><line style="stroke:#181818;stroke-width:0.5;stroke-dasharray:5.0,5.0;" x1="38" x2="38" y1="88.2422" y2="827.9355"/><line style="stroke:#181818;stroke-width:0.5;stroke-dasharray:5.0,5.0;" x1="212" x2="212" y1="88.2422" y2="827.9355"/><line style="stroke:#181818;stroke-width:0.5;stroke-dasharray:5.0,5.0;" x1="382" x2="382" y1="88.2422" y2="827.9355"/><line style="stroke:#181818;stroke-width:0.5;stroke-dasharray:5.0,5.0;" x1="763" x2="763" y1="88.2422" y2="827.9355"/><line style="stroke:#181818;stroke-width:0.5;stroke-dasharray:5.0,5.0;" x1="895" x2="895" y1="88.2422" y2="827.9355"/><line style="stroke:#181818;stroke-width:0.5;stroke-dasharray:5.0,5.0;" x1="1040" x2="1040" y1="88.2422" y2="827.9355"/><line style="stroke:#181818;stroke-width:0.5;stroke-dasharray:5.0,5.0;" x1="1207" x2="1207" y1="88.2422" y2="827.9355"/><line style="stroke:#181818;stroke-width:0.5;stroke-dasharray:5.0,5.0;" x1="1350" x2="1350" y1="88.2422" y2="827.9355"/><line style="stroke:#181818;stroke-width:0.5;stroke-dasharray:5.0,5.0;" x1="1482" x2="1482" y1="88.2422" y2="827.9355"/><rect fill="#E2E2F0" height="32.6211" rx="2.5" ry="2.5" style="stroke:#181818;stroke-width:0.5;" width="67" x="5" y="54.6211"/><text fill="#000000" font-family="sans-serif" font-size="14" lengthAdjust="spacing" textLength="53" x="12" y="76.7285">Teacher</text><rect fill="#E2E2F0" height="32.6211" rx="2.5" ry="2.5" style="stroke:#181818;stroke-width:0.5;" width="67" x="5" y="826.9355"/><text fill="#000000" font-family="sans-serif" font-size="14" lengthAdjust="spacing" textLength="53" x="12" y="849.043">Teacher</text><rect fill="#E2E2F0" height="51.2422" rx="2.5" ry="2.5" style="stroke:#181818;stroke-width:0.5;" width="135" x="145" y="36"/><text fill="#000000" font-family="sans-serif" font-size="14" font-style="italic" lengthAdjust="spacing" textLength="95" x="165" y="58.1074">&#171;presentation&#187;</text><text fill="#000000" font-family="sans-serif" font-size="14" lengthAdjust="spacing" textLength="121" x="152" y="76.7285">ListCourseExamsUI</text><rect fill="#E2E2F0" height="51.2422" rx="2.5" ry="2.5" style="stroke:#181818;stroke-width:0.5;" width="135" x="145" y="826.9355"/><text fill="#000000" font-family="sans-serif" font-size="14" font-style="italic" lengthAdjust="spacing" textLength="95" x="165" y="849.043">&#171;presentation&#187;</text><text fill="#000000" font-family="sans-serif" font-size="14" lengthAdjust="spacing" textLength="121" x="152" y="867.6641">ListCourseExamsUI</text><rect fill="#E2E2F0" height="32.6211" rx="2.5" ry="2.5" style="stroke:#181818;stroke-width:0.5;" width="185" x="290" y="54.6211"/><text fill="#000000" font-family="sans-serif" font-size="14" lengthAdjust="spacing" textLength="171" x="297" y="76.7285">ListCourseExamsController</text><rect fill="#E2E2F0" height="32.6211" rx="2.5" ry="2.5" style="stroke:#181818;stroke-width:0.5;" width="185" x="290" y="826.9355"/><text fill="#000000" font-family="sans-serif" font-size="14" lengthAdjust="spacing" textLength="171" x="297" y="849.043">ListCourseExamsController</text><rect fill="#E2E2F0" height="51.2422" rx="2.5" ry="2.5" style="stroke:#181818;stroke-width:0.5;" width="151" x="688" y="36"/><text fill="#000000" font-family="sans-serif" font-size="14" font-style="italic" lengthAdjust="spacing" textLength="60" x="733.5" y="58.1074">&#171;service&#187;</text><text fill="#000000" font-family="sans-serif" font-size="14" lengthAdjust="spacing" textLength="137" x="695" y="76.7285">AuthenticationService</text><rect fill="#E2E2F0" height="51.2422" rx="2.5" ry="2.5" style="stroke:#181818;stroke-width:0.5;" width="151" x="688" y="826.9355"/><text fill="#000000" font-family="sans-serif" font-size="14" font-style="italic" lengthAdjust="spacing" textLength="60" x="733.5" y="849.043">&#171;service&#187;</text><text fill="#000000" font-family="sans-serif" font-size="14" lengthAdjust="spacing" textLength="137" x="695" y="867.6641">AuthenticationService</text><rect fill="#E2E2F0" height="51.2422" rx="2.5" ry="2.5" style="stroke:#181818;stroke-width:0.5;" width="93" x="849" y="36"/><text fill="#000000" font-family="sans-serif" font-size="14" font-style="italic" lengthAdjust="spacing" textLength="64" x="863.5" y="58.1074">&#171;session&#187;</text><text fill="#000000" font-family="sans-serif" font-size="14" lengthAdjust="spacing" textLength="79" x="856" y="76.7285">UserSession</text><rect fill="#E2E2F0" height="51.2422" rx="2.5" ry="2.5" style="stroke:#181818;stroke-width:0.5;" width="93" x="849" y="826.9355"/><text fill="#000000" font-family="sans-serif" font-size="14" font-style="italic" lengthAdjust="spacing" textLength="64" x="863.5" y="849.043">&#171;session&#187;</text><text fill="#000000" font-family="sans-serif" font-size="14" lengthAdjust="spacing" textLength="79" x="856" y="867.6641">UserSession</text><rect fill="#E2E2F0" height="51.2422" rx="2.5" ry="2.5" style="stroke:#181818;stroke-width:0.5;" width="177" x="952" y="36"/><text fill="#000000" font-family="sans-serif" font-size="14" font-style="italic" lengthAdjust="spacing" textLength="60" x="1010.5" y="58.1074">&#171;service&#187;</text><text fill="#000000" font-family="sans-serif" font-size="14" lengthAdjust="spacing" textLength="163" x="959" y="76.7285">ExamManagementService</text><rect fill="#E2E2F0" height="51.2422" rx="2.5" ry="2.5" style="stroke:#181818;stroke-width:0.5;" width="177" x="952" y="826.9355"/><text fill="#000000" font-family="sans-serif" font-size="14" font-style="italic" lengthAdjust="spacing" textLength="60" x="1010.5" y="849.043">&#171;service&#187;</text><text fill="#000000" font-family="sans-serif" font-size="14" lengthAdjust="spacing" textLength="163" x="959" y="867.6641">ExamManagementService</text><rect fill="#E2E2F0" height="51.2422" rx="2.5" ry="2.5" style="stroke:#181818;stroke-width:0.5;" width="136" x="1139" y="36"/><text fill="#000000" font-family="sans-serif" font-size="14" font-style="italic" lengthAdjust="spacing" textLength="89" x="1162.5" y="58.1074">&#171;persistence&#187;</text><text fill="#000000" font-family="sans-serif" font-size="14" lengthAdjust="spacing" textLength="122" x="1146" y="76.7285">PersistenceContext</text><rect fill="#E2E2F0" height="51.2422" rx="2.5" ry="2.5" style="stroke:#181818;stroke-width:0.5;" width="136" x="1139" y="826.9355"/><text fill="#000000" font-family="sans-serif" font-size="14" font-style="italic" lengthAdjust="spacing" textLength="89" x="1162.5" y="849.043">&#171;persistence&#187;</text><text fill="#000000" font-family="sans-serif" font-size="14" lengthAdjust="spacing" textLength="122" x="1146" y="867.6641">PersistenceContext</text><rect fill="#E2E2F0" height="51.2422" rx="2.5" ry="2.5" style="stroke:#181818;stroke-width:0.5;" width="130" x="1285" y="36"/><text fill="#000000" font-family="sans-serif" font-size="14" font-style="italic" lengthAdjust="spacing" textLength="59" x="1320.5" y="58.1074">&#171;factory&#187;</text><text fill="#000000" font-family="sans-serif" font-size="14" lengthAdjust="spacing" textLength="116" x="1292" y="76.7285">RepositoryFactory</text><rect fill="#E2E2F0" height="51.2422" rx="2.5" ry="2.5" style="stroke:#181818;stroke-width:0.5;" width="130" x="1285" y="826.9355"/><text fill="#000000" font-family="sans-serif" font-size="14" font-style="italic" lengthAdjust="spacing" textLength="59" x="1320.5" y="849.043">&#171;factory&#187;</text><text fill="#000000" font-family="sans-serif" font-size="14" lengthAdjust="spacing" textLength="116" x="1292" y="867.6641">RepositoryFactory</text><text fill="#000000" font-family="sans-serif" font-size="14" font-style="italic" lengthAdjust="spacing" textLength="79" x="1440" y="66.1074">&#171;repository&#187;</text><text fill="#000000" font-family="sans-serif" font-size="14" lengthAdjust="spacing" textLength="109" x="1425" y="84.7285">ExamsRepository</text><path d="M1464.5,15 C1464.5,5 1482.5,5 1482.5,5 C1482.5,5 1500.5,5 1500.5,15 L1500.5,41 C1500.5,51 1482.5,51 1482.5,51 C1482.5,51 1464.5,51 1464.5,41 L1464.5,15 " fill="#E2E2F0" style="stroke:#181818;stroke-width:1.5;"/><path d="M1464.5,15 C1464.5,25 1482.5,25 1482.5,25 C1482.5,25 1500.5,25 1500.5,15 " fill="none" style="stroke:#181818;stroke-width:1.5;"/><text fill="#000000" font-family="sans-serif" font-size="14" font-style="italic" lengthAdjust="spacing" textLength="79" x="1440" y="842.043">&#171;repository&#187;</text><text fill="#000000" font-family="sans-serif" font-size="14" lengthAdjust="spacing" textLength="109" x="1425" y="860.6641">ExamsRepository</text><path d="M1464.5,874.1777 C1464.5,864.1777 1482.5,864.1777 1482.5,864.1777 C1482.5,864.1777 1500.5,864.1777 1500.5,874.1777 L1500.5,900.1777 C1500.5,910.1777 1482.5,910.1777 1482.5,910.1777 C1482.5,910.1777 1464.5,910.1777 1464.5,900.1777 L1464.5,874.1777 " fill="#E2E2F0" style="stroke:#181818;stroke-width:1.5;"/><path d="M1464.5,874.1777 C1464.5,884.1777 1482.5,884.1777 1482.5,884.1777 C1482.5,884.1777 1500.5,884.1777 1500.5,874.1777 " fill="none" style="stroke:#181818;stroke-width:1.5;"/><rect fill="#FFFFFF" height="688.4023" style="stroke:#181818;stroke-width:1.0;" width="10" x="207.5" y="121.5332"/><rect fill="#FFFFFF" height="594.5293" style="stroke:#181818;stroke-width:1.0;" width="10" x="377.5" y="184.1152"/><rect fill="#FFFFFF" height="62.582" style="stroke:#181818;stroke-width:1.0;" width="10" x="758.5" y="277.9883"/><rect fill="#FFFFFF" height="31.291" style="stroke:#181818;stroke-width:1.0;" width="10" x="890.5" y="371.8613"/><rect fill="#FFFFFF" height="281.6191" style="stroke:#181818;stroke-width:1.0;" width="10" x="1035.5" y="465.7344"/><rect fill="#FFFFFF" height="62.582" style="stroke:#181818;stroke-width:1.0;" width="10" x="1202" y="497.0254"/><rect fill="#FFFFFF" height="62.582" style="stroke:#181818;stroke-width:1.0;" width="10" x="1345" y="590.8984"/><rect fill="#FFFFFF" height="31.291" style="stroke:#181818;stroke-width:1.0;" width="10" x="1477.5" y="684.7715"/><polygon fill="#181818" points="195.5,117.5332,205.5,121.5332,195.5,125.5332,199.5,121.5332" style="stroke:#181818;stroke-width:1.0;"/><line style="stroke:#181818;stroke-width:1.0;stroke-dasharray:2.0,2.0;" x1="38.5" x2="201.5" y1="121.5332" y2="121.5332"/><text fill="#000000" font-family="sans-serif" font-size="13" lengthAdjust="spacing" textLength="96" x="45.5" y="116.2705">list future exams</text><polygon fill="#181818" points="370.5,148.8242,380.5,152.8242,370.5,156.8242,374.5,152.8242" style="stroke:#181818;stroke-width:1.0;"/><line style="stroke:#181818;stroke-width:1.0;" x1="217.5" x2="376.5" y1="152.8242" y2="152.8242"/><text fill="#000000" font-family="sans-serif" font-size="13" lengthAdjust="spacing" textLength="44" x="224.5" y="147.5615">create()</text><polygon fill="#181818" points="365.5,180.1152,375.5,184.1152,365.5,188.1152,369.5,184.1152" style="stroke:#181818;stroke-width:1.0;"/><line style="stroke:#181818;stroke-width:1.0;" x1="217.5" x2="371.5" y1="184.1152" y2="184.1152"/><text fill="#000000" font-family="sans-serif" font-size="13" lengthAdjust="spacing" textLength="107" x="224.5" y="178.8525">listCourseExams()</text><polygon fill="#181818" points="751.5,211.4063,761.5,215.4063,751.5,219.4063,755.5,215.4063" style="stroke:#181818;stroke-width:1.0;"/><line style="stroke:#181818;stroke-width:1.0;" x1="387.5" x2="757.5" y1="215.4063" y2="215.4063"/><text fill="#000000" font-family="sans-serif" font-size="13" lengthAdjust="spacing" textLength="44" x="394.5" y="210.1436">create()</text><polygon fill="#181818" points="751.5,242.6973,761.5,246.6973,751.5,250.6973,755.5,246.6973" style="stroke:#181818;stroke-width:1.0;"/><line style="stroke:#181818;stroke-width:1.0;" x1="387.5" x2="757.5" y1="246.6973" y2="246.6973"/><text fill="#000000" font-family="sans-serif" font-size="13" lengthAdjust="spacing" textLength="352" x="394.5" y="241.4346">ensureAuthenticatedUserHasAnyOf(CourseRoles.TEACHER)</text><polygon fill="#181818" points="883.5,273.9883,893.5,277.9883,883.5,281.9883,887.5,277.9883" style="stroke:#181818;stroke-width:1.0;"/><line style="stroke:#181818;stroke-width:1.0;" x1="768.5" x2="889.5" y1="277.9883" y2="277.9883"/><text fill="#000000" font-family="sans-serif" font-size="13" lengthAdjust="spacing" textLength="44" x="775.5" y="272.7256">create()</text><polygon fill="#181818" points="746.5,305.2793,756.5,309.2793,746.5,313.2793,750.5,309.2793" style="stroke:#181818;stroke-width:1.0;"/><line style="stroke:#181818;stroke-width:1.0;" x1="387.5" x2="752.5" y1="309.2793" y2="309.2793"/><text fill="#000000" font-family="sans-serif" font-size="13" lengthAdjust="spacing" textLength="53" x="394.5" y="304.0166">session()</text><polygon fill="#181818" points="398.5,336.5703,388.5,340.5703,398.5,344.5703,394.5,340.5703" style="stroke:#181818;stroke-width:1.0;"/><line style="stroke:#181818;stroke-width:1.0;" x1="392.5" x2="762.5" y1="340.5703" y2="340.5703"/><text fill="#000000" font-family="sans-serif" font-size="13" lengthAdjust="spacing" textLength="45" x="404.5" y="335.3076">session</text><polygon fill="#181818" points="878.5,367.8613,888.5,371.8613,878.5,375.8613,882.5,371.8613" style="stroke:#181818;stroke-width:1.0;"/><line style="stroke:#181818;stroke-width:1.0;" x1="387.5" x2="884.5" y1="371.8613" y2="371.8613"/><text fill="#000000" font-family="sans-serif" font-size="13" lengthAdjust="spacing" textLength="113" x="394.5" y="366.5986">authenticatedUser()</text><polygon fill="#181818" points="398.5,399.1523,388.5,403.1523,398.5,407.1523,394.5,403.1523" style="stroke:#181818;stroke-width:1.0;"/><line style="stroke:#181818;stroke-width:1.0;" x1="392.5" x2="894.5" y1="403.1523" y2="403.1523"/><text fill="#000000" font-family="sans-serif" font-size="13" lengthAdjust="spacing" textLength="25" x="404.5" y="397.8896">user</text><polygon fill="#181818" points="1028.5,430.4434,1038.5,434.4434,1028.5,438.4434,1032.5,434.4434" style="stroke:#181818;stroke-width:1.0;"/><line style="stroke:#181818;stroke-width:1.0;" x1="387.5" x2="1034.5" y1="434.4434" y2="434.4434"/><text fill="#000000" font-family="sans-serif" font-size="13" lengthAdjust="spacing" textLength="44" x="394.5" y="429.1807">create()</text><polygon fill="#181818" points="1023.5,461.7344,1033.5,465.7344,1023.5,469.7344,1027.5,465.7344" style="stroke:#181818;stroke-width:1.0;"/><line style="stroke:#181818;stroke-width:1.0;" x1="387.5" x2="1029.5" y1="465.7344" y2="465.7344"/><text fill="#000000" font-family="sans-serif" font-size="13" lengthAdjust="spacing" textLength="122" x="394.5" y="460.4717">listAllCourseExams()</text><polygon fill="#181818" points="1190,493.0254,1200,497.0254,1190,501.0254,1194,497.0254" style="stroke:#181818;stroke-width:1.0;"/><line style="stroke:#181818;stroke-width:1.0;" x1="1045.5" x2="1196" y1="497.0254" y2="497.0254"/><text fill="#000000" font-family="sans-serif" font-size="13" lengthAdjust="spacing" textLength="75" x="1052.5" y="491.7627">repositories()</text><polygon fill="#181818" points="1338,524.3164,1348,528.3164,1338,532.3164,1342,528.3164" style="stroke:#181818;stroke-width:1.0;"/><line style="stroke:#181818;stroke-width:1.0;" x1="1212" x2="1344" y1="528.3164" y2="528.3164"/><text fill="#000000" font-family="sans-serif" font-size="13" lengthAdjust="spacing" textLength="44" x="1219" y="523.0537">create()</text><polygon fill="#181818" points="1056.5,555.6074,1046.5,559.6074,1056.5,563.6074,1052.5,559.6074" style="stroke:#181818;stroke-width:1.0;"/><line style="stroke:#181818;stroke-width:1.0;" x1="1050.5" x2="1206" y1="559.6074" y2="559.6074"/><text fill="#000000" font-family="sans-serif" font-size="13" lengthAdjust="spacing" textLength="39" x="1062.5" y="554.3447">factory</text><polygon fill="#181818" points="1333,586.8984,1343,590.8984,1333,594.8984,1337,590.8984" style="stroke:#181818;stroke-width:1.0;"/><line style="stroke:#181818;stroke-width:1.0;" x1="1045.5" x2="1339" y1="590.8984" y2="590.8984"/><text fill="#000000" font-family="sans-serif" font-size="13" lengthAdjust="spacing" textLength="47" x="1052.5" y="585.6357">exams()</text><polygon fill="#181818" points="1470.5,618.1895,1480.5,622.1895,1470.5,626.1895,1474.5,622.1895" style="stroke:#181818;stroke-width:1.0;"/><line style="stroke:#181818;stroke-width:1.0;" x1="1355" x2="1476.5" y1="622.1895" y2="622.1895"/><text fill="#000000" font-family="sans-serif" font-size="13" lengthAdjust="spacing" textLength="44" x="1362" y="616.9268">create()</text><polygon fill="#181818" points="1056.5,649.4805,1046.5,653.4805,1056.5,657.4805,1052.5,653.4805" style="stroke:#181818;stroke-width:1.0;"/><line style="stroke:#181818;stroke-width:1.0;" x1="1050.5" x2="1349" y1="653.4805" y2="653.4805"/><text fill="#000000" font-family="sans-serif" font-size="13" lengthAdjust="spacing" textLength="94" x="1062.5" y="648.2178">examRepository</text><polygon fill="#181818" points="1465.5,680.7715,1475.5,684.7715,1465.5,688.7715,1469.5,684.7715" style="stroke:#181818;stroke-width:1.0;"/><line style="stroke:#181818;stroke-width:1.0;" x1="1045.5" x2="1471.5" y1="684.7715" y2="684.7715"/><text fill="#000000" font-family="sans-serif" font-size="13" lengthAdjust="spacing" textLength="271" x="1052.5" y="679.5088">listAllCourseExams = findAllExamsByCourse()</text><polygon fill="#181818" points="1056.5,712.0625,1046.5,716.0625,1056.5,720.0625,1052.5,716.0625" style="stroke:#181818;stroke-width:1.0;"/><line style="stroke:#181818;stroke-width:1.0;stroke-dasharray:2.0,2.0;" x1="1050.5" x2="1481.5" y1="716.0625" y2="716.0625"/><text fill="#000000" font-family="sans-serif" font-size="13" lengthAdjust="spacing" textLength="114" x="1062.5" y="710.7998">listAllCourseExams</text><polygon fill="#181818" points="398.5,743.3535,388.5,747.3535,398.5,751.3535,394.5,747.3535" style="stroke:#181818;stroke-width:1.0;"/><line style="stroke:#181818;stroke-width:1.0;stroke-dasharray:2.0,2.0;" x1="392.5" x2="1039.5" y1="747.3535" y2="747.3535"/><text fill="#000000" font-family="sans-serif" font-size="13" lengthAdjust="spacing" textLength="114" x="404.5" y="742.0908">listAllCourseExams</text><polygon fill="#181818" points="228.5,774.6445,218.5,778.6445,228.5,782.6445,224.5,778.6445" style="stroke:#181818;stroke-width:1.0;"/><line style="stroke:#181818;stroke-width:1.0;stroke-dasharray:2.0,2.0;" x1="222.5" x2="381.5" y1="778.6445" y2="778.6445"/><text fill="#000000" font-family="sans-serif" font-size="13" lengthAdjust="spacing" textLength="114" x="234.5" y="773.3818">listAllCourseExams</text><polygon fill="#181818" points="49.5,805.9355,39.5,809.9355,49.5,813.9355,45.5,809.9355" style="stroke:#181818;stroke-width:1.0;"/><line style="stroke:#181818;stroke-width:1.0;" x1="43.5" x2="211.5" y1="809.9355" y2="809.9355"/><text fill="#000000" font-family="sans-serif" font-size="13" lengthAdjust="spacing" textLength="145" x="55.5" y="804.6729">show the operation result</text><!--SRC=[XLJTJZCX4BtdARYi5_qUe5cRh4s_QABHL7q0t4ujoGeRODNwz0wmBBFqnviDx9npvWmpq0dZP2CxeHn_0T7imN1XUTquRLX7WlVIkfNkZONrj_YmhtSUXj-gwWnOK4uugTLoUOcqqiePtROnHzvDE7NlzYWdco3u3EPJDX0yzUvdZ_bi_5MaUiNVps0jSe8pilMKi2eetjE3KE8TFZ0XoPIMvt8zWR5O6QW6V17mxL8zVeadakC5SmETjXBFzl1V-2C-U69QLjKkhf2q5Kwy2Gl1fCqqZoUxgZBZ1baiz8tFvqlVcWLlqGNVzQutmC4BCOOPvATmW02664IIhYnuOm23iojsAjXEs-bHenpf9k6WGcmRKJuT1cNH9Ma-R7qFRuMjrU5nDujvDxe5- -zbNQzkrvih5ic-Mj9kMiHeBo3Ff1wcOqRq9cKFSRQ5GgxGcveGPIcedmy_GncbbQbxZD6yb5TaJqDxzgGpmFUnRjjphHo0B146Ktws5toSDmd70u0Gbg38IeDTM1gYsSymzhJGf4PDP3auyZp4MC8Wd5mJOe00iW6lb-7KHzAbFYR2nsV9h_bEgYt-3DkRGunDx99aH6t-HvSOTKOaHc-dBkm5YTHeEYVqwRX09TSzFXJnvS7BijTV72UVQtm5mnEE8sFxrate-FZy0W00]--></g></svg>