<?xml version="1.0" encoding="us-ascii" standalone="no"?><svg xmlns="http://www.w3.org/2000/svg" xmlns:xlink="http://www.w3.org/1999/xlink" contentStyleType="text/css" height="921px" preserveAspectRatio="none" style="width:559px;height:921px;background:#FFFFFF;" version="1.1" viewBox="0 0 559 921" width="559px" zoomAndPan="magnify"><defs/><g><!--class ScheduleClassUI--><g id="elem_ScheduleClassUI"><rect codeLine="7" fill="#F1F1F1" height="79.2031" id="ScheduleClassUI" rx="2.5" ry="2.5" style="stroke:#181818;stroke-width:0.5;" width="138" x="315.5" y="7"/><ellipse cx="330.5" cy="29.291" fill="#C2C2C2" rx="11" ry="11" style="stroke:#181818;stroke-width:1.0;"/><path d="M333.2656,25.166 Q333.4219,24.9473 333.6094,24.8379 Q333.7969,24.7285 334.0156,24.7285 Q334.3906,24.7285 334.625,24.9941 Q334.8594,25.2441 334.8594,25.8535 L334.8594,27.3066 Q334.8594,27.916 334.625,28.1816 Q334.3906,28.4473 334.0156,28.4473 Q333.6719,28.4473 333.4688,28.2441 Q333.2656,28.0566 333.1563,27.541 Q333.1094,27.1816 332.9219,26.9941 Q332.5938,26.6191 331.9844,26.4004 Q331.375,26.1816 330.75,26.1816 Q329.9844,26.1816 329.3438,26.5098 Q328.7188,26.8379 328.2188,27.5879 Q327.7344,28.3379 327.7344,29.3691 L327.7344,30.4629 Q327.7344,31.6973 328.625,32.5254 Q329.5156,33.3379 331.1094,33.3379 Q332.0469,33.3379 332.7031,33.0879 Q333.0938,32.9316 333.5156,32.4941 Q333.7813,32.2285 333.9219,32.1504 Q334.0781,32.0723 334.2813,32.0723 Q334.6094,32.0723 334.8594,32.3379 Q335.125,32.5879 335.125,32.9316 Q335.125,33.2754 334.7813,33.6816 Q334.2813,34.2598 333.4844,34.5879 Q332.4063,35.041 331.1094,35.041 Q329.5938,35.041 328.3906,34.416 Q327.4063,33.916 326.7188,32.8535 Q326.0313,31.7754 326.0313,30.4941 L326.0313,29.3379 Q326.0313,28.0098 326.6406,26.8691 Q327.2656,25.7129 328.3594,25.1035 Q329.4531,24.4785 330.6875,24.4785 Q331.4219,24.4785 332.0625,24.6504 Q332.7188,24.8066 333.2656,25.166 Z " fill="#000000"/><text fill="#000000" font-family="FG Virgil" font-size="12" font-style="italic" lengthAdjust="spacing" textLength="82" x="356.5" y="24.9492">&#171;presentation&#187;</text><text fill="#000000" font-family="FG Virgil" font-size="14" lengthAdjust="spacing" textLength="106" x="344.5" y="43.0684">ScheduleClassUI</text><line style="stroke:#181818;stroke-width:0.5;" x1="316.5" x2="452.5" y1="51.582" y2="51.582"/><line style="stroke:#181818;stroke-width:0.5;" x1="316.5" x2="452.5" y1="59.582" y2="59.582"/><text fill="#000000" font-family="FG Virgil" font-size="14" lengthAdjust="spacing" textLength="60" x="321.5" y="78.6895">doShow()</text></g><!--class ScheduleClassController--><g id="elem_ScheduleClassController"><rect codeLine="10" fill="#F1F1F1" height="79.2031" id="ScheduleClassController" rx="2.5" ry="2.5" style="stroke:#181818;stroke-width:0.5;" width="241" x="264" y="165"/><ellipse cx="302.85" cy="187.291" fill="#C2C2C2" rx="11" ry="11" style="stroke:#181818;stroke-width:1.0;"/><path d="M305.6156,183.166 Q305.7719,182.9473 305.9594,182.8379 Q306.1469,182.7285 306.3656,182.7285 Q306.7406,182.7285 306.975,182.9941 Q307.2094,183.2441 307.2094,183.8535 L307.2094,185.3066 Q307.2094,185.916 306.975,186.1816 Q306.7406,186.4473 306.3656,186.4473 Q306.0219,186.4473 305.8188,186.2441 Q305.6156,186.0566 305.5063,185.541 Q305.4594,185.1816 305.2719,184.9941 Q304.9438,184.6191 304.3344,184.4004 Q303.725,184.1816 303.1,184.1816 Q302.3344,184.1816 301.6938,184.5098 Q301.0688,184.8379 300.5688,185.5879 Q300.0844,186.3379 300.0844,187.3691 L300.0844,188.4629 Q300.0844,189.6973 300.975,190.5254 Q301.8656,191.3379 303.4594,191.3379 Q304.3969,191.3379 305.0531,191.0879 Q305.4438,190.9316 305.8656,190.4941 Q306.1313,190.2285 306.2719,190.1504 Q306.4281,190.0723 306.6313,190.0723 Q306.9594,190.0723 307.2094,190.3379 Q307.475,190.5879 307.475,190.9316 Q307.475,191.2754 307.1313,191.6816 Q306.6313,192.2598 305.8344,192.5879 Q304.7563,193.041 303.4594,193.041 Q301.9438,193.041 300.7406,192.416 Q299.7563,191.916 299.0688,190.8535 Q298.3813,189.7754 298.3813,188.4941 L298.3813,187.3379 Q298.3813,186.0098 298.9906,184.8691 Q299.6156,183.7129 300.7094,183.1035 Q301.8031,182.4785 303.0375,182.4785 Q303.7719,182.4785 304.4125,182.6504 Q305.0688,182.8066 305.6156,183.166 Z " fill="#000000"/><text fill="#000000" font-family="FG Virgil" font-size="12" font-style="italic" lengthAdjust="spacing" textLength="74" x="363.15" y="182.9492">&#171;application&#187;</text><text fill="#000000" font-family="FG Virgil" font-size="14" lengthAdjust="spacing" textLength="156" x="322.15" y="201.0684">ScheduleClassController</text><line style="stroke:#181818;stroke-width:0.5;" x1="265" x2="504" y1="209.582" y2="209.582"/><line style="stroke:#181818;stroke-width:0.5;" x1="265" x2="504" y1="217.582" y2="217.582"/><text fill="#000000" font-family="FG Virgil" font-size="14" lengthAdjust="spacing" textLength="229" x="270" y="236.6895">scheduleClass(String, Date, Integer)</text></g><!--class ClassManagementService--><g id="elem_ClassManagementService"><rect codeLine="14" fill="#F1F1F1" height="79.2031" id="ClassManagementService" rx="2.5" ry="2.5" style="stroke:#181818;stroke-width:0.5;" width="267" x="251" y="323"/><ellipse cx="298.25" cy="345.291" fill="#C2C2C2" rx="11" ry="11" style="stroke:#181818;stroke-width:1.0;"/><path d="M301.0156,341.166 Q301.1719,340.9473 301.3594,340.8379 Q301.5469,340.7285 301.7656,340.7285 Q302.1406,340.7285 302.375,340.9941 Q302.6094,341.2441 302.6094,341.8535 L302.6094,343.3066 Q302.6094,343.916 302.375,344.1816 Q302.1406,344.4473 301.7656,344.4473 Q301.4219,344.4473 301.2188,344.2441 Q301.0156,344.0566 300.9063,343.541 Q300.8594,343.1816 300.6719,342.9941 Q300.3438,342.6191 299.7344,342.4004 Q299.125,342.1816 298.5,342.1816 Q297.7344,342.1816 297.0938,342.5098 Q296.4688,342.8379 295.9688,343.5879 Q295.4844,344.3379 295.4844,345.3691 L295.4844,346.4629 Q295.4844,347.6973 296.375,348.5254 Q297.2656,349.3379 298.8594,349.3379 Q299.7969,349.3379 300.4531,349.0879 Q300.8438,348.9316 301.2656,348.4941 Q301.5313,348.2285 301.6719,348.1504 Q301.8281,348.0723 302.0313,348.0723 Q302.3594,348.0723 302.6094,348.3379 Q302.875,348.5879 302.875,348.9316 Q302.875,349.2754 302.5313,349.6816 Q302.0313,350.2598 301.2344,350.5879 Q300.1563,351.041 298.8594,351.041 Q297.3438,351.041 296.1406,350.416 Q295.1563,349.916 294.4688,348.8535 Q293.7813,347.7754 293.7813,346.4941 L293.7813,345.3379 Q293.7813,344.0098 294.3906,342.8691 Q295.0156,341.7129 296.1094,341.1035 Q297.2031,340.4785 298.4375,340.4785 Q299.1719,340.4785 299.8125,340.6504 Q300.4688,340.8066 301.0156,341.166 Z " fill="#000000"/><text fill="#000000" font-family="FG Virgil" font-size="12" font-style="italic" lengthAdjust="spacing" textLength="53" x="374.25" y="340.9492">&#171;service&#187;</text><text fill="#000000" font-family="FG Virgil" font-size="14" lengthAdjust="spacing" textLength="164" x="318.75" y="359.0684">ClassManagementService</text><line style="stroke:#181818;stroke-width:0.5;" x1="252" x2="517" y1="367.582" y2="367.582"/><line style="stroke:#181818;stroke-width:0.5;" x1="252" x2="517" y1="375.582" y2="375.582"/><text fill="#000000" font-family="FG Virgil" font-size="14" lengthAdjust="spacing" textLength="255" x="257" y="394.6895">scheduleNewClass(String, Date, Integer)</text></g><!--class ClassBuilder--><g id="elem_ClassBuilder"><rect codeLine="18" fill="#F1F1F1" height="97.8242" id="ClassBuilder" rx="2.5" ry="2.5" style="stroke:#181818;stroke-width:0.5;" width="173" x="78" y="481"/><ellipse cx="120.9" cy="503.291" fill="#C2C2C2" rx="11" ry="11" style="stroke:#181818;stroke-width:1.0;"/><path d="M123.6656,499.166 Q123.8219,498.9473 124.0094,498.8379 Q124.1969,498.7285 124.4156,498.7285 Q124.7906,498.7285 125.025,498.9941 Q125.2594,499.2441 125.2594,499.8535 L125.2594,501.3066 Q125.2594,501.916 125.025,502.1816 Q124.7906,502.4473 124.4156,502.4473 Q124.0719,502.4473 123.8688,502.2441 Q123.6656,502.0566 123.5563,501.541 Q123.5094,501.1816 123.3219,500.9941 Q122.9938,500.6191 122.3844,500.4004 Q121.775,500.1816 121.15,500.1816 Q120.3844,500.1816 119.7438,500.5098 Q119.1188,500.8379 118.6188,501.5879 Q118.1344,502.3379 118.1344,503.3691 L118.1344,504.4629 Q118.1344,505.6973 119.025,506.5254 Q119.9156,507.3379 121.5094,507.3379 Q122.4469,507.3379 123.1031,507.0879 Q123.4938,506.9316 123.9156,506.4941 Q124.1813,506.2285 124.3219,506.1504 Q124.4781,506.0723 124.6813,506.0723 Q125.0094,506.0723 125.2594,506.3379 Q125.525,506.5879 125.525,506.9316 Q125.525,507.2754 125.1813,507.6816 Q124.6813,508.2598 123.8844,508.5879 Q122.8063,509.041 121.5094,509.041 Q119.9938,509.041 118.7906,508.416 Q117.8063,507.916 117.1188,506.8535 Q116.4313,505.7754 116.4313,504.4941 L116.4313,503.3379 Q116.4313,502.0098 117.0406,500.8691 Q117.6656,499.7129 118.7594,499.1035 Q119.8531,498.4785 121.0875,498.4785 Q121.8219,498.4785 122.4625,498.6504 Q123.1188,498.8066 123.6656,499.166 Z " fill="#000000"/><text fill="#000000" font-family="FG Virgil" font-size="12" font-style="italic" lengthAdjust="spacing" textLength="53" x="154.1" y="498.9492">&#171;builder&#187;</text><text fill="#000000" font-family="FG Virgil" font-size="14" lengthAdjust="spacing" textLength="79" x="141.1" y="517.0684">ClassBuilder</text><line style="stroke:#181818;stroke-width:0.5;" x1="79" x2="250" y1="525.582" y2="525.582"/><line style="stroke:#181818;stroke-width:0.5;" x1="79" x2="250" y1="533.582" y2="533.582"/><text fill="#000000" font-family="FG Virgil" font-size="14" lengthAdjust="spacing" textLength="161" x="84" y="552.6895">with(String, Date, Integer)</text><text fill="#000000" font-family="FG Virgil" font-size="14" lengthAdjust="spacing" textLength="40" x="84" y="571.3105">build()</text></g><!--class class:Class--><g id="elem_class:Class"><rect codeLine="22" fill="#F1F1F1" height="97.8242" id="class:Class" rx="2.5" ry="2.5" style="stroke:#181818;stroke-width:0.5;" width="271" x="7" y="658"/><ellipse cx="102.75" cy="680.291" fill="#C2C2C2" rx="11" ry="11" style="stroke:#181818;stroke-width:1.0;"/><path d="M105.5156,676.166 Q105.6719,675.9473 105.8594,675.8379 Q106.0469,675.7285 106.2656,675.7285 Q106.6406,675.7285 106.875,675.9941 Q107.1094,676.2441 107.1094,676.8535 L107.1094,678.3066 Q107.1094,678.916 106.875,679.1816 Q106.6406,679.4473 106.2656,679.4473 Q105.9219,679.4473 105.7188,679.2441 Q105.5156,679.0566 105.4063,678.541 Q105.3594,678.1816 105.1719,677.9941 Q104.8438,677.6191 104.2344,677.4004 Q103.625,677.1816 103,677.1816 Q102.2344,677.1816 101.5938,677.5098 Q100.9688,677.8379 100.4688,678.5879 Q99.9844,679.3379 99.9844,680.3691 L99.9844,681.4629 Q99.9844,682.6973 100.875,683.5254 Q101.7656,684.3379 103.3594,684.3379 Q104.2969,684.3379 104.9531,684.0879 Q105.3438,683.9316 105.7656,683.4941 Q106.0313,683.2285 106.1719,683.1504 Q106.3281,683.0723 106.5313,683.0723 Q106.8594,683.0723 107.1094,683.3379 Q107.375,683.5879 107.375,683.9316 Q107.375,684.2754 107.0313,684.6816 Q106.5313,685.2598 105.7344,685.5879 Q104.6563,686.041 103.3594,686.041 Q101.8438,686.041 100.6406,685.416 Q99.6563,684.916 98.9688,683.8535 Q98.2813,682.7754 98.2813,681.4941 L98.2813,680.3379 Q98.2813,679.0098 98.8906,677.8691 Q99.5156,676.7129 100.6094,676.1035 Q101.7031,675.4785 102.9375,675.4785 Q103.6719,675.4785 104.3125,675.6504 Q104.9688,675.8066 105.5156,676.166 Z " fill="#000000"/><text fill="#000000" font-family="FG Virgil" font-size="12" font-style="italic" lengthAdjust="spacing" textLength="56" x="130.75" y="675.9492">&#171;domain&#187;</text><text fill="#000000" font-family="FG Virgil" font-size="14" lengthAdjust="spacing" textLength="71" x="123.25" y="694.0684">class:Class</text><line style="stroke:#181818;stroke-width:0.5;" x1="8" x2="277" y1="702.582" y2="702.582"/><line style="stroke:#181818;stroke-width:0.5;" x1="8" x2="277" y1="710.582" y2="710.582"/><text fill="#000000" font-family="FG Virgil" font-size="14" lengthAdjust="spacing" textLength="172" x="13" y="729.6895">Class(Title, Date, Duration)</text><text fill="#000000" font-family="FG Virgil" font-size="14" lengthAdjust="spacing" textLength="259" x="13" y="748.3105">validateParameters(Title, Date, Duration)</text></g><!--class PersistenceContext--><g id="elem_PersistenceContext"><rect codeLine="26" fill="#F1F1F1" height="79.2031" id="PersistenceContext" rx="2.5" ry="2.5" style="stroke:#181818;stroke-width:0.5;" width="154" x="307.5" y="490.5"/><ellipse cx="322.5" cy="512.791" fill="#C2C2C2" rx="11" ry="11" style="stroke:#181818;stroke-width:1.0;"/><path d="M325.2656,508.666 Q325.4219,508.4473 325.6094,508.3379 Q325.7969,508.2285 326.0156,508.2285 Q326.3906,508.2285 326.625,508.4941 Q326.8594,508.7441 326.8594,509.3535 L326.8594,510.8066 Q326.8594,511.416 326.625,511.6816 Q326.3906,511.9473 326.0156,511.9473 Q325.6719,511.9473 325.4688,511.7441 Q325.2656,511.5566 325.1563,511.041 Q325.1094,510.6816 324.9219,510.4941 Q324.5938,510.1191 323.9844,509.9004 Q323.375,509.6816 322.75,509.6816 Q321.9844,509.6816 321.3438,510.0098 Q320.7188,510.3379 320.2188,511.0879 Q319.7344,511.8379 319.7344,512.8691 L319.7344,513.9629 Q319.7344,515.1973 320.625,516.0254 Q321.5156,516.8379 323.1094,516.8379 Q324.0469,516.8379 324.7031,516.5879 Q325.0938,516.4316 325.5156,515.9941 Q325.7813,515.7285 325.9219,515.6504 Q326.0781,515.5723 326.2813,515.5723 Q326.6094,515.5723 326.8594,515.8379 Q327.125,516.0879 327.125,516.4316 Q327.125,516.7754 326.7813,517.1816 Q326.2813,517.7598 325.4844,518.0879 Q324.4063,518.541 323.1094,518.541 Q321.5938,518.541 320.3906,517.916 Q319.4063,517.416 318.7188,516.3535 Q318.0313,515.2754 318.0313,513.9941 L318.0313,512.8379 Q318.0313,511.5098 318.6406,510.3691 Q319.2656,509.2129 320.3594,508.6035 Q321.4531,507.9785 322.6875,507.9785 Q323.4219,507.9785 324.0625,508.1504 Q324.7188,508.3066 325.2656,508.666 Z " fill="#000000"/><text fill="#000000" font-family="FG Virgil" font-size="12" font-style="italic" lengthAdjust="spacing" textLength="77" x="359" y="508.4492">&#171;persistence&#187;</text><text fill="#000000" font-family="FG Virgil" font-size="14" lengthAdjust="spacing" textLength="122" x="336.5" y="526.5684">PersistenceContext</text><line style="stroke:#181818;stroke-width:0.5;" x1="308.5" x2="460.5" y1="535.082" y2="535.082"/><line style="stroke:#181818;stroke-width:0.5;" x1="308.5" x2="460.5" y1="543.082" y2="543.082"/><text fill="#000000" font-family="FG Virgil" font-size="14" lengthAdjust="spacing" textLength="84" x="313.5" y="562.1895">repositories()</text></g><!--class RepositoryFactory--><g id="elem_RepositoryFactory"><rect codeLine="29" fill="#F1F1F1" height="79.2031" id="RepositoryFactory" rx="2.5" ry="2.5" style="stroke:#181818;stroke-width:0.5;" width="148" x="313.5" y="667.5"/><ellipse cx="328.5" cy="689.791" fill="#C2C2C2" rx="11" ry="11" style="stroke:#181818;stroke-width:1.0;"/><path d="M331.2656,685.666 Q331.4219,685.4473 331.6094,685.3379 Q331.7969,685.2285 332.0156,685.2285 Q332.3906,685.2285 332.625,685.4941 Q332.8594,685.7441 332.8594,686.3535 L332.8594,687.8066 Q332.8594,688.416 332.625,688.6816 Q332.3906,688.9473 332.0156,688.9473 Q331.6719,688.9473 331.4688,688.7441 Q331.2656,688.5566 331.1563,688.041 Q331.1094,687.6816 330.9219,687.4941 Q330.5938,687.1191 329.9844,686.9004 Q329.375,686.6816 328.75,686.6816 Q327.9844,686.6816 327.3438,687.0098 Q326.7188,687.3379 326.2188,688.0879 Q325.7344,688.8379 325.7344,689.8691 L325.7344,690.9629 Q325.7344,692.1973 326.625,693.0254 Q327.5156,693.8379 329.1094,693.8379 Q330.0469,693.8379 330.7031,693.5879 Q331.0938,693.4316 331.5156,692.9941 Q331.7813,692.7285 331.9219,692.6504 Q332.0781,692.5723 332.2813,692.5723 Q332.6094,692.5723 332.8594,692.8379 Q333.125,693.0879 333.125,693.4316 Q333.125,693.7754 332.7813,694.1816 Q332.2813,694.7598 331.4844,695.0879 Q330.4063,695.541 329.1094,695.541 Q327.5938,695.541 326.3906,694.916 Q325.4063,694.416 324.7188,693.3535 Q324.0313,692.2754 324.0313,690.9941 L324.0313,689.8379 Q324.0313,688.5098 324.6406,687.3691 Q325.2656,686.2129 326.3594,685.6035 Q327.4531,684.9785 328.6875,684.9785 Q329.4219,684.9785 330.0625,685.1504 Q330.7188,685.3066 331.2656,685.666 Z " fill="#000000"/><text fill="#000000" font-family="FG Virgil" font-size="12" font-style="italic" lengthAdjust="spacing" textLength="50" x="375.5" y="685.4492">&#171;factory&#187;</text><text fill="#000000" font-family="FG Virgil" font-size="14" lengthAdjust="spacing" textLength="116" x="342.5" y="703.5684">RepositoryFactory</text><line style="stroke:#181818;stroke-width:0.5;" x1="314.5" x2="460.5" y1="712.082" y2="712.082"/><line style="stroke:#181818;stroke-width:0.5;" x1="314.5" x2="460.5" y1="720.082" y2="720.082"/><text fill="#000000" font-family="FG Virgil" font-size="14" lengthAdjust="spacing" textLength="57" x="319.5" y="739.1895">classes()</text></g><!--class ClassRepository--><g id="elem_ClassRepository"><rect codeLine="32" fill="#F1F1F1" height="79.2031" id="ClassRepository" rx="2.5" ry="2.5" style="stroke:#181818;stroke-width:0.5;" width="135" x="384" y="835"/><ellipse cx="399" cy="857.291" fill="#C2C2C2" rx="11" ry="11" style="stroke:#181818;stroke-width:1.0;"/><path d="M401.7656,853.166 Q401.9219,852.9473 402.1094,852.8379 Q402.2969,852.7285 402.5156,852.7285 Q402.8906,852.7285 403.125,852.9941 Q403.3594,853.2441 403.3594,853.8535 L403.3594,855.3066 Q403.3594,855.916 403.125,856.1816 Q402.8906,856.4473 402.5156,856.4473 Q402.1719,856.4473 401.9688,856.2441 Q401.7656,856.0566 401.6563,855.541 Q401.6094,855.1816 401.4219,854.9941 Q401.0938,854.6191 400.4844,854.4004 Q399.875,854.1816 399.25,854.1816 Q398.4844,854.1816 397.8438,854.5098 Q397.2188,854.8379 396.7188,855.5879 Q396.2344,856.3379 396.2344,857.3691 L396.2344,858.4629 Q396.2344,859.6973 397.125,860.5254 Q398.0156,861.3379 399.6094,861.3379 Q400.5469,861.3379 401.2031,861.0879 Q401.5938,860.9316 402.0156,860.4941 Q402.2813,860.2285 402.4219,860.1504 Q402.5781,860.0723 402.7813,860.0723 Q403.1094,860.0723 403.3594,860.3379 Q403.625,860.5879 403.625,860.9316 Q403.625,861.2754 403.2813,861.6816 Q402.7813,862.2598 401.9844,862.5879 Q400.9063,863.041 399.6094,863.041 Q398.0938,863.041 396.8906,862.416 Q395.9063,861.916 395.2188,860.8535 Q394.5313,859.7754 394.5313,858.4941 L394.5313,857.3379 Q394.5313,856.0098 395.1406,854.8691 Q395.7656,853.7129 396.8594,853.1035 Q397.9531,852.4785 399.1875,852.4785 Q399.9219,852.4785 400.5625,852.6504 Q401.2188,852.8066 401.7656,853.166 Z " fill="#000000"/><text fill="#000000" font-family="FG Virgil" font-size="12" font-style="italic" lengthAdjust="spacing" textLength="68" x="430.5" y="852.9492">&#171;repository&#187;</text><text fill="#000000" font-family="FG Virgil" font-size="14" lengthAdjust="spacing" textLength="103" x="413" y="871.0684">ClassRepository</text><line style="stroke:#181818;stroke-width:0.5;" x1="385" x2="518" y1="879.582" y2="879.582"/><line style="stroke:#181818;stroke-width:0.5;" x1="385" x2="518" y1="887.582" y2="887.582"/><text fill="#000000" font-family="FG Virgil" font-size="14" lengthAdjust="spacing" textLength="75" x="390" y="906.6895">save(Class)</text></g><!--link ScheduleClassUI to ScheduleClassController--><g id="link_ScheduleClassUI_ScheduleClassController"><path codeLine="36" d="M384.5,86.06 C384.5,108.37 384.5,136.53 384.5,159.68 " fill="none" id="ScheduleClassUI-to-ScheduleClassController" style="stroke:#181818;stroke-width:1.0;"/><polygon fill="#181818" points="384.5,164.84,388.5,155.84,384.5,159.84,380.5,155.84,384.5,164.84" style="stroke:#181818;stroke-width:1.0;"/><text fill="#000000" font-family="FG Virgil" font-size="13" lengthAdjust="spacing" textLength="73" x="385.5" y="131.0283">theController</text></g><!--link ScheduleClassController to ClassManagementService--><g id="link_ScheduleClassController_ClassManagementService"><path codeLine="37" d="M384.5,244.06 C384.5,266.37 384.5,294.53 384.5,317.68 " fill="none" id="ScheduleClassController-to-ClassManagementService" style="stroke:#181818;stroke-width:1.0;"/><polygon fill="#181818" points="384.5,322.84,388.5,313.84,384.5,317.84,380.5,313.84,384.5,322.84" style="stroke:#181818;stroke-width:1.0;"/><text fill="#000000" font-family="FG Virgil" font-size="13" lengthAdjust="spacing" textLength="60" x="385.5" y="289.0283">theService</text></g><!--link ClassManagementService to ClassBuilder--><g id="link_ClassManagementService_ClassBuilder"><path codeLine="38" d="M333.2,402.09 C303.31,424.58 265.23,453.22 232.83,477.6 " fill="none" id="ClassManagementService-to-ClassBuilder" style="stroke:#181818;stroke-width:1.0;"/><polygon fill="#181818" points="228.5,480.86,238.1,478.66,232.5,477.86,233.3,472.26,228.5,480.86" style="stroke:#181818;stroke-width:1.0;"/><text fill="#000000" font-family="FG Virgil" font-size="13" lengthAdjust="spacing" textLength="58" x="289.5" y="447.0283">theBuilder</text></g><!--link ClassBuilder to class:Class--><g id="link_ClassBuilder_class:Class"><path codeLine="39" d="M158.43,579.28 C155.57,602.04 152.15,629.27 149.21,652.64 " fill="none" id="ClassBuilder-to-class:Class" style="stroke:#181818;stroke-width:1.0;"/><polygon fill="#181818" points="148.55,657.87,153.6264,649.4302,149.1649,652.908,145.6872,648.4464,148.55,657.87" style="stroke:#181818;stroke-width:1.0;"/></g><!--link ClassManagementService to PersistenceContext--><g id="link_ClassManagementService_PersistenceContext"><path codeLine="40" d="M384.5,402.3 C384.5,427.2 384.5,459.58 384.5,485.37 " fill="none" id="ClassManagementService-to-PersistenceContext" style="stroke:#181818;stroke-width:1.0;"/><polygon fill="#181818" points="384.5,490.44,388.5,481.44,384.5,485.44,380.5,481.44,384.5,490.44" style="stroke:#181818;stroke-width:1.0;"/><text fill="#000000" font-family="FG Virgil" font-size="13" lengthAdjust="spacing" textLength="67" x="385.5" y="447.0283">persistence</text></g><!--link PersistenceContext to RepositoryFactory--><g id="link_PersistenceContext_RepositoryFactory"><path codeLine="41" d="M385.17,569.84 C385.63,597.14 386.26,633.71 386.75,662.07 " fill="none" id="PersistenceContext-to-RepositoryFactory" style="stroke:#181818;stroke-width:1.0;"/><polygon fill="#181818" points="386.84,667.27,390.6851,658.2028,386.7543,662.2707,382.6863,658.3399,386.84,667.27" style="stroke:#181818;stroke-width:1.0;"/><text fill="#000000" font-family="FG Virgil" font-size="13" lengthAdjust="spacing" textLength="39" x="387.5" y="624.0283">factory</text></g><!--link RepositoryFactory to ClassRepository--><g id="link_RepositoryFactory_ClassRepository"><path codeLine="42" d="M402.51,746.8 C412.17,771.81 424.76,804.35 434.75,830.2 " fill="none" id="RepositoryFactory-to-ClassRepository" style="stroke:#181818;stroke-width:1.0;"/><polygon fill="#181818" points="436.59,834.94,437.0865,825.1037,434.7922,830.2744,429.6215,827.9801,436.59,834.94" style="stroke:#181818;stroke-width:1.0;"/><text fill="#000000" font-family="FG Virgil" font-size="13" lengthAdjust="spacing" textLength="57" x="424.5" y="801.0283">repository</text></g><!--link ClassManagementService to ClassRepository--><g id="link_ClassManagementService_ClassRepository"><path codeLine="43" d="M435.42,402.29 C444.99,411.28 454.25,421.35 461.5,432 C474.56,451.18 475.03,458.23 479.5,481 C505.66,614.1 488.06,650.38 490.5,786 C490.65,794.44 492.66,796.84 490.5,805 C488.22,813.59 484.59,822.24 480.44,830.35 " fill="none" id="ClassManagementService-to-ClassRepository" style="stroke:#181818;stroke-width:1.0;"/><polygon fill="#181818" points="478.08,834.8,485.8171,828.7059,480.4129,830.3776,478.7412,824.9734,478.08,834.8" style="stroke:#181818;stroke-width:1.0;"/><text fill="#000000" font-family="FG Virgil" font-size="13" lengthAdjust="spacing" textLength="57" x="494.5" y="624.0283">repository</text></g><!--SRC=[bL9DRy8m3BtdLqGxCGd-G8Ku3CJ4OGYjs-vUQcX4cbI92qFJ_lkI5FenwARrqZX-xyNsizjBNOA5WXT66v5RKo0dMo5pJQO4iOSTfdHIo2qAwkGot4AbQ6aqhS5Jbu_yJTgTL1sCoo4pHwbtV0lA8MD2WNCy5JbcbS9vY5vNV3ejBJhK12IDditu9-F-oqoQc-FeddtTuitzmzOeXTRpeIoL57swww97ALbVnvWlW73CLvfmXpP8dxKZwWcqRxVmbQHe3rAWbtRrwKfsZST_A3zKKcMnrFVwrEWT9UL36Y4VyPqXtCLV4bNll5vc2f1jrtLDBv8KNkGMbOsJgVKEe6JcxpV18IIqW-ZBYnkFaOvG2mn3nmyAZhMNpTiMI-Ca6IlHTIf-lboVbY32pzEtzQcXHcIF5HjfgPxJoBSq1mSSHMGS-C_5cancWqkJSCgnZTaGBcWCB4UKE0Ti0DFGBniGIUU0zJ81sdFtDyqRfYIyOmgx0GYyQpCIVZQ3NUUQwZj69AtFfp-x7k9z0m00]--></g></svg>