<?xml version="1.0" encoding="us-ascii" standalone="no"?><svg xmlns="http://www.w3.org/2000/svg" xmlns:xlink="http://www.w3.org/1999/xlink" contentStyleType="text/css" height="634px" preserveAspectRatio="none" style="width:1729px;height:634px;background:#FFFFFF;" version="1.1" viewBox="0 0 1729 634" width="1729px" zoomAndPan="magnify"><defs/><g><!--class CreateExamUI--><g id="elem_CreateExamUI"><rect codeLine="7" fill="#F1F1F1" height="79.2031" id="CreateExamUI" rx="2.5" ry="2.5" style="stroke:#181818;stroke-width:0.5;" width="121" x="7" y="65.2627"/><ellipse cx="22" cy="87.5537" fill="#C2C2C2" rx="11" ry="11" style="stroke:#181818;stroke-width:1.0;"/><path d="M24.7656,83.4287 Q24.9219,83.21 25.1094,83.1006 Q25.2969,82.9912 25.5156,82.9912 Q25.8906,82.9912 26.125,83.2568 Q26.3594,83.5068 26.3594,84.1162 L26.3594,85.5693 Q26.3594,86.1787 26.125,86.4443 Q25.8906,86.71 25.5156,86.71 Q25.1719,86.71 24.9688,86.5068 Q24.7656,86.3193 24.6563,85.8037 Q24.6094,85.4443 24.4219,85.2568 Q24.0938,84.8818 23.4844,84.6631 Q22.875,84.4443 22.25,84.4443 Q21.4844,84.4443 20.8438,84.7725 Q20.2188,85.1006 19.7188,85.8506 Q19.2344,86.6006 19.2344,87.6318 L19.2344,88.7256 Q19.2344,89.96 20.125,90.7881 Q21.0156,91.6006 22.6094,91.6006 Q23.5469,91.6006 24.2031,91.3506 Q24.5938,91.1943 25.0156,90.7568 Q25.2813,90.4912 25.4219,90.4131 Q25.5781,90.335 25.7813,90.335 Q26.1094,90.335 26.3594,90.6006 Q26.625,90.8506 26.625,91.1943 Q26.625,91.5381 26.2813,91.9443 Q25.7813,92.5225 24.9844,92.8506 Q23.9063,93.3037 22.6094,93.3037 Q21.0938,93.3037 19.8906,92.6787 Q18.9063,92.1787 18.2188,91.1162 Q17.5313,90.0381 17.5313,88.7568 L17.5313,87.6006 Q17.5313,86.2725 18.1406,85.1318 Q18.7656,83.9756 19.8594,83.3662 Q20.9531,82.7412 22.1875,82.7412 Q22.9219,82.7412 23.5625,82.9131 Q24.2188,83.0693 24.7656,83.4287 Z " fill="#000000"/><text fill="#000000" font-family="FG Virgil" font-size="12" font-style="italic" lengthAdjust="spacing" textLength="75" x="43" y="83.2119">&#171;presntation&#187;</text><text fill="#000000" font-family="FG Virgil" font-size="14" lengthAdjust="spacing" textLength="89" x="36" y="101.3311">CreateExamUI</text><line style="stroke:#181818;stroke-width:0.5;" x1="8" x2="127" y1="109.8447" y2="109.8447"/><line style="stroke:#181818;stroke-width:0.5;" x1="8" x2="127" y1="117.8447" y2="117.8447"/><text fill="#000000" font-family="FG Virgil" font-size="14" lengthAdjust="spacing" textLength="60" x="13" y="136.9521">doShow()</text></g><!--class CreateExamController--><g id="elem_CreateExamController"><rect codeLine="11" fill="#F1F1F1" height="79.2031" id="CreateExamController" rx="2.5" ry="2.5" style="stroke:#181818;stroke-width:0.5;" width="171" x="238" y="65.2627"/><ellipse cx="253" cy="87.5537" fill="#C2C2C2" rx="11" ry="11" style="stroke:#181818;stroke-width:1.0;"/><path d="M255.7656,83.4287 Q255.9219,83.21 256.1094,83.1006 Q256.2969,82.9912 256.5156,82.9912 Q256.8906,82.9912 257.125,83.2568 Q257.3594,83.5068 257.3594,84.1162 L257.3594,85.5693 Q257.3594,86.1787 257.125,86.4443 Q256.8906,86.71 256.5156,86.71 Q256.1719,86.71 255.9688,86.5068 Q255.7656,86.3193 255.6563,85.8037 Q255.6094,85.4443 255.4219,85.2568 Q255.0938,84.8818 254.4844,84.6631 Q253.875,84.4443 253.25,84.4443 Q252.4844,84.4443 251.8438,84.7725 Q251.2188,85.1006 250.7188,85.8506 Q250.2344,86.6006 250.2344,87.6318 L250.2344,88.7256 Q250.2344,89.96 251.125,90.7881 Q252.0156,91.6006 253.6094,91.6006 Q254.5469,91.6006 255.2031,91.3506 Q255.5938,91.1943 256.0156,90.7568 Q256.2813,90.4912 256.4219,90.4131 Q256.5781,90.335 256.7813,90.335 Q257.1094,90.335 257.3594,90.6006 Q257.625,90.8506 257.625,91.1943 Q257.625,91.5381 257.2813,91.9443 Q256.7813,92.5225 255.9844,92.8506 Q254.9063,93.3037 253.6094,93.3037 Q252.0938,93.3037 250.8906,92.6787 Q249.9063,92.1787 249.2188,91.1162 Q248.5313,90.0381 248.5313,88.7568 L248.5313,87.6006 Q248.5313,86.2725 249.1406,85.1318 Q249.7656,83.9756 250.8594,83.3662 Q251.9531,82.7412 253.1875,82.7412 Q253.9219,82.7412 254.5625,82.9131 Q255.2188,83.0693 255.7656,83.4287 Z " fill="#000000"/><text fill="#000000" font-family="FG Virgil" font-size="12" font-style="italic" lengthAdjust="spacing" textLength="74" x="299.5" y="83.2119">&#171;application&#187;</text><text fill="#000000" font-family="FG Virgil" font-size="14" lengthAdjust="spacing" textLength="139" x="267" y="101.3311">CreateExamController</text><line style="stroke:#181818;stroke-width:0.5;" x1="239" x2="408" y1="109.8447" y2="109.8447"/><line style="stroke:#181818;stroke-width:0.5;" x1="239" x2="408" y1="117.8447" y2="117.8447"/><text fill="#000000" font-family="FG Virgil" font-size="14" lengthAdjust="spacing" textLength="84" x="244" y="136.9521">createExam()</text></g><!--class ExamManagementService--><g id="elem_ExamManagementService"><rect codeLine="15" fill="#F1F1F1" height="79.2031" id="ExamManagementService" rx="2.5" ry="2.5" style="stroke:#181818;stroke-width:0.5;" width="195" x="506" y="65.2627"/><ellipse cx="521" cy="87.5537" fill="#C2C2C2" rx="11" ry="11" style="stroke:#181818;stroke-width:1.0;"/><path d="M523.7656,83.4287 Q523.9219,83.21 524.1094,83.1006 Q524.2969,82.9912 524.5156,82.9912 Q524.8906,82.9912 525.125,83.2568 Q525.3594,83.5068 525.3594,84.1162 L525.3594,85.5693 Q525.3594,86.1787 525.125,86.4443 Q524.8906,86.71 524.5156,86.71 Q524.1719,86.71 523.9688,86.5068 Q523.7656,86.3193 523.6563,85.8037 Q523.6094,85.4443 523.4219,85.2568 Q523.0938,84.8818 522.4844,84.6631 Q521.875,84.4443 521.25,84.4443 Q520.4844,84.4443 519.8438,84.7725 Q519.2188,85.1006 518.7188,85.8506 Q518.2344,86.6006 518.2344,87.6318 L518.2344,88.7256 Q518.2344,89.96 519.125,90.7881 Q520.0156,91.6006 521.6094,91.6006 Q522.5469,91.6006 523.2031,91.3506 Q523.5938,91.1943 524.0156,90.7568 Q524.2813,90.4912 524.4219,90.4131 Q524.5781,90.335 524.7813,90.335 Q525.1094,90.335 525.3594,90.6006 Q525.625,90.8506 525.625,91.1943 Q525.625,91.5381 525.2813,91.9443 Q524.7813,92.5225 523.9844,92.8506 Q522.9063,93.3037 521.6094,93.3037 Q520.0938,93.3037 518.8906,92.6787 Q517.9063,92.1787 517.2188,91.1162 Q516.5313,90.0381 516.5313,88.7568 L516.5313,87.6006 Q516.5313,86.2725 517.1406,85.1318 Q517.7656,83.9756 518.8594,83.3662 Q519.9531,82.7412 521.1875,82.7412 Q521.9219,82.7412 522.5625,82.9131 Q523.2188,83.0693 523.7656,83.4287 Z " fill="#000000"/><text fill="#000000" font-family="FG Virgil" font-size="12" font-style="italic" lengthAdjust="spacing" textLength="53" x="590" y="83.2119">&#171;service&#187;</text><text fill="#000000" font-family="FG Virgil" font-size="14" lengthAdjust="spacing" textLength="163" x="535" y="101.3311">ExamManagementService</text><line style="stroke:#181818;stroke-width:0.5;" x1="507" x2="700" y1="109.8447" y2="109.8447"/><line style="stroke:#181818;stroke-width:0.5;" x1="507" x2="700" y1="117.8447" y2="117.8447"/><text fill="#000000" font-family="FG Virgil" font-size="14" lengthAdjust="spacing" textLength="110" x="512" y="136.9521">createNewExam()</text></g><!--class AuthorizationService--><g id="elem_AuthorizationService"><rect codeLine="19" fill="#F1F1F1" height="97.8242" id="AuthorizationService" rx="2.5" ry="2.5" style="stroke:#181818;stroke-width:0.5;" width="286" x="1217.5" y="55.7627"/><ellipse cx="1291.75" cy="78.0537" fill="#C2C2C2" rx="11" ry="11" style="stroke:#181818;stroke-width:1.0;"/><path d="M1294.5156,73.9287 Q1294.6719,73.71 1294.8594,73.6006 Q1295.0469,73.4912 1295.2656,73.4912 Q1295.6406,73.4912 1295.875,73.7568 Q1296.1094,74.0068 1296.1094,74.6162 L1296.1094,76.0693 Q1296.1094,76.6787 1295.875,76.9443 Q1295.6406,77.21 1295.2656,77.21 Q1294.9219,77.21 1294.7188,77.0068 Q1294.5156,76.8193 1294.4063,76.3037 Q1294.3594,75.9443 1294.1719,75.7568 Q1293.8438,75.3818 1293.2344,75.1631 Q1292.625,74.9443 1292,74.9443 Q1291.2344,74.9443 1290.5938,75.2725 Q1289.9688,75.6006 1289.4688,76.3506 Q1288.9844,77.1006 1288.9844,78.1318 L1288.9844,79.2256 Q1288.9844,80.46 1289.875,81.2881 Q1290.7656,82.1006 1292.3594,82.1006 Q1293.2969,82.1006 1293.9531,81.8506 Q1294.3438,81.6943 1294.7656,81.2568 Q1295.0313,80.9912 1295.1719,80.9131 Q1295.3281,80.835 1295.5313,80.835 Q1295.8594,80.835 1296.1094,81.1006 Q1296.375,81.3506 1296.375,81.6943 Q1296.375,82.0381 1296.0313,82.4443 Q1295.5313,83.0225 1294.7344,83.3506 Q1293.6563,83.8037 1292.3594,83.8037 Q1290.8438,83.8037 1289.6406,83.1787 Q1288.6563,82.6787 1287.9688,81.6162 Q1287.2813,80.5381 1287.2813,79.2568 L1287.2813,78.1006 Q1287.2813,76.7725 1287.8906,75.6318 Q1288.5156,74.4756 1289.6094,73.8662 Q1290.7031,73.2412 1291.9375,73.2412 Q1292.6719,73.2412 1293.3125,73.4131 Q1293.9688,73.5693 1294.5156,73.9287 Z " fill="#000000"/><text fill="#000000" font-family="FG Virgil" font-size="12" font-style="italic" lengthAdjust="spacing" textLength="53" x="1350.25" y="73.7119">&#171;service&#187;</text><text fill="#000000" font-family="FG Virgil" font-size="14" lengthAdjust="spacing" textLength="129" x="1312.25" y="91.8311">AuthorizationService</text><line style="stroke:#181818;stroke-width:0.5;" x1="1218.5" x2="1502.5" y1="100.3447" y2="100.3447"/><line style="stroke:#181818;stroke-width:0.5;" x1="1218.5" x2="1502.5" y1="108.3447" y2="108.3447"/><text fill="#000000" font-family="FG Virgil" font-size="14" lengthAdjust="spacing" textLength="274" x="1223.5" y="127.4521">ensureAuthenticatedUserHasAnyOf(Role...)</text><text fill="#000000" font-family="FG Virgil" font-size="14" lengthAdjust="spacing" textLength="58" x="1223.5" y="146.0732">session()</text></g><!--class UserSession--><g id="elem_UserSession"><rect codeLine="24" fill="#F1F1F1" height="66.6211" id="UserSession" rx="2.5" ry="2.5" style="stroke:#181818;stroke-width:0.5;" width="137" x="1585" y="71.2627"/><ellipse cx="1611.7" cy="87.2627" fill="#C2C2C2" rx="11" ry="11" style="stroke:#181818;stroke-width:1.0;"/><path d="M1614.4656,83.1377 Q1614.6219,82.9189 1614.8094,82.8096 Q1614.9969,82.7002 1615.2156,82.7002 Q1615.5906,82.7002 1615.825,82.9658 Q1616.0594,83.2158 1616.0594,83.8252 L1616.0594,85.2783 Q1616.0594,85.8877 1615.825,86.1533 Q1615.5906,86.4189 1615.2156,86.4189 Q1614.8719,86.4189 1614.6688,86.2158 Q1614.4656,86.0283 1614.3563,85.5127 Q1614.3094,85.1533 1614.1219,84.9658 Q1613.7938,84.5908 1613.1844,84.3721 Q1612.575,84.1533 1611.95,84.1533 Q1611.1844,84.1533 1610.5438,84.4814 Q1609.9188,84.8096 1609.4188,85.5596 Q1608.9344,86.3096 1608.9344,87.3408 L1608.9344,88.4346 Q1608.9344,89.6689 1609.825,90.4971 Q1610.7156,91.3096 1612.3094,91.3096 Q1613.2469,91.3096 1613.9031,91.0596 Q1614.2938,90.9033 1614.7156,90.4658 Q1614.9813,90.2002 1615.1219,90.1221 Q1615.2781,90.0439 1615.4813,90.0439 Q1615.8094,90.0439 1616.0594,90.3096 Q1616.325,90.5596 1616.325,90.9033 Q1616.325,91.2471 1615.9813,91.6533 Q1615.4813,92.2314 1614.6844,92.5596 Q1613.6063,93.0127 1612.3094,93.0127 Q1610.7938,93.0127 1609.5906,92.3877 Q1608.6063,91.8877 1607.9188,90.8252 Q1607.2313,89.7471 1607.2313,88.4658 L1607.2313,87.3096 Q1607.2313,85.9814 1607.8406,84.8408 Q1608.4656,83.6846 1609.5594,83.0752 Q1610.6531,82.4502 1611.8875,82.4502 Q1612.6219,82.4502 1613.2625,82.6221 Q1613.9188,82.7783 1614.4656,83.1377 Z " fill="#000000"/><text fill="#000000" font-family="FG Virgil" font-size="14" lengthAdjust="spacing" textLength="79" x="1628.3" y="93.0596">UserSession</text><line style="stroke:#181818;stroke-width:0.5;" x1="1586" x2="1721" y1="103.2627" y2="103.2627"/><line style="stroke:#181818;stroke-width:0.5;" x1="1586" x2="1721" y1="111.2627" y2="111.2627"/><text fill="#000000" font-family="FG Virgil" font-size="14" lengthAdjust="spacing" textLength="125" x="1591" y="130.3701">authenticatedUser()</text></g><!--class class:Exam--><g id="elem_class:Exam"><rect codeLine="29" fill="#F1F1F1" height="79.2031" id="class:Exam" rx="2.5" ry="2.5" style="stroke:#181818;stroke-width:0.5;" width="114" x="1068.5" y="65.2627"/><ellipse cx="1088.9" cy="87.5537" fill="#C2C2C2" rx="11" ry="11" style="stroke:#181818;stroke-width:1.0;"/><path d="M1091.6656,83.4287 Q1091.8219,83.21 1092.0094,83.1006 Q1092.1969,82.9912 1092.4156,82.9912 Q1092.7906,82.9912 1093.025,83.2568 Q1093.2594,83.5068 1093.2594,84.1162 L1093.2594,85.5693 Q1093.2594,86.1787 1093.025,86.4443 Q1092.7906,86.71 1092.4156,86.71 Q1092.0719,86.71 1091.8688,86.5068 Q1091.6656,86.3193 1091.5563,85.8037 Q1091.5094,85.4443 1091.3219,85.2568 Q1090.9938,84.8818 1090.3844,84.6631 Q1089.775,84.4443 1089.15,84.4443 Q1088.3844,84.4443 1087.7438,84.7725 Q1087.1188,85.1006 1086.6188,85.8506 Q1086.1344,86.6006 1086.1344,87.6318 L1086.1344,88.7256 Q1086.1344,89.96 1087.025,90.7881 Q1087.9156,91.6006 1089.5094,91.6006 Q1090.4469,91.6006 1091.1031,91.3506 Q1091.4938,91.1943 1091.9156,90.7568 Q1092.1813,90.4912 1092.3219,90.4131 Q1092.4781,90.335 1092.6813,90.335 Q1093.0094,90.335 1093.2594,90.6006 Q1093.525,90.8506 1093.525,91.1943 Q1093.525,91.5381 1093.1813,91.9443 Q1092.6813,92.5225 1091.8844,92.8506 Q1090.8063,93.3037 1089.5094,93.3037 Q1087.9938,93.3037 1086.7906,92.6787 Q1085.8063,92.1787 1085.1188,91.1162 Q1084.4313,90.0381 1084.4313,88.7568 L1084.4313,87.6006 Q1084.4313,86.2725 1085.0406,85.1318 Q1085.6656,83.9756 1086.7594,83.3662 Q1087.8531,82.7412 1089.0875,82.7412 Q1089.8219,82.7412 1090.4625,82.9131 Q1091.1188,83.0693 1091.6656,83.4287 Z " fill="#000000"/><text fill="#000000" font-family="FG Virgil" font-size="12" font-style="italic" lengthAdjust="spacing" textLength="56" x="1111.1" y="83.2119">&#171;domain&#187;</text><text fill="#000000" font-family="FG Virgil" font-size="14" lengthAdjust="spacing" textLength="70" x="1104.1" y="101.3311">class:Exam</text><line style="stroke:#181818;stroke-width:0.5;" x1="1069.5" x2="1181.5" y1="109.8447" y2="109.8447"/><line style="stroke:#181818;stroke-width:0.5;" x1="1069.5" x2="1181.5" y1="117.8447" y2="117.8447"/><text fill="#000000" font-family="FG Virgil" font-size="14" lengthAdjust="spacing" textLength="102" x="1074.5" y="136.9521">addExam(Exam)</text></g><!--class ExamBuilder--><g id="elem_ExamBuilder"><rect codeLine="33" fill="#F1F1F1" height="97.8242" id="ExamBuilder" rx="2.5" ry="2.5" style="stroke:#181818;stroke-width:0.5;" width="204" x="795.5" y="55.7627"/><ellipse cx="854.25" cy="78.0537" fill="#C2C2C2" rx="11" ry="11" style="stroke:#181818;stroke-width:1.0;"/><path d="M857.0156,73.9287 Q857.1719,73.71 857.3594,73.6006 Q857.5469,73.4912 857.7656,73.4912 Q858.1406,73.4912 858.375,73.7568 Q858.6094,74.0068 858.6094,74.6162 L858.6094,76.0693 Q858.6094,76.6787 858.375,76.9443 Q858.1406,77.21 857.7656,77.21 Q857.4219,77.21 857.2188,77.0068 Q857.0156,76.8193 856.9063,76.3037 Q856.8594,75.9443 856.6719,75.7568 Q856.3438,75.3818 855.7344,75.1631 Q855.125,74.9443 854.5,74.9443 Q853.7344,74.9443 853.0938,75.2725 Q852.4688,75.6006 851.9688,76.3506 Q851.4844,77.1006 851.4844,78.1318 L851.4844,79.2256 Q851.4844,80.46 852.375,81.2881 Q853.2656,82.1006 854.8594,82.1006 Q855.7969,82.1006 856.4531,81.8506 Q856.8438,81.6943 857.2656,81.2568 Q857.5313,80.9912 857.6719,80.9131 Q857.8281,80.835 858.0313,80.835 Q858.3594,80.835 858.6094,81.1006 Q858.875,81.3506 858.875,81.6943 Q858.875,82.0381 858.5313,82.4443 Q858.0313,83.0225 857.2344,83.3506 Q856.1563,83.8037 854.8594,83.8037 Q853.3438,83.8037 852.1406,83.1787 Q851.1563,82.6787 850.4688,81.6162 Q849.7813,80.5381 849.7813,79.2568 L849.7813,78.1006 Q849.7813,76.7725 850.3906,75.6318 Q851.0156,74.4756 852.1094,73.8662 Q853.2031,73.2412 854.4375,73.2412 Q855.1719,73.2412 855.8125,73.4131 Q856.4688,73.5693 857.0156,73.9287 Z " fill="#000000"/><text fill="#000000" font-family="FG Virgil" font-size="12" font-style="italic" lengthAdjust="spacing" textLength="42" x="892.75" y="73.7119">&#171;build&#187;</text><text fill="#000000" font-family="FG Virgil" font-size="14" lengthAdjust="spacing" textLength="78" x="874.75" y="91.8311">ExamBuilder</text><line style="stroke:#181818;stroke-width:0.5;" x1="796.5" x2="998.5" y1="100.3447" y2="100.3447"/><line style="stroke:#181818;stroke-width:0.5;" x1="796.5" x2="998.5" y1="108.3447" y2="108.3447"/><text fill="#000000" font-family="FG Virgil" font-size="14" lengthAdjust="spacing" textLength="40" x="801.5" y="127.4521">build()</text><text fill="#000000" font-family="FG Virgil" font-size="14" lengthAdjust="spacing" textLength="192" x="801.5" y="146.0732">with(String, String, Date, Date)</text></g><!--class PersistenceContext--><g id="elem_PersistenceContext"><rect codeLine="39" fill="#F1F1F1" height="79.2031" id="PersistenceContext" rx="2.5" ry="2.5" style="stroke:#181818;stroke-width:0.5;" width="154" x="452.5" y="232.7627"/><ellipse cx="467.5" cy="255.0537" fill="#C2C2C2" rx="11" ry="11" style="stroke:#181818;stroke-width:1.0;"/><path d="M470.2656,250.9287 Q470.4219,250.71 470.6094,250.6006 Q470.7969,250.4912 471.0156,250.4912 Q471.3906,250.4912 471.625,250.7568 Q471.8594,251.0068 471.8594,251.6162 L471.8594,253.0693 Q471.8594,253.6787 471.625,253.9443 Q471.3906,254.21 471.0156,254.21 Q470.6719,254.21 470.4688,254.0068 Q470.2656,253.8193 470.1563,253.3037 Q470.1094,252.9443 469.9219,252.7568 Q469.5938,252.3818 468.9844,252.1631 Q468.375,251.9443 467.75,251.9443 Q466.9844,251.9443 466.3438,252.2725 Q465.7188,252.6006 465.2188,253.3506 Q464.7344,254.1006 464.7344,255.1318 L464.7344,256.2256 Q464.7344,257.46 465.625,258.2881 Q466.5156,259.1006 468.1094,259.1006 Q469.0469,259.1006 469.7031,258.8506 Q470.0938,258.6943 470.5156,258.2568 Q470.7813,257.9912 470.9219,257.9131 Q471.0781,257.835 471.2813,257.835 Q471.6094,257.835 471.8594,258.1006 Q472.125,258.3506 472.125,258.6943 Q472.125,259.0381 471.7813,259.4443 Q471.2813,260.0225 470.4844,260.3506 Q469.4063,260.8037 468.1094,260.8037 Q466.5938,260.8037 465.3906,260.1787 Q464.4063,259.6787 463.7188,258.6162 Q463.0313,257.5381 463.0313,256.2568 L463.0313,255.1006 Q463.0313,253.7725 463.6406,252.6318 Q464.2656,251.4756 465.3594,250.8662 Q466.4531,250.2412 467.6875,250.2412 Q468.4219,250.2412 469.0625,250.4131 Q469.7188,250.5693 470.2656,250.9287 Z " fill="#000000"/><text fill="#000000" font-family="FG Virgil" font-size="12" font-style="italic" lengthAdjust="spacing" textLength="77" x="504" y="250.7119">&#171;persistence&#187;</text><text fill="#000000" font-family="FG Virgil" font-size="14" lengthAdjust="spacing" textLength="122" x="481.5" y="268.8311">PersistenceContext</text><line style="stroke:#181818;stroke-width:0.5;" x1="453.5" x2="605.5" y1="277.3447" y2="277.3447"/><line style="stroke:#181818;stroke-width:0.5;" x1="453.5" x2="605.5" y1="285.3447" y2="285.3447"/><text fill="#000000" font-family="FG Virgil" font-size="14" lengthAdjust="spacing" textLength="84" x="458.5" y="304.4521">repositories()</text></g><!--class RepositoryFactory--><g id="elem_RepositoryFactory"><rect codeLine="43" fill="#F1F1F1" height="79.2031" id="RepositoryFactory" rx="2.5" ry="2.5" style="stroke:#181818;stroke-width:0.5;" width="148" x="457.5" y="390.7627"/><ellipse cx="472.5" cy="413.0537" fill="#C2C2C2" rx="11" ry="11" style="stroke:#181818;stroke-width:1.0;"/><path d="M475.2656,408.9287 Q475.4219,408.71 475.6094,408.6006 Q475.7969,408.4912 476.0156,408.4912 Q476.3906,408.4912 476.625,408.7568 Q476.8594,409.0068 476.8594,409.6162 L476.8594,411.0693 Q476.8594,411.6787 476.625,411.9443 Q476.3906,412.21 476.0156,412.21 Q475.6719,412.21 475.4688,412.0068 Q475.2656,411.8193 475.1563,411.3037 Q475.1094,410.9443 474.9219,410.7568 Q474.5938,410.3818 473.9844,410.1631 Q473.375,409.9443 472.75,409.9443 Q471.9844,409.9443 471.3438,410.2725 Q470.7188,410.6006 470.2188,411.3506 Q469.7344,412.1006 469.7344,413.1318 L469.7344,414.2256 Q469.7344,415.46 470.625,416.2881 Q471.5156,417.1006 473.1094,417.1006 Q474.0469,417.1006 474.7031,416.8506 Q475.0938,416.6943 475.5156,416.2568 Q475.7813,415.9912 475.9219,415.9131 Q476.0781,415.835 476.2813,415.835 Q476.6094,415.835 476.8594,416.1006 Q477.125,416.3506 477.125,416.6943 Q477.125,417.0381 476.7813,417.4443 Q476.2813,418.0225 475.4844,418.3506 Q474.4063,418.8037 473.1094,418.8037 Q471.5938,418.8037 470.3906,418.1787 Q469.4063,417.6787 468.7188,416.6162 Q468.0313,415.5381 468.0313,414.2568 L468.0313,413.1006 Q468.0313,411.7725 468.6406,410.6318 Q469.2656,409.4756 470.3594,408.8662 Q471.4531,408.2412 472.6875,408.2412 Q473.4219,408.2412 474.0625,408.4131 Q474.7188,408.5693 475.2656,408.9287 Z " fill="#000000"/><text fill="#000000" font-family="FG Virgil" font-size="12" font-style="italic" lengthAdjust="spacing" textLength="50" x="519.5" y="408.7119">&#171;factory&#187;</text><text fill="#000000" font-family="FG Virgil" font-size="14" lengthAdjust="spacing" textLength="116" x="486.5" y="426.8311">RepositoryFactory</text><line style="stroke:#181818;stroke-width:0.5;" x1="458.5" x2="604.5" y1="435.3447" y2="435.3447"/><line style="stroke:#181818;stroke-width:0.5;" x1="458.5" x2="604.5" y1="443.3447" y2="443.3447"/><text fill="#000000" font-family="FG Virgil" font-size="14" lengthAdjust="spacing" textLength="60" x="463.5" y="462.4521">courses()</text></g><!--class repositories.ExamRepository--><g id="elem_ExamRepository"><rect codeLine="47" fill="#F1F1F1" height="79.2031" id="repositories.ExamRepository" rx="2.5" ry="2.5" style="stroke:#181818;stroke-width:0.5;" width="134" x="528.5" y="548.7627"/><ellipse cx="543.5" cy="571.0537" fill="#C2C2C2" rx="11" ry="11" style="stroke:#181818;stroke-width:1.0;"/><path d="M546.2656,566.9287 Q546.4219,566.71 546.6094,566.6006 Q546.7969,566.4912 547.0156,566.4912 Q547.3906,566.4912 547.625,566.7568 Q547.8594,567.0068 547.8594,567.6162 L547.8594,569.0693 Q547.8594,569.6787 547.625,569.9443 Q547.3906,570.21 547.0156,570.21 Q546.6719,570.21 546.4688,570.0068 Q546.2656,569.8193 546.1563,569.3037 Q546.1094,568.9443 545.9219,568.7568 Q545.5938,568.3818 544.9844,568.1631 Q544.375,567.9443 543.75,567.9443 Q542.9844,567.9443 542.3438,568.2725 Q541.7188,568.6006 541.2188,569.3506 Q540.7344,570.1006 540.7344,571.1318 L540.7344,572.2256 Q540.7344,573.46 541.625,574.2881 Q542.5156,575.1006 544.1094,575.1006 Q545.0469,575.1006 545.7031,574.8506 Q546.0938,574.6943 546.5156,574.2568 Q546.7813,573.9912 546.9219,573.9131 Q547.0781,573.835 547.2813,573.835 Q547.6094,573.835 547.8594,574.1006 Q548.125,574.3506 548.125,574.6943 Q548.125,575.0381 547.7813,575.4443 Q547.2813,576.0225 546.4844,576.3506 Q545.4063,576.8037 544.1094,576.8037 Q542.5938,576.8037 541.3906,576.1787 Q540.4063,575.6787 539.7188,574.6162 Q539.0313,573.5381 539.0313,572.2568 L539.0313,571.1006 Q539.0313,569.7725 539.6406,568.6318 Q540.2656,567.4756 541.3594,566.8662 Q542.4531,566.2412 543.6875,566.2412 Q544.4219,566.2412 545.0625,566.4131 Q545.7188,566.5693 546.2656,566.9287 Z " fill="#000000"/><text fill="#000000" font-family="FG Virgil" font-size="12" font-style="italic" lengthAdjust="spacing" textLength="68" x="574.5" y="566.7119">&#171;repository&#187;</text><text fill="#000000" font-family="FG Virgil" font-size="14" lengthAdjust="spacing" textLength="102" x="557.5" y="584.8311">repositories.ExamRepository</text><line style="stroke:#181818;stroke-width:0.5;" x1="529.5" x2="661.5" y1="593.3447" y2="593.3447"/><line style="stroke:#181818;stroke-width:0.5;" x1="529.5" x2="661.5" y1="601.3447" y2="601.3447"/><text fill="#000000" font-family="FG Virgil" font-size="14" lengthAdjust="spacing" textLength="74" x="534.5" y="620.4521">save(Exam)</text></g><!--link CreateExamUI to CreateExamController--><g id="link_CreateExamUI_CreateExamController"><path codeLine="51" d="M128.17,104.7627 C159.31,104.7627 197.89,104.7627 232.52,104.7627 " fill="none" id="CreateExamUI-to-CreateExamController" style="stroke:#181818;stroke-width:1.0;"/><polygon fill="#181818" points="237.6,104.7627,228.6,100.7627,232.6,104.7627,228.6,108.7627,237.6,104.7627" style="stroke:#181818;stroke-width:1.0;"/><text fill="#000000" font-family="FG Virgil" font-size="13" lengthAdjust="spacing" textLength="73" x="146.5" y="97.791">theController</text></g><!--link CreateExamController to ExamManagementService--><g id="link_CreateExamController_ExamManagementService"><path codeLine="52" d="M409.03,104.7627 C437.92,104.7627 470.47,104.7627 500.56,104.7627 " fill="none" id="CreateExamController-to-ExamManagementService" style="stroke:#181818;stroke-width:1.0;"/><polygon fill="#181818" points="505.75,104.7627,496.75,100.7627,500.75,104.7627,496.75,108.7627,505.75,104.7627" style="stroke:#181818;stroke-width:1.0;"/><text fill="#000000" font-family="FG Virgil" font-size="13" lengthAdjust="spacing" textLength="60" x="427.5" y="97.791">theService</text></g><!--link ExamManagementService to AuthorizationService--><g id="link_ExamManagementService_AuthorizationService"><path codeLine="53" d="M701.31,72.8527 C768.12,52.9527 859.13,29.5027 941.5,20.7627 C1034.45,10.8927 1137.39,31.0827 1217.97,54.1327 " fill="none" id="ExamManagementService-to-AuthorizationService" style="stroke:#181818;stroke-width:1.0;"/><polygon fill="#181818" points="1223.25,55.6627,1215.7126,49.3234,1218.4462,54.2759,1213.4937,57.0095,1223.25,55.6627" style="stroke:#181818;stroke-width:1.0;"/><text fill="#000000" font-family="FG Virgil" font-size="13" lengthAdjust="spacing" textLength="32" x="942.5" y="21.791">autzh</text></g><!--link AuthorizationService to UserSession--><g id="link_AuthorizationService_UserSession"><path codeLine="54" d="M1503.57,104.7627 C1529.9,104.7627 1556.39,104.7627 1579.61,104.7627 " fill="none" id="AuthorizationService-to-UserSession" style="stroke:#181818;stroke-width:1.0;"/><polygon fill="#181818" points="1584.82,104.7627,1575.82,100.7627,1579.82,104.7627,1575.82,108.7627,1584.82,104.7627" style="stroke:#181818;stroke-width:1.0;"/><text fill="#000000" font-family="FG Virgil" font-size="13" lengthAdjust="spacing" textLength="45" x="1521.75" y="97.791">session</text></g><!--link ExamManagementService to ExamBuilder--><g id="link_ExamManagementService_ExamBuilder"><path codeLine="55" d="M701.4,104.7627 C729.9,104.7627 761.18,104.7627 790.23,104.7627 " fill="none" id="ExamManagementService-to-ExamBuilder" style="stroke:#181818;stroke-width:1.0;"/><polygon fill="#181818" points="795.25,104.7627,786.25,100.7627,790.25,104.7627,786.25,108.7627,795.25,104.7627" style="stroke:#181818;stroke-width:1.0;"/><text fill="#000000" font-family="FG Virgil" font-size="13" lengthAdjust="spacing" textLength="58" x="719.25" y="97.791">theBuilder</text></g><!--link ExamBuilder to class:Exam--><g id="link_ExamBuilder_class:Exam"><path codeLine="56" d="M999.83,104.7627 C1021.45,104.7627 1043.65,104.7627 1063.25,104.7627 " fill="none" id="ExamBuilder-to-class:Exam" style="stroke:#181818;stroke-width:1.0;"/><polygon fill="#181818" points="1068.44,104.7627,1059.44,100.7627,1063.44,104.7627,1059.44,108.7627,1068.44,104.7627" style="stroke:#181818;stroke-width:1.0;"/><text fill="#000000" font-family="FG Virgil" font-size="13" lengthAdjust="spacing" textLength="32" x="1018" y="97.791">exam</text></g><!--link ExamManagementService to PersistenceContext--><g id="link_ExamManagementService_PersistenceContext"><path codeLine="57" d="M583.42,144.3427 C577.14,156.8127 570.33,170.7827 564.5,183.7627 C558.12,197.9727 551.64,213.7227 546.02,227.9027 " fill="none" id="ExamManagementService-to-PersistenceContext" style="stroke:#181818;stroke-width:1.0;"/><polygon fill="#181818" points="544.15,232.6427,551.1882,225.7533,545.9946,227.9954,543.7525,222.8019,544.15,232.6427" style="stroke:#181818;stroke-width:1.0;"/><text fill="#000000" font-family="FG Virgil" font-size="13" lengthAdjust="spacing" textLength="67" x="565.5" y="198.791">persistence</text></g><!--link PersistenceContext to RepositoryFactory--><g id="link_PersistenceContext_RepositoryFactory"><path codeLine="58" d="M529.99,311.8227 C530.28,334.1327 530.64,362.2927 530.94,385.4427 " fill="none" id="PersistenceContext-to-RepositoryFactory" style="stroke:#181818;stroke-width:1.0;"/><polygon fill="#181818" points="531,390.6027,534.8969,381.5576,530.9429,385.603,526.8974,381.649,531,390.6027" style="stroke:#181818;stroke-width:1.0;"/><text fill="#000000" font-family="FG Virgil" font-size="13" lengthAdjust="spacing" textLength="39" x="532.5" y="356.791">factory</text></g><!--link RepositoryFactory to repositories.ExamRepository--><g id="link_RepositoryFactory_ExamRepository"><path codeLine="59" d="M547.32,469.8227 C556.51,492.2327 568.12,520.5327 577.64,543.7327 " fill="none" id="RepositoryFactory-to-repositories.ExamRepository" style="stroke:#181818;stroke-width:1.0;"/><polygon fill="#181818" points="579.64,548.6027,579.9227,538.7579,577.7413,543.9772,572.5219,541.7958,579.64,548.6027" style="stroke:#181818;stroke-width:1.0;"/><text fill="#000000" font-family="FG Virgil" font-size="13" lengthAdjust="spacing" textLength="57" x="568.5" y="514.791">repository</text></g><!--link ExamManagementService to repositories.ExamRepository--><g id="link_ExamManagementService_ExamRepository"><path codeLine="60" d="M624.07,144.4027 C629.56,156.6427 634.73,170.4627 637.5,183.7627 C639.22,192.0327 637.54,194.3227 637.5,202.7627 C636.83,343.2127 671.09,383.1627 634.5,518.7627 C632.18,527.3427 628.53,535.9827 624.37,544.1027 " fill="none" id="ExamManagementService-to-repositories.ExamRepository" style="stroke:#181818;stroke-width:1.0;"/><polygon fill="#181818" points="622.01,548.5527,629.7625,542.4782,624.354,544.1362,622.6961,538.7278,622.01,548.5527" style="stroke:#181818;stroke-width:1.0;"/><text fill="#000000" font-family="FG Virgil" font-size="13" lengthAdjust="spacing" textLength="57" x="649.5" y="356.791">repository</text></g><!--SRC=[VLBRJkCm47ttLrWy5Gdw0H6gn0BTvO6BYE1zSAQDXMD77eTILlllEqxIn6rJyX1xFEVCxGnzQ5k3XqfMpZfLUbUX3Bv1GOEd1lK1Qyp3rg3qg4BYAt05ZGbBPyCZC7NvMxvflzOcmL09XTjekvOhC8H2A0D4yiOZ1BpxWkhrNbvTrHx91WZQsSL2_XMIlyBbfTlCpiM_Oz8Df_JE6FHCXhesMksJrG1D0qJx0IptKw4DEVfFhP0ZK7SxO3_YvZ30THDAv_Ltc-mq7oqr7YEOqyJIi7Xbp1-WQxjzMirUdC7vV7xUWWc9E5gQ9eBpxhcF28UnEdYFFskFB5PxnkKKhW8zpWAAekqZ_Ww6yQlHfcY7-1vl0wMrPbrz6ntAMHuyQtWXT-Sjrz7zqpgUqPEcW5PXL0Y_GjHsV1pYUwmTwS2ZH4eRVzczRvUWui7yLNSRnN6DftrQR6MaCcU8Fz88Fd4SmTx-NIwcLokJFFJH5fCW9a-lLSlk3J4DOUxaHcLHx-zIJ3gPbEv7jbkWqpbIfTkgUaEa3iRjhL4caSzJGHaz8NOc4x75123oZZNEPA-nEFPTzlKdycRZ-cn_gEydrdy0]--></g></svg>