<?xml version="1.0" encoding="us-ascii" standalone="no"?><svg xmlns="http://www.w3.org/2000/svg" xmlns:xlink="http://www.w3.org/1999/xlink" contentStyleType="text/css" height="1306px" preserveAspectRatio="none" style="width:1811px;height:1306px;background:#FFFFFF;" version="1.1" viewBox="0 0 1811 1306" width="1811px" zoomAndPan="magnify"><defs/><g><rect fill="#FFFFFF" height="1123.5996" style="stroke:#181818;stroke-width:1.0;" width="10" x="33.5" y="91.4883"/><rect fill="#FFFFFF" height="29.3105" style="stroke:#181818;stroke-width:1.0;" width="10" x="273.5" y="178.7305"/><rect fill="#FFFFFF" height="29.3105" style="stroke:#181818;stroke-width:1.0;" width="10" x="273.5" y="237.3516"/><rect fill="#FFFFFF" height="171.5078" style="stroke:#181818;stroke-width:1.0;" width="10" x="273.5" y="1043.5801"/><rect fill="#FFFFFF" height="387.8594" style="stroke:#181818;stroke-width:1.0;" width="10" x="597.5" y="266.6621"/><rect fill="#FFFFFF" height="324.5273" style="stroke:#181818;stroke-width:1.0;" width="10" x="597.5" y="719.0527"/><rect fill="#FFFFFF" height="201.6855" style="stroke:#181818;stroke-width:1.0;" width="10" x="797.5" y="812.584"/><rect fill="#FFFFFF" height="73.7539" style="stroke:#181818;stroke-width:1.0;" width="10" x="1031.5" y="396.9043"/><rect fill="#FFFFFF" height="685.498" style="stroke:#181818;stroke-width:1.0;" width="10" x="1031.5" y="530.5898"/><rect fill="#FFFFFF" height="29.3105" style="stroke:#181818;stroke-width:1.0;" width="10" x="1308" y="338.2832"/><rect fill="#FFFFFF" height="64.6211" style="stroke:#181818;stroke-width:1.0;" width="10" x="1384" y="530.5898"/><rect fill="#FFFFFF" height="151.752" style="stroke:#181818;stroke-width:1.0;" width="10" x="1384" y="624.5215"/><rect fill="#FFFFFF" height="29.3105" style="stroke:#181818;stroke-width:1.0;" width="10" x="1384" y="1072.8906"/><rect fill="none" height="114.752" style="stroke:#000000;stroke-width:1.5;" width="932.5" x="507" y="669.5215"/><rect fill="none" height="116.0645" style="stroke:#000000;stroke-width:1.5;" width="577.5" x="710" y="827.584"/><rect fill="none" height="90.8867" style="stroke:#000000;stroke-width:1.5;" width="315.5" x="10" y="1117.2012"/><line style="stroke:#181818;stroke-width:0.5;stroke-dasharray:5.0,5.0;" x1="38" x2="38" y1="81.4883" y2="1225.0879"/><line style="stroke:#181818;stroke-width:0.5;stroke-dasharray:5.0,5.0;" x1="278.5" x2="278.5" y1="81.4883" y2="1225.0879"/><line style="stroke:#181818;stroke-width:0.5;stroke-dasharray:5.0,5.0;" x1="602" x2="602" y1="81.4883" y2="1225.0879"/><line style="stroke:#181818;stroke-width:0.5;stroke-dasharray:5.0,5.0;" x1="802" x2="802" y1="81.4883" y2="1225.0879"/><line style="stroke:#181818;stroke-width:0.5;stroke-dasharray:5.0,5.0;" x1="1036.5" x2="1036.5" y1="81.4883" y2="1225.0879"/><line style="stroke:#181818;stroke-width:0.5;stroke-dasharray:5.0,5.0;" x1="1135.5" x2="1135.5" y1="81.4883" y2="1225.0879"/><line style="stroke:#181818;stroke-width:0.5;stroke-dasharray:5.0,5.0;" x1="1224.5" x2="1224.5" y1="875.6387" y2="1225.0879"/><line style="stroke:#181818;stroke-width:0.5;stroke-dasharray:5.0,5.0;" x1="1312.5" x2="1312.5" y1="81.4883" y2="1225.0879"/><line style="stroke:#181818;stroke-width:0.5;stroke-dasharray:5.0,5.0;" x1="1388.5" x2="1388.5" y1="81.4883" y2="1225.0879"/><text fill="#000000" font-family="sans-serif" font-size="14" lengthAdjust="spacing" textLength="31" x="20" y="78.5352">User</text><ellipse cx="38.5" cy="13.5" fill="#E2E2F0" rx="8" ry="8" style="stroke:#181818;stroke-width:0.5;"/><path d="M38.5,21.5 L38.5,48.5 M25.5,29.5 L51.5,29.5 M38.5,48.5 L25.5,63.5 M38.5,48.5 L51.5,63.5 " fill="none" style="stroke:#181818;stroke-width:0.5;"/><text fill="#000000" font-family="sans-serif" font-size="14" lengthAdjust="spacing" textLength="31" x="20" y="1237.623">User</text><ellipse cx="38.5" cy="1249.0762" fill="#E2E2F0" rx="8" ry="8" style="stroke:#181818;stroke-width:0.5;"/><path d="M38.5,1257.0762 L38.5,1284.0762 M25.5,1265.0762 L51.5,1265.0762 M38.5,1284.0762 L25.5,1299.0762 M38.5,1284.0762 L51.5,1299.0762 " fill="none" style="stroke:#181818;stroke-width:0.5;"/><rect fill="#E2E2F0" height="30.4883" rx="2.5" ry="2.5" style="stroke:#181818;stroke-width:0.5;" width="74" x="241.5" y="50"/><text fill="#000000" font-family="sans-serif" font-size="14" lengthAdjust="spacing" textLength="60" x="248.5" y="70.5352">: LoginUI</text><rect fill="#E2E2F0" height="30.4883" rx="2.5" ry="2.5" style="stroke:#181818;stroke-width:0.5;" width="74" x="241.5" y="1224.0879"/><text fill="#000000" font-family="sans-serif" font-size="14" lengthAdjust="spacing" textLength="60" x="248.5" y="1244.623">: LoginUI</text><rect fill="#E2E2F0" height="30.4883" rx="2.5" ry="2.5" style="stroke:#181818;stroke-width:0.5;" width="171" x="517" y="50"/><text fill="#000000" font-family="sans-serif" font-size="14" lengthAdjust="spacing" textLength="157" x="524" y="70.5352">: AuthenticationService</text><rect fill="#E2E2F0" height="30.4883" rx="2.5" ry="2.5" style="stroke:#181818;stroke-width:0.5;" width="171" x="517" y="1224.0879"/><text fill="#000000" font-family="sans-serif" font-size="14" lengthAdjust="spacing" textLength="157" x="524" y="1244.623">: AuthenticationService</text><rect fill="#E2E2F0" height="30.4883" rx="2.5" ry="2.5" style="stroke:#181818;stroke-width:0.5;" width="165" x="720" y="50"/><text fill="#000000" font-family="sans-serif" font-size="14" lengthAdjust="spacing" textLength="151" x="727" y="70.5352">: AuthorizationService</text><rect fill="#E2E2F0" height="30.4883" rx="2.5" ry="2.5" style="stroke:#181818;stroke-width:0.5;" width="165" x="720" y="1224.0879"/><text fill="#000000" font-family="sans-serif" font-size="14" lengthAdjust="spacing" textLength="151" x="727" y="1244.623">: AuthorizationService</text><rect fill="#E2E2F0" height="30.4883" rx="2.5" ry="2.5" style="stroke:#181818;stroke-width:0.5;" width="126" x="973.5" y="50"/><text fill="#000000" font-family="sans-serif" font-size="14" lengthAdjust="spacing" textLength="112" x="980.5" y="70.5352">: UserRepository</text><rect fill="#E2E2F0" height="30.4883" rx="2.5" ry="2.5" style="stroke:#181818;stroke-width:0.5;" width="126" x="973.5" y="1224.0879"/><text fill="#000000" font-family="sans-serif" font-size="14" lengthAdjust="spacing" textLength="112" x="980.5" y="1244.623">: UserRepository</text><rect fill="#E2E2F0" height="30.4883" rx="2.5" ry="2.5" style="stroke:#181818;stroke-width:0.5;" width="53" x="1109.5" y="50"/><text fill="#000000" font-family="sans-serif" font-size="14" lengthAdjust="spacing" textLength="39" x="1116.5" y="70.5352">: User</text><rect fill="#E2E2F0" height="30.4883" rx="2.5" ry="2.5" style="stroke:#181818;stroke-width:0.5;" width="53" x="1109.5" y="1224.0879"/><text fill="#000000" font-family="sans-serif" font-size="14" lengthAdjust="spacing" textLength="39" x="1116.5" y="1244.623">: User</text><rect fill="#E2E2F0" height="30.4883" rx="2.5" ry="2.5" style="stroke:#181818;stroke-width:0.5;" width="105" x="1172.5" y="1224.0879"/><text fill="#000000" font-family="sans-serif" font-size="14" lengthAdjust="spacing" textLength="91" x="1179.5" y="1244.623">: UserSession</text><rect fill="#E2E2F0" height="30.4883" rx="2.5" ry="2.5" style="stroke:#181818;stroke-width:0.5;" width="51" x="1287.5" y="50"/><text fill="#000000" font-family="sans-serif" font-size="14" lengthAdjust="spacing" textLength="37" x="1294.5" y="70.5352">Email</text><rect fill="#E2E2F0" height="30.4883" rx="2.5" ry="2.5" style="stroke:#181818;stroke-width:0.5;" width="51" x="1287.5" y="1224.0879"/><text fill="#000000" font-family="sans-serif" font-size="14" lengthAdjust="spacing" textLength="37" x="1294.5" y="1244.623">Email</text><rect fill="#E2E2F0" height="30.4883" rx="2.5" ry="2.5" style="stroke:#181818;stroke-width:0.5;" width="81" x="1348.5" y="50"/><text fill="#000000" font-family="sans-serif" font-size="14" lengthAdjust="spacing" textLength="67" x="1355.5" y="70.5352">: Optional</text><rect fill="#E2E2F0" height="30.4883" rx="2.5" ry="2.5" style="stroke:#181818;stroke-width:0.5;" width="81" x="1348.5" y="1224.0879"/><text fill="#000000" font-family="sans-serif" font-size="14" lengthAdjust="spacing" textLength="67" x="1355.5" y="1244.623">: Optional</text><rect fill="#FFFFFF" height="1123.5996" style="stroke:#181818;stroke-width:1.0;" width="10" x="33.5" y="91.4883"/><rect fill="#FFFFFF" height="29.3105" style="stroke:#181818;stroke-width:1.0;" width="10" x="273.5" y="178.7305"/><rect fill="#FFFFFF" height="29.3105" style="stroke:#181818;stroke-width:1.0;" width="10" x="273.5" y="237.3516"/><rect fill="#FFFFFF" height="171.5078" style="stroke:#181818;stroke-width:1.0;" width="10" x="273.5" y="1043.5801"/><rect fill="#FFFFFF" height="387.8594" style="stroke:#181818;stroke-width:1.0;" width="10" x="597.5" y="266.6621"/><rect fill="#FFFFFF" height="324.5273" style="stroke:#181818;stroke-width:1.0;" width="10" x="597.5" y="719.0527"/><rect fill="#FFFFFF" height="201.6855" style="stroke:#181818;stroke-width:1.0;" width="10" x="797.5" y="812.584"/><rect fill="#FFFFFF" height="73.7539" style="stroke:#181818;stroke-width:1.0;" width="10" x="1031.5" y="396.9043"/><rect fill="#FFFFFF" height="685.498" style="stroke:#181818;stroke-width:1.0;" width="10" x="1031.5" y="530.5898"/><rect fill="#FFFFFF" height="29.3105" style="stroke:#181818;stroke-width:1.0;" width="10" x="1308" y="338.2832"/><rect fill="#FFFFFF" height="64.6211" style="stroke:#181818;stroke-width:1.0;" width="10" x="1384" y="530.5898"/><rect fill="#FFFFFF" height="151.752" style="stroke:#181818;stroke-width:1.0;" width="10" x="1384" y="624.5215"/><rect fill="#FFFFFF" height="29.3105" style="stroke:#181818;stroke-width:1.0;" width="10" x="1384" y="1072.8906"/><path d="M1394,96.4883 L1394,151.4883 L1804,151.4883 L1804,106.4883 L1794,96.4883 L1394,96.4883 " fill="#FEFFDD" style="stroke:#181818;stroke-width:0.5;"/><path d="M1794,96.4883 L1794,106.4883 L1804,106.4883 L1794,96.4883 " fill="#FEFFDD" style="stroke:#181818;stroke-width:0.5;"/><text fill="#000000" font-family="sans-serif" font-size="13" lengthAdjust="spacing" textLength="329" x="1400" y="114.0566">Optional abstractions are not fully represented here.</text><text fill="#000000" font-family="sans-serif" font-size="13" lengthAdjust="spacing" textLength="389" x="1400" y="129.3672">Must read java Optional documentation in order to implement</text><text fill="#000000" font-family="sans-serif" font-size="13" lengthAdjust="spacing" textLength="59" x="1400" y="144.6777">our code.</text><polygon fill="#181818" points="261.5,174.7305,271.5,178.7305,261.5,182.7305,265.5,178.7305" style="stroke:#181818;stroke-width:1.0;"/><line style="stroke:#181818;stroke-width:1.0;" x1="43.5" x2="267.5" y1="178.7305" y2="178.7305"/><text fill="#000000" font-family="sans-serif" font-size="13" font-weight="bold" lengthAdjust="spacing" textLength="9" x="50.5" y="173.9883">1</text><text fill="#000000" font-family="sans-serif" font-size="13" lengthAdjust="spacing" textLength="90" x="63.5" y="173.9883">wants to login</text><polygon fill="#181818" points="54.5,204.041,44.5,208.041,54.5,212.041,50.5,208.041" style="stroke:#181818;stroke-width:1.0;"/><line style="stroke:#181818;stroke-width:1.0;stroke-dasharray:2.0,2.0;" x1="48.5" x2="277.5" y1="208.041" y2="208.041"/><text fill="#000000" font-family="sans-serif" font-size="13" font-weight="bold" lengthAdjust="spacing" textLength="9" x="60.5" y="203.2988">2</text><text fill="#000000" font-family="sans-serif" font-size="13" lengthAdjust="spacing" textLength="180" x="73.5" y="203.2988">asks for email and password</text><polygon fill="#181818" points="261.5,233.3516,271.5,237.3516,261.5,241.3516,265.5,237.3516" style="stroke:#181818;stroke-width:1.0;"/><line style="stroke:#181818;stroke-width:1.0;" x1="43.5" x2="267.5" y1="237.3516" y2="237.3516"/><text fill="#000000" font-family="sans-serif" font-size="13" font-weight="bold" lengthAdjust="spacing" textLength="9" x="50.5" y="232.6094">3</text><text fill="#000000" font-family="sans-serif" font-size="13" lengthAdjust="spacing" textLength="198" x="63.5" y="232.6094">provides necessary information</text><polygon fill="#181818" points="585.5,262.6621,595.5,266.6621,585.5,270.6621,589.5,266.6621" style="stroke:#181818;stroke-width:1.0;"/><line style="stroke:#181818;stroke-width:1.0;" x1="278.5" x2="591.5" y1="266.6621" y2="266.6621"/><text fill="#000000" font-family="sans-serif" font-size="13" font-weight="bold" lengthAdjust="spacing" textLength="9" x="285.5" y="261.9199">4</text><text fill="#000000" font-family="sans-serif" font-size="13" lengthAdjust="spacing" textLength="282" x="298.5" y="261.9199">authenticate(email, password, requiredRoles)</text><line style="stroke:#181818;stroke-width:1.0;" x1="607.5" x2="649.5" y1="295.9727" y2="295.9727"/><line style="stroke:#181818;stroke-width:1.0;" x1="649.5" x2="649.5" y1="295.9727" y2="308.9727"/><line style="stroke:#181818;stroke-width:1.0;" x1="608.5" x2="649.5" y1="308.9727" y2="308.9727"/><polygon fill="#181818" points="618.5,304.9727,608.5,308.9727,618.5,312.9727,614.5,308.9727" style="stroke:#181818;stroke-width:1.0;"/><text fill="#000000" font-family="sans-serif" font-size="13" font-weight="bold" lengthAdjust="spacing" textLength="9" x="614.5" y="291.2305">5</text><text fill="#000000" font-family="sans-serif" font-size="13" lengthAdjust="spacing" textLength="117" x="627.5" y="291.2305">retrieveUser(email)</text><polygon fill="#181818" points="1296,334.2832,1306,338.2832,1296,342.2832,1300,338.2832" style="stroke:#181818;stroke-width:1.0;"/><line style="stroke:#181818;stroke-width:1.0;" x1="607.5" x2="1302" y1="338.2832" y2="338.2832"/><text fill="#000000" font-family="sans-serif" font-size="13" font-weight="bold" lengthAdjust="spacing" textLength="9" x="614.5" y="333.541">6</text><text fill="#000000" font-family="sans-serif" font-size="13" lengthAdjust="spacing" textLength="165" x="627.5" y="333.541">Email.valueOf(emailString)</text><polygon fill="#181818" points="618.5,363.5938,608.5,367.5938,618.5,371.5938,614.5,367.5938" style="stroke:#181818;stroke-width:1.0;"/><line style="stroke:#181818;stroke-width:1.0;stroke-dasharray:2.0,2.0;" x1="612.5" x2="1312" y1="367.5938" y2="367.5938"/><text fill="#000000" font-family="sans-serif" font-size="13" font-weight="bold" lengthAdjust="spacing" textLength="9" x="624.5" y="362.8516">7</text><text fill="#000000" font-family="sans-serif" font-size="13" lengthAdjust="spacing" textLength="34" x="637.5" y="362.8516">email</text><polygon fill="#181818" points="1019.5,392.9043,1029.5,396.9043,1019.5,400.9043,1023.5,396.9043" style="stroke:#181818;stroke-width:1.0;"/><line style="stroke:#181818;stroke-width:1.0;" x1="607.5" x2="1025.5" y1="396.9043" y2="396.9043"/><text fill="#000000" font-family="sans-serif" font-size="13" font-weight="bold" lengthAdjust="spacing" textLength="9" x="614.5" y="392.1621">8</text><text fill="#000000" font-family="sans-serif" font-size="13" lengthAdjust="spacing" textLength="103" x="627.5" y="392.1621">ofIdentity(email)</text><rect fill="none" height="39.4434" style="stroke:#000000;stroke-width:1.5;" width="164" x="970.5" y="404.9043"/><path d="M970.5,404.9043 L1034.5,404.9043 L1034.5,411.9043 L1024.5,421.9043 L970.5,421.9043 L970.5,404.9043 " fill="#EEEEEE" style="stroke:#000000;stroke-width:2.0;"/><text fill="#000000" font-family="sans-serif" font-size="13" font-weight="bold" lengthAdjust="spacing" textLength="19" x="983.5" y="419.4727">ref</text><text fill="#000000" font-family="sans-serif" font-size="12" lengthAdjust="spacing" textLength="156" x="974.5" y="437.5059">Repository_Implementation</text><polygon fill="#181818" points="618.5,466.6582,608.5,470.6582,618.5,474.6582,614.5,470.6582" style="stroke:#181818;stroke-width:1.0;"/><line style="stroke:#181818;stroke-width:1.0;stroke-dasharray:2.0,2.0;" x1="612.5" x2="1035.5" y1="470.6582" y2="470.6582"/><text fill="#000000" font-family="sans-serif" font-size="13" font-weight="bold" lengthAdjust="spacing" textLength="9" x="624.5" y="465.916">9</text><text fill="#000000" font-family="sans-serif" font-size="13" lengthAdjust="spacing" textLength="52" x="637.5" y="465.916">optional</text><polygon fill="#181818" points="1372,526.5898,1382,530.5898,1372,534.5898,1376,530.5898" style="stroke:#181818;stroke-width:1.0;"/><line style="stroke:#181818;stroke-width:1.0;" x1="607.5" x2="1378" y1="530.5898" y2="530.5898"/><text fill="#000000" font-family="sans-serif" font-size="13" font-weight="bold" lengthAdjust="spacing" textLength="18" x="614.5" y="510.5371">10</text><text fill="#000000" font-family="sans-serif" font-size="13" lengthAdjust="spacing" textLength="378" x="636.5" y="495.2266">filter(user -&gt; user.passwordMatches(password, encoder) &amp;&amp;</text><text fill="#000000" font-family="sans-serif" font-size="13" lengthAdjust="spacing" textLength="334" x="640.5" y="510.5371">(noRolesToValidate(roles) || user.hasAnyOf(roles)) &amp;&amp;</text><text fill="#000000" font-family="sans-serif" font-size="13" lengthAdjust="spacing" textLength="93" x="644.5" y="525.8477">user.isActive())</text><path d="M612,543.5898 L612,568.5898 L870,568.5898 L870,553.5898 L860,543.5898 L612,543.5898 " fill="#FEFFDD" style="stroke:#181818;stroke-width:0.5;"/><path d="M860,543.5898 L860,553.5898 L870,553.5898 L860,543.5898 " fill="#FEFFDD" style="stroke:#181818;stroke-width:0.5;"/><text fill="#000000" font-family="sans-serif" font-size="13" lengthAdjust="spacing" textLength="237" x="618" y="561.1582">filtering was shortened for readability</text><polygon fill="#181818" points="618.5,591.2109,608.5,595.2109,618.5,599.2109,614.5,595.2109" style="stroke:#181818;stroke-width:1.0;"/><line style="stroke:#181818;stroke-width:1.0;stroke-dasharray:2.0,2.0;" x1="612.5" x2="1388" y1="595.2109" y2="595.2109"/><text fill="#000000" font-family="sans-serif" font-size="13" font-weight="bold" lengthAdjust="spacing" textLength="18" x="624.5" y="590.4688">11</text><text fill="#000000" font-family="sans-serif" font-size="13" lengthAdjust="spacing" textLength="52" x="646.5" y="590.4688">optional</text><polygon fill="#181818" points="1372,620.5215,1382,624.5215,1372,628.5215,1376,624.5215" style="stroke:#181818;stroke-width:1.0;"/><line style="stroke:#181818;stroke-width:1.0;" x1="607.5" x2="1378" y1="624.5215" y2="624.5215"/><text fill="#000000" font-family="sans-serif" font-size="13" font-weight="bold" lengthAdjust="spacing" textLength="18" x="614.5" y="619.7793">12</text><text fill="#000000" font-family="sans-serif" font-size="13" lengthAdjust="spacing" textLength="70" x="636.5" y="619.7793">orElse(null)</text><path d="M507,669.5215 L569,669.5215 L569,676.832 L559,686.832 L507,686.832 L507,669.5215 " fill="#EEEEEE" style="stroke:#000000;stroke-width:1.5;"/><rect fill="none" height="114.752" style="stroke:#000000;stroke-width:1.5;" width="932.5" x="507" y="669.5215"/><text fill="#000000" font-family="sans-serif" font-size="13" font-weight="bold" lengthAdjust="spacing" textLength="17" x="522" y="683.0898">alt</text><text fill="#000000" font-family="sans-serif" font-size="11" font-weight="bold" lengthAdjust="spacing" textLength="181" x="584" y="682.1563">[user exists, password is correct</text><text fill="#000000" font-family="sans-serif" font-size="11" font-weight="bold" lengthAdjust="spacing" textLength="191" x="584" y="695.1113">and has one of the required roles]</text><polygon fill="#181818" points="618.5,715.0527,608.5,719.0527,618.5,723.0527,614.5,719.0527" style="stroke:#181818;stroke-width:1.0;"/><line style="stroke:#181818;stroke-width:1.0;stroke-dasharray:2.0,2.0;" x1="612.5" x2="1383" y1="719.0527" y2="719.0527"/><text fill="#000000" font-family="sans-serif" font-size="13" font-weight="bold" lengthAdjust="spacing" textLength="18" x="624.5" y="714.3105">13</text><text fill="#000000" font-family="sans-serif" font-size="13" lengthAdjust="spacing" textLength="27" x="646.5" y="714.3105">user</text><line style="stroke:#000000;stroke-width:1.0;stroke-dasharray:2.0,2.0;" x1="507" x2="1439.5" y1="728.0527" y2="728.0527"/><text fill="#000000" font-family="sans-serif" font-size="11" font-weight="bold" lengthAdjust="spacing" textLength="251" x="512" y="738.6875">[user does not exist or password is incorrect</text><text fill="#000000" font-family="sans-serif" font-size="11" font-weight="bold" lengthAdjust="spacing" textLength="242" x="512" y="751.6426">or does not have one of the required roles]</text><polygon fill="#181818" points="618.5,772.2734,608.5,776.2734,618.5,780.2734,614.5,776.2734" style="stroke:#181818;stroke-width:1.0;"/><line style="stroke:#181818;stroke-width:1.0;stroke-dasharray:2.0,2.0;" x1="612.5" x2="1388" y1="776.2734" y2="776.2734"/><text fill="#000000" font-family="sans-serif" font-size="13" font-weight="bold" lengthAdjust="spacing" textLength="18" x="624.5" y="771.5313">14</text><text fill="#000000" font-family="sans-serif" font-size="13" lengthAdjust="spacing" textLength="24" x="646.5" y="771.5313">null</text><polygon fill="#181818" points="785.5,808.584,795.5,812.584,785.5,816.584,789.5,812.584" style="stroke:#181818;stroke-width:1.0;"/><line style="stroke:#181818;stroke-width:1.0;" x1="607.5" x2="791.5" y1="812.584" y2="812.584"/><text fill="#000000" font-family="sans-serif" font-size="13" font-weight="bold" lengthAdjust="spacing" textLength="18" x="614.5" y="807.8418">15</text><text fill="#000000" font-family="sans-serif" font-size="13" lengthAdjust="spacing" textLength="149" x="636.5" y="807.8418">createUserSession(user)</text><path d="M710,827.584 L772,827.584 L772,834.8945 L762,844.8945 L710,844.8945 L710,827.584 " fill="#EEEEEE" style="stroke:#000000;stroke-width:1.5;"/><rect fill="none" height="116.0645" style="stroke:#000000;stroke-width:1.5;" width="577.5" x="710" y="827.584"/><text fill="#000000" font-family="sans-serif" font-size="13" font-weight="bold" lengthAdjust="spacing" textLength="17" x="725" y="841.1523">alt</text><text fill="#000000" font-family="sans-serif" font-size="11" font-weight="bold" lengthAdjust="spacing" textLength="327" x="787" y="840.2188">[user was previously valid and successfully authenticated]</text><polygon fill="#181818" points="1160.5,862.2051,1170.5,866.2051,1160.5,870.2051,1164.5,866.2051" style="stroke:#181818;stroke-width:1.0;"/><line style="stroke:#181818;stroke-width:1.0;stroke-dasharray:2.0,2.0;" x1="807.5" x2="1166.5" y1="866.2051" y2="866.2051"/><text fill="#000000" font-family="sans-serif" font-size="13" font-weight="bold" lengthAdjust="spacing" textLength="18" x="814.5" y="861.4629">16</text><text fill="#000000" font-family="sans-serif" font-size="13" lengthAdjust="spacing" textLength="73" x="836.5" y="861.4629">create(user)</text><rect fill="#E2E2F0" height="30.4883" rx="2.5" ry="2.5" style="stroke:#181818;stroke-width:0.5;" width="105" x="1172.5" y="844.8945"/><text fill="#000000" font-family="sans-serif" font-size="14" lengthAdjust="spacing" textLength="91" x="1179.5" y="865.4297">: UserSession</text><line style="stroke:#000000;stroke-width:1.0;stroke-dasharray:2.0,2.0;" x1="710" x2="1287.5" y1="887.3828" y2="887.3828"/><text fill="#000000" font-family="sans-serif" font-size="11" font-weight="bold" lengthAdjust="spacing" textLength="382" x="715" y="898.0176">[user had something wrong with authentication so its object is null]</text><line style="stroke:#181818;stroke-width:1.0;" x1="807.5" x2="849.5" y1="922.6484" y2="922.6484"/><line style="stroke:#181818;stroke-width:1.0;" x1="849.5" x2="849.5" y1="922.6484" y2="935.6484"/><line style="stroke:#181818;stroke-width:1.0;" x1="808.5" x2="849.5" y1="935.6484" y2="935.6484"/><polygon fill="#181818" points="818.5,931.6484,808.5,935.6484,818.5,939.6484,814.5,935.6484" style="stroke:#181818;stroke-width:1.0;"/><text fill="#000000" font-family="sans-serif" font-size="13" font-weight="bold" lengthAdjust="spacing" textLength="18" x="814.5" y="917.9063">17</text><text fill="#000000" font-family="sans-serif" font-size="13" lengthAdjust="spacing" textLength="188" x="836.5" y="917.9063">clearSession() (session = null)</text><line style="stroke:#181818;stroke-width:1.0;" x1="807.5" x2="849.5" y1="971.959" y2="971.959"/><line style="stroke:#181818;stroke-width:1.0;" x1="849.5" x2="849.5" y1="971.959" y2="984.959"/><line style="stroke:#181818;stroke-width:1.0;" x1="808.5" x2="849.5" y1="984.959" y2="984.959"/><polygon fill="#181818" points="818.5,980.959,808.5,984.959,818.5,988.959,814.5,984.959" style="stroke:#181818;stroke-width:1.0;"/><text fill="#000000" font-family="sans-serif" font-size="13" font-weight="bold" lengthAdjust="spacing" textLength="18" x="814.5" y="967.2168">18</text><text fill="#000000" font-family="sans-serif" font-size="13" lengthAdjust="spacing" textLength="56" x="836.5" y="967.2168">session()</text><polygon fill="#181818" points="618.5,1010.2695,608.5,1014.2695,618.5,1018.2695,614.5,1014.2695" style="stroke:#181818;stroke-width:1.0;"/><line style="stroke:#181818;stroke-width:1.0;stroke-dasharray:2.0,2.0;" x1="612.5" x2="801.5" y1="1014.2695" y2="1014.2695"/><text fill="#000000" font-family="sans-serif" font-size="13" font-weight="bold" lengthAdjust="spacing" textLength="18" x="624.5" y="1009.5273">19</text><text fill="#000000" font-family="sans-serif" font-size="13" lengthAdjust="spacing" textLength="52" x="646.5" y="1009.5273">optional</text><polygon fill="#181818" points="294.5,1039.5801,284.5,1043.5801,294.5,1047.5801,290.5,1043.5801" style="stroke:#181818;stroke-width:1.0;"/><line style="stroke:#181818;stroke-width:1.0;stroke-dasharray:2.0,2.0;" x1="288.5" x2="601.5" y1="1043.5801" y2="1043.5801"/><text fill="#000000" font-family="sans-serif" font-size="13" font-weight="bold" lengthAdjust="spacing" textLength="18" x="300.5" y="1038.8379">20</text><text fill="#000000" font-family="sans-serif" font-size="13" lengthAdjust="spacing" textLength="52" x="322.5" y="1038.8379">optional</text><polygon fill="#181818" points="1372,1068.8906,1382,1072.8906,1372,1076.8906,1376,1072.8906" style="stroke:#181818;stroke-width:1.0;"/><line style="stroke:#181818;stroke-width:1.0;" x1="283.5" x2="1378" y1="1072.8906" y2="1072.8906"/><text fill="#000000" font-family="sans-serif" font-size="13" font-weight="bold" lengthAdjust="spacing" textLength="18" x="290.5" y="1068.1484">21</text><text fill="#000000" font-family="sans-serif" font-size="13" lengthAdjust="spacing" textLength="65" x="312.5" y="1068.1484">isPresent()</text><polygon fill="#181818" points="294.5,1098.2012,284.5,1102.2012,294.5,1106.2012,290.5,1102.2012" style="stroke:#181818;stroke-width:1.0;"/><line style="stroke:#181818;stroke-width:1.0;stroke-dasharray:2.0,2.0;" x1="288.5" x2="1388" y1="1102.2012" y2="1102.2012"/><text fill="#000000" font-family="sans-serif" font-size="13" font-weight="bold" lengthAdjust="spacing" textLength="18" x="300.5" y="1097.459">22</text><text fill="#000000" font-family="sans-serif" font-size="13" lengthAdjust="spacing" textLength="28" x="322.5" y="1097.459">bool</text><path d="M10,1117.2012 L72,1117.2012 L72,1124.5117 L62,1134.5117 L10,1134.5117 L10,1117.2012 " fill="#EEEEEE" style="stroke:#000000;stroke-width:1.5;"/><rect fill="none" height="90.8867" style="stroke:#000000;stroke-width:1.5;" width="315.5" x="10" y="1117.2012"/><text fill="#000000" font-family="sans-serif" font-size="13" font-weight="bold" lengthAdjust="spacing" textLength="17" x="25" y="1130.7695">alt</text><text fill="#000000" font-family="sans-serif" font-size="11" font-weight="bold" lengthAdjust="spacing" textLength="124" x="87" y="1129.8359">[there is user session]</text><polygon fill="#181818" points="54.5,1151.8223,44.5,1155.8223,54.5,1159.8223,50.5,1155.8223" style="stroke:#181818;stroke-width:1.0;"/><line style="stroke:#181818;stroke-width:1.0;stroke-dasharray:2.0,2.0;" x1="48.5" x2="272.5" y1="1155.8223" y2="1155.8223"/><text fill="#000000" font-family="sans-serif" font-size="13" font-weight="bold" lengthAdjust="spacing" textLength="18" x="60.5" y="1151.0801">23</text><text fill="#000000" font-family="sans-serif" font-size="13" lengthAdjust="spacing" textLength="178" x="82.5" y="1151.0801">informs login was a success</text><line style="stroke:#000000;stroke-width:1.0;stroke-dasharray:2.0,2.0;" x1="10" x2="325.5" y1="1164.8223" y2="1164.8223"/><text fill="#000000" font-family="sans-serif" font-size="11" font-weight="bold" lengthAdjust="spacing" textLength="138" x="15" y="1175.457">[there isn't user session]</text><polygon fill="#181818" points="54.5,1196.0879,44.5,1200.0879,54.5,1204.0879,50.5,1200.0879" style="stroke:#181818;stroke-width:1.0;"/><line style="stroke:#181818;stroke-width:1.0;stroke-dasharray:2.0,2.0;" x1="48.5" x2="272.5" y1="1200.0879" y2="1200.0879"/><text fill="#000000" font-family="sans-serif" font-size="13" font-weight="bold" lengthAdjust="spacing" textLength="18" x="60.5" y="1195.3457">24</text><text fill="#000000" font-family="sans-serif" font-size="13" lengthAdjust="spacing" textLength="124" x="82.5" y="1195.3457">informs login failed</text><!--SRC=[dLPDJ-Cm4BtdLumuG8jekLVQbNhWWBI85InxGbgvoPIOJUnWEs5RyUDtngxprLH8S42jFHzlthmPzo9thhAhw-kg4ChLPR5CTNbjyQr6bU8Ya-B5Y399HEsqgiiDcaIaJXiuUx9epa1OgEd3ci-If1B6oLHM50hELl13lqZrT1kivFXsNRiS5Pq89xLwHDF85Bqj9SkdhBMH-qdZ_TYQmJrWfQqaNBiM9XzDcRO6KvUFQ2tbz3OsV1wQtPH25luQ-TCundt5a4Mmq8SlIQAqGp3o9NUWjzqvq5_q0B6npX3Vz8qADGZa1DkwA7PWi39eYJ_C84U3I-zvLrj7LoA3Lz68Bb2cqxeaOyyUI0NQP6Z0QP1bLI1VUNzT6qXrHj5GPPmD4-wtR0I1xHhDfkqtM7odxi8AtgbWop4BxdlFJmO72GisRVrMHCXV2rlww8a3GJahOUqxeKioF0fmbB4okf4PMb2OKcU4sL5j5A_qTKuY-Eu5mxax-U7CvxzgaryHXs-rD9Wzw0BjV0IcnucNAiVsKRle1fsHs20BA4IV3ypyqGgyT9QDA6gytmQxHt9KB_CkHH0LEmUM5bsMSDK3rzd6H57sPAstjnbNx7OHqQ2rVZWCaXORaaPxmi6wKVfp6_KIA6QPa4_R7v-gXx3LTP_1VkY8CngIprOMZbXZirZ1CdRcJhWqHplhEaLxYWHhvd1-_gnWfhHlsI_zMnGouzuQtqBu-0YHSc7NQaTiX_E3NxYJTiqWSJOFtHhEA4EDwAX5f7TQ2BIK72eQGfOnJvxOo88eJYR8xPqDvhsj_HFY1auJn6bpKrYSALeGyubKlKYTR0ldyG7-azRPRWH0Mje4nc3gdXKFPixRIo4JGOFJ3WXu6dsioL9MOQyUPqQ26b9dcYUODfl7G5KCG4ZLmj0zsrmq-3KyJCz9LbdFn4boDDDxuZUb_ZhilGbUe_DXSViXhomIsjIDrBMbjTsmAlsYitNAEojiy_uoobhm8IyZFxmxbvSjYaFg4PKvRNwhItIv5wZH_5zI5MBms98DIDhLUlDAn3BBdfHHtbxX1OgsvZdC3d3W6mIjzPcR362ZRpAiwxJOUms8s_waaAVtV6ymfFqP7ii8uFCnz1atMeUhaqD8RNRy_3A7lWFn5qBaSkBL2q-K3S-a5uY8QkZQ6QEg2_V5m5jQyGSnnTwCYDiVCJbyvqOx-_0ZBqd-0m00]--></g></svg>