<?xml version="1.0" encoding="us-ascii" standalone="no"?><svg xmlns="http://www.w3.org/2000/svg" xmlns:xlink="http://www.w3.org/1999/xlink" contentStyleType="text/css" height="1335px" preserveAspectRatio="none" style="width:1684px;height:1335px;background:#FFFFFF;" version="1.1" viewBox="0 0 1684 1335" width="1684px" zoomAndPan="magnify"><defs/><g><rect fill="#FFFFFF" height="1148.3887" style="stroke:#181818;stroke-width:1.0;" width="10" x="32.5" y="93.6211"/><rect fill="#FFFFFF" height="31.291" style="stroke:#181818;stroke-width:1.0;" width="10" x="250.5" y="188.7852"/><rect fill="#FFFFFF" height="31.291" style="stroke:#181818;stroke-width:1.0;" width="10" x="250.5" y="251.3672"/><rect fill="#FFFFFF" height="183.0859" style="stroke:#181818;stroke-width:1.0;" width="10" x="250.5" y="1058.9238"/><rect fill="#FFFFFF" height="358.8711" style="stroke:#181818;stroke-width:1.0;" width="10" x="550.5" y="282.6582"/><rect fill="#FFFFFF" height="345.5508" style="stroke:#181818;stroke-width:1.0;" width="10" x="550.5" y="713.373"/><rect fill="#FFFFFF" height="213.416" style="stroke:#181818;stroke-width:1.0;" width="10" x="740.5" y="814.2168"/><rect fill="#FFFFFF" height="79.543" style="stroke:#181818;stroke-width:1.0;" width="10" x="958.5" y="420.8223"/><rect fill="#FFFFFF" height="694.0625" style="stroke:#181818;stroke-width:1.0;" width="10" x="958.5" y="548.9473"/><rect fill="#FFFFFF" height="31.291" style="stroke:#181818;stroke-width:1.0;" width="10" x="1224" y="358.2402"/><rect fill="#FFFFFF" height="31.291" style="stroke:#181818;stroke-width:1.0;" width="10" x="1295.5" y="548.9473"/><rect fill="#FFFFFF" height="164.3965" style="stroke:#181818;stroke-width:1.0;" width="10" x="1295.5" y="611.5293"/><rect fill="#FFFFFF" height="31.291" style="stroke:#181818;stroke-width:1.0;" width="10" x="1295.5" y="1090.2148"/><rect fill="none" height="127.3965" style="stroke:#000000;stroke-width:1.5;" width="882" x="466" y="656.5293"/><rect fill="none" height="123.834" style="stroke:#000000;stroke-width:1.5;" width="545" x="660" y="829.2168"/><rect fill="none" height="98.5039" style="stroke:#000000;stroke-width:1.5;" width="290" x="10" y="1136.5059"/><line style="stroke:#181818;stroke-width:0.5;stroke-dasharray:5.0,5.0;" x1="37" x2="37" y1="83.6211" y2="1252.0098"/><line style="stroke:#181818;stroke-width:0.5;stroke-dasharray:5.0,5.0;" x1="255" x2="255" y1="83.6211" y2="1252.0098"/><line style="stroke:#181818;stroke-width:0.5;stroke-dasharray:5.0,5.0;" x1="555" x2="555" y1="83.6211" y2="1252.0098"/><line style="stroke:#181818;stroke-width:0.5;stroke-dasharray:5.0,5.0;" x1="745" x2="745" y1="83.6211" y2="1252.0098"/><line style="stroke:#181818;stroke-width:0.5;stroke-dasharray:5.0,5.0;" x1="963" x2="963" y1="83.6211" y2="1252.0098"/><line style="stroke:#181818;stroke-width:0.5;stroke-dasharray:5.0,5.0;" x1="1058" x2="1058" y1="83.6211" y2="1252.0098"/><line style="stroke:#181818;stroke-width:0.5;stroke-dasharray:5.0,5.0;" x1="1144" x2="1144" y1="880.3184" y2="1252.0098"/><line style="stroke:#181818;stroke-width:0.5;stroke-dasharray:5.0,5.0;" x1="1229" x2="1229" y1="83.6211" y2="1252.0098"/><line style="stroke:#181818;stroke-width:0.5;stroke-dasharray:5.0,5.0;" x1="1300" x2="1300" y1="83.6211" y2="1252.0098"/><text fill="#000000" font-family="sans-serif" font-size="14" lengthAdjust="spacing" textLength="29" x="20" y="80.1074">User</text><ellipse cx="37.5" cy="13.5" fill="#E2E2F0" rx="8" ry="8" style="stroke:#181818;stroke-width:0.5;"/><path d="M37.5,21.5 L37.5,48.5 M24.5,29.5 L50.5,29.5 M37.5,48.5 L24.5,63.5 M37.5,48.5 L50.5,63.5 " fill="none" style="stroke:#181818;stroke-width:0.5;"/><text fill="#000000" font-family="sans-serif" font-size="14" lengthAdjust="spacing" textLength="29" x="20" y="1266.1172">User</text><ellipse cx="37.5" cy="1278.1309" fill="#E2E2F0" rx="8" ry="8" style="stroke:#181818;stroke-width:0.5;"/><path d="M37.5,1286.1309 L37.5,1313.1309 M24.5,1294.1309 L50.5,1294.1309 M37.5,1313.1309 L24.5,1328.1309 M37.5,1313.1309 L50.5,1328.1309 " fill="none" style="stroke:#181818;stroke-width:0.5;"/><rect fill="#E2E2F0" height="32.6211" rx="2.5" ry="2.5" style="stroke:#181818;stroke-width:0.5;" width="69" x="221" y="50"/><text fill="#000000" font-family="sans-serif" font-size="14" lengthAdjust="spacing" textLength="55" x="228" y="72.1074">: LoginUI</text><rect fill="#E2E2F0" height="32.6211" rx="2.5" ry="2.5" style="stroke:#181818;stroke-width:0.5;" width="69" x="221" y="1251.0098"/><text fill="#000000" font-family="sans-serif" font-size="14" lengthAdjust="spacing" textLength="55" x="228" y="1273.1172">: LoginUI</text><rect fill="#E2E2F0" height="32.6211" rx="2.5" ry="2.5" style="stroke:#181818;stroke-width:0.5;" width="159" x="476" y="50"/><text fill="#000000" font-family="sans-serif" font-size="14" lengthAdjust="spacing" textLength="145" x="483" y="72.1074">: AuthenticationService</text><rect fill="#E2E2F0" height="32.6211" rx="2.5" ry="2.5" style="stroke:#181818;stroke-width:0.5;" width="159" x="476" y="1251.0098"/><text fill="#000000" font-family="sans-serif" font-size="14" lengthAdjust="spacing" textLength="145" x="483" y="1273.1172">: AuthenticationService</text><rect fill="#E2E2F0" height="32.6211" rx="2.5" ry="2.5" style="stroke:#181818;stroke-width:0.5;" width="151" x="670" y="50"/><text fill="#000000" font-family="sans-serif" font-size="14" lengthAdjust="spacing" textLength="137" x="677" y="72.1074">: AuthorizationService</text><rect fill="#E2E2F0" height="32.6211" rx="2.5" ry="2.5" style="stroke:#181818;stroke-width:0.5;" width="151" x="670" y="1251.0098"/><text fill="#000000" font-family="sans-serif" font-size="14" lengthAdjust="spacing" textLength="137" x="677" y="1273.1172">: AuthorizationService</text><rect fill="#E2E2F0" height="32.6211" rx="2.5" ry="2.5" style="stroke:#181818;stroke-width:0.5;" width="119" x="904" y="50"/><text fill="#000000" font-family="sans-serif" font-size="14" lengthAdjust="spacing" textLength="105" x="911" y="72.1074">: UserRepository</text><rect fill="#E2E2F0" height="32.6211" rx="2.5" ry="2.5" style="stroke:#181818;stroke-width:0.5;" width="119" x="904" y="1251.0098"/><text fill="#000000" font-family="sans-serif" font-size="14" lengthAdjust="spacing" textLength="105" x="911" y="1273.1172">: UserRepository</text><rect fill="#E2E2F0" height="32.6211" rx="2.5" ry="2.5" style="stroke:#181818;stroke-width:0.5;" width="51" x="1033" y="50"/><text fill="#000000" font-family="sans-serif" font-size="14" lengthAdjust="spacing" textLength="37" x="1040" y="72.1074">: User</text><rect fill="#E2E2F0" height="32.6211" rx="2.5" ry="2.5" style="stroke:#181818;stroke-width:0.5;" width="51" x="1033" y="1251.0098"/><text fill="#000000" font-family="sans-serif" font-size="14" lengthAdjust="spacing" textLength="37" x="1040" y="1273.1172">: User</text><rect fill="#E2E2F0" height="32.6211" rx="2.5" ry="2.5" style="stroke:#181818;stroke-width:0.5;" width="101" x="1094" y="1251.0098"/><text fill="#000000" font-family="sans-serif" font-size="14" lengthAdjust="spacing" textLength="87" x="1101" y="1273.1172">: UserSession</text><rect fill="#E2E2F0" height="32.6211" rx="2.5" ry="2.5" style="stroke:#181818;stroke-width:0.5;" width="48" x="1205" y="50"/><text fill="#000000" font-family="sans-serif" font-size="14" lengthAdjust="spacing" textLength="34" x="1212" y="72.1074">Email</text><rect fill="#E2E2F0" height="32.6211" rx="2.5" ry="2.5" style="stroke:#181818;stroke-width:0.5;" width="48" x="1205" y="1251.0098"/><text fill="#000000" font-family="sans-serif" font-size="14" lengthAdjust="spacing" textLength="34" x="1212" y="1273.1172">Email</text><rect fill="#E2E2F0" height="32.6211" rx="2.5" ry="2.5" style="stroke:#181818;stroke-width:0.5;" width="75" x="1263" y="50"/><text fill="#000000" font-family="sans-serif" font-size="14" lengthAdjust="spacing" textLength="61" x="1270" y="72.1074">: Optional</text><rect fill="#E2E2F0" height="32.6211" rx="2.5" ry="2.5" style="stroke:#181818;stroke-width:0.5;" width="75" x="1263" y="1251.0098"/><text fill="#000000" font-family="sans-serif" font-size="14" lengthAdjust="spacing" textLength="61" x="1270" y="1273.1172">: Optional</text><rect fill="#FFFFFF" height="1148.3887" style="stroke:#181818;stroke-width:1.0;" width="10" x="32.5" y="93.6211"/><rect fill="#FFFFFF" height="31.291" style="stroke:#181818;stroke-width:1.0;" width="10" x="250.5" y="188.7852"/><rect fill="#FFFFFF" height="31.291" style="stroke:#181818;stroke-width:1.0;" width="10" x="250.5" y="251.3672"/><rect fill="#FFFFFF" height="183.0859" style="stroke:#181818;stroke-width:1.0;" width="10" x="250.5" y="1058.9238"/><rect fill="#FFFFFF" height="358.8711" style="stroke:#181818;stroke-width:1.0;" width="10" x="550.5" y="282.6582"/><rect fill="#FFFFFF" height="345.5508" style="stroke:#181818;stroke-width:1.0;" width="10" x="550.5" y="713.373"/><rect fill="#FFFFFF" height="213.416" style="stroke:#181818;stroke-width:1.0;" width="10" x="740.5" y="814.2168"/><rect fill="#FFFFFF" height="79.543" style="stroke:#181818;stroke-width:1.0;" width="10" x="958.5" y="420.8223"/><rect fill="#FFFFFF" height="694.0625" style="stroke:#181818;stroke-width:1.0;" width="10" x="958.5" y="548.9473"/><rect fill="#FFFFFF" height="31.291" style="stroke:#181818;stroke-width:1.0;" width="10" x="1224" y="358.2402"/><rect fill="#FFFFFF" height="31.291" style="stroke:#181818;stroke-width:1.0;" width="10" x="1295.5" y="548.9473"/><rect fill="#FFFFFF" height="164.3965" style="stroke:#181818;stroke-width:1.0;" width="10" x="1295.5" y="611.5293"/><rect fill="#FFFFFF" height="31.291" style="stroke:#181818;stroke-width:1.0;" width="10" x="1295.5" y="1090.2148"/><path d="M1305,98.6211 L1305,159.6211 L1677,159.6211 L1677,108.6211 L1667,98.6211 L1305,98.6211 " fill="#FEFFDD" style="stroke:#181818;stroke-width:0.5;"/><path d="M1667,98.6211 L1667,108.6211 L1677,108.6211 L1667,98.6211 " fill="#FEFFDD" style="stroke:#181818;stroke-width:0.5;"/><text fill="#000000" font-family="sans-serif" font-size="13" lengthAdjust="spacing" textLength="299" x="1311" y="117.6494">Optional abstractions are not fully represented here.</text><text fill="#000000" font-family="sans-serif" font-size="13" lengthAdjust="spacing" textLength="351" x="1311" y="134.9404">Must read java Optional documentation in order to implement</text><text fill="#000000" font-family="sans-serif" font-size="13" lengthAdjust="spacing" textLength="54" x="1311" y="152.2314">our code.</text><polygon fill="#181818" points="238.5,184.7852,248.5,188.7852,238.5,192.7852,242.5,188.7852" style="stroke:#181818;stroke-width:1.0;"/><line style="stroke:#181818;stroke-width:1.0;" x1="42.5" x2="244.5" y1="188.7852" y2="188.7852"/><text fill="#000000" font-family="sans-serif" font-size="13" font-weight="bold" lengthAdjust="spacing" textLength="7" x="49.5" y="183.5225">1</text><text fill="#000000" font-family="sans-serif" font-size="13" lengthAdjust="spacing" textLength="80" x="60.5" y="183.5225">wants to login</text><polygon fill="#181818" points="53.5,216.0762,43.5,220.0762,53.5,224.0762,49.5,220.0762" style="stroke:#181818;stroke-width:1.0;"/><line style="stroke:#181818;stroke-width:1.0;stroke-dasharray:2.0,2.0;" x1="47.5" x2="254.5" y1="220.0762" y2="220.0762"/><text fill="#000000" font-family="sans-serif" font-size="13" font-weight="bold" lengthAdjust="spacing" textLength="7" x="59.5" y="214.8135">2</text><text fill="#000000" font-family="sans-serif" font-size="13" lengthAdjust="spacing" textLength="165" x="70.5" y="214.8135">asks for email and password</text><polygon fill="#181818" points="238.5,247.3672,248.5,251.3672,238.5,255.3672,242.5,251.3672" style="stroke:#181818;stroke-width:1.0;"/><line style="stroke:#181818;stroke-width:1.0;" x1="42.5" x2="244.5" y1="251.3672" y2="251.3672"/><text fill="#000000" font-family="sans-serif" font-size="13" font-weight="bold" lengthAdjust="spacing" textLength="7" x="49.5" y="246.1045">3</text><text fill="#000000" font-family="sans-serif" font-size="13" lengthAdjust="spacing" textLength="178" x="60.5" y="246.1045">provides necessary information</text><polygon fill="#181818" points="538.5,278.6582,548.5,282.6582,538.5,286.6582,542.5,282.6582" style="stroke:#181818;stroke-width:1.0;"/><line style="stroke:#181818;stroke-width:1.0;" x1="255.5" x2="544.5" y1="282.6582" y2="282.6582"/><text fill="#000000" font-family="sans-serif" font-size="13" font-weight="bold" lengthAdjust="spacing" textLength="7" x="262.5" y="277.3955">4</text><text fill="#000000" font-family="sans-serif" font-size="13" lengthAdjust="spacing" textLength="260" x="273.5" y="277.3955">authenticate(email, password, requiredRoles)</text><line style="stroke:#181818;stroke-width:1.0;" x1="560.5" x2="602.5" y1="313.9492" y2="313.9492"/><line style="stroke:#181818;stroke-width:1.0;" x1="602.5" x2="602.5" y1="313.9492" y2="326.9492"/><line style="stroke:#181818;stroke-width:1.0;" x1="561.5" x2="602.5" y1="326.9492" y2="326.9492"/><polygon fill="#181818" points="571.5,322.9492,561.5,326.9492,571.5,330.9492,567.5,326.9492" style="stroke:#181818;stroke-width:1.0;"/><text fill="#000000" font-family="sans-serif" font-size="13" font-weight="bold" lengthAdjust="spacing" textLength="7" x="567.5" y="308.6865">5</text><text fill="#000000" font-family="sans-serif" font-size="13" lengthAdjust="spacing" textLength="107" x="578.5" y="308.6865">retrieveUser(email)</text><polygon fill="#181818" points="1212,354.2402,1222,358.2402,1212,362.2402,1216,358.2402" style="stroke:#181818;stroke-width:1.0;"/><line style="stroke:#181818;stroke-width:1.0;" x1="560.5" x2="1218" y1="358.2402" y2="358.2402"/><text fill="#000000" font-family="sans-serif" font-size="13" font-weight="bold" lengthAdjust="spacing" textLength="7" x="567.5" y="352.9775">6</text><text fill="#000000" font-family="sans-serif" font-size="13" lengthAdjust="spacing" textLength="152" x="578.5" y="352.9775">Email.valueOf(emailString)</text><polygon fill="#181818" points="571.5,385.5313,561.5,389.5313,571.5,393.5313,567.5,389.5313" style="stroke:#181818;stroke-width:1.0;"/><line style="stroke:#181818;stroke-width:1.0;stroke-dasharray:2.0,2.0;" x1="565.5" x2="1228" y1="389.5313" y2="389.5313"/><text fill="#000000" font-family="sans-serif" font-size="13" font-weight="bold" lengthAdjust="spacing" textLength="7" x="577.5" y="384.2686">7</text><text fill="#000000" font-family="sans-serif" font-size="13" lengthAdjust="spacing" textLength="31" x="588.5" y="384.2686">email</text><polygon fill="#181818" points="946.5,416.8223,956.5,420.8223,946.5,424.8223,950.5,420.8223" style="stroke:#181818;stroke-width:1.0;"/><line style="stroke:#181818;stroke-width:1.0;" x1="560.5" x2="952.5" y1="420.8223" y2="420.8223"/><text fill="#000000" font-family="sans-serif" font-size="13" font-weight="bold" lengthAdjust="spacing" textLength="7" x="567.5" y="415.5596">8</text><text fill="#000000" font-family="sans-serif" font-size="13" lengthAdjust="spacing" textLength="91" x="578.5" y="415.5596">ofIdentity(email)</text><rect fill="none" height="43.252" style="stroke:#000000;stroke-width:1.5;" width="160" x="901" y="428.8223"/><path d="M901,428.8223 L963,428.8223 L963,437.8223 L953,447.8223 L901,447.8223 L901,428.8223 " fill="#EEEEEE" style="stroke:#000000;stroke-width:2.0;"/><text fill="#000000" font-family="sans-serif" font-size="13" font-weight="bold" lengthAdjust="spacing" textLength="17" x="914" y="444.8506">ref</text><text fill="#000000" font-family="sans-serif" font-size="12" lengthAdjust="spacing" textLength="152" x="905" y="464.7715">Repository_Implementation</text><polygon fill="#181818" points="571.5,496.3652,561.5,500.3652,571.5,504.3652,567.5,500.3652" style="stroke:#181818;stroke-width:1.0;"/><line style="stroke:#181818;stroke-width:1.0;stroke-dasharray:2.0,2.0;" x1="565.5" x2="962.5" y1="500.3652" y2="500.3652"/><text fill="#000000" font-family="sans-serif" font-size="13" font-weight="bold" lengthAdjust="spacing" textLength="7" x="577.5" y="495.1025">9</text><text fill="#000000" font-family="sans-serif" font-size="13" lengthAdjust="spacing" textLength="45" x="588.5" y="495.1025">optional</text><polygon fill="#181818" points="1283.5,544.9473,1293.5,548.9473,1283.5,552.9473,1287.5,548.9473" style="stroke:#181818;stroke-width:1.0;"/><line style="stroke:#181818;stroke-width:1.0;" x1="560.5" x2="1289.5" y1="548.9473" y2="548.9473"/><text fill="#000000" font-family="sans-serif" font-size="13" font-weight="bold" lengthAdjust="spacing" textLength="14" x="567.5" y="535.0391">10</text><text fill="#000000" font-family="sans-serif" font-size="13" lengthAdjust="spacing" textLength="346" x="585.5" y="526.3936">filter(user -&gt; user.passwordMatches(password, encoder) &amp;&amp;</text><text fill="#000000" font-family="sans-serif" font-size="13" lengthAdjust="spacing" textLength="274" x="589.5" y="543.6846">(noRolesToValidate(roles) || u.hasAnyOf(roles)))</text><polygon fill="#181818" points="571.5,576.2383,561.5,580.2383,571.5,584.2383,567.5,580.2383" style="stroke:#181818;stroke-width:1.0;"/><line style="stroke:#181818;stroke-width:1.0;stroke-dasharray:2.0,2.0;" x1="565.5" x2="1299.5" y1="580.2383" y2="580.2383"/><text fill="#000000" font-family="sans-serif" font-size="13" font-weight="bold" lengthAdjust="spacing" textLength="14" x="577.5" y="574.9756">11</text><text fill="#000000" font-family="sans-serif" font-size="13" lengthAdjust="spacing" textLength="45" x="595.5" y="574.9756">optional</text><polygon fill="#181818" points="1283.5,607.5293,1293.5,611.5293,1283.5,615.5293,1287.5,611.5293" style="stroke:#181818;stroke-width:1.0;"/><line style="stroke:#181818;stroke-width:1.0;" x1="560.5" x2="1289.5" y1="611.5293" y2="611.5293"/><text fill="#000000" font-family="sans-serif" font-size="13" font-weight="bold" lengthAdjust="spacing" textLength="14" x="567.5" y="606.2666">12</text><text fill="#000000" font-family="sans-serif" font-size="13" lengthAdjust="spacing" textLength="65" x="585.5" y="606.2666">orElse(null)</text><path d="M466,656.5293 L527,656.5293 L527,665.8203 L517,675.8203 L466,675.8203 L466,656.5293 " fill="#EEEEEE" style="stroke:#000000;stroke-width:1.5;"/><rect fill="none" height="127.3965" style="stroke:#000000;stroke-width:1.5;" width="882" x="466" y="656.5293"/><text fill="#000000" font-family="sans-serif" font-size="13" font-weight="bold" lengthAdjust="spacing" textLength="16" x="481" y="671.5576">alt</text><text fill="#000000" font-family="sans-serif" font-size="11" font-weight="bold" lengthAdjust="spacing" textLength="185" x="542" y="670.3994">[user exists, password is correct</text><text fill="#000000" font-family="sans-serif" font-size="11" font-weight="bold" lengthAdjust="spacing" textLength="189" x="542" y="685.0303">and has one of the required roles]</text><polygon fill="#181818" points="571.5,709.373,561.5,713.373,571.5,717.373,567.5,713.373" style="stroke:#181818;stroke-width:1.0;"/><line style="stroke:#181818;stroke-width:1.0;stroke-dasharray:2.0,2.0;" x1="565.5" x2="1294.5" y1="713.373" y2="713.373"/><text fill="#000000" font-family="sans-serif" font-size="13" font-weight="bold" lengthAdjust="spacing" textLength="14" x="577.5" y="708.1104">13</text><text fill="#000000" font-family="sans-serif" font-size="13" lengthAdjust="spacing" textLength="25" x="595.5" y="708.1104">user</text><line style="stroke:#000000;stroke-width:1.0;stroke-dasharray:2.0,2.0;" x1="466" x2="1348" y1="722.373" y2="722.373"/><text fill="#000000" font-family="sans-serif" font-size="11" font-weight="bold" lengthAdjust="spacing" textLength="252" x="471" y="734.2432">[user does not exist or password is incorrect</text><text fill="#000000" font-family="sans-serif" font-size="11" font-weight="bold" lengthAdjust="spacing" textLength="239" x="471" y="748.874">or does not have one of the required roles]</text><polygon fill="#181818" points="571.5,771.9258,561.5,775.9258,571.5,779.9258,567.5,775.9258" style="stroke:#181818;stroke-width:1.0;"/><line style="stroke:#181818;stroke-width:1.0;stroke-dasharray:2.0,2.0;" x1="565.5" x2="1299.5" y1="775.9258" y2="775.9258"/><text fill="#000000" font-family="sans-serif" font-size="13" font-weight="bold" lengthAdjust="spacing" textLength="14" x="577.5" y="770.6631">14</text><text fill="#000000" font-family="sans-serif" font-size="13" lengthAdjust="spacing" textLength="20" x="595.5" y="770.6631">null</text><polygon fill="#181818" points="728.5,810.2168,738.5,814.2168,728.5,818.2168,732.5,814.2168" style="stroke:#181818;stroke-width:1.0;"/><line style="stroke:#181818;stroke-width:1.0;" x1="560.5" x2="734.5" y1="814.2168" y2="814.2168"/><text fill="#000000" font-family="sans-serif" font-size="13" font-weight="bold" lengthAdjust="spacing" textLength="14" x="567.5" y="808.9541">15</text><text fill="#000000" font-family="sans-serif" font-size="13" lengthAdjust="spacing" textLength="143" x="585.5" y="808.9541">createUserSession(user)</text><path d="M660,829.2168 L721,829.2168 L721,838.5078 L711,848.5078 L660,848.5078 L660,829.2168 " fill="#EEEEEE" style="stroke:#000000;stroke-width:1.5;"/><rect fill="none" height="123.834" style="stroke:#000000;stroke-width:1.5;" width="545" x="660" y="829.2168"/><text fill="#000000" font-family="sans-serif" font-size="13" font-weight="bold" lengthAdjust="spacing" textLength="16" x="675" y="844.2451">alt</text><text fill="#000000" font-family="sans-serif" font-size="11" font-weight="bold" lengthAdjust="spacing" textLength="323" x="736" y="843.0869">[user was previously valid and successfully authenticated]</text><polygon fill="#181818" points="1082,867.7988,1092,871.7988,1082,875.7988,1086,871.7988" style="stroke:#181818;stroke-width:1.0;"/><line style="stroke:#181818;stroke-width:1.0;stroke-dasharray:2.0,2.0;" x1="750.5" x2="1088" y1="871.7988" y2="871.7988"/><text fill="#000000" font-family="sans-serif" font-size="13" font-weight="bold" lengthAdjust="spacing" textLength="14" x="757.5" y="866.5361">16</text><text fill="#000000" font-family="sans-serif" font-size="13" lengthAdjust="spacing" textLength="69" x="775.5" y="866.5361">create(user)</text><rect fill="#E2E2F0" height="32.6211" rx="2.5" ry="2.5" style="stroke:#181818;stroke-width:0.5;" width="101" x="1094" y="848.5078"/><text fill="#000000" font-family="sans-serif" font-size="14" lengthAdjust="spacing" textLength="87" x="1101" y="870.6152">: UserSession</text><line style="stroke:#000000;stroke-width:1.0;stroke-dasharray:2.0,2.0;" x1="660" x2="1205" y1="893.1289" y2="893.1289"/><text fill="#000000" font-family="sans-serif" font-size="11" font-weight="bold" lengthAdjust="spacing" textLength="374" x="665" y="904.999">[user had something wrong with authentication so its object is null]</text><line style="stroke:#181818;stroke-width:1.0;" x1="750.5" x2="792.5" y1="932.0508" y2="932.0508"/><line style="stroke:#181818;stroke-width:1.0;" x1="792.5" x2="792.5" y1="932.0508" y2="945.0508"/><line style="stroke:#181818;stroke-width:1.0;" x1="751.5" x2="792.5" y1="945.0508" y2="945.0508"/><polygon fill="#181818" points="761.5,941.0508,751.5,945.0508,761.5,949.0508,757.5,945.0508" style="stroke:#181818;stroke-width:1.0;"/><text fill="#000000" font-family="sans-serif" font-size="13" font-weight="bold" lengthAdjust="spacing" textLength="14" x="757.5" y="926.7881">17</text><text fill="#000000" font-family="sans-serif" font-size="13" lengthAdjust="spacing" textLength="176" x="775.5" y="926.7881">clearSession() (session = null)</text><line style="stroke:#181818;stroke-width:1.0;" x1="750.5" x2="792.5" y1="983.3418" y2="983.3418"/><line style="stroke:#181818;stroke-width:1.0;" x1="792.5" x2="792.5" y1="983.3418" y2="996.3418"/><line style="stroke:#181818;stroke-width:1.0;" x1="751.5" x2="792.5" y1="996.3418" y2="996.3418"/><polygon fill="#181818" points="761.5,992.3418,751.5,996.3418,761.5,1000.3418,757.5,996.3418" style="stroke:#181818;stroke-width:1.0;"/><text fill="#000000" font-family="sans-serif" font-size="13" font-weight="bold" lengthAdjust="spacing" textLength="14" x="757.5" y="978.0791">18</text><text fill="#000000" font-family="sans-serif" font-size="13" lengthAdjust="spacing" textLength="53" x="775.5" y="978.0791">session()</text><polygon fill="#181818" points="571.5,1023.6328,561.5,1027.6328,571.5,1031.6328,567.5,1027.6328" style="stroke:#181818;stroke-width:1.0;"/><line style="stroke:#181818;stroke-width:1.0;stroke-dasharray:2.0,2.0;" x1="565.5" x2="744.5" y1="1027.6328" y2="1027.6328"/><text fill="#000000" font-family="sans-serif" font-size="13" font-weight="bold" lengthAdjust="spacing" textLength="14" x="577.5" y="1022.3701">19</text><text fill="#000000" font-family="sans-serif" font-size="13" lengthAdjust="spacing" textLength="45" x="595.5" y="1022.3701">optional</text><polygon fill="#181818" points="271.5,1054.9238,261.5,1058.9238,271.5,1062.9238,267.5,1058.9238" style="stroke:#181818;stroke-width:1.0;"/><line style="stroke:#181818;stroke-width:1.0;stroke-dasharray:2.0,2.0;" x1="265.5" x2="554.5" y1="1058.9238" y2="1058.9238"/><text fill="#000000" font-family="sans-serif" font-size="13" font-weight="bold" lengthAdjust="spacing" textLength="14" x="277.5" y="1053.6611">20</text><text fill="#000000" font-family="sans-serif" font-size="13" lengthAdjust="spacing" textLength="45" x="295.5" y="1053.6611">optional</text><polygon fill="#181818" points="1283.5,1086.2148,1293.5,1090.2148,1283.5,1094.2148,1287.5,1090.2148" style="stroke:#181818;stroke-width:1.0;"/><line style="stroke:#181818;stroke-width:1.0;" x1="260.5" x2="1289.5" y1="1090.2148" y2="1090.2148"/><text fill="#000000" font-family="sans-serif" font-size="13" font-weight="bold" lengthAdjust="spacing" textLength="14" x="267.5" y="1084.9521">21</text><text fill="#000000" font-family="sans-serif" font-size="13" lengthAdjust="spacing" textLength="63" x="285.5" y="1084.9521">isPresent()</text><polygon fill="#181818" points="271.5,1117.5059,261.5,1121.5059,271.5,1125.5059,267.5,1121.5059" style="stroke:#181818;stroke-width:1.0;"/><line style="stroke:#181818;stroke-width:1.0;stroke-dasharray:2.0,2.0;" x1="265.5" x2="1299.5" y1="1121.5059" y2="1121.5059"/><text fill="#000000" font-family="sans-serif" font-size="13" font-weight="bold" lengthAdjust="spacing" textLength="14" x="277.5" y="1116.2432">22</text><text fill="#000000" font-family="sans-serif" font-size="13" lengthAdjust="spacing" textLength="24" x="295.5" y="1116.2432">bool</text><path d="M10,1136.5059 L71,1136.5059 L71,1145.7969 L61,1155.7969 L10,1155.7969 L10,1136.5059 " fill="#EEEEEE" style="stroke:#000000;stroke-width:1.5;"/><rect fill="none" height="98.5039" style="stroke:#000000;stroke-width:1.5;" width="290" x="10" y="1136.5059"/><text fill="#000000" font-family="sans-serif" font-size="13" font-weight="bold" lengthAdjust="spacing" textLength="16" x="25" y="1151.5342">alt</text><text fill="#000000" font-family="sans-serif" font-size="11" font-weight="bold" lengthAdjust="spacing" textLength="128" x="86" y="1150.376">[there is user session]</text><polygon fill="#181818" points="53.5,1175.0879,43.5,1179.0879,53.5,1183.0879,49.5,1179.0879" style="stroke:#181818;stroke-width:1.0;"/><line style="stroke:#181818;stroke-width:1.0;stroke-dasharray:2.0,2.0;" x1="47.5" x2="249.5" y1="1179.0879" y2="1179.0879"/><text fill="#000000" font-family="sans-serif" font-size="13" font-weight="bold" lengthAdjust="spacing" textLength="14" x="59.5" y="1173.8252">23</text><text fill="#000000" font-family="sans-serif" font-size="13" lengthAdjust="spacing" textLength="164" x="77.5" y="1173.8252">informs login was a success</text><line style="stroke:#000000;stroke-width:1.0;stroke-dasharray:2.0,2.0;" x1="10" x2="300" y1="1188.0879" y2="1188.0879"/><text fill="#000000" font-family="sans-serif" font-size="11" font-weight="bold" lengthAdjust="spacing" textLength="142" x="15" y="1199.958">[there isn't user session]</text><polygon fill="#181818" points="53.5,1223.0098,43.5,1227.0098,53.5,1231.0098,49.5,1227.0098" style="stroke:#181818;stroke-width:1.0;"/><line style="stroke:#181818;stroke-width:1.0;stroke-dasharray:2.0,2.0;" x1="47.5" x2="249.5" y1="1227.0098" y2="1227.0098"/><text fill="#000000" font-family="sans-serif" font-size="13" font-weight="bold" lengthAdjust="spacing" textLength="14" x="59.5" y="1221.7471">24</text><text fill="#000000" font-family="sans-serif" font-size="13" lengthAdjust="spacing" textLength="107" x="77.5" y="1221.7471">informs login failed</text><!--SRC=[dLPDJ-Cm4BtdLumuG8DekLVQbJXmG5h42fOz8QtSP4hC9dQmdNHRyUDtngxpqQP2OW-hr9wFDs_UZBaedAljylgwBeLoJLKkCbrTMtnlK6KupwLuDQ9A4j4uhPfgXIOHcTC6pfujcZCG5XhwkE6p9Ac5SJAJDOM2ioNyqAzIFTy5AtbuUzEu0XMT22UrUaBJoWozBIKhfgoraRj9uzsXDODxn5fRIRYs7Km-cZBj3AOkdz1QokbjRFWUczrMGfR-6ldhCCP3pP15iD3x7qcYj4CmyhLmeDVzET2_w05YPPqXlkaN5MeGo0dMJLbkmM1jq19_c4E11XVUyxwnZgv43c-Y5NsWN6TDHSQUFP0AjCdHWDCWgxf4llB-kZ6GwPoYeSev6oRSRzaA0jitcasxNp3_Jjs59MoeOCinI-xxm4y61mbpDktybaJ8Nmjh-lJ4WQ2SjR1sG-YI78y276MiZMvbZXOKPjGPORPK6yMhV9sJ2BvxmN3kNduuy_clkkHNnE5x8mtcZxf4cnw06N3YfSgnVTG-ka5d9BR80WhHqv6PFrg2bywY5MM33-jWzqIEwZNjKmHHiNDWQTvd2LS3SBrjJ1HbJzPwVPTpnMuR4OrQwuV386cn9Mbq9noi7wK_Tr4lWMAM2Vbq_V6f1WWxNGyP78QEEACX-QnbwOWrDeiLB69dxeNB2hIplbEqfqYm9eNpynS5CwLzotxftwAKEVVM-1R2nmSqYqBO6xKbgiDXcYOJ70pEHcFPGVoalf7JH7tQt9OMPuhcE9r8DOZKgwjq7X_WFscTxPKAqjB06eEPUr4yFmKl6OMyKqZVdOx15-nZJPQo3EllE3CIr90wrpnej80y1gfY14Ag3eOUs1QYnQ_XONfEiigo8qwIez7R4RyPBK27WzNjfPIEYzkDUTqGRRHGMwaRIzkrPV7uVMIRZ5TBMBh3dP5tu4DUHhv_7YulEnJxr0TK5hIWhQxG5JJgi36Q_vTKXHYzYMG3abQgNhqHiSoo9-KWxw3m4aLNSmgpFHpu1a5hG-Oc0zZecuphEYtsGGFYKZufvEbrF1WCQN-6Doq2-7mCVSQLrk7gv11Icns_aioXxq1yo2EN4uzJU4biUCsyG4HKGz_E65LTk2y6NjCcteifzkQ0kDqHa-Fdw62rxlyMIvB_]--></g></svg>