<?xml version="1.0" encoding="us-ascii" standalone="no"?><svg xmlns="http://www.w3.org/2000/svg" xmlns:xlink="http://www.w3.org/1999/xlink" contentStyleType="text/css" height="902px" preserveAspectRatio="none" style="width:733px;height:902px;background:#FFFFFF;" version="1.1" viewBox="0 0 733 902" width="733px" zoomAndPan="magnify"><defs/><g><!--class ListCourseExamsUI--><g id="elem_ListCourseExamsUI"><rect codeLine="7" fill="#F1F1F1" height="79.2031" id="ListCourseExamsUI" rx="2.5" ry="2.5" style="stroke:#181818;stroke-width:0.5;" width="153" x="400.5" y="7"/><ellipse cx="415.5" cy="29.291" fill="#C2C2C2" rx="11" ry="11" style="stroke:#181818;stroke-width:1.0;"/><path d="M418.2656,25.166 Q418.4219,24.9473 418.6094,24.8379 Q418.7969,24.7285 419.0156,24.7285 Q419.3906,24.7285 419.625,24.9941 Q419.8594,25.2441 419.8594,25.8535 L419.8594,27.3066 Q419.8594,27.916 419.625,28.1816 Q419.3906,28.4473 419.0156,28.4473 Q418.6719,28.4473 418.4688,28.2441 Q418.2656,28.0566 418.1563,27.541 Q418.1094,27.1816 417.9219,26.9941 Q417.5938,26.6191 416.9844,26.4004 Q416.375,26.1816 415.75,26.1816 Q414.9844,26.1816 414.3438,26.5098 Q413.7188,26.8379 413.2188,27.5879 Q412.7344,28.3379 412.7344,29.3691 L412.7344,30.4629 Q412.7344,31.6973 413.625,32.5254 Q414.5156,33.3379 416.1094,33.3379 Q417.0469,33.3379 417.7031,33.0879 Q418.0938,32.9316 418.5156,32.4941 Q418.7813,32.2285 418.9219,32.1504 Q419.0781,32.0723 419.2813,32.0723 Q419.6094,32.0723 419.8594,32.3379 Q420.125,32.5879 420.125,32.9316 Q420.125,33.2754 419.7813,33.6816 Q419.2813,34.2598 418.4844,34.5879 Q417.4063,35.041 416.1094,35.041 Q414.5938,35.041 413.3906,34.416 Q412.4063,33.916 411.7188,32.8535 Q411.0313,31.7754 411.0313,30.4941 L411.0313,29.3379 Q411.0313,28.0098 411.6406,26.8691 Q412.2656,25.7129 413.3594,25.1035 Q414.4531,24.4785 415.6875,24.4785 Q416.4219,24.4785 417.0625,24.6504 Q417.7188,24.8066 418.2656,25.166 Z " fill="#000000"/><text fill="#000000" font-family="FG Virgil" font-size="12" font-style="italic" lengthAdjust="spacing" textLength="82" x="449" y="24.9492">&#171;presentation&#187;</text><text fill="#000000" font-family="FG Virgil" font-size="14" lengthAdjust="spacing" textLength="121" x="429.5" y="43.0684">ListCourseExamsUI</text><line style="stroke:#181818;stroke-width:0.5;" x1="401.5" x2="552.5" y1="51.582" y2="51.582"/><line style="stroke:#181818;stroke-width:0.5;" x1="401.5" x2="552.5" y1="59.582" y2="59.582"/><text fill="#000000" font-family="FG Virgil" font-size="14" lengthAdjust="spacing" textLength="60" x="406.5" y="78.6895">doShow()</text></g><!--class ListCourseExamsController--><g id="elem_ListCourseExamsController"><rect codeLine="10" fill="#F1F1F1" height="79.2031" id="ListCourseExamsController" rx="2.5" ry="2.5" style="stroke:#181818;stroke-width:0.5;" width="203" x="375.5" y="165"/><ellipse cx="390.5" cy="187.291" fill="#C2C2C2" rx="11" ry="11" style="stroke:#181818;stroke-width:1.0;"/><path d="M393.2656,183.166 Q393.4219,182.9473 393.6094,182.8379 Q393.7969,182.7285 394.0156,182.7285 Q394.3906,182.7285 394.625,182.9941 Q394.8594,183.2441 394.8594,183.8535 L394.8594,185.3066 Q394.8594,185.916 394.625,186.1816 Q394.3906,186.4473 394.0156,186.4473 Q393.6719,186.4473 393.4688,186.2441 Q393.2656,186.0566 393.1563,185.541 Q393.1094,185.1816 392.9219,184.9941 Q392.5938,184.6191 391.9844,184.4004 Q391.375,184.1816 390.75,184.1816 Q389.9844,184.1816 389.3438,184.5098 Q388.7188,184.8379 388.2188,185.5879 Q387.7344,186.3379 387.7344,187.3691 L387.7344,188.4629 Q387.7344,189.6973 388.625,190.5254 Q389.5156,191.3379 391.1094,191.3379 Q392.0469,191.3379 392.7031,191.0879 Q393.0938,190.9316 393.5156,190.4941 Q393.7813,190.2285 393.9219,190.1504 Q394.0781,190.0723 394.2813,190.0723 Q394.6094,190.0723 394.8594,190.3379 Q395.125,190.5879 395.125,190.9316 Q395.125,191.2754 394.7813,191.6816 Q394.2813,192.2598 393.4844,192.5879 Q392.4063,193.041 391.1094,193.041 Q389.5938,193.041 388.3906,192.416 Q387.4063,191.916 386.7188,190.8535 Q386.0313,189.7754 386.0313,188.4941 L386.0313,187.3379 Q386.0313,186.0098 386.6406,184.8691 Q387.2656,183.7129 388.3594,183.1035 Q389.4531,182.4785 390.6875,182.4785 Q391.4219,182.4785 392.0625,182.6504 Q392.7188,182.8066 393.2656,183.166 Z " fill="#000000"/><text fill="#000000" font-family="FG Virgil" font-size="12" font-style="italic" lengthAdjust="spacing" textLength="74" x="453" y="182.9492">&#171;application&#187;</text><text fill="#000000" font-family="FG Virgil" font-size="14" lengthAdjust="spacing" textLength="171" x="404.5" y="201.0684">ListCourseExamsController</text><line style="stroke:#181818;stroke-width:0.5;" x1="376.5" x2="577.5" y1="209.582" y2="209.582"/><line style="stroke:#181818;stroke-width:0.5;" x1="376.5" x2="577.5" y1="217.582" y2="217.582"/><text fill="#000000" font-family="FG Virgil" font-size="14" lengthAdjust="spacing" textLength="114" x="381.5" y="236.6895">listCourseExams()</text></g><!--class AuthorizationService--><g id="elem_AuthorizationService"><rect codeLine="14" fill="#F1F1F1" height="97.8242" id="AuthorizationService" rx="2.5" ry="2.5" style="stroke:#181818;stroke-width:0.5;" width="286" x="7" y="323"/><ellipse cx="81.25" cy="345.291" fill="#C2C2C2" rx="11" ry="11" style="stroke:#181818;stroke-width:1.0;"/><path d="M84.0156,341.166 Q84.1719,340.9473 84.3594,340.8379 Q84.5469,340.7285 84.7656,340.7285 Q85.1406,340.7285 85.375,340.9941 Q85.6094,341.2441 85.6094,341.8535 L85.6094,343.3066 Q85.6094,343.916 85.375,344.1816 Q85.1406,344.4473 84.7656,344.4473 Q84.4219,344.4473 84.2188,344.2441 Q84.0156,344.0566 83.9063,343.541 Q83.8594,343.1816 83.6719,342.9941 Q83.3438,342.6191 82.7344,342.4004 Q82.125,342.1816 81.5,342.1816 Q80.7344,342.1816 80.0938,342.5098 Q79.4688,342.8379 78.9688,343.5879 Q78.4844,344.3379 78.4844,345.3691 L78.4844,346.4629 Q78.4844,347.6973 79.375,348.5254 Q80.2656,349.3379 81.8594,349.3379 Q82.7969,349.3379 83.4531,349.0879 Q83.8438,348.9316 84.2656,348.4941 Q84.5313,348.2285 84.6719,348.1504 Q84.8281,348.0723 85.0313,348.0723 Q85.3594,348.0723 85.6094,348.3379 Q85.875,348.5879 85.875,348.9316 Q85.875,349.2754 85.5313,349.6816 Q85.0313,350.2598 84.2344,350.5879 Q83.1563,351.041 81.8594,351.041 Q80.3438,351.041 79.1406,350.416 Q78.1563,349.916 77.4688,348.8535 Q76.7813,347.7754 76.7813,346.4941 L76.7813,345.3379 Q76.7813,344.0098 77.3906,342.8691 Q78.0156,341.7129 79.1094,341.1035 Q80.2031,340.4785 81.4375,340.4785 Q82.1719,340.4785 82.8125,340.6504 Q83.4688,340.8066 84.0156,341.166 Z " fill="#000000"/><text fill="#000000" font-family="FG Virgil" font-size="12" font-style="italic" lengthAdjust="spacing" textLength="53" x="139.75" y="340.9492">&#171;service&#187;</text><text fill="#000000" font-family="FG Virgil" font-size="14" lengthAdjust="spacing" textLength="129" x="101.75" y="359.0684">AuthorizationService</text><line style="stroke:#181818;stroke-width:0.5;" x1="8" x2="292" y1="367.582" y2="367.582"/><line style="stroke:#181818;stroke-width:0.5;" x1="8" x2="292" y1="375.582" y2="375.582"/><text fill="#000000" font-family="FG Virgil" font-size="14" lengthAdjust="spacing" textLength="274" x="13" y="394.6895">ensureAuthenticatedUserHasAnyOf(Role...)</text><text fill="#000000" font-family="FG Virgil" font-size="14" lengthAdjust="spacing" textLength="58" x="13" y="413.3105">session()</text></g><!--class UserSession--><g id="elem_UserSession"><rect codeLine="19" fill="#F1F1F1" height="66.6211" id="UserSession" rx="2.5" ry="2.5" style="stroke:#181818;stroke-width:0.5;" width="137" x="81.5" y="506"/><ellipse cx="108.2" cy="522" fill="#C2C2C2" rx="11" ry="11" style="stroke:#181818;stroke-width:1.0;"/><path d="M110.9656,517.875 Q111.1219,517.6563 111.3094,517.5469 Q111.4969,517.4375 111.7156,517.4375 Q112.0906,517.4375 112.325,517.7031 Q112.5594,517.9531 112.5594,518.5625 L112.5594,520.0156 Q112.5594,520.625 112.325,520.8906 Q112.0906,521.1563 111.7156,521.1563 Q111.3719,521.1563 111.1688,520.9531 Q110.9656,520.7656 110.8563,520.25 Q110.8094,519.8906 110.6219,519.7031 Q110.2938,519.3281 109.6844,519.1094 Q109.075,518.8906 108.45,518.8906 Q107.6844,518.8906 107.0438,519.2188 Q106.4188,519.5469 105.9188,520.2969 Q105.4344,521.0469 105.4344,522.0781 L105.4344,523.1719 Q105.4344,524.4063 106.325,525.2344 Q107.2156,526.0469 108.8094,526.0469 Q109.7469,526.0469 110.4031,525.7969 Q110.7938,525.6406 111.2156,525.2031 Q111.4813,524.9375 111.6219,524.8594 Q111.7781,524.7813 111.9813,524.7813 Q112.3094,524.7813 112.5594,525.0469 Q112.825,525.2969 112.825,525.6406 Q112.825,525.9844 112.4813,526.3906 Q111.9813,526.9688 111.1844,527.2969 Q110.1063,527.75 108.8094,527.75 Q107.2938,527.75 106.0906,527.125 Q105.1063,526.625 104.4188,525.5625 Q103.7313,524.4844 103.7313,523.2031 L103.7313,522.0469 Q103.7313,520.7188 104.3406,519.5781 Q104.9656,518.4219 106.0594,517.8125 Q107.1531,517.1875 108.3875,517.1875 Q109.1219,517.1875 109.7625,517.3594 Q110.4188,517.5156 110.9656,517.875 Z " fill="#000000"/><text fill="#000000" font-family="FG Virgil" font-size="14" lengthAdjust="spacing" textLength="79" x="124.8" y="527.7969">UserSession</text><line style="stroke:#181818;stroke-width:0.5;" x1="82.5" x2="217.5" y1="538" y2="538"/><line style="stroke:#181818;stroke-width:0.5;" x1="82.5" x2="217.5" y1="546" y2="546"/><text fill="#000000" font-family="FG Virgil" font-size="14" lengthAdjust="spacing" textLength="125" x="87.5" y="565.1074">authenticatedUser()</text></g><!--class ExamManagementService--><g id="elem_ExamManagementService"><rect codeLine="23" fill="#F1F1F1" height="79.2031" id="ExamManagementService" rx="2.5" ry="2.5" style="stroke:#181818;stroke-width:0.5;" width="298" x="328" y="332.5"/><ellipse cx="391.25" cy="354.791" fill="#C2C2C2" rx="11" ry="11" style="stroke:#181818;stroke-width:1.0;"/><path d="M394.0156,350.666 Q394.1719,350.4473 394.3594,350.3379 Q394.5469,350.2285 394.7656,350.2285 Q395.1406,350.2285 395.375,350.4941 Q395.6094,350.7441 395.6094,351.3535 L395.6094,352.8066 Q395.6094,353.416 395.375,353.6816 Q395.1406,353.9473 394.7656,353.9473 Q394.4219,353.9473 394.2188,353.7441 Q394.0156,353.5566 393.9063,353.041 Q393.8594,352.6816 393.6719,352.4941 Q393.3438,352.1191 392.7344,351.9004 Q392.125,351.6816 391.5,351.6816 Q390.7344,351.6816 390.0938,352.0098 Q389.4688,352.3379 388.9688,353.0879 Q388.4844,353.8379 388.4844,354.8691 L388.4844,355.9629 Q388.4844,357.1973 389.375,358.0254 Q390.2656,358.8379 391.8594,358.8379 Q392.7969,358.8379 393.4531,358.5879 Q393.8438,358.4316 394.2656,357.9941 Q394.5313,357.7285 394.6719,357.6504 Q394.8281,357.5723 395.0313,357.5723 Q395.3594,357.5723 395.6094,357.8379 Q395.875,358.0879 395.875,358.4316 Q395.875,358.7754 395.5313,359.1816 Q395.0313,359.7598 394.2344,360.0879 Q393.1563,360.541 391.8594,360.541 Q390.3438,360.541 389.1406,359.916 Q388.1563,359.416 387.4688,358.3535 Q386.7813,357.2754 386.7813,355.9941 L386.7813,354.8379 Q386.7813,353.5098 387.3906,352.3691 Q388.0156,351.2129 389.1094,350.6035 Q390.2031,349.9785 391.4375,349.9785 Q392.1719,349.9785 392.8125,350.1504 Q393.4688,350.3066 394.0156,350.666 Z " fill="#000000"/><text fill="#000000" font-family="FG Virgil" font-size="12" font-style="italic" lengthAdjust="spacing" textLength="53" x="466.75" y="350.4492">&#171;service&#187;</text><text fill="#000000" font-family="FG Virgil" font-size="14" lengthAdjust="spacing" textLength="163" x="411.75" y="368.5684">ExamManagementService</text><line style="stroke:#181818;stroke-width:0.5;" x1="329" x2="625" y1="377.082" y2="377.082"/><line style="stroke:#181818;stroke-width:0.5;" x1="329" x2="625" y1="385.082" y2="385.082"/><text fill="#000000" font-family="FG Virgil" font-size="14" lengthAdjust="spacing" textLength="286" x="334" y="404.1895">listAllCourseExams = findAllExamsByCourse()</text></g><!--class PersistenceContext--><g id="elem_PersistenceContext"><rect codeLine="27" fill="#F1F1F1" height="79.2031" id="PersistenceContext" rx="2.5" ry="2.5" style="stroke:#181818;stroke-width:0.5;" width="154" x="530" y="500"/><ellipse cx="545" cy="522.291" fill="#C2C2C2" rx="11" ry="11" style="stroke:#181818;stroke-width:1.0;"/><path d="M547.7656,518.166 Q547.9219,517.9473 548.1094,517.8379 Q548.2969,517.7285 548.5156,517.7285 Q548.8906,517.7285 549.125,517.9941 Q549.3594,518.2441 549.3594,518.8535 L549.3594,520.3066 Q549.3594,520.916 549.125,521.1816 Q548.8906,521.4473 548.5156,521.4473 Q548.1719,521.4473 547.9688,521.2441 Q547.7656,521.0566 547.6563,520.541 Q547.6094,520.1816 547.4219,519.9941 Q547.0938,519.6191 546.4844,519.4004 Q545.875,519.1816 545.25,519.1816 Q544.4844,519.1816 543.8438,519.5098 Q543.2188,519.8379 542.7188,520.5879 Q542.2344,521.3379 542.2344,522.3691 L542.2344,523.4629 Q542.2344,524.6973 543.125,525.5254 Q544.0156,526.3379 545.6094,526.3379 Q546.5469,526.3379 547.2031,526.0879 Q547.5938,525.9316 548.0156,525.4941 Q548.2813,525.2285 548.4219,525.1504 Q548.5781,525.0723 548.7813,525.0723 Q549.1094,525.0723 549.3594,525.3379 Q549.625,525.5879 549.625,525.9316 Q549.625,526.2754 549.2813,526.6816 Q548.7813,527.2598 547.9844,527.5879 Q546.9063,528.041 545.6094,528.041 Q544.0938,528.041 542.8906,527.416 Q541.9063,526.916 541.2188,525.8535 Q540.5313,524.7754 540.5313,523.4941 L540.5313,522.3379 Q540.5313,521.0098 541.1406,519.8691 Q541.7656,518.7129 542.8594,518.1035 Q543.9531,517.4785 545.1875,517.4785 Q545.9219,517.4785 546.5625,517.6504 Q547.2188,517.8066 547.7656,518.166 Z " fill="#000000"/><text fill="#000000" font-family="FG Virgil" font-size="12" font-style="italic" lengthAdjust="spacing" textLength="77" x="581.5" y="517.9492">&#171;persistence&#187;</text><text fill="#000000" font-family="FG Virgil" font-size="14" lengthAdjust="spacing" textLength="122" x="559" y="536.0684">PersistenceContext</text><line style="stroke:#181818;stroke-width:0.5;" x1="531" x2="683" y1="544.582" y2="544.582"/><line style="stroke:#181818;stroke-width:0.5;" x1="531" x2="683" y1="552.582" y2="552.582"/><text fill="#000000" font-family="FG Virgil" font-size="14" lengthAdjust="spacing" textLength="84" x="536" y="571.6895">repositories()</text></g><!--class RepositoryFactory--><g id="elem_RepositoryFactory"><rect codeLine="31" fill="#F1F1F1" height="79.2031" id="RepositoryFactory" rx="2.5" ry="2.5" style="stroke:#181818;stroke-width:0.5;" width="148" x="531" y="658"/><ellipse cx="546" cy="680.291" fill="#C2C2C2" rx="11" ry="11" style="stroke:#181818;stroke-width:1.0;"/><path d="M548.7656,676.166 Q548.9219,675.9473 549.1094,675.8379 Q549.2969,675.7285 549.5156,675.7285 Q549.8906,675.7285 550.125,675.9941 Q550.3594,676.2441 550.3594,676.8535 L550.3594,678.3066 Q550.3594,678.916 550.125,679.1816 Q549.8906,679.4473 549.5156,679.4473 Q549.1719,679.4473 548.9688,679.2441 Q548.7656,679.0566 548.6563,678.541 Q548.6094,678.1816 548.4219,677.9941 Q548.0938,677.6191 547.4844,677.4004 Q546.875,677.1816 546.25,677.1816 Q545.4844,677.1816 544.8438,677.5098 Q544.2188,677.8379 543.7188,678.5879 Q543.2344,679.3379 543.2344,680.3691 L543.2344,681.4629 Q543.2344,682.6973 544.125,683.5254 Q545.0156,684.3379 546.6094,684.3379 Q547.5469,684.3379 548.2031,684.0879 Q548.5938,683.9316 549.0156,683.4941 Q549.2813,683.2285 549.4219,683.1504 Q549.5781,683.0723 549.7813,683.0723 Q550.1094,683.0723 550.3594,683.3379 Q550.625,683.5879 550.625,683.9316 Q550.625,684.2754 550.2813,684.6816 Q549.7813,685.2598 548.9844,685.5879 Q547.9063,686.041 546.6094,686.041 Q545.0938,686.041 543.8906,685.416 Q542.9063,684.916 542.2188,683.8535 Q541.5313,682.7754 541.5313,681.4941 L541.5313,680.3379 Q541.5313,679.0098 542.1406,677.8691 Q542.7656,676.7129 543.8594,676.1035 Q544.9531,675.4785 546.1875,675.4785 Q546.9219,675.4785 547.5625,675.6504 Q548.2188,675.8066 548.7656,676.166 Z " fill="#000000"/><text fill="#000000" font-family="FG Virgil" font-size="12" font-style="italic" lengthAdjust="spacing" textLength="50" x="593" y="675.9492">&#171;factory&#187;</text><text fill="#000000" font-family="FG Virgil" font-size="14" lengthAdjust="spacing" textLength="116" x="560" y="694.0684">RepositoryFactory</text><line style="stroke:#181818;stroke-width:0.5;" x1="532" x2="678" y1="702.582" y2="702.582"/><line style="stroke:#181818;stroke-width:0.5;" x1="532" x2="678" y1="710.582" y2="710.582"/><text fill="#000000" font-family="FG Virgil" font-size="14" lengthAdjust="spacing" textLength="60" x="537" y="729.6895">courses()</text></g><!--class repositories.ExamRepository--><g id="elem_ExamRepository"><rect codeLine="35" fill="#F1F1F1" height="79.2031" id="repositories.ExamRepository" rx="2.5" ry="2.5" style="stroke:#181818;stroke-width:0.5;" width="134" x="439" y="816"/><ellipse cx="454" cy="838.291" fill="#C2C2C2" rx="11" ry="11" style="stroke:#181818;stroke-width:1.0;"/><path d="M456.7656,834.166 Q456.9219,833.9473 457.1094,833.8379 Q457.2969,833.7285 457.5156,833.7285 Q457.8906,833.7285 458.125,833.9941 Q458.3594,834.2441 458.3594,834.8535 L458.3594,836.3066 Q458.3594,836.916 458.125,837.1816 Q457.8906,837.4473 457.5156,837.4473 Q457.1719,837.4473 456.9688,837.2441 Q456.7656,837.0566 456.6563,836.541 Q456.6094,836.1816 456.4219,835.9941 Q456.0938,835.6191 455.4844,835.4004 Q454.875,835.1816 454.25,835.1816 Q453.4844,835.1816 452.8438,835.5098 Q452.2188,835.8379 451.7188,836.5879 Q451.2344,837.3379 451.2344,838.3691 L451.2344,839.4629 Q451.2344,840.6973 452.125,841.5254 Q453.0156,842.3379 454.6094,842.3379 Q455.5469,842.3379 456.2031,842.0879 Q456.5938,841.9316 457.0156,841.4941 Q457.2813,841.2285 457.4219,841.1504 Q457.5781,841.0723 457.7813,841.0723 Q458.1094,841.0723 458.3594,841.3379 Q458.625,841.5879 458.625,841.9316 Q458.625,842.2754 458.2813,842.6816 Q457.7813,843.2598 456.9844,843.5879 Q455.9063,844.041 454.6094,844.041 Q453.0938,844.041 451.8906,843.416 Q450.9063,842.916 450.2188,841.8535 Q449.5313,840.7754 449.5313,839.4941 L449.5313,838.3379 Q449.5313,837.0098 450.1406,835.8691 Q450.7656,834.7129 451.8594,834.1035 Q452.9531,833.4785 454.1875,833.4785 Q454.9219,833.4785 455.5625,833.6504 Q456.2188,833.8066 456.7656,834.166 Z " fill="#000000"/><text fill="#000000" font-family="FG Virgil" font-size="12" font-style="italic" lengthAdjust="spacing" textLength="68" x="485" y="833.9492">&#171;repository&#187;</text><text fill="#000000" font-family="FG Virgil" font-size="14" lengthAdjust="spacing" textLength="102" x="468" y="852.0684">repositories.ExamRepository</text><line style="stroke:#181818;stroke-width:0.5;" x1="440" x2="572" y1="860.582" y2="860.582"/><text fill="#000000" font-family="FG Virgil" font-size="14" lengthAdjust="spacing" textLength="101" x="445" y="879.6895">allCourseExams</text><line style="stroke:#181818;stroke-width:0.5;" x1="440" x2="572" y1="887.2031" y2="887.2031"/></g><!--link ListCourseExamsUI to ListCourseExamsController--><g id="link_ListCourseExamsUI_ListCourseExamsController"><path codeLine="39" d="M477,86.06 C477,108.37 477,136.53 477,159.68 " fill="none" id="ListCourseExamsUI-to-ListCourseExamsController" style="stroke:#181818;stroke-width:1.0;"/><polygon fill="#181818" points="477,164.84,481,155.84,477,159.84,473,155.84,477,164.84" style="stroke:#181818;stroke-width:1.0;"/><text fill="#000000" font-family="FG Virgil" font-size="13" lengthAdjust="spacing" textLength="75" x="478" y="131.0283">the controller</text></g><!--link ListCourseExamsController to AuthorizationService--><g id="link_ListCourseExamsController_AuthorizationService"><path codeLine="40" d="M400.75,244.09 C355.77,266.86 298.34,295.92 249.79,320.49 " fill="none" id="ListCourseExamsController-to-AuthorizationService" style="stroke:#181818;stroke-width:1.0;"/><polygon fill="#181818" points="245.12,322.86,254.9563,322.3625,249.5806,320.6011,251.342,315.2254,245.12,322.86" style="stroke:#181818;stroke-width:1.0;"/><text fill="#000000" font-family="FG Virgil" font-size="13" lengthAdjust="spacing" textLength="32" x="335" y="289.0283">autzh</text></g><!--link ListCourseExamsController to ExamManagementService--><g id="link_ListCourseExamsController_ExamManagementService"><path codeLine="41" d="M477,244.3 C477,269.2 477,301.58 477,327.37 " fill="none" id="ListCourseExamsController-to-ExamManagementService" style="stroke:#181818;stroke-width:1.0;"/><polygon fill="#181818" points="477,332.44,481,323.44,477,327.44,473,323.44,477,332.44" style="stroke:#181818;stroke-width:1.0;"/><text fill="#000000" font-family="FG Virgil" font-size="13" lengthAdjust="spacing" textLength="40" x="478" y="289.0283">service</text></g><!--link ListCourseExamsController to PersistenceContext--><g id="link_ListCourseExamsController_PersistenceContext"><path codeLine="42" d="M562.16,244.21 C593.49,263.17 625.56,289.29 643,323 C671.31,377.72 649.2,449.75 629.26,495.1 " fill="none" id="ListCourseExamsController-to-PersistenceContext" style="stroke:#181818;stroke-width:1.0;"/><polygon fill="#181818" points="627.22,499.68,634.5515,493.1036,629.2653,495.1175,627.2515,489.8312,627.22,499.68" style="stroke:#181818;stroke-width:1.0;"/><text fill="#000000" font-family="FG Virgil" font-size="13" lengthAdjust="spacing" textLength="67" x="658" y="377.5283">persistence</text></g><!--link AuthorizationService to UserSession--><g id="link_AuthorizationService_UserSession"><path codeLine="43" d="M150,421.31 C150,446.59 150,477.09 150,500.64 " fill="none" id="AuthorizationService-to-UserSession" style="stroke:#181818;stroke-width:1.0;"/><polygon fill="#181818" points="150,505.86,154,496.86,150,500.86,146,496.86,150,505.86" style="stroke:#181818;stroke-width:1.0;"/><text fill="#000000" font-family="FG Virgil" font-size="13" lengthAdjust="spacing" textLength="45" x="151" y="466.0283">session</text></g><!--link ExamManagementService to PersistenceContext--><g id="link_ExamManagementService_PersistenceContext"><path codeLine="44" d="M507.48,411.8 C527.28,437.01 553.11,469.89 573.49,495.84 " fill="none" id="ExamManagementService-to-PersistenceContext" style="stroke:#181818;stroke-width:1.0;"/><polygon fill="#181818" points="576.71,499.94,574.2964,490.3915,573.6215,496.0079,568.0051,495.333,576.71,499.94" style="stroke:#181818;stroke-width:1.0;"/><text fill="#000000" font-family="FG Virgil" font-size="13" lengthAdjust="spacing" textLength="67" x="551" y="466.0283">persistence</text></g><!--link ExamManagementService to repositories.ExamRepository--><g id="link_ExamManagementService_ExamRepository"><path codeLine="45" d="M479.32,411.59 C484.65,500.07 497.73,717.14 503.35,810.56 " fill="none" id="ExamManagementService-to-repositories.ExamRepository" style="stroke:#181818;stroke-width:1.0;"/><polygon fill="#181818" points="503.66,815.73,507.1122,806.506,503.3597,810.739,499.1267,806.9865,503.66,815.73" style="stroke:#181818;stroke-width:1.0;"/><text fill="#000000" font-family="FG Virgil" font-size="13" lengthAdjust="spacing" textLength="25" x="494" y="624.0283">repo</text></g><!--link PersistenceContext to RepositoryFactory--><g id="link_PersistenceContext_RepositoryFactory"><path codeLine="46" d="M606.51,579.06 C606.22,601.37 605.86,629.53 605.56,652.68 " fill="none" id="PersistenceContext-to-RepositoryFactory" style="stroke:#181818;stroke-width:1.0;"/><polygon fill="#181818" points="605.5,657.84,609.6026,648.8863,605.5571,652.8403,601.6031,648.7949,605.5,657.84" style="stroke:#181818;stroke-width:1.0;"/><text fill="#000000" font-family="FG Virgil" font-size="13" lengthAdjust="spacing" textLength="39" x="608" y="624.0283">factory</text></g><!--link RepositoryFactory to repositories.ExamRepository--><g id="link_RepositoryFactory_ExamRepository"><path codeLine="47" d="M580.53,737.06 C566.19,759.66 548.05,788.24 533.26,811.55 " fill="none" id="RepositoryFactory-to-repositories.ExamRepository" style="stroke:#181818;stroke-width:1.0;"/><polygon fill="#181818" points="530.53,815.84,538.7401,810.3999,533.2172,811.6235,531.9936,806.1005,530.53,815.84" style="stroke:#181818;stroke-width:1.0;"/><text fill="#000000" font-family="FG Virgil" font-size="13" lengthAdjust="spacing" textLength="25" x="563" y="782.0283">repo</text></g><!--SRC=[ZPBFRi8m3CRlUOeSsM4yGCMG61hRfFqJYDsjrAKHQLB5wJQOzkvp2fG2PQoNjixt_UpOfgMs9NWePE6iKxbt1ShWAnJKd9IWbh30MLWPb1vLQ9sbc45bmiJPy09idTpBT-qNshGqb4FgFhLTo0mCeH3A095yqXJ6hlA4TrzGqFnH3WQbHq8R86XdXqFvBIG_gPlbxhDt9NwwdMDExfqnw9a0PMcqEWIOGtrDsg96LSYTr-lQC4F_eHKoXJPV3G4jLHwZcAkBU4pdh7a06jdLQzQREeFzVl-g5XCICQsT9efdc_2M2CUijZoM-GoMcrwmvdnPyM8ZOrftapSoqpRbOFrxkzgSjU5lw8bzQ1N6pk5NY8tV1nkwnzAH3jmUFEZPT1TVJK355_kppLVZLNLQEhxKtigUXh-tmS5belTqIwwlXtziG2Avhvn-5n3dfH7KEVyaJcUTNx1s3ocHso5TS7TC8P6jAOZEogAplKl9Rjb4TpN_odJUUZIof5u9qG6CujErIEHsBSJfsNcy-0K0]--></g></svg>