<?xml version="1.0" encoding="us-ascii" standalone="no"?><svg xmlns="http://www.w3.org/2000/svg" xmlns:xlink="http://www.w3.org/1999/xlink" contentStyleType="text/css" height="604px" preserveAspectRatio="none" style="width:416px;height:604px;background:#FFFFFF;" version="1.1" viewBox="0 0 416 604" width="416px" zoomAndPan="magnify"><defs/><g><text fill="#000000" font-family="sans-serif" font-size="14" font-weight="bold" lengthAdjust="spacing" textLength="158" x="122" y="25.1074">Domain Model Excerpt</text><!--cluster User Aggregate--><g id="cluster_User Aggregate"><rect fill="none" height="552" rx="2.5" ry="2.5" style="stroke:#000000;stroke-width:1.5;" width="403" x="7" y="46.6211"/><text fill="#000000" font-family="sans-serif" font-size="14" font-weight="bold" lengthAdjust="spacing" textLength="110" x="153.5" y="63.7285">User Aggregate</text></g><!--class User--><g id="elem_User"><rect codeLine="28" fill="#D8F5FF" height="68.543" id="User" rx="2.5" ry="2.5" style="stroke:#1E90FF;stroke-width:0.5;" width="71" x="84.5" y="266.1211"/><ellipse cx="99.5" cy="296.3926" fill="#ADD1B2" rx="11" ry="11" style="stroke:#181818;stroke-width:1.0;"/><path d="M98.3594,297.1895 L98.3594,299.6895 L102.6875,299.6895 L102.6875,298.7676 Q102.6875,298.1582 102.9219,297.8926 Q103.1719,297.627 103.5469,297.627 Q103.9219,297.627 104.1563,297.8926 Q104.3906,298.1582 104.3906,298.7676 L104.3906,301.3926 L96.3906,301.3926 Q95.7656,301.3926 95.5,301.1582 Q95.25,300.9238 95.25,300.5332 Q95.25,300.1582 95.5156,299.9238 Q95.7813,299.6895 96.3906,299.6895 L96.6563,299.6895 L96.6563,293.0332 L96.3906,293.0332 Q95.7656,293.0332 95.5,292.7988 Q95.25,292.5645 95.25,292.1738 Q95.25,291.7988 95.5,291.5645 Q95.7656,291.3301 96.3906,291.3301 L104.0156,291.3301 L104.0156,293.9238 Q104.0156,294.5332 103.7813,294.7988 Q103.5625,295.0488 103.1719,295.0488 Q102.7969,295.0488 102.5625,294.7988 Q102.3281,294.5332 102.3281,293.9238 L102.3281,293.0332 L98.3594,293.0332 L98.3594,295.4863 L99.8438,295.4863 Q99.8438,294.8301 99.9688,294.6426 Q100.2344,294.2363 100.7031,294.2363 Q101.0781,294.2363 101.3125,294.502 Q101.5469,294.752 101.5469,295.3613 L101.5469,297.3301 Q101.5469,297.877 101.4219,298.0645 Q101.1563,298.4551 100.7031,298.4551 Q100.2344,298.4551 99.9688,298.0488 Q99.8438,297.8613 99.8438,297.1895 L98.3594,297.1895 Z " fill="#000000"/><text fill="#000000" font-family="sans-serif" font-size="12" font-style="italic" lengthAdjust="spacing" textLength="43" x="111.5" y="284.0703">&#171;entity&#187;</text><text fill="#000000" font-family="sans-serif" font-size="12" font-style="italic" lengthAdjust="spacing" textLength="35" x="115.5" y="300.0313">&#171;root&#187;</text><text fill="#000000" font-family="sans-serif" font-size="14" lengthAdjust="spacing" textLength="29" x="118.5" y="318.1504">User</text><line style="stroke:#1E90FF;stroke-width:0.5;" x1="85.5" x2="154.5" y1="326.6641" y2="326.6641"/></g><!--class Role--><g id="elem_Role"><rect codeLine="41" fill="#D8F5FF" height="108.4453" id="Role" rx="2.5" ry="2.5" style="stroke:#1E90FF;stroke-width:0.5;" width="113" x="279" y="474.6211"/><ellipse cx="294" cy="496.9121" fill="#EB937F" rx="11" ry="11" style="stroke:#181818;stroke-width:1.0;"/><path d="M292.8594,497.709 L292.8594,500.209 L297.1875,500.209 L297.1875,499.2871 Q297.1875,498.6777 297.4219,498.4121 Q297.6719,498.1465 298.0469,498.1465 Q298.4219,498.1465 298.6563,498.4121 Q298.8906,498.6777 298.8906,499.2871 L298.8906,501.9121 L290.8906,501.9121 Q290.2656,501.9121 290,501.6777 Q289.75,501.4434 289.75,501.0527 Q289.75,500.6777 290.0156,500.4434 Q290.2813,500.209 290.8906,500.209 L291.1563,500.209 L291.1563,493.5527 L290.8906,493.5527 Q290.2656,493.5527 290,493.3184 Q289.75,493.084 289.75,492.6934 Q289.75,492.3184 290,492.084 Q290.2656,491.8496 290.8906,491.8496 L298.5156,491.8496 L298.5156,494.4434 Q298.5156,495.0527 298.2813,495.3184 Q298.0625,495.5684 297.6719,495.5684 Q297.2969,495.5684 297.0625,495.3184 Q296.8281,495.0527 296.8281,494.4434 L296.8281,493.5527 L292.8594,493.5527 L292.8594,496.0059 L294.3438,496.0059 Q294.3438,495.3496 294.4688,495.1621 Q294.7344,494.7559 295.2031,494.7559 Q295.5781,494.7559 295.8125,495.0215 Q296.0469,495.2715 296.0469,495.8809 L296.0469,497.8496 Q296.0469,498.3965 295.9219,498.584 Q295.6563,498.9746 295.2031,498.9746 Q294.7344,498.9746 294.4688,498.5684 Q294.3438,498.3809 294.3438,497.709 L292.8594,497.709 Z " fill="#000000"/><text fill="#000000" font-family="sans-serif" font-size="12" font-style="italic" lengthAdjust="spacing" textLength="85" x="306" y="492.5703">&#171;Value Object&#187;</text><text fill="#000000" font-family="sans-serif" font-size="14" lengthAdjust="spacing" textLength="29" x="334" y="510.6895">Role</text><line style="stroke:#1E90FF;stroke-width:0.5;" x1="280" x2="391" y1="519.2031" y2="519.2031"/><text fill="#000000" font-family="sans-serif" font-size="14" lengthAdjust="spacing" textLength="53" x="285" y="538.3105">Teacher</text><text fill="#000000" font-family="sans-serif" font-size="14" lengthAdjust="spacing" textLength="49" x="285" y="556.9316">Student</text><text fill="#000000" font-family="sans-serif" font-size="14" lengthAdjust="spacing" textLength="56" x="285" y="575.5527">Manager</text></g><g id="elem_GMN16"><path d="M23,506.1211 L23,550.7031 A0,0 0 0 0 23,550.7031 L217,550.7031 A0,0 0 0 0 217,550.7031 L217,532.6211 L278.87,528.6211 L217,524.6211 L217,516.1211 L207,506.1211 L23,506.1211 A0,0 0 0 0 23,506.1211 " fill="#FEFFDD" style="stroke:#181818;stroke-width:0.5;"/><path d="M207,506.1211 L207,516.1211 L217,516.1211 L207,506.1211 " fill="#FEFFDD" style="stroke:#181818;stroke-width:0.5;"/><text fill="#000000" font-family="sans-serif" font-size="13" lengthAdjust="spacing" textLength="173" x="29" y="525.1494">This is only used for purposes</text><text fill="#000000" font-family="sans-serif" font-size="13" lengthAdjust="spacing" textLength="88" x="29" y="542.4404">of authorization</text></g><!--entity Email--><g id="elem_Email"><rect fill="#D8F5FF" height="43.2422" rx="2.5" ry="2.5" style="stroke:#1E90FF;stroke-width:0.5;" width="117" x="277" y="396.1211"/><text fill="#000000" font-family="sans-serif" font-size="14" font-style="italic" lengthAdjust="spacing" textLength="97" x="287" y="414.2285">&#171;Value Object&#187;</text><text fill="#000000" font-family="sans-serif" font-size="14" lengthAdjust="spacing" textLength="34" x="318.5" y="432.8496">Email</text></g><!--entity Password--><g id="elem_Password"><rect fill="#D8F5FF" height="43.2422" rx="2.5" ry="2.5" style="stroke:#1E90FF;stroke-width:0.5;" width="117" x="277" y="318.1211"/><text fill="#000000" font-family="sans-serif" font-size="14" font-style="italic" lengthAdjust="spacing" textLength="97" x="287" y="336.2285">&#171;Value Object&#187;</text><text fill="#000000" font-family="sans-serif" font-size="14" lengthAdjust="spacing" textLength="61" x="305" y="354.8496">Password</text></g><!--entity FullName--><g id="elem_FullName"><rect fill="#D8F5FF" height="43.2422" rx="2.5" ry="2.5" style="stroke:#1E90FF;stroke-width:0.5;" width="117" x="277" y="240.1211"/><text fill="#000000" font-family="sans-serif" font-size="14" font-style="italic" lengthAdjust="spacing" textLength="97" x="287" y="258.2285">&#171;Value Object&#187;</text><text fill="#000000" font-family="sans-serif" font-size="14" lengthAdjust="spacing" textLength="59" x="306" y="276.8496">FullName</text></g><!--entity ShortName--><g id="elem_ShortName"><rect fill="#D8F5FF" height="43.2422" rx="2.5" ry="2.5" style="stroke:#1E90FF;stroke-width:0.5;" width="117" x="277" y="162.1211"/><text fill="#000000" font-family="sans-serif" font-size="14" font-style="italic" lengthAdjust="spacing" textLength="97" x="287" y="180.2285">&#171;Value Object&#187;</text><text fill="#000000" font-family="sans-serif" font-size="14" lengthAdjust="spacing" textLength="70" x="300.5" y="198.8496">ShortName</text></g><!--entity UserState--><g id="elem_UserState"><rect fill="#D8F5FF" height="43.2422" rx="2.5" ry="2.5" style="stroke:#1E90FF;stroke-width:0.5;" width="117" x="277" y="84.1211"/><text fill="#000000" font-family="sans-serif" font-size="14" font-style="italic" lengthAdjust="spacing" textLength="97" x="287" y="102.2285">&#171;Value Object&#187;</text><text fill="#000000" font-family="sans-serif" font-size="14" lengthAdjust="spacing" textLength="62" x="304.5" y="120.8496">UserState</text></g><!--link User to Email--><g id="link_User_Email"><path codeLine="47" d="M155.78,319.6811 C192.45,339.7811 250.34,371.5011 290.25,393.3711 " fill="none" id="User-to-Email" style="stroke:#1E90FF;stroke-width:1.0;"/><polygon fill="#1E90FF" points="295.02,395.9911,289.0451,388.1617,290.6338,393.5908,285.2046,395.1796,295.02,395.9911" style="stroke:#1E90FF;stroke-width:1.0;"/></g><!--link User to Password--><g id="link_User_Password"><path codeLine="48" d="M155.78,306.9711 C187.1,312.6911 233.9,321.2411 271.75,328.1611 " fill="none" id="User-to-Password" style="stroke:#1E90FF;stroke-width:1.0;"/><polygon fill="#1E90FF" points="276.8,329.0811,268.6678,323.5252,271.8818,328.1804,267.2267,331.3944,276.8,329.0811" style="stroke:#1E90FF;stroke-width:1.0;"/></g><!--link User to FullName--><g id="link_User_FullName"><path codeLine="49" d="M155.78,294.2711 C187.1,288.5511 233.9,280.0011 271.75,273.0811 " fill="none" id="User-to-FullName" style="stroke:#1E90FF;stroke-width:1.0;"/><polygon fill="#1E90FF" points="276.8,272.1611,267.2267,269.8478,271.8818,273.0618,268.6678,277.7169,276.8,272.1611" style="stroke:#1E90FF;stroke-width:1.0;"/></g><!--link User to ShortName--><g id="link_User_ShortName"><path codeLine="50" d="M155.78,281.5611 C192.45,261.4611 250.34,229.7411 290.25,207.8711 " fill="none" id="User-to-ShortName" style="stroke:#1E90FF;stroke-width:1.0;"/><polygon fill="#1E90FF" points="295.02,205.2511,285.2046,206.0626,290.6338,207.6514,289.0451,213.0805,295.02,205.2511" style="stroke:#1E90FF;stroke-width:1.0;"/></g><!--link User to Role--><g id="link_User_Role"><path codeLine="51" d="M153.43,335.2511 C187.06,371.1611 240.23,427.9411 280.27,470.7011 " fill="none" id="User-to-Role" style="stroke:#1E90FF;stroke-width:1.0;"/><polygon fill="#1E90FF" points="283.85,474.5411,280.6139,465.2391,280.4308,470.893,274.7769,470.7098,283.85,474.5411" style="stroke:#1E90FF;stroke-width:1.0;"/></g><!--link User to UserState--><g id="link_User_UserState"><path codeLine="52" d="M152.15,265.8611 C182.48,232.9211 230.65,182.9311 277,144.6211 C282.89,139.7511 289.39,134.9011 295.84,130.3611 " fill="none" id="User-to-UserState" style="stroke:#1E90FF;stroke-width:1.0;"/><polygon fill="#1E90FF" points="300.28,127.2711,290.6048,129.1122,296.1711,130.1201,295.1632,135.6865,300.28,127.2711" style="stroke:#1E90FF;stroke-width:1.0;"/></g><!--SRC=[pLHBRzim3BxxLn3TOQS2knJO8J2GFW84IDjWRdTNBSRMAei6HQrBX_xtCdBgpkjhnma6398V7zzdokB48vnIPro0SxBeuUnNZTnBKRJE8dGeBTbOUDm8206xfXMmZh4MHw4eugqBlM7JGUrDZ7CHTZT9S5bJgDmzmfSN6FXTW9wLs-3A1JmcjiWdv8br4jiW7_k4KuYfRnkc5Em0cw_Ng-N9_6fvUP5nVyS_dNvT72qMEJPdfhjNgx_H-E7FWNkjR1giPAiwxKYRq7YSK39i_tz6UnvmS1rHkpKDOsC43_QJOn0dMyZ1sMomod8sOo8fowBud2C_ZLO3klcXEiISbycVwVPuJVkUmvSvN9P3uOTds5e__PqE-35oaRo_C1r-ZAnQOlatw8v19ShvNIY6rC4tyYzHUwLsvmfDtIAFTYN9gcQZVMw2QitxilcLzJiyB0UnfgudOQRU9n6ctf7mrBsRUEePwGxz0odnV8bfyupEP5eNGHyAVWifeeMDRa-VkAU8SOHfcadwBs1tR_BD7zIokR9ks2C0]--></g></svg>