<?xml version="1.0" encoding="us-ascii" standalone="no"?><svg xmlns="http://www.w3.org/2000/svg" xmlns:xlink="http://www.w3.org/1999/xlink" contentStyleType="text/css" height="866px" preserveAspectRatio="none" style="width:506px;height:866px;background:#FFFFFF;" version="1.1" viewBox="0 0 506 866" width="506px" zoomAndPan="magnify"><defs/><g><text fill="#000000" font-family="sans-serif" font-size="14" font-weight="bold" lengthAdjust="spacing" textLength="160" x="166" y="23.5352">domain Model Excerpt</text><!--cluster User Aggregate--><g id="cluster_User Aggregate"><rect fill="none" height="816" rx="2.5" ry="2.5" style="stroke:#000000;stroke-width:1.5;" width="493" x="7" y="44.4883"/><text fill="#000000" font-family="sans-serif" font-size="14" font-weight="bold" lengthAdjust="spacing" textLength="110" x="198.5" y="60.0234">User Aggregate</text></g><!--class User--><g id="elem_User"><rect codeLine="28" fill="#D8F5FF" height="62.7539" id="User" rx="2.5" ry="2.5" style="stroke:#1E90FF;stroke-width:0.5;" width="71" x="93.5" y="400.9883"/><ellipse cx="108.5" cy="428.3652" fill="#ADD1B2" rx="11" ry="11" style="stroke:#181818;stroke-width:1.0;"/><path d="M112.6143,434.3652 L104.8945,434.3652 L104.8945,421.9722 L112.6143,421.9722 L112.6143,424.1304 L107.3433,424.1304 L107.3433,426.8032 L112.1162,426.8032 L112.1162,428.9614 L107.3433,428.9614 L107.3433,432.207 L112.6143,432.207 Z " fill="#000000"/><text fill="#000000" font-family="sans-serif" font-size="12" font-style="italic" lengthAdjust="spacing" textLength="43" x="120.5" y="417.5898">&#171;entity&#187;</text><text fill="#000000" font-family="sans-serif" font-size="12" font-style="italic" lengthAdjust="spacing" textLength="35" x="124.5" y="431.7227">&#171;root&#187;</text><text fill="#000000" font-family="sans-serif" font-size="14" lengthAdjust="spacing" textLength="31" x="126.5" y="447.7891">User</text><line style="stroke:#1E90FF;stroke-width:0.5;" x1="94.5" x2="163.5" y1="455.7422" y2="455.7422"/></g><!--class Role--><g id="elem_Role"><rect codeLine="49" fill="#D8F5FF" height="98.0859" id="Role" rx="2.5" ry="2.5" style="stroke:#1E90FF;stroke-width:0.5;" width="114" x="332.5" y="746.4883"/><ellipse cx="347.5" cy="766.7988" fill="#EB937F" rx="11" ry="11" style="stroke:#181818;stroke-width:1.0;"/><path d="M351.6143,772.7988 L343.8945,772.7988 L343.8945,760.4058 L351.6143,760.4058 L351.6143,762.564 L346.3433,762.564 L346.3433,765.2368 L351.1162,765.2368 L351.1162,767.395 L346.3433,767.395 L346.3433,770.6406 L351.6143,770.6406 Z " fill="#000000"/><text fill="#000000" font-family="sans-serif" font-size="12" font-style="italic" lengthAdjust="spacing" textLength="86" x="359.5" y="763.0898">&#171;Value Object&#187;</text><text fill="#000000" font-family="sans-serif" font-size="14" lengthAdjust="spacing" textLength="30" x="387.5" y="779.1563">Role</text><line style="stroke:#1E90FF;stroke-width:0.5;" x1="333.5" x2="445.5" y1="787.1094" y2="787.1094"/><text fill="#000000" font-family="sans-serif" font-size="14" lengthAdjust="spacing" textLength="55" x="338.5" y="804.6445">Teacher</text><text fill="#000000" font-family="sans-serif" font-size="14" lengthAdjust="spacing" textLength="53" x="338.5" y="821.1328">Student</text><text fill="#000000" font-family="sans-serif" font-size="14" lengthAdjust="spacing" textLength="60" x="338.5" y="837.6211">Manager</text></g><g id="elem_GMN24"><path d="M23,774.9883 L23,815.6094 A0,0 0 0 0 23,815.6094 L235,815.6094 A0,0 0 0 0 235,815.6094 L235,799.4883 L332.33,795.4883 L235,791.4883 L235,784.9883 L225,774.9883 L23,774.9883 A0,0 0 0 0 23,774.9883 " fill="#FEFFDD" style="stroke:#181818;stroke-width:0.5;"/><path d="M225,774.9883 L225,784.9883 L235,784.9883 L225,774.9883 " fill="#FEFFDD" style="stroke:#181818;stroke-width:0.5;"/><text fill="#000000" font-family="sans-serif" font-size="13" lengthAdjust="spacing" textLength="191" x="29" y="792.5566">This is only used for purposes</text><text fill="#000000" font-family="sans-serif" font-size="13" lengthAdjust="spacing" textLength="101" x="29" y="807.8672">of authorization</text></g><!--entity Email--><g id="elem_Email"><rect fill="#D8F5FF" height="38.9766" rx="2.5" ry="2.5" style="stroke:#1E90FF;stroke-width:0.5;" width="120" x="329.5" y="671.9883"/><text fill="#000000" font-family="sans-serif" font-size="14" font-style="italic" lengthAdjust="spacing" textLength="100" x="339.5" y="688.5234">&#171;Value Object&#187;</text><text fill="#000000" font-family="sans-serif" font-size="14" lengthAdjust="spacing" textLength="37" x="371" y="705.0117">Email</text></g><!--entity Password--><g id="elem_Password"><rect fill="#D8F5FF" height="38.9766" rx="2.5" ry="2.5" style="stroke:#1E90FF;stroke-width:0.5;" width="120" x="329.5" y="597.9883"/><text fill="#000000" font-family="sans-serif" font-size="14" font-style="italic" lengthAdjust="spacing" textLength="100" x="339.5" y="614.5234">&#171;Value Object&#187;</text><text fill="#000000" font-family="sans-serif" font-size="14" lengthAdjust="spacing" textLength="65" x="357" y="631.0117">Password</text></g><!--entity FullName--><g id="elem_FullName"><rect fill="#D8F5FF" height="38.9766" rx="2.5" ry="2.5" style="stroke:#1E90FF;stroke-width:0.5;" width="120" x="329.5" y="523.9883"/><text fill="#000000" font-family="sans-serif" font-size="14" font-style="italic" lengthAdjust="spacing" textLength="100" x="339.5" y="540.5234">&#171;Value Object&#187;</text><text fill="#000000" font-family="sans-serif" font-size="14" lengthAdjust="spacing" textLength="64" x="357.5" y="557.0117">FullName</text></g><!--entity ShortName--><g id="elem_ShortName"><rect fill="#D8F5FF" height="38.9766" rx="2.5" ry="2.5" style="stroke:#1E90FF;stroke-width:0.5;" width="120" x="329.5" y="449.9883"/><text fill="#000000" font-family="sans-serif" font-size="14" font-style="italic" lengthAdjust="spacing" textLength="100" x="339.5" y="466.5234">&#171;Value Object&#187;</text><text fill="#000000" font-family="sans-serif" font-size="14" lengthAdjust="spacing" textLength="76" x="351.5" y="483.0117">ShortName</text></g><!--entity UserState--><g id="elem_UserState"><rect fill="#D8F5FF" height="38.9766" rx="2.5" ry="2.5" style="stroke:#1E90FF;stroke-width:0.5;" width="120" x="329.5" y="375.9883"/><text fill="#000000" font-family="sans-serif" font-size="14" font-style="italic" lengthAdjust="spacing" textLength="100" x="339.5" y="392.5234">&#171;Value Object&#187;</text><text fill="#000000" font-family="sans-serif" font-size="14" lengthAdjust="spacing" textLength="65" x="357" y="409.0117">UserState</text></g><!--entity MechanographicNumber--><g id="elem_MechanographicNumber"><rect fill="#D8F5FF" height="38.9766" rx="2.5" ry="2.5" style="stroke:#1E90FF;stroke-width:0.5;" width="189" x="295" y="301.9883"/><text fill="#000000" font-family="sans-serif" font-size="14" font-style="italic" lengthAdjust="spacing" textLength="100" x="339.5" y="318.5234">&#171;Value Object&#187;</text><text fill="#000000" font-family="sans-serif" font-size="14" lengthAdjust="spacing" textLength="169" x="305" y="335.0117">MechanographicNumber</text></g><!--entity Acronym--><g id="elem_Acronym"><rect fill="#D8F5FF" height="38.9766" rx="2.5" ry="2.5" style="stroke:#1E90FF;stroke-width:0.5;" width="120" x="329.5" y="227.9883"/><text fill="#000000" font-family="sans-serif" font-size="14" font-style="italic" lengthAdjust="spacing" textLength="100" x="339.5" y="244.5234">&#171;Value Object&#187;</text><text fill="#000000" font-family="sans-serif" font-size="14" lengthAdjust="spacing" textLength="61" x="359" y="261.0117">Acronym</text></g><!--entity BirthDate--><g id="elem_BirthDate"><rect fill="#D8F5FF" height="38.9766" rx="2.5" ry="2.5" style="stroke:#1E90FF;stroke-width:0.5;" width="120" x="329.5" y="153.9883"/><text fill="#000000" font-family="sans-serif" font-size="14" font-style="italic" lengthAdjust="spacing" textLength="100" x="339.5" y="170.5234">&#171;Value Object&#187;</text><text fill="#000000" font-family="sans-serif" font-size="14" lengthAdjust="spacing" textLength="63" x="358" y="187.0117">BirthDate</text></g><!--entity TaxPayerNumber--><g id="elem_TaxPayerNumber"><rect fill="#D8F5FF" height="38.9766" rx="2.5" ry="2.5" style="stroke:#1E90FF;stroke-width:0.5;" width="138" x="320.5" y="79.9883"/><text fill="#000000" font-family="sans-serif" font-size="14" font-style="italic" lengthAdjust="spacing" textLength="100" x="339.5" y="96.5234">&#171;Value Object&#187;</text><text fill="#000000" font-family="sans-serif" font-size="14" lengthAdjust="spacing" textLength="118" x="330.5" y="113.0117">TaxPayerNumber</text></g><!--link User to Email--><g id="link_User_Email"><path codeLine="55" d="M146.22,464.4683 C171.81,512.0283 225.84,601.4483 295,654.4883 C303.73,661.1783 313.83,666.8283 324.09,671.5283 " fill="none" id="User-to-Email" style="stroke:#1E90FF;stroke-width:1.0;"/><polygon fill="#1E90FF" points="328.46,673.8983,321.856,666.5916,323.8898,671.8702,318.6111,673.904,328.46,673.8983" style="stroke:#1E90FF;stroke-width:1.0;"/></g><!--link User to Password--><g id="link_User_Password"><path codeLine="56" d="M158.96,464.4283 C189.99,497.1383 241.98,547.6983 295,580.4883 C303.89,585.9883 313.75,590.9383 323.62,595.2983 " fill="none" id="User-to-Password" style="stroke:#1E90FF;stroke-width:1.0;"/><polygon fill="#1E90FF" points="328.1,597.6683,321.4115,590.4389,323.5065,595.6935,318.2519,597.7885,328.1,597.6683" style="stroke:#1E90FF;stroke-width:1.0;"/></g><!--link User to FullName--><g id="link_User_FullName"><path codeLine="57" d="M164.89,448.6783 C198.15,463.9883 249.73,487.3883 295,506.4883 C306.72,511.4283 319.34,516.5583 331.4,521.3583 " fill="none" id="User-to-FullName" style="stroke:#1E90FF;stroke-width:1.0;"/><polygon fill="#1E90FF" points="335.89,523.5483,328.9932,516.5174,331.2408,521.7086,326.0496,523.9562,335.89,523.5483" style="stroke:#1E90FF;stroke-width:1.0;"/></g><!--link User to ShortName--><g id="link_User_ShortName"><path codeLine="58" d="M164.86,437.4783 C205.34,443.2683 272.96,452.9483 323.27,460.1483 " fill="none" id="User-to-ShortName" style="stroke:#1E90FF;stroke-width:1.0;"/><polygon fill="#1E90FF" points="328,460.9683,319.6477,455.7492,323.0491,460.2692,318.5291,463.6706,328,460.9683" style="stroke:#1E90FF;stroke-width:1.0;"/></g><!--link User to Role--><g id="link_User_Role"><path codeLine="59" d="M142.22,464.2883 C165.44,521.7983 220.36,644.8783 295,728.4883 C304.51,739.1383 316,749.0683 327.63,757.8483 " fill="none" id="User-to-Role" style="stroke:#1E90FF;stroke-width:1.0;"/><polygon fill="#1E90FF" points="331.26,761.2783,326.4257,752.6975,327.248,758.2943,321.6513,759.1167,331.26,761.2783" style="stroke:#1E90FF;stroke-width:1.0;"/></g><!--link User to UserState--><g id="link_User_UserState"><path codeLine="60" d="M164.86,427.4983 C205.34,421.7083 272.96,412.0283 323.27,404.8283 " fill="none" id="User-to-UserState" style="stroke:#1E90FF;stroke-width:1.0;"/><polygon fill="#1E90FF" points="328,404.0083,318.5291,401.306,323.0491,404.7074,319.6477,409.2274,328,404.0083" style="stroke:#1E90FF;stroke-width:1.0;"/></g><!--link User to MechanographicNumber--><g id="link_User_MechanographicNumber"><path codeLine="61" d="M164.89,416.2983 C198.15,400.9883 249.73,377.5883 295,358.4883 C306.72,353.5483 319.34,348.4183 331.4,343.6183 " fill="none" id="User-to-MechanographicNumber" style="stroke:#1E90FF;stroke-width:1.0;"/><polygon fill="#1E90FF" points="335.89,341.4283,326.0496,341.0204,331.2408,343.268,328.9932,348.4592,335.89,341.4283" style="stroke:#1E90FF;stroke-width:1.0;"/></g><!--link User to Acronym--><g id="link_User_Acronym"><path codeLine="62" d="M158.96,400.5483 C189.99,367.8383 241.98,317.2783 295,284.4883 C303.89,278.9883 313.75,274.0383 323.62,269.6783 " fill="none" id="User-to-Acronym" style="stroke:#1E90FF;stroke-width:1.0;"/><polygon fill="#1E90FF" points="328.1,267.3083,318.2519,267.1881,323.5065,269.2831,321.4115,274.5377,328.1,267.3083" style="stroke:#1E90FF;stroke-width:1.0;"/></g><!--link User to BirthDate--><g id="link_User_BirthDate"><path codeLine="63" d="M146.22,400.5083 C171.81,352.9483 225.84,263.5283 295,210.4883 C303.73,203.7983 313.83,198.1483 324.09,193.4483 " fill="none" id="User-to-BirthDate" style="stroke:#1E90FF;stroke-width:1.0;"/><polygon fill="#1E90FF" points="328.46,191.0783,318.6111,191.0726,323.8898,193.1063,321.856,198.3849,328.46,191.0783" style="stroke:#1E90FF;stroke-width:1.0;"/></g><!--link User to TaxPayerNumber--><g id="link_User_TaxPayerNumber"><path codeLine="64" d="M139.7,400.6683 C159.45,340.8883 209.82,211.1283 295,136.4883 C301.29,130.9683 308.51,126.2283 316.08,122.1483 " fill="none" id="User-to-TaxPayerNumber" style="stroke:#1E90FF;stroke-width:1.0;"/><polygon fill="#1E90FF" points="320.37,119.4383,310.5371,119.9987,315.9239,121.7257,314.1969,127.1125,320.37,119.4383" style="stroke:#1E90FF;stroke-width:1.0;"/></g><!--SRC=[pLJ1Rjim3BtxAuZki5E1NGRi41XmcWO8aAJ1dEskM8ojLHODIbhh3lttANBgJak2x3Z1WA77HvgFJvPJJYD8QeKoi2A96kwVA-JEPLcZ94ABhY5fCurx1uw0LTqua8gnSefCbjb7PJh1eeLA2siBvrZjlCD5HQPKBmYVJZZmAuEmbcgFIsLmIYoHxqWJmunaZJpL7bEAg1vh9c_aG2isc-NYhjWk7jQHztVym-pB_FDy7cC5CpsThNxXmwz_Djo5ogB6qlLXJWVHmjGQ4qc2vV-lwAW3RhvP35-hQyPQEBmvTex6ATT334ucmoxF9nCcSdcUPHzZvAS8rO1sFy8SRCoBuk_3wT4XxNiCFyHmdW-5Nzzfcs3zKsZmEdFkjLwB5gypouRO_HlreA1qGVDrwWghHXYgMNIDgjQ-tSMnNCagAYRJjoT4E65E5RjcTgwLK-vMF6z4ZtoXYoG1ZM_XA-cBTGzhYw9gaCTzwRmCXe_xbJ3XeF2nR7n5yszlyy7f57fpDKNV74pHqQqKFdIS8gDNANpEbvHnz205nt6dS3hPGQcXO4gywsZ_tbSSMwCiX8UCxi5RbB0FFrddkIEBTgI5DE73bSdgHSGBSl15nihXH_mD]--></g></svg>