<?xml version="1.0" encoding="UTF-8" standalone="no"?><svg xmlns="http://www.w3.org/2000/svg" xmlns:xlink="http://www.w3.org/1999/xlink" contentStyleType="text/css" height="814px" preserveAspectRatio="none" style="width:1117px;height:814px;background:#FFFFFF;" version="1.1" viewBox="0 0 1117 814" width="1117px" zoomAndPan="magnify"><defs/><g><!--MD5=[475f3b715ca7ffb20b7527e2f35f29f1]
class HttpServerAjax--><g id="elem_HttpServerAjax"><polygon fill="#F1F1F1" points="747.5,7,747.5,7.2102,757.7,6.5857,767.9,7.1933,778.1,7.3997,788.3,6.2866,798.5,6.9223,808.7,6.5735,818.9,6.6165,829.1,6.9318,839.3,6.3086,849.5,7.5536,859.7,6.3697,869.9,6.8022,880.1,7.4319,890.3,6.9142,900.5,7.0682,910.7,6.9681,920.9,7.1785,931.1,7.2391,941.3,7.5857,951.5,7,951.5856,7.2067,951.9402,7.3556,952.2396,7.3713,952.6198,7.5821,953.0038,7.802,953.2678,7.7322,953.0457,7.6402,953.6232,8.1723,953.4693,8.4015,953.8715,8.861,953.7011,9.0833,954,9.5,953.9315,9.5,954.7416,19.1847,953.9513,28.8693,954.1053,38.554,954.3386,48.2386,954.4162,57.9233,953.9961,67.608,954.2872,77.2926,953.4276,86.9773,954.2844,96.6619,954.5482,106.3466,954,116.0313,954.1369,116.088,954.0423,116.463,953.5583,116.6767,953.3598,117.0087,953.2228,117.3662,953.2678,117.799,953.2603,117.7809,952.8891,117.8849,952.6476,118.3018,952.1848,118.1846,951.8098,118.2792,951.5,118.5313,951.5,118.7595,941.3,117.8644,931.1,118.0121,920.9,119.1802,910.7,118.9669,900.5,119.2657,890.3,118.2095,880.1,118.8504,869.9,119.1217,859.7,118.0588,849.5,118.4354,839.3,118.6572,829.1,119.183,818.9,118.5271,808.7,118.9938,798.5,117.9775,788.3,117.854,778.1,119.0349,767.9,117.8143,757.7,119.0402,747.5,118.5313,747.5264,118.5949,747.1123,118.3023,746.7478,118.1294,746.4979,118.2332,746.0476,117.8533,745.7322,117.799,745.9145,117.8745,745.4156,117.375,745.6295,117.1707,745.442,116.8001,745.2219,116.4161,745,116.0313,745.0472,116.0313,745.7266,106.3466,745.6136,96.6619,745.1693,86.9773,745.2682,77.2926,744.8697,67.608,745.7165,57.9233,745.1549,48.2386,745.1726,38.554,744.3916,28.8693,744.5948,19.1847,745,9.5,745.1634,9.5677,745.2788,9.2013,745.2797,8.7874,745.3401,8.3982,745.5184,8.0579,745.7322,7.7322,745.6447,7.5209,746.1387,7.7135,746.5337,7.6671,746.86,7.455,747.2351,7.3605,747.5,7" style="stroke:#181818;stroke-width:0.5;"/><polygon fill="#C2C2C2" points="809.8108,31.0272,808.1984,33.2304,806.2912,36.4573,803.5636,38.632,800.6974,39.8212,798.412,39.9244,795.4747,38.4371,792.7032,37.4655,790.5995,35.4927,789.4961,33.2343,788.8417,31.4361,788.2006,29.0873,787.16,27.066,787.9596,25.0926,788.6602,22.9308,791.2893,21.221,793.139,19.0027,795.4284,18.266,798.1501,17.6316,801.6404,18.0085,803.5521,18.9101,805.7747,19.3188,808.4772,22.0875,809.4193,25.0105,809.8286,27.0049,809.365,30.2914" style="stroke:#181818;stroke-width:1.0;"/><path d="M801.5156,24.2266 Q801.6719,24.0078 801.8594,23.8984 Q802.0469,23.7891 802.2656,23.7891 Q802.6406,23.7891 802.875,24.0547 Q803.1094,24.3047 803.1094,24.9141 L803.1094,26.3672 Q803.1094,26.9766 802.875,27.2422 Q802.6406,27.5078 802.2656,27.5078 Q801.9219,27.5078 801.7188,27.3047 Q801.5156,27.1172 801.4063,26.6016 Q801.3594,26.2422 801.1719,26.0547 Q800.8438,25.6797 800.2344,25.4609 Q799.625,25.2422 799,25.2422 Q798.2344,25.2422 797.5938,25.5703 Q796.9688,25.8984 796.4688,26.6484 Q795.9844,27.3984 795.9844,28.4297 L795.9844,29.5234 Q795.9844,30.7578 796.875,31.5859 Q797.7656,32.3984 799.3594,32.3984 Q800.2969,32.3984 800.9531,32.1484 Q801.3438,31.9922 801.7656,31.5547 Q802.0313,31.2891 802.1719,31.2109 Q802.3281,31.1328 802.5313,31.1328 Q802.8594,31.1328 803.1094,31.3984 Q803.375,31.6484 803.375,31.9922 Q803.375,32.3359 803.0313,32.7422 Q802.5313,33.3203 801.7344,33.6484 Q800.6563,34.1016 799.3594,34.1016 Q797.8438,34.1016 796.6406,33.4766 Q795.6563,32.9766 794.9688,31.9141 Q794.2813,30.8359 794.2813,29.5547 L794.2813,28.3984 Q794.2813,27.0703 794.8906,25.9297 Q795.5156,24.7734 796.6094,24.1641 Q797.7031,23.5391 798.9375,23.5391 Q799.6719,23.5391 800.3125,23.7109 Q800.9688,23.8672 801.5156,24.2266 Z " fill="#000000"/><text fill="#000000" font-family="FG Virgil" font-size="12" font-style="italic" lengthAdjust="spacing" textLength="71" x="830.25" y="24.457">«http server»</text><text fill="#000000" font-family="FG Virgil" font-size="14" lengthAdjust="spacing" textLength="93" x="819.25" y="41.627">HttpServerAjax</text><path d="M746,49.7031 L746,49.9834 L755.8571,49.1507 L765.7143,49.9608 L775.5714,50.236 L785.4286,48.7519 L795.2857,49.5995 L805.1429,49.1345 L815,49.1918 L824.8571,49.6122 L834.7143,48.7813 L844.5714,50.4413 L854.4286,48.8628 L864.2857,49.4394 L874.1429,50.2791 L884,49.5888 L893.8571,49.7941 L903.7143,49.6605 L913.5714,49.9412 L923.4286,50.022 L933.2857,50.484 L943.1429,50.5979 L953,49.7031 " fill="#F1F1F1" style="stroke:#181818;stroke-width:0.5;"/><path d="M746,57.7031 L746,57.9834 L755.8571,57.1507 L765.7143,57.9608 L775.5714,58.236 L785.4286,56.7519 L795.2857,57.5995 L805.1429,57.1345 L815,57.1918 L824.8571,57.6122 L834.7143,56.7813 L844.5714,58.4413 L854.4286,56.8628 L864.2857,57.4394 L874.1429,58.2791 L884,57.5888 L893.8571,57.7941 L903.7143,57.6605 L913.5714,57.9412 L923.4286,58.022 L933.2857,58.484 L943.1429,58.5979 L953,57.7031 " fill="#F1F1F1" style="stroke:#181818;stroke-width:0.5;"/><text fill="#000000" font-family="FG Virgil" font-size="14" lengthAdjust="spacing" textLength="196" x="751" y="76.2363">deletePostIt(PostItBody, String)</text><text fill="#000000" font-family="FG Virgil" font-size="14" lengthAdjust="spacing" textLength="188" x="751" y="93.8457">generateLockKey(PostItBody)</text><text fill="#000000" font-family="FG Virgil" font-size="14" lengthAdjust="spacing" textLength="197" x="751" y="111.4551">getOrCreateLockObject(String)</text></g><!--MD5=[1b4fe0dc8c47aa7bf1500c81a3f32c58]
class DeletePostItController--><g id="elem_DeletePostItController"><polygon fill="#F1F1F1" points="599,197,599,197.2102,608.8077,196.5857,618.6154,197.1933,628.4231,197.3997,638.2308,196.2866,648.0385,196.9223,657.8462,196.5735,667.6538,196.6165,677.4615,196.9318,687.2692,196.3086,697.0769,197.5536,706.8846,196.3697,716.6923,196.8022,726.5,197.4319,736.3077,196.9142,746.1154,197.0682,755.9231,196.9681,765.7308,197.1785,775.5385,197.2391,785.3462,197.5857,795.1538,197.6711,804.9615,197.6793,814.7692,197.2546,824.5769,197.4636,834.3846,197.7022,844.1923,196.2788,854,197,854.0866,197.209,854.3157,197.0551,854.7752,197.4573,854.9975,197.2869,855.4055,197.5647,855.7678,197.7322,855.9962,197.8268,855.8992,198.0796,856.0931,198.4528,856.3114,198.8361,856.4817,199.1995,856.5,199.5,856.4961,199.5,856.7872,209.6875,855.9276,219.875,856.7844,230.0625,857.0482,240.25,856.9445,250.4375,857.113,260.625,856.5,270.8125,856.3512,270.7509,856.1527,271.0829,856.0157,271.4403,856.0425,271.8656,855.8537,272.2016,855.7678,272.5803,855.8547,272.7901,855.3919,272.6729,855.0169,272.7675,854.7362,273.0899,854.2685,272.9607,854,273.3125,854,272.7934,844.1923,273.9615,834.3846,273.7482,824.5769,274.047,814.7692,272.9907,804.9615,273.6317,795.1538,273.9029,785.3462,272.8401,775.5385,273.2166,765.7308,273.4385,755.9231,273.9643,746.1154,273.3083,736.3077,273.7751,726.5,272.7587,716.6923,272.6352,706.8846,273.8161,697.0769,272.5956,687.2692,273.8215,677.4615,273.5191,667.6538,273.0446,657.8462,272.9587,648.0385,273.7713,638.2308,273.0132,628.4231,273.9044,618.6154,272.7598,608.8077,273.9299,599,273.3125,599.0618,273.4616,598.6777,273.2415,598.2989,273.0341,598.032,273.0969,597.6641,272.9157,597.2322,272.5803,597.2844,272.6019,597.1684,272.2609,596.8992,271.8565,597.0135,271.611,596.6941,271.1858,596.5,270.8125,596.6726,270.8125,595.8916,260.625,596.0948,250.4375,597.0307,240.25,596.9298,230.0625,596.4571,219.875,596.1778,209.6875,596.5,199.5,596.4326,199.4721,596.4351,199.0589,596.9206,198.8458,597.1671,198.5337,597.2479,198.1529,597.2322,197.7322,597.3209,197.9462,597.5683,197.5437,597.9505,197.4662,598.2435,197.1735,598.6827,197.2339,599,197" style="stroke:#181818;stroke-width:0.5;"/><polygon fill="#C2C2C2" points="664.3108,221.0272,662.6984,223.2304,660.7912,226.4573,658.0636,228.632,655.1974,229.8212,652.912,229.9244,649.9747,228.4371,647.2032,227.4655,645.0995,225.4927,643.9961,223.2343,643.3417,221.4361,642.7006,219.0873,641.66,217.066,642.4596,215.0926,643.1602,212.9308,645.7893,211.221,647.639,209.0027,649.9284,208.266,652.6501,207.6316,656.1404,208.0085,658.0521,208.9101,660.2747,209.3188,662.9772,212.0875,663.9193,215.0105,664.3286,217.0049,663.865,220.2914" style="stroke:#181818;stroke-width:1.0;"/><path d="M656.0156,214.2266 Q656.1719,214.0078 656.3594,213.8984 Q656.5469,213.7891 656.7656,213.7891 Q657.1406,213.7891 657.375,214.0547 Q657.6094,214.3047 657.6094,214.9141 L657.6094,216.3672 Q657.6094,216.9766 657.375,217.2422 Q657.1406,217.5078 656.7656,217.5078 Q656.4219,217.5078 656.2188,217.3047 Q656.0156,217.1172 655.9063,216.6016 Q655.8594,216.2422 655.6719,216.0547 Q655.3438,215.6797 654.7344,215.4609 Q654.125,215.2422 653.5,215.2422 Q652.7344,215.2422 652.0938,215.5703 Q651.4688,215.8984 650.9688,216.6484 Q650.4844,217.3984 650.4844,218.4297 L650.4844,219.5234 Q650.4844,220.7578 651.375,221.5859 Q652.2656,222.3984 653.8594,222.3984 Q654.7969,222.3984 655.4531,222.1484 Q655.8438,221.9922 656.2656,221.5547 Q656.5313,221.2891 656.6719,221.2109 Q656.8281,221.1328 657.0313,221.1328 Q657.3594,221.1328 657.6094,221.3984 Q657.875,221.6484 657.875,221.9922 Q657.875,222.3359 657.5313,222.7422 Q657.0313,223.3203 656.2344,223.6484 Q655.1563,224.1016 653.8594,224.1016 Q652.3438,224.1016 651.1406,223.4766 Q650.1563,222.9766 649.4688,221.9141 Q648.7813,220.8359 648.7813,219.5547 L648.7813,218.3984 Q648.7813,217.0703 649.3906,215.9297 Q650.0156,214.7734 651.1094,214.1641 Q652.2031,213.5391 653.4375,213.5391 Q654.1719,213.5391 654.8125,213.7109 Q655.4688,213.8672 656.0156,214.2266 Z " fill="#000000"/><text fill="#000000" font-family="FG Virgil" font-size="12" font-style="italic" lengthAdjust="spacing" textLength="74" x="705.75" y="214.457">«application»</text><text fill="#000000" font-family="FG Virgil" font-size="14" lengthAdjust="spacing" textLength="138" x="673.75" y="231.627">DeletePostItController</text><path d="M597.5,239.7031 L597.5,239.9834 L607.4231,239.1507 L617.3462,239.9608 L627.2692,240.236 L637.1923,238.7519 L647.1154,239.5995 L657.0385,239.1345 L666.9615,239.1918 L676.8846,239.6122 L686.8077,238.7813 L696.7308,240.4413 L706.6538,238.8628 L716.5769,239.4394 L726.5,240.2791 L736.4231,239.5888 L746.3462,239.7941 L756.2692,239.6605 L766.1923,239.9412 L776.1154,240.022 L786.0385,240.484 L795.9615,240.5979 L805.8846,240.6088 L815.8077,240.0426 L825.7308,240.3212 L835.6538,240.6394 L845.5769,238.7415 L855.5,239.7031 " fill="#F1F1F1" style="stroke:#181818;stroke-width:0.5;"/><path d="M597.5,247.7031 L597.5,247.9834 L607.4231,247.1507 L617.3462,247.9608 L627.2692,248.236 L637.1923,246.7519 L647.1154,247.5995 L657.0385,247.1345 L666.9615,247.1918 L676.8846,247.6122 L686.8077,246.7813 L696.7308,248.4413 L706.6538,246.8628 L716.5769,247.4394 L726.5,248.2791 L736.4231,247.5888 L746.3462,247.7941 L756.2692,247.6605 L766.1923,247.9412 L776.1154,248.022 L786.0385,248.484 L795.9615,248.5979 L805.8846,248.6088 L815.8077,248.0426 L825.7308,248.3212 L835.6538,248.6394 L845.5769,246.7415 L855.5,247.7031 " fill="#F1F1F1" style="stroke:#181818;stroke-width:0.5;"/><text fill="#000000" font-family="FG Virgil" font-size="14" lengthAdjust="spacing" textLength="248" x="602.5" y="266.2363">deletePostIt(String, String, String, User)</text></g><!--MD5=[f097a9da547c6f19ba7a5c97c093eb18]
class SessionManager--><g id="elem_SessionManager"><polygon fill="#F1F1F1" points="900,202,900,202.2102,909.9375,201.5857,919.875,202.1933,929.8125,202.3997,939.75,201.2866,949.6875,201.9223,959.625,201.5735,969.5625,201.6165,979.5,201.9318,989.4375,201.3086,999.375,202.5536,1009.3125,201.3697,1019.25,201.8022,1029.1875,202.4319,1039.125,201.9142,1049.0625,202.0682,1059,202,1058.9959,201.9902,1059.3763,202.2014,1059.7376,202.3665,1060.1354,202.6197,1060.4998,202.7924,1060.7678,202.7322,1060.977,202.8189,1060.9926,203.1183,1061.2034,203.4985,1061.4234,203.8825,1061.1315,204.0545,1061.5,204.5,1062.1785,204.5,1061.2035,214.6016,1062.0338,224.7031,1061.005,234.8047,1061.4315,244.9063,1062.2416,255.0078,1061.5,265.1094,1061.485,265.1032,1061.386,265.4764,1061.3114,265.8597,1061.1888,266.2231,1060.913,266.5231,1060.7678,266.8771,1060.8044,266.9656,1060.3412,266.8473,1060.0969,267.2576,1059.777,267.4853,1059.4103,267.5998,1059,267.6094,1059,268.2224,1049.0625,267.1263,1039.125,266.9572,1029.1875,266.988,1019.25,267.5505,1009.3125,267.4128,999.375,268.2908,989.4375,267.4347,979.5,267.2663,969.5625,267.8376,959.625,266.9425,949.6875,267.0902,939.75,268.2583,929.8125,268.045,919.875,268.3439,909.9375,267.2876,900,267.6094,900.0407,267.7077,899.7218,267.6448,899.2326,267.171,898.9271,267.1405,898.6019,267.0624,898.2322,266.8771,898.4329,266.9603,898.0845,266.5231,898.0818,266.229,897.6223,265.7458,897.4379,265.3765,897.5,265.1094,898.0036,265.1094,896.7831,255.0078,898.009,244.9063,897.7066,234.8047,897.2321,224.7031,897.1462,214.6016,897.5,204.5,897.6413,204.5585,897.5543,204.1083,897.9752,203.8684,897.7691,203.3688,898.2759,203.1645,898.2322,202.7322,898.294,202.8814,898.617,202.6612,898.9454,202.4539,899.3856,202.5167,899.7247,202.3354,900,202" style="stroke:#181818;stroke-width:0.5;"/><polygon fill="#C2C2C2" points="935.2608,220.6756,933.6484,222.8788,931.7412,226.1057,929.0136,228.2804,926.1474,229.4696,923.862,229.5728,920.9247,228.0855,918.1532,227.1139,916.0495,225.1412,914.9461,222.8828,914.2917,221.0845,913.6506,218.7357,912.61,216.7145,913.4096,214.741,914.1102,212.5792,916.7393,210.8695,918.589,208.6511,920.8784,207.9144,923.6001,207.2801,927.0904,207.657,929.0021,208.5585,931.2247,208.9672,933.9272,211.736,934.8693,214.659,935.2786,216.6534,934.815,219.9399" style="stroke:#181818;stroke-width:1.0;"/><path d="M926.9656,213.875 Q927.1219,213.6563 927.3094,213.5469 Q927.4969,213.4375 927.7156,213.4375 Q928.0906,213.4375 928.325,213.7031 Q928.5594,213.9531 928.5594,214.5625 L928.5594,216.0156 Q928.5594,216.625 928.325,216.8906 Q928.0906,217.1563 927.7156,217.1563 Q927.3719,217.1563 927.1688,216.9531 Q926.9656,216.7656 926.8563,216.25 Q926.8094,215.8906 926.6219,215.7031 Q926.2938,215.3281 925.6844,215.1094 Q925.075,214.8906 924.45,214.8906 Q923.6844,214.8906 923.0438,215.2188 Q922.4188,215.5469 921.9188,216.2969 Q921.4344,217.0469 921.4344,218.0781 L921.4344,219.1719 Q921.4344,220.4063 922.325,221.2344 Q923.2156,222.0469 924.8094,222.0469 Q925.7469,222.0469 926.4031,221.7969 Q926.7938,221.6406 927.2156,221.2031 Q927.4813,220.9375 927.6219,220.8594 Q927.7781,220.7813 927.9813,220.7813 Q928.3094,220.7813 928.5594,221.0469 Q928.825,221.2969 928.825,221.6406 Q928.825,221.9844 928.4813,222.3906 Q927.9813,222.9688 927.1844,223.2969 Q926.1063,223.75 924.8094,223.75 Q923.2938,223.75 922.0906,223.125 Q921.1063,222.625 920.4188,221.5625 Q919.7313,220.4844 919.7313,219.2031 L919.7313,218.0469 Q919.7313,216.7188 920.3406,215.5781 Q920.9656,214.4219 922.0594,213.8125 Q923.1531,213.1875 924.3875,213.1875 Q925.1219,213.1875 925.7625,213.3594 Q926.4188,213.5156 926.9656,213.875 Z " fill="#000000"/><text fill="#000000" font-family="FG Virgil" font-size="14" lengthAdjust="spacing" textLength="106" x="940.8" y="223.7285">SessionManager</text><path d="M898.5,234 L898.5,234.2802 L908.625,233.4476 L918.75,234.2577 L928.875,234.5329 L939,233.0488 L949.125,233.8964 L959.25,233.4313 L969.375,233.4887 L979.5,233.9091 L989.625,233.0782 L999.75,234.7382 L1009.875,233.1596 L1020,233.7363 L1030.125,234.5759 L1040.25,233.8856 L1050.375,234.091 L1060.5,234 " fill="#F1F1F1" style="stroke:#181818;stroke-width:0.5;"/><path d="M898.5,242 L898.5,242.2802 L908.625,241.4476 L918.75,242.2577 L928.875,242.5329 L939,241.0488 L949.125,241.8964 L959.25,241.4313 L969.375,241.4887 L979.5,241.9091 L989.625,241.0782 L999.75,242.7382 L1009.875,241.1596 L1020,241.7363 L1030.125,242.5759 L1040.25,241.8856 L1050.375,242.091 L1060.5,242 " fill="#F1F1F1" style="stroke:#181818;stroke-width:0.5;"/><text fill="#000000" font-family="FG Virgil" font-size="14" lengthAdjust="spacing" textLength="152" x="903.5" y="260.5332">getUserByToken(String)</text></g><!--MD5=[eb95342d67c177a44e4018fdebeb06c1]
class PostItService--><g id="elem_PostItService"><polygon fill="#F1F1F1" points="518.5,351,518.5,351.2102,528.6053,350.5857,538.7105,351.1933,548.8158,351.3997,558.9211,350.2866,569.0263,350.9223,579.1316,350.5735,589.2368,350.6165,599.3421,350.9318,609.4474,350.3086,619.5526,351.5536,629.6579,350.3697,639.7632,350.8022,649.8684,351.4319,659.9737,350.9142,670.0789,351.0682,680.1842,350.9681,690.2895,351.1785,700.3947,351.2391,710.5,351.5857,720.6053,351.6711,730.7105,351.6793,740.8158,351.2546,750.9211,351.4636,761.0263,351.7022,771.1316,350.2788,781.2368,351.6785,791.3421,350.7035,801.4474,351.5338,811.5526,350.505,821.6579,350.9315,831.7632,351.7416,841.8684,350.9513,851.9737,351.1053,862.0789,351.3386,872.1842,351.4162,882.2895,350.9961,892.3947,351.2872,902.5,351,902.427,350.8237,902.8898,351.234,903.277,351.4617,903.6174,351.5762,903.9924,351.7746,904.2678,351.7322,904.119,351.6706,904.2134,352.0026,904.3693,352.3601,904.689,352.7854,904.793,353.1214,905,353.5,905.6814,353.5,904.8253,363.625,904.6569,373.75,905.2283,383.875,904.3332,394,904.4809,404.125,905.649,414.25,905.4357,424.375,905.7345,434.5,904.6782,444.625,905.3192,454.75,905.5904,464.875,904.5276,475,904.9041,485.125,905,495.25,905.0388,495.2661,905.0543,495.6867,904.7058,495.9566,904.7031,496.3697,904.2437,496.5936,904.2678,497.0178,904.1814,496.8092,903.9785,497.3193,903.4692,497.0899,903.272,497.6138,902.8799,497.6672,902.5,497.75,902.5,497.4821,892.3947,497.3962,882.2895,498.2088,872.1842,497.4507,862.0789,498.3419,851.9737,497.1973,841.8684,498.3674,831.7632,498.2343,821.6579,497.995,811.5526,497.7972,801.4474,498.4766,791.3421,498.3636,781.2368,497.9193,771.1316,498.0182,761.0263,497.6197,750.9211,498.4665,740.8158,497.9049,730.7105,497.9226,720.6053,497.1416,710.5,497.3448,700.3947,498.2807,690.2895,498.1798,680.1842,497.7071,670.0789,497.4278,659.9737,497.5311,649.8684,497.0638,639.7632,498.1647,629.6579,498.4896,619.5526,498.2764,609.4474,498.4449,599.3421,497.6133,589.2368,497.8372,579.1316,497.3624,569.0263,498.034,558.9211,497.9968,548.8158,498.3024,538.7105,497.5203,528.6053,497.6156,518.5,497.75,518.5566,497.8866,518.2188,497.7783,517.7275,497.2993,517.4146,497.251,517.1048,497.2102,516.7322,497.0178,516.5441,496.9398,516.6946,496.7093,516.5188,496.3436,516.2619,495.9443,516.1903,495.6217,516,495.25,516.7287,495.25,515.6871,485.125,516.315,475,516.2856,464.875,516.1158,454.75,516.1409,444.625,516.1135,434.5,515.3758,424.375,515.5992,414.25,515.5385,404.125,516.0638,394,516.0881,383.875,516.1617,373.75,515.709,363.625,516,353.5,515.9792,353.4914,516.1094,353.1311,516.4705,352.8665,516.5707,352.4938,516.4363,352.0239,516.7322,351.7322,516.7229,351.7098,517.0122,351.408,517.4761,351.5282,517.8705,351.4803,518.2159,351.3142,518.5,351" style="stroke:#181818;stroke-width:0.5;"/><polygon fill="#C2C2C2" points="676.3108,375.0272,674.6984,377.2304,672.7912,380.4573,670.0636,382.632,667.1974,383.8212,664.912,383.9244,661.9747,382.4371,659.2032,381.4655,657.0995,379.4927,655.9961,377.2343,655.3417,375.4361,654.7006,373.0873,653.66,371.066,654.4596,369.0926,655.1602,366.9308,657.7893,365.221,659.639,363.0027,661.9284,362.266,664.6501,361.6316,668.1404,362.0085,670.0521,362.9101,672.2747,363.3188,674.9772,366.0875,675.9193,369.0105,676.3286,371.0049,675.865,374.2914" style="stroke:#181818;stroke-width:1.0;"/><path d="M668.0156,368.2266 Q668.1719,368.0078 668.3594,367.8984 Q668.5469,367.7891 668.7656,367.7891 Q669.1406,367.7891 669.375,368.0547 Q669.6094,368.3047 669.6094,368.9141 L669.6094,370.3672 Q669.6094,370.9766 669.375,371.2422 Q669.1406,371.5078 668.7656,371.5078 Q668.4219,371.5078 668.2188,371.3047 Q668.0156,371.1172 667.9063,370.6016 Q667.8594,370.2422 667.6719,370.0547 Q667.3438,369.6797 666.7344,369.4609 Q666.125,369.2422 665.5,369.2422 Q664.7344,369.2422 664.0938,369.5703 Q663.4688,369.8984 662.9688,370.6484 Q662.4844,371.3984 662.4844,372.4297 L662.4844,373.5234 Q662.4844,374.7578 663.375,375.5859 Q664.2656,376.3984 665.8594,376.3984 Q666.7969,376.3984 667.4531,376.1484 Q667.8438,375.9922 668.2656,375.5547 Q668.5313,375.2891 668.6719,375.2109 Q668.8281,375.1328 669.0313,375.1328 Q669.3594,375.1328 669.6094,375.3984 Q669.875,375.6484 669.875,375.9922 Q669.875,376.3359 669.5313,376.7422 Q669.0313,377.3203 668.2344,377.6484 Q667.1563,378.1016 665.8594,378.1016 Q664.3438,378.1016 663.1406,377.4766 Q662.1563,376.9766 661.4688,375.9141 Q660.7813,374.8359 660.7813,373.5547 L660.7813,372.3984 Q660.7813,371.0703 661.3906,369.9297 Q662.0156,368.7734 663.1094,368.1641 Q664.2031,367.5391 665.4375,367.5391 Q666.1719,367.5391 666.8125,367.7109 Q667.4688,367.8672 668.0156,368.2266 Z " fill="#000000"/><text fill="#000000" font-family="FG Virgil" font-size="12" font-style="italic" lengthAdjust="spacing" textLength="53" x="700.25" y="368.457">«service»</text><text fill="#000000" font-family="FG Virgil" font-size="14" lengthAdjust="spacing" textLength="82" x="685.75" y="385.627">PostItService</text><path d="M517,393.7031 L517,393.9834 L526.9231,393.1507 L536.8462,393.9608 L546.7692,394.236 L556.6923,392.7519 L566.6154,393.5995 L576.5385,393.1345 L586.4615,393.1918 L596.3846,393.6122 L606.3077,392.7813 L616.2308,394.4413 L626.1538,392.8628 L636.0769,393.4394 L646,394.2791 L655.9231,393.5888 L665.8462,393.7941 L675.7692,393.6605 L685.6923,393.9412 L695.6154,394.022 L705.5385,394.484 L715.4615,394.5979 L725.3846,394.6088 L735.3077,394.0426 L745.2308,394.3212 L755.1538,394.6394 L765.0769,392.7415 L775,394.6078 L784.9231,393.3078 L794.8462,394.4149 L804.7692,393.0431 L814.6923,393.6118 L824.6154,394.6919 L834.5385,393.6381 L844.4615,393.8435 L854.3846,394.1546 L864.3077,394.2581 L874.2308,393.6979 L884.1538,394.0861 L894.0769,392.9399 L904,393.7031 " fill="#F1F1F1" style="stroke:#181818;stroke-width:0.5;"/><path d="M517,401.7031 L517,401.9834 L526.9231,401.1507 L536.8462,401.9608 L546.7692,402.236 L556.6923,400.7519 L566.6154,401.5995 L576.5385,401.1345 L586.4615,401.1918 L596.3846,401.6122 L606.3077,400.7813 L616.2308,402.4413 L626.1538,400.8628 L636.0769,401.4394 L646,402.2791 L655.9231,401.5888 L665.8462,401.7941 L675.7692,401.6605 L685.6923,401.9412 L695.6154,402.022 L705.5385,402.484 L715.4615,402.5979 L725.3846,402.6088 L735.3077,402.0426 L745.2308,402.3212 L755.1538,402.6394 L765.0769,400.7415 L775,402.6078 L784.9231,401.3078 L794.8462,402.4149 L804.7692,401.0431 L814.6923,401.6118 L824.6154,402.6919 L834.5385,401.6381 L844.4615,401.8435 L854.3846,402.1546 L864.3077,402.2581 L874.2308,401.6979 L884.1538,402.0861 L894.0769,400.9399 L904,401.7031 " fill="#F1F1F1" style="stroke:#181818;stroke-width:0.5;"/><text fill="#000000" font-family="FG Virgil" font-size="14" lengthAdjust="spacing" textLength="377" x="522" y="420.2363">changePostIt(String, String, String, String, User, PostItState)</text><text fill="#000000" font-family="FG Virgil" font-size="14" lengthAdjust="spacing" textLength="234" x="522" y="437.8457">checkIfIsRowEntryTitle(String, Board)</text><text fill="#000000" font-family="FG Virgil" font-size="14" lengthAdjust="spacing" textLength="255" x="522" y="455.4551">checkIfIsColumnEntryTitle(String, Board)</text><text fill="#000000" font-family="FG Virgil" font-size="14" lengthAdjust="spacing" textLength="297" x="522" y="473.0645">postItByPosition(String, String, Board, boolean)</text><text fill="#000000" font-family="FG Virgil" font-size="14" lengthAdjust="spacing" textLength="108" x="522" y="490.6738">isNumeric(String)</text></g><!--MD5=[0182a422c6ed2cd05fe32b6e46ab69a0]
class PostItFactory--><g id="elem_PostItFactory"><polygon fill="#F1F1F1" points="9.5,585,9.5,585.2102,19.4091,584.5857,29.3182,585.1933,39.2273,585.3997,49.1364,584.2866,59.0455,584.9223,68.9545,584.5735,78.8636,584.6165,88.7727,584.9318,98.6818,584.3086,108.5909,585.5536,118.5,584.3697,128.4091,584.8022,138.3182,585.4319,148.2273,584.9142,158.1364,585.0682,168.0455,584.9681,177.9545,585.1785,187.8636,585.2391,197.7727,585.5857,207.6818,585.6711,217.5909,585.6793,227.5,585.2546,237.4091,585.4636,247.3182,585.7022,257.2273,584.2788,267.1364,585.6785,277.0455,584.7035,286.9545,585.5338,296.8636,584.505,306.7727,584.9315,316.6818,585.7416,326.5909,584.9513,336.5,585.1053,346.4091,585.3386,356.3182,585.4162,366.2273,584.9961,376.1364,585.2872,386.0455,584.4276,395.9545,585.2844,405.8636,585.5482,415.7727,585.4445,425.6818,585.613,435.5909,584.5169,445.5,585,445.4168,584.7992,445.7743,584.9551,446.1996,585.2748,446.5356,585.3788,447.0011,585.7956,447.2678,585.7322,447.214,585.71,447.3086,586.042,447.631,586.4685,447.5017,586.7078,447.6937,587.0802,448,587.5,448.649,587.5,448.4357,597.6875,448.7345,607.875,447.6782,618.0625,448.3192,628.25,448.5904,638.4375,447.5276,648.625,448,658.8125,447.9705,658.8003,447.8924,659.1821,447.9078,659.6027,447.5594,659.8726,447.5567,660.2857,447.2678,660.5803,447.1971,660.4097,446.8278,660.5181,446.6249,661.0283,446.1157,660.7988,445.9185,661.3228,445.5,661.3125,445.5,661.5191,435.5909,661.0446,425.6818,660.9587,415.7727,661.7713,405.8636,661.0132,395.9545,661.9044,386.0455,660.7598,376.1364,661.9299,366.2273,661.7968,356.3182,661.5575,346.4091,661.3597,336.5,662.0391,326.5909,661.9261,316.6818,661.4818,306.7727,661.5807,296.8636,661.1822,286.9545,662.029,277.0455,661.4674,267.1364,661.4851,257.2273,660.7041,247.3182,660.9073,237.4091,661.8432,227.5,661.7423,217.5909,661.2696,207.6818,660.9903,197.7727,661.0936,187.8636,660.6263,177.9545,661.7272,168.0455,662.0521,158.1364,661.8389,148.2273,662.0074,138.3182,661.1758,128.4091,661.3997,118.5,660.9249,108.5909,661.5965,98.6818,661.5593,88.7727,661.8649,78.8636,661.0828,68.9545,661.1781,59.0455,661.756,49.1364,661.8798,39.2273,660.8,29.3182,661.1186,19.4091,661.4618,9.5,661.3125,9.4221,661.1244,9.1915,661.2749,8.8258,661.0991,8.4265,660.8421,8.1039,660.7705,7.7322,660.5803,7.9566,660.6732,7.4894,660.1868,7.5363,659.9133,7.3809,659.556,7.1821,659.1808,7,658.8125,7.1409,658.8125,7.1135,648.625,6.3758,638.4375,6.5992,628.25,6.5385,618.0625,7.0638,607.875,7.0881,597.6875,7,587.5,7.0498,587.5206,7.0568,587.1093,7.2721,586.7843,7.4023,586.424,7.7634,586.1594,7.7322,585.7322,7.7866,585.8636,8.0239,585.4363,8.43,585.4169,8.7193,585.1151,9.1832,585.2353,9.5,585" style="stroke:#181818;stroke-width:0.5;"/><polygon fill="#C2C2C2" points="192.8108,609.0272,191.1984,611.2304,189.2912,614.4573,186.5636,616.632,183.6974,617.8212,181.412,617.9244,178.4747,616.4371,175.7032,615.4655,173.5995,613.4927,172.4961,611.2343,171.8417,609.4361,171.2006,607.0873,170.16,605.066,170.9596,603.0926,171.6602,600.9308,174.2893,599.221,176.139,597.0027,178.4284,596.266,181.1501,595.6316,184.6404,596.0085,186.5521,596.9101,188.7747,597.3188,191.4772,600.0875,192.4193,603.0105,192.8286,605.0049,192.365,608.2914" style="stroke:#181818;stroke-width:1.0;"/><path d="M184.5156,602.2266 Q184.6719,602.0078 184.8594,601.8984 Q185.0469,601.7891 185.2656,601.7891 Q185.6406,601.7891 185.875,602.0547 Q186.1094,602.3047 186.1094,602.9141 L186.1094,604.3672 Q186.1094,604.9766 185.875,605.2422 Q185.6406,605.5078 185.2656,605.5078 Q184.9219,605.5078 184.7188,605.3047 Q184.5156,605.1172 184.4063,604.6016 Q184.3594,604.2422 184.1719,604.0547 Q183.8438,603.6797 183.2344,603.4609 Q182.625,603.2422 182,603.2422 Q181.2344,603.2422 180.5938,603.5703 Q179.9688,603.8984 179.4688,604.6484 Q178.9844,605.3984 178.9844,606.4297 L178.9844,607.5234 Q178.9844,608.7578 179.875,609.5859 Q180.7656,610.3984 182.3594,610.3984 Q183.2969,610.3984 183.9531,610.1484 Q184.3438,609.9922 184.7656,609.5547 Q185.0313,609.2891 185.1719,609.2109 Q185.3281,609.1328 185.5313,609.1328 Q185.8594,609.1328 186.1094,609.3984 Q186.375,609.6484 186.375,609.9922 Q186.375,610.3359 186.0313,610.7422 Q185.5313,611.3203 184.7344,611.6484 Q183.6563,612.1016 182.3594,612.1016 Q180.8438,612.1016 179.6406,611.4766 Q178.6563,610.9766 177.9688,609.9141 Q177.2813,608.8359 177.2813,607.5547 L177.2813,606.3984 Q177.2813,605.0703 177.8906,603.9297 Q178.5156,602.7734 179.6094,602.1641 Q180.7031,601.5391 181.9375,601.5391 Q182.6719,601.5391 183.3125,601.7109 Q183.9688,601.8672 184.5156,602.2266 Z " fill="#000000"/><text fill="#000000" font-family="FG Virgil" font-size="12" font-style="italic" lengthAdjust="spacing" textLength="50" x="218.75" y="602.457">«factory»</text><text fill="#000000" font-family="FG Virgil" font-size="14" lengthAdjust="spacing" textLength="83" x="202.25" y="619.627">PostItFactory</text><path d="M8,627.7031 L8,627.9834 L17.9773,627.1507 L27.9545,627.9608 L37.9318,628.236 L47.9091,626.7519 L57.8864,627.5995 L67.8636,627.1345 L77.8409,627.1918 L87.8182,627.6122 L97.7955,626.7813 L107.7727,628.4413 L117.75,626.8628 L127.7273,627.4394 L137.7045,628.2791 L147.6818,627.5888 L157.6591,627.7941 L167.6364,627.6605 L177.6136,627.9412 L187.5909,628.022 L197.5682,628.484 L207.5455,628.5979 L217.5227,628.6088 L227.5,628.0426 L237.4773,628.3212 L247.4545,628.6394 L257.4318,626.7415 L267.4091,628.6078 L277.3864,627.3078 L287.3636,628.4149 L297.3409,627.0431 L307.3182,627.6118 L317.2955,628.6919 L327.2727,627.6381 L337.25,627.8435 L347.2273,628.1546 L357.2045,628.2581 L367.1818,627.6979 L377.1591,628.0861 L387.1364,626.9399 L397.1136,628.0823 L407.0909,628.4341 L417.0682,628.2958 L427.0455,628.5205 L437.0227,627.059 L447,627.7031 " fill="#F1F1F1" style="stroke:#181818;stroke-width:0.5;"/><path d="M8,635.7031 L8,635.9834 L17.9773,635.1507 L27.9545,635.9608 L37.9318,636.236 L47.9091,634.7519 L57.8864,635.5995 L67.8636,635.1345 L77.8409,635.1918 L87.8182,635.6122 L97.7955,634.7813 L107.7727,636.4413 L117.75,634.8628 L127.7273,635.4394 L137.7045,636.2791 L147.6818,635.5888 L157.6591,635.7941 L167.6364,635.6605 L177.6136,635.9412 L187.5909,636.022 L197.5682,636.484 L207.5455,636.5979 L217.5227,636.6088 L227.5,636.0426 L237.4773,636.3212 L247.4545,636.6394 L257.4318,634.7415 L267.4091,636.6078 L277.3864,635.3078 L287.3636,636.4149 L297.3409,635.0431 L307.3182,635.6118 L317.2955,636.6919 L327.2727,635.6381 L337.25,635.8435 L347.2273,636.1546 L357.2045,636.2581 L367.1818,635.6979 L377.1591,636.0861 L387.1364,634.9399 L397.1136,636.0823 L407.0909,636.4341 L417.0682,636.2958 L427.0455,636.5205 L437.0227,635.059 L447,635.7031 " fill="#F1F1F1" style="stroke:#181818;stroke-width:0.5;"/><text fill="#000000" font-family="FG Virgil" font-size="14" lengthAdjust="spacing" textLength="429" x="13" y="654.2363">createChange(String, String, String, User, Board, PostItState, PostIt)</text></g><!--MD5=[d98fa60e7e29446a1b02022748feb6fd]
class PostItRepository--><g id="elem_PostItRepository"><polygon fill="#F1F1F1" points="590,576,590,576.2102,600.0417,575.5857,610.0833,576.1933,620.125,576.3997,630.1667,575.2866,640.2083,575.9223,650.25,575.5735,660.2917,575.6165,670.3333,575.9318,680.375,575.3086,690.4167,576.5536,700.4583,575.3697,710.5,575.8022,720.5417,576.4319,730.5833,575.9142,740.625,576.0682,750.6667,575.9681,760.7083,576.1785,770.75,576.2391,780.7917,576.5857,790.8333,576.6711,800.875,576.6793,810.9167,576.2546,820.9583,576.4636,831,576,831.0896,576.2163,831.2616,575.9244,831.7937,576.5018,832.0228,576.348,832.4823,576.7502,832.7678,576.7322,832.6153,576.6691,832.8931,577.077,833.289,577.5339,833.1921,577.7867,833.386,578.1599,833.5,578.5,833.8386,578.5,833.9162,588.3802,833.4961,598.2604,833.7872,608.1406,832.9276,618.0208,833.7844,627.901,834.0482,637.7813,833.9445,647.6615,834.113,657.5417,833.5,667.4219,833.3512,667.3603,833.1527,667.6922,833.0157,668.0497,833.0425,668.475,832.8537,668.811,832.7678,669.1896,832.8547,669.3995,832.3919,669.2823,832.0169,669.3769,831.7362,669.6993,831.2685,669.5701,831,669.9219,831,669.4027,820.9583,670.5708,810.9167,670.3575,800.875,670.6564,790.8333,669.6001,780.7917,670.2411,770.75,670.5123,760.7083,669.4495,750.6667,669.826,740.625,670.0479,730.5833,670.5736,720.5417,669.9177,710.5,670.3844,700.4583,669.3681,690.4167,669.2446,680.375,670.4255,670.3333,669.2049,660.2917,670.4308,650.25,670.1285,640.2083,669.654,630.1667,669.5681,620.125,670.3806,610.0833,669.6225,600.0417,670.5137,590,669.9219,589.9295,669.7517,589.7252,669.9656,589.3547,669.7781,588.9706,669.558,588.5918,669.3506,588.2322,669.1896,588.456,669.2823,588.2747,668.9144,587.9915,668.5041,587.8755,668.1632,587.6063,667.7588,587.5,667.4219,588.2165,667.4219,587.6549,657.5417,587.6726,647.6615,586.8916,637.7813,587.0948,627.901,588.0307,618.0208,587.9298,608.1406,587.4571,598.2604,587.1778,588.3802,587.5,578.5,587.4326,578.4721,587.4351,578.0589,587.9206,577.8458,588.1671,577.5337,588.2479,577.1529,588.2322,576.7322,588.3209,576.9462,588.5683,576.5437,588.9505,576.4662,589.2435,576.1735,589.6827,576.2339,590,576" style="stroke:#181818;stroke-width:0.5;"/><polygon fill="#C2C2C2" points="665.8108,600.0272,664.1984,602.2304,662.2912,605.4573,659.5636,607.632,656.6974,608.8212,654.412,608.9244,651.4747,607.4371,648.7032,606.4655,646.5995,604.4927,645.4961,602.2343,644.8417,600.4361,644.2006,598.0873,643.16,596.066,643.9596,594.0926,644.6602,591.9308,647.2893,590.221,649.139,588.0027,651.4284,587.266,654.1501,586.6316,657.6404,587.0085,659.5521,587.9101,661.7747,588.3188,664.4772,591.0875,665.4193,594.0105,665.8286,596.0049,665.365,599.2914" style="stroke:#181818;stroke-width:1.0;"/><path d="M657.5156,593.2266 Q657.6719,593.0078 657.8594,592.8984 Q658.0469,592.7891 658.2656,592.7891 Q658.6406,592.7891 658.875,593.0547 Q659.1094,593.3047 659.1094,593.9141 L659.1094,595.3672 Q659.1094,595.9766 658.875,596.2422 Q658.6406,596.5078 658.2656,596.5078 Q657.9219,596.5078 657.7188,596.3047 Q657.5156,596.1172 657.4063,595.6016 Q657.3594,595.2422 657.1719,595.0547 Q656.8438,594.6797 656.2344,594.4609 Q655.625,594.2422 655,594.2422 Q654.2344,594.2422 653.5938,594.5703 Q652.9688,594.8984 652.4688,595.6484 Q651.9844,596.3984 651.9844,597.4297 L651.9844,598.5234 Q651.9844,599.7578 652.875,600.5859 Q653.7656,601.3984 655.3594,601.3984 Q656.2969,601.3984 656.9531,601.1484 Q657.3438,600.9922 657.7656,600.5547 Q658.0313,600.2891 658.1719,600.2109 Q658.3281,600.1328 658.5313,600.1328 Q658.8594,600.1328 659.1094,600.3984 Q659.375,600.6484 659.375,600.9922 Q659.375,601.3359 659.0313,601.7422 Q658.5313,602.3203 657.7344,602.6484 Q656.6563,603.1016 655.3594,603.1016 Q653.8438,603.1016 652.6406,602.4766 Q651.6563,601.9766 650.9688,600.9141 Q650.2813,599.8359 650.2813,598.5547 L650.2813,597.3984 Q650.2813,596.0703 650.8906,594.9297 Q651.5156,593.7734 652.6094,593.1641 Q653.7031,592.5391 654.9375,592.5391 Q655.6719,592.5391 656.3125,592.7109 Q656.9688,592.8672 657.5156,593.2266 Z " fill="#000000"/><text fill="#000000" font-family="FG Virgil" font-size="12" font-style="italic" lengthAdjust="spacing" textLength="68" x="692.75" y="593.457">«repository»</text><text fill="#000000" font-family="FG Virgil" font-size="14" lengthAdjust="spacing" textLength="103" x="675.25" y="610.627">PostItRepository</text><path d="M588.5,618.7031 L588.5,618.9834 L598.6667,618.1507 L608.8333,618.9608 L619,619.236 L629.1667,617.7519 L639.3333,618.5995 L649.5,618.1345 L659.6667,618.1918 L669.8333,618.6122 L680,617.7813 L690.1667,619.4413 L700.3333,617.8628 L710.5,618.4394 L720.6667,619.2791 L730.8333,618.5888 L741,618.7941 L751.1667,618.6605 L761.3333,618.9412 L771.5,619.022 L781.6667,619.484 L791.8333,619.5979 L802,619.6088 L812.1667,619.0426 L822.3333,619.3212 L832.5,618.7031 " fill="#F1F1F1" style="stroke:#181818;stroke-width:0.5;"/><path d="M588.5,626.7031 L588.5,626.9834 L598.6667,626.1507 L608.8333,626.9608 L619,627.236 L629.1667,625.7519 L639.3333,626.5995 L649.5,626.1345 L659.6667,626.1918 L669.8333,626.6122 L680,625.7813 L690.1667,627.4413 L700.3333,625.8628 L710.5,626.4394 L720.6667,627.2791 L730.8333,626.5888 L741,626.7941 L751.1667,626.6605 L761.3333,626.9412 L771.5,627.022 L781.6667,627.484 L791.8333,627.5979 L802,627.6088 L812.1667,627.0426 L822.3333,627.3212 L832.5,626.7031 " fill="#F1F1F1" style="stroke:#181818;stroke-width:0.5;"/><text fill="#000000" font-family="FG Virgil" font-size="14" lengthAdjust="spacing" textLength="234" x="593.5" y="645.2363">positByPosition(String, String, Board)</text><text fill="#000000" font-family="FG Virgil" font-size="14" lengthAdjust="spacing" textLength="75" x="593.5" y="662.8457">save(PostIt)</text></g><!--MD5=[343839bb48731e46d0fda742d45fdd31]
class BoardRepository--><g id="elem_BoardRepository"><polygon fill="#F1F1F1" points="975,585,975,585.2102,985.2308,584.5857,995.4615,585.1933,1005.6923,585.3997,1015.9231,584.2866,1026.1538,584.9223,1036.3846,584.5735,1046.6154,584.6165,1056.8462,584.9318,1067.0769,584.3086,1077.3077,585.5536,1087.5385,584.3697,1097.7692,584.8022,1108,585,1108.0551,585.133,1108.3426,585.12,1108.7158,585.3139,1109.0566,585.4295,1109.437,585.6408,1109.7678,585.7322,1109.8414,585.7627,1110.0946,586.1605,1110.2673,586.5249,1110.4163,586.8795,1110.432,587.1789,1110.5,587.5,1110.9636,587.5,1111.2022,597.6875,1109.7788,607.875,1111.1785,618.0625,1110.2035,628.25,1111.0338,638.4375,1110.005,648.625,1110.5,658.8125,1110.4789,658.8038,1110.5819,659.2607,1110.1921,659.5134,1110.0931,659.8866,1110.0185,660.2699,1109.7678,660.5803,1109.8209,660.7084,1109.4137,660.7255,1109.0973,660.9616,1108.6341,660.8433,1108.3898,661.2536,1108,661.3125,1108,661.8607,1097.7692,661.757,1087.5385,661.9255,1077.3077,660.8294,1067.0769,660.6603,1056.8462,660.6911,1046.6154,661.2536,1036.3846,661.116,1026.1538,661.9939,1015.9231,661.1378,1005.6923,660.9694,995.4615,661.5408,985.2308,660.6457,975,661.3125,974.9338,661.1526,974.7292,661.3659,974.3485,661.1538,974.033,661.0994,973.5447,660.6276,973.2322,660.5803,973.3305,660.621,973.2676,660.302,972.7939,659.8129,972.7634,659.5074,972.6852,659.1821,972.5,658.8125,973.1518,658.8125,972.4958,648.625,972.9626,638.4375,971.9462,628.25,971.8227,618.0625,973.0036,607.875,971.7831,597.6875,972.5,587.5,972.6567,587.5649,972.7101,587.1728,972.7104,586.7587,972.8304,586.3942,973.2271,586.1443,973.2322,585.7322,973.194,585.6401,973.6613,585.7681,973.8688,585.2691,974.3717,585.483,974.7082,585.2956,975,585" style="stroke:#181818;stroke-width:0.5;"/><polygon fill="#C2C2C2" points="998.5608,609.0272,996.9484,611.2304,995.0412,614.4573,992.3136,616.632,989.4474,617.8212,987.162,617.9244,984.2247,616.4371,981.4532,615.4655,979.3495,613.4927,978.2461,611.2343,977.5917,609.4361,976.9506,607.0873,975.91,605.066,976.7096,603.0926,977.4102,600.9308,980.0393,599.221,981.889,597.0027,984.1784,596.266,986.9001,595.6316,990.3904,596.0085,992.3021,596.9101,994.5247,597.3188,997.2272,600.0875,998.1693,603.0105,998.5786,605.0049,998.115,608.2914" style="stroke:#181818;stroke-width:1.0;"/><path d="M990.2656,602.2266 Q990.4219,602.0078 990.6094,601.8984 Q990.7969,601.7891 991.0156,601.7891 Q991.3906,601.7891 991.625,602.0547 Q991.8594,602.3047 991.8594,602.9141 L991.8594,604.3672 Q991.8594,604.9766 991.625,605.2422 Q991.3906,605.5078 991.0156,605.5078 Q990.6719,605.5078 990.4688,605.3047 Q990.2656,605.1172 990.1563,604.6016 Q990.1094,604.2422 989.9219,604.0547 Q989.5938,603.6797 988.9844,603.4609 Q988.375,603.2422 987.75,603.2422 Q986.9844,603.2422 986.3438,603.5703 Q985.7188,603.8984 985.2188,604.6484 Q984.7344,605.3984 984.7344,606.4297 L984.7344,607.5234 Q984.7344,608.7578 985.625,609.5859 Q986.5156,610.3984 988.1094,610.3984 Q989.0469,610.3984 989.7031,610.1484 Q990.0938,609.9922 990.5156,609.5547 Q990.7813,609.2891 990.9219,609.2109 Q991.0781,609.1328 991.2813,609.1328 Q991.6094,609.1328 991.8594,609.3984 Q992.125,609.6484 992.125,609.9922 Q992.125,610.3359 991.7813,610.7422 Q991.2813,611.3203 990.4844,611.6484 Q989.4063,612.1016 988.1094,612.1016 Q986.5938,612.1016 985.3906,611.4766 Q984.4063,610.9766 983.7188,609.9141 Q983.0313,608.8359 983.0313,607.5547 L983.0313,606.3984 Q983.0313,605.0703 983.6406,603.9297 Q984.2656,602.7734 985.3594,602.1641 Q986.4531,601.5391 987.6875,601.5391 Q988.4219,601.5391 989.0625,601.7109 Q989.7188,601.8672 990.2656,602.2266 Z " fill="#000000"/><text fill="#000000" font-family="FG Virgil" font-size="12" font-style="italic" lengthAdjust="spacing" textLength="68" x="1020.5" y="602.457">«repository»</text><text fill="#000000" font-family="FG Virgil" font-size="14" lengthAdjust="spacing" textLength="106" x="1001.5" y="619.627">BoardRepository</text><path d="M973.5,627.7031 L973.5,627.9834 L983.2143,627.1507 L992.9286,627.9608 L1002.6429,628.236 L1012.3571,626.7519 L1022.0714,627.5995 L1031.7857,627.1345 L1041.5,627.1918 L1051.2143,627.6122 L1060.9286,626.7813 L1070.6429,628.4413 L1080.3571,626.8628 L1090.0714,627.4394 L1099.7857,628.2791 L1109.5,627.7031 " fill="#F1F1F1" style="stroke:#181818;stroke-width:0.5;"/><path d="M973.5,635.7031 L973.5,635.9834 L983.2143,635.1507 L992.9286,635.9608 L1002.6429,636.236 L1012.3571,634.7519 L1022.0714,635.5995 L1031.7857,635.1345 L1041.5,635.1918 L1051.2143,635.6122 L1060.9286,634.7813 L1070.6429,636.4413 L1080.3571,634.8628 L1090.0714,635.4394 L1099.7857,636.2791 L1109.5,635.7031 " fill="#F1F1F1" style="stroke:#181818;stroke-width:0.5;"/><text fill="#000000" font-family="FG Virgil" font-size="14" lengthAdjust="spacing" textLength="99" x="978.5" y="654.2363">ofIdentity(Long)</text></g><!--MD5=[458552462bbdcbc92793825846cc11c0]
class PostIt--><g id="elem_PostIt"><polygon fill="#F1F1F1" points="268.5,731,268.5,731.2102,278.5,730.5857,288.5,731.1933,298.5,731.3997,308.5,730.2866,318.5,730.9223,328.5,730.5735,338.5,730.6165,348.5,730.9318,358.5,730.3086,368.5,731.5536,378.5,730.3697,388.5,730.8022,398.5,731.4319,408.5,730.9142,418.5,731.0682,428.5,730.9681,438.5,731.1785,448.5,731.2391,458.5,731.5857,468.5,731.6711,478.5,731.6793,488.5,731.2546,498.5,731.4636,508.5,731.7022,518.5,730.2788,528.5,731.6785,538.5,730.7035,548.5,731.5338,558.5,730.505,568.5,730.9315,578.5,731.7416,588.5,730.9513,598.5,731.1053,608.5,731.3386,618.5,731.4162,628.5,730.9961,638.5,731.2872,648.5,730.4276,658.5,731.2844,668.5,731.5482,678.5,731.4445,688.5,731.613,698.5,730.5169,708.5,730.3478,718.5,730.3786,728.5,730.9411,738.5,730.8035,748.5,731.6814,758.5,730.8253,768.5,731,768.4562,730.8944,768.8827,731.2167,769.122,731.0875,769.4944,731.2795,769.997,731.7856,770.2678,731.7322,770.4019,731.7878,770.6404,732.1795,770.4616,732.3983,770.8054,732.8336,771.0354,733.2218,771,733.5,770.5276,733.5,770.9041,743.6875,771.126,753.875,771.6518,764.0625,770.9958,774.25,771.4626,784.4375,770.4462,794.625,771,804.8125,770.7914,804.7261,771.0086,805.2303,770.4863,805.4282,770.7174,805.9381,770.4778,806.2531,770.2678,806.5803,770.2336,806.4978,769.8691,806.6178,769.6192,807.0144,769.1689,806.9274,768.9291,807.3483,768.5,807.3125,768.5,806.7598,758.5,807.9299,748.5,807.7968,738.5,807.5575,728.5,807.3597,718.5,808.0391,708.5,807.9261,698.5,807.4818,688.5,807.5807,678.5,807.1822,668.5,808.029,658.5,807.4674,648.5,807.4851,638.5,806.7041,628.5,806.9073,618.5,807.8432,608.5,807.7423,598.5,807.2696,588.5,806.9903,578.5,807.0936,568.5,806.6263,558.5,807.7272,548.5,808.0521,538.5,807.8389,528.5,808.0074,518.5,807.1758,508.5,807.3997,498.5,806.9249,488.5,807.5965,478.5,807.5593,468.5,807.8649,458.5,807.0828,448.5,807.1781,438.5,807.756,428.5,807.8798,418.5,806.8,408.5,807.1186,398.5,807.4618,388.5,806.7017,378.5,807.6659,368.5,807.5705,358.5,807.2117,348.5,807.4547,338.5,808.0412,328.5,806.9996,318.5,807.6275,308.5,807.5981,298.5,807.4283,288.5,807.4534,278.5,807.426,268.5,807.3125,268.4204,807.1203,268.0953,807.0426,267.734,806.8775,267.4475,806.8928,267.097,806.7539,266.7322,806.5803,266.782,806.6009,266.4962,806.1896,266.4185,805.8645,266.2559,805.5043,266.3241,805.2396,266,804.8125,266.4266,804.8125,265.5145,794.625,265.9271,784.4375,265.4228,774.25,266.2884,764.0625,266.6085,753.875,266.5446,743.6875,266,733.5,265.8659,733.4444,266.2893,733.2056,266.0641,732.6981,266.501,732.4649,266.4936,732.0476,266.7322,731.7322,266.7446,731.762,267.1164,731.6598,267.4996,731.5847,267.7011,731.0712,268.2071,731.2929,268.5,731" style="stroke:#181818;stroke-width:0.5;"/><polygon fill="#C2C2C2" points="499.3108,755.0272,497.6984,757.2304,495.7912,760.4573,493.0636,762.632,490.1974,763.8212,487.912,763.9244,484.9747,762.4371,482.2032,761.4655,480.0995,759.4927,478.9961,757.2343,478.3417,755.4361,477.7006,753.0873,476.66,751.066,477.4596,749.0926,478.1602,746.9308,480.7893,745.221,482.639,743.0027,484.9284,742.266,487.6501,741.6316,491.1404,742.0085,493.0521,742.9101,495.2747,743.3188,497.9772,746.0875,498.9193,749.0105,499.3286,751.0049,498.865,754.2914" style="stroke:#181818;stroke-width:1.0;"/><path d="M491.0156,748.2266 Q491.1719,748.0078 491.3594,747.8984 Q491.5469,747.7891 491.7656,747.7891 Q492.1406,747.7891 492.375,748.0547 Q492.6094,748.3047 492.6094,748.9141 L492.6094,750.3672 Q492.6094,750.9766 492.375,751.2422 Q492.1406,751.5078 491.7656,751.5078 Q491.4219,751.5078 491.2188,751.3047 Q491.0156,751.1172 490.9063,750.6016 Q490.8594,750.2422 490.6719,750.0547 Q490.3438,749.6797 489.7344,749.4609 Q489.125,749.2422 488.5,749.2422 Q487.7344,749.2422 487.0938,749.5703 Q486.4688,749.8984 485.9688,750.6484 Q485.4844,751.3984 485.4844,752.4297 L485.4844,753.5234 Q485.4844,754.7578 486.375,755.5859 Q487.2656,756.3984 488.8594,756.3984 Q489.7969,756.3984 490.4531,756.1484 Q490.8438,755.9922 491.2656,755.5547 Q491.5313,755.2891 491.6719,755.2109 Q491.8281,755.1328 492.0313,755.1328 Q492.3594,755.1328 492.6094,755.3984 Q492.875,755.6484 492.875,755.9922 Q492.875,756.3359 492.5313,756.7422 Q492.0313,757.3203 491.2344,757.6484 Q490.1563,758.1016 488.8594,758.1016 Q487.3438,758.1016 486.1406,757.4766 Q485.1563,756.9766 484.4688,755.9141 Q483.7813,754.8359 483.7813,753.5547 L483.7813,752.3984 Q483.7813,751.0703 484.3906,749.9297 Q485.0156,748.7734 486.1094,748.1641 Q487.2031,747.5391 488.4375,747.5391 Q489.1719,747.5391 489.8125,747.7109 Q490.4688,747.8672 491.0156,748.2266 Z " fill="#000000"/><text fill="#000000" font-family="FG Virgil" font-size="12" font-style="italic" lengthAdjust="spacing" textLength="56" x="506.75" y="748.457">«domain»</text><text fill="#000000" font-family="FG Virgil" font-size="14" lengthAdjust="spacing" textLength="35" x="517.25" y="765.627">PostIt</text><path d="M267,773.7031 L267,773.9834 L277.06,773.1507 L287.12,773.9608 L297.18,774.236 L307.24,772.7519 L317.3,773.5995 L327.36,773.1345 L337.42,773.1918 L347.48,773.6122 L357.54,772.7813 L367.6,774.4413 L377.66,772.8628 L387.72,773.4394 L397.78,774.2791 L407.84,773.5888 L417.9,773.7941 L427.96,773.6605 L438.02,773.9412 L448.08,774.022 L458.14,774.484 L468.2,774.5979 L478.26,774.6088 L488.32,774.0426 L498.38,774.3212 L508.44,774.6394 L518.5,772.7415 L528.56,774.6078 L538.62,773.3078 L548.68,774.4149 L558.74,773.0431 L568.8,773.6118 L578.86,774.6919 L588.92,773.6381 L598.98,773.8435 L609.04,774.1546 L619.1,774.2581 L629.16,773.6979 L639.22,774.0861 L649.28,772.9399 L659.34,774.0823 L669.4,774.4341 L679.46,774.2958 L689.52,774.5205 L699.58,773.059 L709.64,772.8335 L719.7,772.8746 L729.76,773.6246 L739.82,773.4411 L749.88,774.6117 L759.94,773.4702 L770,773.7031 " fill="#F1F1F1" style="stroke:#181818;stroke-width:0.5;"/><path d="M267,781.7031 L267,781.9834 L277.06,781.1507 L287.12,781.9608 L297.18,782.236 L307.24,780.7519 L317.3,781.5995 L327.36,781.1345 L337.42,781.1918 L347.48,781.6122 L357.54,780.7813 L367.6,782.4413 L377.66,780.8628 L387.72,781.4394 L397.78,782.2791 L407.84,781.5888 L417.9,781.7941 L427.96,781.6605 L438.02,781.9412 L448.08,782.022 L458.14,782.484 L468.2,782.5979 L478.26,782.6088 L488.32,782.0426 L498.38,782.3212 L508.44,782.6394 L518.5,780.7415 L528.56,782.6078 L538.62,781.3078 L548.68,782.4149 L558.74,781.0431 L568.8,781.6118 L578.86,782.6919 L588.92,781.6381 L598.98,781.8435 L609.04,782.1546 L619.1,782.2581 L629.16,781.6979 L639.22,782.0861 L649.28,780.9399 L659.34,782.0823 L669.4,782.4341 L679.46,782.2958 L689.52,782.5205 L699.58,781.059 L709.64,780.8335 L719.7,780.8746 L729.76,781.6246 L739.82,781.4411 L749.88,782.6117 L759.94,781.4702 L770,781.7031 " fill="#F1F1F1" style="stroke:#181818;stroke-width:0.5;"/><text fill="#000000" font-family="FG Virgil" font-size="14" lengthAdjust="spacing" textLength="493" x="272" y="800.2363">PostIt(PostItContent, PostItRow, PostItColumn, User, Board, PostItState, PostIt)</text></g><!--MD5=[3fd616f346a44cd59a91eb10b19e157c]
class User--><g id="elem_User"><polygon fill="#F1F1F1" points="943,395,943,395.2102,952.875,394.5857,962.75,395.1933,972.625,395.3997,982.5,394.2866,992.375,394.9223,1002.25,394.5735,1012.125,394.6165,1022,395,1021.9913,394.979,1022.2654,394.9335,1022.7777,395.4634,1022.9803,395.2452,1023.389,395.5249,1023.7678,395.7322,1023.9008,395.7873,1023.8878,396.0748,1024.0817,396.448,1024.1973,396.7888,1024.4085,397.1692,1024.5,397.5,1024.7391,397.5,1025.0857,408.2406,1025.1711,418.9813,1025.1793,429.7219,1024.7546,440.4625,1024.5,451.2031,1024.6428,451.2623,1024.5698,451.6463,1023.985,451.8182,1024.2696,452.3503,1023.8229,452.5795,1023.7678,452.9709,1023.8359,453.1353,1023.3511,452.9649,1023.0519,453.2427,1022.8017,453.6386,1022.3473,453.5417,1022,453.7031,1022,453.8084,1012.125,454.0418,1002.25,454.1194,992.375,453.6992,982.5,453.9903,972.625,453.1307,962.75,453.9875,952.875,454.2513,943,453.7031,943.0567,453.84,942.7246,453.7455,942.2313,453.2615,941.8561,453.0629,941.5065,452.926,941.2322,452.9709,941.2141,452.9634,941.0253,452.5923,941.1492,452.3507,940.7391,451.8879,940.5408,451.5129,940.5,451.2031,940.7283,451.2031,939.8332,440.4625,939.9809,429.7219,941.149,418.9813,940.9357,408.2406,940.5,397.5,940.7262,397.5937,940.5473,397.1054,940.8912,396.8336,941.1212,396.5147,940.9403,396.0255,941.2322,395.7322,941.22,395.7027,941.6019,395.6246,942.0225,395.6401,942.2924,395.2916,942.7055,395.2889,943,395" style="stroke:#181818;stroke-width:0.5;"/><polygon fill="#C2C2C2" points="966.5608,419.0272,964.9484,421.2304,963.0412,424.4573,960.3136,426.632,957.4474,427.8212,955.162,427.9244,952.2247,426.4371,949.4532,425.4655,947.3495,423.4927,946.2461,421.2343,945.5917,419.4361,944.9506,417.0873,943.91,415.066,944.7096,413.0926,945.4102,410.9308,948.0393,409.221,949.889,407.0027,952.1784,406.266,954.9001,405.6316,958.3904,406.0085,960.3021,406.9101,962.5247,407.3188,965.2272,410.0875,966.1693,413.0105,966.5786,415.0049,966.115,418.2914" style="stroke:#181818;stroke-width:1.0;"/><path d="M958.2656,412.2266 Q958.4219,412.0078 958.6094,411.8984 Q958.7969,411.7891 959.0156,411.7891 Q959.3906,411.7891 959.625,412.0547 Q959.8594,412.3047 959.8594,412.9141 L959.8594,414.3672 Q959.8594,414.9766 959.625,415.2422 Q959.3906,415.5078 959.0156,415.5078 Q958.6719,415.5078 958.4688,415.3047 Q958.2656,415.1172 958.1563,414.6016 Q958.1094,414.2422 957.9219,414.0547 Q957.5938,413.6797 956.9844,413.4609 Q956.375,413.2422 955.75,413.2422 Q954.9844,413.2422 954.3438,413.5703 Q953.7188,413.8984 953.2188,414.6484 Q952.7344,415.3984 952.7344,416.4297 L952.7344,417.5234 Q952.7344,418.7578 953.625,419.5859 Q954.5156,420.3984 956.1094,420.3984 Q957.0469,420.3984 957.7031,420.1484 Q958.0938,419.9922 958.5156,419.5547 Q958.7813,419.2891 958.9219,419.2109 Q959.0781,419.1328 959.2813,419.1328 Q959.6094,419.1328 959.8594,419.3984 Q960.125,419.6484 960.125,419.9922 Q960.125,420.3359 959.7813,420.7422 Q959.2813,421.3203 958.4844,421.6484 Q957.4063,422.1016 956.1094,422.1016 Q954.5938,422.1016 953.3906,421.4766 Q952.4063,420.9766 951.7188,419.9141 Q951.0313,418.8359 951.0313,417.5547 L951.0313,416.3984 Q951.0313,415.0703 951.6406,413.9297 Q952.2656,412.7734 953.3594,412.1641 Q954.4531,411.5391 955.6875,411.5391 Q956.4219,411.5391 957.0625,411.7109 Q957.7188,411.8672 958.2656,412.2266 Z " fill="#000000"/><text fill="#000000" font-family="FG Virgil" font-size="12" font-style="italic" lengthAdjust="spacing" textLength="56" x="967.5" y="412.457">«domain»</text><text fill="#000000" font-family="FG Virgil" font-size="14" lengthAdjust="spacing" textLength="29" x="981" y="429.627">User</text><path d="M941.5,437.7031 L941.5,437.9834 L951.75,437.1507 L962,437.9608 L972.25,438.236 L982.5,436.7519 L992.75,437.5995 L1003,437.1345 L1013.25,437.1918 L1023.5,437.7031 " fill="#F1F1F1" style="stroke:#181818;stroke-width:0.5;"/><path d="M941.5,445.7031 L941.5,445.9834 L951.75,445.1507 L962,445.9608 L972.25,446.236 L982.5,444.7519 L992.75,445.5995 L1003,445.1345 L1013.25,445.1918 L1023.5,445.7031 " fill="#F1F1F1" style="stroke:#181818;stroke-width:0.5;"/></g><!--MD5=[9563755d011c5cec7ec66dc53565a59e]
class Board--><g id="elem_Board"><polygon fill="#F1F1F1" points="837.5,731,837.5,731.2102,847.66,730.5857,857.82,731.1933,867.98,731.3997,878.14,730.2866,888.3,730.9223,898.46,730.5735,908.62,730.6165,918.78,730.9318,928.94,730.3086,939.1,731.5536,949.26,730.3697,959.42,730.8022,969.58,731.4319,979.74,730.9142,989.9,731.0682,1000.06,730.9681,1010.22,731.1785,1020.38,731.2391,1030.54,731.5857,1040.7,731.6711,1050.86,731.6793,1061.02,731.2546,1071.18,731.4636,1081.34,731.7022,1091.5,731,1091.408,730.7779,1091.9401,731.3554,1092.1693,731.2016,1092.6288,731.6037,1092.8511,731.4333,1093.2678,731.7322,1093.2467,731.7235,1093.6426,732.1804,1093.5457,732.4331,1093.7395,732.8063,1093.9578,733.1896,1094,733.5,1094.4162,733.5,1093.9961,743.6875,1094.2872,753.875,1093.4276,764.0625,1094.2844,774.25,1094.5482,784.4375,1094.4445,794.625,1094,804.8125,1094.1888,804.8907,1093.7048,805.1044,1093.5063,805.4364,1093.3693,805.7939,1093.3961,806.2192,1093.2678,806.5803,1093.2427,806.5197,1093.0011,806.9366,1092.5384,806.8194,1092.1633,806.914,1091.8827,807.2364,1091.5,807.3125,1091.5,806.6457,1081.34,806.7934,1071.18,807.9615,1061.02,807.7482,1050.86,808.047,1040.7,806.9907,1030.54,807.6317,1020.38,807.9029,1010.22,806.8401,1000.06,807.2166,989.9,807.4385,979.74,807.9643,969.58,807.3083,959.42,807.7751,949.26,806.7587,939.1,806.6352,928.94,807.8161,918.78,806.5956,908.62,807.8215,898.46,807.5191,888.3,807.0446,878.14,806.9587,867.98,807.7713,857.82,807.0132,847.66,807.9044,837.5,807.3125,837.4295,807.1423,837.2252,807.3562,836.8547,807.1688,836.4706,806.9486,836.0918,806.7413,835.7322,806.5803,835.956,806.673,835.7747,806.305,835.4915,805.8948,835.3755,805.5538,835.1063,805.1494,835,804.8125,835.7165,804.8125,835.1549,794.625,835.1726,784.4375,834.3916,774.25,834.5948,764.0625,835.5307,753.875,835.4298,743.6875,835,733.5,834.9868,733.4945,835.0472,733.1054,835.2255,732.765,835.228,732.3518,835.7135,732.1387,835.7322,731.7322,835.8266,731.96,836.1529,731.7479,836.528,731.6534,836.7755,731.2508,837.1576,731.1733,837.5,731" style="stroke:#181818;stroke-width:0.5;"/><polygon fill="#C2C2C2" points="945.3108,755.0272,943.6984,757.2304,941.7912,760.4573,939.0636,762.632,936.1974,763.8212,933.912,763.9244,930.9747,762.4371,928.2032,761.4655,926.0995,759.4927,924.9961,757.2343,924.3417,755.4361,923.7006,753.0873,922.66,751.066,923.4596,749.0926,924.1602,746.9308,926.7893,745.221,928.639,743.0027,930.9284,742.266,933.6501,741.6316,937.1404,742.0085,939.0521,742.9101,941.2747,743.3188,943.9772,746.0875,944.9193,749.0105,945.3286,751.0049,944.865,754.2914" style="stroke:#181818;stroke-width:1.0;"/><path d="M937.0156,748.2266 Q937.1719,748.0078 937.3594,747.8984 Q937.5469,747.7891 937.7656,747.7891 Q938.1406,747.7891 938.375,748.0547 Q938.6094,748.3047 938.6094,748.9141 L938.6094,750.3672 Q938.6094,750.9766 938.375,751.2422 Q938.1406,751.5078 937.7656,751.5078 Q937.4219,751.5078 937.2188,751.3047 Q937.0156,751.1172 936.9063,750.6016 Q936.8594,750.2422 936.6719,750.0547 Q936.3438,749.6797 935.7344,749.4609 Q935.125,749.2422 934.5,749.2422 Q933.7344,749.2422 933.0938,749.5703 Q932.4688,749.8984 931.9688,750.6484 Q931.4844,751.3984 931.4844,752.4297 L931.4844,753.5234 Q931.4844,754.7578 932.375,755.5859 Q933.2656,756.3984 934.8594,756.3984 Q935.7969,756.3984 936.4531,756.1484 Q936.8438,755.9922 937.2656,755.5547 Q937.5313,755.2891 937.6719,755.2109 Q937.8281,755.1328 938.0313,755.1328 Q938.3594,755.1328 938.6094,755.3984 Q938.875,755.6484 938.875,755.9922 Q938.875,756.3359 938.5313,756.7422 Q938.0313,757.3203 937.2344,757.6484 Q936.1563,758.1016 934.8594,758.1016 Q933.3438,758.1016 932.1406,757.4766 Q931.1563,756.9766 930.4688,755.9141 Q929.7813,754.8359 929.7813,753.5547 L929.7813,752.3984 Q929.7813,751.0703 930.3906,749.9297 Q931.0156,748.7734 932.1094,748.1641 Q933.2031,747.5391 934.4375,747.5391 Q935.1719,747.5391 935.8125,747.7109 Q936.4688,747.8672 937.0156,748.2266 Z " fill="#000000"/><text fill="#000000" font-family="FG Virgil" font-size="12" font-style="italic" lengthAdjust="spacing" textLength="56" x="952.75" y="748.457">«domain»</text><text fill="#000000" font-family="FG Virgil" font-size="14" lengthAdjust="spacing" textLength="38" x="961.75" y="765.627">Board</text><path d="M836,773.7031 L836,773.9834 L845.8846,773.1507 L855.7692,773.9608 L865.6538,774.236 L875.5385,772.7519 L885.4231,773.5995 L895.3077,773.1345 L905.1923,773.1918 L915.0769,773.6122 L924.9615,772.7813 L934.8462,774.4413 L944.7308,772.8628 L954.6154,773.4394 L964.5,774.2791 L974.3846,773.5888 L984.2692,773.7941 L994.1538,773.6605 L1004.0385,773.9412 L1013.9231,774.022 L1023.8077,774.484 L1033.6923,774.5979 L1043.5769,774.6088 L1053.4615,774.0426 L1063.3462,774.3212 L1073.2308,774.6394 L1083.1154,772.7415 L1093,773.7031 " fill="#F1F1F1" style="stroke:#181818;stroke-width:0.5;"/><path d="M836,781.7031 L836,781.9834 L845.8846,781.1507 L855.7692,781.9608 L865.6538,782.236 L875.5385,780.7519 L885.4231,781.5995 L895.3077,781.1345 L905.1923,781.1918 L915.0769,781.6122 L924.9615,780.7813 L934.8462,782.4413 L944.7308,780.8628 L954.6154,781.4394 L964.5,782.2791 L974.3846,781.5888 L984.2692,781.7941 L994.1538,781.6605 L1004.0385,781.9412 L1013.9231,782.022 L1023.8077,782.484 L1033.6923,782.5979 L1043.5769,782.6088 L1053.4615,782.0426 L1063.3462,782.3212 L1073.2308,782.6394 L1083.1154,780.7415 L1093,781.7031 " fill="#F1F1F1" style="stroke:#181818;stroke-width:0.5;"/><text fill="#000000" font-family="FG Virgil" font-size="14" lengthAdjust="spacing" textLength="247" x="841" y="800.2363">userHasPermission(User, AccessLevel)</text></g><!--MD5=[5c97539c9a1e616ab3ab9d934a75de46]
link HttpServerAjax to DeletePostItController--><g id="link_HttpServerAjax_DeletePostItController"><path d="M809.57,119.19 L809.797,119.3543 L803.2113,127.0362 L797.9566,135.6811 L792.2684,144.0124 L785.1549,151.3124 L779.9305,159.9793 L773.6426,167.8767 L767.778,176.0803 L762.2075,184.4967 L756.37,192.72 " fill="none" style="stroke:#181818;stroke-width:1.0;"/><polygon fill="#181818" points="753.43,196.78,753.4653,196.8405,755.0627,195.6694,756.8668,194.8531,758.6036,193.9213,760.119,192.6094,761.9409,191.8237,761.9367,191.7981,760.8013,191.8638,759.6867,192.0583,758.5866,192.3425,757.4365,192.3179,756.3564,192.7259,756.5386,192.7553,755.9686,191.5755,755.9305,190.4816,755.9572,189.3981,755.6064,188.2537,755.4542,187.1414,755.4765,187.1461,755.039,189.0669,754.7028,191.0091,754.3177,192.9409,754.0259,194.8924,753.43,196.78" style="stroke:#181818;stroke-width:1.0;"/><text fill="#000000" font-family="FG Virgil" font-size="13" lengthAdjust="spacing" textLength="73" x="789.5" y="163.4951">theController</text></g><!--MD5=[886edeef38e246f68555233ed43ef7bd]
link HttpServerAjax to SessionManager--><g id="link_HttpServerAjax_SessionManager"><path d="M891.71,119.19 L891.9326,119.3602 L897.2732,126.7034 L903.9187,135.0445 L910.1393,143.0607 L914.9624,150.0082 L921.6377,158.3721 L927.2703,165.9386 L933.3178,173.8224 L939.6538,181.9268 L944.9957,189.271 L951.73,197.68 " fill="none" style="stroke:#181818;stroke-width:1.0;"/><polygon fill="#181818" points="954.93,201.86,954.9982,201.8762,954.3403,199.9117,954.082,198.0421,953.6935,196.1416,952.8772,194.1394,952.6532,192.2779,952.6275,192.2745,952.3613,193.3802,952.2244,194.5034,952.1776,195.6386,951.8207,196.7321,951.8981,197.8842,951.9227,198.0671,950.7488,197.5249,949.6468,197.5168,948.5535,197.5738,947.4093,197.2517,946.2918,197.129,946.3028,197.149,948.0144,198.0659,949.7757,199.0736,951.513,200.0375,953.2961,201.085,954.93,201.86" style="stroke:#181818;stroke-width:1.0;"/><text fill="#000000" font-family="FG Virgil" font-size="13" lengthAdjust="spacing" textLength="95" x="927.5" y="163.4951">sessionManager</text></g><!--MD5=[cfa8c6cc09150aa1a34895e749736282]
link SessionManager to User--><g id="link_SessionManager_User"><path d="M980.02,268.23 L980.3002,268.2345 L979.6285,278.3179 L980.5993,288.4274 L981.0353,298.5285 L979.7123,308.6015 L980.7206,318.7117 L980.4164,328.8009 L980.6346,338.8985 L981.2158,349.0019 L980.5458,359.0853 L982.3664,369.2084 L980.9489,379.2799 L981.95,389.39 " fill="none" style="stroke:#181818;stroke-width:1.0;stroke-dasharray:7.0,7.0;"/><polygon fill="#181818" points="982.04,394.76,982.1045,394.7874,982.6819,392.8926,983.6374,391.1583,984.4697,389.3717,984.8972,387.4134,985.8851,385.6928,985.8665,385.6748,984.9967,386.4076,984.2209,387.2311,983.5103,388.1178,982.5747,388.787,981.9543,389.7607,982.0825,389.8934,980.9947,388.8235,980.2813,388.141,979.6136,387.5058,978.6801,386.5955,977.8863,385.8299,977.9069,385.8395,978.7074,387.6114,979.6018,389.427,980.4508,391.2216,981.3863,393.0563,982.04,394.76" style="stroke:#181818;stroke-width:1.0;"/></g><!--MD5=[80875efc03a2af532df68f258a896240]
link DeletePostItController to PostItService--><g id="link_DeletePostItController_PostItService"><path d="M723.34,273.04 L723.6192,273.0638 L721.9024,283.3916 L721.8225,293.859 L721.2095,304.281 L718.8437,314.5534 L718.801,325.024 L717.4505,335.3831 L717.13,345.83 " fill="none" style="stroke:#181818;stroke-width:1.0;"/><polygon fill="#181818" points="716.7,350.84,716.7614,350.8738,717.5303,349.0484,718.6589,347.4214,719.6703,345.7297,720.2966,343.8257,721.4561,342.2156,721.4394,342.1958,720.499,342.8354,719.6426,343.5749,718.8447,344.3839,717.8454,344.9535,717.1282,345.8584,717.2694,345.9772,716.2389,344.8575,715.6207,344.0848,715.0527,343.3544,714.1922,342.3777,713.4855,341.5305,713.507,341.5379,714.1183,343.3889,714.8275,345.2737,715.4895,347.1422,716.2416,349.0418,716.7,350.84" style="stroke:#181818;stroke-width:1.0;"/><text fill="#000000" font-family="FG Virgil" font-size="13" lengthAdjust="spacing" textLength="53" x="721.5" y="317.4951">postItSvc</text></g><!--MD5=[b9692feec0cb1506ec17cf1d0e1e1acb]
link PostItService to PostItFactory--><g id="link_PostItService_PostItFactory"><path d="M515.65,488.85 L515.6821,488.9377 L510.4642,490.5485 L505.4342,492.6736 L500.343,494.6312 L495.0506,496.0379 L490.0367,498.2072 L490.0245,498.1749 L484.8491,499.967 L479.7352,501.9219 L474.6642,503.99 L469.4456,505.668 L464.4338,507.8925 L464.5239,508.1215 L459.2747,509.6222 L454.2886,511.7913 L449.3347,514.0421 L444.1939,515.8183 L439.1514,517.8441 L439.163,517.8721 L434.2157,519.8621 L429.3211,521.9798 L424.401,524.0359 L419.5294,526.2095 L414.5,528 L414.6182,528.2738 L411.7112,529.5325 L408.728,530.6145 L405.8564,531.9551 L402.9901,533.3078 L399.958,534.2766 L399.8268,533.9842 L397.1387,535.872 L394.0187,536.7969 L391.227,538.4538 L388.0972,539.3568 L385.2445,540.8778 L385.2317,540.8502 L382.4309,542.5452 L379.331,543.5948 L376.4076,545.0253 L373.499,546.4877 L370.4835,547.7195 L370.5631,547.8865 L367.5458,549.1175 L364.6645,550.6339 L361.5632,551.6886 L358.7901,553.432 L355.7988,554.7175 L355.9065,554.936 L350.1571,557.7204 L344.4612,560.6132 L338.5167,563.002 L332.7544,565.7603 L327.1536,568.8459 L327.0278,568.6001 L321.771,571.5715 L316.3724,574.2658 L311.1794,577.362 L305.6353,579.7721 L300.3,582.59 " fill="none" style="stroke:#181818;stroke-width:1.0;"/><polygon fill="#181818" points="295.74,584.96,295.7444,585.0299,297.6971,584.6975,299.6757,584.775,301.6459,584.719,303.5882,584.2241,305.5691,584.3367,305.5614,584.312,304.447,583.8626,303.3718,583.5378,302.3237,583.2996,301.182,582.7628,300.1714,582.6442,300.3475,582.6995,300.3094,581.5018,300.7855,580.4654,301.3243,579.4487,301.4981,578.3175,301.8639,577.2465,301.8817,577.2607,300.6308,578.7826,299.4609,580.3689,298.252,581.9242,297.1177,583.5387,295.74,584.96" style="stroke:#181818;stroke-width:1.0;"/><text fill="#000000" font-family="FG Virgil" font-size="13" lengthAdjust="spacing" textLength="76" x="415.5" y="542.4951">postItFactory</text></g><!--MD5=[778855c556e50cd29727724975a88767]
link PostItService to PostItRepository--><g id="link_PostItService_PostItRepository"><path d="M710.5,498.11 L710.7802,498.11 L709.9476,508.4729 L710.7577,518.8357 L711.0329,529.1986 L709.5488,539.5614 L710.3964,549.9243 L709.9313,560.2871 L710.5,570.65 " fill="none" style="stroke:#181818;stroke-width:1.0;"/><polygon fill="#181818" points="710.5,575.89,710.564,575.9185,711.1738,574.0339,712.1589,572.3162,713.0217,570.5441,713.4827,568.5934,714.5,566.89,714.4817,566.8717,713.5995,567.5895,712.8096,568.3996,712.0839,569.2739,711.137,569.927,710.5,570.89,710.6305,571.0205,709.5514,569.9414,708.8534,569.2434,708.2018,568.5918,707.2798,567.6698,706.5,566.89,706.5208,566.8992,707.2903,568.6857,708.1544,570.5142,708.9728,572.3224,709.8784,574.1693,710.5,575.89" style="stroke:#181818;stroke-width:1.0;"/><text fill="#000000" font-family="FG Virgil" font-size="13" lengthAdjust="spacing" textLength="94" x="711.5" y="542.4951">postItRepository</text></g><!--MD5=[85f25023764845daeae7ec7566bd8a25]
link PostItService to BoardRepository--><g id="link_PostItService_BoardRepository"><path d="M877.68,498.14 L877.7242,498.2223 L880.2579,499.4104 L883.0508,501.0809 L885.7593,502.5943 L888.1901,503.5912 L891.0053,505.3031 L890.9884,505.273 L893.5405,506.6132 L896.1777,508.1053 L898.8743,509.7028 L901.3666,510.9367 L904.145,512.68 L904.2698,512.892 L906.5753,513.953 L909.2453,515.633 L911.9597,517.3886 L914.4154,518.7046 L917.0072,520.2519 L917.0232,520.2776 L919.4983,521.7894 L922.0461,523.4186 L924.5589,524.9911 L927.1386,526.6716 L929.5,528 L929.6643,528.2489 L931.4891,529.4552 L933.208,530.501 L935.0819,531.7818 L936.9632,533.0735 L938.614,534.0163 L938.4301,533.7538 L940.6069,535.5383 L942.178,536.4584 L944.2095,538.0357 L945.7669,538.9362 L947.713,540.3914 L947.6949,540.3669 L949.7131,541.9866 L951.3092,543.0336 L953.1544,544.4185 L955.0205,545.8318 L956.7357,547.0404 L956.8485,547.1871 L958.5118,548.4067 L960.3678,549.8769 L961.9119,550.9418 L963.9212,552.6113 L965.6212,553.8788 L965.7734,554.0691 L967.482,555.4217 L969.2662,556.8687 L970.6996,557.8767 L972.3901,559.2066 L974.3085,560.8216 L974.1326,560.6087 L975.9774,562.1939 L977.624,563.5393 L979.5581,565.2326 L981.0014,566.3318 L982.7364,567.7842 L982.6369,567.6687 L985.9694,570.5902 L988.8764,573.018 L992.0859,575.7969 L995.5916,578.9193 L998.57,581.43 " fill="none" style="stroke:#181818;stroke-width:1.0;"/><polygon fill="#181818" points="1002.51,584.93,1002.5738,584.9589,1001.5708,583.079,1000.9418,581.3687,1000.1911,579.6031,999.0397,577.6559,998.4429,575.9601,998.417,575.9586,998.3671,577.0812,998.4476,578.2115,998.6187,579.3471,998.4775,580.4644,998.7737,581.6073,998.7845,581.7915,997.632,581.4637,996.511,581.6738,995.3939,581.9495,994.2543,581.8434,993.1266,581.9381,993.1335,581.9598,995,582.5264,996.898,583.1916,998.7808,583.8092,1000.6926,584.5176,1002.51,584.93" style="stroke:#181818;stroke-width:1.0;"/><text fill="#000000" font-family="FG Virgil" font-size="13" lengthAdjust="spacing" textLength="94" x="953.5" y="542.4951">boardRepository</text></g><!--MD5=[2dd22cea3aeea39cf43778b727913196]
link PostItFactory to PostIt--><g id="link_PostItFactory_PostIt"><path d="M302.44,661.08 L302.5643,661.3312 L311.2957,665.0882 L320.7556,670.3176 L329.9783,675.0676 L338.4208,678.2408 L347.8974,683.5038 L356.7918,687.5903 L365.9179,692.145 L375.205,697.0252 L383.9372,700.7838 L393.7741,706.775 L402.1746,709.8635 L411.5311,714.8837 L421.0041,720.1395 L429.7986,724.0242 L438.95,728.63 " fill="none" style="stroke:#181818;stroke-width:1.0;"/><polygon fill="#181818" points="443.56,730.92,443.614,730.9647,442.1975,729.3146,441.0975,727.9264,439.8944,726.453,438.3525,724.6991,437.2796,723.3334,437.2551,723.3251,437.5054,724.3605,437.8795,725.4374,438.3396,726.5433,438.5032,727.5495,439.0822,728.6953,439.141,728.8703,437.9428,728.8567,436.9164,729.3539,435.9109,729.9133,434.7835,730.1103,433.7202,730.4979,433.7212,730.5206,435.6877,730.5717,437.6587,730.7262,439.6275,730.8308,441.6004,731.0306,443.56,730.92" style="stroke:#181818;stroke-width:1.0;"/></g><!--MD5=[a179befad2a701e07a9299659a8da84c]
link PostItRepository to PostIt--><g id="link_PostItRepository_PostIt"><path d="M648.96,670.16 L649.1281,670.3842 L640.9286,675.492 L633.7146,681.9142 L626.1797,687.9084 L617.5893,692.495 L610.3978,698.9471 L602.4188,704.349 L594.7532,710.1689 L587.3055,716.2793 L579.107,721.3885 L571.96,727.9 " fill="none" style="stroke:#181818;stroke-width:1.0;"/><polygon fill="#181818" points="567.86,730.98,567.8756,731.0483,569.7492,730.4054,571.7144,730.1628,573.6498,729.7899,575.4869,728.9882,577.46,728.78,577.4563,728.7544,576.3199,728.4793,575.2019,728.3335,574.0968,728.2775,572.9474,727.9119,571.86,727.98,572.0427,728.0061,571.812,726.8303,572.1147,725.7307,572.4825,724.6404,572.4717,723.496,572.66,722.38,572.6799,722.3911,571.6907,724.0948,570.792,725.849,569.8496,727.5788,568.9905,729.3551,567.86,730.98" style="stroke:#181818;stroke-width:1.0;"/></g><!--MD5=[c2b2d28b8f8fd1e85bbeebc0fff5bd46]
link BoardRepository to Board--><g id="link_BoardRepository_Board"><path d="M1021.67,661.08 L1021.9171,661.2122 L1016.2271,670.0866 L1011.9858,679.7358 L1007.2728,689.1327 L1001.0084,697.7 L996.8001,707.3669 L991.4343,716.4147 L986.98,725.95 " fill="none" style="stroke:#181818;stroke-width:1.0;"/><polygon fill="#181818" points="984.53,730.54,984.5731,730.5953,985.9986,729.2201,987.6767,728.1689,989.2726,727.0121,990.598,725.5085,992.2978,724.4851,992.2902,724.4603,991.1739,724.6779,990.0956,725.0205,989.0436,725.45,987.9007,725.58,986.8852,726.1294,987.0617,726.1831,986.3553,724.9858,986.1644,723.9452,986.0363,722.9237,985.5423,721.791,985.2408,720.7168,985.2635,720.7185,985.088,722.6807,985.0159,724.6504,984.8938,726.6165,984.8669,728.5895,984.53,730.54" style="stroke:#181818;stroke-width:1.0;"/></g><!--MD5=[90d69ff1202b184f782b05dfe7501887]
link PostItService to PostIt--><g id="link_PostItService_PostIt"><path d="M599.57,498.26 L599.6325,498.3294 L597.5772,499.8078 L595.8883,501.693 L594.0802,503.4458 L591.8794,504.7629 L590.2221,506.683 L590.1981,506.6582 L588.2639,508.3095 L586.4506,510.0862 L584.7213,511.9499 L582.7024,513.5135 L581.0892,515.4975 L581.2667,515.668 L579.1204,517.1424 L577.4922,519.1146 L575.9272,521.1475 L573.9945,522.8272 L572.2552,524.6926 L572.2779,524.7127 L570.5543,526.5962 L568.9341,528.5711 L567.264,530.5019 L565.6891,532.5169 L563.8038,534.2575 L564.0361,534.4445 L562.442,536.4315 L560.6979,538.298 L559.1733,540.3411 L557.6589,542.3923 L555.8187,544.1815 L555.5591,543.9936 L554.5761,546.4127 L552.738,548.2131 L551.55,550.4839 L549.6926,552.2703 L548.3839,554.4538 L548.3583,554.4373 L547.3012,556.7536 L545.6453,558.686 L544.3428,560.8449 L543.0699,563.0228 L541.5831,565.0635 L541.7447,565.1534 L540.3649,567.25 L539.2614,569.5002 L537.7109,571.5017 L536.8271,573.8741 L535.5,576 L535.7232,576.0978 L534.0854,579.7201 L532.5585,583.391 L530.5168,586.8363 L528.8524,590.4469 L527.5224,594.2041 L527.2611,594.1148 L526.8486,596.0949 L526.1418,597.9744 L525.862,599.9998 L524.853,601.776 L524.2774,603.7004 L524.1309,603.6582 L523.8175,605.6661 L522.8778,607.4939 L522.3835,609.4497 L522.325,611.5309 L521.4905,613.3889 L521.6788,613.4341 L521.3364,615.4306 L520.4084,617.2867 L520.214,619.3187 L519.8597,621.3124 L519.133,623.2167 L518.9271,623.1761 L518.7,625.1913 L518.4055,627.1932 L518.2435,629.2213 L517.5662,631.1477 L517.1767,633.1308 L517.3798,633.1632 L516.6169,635.0816 L516.246,637.0625 L516.4476,639.1345 L515.5952,641.0387 L515.5931,643.0783 L515.8176,643.1064 L515.4364,645.0753 L514.9792,647.0348 L514.6935,649.0156 L514.8039,651.0459 L514.3538,653.0063 L514.2211,652.9957 L514.304,656.9442 L513.485,660.8208 L513.6915,664.7792 L513.3206,668.6915 L512.794,672.5915 L512.9029,672.5945 L512.7102,676.3664 L512.9073,680.1491 L512.7523,683.922 L512.4501,687.6908 L512.2702,691.463 L512.3893,691.4649 L512.2692,695.0088 L512.7023,698.5617 L512.5097,702.1045 L512.5744,705.6514 L512.5546,709.197 L512.2846,709.1826 L512.5479,712.422 L513.1363,715.6788 L513.2646,718.911 L513.2279,722.1344 L513.42,725.37 " fill="none" style="stroke:#181818;stroke-width:1.0;"/><polygon fill="#181818" points="513.83,730.72,513.896,730.7436,514.364,728.819,515.2188,727.0328,515.9476,725.2015,516.2624,723.222,517.1503,721.4477,517.1307,721.4308,516.3042,722.2121,515.5767,723.0787,514.918,724.0045,514.0223,724.7262,513.4585,725.7338,513.579,725.8736,512.4642,724.8363,511.7011,724.2072,510.9808,723.6278,510.011,722.7587,509.1724,722.042,509.1925,722.0528,510.0946,723.7726,511.0879,725.5414,512.0372,727.2865,513.0705,729.0767,513.83,730.72" style="stroke:#181818;stroke-width:1.0;"/><text fill="#000000" font-family="FG Virgil" font-size="13" lengthAdjust="spacing" textLength="32" x="536.5" y="628.4951">postIt</text></g><!--MD5=[c1d64969c1e6637ffbfc0335cb94ce1b]
link PostItService to Board--><g id="link_PostItService_Board"><path d="M786.85,498.12 L786.9177,498.1843 L789.5467,500.9737 L792.5728,504.1402 L795.4696,507.1838 L797.9411,509.8237 L801.0013,513.0225 L800.9758,512.9992 L802.2339,514.3949 L803.6204,515.9082 L805.0963,517.5032 L806.2644,518.8166 L807.8636,520.5244 L808.0476,520.6877 L808.9814,521.8335 L810.4524,523.4563 L811.989,525.1372 L813.1442,526.4796 L814.5,528 L814.5231,528.0196 L816.5334,530.3994 L818.649,532.8685 L820.7137,535.2945 L822.8754,537.8027 L824.7211,540.0428 L824.9535,540.2298 L826.9641,542.7283 L828.8248,545.1063 L830.9049,547.6607 L832.9952,550.2234 L834.7598,552.5241 L834.5053,552.3291 L836.9659,555.2746 L838.5887,557.5782 L840.8484,560.3698 L842.4522,562.6588 L844.5937,565.3597 L844.5691,565.3417 L846.7809,568.1758 L848.419,570.5893 L850.3956,573.251 L852.4006,575.9335 L854.2006,578.4658 L854.3519,578.5723 L856.0708,581.1233 L858.0481,583.8562 L859.6073,586.2948 L861.7902,589.1725 L863.5584,591.7582 L863.7601,591.895 L865.5392,594.5481 L867.4185,597.2691 L868.8327,599.6746 L870.5878,602.3113 L872.6449,605.153 L872.4139,605.0016 L874.3816,607.8213 L876.089,610.4704 L878.174,613.367 L879.6143,615.841 L881.4378,618.5662 L881.3091,618.4845 L883.2189,621.2901 L884.5785,623.7463 L886.3294,626.451 L888.463,629.3989 L889.915,631.9137 L890.0798,632.0154 L891.8207,634.7247 L893.0489,637.1178 L894.9193,639.907 L896.6497,642.6098 L898.0542,645.1116 L897.8742,645.0036 L899.5735,647.6826 L901.2138,650.3261 L902.97,653.0392 L904.2758,655.4821 L905.8332,658.0759 L906.0107,658.1797 L907.1001,660.4809 L908.532,662.9825 L910.4644,665.7768 L911.4755,668.0323 L913.2298,670.7224 L913.4263,670.8346 L914.708,673.217 L915.9232,675.5614 L917.2885,677.9914 L919.0005,680.6195 L920.2219,682.9673 L920.1054,682.903 L922.9884,687.6843 L925.0795,692.028 L928.0709,696.8693 L930.5555,701.4304 L932.9034,705.9161 L932.9995,705.9671 L935.0812,709.9927 L937.5072,714.2011 L939.6222,718.2443 L941.6071,722.2185 L943.7,726.25 " fill="none" style="stroke:#181818;stroke-width:1.0;"/><polygon fill="#181818" points="946.16,730.99,946.2299,730.9943,945.9025,729.0155,945.985,727.0616,945.934,725.0997,945.444,723.111,945.5617,721.1593,945.537,721.1515,945.0849,722.1951,944.7573,723.2781,944.5163,724.3885,943.977,725.4046,943.8555,726.5527,943.9112,726.7287,942.7134,726.0112,941.6782,725.8074,940.6629,725.6663,939.5321,725.1605,938.4621,724.8465,938.4763,724.8643,939.995,726.0669,941.5784,727.3504,943.1306,728.5949,944.7422,729.9139,946.16,730.99" style="stroke:#181818;stroke-width:1.0;"/><text fill="#000000" font-family="FG Virgil" font-size="13" lengthAdjust="spacing" textLength="32" x="913.5" y="628.4951">board</text></g><!--MD5=[76f5db91205ab481efe70410ec4b3111]
@startuml
'http://plantuml.com/skinparam.html
skinparam handwritten true
skinparam monochrome true
skinparam packageStyle rect
skinparam defaultFontName FG Virgil
skinparam shadowing false


class HttpServerAjax <<http server>>
class DeletePostItController <<application>>
class SessionManager
class PostItService <<service>>
class PostItFactory <<factory>>
class PostItRepository <<repository>>
class BoardRepository <<repository>>
class PostIt <<domain>>
class User <<domain>>
class Board <<domain>>


HttpServerAjax - -> DeletePostItController: theController
HttpServerAjax - -> SessionManager: sessionManager
SessionManager ..> User
DeletePostItController - -> PostItService: postItSvc
PostItService - -> PostItFactory: postItFactory
PostItService - -> PostItRepository: postItRepository
PostItService - -> BoardRepository: boardRepository
PostItFactory - -> PostIt
PostItRepository - -> PostIt
BoardRepository - -> Board
PostItService - -> PostIt: postIt
PostItService - -> Board: board



HttpServerAjax : deletePostIt(PostItBody, String)
HttpServerAjax : generateLockKey(PostItBody)
HttpServerAjax : getOrCreateLockObject(String)
SessionManager : getUserByToken(String)
DeletePostItController : deletePostIt(String, String, String, User)
PostItService : changePostIt(String, String, String, String, User, PostItState)
PostItService : checkIfIsRowEntryTitle(String, Board)
PostItService : checkIfIsColumnEntryTitle(String, Board)
PostItService : postItByPosition(String, String, Board, boolean)
PostItService : isNumeric(String)
PostItFactory : createChange(String, String, String, User, Board, PostItState, PostIt)
BoardRepository : ofIdentity(Long)
Board : userHasPermission(User, AccessLevel)
PostItRepository : positByPosition(String, String, Board)
PostItRepository : save(PostIt)
PostIt : PostIt(PostItContent, PostItRow, PostItColumn, User, Board, PostItState, PostIt)


@enduml

@startuml
skinparam handwritten true
skinparam monochrome true
skinparam packageStyle rect
skinparam defaultFontName FG Virgil
skinparam shadowing false


class HttpServerAjax <<http server>>
class DeletePostItController <<application>>
class SessionManager
class PostItService <<service>>
class PostItFactory <<factory>>
class PostItRepository <<repository>>
class BoardRepository <<repository>>
class PostIt <<domain>>
class User <<domain>>
class Board <<domain>>


HttpServerAjax - -> DeletePostItController: theController
HttpServerAjax - -> SessionManager: sessionManager
SessionManager ..> User
DeletePostItController - -> PostItService: postItSvc
PostItService - -> PostItFactory: postItFactory
PostItService - -> PostItRepository: postItRepository
PostItService - -> BoardRepository: boardRepository
PostItFactory - -> PostIt
PostItRepository - -> PostIt
BoardRepository - -> Board
PostItService - -> PostIt: postIt
PostItService - -> Board: board



HttpServerAjax : deletePostIt(PostItBody, String)
HttpServerAjax : generateLockKey(PostItBody)
HttpServerAjax : getOrCreateLockObject(String)
SessionManager : getUserByToken(String)
DeletePostItController : deletePostIt(String, String, String, User)
PostItService : changePostIt(String, String, String, String, User, PostItState)
PostItService : checkIfIsRowEntryTitle(String, Board)
PostItService : checkIfIsColumnEntryTitle(String, Board)
PostItService : postItByPosition(String, String, Board, boolean)
PostItService : isNumeric(String)
PostItFactory : createChange(String, String, String, User, Board, PostItState, PostIt)
BoardRepository : ofIdentity(Long)
Board : userHasPermission(User, AccessLevel)
PostItRepository : positByPosition(String, String, Board)
PostItRepository : save(PostIt)
PostIt : PostIt(PostItContent, PostItRow, PostItColumn, User, Board, PostItState, PostIt)


@enduml

PlantUML version 1.2022.7(Mon Aug 22 18:01:30 BST 2022)
(GPL source distribution)
Java Runtime: Java(TM) SE Runtime Environment
JVM: Java HotSpot(TM) 64-Bit Server VM
Default Encoding: Cp1252
Language: pt
Country: PT
--></g></svg>