<?xml version="1.0" encoding="UTF-8" standalone="no"?><svg xmlns="http://www.w3.org/2000/svg" xmlns:xlink="http://www.w3.org/1999/xlink" contentStyleType="text/css" height="814px" preserveAspectRatio="none" style="width:1067px;height:814px;background:#FFFFFF;" version="1.1" viewBox="0 0 1067 814" width="1067px" zoomAndPan="magnify"><defs/><g><!--MD5=[475f3b715ca7ffb20b7527e2f35f29f1]
class HttpServerAjax--><g id="elem_HttpServerAjax"><polygon fill="#F1F1F1" points="679.5,7,679.5,7.2102,689.4231,6.5857,699.3462,7.1933,709.2692,7.3997,719.1923,6.2866,729.1154,6.9223,739.0385,6.5735,748.9615,6.6165,758.8846,6.9318,768.8077,6.3086,778.7308,7.5536,788.6538,6.3697,798.5769,6.8022,808.5,7.4319,818.4231,6.9142,828.3462,7.0682,838.2692,6.9681,848.1923,7.1785,858.1154,7.2391,868.0385,7.5857,877.9615,7.6711,887.8846,7.6793,897.8077,7.2546,907.7308,7.4636,917.6538,7.7022,927.5769,6.2788,937.5,7,937.5866,7.209,937.8157,7.0551,938.2752,7.4573,938.4975,7.2869,938.9055,7.5647,939.2678,7.7322,939.4962,7.8268,939.3992,8.0796,939.5931,8.4528,939.8114,8.8361,939.9817,9.1995,940,9.5,939.9961,9.5,940.2872,19.1847,939.4276,28.8693,940.2844,38.554,940.5482,48.2386,940.4445,57.9233,940.613,67.608,939.5169,77.2926,939.3478,86.9773,939.3786,96.6619,939.9411,106.3466,940,116.0313,939.9395,116.0062,940.0634,116.4717,939.6533,116.7161,939.455,117.0481,939.4845,117.4746,939.2678,117.799,939.1827,117.5937,938.848,117.7856,938.6434,118.2918,938.2627,118.3725,937.9472,118.611,937.5,118.5313,937.5,118.2095,927.5769,118.8504,917.6538,119.1217,907.7308,118.0588,897.8077,118.4354,887.8846,118.6572,877.9615,119.183,868.0385,118.5271,858.1154,118.9938,848.1923,117.9775,838.2692,117.854,828.3462,119.0349,818.4231,117.8143,808.5,119.0402,798.5769,118.7379,788.6538,118.2633,778.7308,118.1775,768.8077,118.99,758.8846,118.2319,748.9615,119.1231,739.0385,117.9785,729.1154,119.1487,719.1923,119.0156,709.2692,118.7762,699.3462,118.5785,689.4231,119.2579,679.5,118.5313,679.5783,118.7202,679.168,118.4369,678.8271,118.3209,678.4227,118.0518,678.1772,118.1661,677.7322,117.799,677.7799,117.8188,677.6389,117.4675,677.252,117.0143,677.1681,116.6867,677.3099,116.4525,677,116.0313,677.4298,116.0313,676.9571,106.3466,676.6778,96.6619,676.7811,86.9773,676.3138,77.2926,677.4147,67.608,677.7396,57.9233,677.5264,48.2386,677.6949,38.554,676.8633,28.8693,677.0872,19.1847,677,9.5,676.8806,9.4506,677.2339,9.1827,677.3689,8.8244,677.6095,8.5098,677.5151,8.0565,677.7322,7.7322,677.7151,7.6908,678.1424,7.7224,678.5117,7.6141,678.7275,7.1351,679.1217,7.0867,679.5,7" style="stroke:#181818;stroke-width:0.5;"/><polygon fill="#C2C2C2" points="768.8108,31.0272,767.1984,33.2304,765.2912,36.4573,762.5636,38.632,759.6974,39.8212,757.412,39.9244,754.4747,38.4371,751.7032,37.4655,749.5995,35.4927,748.4961,33.2343,747.8417,31.4361,747.2006,29.0873,746.16,27.066,746.9596,25.0926,747.6602,22.9308,750.2893,21.221,752.139,19.0027,754.4284,18.266,757.1501,17.6316,760.6404,18.0085,762.5521,18.9101,764.7747,19.3188,767.4772,22.0875,768.4193,25.0105,768.8286,27.0049,768.365,30.2914" style="stroke:#181818;stroke-width:1.0;"/><path d="M760.5156,24.2266 Q760.6719,24.0078 760.8594,23.8984 Q761.0469,23.7891 761.2656,23.7891 Q761.6406,23.7891 761.875,24.0547 Q762.1094,24.3047 762.1094,24.9141 L762.1094,26.3672 Q762.1094,26.9766 761.875,27.2422 Q761.6406,27.5078 761.2656,27.5078 Q760.9219,27.5078 760.7188,27.3047 Q760.5156,27.1172 760.4063,26.6016 Q760.3594,26.2422 760.1719,26.0547 Q759.8438,25.6797 759.2344,25.4609 Q758.625,25.2422 758,25.2422 Q757.2344,25.2422 756.5938,25.5703 Q755.9688,25.8984 755.4688,26.6484 Q754.9844,27.3984 754.9844,28.4297 L754.9844,29.5234 Q754.9844,30.7578 755.875,31.5859 Q756.7656,32.3984 758.3594,32.3984 Q759.2969,32.3984 759.9531,32.1484 Q760.3438,31.9922 760.7656,31.5547 Q761.0313,31.2891 761.1719,31.2109 Q761.3281,31.1328 761.5313,31.1328 Q761.8594,31.1328 762.1094,31.3984 Q762.375,31.6484 762.375,31.9922 Q762.375,32.3359 762.0313,32.7422 Q761.5313,33.3203 760.7344,33.6484 Q759.6563,34.1016 758.3594,34.1016 Q756.8438,34.1016 755.6406,33.4766 Q754.6563,32.9766 753.9688,31.9141 Q753.2813,30.8359 753.2813,29.5547 L753.2813,28.3984 Q753.2813,27.0703 753.8906,25.9297 Q754.5156,24.7734 755.6094,24.1641 Q756.7031,23.5391 757.9375,23.5391 Q758.6719,23.5391 759.3125,23.7109 Q759.9688,23.8672 760.5156,24.2266 Z " fill="#000000"/><text fill="#000000" font-family="FG Virgil" font-size="12" font-style="italic" lengthAdjust="spacing" textLength="71" x="789.25" y="24.457">«http server»</text><text fill="#000000" font-family="FG Virgil" font-size="14" lengthAdjust="spacing" textLength="93" x="778.25" y="41.627">HttpServerAjax</text><path d="M678,49.7031 L678,49.9834 L688.0385,49.1507 L698.0769,49.9608 L708.1154,50.236 L718.1538,48.7519 L728.1923,49.5995 L738.2308,49.1345 L748.2692,49.1918 L758.3077,49.6122 L768.3462,48.7813 L778.3846,50.4413 L788.4231,48.8628 L798.4615,49.4394 L808.5,50.2791 L818.5385,49.5888 L828.5769,49.7941 L838.6154,49.6605 L848.6538,49.9412 L858.6923,50.022 L868.7308,50.484 L878.7692,50.5979 L888.8077,50.6088 L898.8462,50.0426 L908.8846,50.3212 L918.9231,50.6394 L928.9615,48.7415 L939,49.7031 " fill="#F1F1F1" style="stroke:#181818;stroke-width:0.5;"/><path d="M678,57.7031 L678,57.9834 L688.0385,57.1507 L698.0769,57.9608 L708.1154,58.236 L718.1538,56.7519 L728.1923,57.5995 L738.2308,57.1345 L748.2692,57.1918 L758.3077,57.6122 L768.3462,56.7813 L778.3846,58.4413 L788.4231,56.8628 L798.4615,57.4394 L808.5,58.2791 L818.5385,57.5888 L828.5769,57.7941 L838.6154,57.6605 L848.6538,57.9412 L858.6923,58.022 L868.7308,58.484 L878.7692,58.5979 L888.8077,58.6088 L898.8462,58.0426 L908.8846,58.3212 L918.9231,58.6394 L928.9615,56.7415 L939,57.7031 " fill="#F1F1F1" style="stroke:#181818;stroke-width:0.5;"/><text fill="#000000" font-family="FG Virgil" font-size="14" lengthAdjust="spacing" textLength="251" x="683" y="76.2363">updatePostItContent(PostItBody, String)</text><text fill="#000000" font-family="FG Virgil" font-size="14" lengthAdjust="spacing" textLength="188" x="683" y="93.8457">generateLockKey(PostItBody)</text><text fill="#000000" font-family="FG Virgil" font-size="14" lengthAdjust="spacing" textLength="197" x="683" y="111.4551">getOrCreateLockObject(String)</text></g><!--MD5=[5eab4bf4ec930e8a9633e83263067ee1]
class UpdatePostItController--><g id="elem_UpdatePostItController"><polygon fill="#F1F1F1" points="483,197,483,197.2102,492.8611,196.5857,502.7222,197.1933,512.5833,197.3997,522.4444,196.2866,532.3056,196.9223,542.1667,196.5735,552.0278,196.6165,561.8889,196.9318,571.75,196.3086,581.6111,197.5536,591.4722,196.3697,601.3333,196.8022,611.1944,197.4319,621.0556,196.9142,630.9167,197.0682,640.7778,196.9681,650.6389,197.1785,660.5,197.2391,670.3611,197.5857,680.2222,197.6711,690.0833,197.6793,699.9444,197.2546,709.8056,197.4636,719.6667,197.7022,729.5278,196.2788,739.3889,197.6785,749.25,196.7035,759.1111,197.5338,768.9722,196.505,778.8333,196.9315,788.6944,197.7416,798.5556,196.9513,808.4167,197.1053,818.2778,197.3386,828.1389,197.4162,838,197,837.9995,196.9988,838.3902,197.2349,838.6341,197.1166,839.0969,197.5269,839.4841,197.7546,839.7678,197.7322,839.9047,197.7889,840.103,198.164,839.9119,198.3777,840.0063,198.7097,840.1622,199.0672,840.5,199.5,840.4411,199.5,840.3035,209.6875,841.1814,219.875,840.3253,230.0625,840.1569,240.25,840.7283,250.4375,839.8332,260.625,840.5,270.8125,840.3401,270.7463,840.5534,271.2488,840.3413,271.5752,840.2869,271.9669,839.8151,272.1857,839.7678,272.5803,839.8085,272.6786,839.4895,272.9085,839.0004,272.7277,838.6949,272.9901,838.3696,273.2049,838,273.3125,838,273.9643,828.1389,273.3083,818.2778,273.7751,808.4167,272.7587,798.5556,272.6352,788.6944,273.8161,778.8333,272.5956,768.9722,273.8215,759.1111,273.5191,749.25,273.0446,739.3889,272.9587,729.5278,273.7713,719.6667,273.0132,709.8056,273.9044,699.9444,272.7598,690.0833,273.9299,680.2222,273.7968,670.3611,273.5575,660.5,273.3597,650.6389,274.0391,640.7778,273.9261,630.9167,273.4818,621.0556,273.5807,611.1944,273.1822,601.3333,274.029,591.4722,273.4674,581.6111,273.4851,571.75,272.7041,561.8889,272.9073,552.0278,273.8432,542.1667,273.7423,532.3056,273.2696,522.4444,272.9903,512.5833,273.0936,502.7222,272.6263,492.8611,273.7272,483,273.3125,483.0943,273.5403,482.7136,273.3282,482.3815,273.2336,481.9219,272.8311,481.5969,272.7536,481.2322,272.5803,481.1129,272.5308,481.1733,272.2629,481.0153,271.9046,480.963,271.5901,480.5757,271.1368,480.5,270.8125,480.3656,270.8125,480.9435,260.625,481.0673,250.4375,479.9875,240.25,480.3061,230.0625,480.6493,219.875,479.8892,209.6875,480.5,199.5,480.6088,199.5451,480.7259,199.1794,480.7619,198.78,480.9831,198.4575,481.3102,198.1787,481.2322,197.7322,481.1923,197.6359,481.626,197.6828,481.9758,197.5273,482.3077,197.3285,482.6644,197.1898,483,197" style="stroke:#181818;stroke-width:0.5;"/><polygon fill="#C2C2C2" points="596.3108,221.0272,594.6984,223.2304,592.7912,226.4573,590.0636,228.632,587.1974,229.8212,584.912,229.9244,581.9747,228.4371,579.2032,227.4655,577.0995,225.4927,575.9961,223.2343,575.3417,221.4361,574.7006,219.0873,573.66,217.066,574.4596,215.0926,575.1602,212.9308,577.7893,211.221,579.639,209.0027,581.9284,208.266,584.6501,207.6316,588.1404,208.0085,590.0521,208.9101,592.2747,209.3188,594.9772,212.0875,595.9193,215.0105,596.3286,217.0049,595.865,220.2914" style="stroke:#181818;stroke-width:1.0;"/><path d="M588.0156,214.2266 Q588.1719,214.0078 588.3594,213.8984 Q588.5469,213.7891 588.7656,213.7891 Q589.1406,213.7891 589.375,214.0547 Q589.6094,214.3047 589.6094,214.9141 L589.6094,216.3672 Q589.6094,216.9766 589.375,217.2422 Q589.1406,217.5078 588.7656,217.5078 Q588.4219,217.5078 588.2188,217.3047 Q588.0156,217.1172 587.9063,216.6016 Q587.8594,216.2422 587.6719,216.0547 Q587.3438,215.6797 586.7344,215.4609 Q586.125,215.2422 585.5,215.2422 Q584.7344,215.2422 584.0938,215.5703 Q583.4688,215.8984 582.9688,216.6484 Q582.4844,217.3984 582.4844,218.4297 L582.4844,219.5234 Q582.4844,220.7578 583.375,221.5859 Q584.2656,222.3984 585.8594,222.3984 Q586.7969,222.3984 587.4531,222.1484 Q587.8438,221.9922 588.2656,221.5547 Q588.5313,221.2891 588.6719,221.2109 Q588.8281,221.1328 589.0313,221.1328 Q589.3594,221.1328 589.6094,221.3984 Q589.875,221.6484 589.875,221.9922 Q589.875,222.3359 589.5313,222.7422 Q589.0313,223.3203 588.2344,223.6484 Q587.1563,224.1016 585.8594,224.1016 Q584.3438,224.1016 583.1406,223.4766 Q582.1563,222.9766 581.4688,221.9141 Q580.7813,220.8359 580.7813,219.5547 L580.7813,218.3984 Q580.7813,217.0703 581.3906,215.9297 Q582.0156,214.7734 583.1094,214.1641 Q584.2031,213.5391 585.4375,213.5391 Q586.1719,213.5391 586.8125,213.7109 Q587.4688,213.8672 588.0156,214.2266 Z " fill="#000000"/><text fill="#000000" font-family="FG Virgil" font-size="12" font-style="italic" lengthAdjust="spacing" textLength="74" x="639.75" y="214.457">«application»</text><text fill="#000000" font-family="FG Virgil" font-size="14" lengthAdjust="spacing" textLength="142" x="605.75" y="231.627">UpdatePostItController</text><path d="M481.5,239.7031 L481.5,239.9834 L491.4444,239.1507 L501.3889,239.9608 L511.3333,240.236 L521.2778,238.7519 L531.2222,239.5995 L541.1667,239.1345 L551.1111,239.1918 L561.0556,239.6122 L571,238.7813 L580.9444,240.4413 L590.8889,238.8628 L600.8333,239.4394 L610.7778,240.2791 L620.7222,239.5888 L630.6667,239.7941 L640.6111,239.6605 L650.5556,239.9412 L660.5,240.022 L670.4444,240.484 L680.3889,240.5979 L690.3333,240.6088 L700.2778,240.0426 L710.2222,240.3212 L720.1667,240.6394 L730.1111,238.7415 L740.0556,240.6078 L750,239.3078 L759.9444,240.4149 L769.8889,239.0431 L779.8333,239.6118 L789.7778,240.6919 L799.7222,239.6381 L809.6667,239.8435 L819.6111,240.1546 L829.5556,240.2581 L839.5,239.7031 " fill="#F1F1F1" style="stroke:#181818;stroke-width:0.5;"/><path d="M481.5,247.7031 L481.5,247.9834 L491.4444,247.1507 L501.3889,247.9608 L511.3333,248.236 L521.2778,246.7519 L531.2222,247.5995 L541.1667,247.1345 L551.1111,247.1918 L561.0556,247.6122 L571,246.7813 L580.9444,248.4413 L590.8889,246.8628 L600.8333,247.4394 L610.7778,248.2791 L620.7222,247.5888 L630.6667,247.7941 L640.6111,247.6605 L650.5556,247.9412 L660.5,248.022 L670.4444,248.484 L680.3889,248.5979 L690.3333,248.6088 L700.2778,248.0426 L710.2222,248.3212 L720.1667,248.6394 L730.1111,246.7415 L740.0556,248.6078 L750,247.3078 L759.9444,248.4149 L769.8889,247.0431 L779.8333,247.6118 L789.7778,248.6919 L799.7222,247.6381 L809.6667,247.8435 L819.6111,248.1546 L829.5556,248.2581 L839.5,247.7031 " fill="#F1F1F1" style="stroke:#181818;stroke-width:0.5;"/><text fill="#000000" font-family="FG Virgil" font-size="14" lengthAdjust="spacing" textLength="348" x="486.5" y="266.2363">updatePostItContent(String, String, String, String, User)</text></g><!--MD5=[f097a9da547c6f19ba7a5c97c093eb18]
class SessionManager--><g id="elem_SessionManager"><polygon fill="#F1F1F1" points="878,202,878,202.2102,887.9375,201.5857,897.875,202.1933,907.8125,202.3997,917.75,201.2866,927.6875,201.9223,937.625,201.5735,947.5625,201.6165,957.5,201.9318,967.4375,201.3086,977.375,202.5536,987.3125,201.3697,997.25,201.8022,1007.1875,202.4319,1017.125,201.9142,1027.0625,202.0682,1037,202,1036.9959,201.9902,1037.3763,202.2014,1037.7376,202.3665,1038.1354,202.6197,1038.4998,202.7924,1038.7678,202.7322,1038.977,202.8189,1038.9926,203.1183,1039.2034,203.4985,1039.4234,203.8825,1039.1315,204.0545,1039.5,204.5,1040.1785,204.5,1039.2035,214.6016,1040.0338,224.7031,1039.005,234.8047,1039.4315,244.9063,1040.2416,255.0078,1039.5,265.1094,1039.485,265.1032,1039.386,265.4764,1039.3114,265.8597,1039.1888,266.2231,1038.913,266.5231,1038.7678,266.8771,1038.8044,266.9656,1038.3412,266.8473,1038.0969,267.2576,1037.777,267.4853,1037.4103,267.5998,1037,267.6094,1037,268.2224,1027.0625,267.1263,1017.125,266.9572,1007.1875,266.988,997.25,267.5505,987.3125,267.4128,977.375,268.2908,967.4375,267.4347,957.5,267.2663,947.5625,267.8376,937.625,266.9425,927.6875,267.0902,917.75,268.2583,907.8125,268.045,897.875,268.3439,887.9375,267.2876,878,267.6094,878.0407,267.7077,877.7218,267.6448,877.2326,267.171,876.9271,267.1405,876.6019,267.0624,876.2322,266.8771,876.4329,266.9603,876.0845,266.5231,876.0818,266.229,875.6223,265.7458,875.4379,265.3765,875.5,265.1094,876.0036,265.1094,874.7831,255.0078,876.009,244.9063,875.7066,234.8047,875.2321,224.7031,875.1462,214.6016,875.5,204.5,875.6413,204.5585,875.5543,204.1083,875.9752,203.8684,875.7691,203.3688,876.2759,203.1645,876.2322,202.7322,876.294,202.8814,876.617,202.6612,876.9454,202.4539,877.3856,202.5167,877.7247,202.3354,878,202" style="stroke:#181818;stroke-width:0.5;"/><polygon fill="#C2C2C2" points="913.2608,220.6756,911.6484,222.8788,909.7412,226.1057,907.0136,228.2804,904.1474,229.4696,901.862,229.5728,898.9247,228.0855,896.1532,227.1139,894.0495,225.1412,892.9461,222.8828,892.2917,221.0845,891.6506,218.7357,890.61,216.7145,891.4096,214.741,892.1102,212.5792,894.7393,210.8695,896.589,208.6511,898.8784,207.9144,901.6001,207.2801,905.0904,207.657,907.0021,208.5585,909.2247,208.9672,911.9272,211.736,912.8693,214.659,913.2786,216.6534,912.815,219.9399" style="stroke:#181818;stroke-width:1.0;"/><path d="M904.9656,213.875 Q905.1219,213.6563 905.3094,213.5469 Q905.4969,213.4375 905.7156,213.4375 Q906.0906,213.4375 906.325,213.7031 Q906.5594,213.9531 906.5594,214.5625 L906.5594,216.0156 Q906.5594,216.625 906.325,216.8906 Q906.0906,217.1563 905.7156,217.1563 Q905.3719,217.1563 905.1688,216.9531 Q904.9656,216.7656 904.8563,216.25 Q904.8094,215.8906 904.6219,215.7031 Q904.2938,215.3281 903.6844,215.1094 Q903.075,214.8906 902.45,214.8906 Q901.6844,214.8906 901.0438,215.2188 Q900.4188,215.5469 899.9188,216.2969 Q899.4344,217.0469 899.4344,218.0781 L899.4344,219.1719 Q899.4344,220.4063 900.325,221.2344 Q901.2156,222.0469 902.8094,222.0469 Q903.7469,222.0469 904.4031,221.7969 Q904.7938,221.6406 905.2156,221.2031 Q905.4813,220.9375 905.6219,220.8594 Q905.7781,220.7813 905.9813,220.7813 Q906.3094,220.7813 906.5594,221.0469 Q906.825,221.2969 906.825,221.6406 Q906.825,221.9844 906.4813,222.3906 Q905.9813,222.9688 905.1844,223.2969 Q904.1063,223.75 902.8094,223.75 Q901.2938,223.75 900.0906,223.125 Q899.1063,222.625 898.4188,221.5625 Q897.7313,220.4844 897.7313,219.2031 L897.7313,218.0469 Q897.7313,216.7188 898.3406,215.5781 Q898.9656,214.4219 900.0594,213.8125 Q901.1531,213.1875 902.3875,213.1875 Q903.1219,213.1875 903.7625,213.3594 Q904.4188,213.5156 904.9656,213.875 Z " fill="#000000"/><text fill="#000000" font-family="FG Virgil" font-size="14" lengthAdjust="spacing" textLength="106" x="918.8" y="223.7285">SessionManager</text><path d="M876.5,234 L876.5,234.2802 L886.625,233.4476 L896.75,234.2577 L906.875,234.5329 L917,233.0488 L927.125,233.8964 L937.25,233.4313 L947.375,233.4887 L957.5,233.9091 L967.625,233.0782 L977.75,234.7382 L987.875,233.1596 L998,233.7363 L1008.125,234.5759 L1018.25,233.8856 L1028.375,234.091 L1038.5,234 " fill="#F1F1F1" style="stroke:#181818;stroke-width:0.5;"/><path d="M876.5,242 L876.5,242.2802 L886.625,241.4476 L896.75,242.2577 L906.875,242.5329 L917,241.0488 L927.125,241.8964 L937.25,241.4313 L947.375,241.4887 L957.5,241.9091 L967.625,241.0782 L977.75,242.7382 L987.875,241.1596 L998,241.7363 L1008.125,242.5759 L1018.25,241.8856 L1028.375,242.091 L1038.5,242 " fill="#F1F1F1" style="stroke:#181818;stroke-width:0.5;"/><text fill="#000000" font-family="FG Virgil" font-size="14" lengthAdjust="spacing" textLength="152" x="881.5" y="260.5332">getUserByToken(String)</text></g><!--MD5=[eb95342d67c177a44e4018fdebeb06c1]
class PostItService--><g id="elem_PostItService"><polygon fill="#F1F1F1" points="500.5,351,500.5,351.2102,510.5,350.5857,520.5,351.1933,530.5,351.3997,540.5,350.2866,550.5,350.9223,560.5,350.5735,570.5,350.6165,580.5,350.9318,590.5,350.3086,600.5,351.5536,610.5,350.3697,620.5,350.8022,630.5,351.4319,640.5,350.9142,650.5,351.0682,660.5,350.9681,670.5,351.1785,680.5,351.2391,690.5,351.5857,700.5,351.6711,710.5,351.6793,720.5,351.2546,730.5,351.4636,740.5,351.7022,750.5,350.2788,760.5,351.6785,770.5,350.7035,780.5,351.5338,790.5,350.505,800.5,350.9315,810.5,351.7416,820.5,351,820.4938,350.985,820.867,351.1789,821.2503,351.3972,821.6138,351.5675,821.9137,351.5846,822.2678,351.7322,822.3562,351.7689,822.2379,352.0128,822.6482,352.4756,822.8759,352.8628,822.9905,353.2032,823,353.5,823.613,353.5,822.5169,363.625,822.3478,373.75,822.3786,383.875,822.9411,394,822.8035,404.125,823.6814,414.25,822.8253,424.375,822.6569,434.5,823.2283,444.625,822.3332,454.75,822.4809,464.875,823.649,475,823.4357,485.125,823,495.25,823.2262,495.3437,822.7545,495.5625,822.8054,495.9978,822.7425,496.386,822.2687,496.604,822.2678,497.0178,822.2555,496.9882,821.9303,497.203,821.6438,497.5114,821.2066,497.4558,820.9126,497.746,820.5,497.75,820.5,497.1962,810.5,497.0727,800.5,498.2536,790.5,497.0331,780.5,498.259,770.5,497.9566,760.5,497.4821,750.5,497.3962,740.5,498.2088,730.5,497.4507,720.5,498.3419,710.5,497.1973,700.5,498.3674,690.5,498.2343,680.5,497.995,670.5,497.7972,660.5,498.4766,650.5,498.3636,640.5,497.9193,630.5,498.0182,620.5,497.6197,610.5,498.4665,600.5,497.9049,590.5,497.9226,580.5,497.1416,570.5,497.3448,560.5,498.2807,550.5,498.1798,540.5,497.7071,530.5,497.4278,520.5,497.5311,510.5,497.0638,500.5,497.75,500.5529,497.8777,500.2408,497.8313,499.86,497.6192,499.528,497.5247,499.0683,497.1221,498.7322,497.0178,498.7591,497.0289,498.4664,496.6148,498.5268,496.3469,498.3689,495.9886,498.3166,495.674,498,495.25,497.7703,495.25,497.8656,485.125,498.4435,475,498.5673,464.875,497.4875,454.75,497.8061,444.625,498.1493,434.5,497.3892,424.375,498.3534,414.25,498.258,404.125,497.8992,394,498.1422,383.875,498.7287,373.75,497.6871,363.625,498,353.5,498.097,353.5402,498.2344,353.1829,498.3285,352.8077,498.4827,352.4573,498.6207,352.1003,498.7322,351.7322,498.6526,351.54,499.0347,351.4624,499.3805,351.2972,499.801,351.3125,500.1577,351.1736,500.5,351" style="stroke:#181818;stroke-width:0.5;"/><polygon fill="#C2C2C2" points="626.3108,375.0272,624.6984,377.2304,622.7912,380.4573,620.0636,382.632,617.1974,383.8212,614.912,383.9244,611.9747,382.4371,609.2032,381.4655,607.0995,379.4927,605.9961,377.2343,605.3417,375.4361,604.7006,373.0873,603.66,371.066,604.4596,369.0926,605.1602,366.9308,607.7893,365.221,609.639,363.0027,611.9284,362.266,614.6501,361.6316,618.1404,362.0085,620.0521,362.9101,622.2747,363.3188,624.9772,366.0875,625.9193,369.0105,626.3286,371.0049,625.865,374.2914" style="stroke:#181818;stroke-width:1.0;"/><path d="M618.0156,368.2266 Q618.1719,368.0078 618.3594,367.8984 Q618.5469,367.7891 618.7656,367.7891 Q619.1406,367.7891 619.375,368.0547 Q619.6094,368.3047 619.6094,368.9141 L619.6094,370.3672 Q619.6094,370.9766 619.375,371.2422 Q619.1406,371.5078 618.7656,371.5078 Q618.4219,371.5078 618.2188,371.3047 Q618.0156,371.1172 617.9063,370.6016 Q617.8594,370.2422 617.6719,370.0547 Q617.3438,369.6797 616.7344,369.4609 Q616.125,369.2422 615.5,369.2422 Q614.7344,369.2422 614.0938,369.5703 Q613.4688,369.8984 612.9688,370.6484 Q612.4844,371.3984 612.4844,372.4297 L612.4844,373.5234 Q612.4844,374.7578 613.375,375.5859 Q614.2656,376.3984 615.8594,376.3984 Q616.7969,376.3984 617.4531,376.1484 Q617.8438,375.9922 618.2656,375.5547 Q618.5313,375.2891 618.6719,375.2109 Q618.8281,375.1328 619.0313,375.1328 Q619.3594,375.1328 619.6094,375.3984 Q619.875,375.6484 619.875,375.9922 Q619.875,376.3359 619.5313,376.7422 Q619.0313,377.3203 618.2344,377.6484 Q617.1563,378.1016 615.8594,378.1016 Q614.3438,378.1016 613.1406,377.4766 Q612.1563,376.9766 611.4688,375.9141 Q610.7813,374.8359 610.7813,373.5547 L610.7813,372.3984 Q610.7813,371.0703 611.3906,369.9297 Q612.0156,368.7734 613.1094,368.1641 Q614.2031,367.5391 615.4375,367.5391 Q616.1719,367.5391 616.8125,367.7109 Q617.4688,367.8672 618.0156,368.2266 Z " fill="#000000"/><text fill="#000000" font-family="FG Virgil" font-size="12" font-style="italic" lengthAdjust="spacing" textLength="53" x="650.25" y="368.457">«service»</text><text fill="#000000" font-family="FG Virgil" font-size="14" lengthAdjust="spacing" textLength="82" x="635.75" y="385.627">PostItService</text><path d="M499,393.7031 L499,393.9834 L509.0938,393.1507 L519.1875,393.9608 L529.2813,394.236 L539.375,392.7519 L549.4688,393.5995 L559.5625,393.1345 L569.6563,393.1918 L579.75,393.6122 L589.8438,392.7813 L599.9375,394.4413 L610.0313,392.8628 L620.125,393.4394 L630.2188,394.2791 L640.3125,393.5888 L650.4063,393.7941 L660.5,393.6605 L670.5938,393.9412 L680.6875,394.022 L690.7813,394.484 L700.875,394.5979 L710.9688,394.6088 L721.0625,394.0426 L731.1563,394.3212 L741.25,394.6394 L751.3438,392.7415 L761.4375,394.6078 L771.5313,393.3078 L781.625,394.4149 L791.7188,393.0431 L801.8125,393.6118 L811.9063,394.6919 L822,393.7031 " fill="#F1F1F1" style="stroke:#181818;stroke-width:0.5;"/><path d="M499,401.7031 L499,401.9834 L509.0938,401.1507 L519.1875,401.9608 L529.2813,402.236 L539.375,400.7519 L549.4688,401.5995 L559.5625,401.1345 L569.6563,401.1918 L579.75,401.6122 L589.8438,400.7813 L599.9375,402.4413 L610.0313,400.8628 L620.125,401.4394 L630.2188,402.2791 L640.3125,401.5888 L650.4063,401.7941 L660.5,401.6605 L670.5938,401.9412 L680.6875,402.022 L690.7813,402.484 L700.875,402.5979 L710.9688,402.6088 L721.0625,402.0426 L731.1563,402.3212 L741.25,402.6394 L751.3438,400.7415 L761.4375,402.6078 L771.5313,401.3078 L781.625,402.4149 L791.7188,401.0431 L801.8125,401.6118 L811.9063,402.6919 L822,401.7031 " fill="#F1F1F1" style="stroke:#181818;stroke-width:0.5;"/><text fill="#000000" font-family="FG Virgil" font-size="14" lengthAdjust="spacing" textLength="313" x="504" y="420.2363">updateContent(String, String, String, String, User)</text><text fill="#000000" font-family="FG Virgil" font-size="14" lengthAdjust="spacing" textLength="234" x="504" y="437.8457">checkIfIsRowEntryTitle(String, Board)</text><text fill="#000000" font-family="FG Virgil" font-size="14" lengthAdjust="spacing" textLength="255" x="504" y="455.4551">checkIfIsColumnEntryTitle(String, Board)</text><text fill="#000000" font-family="FG Virgil" font-size="14" lengthAdjust="spacing" textLength="297" x="504" y="473.0645">postItByPosition(String, String, Board, boolean)</text><text fill="#000000" font-family="FG Virgil" font-size="14" lengthAdjust="spacing" textLength="108" x="504" y="490.6738">isNumeric(String)</text></g><!--MD5=[0182a422c6ed2cd05fe32b6e46ab69a0]
class PostItFactory--><g id="elem_PostItFactory"><polygon fill="#F1F1F1" points="9.5,585,9.5,585.2102,19.3974,584.5857,29.2949,585.1933,39.1923,585.3997,49.0897,584.2866,58.9872,584.9223,68.8846,584.5735,78.7821,584.6165,88.6795,584.9318,98.5769,584.3086,108.4744,585.5536,118.3718,584.3697,128.2692,584.8022,138.1667,585.4319,148.0641,584.9142,157.9615,585.0682,167.859,584.9681,177.7564,585.1785,187.6538,585.2391,197.5513,585.5857,207.4487,585.6711,217.3462,585.6793,227.2436,585.2546,237.141,585.4636,247.0385,585.7022,256.9359,584.2788,266.8333,585.6785,276.7308,584.7035,286.6282,585.5338,296.5256,584.505,306.4231,584.9315,316.3205,585.7416,326.2179,584.9513,336.1154,585.1053,346.0128,585.3386,355.9103,585.4162,365.8077,584.9961,375.7051,585.2872,385.6026,584.4276,395.5,585,395.5363,585.0876,395.9235,585.3153,396.2638,585.4298,396.6389,585.6281,396.8526,585.437,397.2678,585.7322,397.0669,585.649,397.2228,586.0065,397.5425,586.4318,397.6466,586.7678,398.0634,587.2334,398,587.5,397.8253,587.5,397.6569,597.6875,398.2283,607.875,397.3332,618.0625,397.4809,628.25,398.649,638.4375,398.4357,648.625,398,658.8125,398.2262,658.9062,397.7545,659.125,397.8054,659.5603,397.7425,659.9485,397.2687,660.1665,397.2678,660.5803,397.2555,660.5507,396.9303,660.7655,396.6438,661.0739,396.2066,661.0183,395.9126,661.3085,395.5,661.3125,395.5,660.7587,385.6026,660.6352,375.7051,661.8161,365.8077,660.5956,355.9103,661.8215,346.0128,661.5191,336.1154,661.0446,326.2179,660.9587,316.3205,661.7713,306.4231,661.0132,296.5256,661.9044,286.6282,660.7598,276.7308,661.9299,266.8333,661.7968,256.9359,661.5575,247.0385,661.3597,237.141,662.0391,227.2436,661.9261,217.3462,661.4818,207.4487,661.5807,197.5513,661.1822,187.6538,662.029,177.7564,661.4674,167.859,661.4851,157.9615,660.7041,148.0641,660.9073,138.1667,661.8432,128.2692,661.7423,118.3718,661.2696,108.4744,660.9903,98.5769,661.0936,88.6795,660.6263,78.7821,661.7272,68.8846,662.0521,58.9872,661.8389,49.0897,662.0074,39.1923,661.1758,29.2949,661.3997,19.3974,660.9249,9.5,661.3125,9.5362,661.4,9.1779,661.242,8.8634,661.1897,8.41,660.8024,8.0686,660.6853,7.7322,660.5803,7.8688,660.6368,7.7605,660.2991,7.2815,659.8078,7.2332,659.4949,7.1924,659.1851,7,658.8125,6.3892,658.8125,7.3534,648.625,7.258,638.4375,6.8992,628.25,7.1422,618.0625,7.7287,607.875,6.6871,597.6875,7,587.5,7.097,587.5402,7.2344,587.1829,7.3285,586.8077,7.4827,586.4573,7.6207,586.1003,7.7322,585.7322,7.6526,585.54,8.0347,585.4624,8.3805,585.2972,8.801,585.3125,9.1577,585.1736,9.5,585" style="stroke:#181818;stroke-width:0.5;"/><polygon fill="#C2C2C2" points="167.8108,609.0272,166.1984,611.2304,164.2912,614.4573,161.5636,616.632,158.6974,617.8212,156.412,617.9244,153.4747,616.4371,150.7032,615.4655,148.5995,613.4927,147.4961,611.2343,146.8417,609.4361,146.2006,607.0873,145.16,605.066,145.9596,603.0926,146.6602,600.9308,149.2893,599.221,151.139,597.0027,153.4284,596.266,156.1501,595.6316,159.6404,596.0085,161.5521,596.9101,163.7747,597.3188,166.4772,600.0875,167.4193,603.0105,167.8286,605.0049,167.365,608.2914" style="stroke:#181818;stroke-width:1.0;"/><path d="M159.5156,602.2266 Q159.6719,602.0078 159.8594,601.8984 Q160.0469,601.7891 160.2656,601.7891 Q160.6406,601.7891 160.875,602.0547 Q161.1094,602.3047 161.1094,602.9141 L161.1094,604.3672 Q161.1094,604.9766 160.875,605.2422 Q160.6406,605.5078 160.2656,605.5078 Q159.9219,605.5078 159.7188,605.3047 Q159.5156,605.1172 159.4063,604.6016 Q159.3594,604.2422 159.1719,604.0547 Q158.8438,603.6797 158.2344,603.4609 Q157.625,603.2422 157,603.2422 Q156.2344,603.2422 155.5938,603.5703 Q154.9688,603.8984 154.4688,604.6484 Q153.9844,605.3984 153.9844,606.4297 L153.9844,607.5234 Q153.9844,608.7578 154.875,609.5859 Q155.7656,610.3984 157.3594,610.3984 Q158.2969,610.3984 158.9531,610.1484 Q159.3438,609.9922 159.7656,609.5547 Q160.0313,609.2891 160.1719,609.2109 Q160.3281,609.1328 160.5313,609.1328 Q160.8594,609.1328 161.1094,609.3984 Q161.375,609.6484 161.375,609.9922 Q161.375,610.3359 161.0313,610.7422 Q160.5313,611.3203 159.7344,611.6484 Q158.6563,612.1016 157.3594,612.1016 Q155.8438,612.1016 154.6406,611.4766 Q153.6563,610.9766 152.9688,609.9141 Q152.2813,608.8359 152.2813,607.5547 L152.2813,606.3984 Q152.2813,605.0703 152.8906,603.9297 Q153.5156,602.7734 154.6094,602.1641 Q155.7031,601.5391 156.9375,601.5391 Q157.6719,601.5391 158.3125,601.7109 Q158.9688,601.8672 159.5156,602.2266 Z " fill="#000000"/><text fill="#000000" font-family="FG Virgil" font-size="12" font-style="italic" lengthAdjust="spacing" textLength="50" x="193.75" y="602.457">«factory»</text><text fill="#000000" font-family="FG Virgil" font-size="14" lengthAdjust="spacing" textLength="83" x="177.25" y="619.627">PostItFactory</text><path d="M8,627.7031 L8,627.9834 L17.9744,627.1507 L27.9487,627.9608 L37.9231,628.236 L47.8974,626.7519 L57.8718,627.5995 L67.8462,627.1345 L77.8205,627.1918 L87.7949,627.6122 L97.7692,626.7813 L107.7436,628.4413 L117.7179,626.8628 L127.6923,627.4394 L137.6667,628.2791 L147.641,627.5888 L157.6154,627.7941 L167.5897,627.6605 L177.5641,627.9412 L187.5385,628.022 L197.5128,628.484 L207.4872,628.5979 L217.4615,628.6088 L227.4359,628.0426 L237.4103,628.3212 L247.3846,628.6394 L257.359,626.7415 L267.3333,628.6078 L277.3077,627.3078 L287.2821,628.4149 L297.2564,627.0431 L307.2308,627.6118 L317.2051,628.6919 L327.1795,627.6381 L337.1538,627.8435 L347.1282,628.1546 L357.1026,628.2581 L367.0769,627.6979 L377.0513,628.0861 L387.0256,626.9399 L397,627.7031 " fill="#F1F1F1" style="stroke:#181818;stroke-width:0.5;"/><path d="M8,635.7031 L8,635.9834 L17.9744,635.1507 L27.9487,635.9608 L37.9231,636.236 L47.8974,634.7519 L57.8718,635.5995 L67.8462,635.1345 L77.8205,635.1918 L87.7949,635.6122 L97.7692,634.7813 L107.7436,636.4413 L117.7179,634.8628 L127.6923,635.4394 L137.6667,636.2791 L147.641,635.5888 L157.6154,635.7941 L167.5897,635.6605 L177.5641,635.9412 L187.5385,636.022 L197.5128,636.484 L207.4872,636.5979 L217.4615,636.6088 L227.4359,636.0426 L237.4103,636.3212 L247.3846,636.6394 L257.359,634.7415 L267.3333,636.6078 L277.3077,635.3078 L287.2821,636.4149 L297.2564,635.0431 L307.2308,635.6118 L317.2051,636.6919 L327.1795,635.6381 L337.1538,635.8435 L347.1282,636.1546 L357.1026,636.2581 L367.0769,635.6979 L377.0513,636.0861 L387.0256,634.9399 L397,635.7031 " fill="#F1F1F1" style="stroke:#181818;stroke-width:0.5;"/><text fill="#000000" font-family="FG Virgil" font-size="14" lengthAdjust="spacing" textLength="379" x="13" y="654.2363">create(String, String, String, User, Board, PostItState, PostIt)</text></g><!--MD5=[d98fa60e7e29446a1b02022748feb6fd]
class PostItRepository--><g id="elem_PostItRepository"><polygon fill="#F1F1F1" points="540,576,540,576.2102,550.0417,575.5857,560.0833,576.1933,570.125,576.3997,580.1667,575.2866,590.2083,575.9223,600.25,575.5735,610.2917,575.6165,620.3333,575.9318,630.375,575.3086,640.4167,576.5536,650.4583,575.3697,660.5,575.8022,670.5417,576.4319,680.5833,575.9142,690.625,576.0682,700.6667,575.9681,710.7083,576.1785,720.75,576.2391,730.7917,576.5857,740.8333,576.6711,750.875,576.6793,760.9167,576.2546,770.9583,576.4636,781,576,781.0896,576.2163,781.2616,575.9244,781.7937,576.5018,782.0228,576.348,782.4823,576.7502,782.7678,576.7322,782.6153,576.6691,782.8931,577.077,783.289,577.5339,783.1921,577.7867,783.386,578.1599,783.5,578.5,783.8386,578.5,783.9162,588.3802,783.4961,598.2604,783.7872,608.1406,782.9276,618.0208,783.7844,627.901,784.0482,637.7813,783.9445,647.6615,784.113,657.5417,783.5,667.4219,783.3512,667.3603,783.1527,667.6922,783.0157,668.0497,783.0425,668.475,782.8537,668.811,782.7678,669.1896,782.8547,669.3995,782.3919,669.2823,782.0169,669.3769,781.7362,669.6993,781.2685,669.5701,781,669.9219,781,669.4027,770.9583,670.5708,760.9167,670.3575,750.875,670.6564,740.8333,669.6001,730.7917,670.2411,720.75,670.5123,710.7083,669.4495,700.6667,669.826,690.625,670.0479,680.5833,670.5736,670.5417,669.9177,660.5,670.3844,650.4583,669.3681,640.4167,669.2446,630.375,670.4255,620.3333,669.2049,610.2917,670.4308,600.25,670.1285,590.2083,669.654,580.1667,669.5681,570.125,670.3806,560.0833,669.6225,550.0417,670.5137,540,669.9219,539.9295,669.7517,539.7252,669.9656,539.3547,669.7781,538.9706,669.558,538.5918,669.3506,538.2322,669.1896,538.456,669.2823,538.2747,668.9144,537.9915,668.5041,537.8755,668.1632,537.6063,667.7588,537.5,667.4219,538.2165,667.4219,537.6549,657.5417,537.6726,647.6615,536.8916,637.7813,537.0948,627.901,538.0307,618.0208,537.9298,608.1406,537.4571,598.2604,537.1778,588.3802,537.5,578.5,537.4326,578.4721,537.4351,578.0589,537.9206,577.8458,538.1671,577.5337,538.2479,577.1529,538.2322,576.7322,538.3209,576.9462,538.5683,576.5437,538.9505,576.4662,539.2435,576.1735,539.6827,576.2339,540,576" style="stroke:#181818;stroke-width:0.5;"/><polygon fill="#C2C2C2" points="615.8108,600.0272,614.1984,602.2304,612.2912,605.4573,609.5636,607.632,606.6974,608.8212,604.412,608.9244,601.4747,607.4371,598.7032,606.4655,596.5995,604.4927,595.4961,602.2343,594.8417,600.4361,594.2006,598.0873,593.16,596.066,593.9596,594.0926,594.6602,591.9308,597.2893,590.221,599.139,588.0027,601.4284,587.266,604.1501,586.6316,607.6404,587.0085,609.5521,587.9101,611.7747,588.3188,614.4772,591.0875,615.4193,594.0105,615.8286,596.0049,615.365,599.2914" style="stroke:#181818;stroke-width:1.0;"/><path d="M607.5156,593.2266 Q607.6719,593.0078 607.8594,592.8984 Q608.0469,592.7891 608.2656,592.7891 Q608.6406,592.7891 608.875,593.0547 Q609.1094,593.3047 609.1094,593.9141 L609.1094,595.3672 Q609.1094,595.9766 608.875,596.2422 Q608.6406,596.5078 608.2656,596.5078 Q607.9219,596.5078 607.7188,596.3047 Q607.5156,596.1172 607.4063,595.6016 Q607.3594,595.2422 607.1719,595.0547 Q606.8438,594.6797 606.2344,594.4609 Q605.625,594.2422 605,594.2422 Q604.2344,594.2422 603.5938,594.5703 Q602.9688,594.8984 602.4688,595.6484 Q601.9844,596.3984 601.9844,597.4297 L601.9844,598.5234 Q601.9844,599.7578 602.875,600.5859 Q603.7656,601.3984 605.3594,601.3984 Q606.2969,601.3984 606.9531,601.1484 Q607.3438,600.9922 607.7656,600.5547 Q608.0313,600.2891 608.1719,600.2109 Q608.3281,600.1328 608.5313,600.1328 Q608.8594,600.1328 609.1094,600.3984 Q609.375,600.6484 609.375,600.9922 Q609.375,601.3359 609.0313,601.7422 Q608.5313,602.3203 607.7344,602.6484 Q606.6563,603.1016 605.3594,603.1016 Q603.8438,603.1016 602.6406,602.4766 Q601.6563,601.9766 600.9688,600.9141 Q600.2813,599.8359 600.2813,598.5547 L600.2813,597.3984 Q600.2813,596.0703 600.8906,594.9297 Q601.5156,593.7734 602.6094,593.1641 Q603.7031,592.5391 604.9375,592.5391 Q605.6719,592.5391 606.3125,592.7109 Q606.9688,592.8672 607.5156,593.2266 Z " fill="#000000"/><text fill="#000000" font-family="FG Virgil" font-size="12" font-style="italic" lengthAdjust="spacing" textLength="68" x="642.75" y="593.457">«repository»</text><text fill="#000000" font-family="FG Virgil" font-size="14" lengthAdjust="spacing" textLength="103" x="625.25" y="610.627">PostItRepository</text><path d="M538.5,618.7031 L538.5,618.9834 L548.6667,618.1507 L558.8333,618.9608 L569,619.236 L579.1667,617.7519 L589.3333,618.5995 L599.5,618.1345 L609.6667,618.1918 L619.8333,618.6122 L630,617.7813 L640.1667,619.4413 L650.3333,617.8628 L660.5,618.4394 L670.6667,619.2791 L680.8333,618.5888 L691,618.7941 L701.1667,618.6605 L711.3333,618.9412 L721.5,619.022 L731.6667,619.484 L741.8333,619.5979 L752,619.6088 L762.1667,619.0426 L772.3333,619.3212 L782.5,618.7031 " fill="#F1F1F1" style="stroke:#181818;stroke-width:0.5;"/><path d="M538.5,626.7031 L538.5,626.9834 L548.6667,626.1507 L558.8333,626.9608 L569,627.236 L579.1667,625.7519 L589.3333,626.5995 L599.5,626.1345 L609.6667,626.1918 L619.8333,626.6122 L630,625.7813 L640.1667,627.4413 L650.3333,625.8628 L660.5,626.4394 L670.6667,627.2791 L680.8333,626.5888 L691,626.7941 L701.1667,626.6605 L711.3333,626.9412 L721.5,627.022 L731.6667,627.484 L741.8333,627.5979 L752,627.6088 L762.1667,627.0426 L772.3333,627.3212 L782.5,626.7031 " fill="#F1F1F1" style="stroke:#181818;stroke-width:0.5;"/><text fill="#000000" font-family="FG Virgil" font-size="14" lengthAdjust="spacing" textLength="234" x="543.5" y="645.2363">positByPosition(String, String, Board)</text><text fill="#000000" font-family="FG Virgil" font-size="14" lengthAdjust="spacing" textLength="75" x="543.5" y="662.8457">save(PostIt)</text></g><!--MD5=[343839bb48731e46d0fda742d45fdd31]
class BoardRepository--><g id="elem_BoardRepository"><polygon fill="#F1F1F1" points="925,585,925,585.2102,935.2308,584.5857,945.4615,585.1933,955.6923,585.3997,965.9231,584.2866,976.1538,584.9223,986.3846,584.5735,996.6154,584.6165,1006.8462,584.9318,1017.0769,584.3086,1027.3077,585.5536,1037.5385,584.3697,1047.7692,584.8022,1058,585,1058.0551,585.133,1058.3426,585.12,1058.7158,585.3139,1059.0566,585.4295,1059.437,585.6408,1059.7678,585.7322,1059.8414,585.7627,1060.0946,586.1605,1060.2673,586.5249,1060.4163,586.8795,1060.432,587.1789,1060.5,587.5,1060.9636,587.5,1061.2022,597.6875,1059.7788,607.875,1061.1785,618.0625,1060.2035,628.25,1061.0338,638.4375,1060.005,648.625,1060.5,658.8125,1060.4789,658.8038,1060.5819,659.2607,1060.1921,659.5134,1060.0931,659.8866,1060.0185,660.2699,1059.7678,660.5803,1059.8209,660.7084,1059.4137,660.7255,1059.0973,660.9616,1058.6341,660.8433,1058.3898,661.2536,1058,661.3125,1058,661.8607,1047.7692,661.757,1037.5385,661.9255,1027.3077,660.8294,1017.0769,660.6603,1006.8462,660.6911,996.6154,661.2536,986.3846,661.116,976.1538,661.9939,965.9231,661.1378,955.6923,660.9694,945.4615,661.5408,935.2308,660.6457,925,661.3125,924.9338,661.1526,924.7292,661.3659,924.3485,661.1538,924.033,661.0994,923.5447,660.6276,923.2322,660.5803,923.3305,660.621,923.2676,660.302,922.7939,659.8129,922.7634,659.5074,922.6852,659.1821,922.5,658.8125,923.1518,658.8125,922.4958,648.625,922.9626,638.4375,921.9462,628.25,921.8227,618.0625,923.0036,607.875,921.7831,597.6875,922.5,587.5,922.6567,587.5649,922.7101,587.1728,922.7104,586.7587,922.8304,586.3942,923.2271,586.1443,923.2322,585.7322,923.194,585.6401,923.6613,585.7681,923.8688,585.2691,924.3717,585.483,924.7082,585.2956,925,585" style="stroke:#181818;stroke-width:0.5;"/><polygon fill="#C2C2C2" points="948.5608,609.0272,946.9484,611.2304,945.0412,614.4573,942.3136,616.632,939.4474,617.8212,937.162,617.9244,934.2247,616.4371,931.4532,615.4655,929.3495,613.4927,928.2461,611.2343,927.5917,609.4361,926.9506,607.0873,925.91,605.066,926.7096,603.0926,927.4102,600.9308,930.0393,599.221,931.889,597.0027,934.1784,596.266,936.9001,595.6316,940.3904,596.0085,942.3021,596.9101,944.5247,597.3188,947.2272,600.0875,948.1693,603.0105,948.5786,605.0049,948.115,608.2914" style="stroke:#181818;stroke-width:1.0;"/><path d="M940.2656,602.2266 Q940.4219,602.0078 940.6094,601.8984 Q940.7969,601.7891 941.0156,601.7891 Q941.3906,601.7891 941.625,602.0547 Q941.8594,602.3047 941.8594,602.9141 L941.8594,604.3672 Q941.8594,604.9766 941.625,605.2422 Q941.3906,605.5078 941.0156,605.5078 Q940.6719,605.5078 940.4688,605.3047 Q940.2656,605.1172 940.1563,604.6016 Q940.1094,604.2422 939.9219,604.0547 Q939.5938,603.6797 938.9844,603.4609 Q938.375,603.2422 937.75,603.2422 Q936.9844,603.2422 936.3438,603.5703 Q935.7188,603.8984 935.2188,604.6484 Q934.7344,605.3984 934.7344,606.4297 L934.7344,607.5234 Q934.7344,608.7578 935.625,609.5859 Q936.5156,610.3984 938.1094,610.3984 Q939.0469,610.3984 939.7031,610.1484 Q940.0938,609.9922 940.5156,609.5547 Q940.7813,609.2891 940.9219,609.2109 Q941.0781,609.1328 941.2813,609.1328 Q941.6094,609.1328 941.8594,609.3984 Q942.125,609.6484 942.125,609.9922 Q942.125,610.3359 941.7813,610.7422 Q941.2813,611.3203 940.4844,611.6484 Q939.4063,612.1016 938.1094,612.1016 Q936.5938,612.1016 935.3906,611.4766 Q934.4063,610.9766 933.7188,609.9141 Q933.0313,608.8359 933.0313,607.5547 L933.0313,606.3984 Q933.0313,605.0703 933.6406,603.9297 Q934.2656,602.7734 935.3594,602.1641 Q936.4531,601.5391 937.6875,601.5391 Q938.4219,601.5391 939.0625,601.7109 Q939.7188,601.8672 940.2656,602.2266 Z " fill="#000000"/><text fill="#000000" font-family="FG Virgil" font-size="12" font-style="italic" lengthAdjust="spacing" textLength="68" x="970.5" y="602.457">«repository»</text><text fill="#000000" font-family="FG Virgil" font-size="14" lengthAdjust="spacing" textLength="106" x="951.5" y="619.627">BoardRepository</text><path d="M923.5,627.7031 L923.5,627.9834 L933.2143,627.1507 L942.9286,627.9608 L952.6429,628.236 L962.3571,626.7519 L972.0714,627.5995 L981.7857,627.1345 L991.5,627.1918 L1001.2143,627.6122 L1010.9286,626.7813 L1020.6429,628.4413 L1030.3571,626.8628 L1040.0714,627.4394 L1049.7857,628.2791 L1059.5,627.7031 " fill="#F1F1F1" style="stroke:#181818;stroke-width:0.5;"/><path d="M923.5,635.7031 L923.5,635.9834 L933.2143,635.1507 L942.9286,635.9608 L952.6429,636.236 L962.3571,634.7519 L972.0714,635.5995 L981.7857,635.1345 L991.5,635.1918 L1001.2143,635.6122 L1010.9286,634.7813 L1020.6429,636.4413 L1030.3571,634.8628 L1040.0714,635.4394 L1049.7857,636.2791 L1059.5,635.7031 " fill="#F1F1F1" style="stroke:#181818;stroke-width:0.5;"/><text fill="#000000" font-family="FG Virgil" font-size="14" lengthAdjust="spacing" textLength="99" x="928.5" y="654.2363">ofIdentity(Long)</text></g><!--MD5=[458552462bbdcbc92793825846cc11c0]
class PostIt--><g id="elem_PostIt"><polygon fill="#F1F1F1" points="218.5,731,218.5,731.2102,228.5,730.5857,238.5,731.1933,248.5,731.3997,258.5,730.2866,268.5,730.9223,278.5,730.5735,288.5,730.6165,298.5,730.9318,308.5,730.3086,318.5,731.5536,328.5,730.3697,338.5,730.8022,348.5,731.4319,358.5,730.9142,368.5,731.0682,378.5,730.9681,388.5,731.1785,398.5,731.2391,408.5,731.5857,418.5,731.6711,428.5,731.6793,438.5,731.2546,448.5,731.4636,458.5,731.7022,468.5,730.2788,478.5,731.6785,488.5,730.7035,498.5,731.5338,508.5,730.505,518.5,730.9315,528.5,731.7416,538.5,730.9513,548.5,731.1053,558.5,731.3386,568.5,731.4162,578.5,730.9961,588.5,731.2872,598.5,730.4276,608.5,731.2844,618.5,731.5482,628.5,731.4445,638.5,731.613,648.5,730.5169,658.5,730.3478,668.5,730.3786,678.5,730.9411,688.5,730.8035,698.5,731.6814,708.5,730.8253,718.5,731,718.4562,730.8944,718.8827,731.2167,719.122,731.0875,719.4944,731.2795,719.997,731.7856,720.2678,731.7322,720.4019,731.7878,720.6404,732.1795,720.4616,732.3983,720.8054,732.8336,721.0354,733.2218,721,733.5,720.5276,733.5,720.9041,743.6875,721.126,753.875,721.6518,764.0625,720.9958,774.25,721.4626,784.4375,720.4462,794.625,721,804.8125,720.7914,804.7261,721.0086,805.2303,720.4863,805.4282,720.7174,805.9381,720.4778,806.2531,720.2678,806.5803,720.2336,806.4978,719.8691,806.6178,719.6192,807.0144,719.1689,806.9274,718.9291,807.3483,718.5,807.3125,718.5,806.7598,708.5,807.9299,698.5,807.7968,688.5,807.5575,678.5,807.3597,668.5,808.0391,658.5,807.9261,648.5,807.4818,638.5,807.5807,628.5,807.1822,618.5,808.029,608.5,807.4674,598.5,807.4851,588.5,806.7041,578.5,806.9073,568.5,807.8432,558.5,807.7423,548.5,807.2696,538.5,806.9903,528.5,807.0936,518.5,806.6263,508.5,807.7272,498.5,808.0521,488.5,807.8389,478.5,808.0074,468.5,807.1758,458.5,807.3997,448.5,806.9249,438.5,807.5965,428.5,807.5593,418.5,807.8649,408.5,807.0828,398.5,807.1781,388.5,807.756,378.5,807.8798,368.5,806.8,358.5,807.1186,348.5,807.4618,338.5,806.7017,328.5,807.6659,318.5,807.5705,308.5,807.2117,298.5,807.4547,288.5,808.0412,278.5,806.9996,268.5,807.6275,258.5,807.5981,248.5,807.4283,238.5,807.4534,228.5,807.426,218.5,807.3125,218.4204,807.1203,218.0953,807.0426,217.734,806.8775,217.4475,806.8928,217.097,806.7539,216.7322,806.5803,216.782,806.6009,216.4962,806.1896,216.4185,805.8645,216.2559,805.5043,216.3241,805.2396,216,804.8125,216.4266,804.8125,215.5145,794.625,215.9271,784.4375,215.4228,774.25,216.2884,764.0625,216.6085,753.875,216.5446,743.6875,216,733.5,215.8659,733.4444,216.2893,733.2056,216.0641,732.6981,216.501,732.4649,216.4936,732.0476,216.7322,731.7322,216.7446,731.762,217.1164,731.6598,217.4996,731.5847,217.7011,731.0712,218.2071,731.2929,218.5,731" style="stroke:#181818;stroke-width:0.5;"/><polygon fill="#C2C2C2" points="449.3108,755.0272,447.6984,757.2304,445.7912,760.4573,443.0636,762.632,440.1974,763.8212,437.912,763.9244,434.9747,762.4371,432.2032,761.4655,430.0995,759.4927,428.9961,757.2343,428.3417,755.4361,427.7006,753.0873,426.66,751.066,427.4596,749.0926,428.1602,746.9308,430.7893,745.221,432.639,743.0027,434.9284,742.266,437.6501,741.6316,441.1404,742.0085,443.0521,742.9101,445.2747,743.3188,447.9772,746.0875,448.9193,749.0105,449.3286,751.0049,448.865,754.2914" style="stroke:#181818;stroke-width:1.0;"/><path d="M441.0156,748.2266 Q441.1719,748.0078 441.3594,747.8984 Q441.5469,747.7891 441.7656,747.7891 Q442.1406,747.7891 442.375,748.0547 Q442.6094,748.3047 442.6094,748.9141 L442.6094,750.3672 Q442.6094,750.9766 442.375,751.2422 Q442.1406,751.5078 441.7656,751.5078 Q441.4219,751.5078 441.2188,751.3047 Q441.0156,751.1172 440.9063,750.6016 Q440.8594,750.2422 440.6719,750.0547 Q440.3438,749.6797 439.7344,749.4609 Q439.125,749.2422 438.5,749.2422 Q437.7344,749.2422 437.0938,749.5703 Q436.4688,749.8984 435.9688,750.6484 Q435.4844,751.3984 435.4844,752.4297 L435.4844,753.5234 Q435.4844,754.7578 436.375,755.5859 Q437.2656,756.3984 438.8594,756.3984 Q439.7969,756.3984 440.4531,756.1484 Q440.8438,755.9922 441.2656,755.5547 Q441.5313,755.2891 441.6719,755.2109 Q441.8281,755.1328 442.0313,755.1328 Q442.3594,755.1328 442.6094,755.3984 Q442.875,755.6484 442.875,755.9922 Q442.875,756.3359 442.5313,756.7422 Q442.0313,757.3203 441.2344,757.6484 Q440.1563,758.1016 438.8594,758.1016 Q437.3438,758.1016 436.1406,757.4766 Q435.1563,756.9766 434.4688,755.9141 Q433.7813,754.8359 433.7813,753.5547 L433.7813,752.3984 Q433.7813,751.0703 434.3906,749.9297 Q435.0156,748.7734 436.1094,748.1641 Q437.2031,747.5391 438.4375,747.5391 Q439.1719,747.5391 439.8125,747.7109 Q440.4688,747.8672 441.0156,748.2266 Z " fill="#000000"/><text fill="#000000" font-family="FG Virgil" font-size="12" font-style="italic" lengthAdjust="spacing" textLength="56" x="456.75" y="748.457">«domain»</text><text fill="#000000" font-family="FG Virgil" font-size="14" lengthAdjust="spacing" textLength="35" x="467.25" y="765.627">PostIt</text><path d="M217,773.7031 L217,773.9834 L227.06,773.1507 L237.12,773.9608 L247.18,774.236 L257.24,772.7519 L267.3,773.5995 L277.36,773.1345 L287.42,773.1918 L297.48,773.6122 L307.54,772.7813 L317.6,774.4413 L327.66,772.8628 L337.72,773.4394 L347.78,774.2791 L357.84,773.5888 L367.9,773.7941 L377.96,773.6605 L388.02,773.9412 L398.08,774.022 L408.14,774.484 L418.2,774.5979 L428.26,774.6088 L438.32,774.0426 L448.38,774.3212 L458.44,774.6394 L468.5,772.7415 L478.56,774.6078 L488.62,773.3078 L498.68,774.4149 L508.74,773.0431 L518.8,773.6118 L528.86,774.6919 L538.92,773.6381 L548.98,773.8435 L559.04,774.1546 L569.1,774.2581 L579.16,773.6979 L589.22,774.0861 L599.28,772.9399 L609.34,774.0823 L619.4,774.4341 L629.46,774.2958 L639.52,774.5205 L649.58,773.059 L659.64,772.8335 L669.7,772.8746 L679.76,773.6246 L689.82,773.4411 L699.88,774.6117 L709.94,773.4702 L720,773.7031 " fill="#F1F1F1" style="stroke:#181818;stroke-width:0.5;"/><path d="M217,781.7031 L217,781.9834 L227.06,781.1507 L237.12,781.9608 L247.18,782.236 L257.24,780.7519 L267.3,781.5995 L277.36,781.1345 L287.42,781.1918 L297.48,781.6122 L307.54,780.7813 L317.6,782.4413 L327.66,780.8628 L337.72,781.4394 L347.78,782.2791 L357.84,781.5888 L367.9,781.7941 L377.96,781.6605 L388.02,781.9412 L398.08,782.022 L408.14,782.484 L418.2,782.5979 L428.26,782.6088 L438.32,782.0426 L448.38,782.3212 L458.44,782.6394 L468.5,780.7415 L478.56,782.6078 L488.62,781.3078 L498.68,782.4149 L508.74,781.0431 L518.8,781.6118 L528.86,782.6919 L538.92,781.6381 L548.98,781.8435 L559.04,782.1546 L569.1,782.2581 L579.16,781.6979 L589.22,782.0861 L599.28,780.9399 L609.34,782.0823 L619.4,782.4341 L629.46,782.2958 L639.52,782.5205 L649.58,781.059 L659.64,780.8335 L669.7,780.8746 L679.76,781.6246 L689.82,781.4411 L699.88,782.6117 L709.94,781.4702 L720,781.7031 " fill="#F1F1F1" style="stroke:#181818;stroke-width:0.5;"/><text fill="#000000" font-family="FG Virgil" font-size="14" lengthAdjust="spacing" textLength="493" x="222" y="800.2363">PostIt(PostItContent, PostItRow, PostItColumn, User, Board, PostItState, PostIt)</text></g><!--MD5=[3fd616f346a44cd59a91eb10b19e157c]
class User--><g id="elem_User"><polygon fill="#F1F1F1" points="918,395,918,395.2102,927.875,394.5857,937.75,395.1933,947.625,395.3997,957.5,394.2866,967.375,394.9223,977.25,394.5735,987.125,394.6165,997,395,996.9913,394.979,997.2654,394.9335,997.7777,395.4634,997.9803,395.2452,998.389,395.5249,998.7678,395.7322,998.9008,395.7873,998.8878,396.0748,999.0817,396.448,999.1973,396.7888,999.4085,397.1692,999.5,397.5,999.7391,397.5,1000.0857,408.2406,1000.1711,418.9813,1000.1793,429.7219,999.7546,440.4625,999.5,451.2031,999.6428,451.2623,999.5698,451.6463,998.985,451.8182,999.2696,452.3503,998.8229,452.5795,998.7678,452.9709,998.8359,453.1353,998.3511,452.9649,998.0519,453.2427,997.8017,453.6386,997.3473,453.5417,997,453.7031,997,453.8084,987.125,454.0418,977.25,454.1194,967.375,453.6992,957.5,453.9903,947.625,453.1307,937.75,453.9875,927.875,454.2513,918,453.7031,918.0567,453.84,917.7246,453.7455,917.2313,453.2615,916.8561,453.0629,916.5065,452.926,916.2322,452.9709,916.2141,452.9634,916.0253,452.5923,916.1492,452.3507,915.7391,451.8879,915.5408,451.5129,915.5,451.2031,915.7283,451.2031,914.8332,440.4625,914.9809,429.7219,916.149,418.9813,915.9357,408.2406,915.5,397.5,915.7262,397.5937,915.5473,397.1054,915.8912,396.8336,916.1212,396.5147,915.9403,396.0255,916.2322,395.7322,916.22,395.7027,916.6019,395.6246,917.0225,395.6401,917.2924,395.2916,917.7055,395.2889,918,395" style="stroke:#181818;stroke-width:0.5;"/><polygon fill="#C2C2C2" points="941.5608,419.0272,939.9484,421.2304,938.0412,424.4573,935.3136,426.632,932.4474,427.8212,930.162,427.9244,927.2247,426.4371,924.4532,425.4655,922.3495,423.4927,921.2461,421.2343,920.5917,419.4361,919.9506,417.0873,918.91,415.066,919.7096,413.0926,920.4102,410.9308,923.0393,409.221,924.889,407.0027,927.1784,406.266,929.9001,405.6316,933.3904,406.0085,935.3021,406.9101,937.5247,407.3188,940.2272,410.0875,941.1693,413.0105,941.5786,415.0049,941.115,418.2914" style="stroke:#181818;stroke-width:1.0;"/><path d="M933.2656,412.2266 Q933.4219,412.0078 933.6094,411.8984 Q933.7969,411.7891 934.0156,411.7891 Q934.3906,411.7891 934.625,412.0547 Q934.8594,412.3047 934.8594,412.9141 L934.8594,414.3672 Q934.8594,414.9766 934.625,415.2422 Q934.3906,415.5078 934.0156,415.5078 Q933.6719,415.5078 933.4688,415.3047 Q933.2656,415.1172 933.1563,414.6016 Q933.1094,414.2422 932.9219,414.0547 Q932.5938,413.6797 931.9844,413.4609 Q931.375,413.2422 930.75,413.2422 Q929.9844,413.2422 929.3438,413.5703 Q928.7188,413.8984 928.2188,414.6484 Q927.7344,415.3984 927.7344,416.4297 L927.7344,417.5234 Q927.7344,418.7578 928.625,419.5859 Q929.5156,420.3984 931.1094,420.3984 Q932.0469,420.3984 932.7031,420.1484 Q933.0938,419.9922 933.5156,419.5547 Q933.7813,419.2891 933.9219,419.2109 Q934.0781,419.1328 934.2813,419.1328 Q934.6094,419.1328 934.8594,419.3984 Q935.125,419.6484 935.125,419.9922 Q935.125,420.3359 934.7813,420.7422 Q934.2813,421.3203 933.4844,421.6484 Q932.4063,422.1016 931.1094,422.1016 Q929.5938,422.1016 928.3906,421.4766 Q927.4063,420.9766 926.7188,419.9141 Q926.0313,418.8359 926.0313,417.5547 L926.0313,416.3984 Q926.0313,415.0703 926.6406,413.9297 Q927.2656,412.7734 928.3594,412.1641 Q929.4531,411.5391 930.6875,411.5391 Q931.4219,411.5391 932.0625,411.7109 Q932.7188,411.8672 933.2656,412.2266 Z " fill="#000000"/><text fill="#000000" font-family="FG Virgil" font-size="12" font-style="italic" lengthAdjust="spacing" textLength="56" x="942.5" y="412.457">«domain»</text><text fill="#000000" font-family="FG Virgil" font-size="14" lengthAdjust="spacing" textLength="29" x="956" y="429.627">User</text><path d="M916.5,437.7031 L916.5,437.9834 L926.75,437.1507 L937,437.9608 L947.25,438.236 L957.5,436.7519 L967.75,437.5995 L978,437.1345 L988.25,437.1918 L998.5,437.7031 " fill="#F1F1F1" style="stroke:#181818;stroke-width:0.5;"/><path d="M916.5,445.7031 L916.5,445.9834 L926.75,445.1507 L937,445.9608 L947.25,446.236 L957.5,444.7519 L967.75,445.5995 L978,445.1345 L988.25,445.1918 L998.5,445.7031 " fill="#F1F1F1" style="stroke:#181818;stroke-width:0.5;"/></g><!--MD5=[9563755d011c5cec7ec66dc53565a59e]
class Board--><g id="elem_Board"><polygon fill="#F1F1F1" points="787.5,731,787.5,731.2102,797.66,730.5857,807.82,731.1933,817.98,731.3997,828.14,730.2866,838.3,730.9223,848.46,730.5735,858.62,730.6165,868.78,730.9318,878.94,730.3086,889.1,731.5536,899.26,730.3697,909.42,730.8022,919.58,731.4319,929.74,730.9142,939.9,731.0682,950.06,730.9681,960.22,731.1785,970.38,731.2391,980.54,731.5857,990.7,731.6711,1000.86,731.6793,1011.02,731.2546,1021.18,731.4636,1031.34,731.7022,1041.5,731,1041.408,730.7779,1041.9401,731.3554,1042.1693,731.2016,1042.6288,731.6037,1042.8511,731.4333,1043.2678,731.7322,1043.2467,731.7235,1043.6426,732.1804,1043.5457,732.4331,1043.7395,732.8063,1043.9578,733.1896,1044,733.5,1044.4162,733.5,1043.9961,743.6875,1044.2872,753.875,1043.4276,764.0625,1044.2844,774.25,1044.5482,784.4375,1044.4445,794.625,1044,804.8125,1044.1888,804.8907,1043.7048,805.1044,1043.5063,805.4364,1043.3693,805.7939,1043.3961,806.2192,1043.2678,806.5803,1043.2427,806.5197,1043.0011,806.9366,1042.5384,806.8194,1042.1633,806.914,1041.8827,807.2364,1041.5,807.3125,1041.5,806.6457,1031.34,806.7934,1021.18,807.9615,1011.02,807.7482,1000.86,808.047,990.7,806.9907,980.54,807.6317,970.38,807.9029,960.22,806.8401,950.06,807.2166,939.9,807.4385,929.74,807.9643,919.58,807.3083,909.42,807.7751,899.26,806.7587,889.1,806.6352,878.94,807.8161,868.78,806.5956,858.62,807.8215,848.46,807.5191,838.3,807.0446,828.14,806.9587,817.98,807.7713,807.82,807.0132,797.66,807.9044,787.5,807.3125,787.4295,807.1423,787.2252,807.3562,786.8547,807.1688,786.4706,806.9486,786.0918,806.7413,785.7322,806.5803,785.956,806.673,785.7747,806.305,785.4915,805.8948,785.3755,805.5538,785.1063,805.1494,785,804.8125,785.7165,804.8125,785.1549,794.625,785.1726,784.4375,784.3916,774.25,784.5948,764.0625,785.5307,753.875,785.4298,743.6875,785,733.5,784.9868,733.4945,785.0472,733.1054,785.2255,732.765,785.228,732.3518,785.7135,732.1387,785.7322,731.7322,785.8266,731.96,786.1529,731.7479,786.528,731.6534,786.7755,731.2508,787.1576,731.1733,787.5,731" style="stroke:#181818;stroke-width:0.5;"/><polygon fill="#C2C2C2" points="895.3108,755.0272,893.6984,757.2304,891.7912,760.4573,889.0636,762.632,886.1974,763.8212,883.912,763.9244,880.9747,762.4371,878.2032,761.4655,876.0995,759.4927,874.9961,757.2343,874.3417,755.4361,873.7006,753.0873,872.66,751.066,873.4596,749.0926,874.1602,746.9308,876.7893,745.221,878.639,743.0027,880.9284,742.266,883.6501,741.6316,887.1404,742.0085,889.0521,742.9101,891.2747,743.3188,893.9772,746.0875,894.9193,749.0105,895.3286,751.0049,894.865,754.2914" style="stroke:#181818;stroke-width:1.0;"/><path d="M887.0156,748.2266 Q887.1719,748.0078 887.3594,747.8984 Q887.5469,747.7891 887.7656,747.7891 Q888.1406,747.7891 888.375,748.0547 Q888.6094,748.3047 888.6094,748.9141 L888.6094,750.3672 Q888.6094,750.9766 888.375,751.2422 Q888.1406,751.5078 887.7656,751.5078 Q887.4219,751.5078 887.2188,751.3047 Q887.0156,751.1172 886.9063,750.6016 Q886.8594,750.2422 886.6719,750.0547 Q886.3438,749.6797 885.7344,749.4609 Q885.125,749.2422 884.5,749.2422 Q883.7344,749.2422 883.0938,749.5703 Q882.4688,749.8984 881.9688,750.6484 Q881.4844,751.3984 881.4844,752.4297 L881.4844,753.5234 Q881.4844,754.7578 882.375,755.5859 Q883.2656,756.3984 884.8594,756.3984 Q885.7969,756.3984 886.4531,756.1484 Q886.8438,755.9922 887.2656,755.5547 Q887.5313,755.2891 887.6719,755.2109 Q887.8281,755.1328 888.0313,755.1328 Q888.3594,755.1328 888.6094,755.3984 Q888.875,755.6484 888.875,755.9922 Q888.875,756.3359 888.5313,756.7422 Q888.0313,757.3203 887.2344,757.6484 Q886.1563,758.1016 884.8594,758.1016 Q883.3438,758.1016 882.1406,757.4766 Q881.1563,756.9766 880.4688,755.9141 Q879.7813,754.8359 879.7813,753.5547 L879.7813,752.3984 Q879.7813,751.0703 880.3906,749.9297 Q881.0156,748.7734 882.1094,748.1641 Q883.2031,747.5391 884.4375,747.5391 Q885.1719,747.5391 885.8125,747.7109 Q886.4688,747.8672 887.0156,748.2266 Z " fill="#000000"/><text fill="#000000" font-family="FG Virgil" font-size="12" font-style="italic" lengthAdjust="spacing" textLength="56" x="902.75" y="748.457">«domain»</text><text fill="#000000" font-family="FG Virgil" font-size="14" lengthAdjust="spacing" textLength="38" x="911.75" y="765.627">Board</text><path d="M786,773.7031 L786,773.9834 L795.8846,773.1507 L805.7692,773.9608 L815.6538,774.236 L825.5385,772.7519 L835.4231,773.5995 L845.3077,773.1345 L855.1923,773.1918 L865.0769,773.6122 L874.9615,772.7813 L884.8462,774.4413 L894.7308,772.8628 L904.6154,773.4394 L914.5,774.2791 L924.3846,773.5888 L934.2692,773.7941 L944.1538,773.6605 L954.0385,773.9412 L963.9231,774.022 L973.8077,774.484 L983.6923,774.5979 L993.5769,774.6088 L1003.4615,774.0426 L1013.3462,774.3212 L1023.2308,774.6394 L1033.1154,772.7415 L1043,773.7031 " fill="#F1F1F1" style="stroke:#181818;stroke-width:0.5;"/><path d="M786,781.7031 L786,781.9834 L795.8846,781.1507 L805.7692,781.9608 L815.6538,782.236 L825.5385,780.7519 L835.4231,781.5995 L845.3077,781.1345 L855.1923,781.1918 L865.0769,781.6122 L874.9615,780.7813 L884.8462,782.4413 L894.7308,780.8628 L904.6154,781.4394 L914.5,782.2791 L924.3846,781.5888 L934.2692,781.7941 L944.1538,781.6605 L954.0385,781.9412 L963.9231,782.022 L973.8077,782.484 L983.6923,782.5979 L993.5769,782.6088 L1003.4615,782.0426 L1013.3462,782.3212 L1023.2308,782.6394 L1033.1154,780.7415 L1043,781.7031 " fill="#F1F1F1" style="stroke:#181818;stroke-width:0.5;"/><text fill="#000000" font-family="FG Virgil" font-size="14" lengthAdjust="spacing" textLength="247" x="791" y="800.2363">userHasPermission(User, AccessLevel)</text></g><!--MD5=[47beac5dbee6efa3980ddc3ef6d9a79a]
link HttpServerAjax to UpdatePostItController--><g id="link_HttpServerAjax_UpdatePostItController"><path d="M760.45,119.19 L760.6614,119.374 L753.6083,126.2083 L747.7944,134.1212 L741.577,141.6829 L734.0325,148.0895 L728.2468,156.027 L721.4711,163.1026 L715.0893,170.5213 L708.9815,178.1783 L701.9297,185.0138 L696.2,193 " fill="none" style="stroke:#181818;stroke-width:1.0;"/><polygon fill="#181818" points="692.9,196.78,692.9296,196.8435,694.6273,195.8231,696.4984,195.1751,698.313,194.4057,699.9419,193.2377,701.8279,192.6216,701.8262,192.5958,700.6895,192.5575,699.5618,192.6495,698.4403,192.832,697.2973,192.7025,696.1844,193.01,696.3685,193.0227,695.8971,191.8669,695.9633,190.7481,696.095,189.6338,695.8452,188.4933,695.796,187.3665,695.8177,187.3732,695.2066,189.2461,694.6945,191.1494,694.1346,193.0381,693.6658,194.9547,692.9,196.78" style="stroke:#181818;stroke-width:1.0;"/><text fill="#000000" font-family="FG Virgil" font-size="13" lengthAdjust="spacing" textLength="73" x="735.5" y="163.4951">theController</text></g><!--MD5=[886edeef38e246f68555233ed43ef7bd]
link HttpServerAjax to SessionManager--><g id="link_HttpServerAjax_SessionManager"><path d="M856.88,119.19 L857.0908,119.3747 L863.3685,126.7039 L870.8818,135.1159 L877.9928,143.1752 L883.7806,150.0751 L891.3221,158.5117 L897.8763,166.0832 L904.8234,173.999 L912.0437,182.1541 L918.3227,189.4844 L925.92,197.97 " fill="none" style="stroke:#181818;stroke-width:1.0;"/><polygon fill="#181818" points="929.33,201.86,929.3969,201.8809,928.6114,199.9385,928.2179,198.1185,927.6968,196.2587,926.7559,194.2678,926.3961,192.4583,926.3702,192.4566,926.1811,193.5781,926.1222,194.708,926.154,195.8438,925.8736,196.9594,926.0304,198.1033,926.0423,198.2875,924.8878,197.8205,923.7681,197.8913,922.6527,198.0276,921.5125,197.7822,920.3854,197.7376,920.3949,197.7583,922.1698,198.5524,923.9881,199.4406,925.7855,200.2835,927.6228,201.2128,929.33,201.86" style="stroke:#181818;stroke-width:1.0;"/><text fill="#000000" font-family="FG Virgil" font-size="13" lengthAdjust="spacing" textLength="95" x="897.5" y="163.4951">sessionManager</text></g><!--MD5=[cfa8c6cc09150aa1a34895e749736282]
link SessionManager to User--><g id="link_SessionManager_User"><path d="M957.5,268.23 L957.7802,268.23 L956.9476,278.3267 L957.7577,288.4233 L958.0329,298.52 L956.5488,308.6167 L957.3964,318.7133 L956.9313,328.81 L956.9887,338.9067 L957.4091,349.0033 L956.5782,359.1 L958.2382,369.1967 L956.6596,379.2933 L957.5,389.39 " fill="none" style="stroke:#181818;stroke-width:1.0;stroke-dasharray:7.0,7.0;"/><polygon fill="#181818" points="957.5,394.76,957.564,394.7885,958.1738,392.9039,959.1589,391.1862,960.0217,389.4141,960.4827,387.4634,961.5,385.76,961.4817,385.7417,960.5995,386.4595,959.8096,387.2696,959.0839,388.1439,958.137,388.797,957.5,389.76,957.6305,389.8905,956.5514,388.8114,955.8534,388.1134,955.2018,387.4618,954.2798,386.5398,953.5,385.76,953.5208,385.7692,954.2903,387.5557,955.1544,389.3842,955.9728,391.1924,956.8784,393.0393,957.5,394.76" style="stroke:#181818;stroke-width:1.0;"/></g><!--MD5=[0796f57925d31cfb4e32dac1eed2abd2]
link UpdatePostItController to PostItService--><g id="link_UpdatePostItController_PostItService"><path d="M660.5,273.04 L660.7802,273.04 L659.9476,283.4386 L660.7577,293.8371 L661.0329,304.2357 L659.5488,314.6343 L660.3964,325.0329 L659.9313,335.4314 L660.5,345.83 " fill="none" style="stroke:#181818;stroke-width:1.0;"/><polygon fill="#181818" points="660.5,350.84,660.564,350.8685,661.1738,348.9839,662.1589,347.2662,663.0217,345.4941,663.4827,343.5434,664.5,341.84,664.4817,341.8217,663.5995,342.5395,662.8096,343.3496,662.0839,344.2239,661.137,344.877,660.5,345.84,660.6305,345.9705,659.5514,344.8914,658.8534,344.1934,658.2018,343.5418,657.2798,342.6198,656.5,341.84,656.5208,341.8492,657.2903,343.6357,658.1544,345.4642,658.9728,347.2724,659.8784,349.1193,660.5,350.84" style="stroke:#181818;stroke-width:1.0;"/><text fill="#000000" font-family="FG Virgil" font-size="13" lengthAdjust="spacing" textLength="53" x="661.5" y="317.4951">postItSvc</text></g><!--MD5=[b9692feec0cb1506ec17cf1d0e1e1acb]
link PostItService to PostItFactory--><g id="link_PostItService_PostItFactory"><path d="M497.75,475.57 L497.7809,475.6581 L494.3687,476.5608 L491.1378,477.9802 L487.8478,479.2313 L484.3637,479.9291 L481.1483,481.3929 L481.1366,481.3604 L477.7234,482.4264 L474.3692,483.6562 L471.0561,485 L467.6015,485.9513 L464.3452,487.4522 L464.4308,487.6829 L460.8653,488.446 L457.5499,489.8826 L454.265,491.4013 L450.8026,492.442 L447.4335,493.7342 L447.4444,493.7625 L444.043,495.0191 L440.691,496.4046 L437.3152,497.7279 L433.9849,499.1699 L430.5062,500.225 L430.6162,500.5022 L427.2476,501.8428 L423.808,503.0045 L420.4723,504.428 L417.1414,505.8638 L413.6563,506.9108 L413.5343,506.6144 L410.4352,508.5631 L406.9343,509.5358 L403.7389,511.2504 L400.2289,512.201 L396.9767,513.7778 L396.9647,513.7498 L393.8233,515.4876 L390.4016,516.5716 L387.1453,518.0414 L383.9029,519.5436 L380.5603,520.8121 L380.6359,520.981 L377.3475,522.2481 L374.1883,523.8038 L370.8202,524.8926 L367.7637,526.6778 L364.5,528 L364.604,528.2203 L362.0107,529.394 L359.4691,530.6771 L356.6875,531.452 L354.0817,532.5994 L351.6319,534.0769 L351.5088,533.8297 L349.0268,535.3446 L346.406,536.581 L343.9864,538.2215 L341.2234,539.172 L338.6645,540.5327 L338.5942,540.3974 L336.1189,541.9716 L333.3428,542.9676 L330.7806,544.3748 L328.4277,546.1843 L325.7021,547.2774 L325.7941,547.4478 L323.2866,548.9534 L320.4928,549.9291 L318.0575,551.5685 L315.5441,553.0634 L312.8488,554.2213 L312.7464,554.0379 L310.3,555.5947 L307.82,557.0914 L305.4059,558.706 L302.7358,559.8621 L300.2087,561.2743 L300.311,561.4526 L297.6217,562.4753 L295.1298,563.8422 L292.9265,565.7119 L290.192,566.6559 L287.8861,568.3467 L288.0017,568.5411 L283.2778,571.1943 L278.5148,573.7817 L273.8401,576.5175 L269.3694,579.5966 L264.61,582.19 " fill="none" style="stroke:#181818;stroke-width:1.0;"/><polygon fill="#181818" points="260.3,584.82,260.3092,584.8895,262.2349,584.4258,264.2142,584.3693,266.1761,584.1802,268.0805,583.555,270.0645,583.5335,270.0584,583.5083,268.9312,583.1305,267.8346,582.8797,266.7593,582.7172,265.6107,582.2505,264.5646,582.2099,264.7441,582.253,264.6251,581.0607,265.03,579.9945,265.4988,578.9437,265.5957,577.8033,265.8883,576.71,265.907,576.7229,264.7618,578.326,263.702,579.9878,262.6009,581.6212,261.5784,583.3088,260.3,584.82" style="stroke:#181818;stroke-width:1.0;"/><text fill="#000000" font-family="FG Virgil" font-size="13" lengthAdjust="spacing" textLength="76" x="365.5" y="542.4951">postItFactory</text></g><!--MD5=[778855c556e50cd29727724975a88767]
link PostItService to PostItRepository--><g id="link_PostItService_PostItRepository"><path d="M660.5,498.11 L660.7802,498.11 L659.9476,508.4729 L660.7577,518.8357 L661.0329,529.1986 L659.5488,539.5614 L660.3964,549.9243 L659.9313,560.2871 L660.5,570.65 " fill="none" style="stroke:#181818;stroke-width:1.0;"/><polygon fill="#181818" points="660.5,575.89,660.564,575.9185,661.1738,574.0339,662.1589,572.3162,663.0217,570.5441,663.4827,568.5934,664.5,566.89,664.4817,566.8717,663.5995,567.5895,662.8096,568.3996,662.0839,569.2739,661.137,569.927,660.5,570.89,660.6305,571.0205,659.5514,569.9414,658.8534,569.2434,658.2018,568.5918,657.2798,567.6698,656.5,566.89,656.5208,566.8992,657.2903,568.6857,658.1544,570.5142,658.9728,572.3224,659.8784,574.1693,660.5,575.89" style="stroke:#181818;stroke-width:1.0;"/><text fill="#000000" font-family="FG Virgil" font-size="13" lengthAdjust="spacing" textLength="94" x="661.5" y="542.4951">postItRepository</text></g><!--MD5=[85f25023764845daeae7ec7566bd8a25]
link PostItService to BoardRepository--><g id="link_PostItService_BoardRepository"><path d="M823.04,495.71 L823.0838,495.7925 L825.8582,497.0894 L828.8894,498.8699 L831.837,500.493 L834.5096,501.5981 L837.5628,503.4202 L837.546,503.39 L840.3366,504.8477 L843.2119,506.4576 L846.1459,508.1733 L848.8773,509.5245 L851.8925,511.3863 L852.0167,511.5986 L854.5547,512.7846 L857.4555,514.5906 L860.4005,516.4722 L863.088,517.9137 L865.9109,519.5867 L865.9269,519.6125 L868.6213,521.2573 L871.3883,523.0195 L874.1203,524.7251 L876.9192,526.5387 L879.5,528 L879.6643,528.2489 L881.4891,529.4552 L883.208,530.501 L885.0819,531.7818 L886.9632,533.0735 L888.614,534.0163 L888.4301,533.7538 L890.6069,535.5383 L892.178,536.4584 L894.2095,538.0357 L895.7669,538.9362 L897.713,540.3914 L897.6949,540.3669 L899.7131,541.9866 L901.3092,543.0336 L903.1544,544.4185 L905.0205,545.8318 L906.7357,547.0404 L906.8485,547.1871 L908.5118,548.4067 L910.3678,549.8769 L911.9119,550.9418 L913.9212,552.6113 L915.6212,553.8788 L915.7734,554.0691 L917.482,555.4217 L919.2662,556.8687 L920.6996,557.8767 L922.3901,559.2066 L924.3085,560.8216 L924.1326,560.6087 L925.9774,562.1939 L927.624,563.5393 L929.5581,565.2326 L931.0014,566.3318 L932.7364,567.7842 L932.6369,567.6687 L935.9694,570.5902 L938.8764,573.018 L942.0859,575.7969 L945.5916,578.9193 L948.57,581.43 " fill="none" style="stroke:#181818;stroke-width:1.0;"/><polygon fill="#181818" points="952.51,584.93,952.5738,584.9589,951.5708,583.079,950.9418,581.3687,950.1911,579.6031,949.0397,577.6559,948.4429,575.9601,948.417,575.9586,948.3671,577.0812,948.4476,578.2115,948.6187,579.3471,948.4775,580.4644,948.7737,581.6073,948.7845,581.7915,947.632,581.4637,946.511,581.6738,945.3939,581.9495,944.2543,581.8434,943.1266,581.9381,943.1335,581.9598,945,582.5264,946.898,583.1916,948.7808,583.8092,950.6926,584.5176,952.51,584.93" style="stroke:#181818;stroke-width:1.0;"/><text fill="#000000" font-family="FG Virgil" font-size="13" lengthAdjust="spacing" textLength="94" x="903.5" y="542.4951">boardRepository</text></g><!--MD5=[2dd22cea3aeea39cf43778b727913196]
link PostItFactory to PostIt--><g id="link_PostItFactory_PostIt"><path d="M271,661.08 L271.1334,661.3264 L279.5998,665.3928 L288.8484,670.9038 L297.8423,675.9443 L305.9985,679.4378 L315.265,684.9817 L323.9064,689.3714 L332.7965,694.2203 L341.8596,699.3887 L350.3268,703.4565 L359.98,709.7149 L368.0913,713.1253 L377.2287,718.431 L386.4914,723.9679 L395.08,728.26 " fill="none" style="stroke:#181818;stroke-width:1.0;"/><polygon fill="#181818" points="399.77,730.79,399.8254,730.8329,398.4558,729.1473,397.411,727.713,396.2605,726.1968,394.762,724.4116,393.7452,722.9989,393.7204,722.9915,393.9337,724.0419,394.2721,725.1298,394.6974,726.2437,394.8231,727.2679,395.3686,728.4178,395.4215,728.5946,394.2245,728.5412,393.1821,729.004,392.1585,729.5298,391.0252,729.6891,389.9496,730.0412,389.9514,730.0639,391.9129,730.1803,393.8823,730.4,395.8479,730.57,397.8208,730.8349,399.77,730.79" style="stroke:#181818;stroke-width:1.0;"/></g><!--MD5=[a179befad2a701e07a9299659a8da84c]
link PostItRepository to PostIt--><g id="link_PostItRepository_PostIt"><path d="M598.96,670.16 L599.1281,670.3842 L590.9286,675.492 L583.7146,681.9142 L576.1797,687.9084 L567.5893,692.495 L560.3978,698.9471 L552.4188,704.349 L544.7532,710.1689 L537.3055,716.2793 L529.107,721.3885 L521.96,727.9 " fill="none" style="stroke:#181818;stroke-width:1.0;"/><polygon fill="#181818" points="517.86,730.98,517.8756,731.0483,519.7492,730.4054,521.7144,730.1628,523.6498,729.7899,525.4869,728.9882,527.46,728.78,527.4563,728.7544,526.3199,728.4793,525.2019,728.3335,524.0968,728.2775,522.9474,727.9119,521.86,727.98,522.0427,728.0061,521.812,726.8303,522.1147,725.7307,522.4825,724.6404,522.4717,723.496,522.66,722.38,522.6799,722.3911,521.6907,724.0948,520.792,725.849,519.8496,727.5788,518.9905,729.3551,517.86,730.98" style="stroke:#181818;stroke-width:1.0;"/></g><!--MD5=[c2b2d28b8f8fd1e85bbeebc0fff5bd46]
link BoardRepository to Board--><g id="link_BoardRepository_Board"><path d="M971.67,661.08 L971.9171,661.2122 L966.2271,670.0866 L961.9858,679.7358 L957.2728,689.1327 L951.0084,697.7 L946.8001,707.3669 L941.4343,716.4147 L936.98,725.95 " fill="none" style="stroke:#181818;stroke-width:1.0;"/><polygon fill="#181818" points="934.53,730.54,934.5731,730.5953,935.9986,729.2201,937.6767,728.1689,939.2726,727.0121,940.598,725.5085,942.2978,724.4851,942.2902,724.4603,941.1739,724.6779,940.0956,725.0205,939.0436,725.45,937.9007,725.58,936.8852,726.1294,937.0617,726.1831,936.3553,724.9858,936.1644,723.9452,936.0363,722.9237,935.5423,721.791,935.2408,720.7168,935.2635,720.7185,935.088,722.6807,935.0159,724.6504,934.8938,726.6165,934.8669,728.5895,934.53,730.54" style="stroke:#181818;stroke-width:1.0;"/></g><!--MD5=[90d69ff1202b184f782b05dfe7501887]
link PostItService to PostIt--><g id="link_PostItService_PostIt"><path d="M549.57,498.26 L549.6325,498.3294 L547.5772,499.8078 L545.8883,501.693 L544.0802,503.4458 L541.8794,504.7629 L540.2221,506.683 L540.1981,506.6582 L538.2639,508.3095 L536.4506,510.0862 L534.7213,511.9499 L532.7024,513.5135 L531.0892,515.4975 L531.2667,515.668 L529.1204,517.1424 L527.4922,519.1146 L525.9272,521.1475 L523.9945,522.8272 L522.2552,524.6926 L522.2779,524.7127 L520.5543,526.5962 L518.9341,528.5711 L517.264,530.5019 L515.6891,532.5169 L513.8038,534.2575 L514.0361,534.4445 L512.442,536.4315 L510.6979,538.298 L509.1733,540.3411 L507.6589,542.3923 L505.8187,544.1815 L505.5591,543.9936 L504.5761,546.4127 L502.738,548.2131 L501.55,550.4839 L499.6926,552.2703 L498.3839,554.4538 L498.3583,554.4373 L497.3012,556.7536 L495.6453,558.686 L494.3428,560.8449 L493.0699,563.0228 L491.5831,565.0635 L491.7447,565.1534 L490.3649,567.25 L489.2614,569.5002 L487.7109,571.5017 L486.8271,573.8741 L485.5,576 L485.7232,576.0978 L484.0854,579.7201 L482.5585,583.391 L480.5168,586.8363 L478.8524,590.4469 L477.5224,594.2041 L477.2611,594.1148 L476.8486,596.0949 L476.1418,597.9744 L475.862,599.9998 L474.853,601.776 L474.2774,603.7004 L474.1309,603.6582 L473.8175,605.6661 L472.8778,607.4939 L472.3835,609.4497 L472.325,611.5309 L471.4905,613.3889 L471.6788,613.4341 L471.3364,615.4306 L470.4084,617.2867 L470.214,619.3187 L469.8597,621.3124 L469.133,623.2167 L468.9271,623.1761 L468.7,625.1913 L468.4055,627.1932 L468.2435,629.2213 L467.5662,631.1477 L467.1767,633.1308 L467.3798,633.1632 L466.6169,635.0816 L466.246,637.0625 L466.4476,639.1345 L465.5952,641.0387 L465.5931,643.0783 L465.8176,643.1064 L465.4364,645.0753 L464.9792,647.0348 L464.6935,649.0156 L464.8039,651.0459 L464.3538,653.0063 L464.2211,652.9957 L464.304,656.9442 L463.485,660.8208 L463.6915,664.7792 L463.3206,668.6915 L462.794,672.5915 L462.9029,672.5945 L462.7102,676.3664 L462.9073,680.1491 L462.7523,683.922 L462.4501,687.6908 L462.2702,691.463 L462.3893,691.4649 L462.2692,695.0088 L462.7023,698.5617 L462.5097,702.1045 L462.5744,705.6514 L462.5546,709.197 L462.2846,709.1826 L462.5479,712.422 L463.1363,715.6788 L463.2646,718.911 L463.2279,722.1344 L463.42,725.37 " fill="none" style="stroke:#181818;stroke-width:1.0;"/><polygon fill="#181818" points="463.83,730.72,463.896,730.7436,464.364,728.819,465.2188,727.0328,465.9476,725.2015,466.2624,723.222,467.1503,721.4477,467.1307,721.4308,466.3042,722.2121,465.5767,723.0787,464.918,724.0045,464.0223,724.7262,463.4585,725.7338,463.579,725.8736,462.4642,724.8363,461.7011,724.2072,460.9808,723.6278,460.011,722.7587,459.1724,722.042,459.1925,722.0528,460.0946,723.7726,461.0879,725.5414,462.0372,727.2865,463.0705,729.0767,463.83,730.72" style="stroke:#181818;stroke-width:1.0;"/><text fill="#000000" font-family="FG Virgil" font-size="13" lengthAdjust="spacing" textLength="32" x="486.5" y="628.4951">postIt</text></g><!--MD5=[c1d64969c1e6637ffbfc0335cb94ce1b]
link PostItService to Board--><g id="link_PostItService_Board"><path d="M736.85,498.12 L736.9177,498.1843 L739.5467,500.9737 L742.5728,504.1402 L745.4696,507.1838 L747.9411,509.8237 L751.0013,513.0225 L750.9758,512.9992 L752.2339,514.3949 L753.6204,515.9082 L755.0963,517.5032 L756.2644,518.8166 L757.8636,520.5244 L758.0476,520.6877 L758.9814,521.8335 L760.4524,523.4563 L761.989,525.1372 L763.1442,526.4796 L764.5,528 L764.5231,528.0196 L766.5334,530.3994 L768.649,532.8685 L770.7137,535.2945 L772.8754,537.8027 L774.7211,540.0428 L774.9535,540.2298 L776.9641,542.7283 L778.8248,545.1063 L780.9049,547.6607 L782.9952,550.2234 L784.7598,552.5241 L784.5053,552.3291 L786.9659,555.2746 L788.5887,557.5782 L790.8484,560.3698 L792.4522,562.6588 L794.5937,565.3597 L794.5691,565.3417 L796.7809,568.1758 L798.419,570.5893 L800.3956,573.251 L802.4006,575.9335 L804.2006,578.4658 L804.3519,578.5723 L806.0708,581.1233 L808.0481,583.8562 L809.6073,586.2948 L811.7902,589.1725 L813.5584,591.7582 L813.7601,591.895 L815.5392,594.5481 L817.4185,597.2691 L818.8327,599.6746 L820.5878,602.3113 L822.6449,605.153 L822.4139,605.0016 L824.3816,607.8213 L826.089,610.4704 L828.174,613.367 L829.6143,615.841 L831.4378,618.5662 L831.3091,618.4845 L833.2189,621.2901 L834.5785,623.7463 L836.3294,626.451 L838.463,629.3989 L839.915,631.9137 L840.0798,632.0154 L841.8207,634.7247 L843.0489,637.1178 L844.9193,639.907 L846.6497,642.6098 L848.0542,645.1116 L847.8742,645.0036 L849.5735,647.6826 L851.2138,650.3261 L852.97,653.0392 L854.2758,655.4821 L855.8332,658.0759 L856.0107,658.1797 L857.1001,660.4809 L858.532,662.9825 L860.4644,665.7768 L861.4755,668.0323 L863.2298,670.7224 L863.4263,670.8346 L864.708,673.217 L865.9232,675.5614 L867.2885,677.9914 L869.0005,680.6195 L870.2219,682.9673 L870.1054,682.903 L872.9884,687.6843 L875.0795,692.028 L878.0709,696.8693 L880.5555,701.4304 L882.9034,705.9161 L882.9995,705.9671 L885.0812,709.9927 L887.5072,714.2011 L889.6222,718.2443 L891.6071,722.2185 L893.7,726.25 " fill="none" style="stroke:#181818;stroke-width:1.0;"/><polygon fill="#181818" points="896.16,730.99,896.2299,730.9943,895.9025,729.0155,895.985,727.0616,895.934,725.0997,895.444,723.111,895.5617,721.1593,895.537,721.1515,895.0849,722.1951,894.7573,723.2781,894.5163,724.3885,893.977,725.4046,893.8555,726.5527,893.9112,726.7287,892.7134,726.0112,891.6782,725.8074,890.6629,725.6663,889.5321,725.1605,888.4621,724.8465,888.4763,724.8643,889.995,726.0669,891.5784,727.3504,893.1306,728.5949,894.7422,729.9139,896.16,730.99" style="stroke:#181818;stroke-width:1.0;"/><text fill="#000000" font-family="FG Virgil" font-size="13" lengthAdjust="spacing" textLength="32" x="863.5" y="628.4951">board</text></g><!--MD5=[e9715986e22de9c1dd17eeeeeb8b3f23]
@startuml
'http://plantuml.com/skinparam.html
skinparam handwritten true
skinparam monochrome true
skinparam packageStyle rect
skinparam defaultFontName FG Virgil
skinparam shadowing false


class HttpServerAjax <<http server>>
class UpdatePostItController <<application>>
class SessionManager
class PostItService <<service>>
class PostItFactory <<factory>>
class PostItRepository <<repository>>
class BoardRepository <<repository>>
class PostIt <<domain>>
class User <<domain>>
class Board <<domain>>


HttpServerAjax - -> UpdatePostItController: theController
HttpServerAjax - -> SessionManager: sessionManager
SessionManager ..> User
UpdatePostItController - -> PostItService: postItSvc
PostItService - -> PostItFactory: postItFactory
PostItService - -> PostItRepository: postItRepository
PostItService - -> BoardRepository: boardRepository
PostItFactory - -> PostIt
PostItRepository - -> PostIt
BoardRepository - -> Board
PostItService - -> PostIt: postIt
PostItService - -> Board: board



HttpServerAjax : updatePostItContent(PostItBody, String)
HttpServerAjax : generateLockKey(PostItBody)
HttpServerAjax : getOrCreateLockObject(String)
SessionManager : getUserByToken(String)
UpdatePostItController : updatePostItContent(String, String, String, String, User)
PostItService : updateContent(String, String, String, String, User)
PostItService : checkIfIsRowEntryTitle(String, Board)
PostItService : checkIfIsColumnEntryTitle(String, Board)
PostItService : postItByPosition(String, String, Board, boolean)
PostItService : isNumeric(String)
PostItFactory : create(String, String, String, User, Board, PostItState, PostIt)
BoardRepository : ofIdentity(Long)
Board : userHasPermission(User, AccessLevel)
PostItRepository : positByPosition(String, String, Board)
PostItRepository : save(PostIt)
PostIt : PostIt(PostItContent, PostItRow, PostItColumn, User, Board, PostItState, PostIt)


@enduml

@startuml
skinparam handwritten true
skinparam monochrome true
skinparam packageStyle rect
skinparam defaultFontName FG Virgil
skinparam shadowing false


class HttpServerAjax <<http server>>
class UpdatePostItController <<application>>
class SessionManager
class PostItService <<service>>
class PostItFactory <<factory>>
class PostItRepository <<repository>>
class BoardRepository <<repository>>
class PostIt <<domain>>
class User <<domain>>
class Board <<domain>>


HttpServerAjax - -> UpdatePostItController: theController
HttpServerAjax - -> SessionManager: sessionManager
SessionManager ..> User
UpdatePostItController - -> PostItService: postItSvc
PostItService - -> PostItFactory: postItFactory
PostItService - -> PostItRepository: postItRepository
PostItService - -> BoardRepository: boardRepository
PostItFactory - -> PostIt
PostItRepository - -> PostIt
BoardRepository - -> Board
PostItService - -> PostIt: postIt
PostItService - -> Board: board



HttpServerAjax : updatePostItContent(PostItBody, String)
HttpServerAjax : generateLockKey(PostItBody)
HttpServerAjax : getOrCreateLockObject(String)
SessionManager : getUserByToken(String)
UpdatePostItController : updatePostItContent(String, String, String, String, User)
PostItService : updateContent(String, String, String, String, User)
PostItService : checkIfIsRowEntryTitle(String, Board)
PostItService : checkIfIsColumnEntryTitle(String, Board)
PostItService : postItByPosition(String, String, Board, boolean)
PostItService : isNumeric(String)
PostItFactory : create(String, String, String, User, Board, PostItState, PostIt)
BoardRepository : ofIdentity(Long)
Board : userHasPermission(User, AccessLevel)
PostItRepository : positByPosition(String, String, Board)
PostItRepository : save(PostIt)
PostIt : PostIt(PostItContent, PostItRow, PostItColumn, User, Board, PostItState, PostIt)


@enduml

PlantUML version 1.2022.7(Mon Aug 22 18:01:30 BST 2022)
(GPL source distribution)
Java Runtime: Java(TM) SE Runtime Environment
JVM: Java HotSpot(TM) 64-Bit Server VM
Default Encoding: Cp1252
Language: pt
Country: PT
--></g></svg>