<?xml version="1.0" encoding="UTF-8" standalone="no"?><svg xmlns="http://www.w3.org/2000/svg" xmlns:xlink="http://www.w3.org/1999/xlink" contentStyleType="text/css" height="1340px" preserveAspectRatio="none" style="width:1410px;height:1340px;background:#FFFFFF;" version="1.1" viewBox="0 0 1410 1340" width="1410px" zoomAndPan="magnify"><defs/><g><!--cluster User Aggregate--><g id="cluster_User Aggregate"><rect fill="none" height="389" rx="2.5" ry="2.5" style="stroke:#000000;stroke-width:1.5;" width="438" x="611" y="7"/><text fill="#000000" font-family="sans-serif" font-size="20" font-weight="bold" lengthAdjust="spacing" textLength="147" x="756.5" y="29.7617">User Aggregate</text></g><!--cluster Course Aggregate--><g id="cluster_Course Aggregate"><rect fill="none" height="571" rx="2.5" ry="2.5" style="stroke:#000000;stroke-width:1.5;" width="884" x="520" y="420"/><text fill="#000000" font-family="sans-serif" font-size="20" font-weight="bold" lengthAdjust="spacing" textLength="171" x="876.5" y="442.7617">Course Aggregate</text></g><!--cluster Teacher Aggregate--><g id="cluster_Teacher Aggregate"><rect fill="none" height="298" rx="2.5" ry="2.5" style="stroke:#000000;stroke-width:1.5;" width="550.5" x="228" y="1015"/><text fill="#000000" font-family="sans-serif" font-size="20" font-weight="bold" lengthAdjust="spacing" textLength="180" x="413.25" y="1037.7617">Teacher Aggregate</text></g><!--cluster Manager Aggregate--><g id="cluster_Manager Aggregate"><rect fill="none" height="154" rx="2.5" ry="2.5" style="stroke:#000000;stroke-width:1.5;" width="201" x="260" y="206"/><text fill="#000000" font-family="sans-serif" font-size="20" font-weight="bold" lengthAdjust="spacing" textLength="185" x="268" y="228.7617">Manager Aggregate</text></g><!--cluster Student Aggregate--><g id="cluster_Student Aggregate"><rect fill="none" height="154" rx="2.5" ry="2.5" style="stroke:#000000;stroke-width:1.5;" width="193" x="7" y="1125"/><text fill="#000000" font-family="sans-serif" font-size="20" font-weight="bold" lengthAdjust="spacing" textLength="177" x="15" y="1147.7617">Student Aggregate</text></g><!--class User--><g id="elem_User"><rect codeLine="26" fill="#D8F5FF" height="93.4688" id="User" rx="2.5" ry="2.5" style="stroke:#1E90FF;stroke-width:0.5;" width="99" x="627" y="250.5"/><ellipse cx="643" cy="293.2344" fill="#ADD1B2" rx="12" ry="12" style="stroke:#181818;stroke-width:1.0;"/><path d="M640.9531,294.2969 L640.9531,297.2344 L646.0469,297.2344 L646.0469,296.1406 Q646.0469,295.4219 646.3281,295.125 Q646.6094,294.8125 647.0625,294.8125 Q647.5,294.8125 647.7813,295.125 Q648.0625,295.4219 648.0625,296.1406 L648.0625,299.2344 L638.625,299.2344 Q637.9063,299.2344 637.5938,298.9531 Q637.2969,298.6719 637.2969,298.2344 Q637.2969,297.7813 637.6094,297.5156 Q637.9219,297.2344 638.625,297.2344 L638.9375,297.2344 L638.9375,289.4063 L638.625,289.4063 Q637.9063,289.4063 637.5938,289.125 Q637.2969,288.8438 637.2969,288.3906 Q637.2969,287.9375 637.5938,287.6719 Q637.9063,287.3906 638.625,287.3906 L647.6094,287.3906 L647.6094,290.4375 Q647.6094,291.1563 647.3281,291.4688 Q647.0625,291.7656 646.625,291.7656 Q646.1719,291.7656 645.8906,291.4688 Q645.6094,291.1719 645.6094,290.4375 L645.6094,289.4063 L640.9531,289.4063 L640.9531,292.2969 L642.7031,292.2969 Q642.7031,291.5156 642.8438,291.2813 Q643.1563,290.8125 643.7031,290.8125 Q644.1563,290.8125 644.4219,291.125 Q644.7031,291.4219 644.7031,292.1406 L644.7031,294.4531 Q644.7031,295.1094 644.5469,295.3281 Q644.2344,295.7813 643.7031,295.7813 Q643.1563,295.7813 642.8438,295.3125 Q642.7031,295.0781 642.7031,294.2969 L640.9531,294.2969 Z " fill="#000000"/><text fill="#000000" font-family="sans-serif" font-size="20" font-style="italic" lengthAdjust="spacing" textLength="69" x="656" y="276.2617">«entity»</text><text fill="#000000" font-family="sans-serif" font-size="20" font-style="italic" lengthAdjust="spacing" textLength="56" x="662.5" y="301.418">«root»</text><text fill="#000000" font-family="sans-serif" font-size="20" lengthAdjust="spacing" textLength="41" x="670" y="326.5742">User</text><line style="stroke:#1E90FF;stroke-width:0.5;" x1="628" x2="725" y1="335.9688" y2="335.9688"/></g><!--entity Email--><g id="elem_Email"><rect fill="#D8F5FF" height="56.3125" rx="2.5" ry="2.5" style="stroke:#1E90FF;stroke-width:0.5;" width="156" x="877" y="324"/><text fill="#000000" font-family="sans-serif" font-size="20" font-style="italic" lengthAdjust="spacing" textLength="136" x="887" y="347.7617">«Value Object»</text><text fill="#000000" font-family="sans-serif" font-size="20" lengthAdjust="spacing" textLength="48" x="931" y="372.918">Email</text></g><!--entity Password--><g id="elem_Password"><rect fill="#D8F5FF" height="56.3125" rx="2.5" ry="2.5" style="stroke:#1E90FF;stroke-width:0.5;" width="156" x="877" y="233"/><text fill="#000000" font-family="sans-serif" font-size="20" font-style="italic" lengthAdjust="spacing" textLength="136" x="887" y="256.7617">«Value Object»</text><text fill="#000000" font-family="sans-serif" font-size="20" lengthAdjust="spacing" textLength="88" x="911" y="281.918">Password</text></g><!--entity FullName--><g id="elem_FullName"><rect fill="#D8F5FF" height="56.3125" rx="2.5" ry="2.5" style="stroke:#1E90FF;stroke-width:0.5;" width="156" x="877" y="142"/><text fill="#000000" font-family="sans-serif" font-size="20" font-style="italic" lengthAdjust="spacing" textLength="136" x="887" y="165.7617">«Value Object»</text><text fill="#000000" font-family="sans-serif" font-size="20" lengthAdjust="spacing" textLength="81" x="914.5" y="190.918">FullName</text></g><!--entity ShortName--><g id="elem_ShortName"><rect fill="#D8F5FF" height="56.3125" rx="2.5" ry="2.5" style="stroke:#1E90FF;stroke-width:0.5;" width="156" x="877" y="51"/><text fill="#000000" font-family="sans-serif" font-size="20" font-style="italic" lengthAdjust="spacing" textLength="136" x="887" y="74.7617">«Value Object»</text><text fill="#000000" font-family="sans-serif" font-size="20" lengthAdjust="spacing" textLength="98" x="906" y="99.918">ShortName</text></g><!--class Course--><g id="elem_Course"><rect codeLine="46" fill="#D8F5FF" height="93.4688" id="Course" rx="2.5" ry="2.5" style="stroke:#1E90FF;stroke-width:0.5;" width="99" x="627" y="641.5"/><ellipse cx="643" cy="684.2344" fill="#ADD1B2" rx="12" ry="12" style="stroke:#181818;stroke-width:1.0;"/><path d="M640.9531,685.2969 L640.9531,688.2344 L646.0469,688.2344 L646.0469,687.1406 Q646.0469,686.4219 646.3281,686.125 Q646.6094,685.8125 647.0625,685.8125 Q647.5,685.8125 647.7813,686.125 Q648.0625,686.4219 648.0625,687.1406 L648.0625,690.2344 L638.625,690.2344 Q637.9063,690.2344 637.5938,689.9531 Q637.2969,689.6719 637.2969,689.2344 Q637.2969,688.7813 637.6094,688.5156 Q637.9219,688.2344 638.625,688.2344 L638.9375,688.2344 L638.9375,680.4063 L638.625,680.4063 Q637.9063,680.4063 637.5938,680.125 Q637.2969,679.8438 637.2969,679.3906 Q637.2969,678.9375 637.5938,678.6719 Q637.9063,678.3906 638.625,678.3906 L647.6094,678.3906 L647.6094,681.4375 Q647.6094,682.1563 647.3281,682.4688 Q647.0625,682.7656 646.625,682.7656 Q646.1719,682.7656 645.8906,682.4688 Q645.6094,682.1719 645.6094,681.4375 L645.6094,680.4063 L640.9531,680.4063 L640.9531,683.2969 L642.7031,683.2969 Q642.7031,682.5156 642.8438,682.2813 Q643.1563,681.8125 643.7031,681.8125 Q644.1563,681.8125 644.4219,682.125 Q644.7031,682.4219 644.7031,683.1406 L644.7031,685.4531 Q644.7031,686.1094 644.5469,686.3281 Q644.2344,686.7813 643.7031,686.7813 Q643.1563,686.7813 642.8438,686.3125 Q642.7031,686.0781 642.7031,685.2969 L640.9531,685.2969 Z " fill="#000000"/><text fill="#000000" font-family="sans-serif" font-size="20" font-style="italic" lengthAdjust="spacing" textLength="69" x="656" y="667.2617">«entity»</text><text fill="#000000" font-family="sans-serif" font-size="20" font-style="italic" lengthAdjust="spacing" textLength="56" x="662.5" y="692.418">«root»</text><text fill="#000000" font-family="sans-serif" font-size="20" lengthAdjust="spacing" textLength="63" x="659" y="717.5742">Course</text><line style="stroke:#1E90FF;stroke-width:0.5;" x1="628" x2="725" y1="726.9688" y2="726.9688"/></g><g id="elem_GMN26"><path d="M1107.5,515 L1107.5,650.7813 L1373.5,650.7813 L1373.5,525 L1363.5,515 L1107.5,515 " fill="#FEFFDD" style="stroke:#181818;stroke-width:0.5;"/><path d="M1363.5,515 L1363.5,525 L1373.5,525 L1363.5,515 " fill="#FEFFDD" style="stroke:#181818;stroke-width:1.0;"/><text fill="#000000" font-family="sans-serif" font-size="20" lengthAdjust="spacing" textLength="245" x="1113.5" y="540.7617">Can be one of the following:</text><text fill="#000000" font-family="sans-serif" font-size="20" lengthAdjust="spacing" textLength="61" x="1137.5" y="565.918">- Open</text><text fill="#000000" font-family="sans-serif" font-size="20" lengthAdjust="spacing" textLength="74" x="1137.5" y="591.0742">- Closed</text><text fill="#000000" font-family="sans-serif" font-size="20" lengthAdjust="spacing" textLength="62" x="1137.5" y="616.2305">- Enroll</text><text fill="#000000" font-family="sans-serif" font-size="20" lengthAdjust="spacing" textLength="109" x="1137.5" y="641.3867">- InProgress</text></g><g id="elem_GMN29"><path d="M562.5,769.5 L562.5,854.9688 L790.5,854.9688 L790.5,779.5 L780.5,769.5 L562.5,769.5 " fill="#FEFFDD" style="stroke:#181818;stroke-width:0.5;"/><path d="M780.5,769.5 L780.5,779.5 L790.5,779.5 L780.5,769.5 " fill="#FEFFDD" style="stroke:#181818;stroke-width:1.0;"/><text fill="#000000" font-family="sans-serif" font-size="20" lengthAdjust="spacing" textLength="207" x="568.5" y="795.2617">Each course as a lower</text><text fill="#000000" font-family="sans-serif" font-size="20" lengthAdjust="spacing" textLength="131" x="568.5" y="820.418">and higher limit</text><text fill="#000000" font-family="sans-serif" font-size="20" lengthAdjust="spacing" textLength="168" x="568.5" y="845.5742">number of students</text></g><g id="elem_GMN32"><path d="M1093,735 L1093,795.3125 L1388,795.3125 L1388,745 L1378,735 L1093,735 " fill="#FEFFDD" style="stroke:#181818;stroke-width:0.5;"/><path d="M1378,735 L1378,745 L1388,745 L1378,735 " fill="#FEFFDD" style="stroke:#181818;stroke-width:1.0;"/><text fill="#000000" font-family="sans-serif" font-size="20" lengthAdjust="spacing" textLength="274" x="1099" y="760.7617">Each course has a unique code</text><text fill="#000000" font-family="sans-serif" font-size="20" lengthAdjust="spacing" textLength="168" x="1099" y="785.918">Example: "JAVA-1"</text></g><g id="elem_GMN35"><path d="M536,889.5 L536,974.9688 L817,974.9688 L817,899.5 L807,889.5 L536,889.5 " fill="#FEFFDD" style="stroke:#181818;stroke-width:0.5;"/><path d="M807,889.5 L807,899.5 L817,899.5 L807,889.5 " fill="#FEFFDD" style="stroke:#181818;stroke-width:1.0;"/><text fill="#000000" font-family="sans-serif" font-size="20" lengthAdjust="spacing" textLength="253" x="542" y="915.2617">Different editions of a course</text><text fill="#000000" font-family="sans-serif" font-size="20" lengthAdjust="spacing" textLength="260" x="542" y="940.418">are to be considered different</text><text fill="#000000" font-family="sans-serif" font-size="20" lengthAdjust="spacing" textLength="69" x="542" y="965.5742">courses</text></g><!--entity Code--><g id="elem_Code"><rect fill="#D8F5FF" height="56.3125" rx="2.5" ry="2.5" style="stroke:#1E90FF;stroke-width:0.5;" width="156" x="877" y="737"/><text fill="#000000" font-family="sans-serif" font-size="20" font-style="italic" lengthAdjust="spacing" textLength="136" x="887" y="760.7617">«Value Object»</text><text fill="#000000" font-family="sans-serif" font-size="20" lengthAdjust="spacing" textLength="47" x="931.5" y="785.918">Code</text></g><!--entity Name--><g id="elem_Name"><rect fill="#D8F5FF" height="56.3125" rx="2.5" ry="2.5" style="stroke:#1E90FF;stroke-width:0.5;" width="156" x="877" y="646"/><text fill="#000000" font-family="sans-serif" font-size="20" font-style="italic" lengthAdjust="spacing" textLength="136" x="887" y="669.7617">«Value Object»</text><text fill="#000000" font-family="sans-serif" font-size="20" lengthAdjust="spacing" textLength="51" x="929.5" y="694.918">Name</text></g><!--entity State--><g id="elem_State"><rect fill="#D8F5FF" height="56.3125" rx="2.5" ry="2.5" style="stroke:#1E90FF;stroke-width:0.5;" width="156" x="877" y="555"/><text fill="#000000" font-family="sans-serif" font-size="20" font-style="italic" lengthAdjust="spacing" textLength="136" x="887" y="578.7617">«Value Object»</text><text fill="#000000" font-family="sans-serif" font-size="20" lengthAdjust="spacing" textLength="47" x="931.5" y="603.918">State</text></g><!--entity Description--><g id="elem_Description"><rect fill="#D8F5FF" height="56.3125" rx="2.5" ry="2.5" style="stroke:#1E90FF;stroke-width:0.5;" width="156" x="877" y="464"/><text fill="#000000" font-family="sans-serif" font-size="20" font-style="italic" lengthAdjust="spacing" textLength="136" x="887" y="487.7617">«Value Object»</text><text fill="#000000" font-family="sans-serif" font-size="20" lengthAdjust="spacing" textLength="98" x="906" y="512.918">Description</text></g><!--entity Limit--><g id="elem_Limit"><rect fill="#D8F5FF" height="56.3125" rx="2.5" ry="2.5" style="stroke:#1E90FF;stroke-width:0.5;" width="156" x="877" y="828"/><text fill="#000000" font-family="sans-serif" font-size="20" font-style="italic" lengthAdjust="spacing" textLength="136" x="887" y="851.7617">«Value Object»</text><text fill="#000000" font-family="sans-serif" font-size="20" lengthAdjust="spacing" textLength="41" x="934.5" y="876.918">Limit</text></g><!--entity Edition--><g id="elem_Edition"><rect fill="#D8F5FF" height="56.3125" rx="2.5" ry="2.5" style="stroke:#1E90FF;stroke-width:0.5;" width="156" x="877" y="919"/><text fill="#000000" font-family="sans-serif" font-size="20" font-style="italic" lengthAdjust="spacing" textLength="136" x="887" y="942.7617">«Value Object»</text><text fill="#000000" font-family="sans-serif" font-size="20" lengthAdjust="spacing" textLength="59" x="925.5" y="967.918">Edition</text></g><!--class Teacher--><g id="elem_Teacher"><rect codeLine="100" fill="#D8F5FF" height="93.4688" id="Teacher" rx="2.5" ry="2.5" style="stroke:#1E90FF;stroke-width:0.5;" width="106" x="307" y="1059.5"/><ellipse cx="323" cy="1102.2344" fill="#ADD1B2" rx="12" ry="12" style="stroke:#181818;stroke-width:1.0;"/><path d="M320.9531,1103.2969 L320.9531,1106.2344 L326.0469,1106.2344 L326.0469,1105.1406 Q326.0469,1104.4219 326.3281,1104.125 Q326.6094,1103.8125 327.0625,1103.8125 Q327.5,1103.8125 327.7813,1104.125 Q328.0625,1104.4219 328.0625,1105.1406 L328.0625,1108.2344 L318.625,1108.2344 Q317.9063,1108.2344 317.5938,1107.9531 Q317.2969,1107.6719 317.2969,1107.2344 Q317.2969,1106.7813 317.6094,1106.5156 Q317.9219,1106.2344 318.625,1106.2344 L318.9375,1106.2344 L318.9375,1098.4063 L318.625,1098.4063 Q317.9063,1098.4063 317.5938,1098.125 Q317.2969,1097.8438 317.2969,1097.3906 Q317.2969,1096.9375 317.5938,1096.6719 Q317.9063,1096.3906 318.625,1096.3906 L327.6094,1096.3906 L327.6094,1099.4375 Q327.6094,1100.1563 327.3281,1100.4688 Q327.0625,1100.7656 326.625,1100.7656 Q326.1719,1100.7656 325.8906,1100.4688 Q325.6094,1100.1719 325.6094,1099.4375 L325.6094,1098.4063 L320.9531,1098.4063 L320.9531,1101.2969 L322.7031,1101.2969 Q322.7031,1100.5156 322.8438,1100.2813 Q323.1563,1099.8125 323.7031,1099.8125 Q324.1563,1099.8125 324.4219,1100.125 Q324.7031,1100.4219 324.7031,1101.1406 L324.7031,1103.4531 Q324.7031,1104.1094 324.5469,1104.3281 Q324.2344,1104.7813 323.7031,1104.7813 Q323.1563,1104.7813 322.8438,1104.3125 Q322.7031,1104.0781 322.7031,1103.2969 L320.9531,1103.2969 Z " fill="#000000"/><text fill="#000000" font-family="sans-serif" font-size="20" font-style="italic" lengthAdjust="spacing" textLength="69" x="339.5" y="1085.2617">«entity»</text><text fill="#000000" font-family="sans-serif" font-size="20" font-style="italic" lengthAdjust="spacing" textLength="56" x="346" y="1110.418">«root»</text><text fill="#000000" font-family="sans-serif" font-size="20" lengthAdjust="spacing" textLength="72" x="338" y="1135.5742">Teacher</text><line style="stroke:#1E90FF;stroke-width:0.5;" x1="308" x2="412" y1="1144.9688" y2="1144.9688"/></g><!--entity Acronym--><g id="elem_Acronym"><rect fill="#D8F5FF" height="56.3125" rx="2.5" ry="2.5" style="stroke:#1E90FF;stroke-width:0.5;" width="156" x="598.5" y="1059"/><text fill="#000000" font-family="sans-serif" font-size="20" font-style="italic" lengthAdjust="spacing" textLength="136" x="608.5" y="1082.7617">«Value Object»</text><text fill="#000000" font-family="sans-serif" font-size="20" lengthAdjust="spacing" textLength="77" x="638" y="1107.918">Acronym</text></g><!--entity BirthDate--><g id="elem_BirthDate"><rect fill="#D8F5FF" height="56.3125" rx="2.5" ry="2.5" style="stroke:#1E90FF;stroke-width:0.5;" width="156" x="598.5" y="1241"/><text fill="#000000" font-family="sans-serif" font-size="20" font-style="italic" lengthAdjust="spacing" textLength="136" x="608.5" y="1264.7617">«Value Object»</text><text fill="#000000" font-family="sans-serif" font-size="20" lengthAdjust="spacing" textLength="82" x="635.5" y="1289.918">BirthDate</text></g><!--entity TaxPayerNumber--><g id="elem_TaxPayerNumber"><rect fill="#D8F5FF" height="56.3125" rx="2.5" ry="2.5" style="stroke:#1E90FF;stroke-width:0.5;" width="172" x="590.5" y="1150"/><text fill="#000000" font-family="sans-serif" font-size="20" font-style="italic" lengthAdjust="spacing" textLength="136" x="608.5" y="1173.7617">«Value Object»</text><text fill="#000000" font-family="sans-serif" font-size="20" lengthAdjust="spacing" textLength="152" x="600.5" y="1198.918">TaxPayerNumber</text></g><!--entity MechanographicNumber--><g id="elem_MechanographicNumber"><rect fill="#D8F5FF" height="56.3125" rx="2.5" ry="2.5" style="stroke:#1E90FF;stroke-width:0.5;" width="232" x="244" y="1188"/><text fill="#000000" font-family="sans-serif" font-size="20" font-style="italic" lengthAdjust="spacing" textLength="136" x="292" y="1211.7617">«Value Object»</text><text fill="#000000" font-family="sans-serif" font-size="20" lengthAdjust="spacing" textLength="212" x="254" y="1236.918">MechanographicNumber</text></g><!--class Manager--><g id="elem_Manager"><rect codeLine="117" fill="#D8F5FF" height="93.4688" id="Manager" rx="2.5" ry="2.5" style="stroke:#1E90FF;stroke-width:0.5;" width="112" x="304" y="250.5"/><ellipse cx="320" cy="293.2344" fill="#ADD1B2" rx="12" ry="12" style="stroke:#181818;stroke-width:1.0;"/><path d="M317.9531,294.2969 L317.9531,297.2344 L323.0469,297.2344 L323.0469,296.1406 Q323.0469,295.4219 323.3281,295.125 Q323.6094,294.8125 324.0625,294.8125 Q324.5,294.8125 324.7813,295.125 Q325.0625,295.4219 325.0625,296.1406 L325.0625,299.2344 L315.625,299.2344 Q314.9063,299.2344 314.5938,298.9531 Q314.2969,298.6719 314.2969,298.2344 Q314.2969,297.7813 314.6094,297.5156 Q314.9219,297.2344 315.625,297.2344 L315.9375,297.2344 L315.9375,289.4063 L315.625,289.4063 Q314.9063,289.4063 314.5938,289.125 Q314.2969,288.8438 314.2969,288.3906 Q314.2969,287.9375 314.5938,287.6719 Q314.9063,287.3906 315.625,287.3906 L324.6094,287.3906 L324.6094,290.4375 Q324.6094,291.1563 324.3281,291.4688 Q324.0625,291.7656 323.625,291.7656 Q323.1719,291.7656 322.8906,291.4688 Q322.6094,291.1719 322.6094,290.4375 L322.6094,289.4063 L317.9531,289.4063 L317.9531,292.2969 L319.7031,292.2969 Q319.7031,291.5156 319.8438,291.2813 Q320.1563,290.8125 320.7031,290.8125 Q321.1563,290.8125 321.4219,291.125 Q321.7031,291.4219 321.7031,292.1406 L321.7031,294.4531 Q321.7031,295.1094 321.5469,295.3281 Q321.2344,295.7813 320.7031,295.7813 Q320.1563,295.7813 319.8438,295.3125 Q319.7031,295.0781 319.7031,294.2969 L317.9531,294.2969 Z " fill="#000000"/><text fill="#000000" font-family="sans-serif" font-size="20" font-style="italic" lengthAdjust="spacing" textLength="69" x="339.5" y="276.2617">«entity»</text><text fill="#000000" font-family="sans-serif" font-size="20" font-style="italic" lengthAdjust="spacing" textLength="56" x="346" y="301.418">«root»</text><text fill="#000000" font-family="sans-serif" font-size="20" lengthAdjust="spacing" textLength="78" x="335" y="326.5742">Manager</text><line style="stroke:#1E90FF;stroke-width:0.5;" x1="305" x2="415" y1="335.9688" y2="335.9688"/></g><!--class Student--><g id="elem_Student"><rect codeLine="123" fill="#D8F5FF" height="93.4688" id="Student" rx="2.5" ry="2.5" style="stroke:#1E90FF;stroke-width:0.5;" width="101" x="53" y="1169.5"/><ellipse cx="69" cy="1212.2344" fill="#ADD1B2" rx="12" ry="12" style="stroke:#181818;stroke-width:1.0;"/><path d="M66.9531,1213.2969 L66.9531,1216.2344 L72.0469,1216.2344 L72.0469,1215.1406 Q72.0469,1214.4219 72.3281,1214.125 Q72.6094,1213.8125 73.0625,1213.8125 Q73.5,1213.8125 73.7813,1214.125 Q74.0625,1214.4219 74.0625,1215.1406 L74.0625,1218.2344 L64.625,1218.2344 Q63.9063,1218.2344 63.5938,1217.9531 Q63.2969,1217.6719 63.2969,1217.2344 Q63.2969,1216.7813 63.6094,1216.5156 Q63.9219,1216.2344 64.625,1216.2344 L64.9375,1216.2344 L64.9375,1208.4063 L64.625,1208.4063 Q63.9063,1208.4063 63.5938,1208.125 Q63.2969,1207.8438 63.2969,1207.3906 Q63.2969,1206.9375 63.5938,1206.6719 Q63.9063,1206.3906 64.625,1206.3906 L73.6094,1206.3906 L73.6094,1209.4375 Q73.6094,1210.1563 73.3281,1210.4688 Q73.0625,1210.7656 72.625,1210.7656 Q72.1719,1210.7656 71.8906,1210.4688 Q71.6094,1210.1719 71.6094,1209.4375 L71.6094,1208.4063 L66.9531,1208.4063 L66.9531,1211.2969 L68.7031,1211.2969 Q68.7031,1210.5156 68.8438,1210.2813 Q69.1563,1209.8125 69.7031,1209.8125 Q70.1563,1209.8125 70.4219,1210.125 Q70.7031,1210.4219 70.7031,1211.1406 L70.7031,1213.4531 Q70.7031,1214.1094 70.5469,1214.3281 Q70.2344,1214.7813 69.7031,1214.7813 Q69.1563,1214.7813 68.8438,1214.3125 Q68.7031,1214.0781 68.7031,1213.2969 L66.9531,1213.2969 Z " fill="#000000"/><text fill="#000000" font-family="sans-serif" font-size="20" font-style="italic" lengthAdjust="spacing" textLength="69" x="83" y="1195.2617">«entity»</text><text fill="#000000" font-family="sans-serif" font-size="20" font-style="italic" lengthAdjust="spacing" textLength="56" x="89.5" y="1220.418">«root»</text><text fill="#000000" font-family="sans-serif" font-size="20" lengthAdjust="spacing" textLength="67" x="84" y="1245.5742">Student</text><line style="stroke:#1E90FF;stroke-width:0.5;" x1="54" x2="153" y1="1254.9688" y2="1254.9688"/></g><!--link User to Email--><g id="link_User_Email"><path codeLine="38" d="M726.3,306.71 C766.53,314.71 824.49,326.24 871.86,335.66 " fill="none" id="User-to-Email" style="stroke:#1E90FF;stroke-width:1.0;"/><polygon fill="#1E90FF" points="877,336.68,868.9497,331.0062,872.0955,335.7077,867.394,338.8534,877,336.68" style="stroke:#1E90FF;stroke-width:1.0;"/></g><!--link User to Password--><g id="link_User_Password"><path codeLine="39" d="M726.3,290.65 C766.53,285.41 824.49,277.86 871.86,271.69 " fill="none" id="User-to-Password" style="stroke:#1E90FF;stroke-width:1.0;"/><polygon fill="#1E90FF" points="877,271.03,867.5603,268.2207,872.0415,271.673,868.5892,276.1542,877,271.03" style="stroke:#1E90FF;stroke-width:1.0;"/></g><!--link User to FullName--><g id="link_User_FullName"><path codeLine="40" d="M726.3,274.59 C771.28,253.93 838.4,223.1 888.13,200.26 " fill="none" id="User-to-FullName" style="stroke:#1E90FF;stroke-width:1.0;"/><polygon fill="#1E90FF" points="892.88,198.07,883.0319,198.19,888.336,200.1562,886.3698,205.4604,892.88,198.07" style="stroke:#1E90FF;stroke-width:1.0;"/></g><!--link User to ShortName--><g id="link_User_ShortName"><path codeLine="41" d="M726.21,250.22 C765.35,213.77 822.59,162.98 877,124 C883.67,119.22 890.88,114.49 898.12,110 " fill="none" id="User-to-ShortName" style="stroke:#1E90FF;stroke-width:1.0;"/><polygon fill="#1E90FF" points="902.63,107.23,892.8675,108.5311,898.3693,109.8465,897.0539,115.3483,902.63,107.23" style="stroke:#1E90FF;stroke-width:1.0;"/></g><!--link Course to Name--><g id="link_Course_Name"><path codeLine="63" d="M726.3,685.53 C766.53,683.49 824.49,680.56 871.86,678.16 " fill="none" id="Course-to-Name" style="stroke:#1E90FF;stroke-width:1.0;"/><polygon fill="#1E90FF" points="877,677.9,867.8064,674.3675,872.0066,678.1568,868.2173,682.357,877,677.9" style="stroke:#1E90FF;stroke-width:1.0;"/></g><!--link Course to State--><g id="link_Course_State"><path codeLine="64" d="M726.3,669.47 C767.52,653.82 827.33,631.1 875.31,612.88 " fill="none" id="Course-to-State" style="stroke:#1E90FF;stroke-width:1.0;"/><polygon fill="#1E90FF" points="880.21,611.02,870.3765,610.471,875.5348,612.7928,873.213,617.9512,880.21,611.02" style="stroke:#1E90FF;stroke-width:1.0;"/></g><!--link Course to Description--><g id="link_Course_Description"><path codeLine="65" d="M726.32,648.46 C765.99,616.97 823.88,572.44 877,537 C884.04,532.3 891.58,527.56 899.09,523.01 " fill="none" id="Course-to-Description" style="stroke:#1E90FF;stroke-width:1.0;"/><polygon fill="#1E90FF" points="903.76,520.2,893.9864,521.4149,899.4763,522.7788,898.1124,528.2688,903.76,520.2" style="stroke:#1E90FF;stroke-width:1.0;"/></g><!--link Course to Limit--><g id="link_Course_Limit"><path codeLine="66" d="M726.13,705.57 C753.96,716.76 788.84,732.76 817,752 C847.63,772.92 847.55,787.45 877,810 C883.76,815.17 891.14,820.24 898.57,825 " fill="none" id="Course-to-Limit" style="stroke:#1E90FF;stroke-width:1.0;"/><polygon fill="#1E90FF" points="903.2,827.92,897.7276,819.7314,898.9729,825.2495,893.4548,826.4948,903.2,827.92" style="stroke:#1E90FF;stroke-width:1.0;"/></g><!--link Course to Code--><g id="link_Course_Code"><path codeLine="67" d="M726.3,701.59 C766.62,712.82 824.72,729 872.15,742.21 " fill="none" id="Course-to-Code" style="stroke:#1E90FF;stroke-width:1.0;"/><polygon fill="#1E90FF" points="877,743.56,869.4056,737.289,872.1838,742.2166,867.2562,744.9948,877,743.56" style="stroke:#1E90FF;stroke-width:1.0;"/></g><!--link Course to Edition--><g id="link_Course_Edition"><path codeLine="68" d="M726.23,700.37 C755.84,710.08 792.54,726.36 817,752 C866.27,803.66 830.6,846.75 877,901 C881.61,906.38 887.01,911.31 892.77,915.76 " fill="none" id="Course-to-Edition" style="stroke:#1E90FF;stroke-width:1.0;"/><polygon fill="#1E90FF" points="896.82,918.77,892.0003,910.181,892.8131,915.7792,887.215,916.592,896.82,918.77" style="stroke:#1E90FF;stroke-width:1.0;"/></g><!--link State to GMN26--><g id="link_State_GMN26"><path d="M1033.09,583 C1056.05,583 1081.88,583 1107.3,583 " fill="none" id="State-GMN26" style="stroke:#1E90FF;stroke-width:1.0;stroke-dasharray:7.0,7.0;"/></g><!--link GMN29 to Limit--><g id="link_GMN29_Limit"><path d="M790.76,830.02 C819.69,834.63 850.14,839.47 876.79,843.71 " fill="none" id="GMN29-Limit" style="stroke:#1E90FF;stroke-width:1.0;stroke-dasharray:7.0,7.0;"/></g><!--link Code to GMN32--><g id="link_Code_GMN32"><path d="M1033.09,765 C1051.7,765 1072.21,765 1092.85,765 " fill="none" id="Code-GMN32" style="stroke:#1E90FF;stroke-width:1.0;stroke-dasharray:7.0,7.0;"/></g><!--link GMN35 to Edition--><g id="link_GMN35_Edition"><path d="M817.37,939.59 C837.86,940.7 858.31,941.81 876.91,942.82 " fill="none" id="GMN35-Edition" style="stroke:#1E90FF;stroke-width:1.0;stroke-dasharray:7.0,7.0;"/></g><!--link Teacher to BirthDate--><g id="link_Teacher_BirthDate"><path codeLine="109" d="M413.03,1128.44 C434.05,1139.09 457.62,1153.19 476,1170 C497.01,1189.22 488.89,1206.36 512,1223 C535.65,1240.04 565.41,1250.77 593.04,1257.54 " fill="none" id="Teacher-to-BirthDate" style="stroke:#1E90FF;stroke-width:1.0;"/><polygon fill="#1E90FF" points="598.18,1258.75,590.3354,1252.795,593.3129,1257.6048,588.5031,1260.5823,598.18,1258.75" style="stroke:#1E90FF;stroke-width:1.0;"/></g><!--link Teacher to TaxPayerNumber--><g id="link_Teacher_TaxPayerNumber"><path codeLine="110" d="M413.29,1117.97 C460.08,1128.68 529.7,1144.62 585.45,1157.38 " fill="none" id="Teacher-to-TaxPayerNumber" style="stroke:#1E90FF;stroke-width:1.0;"/><polygon fill="#1E90FF" points="590.45,1158.53,582.5685,1152.6239,585.5759,1157.4151,580.7847,1160.4225,590.45,1158.53" style="stroke:#1E90FF;stroke-width:1.0;"/></g><!--link Teacher to Acronym--><g id="link_Teacher_Acronym"><path codeLine="111" d="M413.29,1102.84 C462.29,1099.88 536.31,1095.41 593.23,1091.97 " fill="none" id="Teacher-to-Acronym" style="stroke:#1E90FF;stroke-width:1.0;"/><polygon fill="#1E90FF" points="598.33,1091.66,589.0962,1088.2341,593.3399,1091.9746,589.5995,1096.2183,598.33,1091.66" style="stroke:#1E90FF;stroke-width:1.0;"/></g><!--link Student to BirthDate--><g id="link_Student_BirthDate"><path codeLine="131" d="M154.19,1259.63 C173.41,1273.79 196.44,1287.71 220,1295 C345.82,1333.91 500.36,1311.31 593.23,1290.68 " fill="none" id="Student-to-BirthDate" style="stroke:#1E90FF;stroke-width:1.0;"/><polygon fill="#1E90FF" points="598.15,1289.58,588.49,1287.6606,593.2728,1290.6813,590.2521,1295.4641,598.15,1289.58" style="stroke:#1E90FF;stroke-width:1.0;"/></g><!--link Student to TaxPayerNumber--><g id="link_Student_TaxPayerNumber"><path codeLine="132" d="M154.18,1240.02 C174.15,1248.43 197.69,1256.81 220,1261 C331.82,1282.01 371.48,1305.96 476,1261 C497.37,1251.81 492.05,1234.97 512,1223 C534.25,1209.65 560.55,1200.16 585.48,1193.45 " fill="none" id="Student-to-TaxPayerNumber" style="stroke:#1E90FF;stroke-width:1.0;"/><polygon fill="#1E90FF" points="590.45,1192.15,580.7293,1190.5665,585.6139,1193.4197,582.7607,1198.3043,590.45,1192.15" style="stroke:#1E90FF;stroke-width:1.0;"/></g><!--link Student to MechanographicNumber--><g id="link_Student_MechanographicNumber"><path codeLine="133" d="M154.17,1216 C178.45,1216 208.81,1216 238.66,1216 " fill="none" id="Student-to-MechanographicNumber" style="stroke:#1E90FF;stroke-width:1.0;"/><polygon fill="#1E90FF" points="243.84,1216,234.84,1212,238.84,1216,234.84,1220,243.84,1216" style="stroke:#1E90FF;stroke-width:1.0;"/></g><!--link Teacher to User--><g id="link_Teacher_User"><path codeLine="138" d="M371.34,1059.26 C404.14,911.2 504.15,461.55 512,448 C539.28,400.94 586,359.98 622.53,332.63 " fill="none" id="Teacher-to-User" style="stroke:#1E90FF;stroke-width:1.0;"/><polygon fill="#1E90FF" points="626.93,329.37,617.3213,331.5316,622.918,332.354,622.0957,337.9507,626.93,329.37" style="stroke:#1E90FF;stroke-width:1.0;"/><text fill="#000000" font-family="sans-serif" font-size="20" lengthAdjust="spacing" textLength="11" x="607.8416" y="328.0272">1</text></g><!--link Manager to User--><g id="link_Manager_User"><path codeLine="139" d="M416.14,297 C474.03,297 564.43,297 621.78,297 " fill="none" id="Manager-to-User" style="stroke:#1E90FF;stroke-width:1.0;"/><polygon fill="#1E90FF" points="626.88,297,617.88,293,621.88,297,617.88,301,626.88,297" style="stroke:#1E90FF;stroke-width:1.0;"/><text fill="#000000" font-family="sans-serif" font-size="20" lengthAdjust="spacing" textLength="11" x="608.1288" y="290.9819">1</text></g><!--link Student to User--><g id="link_Student_User"><path codeLine="140" d="M116.75,1169.27 C134.81,1103.77 171.74,981.82 220,885 C324.2,675.94 360.25,625.59 512,448 C545.77,408.48 589.2,368.8 622.81,340.03 " fill="none" id="Student-to-User" style="stroke:#1E90FF;stroke-width:1.0;"/><polygon fill="#1E90FF" points="626.86,336.58,617.4123,339.3621,623.0507,339.8187,622.5941,345.4571,626.86,336.58" style="stroke:#1E90FF;stroke-width:1.0;"/><text fill="#000000" font-family="sans-serif" font-size="20" lengthAdjust="spacing" textLength="11" x="608.1059" y="364.6435">1</text></g><!--link Teacher to Course--><g id="link_Teacher_Course"><path codeLine="142" d="M384.91,1059.09 C409.41,1010.12 447.79,930.72 476,860 C494.74,813 477.15,788.68 512,752 C540.91,721.56 586.04,705.35 621.57,696.87 " fill="none" id="Teacher-to-Course" style="stroke:#1E90FF;stroke-width:1.0;"/><polygon fill="#1E90FF" points="626.73,695.67,617.0594,693.8045,621.859,696.7985,618.865,701.598,626.73,695.67" style="stroke:#1E90FF;stroke-width:1.0;"/><text fill="#000000" font-family="sans-serif" font-size="20" lengthAdjust="spacing" textLength="13" x="606.1687" y="719.1211">N</text></g><!--link Student to Course--><g id="link_Student_Course"><path codeLine="143" d="M132.84,1169.35 C191.77,1076.22 336.72,866.44 512,752 C545.94,729.84 588.73,713.44 622.02,702.79 " fill="none" id="Student-to-Course" style="stroke:#1E90FF;stroke-width:1.0;"/><polygon fill="#1E90FF" points="626.86,701.26,617.0717,700.1699,622.0942,702.7725,619.4916,707.7951,626.86,701.26" style="stroke:#1E90FF;stroke-width:1.0;"/><text fill="#000000" font-family="sans-serif" font-size="20" lengthAdjust="spacing" textLength="13" x="605.9653" y="697.1066">N</text></g><!--SRC=[pLPDQnin4Btlhn3k8Ut1a1GA9GI3umzmSHo3qznbQRohHYkvaZQ9M_hVEz9-U3-ySIw5xiLatjFCcoUD5Fiar9uQcahDde0J3ZkQIJVNoct4Bo2VBwCe4Hn82YxHt4OITeuuJOo84qUuCC2Sq2gAR9c9C4cj7Jjdn3Ppi61QXLIN7Gxv7H7ybc87Iw7WLXiEPgAbDcIgUGpcLcRGf53s51kTAPxJnklrSZ4PFopkLu7NnZzClyw_pES16nkZNqvcxodyfovuZvbf31jta41yqrJ54keTKSF__uQYeWyo-6u1oyMnWPWw6EJAGJdX3YHWDpVvNwFHpOtHser6KNGHa6UAsOZU_a0RR5WNcf-bL4XSzXZW-m2FHddYFqVQ6dV-1GMUPyupALSqXVFCJQADUvCQVeBwuN2KIss6IbdDQ2cX6QtAHTxJojA9peo5FbCBz9IjddLHu3tcJZJlDaSwHhpJBeVgpjEcO9aHUp_VvybBaGftdZRZuirykHc55zxholrQBEXl1sjgsr3GrWvwHzknGbqkGcaqAR_dzAvMCwoXYcnncnHup2L0TbfA_I9KV5sH_3SaztjGhT14QWky5PmfWobQmOLQ6ut7oThYAF4WgoOmNCYeuTYZ_sQK9OJbZL5BA45jO2gOOfu4EyFpB1lhL9PkCOZvhCiudjJUkfKnbO_jkaaed2dn4_UPDLYlDDrBk2Q3R-F7yV1gSAwvSb_A15Ensu51UGHon7eMBIeVspJWtwgjBwyiFcF6Ft7bsegMhsftsXZj1y36MXTcVRXBl7UwIqBFU8-PqUgGdf-VMs5SCdtN-3xGrpKzW5dbU_eMlrJdPw2gq46Q2JjmqKFJk3kgyBVVk18_PLmzpoO_ZhrvIln4dk1_YVVu_szi3VmxO0bLECHqdmZsZbMbrEvcr94Jcr67JrKDZWOtPizW3iGUh8EKKERm_uHYMlqJbxk3zuRLJ61jJZuodUwr3QFsgRFnWwj1U1i3K6ve1wYhgu1khjMWk92xYuvG5Fq5]--></g></svg>