<?xml version="1.0" encoding="UTF-8" standalone="no"?><svg xmlns="http://www.w3.org/2000/svg" xmlns:xlink="http://www.w3.org/1999/xlink" contentStyleType="text/css" height="1356px" preserveAspectRatio="none" style="width:1470px;height:1356px;background:#FFFFFF;" version="1.1" viewBox="0 0 1470 1356" width="1470px" zoomAndPan="magnify"><defs/><g><!--cluster User Aggregate--><g id="cluster_User Aggregate"><rect fill="none" height="389" rx="2.5" ry="2.5" style="stroke:#000000;stroke-width:1.5;" width="468" x="641" y="7"/><text fill="#000000" font-family="sans-serif" font-size="20" font-weight="bold" lengthAdjust="spacing" textLength="147" x="801.5" y="29.7617">User Aggregate</text></g><!--cluster Course Aggregate--><g id="cluster_Course Aggregate"><rect fill="none" height="583" rx="2.5" ry="2.5" style="stroke:#000000;stroke-width:1.5;" width="944" x="520" y="420"/><text fill="#000000" font-family="sans-serif" font-size="20" font-weight="bold" lengthAdjust="spacing" textLength="171" x="906.5" y="442.7617">Course Aggregate</text></g><!--cluster Teacher Aggregate--><g id="cluster_Teacher Aggregate"><rect fill="none" height="298" rx="2.5" ry="2.5" style="stroke:#000000;stroke-width:1.5;" width="580.5" x="228" y="1027"/><text fill="#000000" font-family="sans-serif" font-size="20" font-weight="bold" lengthAdjust="spacing" textLength="180" x="428.25" y="1049.7617">Teacher Aggregate</text></g><!--cluster Manager Aggregate--><g id="cluster_Manager Aggregate"><rect fill="none" height="154" rx="2.5" ry="2.5" style="stroke:#000000;stroke-width:1.5;" width="201" x="260" y="206"/><text fill="#000000" font-family="sans-serif" font-size="20" font-weight="bold" lengthAdjust="spacing" textLength="185" x="268" y="228.7617">Manager Aggregate</text></g><!--cluster Student Aggregate--><g id="cluster_Student Aggregate"><rect fill="none" height="154" rx="2.5" ry="2.5" style="stroke:#000000;stroke-width:1.5;" width="193" x="7" y="1137"/><text fill="#000000" font-family="sans-serif" font-size="20" font-weight="bold" lengthAdjust="spacing" textLength="177" x="15" y="1159.7617">Student Aggregate</text></g><!--class User--><g id="elem_User"><rect codeLine="26" fill="#D8F5FF" height="93.4688" id="User" rx="2.5" ry="2.5" style="stroke:#1E90FF;stroke-width:0.5;" width="99" x="657" y="250.5"/><ellipse cx="673" cy="293.2344" fill="#ADD1B2" rx="12" ry="12" style="stroke:#181818;stroke-width:1.0;"/><path d="M670.9531,294.2969 L670.9531,297.2344 L676.0469,297.2344 L676.0469,296.1406 Q676.0469,295.4219 676.3281,295.125 Q676.6094,294.8125 677.0625,294.8125 Q677.5,294.8125 677.7813,295.125 Q678.0625,295.4219 678.0625,296.1406 L678.0625,299.2344 L668.625,299.2344 Q667.9063,299.2344 667.5938,298.9531 Q667.2969,298.6719 667.2969,298.2344 Q667.2969,297.7813 667.6094,297.5156 Q667.9219,297.2344 668.625,297.2344 L668.9375,297.2344 L668.9375,289.4063 L668.625,289.4063 Q667.9063,289.4063 667.5938,289.125 Q667.2969,288.8438 667.2969,288.3906 Q667.2969,287.9375 667.5938,287.6719 Q667.9063,287.3906 668.625,287.3906 L677.6094,287.3906 L677.6094,290.4375 Q677.6094,291.1563 677.3281,291.4688 Q677.0625,291.7656 676.625,291.7656 Q676.1719,291.7656 675.8906,291.4688 Q675.6094,291.1719 675.6094,290.4375 L675.6094,289.4063 L670.9531,289.4063 L670.9531,292.2969 L672.7031,292.2969 Q672.7031,291.5156 672.8438,291.2813 Q673.1563,290.8125 673.7031,290.8125 Q674.1563,290.8125 674.4219,291.125 Q674.7031,291.4219 674.7031,292.1406 L674.7031,294.4531 Q674.7031,295.1094 674.5469,295.3281 Q674.2344,295.7813 673.7031,295.7813 Q673.1563,295.7813 672.8438,295.3125 Q672.7031,295.0781 672.7031,294.2969 L670.9531,294.2969 Z " fill="#000000"/><text fill="#000000" font-family="sans-serif" font-size="20" font-style="italic" lengthAdjust="spacing" textLength="69" x="686" y="276.2617">«entity»</text><text fill="#000000" font-family="sans-serif" font-size="20" font-style="italic" lengthAdjust="spacing" textLength="56" x="692.5" y="301.418">«root»</text><text fill="#000000" font-family="sans-serif" font-size="20" lengthAdjust="spacing" textLength="41" x="700" y="326.5742">User</text><line style="stroke:#1E90FF;stroke-width:0.5;" x1="658" x2="755" y1="335.9688" y2="335.9688"/></g><!--entity Email--><g id="elem_Email"><rect fill="#D8F5FF" height="56.3125" rx="2.5" ry="2.5" style="stroke:#1E90FF;stroke-width:0.5;" width="156" x="937" y="324"/><text fill="#000000" font-family="sans-serif" font-size="20" font-style="italic" lengthAdjust="spacing" textLength="136" x="947" y="347.7617">«Value Object»</text><text fill="#000000" font-family="sans-serif" font-size="20" lengthAdjust="spacing" textLength="48" x="991" y="372.918">Email</text></g><!--entity Password--><g id="elem_Password"><rect fill="#D8F5FF" height="56.3125" rx="2.5" ry="2.5" style="stroke:#1E90FF;stroke-width:0.5;" width="156" x="937" y="233"/><text fill="#000000" font-family="sans-serif" font-size="20" font-style="italic" lengthAdjust="spacing" textLength="136" x="947" y="256.7617">«Value Object»</text><text fill="#000000" font-family="sans-serif" font-size="20" lengthAdjust="spacing" textLength="88" x="971" y="281.918">Password</text></g><!--entity FullName--><g id="elem_FullName"><rect fill="#D8F5FF" height="56.3125" rx="2.5" ry="2.5" style="stroke:#1E90FF;stroke-width:0.5;" width="156" x="937" y="142"/><text fill="#000000" font-family="sans-serif" font-size="20" font-style="italic" lengthAdjust="spacing" textLength="136" x="947" y="165.7617">«Value Object»</text><text fill="#000000" font-family="sans-serif" font-size="20" lengthAdjust="spacing" textLength="81" x="974.5" y="190.918">FullName</text></g><!--entity ShortName--><g id="elem_ShortName"><rect fill="#D8F5FF" height="56.3125" rx="2.5" ry="2.5" style="stroke:#1E90FF;stroke-width:0.5;" width="156" x="937" y="51"/><text fill="#000000" font-family="sans-serif" font-size="20" font-style="italic" lengthAdjust="spacing" textLength="136" x="947" y="74.7617">«Value Object»</text><text fill="#000000" font-family="sans-serif" font-size="20" lengthAdjust="spacing" textLength="98" x="966" y="99.918">ShortName</text></g><!--class Course--><g id="elem_Course"><rect codeLine="46" fill="#D8F5FF" height="93.4688" id="Course" rx="2.5" ry="2.5" style="stroke:#1E90FF;stroke-width:0.5;" width="99" x="657" y="562.5"/><ellipse cx="673" cy="605.2344" fill="#ADD1B2" rx="12" ry="12" style="stroke:#181818;stroke-width:1.0;"/><path d="M670.9531,606.2969 L670.9531,609.2344 L676.0469,609.2344 L676.0469,608.1406 Q676.0469,607.4219 676.3281,607.125 Q676.6094,606.8125 677.0625,606.8125 Q677.5,606.8125 677.7813,607.125 Q678.0625,607.4219 678.0625,608.1406 L678.0625,611.2344 L668.625,611.2344 Q667.9063,611.2344 667.5938,610.9531 Q667.2969,610.6719 667.2969,610.2344 Q667.2969,609.7813 667.6094,609.5156 Q667.9219,609.2344 668.625,609.2344 L668.9375,609.2344 L668.9375,601.4063 L668.625,601.4063 Q667.9063,601.4063 667.5938,601.125 Q667.2969,600.8438 667.2969,600.3906 Q667.2969,599.9375 667.5938,599.6719 Q667.9063,599.3906 668.625,599.3906 L677.6094,599.3906 L677.6094,602.4375 Q677.6094,603.1563 677.3281,603.4688 Q677.0625,603.7656 676.625,603.7656 Q676.1719,603.7656 675.8906,603.4688 Q675.6094,603.1719 675.6094,602.4375 L675.6094,601.4063 L670.9531,601.4063 L670.9531,604.2969 L672.7031,604.2969 Q672.7031,603.5156 672.8438,603.2813 Q673.1563,602.8125 673.7031,602.8125 Q674.1563,602.8125 674.4219,603.125 Q674.7031,603.4219 674.7031,604.1406 L674.7031,606.4531 Q674.7031,607.1094 674.5469,607.3281 Q674.2344,607.7813 673.7031,607.7813 Q673.1563,607.7813 672.8438,607.3125 Q672.7031,607.0781 672.7031,606.2969 L670.9531,606.2969 Z " fill="#000000"/><text fill="#000000" font-family="sans-serif" font-size="20" font-style="italic" lengthAdjust="spacing" textLength="69" x="686" y="588.2617">«entity»</text><text fill="#000000" font-family="sans-serif" font-size="20" font-style="italic" lengthAdjust="spacing" textLength="56" x="692.5" y="613.418">«root»</text><text fill="#000000" font-family="sans-serif" font-size="20" lengthAdjust="spacing" textLength="63" x="689" y="638.5742">Course</text><line style="stroke:#1E90FF;stroke-width:0.5;" x1="658" x2="755" y1="647.9688" y2="647.9688"/></g><g id="elem_GMN25"><path d="M1167.5,515 L1167.5,650.7813 L1433.5,650.7813 L1433.5,525 L1423.5,515 L1167.5,515 " fill="#FEFFDD" style="stroke:#181818;stroke-width:0.5;"/><path d="M1423.5,515 L1423.5,525 L1433.5,525 L1423.5,515 " fill="#FEFFDD" style="stroke:#181818;stroke-width:1.0;"/><text fill="#000000" font-family="sans-serif" font-size="20" lengthAdjust="spacing" textLength="245" x="1173.5" y="540.7617">Can be one of the following:</text><text fill="#000000" font-family="sans-serif" font-size="20" lengthAdjust="spacing" textLength="61" x="1197.5" y="565.918">- Open</text><text fill="#000000" font-family="sans-serif" font-size="20" lengthAdjust="spacing" textLength="74" x="1197.5" y="591.0742">- Closed</text><text fill="#000000" font-family="sans-serif" font-size="20" lengthAdjust="spacing" textLength="62" x="1197.5" y="616.2305">- Enroll</text><text fill="#000000" font-family="sans-serif" font-size="20" lengthAdjust="spacing" textLength="109" x="1197.5" y="641.3867">- InProgress</text></g><g id="elem_GMN28"><path d="M592.5,690.5 L592.5,775.9688 L820.5,775.9688 L820.5,700.5 L810.5,690.5 L592.5,690.5 " fill="#FEFFDD" style="stroke:#181818;stroke-width:0.5;"/><path d="M810.5,690.5 L810.5,700.5 L820.5,700.5 L810.5,690.5 " fill="#FEFFDD" style="stroke:#181818;stroke-width:1.0;"/><text fill="#000000" font-family="sans-serif" font-size="20" lengthAdjust="spacing" textLength="207" x="598.5" y="716.2617">Each course as a lower</text><text fill="#000000" font-family="sans-serif" font-size="20" lengthAdjust="spacing" textLength="131" x="598.5" y="741.418">and higher limit</text><text fill="#000000" font-family="sans-serif" font-size="20" lengthAdjust="spacing" textLength="168" x="598.5" y="766.5742">number of students</text></g><g id="elem_GMN31"><path d="M1153,735 L1153,795.3125 L1448,795.3125 L1448,745 L1438,735 L1153,735 " fill="#FEFFDD" style="stroke:#181818;stroke-width:0.5;"/><path d="M1438,735 L1438,745 L1448,745 L1438,735 " fill="#FEFFDD" style="stroke:#181818;stroke-width:1.0;"/><text fill="#000000" font-family="sans-serif" font-size="20" lengthAdjust="spacing" textLength="274" x="1159" y="760.7617">Each course has a unique code</text><text fill="#000000" font-family="sans-serif" font-size="20" lengthAdjust="spacing" textLength="168" x="1159" y="785.918">Example: "JAVA-1"</text></g><!--class Edition--><g id="elem_Edition"><rect codeLine="88" fill="#D8F5FF" height="68.3125" id="Edition" rx="2.5" ry="2.5" style="stroke:#1E90FF;stroke-width:0.5;" width="99" x="965.5" y="919"/><ellipse cx="981.5" cy="949.1563" fill="#ADD1B2" rx="12" ry="12" style="stroke:#181818;stroke-width:1.0;"/><path d="M979.4531,950.2188 L979.4531,953.1563 L984.5469,953.1563 L984.5469,952.0625 Q984.5469,951.3438 984.8281,951.0469 Q985.1094,950.7344 985.5625,950.7344 Q986,950.7344 986.2813,951.0469 Q986.5625,951.3438 986.5625,952.0625 L986.5625,955.1563 L977.125,955.1563 Q976.4063,955.1563 976.0938,954.875 Q975.7969,954.5938 975.7969,954.1563 Q975.7969,953.7031 976.1094,953.4375 Q976.4219,953.1563 977.125,953.1563 L977.4375,953.1563 L977.4375,945.3281 L977.125,945.3281 Q976.4063,945.3281 976.0938,945.0469 Q975.7969,944.7656 975.7969,944.3125 Q975.7969,943.8594 976.0938,943.5938 Q976.4063,943.3125 977.125,943.3125 L986.1094,943.3125 L986.1094,946.3594 Q986.1094,947.0781 985.8281,947.3906 Q985.5625,947.6875 985.125,947.6875 Q984.6719,947.6875 984.3906,947.3906 Q984.1094,947.0938 984.1094,946.3594 L984.1094,945.3281 L979.4531,945.3281 L979.4531,948.2188 L981.2031,948.2188 Q981.2031,947.4375 981.3438,947.2031 Q981.6563,946.7344 982.2031,946.7344 Q982.6563,946.7344 982.9219,947.0469 Q983.2031,947.3438 983.2031,948.0625 L983.2031,950.375 Q983.2031,951.0313 983.0469,951.25 Q982.7344,951.7031 982.2031,951.7031 Q981.6563,951.7031 981.3438,951.2344 Q981.2031,951 981.2031,950.2188 L979.4531,950.2188 Z " fill="#000000"/><text fill="#000000" font-family="sans-serif" font-size="20" font-style="italic" lengthAdjust="spacing" textLength="69" x="994.5" y="944.7617">«entity»</text><text fill="#000000" font-family="sans-serif" font-size="20" lengthAdjust="spacing" textLength="59" x="999.5" y="969.918">Edition</text><line style="stroke:#1E90FF;stroke-width:0.5;" x1="966.5" x2="1063.5" y1="979.3125" y2="979.3125"/></g><g id="elem_GMN35"><path d="M536,810.5 L536,895.9688 A0,0 0 0 0 536,895.9688 L833.93,895.9688 L965.3,937.11 L841.93,895.9688 L877,895.9688 A0,0 0 0 0 877,895.9688 L877,820.5 L867,810.5 L536,810.5 A0,0 0 0 0 536,810.5 " fill="#FEFFDD" style="stroke:#181818;stroke-width:0.5;"/><path d="M867,810.5 L867,820.5 L877,820.5 L867,810.5 " fill="#FEFFDD" style="stroke:#181818;stroke-width:0.5;"/><text fill="#000000" font-family="sans-serif" font-size="20" lengthAdjust="spacing" textLength="282" x="542" y="836.2617">Still waiting for the client answer</text><text fill="#000000" font-family="sans-serif" font-size="20" lengthAdjust="spacing" textLength="320" x="542" y="861.418">since Edition is a concept that needs</text><text fill="#000000" font-family="sans-serif" font-size="20" lengthAdjust="spacing" textLength="198" x="542" y="886.5742">to be further specified.</text></g><!--entity Code--><g id="elem_Code"><rect fill="#D8F5FF" height="56.3125" rx="2.5" ry="2.5" style="stroke:#1E90FF;stroke-width:0.5;" width="156" x="937" y="737"/><text fill="#000000" font-family="sans-serif" font-size="20" font-style="italic" lengthAdjust="spacing" textLength="136" x="947" y="760.7617">«Value Object»</text><text fill="#000000" font-family="sans-serif" font-size="20" lengthAdjust="spacing" textLength="47" x="991.5" y="785.918">Code</text></g><!--entity Name--><g id="elem_Name"><rect fill="#D8F5FF" height="56.3125" rx="2.5" ry="2.5" style="stroke:#1E90FF;stroke-width:0.5;" width="156" x="937" y="646"/><text fill="#000000" font-family="sans-serif" font-size="20" font-style="italic" lengthAdjust="spacing" textLength="136" x="947" y="669.7617">«Value Object»</text><text fill="#000000" font-family="sans-serif" font-size="20" lengthAdjust="spacing" textLength="51" x="989.5" y="694.918">Name</text></g><!--entity State--><g id="elem_State"><rect fill="#D8F5FF" height="56.3125" rx="2.5" ry="2.5" style="stroke:#1E90FF;stroke-width:0.5;" width="156" x="937" y="555"/><text fill="#000000" font-family="sans-serif" font-size="20" font-style="italic" lengthAdjust="spacing" textLength="136" x="947" y="578.7617">«Value Object»</text><text fill="#000000" font-family="sans-serif" font-size="20" lengthAdjust="spacing" textLength="47" x="991.5" y="603.918">State</text></g><!--entity Description--><g id="elem_Description"><rect fill="#D8F5FF" height="56.3125" rx="2.5" ry="2.5" style="stroke:#1E90FF;stroke-width:0.5;" width="156" x="937" y="464"/><text fill="#000000" font-family="sans-serif" font-size="20" font-style="italic" lengthAdjust="spacing" textLength="136" x="947" y="487.7617">«Value Object»</text><text fill="#000000" font-family="sans-serif" font-size="20" lengthAdjust="spacing" textLength="98" x="966" y="512.918">Description</text></g><!--entity Limit--><g id="elem_Limit"><rect fill="#D8F5FF" height="56.3125" rx="2.5" ry="2.5" style="stroke:#1E90FF;stroke-width:0.5;" width="156" x="937" y="828"/><text fill="#000000" font-family="sans-serif" font-size="20" font-style="italic" lengthAdjust="spacing" textLength="136" x="947" y="851.7617">«Value Object»</text><text fill="#000000" font-family="sans-serif" font-size="20" lengthAdjust="spacing" textLength="41" x="994.5" y="876.918">Limit</text></g><!--entity Edition--><g id="elem_Edition"><rect fill="#D8F5FF" height="56.3125" rx="2.5" ry="2.5" style="stroke:#1E90FF;stroke-width:0.5;" width="156" x="628.5" y="931"/><text fill="#000000" font-family="sans-serif" font-size="20" font-style="italic" lengthAdjust="spacing" textLength="136" x="638.5" y="954.7617">«Value Object»</text><text fill="#000000" font-family="sans-serif" font-size="20" lengthAdjust="spacing" textLength="59" x="677" y="979.918">Edition</text></g><!--class Teacher--><g id="elem_Teacher"><rect codeLine="107" fill="#D8F5FF" height="93.4688" id="Teacher" rx="2.5" ry="2.5" style="stroke:#1E90FF;stroke-width:0.5;" width="106" x="307" y="1071.5"/><ellipse cx="323" cy="1114.2344" fill="#ADD1B2" rx="12" ry="12" style="stroke:#181818;stroke-width:1.0;"/><path d="M320.9531,1115.2969 L320.9531,1118.2344 L326.0469,1118.2344 L326.0469,1117.1406 Q326.0469,1116.4219 326.3281,1116.125 Q326.6094,1115.8125 327.0625,1115.8125 Q327.5,1115.8125 327.7813,1116.125 Q328.0625,1116.4219 328.0625,1117.1406 L328.0625,1120.2344 L318.625,1120.2344 Q317.9063,1120.2344 317.5938,1119.9531 Q317.2969,1119.6719 317.2969,1119.2344 Q317.2969,1118.7813 317.6094,1118.5156 Q317.9219,1118.2344 318.625,1118.2344 L318.9375,1118.2344 L318.9375,1110.4063 L318.625,1110.4063 Q317.9063,1110.4063 317.5938,1110.125 Q317.2969,1109.8438 317.2969,1109.3906 Q317.2969,1108.9375 317.5938,1108.6719 Q317.9063,1108.3906 318.625,1108.3906 L327.6094,1108.3906 L327.6094,1111.4375 Q327.6094,1112.1563 327.3281,1112.4688 Q327.0625,1112.7656 326.625,1112.7656 Q326.1719,1112.7656 325.8906,1112.4688 Q325.6094,1112.1719 325.6094,1111.4375 L325.6094,1110.4063 L320.9531,1110.4063 L320.9531,1113.2969 L322.7031,1113.2969 Q322.7031,1112.5156 322.8438,1112.2813 Q323.1563,1111.8125 323.7031,1111.8125 Q324.1563,1111.8125 324.4219,1112.125 Q324.7031,1112.4219 324.7031,1113.1406 L324.7031,1115.4531 Q324.7031,1116.1094 324.5469,1116.3281 Q324.2344,1116.7813 323.7031,1116.7813 Q323.1563,1116.7813 322.8438,1116.3125 Q322.7031,1116.0781 322.7031,1115.2969 L320.9531,1115.2969 Z " fill="#000000"/><text fill="#000000" font-family="sans-serif" font-size="20" font-style="italic" lengthAdjust="spacing" textLength="69" x="339.5" y="1097.2617">«entity»</text><text fill="#000000" font-family="sans-serif" font-size="20" font-style="italic" lengthAdjust="spacing" textLength="56" x="346" y="1122.418">«root»</text><text fill="#000000" font-family="sans-serif" font-size="20" lengthAdjust="spacing" textLength="72" x="338" y="1147.5742">Teacher</text><line style="stroke:#1E90FF;stroke-width:0.5;" x1="308" x2="412" y1="1156.9688" y2="1156.9688"/></g><!--entity Acronym--><g id="elem_Acronym"><rect fill="#D8F5FF" height="56.3125" rx="2.5" ry="2.5" style="stroke:#1E90FF;stroke-width:0.5;" width="156" x="628.5" y="1071"/><text fill="#000000" font-family="sans-serif" font-size="20" font-style="italic" lengthAdjust="spacing" textLength="136" x="638.5" y="1094.7617">«Value Object»</text><text fill="#000000" font-family="sans-serif" font-size="20" lengthAdjust="spacing" textLength="77" x="668" y="1119.918">Acronym</text></g><!--entity BirthDate--><g id="elem_BirthDate"><rect fill="#D8F5FF" height="56.3125" rx="2.5" ry="2.5" style="stroke:#1E90FF;stroke-width:0.5;" width="156" x="628.5" y="1253"/><text fill="#000000" font-family="sans-serif" font-size="20" font-style="italic" lengthAdjust="spacing" textLength="136" x="638.5" y="1276.7617">«Value Object»</text><text fill="#000000" font-family="sans-serif" font-size="20" lengthAdjust="spacing" textLength="82" x="665.5" y="1301.918">BirthDate</text></g><!--entity TaxPayerNumber--><g id="elem_TaxPayerNumber"><rect fill="#D8F5FF" height="56.3125" rx="2.5" ry="2.5" style="stroke:#1E90FF;stroke-width:0.5;" width="172" x="620.5" y="1162"/><text fill="#000000" font-family="sans-serif" font-size="20" font-style="italic" lengthAdjust="spacing" textLength="136" x="638.5" y="1185.7617">«Value Object»</text><text fill="#000000" font-family="sans-serif" font-size="20" lengthAdjust="spacing" textLength="152" x="630.5" y="1210.918">TaxPayerNumber</text></g><!--entity MechanographicNumber--><g id="elem_MechanographicNumber"><rect fill="#D8F5FF" height="56.3125" rx="2.5" ry="2.5" style="stroke:#1E90FF;stroke-width:0.5;" width="232" x="244" y="1200"/><text fill="#000000" font-family="sans-serif" font-size="20" font-style="italic" lengthAdjust="spacing" textLength="136" x="292" y="1223.7617">«Value Object»</text><text fill="#000000" font-family="sans-serif" font-size="20" lengthAdjust="spacing" textLength="212" x="254" y="1248.918">MechanographicNumber</text></g><!--class Manager--><g id="elem_Manager"><rect codeLine="124" fill="#D8F5FF" height="93.4688" id="Manager" rx="2.5" ry="2.5" style="stroke:#1E90FF;stroke-width:0.5;" width="112" x="304" y="250.5"/><ellipse cx="320" cy="293.2344" fill="#ADD1B2" rx="12" ry="12" style="stroke:#181818;stroke-width:1.0;"/><path d="M317.9531,294.2969 L317.9531,297.2344 L323.0469,297.2344 L323.0469,296.1406 Q323.0469,295.4219 323.3281,295.125 Q323.6094,294.8125 324.0625,294.8125 Q324.5,294.8125 324.7813,295.125 Q325.0625,295.4219 325.0625,296.1406 L325.0625,299.2344 L315.625,299.2344 Q314.9063,299.2344 314.5938,298.9531 Q314.2969,298.6719 314.2969,298.2344 Q314.2969,297.7813 314.6094,297.5156 Q314.9219,297.2344 315.625,297.2344 L315.9375,297.2344 L315.9375,289.4063 L315.625,289.4063 Q314.9063,289.4063 314.5938,289.125 Q314.2969,288.8438 314.2969,288.3906 Q314.2969,287.9375 314.5938,287.6719 Q314.9063,287.3906 315.625,287.3906 L324.6094,287.3906 L324.6094,290.4375 Q324.6094,291.1563 324.3281,291.4688 Q324.0625,291.7656 323.625,291.7656 Q323.1719,291.7656 322.8906,291.4688 Q322.6094,291.1719 322.6094,290.4375 L322.6094,289.4063 L317.9531,289.4063 L317.9531,292.2969 L319.7031,292.2969 Q319.7031,291.5156 319.8438,291.2813 Q320.1563,290.8125 320.7031,290.8125 Q321.1563,290.8125 321.4219,291.125 Q321.7031,291.4219 321.7031,292.1406 L321.7031,294.4531 Q321.7031,295.1094 321.5469,295.3281 Q321.2344,295.7813 320.7031,295.7813 Q320.1563,295.7813 319.8438,295.3125 Q319.7031,295.0781 319.7031,294.2969 L317.9531,294.2969 Z " fill="#000000"/><text fill="#000000" font-family="sans-serif" font-size="20" font-style="italic" lengthAdjust="spacing" textLength="69" x="339.5" y="276.2617">«entity»</text><text fill="#000000" font-family="sans-serif" font-size="20" font-style="italic" lengthAdjust="spacing" textLength="56" x="346" y="301.418">«root»</text><text fill="#000000" font-family="sans-serif" font-size="20" lengthAdjust="spacing" textLength="78" x="335" y="326.5742">Manager</text><line style="stroke:#1E90FF;stroke-width:0.5;" x1="305" x2="415" y1="335.9688" y2="335.9688"/></g><!--class Student--><g id="elem_Student"><rect codeLine="130" fill="#D8F5FF" height="93.4688" id="Student" rx="2.5" ry="2.5" style="stroke:#1E90FF;stroke-width:0.5;" width="101" x="53" y="1181.5"/><ellipse cx="69" cy="1224.2344" fill="#ADD1B2" rx="12" ry="12" style="stroke:#181818;stroke-width:1.0;"/><path d="M66.9531,1225.2969 L66.9531,1228.2344 L72.0469,1228.2344 L72.0469,1227.1406 Q72.0469,1226.4219 72.3281,1226.125 Q72.6094,1225.8125 73.0625,1225.8125 Q73.5,1225.8125 73.7813,1226.125 Q74.0625,1226.4219 74.0625,1227.1406 L74.0625,1230.2344 L64.625,1230.2344 Q63.9063,1230.2344 63.5938,1229.9531 Q63.2969,1229.6719 63.2969,1229.2344 Q63.2969,1228.7813 63.6094,1228.5156 Q63.9219,1228.2344 64.625,1228.2344 L64.9375,1228.2344 L64.9375,1220.4063 L64.625,1220.4063 Q63.9063,1220.4063 63.5938,1220.125 Q63.2969,1219.8438 63.2969,1219.3906 Q63.2969,1218.9375 63.5938,1218.6719 Q63.9063,1218.3906 64.625,1218.3906 L73.6094,1218.3906 L73.6094,1221.4375 Q73.6094,1222.1563 73.3281,1222.4688 Q73.0625,1222.7656 72.625,1222.7656 Q72.1719,1222.7656 71.8906,1222.4688 Q71.6094,1222.1719 71.6094,1221.4375 L71.6094,1220.4063 L66.9531,1220.4063 L66.9531,1223.2969 L68.7031,1223.2969 Q68.7031,1222.5156 68.8438,1222.2813 Q69.1563,1221.8125 69.7031,1221.8125 Q70.1563,1221.8125 70.4219,1222.125 Q70.7031,1222.4219 70.7031,1223.1406 L70.7031,1225.4531 Q70.7031,1226.1094 70.5469,1226.3281 Q70.2344,1226.7813 69.7031,1226.7813 Q69.1563,1226.7813 68.8438,1226.3125 Q68.7031,1226.0781 68.7031,1225.2969 L66.9531,1225.2969 Z " fill="#000000"/><text fill="#000000" font-family="sans-serif" font-size="20" font-style="italic" lengthAdjust="spacing" textLength="69" x="83" y="1207.2617">«entity»</text><text fill="#000000" font-family="sans-serif" font-size="20" font-style="italic" lengthAdjust="spacing" textLength="56" x="89.5" y="1232.418">«root»</text><text fill="#000000" font-family="sans-serif" font-size="20" lengthAdjust="spacing" textLength="67" x="84" y="1257.5742">Student</text><line style="stroke:#1E90FF;stroke-width:0.5;" x1="54" x2="153" y1="1266.9688" y2="1266.9688"/></g><!--link User to Email--><g id="link_User_Email"><path codeLine="38" d="M756.07,305.71 C803.17,314.17 875.56,327.16 931.67,337.23 " fill="none" id="User-to-Email" style="stroke:#1E90FF;stroke-width:1.0;"/><polygon fill="#1E90FF" points="936.71,338.13,928.5594,332.6012,931.7888,337.2456,927.1444,340.475,936.71,338.13" style="stroke:#1E90FF;stroke-width:1.0;"/></g><!--link User to Password--><g id="link_User_Password"><path codeLine="39" d="M756.07,291.3 C803.17,285.76 875.56,277.26 931.67,270.67 " fill="none" id="User-to-Password" style="stroke:#1E90FF;stroke-width:1.0;"/><polygon fill="#1E90FF" points="936.71,270.08,927.3038,267.1605,931.7443,270.665,928.2398,275.1056,936.71,270.08" style="stroke:#1E90FF;stroke-width:1.0;"/></g><!--link User to FullName--><g id="link_User_FullName"><path codeLine="40" d="M756.07,276.88 C805.98,256.2 884.27,223.76 941.51,200.04 " fill="none" id="User-to-FullName" style="stroke:#1E90FF;stroke-width:1.0;"/><polygon fill="#1E90FF" points="946.29,198.06,936.4445,197.8033,941.6696,199.9709,939.502,205.196,946.29,198.06" style="stroke:#1E90FF;stroke-width:1.0;"/></g><!--link User to ShortName--><g id="link_User_ShortName"><path codeLine="41" d="M756.42,257.48 C802.07,221.24 872.62,166.86 937,124 C944.04,119.31 951.59,114.57 959.1,110.02 " fill="none" id="User-to-ShortName" style="stroke:#1E90FF;stroke-width:1.0;"/><polygon fill="#1E90FF" points="963.77,107.21,953.9946,108.4105,959.4825,109.7825,958.1105,115.2704,963.77,107.21" style="stroke:#1E90FF;stroke-width:1.0;"/></g><!--link Course to Name--><g id="link_Course_Name"><path codeLine="63" d="M756.07,619.3 C803.17,629.29 875.56,644.64 931.67,656.54 " fill="none" id="Course-to-Name" style="stroke:#1E90FF;stroke-width:1.0;"/><polygon fill="#1E90FF" points="936.71,657.61,928.7433,651.8194,931.8202,656.5663,927.0733,659.6431,936.71,657.61" style="stroke:#1E90FF;stroke-width:1.0;"/></g><!--link Course to State--><g id="link_Course_State"><path codeLine="64" d="M756.07,604.88 C803.17,600.88 875.56,594.74 931.67,589.98 " fill="none" id="Course-to-State" style="stroke:#1E90FF;stroke-width:1.0;"/><polygon fill="#1E90FF" points="936.71,589.56,927.4089,586.3212,931.7273,589.9752,928.0733,594.2936,936.71,589.56" style="stroke:#1E90FF;stroke-width:1.0;"/></g><!--link Course to Description--><g id="link_Course_Description"><path codeLine="65" d="M756.07,590.46 C804.34,572.04 879.15,543.48 935.79,521.85 " fill="none" id="Course-to-Description" style="stroke:#1E90FF;stroke-width:1.0;"/><polygon fill="#1E90FF" points="940.53,520.05,930.695,519.5273,935.8596,521.8353,933.5515,526.9999,940.53,520.05" style="stroke:#1E90FF;stroke-width:1.0;"/></g><!--link Course to Limit--><g id="link_Course_Limit"><path codeLine="66" d="M756.04,616.78 C793.25,625.01 843.7,641.38 877,673 C925.2,718.77 893.04,760.14 937,810 C941.77,815.41 947.33,820.37 953.25,824.86 " fill="none" id="Course-to-Limit" style="stroke:#1E90FF;stroke-width:1.0;"/><polygon fill="#1E90FF" points="957.39,827.9,952.5018,819.3499,953.3593,824.9413,947.7679,825.7989,957.39,827.9" style="stroke:#1E90FF;stroke-width:1.0;"/></g><!--link Course to Code--><g id="link_Course_Code"><path codeLine="67" d="M756.29,623.21 C791.09,634.34 838.38,651.52 877,673 C906.37,689.33 909.2,700.13 937,719 C944.5,724.09 952.57,729.25 960.57,734.17 " fill="none" id="Course-to-Code" style="stroke:#1E90FF;stroke-width:1.0;"/><polygon fill="#1E90FF" points="965,736.88,959.4117,728.77,960.7354,734.2699,955.2355,735.5935,965,736.88" style="stroke:#1E90FF;stroke-width:1.0;"/></g><!--link State to GMN25--><g id="link_State_GMN25"><path d="M1093.09,583 C1116.05,583 1141.88,583 1167.3,583 " fill="none" id="State-GMN25" style="stroke:#1E90FF;stroke-width:1.0;stroke-dasharray:7.0,7.0;"/></g><!--link GMN28 to Limit--><g id="link_GMN28_Limit"><path d="M820.64,771.44 C839.57,778.33 858.92,785.66 877,793 C903.32,803.68 931.94,816.63 956.18,828 " fill="none" id="GMN28-Limit" style="stroke:#1E90FF;stroke-width:1.0;stroke-dasharray:7.0,7.0;"/></g><!--link Code to GMN31--><g id="link_Code_GMN31"><path d="M1093.09,765 C1111.7,765 1132.21,765 1152.85,765 " fill="none" id="Code-GMN31" style="stroke:#1E90FF;stroke-width:1.0;stroke-dasharray:7.0,7.0;"/></g><!--link Teacher to BirthDate--><g id="link_Teacher_BirthDate"><path codeLine="116" d="M413.03,1140.44 C434.05,1151.09 457.62,1165.19 476,1182 C497.01,1201.22 488.56,1218.83 512,1235 C544.38,1257.33 586.25,1268.89 622.75,1274.85 " fill="none" id="Teacher-to-BirthDate" style="stroke:#1E90FF;stroke-width:1.0;"/><polygon fill="#1E90FF" points="628.1,1275.69,619.8245,1270.35,623.1598,1274.919,618.5908,1278.2543,628.1,1275.69" style="stroke:#1E90FF;stroke-width:1.0;"/></g><!--link Teacher to TaxPayerNumber--><g id="link_Teacher_TaxPayerNumber"><path codeLine="117" d="M413.32,1128.94 C466.89,1140.13 551.18,1157.75 615.48,1171.19 " fill="none" id="Teacher-to-TaxPayerNumber" style="stroke:#1E90FF;stroke-width:1.0;"/><polygon fill="#1E90FF" points="620.47,1172.23,612.4837,1166.4664,615.5766,1171.2028,610.8402,1174.2958,620.47,1172.23" style="stroke:#1E90FF;stroke-width:1.0;"/></g><!--link Teacher to Acronym--><g id="link_Teacher_Acronym"><path codeLine="118" d="M413.32,1115.11 C469.09,1112.04 558.16,1107.13 623.31,1103.53 " fill="none" id="Teacher-to-Acronym" style="stroke:#1E90FF;stroke-width:1.0;"/><polygon fill="#1E90FF" points="628.35,1103.26,619.1464,1099.7537,623.3574,1103.531,619.5801,1107.742,628.35,1103.26" style="stroke:#1E90FF;stroke-width:1.0;"/></g><!--link Student to BirthDate--><g id="link_Student_BirthDate"><path codeLine="138" d="M154.19,1271.63 C173.41,1285.79 196.44,1299.71 220,1307 C356.6,1349.25 524.99,1324.2 623.29,1302.42 " fill="none" id="Student-to-BirthDate" style="stroke:#1E90FF;stroke-width:1.0;"/><polygon fill="#1E90FF" points="628.21,1301.32,618.5512,1299.3945,623.3321,1302.4182,620.3084,1307.1991,628.21,1301.32" style="stroke:#1E90FF;stroke-width:1.0;"/></g><!--link Student to TaxPayerNumber--><g id="link_Student_TaxPayerNumber"><path codeLine="139" d="M154.18,1252.02 C174.15,1260.43 197.69,1268.81 220,1273 C331.82,1294.01 371.48,1317.96 476,1273 C497.37,1263.81 491.82,1246.57 512,1235 C543.23,1217.1 581.16,1206.32 615.13,1199.82 " fill="none" id="Student-to-TaxPayerNumber" style="stroke:#1E90FF;stroke-width:1.0;"/><polygon fill="#1E90FF" points="620.11,1198.89,610.5302,1196.6037,615.1943,1199.8045,611.9935,1204.4687,620.11,1198.89" style="stroke:#1E90FF;stroke-width:1.0;"/></g><!--link Student to MechanographicNumber--><g id="link_Student_MechanographicNumber"><path codeLine="140" d="M154.17,1228 C178.45,1228 208.81,1228 238.66,1228 " fill="none" id="Student-to-MechanographicNumber" style="stroke:#1E90FF;stroke-width:1.0;"/><polygon fill="#1E90FF" points="243.84,1228,234.84,1224,238.84,1228,234.84,1232,243.84,1228" style="stroke:#1E90FF;stroke-width:1.0;"/></g><!--link Teacher to User--><g id="link_Teacher_User"><path codeLine="145" d="M370.59,1071.47 C401.1,923.98 494.94,474.91 512,448 C546.52,393.54 607.82,350.71 652.2,324.78 " fill="none" id="Teacher-to-User" style="stroke:#1E90FF;stroke-width:1.0;"/><polygon fill="#1E90FF" points="656.71,322.17,646.9185,323.2316,652.3865,324.6814,650.9367,330.1493,656.71,322.17" style="stroke:#1E90FF;stroke-width:1.0;"/></g><!--link Manager to User--><g id="link_Manager_User"><path codeLine="146" d="M416.35,297 C481.1,297 587.58,297 651.67,297 " fill="none" id="Manager-to-User" style="stroke:#1E90FF;stroke-width:1.0;"/><polygon fill="#1E90FF" points="656.97,297,647.97,293,651.97,297,647.97,301,656.97,297" style="stroke:#1E90FF;stroke-width:1.0;"/></g><!--link Student to User--><g id="link_Student_User"><path codeLine="147" d="M112.17,1181.36 C126.04,1104.68 159.59,948.56 220,829 C316.21,638.58 361.8,599.51 512,448 C555.42,404.2 611.59,361.66 652.21,332.96 " fill="none" id="Student-to-User" style="stroke:#1E90FF;stroke-width:1.0;"/><polygon fill="#1E90FF" points="656.59,329.88,646.9266,331.7824,652.4992,332.755,651.5266,338.3276,656.59,329.88" style="stroke:#1E90FF;stroke-width:1.0;"/></g><!--link Teacher to Course--><g id="link_Teacher_Course"><path codeLine="149" d="M381.89,1071.38 C406.77,1014.55 448.44,915.14 476,827 C496.97,759.91 464.58,724.88 512,673 C547.74,633.89 607.87,618.64 651.63,612.71 " fill="none" id="Teacher-to-Course" style="stroke:#1E90FF;stroke-width:1.0;"/><polygon fill="#1E90FF" points="656.61,612.07,647.1713,609.2572,651.6513,612.7112,648.1973,617.1912,656.61,612.07" style="stroke:#1E90FF;stroke-width:1.0;"/></g><!--link Student to Course--><g id="link_Student_Course"><path codeLine="150" d="M125.74,1181.45 C176.69,1075.03 316.28,812.37 512,673 C553.96,643.12 610.77,626.53 651.98,617.77 " fill="none" id="Student-to-Course" style="stroke:#1E90FF;stroke-width:1.0;"/><polygon fill="#1E90FF" points="656.92,616.74,647.296,614.6473,652.0238,617.7535,648.9176,622.4813,656.92,616.74" style="stroke:#1E90FF;stroke-width:1.0;"/></g><!--link Course to Edition--><g id="link_Course_Edition"><path codeLine="152" d="M756.29,615.17 C794.4,622.54 845.94,638.54 877,673 C947.15,750.83 876.37,815.54 937,901 C943.42,910.04 951.94,917.98 960.98,924.75 " fill="none" id="Course-to-Edition" style="stroke:#1E90FF;stroke-width:1.0;"/><polygon fill="#1E90FF" points="965.45,927.98,960.5079,919.4609,961.4008,925.0468,955.8148,925.9396,965.45,927.98" style="stroke:#1E90FF;stroke-width:1.0;"/></g><!--SRC=[pLLTRzCm57tFhx36GuV4420X8JGgTVsGXiPMgODtrxv9p1mxsCvAGVnthfsF9Mco3YGaybBrtkDpppssh-sTK3arD9EQtG4d769QIBVIoct43o1lNaLHAZYG35ogkOqan8uuJOn8KaUuCC2Sq2gARCr4cAJMpfmpObiuk6HQ1QfN1nZoCoBuNOaOheI22squcBcMsf25vWcO2rb05qBPNM9qeNW9cwtNLvVpsUtbpNN0zVFF5kzMRrUha9iPetU3x2E5VxK5vyXC4zYulGJYcwOgaT3kY1h-_pSKLNsGayyMi5oI64YeWvDIEIWdt9w4tFbv-MywFJytMhlfD8ec8NDFaOtexLUqmOPreVbbHeN4PLz2-YQafzEI-DS3R8qxlqE1nv6hGifhci5nv2RLnZqA3Jz1_TdPj9JQ3TMokj5QGZVQb8kyfusbSrqO2sEcLjaXMprgKkL7p9rhVjWSEJ3YYNOvL7SSjW3BZCZz_JuElXAPSCTXIouUvIlDgBpmNZVkjs91Vp_OKjjF1Mtze7UqhAOqkb4ED1stoCC2giWMzqE1pxaKIAobr3kXalSDo7zdv2O7rGlDfRR0Uy6bCaZH2rwgjT5uRgojpWmFibe2m-H53G_D-6z9MKfOsHMrX1BK1gP9K-H9iJCykBApJXNP5eF8Prt1yKYErcsC2OODrKr3uKA9RxYXh8FwJhDSmdjoyd7sPNRs-cIWI7Kz7Wv6VJ-YNlCDwyO9AScEuWALu7wOi2zC2bo97Tks0LOe1Wsvy4BnGMAGuokMKaSK0BSD6XystEouCCuxPdDW8XR0Nmx8dYn478Fn9Q5ajzuasco6WOeEwrbyGer_Nfir9QgiF64wsmf50qbvgYRMN-IAoblwWeH8LOfy86t0QUYYAdSF9eWcGWLVQ9vBmGBv2x9BGH5cW0RhQh7FnshoVezOkD_3AKuimIkAVd9O-zzG_8cKzb2-1JoflQUkVUxg_EXShW4ZWtd6Z5RxxFZakn1ugXPF6hotzFkQxi5SbvVqCNojpa-qfi91fajuaAvwwBvcdwZ2tt7ZwloGSMsUJJbVHddg_01FyB_EZ_Z_RsmD-4_0KgfmAjCy5Um9gsgfXvlHpWniHZizL3Ku6jnOulNU4xkt3Z92cSFX5uPQOGVszNCThFUg4smN3S63zULhUG2kmlq7jHgoqMy0]--></g></svg>