<?xml version="1.0" encoding="us-ascii" standalone="no"?><svg xmlns="http://www.w3.org/2000/svg" xmlns:xlink="http://www.w3.org/1999/xlink" contentStyleType="text/css" height="1409px" preserveAspectRatio="none" style="width:857px;height:1409px;background:#FFFFFF;" version="1.1" viewBox="0 0 857 1409" width="857px" zoomAndPan="magnify"><defs/><g><!--cluster User Aggregate--><g id="cluster_User Aggregate"><rect fill="none" height="331" rx="2.5" ry="2.5" style="stroke:#000000;stroke-width:1.5;" width="338.5" x="248.5" y="284"/><text fill="#000000" font-family="sans-serif" font-size="14" font-weight="bold" lengthAdjust="spacing" textLength="110" x="362.75" y="301.1074">User Aggregate</text></g><!--cluster Course Aggregate--><g id="cluster_Course Aggregate"><rect fill="none" height="487" rx="2.5" ry="2.5" style="stroke:#000000;stroke-width:1.5;" width="661" x="190" y="639"/><text fill="#000000" font-family="sans-serif" font-size="14" font-weight="bold" lengthAdjust="spacing" textLength="128" x="456.5" y="656.1074">Course Aggregate</text></g><!--cluster Teacher Aggregate--><g id="cluster_Teacher Aggregate"><rect fill="none" height="253" rx="2.5" ry="2.5" style="stroke:#000000;stroke-width:1.5;" width="355" x="25.5" y="7"/><text fill="#000000" font-family="sans-serif" font-size="14" font-weight="bold" lengthAdjust="spacing" textLength="134" x="136" y="24.1074">Teacher Aggregate</text></g><!--cluster Manager Aggregate--><g id="cluster_Manager Aggregate"><rect fill="none" height="123" rx="2.5" ry="2.5" style="stroke:#000000;stroke-width:1.5;" width="155" x="7" y="388"/><text fill="#000000" font-family="sans-serif" font-size="14" font-weight="bold" lengthAdjust="spacing" textLength="139" x="15" y="405.1074">Manager Aggregate</text></g><!--cluster Student Aggregate--><g id="cluster_Student Aggregate"><rect fill="none" height="253" rx="2.5" ry="2.5" style="stroke:#000000;stroke-width:1.5;" width="375.5" x="27.5" y="1150"/><text fill="#000000" font-family="sans-serif" font-size="14" font-weight="bold" lengthAdjust="spacing" textLength="132" x="149.25" y="1167.1074">Student Aggregate</text></g><!--class User--><g id="elem_User"><rect codeLine="26" fill="#D8F5FF" height="68.543" id="User" rx="2.5" ry="2.5" style="stroke:#1E90FF;stroke-width:0.5;" width="71" x="264.5" y="425.5"/><ellipse cx="279.5" cy="455.7715" fill="#ADD1B2" rx="11" ry="11" style="stroke:#181818;stroke-width:1.0;"/><path d="M278.3594,456.5684 L278.3594,459.0684 L282.6875,459.0684 L282.6875,458.1465 Q282.6875,457.5371 282.9219,457.2715 Q283.1719,457.0059 283.5469,457.0059 Q283.9219,457.0059 284.1563,457.2715 Q284.3906,457.5371 284.3906,458.1465 L284.3906,460.7715 L276.3906,460.7715 Q275.7656,460.7715 275.5,460.5371 Q275.25,460.3027 275.25,459.9121 Q275.25,459.5371 275.5156,459.3027 Q275.7813,459.0684 276.3906,459.0684 L276.6563,459.0684 L276.6563,452.4121 L276.3906,452.4121 Q275.7656,452.4121 275.5,452.1777 Q275.25,451.9434 275.25,451.5527 Q275.25,451.1777 275.5,450.9434 Q275.7656,450.709 276.3906,450.709 L284.0156,450.709 L284.0156,453.3027 Q284.0156,453.9121 283.7813,454.1777 Q283.5625,454.4277 283.1719,454.4277 Q282.7969,454.4277 282.5625,454.1777 Q282.3281,453.9121 282.3281,453.3027 L282.3281,452.4121 L278.3594,452.4121 L278.3594,454.8652 L279.8438,454.8652 Q279.8438,454.209 279.9688,454.0215 Q280.2344,453.6152 280.7031,453.6152 Q281.0781,453.6152 281.3125,453.8809 Q281.5469,454.1309 281.5469,454.7402 L281.5469,456.709 Q281.5469,457.2559 281.4219,457.4434 Q281.1563,457.834 280.7031,457.834 Q280.2344,457.834 279.9688,457.4277 Q279.8438,457.2402 279.8438,456.5684 L278.3594,456.5684 Z " fill="#000000"/><text fill="#000000" font-family="sans-serif" font-size="12" font-style="italic" lengthAdjust="spacing" textLength="43" x="291.5" y="443.4492">&#171;entity&#187;</text><text fill="#000000" font-family="sans-serif" font-size="12" font-style="italic" lengthAdjust="spacing" textLength="35" x="295.5" y="459.4102">&#171;root&#187;</text><text fill="#000000" font-family="sans-serif" font-size="14" lengthAdjust="spacing" textLength="29" x="298.5" y="477.5293">User</text><line style="stroke:#1E90FF;stroke-width:0.5;" x1="265.5" x2="334.5" y1="486.043" y2="486.043"/></g><!--entity Email--><g id="elem_Email"><rect fill="#D8F5FF" height="43.2422" rx="2.5" ry="2.5" style="stroke:#1E90FF;stroke-width:0.5;" width="117" x="454" y="555.5"/><text fill="#000000" font-family="sans-serif" font-size="14" font-style="italic" lengthAdjust="spacing" textLength="97" x="464" y="573.6074">&#171;Value Object&#187;</text><text fill="#000000" font-family="sans-serif" font-size="14" lengthAdjust="spacing" textLength="34" x="495.5" y="592.2285">Email</text></g><!--entity Password--><g id="elem_Password"><rect fill="#D8F5FF" height="43.2422" rx="2.5" ry="2.5" style="stroke:#1E90FF;stroke-width:0.5;" width="117" x="454" y="477.5"/><text fill="#000000" font-family="sans-serif" font-size="14" font-style="italic" lengthAdjust="spacing" textLength="97" x="464" y="495.6074">&#171;Value Object&#187;</text><text fill="#000000" font-family="sans-serif" font-size="14" lengthAdjust="spacing" textLength="61" x="482" y="514.2285">Password</text></g><!--entity FullName--><g id="elem_FullName"><rect fill="#D8F5FF" height="43.2422" rx="2.5" ry="2.5" style="stroke:#1E90FF;stroke-width:0.5;" width="117" x="454" y="399.5"/><text fill="#000000" font-family="sans-serif" font-size="14" font-style="italic" lengthAdjust="spacing" textLength="97" x="464" y="417.6074">&#171;Value Object&#187;</text><text fill="#000000" font-family="sans-serif" font-size="14" lengthAdjust="spacing" textLength="59" x="483" y="436.2285">FullName</text></g><!--entity ShortName--><g id="elem_ShortName"><rect fill="#D8F5FF" height="43.2422" rx="2.5" ry="2.5" style="stroke:#1E90FF;stroke-width:0.5;" width="117" x="454" y="321.5"/><text fill="#000000" font-family="sans-serif" font-size="14" font-style="italic" lengthAdjust="spacing" textLength="97" x="464" y="339.6074">&#171;Value Object&#187;</text><text fill="#000000" font-family="sans-serif" font-size="14" lengthAdjust="spacing" textLength="70" x="477.5" y="358.2285">ShortName</text></g><!--class Course--><g id="elem_Course"><rect codeLine="46" fill="#D8F5FF" height="68.543" id="Course" rx="2.5" ry="2.5" style="stroke:#1E90FF;stroke-width:0.5;" width="78" x="261" y="833.5"/><ellipse cx="276" cy="863.7715" fill="#ADD1B2" rx="11" ry="11" style="stroke:#181818;stroke-width:1.0;"/><path d="M274.8594,864.5684 L274.8594,867.0684 L279.1875,867.0684 L279.1875,866.1465 Q279.1875,865.5371 279.4219,865.2715 Q279.6719,865.0059 280.0469,865.0059 Q280.4219,865.0059 280.6563,865.2715 Q280.8906,865.5371 280.8906,866.1465 L280.8906,868.7715 L272.8906,868.7715 Q272.2656,868.7715 272,868.5371 Q271.75,868.3027 271.75,867.9121 Q271.75,867.5371 272.0156,867.3027 Q272.2813,867.0684 272.8906,867.0684 L273.1563,867.0684 L273.1563,860.4121 L272.8906,860.4121 Q272.2656,860.4121 272,860.1777 Q271.75,859.9434 271.75,859.5527 Q271.75,859.1777 272,858.9434 Q272.2656,858.709 272.8906,858.709 L280.5156,858.709 L280.5156,861.3027 Q280.5156,861.9121 280.2813,862.1777 Q280.0625,862.4277 279.6719,862.4277 Q279.2969,862.4277 279.0625,862.1777 Q278.8281,861.9121 278.8281,861.3027 L278.8281,860.4121 L274.8594,860.4121 L274.8594,862.8652 L276.3438,862.8652 Q276.3438,862.209 276.4688,862.0215 Q276.7344,861.6152 277.2031,861.6152 Q277.5781,861.6152 277.8125,861.8809 Q278.0469,862.1309 278.0469,862.7402 L278.0469,864.709 Q278.0469,865.2559 277.9219,865.4434 Q277.6563,865.834 277.2031,865.834 Q276.7344,865.834 276.4688,865.4277 Q276.3438,865.2402 276.3438,864.5684 L274.8594,864.5684 Z " fill="#000000"/><text fill="#000000" font-family="sans-serif" font-size="12" font-style="italic" lengthAdjust="spacing" textLength="43" x="291.5" y="851.4492">&#171;entity&#187;</text><text fill="#000000" font-family="sans-serif" font-size="12" font-style="italic" lengthAdjust="spacing" textLength="35" x="295.5" y="867.4102">&#171;root&#187;</text><text fill="#000000" font-family="sans-serif" font-size="14" lengthAdjust="spacing" textLength="46" x="290" y="885.5293">Course</text><line style="stroke:#1E90FF;stroke-width:0.5;" x1="262" x2="338" y1="894.043" y2="894.043"/></g><g id="elem_GMN26"><path d="M643,728 L643,772 L571.19,776 L643,780 L643,824.4551 A0,0 0 0 0 643,824.4551 L823,824.4551 A0,0 0 0 0 823,824.4551 L823,738 L813,728 L643,728 A0,0 0 0 0 643,728 " fill="#FEFFDD" style="stroke:#181818;stroke-width:0.5;"/><path d="M813,728 L813,738 L823,738 L813,728 " fill="#FEFFDD" style="stroke:#181818;stroke-width:0.5;"/><text fill="#000000" font-family="sans-serif" font-size="13" lengthAdjust="spacing" textLength="159" x="649" y="747.0283">Can be one of the following:</text><text fill="#000000" font-family="sans-serif" font-size="13" lengthAdjust="spacing" textLength="39" x="665" y="764.3193">- Open</text><text fill="#000000" font-family="sans-serif" font-size="13" lengthAdjust="spacing" textLength="48" x="665" y="781.6104">- Closed</text><text fill="#000000" font-family="sans-serif" font-size="13" lengthAdjust="spacing" textLength="41" x="665" y="798.9014">- Enroll</text><text fill="#000000" font-family="sans-serif" font-size="13" lengthAdjust="spacing" textLength="70" x="665" y="816.1924">- InProgress</text></g><g id="elem_GMN29"><path d="M221.5,951 L221.5,1012.873 A0,0 0 0 0 221.5,1012.873 L378.5,1012.873 A0,0 0 0 0 378.5,1012.873 L378.5,996.35 L453.78,1002.32 L378.5,988.35 L378.5,961 L368.5,951 L221.5,951 A0,0 0 0 0 221.5,951 " fill="#FEFFDD" style="stroke:#181818;stroke-width:0.5;"/><path d="M368.5,951 L368.5,961 L378.5,961 L368.5,951 " fill="#FEFFDD" style="stroke:#181818;stroke-width:0.5;"/><text fill="#000000" font-family="sans-serif" font-size="13" lengthAdjust="spacing" textLength="136" x="227.5" y="970.0283">Each course as a lower</text><text fill="#000000" font-family="sans-serif" font-size="13" lengthAdjust="spacing" textLength="88" x="227.5" y="987.3193">and higher limit</text><text fill="#000000" font-family="sans-serif" font-size="13" lengthAdjust="spacing" textLength="111" x="227.5" y="1004.6104">number of students</text></g><g id="elem_GMN32"><path d="M631,909.5 L631,928 L571.19,932 L631,936 L631,954.082 A0,0 0 0 0 631,954.082 L835,954.082 A0,0 0 0 0 835,954.082 L835,919.5 L825,909.5 L631,909.5 A0,0 0 0 0 631,909.5 " fill="#FEFFDD" style="stroke:#181818;stroke-width:0.5;"/><path d="M825,909.5 L825,919.5 L835,919.5 L825,909.5 " fill="#FEFFDD" style="stroke:#181818;stroke-width:0.5;"/><text fill="#000000" font-family="sans-serif" font-size="13" lengthAdjust="spacing" textLength="183" x="637" y="928.5283">Each course has a unique code</text><text fill="#000000" font-family="sans-serif" font-size="13" lengthAdjust="spacing" textLength="113" x="637" y="945.8193">Example: "JAVA-1"</text></g><g id="elem_GMN35"><path d="M206,1048 L206,1109.873 A0,0 0 0 0 206,1109.873 L394,1109.873 A0,0 0 0 0 394,1109.873 L394,1086.99 L453.71,1085.53 L394,1078.99 L394,1058 L384,1048 L206,1048 A0,0 0 0 0 206,1048 " fill="#FEFFDD" style="stroke:#181818;stroke-width:0.5;"/><path d="M384,1048 L384,1058 L394,1058 L384,1048 " fill="#FEFFDD" style="stroke:#181818;stroke-width:0.5;"/><text fill="#000000" font-family="sans-serif" font-size="13" lengthAdjust="spacing" textLength="164" x="212" y="1067.0283">Different editions of a course</text><text fill="#000000" font-family="sans-serif" font-size="13" lengthAdjust="spacing" textLength="167" x="212" y="1084.3193">are to be considered different</text><text fill="#000000" font-family="sans-serif" font-size="13" lengthAdjust="spacing" textLength="46" x="212" y="1101.6104">courses</text></g><!--entity Code--><g id="elem_Code"><rect fill="#D8F5FF" height="43.2422" rx="2.5" ry="2.5" style="stroke:#1E90FF;stroke-width:0.5;" width="117" x="454" y="910.5"/><text fill="#000000" font-family="sans-serif" font-size="14" font-style="italic" lengthAdjust="spacing" textLength="97" x="464" y="928.6074">&#171;Value Object&#187;</text><text fill="#000000" font-family="sans-serif" font-size="14" lengthAdjust="spacing" textLength="34" x="495.5" y="947.2285">Code</text></g><!--entity Name--><g id="elem_Name"><rect fill="#D8F5FF" height="43.2422" rx="2.5" ry="2.5" style="stroke:#1E90FF;stroke-width:0.5;" width="117" x="454" y="832.5"/><text fill="#000000" font-family="sans-serif" font-size="14" font-style="italic" lengthAdjust="spacing" textLength="97" x="464" y="850.6074">&#171;Value Object&#187;</text><text fill="#000000" font-family="sans-serif" font-size="14" lengthAdjust="spacing" textLength="36" x="494.5" y="869.2285">Name</text></g><!--entity State--><g id="elem_State"><rect fill="#D8F5FF" height="43.2422" rx="2.5" ry="2.5" style="stroke:#1E90FF;stroke-width:0.5;" width="117" x="454" y="754.5"/><text fill="#000000" font-family="sans-serif" font-size="14" font-style="italic" lengthAdjust="spacing" textLength="97" x="464" y="772.6074">&#171;Value Object&#187;</text><text fill="#000000" font-family="sans-serif" font-size="14" lengthAdjust="spacing" textLength="33" x="496" y="791.2285">State</text></g><!--entity Description--><g id="elem_Description"><rect fill="#D8F5FF" height="43.2422" rx="2.5" ry="2.5" style="stroke:#1E90FF;stroke-width:0.5;" width="117" x="454" y="676.5"/><text fill="#000000" font-family="sans-serif" font-size="14" font-style="italic" lengthAdjust="spacing" textLength="97" x="464" y="694.6074">&#171;Value Object&#187;</text><text fill="#000000" font-family="sans-serif" font-size="14" lengthAdjust="spacing" textLength="71" x="477" y="713.2285">Description</text></g><!--entity Limit--><g id="elem_Limit"><rect fill="#D8F5FF" height="43.2422" rx="2.5" ry="2.5" style="stroke:#1E90FF;stroke-width:0.5;" width="117" x="454" y="988.5"/><text fill="#000000" font-family="sans-serif" font-size="14" font-style="italic" lengthAdjust="spacing" textLength="97" x="464" y="1006.6074">&#171;Value Object&#187;</text><text fill="#000000" font-family="sans-serif" font-size="14" lengthAdjust="spacing" textLength="29" x="498" y="1025.2285">Limit</text></g><!--entity Edition--><g id="elem_Edition"><rect fill="#D8F5FF" height="43.2422" rx="2.5" ry="2.5" style="stroke:#1E90FF;stroke-width:0.5;" width="117" x="454" y="1066.5"/><text fill="#000000" font-family="sans-serif" font-size="14" font-style="italic" lengthAdjust="spacing" textLength="97" x="464" y="1084.6074">&#171;Value Object&#187;</text><text fill="#000000" font-family="sans-serif" font-size="14" lengthAdjust="spacing" textLength="43" x="491" y="1103.2285">Edition</text></g><!--class Teacher--><g id="elem_Teacher"><rect codeLine="100" fill="#D8F5FF" height="68.543" id="Teacher" rx="2.5" ry="2.5" style="stroke:#1E90FF;stroke-width:0.5;" width="85" x="41.5" y="174.5"/><ellipse cx="56.5" cy="204.7715" fill="#ADD1B2" rx="11" ry="11" style="stroke:#181818;stroke-width:1.0;"/><path d="M55.3594,205.5684 L55.3594,208.0684 L59.6875,208.0684 L59.6875,207.1465 Q59.6875,206.5371 59.9219,206.2715 Q60.1719,206.0059 60.5469,206.0059 Q60.9219,206.0059 61.1563,206.2715 Q61.3906,206.5371 61.3906,207.1465 L61.3906,209.7715 L53.3906,209.7715 Q52.7656,209.7715 52.5,209.5371 Q52.25,209.3027 52.25,208.9121 Q52.25,208.5371 52.5156,208.3027 Q52.7813,208.0684 53.3906,208.0684 L53.6563,208.0684 L53.6563,201.4121 L53.3906,201.4121 Q52.7656,201.4121 52.5,201.1777 Q52.25,200.9434 52.25,200.5527 Q52.25,200.1777 52.5,199.9434 Q52.7656,199.709 53.3906,199.709 L61.0156,199.709 L61.0156,202.3027 Q61.0156,202.9121 60.7813,203.1777 Q60.5625,203.4277 60.1719,203.4277 Q59.7969,203.4277 59.5625,203.1777 Q59.3281,202.9121 59.3281,202.3027 L59.3281,201.4121 L55.3594,201.4121 L55.3594,203.8652 L56.8438,203.8652 Q56.8438,203.209 56.9688,203.0215 Q57.2344,202.6152 57.7031,202.6152 Q58.0781,202.6152 58.3125,202.8809 Q58.5469,203.1309 58.5469,203.7402 L58.5469,205.709 Q58.5469,206.2559 58.4219,206.4434 Q58.1563,206.834 57.7031,206.834 Q57.2344,206.834 56.9688,206.4277 Q56.8438,206.2402 56.8438,205.5684 L55.3594,205.5684 Z " fill="#000000"/><text fill="#000000" font-family="sans-serif" font-size="12" font-style="italic" lengthAdjust="spacing" textLength="43" x="75.5" y="192.4492">&#171;entity&#187;</text><text fill="#000000" font-family="sans-serif" font-size="12" font-style="italic" lengthAdjust="spacing" textLength="35" x="79.5" y="208.4102">&#171;root&#187;</text><text fill="#000000" font-family="sans-serif" font-size="14" lengthAdjust="spacing" textLength="53" x="70.5" y="226.5293">Teacher</text><line style="stroke:#1E90FF;stroke-width:0.5;" x1="42.5" x2="125.5" y1="235.043" y2="235.043"/></g><!--entity Acronym--><g id="elem_Acronym"><rect fill="#D8F5FF" height="43.2422" rx="2.5" ry="2.5" style="stroke:#1E90FF;stroke-width:0.5;" width="117" x="241.5" y="122.5"/><text fill="#000000" font-family="sans-serif" font-size="14" font-style="italic" lengthAdjust="spacing" textLength="97" x="251.5" y="140.6074">&#171;Value Object&#187;</text><text fill="#000000" font-family="sans-serif" font-size="14" lengthAdjust="spacing" textLength="55" x="272.5" y="159.2285">Acronym</text></g><!--entity BirthDate--><g id="elem_BirthDate"><rect fill="#D8F5FF" height="43.2422" rx="2.5" ry="2.5" style="stroke:#1E90FF;stroke-width:0.5;" width="117" x="241.5" y="44.5"/><text fill="#000000" font-family="sans-serif" font-size="14" font-style="italic" lengthAdjust="spacing" textLength="97" x="251.5" y="62.6074">&#171;Value Object&#187;</text><text fill="#000000" font-family="sans-serif" font-size="14" lengthAdjust="spacing" textLength="59" x="270.5" y="81.2285">BirthDate</text></g><!--entity TaxPayerNumber--><g id="elem_TaxPayerNumber"><rect fill="#D8F5FF" height="43.2422" rx="2.5" ry="2.5" style="stroke:#1E90FF;stroke-width:0.5;" width="129" x="235.5" y="200.5"/><text fill="#000000" font-family="sans-serif" font-size="14" font-style="italic" lengthAdjust="spacing" textLength="97" x="251.5" y="218.6074">&#171;Value Object&#187;</text><text fill="#000000" font-family="sans-serif" font-size="14" lengthAdjust="spacing" textLength="109" x="245.5" y="237.2285">TaxPayerNumber</text></g><!--class Manager--><g id="elem_Manager"><rect codeLine="117" fill="#D8F5FF" height="68.543" id="Manager" rx="2.5" ry="2.5" style="stroke:#1E90FF;stroke-width:0.5;" width="88" x="40" y="425.5"/><ellipse cx="55" cy="455.7715" fill="#ADD1B2" rx="11" ry="11" style="stroke:#181818;stroke-width:1.0;"/><path d="M53.8594,456.5684 L53.8594,459.0684 L58.1875,459.0684 L58.1875,458.1465 Q58.1875,457.5371 58.4219,457.2715 Q58.6719,457.0059 59.0469,457.0059 Q59.4219,457.0059 59.6563,457.2715 Q59.8906,457.5371 59.8906,458.1465 L59.8906,460.7715 L51.8906,460.7715 Q51.2656,460.7715 51,460.5371 Q50.75,460.3027 50.75,459.9121 Q50.75,459.5371 51.0156,459.3027 Q51.2813,459.0684 51.8906,459.0684 L52.1563,459.0684 L52.1563,452.4121 L51.8906,452.4121 Q51.2656,452.4121 51,452.1777 Q50.75,451.9434 50.75,451.5527 Q50.75,451.1777 51,450.9434 Q51.2656,450.709 51.8906,450.709 L59.5156,450.709 L59.5156,453.3027 Q59.5156,453.9121 59.2813,454.1777 Q59.0625,454.4277 58.6719,454.4277 Q58.2969,454.4277 58.0625,454.1777 Q57.8281,453.9121 57.8281,453.3027 L57.8281,452.4121 L53.8594,452.4121 L53.8594,454.8652 L55.3438,454.8652 Q55.3438,454.209 55.4688,454.0215 Q55.7344,453.6152 56.2031,453.6152 Q56.5781,453.6152 56.8125,453.8809 Q57.0469,454.1309 57.0469,454.7402 L57.0469,456.709 Q57.0469,457.2559 56.9219,457.4434 Q56.6563,457.834 56.2031,457.834 Q55.7344,457.834 55.4688,457.4277 Q55.3438,457.2402 55.3438,456.5684 L53.8594,456.5684 Z " fill="#000000"/><text fill="#000000" font-family="sans-serif" font-size="12" font-style="italic" lengthAdjust="spacing" textLength="43" x="75.5" y="443.4492">&#171;entity&#187;</text><text fill="#000000" font-family="sans-serif" font-size="12" font-style="italic" lengthAdjust="spacing" textLength="35" x="79.5" y="459.4102">&#171;root&#187;</text><text fill="#000000" font-family="sans-serif" font-size="14" lengthAdjust="spacing" textLength="56" x="69" y="477.5293">Manager</text><line style="stroke:#1E90FF;stroke-width:0.5;" x1="41" x2="127" y1="486.043" y2="486.043"/></g><!--class Student--><g id="elem_Student"><rect codeLine="123" fill="#D8F5FF" height="68.543" id="Student" rx="2.5" ry="2.5" style="stroke:#1E90FF;stroke-width:0.5;" width="81" x="43.5" y="1187.5"/><ellipse cx="58.5" cy="1217.7715" fill="#ADD1B2" rx="11" ry="11" style="stroke:#181818;stroke-width:1.0;"/><path d="M57.3594,1218.5684 L57.3594,1221.0684 L61.6875,1221.0684 L61.6875,1220.1465 Q61.6875,1219.5371 61.9219,1219.2715 Q62.1719,1219.0059 62.5469,1219.0059 Q62.9219,1219.0059 63.1563,1219.2715 Q63.3906,1219.5371 63.3906,1220.1465 L63.3906,1222.7715 L55.3906,1222.7715 Q54.7656,1222.7715 54.5,1222.5371 Q54.25,1222.3027 54.25,1221.9121 Q54.25,1221.5371 54.5156,1221.3027 Q54.7813,1221.0684 55.3906,1221.0684 L55.6563,1221.0684 L55.6563,1214.4121 L55.3906,1214.4121 Q54.7656,1214.4121 54.5,1214.1777 Q54.25,1213.9434 54.25,1213.5527 Q54.25,1213.1777 54.5,1212.9434 Q54.7656,1212.709 55.3906,1212.709 L63.0156,1212.709 L63.0156,1215.3027 Q63.0156,1215.9121 62.7813,1216.1777 Q62.5625,1216.4277 62.1719,1216.4277 Q61.7969,1216.4277 61.5625,1216.1777 Q61.3281,1215.9121 61.3281,1215.3027 L61.3281,1214.4121 L57.3594,1214.4121 L57.3594,1216.8652 L58.8438,1216.8652 Q58.8438,1216.209 58.9688,1216.0215 Q59.2344,1215.6152 59.7031,1215.6152 Q60.0781,1215.6152 60.3125,1215.8809 Q60.5469,1216.1309 60.5469,1216.7402 L60.5469,1218.709 Q60.5469,1219.2559 60.4219,1219.4434 Q60.1563,1219.834 59.7031,1219.834 Q59.2344,1219.834 58.9688,1219.4277 Q58.8438,1219.2402 58.8438,1218.5684 L57.3594,1218.5684 Z " fill="#000000"/><text fill="#000000" font-family="sans-serif" font-size="12" font-style="italic" lengthAdjust="spacing" textLength="43" x="75.5" y="1205.4492">&#171;entity&#187;</text><text fill="#000000" font-family="sans-serif" font-size="12" font-style="italic" lengthAdjust="spacing" textLength="35" x="79.5" y="1221.4102">&#171;root&#187;</text><text fill="#000000" font-family="sans-serif" font-size="14" lengthAdjust="spacing" textLength="49" x="72.5" y="1239.5293">Student</text><line style="stroke:#1E90FF;stroke-width:0.5;" x1="44.5" x2="123.5" y1="1248.043" y2="1248.043"/></g><!--entity BirthDate--><g id="elem_BirthDate"><rect fill="#D8F5FF" height="43.2422" rx="2.5" ry="2.5" style="stroke:#1E90FF;stroke-width:0.5;" width="117" x="241.5" y="1265.5"/><text fill="#000000" font-family="sans-serif" font-size="14" font-style="italic" lengthAdjust="spacing" textLength="97" x="251.5" y="1283.6074">&#171;Value Object&#187;</text><text fill="#000000" font-family="sans-serif" font-size="14" lengthAdjust="spacing" textLength="59" x="270.5" y="1302.2285">BirthDate</text></g><!--entity TaxPayerNumber--><g id="elem_TaxPayerNumber"><rect fill="#D8F5FF" height="43.2422" rx="2.5" ry="2.5" style="stroke:#1E90FF;stroke-width:0.5;" width="129" x="235.5" y="1187.5"/><text fill="#000000" font-family="sans-serif" font-size="14" font-style="italic" lengthAdjust="spacing" textLength="97" x="251.5" y="1205.6074">&#171;Value Object&#187;</text><text fill="#000000" font-family="sans-serif" font-size="14" lengthAdjust="spacing" textLength="109" x="245.5" y="1224.2285">TaxPayerNumber</text></g><!--entity MechanographicNumber--><g id="elem_MechanographicNumber"><rect fill="#D8F5FF" height="43.2422" rx="2.5" ry="2.5" style="stroke:#1E90FF;stroke-width:0.5;" width="174" x="213" y="1343.5"/><text fill="#000000" font-family="sans-serif" font-size="14" font-style="italic" lengthAdjust="spacing" textLength="97" x="251.5" y="1361.6074">&#171;Value Object&#187;</text><text fill="#000000" font-family="sans-serif" font-size="14" lengthAdjust="spacing" textLength="154" x="223" y="1380.2285">MechanographicNumber</text></g><!--link User to Email--><g id="link_User_Email"><path codeLine="38" d="M335.76,479.32 C372,499.47 428.89,531.08 468.07,552.86 " fill="none" id="User-to-Email" style="stroke:#1E90FF;stroke-width:1.0;"/><polygon fill="#1E90FF" points="472.76,555.47,466.8352,547.6026,468.3892,553.0418,462.95,554.5958,472.76,555.47" style="stroke:#1E90FF;stroke-width:1.0;"/></g><!--link User to Password--><g id="link_User_Password"><path codeLine="39" d="M335.76,466.44 C366.38,472.11 411.73,480.52 448.7,487.36 " fill="none" id="User-to-Password" style="stroke:#1E90FF;stroke-width:1.0;"/><polygon fill="#1E90FF" points="453.62,488.28,445.5035,482.7013,448.7043,487.3655,444.0402,490.5663,453.62,488.28" style="stroke:#1E90FF;stroke-width:1.0;"/></g><!--link User to FullName--><g id="link_User_FullName"><path codeLine="40" d="M335.76,453.56 C366.38,447.89 411.73,439.48 448.7,432.64 " fill="none" id="User-to-FullName" style="stroke:#1E90FF;stroke-width:1.0;"/><polygon fill="#1E90FF" points="453.62,431.72,444.0402,429.4337,448.7043,432.6345,445.5035,437.2987,453.62,431.72" style="stroke:#1E90FF;stroke-width:1.0;"/></g><!--link User to ShortName--><g id="link_User_ShortName"><path codeLine="41" d="M335.76,440.68 C372,420.53 428.89,388.92 468.07,367.14 " fill="none" id="User-to-ShortName" style="stroke:#1E90FF;stroke-width:1.0;"/><polygon fill="#1E90FF" points="472.76,364.53,462.95,365.4042,468.3892,366.9582,466.8352,372.3974,472.76,364.53" style="stroke:#1E90FF;stroke-width:1.0;"/></g><!--link Course to Name--><g id="link_Course_Name"><path codeLine="63" d="M339.12,865.46 C369.61,863.44 413,860.55 448.62,858.18 " fill="none" id="Course-to-Name" style="stroke:#1E90FF;stroke-width:1.0;"/><polygon fill="#1E90FF" points="453.81,857.84,444.5664,854.4405,448.8208,858.1688,445.0925,862.4232,453.81,857.84" style="stroke:#1E90FF;stroke-width:1.0;"/></g><!--link Course to State--><g id="link_Course_State"><path codeLine="64" d="M339.12,851.34 C372.12,836.92 420.22,815.9 457.23,799.72 " fill="none" id="Course-to-State" style="stroke:#1E90FF;stroke-width:1.0;"/><polygon fill="#1E90FF" points="462.15,797.57,452.3012,797.5272,457.5722,799.5808,455.5186,804.8518,462.15,797.57" style="stroke:#1E90FF;stroke-width:1.0;"/></g><!--link Course to Description--><g id="link_Course_Description"><path codeLine="65" d="M338.99,833.39 C369.36,806.23 413.42,767.98 454,737 C460.35,732.15 467.27,727.2 474.03,722.52 " fill="none" id="Course-to-Description" style="stroke:#1E90FF;stroke-width:1.0;"/><polygon fill="#1E90FF" points="478.21,719.65,468.5275,721.4526,474.0898,722.4826,473.0597,728.0449,478.21,719.65" style="stroke:#1E90FF;stroke-width:1.0;"/></g><!--link Course to Limit--><g id="link_Course_Limit"><path codeLine="66" d="M339.18,888.77 C360.82,901.07 388.07,917.44 411,934 C431.44,948.76 433.98,955.68 454,971 C460.35,975.86 467.26,980.81 474.02,985.49 " fill="none" id="Course-to-Limit" style="stroke:#1E90FF;stroke-width:1.0;"/><polygon fill="#1E90FF" points="478.2,988.36,473.0497,979.9651,474.0798,985.5274,468.5175,986.5574,478.2,988.36" style="stroke:#1E90FF;stroke-width:1.0;"/></g><!--link Course to Code--><g id="link_Course_Code"><path codeLine="67" d="M339.12,879.59 C369.61,888.86 413,902.05 448.62,912.88 " fill="none" id="Course-to-Code" style="stroke:#1E90FF;stroke-width:1.0;"/><polygon fill="#1E90FF" points="453.81,914.46,446.3653,908.012,449.0268,913.0036,444.0351,915.6651,453.81,914.46" style="stroke:#1E90FF;stroke-width:1.0;"/></g><!--link Course to Edition--><g id="link_Course_Edition"><path codeLine="68" d="M339.13,883.05 C362.67,894.05 391.91,911.06 411,934 C445.91,975.94 420.27,1006.1 454,1049 C458.1,1054.21 463.09,1058.99 468.4,1063.27 " fill="none" id="Course-to-Edition" style="stroke:#1E90FF;stroke-width:1.0;"/><polygon fill="#1E90FF" points="472.51,1066.45,467.8333,1057.7823,468.5533,1063.3932,462.9424,1064.1131,472.51,1066.45" style="stroke:#1E90FF;stroke-width:1.0;"/></g><!--link Teacher to BirthDate--><g id="link_Teacher_BirthDate"><path codeLine="109" d="M109.94,174.33 C127.76,151.78 153.54,123.28 182,105 C198.38,94.48 217.89,86.51 236.24,80.61 " fill="none" id="Teacher-to-BirthDate" style="stroke:#1E90FF;stroke-width:1.0;"/><polygon fill="#1E90FF" points="241.38,79,231.5977,77.8565,236.6061,80.4865,233.9761,85.4948,241.38,79" style="stroke:#1E90FF;stroke-width:1.0;"/></g><!--link Teacher to TaxPayerNumber--><g id="link_Teacher_TaxPayerNumber"><path codeLine="110" d="M126.52,211.52 C155.94,213.31 196.1,215.75 230.27,217.82 " fill="none" id="Teacher-to-TaxPayerNumber" style="stroke:#1E90FF;stroke-width:1.0;"/><polygon fill="#1E90FF" points="235.26,218.13,226.5165,213.5967,230.269,217.8297,226.036,221.5822,235.26,218.13" style="stroke:#1E90FF;stroke-width:1.0;"/></g><!--link Teacher to Acronym--><g id="link_Teacher_Acronym"><path codeLine="111" d="M126.52,196.39 C157.68,186.92 200.88,173.8 236.26,163.06 " fill="none" id="Teacher-to-Acronym" style="stroke:#1E90FF;stroke-width:1.0;"/><polygon fill="#1E90FF" points="241.42,161.49,231.6451,160.2849,236.6368,162.9464,233.9753,167.938,241.42,161.49" style="stroke:#1E90FF;stroke-width:1.0;"/></g><!--link Student to BirthDate--><g id="link_Student_BirthDate"><path codeLine="131" d="M124.5,1234 C155.82,1243.51 200.19,1256.99 236.35,1267.97 " fill="none" id="Student-to-BirthDate" style="stroke:#1E90FF;stroke-width:1.0;"/><polygon fill="#1E90FF" points="241.16,1269.43,233.7207,1262.9758,236.378,1267.9696,231.3841,1270.6269,241.16,1269.43" style="stroke:#1E90FF;stroke-width:1.0;"/></g><!--link Student to TaxPayerNumber--><g id="link_Student_TaxPayerNumber"><path codeLine="132" d="M124.5,1219.6 C154.08,1217.8 195.3,1215.3 230.25,1213.18 " fill="none" id="Student-to-TaxPayerNumber" style="stroke:#1E90FF;stroke-width:1.0;"/><polygon fill="#1E90FF" points="235.36,1212.87,226.1366,1209.4162,230.369,1213.1695,226.6157,1217.4018,235.36,1212.87" style="stroke:#1E90FF;stroke-width:1.0;"/></g><!--link Student to MechanographicNumber--><g id="link_Student_MechanographicNumber"><path codeLine="133" d="M109.94,1256.67 C127.76,1279.22 153.54,1307.72 182,1326 C191.22,1331.92 201.42,1337.03 211.86,1341.42 " fill="none" id="Student-to-MechanographicNumber" style="stroke:#1E90FF;stroke-width:1.0;"/><polygon fill="#1E90FF" points="216.66,1343.39,209.8532,1336.2719,212.0345,1341.4913,206.8152,1343.6727,216.66,1343.39" style="stroke:#1E90FF;stroke-width:1.0;"/></g><!--link Teacher to User--><g id="link_Teacher_User"><path codeLine="138" d="M114.53,243.64 C154.23,290.2 224.61,372.75 266.01,421.3 " fill="none" id="Teacher-to-User" style="stroke:#1E90FF;stroke-width:1.0;"/><polygon fill="#1E90FF" points="269.43,425.32,266.6479,415.8723,266.1913,421.5107,260.5529,421.0541,269.43,425.32" style="stroke:#1E90FF;stroke-width:1.0;"/><text fill="#000000" font-family="sans-serif" font-size="13" lengthAdjust="spacing" textLength="7" x="255.9354" y="414.1884">1</text></g><!--link Manager to User--><g id="link_Manager_User"><path codeLine="139" d="M128.05,460 C166.32,460 221.84,460 259.12,460 " fill="none" id="Manager-to-User" style="stroke:#1E90FF;stroke-width:1.0;"/><polygon fill="#1E90FF" points="264.48,460,255.48,456,259.48,460,255.48,464,264.48,460" style="stroke:#1E90FF;stroke-width:1.0;"/><text fill="#000000" font-family="sans-serif" font-size="13" lengthAdjust="spacing" textLength="7" x="249.4321" y="475.8586">1</text></g><!--link Student to User--><g id="link_Student_User"><path codeLine="140" d="M86.69,1187.33 C91.96,1097.55 112.21,851.13 182,660 C203.9,600.03 243.62,537.54 270.64,498.71 " fill="none" id="Student-to-User" style="stroke:#1E90FF;stroke-width:1.0;"/><polygon fill="#1E90FF" points="273.54,494.56,265.1126,499.657,270.6813,498.6622,271.6761,504.2309,273.54,494.56" style="stroke:#1E90FF;stroke-width:1.0;"/><text fill="#000000" font-family="sans-serif" font-size="13" lengthAdjust="spacing" textLength="7" x="261.3906" y="516.0535">1</text></g><!--link Teacher to Course--><g id="link_Teacher_Course"><path codeLine="142" d="M104.02,243.52 C124.41,282.43 155.76,348.2 170,409 C190.91,498.3 159.7,526.04 182,615 C202.01,694.81 247.05,780.2 275.04,828.56 " fill="none" id="Teacher-to-Course" style="stroke:#1E90FF;stroke-width:1.0;"/><polygon fill="#1E90FF" points="277.7,833.12,276.6243,823.3301,275.1824,828.8001,269.7124,827.3582,277.7,833.12" style="stroke:#1E90FF;stroke-width:1.0;"/><text fill="#000000" font-family="sans-serif" font-size="13" lengthAdjust="spacing" textLength="9" x="263.7587" y="822.2191">N</text></g><!--link Student to Course--><g id="link_Student_Course"><path codeLine="143" d="M88.64,1187.08 C96.35,1128.66 119.12,1010.03 182,934 C201.37,910.58 231.34,893.9 256.09,883.17 " fill="none" id="Student-to-Course" style="stroke:#1E90FF;stroke-width:1.0;"/><polygon fill="#1E90FF" points="260.97,881.1,251.1226,880.9318,256.3669,883.0524,254.2464,888.2967,260.97,881.1" style="stroke:#1E90FF;stroke-width:1.0;"/><text fill="#000000" font-family="sans-serif" font-size="13" lengthAdjust="spacing" textLength="9" x="243.9442" y="899.1798">N</text></g><!--SRC=[pLRBRjim4BphAmZraFPWe3aKA0B3WE87uC9n33ZDdHRN4XkAL4agYLlqtxkY7jR3Yd8fK5sCx0ntPuTSCZ5dG1AmiMB64t2qn2gYUHHRmhY6q78bFSyySPbIJHCI2cfCOAtcXyp2EbHopty1-TpZaDyUmM_3Zx3X4cwLPg3dIYXD5ef5e6z51cqA3PyYhJB92bgmsstMy-1XVRzrl2x-OV5rzMMrSbYWjNgvc7sWy9-cu1GpqmZszYI0v4rJ6GbeTaGr-_yRyie-YF_T09QB8WqHjU0Noa5QRa_4OTDfyTTiDfrgfUnivdbN3dccc8semm-qmRXrhlbbGhd0POyEldVmR5Oa_dEcxN3dNr3WE7EL2R6b2Ompzx7Izasg-t7g9vDP8RKTgcIrevM4ThGkv-MUrfRELQOD39bQefTipLbN9JvWxbonVdEaPyGxxRAeRfos01DgdkRpFKxUy8JRSTgIyJVp5MQKNkHUr-utOav_DzXGsuMSjcumTxGRAzKL8gH2aufxJXqRDTqQAia1jqb2ZjaOo549eLwuZ6vgKlvDo7qAiXEQ2sM0TO9BgJ559xYMEwtmE1bJ7YNcP3K4kWiPDPnxpByb3MCI5erHGoX1RQ1hc6AU63l3yonQwsIM7328-OpD69xKmRgrCRMFtRgnAvn9_XFtEMonNccI2hWX_hVWCPXS-sFDLVjI9LZmun4qoYDG82PdqRBokKqD-LjroCjBWy-O1ePlLhcsfXMhkfssHli1iB7EXTaSxWeVdEwAC33UGQYLF2NZytFBjOqNxnhV1_gweoVGss9Ft-9Nwl8Pg2lqa7R27bpsq3RkZahy7JQkmYyPryopBuxZO9uAlv37-L_X0_x_6riT_mx2c4eSOfh6F7p7gafgVpEQo8NDQCANgZf7dHlBPz0dOax6Ga9eQF7_X79QyoUkS0Vl3QD2ZhKP-HYg95N6ZTgdtiRxrxvx6nrGRMWFQAghWNwkhLzUoFr5PyZp_W80]--></g></svg>