<?xml version="1.0" encoding="us-ascii" standalone="no"?><svg xmlns="http://www.w3.org/2000/svg" xmlns:xlink="http://www.w3.org/1999/xlink" contentStyleType="text/css" height="795px" preserveAspectRatio="none" style="width:923px;height:795px;background:#FFFFFF;" version="1.1" viewBox="0 0 923 795" width="923px" zoomAndPan="magnify"><defs/><g><!--class AuthzRegistry--><g id="elem_AuthzRegistry"><rect codeLine="3" fill="#F1F1F1" height="56.6211" id="AuthzRegistry" rx="2.5" ry="2.5" style="stroke:#181818;stroke-width:0.5;" width="128" x="345" y="7"/><ellipse cx="360" cy="27.3105" fill="#ADD1B2" rx="11" ry="11" style="stroke:#181818;stroke-width:1.0;"/><path d="M362.9731,32.9536 Q362.3921,33.2524 361.7529,33.4019 Q361.1138,33.5513 360.4082,33.5513 Q357.9014,33.5513 356.5815,31.8994 Q355.2617,30.2476 355.2617,27.1265 Q355.2617,23.9971 356.5815,22.3452 Q357.9014,20.6934 360.4082,20.6934 Q361.1138,20.6934 361.7612,20.8428 Q362.4087,20.9922 362.9731,21.291 L362.9731,24.0137 Q362.3423,23.4326 361.7488,23.1628 Q361.1553,22.8931 360.5244,22.8931 Q359.1797,22.8931 358.4949,23.9597 Q357.8101,25.0264 357.8101,27.1265 Q357.8101,29.2183 358.4949,30.2849 Q359.1797,31.3516 360.5244,31.3516 Q361.1553,31.3516 361.7488,31.0818 Q362.3423,30.812 362.9731,30.231 Z " fill="#000000"/><text fill="#000000" font-family="sans-serif" font-size="12" font-style="italic" lengthAdjust="spacing" textLength="43" x="400.5" y="23.6016">&#171;Utility&#187;</text><text fill="#000000" font-family="sans-serif" font-size="14" lengthAdjust="spacing" textLength="96" x="374" y="39.668">AuthzRegistry</text><line style="stroke:#181818;stroke-width:0.5;" x1="346" x2="472" y1="47.6211" y2="47.6211"/><line style="stroke:#181818;stroke-width:0.5;" x1="346" x2="472" y1="55.6211" y2="55.6211"/></g><!--class AuthenticationService--><g id="elem_AuthenticationService"><rect codeLine="7" fill="#F1F1F1" height="73.1094" id="AuthenticationService" rx="2.5" ry="2.5" style="stroke:#181818;stroke-width:0.5;" width="181" x="435.5" y="124"/><ellipse cx="450.5" cy="144.3105" fill="#ADD1B2" rx="11" ry="11" style="stroke:#181818;stroke-width:1.0;"/><path d="M453.4731,149.9536 Q452.8921,150.2524 452.2529,150.4019 Q451.6138,150.5513 450.9082,150.5513 Q448.4014,150.5513 447.0815,148.8994 Q445.7617,147.2476 445.7617,144.1265 Q445.7617,140.9971 447.0815,139.3452 Q448.4014,137.6934 450.9082,137.6934 Q451.6138,137.6934 452.2612,137.8428 Q452.9087,137.9922 453.4731,138.291 L453.4731,141.0137 Q452.8423,140.4326 452.2488,140.1628 Q451.6553,139.8931 451.0244,139.8931 Q449.6797,139.8931 448.9949,140.9597 Q448.3101,142.0264 448.3101,144.1265 Q448.3101,146.2183 448.9949,147.2849 Q449.6797,148.3516 451.0244,148.3516 Q451.6553,148.3516 452.2488,148.0818 Q452.8423,147.812 453.4731,147.231 Z " fill="#000000"/><text fill="#000000" font-family="sans-serif" font-size="12" font-style="italic" lengthAdjust="spacing" textLength="52" x="513" y="140.6016">&#171;service&#187;</text><text fill="#000000" font-family="sans-serif" font-size="14" lengthAdjust="spacing" textLength="149" x="464.5" y="156.668">AuthenticationService</text><line style="stroke:#181818;stroke-width:0.5;" x1="436.5" x2="615.5" y1="164.6211" y2="164.6211"/><line style="stroke:#181818;stroke-width:0.5;" x1="436.5" x2="615.5" y1="172.6211" y2="172.6211"/><ellipse cx="446.5" cy="186.3652" fill="#84BE84" rx="3" ry="3" style="stroke:#038048;stroke-width:1.0;"/><text fill="#000000" font-family="sans-serif" font-size="14" lengthAdjust="spacing" textLength="95" x="455.5" y="190.1563">authenticate()</text></g><!--class AuthorizationService--><g id="elem_AuthorizationService"><rect codeLine="11" fill="#F1F1F1" height="73.1094" id="AuthorizationService" rx="2.5" ry="2.5" style="stroke:#181818;stroke-width:0.5;" width="220" x="98" y="257"/><ellipse cx="133.25" cy="277.3105" fill="#ADD1B2" rx="11" ry="11" style="stroke:#181818;stroke-width:1.0;"/><path d="M136.2231,282.9536 Q135.6421,283.2524 135.0029,283.4019 Q134.3638,283.5513 133.6582,283.5513 Q131.1514,283.5513 129.8315,281.8994 Q128.5117,280.2476 128.5117,277.1265 Q128.5117,273.9971 129.8315,272.3452 Q131.1514,270.6934 133.6582,270.6934 Q134.3638,270.6934 135.0112,270.8428 Q135.6587,270.9922 136.2231,271.291 L136.2231,274.0137 Q135.5923,273.4326 134.9988,273.1628 Q134.4053,272.8931 133.7744,272.8931 Q132.4297,272.8931 131.7449,273.9597 Q131.0601,275.0264 131.0601,277.1265 Q131.0601,279.2183 131.7449,280.2849 Q132.4297,281.3516 133.7744,281.3516 Q134.4053,281.3516 134.9988,281.0818 Q135.5923,280.812 136.2231,280.231 Z " fill="#000000"/><text fill="#000000" font-family="sans-serif" font-size="12" font-style="italic" lengthAdjust="spacing" textLength="52" x="197.25" y="273.6016">&#171;service&#187;</text><text fill="#000000" font-family="sans-serif" font-size="14" lengthAdjust="spacing" textLength="143" x="151.75" y="289.668">AuthorizationService</text><line style="stroke:#181818;stroke-width:0.5;" x1="99" x2="317" y1="297.6211" y2="297.6211"/><line style="stroke:#181818;stroke-width:0.5;" x1="99" x2="317" y1="305.6211" y2="305.6211"/><ellipse cx="109" cy="319.3652" fill="#84BE84" rx="3" ry="3" style="stroke:#038048;stroke-width:1.0;"/><text fill="#000000" font-family="sans-serif" font-size="14" lengthAdjust="spacing" textLength="194" x="118" y="323.1563">ensureUserHasOneOfRoles()</text></g><!--class PasswordEncoder--><g id="elem_PasswordEncoder"><rect codeLine="15" fill="#F1F1F1" height="56.6211" id="PasswordEncoder" rx="2.5" ry="2.5" style="stroke:#181818;stroke-width:0.5;" width="153" x="763.5" y="732"/><ellipse cx="778.5" cy="752.3105" fill="#ADD1B2" rx="11" ry="11" style="stroke:#181818;stroke-width:1.0;"/><path d="M781.4731,757.9536 Q780.8921,758.2524 780.2529,758.4019 Q779.6138,758.5513 778.9082,758.5513 Q776.4014,758.5513 775.0815,756.8994 Q773.7617,755.2476 773.7617,752.1265 Q773.7617,748.9971 775.0815,747.3452 Q776.4014,745.6934 778.9082,745.6934 Q779.6138,745.6934 780.2612,745.8428 Q780.9087,745.9922 781.4731,746.291 L781.4731,749.0137 Q780.8423,748.4326 780.2488,748.1628 Q779.6553,747.8931 779.0244,747.8931 Q777.6797,747.8931 776.9949,748.9597 Q776.3101,750.0264 776.3101,752.1265 Q776.3101,754.2183 776.9949,755.2849 Q777.6797,756.3516 779.0244,756.3516 Q779.6553,756.3516 780.2488,756.0818 Q780.8423,755.812 781.4731,755.231 Z " fill="#000000"/><text fill="#000000" font-family="sans-serif" font-size="12" font-style="italic" lengthAdjust="spacing" textLength="52" x="827" y="748.6016">&#171;service&#187;</text><text fill="#000000" font-family="sans-serif" font-size="14" lengthAdjust="spacing" textLength="121" x="792.5" y="764.668">PasswordEncoder</text><line style="stroke:#181818;stroke-width:0.5;" x1="764.5" x2="915.5" y1="772.6211" y2="772.6211"/><line style="stroke:#181818;stroke-width:0.5;" x1="764.5" x2="915.5" y1="780.6211" y2="780.6211"/></g><!--class PasswordPolicy--><g id="elem_PasswordPolicy"><rect codeLine="18" fill="#F1F1F1" height="56.6211" id="PasswordPolicy" rx="2.5" ry="2.5" style="stroke:#181818;stroke-width:0.5;" width="136" x="586" y="732"/><ellipse cx="601" cy="752.3105" fill="#ADD1B2" rx="11" ry="11" style="stroke:#181818;stroke-width:1.0;"/><path d="M603.9731,757.9536 Q603.3921,758.2524 602.7529,758.4019 Q602.1138,758.5513 601.4082,758.5513 Q598.9014,758.5513 597.5815,756.8994 Q596.2617,755.2476 596.2617,752.1265 Q596.2617,748.9971 597.5815,747.3452 Q598.9014,745.6934 601.4082,745.6934 Q602.1138,745.6934 602.7612,745.8428 Q603.4087,745.9922 603.9731,746.291 L603.9731,749.0137 Q603.3423,748.4326 602.7488,748.1628 Q602.1553,747.8931 601.5244,747.8931 Q600.1797,747.8931 599.4949,748.9597 Q598.8101,750.0264 598.8101,752.1265 Q598.8101,754.2183 599.4949,755.2849 Q600.1797,756.3516 601.5244,756.3516 Q602.1553,756.3516 602.7488,756.0818 Q603.3423,755.812 603.9731,755.231 Z " fill="#000000"/><text fill="#000000" font-family="sans-serif" font-size="12" font-style="italic" lengthAdjust="spacing" textLength="52" x="641" y="748.6016">&#171;service&#187;</text><text fill="#000000" font-family="sans-serif" font-size="14" lengthAdjust="spacing" textLength="104" x="615" y="764.668">PasswordPolicy</text><line style="stroke:#181818;stroke-width:0.5;" x1="587" x2="721" y1="772.6211" y2="772.6211"/><line style="stroke:#181818;stroke-width:0.5;" x1="587" x2="721" y1="780.6211" y2="780.6211"/></g><!--class UserSession--><g id="elem_UserSession"><rect codeLine="21" fill="#F1F1F1" height="48" id="UserSession" rx="2.5" ry="2.5" style="stroke:#181818;stroke-width:0.5;" width="115" x="163.5" y="390"/><ellipse cx="178.5" cy="406" fill="#ADD1B2" rx="11" ry="11" style="stroke:#181818;stroke-width:1.0;"/><path d="M181.4731,411.6431 Q180.8921,411.9419 180.2529,412.0913 Q179.6138,412.2407 178.9082,412.2407 Q176.4014,412.2407 175.0815,410.5889 Q173.7617,408.937 173.7617,405.8159 Q173.7617,402.6865 175.0815,401.0347 Q176.4014,399.3828 178.9082,399.3828 Q179.6138,399.3828 180.2612,399.5322 Q180.9087,399.6816 181.4731,399.9805 L181.4731,402.7031 Q180.8423,402.1221 180.2488,401.8523 Q179.6553,401.5825 179.0244,401.5825 Q177.6797,401.5825 176.9949,402.6492 Q176.3101,403.7158 176.3101,405.8159 Q176.3101,407.9077 176.9949,408.9744 Q177.6797,410.041 179.0244,410.041 Q179.6553,410.041 180.2488,409.7712 Q180.8423,409.5015 181.4731,408.9204 Z " fill="#000000"/><text fill="#000000" font-family="sans-serif" font-size="14" lengthAdjust="spacing" textLength="83" x="192.5" y="411.291">UserSession</text><line style="stroke:#181818;stroke-width:0.5;" x1="164.5" x2="277.5" y1="422" y2="422"/><line style="stroke:#181818;stroke-width:0.5;" x1="164.5" x2="277.5" y1="430" y2="430"/></g><!--class User--><g id="elem_User"><rect codeLine="26" fill="#F1F1F1" height="56.6211" id="User" rx="2.5" ry="2.5" style="stroke:#181818;stroke-width:0.5;" width="63" x="374.5" y="498"/><ellipse cx="389.5" cy="518.3105" fill="#ADD1B2" rx="11" ry="11" style="stroke:#181818;stroke-width:1.0;"/><path d="M392.4731,523.9536 Q391.8921,524.2524 391.2529,524.4019 Q390.6138,524.5513 389.9082,524.5513 Q387.4014,524.5513 386.0815,522.8994 Q384.7617,521.2476 384.7617,518.1265 Q384.7617,514.9971 386.0815,513.3452 Q387.4014,511.6934 389.9082,511.6934 Q390.6138,511.6934 391.2612,511.8428 Q391.9087,511.9922 392.4731,512.291 L392.4731,515.0137 Q391.8423,514.4326 391.2488,514.1628 Q390.6553,513.8931 390.0244,513.8931 Q388.6797,513.8931 387.9949,514.9597 Q387.3101,516.0264 387.3101,518.1265 Q387.3101,520.2183 387.9949,521.2849 Q388.6797,522.3516 390.0244,522.3516 Q390.6553,522.3516 391.2488,522.0818 Q391.8423,521.812 392.4731,521.231 Z " fill="#000000"/><text fill="#000000" font-family="sans-serif" font-size="12" font-style="italic" lengthAdjust="spacing" textLength="35" x="401.5" y="514.6016">&#171;root&#187;</text><text fill="#000000" font-family="sans-serif" font-size="14" lengthAdjust="spacing" textLength="31" x="403.5" y="530.668">User</text><line style="stroke:#181818;stroke-width:0.5;" x1="375.5" x2="436.5" y1="538.6211" y2="538.6211"/><line style="stroke:#181818;stroke-width:0.5;" x1="375.5" x2="436.5" y1="546.6211" y2="546.6211"/></g><!--class UserState--><g id="elem_UserState"><rect codeLine="29" fill="#F1F1F1" height="56.6211" id="UserState" rx="2.5" ry="2.5" style="stroke:#181818;stroke-width:0.5;" width="97" x="386.5" y="615"/><ellipse cx="401.5" cy="635.3105" fill="#ADD1B2" rx="11" ry="11" style="stroke:#181818;stroke-width:1.0;"/><path d="M404.4731,640.9536 Q403.8921,641.2524 403.2529,641.4019 Q402.6138,641.5513 401.9082,641.5513 Q399.4014,641.5513 398.0815,639.8994 Q396.7617,638.2476 396.7617,635.1265 Q396.7617,631.9971 398.0815,630.3452 Q399.4014,628.6934 401.9082,628.6934 Q402.6138,628.6934 403.2612,628.8428 Q403.9087,628.9922 404.4731,629.291 L404.4731,632.0137 Q403.8423,631.4326 403.2488,631.1628 Q402.6553,630.8931 402.0244,630.8931 Q400.6797,630.8931 399.9949,631.9597 Q399.3101,633.0264 399.3101,635.1265 Q399.3101,637.2183 399.9949,638.2849 Q400.6797,639.3516 402.0244,639.3516 Q402.6553,639.3516 403.2488,639.0818 Q403.8423,638.812 404.4731,638.231 Z " fill="#000000"/><text fill="#000000" font-family="sans-serif" font-size="12" font-style="italic" lengthAdjust="spacing" textLength="42" x="427" y="631.6016">&#171;value&#187;</text><text fill="#000000" font-family="sans-serif" font-size="14" lengthAdjust="spacing" textLength="65" x="415.5" y="647.668">UserState</text><line style="stroke:#181818;stroke-width:0.5;" x1="387.5" x2="482.5" y1="655.6211" y2="655.6211"/><line style="stroke:#181818;stroke-width:0.5;" x1="387.5" x2="482.5" y1="663.6211" y2="663.6211"/></g><!--class ShortName--><g id="elem_ShortName"><rect codeLine="32" fill="#F1F1F1" height="56.6211" id="ShortName" rx="2.5" ry="2.5" style="stroke:#181818;stroke-width:0.5;" width="108" x="112" y="615"/><ellipse cx="127" cy="635.3105" fill="#ADD1B2" rx="11" ry="11" style="stroke:#181818;stroke-width:1.0;"/><path d="M129.9731,640.9536 Q129.3921,641.2524 128.7529,641.4019 Q128.1138,641.5513 127.4082,641.5513 Q124.9014,641.5513 123.5815,639.8994 Q122.2617,638.2476 122.2617,635.1265 Q122.2617,631.9971 123.5815,630.3452 Q124.9014,628.6934 127.4082,628.6934 Q128.1138,628.6934 128.7612,628.8428 Q129.4087,628.9922 129.9731,629.291 L129.9731,632.0137 Q129.3423,631.4326 128.7488,631.1628 Q128.1553,630.8931 127.5244,630.8931 Q126.1797,630.8931 125.4949,631.9597 Q124.8101,633.0264 124.8101,635.1265 Q124.8101,637.2183 125.4949,638.2849 Q126.1797,639.3516 127.5244,639.3516 Q128.1553,639.3516 128.7488,639.0818 Q129.3423,638.812 129.9731,638.231 Z " fill="#000000"/><text fill="#000000" font-family="sans-serif" font-size="12" font-style="italic" lengthAdjust="spacing" textLength="42" x="158" y="631.6016">&#171;value&#187;</text><text fill="#000000" font-family="sans-serif" font-size="14" lengthAdjust="spacing" textLength="76" x="141" y="647.668">ShortName</text><line style="stroke:#181818;stroke-width:0.5;" x1="113" x2="219" y1="655.6211" y2="655.6211"/><line style="stroke:#181818;stroke-width:0.5;" x1="113" x2="219" y1="663.6211" y2="663.6211"/></g><!--class FullName--><g id="elem_FullName"><rect codeLine="35" fill="#F1F1F1" height="56.6211" id="FullName" rx="2.5" ry="2.5" style="stroke:#181818;stroke-width:0.5;" width="96" x="255" y="615"/><ellipse cx="270" cy="635.3105" fill="#ADD1B2" rx="11" ry="11" style="stroke:#181818;stroke-width:1.0;"/><path d="M272.9731,640.9536 Q272.3921,641.2524 271.7529,641.4019 Q271.1138,641.5513 270.4082,641.5513 Q267.9014,641.5513 266.5815,639.8994 Q265.2617,638.2476 265.2617,635.1265 Q265.2617,631.9971 266.5815,630.3452 Q267.9014,628.6934 270.4082,628.6934 Q271.1138,628.6934 271.7612,628.8428 Q272.4087,628.9922 272.9731,629.291 L272.9731,632.0137 Q272.3423,631.4326 271.7488,631.1628 Q271.1553,630.8931 270.5244,630.8931 Q269.1797,630.8931 268.4949,631.9597 Q267.8101,633.0264 267.8101,635.1265 Q267.8101,637.2183 268.4949,638.2849 Q269.1797,639.3516 270.5244,639.3516 Q271.1553,639.3516 271.7488,639.0818 Q272.3423,638.812 272.9731,638.231 Z " fill="#000000"/><text fill="#000000" font-family="sans-serif" font-size="12" font-style="italic" lengthAdjust="spacing" textLength="42" x="295" y="631.6016">&#171;value&#187;</text><text fill="#000000" font-family="sans-serif" font-size="14" lengthAdjust="spacing" textLength="64" x="284" y="647.668">FullName</text><line style="stroke:#181818;stroke-width:0.5;" x1="256" x2="350" y1="655.6211" y2="655.6211"/><line style="stroke:#181818;stroke-width:0.5;" x1="256" x2="350" y1="663.6211" y2="663.6211"/></g><!--class Email--><g id="elem_Email"><rect codeLine="38" fill="#F1F1F1" height="56.6211" id="Email" rx="2.5" ry="2.5" style="stroke:#181818;stroke-width:0.5;" width="70" x="519" y="615"/><ellipse cx="534" cy="635.3105" fill="#ADD1B2" rx="11" ry="11" style="stroke:#181818;stroke-width:1.0;"/><path d="M536.9731,640.9536 Q536.3921,641.2524 535.7529,641.4019 Q535.1138,641.5513 534.4082,641.5513 Q531.9014,641.5513 530.5815,639.8994 Q529.2617,638.2476 529.2617,635.1265 Q529.2617,631.9971 530.5815,630.3452 Q531.9014,628.6934 534.4082,628.6934 Q535.1138,628.6934 535.7612,628.8428 Q536.4087,628.9922 536.9731,629.291 L536.9731,632.0137 Q536.3423,631.4326 535.7488,631.1628 Q535.1553,630.8931 534.5244,630.8931 Q533.1797,630.8931 532.4949,631.9597 Q531.8101,633.0264 531.8101,635.1265 Q531.8101,637.2183 532.4949,638.2849 Q533.1797,639.3516 534.5244,639.3516 Q535.1553,639.3516 535.7488,639.0818 Q536.3423,638.812 536.9731,638.231 Z " fill="#000000"/><text fill="#000000" font-family="sans-serif" font-size="12" font-style="italic" lengthAdjust="spacing" textLength="42" x="546" y="631.6016">&#171;value&#187;</text><text fill="#000000" font-family="sans-serif" font-size="14" lengthAdjust="spacing" textLength="37" x="548.5" y="647.668">Email</text><line style="stroke:#181818;stroke-width:0.5;" x1="520" x2="588" y1="655.6211" y2="655.6211"/><line style="stroke:#181818;stroke-width:0.5;" x1="520" x2="588" y1="663.6211" y2="663.6211"/></g><!--class Password--><g id="elem_Password"><rect codeLine="41" fill="#F1F1F1" height="56.6211" id="Password" rx="2.5" ry="2.5" style="stroke:#181818;stroke-width:0.5;" width="97" x="695.5" y="615"/><ellipse cx="710.5" cy="635.3105" fill="#ADD1B2" rx="11" ry="11" style="stroke:#181818;stroke-width:1.0;"/><path d="M713.4731,640.9536 Q712.8921,641.2524 712.2529,641.4019 Q711.6138,641.5513 710.9082,641.5513 Q708.4014,641.5513 707.0815,639.8994 Q705.7617,638.2476 705.7617,635.1265 Q705.7617,631.9971 707.0815,630.3452 Q708.4014,628.6934 710.9082,628.6934 Q711.6138,628.6934 712.2612,628.8428 Q712.9087,628.9922 713.4731,629.291 L713.4731,632.0137 Q712.8423,631.4326 712.2488,631.1628 Q711.6553,630.8931 711.0244,630.8931 Q709.6797,630.8931 708.9949,631.9597 Q708.3101,633.0264 708.3101,635.1265 Q708.3101,637.2183 708.9949,638.2849 Q709.6797,639.3516 711.0244,639.3516 Q711.6553,639.3516 712.2488,639.0818 Q712.8423,638.812 713.4731,638.231 Z " fill="#000000"/><text fill="#000000" font-family="sans-serif" font-size="12" font-style="italic" lengthAdjust="spacing" textLength="42" x="736" y="631.6016">&#171;value&#187;</text><text fill="#000000" font-family="sans-serif" font-size="14" lengthAdjust="spacing" textLength="65" x="724.5" y="647.668">Password</text><line style="stroke:#181818;stroke-width:0.5;" x1="696.5" x2="791.5" y1="655.6211" y2="655.6211"/><line style="stroke:#181818;stroke-width:0.5;" x1="696.5" x2="791.5" y1="663.6211" y2="663.6211"/></g><!--class Role--><g id="elem_Role"><rect codeLine="44" fill="#F1F1F1" height="56.6211" id="Role" rx="2.5" ry="2.5" style="stroke:#181818;stroke-width:0.5;" width="70" x="7" y="615"/><ellipse cx="22" cy="635.3105" fill="#ADD1B2" rx="11" ry="11" style="stroke:#181818;stroke-width:1.0;"/><path d="M24.9731,640.9536 Q24.3921,641.2524 23.7529,641.4019 Q23.1138,641.5513 22.4082,641.5513 Q19.9014,641.5513 18.5815,639.8994 Q17.2617,638.2476 17.2617,635.1265 Q17.2617,631.9971 18.5815,630.3452 Q19.9014,628.6934 22.4082,628.6934 Q23.1138,628.6934 23.7612,628.8428 Q24.4087,628.9922 24.9731,629.291 L24.9731,632.0137 Q24.3423,631.4326 23.7488,631.1628 Q23.1553,630.8931 22.5244,630.8931 Q21.1797,630.8931 20.4949,631.9597 Q19.8101,633.0264 19.8101,635.1265 Q19.8101,637.2183 20.4949,638.2849 Q21.1797,639.3516 22.5244,639.3516 Q23.1553,639.3516 23.7488,639.0818 Q24.3423,638.812 24.9731,638.231 Z " fill="#000000"/><text fill="#000000" font-family="sans-serif" font-size="12" font-style="italic" lengthAdjust="spacing" textLength="42" x="34" y="631.6016">&#171;value&#187;</text><text fill="#000000" font-family="sans-serif" font-size="14" lengthAdjust="spacing" textLength="30" x="40" y="647.668">Role</text><line style="stroke:#181818;stroke-width:0.5;" x1="8" x2="76" y1="655.6211" y2="655.6211"/><line style="stroke:#181818;stroke-width:0.5;" x1="8" x2="76" y1="663.6211" y2="663.6211"/></g><!--link User to ShortName--><g id="link_User_ShortName"><path codeLine="50" d="M374.13,542.77 C336.31,560.89 272.48,591.48 225.45,614.01 " fill="none" id="User-to-ShortName" style="stroke:#181818;stroke-width:1.0;"/><polygon fill="#181818" points="221.09,616.58,230.9344,616.2834,225.5958,614.4126,227.4666,609.0741,221.09,616.58" style="stroke:#181818;stroke-width:1.0;"/></g><!--link User to FullName--><g id="link_User_FullName"><path codeLine="51" d="M381.07,555.34 C366.25,571.88 347.39,592.94 331.92,610.21 " fill="none" id="User-to-FullName" style="stroke:#181818;stroke-width:1.0;"/><polygon fill="#181818" points="329.06,613.52,338.0376,609.4699,332.3898,609.7901,332.0697,604.1423,329.06,613.52" style="stroke:#181818;stroke-width:1.0;"/></g><!--link User to Email--><g id="link_User_Email"><path codeLine="52" d="M437.75,552.17 C460.05,569.49 490.04,592.8 513.97,611.4 " fill="none" id="User-to-Email" style="stroke:#181818;stroke-width:1.0;"/><polygon fill="#181818" points="517.67,615.05,513.0281,606.3636,513.7255,611.9773,508.1119,612.6748,517.67,615.05" style="stroke:#181818;stroke-width:1.0;"/></g><!--link User to Password--><g id="link_User_Password"><path codeLine="53" d="M437.8,538.32 C495.62,557.99 618.56,599.82 689.83,624.07 " fill="none" id="User-to-Password" style="stroke:#181818;stroke-width:1.0;"/><polygon fill="#181818" points="694.29,625.93,687.065,619.2368,689.5581,624.3146,684.4803,626.8078,694.29,625.93" style="stroke:#181818;stroke-width:1.0;"/></g><!--link User to UserState--><g id="link_User_UserState"><path codeLine="54" d="M413.02,555.34 C417.09,571.46 422.23,591.87 426.52,608.89 " fill="none" id="User-to-UserState" style="stroke:#181818;stroke-width:1.0;"/><polygon fill="#181818" points="427.94,613.52,429.6109,603.8139,426.7139,608.6727,421.8552,605.7757,427.94,613.52" style="stroke:#181818;stroke-width:1.0;"/></g><!--link User to Role--><g id="link_User_Role"><path codeLine="55" d="M374.03,543.84 C365.4,547.85 355.97,551.88 347,555 C237.84,592.94 202.17,574.33 94,615 C90.19,616.43 86.3,618.09 82.46,619.86 " fill="none" id="User-to-Role" style="stroke:#181818;stroke-width:1.0;"/><polygon fill="#181818" points="78.25,622.34,88.0951,622.0687,82.7614,620.1842,84.6459,614.8505,78.25,622.34" style="stroke:#181818;stroke-width:1.0;"/></g><!--link AuthenticationService to AuthorizationService--><g id="link_AuthenticationService_AuthorizationService"><path codeLine="58" d="M438.68,197.47 C395.84,215.12 344.21,236.39 300.66,254.33 " fill="none" id="AuthenticationService-to-AuthorizationService" style="stroke:#181818;stroke-width:1.0;stroke-dasharray:7.0,7.0;"/><polygon fill="#181818" points="296.12,256.61,305.9651,256.882,300.7434,254.7063,302.9191,249.4845,296.12,256.61" style="stroke:#181818;stroke-width:1.0;"/></g><!--link AuthenticationService to Email--><g id="link_AuthenticationService_Email"><path codeLine="59" d="M528.08,197.26 C533.31,287.07 546.94,521.19 552.04,608.78 " fill="none" id="AuthenticationService-to-Email" style="stroke:#181818;stroke-width:1.0;stroke-dasharray:7.0,7.0;"/><polygon fill="#181818" points="552.37,613.58,555.8485,604.3659,552.0839,608.5882,547.8616,604.8236,552.37,613.58" style="stroke:#181818;stroke-width:1.0;"/></g><!--link AuthenticationService to Password--><g id="link_AuthenticationService_Password"><path codeLine="60" d="M601.97,197.33 C626.54,212.47 651.63,232.38 668,257 C742.57,369.17 747.32,537.64 745.59,608.83 " fill="none" id="AuthenticationService-to-Password" style="stroke:#181818;stroke-width:1.0;stroke-dasharray:7.0,7.0;"/><polygon fill="#181818" points="745.43,613.6,749.6854,604.7179,745.5728,608.602,741.6887,604.4894,745.43,613.6" style="stroke:#181818;stroke-width:1.0;"/></g><!--link AuthenticationService to UserState--><g id="link_AuthenticationService_UserState"><path codeLine="61" d="M520.09,197.42 C508.56,266.74 481.83,423.73 455,555 C451.36,572.81 446.88,592.56 443.09,608.79 " fill="none" id="AuthenticationService-to-UserState" style="stroke:#181818;stroke-width:1.0;stroke-dasharray:7.0,7.0;"/><polygon fill="#181818" points="441.72,613.59,447.6699,605.7415,442.862,608.7222,439.8814,603.9143,441.72,613.59" style="stroke:#181818;stroke-width:1.0;"/></g><!--link AuthenticationService to Role--><g id="link_AuthenticationService_Role"><path codeLine="62" d="M499.76,197.47 C459.08,252.16 377,358.29 296,438 C225.69,507.19 133.42,576.93 81.66,614.42 " fill="none" id="AuthenticationService-to-Role" style="stroke:#181818;stroke-width:1.0;stroke-dasharray:7.0,7.0;"/><polygon fill="#181818" points="78.09,617.73,87.7286,615.7058,82.1441,614.8036,83.0463,609.2191,78.09,617.73" style="stroke:#181818;stroke-width:1.0;"/></g><!--link AuthenticationService to PasswordPolicy--><g id="link_AuthenticationService_PasswordPolicy"><path codeLine="63" d="M554.67,197.44 C589.03,244.2 642,329.82 642,413 C642,413 642,413 642,527.5 C642,598.14 647.62,680.71 651.16,725.82 " fill="none" id="AuthenticationService-to-PasswordPolicy" style="stroke:#181818;stroke-width:1.0;stroke-dasharray:7.0,7.0;"/><polygon fill="#181818" points="651.63,730.67,654.9239,721.3883,651.2443,725.6849,646.9477,722.0053,651.63,730.67" style="stroke:#181818;stroke-width:1.0;"/></g><!--link AuthenticationService to PasswordEncoder--><g id="link_AuthenticationService_PasswordEncoder"><path codeLine="64" d="M616.84,189.4 C711.45,224.78 846,295.7 846,413 C846,413 846,413 846,527.5 C846,598.06 843.19,680.66 841.42,725.8 " fill="none" id="AuthenticationService-to-PasswordEncoder" style="stroke:#181818;stroke-width:1.0;stroke-dasharray:7.0,7.0;"/><polygon fill="#181818" points="841.19,730.65,845.5222,721.8051,841.3761,725.6535,837.5278,721.5073,841.19,730.65" style="stroke:#181818;stroke-width:1.0;"/></g><!--link AuthorizationService to UserSession--><g id="link_AuthorizationService_UserSession"><path codeLine="67" d="M211.94,330.38 C213.81,347.48 216.03,367.69 217.8,383.84 " fill="none" id="AuthorizationService-to-UserSession" style="stroke:#181818;stroke-width:1.0;"/><polygon fill="#181818" points="218.43,388.59,221.4294,379.209,217.8872,383.6195,213.4767,380.0774,218.43,388.59" style="stroke:#181818;stroke-width:1.0;"/></g><!--link UserSession to User--><g id="link_UserSession_User"><path codeLine="70" d="M260.23,438.43 C292.45,457.68 337.75,484.73 369.26,503.56 " fill="none" id="UserSession-to-User" style="stroke:#181818;stroke-width:1.0;"/><polygon fill="#181818" points="373.2,506.5,367.5208,498.4535,368.9062,503.9381,363.4217,505.3235,373.2,506.5" style="stroke:#181818;stroke-width:1.0;"/></g><!--link Password to PasswordPolicy--><g id="link_Password_PasswordPolicy"><path codeLine="74" d="M722.21,672.34 C709.26,688.88 692.78,709.94 679.27,727.21 " fill="none" id="Password-to-PasswordPolicy" style="stroke:#181818;stroke-width:1.0;stroke-dasharray:7.0,7.0;"/><polygon fill="#181818" points="675.9,730.52,684.5968,725.8977,678.9815,726.5825,678.2968,720.9672,675.9,730.52" style="stroke:#181818;stroke-width:1.0;"/></g><!--link Password to PasswordEncoder--><g id="link_Password_PasswordEncoder"><path codeLine="75" d="M767.24,672.34 C781.05,688.88 798.63,709.94 813.05,727.21 " fill="none" id="Password-to-PasswordEncoder" style="stroke:#181818;stroke-width:1.0;stroke-dasharray:7.0,7.0;"/><polygon fill="#181818" points="816.64,730.52,813.9547,721.0443,813.4405,726.6777,807.807,726.1635,816.64,730.52" style="stroke:#181818;stroke-width:1.0;"/></g><!--link AuthzRegistry to AuthenticationService--><g id="link_AuthzRegistry_AuthenticationService"><path codeLine="77" d="M435.55,64.41 C451.09,80.75 470.98,101.66 488.15,119.71 " fill="none" id="AuthzRegistry-to-AuthenticationService" style="stroke:#181818;stroke-width:1.0;"/><polygon fill="#181818" points="490.99,122.75,487.6787,113.4745,487.5414,119.1297,481.8862,118.9923,490.99,122.75" style="stroke:#181818;stroke-width:1.0;"/></g><!--link AuthzRegistry to AuthorizationService--><g id="link_AuthzRegistry_AuthorizationService"><path codeLine="78" d="M387.11,64.38 C351.45,109.79 280.7,199.9 239.6,252.25 " fill="none" id="AuthzRegistry-to-AuthorizationService" style="stroke:#181818;stroke-width:1.0;"/><polygon fill="#181818" points="235.96,255.89,244.6568,251.2677,239.0415,251.9525,238.3568,246.3372,235.96,255.89" style="stroke:#181818;stroke-width:1.0;"/></g><!--SRC=[ZLJBRi8m4BpdA_O6g88lGAbweEgf82BKit6smPMnaTUX2bN_lNPUJlCepI4AExFZtSaGBXaHFENsTDjZ9iYQ0jRhWnLIs2AEuIlwZg8P96YkWYD5lEMZie8pAxIgGTT7rLFP1-vw01QOE5zuiQ2WZRZT5K15kS630ruORHLkt_TQ8dMrTkxsgKswKLodQ7eo0zfEIy6BAPO_AK4YDrPLTjlx6h0iCvYvDJf49sAqjYCArX4TUcKoxnsGkBtjApjFmC-vbDFevio478UQzSPHRreVQLShgw2F7yWjHMLfkOp3fA7KJ1SgvKJXPpD5gBHsX98VnX_-Tc8MKetKZOatFYTyZCP3jbh5e-7vWrwDE8stCqzJmXBJd7Ah-wTKyVi7iOxpqAXsTJYnQstKuB_KMbzbkQVY7JP0TSuhcMxoc-v-swK9MVc6PZ1FX7A72Uiq28uv2UKKGEfCS32vz4qg1SxKpC8H8HN6PKmM_lc2Xjm71zD5r6PtnAXHhFNczvVBZprgx0Hl429__G00]--></g></svg>