<?xml version="1.0" encoding="us-ascii" standalone="no"?><svg xmlns="http://www.w3.org/2000/svg" xmlns:xlink="http://www.w3.org/1999/xlink" contentStyleType="text/css" height="823px" preserveAspectRatio="none" style="width:905px;height:823px;background:#FFFFFF;" version="1.1" viewBox="0 0 905 823" width="905px" zoomAndPan="magnify"><defs/><g><!--class AuthzRegistry--><g id="elem_AuthzRegistry"><rect codeLine="3" fill="#F1F1F1" height="60.582" id="AuthzRegistry" rx="2.5" ry="2.5" style="stroke:#181818;stroke-width:0.5;" width="119" x="341.5" y="7"/><ellipse cx="356.5" cy="29.291" fill="#ADD1B2" rx="11" ry="11" style="stroke:#181818;stroke-width:1.0;"/><path d="M359.2656,25.166 Q359.4219,24.9473 359.6094,24.8379 Q359.7969,24.7285 360.0156,24.7285 Q360.3906,24.7285 360.625,24.9941 Q360.8594,25.2441 360.8594,25.8535 L360.8594,27.3066 Q360.8594,27.916 360.625,28.1816 Q360.3906,28.4473 360.0156,28.4473 Q359.6719,28.4473 359.4688,28.2441 Q359.2656,28.0566 359.1563,27.541 Q359.1094,27.1816 358.9219,26.9941 Q358.5938,26.6191 357.9844,26.4004 Q357.375,26.1816 356.75,26.1816 Q355.9844,26.1816 355.3438,26.5098 Q354.7188,26.8379 354.2188,27.5879 Q353.7344,28.3379 353.7344,29.3691 L353.7344,30.4629 Q353.7344,31.6973 354.625,32.5254 Q355.5156,33.3379 357.1094,33.3379 Q358.0469,33.3379 358.7031,33.0879 Q359.0938,32.9316 359.5156,32.4941 Q359.7813,32.2285 359.9219,32.1504 Q360.0781,32.0723 360.2813,32.0723 Q360.6094,32.0723 360.8594,32.3379 Q361.125,32.5879 361.125,32.9316 Q361.125,33.2754 360.7813,33.6816 Q360.2813,34.2598 359.4844,34.5879 Q358.4063,35.041 357.1094,35.041 Q355.5938,35.041 354.3906,34.416 Q353.4063,33.916 352.7188,32.8535 Q352.0313,31.7754 352.0313,30.4941 L352.0313,29.3379 Q352.0313,28.0098 352.6406,26.8691 Q353.2656,25.7129 354.3594,25.1035 Q355.4531,24.4785 356.6875,24.4785 Q357.4219,24.4785 358.0625,24.6504 Q358.7188,24.8066 359.2656,25.166 Z " fill="#000000"/><text fill="#000000" font-family="sans-serif" font-size="12" font-style="italic" lengthAdjust="spacing" textLength="44" x="392" y="24.9492">&#171;Utility&#187;</text><text fill="#000000" font-family="sans-serif" font-size="14" lengthAdjust="spacing" textLength="87" x="370.5" y="43.0684">AuthzRegistry</text><line style="stroke:#181818;stroke-width:0.5;" x1="342.5" x2="459.5" y1="51.582" y2="51.582"/><line style="stroke:#181818;stroke-width:0.5;" x1="342.5" x2="459.5" y1="59.582" y2="59.582"/></g><!--class AuthenticationService--><g id="elem_AuthenticationService"><rect codeLine="7" fill="#F1F1F1" height="79.2031" id="AuthenticationService" rx="2.5" ry="2.5" style="stroke:#181818;stroke-width:0.5;" width="169" x="431.5" y="128"/><ellipse cx="446.5" cy="150.291" fill="#ADD1B2" rx="11" ry="11" style="stroke:#181818;stroke-width:1.0;"/><path d="M449.2656,146.166 Q449.4219,145.9473 449.6094,145.8379 Q449.7969,145.7285 450.0156,145.7285 Q450.3906,145.7285 450.625,145.9941 Q450.8594,146.2441 450.8594,146.8535 L450.8594,148.3066 Q450.8594,148.916 450.625,149.1816 Q450.3906,149.4473 450.0156,149.4473 Q449.6719,149.4473 449.4688,149.2441 Q449.2656,149.0566 449.1563,148.541 Q449.1094,148.1816 448.9219,147.9941 Q448.5938,147.6191 447.9844,147.4004 Q447.375,147.1816 446.75,147.1816 Q445.9844,147.1816 445.3438,147.5098 Q444.7188,147.8379 444.2188,148.5879 Q443.7344,149.3379 443.7344,150.3691 L443.7344,151.4629 Q443.7344,152.6973 444.625,153.5254 Q445.5156,154.3379 447.1094,154.3379 Q448.0469,154.3379 448.7031,154.0879 Q449.0938,153.9316 449.5156,153.4941 Q449.7813,153.2285 449.9219,153.1504 Q450.0781,153.0723 450.2813,153.0723 Q450.6094,153.0723 450.8594,153.3379 Q451.125,153.5879 451.125,153.9316 Q451.125,154.2754 450.7813,154.6816 Q450.2813,155.2598 449.4844,155.5879 Q448.4063,156.041 447.1094,156.041 Q445.5938,156.041 444.3906,155.416 Q443.4063,154.916 442.7188,153.8535 Q442.0313,152.7754 442.0313,151.4941 L442.0313,150.3379 Q442.0313,149.0098 442.6406,147.8691 Q443.2656,146.7129 444.3594,146.1035 Q445.4531,145.4785 446.6875,145.4785 Q447.4219,145.4785 448.0625,145.6504 Q448.7188,145.8066 449.2656,146.166 Z " fill="#000000"/><text fill="#000000" font-family="sans-serif" font-size="12" font-style="italic" lengthAdjust="spacing" textLength="53" x="502.5" y="145.9492">&#171;service&#187;</text><text fill="#000000" font-family="sans-serif" font-size="14" lengthAdjust="spacing" textLength="137" x="460.5" y="164.0684">AuthenticationService</text><line style="stroke:#181818;stroke-width:0.5;" x1="432.5" x2="599.5" y1="172.582" y2="172.582"/><line style="stroke:#181818;stroke-width:0.5;" x1="432.5" x2="599.5" y1="180.582" y2="180.582"/><ellipse cx="442.5" cy="195.3926" fill="#84BE84" rx="3" ry="3" style="stroke:#038048;stroke-width:1.0;"/><text fill="#000000" font-family="sans-serif" font-size="14" lengthAdjust="spacing" textLength="88" x="451.5" y="199.6895">authenticate()</text></g><!--class AuthorizationService--><g id="elem_AuthorizationService"><rect codeLine="11" fill="#F1F1F1" height="79.2031" id="AuthorizationService" rx="2.5" ry="2.5" style="stroke:#181818;stroke-width:0.5;" width="211" x="96.5" y="267"/><ellipse cx="134" cy="289.291" fill="#ADD1B2" rx="11" ry="11" style="stroke:#181818;stroke-width:1.0;"/><path d="M136.7656,285.166 Q136.9219,284.9473 137.1094,284.8379 Q137.2969,284.7285 137.5156,284.7285 Q137.8906,284.7285 138.125,284.9941 Q138.3594,285.2441 138.3594,285.8535 L138.3594,287.3066 Q138.3594,287.916 138.125,288.1816 Q137.8906,288.4473 137.5156,288.4473 Q137.1719,288.4473 136.9688,288.2441 Q136.7656,288.0566 136.6563,287.541 Q136.6094,287.1816 136.4219,286.9941 Q136.0938,286.6191 135.4844,286.4004 Q134.875,286.1816 134.25,286.1816 Q133.4844,286.1816 132.8438,286.5098 Q132.2188,286.8379 131.7188,287.5879 Q131.2344,288.3379 131.2344,289.3691 L131.2344,290.4629 Q131.2344,291.6973 132.125,292.5254 Q133.0156,293.3379 134.6094,293.3379 Q135.5469,293.3379 136.2031,293.0879 Q136.5938,292.9316 137.0156,292.4941 Q137.2813,292.2285 137.4219,292.1504 Q137.5781,292.0723 137.7813,292.0723 Q138.1094,292.0723 138.3594,292.3379 Q138.625,292.5879 138.625,292.9316 Q138.625,293.2754 138.2813,293.6816 Q137.7813,294.2598 136.9844,294.5879 Q135.9063,295.041 134.6094,295.041 Q133.0938,295.041 131.8906,294.416 Q130.9063,293.916 130.2188,292.8535 Q129.5313,291.7754 129.5313,290.4941 L129.5313,289.3379 Q129.5313,288.0098 130.1406,286.8691 Q130.7656,285.7129 131.8594,285.1035 Q132.9531,284.4785 134.1875,284.4785 Q134.9219,284.4785 135.5625,284.6504 Q136.2188,284.8066 136.7656,285.166 Z " fill="#000000"/><text fill="#000000" font-family="sans-serif" font-size="12" font-style="italic" lengthAdjust="spacing" textLength="53" x="191" y="284.9492">&#171;service&#187;</text><text fill="#000000" font-family="sans-serif" font-size="14" lengthAdjust="spacing" textLength="129" x="153" y="303.0684">AuthorizationService</text><line style="stroke:#181818;stroke-width:0.5;" x1="97.5" x2="306.5" y1="311.582" y2="311.582"/><line style="stroke:#181818;stroke-width:0.5;" x1="97.5" x2="306.5" y1="319.582" y2="319.582"/><ellipse cx="107.5" cy="334.3926" fill="#84BE84" rx="3" ry="3" style="stroke:#038048;stroke-width:1.0;"/><text fill="#000000" font-family="sans-serif" font-size="14" lengthAdjust="spacing" textLength="185" x="116.5" y="338.6895">ensureUserHasOneOfRoles()</text></g><!--class PasswordEncoder--><g id="elem_PasswordEncoder"><rect codeLine="15" fill="#F1F1F1" height="60.582" id="PasswordEncoder" rx="2.5" ry="2.5" style="stroke:#181818;stroke-width:0.5;" width="146" x="752" y="756"/><ellipse cx="767" cy="778.291" fill="#ADD1B2" rx="11" ry="11" style="stroke:#181818;stroke-width:1.0;"/><path d="M769.7656,774.166 Q769.9219,773.9473 770.1094,773.8379 Q770.2969,773.7285 770.5156,773.7285 Q770.8906,773.7285 771.125,773.9941 Q771.3594,774.2441 771.3594,774.8535 L771.3594,776.3066 Q771.3594,776.916 771.125,777.1816 Q770.8906,777.4473 770.5156,777.4473 Q770.1719,777.4473 769.9688,777.2441 Q769.7656,777.0566 769.6563,776.541 Q769.6094,776.1816 769.4219,775.9941 Q769.0938,775.6191 768.4844,775.4004 Q767.875,775.1816 767.25,775.1816 Q766.4844,775.1816 765.8438,775.5098 Q765.2188,775.8379 764.7188,776.5879 Q764.2344,777.3379 764.2344,778.3691 L764.2344,779.4629 Q764.2344,780.6973 765.125,781.5254 Q766.0156,782.3379 767.6094,782.3379 Q768.5469,782.3379 769.2031,782.0879 Q769.5938,781.9316 770.0156,781.4941 Q770.2813,781.2285 770.4219,781.1504 Q770.5781,781.0723 770.7813,781.0723 Q771.1094,781.0723 771.3594,781.3379 Q771.625,781.5879 771.625,781.9316 Q771.625,782.2754 771.2813,782.6816 Q770.7813,783.2598 769.9844,783.5879 Q768.9063,784.041 767.6094,784.041 Q766.0938,784.041 764.8906,783.416 Q763.9063,782.916 763.2188,781.8535 Q762.5313,780.7754 762.5313,779.4941 L762.5313,778.3379 Q762.5313,777.0098 763.1406,775.8691 Q763.7656,774.7129 764.8594,774.1035 Q765.9531,773.4785 767.1875,773.4785 Q767.9219,773.4785 768.5625,773.6504 Q769.2188,773.8066 769.7656,774.166 Z " fill="#000000"/><text fill="#000000" font-family="sans-serif" font-size="12" font-style="italic" lengthAdjust="spacing" textLength="53" x="811.5" y="773.9492">&#171;service&#187;</text><text fill="#000000" font-family="sans-serif" font-size="14" lengthAdjust="spacing" textLength="114" x="781" y="792.0684">PasswordEncoder</text><line style="stroke:#181818;stroke-width:0.5;" x1="753" x2="897" y1="800.582" y2="800.582"/><line style="stroke:#181818;stroke-width:0.5;" x1="753" x2="897" y1="808.582" y2="808.582"/></g><!--class PasswordPolicy--><g id="elem_PasswordPolicy"><rect codeLine="18" fill="#F1F1F1" height="60.582" id="PasswordPolicy" rx="2.5" ry="2.5" style="stroke:#181818;stroke-width:0.5;" width="130" x="580" y="756"/><ellipse cx="595" cy="778.291" fill="#ADD1B2" rx="11" ry="11" style="stroke:#181818;stroke-width:1.0;"/><path d="M597.7656,774.166 Q597.9219,773.9473 598.1094,773.8379 Q598.2969,773.7285 598.5156,773.7285 Q598.8906,773.7285 599.125,773.9941 Q599.3594,774.2441 599.3594,774.8535 L599.3594,776.3066 Q599.3594,776.916 599.125,777.1816 Q598.8906,777.4473 598.5156,777.4473 Q598.1719,777.4473 597.9688,777.2441 Q597.7656,777.0566 597.6563,776.541 Q597.6094,776.1816 597.4219,775.9941 Q597.0938,775.6191 596.4844,775.4004 Q595.875,775.1816 595.25,775.1816 Q594.4844,775.1816 593.8438,775.5098 Q593.2188,775.8379 592.7188,776.5879 Q592.2344,777.3379 592.2344,778.3691 L592.2344,779.4629 Q592.2344,780.6973 593.125,781.5254 Q594.0156,782.3379 595.6094,782.3379 Q596.5469,782.3379 597.2031,782.0879 Q597.5938,781.9316 598.0156,781.4941 Q598.2813,781.2285 598.4219,781.1504 Q598.5781,781.0723 598.7813,781.0723 Q599.1094,781.0723 599.3594,781.3379 Q599.625,781.5879 599.625,781.9316 Q599.625,782.2754 599.2813,782.6816 Q598.7813,783.2598 597.9844,783.5879 Q596.9063,784.041 595.6094,784.041 Q594.0938,784.041 592.8906,783.416 Q591.9063,782.916 591.2188,781.8535 Q590.5313,780.7754 590.5313,779.4941 L590.5313,778.3379 Q590.5313,777.0098 591.1406,775.8691 Q591.7656,774.7129 592.8594,774.1035 Q593.9531,773.4785 595.1875,773.4785 Q595.9219,773.4785 596.5625,773.6504 Q597.2188,773.8066 597.7656,774.166 Z " fill="#000000"/><text fill="#000000" font-family="sans-serif" font-size="12" font-style="italic" lengthAdjust="spacing" textLength="53" x="631.5" y="773.9492">&#171;service&#187;</text><text fill="#000000" font-family="sans-serif" font-size="14" lengthAdjust="spacing" textLength="98" x="609" y="792.0684">PasswordPolicy</text><line style="stroke:#181818;stroke-width:0.5;" x1="581" x2="709" y1="800.582" y2="800.582"/><line style="stroke:#181818;stroke-width:0.5;" x1="581" x2="709" y1="808.582" y2="808.582"/></g><!--class UserSession--><g id="elem_UserSession"><rect codeLine="21" fill="#F1F1F1" height="48" id="UserSession" rx="2.5" ry="2.5" style="stroke:#181818;stroke-width:0.5;" width="111" x="159.5" y="406"/><ellipse cx="174.5" cy="422" fill="#ADD1B2" rx="11" ry="11" style="stroke:#181818;stroke-width:1.0;"/><path d="M177.2656,417.875 Q177.4219,417.6563 177.6094,417.5469 Q177.7969,417.4375 178.0156,417.4375 Q178.3906,417.4375 178.625,417.7031 Q178.8594,417.9531 178.8594,418.5625 L178.8594,420.0156 Q178.8594,420.625 178.625,420.8906 Q178.3906,421.1563 178.0156,421.1563 Q177.6719,421.1563 177.4688,420.9531 Q177.2656,420.7656 177.1563,420.25 Q177.1094,419.8906 176.9219,419.7031 Q176.5938,419.3281 175.9844,419.1094 Q175.375,418.8906 174.75,418.8906 Q173.9844,418.8906 173.3438,419.2188 Q172.7188,419.5469 172.2188,420.2969 Q171.7344,421.0469 171.7344,422.0781 L171.7344,423.1719 Q171.7344,424.4063 172.625,425.2344 Q173.5156,426.0469 175.1094,426.0469 Q176.0469,426.0469 176.7031,425.7969 Q177.0938,425.6406 177.5156,425.2031 Q177.7813,424.9375 177.9219,424.8594 Q178.0781,424.7813 178.2813,424.7813 Q178.6094,424.7813 178.8594,425.0469 Q179.125,425.2969 179.125,425.6406 Q179.125,425.9844 178.7813,426.3906 Q178.2813,426.9688 177.4844,427.2969 Q176.4063,427.75 175.1094,427.75 Q173.5938,427.75 172.3906,427.125 Q171.4063,426.625 170.7188,425.5625 Q170.0313,424.4844 170.0313,423.2031 L170.0313,422.0469 Q170.0313,420.7188 170.6406,419.5781 Q171.2656,418.4219 172.3594,417.8125 Q173.4531,417.1875 174.6875,417.1875 Q175.4219,417.1875 176.0625,417.3594 Q176.7188,417.5156 177.2656,417.875 Z " fill="#000000"/><text fill="#000000" font-family="sans-serif" font-size="14" lengthAdjust="spacing" textLength="79" x="188.5" y="427.7969">UserSession</text><line style="stroke:#181818;stroke-width:0.5;" x1="160.5" x2="269.5" y1="438" y2="438"/><line style="stroke:#181818;stroke-width:0.5;" x1="160.5" x2="269.5" y1="446" y2="446"/></g><!--class User--><g id="elem_User"><rect codeLine="26" fill="#F1F1F1" height="60.582" id="User" rx="2.5" ry="2.5" style="stroke:#181818;stroke-width:0.5;" width="63" x="364.5" y="514"/><ellipse cx="379.5" cy="536.291" fill="#ADD1B2" rx="11" ry="11" style="stroke:#181818;stroke-width:1.0;"/><path d="M382.2656,532.166 Q382.4219,531.9473 382.6094,531.8379 Q382.7969,531.7285 383.0156,531.7285 Q383.3906,531.7285 383.625,531.9941 Q383.8594,532.2441 383.8594,532.8535 L383.8594,534.3066 Q383.8594,534.916 383.625,535.1816 Q383.3906,535.4473 383.0156,535.4473 Q382.6719,535.4473 382.4688,535.2441 Q382.2656,535.0566 382.1563,534.541 Q382.1094,534.1816 381.9219,533.9941 Q381.5938,533.6191 380.9844,533.4004 Q380.375,533.1816 379.75,533.1816 Q378.9844,533.1816 378.3438,533.5098 Q377.7188,533.8379 377.2188,534.5879 Q376.7344,535.3379 376.7344,536.3691 L376.7344,537.4629 Q376.7344,538.6973 377.625,539.5254 Q378.5156,540.3379 380.1094,540.3379 Q381.0469,540.3379 381.7031,540.0879 Q382.0938,539.9316 382.5156,539.4941 Q382.7813,539.2285 382.9219,539.1504 Q383.0781,539.0723 383.2813,539.0723 Q383.6094,539.0723 383.8594,539.3379 Q384.125,539.5879 384.125,539.9316 Q384.125,540.2754 383.7813,540.6816 Q383.2813,541.2598 382.4844,541.5879 Q381.4063,542.041 380.1094,542.041 Q378.5938,542.041 377.3906,541.416 Q376.4063,540.916 375.7188,539.8535 Q375.0313,538.7754 375.0313,537.4941 L375.0313,536.3379 Q375.0313,535.0098 375.6406,533.8691 Q376.2656,532.7129 377.3594,532.1035 Q378.4531,531.4785 379.6875,531.4785 Q380.4219,531.4785 381.0625,531.6504 Q381.7188,531.8066 382.2656,532.166 Z " fill="#000000"/><text fill="#000000" font-family="sans-serif" font-size="12" font-style="italic" lengthAdjust="spacing" textLength="35" x="391.5" y="531.9492">&#171;root&#187;</text><text fill="#000000" font-family="sans-serif" font-size="14" lengthAdjust="spacing" textLength="29" x="394.5" y="550.0684">User</text><line style="stroke:#181818;stroke-width:0.5;" x1="365.5" x2="426.5" y1="558.582" y2="558.582"/><line style="stroke:#181818;stroke-width:0.5;" x1="365.5" x2="426.5" y1="566.582" y2="566.582"/></g><!--class UserState--><g id="elem_UserState"><rect codeLine="29" fill="#F1F1F1" height="60.582" id="UserState" rx="2.5" ry="2.5" style="stroke:#181818;stroke-width:0.5;" width="94" x="378" y="635"/><ellipse cx="393" cy="657.291" fill="#ADD1B2" rx="11" ry="11" style="stroke:#181818;stroke-width:1.0;"/><path d="M395.7656,653.166 Q395.9219,652.9473 396.1094,652.8379 Q396.2969,652.7285 396.5156,652.7285 Q396.8906,652.7285 397.125,652.9941 Q397.3594,653.2441 397.3594,653.8535 L397.3594,655.3066 Q397.3594,655.916 397.125,656.1816 Q396.8906,656.4473 396.5156,656.4473 Q396.1719,656.4473 395.9688,656.2441 Q395.7656,656.0566 395.6563,655.541 Q395.6094,655.1816 395.4219,654.9941 Q395.0938,654.6191 394.4844,654.4004 Q393.875,654.1816 393.25,654.1816 Q392.4844,654.1816 391.8438,654.5098 Q391.2188,654.8379 390.7188,655.5879 Q390.2344,656.3379 390.2344,657.3691 L390.2344,658.4629 Q390.2344,659.6973 391.125,660.5254 Q392.0156,661.3379 393.6094,661.3379 Q394.5469,661.3379 395.2031,661.0879 Q395.5938,660.9316 396.0156,660.4941 Q396.2813,660.2285 396.4219,660.1504 Q396.5781,660.0723 396.7813,660.0723 Q397.1094,660.0723 397.3594,660.3379 Q397.625,660.5879 397.625,660.9316 Q397.625,661.2754 397.2813,661.6816 Q396.7813,662.2598 395.9844,662.5879 Q394.9063,663.041 393.6094,663.041 Q392.0938,663.041 390.8906,662.416 Q389.9063,661.916 389.2188,660.8535 Q388.5313,659.7754 388.5313,658.4941 L388.5313,657.3379 Q388.5313,656.0098 389.1406,654.8691 Q389.7656,653.7129 390.8594,653.1035 Q391.9531,652.4785 393.1875,652.4785 Q393.9219,652.4785 394.5625,652.6504 Q395.2188,652.8066 395.7656,653.166 Z " fill="#000000"/><text fill="#000000" font-family="sans-serif" font-size="12" font-style="italic" lengthAdjust="spacing" textLength="44" x="416" y="652.9492">&#171;value&#187;</text><text fill="#000000" font-family="sans-serif" font-size="14" lengthAdjust="spacing" textLength="62" x="407" y="671.0684">UserState</text><line style="stroke:#181818;stroke-width:0.5;" x1="379" x2="471" y1="679.582" y2="679.582"/><line style="stroke:#181818;stroke-width:0.5;" x1="379" x2="471" y1="687.582" y2="687.582"/></g><!--class ShortName--><g id="elem_ShortName"><rect codeLine="32" fill="#F1F1F1" height="60.582" id="ShortName" rx="2.5" ry="2.5" style="stroke:#181818;stroke-width:0.5;" width="102" x="114" y="635"/><ellipse cx="129" cy="657.291" fill="#ADD1B2" rx="11" ry="11" style="stroke:#181818;stroke-width:1.0;"/><path d="M131.7656,653.166 Q131.9219,652.9473 132.1094,652.8379 Q132.2969,652.7285 132.5156,652.7285 Q132.8906,652.7285 133.125,652.9941 Q133.3594,653.2441 133.3594,653.8535 L133.3594,655.3066 Q133.3594,655.916 133.125,656.1816 Q132.8906,656.4473 132.5156,656.4473 Q132.1719,656.4473 131.9688,656.2441 Q131.7656,656.0566 131.6563,655.541 Q131.6094,655.1816 131.4219,654.9941 Q131.0938,654.6191 130.4844,654.4004 Q129.875,654.1816 129.25,654.1816 Q128.4844,654.1816 127.8438,654.5098 Q127.2188,654.8379 126.7188,655.5879 Q126.2344,656.3379 126.2344,657.3691 L126.2344,658.4629 Q126.2344,659.6973 127.125,660.5254 Q128.0156,661.3379 129.6094,661.3379 Q130.5469,661.3379 131.2031,661.0879 Q131.5938,660.9316 132.0156,660.4941 Q132.2813,660.2285 132.4219,660.1504 Q132.5781,660.0723 132.7813,660.0723 Q133.1094,660.0723 133.3594,660.3379 Q133.625,660.5879 133.625,660.9316 Q133.625,661.2754 133.2813,661.6816 Q132.7813,662.2598 131.9844,662.5879 Q130.9063,663.041 129.6094,663.041 Q128.0938,663.041 126.8906,662.416 Q125.9063,661.916 125.2188,660.8535 Q124.5313,659.7754 124.5313,658.4941 L124.5313,657.3379 Q124.5313,656.0098 125.1406,654.8691 Q125.7656,653.7129 126.8594,653.1035 Q127.9531,652.4785 129.1875,652.4785 Q129.9219,652.4785 130.5625,652.6504 Q131.2188,652.8066 131.7656,653.166 Z " fill="#000000"/><text fill="#000000" font-family="sans-serif" font-size="12" font-style="italic" lengthAdjust="spacing" textLength="44" x="156" y="652.9492">&#171;value&#187;</text><text fill="#000000" font-family="sans-serif" font-size="14" lengthAdjust="spacing" textLength="70" x="143" y="671.0684">ShortName</text><line style="stroke:#181818;stroke-width:0.5;" x1="115" x2="215" y1="679.582" y2="679.582"/><line style="stroke:#181818;stroke-width:0.5;" x1="115" x2="215" y1="687.582" y2="687.582"/></g><!--class FullName--><g id="elem_FullName"><rect codeLine="35" fill="#F1F1F1" height="60.582" id="FullName" rx="2.5" ry="2.5" style="stroke:#181818;stroke-width:0.5;" width="91" x="251.5" y="635"/><ellipse cx="266.5" cy="657.291" fill="#ADD1B2" rx="11" ry="11" style="stroke:#181818;stroke-width:1.0;"/><path d="M269.2656,653.166 Q269.4219,652.9473 269.6094,652.8379 Q269.7969,652.7285 270.0156,652.7285 Q270.3906,652.7285 270.625,652.9941 Q270.8594,653.2441 270.8594,653.8535 L270.8594,655.3066 Q270.8594,655.916 270.625,656.1816 Q270.3906,656.4473 270.0156,656.4473 Q269.6719,656.4473 269.4688,656.2441 Q269.2656,656.0566 269.1563,655.541 Q269.1094,655.1816 268.9219,654.9941 Q268.5938,654.6191 267.9844,654.4004 Q267.375,654.1816 266.75,654.1816 Q265.9844,654.1816 265.3438,654.5098 Q264.7188,654.8379 264.2188,655.5879 Q263.7344,656.3379 263.7344,657.3691 L263.7344,658.4629 Q263.7344,659.6973 264.625,660.5254 Q265.5156,661.3379 267.1094,661.3379 Q268.0469,661.3379 268.7031,661.0879 Q269.0938,660.9316 269.5156,660.4941 Q269.7813,660.2285 269.9219,660.1504 Q270.0781,660.0723 270.2813,660.0723 Q270.6094,660.0723 270.8594,660.3379 Q271.125,660.5879 271.125,660.9316 Q271.125,661.2754 270.7813,661.6816 Q270.2813,662.2598 269.4844,662.5879 Q268.4063,663.041 267.1094,663.041 Q265.5938,663.041 264.3906,662.416 Q263.4063,661.916 262.7188,660.8535 Q262.0313,659.7754 262.0313,658.4941 L262.0313,657.3379 Q262.0313,656.0098 262.6406,654.8691 Q263.2656,653.7129 264.3594,653.1035 Q265.4531,652.4785 266.6875,652.4785 Q267.4219,652.4785 268.0625,652.6504 Q268.7188,652.8066 269.2656,653.166 Z " fill="#000000"/><text fill="#000000" font-family="sans-serif" font-size="12" font-style="italic" lengthAdjust="spacing" textLength="44" x="288" y="652.9492">&#171;value&#187;</text><text fill="#000000" font-family="sans-serif" font-size="14" lengthAdjust="spacing" textLength="59" x="280.5" y="671.0684">FullName</text><line style="stroke:#181818;stroke-width:0.5;" x1="252.5" x2="341.5" y1="679.582" y2="679.582"/><line style="stroke:#181818;stroke-width:0.5;" x1="252.5" x2="341.5" y1="687.582" y2="687.582"/></g><!--class Email--><g id="elem_Email"><rect codeLine="38" fill="#F1F1F1" height="60.582" id="Email" rx="2.5" ry="2.5" style="stroke:#181818;stroke-width:0.5;" width="72" x="507" y="635"/><ellipse cx="522" cy="657.291" fill="#ADD1B2" rx="11" ry="11" style="stroke:#181818;stroke-width:1.0;"/><path d="M524.7656,653.166 Q524.9219,652.9473 525.1094,652.8379 Q525.2969,652.7285 525.5156,652.7285 Q525.8906,652.7285 526.125,652.9941 Q526.3594,653.2441 526.3594,653.8535 L526.3594,655.3066 Q526.3594,655.916 526.125,656.1816 Q525.8906,656.4473 525.5156,656.4473 Q525.1719,656.4473 524.9688,656.2441 Q524.7656,656.0566 524.6563,655.541 Q524.6094,655.1816 524.4219,654.9941 Q524.0938,654.6191 523.4844,654.4004 Q522.875,654.1816 522.25,654.1816 Q521.4844,654.1816 520.8438,654.5098 Q520.2188,654.8379 519.7188,655.5879 Q519.2344,656.3379 519.2344,657.3691 L519.2344,658.4629 Q519.2344,659.6973 520.125,660.5254 Q521.0156,661.3379 522.6094,661.3379 Q523.5469,661.3379 524.2031,661.0879 Q524.5938,660.9316 525.0156,660.4941 Q525.2813,660.2285 525.4219,660.1504 Q525.5781,660.0723 525.7813,660.0723 Q526.1094,660.0723 526.3594,660.3379 Q526.625,660.5879 526.625,660.9316 Q526.625,661.2754 526.2813,661.6816 Q525.7813,662.2598 524.9844,662.5879 Q523.9063,663.041 522.6094,663.041 Q521.0938,663.041 519.8906,662.416 Q518.9063,661.916 518.2188,660.8535 Q517.5313,659.7754 517.5313,658.4941 L517.5313,657.3379 Q517.5313,656.0098 518.1406,654.8691 Q518.7656,653.7129 519.8594,653.1035 Q520.9531,652.4785 522.1875,652.4785 Q522.9219,652.4785 523.5625,652.6504 Q524.2188,652.8066 524.7656,653.166 Z " fill="#000000"/><text fill="#000000" font-family="sans-serif" font-size="12" font-style="italic" lengthAdjust="spacing" textLength="44" x="534" y="652.9492">&#171;value&#187;</text><text fill="#000000" font-family="sans-serif" font-size="14" lengthAdjust="spacing" textLength="34" x="539" y="671.0684">Email</text><line style="stroke:#181818;stroke-width:0.5;" x1="508" x2="578" y1="679.582" y2="679.582"/><line style="stroke:#181818;stroke-width:0.5;" x1="508" x2="578" y1="687.582" y2="687.582"/></g><!--class Password--><g id="elem_Password"><rect codeLine="41" fill="#F1F1F1" height="60.582" id="Password" rx="2.5" ry="2.5" style="stroke:#181818;stroke-width:0.5;" width="93" x="685.5" y="635"/><ellipse cx="700.5" cy="657.291" fill="#ADD1B2" rx="11" ry="11" style="stroke:#181818;stroke-width:1.0;"/><path d="M703.2656,653.166 Q703.4219,652.9473 703.6094,652.8379 Q703.7969,652.7285 704.0156,652.7285 Q704.3906,652.7285 704.625,652.9941 Q704.8594,653.2441 704.8594,653.8535 L704.8594,655.3066 Q704.8594,655.916 704.625,656.1816 Q704.3906,656.4473 704.0156,656.4473 Q703.6719,656.4473 703.4688,656.2441 Q703.2656,656.0566 703.1563,655.541 Q703.1094,655.1816 702.9219,654.9941 Q702.5938,654.6191 701.9844,654.4004 Q701.375,654.1816 700.75,654.1816 Q699.9844,654.1816 699.3438,654.5098 Q698.7188,654.8379 698.2188,655.5879 Q697.7344,656.3379 697.7344,657.3691 L697.7344,658.4629 Q697.7344,659.6973 698.625,660.5254 Q699.5156,661.3379 701.1094,661.3379 Q702.0469,661.3379 702.7031,661.0879 Q703.0938,660.9316 703.5156,660.4941 Q703.7813,660.2285 703.9219,660.1504 Q704.0781,660.0723 704.2813,660.0723 Q704.6094,660.0723 704.8594,660.3379 Q705.125,660.5879 705.125,660.9316 Q705.125,661.2754 704.7813,661.6816 Q704.2813,662.2598 703.4844,662.5879 Q702.4063,663.041 701.1094,663.041 Q699.5938,663.041 698.3906,662.416 Q697.4063,661.916 696.7188,660.8535 Q696.0313,659.7754 696.0313,658.4941 L696.0313,657.3379 Q696.0313,656.0098 696.6406,654.8691 Q697.2656,653.7129 698.3594,653.1035 Q699.4531,652.4785 700.6875,652.4785 Q701.4219,652.4785 702.0625,652.6504 Q702.7188,652.8066 703.2656,653.166 Z " fill="#000000"/><text fill="#000000" font-family="sans-serif" font-size="12" font-style="italic" lengthAdjust="spacing" textLength="44" x="723" y="652.9492">&#171;value&#187;</text><text fill="#000000" font-family="sans-serif" font-size="14" lengthAdjust="spacing" textLength="61" x="714.5" y="671.0684">Password</text><line style="stroke:#181818;stroke-width:0.5;" x1="686.5" x2="777.5" y1="679.582" y2="679.582"/><line style="stroke:#181818;stroke-width:0.5;" x1="686.5" x2="777.5" y1="687.582" y2="687.582"/></g><!--class Role--><g id="elem_Role"><rect codeLine="44" fill="#F1F1F1" height="60.582" id="Role" rx="2.5" ry="2.5" style="stroke:#181818;stroke-width:0.5;" width="72" x="7" y="635"/><ellipse cx="22" cy="657.291" fill="#EB937F" rx="11" ry="11" style="stroke:#181818;stroke-width:1.0;"/><path d="M20.8594,658.0879 L20.8594,660.5879 L25.1875,660.5879 L25.1875,659.666 Q25.1875,659.0566 25.4219,658.791 Q25.6719,658.5254 26.0469,658.5254 Q26.4219,658.5254 26.6563,658.791 Q26.8906,659.0566 26.8906,659.666 L26.8906,662.291 L18.8906,662.291 Q18.2656,662.291 18,662.0566 Q17.75,661.8223 17.75,661.4316 Q17.75,661.0566 18.0156,660.8223 Q18.2813,660.5879 18.8906,660.5879 L19.1563,660.5879 L19.1563,653.9316 L18.8906,653.9316 Q18.2656,653.9316 18,653.6973 Q17.75,653.4629 17.75,653.0723 Q17.75,652.6973 18,652.4629 Q18.2656,652.2285 18.8906,652.2285 L26.5156,652.2285 L26.5156,654.8223 Q26.5156,655.4316 26.2813,655.6973 Q26.0625,655.9473 25.6719,655.9473 Q25.2969,655.9473 25.0625,655.6973 Q24.8281,655.4316 24.8281,654.8223 L24.8281,653.9316 L20.8594,653.9316 L20.8594,656.3848 L22.3438,656.3848 Q22.3438,655.7285 22.4688,655.541 Q22.7344,655.1348 23.2031,655.1348 Q23.5781,655.1348 23.8125,655.4004 Q24.0469,655.6504 24.0469,656.2598 L24.0469,658.2285 Q24.0469,658.7754 23.9219,658.9629 Q23.6563,659.3535 23.2031,659.3535 Q22.7344,659.3535 22.4688,658.9473 Q22.3438,658.7598 22.3438,658.0879 L20.8594,658.0879 Z " fill="#000000"/><text fill="#000000" font-family="sans-serif" font-size="12" font-style="italic" lengthAdjust="spacing" textLength="44" x="34" y="652.9492">&#171;value&#187;</text><text fill="#000000" font-family="sans-serif" font-size="14" lengthAdjust="spacing" textLength="29" x="41.5" y="671.0684">Role</text><line style="stroke:#181818;stroke-width:0.5;" x1="8" x2="78" y1="679.582" y2="679.582"/><line style="stroke:#181818;stroke-width:0.5;" x1="8" x2="78" y1="687.582" y2="687.582"/></g><!--link User to ShortName--><g id="link_User_ShortName"><path codeLine="50" d="M364.36,561.8 C327.45,580.81 265.74,612.6 220.74,635.79 " fill="none" id="User-to-ShortName" style="stroke:#181818;stroke-width:1.0;"/><polygon fill="#181818" points="216.16,638.14,225.9929,637.5796,220.6061,635.8526,222.3331,630.4658,216.16,638.14" style="stroke:#181818;stroke-width:1.0;"/></g><!--link User to FullName--><g id="link_User_FullName"><path codeLine="51" d="M371.27,575.22 C357.22,592.12 339.57,613.33 325,630.84 " fill="none" id="User-to-FullName" style="stroke:#181818;stroke-width:1.0;"/><polygon fill="#181818" points="321.75,634.74,330.583,630.3835,324.9495,630.8977,324.4353,625.2643,321.75,634.74" style="stroke:#181818;stroke-width:1.0;"/></g><!--link User to Email--><g id="link_User_Email"><path codeLine="52" d="M427.54,571.03 C449.55,588.85 479.11,612.78 502.81,631.96 " fill="none" id="User-to-Email" style="stroke:#181818;stroke-width:1.0;"/><polygon fill="#181818" points="506.86,635.24,502.3973,626.4602,502.9794,632.087,497.3526,632.6691,506.86,635.24" style="stroke:#181818;stroke-width:1.0;"/></g><!--link User to Password--><g id="link_User_Password"><path codeLine="53" d="M427.61,556.7 C485.68,577.26 609.84,621.23 680.33,646.2 " fill="none" id="User-to-Password" style="stroke:#181818;stroke-width:1.0;"/><polygon fill="#181818" points="685.31,647.96,678.164,641.1825,680.5974,646.2892,675.4907,648.7226,685.31,647.96" style="stroke:#181818;stroke-width:1.0;"/></g><!--link User to UserState--><g id="link_User_UserState"><path codeLine="54" d="M403.24,575.22 C407.26,591.69 412.27,612.26 416.47,629.51 " fill="none" id="User-to-UserState" style="stroke:#181818;stroke-width:1.0;"/><polygon fill="#181818" points="417.75,634.74,419.5081,625.0493,416.5675,629.8818,411.735,626.9413,417.75,634.74" style="stroke:#181818;stroke-width:1.0;"/></g><!--link User to Role--><g id="link_User_Role"><path codeLine="55" d="M364.42,562.89 C355.7,567.24 346.13,571.63 337,575 C233.46,613.25 198.67,594.47 96,635 C91.99,636.58 87.9,638.42 83.87,640.38 " fill="none" id="User-to-Role" style="stroke:#181818;stroke-width:1.0;"/><polygon fill="#181818" points="79.17,642.73,89.0081,642.2702,83.6393,640.4882,85.4213,635.1194,79.17,642.73" style="stroke:#181818;stroke-width:1.0;"/></g><!--link AuthenticationService to AuthorizationService--><g id="link_AuthenticationService_AuthorizationService"><path codeLine="58" d="M431.44,205.39 C389.29,223.78 338.22,246.07 294.97,264.94 " fill="none" id="AuthenticationService-to-AuthorizationService" style="stroke:#181818;stroke-width:1.0;stroke-dasharray:7.0,7.0;"/><polygon fill="#181818" points="290.27,266.99,300.1186,267.0585,294.8531,264.9912,296.9205,259.7256,290.27,266.99" style="stroke:#181818;stroke-width:1.0;"/></g><!--link AuthenticationService to Email--><g id="link_AuthenticationService_Email"><path codeLine="59" d="M518.1,207.01 C523.2,300.74 536.2,539.64 541.1,629.56 " fill="none" id="AuthenticationService-to-Email" style="stroke:#181818;stroke-width:1.0;stroke-dasharray:7.0,7.0;"/><polygon fill="#181818" points="541.38,634.75,544.8863,625.5464,541.109,629.7574,536.898,625.9801,541.38,634.75" style="stroke:#181818;stroke-width:1.0;"/></g><!--link AuthenticationService to Password--><g id="link_AuthenticationService_Password"><path codeLine="60" d="M593.99,207.01 C617.98,222.5 642.19,242.56 658,267 C733.21,383.27 736.45,556.38 733.98,629.69 " fill="none" id="AuthenticationService-to-Password" style="stroke:#181818;stroke-width:1.0;stroke-dasharray:7.0,7.0;"/><polygon fill="#181818" points="733.79,634.79,738.1222,625.9451,733.9761,629.7935,730.1278,625.6473,733.79,634.79" style="stroke:#181818;stroke-width:1.0;"/></g><!--link AuthenticationService to UserState--><g id="link_AuthenticationService_UserState"><path codeLine="61" d="M509.89,207 C498.29,279.31 471.8,440.27 445,575 C441.4,593.11 436.95,613.19 433.17,629.73 " fill="none" id="AuthenticationService-to-UserState" style="stroke:#181818;stroke-width:1.0;stroke-dasharray:7.0,7.0;"/><polygon fill="#181818" points="432.02,634.74,437.9261,626.8585,433.1349,629.8659,430.1275,625.0747,432.02,634.74" style="stroke:#181818;stroke-width:1.0;"/></g><!--link AuthenticationService to Role--><g id="link_AuthenticationService_Role"><path codeLine="62" d="M488.61,207.32 C447.79,264.06 367.27,371.83 288,454 C221.16,523.29 133.79,594.31 83.48,633.58 " fill="none" id="AuthenticationService-to-Role" style="stroke:#181818;stroke-width:1.0;stroke-dasharray:7.0,7.0;"/><polygon fill="#181818" points="79.33,636.82,88.8828,634.4232,83.2675,633.7385,83.9523,628.1232,79.33,636.82" style="stroke:#181818;stroke-width:1.0;"/></g><!--link AuthenticationService to PasswordPolicy--><g id="link_AuthenticationService_PasswordPolicy"><path codeLine="63" d="M545.57,207.16 C579.94,256.04 632,344.1 632,429 C632,429 632,429 632,545.5 C632,618.63 638.09,704.1 641.94,750.75 " fill="none" id="AuthenticationService-to-PasswordPolicy" style="stroke:#181818;stroke-width:1.0;stroke-dasharray:7.0,7.0;"/><polygon fill="#181818" points="642.37,755.97,645.611,746.6697,641.956,750.9872,637.6385,747.3321,642.37,755.97" style="stroke:#181818;stroke-width:1.0;"/></g><!--link AuthenticationService to PasswordEncoder--><g id="link_AuthenticationService_PasswordEncoder"><path codeLine="64" d="M600.68,196.68 C694.29,233.8 832,308.84 832,429 C832,429 832,429 832,545.5 C832,618.55 828.72,704.05 826.65,750.73 " fill="none" id="AuthenticationService-to-PasswordEncoder" style="stroke:#181818;stroke-width:1.0;stroke-dasharray:7.0,7.0;"/><polygon fill="#181818" points="826.42,755.95,830.8017,747.1295,826.6341,750.9546,822.809,746.787,826.42,755.95" style="stroke:#181818;stroke-width:1.0;"/></g><!--link AuthorizationService to UserSession--><g id="link_AuthorizationService_UserSession"><path codeLine="67" d="M206.15,346.28 C208.03,363.87 210.22,384.31 211.95,400.47 " fill="none" id="AuthorizationService-to-UserSession" style="stroke:#181818;stroke-width:1.0;"/><polygon fill="#181818" points="212.51,405.77,215.536,396.3975,211.9814,400.798,207.5809,397.2433,212.51,405.77" style="stroke:#181818;stroke-width:1.0;"/></g><!--link UserSession to User--><g id="link_UserSession_User"><path codeLine="70" d="M252.06,454.04 C283.61,473.64 328.65,501.64 359.91,521.07 " fill="none" id="UserSession-to-User" style="stroke:#181818;stroke-width:1.0;"/><polygon fill="#181818" points="364.42,523.87,358.8957,515.7164,360.176,521.2264,354.6659,522.5068,364.42,523.87" style="stroke:#181818;stroke-width:1.0;"/></g><!--link Password to PasswordPolicy--><g id="link_Password_PasswordPolicy"><path codeLine="74" d="M710.27,696.22 C698.02,712.98 682.67,733.97 669.93,751.4 " fill="none" id="Password-to-PasswordPolicy" style="stroke:#181818;stroke-width:1.0;stroke-dasharray:7.0,7.0;"/><polygon fill="#181818" points="666.75,755.74,675.2806,750.8176,669.6926,751.6976,668.8126,746.1096,666.75,755.74" style="stroke:#181818;stroke-width:1.0;"/></g><!--link Password to PasswordEncoder--><g id="link_Password_PasswordEncoder"><path codeLine="75" d="M755.23,696.22 C768.32,712.98 784.73,733.97 798.35,751.4 " fill="none" id="Password-to-PasswordEncoder" style="stroke:#181818;stroke-width:1.0;stroke-dasharray:7.0,7.0;"/><polygon fill="#181818" points="801.75,755.74,799.3748,746.1819,798.6773,751.7955,793.0636,751.0981,801.75,755.74" style="stroke:#181818;stroke-width:1.0;"/></g><!--link AuthzRegistry to AuthenticationService--><g id="link_AuthzRegistry_AuthenticationService"><path codeLine="77" d="M427.67,68.19 C442.48,84.67 461.15,105.45 477.51,123.66 " fill="none" id="AuthzRegistry-to-AuthenticationService" style="stroke:#181818;stroke-width:1.0;"/><polygon fill="#181818" points="481.18,127.75,478.1325,118.3845,477.8352,124.0335,472.1861,123.7362,481.18,127.75" style="stroke:#181818;stroke-width:1.0;"/></g><!--link AuthzRegistry to AuthorizationService--><g id="link_AuthzRegistry_AuthorizationService"><path codeLine="78" d="M378.94,68.09 C343.73,115.33 274.67,208 234.02,262.54 " fill="none" id="AuthzRegistry-to-AuthorizationService" style="stroke:#181818;stroke-width:1.0;"/><polygon fill="#181818" points="230.9,266.73,239.4807,261.8957,233.884,262.718,233.0616,257.1213,230.9,266.73" style="stroke:#181818;stroke-width:1.0;"/></g><!--SRC=[ZLJBRi8m4BpdA_O6g88lGAbweEgf82BKit6smPMnaTUX2bN_lNPUJlCepI4AExFZtSaGBXaHFENsTDjZ9iYQ0jRhWnLIs2AEuIlwZg8P96YkWYD5lEMZie8pAxIgGTT7rLFP1-vw01QOE5zuiQ2WZRZT5K15kS630ruORHLkt_TQ8dMrTkxsgKswKLodQ7eo0zfEIy6BAPO_AK4YDrPLTjlx6h0iCvYvDJf49sAqjYCArX4TUcKoxnsGkBtjApjFmC-vbDFevio478UQzVeeglmCthC-q6vMLa4VFv1RYihISXc7GKEf6IvKoe72psQ8K6dT22K_Z3_yxSGif1gfcnBlUqxu68rdRBMAHxFp1xqQSHflPvwcX2McEULMzq-fqlSFOftceL7jwd1YrzgemL-fjRwASa_5Eso0wfXNCjtWDztzjakJiV8DpM2U2EKE4zPf41np4iefWDIPu61owPjK2fofcOKZGYgCovWi_FC53Rdl3QQBg8tkY56ZMElDxm-N7tlKs0dU84J- -W40]--></g></svg>