<?xml version="1.0" encoding="us-ascii" standalone="no"?><svg xmlns="http://www.w3.org/2000/svg" xmlns:xlink="http://www.w3.org/1999/xlink" contentStyleType="text/css" height="702px" preserveAspectRatio="none" style="width:831px;height:702px;background:#FFFFFF;" version="1.1" viewBox="0 0 831 702" width="831px" zoomAndPan="magnify"><defs/><g><!--class AuthenticationService--><g id="elem_AuthenticationService"><rect codeLine="4" fill="#F1F1F1" height="79.2031" id="AuthenticationService" rx="2.5" ry="2.5" style="stroke:#181818;stroke-width:0.5;" width="169" x="458.11" y="7"/><ellipse cx="473.11" cy="29.291" fill="#ADD1B2" rx="11" ry="11" style="stroke:#181818;stroke-width:1.0;"/><path d="M475.8756,25.166 Q476.0319,24.9473 476.2194,24.8379 Q476.4069,24.7285 476.6256,24.7285 Q477.0006,24.7285 477.235,24.9941 Q477.4694,25.2441 477.4694,25.8535 L477.4694,27.3066 Q477.4694,27.916 477.235,28.1816 Q477.0006,28.4473 476.6256,28.4473 Q476.2819,28.4473 476.0788,28.2441 Q475.8756,28.0566 475.7663,27.541 Q475.7194,27.1816 475.5319,26.9941 Q475.2038,26.6191 474.5944,26.4004 Q473.985,26.1816 473.36,26.1816 Q472.5944,26.1816 471.9538,26.5098 Q471.3288,26.8379 470.8288,27.5879 Q470.3444,28.3379 470.3444,29.3691 L470.3444,30.4629 Q470.3444,31.6973 471.235,32.5254 Q472.1256,33.3379 473.7194,33.3379 Q474.6569,33.3379 475.3131,33.0879 Q475.7038,32.9316 476.1256,32.4941 Q476.3913,32.2285 476.5319,32.1504 Q476.6881,32.0723 476.8913,32.0723 Q477.2194,32.0723 477.4694,32.3379 Q477.735,32.5879 477.735,32.9316 Q477.735,33.2754 477.3913,33.6816 Q476.8913,34.2598 476.0944,34.5879 Q475.0163,35.041 473.7194,35.041 Q472.2038,35.041 471.0006,34.416 Q470.0163,33.916 469.3288,32.8535 Q468.6413,31.7754 468.6413,30.4941 L468.6413,29.3379 Q468.6413,28.0098 469.2506,26.8691 Q469.8756,25.7129 470.9694,25.1035 Q472.0631,24.4785 473.2975,24.4785 Q474.0319,24.4785 474.6725,24.6504 Q475.3288,24.8066 475.8756,25.166 Z " fill="#000000"/><text fill="#000000" font-family="sans-serif" font-size="12" font-style="italic" lengthAdjust="spacing" textLength="53" x="529.11" y="24.9492">&#171;service&#187;</text><text fill="#000000" font-family="sans-serif" font-size="14" lengthAdjust="spacing" textLength="137" x="487.11" y="43.0684">AuthenticationService</text><line style="stroke:#181818;stroke-width:0.5;" x1="459.11" x2="626.11" y1="51.582" y2="51.582"/><line style="stroke:#181818;stroke-width:0.5;" x1="459.11" x2="626.11" y1="59.582" y2="59.582"/><ellipse cx="469.11" cy="74.3926" fill="#84BE84" rx="3" ry="3" style="stroke:#038048;stroke-width:1.0;"/><text fill="#000000" font-family="sans-serif" font-size="14" lengthAdjust="spacing" textLength="88" x="478.11" y="78.6895">authenticate()</text></g><!--class AuthorizationService--><g id="elem_AuthorizationService"><rect codeLine="8" fill="#F1F1F1" height="79.2031" id="AuthorizationService" rx="2.5" ry="2.5" style="stroke:#181818;stroke-width:0.5;" width="211" x="278.11" y="146"/><ellipse cx="315.61" cy="168.291" fill="#ADD1B2" rx="11" ry="11" style="stroke:#181818;stroke-width:1.0;"/><path d="M318.3756,164.166 Q318.5319,163.9473 318.7194,163.8379 Q318.9069,163.7285 319.1256,163.7285 Q319.5006,163.7285 319.735,163.9941 Q319.9694,164.2441 319.9694,164.8535 L319.9694,166.3066 Q319.9694,166.916 319.735,167.1816 Q319.5006,167.4473 319.1256,167.4473 Q318.7819,167.4473 318.5788,167.2441 Q318.3756,167.0566 318.2663,166.541 Q318.2194,166.1816 318.0319,165.9941 Q317.7038,165.6191 317.0944,165.4004 Q316.485,165.1816 315.86,165.1816 Q315.0944,165.1816 314.4538,165.5098 Q313.8288,165.8379 313.3288,166.5879 Q312.8444,167.3379 312.8444,168.3691 L312.8444,169.4629 Q312.8444,170.6973 313.735,171.5254 Q314.6256,172.3379 316.2194,172.3379 Q317.1569,172.3379 317.8131,172.0879 Q318.2038,171.9316 318.6256,171.4941 Q318.8913,171.2285 319.0319,171.1504 Q319.1881,171.0723 319.3913,171.0723 Q319.7194,171.0723 319.9694,171.3379 Q320.235,171.5879 320.235,171.9316 Q320.235,172.2754 319.8913,172.6816 Q319.3913,173.2598 318.5944,173.5879 Q317.5163,174.041 316.2194,174.041 Q314.7038,174.041 313.5006,173.416 Q312.5163,172.916 311.8288,171.8535 Q311.1413,170.7754 311.1413,169.4941 L311.1413,168.3379 Q311.1413,167.0098 311.7506,165.8691 Q312.3756,164.7129 313.4694,164.1035 Q314.5631,163.4785 315.7975,163.4785 Q316.5319,163.4785 317.1725,163.6504 Q317.8288,163.8066 318.3756,164.166 Z " fill="#000000"/><text fill="#000000" font-family="sans-serif" font-size="12" font-style="italic" lengthAdjust="spacing" textLength="53" x="372.61" y="163.9492">&#171;service&#187;</text><text fill="#000000" font-family="sans-serif" font-size="14" lengthAdjust="spacing" textLength="129" x="334.61" y="182.0684">AuthorizationService</text><line style="stroke:#181818;stroke-width:0.5;" x1="279.11" x2="488.11" y1="190.582" y2="190.582"/><line style="stroke:#181818;stroke-width:0.5;" x1="279.11" x2="488.11" y1="198.582" y2="198.582"/><ellipse cx="289.11" cy="213.3926" fill="#84BE84" rx="3" ry="3" style="stroke:#038048;stroke-width:1.0;"/><text fill="#000000" font-family="sans-serif" font-size="14" lengthAdjust="spacing" textLength="185" x="298.11" y="217.6895">ensureUserHasOneOfRoles()</text></g><!--class PasswordEncoder--><g id="elem_PasswordEncoder"><rect codeLine="12" fill="#F1F1F1" height="60.582" id="PasswordEncoder" rx="2.5" ry="2.5" style="stroke:#181818;stroke-width:0.5;" width="146" x="261.61" y="635"/><ellipse cx="276.61" cy="657.291" fill="#ADD1B2" rx="11" ry="11" style="stroke:#181818;stroke-width:1.0;"/><path d="M279.3756,653.166 Q279.5319,652.9473 279.7194,652.8379 Q279.9069,652.7285 280.1256,652.7285 Q280.5006,652.7285 280.735,652.9941 Q280.9694,653.2441 280.9694,653.8535 L280.9694,655.3066 Q280.9694,655.916 280.735,656.1816 Q280.5006,656.4473 280.1256,656.4473 Q279.7819,656.4473 279.5788,656.2441 Q279.3756,656.0566 279.2663,655.541 Q279.2194,655.1816 279.0319,654.9941 Q278.7038,654.6191 278.0944,654.4004 Q277.485,654.1816 276.86,654.1816 Q276.0944,654.1816 275.4538,654.5098 Q274.8288,654.8379 274.3288,655.5879 Q273.8444,656.3379 273.8444,657.3691 L273.8444,658.4629 Q273.8444,659.6973 274.735,660.5254 Q275.6256,661.3379 277.2194,661.3379 Q278.1569,661.3379 278.8131,661.0879 Q279.2038,660.9316 279.6256,660.4941 Q279.8913,660.2285 280.0319,660.1504 Q280.1881,660.0723 280.3913,660.0723 Q280.7194,660.0723 280.9694,660.3379 Q281.235,660.5879 281.235,660.9316 Q281.235,661.2754 280.8913,661.6816 Q280.3913,662.2598 279.5944,662.5879 Q278.5163,663.041 277.2194,663.041 Q275.7038,663.041 274.5006,662.416 Q273.5163,661.916 272.8288,660.8535 Q272.1413,659.7754 272.1413,658.4941 L272.1413,657.3379 Q272.1413,656.0098 272.7506,654.8691 Q273.3756,653.7129 274.4694,653.1035 Q275.5631,652.4785 276.7975,652.4785 Q277.5319,652.4785 278.1725,652.6504 Q278.8288,652.8066 279.3756,653.166 Z " fill="#000000"/><text fill="#000000" font-family="sans-serif" font-size="12" font-style="italic" lengthAdjust="spacing" textLength="53" x="321.11" y="652.9492">&#171;service&#187;</text><text fill="#000000" font-family="sans-serif" font-size="14" lengthAdjust="spacing" textLength="114" x="290.61" y="671.0684">PasswordEncoder</text><line style="stroke:#181818;stroke-width:0.5;" x1="262.61" x2="406.61" y1="679.582" y2="679.582"/><line style="stroke:#181818;stroke-width:0.5;" x1="262.61" x2="406.61" y1="687.582" y2="687.582"/></g><!--class PasswordPolicy--><g id="elem_PasswordPolicy"><rect codeLine="15" fill="#F1F1F1" height="60.582" id="PasswordPolicy" rx="2.5" ry="2.5" style="stroke:#181818;stroke-width:0.5;" width="130" x="655.61" y="635"/><ellipse cx="670.61" cy="657.291" fill="#ADD1B2" rx="11" ry="11" style="stroke:#181818;stroke-width:1.0;"/><path d="M673.3756,653.166 Q673.5319,652.9473 673.7194,652.8379 Q673.9069,652.7285 674.1256,652.7285 Q674.5006,652.7285 674.735,652.9941 Q674.9694,653.2441 674.9694,653.8535 L674.9694,655.3066 Q674.9694,655.916 674.735,656.1816 Q674.5006,656.4473 674.1256,656.4473 Q673.7819,656.4473 673.5788,656.2441 Q673.3756,656.0566 673.2663,655.541 Q673.2194,655.1816 673.0319,654.9941 Q672.7038,654.6191 672.0944,654.4004 Q671.485,654.1816 670.86,654.1816 Q670.0944,654.1816 669.4538,654.5098 Q668.8288,654.8379 668.3288,655.5879 Q667.8444,656.3379 667.8444,657.3691 L667.8444,658.4629 Q667.8444,659.6973 668.735,660.5254 Q669.6256,661.3379 671.2194,661.3379 Q672.1569,661.3379 672.8131,661.0879 Q673.2038,660.9316 673.6256,660.4941 Q673.8913,660.2285 674.0319,660.1504 Q674.1881,660.0723 674.3913,660.0723 Q674.7194,660.0723 674.9694,660.3379 Q675.235,660.5879 675.235,660.9316 Q675.235,661.2754 674.8913,661.6816 Q674.3913,662.2598 673.5944,662.5879 Q672.5163,663.041 671.2194,663.041 Q669.7038,663.041 668.5006,662.416 Q667.5163,661.916 666.8288,660.8535 Q666.1413,659.7754 666.1413,658.4941 L666.1413,657.3379 Q666.1413,656.0098 666.7506,654.8691 Q667.3756,653.7129 668.4694,653.1035 Q669.5631,652.4785 670.7975,652.4785 Q671.5319,652.4785 672.1725,652.6504 Q672.8288,652.8066 673.3756,653.166 Z " fill="#000000"/><text fill="#000000" font-family="sans-serif" font-size="12" font-style="italic" lengthAdjust="spacing" textLength="53" x="707.11" y="652.9492">&#171;service&#187;</text><text fill="#000000" font-family="sans-serif" font-size="14" lengthAdjust="spacing" textLength="98" x="684.61" y="671.0684">PasswordPolicy</text><line style="stroke:#181818;stroke-width:0.5;" x1="656.61" x2="784.61" y1="679.582" y2="679.582"/><line style="stroke:#181818;stroke-width:0.5;" x1="656.61" x2="784.61" y1="687.582" y2="687.582"/></g><!--class UserSession--><g id="elem_UserSession"><rect codeLine="18" fill="#F1F1F1" height="48" id="UserSession" rx="2.5" ry="2.5" style="stroke:#181818;stroke-width:0.5;" width="111" x="328.11" y="285"/><ellipse cx="343.11" cy="301" fill="#ADD1B2" rx="11" ry="11" style="stroke:#181818;stroke-width:1.0;"/><path d="M345.8756,296.875 Q346.0319,296.6563 346.2194,296.5469 Q346.4069,296.4375 346.6256,296.4375 Q347.0006,296.4375 347.235,296.7031 Q347.4694,296.9531 347.4694,297.5625 L347.4694,299.0156 Q347.4694,299.625 347.235,299.8906 Q347.0006,300.1563 346.6256,300.1563 Q346.2819,300.1563 346.0788,299.9531 Q345.8756,299.7656 345.7663,299.25 Q345.7194,298.8906 345.5319,298.7031 Q345.2038,298.3281 344.5944,298.1094 Q343.985,297.8906 343.36,297.8906 Q342.5944,297.8906 341.9538,298.2188 Q341.3288,298.5469 340.8288,299.2969 Q340.3444,300.0469 340.3444,301.0781 L340.3444,302.1719 Q340.3444,303.4063 341.235,304.2344 Q342.1256,305.0469 343.7194,305.0469 Q344.6569,305.0469 345.3131,304.7969 Q345.7038,304.6406 346.1256,304.2031 Q346.3913,303.9375 346.5319,303.8594 Q346.6881,303.7813 346.8913,303.7813 Q347.2194,303.7813 347.4694,304.0469 Q347.735,304.2969 347.735,304.6406 Q347.735,304.9844 347.3913,305.3906 Q346.8913,305.9688 346.0944,306.2969 Q345.0163,306.75 343.7194,306.75 Q342.2038,306.75 341.0006,306.125 Q340.0163,305.625 339.3288,304.5625 Q338.6413,303.4844 338.6413,302.2031 L338.6413,301.0469 Q338.6413,299.7188 339.2506,298.5781 Q339.8756,297.4219 340.9694,296.8125 Q342.0631,296.1875 343.2975,296.1875 Q344.0319,296.1875 344.6725,296.3594 Q345.3288,296.5156 345.8756,296.875 Z " fill="#000000"/><text fill="#000000" font-family="sans-serif" font-size="14" lengthAdjust="spacing" textLength="79" x="357.11" y="306.7969">UserSession</text><line style="stroke:#181818;stroke-width:0.5;" x1="329.11" x2="438.11" y1="317" y2="317"/><line style="stroke:#181818;stroke-width:0.5;" x1="329.11" x2="438.11" y1="325" y2="325"/></g><!--class User--><g id="elem_User"><rect codeLine="23" fill="#F1F1F1" height="60.582" id="User" rx="2.5" ry="2.5" style="stroke:#181818;stroke-width:0.5;" width="63" x="352.11" y="393"/><ellipse cx="367.11" cy="415.291" fill="#ADD1B2" rx="11" ry="11" style="stroke:#181818;stroke-width:1.0;"/><path d="M369.8756,411.166 Q370.0319,410.9473 370.2194,410.8379 Q370.4069,410.7285 370.6256,410.7285 Q371.0006,410.7285 371.235,410.9941 Q371.4694,411.2441 371.4694,411.8535 L371.4694,413.3066 Q371.4694,413.916 371.235,414.1816 Q371.0006,414.4473 370.6256,414.4473 Q370.2819,414.4473 370.0788,414.2441 Q369.8756,414.0566 369.7663,413.541 Q369.7194,413.1816 369.5319,412.9941 Q369.2038,412.6191 368.5944,412.4004 Q367.985,412.1816 367.36,412.1816 Q366.5944,412.1816 365.9538,412.5098 Q365.3288,412.8379 364.8288,413.5879 Q364.3444,414.3379 364.3444,415.3691 L364.3444,416.4629 Q364.3444,417.6973 365.235,418.5254 Q366.1256,419.3379 367.7194,419.3379 Q368.6569,419.3379 369.3131,419.0879 Q369.7038,418.9316 370.1256,418.4941 Q370.3913,418.2285 370.5319,418.1504 Q370.6881,418.0723 370.8913,418.0723 Q371.2194,418.0723 371.4694,418.3379 Q371.735,418.5879 371.735,418.9316 Q371.735,419.2754 371.3913,419.6816 Q370.8913,420.2598 370.0944,420.5879 Q369.0163,421.041 367.7194,421.041 Q366.2038,421.041 365.0006,420.416 Q364.0163,419.916 363.3288,418.8535 Q362.6413,417.7754 362.6413,416.4941 L362.6413,415.3379 Q362.6413,414.0098 363.2506,412.8691 Q363.8756,411.7129 364.9694,411.1035 Q366.0631,410.4785 367.2975,410.4785 Q368.0319,410.4785 368.6725,410.6504 Q369.3288,410.8066 369.8756,411.166 Z " fill="#000000"/><text fill="#000000" font-family="sans-serif" font-size="12" font-style="italic" lengthAdjust="spacing" textLength="35" x="379.11" y="410.9492">&#171;root&#187;</text><text fill="#000000" font-family="sans-serif" font-size="14" lengthAdjust="spacing" textLength="29" x="382.11" y="429.0684">User</text><line style="stroke:#181818;stroke-width:0.5;" x1="353.11" x2="414.11" y1="437.582" y2="437.582"/><line style="stroke:#181818;stroke-width:0.5;" x1="353.11" x2="414.11" y1="445.582" y2="445.582"/></g><!--class UserState--><g id="elem_UserState"><rect codeLine="26" fill="#F1F1F1" height="60.582" id="UserState" rx="2.5" ry="2.5" style="stroke:#181818;stroke-width:0.5;" width="94" x="70.61" y="514"/><ellipse cx="85.61" cy="536.291" fill="#ADD1B2" rx="11" ry="11" style="stroke:#181818;stroke-width:1.0;"/><path d="M88.3756,532.166 Q88.5319,531.9473 88.7194,531.8379 Q88.9069,531.7285 89.1256,531.7285 Q89.5006,531.7285 89.735,531.9941 Q89.9694,532.2441 89.9694,532.8535 L89.9694,534.3066 Q89.9694,534.916 89.735,535.1816 Q89.5006,535.4473 89.1256,535.4473 Q88.7819,535.4473 88.5788,535.2441 Q88.3756,535.0566 88.2663,534.541 Q88.2194,534.1816 88.0319,533.9941 Q87.7038,533.6191 87.0944,533.4004 Q86.485,533.1816 85.86,533.1816 Q85.0944,533.1816 84.4538,533.5098 Q83.8288,533.8379 83.3288,534.5879 Q82.8444,535.3379 82.8444,536.3691 L82.8444,537.4629 Q82.8444,538.6973 83.735,539.5254 Q84.6256,540.3379 86.2194,540.3379 Q87.1569,540.3379 87.8131,540.0879 Q88.2038,539.9316 88.6256,539.4941 Q88.8913,539.2285 89.0319,539.1504 Q89.1881,539.0723 89.3913,539.0723 Q89.7194,539.0723 89.9694,539.3379 Q90.235,539.5879 90.235,539.9316 Q90.235,540.2754 89.8913,540.6816 Q89.3913,541.2598 88.5944,541.5879 Q87.5163,542.041 86.2194,542.041 Q84.7038,542.041 83.5006,541.416 Q82.5163,540.916 81.8288,539.8535 Q81.1413,538.7754 81.1413,537.4941 L81.1413,536.3379 Q81.1413,535.0098 81.7506,533.8691 Q82.3756,532.7129 83.4694,532.1035 Q84.5631,531.4785 85.7975,531.4785 Q86.5319,531.4785 87.1725,531.6504 Q87.8288,531.8066 88.3756,532.166 Z " fill="#000000"/><text fill="#000000" font-family="sans-serif" font-size="12" font-style="italic" lengthAdjust="spacing" textLength="44" x="108.61" y="531.9492">&#171;value&#187;</text><text fill="#000000" font-family="sans-serif" font-size="14" lengthAdjust="spacing" textLength="62" x="99.61" y="550.0684">UserState</text><line style="stroke:#181818;stroke-width:0.5;" x1="71.61" x2="163.61" y1="558.582" y2="558.582"/><line style="stroke:#181818;stroke-width:0.5;" x1="71.61" x2="163.61" y1="566.582" y2="566.582"/></g><!--class ShortName--><g id="elem_ShortName"><rect codeLine="29" fill="#F1F1F1" height="60.582" id="ShortName" rx="2.5" ry="2.5" style="stroke:#181818;stroke-width:0.5;" width="102" x="199.61" y="514"/><ellipse cx="214.61" cy="536.291" fill="#ADD1B2" rx="11" ry="11" style="stroke:#181818;stroke-width:1.0;"/><path d="M217.3756,532.166 Q217.5319,531.9473 217.7194,531.8379 Q217.9069,531.7285 218.1256,531.7285 Q218.5006,531.7285 218.735,531.9941 Q218.9694,532.2441 218.9694,532.8535 L218.9694,534.3066 Q218.9694,534.916 218.735,535.1816 Q218.5006,535.4473 218.1256,535.4473 Q217.7819,535.4473 217.5787,535.2441 Q217.3756,535.0566 217.2662,534.541 Q217.2194,534.1816 217.0319,533.9941 Q216.7037,533.6191 216.0944,533.4004 Q215.485,533.1816 214.86,533.1816 Q214.0944,533.1816 213.4537,533.5098 Q212.8287,533.8379 212.3287,534.5879 Q211.8444,535.3379 211.8444,536.3691 L211.8444,537.4629 Q211.8444,538.6973 212.735,539.5254 Q213.6256,540.3379 215.2194,540.3379 Q216.1569,540.3379 216.8131,540.0879 Q217.2037,539.9316 217.6256,539.4941 Q217.8912,539.2285 218.0319,539.1504 Q218.1881,539.0723 218.3912,539.0723 Q218.7194,539.0723 218.9694,539.3379 Q219.235,539.5879 219.235,539.9316 Q219.235,540.2754 218.8912,540.6816 Q218.3912,541.2598 217.5944,541.5879 Q216.5162,542.041 215.2194,542.041 Q213.7037,542.041 212.5006,541.416 Q211.5162,540.916 210.8287,539.8535 Q210.1412,538.7754 210.1412,537.4941 L210.1412,536.3379 Q210.1412,535.0098 210.7506,533.8691 Q211.3756,532.7129 212.4694,532.1035 Q213.5631,531.4785 214.7975,531.4785 Q215.5319,531.4785 216.1725,531.6504 Q216.8287,531.8066 217.3756,532.166 Z " fill="#000000"/><text fill="#000000" font-family="sans-serif" font-size="12" font-style="italic" lengthAdjust="spacing" textLength="44" x="241.61" y="531.9492">&#171;value&#187;</text><text fill="#000000" font-family="sans-serif" font-size="14" lengthAdjust="spacing" textLength="70" x="228.61" y="550.0684">ShortName</text><line style="stroke:#181818;stroke-width:0.5;" x1="200.61" x2="300.61" y1="558.582" y2="558.582"/><line style="stroke:#181818;stroke-width:0.5;" x1="200.61" x2="300.61" y1="566.582" y2="566.582"/></g><!--class FullName--><g id="elem_FullName"><rect codeLine="32" fill="#F1F1F1" height="60.582" id="FullName" rx="2.5" ry="2.5" style="stroke:#181818;stroke-width:0.5;" width="91" x="337.11" y="514"/><ellipse cx="352.11" cy="536.291" fill="#ADD1B2" rx="11" ry="11" style="stroke:#181818;stroke-width:1.0;"/><path d="M354.8756,532.166 Q355.0319,531.9473 355.2194,531.8379 Q355.4069,531.7285 355.6256,531.7285 Q356.0006,531.7285 356.235,531.9941 Q356.4694,532.2441 356.4694,532.8535 L356.4694,534.3066 Q356.4694,534.916 356.235,535.1816 Q356.0006,535.4473 355.6256,535.4473 Q355.2819,535.4473 355.0788,535.2441 Q354.8756,535.0566 354.7663,534.541 Q354.7194,534.1816 354.5319,533.9941 Q354.2038,533.6191 353.5944,533.4004 Q352.985,533.1816 352.36,533.1816 Q351.5944,533.1816 350.9538,533.5098 Q350.3288,533.8379 349.8288,534.5879 Q349.3444,535.3379 349.3444,536.3691 L349.3444,537.4629 Q349.3444,538.6973 350.235,539.5254 Q351.1256,540.3379 352.7194,540.3379 Q353.6569,540.3379 354.3131,540.0879 Q354.7038,539.9316 355.1256,539.4941 Q355.3913,539.2285 355.5319,539.1504 Q355.6881,539.0723 355.8913,539.0723 Q356.2194,539.0723 356.4694,539.3379 Q356.735,539.5879 356.735,539.9316 Q356.735,540.2754 356.3913,540.6816 Q355.8913,541.2598 355.0944,541.5879 Q354.0163,542.041 352.7194,542.041 Q351.2038,542.041 350.0006,541.416 Q349.0163,540.916 348.3288,539.8535 Q347.6413,538.7754 347.6413,537.4941 L347.6413,536.3379 Q347.6413,535.0098 348.2506,533.8691 Q348.8756,532.7129 349.9694,532.1035 Q351.0631,531.4785 352.2975,531.4785 Q353.0319,531.4785 353.6725,531.6504 Q354.3288,531.8066 354.8756,532.166 Z " fill="#000000"/><text fill="#000000" font-family="sans-serif" font-size="12" font-style="italic" lengthAdjust="spacing" textLength="44" x="373.61" y="531.9492">&#171;value&#187;</text><text fill="#000000" font-family="sans-serif" font-size="14" lengthAdjust="spacing" textLength="59" x="366.11" y="550.0684">FullName</text><line style="stroke:#181818;stroke-width:0.5;" x1="338.11" x2="427.11" y1="558.582" y2="558.582"/><line style="stroke:#181818;stroke-width:0.5;" x1="338.11" x2="427.11" y1="566.582" y2="566.582"/></g><!--class Email--><g id="elem_Email"><rect codeLine="35" fill="#F1F1F1" height="60.582" id="Email" rx="2.5" ry="2.5" style="stroke:#181818;stroke-width:0.5;" width="72" x="463.61" y="514"/><ellipse cx="478.61" cy="536.291" fill="#ADD1B2" rx="11" ry="11" style="stroke:#181818;stroke-width:1.0;"/><path d="M481.3756,532.166 Q481.5319,531.9473 481.7194,531.8379 Q481.9069,531.7285 482.1256,531.7285 Q482.5006,531.7285 482.735,531.9941 Q482.9694,532.2441 482.9694,532.8535 L482.9694,534.3066 Q482.9694,534.916 482.735,535.1816 Q482.5006,535.4473 482.1256,535.4473 Q481.7819,535.4473 481.5788,535.2441 Q481.3756,535.0566 481.2663,534.541 Q481.2194,534.1816 481.0319,533.9941 Q480.7038,533.6191 480.0944,533.4004 Q479.485,533.1816 478.86,533.1816 Q478.0944,533.1816 477.4538,533.5098 Q476.8288,533.8379 476.3288,534.5879 Q475.8444,535.3379 475.8444,536.3691 L475.8444,537.4629 Q475.8444,538.6973 476.735,539.5254 Q477.6256,540.3379 479.2194,540.3379 Q480.1569,540.3379 480.8131,540.0879 Q481.2038,539.9316 481.6256,539.4941 Q481.8913,539.2285 482.0319,539.1504 Q482.1881,539.0723 482.3913,539.0723 Q482.7194,539.0723 482.9694,539.3379 Q483.235,539.5879 483.235,539.9316 Q483.235,540.2754 482.8913,540.6816 Q482.3913,541.2598 481.5944,541.5879 Q480.5163,542.041 479.2194,542.041 Q477.7038,542.041 476.5006,541.416 Q475.5163,540.916 474.8288,539.8535 Q474.1413,538.7754 474.1413,537.4941 L474.1413,536.3379 Q474.1413,535.0098 474.7506,533.8691 Q475.3756,532.7129 476.4694,532.1035 Q477.5631,531.4785 478.7975,531.4785 Q479.5319,531.4785 480.1725,531.6504 Q480.8288,531.8066 481.3756,532.166 Z " fill="#000000"/><text fill="#000000" font-family="sans-serif" font-size="12" font-style="italic" lengthAdjust="spacing" textLength="44" x="490.61" y="531.9492">&#171;value&#187;</text><text fill="#000000" font-family="sans-serif" font-size="14" lengthAdjust="spacing" textLength="34" x="495.61" y="550.0684">Email</text><line style="stroke:#181818;stroke-width:0.5;" x1="464.61" x2="534.61" y1="558.582" y2="558.582"/><line style="stroke:#181818;stroke-width:0.5;" x1="464.61" x2="534.61" y1="566.582" y2="566.582"/></g><!--class Password--><g id="elem_Password"><rect codeLine="38" fill="#F1F1F1" height="60.582" id="Password" rx="2.5" ry="2.5" style="stroke:#181818;stroke-width:0.5;" width="93" x="571.11" y="514"/><ellipse cx="586.11" cy="536.291" fill="#ADD1B2" rx="11" ry="11" style="stroke:#181818;stroke-width:1.0;"/><path d="M588.8756,532.166 Q589.0319,531.9473 589.2194,531.8379 Q589.4069,531.7285 589.6256,531.7285 Q590.0006,531.7285 590.235,531.9941 Q590.4694,532.2441 590.4694,532.8535 L590.4694,534.3066 Q590.4694,534.916 590.235,535.1816 Q590.0006,535.4473 589.6256,535.4473 Q589.2819,535.4473 589.0788,535.2441 Q588.8756,535.0566 588.7663,534.541 Q588.7194,534.1816 588.5319,533.9941 Q588.2038,533.6191 587.5944,533.4004 Q586.985,533.1816 586.36,533.1816 Q585.5944,533.1816 584.9538,533.5098 Q584.3288,533.8379 583.8288,534.5879 Q583.3444,535.3379 583.3444,536.3691 L583.3444,537.4629 Q583.3444,538.6973 584.235,539.5254 Q585.1256,540.3379 586.7194,540.3379 Q587.6569,540.3379 588.3131,540.0879 Q588.7038,539.9316 589.1256,539.4941 Q589.3913,539.2285 589.5319,539.1504 Q589.6881,539.0723 589.8913,539.0723 Q590.2194,539.0723 590.4694,539.3379 Q590.735,539.5879 590.735,539.9316 Q590.735,540.2754 590.3913,540.6816 Q589.8913,541.2598 589.0944,541.5879 Q588.0163,542.041 586.7194,542.041 Q585.2038,542.041 584.0006,541.416 Q583.0163,540.916 582.3288,539.8535 Q581.6413,538.7754 581.6413,537.4941 L581.6413,536.3379 Q581.6413,535.0098 582.2506,533.8691 Q582.8756,532.7129 583.9694,532.1035 Q585.0631,531.4785 586.2975,531.4785 Q587.0319,531.4785 587.6725,531.6504 Q588.3288,531.8066 588.8756,532.166 Z " fill="#000000"/><text fill="#000000" font-family="sans-serif" font-size="12" font-style="italic" lengthAdjust="spacing" textLength="44" x="608.61" y="531.9492">&#171;value&#187;</text><text fill="#000000" font-family="sans-serif" font-size="14" lengthAdjust="spacing" textLength="61" x="600.11" y="550.0684">Password</text><line style="stroke:#181818;stroke-width:0.5;" x1="572.11" x2="663.11" y1="558.582" y2="558.582"/><line style="stroke:#181818;stroke-width:0.5;" x1="572.11" x2="663.11" y1="566.582" y2="566.582"/></g><!--class Role--><g id="elem_Role"><rect codeLine="41" fill="#F1F1F1" height="60.582" id="Role" rx="2.5" ry="2.5" style="stroke:#181818;stroke-width:0.5;" width="72" x="699.61" y="514"/><ellipse cx="714.61" cy="536.291" fill="#EB937F" rx="11" ry="11" style="stroke:#181818;stroke-width:1.0;"/><path d="M713.4694,537.0879 L713.4694,539.5879 L717.7975,539.5879 L717.7975,538.666 Q717.7975,538.0566 718.0319,537.791 Q718.2819,537.5254 718.6569,537.5254 Q719.0319,537.5254 719.2663,537.791 Q719.5006,538.0566 719.5006,538.666 L719.5006,541.291 L711.5006,541.291 Q710.8756,541.291 710.61,541.0566 Q710.36,540.8223 710.36,540.4316 Q710.36,540.0566 710.6256,539.8223 Q710.8913,539.5879 711.5006,539.5879 L711.7663,539.5879 L711.7663,532.9316 L711.5006,532.9316 Q710.8756,532.9316 710.61,532.6973 Q710.36,532.4629 710.36,532.0723 Q710.36,531.6973 710.61,531.4629 Q710.8756,531.2285 711.5006,531.2285 L719.1256,531.2285 L719.1256,533.8223 Q719.1256,534.4316 718.8913,534.6973 Q718.6725,534.9473 718.2819,534.9473 Q717.9069,534.9473 717.6725,534.6973 Q717.4381,534.4316 717.4381,533.8223 L717.4381,532.9316 L713.4694,532.9316 L713.4694,535.3848 L714.9538,535.3848 Q714.9538,534.7285 715.0788,534.541 Q715.3444,534.1348 715.8131,534.1348 Q716.1881,534.1348 716.4225,534.4004 Q716.6569,534.6504 716.6569,535.2598 L716.6569,537.2285 Q716.6569,537.7754 716.5319,537.9629 Q716.2663,538.3535 715.8131,538.3535 Q715.3444,538.3535 715.0788,537.9473 Q714.9538,537.7598 714.9538,537.0879 L713.4694,537.0879 Z " fill="#000000"/><text fill="#000000" font-family="sans-serif" font-size="12" font-style="italic" lengthAdjust="spacing" textLength="44" x="726.61" y="531.9492">&#171;value&#187;</text><text fill="#000000" font-family="sans-serif" font-size="14" lengthAdjust="spacing" textLength="29" x="734.11" y="550.0684">Role</text><line style="stroke:#181818;stroke-width:0.5;" x1="700.61" x2="770.61" y1="558.582" y2="558.582"/><line style="stroke:#181818;stroke-width:0.5;" x1="700.61" x2="770.61" y1="566.582" y2="566.582"/></g><!--link User to ShortName--><g id="link_User_ShortName"><path codeLine="47" d="M352.09,452.7 C332.71,470.04 307.78,492.34 287.49,510.5 " fill="none" id="User-to-ShortName" style="stroke:#181818;stroke-width:1.0;"/><polygon fill="#181818" points="283.75,513.84,293.1213,510.8104,287.4728,510.5023,287.7809,504.8538,283.75,513.84" style="stroke:#181818;stroke-width:1.0;"/></g><!--link User to FullName--><g id="link_User_FullName"><path codeLine="48" d="M383.36,454.22 C383.22,470.69 383.04,491.26 382.9,508.51 " fill="none" id="User-to-FullName" style="stroke:#181818;stroke-width:1.0;"/><polygon fill="#181818" points="382.86,513.74,386.937,504.7746,382.9029,508.7402,378.9373,504.706,382.86,513.74" style="stroke:#181818;stroke-width:1.0;"/></g><!--link User to Email--><g id="link_User_Email"><path codeLine="49" d="M412.58,454.22 C429.05,471.12 449.73,492.33 466.79,509.84 " fill="none" id="User-to-Email" style="stroke:#181818;stroke-width:1.0;"/><polygon fill="#181818" points="470.6,513.74,467.1575,504.5124,467.1004,510.1689,461.4438,510.1118,470.6,513.74" style="stroke:#181818;stroke-width:1.0;"/></g><!--link User to Password--><g id="link_User_Password"><path codeLine="50" d="M415.16,440.55 C453.88,460.24 520.04,493.88 566.15,517.33 " fill="none" id="User-to-Password" style="stroke:#181818;stroke-width:1.0;"/><polygon fill="#181818" points="570.83,519.71,564.608,512.0754,566.3694,517.4511,560.9937,519.2125,570.83,519.71" style="stroke:#181818;stroke-width:1.0;"/></g><!--link User to UserState--><g id="link_User_UserState"><path codeLine="51" d="M352.05,438.31 C312.25,455.77 241.73,486.83 181.61,514 C177.68,515.77 173.62,517.62 169.54,519.48 " fill="none" id="User-to-UserState" style="stroke:#181818;stroke-width:1.0;"/><polygon fill="#181818" points="164.75,521.67,174.5981,521.55,169.294,519.5838,171.2602,514.2796,164.75,521.67" style="stroke:#181818;stroke-width:1.0;"/></g><!--link User to Role--><g id="link_User_Role"><path codeLine="52" d="M415.24,431.7 C470.49,444.77 587.66,474.73 681.61,514 C685.95,515.82 690.4,517.88 694.78,520.05 " fill="none" id="User-to-Role" style="stroke:#181818;stroke-width:1.0;"/><polygon fill="#181818" points="699.51,522.45,693.288,514.8154,695.0494,520.1911,689.6737,521.9525,699.51,522.45" style="stroke:#181818;stroke-width:1.0;"/></g><!--link AuthenticationService to AuthorizationService--><g id="link_AuthenticationService_AuthorizationService"><path codeLine="55" d="M497.89,86.03 C477.49,103.61 453.27,124.48 432.39,142.46 " fill="none" id="AuthenticationService-to-AuthorizationService" style="stroke:#181818;stroke-width:1.0;stroke-dasharray:7.0,7.0;"/><polygon fill="#181818" points="428.53,145.79,437.9612,142.9523,432.3202,142.529,432.7436,136.888,428.53,145.79" style="stroke:#181818;stroke-width:1.0;"/></g><!--link AuthenticationService to Email--><g id="link_AuthenticationService_Email"><path codeLine="56" d="M539.27,86.01 C531.14,179.74 510.43,418.64 502.63,508.56 " fill="none" id="AuthenticationService-to-Email" style="stroke:#181818;stroke-width:1.0;stroke-dasharray:7.0,7.0;"/><polygon fill="#181818" points="502.18,513.75,506.9361,505.1256,502.6082,508.7684,498.9655,504.4405,502.18,513.75" style="stroke:#181818;stroke-width:1.0;"/></g><!--link AuthenticationService to Password--><g id="link_AuthenticationService_Password"><path codeLine="57" d="M548.53,86.33 C551.29,104.46 554.62,126.33 557.61,146 C577.9,279.83 601.88,439.03 612.32,508.35 " fill="none" id="AuthenticationService-to-Password" style="stroke:#181818;stroke-width:1.0;stroke-dasharray:7.0,7.0;"/><polygon fill="#181818" points="613.1,513.58,615.6912,504.0781,612.3429,508.6376,607.7834,505.2894,613.1,513.58" style="stroke:#181818;stroke-width:1.0;"/></g><!--link AuthenticationService to UserState--><g id="link_AuthenticationService_UserState"><path codeLine="58" d="M458.04,57.44 C395.96,68.93 313.56,93.53 260.61,146 C156.81,248.83 127.96,432.34 120.27,508.69 " fill="none" id="AuthenticationService-to-UserState" style="stroke:#181818;stroke-width:1.0;stroke-dasharray:7.0,7.0;"/><polygon fill="#181818" points="119.75,513.99,124.6062,505.4216,120.2362,509.0137,116.6441,504.6437,119.75,513.99" style="stroke:#181818;stroke-width:1.0;"/></g><!--link AuthenticationService to Role--><g id="link_AuthenticationService_Role"><path codeLine="59" d="M562.21,86.42 C570.98,104.38 581.22,126.09 589.61,146 C645.27,278.17 700.87,439.71 724.19,509.13 " fill="none" id="AuthenticationService-to-Role" style="stroke:#181818;stroke-width:1.0;stroke-dasharray:7.0,7.0;"/><polygon fill="#181818" points="725.81,513.96,726.7498,504.1561,724.2246,509.218,719.1626,506.6928,725.81,513.96" style="stroke:#181818;stroke-width:1.0;"/></g><!--link AuthenticationService to PasswordPolicy--><g id="link_AuthenticationService_PasswordPolicy"><path codeLine="60" d="M627.21,82.65 C710.28,123.46 824.61,199.36 824.61,308 C824.61,308 824.61,308 824.61,424.5 C824.61,493.17 819.02,512.94 789.61,575 C780.08,595.1 765.45,614.96 752.12,630.84 " fill="none" id="AuthenticationService-to-PasswordPolicy" style="stroke:#181818;stroke-width:1.0;stroke-dasharray:7.0,7.0;"/><polygon fill="#181818" points="748.76,634.79,757.6371,630.5241,751.9987,630.9807,751.5421,625.3423,748.76,634.79" style="stroke:#181818;stroke-width:1.0;"/></g><!--link AuthenticationService to PasswordEncoder--><g id="link_AuthenticationService_PasswordEncoder"><path codeLine="61" d="M457.96,51.79 C309.47,64.37 17.61,113.79 17.61,308 C17.61,308 17.61,308 17.61,424.5 C17.61,493.17 6,524.56 52.61,575 C104.82,631.51 192.48,652.53 256.23,660.25 " fill="none" id="AuthenticationService-to-PasswordEncoder" style="stroke:#181818;stroke-width:1.0;stroke-dasharray:7.0,7.0;"/><polygon fill="#181818" points="261.54,660.86,253.0573,655.8557,256.5729,660.2874,252.1411,663.803,261.54,660.86" style="stroke:#181818;stroke-width:1.0;"/></g><!--link AuthorizationService to UserSession--><g id="link_AuthorizationService_UserSession"><path codeLine="64" d="M383.61,225.28 C383.61,242.87 383.61,263.31 383.61,279.47 " fill="none" id="AuthorizationService-to-UserSession" style="stroke:#181818;stroke-width:1.0;"/><polygon fill="#181818" points="383.61,284.77,387.61,275.77,383.61,279.77,379.61,275.77,383.61,284.77" style="stroke:#181818;stroke-width:1.0;"/></g><!--link UserSession to User--><g id="link_UserSession_User"><path codeLine="67" d="M383.61,333.04 C383.61,348.65 383.61,369.58 383.61,387.27 " fill="none" id="UserSession-to-User" style="stroke:#181818;stroke-width:1.0;"/><polygon fill="#181818" points="383.61,392.65,387.61,383.65,383.61,387.65,379.61,383.65,383.61,392.65" style="stroke:#181818;stroke-width:1.0;"/></g><!--link Password to PasswordPolicy--><g id="link_Password_PasswordPolicy"><path codeLine="71" d="M643.33,575.22 C657.96,592.12 676.32,613.33 691.47,630.84 " fill="none" id="Password-to-PasswordPolicy" style="stroke:#181818;stroke-width:1.0;stroke-dasharray:7.0,7.0;"/><polygon fill="#181818" points="694.85,634.74,691.9743,625.3203,691.5737,630.963,685.9311,630.5624,694.85,634.74" style="stroke:#181818;stroke-width:1.0;"/></g><!--link Password to PasswordEncoder--><g id="link_Password_PasswordEncoder"><path codeLine="72" d="M570.83,566.97 C564.72,569.71 558.52,572.44 552.61,575 C506.5,594.92 454.48,616.32 412.82,633.19 " fill="none" id="Password-to-PasswordEncoder" style="stroke:#181818;stroke-width:1.0;stroke-dasharray:7.0,7.0;"/><polygon fill="#181818" points="408.05,635.13,417.8932,635.4648,412.6854,633.2558,414.8944,628.0481,408.05,635.13" style="stroke:#181818;stroke-width:1.0;"/></g><!--SRC=[ZLD1ReCm4Bpx5NiZKPMy8ABg8LLFJLHKzUoOBN7bs97NJfLM_Njj21WHQCe1mSvuTdSOCYZGdgH0Oa9n8dZmRe_QIS6TDFe2mcf5pLEUmpU3SDq1JqoSpTaFwoaOAxzk2g0cR_4r04-SDXetxoz68VMrjk7sQMovriAKQ0SoLxIjKLASfrYnKu54OQocpBAw1hogB5PXZHunY5XZt8Y22yI0dhZoWmP5sDizyyC4_EYLcaRN1oxLEDIkDqHH-mD4puP0jrbT1RFxGE68rQN58a-3fb8xNAhK0wNNTeXKwTn8fJXCRFwsvmvAWzHFIVJT4zwpyOmjb_beTlwWDoDEuztCqvIqn3IdtkfsboPz_o1UqdnjLBSwxFdfOjJLhzHPtqHve18Tja2Nc3So_U2tfuV7Zct6wY-KmQoGEZIJBcWGx3n97HH0cKeAi5x5Gxe4mNNcO8TGIXiofixn-OYM93aivwoBxeXHerZdJRX-0G00]--></g></svg>