<?xml version="1.0" encoding="us-ascii" standalone="no"?><svg xmlns="http://www.w3.org/2000/svg" xmlns:xlink="http://www.w3.org/1999/xlink" contentStyleType="text/css" height="684px" preserveAspectRatio="none" style="width:831px;height:684px;background:#FFFFFF;" version="1.1" viewBox="0 0 831 684" width="831px" zoomAndPan="magnify"><defs/><g><!--class AuthenticationService--><g id="elem_AuthenticationService"><rect codeLine="4" fill="#F1F1F1" height="79.2031" id="AuthenticationService" rx="2.5" ry="2.5" style="stroke:#181818;stroke-width:0.5;" width="169" x="439.11" y="7"/><ellipse cx="454.11" cy="29.291" fill="#ADD1B2" rx="11" ry="11" style="stroke:#181818;stroke-width:1.0;"/><path d="M456.8756,25.166 Q457.0319,24.9473 457.2194,24.8379 Q457.4069,24.7285 457.6256,24.7285 Q458.0006,24.7285 458.235,24.9941 Q458.4694,25.2441 458.4694,25.8535 L458.4694,27.3066 Q458.4694,27.916 458.235,28.1816 Q458.0006,28.4473 457.6256,28.4473 Q457.2819,28.4473 457.0788,28.2441 Q456.8756,28.0566 456.7663,27.541 Q456.7194,27.1816 456.5319,26.9941 Q456.2038,26.6191 455.5944,26.4004 Q454.985,26.1816 454.36,26.1816 Q453.5944,26.1816 452.9538,26.5098 Q452.3288,26.8379 451.8288,27.5879 Q451.3444,28.3379 451.3444,29.3691 L451.3444,30.4629 Q451.3444,31.6973 452.235,32.5254 Q453.1256,33.3379 454.7194,33.3379 Q455.6569,33.3379 456.3131,33.0879 Q456.7038,32.9316 457.1256,32.4941 Q457.3913,32.2285 457.5319,32.1504 Q457.6881,32.0723 457.8913,32.0723 Q458.2194,32.0723 458.4694,32.3379 Q458.735,32.5879 458.735,32.9316 Q458.735,33.2754 458.3913,33.6816 Q457.8913,34.2598 457.0944,34.5879 Q456.0163,35.041 454.7194,35.041 Q453.2038,35.041 452.0006,34.416 Q451.0163,33.916 450.3288,32.8535 Q449.6413,31.7754 449.6413,30.4941 L449.6413,29.3379 Q449.6413,28.0098 450.2506,26.8691 Q450.8756,25.7129 451.9694,25.1035 Q453.0631,24.4785 454.2975,24.4785 Q455.0319,24.4785 455.6725,24.6504 Q456.3288,24.8066 456.8756,25.166 Z " fill="#000000"/><text fill="#000000" font-family="sans-serif" font-size="12" font-style="italic" lengthAdjust="spacing" textLength="53" x="510.11" y="24.9492">&#171;service&#187;</text><text fill="#000000" font-family="sans-serif" font-size="14" lengthAdjust="spacing" textLength="137" x="468.11" y="43.0684">AuthenticationService</text><line style="stroke:#181818;stroke-width:0.5;" x1="440.11" x2="607.11" y1="51.582" y2="51.582"/><line style="stroke:#181818;stroke-width:0.5;" x1="440.11" x2="607.11" y1="59.582" y2="59.582"/><ellipse cx="450.11" cy="74.3926" fill="#84BE84" rx="3" ry="3" style="stroke:#038048;stroke-width:1.0;"/><text fill="#000000" font-family="sans-serif" font-size="14" lengthAdjust="spacing" textLength="88" x="459.11" y="78.6895">authenticate()</text></g><!--class AuthorizationService--><g id="elem_AuthorizationService"><rect codeLine="8" fill="#F1F1F1" height="60.582" id="AuthorizationService" rx="2.5" ry="2.5" style="stroke:#181818;stroke-width:0.5;" width="161" x="309.11" y="146"/><ellipse cx="324.11" cy="168.291" fill="#ADD1B2" rx="11" ry="11" style="stroke:#181818;stroke-width:1.0;"/><path d="M326.8756,164.166 Q327.0319,163.9473 327.2194,163.8379 Q327.4069,163.7285 327.6256,163.7285 Q328.0006,163.7285 328.235,163.9941 Q328.4694,164.2441 328.4694,164.8535 L328.4694,166.3066 Q328.4694,166.916 328.235,167.1816 Q328.0006,167.4473 327.6256,167.4473 Q327.2819,167.4473 327.0788,167.2441 Q326.8756,167.0566 326.7663,166.541 Q326.7194,166.1816 326.5319,165.9941 Q326.2038,165.6191 325.5944,165.4004 Q324.985,165.1816 324.36,165.1816 Q323.5944,165.1816 322.9538,165.5098 Q322.3288,165.8379 321.8288,166.5879 Q321.3444,167.3379 321.3444,168.3691 L321.3444,169.4629 Q321.3444,170.6973 322.235,171.5254 Q323.1256,172.3379 324.7194,172.3379 Q325.6569,172.3379 326.3131,172.0879 Q326.7038,171.9316 327.1256,171.4941 Q327.3913,171.2285 327.5319,171.1504 Q327.6881,171.0723 327.8913,171.0723 Q328.2194,171.0723 328.4694,171.3379 Q328.735,171.5879 328.735,171.9316 Q328.735,172.2754 328.3913,172.6816 Q327.8913,173.2598 327.0944,173.5879 Q326.0163,174.041 324.7194,174.041 Q323.2038,174.041 322.0006,173.416 Q321.0163,172.916 320.3288,171.8535 Q319.6413,170.7754 319.6413,169.4941 L319.6413,168.3379 Q319.6413,167.0098 320.2506,165.8691 Q320.8756,164.7129 321.9694,164.1035 Q323.0631,163.4785 324.2975,163.4785 Q325.0319,163.4785 325.6725,163.6504 Q326.3288,163.8066 326.8756,164.166 Z " fill="#000000"/><text fill="#000000" font-family="sans-serif" font-size="12" font-style="italic" lengthAdjust="spacing" textLength="53" x="376.11" y="163.9492">&#171;service&#187;</text><text fill="#000000" font-family="sans-serif" font-size="14" lengthAdjust="spacing" textLength="129" x="338.11" y="182.0684">AuthorizationService</text><line style="stroke:#181818;stroke-width:0.5;" x1="310.11" x2="469.11" y1="190.582" y2="190.582"/><line style="stroke:#181818;stroke-width:0.5;" x1="310.11" x2="469.11" y1="198.582" y2="198.582"/></g><!--class PasswordEncoder--><g id="elem_PasswordEncoder"><rect codeLine="11" fill="#F1F1F1" height="60.582" id="PasswordEncoder" rx="2.5" ry="2.5" style="stroke:#181818;stroke-width:0.5;" width="146" x="261.61" y="617"/><ellipse cx="276.61" cy="639.291" fill="#ADD1B2" rx="11" ry="11" style="stroke:#181818;stroke-width:1.0;"/><path d="M279.3756,635.166 Q279.5319,634.9473 279.7194,634.8379 Q279.9069,634.7285 280.1256,634.7285 Q280.5006,634.7285 280.735,634.9941 Q280.9694,635.2441 280.9694,635.8535 L280.9694,637.3066 Q280.9694,637.916 280.735,638.1816 Q280.5006,638.4473 280.1256,638.4473 Q279.7819,638.4473 279.5788,638.2441 Q279.3756,638.0566 279.2663,637.541 Q279.2194,637.1816 279.0319,636.9941 Q278.7038,636.6191 278.0944,636.4004 Q277.485,636.1816 276.86,636.1816 Q276.0944,636.1816 275.4538,636.5098 Q274.8288,636.8379 274.3288,637.5879 Q273.8444,638.3379 273.8444,639.3691 L273.8444,640.4629 Q273.8444,641.6973 274.735,642.5254 Q275.6256,643.3379 277.2194,643.3379 Q278.1569,643.3379 278.8131,643.0879 Q279.2038,642.9316 279.6256,642.4941 Q279.8913,642.2285 280.0319,642.1504 Q280.1881,642.0723 280.3913,642.0723 Q280.7194,642.0723 280.9694,642.3379 Q281.235,642.5879 281.235,642.9316 Q281.235,643.2754 280.8913,643.6816 Q280.3913,644.2598 279.5944,644.5879 Q278.5163,645.041 277.2194,645.041 Q275.7038,645.041 274.5006,644.416 Q273.5163,643.916 272.8288,642.8535 Q272.1413,641.7754 272.1413,640.4941 L272.1413,639.3379 Q272.1413,638.0098 272.7506,636.8691 Q273.3756,635.7129 274.4694,635.1035 Q275.5631,634.4785 276.7975,634.4785 Q277.5319,634.4785 278.1725,634.6504 Q278.8288,634.8066 279.3756,635.166 Z " fill="#000000"/><text fill="#000000" font-family="sans-serif" font-size="12" font-style="italic" lengthAdjust="spacing" textLength="53" x="321.11" y="634.9492">&#171;service&#187;</text><text fill="#000000" font-family="sans-serif" font-size="14" lengthAdjust="spacing" textLength="114" x="290.61" y="653.0684">PasswordEncoder</text><line style="stroke:#181818;stroke-width:0.5;" x1="262.61" x2="406.61" y1="661.582" y2="661.582"/><line style="stroke:#181818;stroke-width:0.5;" x1="262.61" x2="406.61" y1="669.582" y2="669.582"/></g><!--class PasswordPolicy--><g id="elem_PasswordPolicy"><rect codeLine="14" fill="#F1F1F1" height="60.582" id="PasswordPolicy" rx="2.5" ry="2.5" style="stroke:#181818;stroke-width:0.5;" width="130" x="655.61" y="617"/><ellipse cx="670.61" cy="639.291" fill="#ADD1B2" rx="11" ry="11" style="stroke:#181818;stroke-width:1.0;"/><path d="M673.3756,635.166 Q673.5319,634.9473 673.7194,634.8379 Q673.9069,634.7285 674.1256,634.7285 Q674.5006,634.7285 674.735,634.9941 Q674.9694,635.2441 674.9694,635.8535 L674.9694,637.3066 Q674.9694,637.916 674.735,638.1816 Q674.5006,638.4473 674.1256,638.4473 Q673.7819,638.4473 673.5788,638.2441 Q673.3756,638.0566 673.2663,637.541 Q673.2194,637.1816 673.0319,636.9941 Q672.7038,636.6191 672.0944,636.4004 Q671.485,636.1816 670.86,636.1816 Q670.0944,636.1816 669.4538,636.5098 Q668.8288,636.8379 668.3288,637.5879 Q667.8444,638.3379 667.8444,639.3691 L667.8444,640.4629 Q667.8444,641.6973 668.735,642.5254 Q669.6256,643.3379 671.2194,643.3379 Q672.1569,643.3379 672.8131,643.0879 Q673.2038,642.9316 673.6256,642.4941 Q673.8913,642.2285 674.0319,642.1504 Q674.1881,642.0723 674.3913,642.0723 Q674.7194,642.0723 674.9694,642.3379 Q675.235,642.5879 675.235,642.9316 Q675.235,643.2754 674.8913,643.6816 Q674.3913,644.2598 673.5944,644.5879 Q672.5163,645.041 671.2194,645.041 Q669.7038,645.041 668.5006,644.416 Q667.5163,643.916 666.8288,642.8535 Q666.1413,641.7754 666.1413,640.4941 L666.1413,639.3379 Q666.1413,638.0098 666.7506,636.8691 Q667.3756,635.7129 668.4694,635.1035 Q669.5631,634.4785 670.7975,634.4785 Q671.5319,634.4785 672.1725,634.6504 Q672.8288,634.8066 673.3756,635.166 Z " fill="#000000"/><text fill="#000000" font-family="sans-serif" font-size="12" font-style="italic" lengthAdjust="spacing" textLength="53" x="707.11" y="634.9492">&#171;service&#187;</text><text fill="#000000" font-family="sans-serif" font-size="14" lengthAdjust="spacing" textLength="98" x="684.61" y="653.0684">PasswordPolicy</text><line style="stroke:#181818;stroke-width:0.5;" x1="656.61" x2="784.61" y1="661.582" y2="661.582"/><line style="stroke:#181818;stroke-width:0.5;" x1="656.61" x2="784.61" y1="669.582" y2="669.582"/></g><!--class UserSession--><g id="elem_UserSession"><rect codeLine="17" fill="#F1F1F1" height="48" id="UserSession" rx="2.5" ry="2.5" style="stroke:#181818;stroke-width:0.5;" width="111" x="334.11" y="267"/><ellipse cx="349.11" cy="283" fill="#ADD1B2" rx="11" ry="11" style="stroke:#181818;stroke-width:1.0;"/><path d="M351.8756,278.875 Q352.0319,278.6563 352.2194,278.5469 Q352.4069,278.4375 352.6256,278.4375 Q353.0006,278.4375 353.235,278.7031 Q353.4694,278.9531 353.4694,279.5625 L353.4694,281.0156 Q353.4694,281.625 353.235,281.8906 Q353.0006,282.1563 352.6256,282.1563 Q352.2819,282.1563 352.0788,281.9531 Q351.8756,281.7656 351.7663,281.25 Q351.7194,280.8906 351.5319,280.7031 Q351.2038,280.3281 350.5944,280.1094 Q349.985,279.8906 349.36,279.8906 Q348.5944,279.8906 347.9538,280.2188 Q347.3288,280.5469 346.8288,281.2969 Q346.3444,282.0469 346.3444,283.0781 L346.3444,284.1719 Q346.3444,285.4063 347.235,286.2344 Q348.1256,287.0469 349.7194,287.0469 Q350.6569,287.0469 351.3131,286.7969 Q351.7038,286.6406 352.1256,286.2031 Q352.3913,285.9375 352.5319,285.8594 Q352.6881,285.7813 352.8913,285.7813 Q353.2194,285.7813 353.4694,286.0469 Q353.735,286.2969 353.735,286.6406 Q353.735,286.9844 353.3913,287.3906 Q352.8913,287.9688 352.0944,288.2969 Q351.0163,288.75 349.7194,288.75 Q348.2038,288.75 347.0006,288.125 Q346.0163,287.625 345.3288,286.5625 Q344.6413,285.4844 344.6413,284.2031 L344.6413,283.0469 Q344.6413,281.7188 345.2506,280.5781 Q345.8756,279.4219 346.9694,278.8125 Q348.0631,278.1875 349.2975,278.1875 Q350.0319,278.1875 350.6725,278.3594 Q351.3288,278.5156 351.8756,278.875 Z " fill="#000000"/><text fill="#000000" font-family="sans-serif" font-size="14" lengthAdjust="spacing" textLength="79" x="363.11" y="288.7969">UserSession</text><line style="stroke:#181818;stroke-width:0.5;" x1="335.11" x2="444.11" y1="299" y2="299"/><line style="stroke:#181818;stroke-width:0.5;" x1="335.11" x2="444.11" y1="307" y2="307"/></g><!--class User--><g id="elem_User"><rect codeLine="22" fill="#F1F1F1" height="60.582" id="User" rx="2.5" ry="2.5" style="stroke:#181818;stroke-width:0.5;" width="63" x="358.11" y="375"/><ellipse cx="373.11" cy="397.291" fill="#ADD1B2" rx="11" ry="11" style="stroke:#181818;stroke-width:1.0;"/><path d="M375.8756,393.166 Q376.0319,392.9473 376.2194,392.8379 Q376.4069,392.7285 376.6256,392.7285 Q377.0006,392.7285 377.235,392.9941 Q377.4694,393.2441 377.4694,393.8535 L377.4694,395.3066 Q377.4694,395.916 377.235,396.1816 Q377.0006,396.4473 376.6256,396.4473 Q376.2819,396.4473 376.0788,396.2441 Q375.8756,396.0566 375.7663,395.541 Q375.7194,395.1816 375.5319,394.9941 Q375.2038,394.6191 374.5944,394.4004 Q373.985,394.1816 373.36,394.1816 Q372.5944,394.1816 371.9538,394.5098 Q371.3288,394.8379 370.8288,395.5879 Q370.3444,396.3379 370.3444,397.3691 L370.3444,398.4629 Q370.3444,399.6973 371.235,400.5254 Q372.1256,401.3379 373.7194,401.3379 Q374.6569,401.3379 375.3131,401.0879 Q375.7038,400.9316 376.1256,400.4941 Q376.3913,400.2285 376.5319,400.1504 Q376.6881,400.0723 376.8913,400.0723 Q377.2194,400.0723 377.4694,400.3379 Q377.735,400.5879 377.735,400.9316 Q377.735,401.2754 377.3913,401.6816 Q376.8913,402.2598 376.0944,402.5879 Q375.0163,403.041 373.7194,403.041 Q372.2038,403.041 371.0006,402.416 Q370.0163,401.916 369.3288,400.8535 Q368.6413,399.7754 368.6413,398.4941 L368.6413,397.3379 Q368.6413,396.0098 369.2506,394.8691 Q369.8756,393.7129 370.9694,393.1035 Q372.0631,392.4785 373.2975,392.4785 Q374.0319,392.4785 374.6725,392.6504 Q375.3288,392.8066 375.8756,393.166 Z " fill="#000000"/><text fill="#000000" font-family="sans-serif" font-size="12" font-style="italic" lengthAdjust="spacing" textLength="35" x="385.11" y="392.9492">&#171;root&#187;</text><text fill="#000000" font-family="sans-serif" font-size="14" lengthAdjust="spacing" textLength="29" x="388.11" y="411.0684">User</text><line style="stroke:#181818;stroke-width:0.5;" x1="359.11" x2="420.11" y1="419.582" y2="419.582"/><line style="stroke:#181818;stroke-width:0.5;" x1="359.11" x2="420.11" y1="427.582" y2="427.582"/></g><!--class UserState--><g id="elem_UserState"><rect codeLine="25" fill="#F1F1F1" height="60.582" id="UserState" rx="2.5" ry="2.5" style="stroke:#181818;stroke-width:0.5;" width="94" x="70.61" y="496"/><ellipse cx="85.61" cy="518.291" fill="#ADD1B2" rx="11" ry="11" style="stroke:#181818;stroke-width:1.0;"/><path d="M88.3756,514.166 Q88.5319,513.9473 88.7194,513.8379 Q88.9069,513.7285 89.1256,513.7285 Q89.5006,513.7285 89.735,513.9941 Q89.9694,514.2441 89.9694,514.8535 L89.9694,516.3066 Q89.9694,516.916 89.735,517.1816 Q89.5006,517.4473 89.1256,517.4473 Q88.7819,517.4473 88.5788,517.2441 Q88.3756,517.0566 88.2663,516.541 Q88.2194,516.1816 88.0319,515.9941 Q87.7038,515.6191 87.0944,515.4004 Q86.485,515.1816 85.86,515.1816 Q85.0944,515.1816 84.4538,515.5098 Q83.8288,515.8379 83.3288,516.5879 Q82.8444,517.3379 82.8444,518.3691 L82.8444,519.4629 Q82.8444,520.6973 83.735,521.5254 Q84.6256,522.3379 86.2194,522.3379 Q87.1569,522.3379 87.8131,522.0879 Q88.2038,521.9316 88.6256,521.4941 Q88.8913,521.2285 89.0319,521.1504 Q89.1881,521.0723 89.3913,521.0723 Q89.7194,521.0723 89.9694,521.3379 Q90.235,521.5879 90.235,521.9316 Q90.235,522.2754 89.8913,522.6816 Q89.3913,523.2598 88.5944,523.5879 Q87.5163,524.041 86.2194,524.041 Q84.7038,524.041 83.5006,523.416 Q82.5163,522.916 81.8288,521.8535 Q81.1413,520.7754 81.1413,519.4941 L81.1413,518.3379 Q81.1413,517.0098 81.7506,515.8691 Q82.3756,514.7129 83.4694,514.1035 Q84.5631,513.4785 85.7975,513.4785 Q86.5319,513.4785 87.1725,513.6504 Q87.8288,513.8066 88.3756,514.166 Z " fill="#000000"/><text fill="#000000" font-family="sans-serif" font-size="12" font-style="italic" lengthAdjust="spacing" textLength="44" x="108.61" y="513.9492">&#171;value&#187;</text><text fill="#000000" font-family="sans-serif" font-size="14" lengthAdjust="spacing" textLength="62" x="99.61" y="532.0684">UserState</text><line style="stroke:#181818;stroke-width:0.5;" x1="71.61" x2="163.61" y1="540.582" y2="540.582"/><line style="stroke:#181818;stroke-width:0.5;" x1="71.61" x2="163.61" y1="548.582" y2="548.582"/></g><!--class ShortName--><g id="elem_ShortName"><rect codeLine="28" fill="#F1F1F1" height="60.582" id="ShortName" rx="2.5" ry="2.5" style="stroke:#181818;stroke-width:0.5;" width="102" x="199.61" y="496"/><ellipse cx="214.61" cy="518.291" fill="#ADD1B2" rx="11" ry="11" style="stroke:#181818;stroke-width:1.0;"/><path d="M217.3756,514.166 Q217.5319,513.9473 217.7194,513.8379 Q217.9069,513.7285 218.1256,513.7285 Q218.5006,513.7285 218.735,513.9941 Q218.9694,514.2441 218.9694,514.8535 L218.9694,516.3066 Q218.9694,516.916 218.735,517.1816 Q218.5006,517.4473 218.1256,517.4473 Q217.7819,517.4473 217.5787,517.2441 Q217.3756,517.0566 217.2662,516.541 Q217.2194,516.1816 217.0319,515.9941 Q216.7037,515.6191 216.0944,515.4004 Q215.485,515.1816 214.86,515.1816 Q214.0944,515.1816 213.4537,515.5098 Q212.8287,515.8379 212.3287,516.5879 Q211.8444,517.3379 211.8444,518.3691 L211.8444,519.4629 Q211.8444,520.6973 212.735,521.5254 Q213.6256,522.3379 215.2194,522.3379 Q216.1569,522.3379 216.8131,522.0879 Q217.2037,521.9316 217.6256,521.4941 Q217.8912,521.2285 218.0319,521.1504 Q218.1881,521.0723 218.3912,521.0723 Q218.7194,521.0723 218.9694,521.3379 Q219.235,521.5879 219.235,521.9316 Q219.235,522.2754 218.8912,522.6816 Q218.3912,523.2598 217.5944,523.5879 Q216.5162,524.041 215.2194,524.041 Q213.7037,524.041 212.5006,523.416 Q211.5162,522.916 210.8287,521.8535 Q210.1412,520.7754 210.1412,519.4941 L210.1412,518.3379 Q210.1412,517.0098 210.7506,515.8691 Q211.3756,514.7129 212.4694,514.1035 Q213.5631,513.4785 214.7975,513.4785 Q215.5319,513.4785 216.1725,513.6504 Q216.8287,513.8066 217.3756,514.166 Z " fill="#000000"/><text fill="#000000" font-family="sans-serif" font-size="12" font-style="italic" lengthAdjust="spacing" textLength="44" x="241.61" y="513.9492">&#171;value&#187;</text><text fill="#000000" font-family="sans-serif" font-size="14" lengthAdjust="spacing" textLength="70" x="228.61" y="532.0684">ShortName</text><line style="stroke:#181818;stroke-width:0.5;" x1="200.61" x2="300.61" y1="540.582" y2="540.582"/><line style="stroke:#181818;stroke-width:0.5;" x1="200.61" x2="300.61" y1="548.582" y2="548.582"/></g><!--class FullName--><g id="elem_FullName"><rect codeLine="31" fill="#F1F1F1" height="60.582" id="FullName" rx="2.5" ry="2.5" style="stroke:#181818;stroke-width:0.5;" width="91" x="337.11" y="496"/><ellipse cx="352.11" cy="518.291" fill="#ADD1B2" rx="11" ry="11" style="stroke:#181818;stroke-width:1.0;"/><path d="M354.8756,514.166 Q355.0319,513.9473 355.2194,513.8379 Q355.4069,513.7285 355.6256,513.7285 Q356.0006,513.7285 356.235,513.9941 Q356.4694,514.2441 356.4694,514.8535 L356.4694,516.3066 Q356.4694,516.916 356.235,517.1816 Q356.0006,517.4473 355.6256,517.4473 Q355.2819,517.4473 355.0788,517.2441 Q354.8756,517.0566 354.7663,516.541 Q354.7194,516.1816 354.5319,515.9941 Q354.2038,515.6191 353.5944,515.4004 Q352.985,515.1816 352.36,515.1816 Q351.5944,515.1816 350.9538,515.5098 Q350.3288,515.8379 349.8288,516.5879 Q349.3444,517.3379 349.3444,518.3691 L349.3444,519.4629 Q349.3444,520.6973 350.235,521.5254 Q351.1256,522.3379 352.7194,522.3379 Q353.6569,522.3379 354.3131,522.0879 Q354.7038,521.9316 355.1256,521.4941 Q355.3913,521.2285 355.5319,521.1504 Q355.6881,521.0723 355.8913,521.0723 Q356.2194,521.0723 356.4694,521.3379 Q356.735,521.5879 356.735,521.9316 Q356.735,522.2754 356.3913,522.6816 Q355.8913,523.2598 355.0944,523.5879 Q354.0163,524.041 352.7194,524.041 Q351.2038,524.041 350.0006,523.416 Q349.0163,522.916 348.3288,521.8535 Q347.6413,520.7754 347.6413,519.4941 L347.6413,518.3379 Q347.6413,517.0098 348.2506,515.8691 Q348.8756,514.7129 349.9694,514.1035 Q351.0631,513.4785 352.2975,513.4785 Q353.0319,513.4785 353.6725,513.6504 Q354.3288,513.8066 354.8756,514.166 Z " fill="#000000"/><text fill="#000000" font-family="sans-serif" font-size="12" font-style="italic" lengthAdjust="spacing" textLength="44" x="373.61" y="513.9492">&#171;value&#187;</text><text fill="#000000" font-family="sans-serif" font-size="14" lengthAdjust="spacing" textLength="59" x="366.11" y="532.0684">FullName</text><line style="stroke:#181818;stroke-width:0.5;" x1="338.11" x2="427.11" y1="540.582" y2="540.582"/><line style="stroke:#181818;stroke-width:0.5;" x1="338.11" x2="427.11" y1="548.582" y2="548.582"/></g><!--class Email--><g id="elem_Email"><rect codeLine="34" fill="#F1F1F1" height="60.582" id="Email" rx="2.5" ry="2.5" style="stroke:#181818;stroke-width:0.5;" width="72" x="463.61" y="496"/><ellipse cx="478.61" cy="518.291" fill="#ADD1B2" rx="11" ry="11" style="stroke:#181818;stroke-width:1.0;"/><path d="M481.3756,514.166 Q481.5319,513.9473 481.7194,513.8379 Q481.9069,513.7285 482.1256,513.7285 Q482.5006,513.7285 482.735,513.9941 Q482.9694,514.2441 482.9694,514.8535 L482.9694,516.3066 Q482.9694,516.916 482.735,517.1816 Q482.5006,517.4473 482.1256,517.4473 Q481.7819,517.4473 481.5788,517.2441 Q481.3756,517.0566 481.2663,516.541 Q481.2194,516.1816 481.0319,515.9941 Q480.7038,515.6191 480.0944,515.4004 Q479.485,515.1816 478.86,515.1816 Q478.0944,515.1816 477.4538,515.5098 Q476.8288,515.8379 476.3288,516.5879 Q475.8444,517.3379 475.8444,518.3691 L475.8444,519.4629 Q475.8444,520.6973 476.735,521.5254 Q477.6256,522.3379 479.2194,522.3379 Q480.1569,522.3379 480.8131,522.0879 Q481.2038,521.9316 481.6256,521.4941 Q481.8913,521.2285 482.0319,521.1504 Q482.1881,521.0723 482.3913,521.0723 Q482.7194,521.0723 482.9694,521.3379 Q483.235,521.5879 483.235,521.9316 Q483.235,522.2754 482.8913,522.6816 Q482.3913,523.2598 481.5944,523.5879 Q480.5163,524.041 479.2194,524.041 Q477.7038,524.041 476.5006,523.416 Q475.5163,522.916 474.8288,521.8535 Q474.1413,520.7754 474.1413,519.4941 L474.1413,518.3379 Q474.1413,517.0098 474.7506,515.8691 Q475.3756,514.7129 476.4694,514.1035 Q477.5631,513.4785 478.7975,513.4785 Q479.5319,513.4785 480.1725,513.6504 Q480.8288,513.8066 481.3756,514.166 Z " fill="#000000"/><text fill="#000000" font-family="sans-serif" font-size="12" font-style="italic" lengthAdjust="spacing" textLength="44" x="490.61" y="513.9492">&#171;value&#187;</text><text fill="#000000" font-family="sans-serif" font-size="14" lengthAdjust="spacing" textLength="34" x="495.61" y="532.0684">Email</text><line style="stroke:#181818;stroke-width:0.5;" x1="464.61" x2="534.61" y1="540.582" y2="540.582"/><line style="stroke:#181818;stroke-width:0.5;" x1="464.61" x2="534.61" y1="548.582" y2="548.582"/></g><!--class Password--><g id="elem_Password"><rect codeLine="37" fill="#F1F1F1" height="60.582" id="Password" rx="2.5" ry="2.5" style="stroke:#181818;stroke-width:0.5;" width="93" x="571.11" y="496"/><ellipse cx="586.11" cy="518.291" fill="#ADD1B2" rx="11" ry="11" style="stroke:#181818;stroke-width:1.0;"/><path d="M588.8756,514.166 Q589.0319,513.9473 589.2194,513.8379 Q589.4069,513.7285 589.6256,513.7285 Q590.0006,513.7285 590.235,513.9941 Q590.4694,514.2441 590.4694,514.8535 L590.4694,516.3066 Q590.4694,516.916 590.235,517.1816 Q590.0006,517.4473 589.6256,517.4473 Q589.2819,517.4473 589.0788,517.2441 Q588.8756,517.0566 588.7663,516.541 Q588.7194,516.1816 588.5319,515.9941 Q588.2038,515.6191 587.5944,515.4004 Q586.985,515.1816 586.36,515.1816 Q585.5944,515.1816 584.9538,515.5098 Q584.3288,515.8379 583.8288,516.5879 Q583.3444,517.3379 583.3444,518.3691 L583.3444,519.4629 Q583.3444,520.6973 584.235,521.5254 Q585.1256,522.3379 586.7194,522.3379 Q587.6569,522.3379 588.3131,522.0879 Q588.7038,521.9316 589.1256,521.4941 Q589.3913,521.2285 589.5319,521.1504 Q589.6881,521.0723 589.8913,521.0723 Q590.2194,521.0723 590.4694,521.3379 Q590.735,521.5879 590.735,521.9316 Q590.735,522.2754 590.3913,522.6816 Q589.8913,523.2598 589.0944,523.5879 Q588.0163,524.041 586.7194,524.041 Q585.2038,524.041 584.0006,523.416 Q583.0163,522.916 582.3288,521.8535 Q581.6413,520.7754 581.6413,519.4941 L581.6413,518.3379 Q581.6413,517.0098 582.2506,515.8691 Q582.8756,514.7129 583.9694,514.1035 Q585.0631,513.4785 586.2975,513.4785 Q587.0319,513.4785 587.6725,513.6504 Q588.3288,513.8066 588.8756,514.166 Z " fill="#000000"/><text fill="#000000" font-family="sans-serif" font-size="12" font-style="italic" lengthAdjust="spacing" textLength="44" x="608.61" y="513.9492">&#171;value&#187;</text><text fill="#000000" font-family="sans-serif" font-size="14" lengthAdjust="spacing" textLength="61" x="600.11" y="532.0684">Password</text><line style="stroke:#181818;stroke-width:0.5;" x1="572.11" x2="663.11" y1="540.582" y2="540.582"/><line style="stroke:#181818;stroke-width:0.5;" x1="572.11" x2="663.11" y1="548.582" y2="548.582"/></g><!--class Role--><g id="elem_Role"><rect codeLine="40" fill="#F1F1F1" height="60.582" id="Role" rx="2.5" ry="2.5" style="stroke:#181818;stroke-width:0.5;" width="72" x="699.61" y="496"/><ellipse cx="714.61" cy="518.291" fill="#EB937F" rx="11" ry="11" style="stroke:#181818;stroke-width:1.0;"/><path d="M713.4694,519.0879 L713.4694,521.5879 L717.7975,521.5879 L717.7975,520.666 Q717.7975,520.0566 718.0319,519.791 Q718.2819,519.5254 718.6569,519.5254 Q719.0319,519.5254 719.2663,519.791 Q719.5006,520.0566 719.5006,520.666 L719.5006,523.291 L711.5006,523.291 Q710.8756,523.291 710.61,523.0566 Q710.36,522.8223 710.36,522.4316 Q710.36,522.0566 710.6256,521.8223 Q710.8913,521.5879 711.5006,521.5879 L711.7663,521.5879 L711.7663,514.9316 L711.5006,514.9316 Q710.8756,514.9316 710.61,514.6973 Q710.36,514.4629 710.36,514.0723 Q710.36,513.6973 710.61,513.4629 Q710.8756,513.2285 711.5006,513.2285 L719.1256,513.2285 L719.1256,515.8223 Q719.1256,516.4316 718.8913,516.6973 Q718.6725,516.9473 718.2819,516.9473 Q717.9069,516.9473 717.6725,516.6973 Q717.4381,516.4316 717.4381,515.8223 L717.4381,514.9316 L713.4694,514.9316 L713.4694,517.3848 L714.9538,517.3848 Q714.9538,516.7285 715.0788,516.541 Q715.3444,516.1348 715.8131,516.1348 Q716.1881,516.1348 716.4225,516.4004 Q716.6569,516.6504 716.6569,517.2598 L716.6569,519.2285 Q716.6569,519.7754 716.5319,519.9629 Q716.2663,520.3535 715.8131,520.3535 Q715.3444,520.3535 715.0788,519.9473 Q714.9538,519.7598 714.9538,519.0879 L713.4694,519.0879 Z " fill="#000000"/><text fill="#000000" font-family="sans-serif" font-size="12" font-style="italic" lengthAdjust="spacing" textLength="44" x="726.61" y="513.9492">&#171;value&#187;</text><text fill="#000000" font-family="sans-serif" font-size="14" lengthAdjust="spacing" textLength="29" x="734.11" y="532.0684">Role</text><line style="stroke:#181818;stroke-width:0.5;" x1="700.61" x2="770.61" y1="540.582" y2="540.582"/><line style="stroke:#181818;stroke-width:0.5;" x1="700.61" x2="770.61" y1="548.582" y2="548.582"/></g><!--link User to ShortName--><g id="link_User_ShortName"><path codeLine="46" d="M358.06,433.5 C337.7,450.93 311.08,473.73 289.42,492.27 " fill="none" id="User-to-ShortName" style="stroke:#181818;stroke-width:1.0;"/><polygon fill="#181818" points="285.44,495.68,294.8826,492.8804,289.2433,492.4343,289.6894,486.7951,285.44,495.68" style="stroke:#181818;stroke-width:1.0;"/></g><!--link User to FullName--><g id="link_User_FullName"><path codeLine="47" d="M387.86,436.22 C386.89,452.69 385.68,473.26 384.66,490.51 " fill="none" id="User-to-FullName" style="stroke:#181818;stroke-width:1.0;"/><polygon fill="#181818" points="384.36,495.74,388.8918,486.9957,384.6595,490.749,380.9062,486.5166,384.36,495.74" style="stroke:#181818;stroke-width:1.0;"/></g><!--link User to Email--><g id="link_User_Email"><path codeLine="48" d="M417.08,436.22 C432.7,453.12 452.31,474.33 468.49,491.84 " fill="none" id="User-to-Email" style="stroke:#181818;stroke-width:1.0;"/><polygon fill="#181818" points="472.1,495.74,468.9392,486.4121,468.7104,492.0643,463.0582,491.8355,472.1,495.74" style="stroke:#181818;stroke-width:1.0;"/></g><!--link User to Password--><g id="link_User_Password"><path codeLine="49" d="M421.31,423.05 C458.81,442.62 521.75,475.47 566.24,498.69 " fill="none" id="User-to-Password" style="stroke:#181818;stroke-width:1.0;"/><polygon fill="#181818" points="570.75,501.05,564.6261,493.3365,566.3186,498.7342,560.9209,500.4267,570.75,501.05" style="stroke:#181818;stroke-width:1.0;"/></g><!--link User to UserState--><g id="link_User_UserState"><path codeLine="50" d="M357.78,419.9 C316.88,437.18 243.73,468.32 181.61,496 C177.67,497.75 173.61,499.58 169.52,501.43 " fill="none" id="User-to-UserState" style="stroke:#181818;stroke-width:1.0;"/><polygon fill="#181818" points="164.73,503.61,174.5787,503.5529,169.2872,501.5528,171.2872,496.2613,164.73,503.61" style="stroke:#181818;stroke-width:1.0;"/></g><!--link User to Role--><g id="link_User_Role"><path codeLine="51" d="M421.46,414 C475.93,427.33 589.99,457.4 681.61,496 C685.94,497.83 690.39,499.9 694.77,502.08 " fill="none" id="User-to-Role" style="stroke:#181818;stroke-width:1.0;"/><polygon fill="#181818" points="699.5,504.48,693.2681,496.8535,695.0365,502.2268,689.6631,503.9951,699.5,504.48" style="stroke:#181818;stroke-width:1.0;"/></g><!--link AuthenticationService to AuthorizationService--><g id="link_AuthenticationService_AuthorizationService"><path codeLine="54" d="M483.04,86.25 C464.42,104.04 442.55,124.92 424.66,142.01 " fill="none" id="AuthenticationService-to-AuthorizationService" style="stroke:#181818;stroke-width:1.0;stroke-dasharray:7.0,7.0;"/><polygon fill="#181818" points="420.67,145.83,429.9387,142.4996,424.2832,142.3739,424.4089,136.7184,420.67,145.83" style="stroke:#181818;stroke-width:1.0;"/></g><!--link AuthenticationService to Email--><g id="link_AuthenticationService_Email"><path codeLine="55" d="M521.66,86.21 C517.09,177.3 505.7,404.03 501.34,490.89 " fill="none" id="AuthenticationService-to-Email" style="stroke:#181818;stroke-width:1.0;stroke-dasharray:7.0,7.0;"/><polygon fill="#181818" points="501.09,495.91,505.5219,487.1147,501.3326,490.9159,497.5313,486.7265,501.09,495.91" style="stroke:#181818;stroke-width:1.0;"/></g><!--link AuthenticationService to Password--><g id="link_AuthenticationService_Password"><path codeLine="56" d="M531.56,86.32 C535.26,104.44 539.69,126.32 543.61,146 C568.89,273.04 598.1,424.19 610.96,490.92 " fill="none" id="AuthenticationService-to-Password" style="stroke:#181818;stroke-width:1.0;stroke-dasharray:7.0,7.0;"/><polygon fill="#181818" points="611.93,495.96,614.1625,486.3675,610.9879,491.0496,606.3058,487.8749,611.93,495.96" style="stroke:#181818;stroke-width:1.0;"/></g><!--link AuthenticationService to UserState--><g id="link_AuthenticationService_UserState"><path codeLine="57" d="M438.85,67.12 C390.68,81.95 332.08,106.66 291.61,146 C188.95,245.78 141.12,417.49 124.63,490.75 " fill="none" id="AuthenticationService-to-UserState" style="stroke:#181818;stroke-width:1.0;stroke-dasharray:7.0,7.0;"/><polygon fill="#181818" points="123.49,495.85,129.3471,487.932,124.5747,490.9691,121.5376,486.1966,123.49,495.85" style="stroke:#181818;stroke-width:1.0;"/></g><!--link AuthenticationService to Role--><g id="link_AuthenticationService_Role"><path codeLine="58" d="M545.14,86.41 C554.82,104.37 566.17,126.08 575.61,146 C634.79,270.95 695.85,423.65 722.19,490.9 " fill="none" id="AuthenticationService-to-Role" style="stroke:#181818;stroke-width:1.0;stroke-dasharray:7.0,7.0;"/><polygon fill="#181818" points="724.02,495.59,724.4802,485.7519,722.205,490.9311,717.0259,488.6559,724.02,495.59" style="stroke:#181818;stroke-width:1.0;"/></g><!--link AuthenticationService to PasswordPolicy--><g id="link_AuthenticationService_PasswordPolicy"><path codeLine="59" d="M608.25,74.73 C697.28,109.3 824.61,178.27 824.61,290 C824.61,290 824.61,290 824.61,406.5 C824.61,475.17 819.02,494.94 789.61,557 C780.08,577.1 765.45,596.96 752.12,612.84 " fill="none" id="AuthenticationService-to-PasswordPolicy" style="stroke:#181818;stroke-width:1.0;stroke-dasharray:7.0,7.0;"/><polygon fill="#181818" points="748.76,616.79,757.6371,612.5241,751.9987,612.9807,751.5421,607.3423,748.76,616.79" style="stroke:#181818;stroke-width:1.0;"/></g><!--link AuthenticationService to PasswordEncoder--><g id="link_AuthenticationService_PasswordEncoder"><path codeLine="60" d="M438.91,50.72 C294.87,61.22 17.61,105.4 17.61,290 C17.61,290 17.61,290 17.61,406.5 C17.61,475.17 6,506.56 52.61,557 C104.82,613.51 192.48,634.53 256.23,642.25 " fill="none" id="AuthenticationService-to-PasswordEncoder" style="stroke:#181818;stroke-width:1.0;stroke-dasharray:7.0,7.0;"/><polygon fill="#181818" points="261.54,642.86,253.0573,637.8557,256.5729,642.2874,252.1411,645.803,261.54,642.86" style="stroke:#181818;stroke-width:1.0;"/></g><!--link AuthorizationService to UserSession--><g id="link_AuthorizationService_UserSession"><path codeLine="63" d="M389.61,207.06 C389.61,223.93 389.61,244.98 389.61,261.65 " fill="none" id="AuthorizationService-to-UserSession" style="stroke:#181818;stroke-width:1.0;"/><polygon fill="#181818" points="389.61,266.67,393.61,257.67,389.61,261.67,385.61,257.67,389.61,266.67" style="stroke:#181818;stroke-width:1.0;"/></g><!--link UserSession to User--><g id="link_UserSession_User"><path codeLine="66" d="M389.61,315.04 C389.61,330.65 389.61,351.58 389.61,369.27 " fill="none" id="UserSession-to-User" style="stroke:#181818;stroke-width:1.0;"/><polygon fill="#181818" points="389.61,374.65,393.61,365.65,389.61,369.65,385.61,365.65,389.61,374.65" style="stroke:#181818;stroke-width:1.0;"/></g><!--link Password to PasswordPolicy--><g id="link_Password_PasswordPolicy"><path codeLine="70" d="M643.33,557.22 C657.96,574.12 676.32,595.33 691.47,612.84 " fill="none" id="Password-to-PasswordPolicy" style="stroke:#181818;stroke-width:1.0;stroke-dasharray:7.0,7.0;"/><polygon fill="#181818" points="694.85,616.74,691.9743,607.3203,691.5737,612.963,685.9311,612.5624,694.85,616.74" style="stroke:#181818;stroke-width:1.0;"/></g><!--link Password to PasswordEncoder--><g id="link_Password_PasswordEncoder"><path codeLine="71" d="M570.83,548.97 C564.72,551.71 558.52,554.44 552.61,557 C506.5,576.92 454.48,598.32 412.82,615.19 " fill="none" id="Password-to-PasswordEncoder" style="stroke:#181818;stroke-width:1.0;stroke-dasharray:7.0,7.0;"/><polygon fill="#181818" points="408.05,617.13,417.8932,617.4648,412.6854,615.2558,414.8944,610.0481,408.05,617.13" style="stroke:#181818;stroke-width:1.0;"/></g><!--SRC=[ZLFBRi8m4BpxA_OMK0LVW5BrG8yL8gfwDeuLN1aRUMqgMlNVktdPKKYWEKJ9x7XsTpB9e93keeH49ZH7X9VWZz9u9RXNrdH5s6omVSfp-650rnFmn9IB9Vjb0mNhrFSTWSZTqUtBkd9hX2sbUqJRMQt4TOxrJcWX4Qbj2xEimO1NbPCLZJaWaeYprayeU29IzS9r63KeQ2__naypvTUWzNnrU-9AJvVwzSPLQS89zbRVACRD6XJiuLCAZwo1Lgiy3PgWVhY4D0Ebrtw8X4Gt4bGFKpV_E78FfPKuJ47jUq3vpAOpj5xdazcuGsz7dA_7cUSfQObvJhFLuovj-lv1xD9yQrHS7OxyqXbrywj4wzieZrHgXnrW5_DMPXZy_lJusBdFMFE5CbWKob0pvKa3uH1G6L80RIibm0LT7p8b26uo3mS9fNAKCNsjdy_IeK8looMBqPqmQh8MlQ7h3m00]--></g></svg>