<?xml version="1.0" encoding="us-ascii" standalone="no"?><svg xmlns="http://www.w3.org/2000/svg" xmlns:xlink="http://www.w3.org/1999/xlink" contentStyleType="text/css" height="1676px" preserveAspectRatio="none" style="width:1608px;height:1676px;background:#FFFFFF;" version="1.1" viewBox="0 0 1608 1676" width="1608px" zoomAndPan="magnify"><defs/><g><!--cluster User Aggregate--><g id="cluster_User Aggregate"><rect fill="none" height="757" rx="2.5" ry="2.5" style="stroke:#000000;stroke-width:1.5;" width="901" x="627" y="913"/><text fill="#000000" font-family="sans-serif" font-size="14" font-weight="bold" lengthAdjust="spacing" textLength="110" x="1022.5" y="928.5352">User Aggregate</text></g><!--cluster Course Aggregate--><g id="cluster_Course Aggregate"><rect fill="none" height="619" rx="2.5" ry="2.5" style="stroke:#000000;stroke-width:1.5;" width="1302" x="300" y="270"/><text fill="#000000" font-family="sans-serif" font-size="14" font-weight="bold" lengthAdjust="spacing" textLength="128" x="887" y="285.5352">Course Aggregate</text></g><!--cluster EnrollmentRequest Aggregate--><g id="cluster_EnrollmentRequest Aggregate"><rect fill="none" height="239" rx="2.5" ry="2.5" style="stroke:#000000;stroke-width:1.5;" width="490" x="7" y="7"/><text fill="#000000" font-family="sans-serif" font-size="14" font-weight="bold" lengthAdjust="spacing" textLength="215" x="144.5" y="22.5352">EnrollmentRequest Aggregate</text></g><!--class User--><g id="elem_User"><rect codeLine="26" fill="#D8F5FF" height="62.7539" id="User" rx="2.5" ry="2.5" style="stroke:#1E90FF;stroke-width:0.5;" width="71" x="713.5" y="1129.5"/><ellipse cx="728.5" cy="1156.877" fill="#ADD1B2" rx="11" ry="11" style="stroke:#181818;stroke-width:1.0;"/><path d="M732.6143,1162.877 L724.8945,1162.877 L724.8945,1150.4839 L732.6143,1150.4839 L732.6143,1152.6421 L727.3433,1152.6421 L727.3433,1155.3149 L732.1162,1155.3149 L732.1162,1157.4731 L727.3433,1157.4731 L727.3433,1160.7188 L732.6143,1160.7188 Z " fill="#000000"/><text fill="#000000" font-family="sans-serif" font-size="12" font-style="italic" lengthAdjust="spacing" textLength="43" x="740.5" y="1146.1016">&#171;entity&#187;</text><text fill="#000000" font-family="sans-serif" font-size="12" font-style="italic" lengthAdjust="spacing" textLength="35" x="744.5" y="1160.2344">&#171;root&#187;</text><text fill="#000000" font-family="sans-serif" font-size="14" lengthAdjust="spacing" textLength="31" x="746.5" y="1176.3008">User</text><line style="stroke:#1E90FF;stroke-width:0.5;" x1="714.5" x2="783.5" y1="1184.2539" y2="1184.2539"/></g><g id="elem_GMN14"><path d="M1265,1621.5 L1265,1630 L1083.21,1634 L1265,1638 L1265,1646.8105 A0,0 0 0 0 1265,1646.8105 L1512,1646.8105 A0,0 0 0 0 1512,1646.8105 L1512,1631.5 L1502,1621.5 L1265,1621.5 A0,0 0 0 0 1265,1621.5 " fill="#FEFFDD" style="stroke:#181818;stroke-width:0.5;"/><path d="M1502,1621.5 L1502,1631.5 L1512,1631.5 L1502,1621.5 " fill="#FEFFDD" style="stroke:#181818;stroke-width:0.5;"/><text fill="#000000" font-family="sans-serif" font-size="13" lengthAdjust="spacing" textLength="226" x="1271" y="1639.0684">Can be Teacher, Student or Manager</text></g><g id="elem_GMN27"><path d="M643,1612.5 L643,1653.1211 A0,0 0 0 0 643,1653.1211 L855,1653.1211 A0,0 0 0 0 855,1653.1211 L855,1637.39 L962.7,1633.78 L855,1629.39 L855,1622.5 L845,1612.5 L643,1612.5 A0,0 0 0 0 643,1612.5 " fill="#FEFFDD" style="stroke:#181818;stroke-width:0.5;"/><path d="M845,1612.5 L845,1622.5 L855,1622.5 L845,1612.5 " fill="#FEFFDD" style="stroke:#181818;stroke-width:0.5;"/><text fill="#000000" font-family="sans-serif" font-size="13" lengthAdjust="spacing" textLength="191" x="649" y="1630.0684">This is only used for purposes</text><text fill="#000000" font-family="sans-serif" font-size="13" lengthAdjust="spacing" textLength="101" x="649" y="1645.3789">of authorization</text></g><!--entity EmailAddress--><g id="elem_EmailAddress"><rect fill="#D8F5FF" height="38.9766" rx="2.5" ry="2.5" style="stroke:#1E90FF;stroke-width:0.5;" width="120" x="963" y="1096.5"/><text fill="#000000" font-family="sans-serif" font-size="14" font-style="italic" lengthAdjust="spacing" textLength="100" x="973" y="1113.0352">&#171;Value Object&#187;</text><text fill="#000000" font-family="sans-serif" font-size="14" lengthAdjust="spacing" textLength="93" x="976.5" y="1129.5234">EmailAddress</text></g><!--entity Password--><g id="elem_Password"><rect fill="#D8F5FF" height="38.9766" rx="2.5" ry="2.5" style="stroke:#1E90FF;stroke-width:0.5;" width="120" x="963" y="1022.5"/><text fill="#000000" font-family="sans-serif" font-size="14" font-style="italic" lengthAdjust="spacing" textLength="100" x="973" y="1039.0352">&#171;Value Object&#187;</text><text fill="#000000" font-family="sans-serif" font-size="14" lengthAdjust="spacing" textLength="65" x="990.5" y="1055.5234">Password</text></g><!--entity FullName--><g id="elem_FullName"><rect fill="#D8F5FF" height="38.9766" rx="2.5" ry="2.5" style="stroke:#1E90FF;stroke-width:0.5;" width="120" x="963" y="948.5"/><text fill="#000000" font-family="sans-serif" font-size="14" font-style="italic" lengthAdjust="spacing" textLength="100" x="973" y="965.0352">&#171;Value Object&#187;</text><text fill="#000000" font-family="sans-serif" font-size="14" lengthAdjust="spacing" textLength="64" x="991" y="981.5234">FullName</text></g><!--entity ShortName--><g id="elem_ShortName"><rect fill="#D8F5FF" height="38.9766" rx="2.5" ry="2.5" style="stroke:#1E90FF;stroke-width:0.5;" width="120" x="963" y="1540.5"/><text fill="#000000" font-family="sans-serif" font-size="14" font-style="italic" lengthAdjust="spacing" textLength="100" x="973" y="1557.0352">&#171;Value Object&#187;</text><text fill="#000000" font-family="sans-serif" font-size="14" lengthAdjust="spacing" textLength="76" x="985" y="1573.5234">ShortName</text></g><!--entity UserState--><g id="elem_UserState"><rect fill="#D8F5FF" height="38.9766" rx="2.5" ry="2.5" style="stroke:#1E90FF;stroke-width:0.5;" width="120" x="963" y="1466.5"/><text fill="#000000" font-family="sans-serif" font-size="14" font-style="italic" lengthAdjust="spacing" textLength="100" x="973" y="1483.0352">&#171;Value Object&#187;</text><text fill="#000000" font-family="sans-serif" font-size="14" lengthAdjust="spacing" textLength="65" x="990.5" y="1499.5234">UserState</text></g><!--entity MechanographicNumber--><g id="elem_MechanographicNumber"><rect fill="#D8F5FF" height="38.9766" rx="2.5" ry="2.5" style="stroke:#1E90FF;stroke-width:0.5;" width="189" x="928.5" y="1392.5"/><text fill="#000000" font-family="sans-serif" font-size="14" font-style="italic" lengthAdjust="spacing" textLength="100" x="973" y="1409.0352">&#171;Value Object&#187;</text><text fill="#000000" font-family="sans-serif" font-size="14" lengthAdjust="spacing" textLength="169" x="938.5" y="1425.5234">MechanographicNumber</text></g><!--entity Acronym--><g id="elem_Acronym"><rect fill="#D8F5FF" height="38.9766" rx="2.5" ry="2.5" style="stroke:#1E90FF;stroke-width:0.5;" width="120" x="963" y="1318.5"/><text fill="#000000" font-family="sans-serif" font-size="14" font-style="italic" lengthAdjust="spacing" textLength="100" x="973" y="1335.0352">&#171;Value Object&#187;</text><text fill="#000000" font-family="sans-serif" font-size="14" lengthAdjust="spacing" textLength="61" x="992.5" y="1351.5234">Acronym</text></g><!--entity BirthDate--><g id="elem_BirthDate"><rect fill="#D8F5FF" height="38.9766" rx="2.5" ry="2.5" style="stroke:#1E90FF;stroke-width:0.5;" width="120" x="963" y="1244.5"/><text fill="#000000" font-family="sans-serif" font-size="14" font-style="italic" lengthAdjust="spacing" textLength="100" x="973" y="1261.0352">&#171;Value Object&#187;</text><text fill="#000000" font-family="sans-serif" font-size="14" lengthAdjust="spacing" textLength="63" x="991.5" y="1277.5234">BirthDate</text></g><!--entity TaxPayerNumber--><g id="elem_TaxPayerNumber"><rect fill="#D8F5FF" height="38.9766" rx="2.5" ry="2.5" style="stroke:#1E90FF;stroke-width:0.5;" width="138" x="954" y="1170.5"/><text fill="#000000" font-family="sans-serif" font-size="14" font-style="italic" lengthAdjust="spacing" textLength="100" x="973" y="1187.0352">&#171;Value Object&#187;</text><text fill="#000000" font-family="sans-serif" font-size="14" lengthAdjust="spacing" textLength="118" x="964" y="1203.5234">TaxPayerNumber</text></g><!--entity Role--><g id="elem_Role"><rect fill="#D8F5FF" height="38.9766" rx="2.5" ry="2.5" style="stroke:#1E90FF;stroke-width:0.5;" width="120" x="963" y="1614.5"/><text fill="#000000" font-family="sans-serif" font-size="14" font-style="italic" lengthAdjust="spacing" textLength="100" x="973" y="1631.0352">&#171;Value Object&#187;</text><text fill="#000000" font-family="sans-serif" font-size="14" lengthAdjust="spacing" textLength="30" x="1008" y="1647.5234">Role</text></g><!--class Course--><g id="elem_Course"><rect codeLine="69" fill="#D8F5FF" height="62.7539" id="Course" rx="2.5" ry="2.5" style="stroke:#1E90FF;stroke-width:0.5;" width="81" x="379" y="644.5"/><ellipse cx="394" cy="671.877" fill="#ADD1B2" rx="11" ry="11" style="stroke:#181818;stroke-width:1.0;"/><path d="M398.1143,677.877 L390.3945,677.877 L390.3945,665.4839 L398.1143,665.4839 L398.1143,667.6421 L392.8433,667.6421 L392.8433,670.3149 L397.6162,670.3149 L397.6162,672.4731 L392.8433,672.4731 L392.8433,675.7188 L398.1143,675.7188 Z " fill="#000000"/><text fill="#000000" font-family="sans-serif" font-size="12" font-style="italic" lengthAdjust="spacing" textLength="43" x="411" y="661.1016">&#171;entity&#187;</text><text fill="#000000" font-family="sans-serif" font-size="12" font-style="italic" lengthAdjust="spacing" textLength="35" x="415" y="675.2344">&#171;root&#187;</text><text fill="#000000" font-family="sans-serif" font-size="14" lengthAdjust="spacing" textLength="49" x="408" y="691.3008">Course</text><line style="stroke:#1E90FF;stroke-width:0.5;" x1="380" x2="459" y1="699.2539" y2="699.2539"/></g><g id="elem_GMN46"><path d="M923.5,661.5 L923.5,701 L809.36,705 L923.5,709 L923.5,748.0527 A0,0 0 0 0 923.5,748.0527 L1122.5,748.0527 A0,0 0 0 0 1122.5,748.0527 L1122.5,671.5 L1112.5,661.5 L923.5,661.5 A0,0 0 0 0 923.5,661.5 " fill="#FEFFDD" style="stroke:#181818;stroke-width:0.5;"/><path d="M1112.5,661.5 L1112.5,671.5 L1122.5,671.5 L1112.5,661.5 " fill="#FEFFDD" style="stroke:#181818;stroke-width:0.5;"/><text fill="#000000" font-family="sans-serif" font-size="13" lengthAdjust="spacing" textLength="178" x="929.5" y="679.0684">Can be one of the following:</text><text fill="#000000" font-family="sans-serif" font-size="13" lengthAdjust="spacing" textLength="45" x="945.5" y="694.3789">- Open</text><text fill="#000000" font-family="sans-serif" font-size="13" lengthAdjust="spacing" textLength="55" x="945.5" y="709.6895">- Closed</text><text fill="#000000" font-family="sans-serif" font-size="13" lengthAdjust="spacing" textLength="48" x="945.5" y="725">- Enroll</text><text fill="#000000" font-family="sans-serif" font-size="13" lengthAdjust="spacing" textLength="78" x="945.5" y="740.3105">- InProgress</text></g><g id="elem_GMN49"><path d="M916,831.5 L916,848.39 L809.36,852.78 L916,856.39 L916,872.1211 A0,0 0 0 0 916,872.1211 L1130,872.1211 A0,0 0 0 0 1130,872.1211 L1130,841.5 L1120,831.5 L916,831.5 A0,0 0 0 0 916,831.5 " fill="#FEFFDD" style="stroke:#181818;stroke-width:0.5;"/><path d="M1120,831.5 L1120,841.5 L1130,841.5 L1120,831.5 " fill="#FEFFDD" style="stroke:#181818;stroke-width:0.5;"/><text fill="#000000" font-family="sans-serif" font-size="13" lengthAdjust="spacing" textLength="193" x="922" y="849.0684">Each course has a unique code</text><text fill="#000000" font-family="sans-serif" font-size="13" lengthAdjust="spacing" textLength="117" x="922" y="864.3789">Example: "JAVA-1"</text></g><g id="elem_GMN52"><path d="M316,305 L316,360.9316 A0,0 0 0 0 316,360.9316 L523,360.9316 A0,0 0 0 0 523,360.9316 L523,334.49 L688.55,326.45 L523,326.49 L523,315 L513,305 L316,305 A0,0 0 0 0 316,305 " fill="#FEFFDD" style="stroke:#181818;stroke-width:0.5;"/><path d="M513,305 L513,315 L523,315 L513,305 " fill="#FEFFDD" style="stroke:#181818;stroke-width:0.5;"/><text fill="#000000" font-family="sans-serif" font-size="13" lengthAdjust="spacing" textLength="185" x="322" y="322.5684">Different editions of a course</text><text fill="#000000" font-family="sans-serif" font-size="13" lengthAdjust="spacing" textLength="186" x="322" y="337.8789">are to be considered different</text><text fill="#000000" font-family="sans-serif" font-size="13" lengthAdjust="spacing" textLength="49" x="322" y="353.1895">courses</text></g><!--class Class--><g id="elem_Class"><rect codeLine="114" fill="#D8F5FF" height="48.6211" id="Class" rx="2.5" ry="2.5" style="stroke:#1E90FF;stroke-width:0.5;" width="71" x="713.5" y="379.5"/><ellipse cx="728.5" cy="399.8105" fill="#ADD1B2" rx="11" ry="11" style="stroke:#181818;stroke-width:1.0;"/><path d="M732.6143,405.8105 L724.8945,405.8105 L724.8945,393.4175 L732.6143,393.4175 L732.6143,395.5757 L727.3433,395.5757 L727.3433,398.2485 L732.1162,398.2485 L732.1162,400.4067 L727.3433,400.4067 L727.3433,403.6523 L732.6143,403.6523 Z " fill="#000000"/><text fill="#000000" font-family="sans-serif" font-size="12" font-style="italic" lengthAdjust="spacing" textLength="43" x="740.5" y="396.1016">&#171;entity&#187;</text><text fill="#000000" font-family="sans-serif" font-size="14" lengthAdjust="spacing" textLength="36" x="744" y="412.168">Class</text><line style="stroke:#1E90FF;stroke-width:0.5;" x1="714.5" x2="783.5" y1="420.1211" y2="420.1211"/></g><g id="elem_GMN60"><path d="M1191,305 L1191,384.86 L1083.21,398.62 L1191,392.86 L1191,437.4844 A0,0 0 0 0 1191,437.4844 L1586,437.4844 A0,0 0 0 0 1586,437.4844 L1586,315 L1576,305 L1191,305 A0,0 0 0 0 1191,305 " fill="#FEFFDD" style="stroke:#181818;stroke-width:0.5;"/><path d="M1576,305 L1576,315 L1586,315 L1576,305 " fill="#FEFFDD" style="stroke:#181818;stroke-width:0.5;"/><text fill="#000000" font-family="sans-serif" font-size="13" lengthAdjust="spacing" textLength="267" x="1197" y="322.5684">A class is always a recurring weekly event.</text><text fill="#000000" font-family="sans-serif" font-size="13" lengthAdjust="spacing" textLength="4" x="1197" y="337.8789">&#160;</text><text fill="#000000" font-family="sans-serif" font-size="13" lengthAdjust="spacing" textLength="304" x="1197" y="353.1895">It should be impossible to schedule classes that</text><text fill="#000000" font-family="sans-serif" font-size="13" lengthAdjust="spacing" textLength="335" x="1197" y="368.5">are coincident with other classes of the same course.</text><text fill="#000000" font-family="sans-serif" font-size="13" lengthAdjust="spacing" textLength="4" x="1197" y="383.8105">&#160;</text><text fill="#000000" font-family="sans-serif" font-size="13" lengthAdjust="spacing" textLength="343" x="1197" y="399.1211">The system should also warn if one of the participants</text><text fill="#000000" font-family="sans-serif" font-size="13" lengthAdjust="spacing" textLength="374" x="1197" y="414.4316">in the class (either a teacher or a student) has other classes</text><text fill="#000000" font-family="sans-serif" font-size="13" lengthAdjust="spacing" textLength="345" x="1197" y="429.7422">at the same time. Teachers can schedule extra classes.</text></g><g id="elem_GMN63"><path d="M1277.5,563.5 L1277.5,570.18 L1083.21,570.98 L1277.5,578.18 L1277.5,588.8105 A0,0 0 0 0 1277.5,588.8105 L1499.5,588.8105 A0,0 0 0 0 1499.5,588.8105 L1499.5,573.5 L1489.5,563.5 L1277.5,563.5 A0,0 0 0 0 1277.5,563.5 " fill="#FEFFDD" style="stroke:#181818;stroke-width:0.5;"/><path d="M1489.5,563.5 L1489.5,573.5 L1499.5,573.5 L1489.5,563.5 " fill="#FEFFDD" style="stroke:#181818;stroke-width:0.5;"/><text fill="#000000" font-family="sans-serif" font-size="13" lengthAdjust="spacing" textLength="201" x="1283.5" y="581.0684">A class must have a unique title</text></g><g id="elem_GMN71"><path d="M1289,472 L1289,491.64 L1083.21,486.61 L1289,499.64 L1289,527.9316 A0,0 0 0 0 1289,527.9316 L1488,527.9316 A0,0 0 0 0 1488,527.9316 L1488,482 L1478,472 L1289,472 A0,0 0 0 0 1289,472 " fill="#FEFFDD" style="stroke:#181818;stroke-width:0.5;"/><path d="M1478,472 L1478,482 L1488,482 L1478,472 " fill="#FEFFDD" style="stroke:#181818;stroke-width:0.5;"/><text fill="#000000" font-family="sans-serif" font-size="13" lengthAdjust="spacing" textLength="178" x="1295" y="489.5684">Can be one of the following:</text><text fill="#000000" font-family="sans-serif" font-size="13" lengthAdjust="spacing" textLength="72" x="1311" y="504.8789">- Recurring</text><text fill="#000000" font-family="sans-serif" font-size="13" lengthAdjust="spacing" textLength="44" x="1311" y="520.1895">- Extra</text></g><!--entity Code--><g id="elem_Code"><rect fill="#D8F5FF" height="38.9766" rx="2.5" ry="2.5" style="stroke:#1E90FF;stroke-width:0.5;" width="120" x="689" y="833.5"/><text fill="#000000" font-family="sans-serif" font-size="14" font-style="italic" lengthAdjust="spacing" textLength="100" x="699" y="850.0352">&#171;Value Object&#187;</text><text fill="#000000" font-family="sans-serif" font-size="14" lengthAdjust="spacing" textLength="36" x="731" y="866.5234">Code</text></g><!--entity Name--><g id="elem_Name"><rect fill="#D8F5FF" height="38.9766" rx="2.5" ry="2.5" style="stroke:#1E90FF;stroke-width:0.5;" width="120" x="689" y="759.5"/><text fill="#000000" font-family="sans-serif" font-size="14" font-style="italic" lengthAdjust="spacing" textLength="100" x="699" y="776.0352">&#171;Value Object&#187;</text><text fill="#000000" font-family="sans-serif" font-size="14" lengthAdjust="spacing" textLength="39" x="729.5" y="792.5234">Name</text></g><!--entity State--><g id="elem_State"><rect fill="#D8F5FF" height="38.9766" rx="2.5" ry="2.5" style="stroke:#1E90FF;stroke-width:0.5;" width="120" x="689" y="685.5"/><text fill="#000000" font-family="sans-serif" font-size="14" font-style="italic" lengthAdjust="spacing" textLength="100" x="699" y="702.0352">&#171;Value Object&#187;</text><text fill="#000000" font-family="sans-serif" font-size="14" lengthAdjust="spacing" textLength="34" x="732" y="718.5234">State</text></g><!--entity Description--><g id="elem_Description"><rect fill="#D8F5FF" height="38.9766" rx="2.5" ry="2.5" style="stroke:#1E90FF;stroke-width:0.5;" width="120" x="689" y="611.5"/><text fill="#000000" font-family="sans-serif" font-size="14" font-style="italic" lengthAdjust="spacing" textLength="100" x="699" y="628.0352">&#171;Value Object&#187;</text><text fill="#000000" font-family="sans-serif" font-size="14" lengthAdjust="spacing" textLength="78" x="710" y="644.5234">Description</text></g><!--entity MaxStudents--><g id="elem_MaxStudents"><rect fill="#D8F5FF" height="38.9766" rx="2.5" ry="2.5" style="stroke:#1E90FF;stroke-width:0.5;" width="120" x="689" y="537.5"/><text fill="#000000" font-family="sans-serif" font-size="14" font-style="italic" lengthAdjust="spacing" textLength="100" x="699" y="554.0352">&#171;Value Object&#187;</text><text fill="#000000" font-family="sans-serif" font-size="14" lengthAdjust="spacing" textLength="89" x="704.5" y="570.5234">MaxStudents</text></g><!--entity MinStudents--><g id="elem_MinStudents"><rect fill="#D8F5FF" height="38.9766" rx="2.5" ry="2.5" style="stroke:#1E90FF;stroke-width:0.5;" width="120" x="689" y="463.5"/><text fill="#000000" font-family="sans-serif" font-size="14" font-style="italic" lengthAdjust="spacing" textLength="100" x="699" y="480.0352">&#171;Value Object&#187;</text><text fill="#000000" font-family="sans-serif" font-size="14" lengthAdjust="spacing" textLength="85" x="706.5" y="496.5234">MinStudents</text></g><!--entity Edition--><g id="elem_Edition"><rect fill="#D8F5FF" height="38.9766" rx="2.5" ry="2.5" style="stroke:#1E90FF;stroke-width:0.5;" width="120" x="689" y="305.5"/><text fill="#000000" font-family="sans-serif" font-size="14" font-style="italic" lengthAdjust="spacing" textLength="100" x="699" y="322.0352">&#171;Value Object&#187;</text><text fill="#000000" font-family="sans-serif" font-size="14" lengthAdjust="spacing" textLength="48" x="725" y="338.5234">Edition</text></g><!--entity ClassDate--><g id="elem_ClassDate"><rect fill="#D8F5FF" height="38.9766" rx="2.5" ry="2.5" style="stroke:#1E90FF;stroke-width:0.5;" width="120" x="963" y="384.5"/><text fill="#000000" font-family="sans-serif" font-size="14" font-style="italic" lengthAdjust="spacing" textLength="100" x="973" y="401.0352">&#171;Value Object&#187;</text><text fill="#000000" font-family="sans-serif" font-size="14" lengthAdjust="spacing" textLength="67" x="989.5" y="417.5234">ClassDate</text></g><!--entity ClassDuration--><g id="elem_ClassDuration"><rect fill="#D8F5FF" height="38.9766" rx="2.5" ry="2.5" style="stroke:#1E90FF;stroke-width:0.5;" width="120" x="963" y="310.5"/><text fill="#000000" font-family="sans-serif" font-size="14" font-style="italic" lengthAdjust="spacing" textLength="100" x="973" y="327.0352">&#171;Value Object&#187;</text><text fill="#000000" font-family="sans-serif" font-size="14" lengthAdjust="spacing" textLength="96" x="975" y="343.5234">ClassDuration</text></g><!--entity ClassTitle--><g id="elem_ClassTitle"><rect fill="#D8F5FF" height="38.9766" rx="2.5" ry="2.5" style="stroke:#1E90FF;stroke-width:0.5;" width="120" x="963" y="550.5"/><text fill="#000000" font-family="sans-serif" font-size="14" font-style="italic" lengthAdjust="spacing" textLength="100" x="973" y="567.0352">&#171;Value Object&#187;</text><text fill="#000000" font-family="sans-serif" font-size="14" lengthAdjust="spacing" textLength="66" x="990" y="583.5234">ClassTitle</text></g><!--entity ClassType--><g id="elem_ClassType"><rect fill="#D8F5FF" height="38.9766" rx="2.5" ry="2.5" style="stroke:#1E90FF;stroke-width:0.5;" width="120" x="963" y="464.5"/><text fill="#000000" font-family="sans-serif" font-size="14" font-style="italic" lengthAdjust="spacing" textLength="100" x="973" y="481.0352">&#171;Value Object&#187;</text><text fill="#000000" font-family="sans-serif" font-size="14" lengthAdjust="spacing" textLength="69" x="988.5" y="497.5234">ClassType</text></g><!--class EnrollmentRequest--><g id="elem_EnrollmentRequest"><rect codeLine="157" fill="#D8F5FF" height="62.7539" id="EnrollmentRequest" rx="2.5" ry="2.5" style="stroke:#1E90FF;stroke-width:0.5;" width="162" x="23" y="166.5"/><ellipse cx="38" cy="193.877" fill="#ADD1B2" rx="11" ry="11" style="stroke:#181818;stroke-width:1.0;"/><path d="M42.1143,199.877 L34.3945,199.877 L34.3945,187.4839 L42.1143,187.4839 L42.1143,189.6421 L36.8433,189.6421 L36.8433,192.3149 L41.6162,192.3149 L41.6162,194.4731 L36.8433,194.4731 L36.8433,197.7188 L42.1143,197.7188 Z " fill="#000000"/><text fill="#000000" font-family="sans-serif" font-size="12" font-style="italic" lengthAdjust="spacing" textLength="43" x="95.5" y="183.1016">&#171;entity&#187;</text><text fill="#000000" font-family="sans-serif" font-size="12" font-style="italic" lengthAdjust="spacing" textLength="35" x="99.5" y="197.2344">&#171;root&#187;</text><text fill="#000000" font-family="sans-serif" font-size="14" lengthAdjust="spacing" textLength="130" x="52" y="213.3008">EnrollmentRequest</text><line style="stroke:#1E90FF;stroke-width:0.5;" x1="24" x2="184" y1="221.2539" y2="221.2539"/></g><!--entity RequestedDate--><g id="elem_RequestedDate"><rect fill="#D8F5FF" height="38.9766" rx="2.5" ry="2.5" style="stroke:#1E90FF;stroke-width:0.5;" width="123" x="358" y="190.5"/><text fill="#000000" font-family="sans-serif" font-size="14" font-style="italic" lengthAdjust="spacing" textLength="100" x="369.5" y="207.0352">&#171;Value Object&#187;</text><text fill="#000000" font-family="sans-serif" font-size="14" lengthAdjust="spacing" textLength="103" x="368" y="223.5234">RequestedDate</text></g><!--entity AnsweredDate--><g id="elem_AnsweredDate"><rect fill="#D8F5FF" height="38.9766" rx="2.5" ry="2.5" style="stroke:#1E90FF;stroke-width:0.5;" width="120" x="359.5" y="116.5"/><text fill="#000000" font-family="sans-serif" font-size="14" font-style="italic" lengthAdjust="spacing" textLength="100" x="369.5" y="133.0352">&#171;Value Object&#187;</text><text fill="#000000" font-family="sans-serif" font-size="14" lengthAdjust="spacing" textLength="99" x="370" y="149.5234">AnsweredDate</text></g><!--entity RequestState--><g id="elem_RequestState"><rect fill="#D8F5FF" height="38.9766" rx="2.5" ry="2.5" style="stroke:#1E90FF;stroke-width:0.5;" width="120" x="359.5" y="42.5"/><text fill="#000000" font-family="sans-serif" font-size="14" font-style="italic" lengthAdjust="spacing" textLength="100" x="369.5" y="59.0352">&#171;Value Object&#187;</text><text fill="#000000" font-family="sans-serif" font-size="14" lengthAdjust="spacing" textLength="89" x="375" y="75.5234">RequestState</text></g><!--link User to EmailAddress--><g id="link_User_EmailAddress"><path codeLine="51" d="M784.73,1155.26 C827.98,1148.1 902.76,1135.73 956.82,1126.78 " fill="none" id="User-to-EmailAddress" style="stroke:#1E90FF;stroke-width:1.0;"/><polygon fill="#1E90FF" points="961.65,1125.82,952.1183,1123.3406,956.7169,1126.635,953.4224,1131.2336,961.65,1125.82" style="stroke:#1E90FF;stroke-width:1.0;"/></g><!--link User to Password--><g id="link_User_Password"><path codeLine="52" d="M784.72,1142.29 C817.9,1124.78 869.61,1098.47 916,1079 C929.17,1073.47 943.48,1068.08 957.21,1063.19 " fill="none" id="User-to-Password" style="stroke:#1E90FF;stroke-width:1.0;"/><polygon fill="#1E90FF" points="961.64,1061.28,951.8207,1060.5174,956.9274,1062.9508,954.494,1068.0575,961.64,1061.28" style="stroke:#1E90FF;stroke-width:1.0;"/></g><!--link User to FullName--><g id="link_User_FullName"><path codeLine="53" d="M776.59,1129.02 C807.05,1094.19 860.03,1038.94 916,1005 C928.58,997.37 942.96,991.03 956.98,985.87 " fill="none" id="User-to-FullName" style="stroke:#1E90FF;stroke-width:1.0;"/><polygon fill="#1E90FF" points="961.54,983.88,951.7187,983.1438,956.8319,985.5635,954.4123,990.6767,961.54,983.88" style="stroke:#1E90FF;stroke-width:1.0;"/></g><!--link User to ShortName--><g id="link_User_ShortName"><path codeLine="54" d="M755.84,1192.81 C770.27,1262.6 814.11,1430.28 916,1523 C927.62,1533.57 942.43,1541.16 957.27,1546.59 " fill="none" id="User-to-ShortName" style="stroke:#1E90FF;stroke-width:1.0;"/><polygon fill="#1E90FF" points="961.73,1548.49,954.5412,1541.7579,957.0069,1546.8491,951.9157,1549.3148,961.73,1548.49" style="stroke:#1E90FF;stroke-width:1.0;"/></g><!--link User to Role--><g id="link_User_Role"><path codeLine="55" d="M753.03,1192.82 C762.29,1272.32 797.25,1481.53 916,1597 C927.33,1608.01 942.1,1615.76 957.01,1621.21 " fill="none" id="User-to-Role" style="stroke:#1E90FF;stroke-width:1.0;"/><polygon fill="#1E90FF" points="961.51,1623.11,954.3212,1616.3779,956.7869,1621.4691,951.6957,1623.9348,961.51,1623.11" style="stroke:#1E90FF;stroke-width:1.0;"/></g><!--link User to UserState--><g id="link_User_UserState"><path codeLine="56" d="M759.94,1192.75 C779.96,1251.65 830.67,1378.31 916,1449 C927.9,1458.86 942.59,1466.16 957.21,1471.54 " fill="none" id="User-to-UserState" style="stroke:#1E90FF;stroke-width:1.0;"/><polygon fill="#1E90FF" points="961.58,1473.44,954.434,1466.6625,956.8674,1471.7692,951.7607,1474.2026,961.58,1473.44" style="stroke:#1E90FF;stroke-width:1.0;"/></g><!--link User to MechanographicNumber--><g id="link_User_MechanographicNumber"><path codeLine="57" d="M766.82,1192.93 C792.83,1239.39 847.1,1325.45 916,1375 C923.87,1380.66 932.68,1385.52 941.78,1389.67 " fill="none" id="User-to-MechanographicNumber" style="stroke:#1E90FF;stroke-width:1.0;"/><polygon fill="#1E90FF" points="946.16,1392.04,939.5286,1384.7582,941.5822,1390.0292,936.3112,1392.0828,946.16,1392.04" style="stroke:#1E90FF;stroke-width:1.0;"/></g><!--link User to Acronym--><g id="link_User_Acronym"><path codeLine="58" d="M780.71,1192.98 C812.18,1224.2 863.76,1271.21 916,1301 C928.71,1308.25 943.07,1314.42 957.03,1319.53 " fill="none" id="User-to-Acronym" style="stroke:#1E90FF;stroke-width:1.0;"/><polygon fill="#1E90FF" points="961.56,1321.51,954.414,1314.7325,956.8474,1319.8392,951.7407,1322.2726,961.56,1321.51" style="stroke:#1E90FF;stroke-width:1.0;"/></g><!--link User to BirthDate--><g id="link_User_BirthDate"><path codeLine="59" d="M784.81,1175.34 C818.28,1189.01 870.38,1209.98 916,1227 C929.54,1232.05 944.13,1237.28 958.03,1242.16 " fill="none" id="User-to-BirthDate" style="stroke:#1E90FF;stroke-width:1.0;"/><polygon fill="#1E90FF" points="962.52,1244.09,955.3494,1237.3385,957.8014,1242.4363,952.7036,1244.8883,962.52,1244.09" style="stroke:#1E90FF;stroke-width:1.0;"/></g><!--link User to TaxPayerNumber--><g id="link_User_TaxPayerNumber"><path codeLine="60" d="M784.73,1164.7 C825.63,1169.06 894.73,1176.43 947.84,1182.09 " fill="none" id="User-to-TaxPayerNumber" style="stroke:#1E90FF;stroke-width:1.0;"/><polygon fill="#1E90FF" points="952.58,1182.7,944.0533,1177.7709,947.608,1182.1714,943.2075,1185.726,952.58,1182.7" style="stroke:#1E90FF;stroke-width:1.0;"/></g><!--link Course to Name--><g id="link_Course_Name"><path codeLine="87" d="M460.26,689.76 C500.23,703.47 563.66,724.87 619,742 C639.75,748.42 662.5,755.07 683.03,760.94 " fill="none" id="Course-to-Name" style="stroke:#1E90FF;stroke-width:1.0;"/><polygon fill="#1E90FF" points="687.76,762.57,680.1878,756.2722,682.9486,761.2096,678.0112,763.9705,687.76,762.57" style="stroke:#1E90FF;stroke-width:1.0;"/></g><!--link Course to State--><g id="link_Course_State"><path codeLine="88" d="M460.33,679.53 C515.6,684.42 616.22,693.33 682.6,699.21 " fill="none" id="Course-to-State" style="stroke:#1E90FF;stroke-width:1.0;"/><polygon fill="#1E90FF" points="687.51,699.73,678.9004,694.9472,682.5297,699.2864,678.1906,702.9157,687.51,699.73" style="stroke:#1E90FF;stroke-width:1.0;"/></g><!--link Course to Description--><g id="link_Course_Description"><path codeLine="89" d="M460.33,670.53 C515.6,662.93 616.22,649.11 682.6,639.99 " fill="none" id="Course-to-Description" style="stroke:#1E90FF;stroke-width:1.0;"/><polygon fill="#1E90FF" points="687.51,639.17,678.0468,636.4409,682.5572,639.8551,679.143,644.3655,687.51,639.17" style="stroke:#1E90FF;stroke-width:1.0;"/></g><!--link Course to MaxStudents--><g id="link_Course_MaxStudents"><path codeLine="90" d="M460.29,658.01 C500.01,640.43 563.02,613.52 619,594 C639.61,586.81 662.42,579.93 683.04,574.09 " fill="none" id="Course-to-MaxStudents" style="stroke:#1E90FF;stroke-width:1.0;"/><polygon fill="#1E90FF" points="687.8,572.47,678.0562,571.0352,682.9838,573.8134,680.2056,578.741,687.8,572.47" style="stroke:#1E90FF;stroke-width:1.0;"/></g><!--link Course to MinStudents--><g id="link_Course_MinStudents"><path codeLine="91" d="M452.5,644.31 C489.6,609.22 554.02,553.23 619,520 C638.9,509.82 662,502.08 683.11,496.37 " fill="none" id="Course-to-MinStudents" style="stroke:#1E90FF;stroke-width:1.0;"/><polygon fill="#1E90FF" points="687.71,494.89,677.9838,493.3404,682.8784,496.1765,680.0423,501.0711,687.71,494.89" style="stroke:#1E90FF;stroke-width:1.0;"/></g><!--link Course to Code--><g id="link_Course_Code"><path codeLine="92" d="M457.64,708 C495.82,739.45 558.15,786.85 619,816 C639.06,825.61 662.1,833.2 683.1,838.94 " fill="none" id="Course-to-Code" style="stroke:#1E90FF;stroke-width:1.0;"/><polygon fill="#1E90FF" points="687.68,840.43,680.0294,834.2278,682.8519,839.1301,677.9496,841.9527,687.68,840.43" style="stroke:#1E90FF;stroke-width:1.0;"/></g><!--link Course to Edition--><g id="link_Course_Edition"><path codeLine="93" d="M429.94,644.12 C451.33,578.23 510.25,427.7 619,362 C638.4,350.28 661.69,342.12 683.11,336.51 " fill="none" id="Course-to-Edition" style="stroke:#1E90FF;stroke-width:1.0;"/><polygon fill="#1E90FF" points="687.81,335.07,678.1027,333.4059,682.9635,336.2995,680.0699,341.1603,687.81,335.07" style="stroke:#1E90FF;stroke-width:1.0;"/></g><!--link Class to ClassDate--><g id="link_Class_ClassDate"><path codeLine="143" d="M784.73,404 C827.98,404 902.76,404 956.82,404 " fill="none" id="Class-to-ClassDate" style="stroke:#1E90FF;stroke-width:1.0;"/><polygon fill="#1E90FF" points="961.65,404,952.65,400,956.65,404,952.65,408,961.65,404" style="stroke:#1E90FF;stroke-width:1.0;"/></g><!--link Class to ClassDuration--><g id="link_Class_ClassDuration"><path codeLine="144" d="M784.73,394.55 C828.06,382.76 903.06,362.36 957.15,347.64 " fill="none" id="Class-to-ClassDuration" style="stroke:#1E90FF;stroke-width:1.0;"/><polygon fill="#1E90FF" points="961.65,346.15,951.9154,344.6541,956.8255,347.4632,954.0165,352.3733,961.65,346.15" style="stroke:#1E90FF;stroke-width:1.0;"/></g><!--link Class to ClassTitle--><g id="link_Class_ClassTitle"><path codeLine="145" d="M784.86,413.05 C806.45,419.79 833.97,430.53 855,446 C889.61,471.46 882.07,494.64 916,521 C929.52,531.5 945.66,540.41 961.21,547.63 " fill="none" id="Class-to-ClassTitle" style="stroke:#1E90FF;stroke-width:1.0;"/><polygon fill="#1E90FF" points="965.46,550.01,958.9219,542.6443,960.9082,547.941,955.6115,549.9272,965.46,550.01" style="stroke:#1E90FF;stroke-width:1.0;"/></g><!--link Class to ClassType--><g id="link_Class_ClassType"><path codeLine="146" d="M784.73,414.21 C828.06,426.96 903.06,449.02 957.15,464.93 " fill="none" id="Class-to-ClassType" style="stroke:#1E90FF;stroke-width:1.0;"/><polygon fill="#1E90FF" points="961.65,466.54,954.13,460.18,956.85,465.14,951.89,467.86,961.65,466.54" style="stroke:#1E90FF;stroke-width:1.0;"/></g><!--link Course to Class--><g id="link_Course_Class"><path codeLine="147" d="M439.85,644 C471.36,594.53 538.4,499.59 619,446 C645.83,428.16 680.81,417.4 707.58,411.24 " fill="none" id="Course-to-Class" style="stroke:#1E90FF;stroke-width:1.0;"/><polygon fill="#1E90FF" points="712.16,409.99,702.5066,408.0376,707.2791,411.0747,704.242,415.8471,712.16,409.99" style="stroke:#1E90FF;stroke-width:1.0;"/><text fill="#000000" font-family="sans-serif" font-size="13" lengthAdjust="spacing" textLength="54" x="555" y="452.5684">contains</text><text fill="#000000" font-family="sans-serif" font-size="13" lengthAdjust="spacing" textLength="6" x="699.5134" y="425.2821">*</text></g><!--link EnrollmentRequest to RequestedDate--><g id="link_EnrollmentRequest_RequestedDate"><path codeLine="168" d="M185.33,201.07 C236.93,203.05 303.16,205.59 351.84,207.45 " fill="none" id="EnrollmentRequest-to-RequestedDate" style="stroke:#1E90FF;stroke-width:1.0;"/><polygon fill="#1E90FF" points="356.69,207.67,347.8571,203.3135,351.694,207.4702,347.5373,211.3071,356.69,207.67" style="stroke:#1E90FF;stroke-width:1.0;"/></g><!--link EnrollmentRequest to AnsweredDate--><g id="link_EnrollmentRequest_AnsweredDate"><path codeLine="169" d="M185.33,182.11 C237.45,171.81 304.5,158.54 353.32,148.89 " fill="none" id="EnrollmentRequest-to-AnsweredDate" style="stroke:#1E90FF;stroke-width:1.0;"/><polygon fill="#1E90FF" points="358.18,147.73,348.574,145.5566,353.2755,148.7023,350.1297,153.4038,358.18,147.73" style="stroke:#1E90FF;stroke-width:1.0;"/></g><!--link EnrollmentRequest to RequestState--><g id="link_EnrollmentRequest_RequestState"><path codeLine="170" d="M158.03,166.22 C194.73,145.15 245.2,118 292,99 C311.57,91.05 333.48,84.02 353.49,78.29 " fill="none" id="EnrollmentRequest-to-RequestState" style="stroke:#1E90FF;stroke-width:1.0;"/><polygon fill="#1E90FF" points="358.08,76.7,348.3323,75.292,353.2676,78.0566,350.5029,82.9919,358.08,76.7" style="stroke:#1E90FF;stroke-width:1.0;"/></g><!--link Course to User--><g id="link_Course_User"><path codeLine="174" d="M446.87,707.87 C495.77,767.08 596.88,889.96 611,911 C659.44,983.16 705.89,1073.95 730.28,1123.86 " fill="none" id="Course-to-User" style="stroke:#1E90FF;stroke-width:1.0;"/><polygon fill="#1E90FF" points="732.86,1128.16,732.4883,1118.3182,730.6583,1123.6708,725.3056,1121.8409,732.86,1128.16" style="stroke:#1E90FF;stroke-width:1.0;"/><text fill="#000000" font-family="sans-serif" font-size="13" lengthAdjust="spacing" textLength="56" x="554" y="838.5684">is owned</text><text fill="#000000" font-family="sans-serif" font-size="13" lengthAdjust="spacing" textLength="8" x="720.7061" y="1118.6719">1</text></g><!--link Course to User--><g id="link_Course_User"><path codeLine="175" d="M431.39,707.89 C450.22,759.78 492.71,863.91 553,936 C573.76,960.82 588.13,957.11 611,980 C656.36,1025.41 699.46,1086.31 724.81,1124.6 " fill="none" id="Course-to-User-1" style="stroke:#1E90FF;stroke-width:1.0;"/><polygon fill="#1E90FF" points="727.82,1128.16,726.2096,1118.4437,725.0696,1123.9845,719.5288,1122.8444,727.82,1128.16" style="stroke:#1E90FF;stroke-width:1.0;"/><text fill="#000000" font-family="sans-serif" font-size="13" lengthAdjust="spacing" textLength="22" x="571" y="932.5684">has</text><text fill="#000000" font-family="sans-serif" font-size="13" lengthAdjust="spacing" textLength="10" x="712.4204" y="1118.6719">N</text></g><!--link Course to User--><g id="link_Course_User"><path codeLine="176" d="M427.51,707.68 C442.38,769.63 481.71,909.14 553,1005 C575.62,1035.42 658.32,1097.06 708.47,1133.09 " fill="none" id="Course-to-User-2" style="stroke:#1E90FF;stroke-width:1.0;"/><polygon fill="#1E90FF" points="712.21,1136.49,707.2198,1127.999,708.1442,1133.5798,702.5634,1134.5042,712.21,1136.49" style="stroke:#1E90FF;stroke-width:1.0;"/><text fill="#000000" font-family="sans-serif" font-size="13" lengthAdjust="spacing" textLength="48" x="558" y="1001.5684">teaches</text><text fill="#000000" font-family="sans-serif" font-size="13" lengthAdjust="spacing" textLength="10" x="695.4344" y="1145.8689">N</text></g><!--link EnrollmentRequest to User--><g id="link_EnrollmentRequest_User"><path codeLine="178" d="M105.3,229.79 C107.85,336.37 128.87,686.69 292,906 C400.19,1051.46 617.39,1125.22 707.44,1150.57 " fill="none" id="EnrollmentRequest-to-User" style="stroke:#1E90FF;stroke-width:1.0;"/><polygon fill="#1E90FF" points="712.19,1152.18,704.5956,1145.909,707.3738,1150.8366,702.4462,1153.6148,712.19,1152.18" style="stroke:#1E90FF;stroke-width:1.0;"/><text fill="#000000" font-family="sans-serif" font-size="13" lengthAdjust="spacing" textLength="28" x="405.5" y="902.5684">is of</text><text fill="#000000" font-family="sans-serif" font-size="13" lengthAdjust="spacing" textLength="8" x="697.6012" y="1164.5498">1</text></g><!--link EnrollmentRequest to Course--><g id="link_EnrollmentRequest_Course"><path codeLine="179" d="M125.81,229.73 C181.71,314.97 334.92,548.56 394.42,639.29 " fill="none" id="EnrollmentRequest-to-Course" style="stroke:#1E90FF;stroke-width:1.0;"/><polygon fill="#1E90FF" points="397.69,643.28,396.1028,633.5599,394.9495,639.0979,389.4115,637.9446,397.69,643.28" style="stroke:#1E90FF;stroke-width:1.0;"/><text fill="#000000" font-family="sans-serif" font-size="13" lengthAdjust="spacing" textLength="67" x="216" y="363.5684">belongs to</text><text fill="#000000" font-family="sans-serif" font-size="13" lengthAdjust="spacing" textLength="8" x="384.3667" y="633.8166">1</text></g><!--SRC=[pLPBR-Cs4BxhLn3UmxP54tGF1Gh3CE3O2U0Y3oDszqvBOuaDHQea5STRx7_laDIBilpOMuK0IMO-3kVnpGmpbW39mMGoqH67dI564iNIp924AOWDaoAAz1iJ1LKq9p6dMi-CKMnR6bZ6KgpPDo2_7M78ln71xv7ju949k9Cg0JMNN2goa4aAwewN449e_9OgMOh4msQhrUDoFjiiNvuThg__jFZZuVU71wURAINtWzPFNFozwt21bcaAQtFWG6pGLAGSWf2eIlx_4LLnaD5V6l2sD5MGKWEZodCGXfa3SSh9nFytdKucIaepdKRHPwTvfsYDoEtVc0VjphdWxtFA-2n9561j9vEl3lNYKDEfj_-zHQ-G0NlqypBoeUJycUPm6RdEf3BNGMqWQuEXNuO-GPnH8LD5Yup5psM-TTcvS6eMAoaE-H6G727lc3BPOiYLO-o6Vgpe0TG9BuuFl4f-mQwGUBFlPxbp-36PKq6sG3P0umpKhsHjoWJPG91FJrGWWLJapZewtDnCWzg7chhEeRIkQIXjwXUAhK-XfAbUA1wgL8YegX8AcmA4uZ3NKPiiDmIhN3cf_JOPqmH_fE07Kcf8o0wpLPIga1fq0yDZjCHPgjWtwYQdRxl4MGuwT2vBfU5aZrRgeIwrgC-L_aIlpcLo3TskRBlh-cW1EbQii55VqNJqeoBT5RFaYOdhmVS9E-k2-rLbpzAWuMD7rdAl8-p4rrTreZbIjRxtLRP8VLdbVJJGkgrJxenlOId0wam6o4VEvPw9TDo0x7T3NWeGFT6S8skJdl1UA3JH4ox5Ic77rNtVK7d0mIOU-ztZQ26n3ooZcb1I2lOFrYCEK1yqB-n46lqv-pgx-J8wTKdTatL-QWCBjjk1ihCBl4Qx5gnkRc1KWNtMREtrGkEBHs439_NP1kPF3KLQTwLxsBHD6NLQpgeMvpgbZoqLlSpK5hzXXbzjV7CeBc07wbT7451WLhtcSFPHlgS7Mqfy8PLA8TN87k0D1oAyOqPke-3WqX2ToP8dDkqinpcfsPQxEcXSEqc9VplJe96_r0I7RS5YoKJCt6BQCvCHYInNpP6AzTgEC5-ttlqRgpre0tdj1-LQaZrLWh1TjtFmXMTOp0fQDsdzCU7qFW4_0NCEK6BythJhaXBjk_jdn_B0nJ0WqxfhM0wtzVRLM3NHPWG-ZAArXTl6HCZ64xLp31aiNbvgWmw-Gzk79W27zZtDtOmAED6NLmmUqhM-z1N8pFxK6_qogc1Zsw26Cg479qnWu0V7u6jDslxOina_lQVzLConnA-0USCydbhPnyXJszi_tJm8alDlmywJK-Yz7LpNugiBpgzlz-lOS_Skwpfu1jVrwx8vlyQYuqKy-ZBoZxEnUsVjHRMWkf3d1eBTTaRhErIVYwvttUu2jBfdZ6pZKgGuicJq7m00]--></g></svg>