<?xml version="1.0" encoding="us-ascii" standalone="no"?><svg xmlns="http://www.w3.org/2000/svg" xmlns:xlink="http://www.w3.org/1999/xlink" contentStyleType="text/css" height="1292px" preserveAspectRatio="none" style="width:1169px;height:1292px;background:#FFFFFF;" version="1.1" viewBox="0 0 1169 1292" width="1169px" zoomAndPan="magnify"><defs/><g><text fill="#000000" font-family="sans-serif" font-size="14" font-weight="bold" lengthAdjust="spacing" textLength="162" x="496.5" y="23.5352">Domain Model Excerpt</text><!--cluster User Aggregate--><g id="cluster_User Aggregate"><rect fill="none" height="757" rx="2.5" ry="2.5" style="stroke:#000000;stroke-width:1.5;" width="829" x="334" y="529.4883"/><text fill="#000000" font-family="sans-serif" font-size="14" font-weight="bold" lengthAdjust="spacing" textLength="110" x="693.5" y="545.0234">User Aggregate</text></g><!--cluster Course Aggregate--><g id="cluster_Course Aggregate"><rect fill="none" height="461" rx="2.5" ry="2.5" style="stroke:#000000;stroke-width:1.5;" width="846" x="7" y="44.4883"/><text fill="#000000" font-family="sans-serif" font-size="14" font-weight="bold" lengthAdjust="spacing" textLength="128" x="366" y="60.0234">Course Aggregate</text></g><!--class User--><g id="elem_User"><rect codeLine="28" fill="#D8F5FF" height="62.7539" id="User" rx="2.5" ry="2.5" style="stroke:#1E90FF;stroke-width:0.5;" width="71" x="420.5" y="774.9883"/><ellipse cx="435.5" cy="802.3652" fill="#ADD1B2" rx="11" ry="11" style="stroke:#181818;stroke-width:1.0;"/><path d="M439.6143,808.3652 L431.8945,808.3652 L431.8945,795.9722 L439.6143,795.9722 L439.6143,798.1304 L434.3433,798.1304 L434.3433,800.8032 L439.1162,800.8032 L439.1162,802.9614 L434.3433,802.9614 L434.3433,806.207 L439.6143,806.207 Z " fill="#000000"/><text fill="#000000" font-family="sans-serif" font-size="12" font-style="italic" lengthAdjust="spacing" textLength="43" x="447.5" y="791.5898">&#171;entity&#187;</text><text fill="#000000" font-family="sans-serif" font-size="12" font-style="italic" lengthAdjust="spacing" textLength="35" x="451.5" y="805.7227">&#171;root&#187;</text><text fill="#000000" font-family="sans-serif" font-size="14" lengthAdjust="spacing" textLength="31" x="453.5" y="821.7891">User</text><line style="stroke:#1E90FF;stroke-width:0.5;" x1="421.5" x2="490.5" y1="829.7422" y2="829.7422"/></g><g id="elem_GMN14"><path d="M900,1237.9883 L900,1246.4883 L790.34,1250.4883 L900,1254.4883 L900,1263.2988 A0,0 0 0 0 900,1263.2988 L1147,1263.2988 A0,0 0 0 0 1147,1263.2988 L1147,1247.9883 L1137,1237.9883 L900,1237.9883 A0,0 0 0 0 900,1237.9883 " fill="#FEFFDD" style="stroke:#181818;stroke-width:0.5;"/><path d="M1137,1237.9883 L1137,1247.9883 L1147,1247.9883 L1137,1237.9883 " fill="#FEFFDD" style="stroke:#181818;stroke-width:0.5;"/><text fill="#000000" font-family="sans-serif" font-size="13" lengthAdjust="spacing" textLength="226" x="906" y="1255.5566">Can be Teacher, Student or Manager</text></g><g id="elem_GMN27"><path d="M350,1228.9883 L350,1269.6094 A0,0 0 0 0 350,1269.6094 L562,1269.6094 A0,0 0 0 0 562,1269.6094 L562,1253.8783 L669.7,1250.2683 L562,1245.8783 L562,1238.9883 L552,1228.9883 L350,1228.9883 A0,0 0 0 0 350,1228.9883 " fill="#FEFFDD" style="stroke:#181818;stroke-width:0.5;"/><path d="M552,1228.9883 L552,1238.9883 L562,1238.9883 L552,1228.9883 " fill="#FEFFDD" style="stroke:#181818;stroke-width:0.5;"/><text fill="#000000" font-family="sans-serif" font-size="13" lengthAdjust="spacing" textLength="191" x="356" y="1246.5566">This is only used for purposes</text><text fill="#000000" font-family="sans-serif" font-size="13" lengthAdjust="spacing" textLength="101" x="356" y="1261.8672">of authorization</text></g><!--entity EmailAddress--><g id="elem_EmailAddress"><rect fill="#D8F5FF" height="38.9766" rx="2.5" ry="2.5" style="stroke:#1E90FF;stroke-width:0.5;" width="120" x="670" y="712.9883"/><text fill="#000000" font-family="sans-serif" font-size="14" font-style="italic" lengthAdjust="spacing" textLength="100" x="680" y="729.5234">&#171;Value Object&#187;</text><text fill="#000000" font-family="sans-serif" font-size="14" lengthAdjust="spacing" textLength="93" x="683.5" y="746.0117">EmailAddress</text></g><!--entity Password--><g id="elem_Password"><rect fill="#D8F5FF" height="38.9766" rx="2.5" ry="2.5" style="stroke:#1E90FF;stroke-width:0.5;" width="120" x="670" y="638.9883"/><text fill="#000000" font-family="sans-serif" font-size="14" font-style="italic" lengthAdjust="spacing" textLength="100" x="680" y="655.5234">&#171;Value Object&#187;</text><text fill="#000000" font-family="sans-serif" font-size="14" lengthAdjust="spacing" textLength="65" x="697.5" y="672.0117">Password</text></g><!--entity FullName--><g id="elem_FullName"><rect fill="#D8F5FF" height="38.9766" rx="2.5" ry="2.5" style="stroke:#1E90FF;stroke-width:0.5;" width="120" x="670" y="564.9883"/><text fill="#000000" font-family="sans-serif" font-size="14" font-style="italic" lengthAdjust="spacing" textLength="100" x="680" y="581.5234">&#171;Value Object&#187;</text><text fill="#000000" font-family="sans-serif" font-size="14" lengthAdjust="spacing" textLength="64" x="698" y="598.0117">FullName</text></g><!--entity ShortName--><g id="elem_ShortName"><rect fill="#D8F5FF" height="38.9766" rx="2.5" ry="2.5" style="stroke:#1E90FF;stroke-width:0.5;" width="120" x="670" y="1156.9883"/><text fill="#000000" font-family="sans-serif" font-size="14" font-style="italic" lengthAdjust="spacing" textLength="100" x="680" y="1173.5234">&#171;Value Object&#187;</text><text fill="#000000" font-family="sans-serif" font-size="14" lengthAdjust="spacing" textLength="76" x="692" y="1190.0117">ShortName</text></g><!--entity UserState--><g id="elem_UserState"><rect fill="#D8F5FF" height="38.9766" rx="2.5" ry="2.5" style="stroke:#1E90FF;stroke-width:0.5;" width="120" x="670" y="1082.9883"/><text fill="#000000" font-family="sans-serif" font-size="14" font-style="italic" lengthAdjust="spacing" textLength="100" x="680" y="1099.5234">&#171;Value Object&#187;</text><text fill="#000000" font-family="sans-serif" font-size="14" lengthAdjust="spacing" textLength="65" x="697.5" y="1116.0117">UserState</text></g><!--entity MechanographicNumber--><g id="elem_MechanographicNumber"><rect fill="#D8F5FF" height="38.9766" rx="2.5" ry="2.5" style="stroke:#1E90FF;stroke-width:0.5;" width="189" x="635.5" y="1008.9883"/><text fill="#000000" font-family="sans-serif" font-size="14" font-style="italic" lengthAdjust="spacing" textLength="100" x="680" y="1025.5234">&#171;Value Object&#187;</text><text fill="#000000" font-family="sans-serif" font-size="14" lengthAdjust="spacing" textLength="169" x="645.5" y="1042.0117">MechanographicNumber</text></g><!--entity Acronym--><g id="elem_Acronym"><rect fill="#D8F5FF" height="38.9766" rx="2.5" ry="2.5" style="stroke:#1E90FF;stroke-width:0.5;" width="120" x="670" y="934.9883"/><text fill="#000000" font-family="sans-serif" font-size="14" font-style="italic" lengthAdjust="spacing" textLength="100" x="680" y="951.5234">&#171;Value Object&#187;</text><text fill="#000000" font-family="sans-serif" font-size="14" lengthAdjust="spacing" textLength="61" x="699.5" y="968.0117">Acronym</text></g><!--entity BirthDate--><g id="elem_BirthDate"><rect fill="#D8F5FF" height="38.9766" rx="2.5" ry="2.5" style="stroke:#1E90FF;stroke-width:0.5;" width="120" x="670" y="860.9883"/><text fill="#000000" font-family="sans-serif" font-size="14" font-style="italic" lengthAdjust="spacing" textLength="100" x="680" y="877.5234">&#171;Value Object&#187;</text><text fill="#000000" font-family="sans-serif" font-size="14" lengthAdjust="spacing" textLength="63" x="698.5" y="894.0117">BirthDate</text></g><!--entity TaxPayerNumber--><g id="elem_TaxPayerNumber"><rect fill="#D8F5FF" height="38.9766" rx="2.5" ry="2.5" style="stroke:#1E90FF;stroke-width:0.5;" width="138" x="661" y="786.9883"/><text fill="#000000" font-family="sans-serif" font-size="14" font-style="italic" lengthAdjust="spacing" textLength="100" x="680" y="803.5234">&#171;Value Object&#187;</text><text fill="#000000" font-family="sans-serif" font-size="14" lengthAdjust="spacing" textLength="118" x="671" y="820.0117">TaxPayerNumber</text></g><!--entity Role--><g id="elem_Role"><rect fill="#D8F5FF" height="38.9766" rx="2.5" ry="2.5" style="stroke:#1E90FF;stroke-width:0.5;" width="120" x="670" y="1230.9883"/><text fill="#000000" font-family="sans-serif" font-size="14" font-style="italic" lengthAdjust="spacing" textLength="100" x="680" y="1247.5234">&#171;Value Object&#187;</text><text fill="#000000" font-family="sans-serif" font-size="14" lengthAdjust="spacing" textLength="30" x="715" y="1264.0117">Role</text></g><!--class Course--><g id="elem_Course"><rect codeLine="72" fill="#D8F5FF" height="62.7539" id="Course" rx="2.5" ry="2.5" style="stroke:#1E90FF;stroke-width:0.5;" width="81" x="86" y="363.9883"/><ellipse cx="101" cy="391.3652" fill="#ADD1B2" rx="11" ry="11" style="stroke:#181818;stroke-width:1.0;"/><path d="M105.1143,397.3652 L97.3945,397.3652 L97.3945,384.9722 L105.1143,384.9722 L105.1143,387.1304 L99.8433,387.1304 L99.8433,389.8032 L104.6162,389.8032 L104.6162,391.9614 L99.8433,391.9614 L99.8433,395.207 L105.1143,395.207 Z " fill="#000000"/><text fill="#000000" font-family="sans-serif" font-size="12" font-style="italic" lengthAdjust="spacing" textLength="43" x="118" y="380.5898">&#171;entity&#187;</text><text fill="#000000" font-family="sans-serif" font-size="12" font-style="italic" lengthAdjust="spacing" textLength="35" x="122" y="394.7227">&#171;root&#187;</text><text fill="#000000" font-family="sans-serif" font-size="14" lengthAdjust="spacing" textLength="49" x="115" y="410.7891">Course</text><line style="stroke:#1E90FF;stroke-width:0.5;" x1="87" x2="166" y1="418.7422" y2="418.7422"/></g><g id="elem_GMN44"><path d="M630.5,277.9883 L630.5,317.4883 L516.36,321.4883 L630.5,325.4883 L630.5,364.541 A0,0 0 0 0 630.5,364.541 L829.5,364.541 A0,0 0 0 0 829.5,364.541 L829.5,287.9883 L819.5,277.9883 L630.5,277.9883 A0,0 0 0 0 630.5,277.9883 " fill="#FEFFDD" style="stroke:#181818;stroke-width:0.5;"/><path d="M819.5,277.9883 L819.5,287.9883 L829.5,287.9883 L819.5,277.9883 " fill="#FEFFDD" style="stroke:#181818;stroke-width:0.5;"/><text fill="#000000" font-family="sans-serif" font-size="13" lengthAdjust="spacing" textLength="178" x="636.5" y="295.5566">Can be one of the following:</text><text fill="#000000" font-family="sans-serif" font-size="13" lengthAdjust="spacing" textLength="45" x="652.5" y="310.8672">- Open</text><text fill="#000000" font-family="sans-serif" font-size="13" lengthAdjust="spacing" textLength="55" x="652.5" y="326.1777">- Closed</text><text fill="#000000" font-family="sans-serif" font-size="13" lengthAdjust="spacing" textLength="48" x="652.5" y="341.4883">- Enroll</text><text fill="#000000" font-family="sans-serif" font-size="13" lengthAdjust="spacing" textLength="78" x="652.5" y="356.7988">- InProgress</text></g><g id="elem_GMN47"><path d="M45,79.4883 L45,135.4199 A0,0 0 0 0 45,135.4199 L208,135.4199 A0,0 0 0 0 208,135.4199 L208,109.5083 L395.53,100.9383 L208,101.5083 L208,89.4883 L198,79.4883 L45,79.4883 A0,0 0 0 0 45,79.4883 " fill="#FEFFDD" style="stroke:#181818;stroke-width:0.5;"/><path d="M198,79.4883 L198,89.4883 L208,89.4883 L198,79.4883 " fill="#FEFFDD" style="stroke:#181818;stroke-width:0.5;"/><text fill="#000000" font-family="sans-serif" font-size="13" lengthAdjust="spacing" textLength="142" x="51" y="97.0566">Each course as a lower</text><text fill="#000000" font-family="sans-serif" font-size="13" lengthAdjust="spacing" textLength="100" x="51" y="112.3672">and higher limit</text><text fill="#000000" font-family="sans-serif" font-size="13" lengthAdjust="spacing" textLength="124" x="51" y="127.6777">number of students</text></g><g id="elem_GMN50"><path d="M623,447.9883 L623,464.8783 L516.36,469.2683 L623,472.8783 L623,488.6094 A0,0 0 0 0 623,488.6094 L837,488.6094 A0,0 0 0 0 837,488.6094 L837,457.9883 L827,447.9883 L623,447.9883 A0,0 0 0 0 623,447.9883 " fill="#FEFFDD" style="stroke:#181818;stroke-width:0.5;"/><path d="M827,447.9883 L827,457.9883 L837,457.9883 L827,447.9883 " fill="#FEFFDD" style="stroke:#181818;stroke-width:0.5;"/><text fill="#000000" font-family="sans-serif" font-size="13" lengthAdjust="spacing" textLength="193" x="629" y="465.5566">Each course has a unique code</text><text fill="#000000" font-family="sans-serif" font-size="13" lengthAdjust="spacing" textLength="117" x="629" y="480.8672">Example: "JAVA-1"</text></g><g id="elem_GMN53"><path d="M23,170.4883 L23,226.4199 A0,0 0 0 0 23,226.4199 L230,226.4199 A0,0 0 0 0 230,226.4199 L230,194.6483 L395.55,178.0283 L230,186.6483 L230,180.4883 L220,170.4883 L23,170.4883 A0,0 0 0 0 23,170.4883 " fill="#FEFFDD" style="stroke:#181818;stroke-width:0.5;"/><path d="M220,170.4883 L220,180.4883 L230,180.4883 L220,170.4883 " fill="#FEFFDD" style="stroke:#181818;stroke-width:0.5;"/><text fill="#000000" font-family="sans-serif" font-size="13" lengthAdjust="spacing" textLength="185" x="29" y="188.0566">Different editions of a course</text><text fill="#000000" font-family="sans-serif" font-size="13" lengthAdjust="spacing" textLength="186" x="29" y="203.3672">are to be considered different</text><text fill="#000000" font-family="sans-serif" font-size="13" lengthAdjust="spacing" textLength="49" x="29" y="218.6777">courses</text></g><!--entity Code--><g id="elem_Code"><rect fill="#D8F5FF" height="38.9766" rx="2.5" ry="2.5" style="stroke:#1E90FF;stroke-width:0.5;" width="120" x="396" y="449.9883"/><text fill="#000000" font-family="sans-serif" font-size="14" font-style="italic" lengthAdjust="spacing" textLength="100" x="406" y="466.5234">&#171;Value Object&#187;</text><text fill="#000000" font-family="sans-serif" font-size="14" lengthAdjust="spacing" textLength="36" x="438" y="483.0117">Code</text></g><!--entity Name--><g id="elem_Name"><rect fill="#D8F5FF" height="38.9766" rx="2.5" ry="2.5" style="stroke:#1E90FF;stroke-width:0.5;" width="120" x="396" y="375.9883"/><text fill="#000000" font-family="sans-serif" font-size="14" font-style="italic" lengthAdjust="spacing" textLength="100" x="406" y="392.5234">&#171;Value Object&#187;</text><text fill="#000000" font-family="sans-serif" font-size="14" lengthAdjust="spacing" textLength="39" x="436.5" y="409.0117">Name</text></g><!--entity State--><g id="elem_State"><rect fill="#D8F5FF" height="38.9766" rx="2.5" ry="2.5" style="stroke:#1E90FF;stroke-width:0.5;" width="120" x="396" y="301.9883"/><text fill="#000000" font-family="sans-serif" font-size="14" font-style="italic" lengthAdjust="spacing" textLength="100" x="406" y="318.5234">&#171;Value Object&#187;</text><text fill="#000000" font-family="sans-serif" font-size="14" lengthAdjust="spacing" textLength="34" x="439" y="335.0117">State</text></g><!--entity Description--><g id="elem_Description"><rect fill="#D8F5FF" height="38.9766" rx="2.5" ry="2.5" style="stroke:#1E90FF;stroke-width:0.5;" width="120" x="396" y="227.9883"/><text fill="#000000" font-family="sans-serif" font-size="14" font-style="italic" lengthAdjust="spacing" textLength="100" x="406" y="244.5234">&#171;Value Object&#187;</text><text fill="#000000" font-family="sans-serif" font-size="14" lengthAdjust="spacing" textLength="78" x="417" y="261.0117">Description</text></g><!--entity Limit--><g id="elem_Limit"><rect fill="#D8F5FF" height="38.9766" rx="2.5" ry="2.5" style="stroke:#1E90FF;stroke-width:0.5;" width="120" x="396" y="79.9883"/><text fill="#000000" font-family="sans-serif" font-size="14" font-style="italic" lengthAdjust="spacing" textLength="100" x="406" y="96.5234">&#171;Value Object&#187;</text><text fill="#000000" font-family="sans-serif" font-size="14" lengthAdjust="spacing" textLength="33" x="439.5" y="113.0117">Limit</text></g><!--entity Edition--><g id="elem_Edition"><rect fill="#D8F5FF" height="38.9766" rx="2.5" ry="2.5" style="stroke:#1E90FF;stroke-width:0.5;" width="120" x="396" y="153.9883"/><text fill="#000000" font-family="sans-serif" font-size="14" font-style="italic" lengthAdjust="spacing" textLength="100" x="406" y="170.5234">&#171;Value Object&#187;</text><text fill="#000000" font-family="sans-serif" font-size="14" lengthAdjust="spacing" textLength="48" x="432" y="187.0117">Edition</text></g><!--link User to EmailAddress--><g id="link_User_EmailAddress"><path codeLine="54" d="M491.73,797.0383 C535.06,785.2483 610.06,764.8483 664.15,750.1283 " fill="none" id="User-to-EmailAddress" style="stroke:#1E90FF;stroke-width:1.0;"/><polygon fill="#1E90FF" points="668.65,748.6383,658.9154,747.1424,663.8255,749.9515,661.0165,754.8616,668.65,748.6383" style="stroke:#1E90FF;stroke-width:1.0;"/></g><!--link User to Password--><g id="link_User_Password"><path codeLine="55" d="M491.99,779.2483 C524.53,754.8783 575.07,719.3883 623,695.4883 C635.93,689.0383 650.27,683.2183 664.11,678.2083 " fill="none" id="User-to-Password" style="stroke:#1E90FF;stroke-width:1.0;"/><polygon fill="#1E90FF" points="668.59,676.2583,658.768,675.5316,663.8836,677.9463,661.4688,683.0619,668.59,676.2583" style="stroke:#1E90FF;stroke-width:1.0;"/></g><!--link User to FullName--><g id="link_User_FullName"><path codeLine="56" d="M477.95,774.5183 C506.28,733.6183 560.51,663.1183 623,621.4883 C635.39,613.2383 649.82,606.6183 663.97,601.3883 " fill="none" id="User-to-FullName" style="stroke:#1E90FF;stroke-width:1.0;"/><polygon fill="#1E90FF" points="668.58,599.3783,658.758,598.6516,663.8736,601.0663,661.4588,606.1819,668.58,599.3783" style="stroke:#1E90FF;stroke-width:1.0;"/></g><!--link User to ShortName--><g id="link_User_ShortName"><path codeLine="57" d="M464.23,838.2483 C480.8,903.9083 527.62,1055.4883 623,1139.4883 C634.72,1149.8183 649.5,1157.2983 664.26,1162.7183 " fill="none" id="User-to-ShortName" style="stroke:#1E90FF;stroke-width:1.0;"/><polygon fill="#1E90FF" points="668.7,1164.6183,661.5358,1157.86,663.9829,1162.9602,658.8828,1165.4073,668.7,1164.6183" style="stroke:#1E90FF;stroke-width:1.0;"/></g><!--link User to Role--><g id="link_User_Role"><path codeLine="58" d="M461.04,838.4383 C472.3,914.3483 510.96,1107.0683 623,1213.4883 C634.45,1224.3683 649.28,1232.0683 664.19,1237.5083 " fill="none" id="User-to-Role" style="stroke:#1E90FF;stroke-width:1.0;"/><polygon fill="#1E90FF" points="668.69,1239.4183,661.5012,1232.6861,663.9669,1237.7773,658.8757,1240.243,668.69,1239.4183" style="stroke:#1E90FF;stroke-width:1.0;"/></g><!--link User to UserState--><g id="link_User_UserState"><path codeLine="59" d="M469.23,838.4283 C491.61,892.7583 544.19,1003.2683 623,1065.4883 C635.06,1075.0083 649.74,1082.1783 664.29,1087.5283 " fill="none" id="User-to-UserState" style="stroke:#1E90FF;stroke-width:1.0;"/><polygon fill="#1E90FF" points="668.63,1089.4283,661.4658,1082.67,663.9129,1087.7702,658.8128,1090.2173,668.63,1089.4283" style="stroke:#1E90FF;stroke-width:1.0;"/></g><!--link User to MechanographicNumber--><g id="link_User_MechanographicNumber"><path codeLine="60" d="M477.95,838.4583 C506.28,879.3583 560.51,949.8583 623,991.4883 C631.49,997.1383 640.93,1002.0283 650.59,1006.2283 " fill="none" id="User-to-MechanographicNumber" style="stroke:#1E90FF;stroke-width:1.0;"/><polygon fill="#1E90FF" points="654.97,1008.4883,648.2275,1001.3092,650.3618,1006.548,645.1231,1008.6823,654.97,1008.4883" style="stroke:#1E90FF;stroke-width:1.0;"/></g><!--link User to Acronym--><g id="link_User_Acronym"><path codeLine="61" d="M491.99,833.7283 C524.53,858.0983 575.07,893.5883 623,917.4883 C635.93,923.9383 650.27,929.7583 664.11,934.7683 " fill="none" id="User-to-Acronym" style="stroke:#1E90FF;stroke-width:1.0;"/><polygon fill="#1E90FF" points="668.59,936.7183,661.4688,929.9147,663.8836,935.0303,658.768,937.445,668.59,936.7183" style="stroke:#1E90FF;stroke-width:1.0;"/></g><!--link User to BirthDate--><g id="link_User_BirthDate"><path codeLine="62" d="M491.73,815.9383 C535.06,827.7283 610.06,848.1283 664.15,862.8483 " fill="none" id="User-to-BirthDate" style="stroke:#1E90FF;stroke-width:1.0;"/><polygon fill="#1E90FF" points="668.65,864.3383,661.0165,858.115,663.8255,863.0251,658.9154,865.8342,668.65,864.3383" style="stroke:#1E90FF;stroke-width:1.0;"/></g><!--link User to TaxPayerNumber--><g id="link_User_TaxPayerNumber"><path codeLine="63" d="M491.73,806.4883 C532.63,806.4883 601.73,806.4883 654.84,806.4883 " fill="none" id="User-to-TaxPayerNumber" style="stroke:#1E90FF;stroke-width:1.0;"/><polygon fill="#1E90FF" points="659.58,806.4883,650.58,802.4883,654.58,806.4883,650.58,810.4883,659.58,806.4883" style="stroke:#1E90FF;stroke-width:1.0;"/></g><!--link Course to Name--><g id="link_Course_Name"><path codeLine="88" d="M167.33,395.4883 C222.6,395.4883 323.22,395.4883 389.6,395.4883 " fill="none" id="Course-to-Name" style="stroke:#1E90FF;stroke-width:1.0;"/><polygon fill="#1E90FF" points="394.51,395.4883,385.51,391.4883,389.51,395.4883,385.51,399.4883,394.51,395.4883" style="stroke:#1E90FF;stroke-width:1.0;"/></g><!--link Course to State--><g id="link_Course_State"><path codeLine="89" d="M167.33,386.4883 C222.71,373.9783 323.63,351.1683 390,336.1783 " fill="none" id="Course-to-State" style="stroke:#1E90FF;stroke-width:1.0;"/><polygon fill="#1E90FF" points="394.51,334.9283,384.85,333.0089,389.6328,336.0296,386.6121,340.8124,394.51,334.9283" style="stroke:#1E90FF;stroke-width:1.0;"/></g><!--link Course to Description--><g id="link_Course_Description"><path codeLine="90" d="M167.18,369.6883 C206.29,345.1283 268.41,308.4683 326,284.4883 C346.34,276.0183 369.25,268.7583 390.06,262.9683 " fill="none" id="Course-to-Description" style="stroke:#1E90FF;stroke-width:1.0;"/><polygon fill="#1E90FF" points="394.58,261.4483,384.8454,259.9524,389.7555,262.7615,386.9465,267.6716,394.58,261.4483" style="stroke:#1E90FF;stroke-width:1.0;"/></g><!--link Course to Limit--><g id="link_Course_Limit"><path codeLine="91" d="M148.16,363.6783 C189.07,301.5883 280.35,167.5883 326,136.4883 C344.91,123.5983 368.3,115.1583 389.95,109.6483 " fill="none" id="Course-to-Limit" style="stroke:#1E90FF;stroke-width:1.0;"/><polygon fill="#1E90FF" points="394.71,108.2383,385.0121,106.5203,389.8568,109.4409,386.9362,114.2855,394.71,108.2383" style="stroke:#1E90FF;stroke-width:1.0;"/></g><!--link Course to Code--><g id="link_Course_Code"><path codeLine="92" d="M167.33,404.4883 C222.71,416.9983 323.63,439.8083 390,454.7983 " fill="none" id="Course-to-Code" style="stroke:#1E90FF;stroke-width:1.0;"/><polygon fill="#1E90FF" points="394.51,456.0483,386.6121,450.1642,389.6328,454.947,384.85,457.9677,394.51,456.0483" style="stroke:#1E90FF;stroke-width:1.0;"/></g><!--link Course to Edition--><g id="link_Course_Edition"><path codeLine="93" d="M152.99,363.8383 C187.83,322.6183 254.24,251.0783 326,210.4883 C345.55,199.4283 368.66,191.4583 389.89,185.8083 " fill="none" id="Course-to-Edition" style="stroke:#1E90FF;stroke-width:1.0;"/><polygon fill="#1E90FF" points="394.53,184.3483,384.8182,182.7111,389.6869,185.5912,386.8068,190.46,394.53,184.3483" style="stroke:#1E90FF;stroke-width:1.0;"/></g><!--link Course to User--><g id="link_Course_User"><path codeLine="122" d="M167.49,427.2583 C208.37,461.0083 272.2,517.2683 318,574.4883 C368.66,637.7883 413.52,721.7183 437.21,769.3283 " fill="none" id="Course-to-User" style="stroke:#1E90FF;stroke-width:1.0;"/><polygon fill="#1E90FF" points="439.86,773.6683,439.4379,763.8285,437.6353,769.1905,432.2734,767.3879,439.86,773.6683" style="stroke:#1E90FF;stroke-width:1.0;"/><text fill="#000000" font-family="sans-serif" font-size="13" lengthAdjust="spacing" textLength="56" x="261" y="508.0566">is owned</text><text fill="#000000" font-family="sans-serif" font-size="13" lengthAdjust="spacing" textLength="8" x="427.7061" y="764.1843">1</text></g><!--link Course to User--><g id="link_Course_User"><path codeLine="123" d="M145.81,427.4383 C169.97,468.6483 214.74,541.8683 260,599.4883 C310.37,663.6183 376.92,731.1683 417.8,771.0283 " fill="none" id="Course-to-User-1" style="stroke:#1E90FF;stroke-width:1.0;"/><polygon fill="#1E90FF" points="420.67,773.7983,417.0231,764.6495,417.0918,770.3059,411.4354,770.3746,420.67,773.7983" style="stroke:#1E90FF;stroke-width:1.0;"/><text fill="#000000" font-family="sans-serif" font-size="13" lengthAdjust="spacing" textLength="22" x="278" y="596.0566">has</text><text fill="#000000" font-family="sans-serif" font-size="13" lengthAdjust="spacing" textLength="10" x="403.5582" y="764.3411">N</text></g><!--link Course to User--><g id="link_Course_User"><path codeLine="124" d="M134.99,427.4083 C150,485.6283 188.64,610.4483 260,690.4883 C303.24,738.9883 371.71,773.1483 414.95,791.3083 " fill="none" id="Course-to-User-2" style="stroke:#1E90FF;stroke-width:1.0;"/><polygon fill="#1E90FF" points="419.36,793.5483,412.5798,786.4049,414.7417,791.6323,409.5142,793.7942,419.36,793.5483" style="stroke:#1E90FF;stroke-width:1.0;"/><text fill="#000000" font-family="sans-serif" font-size="13" lengthAdjust="spacing" textLength="48" x="265" y="687.0566">teaches</text><text fill="#000000" font-family="sans-serif" font-size="13" lengthAdjust="spacing" textLength="10" x="402.613" y="805.1327">N</text></g><!--SRC=[pLPBRzf04BxxLwpe8PSYDOTALOIG20-9YX1KqjmNxs1lO- -wi-iIKkM_TtPj36iWSEmA2J7ppNk-4LRQ3DX8vrmgzg05P6py6WCMDefIAO3bO5CjJ9J1sZAh6SeajKn8XDXAhQB8l4XLSEGvYpDkpC1QbAlImZJMQYdVW7qvmh2_4QCtaskOIGNt6WNWK6SQAHEH0Dvd9OGG7hyag4ibAjXWiPXDXuEdwUFSuzhwJwDlaw-JYTSD4FNcfFSpWTyF4ox8CqzWQRVK9rSqLqa6GKaSnVzVKLq7w_mqGD6I127X5Zfrvg2ij5lcbRrUzQlVx_LGQzllHz6Dr_pXv8tfrI_gW_5sllWnRKys40A1PjlhFNlKeqVr-vN_zprwGHkmeJml8oTbbirv3fUHorIZlGxg2bbQAlqoz07Yb2kT82zI6S_BVEMxSy5g4ADMs_m8o8wGzn9jEZgLoZ7sYRyk-1RmJ1R71Zzqze5V_wKqXQu8hTVUu8uDkM8hO4_0unJmCrlQKj0wC5ge1wveWx2ozVlGxVQ3uOUQtQ13wMweeRGPO2XsEOMIPdoX-DIeGaGzbb3OJ20KXyq-Q9Q_WdMllDIzfrGQHX-jiYqh3GYsfcuL9HRQW6bWPCPBEgOetxW_dHNlXFSSK7IeIpHmbgIr-XHD7UgcrfyXwv2E_1NhSoNlhYFI24oCid1LNmRFP2xjPTXOo0_z-Q-w5MwcpN8ToFQBT20yIBQjygcrXQwXRLcTt2cQxMDwcufkMe7JsHHeTx9CRwHAxXgGUrtsM81gYOOPRPXe2SSAoKLBE5KB97RiEDgitV5gxsjqRqndWCLLOTmmpYYtcbdkSVAJKcN4coomKzMP8d-cEY1dupQDQVhOZflwmAMIlsdCSO1wvNdXhbRd- -1vqBtjN2fkDvUTWv5Shm7TVODAOpnDwyZxCX7SVv-L2wyC_Ir28hdOsJQmoieS4Rkz7PtRJdLhxlpPsAXwXeUGUGEXyZ_GMd-eJVGF]--></g></svg>