<?xml version="1.0" encoding="UTF-8" standalone="no"?><svg xmlns="http://www.w3.org/2000/svg" xmlns:xlink="http://www.w3.org/1999/xlink" contentStyleType="text/css" height="1400px" preserveAspectRatio="none" style="width:1558px;height:1400px;background:#FFFFFF;" version="1.1" viewBox="0 0 1558 1400" width="1558px" zoomAndPan="magnify"><defs/><g><!--cluster PostItAggregate--><g id="cluster_PostItAggregate"><rect fill="none" height="389" rx="2.5" ry="2.5" style="stroke:#000000;stroke-width:1.5;" width="466" x="494" y="79"/><text fill="#000000" font-family="sans-serif" font-size="20" font-weight="bold" lengthAdjust="spacing" textLength="152" x="651" y="101.7617">PostItAggregate</text></g><!--cluster UserAggregate--><g id="cluster_UserAggregate"><rect fill="none" height="207" rx="2.5" ry="2.5" style="stroke:#000000;stroke-width:1.5;" width="407" x="1145" y="1148"/><text fill="#000000" font-family="sans-serif" font-size="20" font-weight="bold" lengthAdjust="spacing" textLength="141" x="1278" y="1170.7617">UserAggregate</text></g><!--cluster BoardAggregate--><g id="cluster_BoardAggregate"><rect fill="none" height="632" rx="2.5" ry="2.5" style="stroke:#000000;stroke-width:1.5;" width="1326" x="7" y="492"/><text fill="#000000" font-family="sans-serif" font-size="20" font-weight="bold" lengthAdjust="spacing" textLength="154" x="593" y="514.7617">BoardAggregate</text></g><!--class PostIt--><g id="elem_PostIt"><rect codeLine="26" fill="#D8F5FF" height="93.4688" id="PostIt" rx="2.5" ry="2.5" style="stroke:#1E90FF;stroke-width:0.5;" width="101" x="843" y="286.5"/><ellipse cx="859" cy="329.2344" fill="#ADD1B2" rx="12" ry="12" style="stroke:#181818;stroke-width:1.0;"/><path d="M856.9531,330.2969 L856.9531,333.2344 L862.0469,333.2344 L862.0469,332.1406 Q862.0469,331.4219 862.3281,331.125 Q862.6094,330.8125 863.0625,330.8125 Q863.5,330.8125 863.7813,331.125 Q864.0625,331.4219 864.0625,332.1406 L864.0625,335.2344 L854.625,335.2344 Q853.9063,335.2344 853.5938,334.9531 Q853.2969,334.6719 853.2969,334.2344 Q853.2969,333.7813 853.6094,333.5156 Q853.9219,333.2344 854.625,333.2344 L854.9375,333.2344 L854.9375,325.4063 L854.625,325.4063 Q853.9063,325.4063 853.5938,325.125 Q853.2969,324.8438 853.2969,324.3906 Q853.2969,323.9375 853.5938,323.6719 Q853.9063,323.3906 854.625,323.3906 L863.6094,323.3906 L863.6094,326.4375 Q863.6094,327.1563 863.3281,327.4688 Q863.0625,327.7656 862.625,327.7656 Q862.1719,327.7656 861.8906,327.4688 Q861.6094,327.1719 861.6094,326.4375 L861.6094,325.4063 L856.9531,325.4063 L856.9531,328.2969 L858.7031,328.2969 Q858.7031,327.5156 858.8438,327.2813 Q859.1563,326.8125 859.7031,326.8125 Q860.1563,326.8125 860.4219,327.125 Q860.7031,327.4219 860.7031,328.1406 L860.7031,330.4531 Q860.7031,331.1094 860.5469,331.3281 Q860.2344,331.7813 859.7031,331.7813 Q859.1563,331.7813 858.8438,331.3125 Q858.7031,331.0781 858.7031,330.2969 L856.9531,330.2969 Z " fill="#000000"/><text fill="#000000" font-family="sans-serif" font-size="20" font-style="italic" lengthAdjust="spacing" textLength="71" x="872" y="312.2617">«Entity»</text><text fill="#000000" font-family="sans-serif" font-size="20" font-style="italic" lengthAdjust="spacing" textLength="56" x="879.5" y="337.418">«root»</text><text fill="#000000" font-family="sans-serif" font-size="20" lengthAdjust="spacing" textLength="52" x="881.5" y="362.5742">PostIt</text><line style="stroke:#1E90FF;stroke-width:0.5;" x1="844" x2="943" y1="371.9688" y2="371.9688"/></g><!--entity PostItContent--><g id="elem_PostItContent"><rect fill="#D8F5FF" height="56.3125" rx="2.5" ry="2.5" style="stroke:#1E90FF;stroke-width:0.5;" width="156" x="518" y="396"/><text fill="#000000" font-family="sans-serif" font-size="20" font-style="italic" lengthAdjust="spacing" textLength="136" x="528" y="419.7617">«Value Object»</text><text fill="#000000" font-family="sans-serif" font-size="20" lengthAdjust="spacing" textLength="120" x="536" y="444.918">PostItContent</text></g><!--entity PostItRow--><g id="elem_PostItRow"><rect fill="#D8F5FF" height="56.3125" rx="2.5" ry="2.5" style="stroke:#1E90FF;stroke-width:0.5;" width="156" x="518" y="123"/><text fill="#000000" font-family="sans-serif" font-size="20" font-style="italic" lengthAdjust="spacing" textLength="136" x="528" y="146.7617">«Value Object»</text><text fill="#000000" font-family="sans-serif" font-size="20" lengthAdjust="spacing" textLength="92" x="550" y="171.918">PostItRow</text></g><!--entity PostItCol--><g id="elem_PostItCol"><rect fill="#D8F5FF" height="56.3125" rx="2.5" ry="2.5" style="stroke:#1E90FF;stroke-width:0.5;" width="156" x="518" y="214"/><text fill="#000000" font-family="sans-serif" font-size="20" font-style="italic" lengthAdjust="spacing" textLength="136" x="528" y="237.7617">«Value Object»</text><text fill="#000000" font-family="sans-serif" font-size="20" lengthAdjust="spacing" textLength="81" x="555.5" y="262.918">PostItCol</text></g><!--entity PostItTimeStamp--><g id="elem_PostItTimeStamp"><rect fill="#D8F5FF" height="56.3125" rx="2.5" ry="2.5" style="stroke:#1E90FF;stroke-width:0.5;" width="172" x="510" y="305"/><text fill="#000000" font-family="sans-serif" font-size="20" font-style="italic" lengthAdjust="spacing" textLength="136" x="528" y="328.7617">«Value Object»</text><text fill="#000000" font-family="sans-serif" font-size="20" lengthAdjust="spacing" textLength="152" x="520" y="353.918">PostItTimeStamp</text></g><!--class User--><g id="elem_User"><rect codeLine="49" fill="#D8F5FF" height="93.4688" id="User" rx="2.5" ry="2.5" style="stroke:#1E90FF;stroke-width:0.5;" width="101" x="1435" y="1192.5"/><ellipse cx="1451" cy="1235.2344" fill="#ADD1B2" rx="12" ry="12" style="stroke:#181818;stroke-width:1.0;"/><path d="M1448.9531,1236.2969 L1448.9531,1239.2344 L1454.0469,1239.2344 L1454.0469,1238.1406 Q1454.0469,1237.4219 1454.3281,1237.125 Q1454.6094,1236.8125 1455.0625,1236.8125 Q1455.5,1236.8125 1455.7813,1237.125 Q1456.0625,1237.4219 1456.0625,1238.1406 L1456.0625,1241.2344 L1446.625,1241.2344 Q1445.9063,1241.2344 1445.5938,1240.9531 Q1445.2969,1240.6719 1445.2969,1240.2344 Q1445.2969,1239.7813 1445.6094,1239.5156 Q1445.9219,1239.2344 1446.625,1239.2344 L1446.9375,1239.2344 L1446.9375,1231.4063 L1446.625,1231.4063 Q1445.9063,1231.4063 1445.5938,1231.125 Q1445.2969,1230.8438 1445.2969,1230.3906 Q1445.2969,1229.9375 1445.5938,1229.6719 Q1445.9063,1229.3906 1446.625,1229.3906 L1455.6094,1229.3906 L1455.6094,1232.4375 Q1455.6094,1233.1563 1455.3281,1233.4688 Q1455.0625,1233.7656 1454.625,1233.7656 Q1454.1719,1233.7656 1453.8906,1233.4688 Q1453.6094,1233.1719 1453.6094,1232.4375 L1453.6094,1231.4063 L1448.9531,1231.4063 L1448.9531,1234.2969 L1450.7031,1234.2969 Q1450.7031,1233.5156 1450.8438,1233.2813 Q1451.1563,1232.8125 1451.7031,1232.8125 Q1452.1563,1232.8125 1452.4219,1233.125 Q1452.7031,1233.4219 1452.7031,1234.1406 L1452.7031,1236.4531 Q1452.7031,1237.1094 1452.5469,1237.3281 Q1452.2344,1237.7813 1451.7031,1237.7813 Q1451.1563,1237.7813 1450.8438,1237.3125 Q1450.7031,1237.0781 1450.7031,1236.2969 L1448.9531,1236.2969 Z " fill="#000000"/><text fill="#000000" font-family="sans-serif" font-size="20" font-style="italic" lengthAdjust="spacing" textLength="71" x="1464" y="1218.2617">«Entity»</text><text fill="#000000" font-family="sans-serif" font-size="20" font-style="italic" lengthAdjust="spacing" textLength="56" x="1471.5" y="1243.418">«root»</text><text fill="#000000" font-family="sans-serif" font-size="20" lengthAdjust="spacing" textLength="41" x="1479" y="1268.5742">User</text><line style="stroke:#1E90FF;stroke-width:0.5;" x1="1436" x2="1535" y1="1277.9688" y2="1277.9688"/></g><!--entity ShortName--><g id="elem_ShortName"><rect fill="#D8F5FF" height="56.3125" rx="2.5" ry="2.5" style="stroke:#1E90FF;stroke-width:0.5;" width="156" x="1161" y="1192"/><text fill="#000000" font-family="sans-serif" font-size="20" font-style="italic" lengthAdjust="spacing" textLength="136" x="1171" y="1215.7617">«Value Object»</text><text fill="#000000" font-family="sans-serif" font-size="20" lengthAdjust="spacing" textLength="98" x="1190" y="1240.918">ShortName</text></g><!--entity Email--><g id="elem_Email"><rect fill="#D8F5FF" height="56.3125" rx="2.5" ry="2.5" style="stroke:#1E90FF;stroke-width:0.5;" width="156" x="1161" y="1283"/><text fill="#000000" font-family="sans-serif" font-size="20" font-style="italic" lengthAdjust="spacing" textLength="136" x="1171" y="1306.7617">«Value Object»</text><text fill="#000000" font-family="sans-serif" font-size="20" lengthAdjust="spacing" textLength="48" x="1215" y="1331.918">Email</text></g><!--class Board--><g id="elem_Board"><rect codeLine="65" fill="#D8F5FF" height="93.4688" id="Board" rx="2.5" ry="2.5" style="stroke:#1E90FF;stroke-width:0.5;" width="101" x="1188.5" y="742.5"/><ellipse cx="1204.5" cy="785.2344" fill="#ADD1B2" rx="12" ry="12" style="stroke:#181818;stroke-width:1.0;"/><path d="M1202.4531,786.2969 L1202.4531,789.2344 L1207.5469,789.2344 L1207.5469,788.1406 Q1207.5469,787.4219 1207.8281,787.125 Q1208.1094,786.8125 1208.5625,786.8125 Q1209,786.8125 1209.2813,787.125 Q1209.5625,787.4219 1209.5625,788.1406 L1209.5625,791.2344 L1200.125,791.2344 Q1199.4063,791.2344 1199.0938,790.9531 Q1198.7969,790.6719 1198.7969,790.2344 Q1198.7969,789.7812 1199.1094,789.5156 Q1199.4219,789.2344 1200.125,789.2344 L1200.4375,789.2344 L1200.4375,781.4062 L1200.125,781.4062 Q1199.4063,781.4062 1199.0938,781.125 Q1198.7969,780.8437 1198.7969,780.3906 Q1198.7969,779.9375 1199.0938,779.6719 Q1199.4063,779.3906 1200.125,779.3906 L1209.1094,779.3906 L1209.1094,782.4375 Q1209.1094,783.1562 1208.8281,783.4687 Q1208.5625,783.7656 1208.125,783.7656 Q1207.6719,783.7656 1207.3906,783.4687 Q1207.1094,783.1719 1207.1094,782.4375 L1207.1094,781.4062 L1202.4531,781.4062 L1202.4531,784.2969 L1204.2031,784.2969 Q1204.2031,783.5156 1204.3438,783.2812 Q1204.6563,782.8125 1205.2031,782.8125 Q1205.6563,782.8125 1205.9219,783.125 Q1206.2031,783.4219 1206.2031,784.1406 L1206.2031,786.4531 Q1206.2031,787.1094 1206.0469,787.3281 Q1205.7344,787.7812 1205.2031,787.7812 Q1204.6563,787.7812 1204.3438,787.3125 Q1204.2031,787.0781 1204.2031,786.2969 L1202.4531,786.2969 Z " fill="#000000"/><text fill="#000000" font-family="sans-serif" font-size="20" font-style="italic" lengthAdjust="spacing" textLength="71" x="1217.5" y="768.2617">«Entity»</text><text fill="#000000" font-family="sans-serif" font-size="20" font-style="italic" lengthAdjust="spacing" textLength="56" x="1225" y="793.418">«root»</text><text fill="#000000" font-family="sans-serif" font-size="20" lengthAdjust="spacing" textLength="53" x="1226.5" y="818.5742">Board</text><line style="stroke:#1E90FF;stroke-width:0.5;" x1="1189.5" x2="1288.5" y1="827.9687" y2="827.9687"/></g><!--class BoardEntry--><g id="elem_BoardEntry"><rect codeLine="90" fill="#D8F5FF" height="68.3125" id="BoardEntry" rx="2.5" ry="2.5" style="stroke:#1E90FF;stroke-width:0.5;" width="133" x="827" y="755"/><ellipse cx="843" cy="785.1562" fill="#ADD1B2" rx="12" ry="12" style="stroke:#181818;stroke-width:1.0;"/><path d="M840.9531,786.2187 L840.9531,789.1562 L846.0469,789.1562 L846.0469,788.0625 Q846.0469,787.3437 846.3281,787.0469 Q846.6094,786.7344 847.0625,786.7344 Q847.5,786.7344 847.7813,787.0469 Q848.0625,787.3437 848.0625,788.0625 L848.0625,791.1562 L838.625,791.1562 Q837.9063,791.1562 837.5938,790.875 Q837.2969,790.5937 837.2969,790.1562 Q837.2969,789.7031 837.6094,789.4375 Q837.9219,789.1562 838.625,789.1562 L838.9375,789.1562 L838.9375,781.3281 L838.625,781.3281 Q837.9063,781.3281 837.5938,781.0469 Q837.2969,780.7656 837.2969,780.3125 Q837.2969,779.8594 837.5938,779.5937 Q837.9063,779.3125 838.625,779.3125 L847.6094,779.3125 L847.6094,782.3594 Q847.6094,783.0781 847.3281,783.3906 Q847.0625,783.6875 846.625,783.6875 Q846.1719,783.6875 845.8906,783.3906 Q845.6094,783.0937 845.6094,782.3594 L845.6094,781.3281 L840.9531,781.3281 L840.9531,784.2187 L842.7031,784.2187 Q842.7031,783.4375 842.8438,783.2031 Q843.1563,782.7344 843.7031,782.7344 Q844.1563,782.7344 844.4219,783.0469 Q844.7031,783.3437 844.7031,784.0625 L844.7031,786.375 Q844.7031,787.0312 844.5469,787.25 Q844.2344,787.7031 843.7031,787.7031 Q843.1563,787.7031 842.8438,787.2344 Q842.7031,787 842.7031,786.2187 L840.9531,786.2187 Z " fill="#000000"/><text fill="#000000" font-family="sans-serif" font-size="20" font-style="italic" lengthAdjust="spacing" textLength="71" x="872" y="780.7617">«Entity»</text><text fill="#000000" font-family="sans-serif" font-size="20" lengthAdjust="spacing" textLength="99" x="858" y="805.918">BoardEntry</text><line style="stroke:#1E90FF;stroke-width:0.5;" x1="828" x2="959" y1="815.3125" y2="815.3125"/></g><!--class BoardPermissions--><g id="elem_BoardPermissions"><rect codeLine="108" fill="#D8F5FF" height="68.3125" id="BoardPermissions" rx="2.5" ry="2.5" style="stroke:#1E90FF;stroke-width:0.5;" width="193" x="797" y="1040"/><ellipse cx="813" cy="1070.1563" fill="#ADD1B2" rx="12" ry="12" style="stroke:#181818;stroke-width:1.0;"/><path d="M810.9531,1071.2188 L810.9531,1074.1563 L816.0469,1074.1563 L816.0469,1073.0625 Q816.0469,1072.3438 816.3281,1072.0469 Q816.6094,1071.7344 817.0625,1071.7344 Q817.5,1071.7344 817.7813,1072.0469 Q818.0625,1072.3438 818.0625,1073.0625 L818.0625,1076.1563 L808.625,1076.1563 Q807.9063,1076.1563 807.5938,1075.875 Q807.2969,1075.5938 807.2969,1075.1563 Q807.2969,1074.7031 807.6094,1074.4375 Q807.9219,1074.1563 808.625,1074.1563 L808.9375,1074.1563 L808.9375,1066.3281 L808.625,1066.3281 Q807.9063,1066.3281 807.5938,1066.0469 Q807.2969,1065.7656 807.2969,1065.3125 Q807.2969,1064.8594 807.5938,1064.5938 Q807.9063,1064.3125 808.625,1064.3125 L817.6094,1064.3125 L817.6094,1067.3594 Q817.6094,1068.0781 817.3281,1068.3906 Q817.0625,1068.6875 816.625,1068.6875 Q816.1719,1068.6875 815.8906,1068.3906 Q815.6094,1068.0938 815.6094,1067.3594 L815.6094,1066.3281 L810.9531,1066.3281 L810.9531,1069.2188 L812.7031,1069.2188 Q812.7031,1068.4375 812.8438,1068.2031 Q813.1563,1067.7344 813.7031,1067.7344 Q814.1563,1067.7344 814.4219,1068.0469 Q814.7031,1068.3438 814.7031,1069.0625 L814.7031,1071.375 Q814.7031,1072.0313 814.5469,1072.25 Q814.2344,1072.7031 813.7031,1072.7031 Q813.1563,1072.7031 812.8438,1072.2344 Q812.7031,1072 812.7031,1071.2188 L810.9531,1071.2188 Z " fill="#000000"/><text fill="#000000" font-family="sans-serif" font-size="20" font-style="italic" lengthAdjust="spacing" textLength="71" x="872" y="1065.7617">«Entity»</text><text fill="#000000" font-family="sans-serif" font-size="20" lengthAdjust="spacing" textLength="159" x="828" y="1090.918">BoardPermissions</text><line style="stroke:#1E90FF;stroke-width:0.5;" x1="798" x2="989" y1="1100.3125" y2="1100.3125"/></g><!--class BoardCreateConfig--><g id="elem_BoardCreateConfig"><rect codeLine="117" fill="#D8F5FF" height="68.3125" id="BoardCreateConfig" rx="2.5" ry="2.5" style="stroke:#1E90FF;stroke-width:0.5;" width="203" x="23" y="664"/><ellipse cx="39" cy="694.1562" fill="#ADD1B2" rx="12" ry="12" style="stroke:#181818;stroke-width:1.0;"/><path d="M36.9531,695.2187 L36.9531,698.1562 L42.0469,698.1562 L42.0469,697.0625 Q42.0469,696.3437 42.3281,696.0469 Q42.6094,695.7344 43.0625,695.7344 Q43.5,695.7344 43.7813,696.0469 Q44.0625,696.3437 44.0625,697.0625 L44.0625,700.1562 L34.625,700.1562 Q33.9063,700.1562 33.5938,699.875 Q33.2969,699.5937 33.2969,699.1562 Q33.2969,698.7031 33.6094,698.4375 Q33.9219,698.1562 34.625,698.1562 L34.9375,698.1562 L34.9375,690.3281 L34.625,690.3281 Q33.9063,690.3281 33.5938,690.0469 Q33.2969,689.7656 33.2969,689.3125 Q33.2969,688.8594 33.5938,688.5937 Q33.9063,688.3125 34.625,688.3125 L43.6094,688.3125 L43.6094,691.3594 Q43.6094,692.0781 43.3281,692.3906 Q43.0625,692.6875 42.625,692.6875 Q42.1719,692.6875 41.8906,692.3906 Q41.6094,692.0937 41.6094,691.3594 L41.6094,690.3281 L36.9531,690.3281 L36.9531,693.2187 L38.7031,693.2187 Q38.7031,692.4375 38.8438,692.2031 Q39.1563,691.7344 39.7031,691.7344 Q40.1563,691.7344 40.4219,692.0469 Q40.7031,692.3437 40.7031,693.0625 L40.7031,695.375 Q40.7031,696.0312 40.5469,696.25 Q40.2344,696.7031 39.7031,696.7031 Q39.1563,696.7031 38.8438,696.2344 Q38.7031,696 38.7031,695.2187 L36.9531,695.2187 Z " fill="#000000"/><text fill="#000000" font-family="sans-serif" font-size="20" font-style="italic" lengthAdjust="spacing" textLength="71" x="103" y="689.7617">«Entity»</text><text fill="#000000" font-family="sans-serif" font-size="20" lengthAdjust="spacing" textLength="169" x="54" y="714.918">BoardCreateConfig</text><line style="stroke:#1E90FF;stroke-width:0.5;" x1="24" x2="225" y1="724.3125" y2="724.3125"/></g><!--entity BoardTitle--><g id="elem_BoardTitle"><rect fill="#D8F5FF" height="56.3125" rx="2.5" ry="2.5" style="stroke:#1E90FF;stroke-width:0.5;" width="156" x="815.5" y="858"/><text fill="#000000" font-family="sans-serif" font-size="20" font-style="italic" lengthAdjust="spacing" textLength="136" x="825.5" y="881.7617">«Value Object»</text><text fill="#000000" font-family="sans-serif" font-size="20" lengthAdjust="spacing" textLength="90" x="848.5" y="906.918">BoardTitle</text></g><!--entity BoardNRow--><g id="elem_BoardNRow"><rect fill="#D8F5FF" height="56.3125" rx="2.5" ry="2.5" style="stroke:#1E90FF;stroke-width:0.5;" width="156" x="815.5" y="949"/><text fill="#000000" font-family="sans-serif" font-size="20" font-style="italic" lengthAdjust="spacing" textLength="136" x="825.5" y="972.7617">«Value Object»</text><text fill="#000000" font-family="sans-serif" font-size="20" lengthAdjust="spacing" textLength="106" x="840.5" y="997.918">BoardNRow</text></g><!--entity BoardNCol--><g id="elem_BoardNCol"><rect fill="#D8F5FF" height="56.3125" rx="2.5" ry="2.5" style="stroke:#1E90FF;stroke-width:0.5;" width="156" x="815.5" y="664"/><text fill="#000000" font-family="sans-serif" font-size="20" font-style="italic" lengthAdjust="spacing" textLength="136" x="825.5" y="687.7617">«Value Object»</text><text fill="#000000" font-family="sans-serif" font-size="20" lengthAdjust="spacing" textLength="95" x="846" y="712.918">BoardNCol</text></g><!--entity BoardState--><g id="elem_BoardState"><rect fill="#D8F5FF" height="56.3125" rx="2.5" ry="2.5" style="stroke:#1E90FF;stroke-width:0.5;" width="156" x="815.5" y="573"/><text fill="#000000" font-family="sans-serif" font-size="20" font-style="italic" lengthAdjust="spacing" textLength="136" x="825.5" y="596.7617">«Value Object»</text><text fill="#000000" font-family="sans-serif" font-size="20" lengthAdjust="spacing" textLength="100" x="843.5" y="621.918">BoardState</text></g><!--entity Title--><g id="elem_Title"><rect fill="#D8F5FF" height="56.3125" rx="2.5" ry="2.5" style="stroke:#1E90FF;stroke-width:0.5;" width="156" x="287" y="761"/><text fill="#000000" font-family="sans-serif" font-size="20" font-style="italic" lengthAdjust="spacing" textLength="136" x="297" y="784.7617">«Value Object»</text><text fill="#000000" font-family="sans-serif" font-size="20" lengthAdjust="spacing" textLength="37" x="346.5" y="809.918">Title</text></g><!--entity Number--><g id="elem_Number"><rect fill="#D8F5FF" height="56.3125" rx="2.5" ry="2.5" style="stroke:#1E90FF;stroke-width:0.5;" width="156" x="287" y="670"/><text fill="#000000" font-family="sans-serif" font-size="20" font-style="italic" lengthAdjust="spacing" textLength="136" x="297" y="693.7617">«Value Object»</text><text fill="#000000" font-family="sans-serif" font-size="20" lengthAdjust="spacing" textLength="68" x="331" y="718.918">Number</text></g><!--entity BoardRow--><g id="elem_BoardRow"><rect fill="#D8F5FF" height="56.3125" rx="2.5" ry="2.5" style="stroke:#1E90FF;stroke-width:0.5;" width="156" x="518" y="670"/><text fill="#000000" font-family="sans-serif" font-size="20" font-style="italic" lengthAdjust="spacing" textLength="136" x="528" y="693.7617">«Value Object»</text><text fill="#000000" font-family="sans-serif" font-size="20" lengthAdjust="spacing" textLength="93" x="549.5" y="718.918">BoardRow</text></g><!--entity BoardCol--><g id="elem_BoardCol"><rect fill="#D8F5FF" height="56.3125" rx="2.5" ry="2.5" style="stroke:#1E90FF;stroke-width:0.5;" width="156" x="518" y="761"/><text fill="#000000" font-family="sans-serif" font-size="20" font-style="italic" lengthAdjust="spacing" textLength="136" x="528" y="784.7617">«Value Object»</text><text fill="#000000" font-family="sans-serif" font-size="20" lengthAdjust="spacing" textLength="82" x="555" y="809.918">BoardCol</text></g><!--entity AccessLevel--><g id="elem_AccessLevel"><rect fill="#D8F5FF" height="56.3125" rx="2.5" ry="2.5" style="stroke:#1E90FF;stroke-width:0.5;" width="156" x="1161" y="1046"/><text fill="#000000" font-family="sans-serif" font-size="20" font-style="italic" lengthAdjust="spacing" textLength="136" x="1171" y="1069.7617">«Value Object»</text><text fill="#000000" font-family="sans-serif" font-size="20" lengthAdjust="spacing" textLength="110" x="1184" y="1094.918">AccessLevel</text></g><!--entity UpdateEventPostIt--><g id="elem_UpdateEventPostIt"><rect fill="#D8F5FF" height="56.3125" rx="2.5" ry="2.5" style="stroke:#1E90FF;stroke-width:0.5;" width="184" x="504" y="7"/><text fill="#000000" font-family="sans-serif" font-size="20" font-style="italic" lengthAdjust="spacing" textLength="72" x="560" y="30.7617">«Event»</text><text fill="#000000" font-family="sans-serif" font-size="20" lengthAdjust="spacing" textLength="164" x="514" y="55.918">UpdateEventPostIt</text></g><!--reverse link PostItContent to PostIt--><g id="link_PostItContent_PostIt"><path codeLine="40" d="M679.28,398.66 C731.73,382.51 797.97,362.11 842.59,348.37 " fill="none" id="PostItContent-backto-PostIt" style="stroke:#1E90FF;stroke-width:1.0;"/><polygon fill="#1E90FF" points="674.25,400.21,684.0291,401.3802,679.028,398.7366,681.6716,393.7354,674.25,400.21" style="stroke:#1E90FF;stroke-width:1.0;"/></g><!--reverse link PostItRow to PostIt--><g id="link_PostItRow_PostIt"><path codeLine="41" d="M661.76,181.72 C670.68,186.33 679.63,191.16 688,196 C742.55,227.58 802.13,268.25 842.83,297.05 " fill="none" id="PostItRow-backto-PostIt" style="stroke:#1E90FF;stroke-width:1.0;"/><polygon fill="#1E90FF" points="656.82,179.19,663.0031,186.8561,661.2691,181.4716,666.6536,179.7376,656.82,179.19" style="stroke:#1E90FF;stroke-width:1.0;"/></g><!--reverse link PostItCol to PostIt--><g id="link_PostItCol_PostIt"><path codeLine="42" d="M679.28,267.34 C731.73,283.49 797.97,303.89 842.59,317.63 " fill="none" id="PostItCol-backto-PostIt" style="stroke:#1E90FF;stroke-width:1.0;"/><polygon fill="#1E90FF" points="674.25,265.79,681.677,272.2583,679.0292,267.2594,684.0281,264.6116,674.25,265.79" style="stroke:#1E90FF;stroke-width:1.0;"/></g><!--reverse link PostItTimeStamp to PostIt--><g id="link_PostItTimeStamp_PostIt"><path codeLine="43" d="M687.3,333 C738.35,333 800.25,333 842.63,333 " fill="none" id="PostItTimeStamp-backto-PostIt" style="stroke:#1E90FF;stroke-width:1.0;"/><polygon fill="#1E90FF" points="682.07,333,691.07,337,687.07,333,691.07,329,682.07,333" style="stroke:#1E90FF;stroke-width:1.0;"/></g><!--reverse link ShortName to User--><g id="link_ShortName_User"><path codeLine="57" d="M1322.02,1226.38 C1359.4,1229.28 1402.43,1232.63 1434.81,1235.14 " fill="none" id="ShortName-backto-User" style="stroke:#1E90FF;stroke-width:1.0;"/><polygon fill="#1E90FF" points="1317.03,1225.99,1325.6947,1230.6723,1322.0151,1226.3757,1326.3117,1222.6961,1317.03,1225.99" style="stroke:#1E90FF;stroke-width:1.0;"/></g><!--reverse link Email to User--><g id="link_Email_User"><path codeLine="58" d="M1322.02,1286.85 C1359.4,1275.84 1402.43,1263.17 1434.81,1253.64 " fill="none" id="Email-backto-User" style="stroke:#1E90FF;stroke-width:1.0;"/><polygon fill="#1E90FF" points="1317.03,1288.32,1326.7936,1289.6132,1321.8261,1286.9069,1324.5325,1281.9394,1317.03,1288.32" style="stroke:#1E90FF;stroke-width:1.0;"/></g><!--reverse link UpdateEventPostIt to User--><g id="link_UpdateEventPostIt_User"><path codeLine="59" d="M693.5,41.46 C775.04,49.52 893.62,67.44 990,107 C1164.59,178.67 1232.07,191.88 1341,346 C1439.22,484.97 1473.99,1028.78 1482.34,1192.26 " fill="none" id="UpdateEventPostIt-backto-User" style="stroke:#1E90FF;stroke-width:1.0;"/><polygon fill="#1E90FF" points="688.18,40.94,696.7497,45.7938,693.1564,41.4248,697.5254,37.8315,688.18,40.94" style="stroke:#1E90FF;stroke-width:1.0;"/><text fill="#000000" font-family="sans-serif" font-size="20" lengthAdjust="spacing" textLength="107" x="1021" y="114.7617">interested in</text></g><!--reverse link BoardTitle to Board--><g id="link_BoardTitle_Board"><path codeLine="85" d="M976.69,862.79 C1042.58,844.19 1132.9,818.68 1188.25,803.05 " fill="none" id="BoardTitle-backto-Board" style="stroke:#1E90FF;stroke-width:1.0;"/><polygon fill="#1E90FF" points="971.59,864.23,981.3415,865.6113,976.3987,862.8602,979.1498,857.9173,971.59,864.23" style="stroke:#1E90FF;stroke-width:1.0;"/></g><!--reverse link BoardNRow to Board--><g id="link_BoardNRow_Board"><path codeLine="86" d="M958.06,946.77 C968.75,941.57 979.72,936.18 990,931 C1052.33,899.64 1068.58,892.92 1129,858 C1148.68,846.63 1169.89,833.43 1188.32,821.64 " fill="none" id="BoardNRow-backto-Board" style="stroke:#1E90FF;stroke-width:1.0;"/><polygon fill="#1E90FF" points="953.5,948.98,963.3432,948.6459,957.9975,946.7955,959.848,941.4498,953.5,948.98" style="stroke:#1E90FF;stroke-width:1.0;"/></g><!--reverse link BoardNCol to Board--><g id="link_BoardNCol_Board"><path codeLine="87" d="M976.69,715.21 C1042.58,733.82 1132.9,759.32 1188.25,774.96 " fill="none" id="BoardNCol-backto-Board" style="stroke:#1E90FF;stroke-width:1.0;"/><polygon fill="#1E90FF" points="971.59,713.77,979.1448,720.0886,976.3976,715.1436,981.3426,712.3964,971.59,713.77" style="stroke:#1E90FF;stroke-width:1.0;"/></g><!--reverse link BoardState to Board--><g id="link_BoardState_Board"><path codeLine="88" d="M960.56,631.26 C970.49,636.06 980.56,641.07 990,646 C1060.03,682.61 1138.74,728.91 1188.33,758.74 " fill="none" id="BoardState-backto-Board" style="stroke:#1E90FF;stroke-width:1.0;"/><polygon fill="#1E90FF" points="956,629.07,962.3673,636.5838,960.5031,631.2429,965.844,629.3788,956,629.07" style="stroke:#1E90FF;stroke-width:1.0;"/></g><!--reverse link BoardEntry to Board--><g id="link_BoardEntry_Board"><path codeLine="99" d="M965.46,789 C1031.97,789 1129.69,789 1188.26,789 " fill="none" id="BoardEntry-backto-Board" style="stroke:#1E90FF;stroke-width:1.0;"/><polygon fill="#1E90FF" points="960.32,789,969.32,793,965.32,789,969.32,785,960.32,789" style="stroke:#1E90FF;stroke-width:1.0;"/></g><!--reverse link BoardRow to BoardEntry--><g id="link_BoardRow_BoardEntry"><path codeLine="100" d="M679.29,723.35 C725.82,737.67 783.2,755.34 826.71,768.74 " fill="none" id="BoardRow-backto-BoardEntry" style="stroke:#1E90FF;stroke-width:1.0;"/><polygon fill="#1E90FF" points="674.25,721.79,681.677,728.2583,679.0292,723.2594,684.0281,720.6116,674.25,721.79" style="stroke:#1E90FF;stroke-width:1.0;"/></g><!--reverse link BoardCol to BoardEntry--><g id="link_BoardCol_BoardEntry"><path codeLine="101" d="M679.29,789 C725.82,789 783.2,789 826.71,789 " fill="none" id="BoardCol-backto-BoardEntry" style="stroke:#1E90FF;stroke-width:1.0;"/><polygon fill="#1E90FF" points="674.25,789,683.25,793,679.25,789,683.25,785,674.25,789" style="stroke:#1E90FF;stroke-width:1.0;"/></g><!--reverse link Number to BoardRow--><g id="link_Number_BoardRow"><path d="M448.31,698 C470.94,698 495.4,698 517.74,698 " fill="none" id="Number-backto-BoardRow" style="stroke:#1E90FF;stroke-width:1.0;"/><polygon fill="#1E90FF" points="443.21,698,452.21,702,448.21,698,452.21,694,443.21,698" style="stroke:#1E90FF;stroke-width:1.0;"/></g><!--reverse link Title to BoardCol--><g id="link_Title_BoardCol"><path d="M448.31,789 C470.94,789 495.4,789 517.74,789 " fill="none" id="Title-backto-BoardCol" style="stroke:#1E90FF;stroke-width:1.0;"/><polygon fill="#1E90FF" points="443.21,789,452.21,793,448.21,789,452.21,785,443.21,789" style="stroke:#1E90FF;stroke-width:1.0;"/></g><!--reverse link Number to BoardCol--><g id="link_Number_BoardCol"><path d="M441.51,728.01 C468.17,738.6 498.02,750.47 524.26,760.89 " fill="none" id="Number-backto-BoardCol" style="stroke:#1E90FF;stroke-width:1.0;"/><polygon fill="#1E90FF" points="436.58,726.05,443.4694,733.0882,441.2273,727.8946,446.4208,725.6525,436.58,726.05" style="stroke:#1E90FF;stroke-width:1.0;"/></g><!--reverse link Title to BoardRow--><g id="link_Title_BoardRow"><path d="M441.51,759 C468.17,748.4 498.02,736.54 524.26,726.11 " fill="none" id="Title-backto-BoardRow" style="stroke:#1E90FF;stroke-width:1.0;"/><polygon fill="#1E90FF" points="436.58,760.96,446.4204,761.3679,441.2292,759.1203,443.4768,753.9291,436.58,760.96" style="stroke:#1E90FF;stroke-width:1.0;"/></g><!--reverse link BoardPermissions to Board--><g id="link_BoardPermissions_Board"><path codeLine="113" d="M964.41,1037.2 C973.12,1032.25 981.83,1027.11 990,1022 C1054.31,981.8 1073.68,974.89 1129,923 C1157.22,896.54 1184.67,862.72 1204.97,835.68 " fill="none" id="BoardPermissions-backto-Board" style="stroke:#1E90FF;stroke-width:1.0;"/><polygon fill="#1E90FF" points="959.58,1039.94,969.3842,1039.0033,963.9352,1037.4839,965.4545,1032.0349,959.58,1039.94" style="stroke:#1E90FF;stroke-width:1.0;"/></g><!--link BoardPermissions to User--><g id="link_BoardPermissions_User"><path codeLine="114" d="M911.26,1108.37 C944.26,1171.52 1024.32,1304.29 1137,1356 C1219.4,1393.82 1255.58,1386.41 1341,1356 C1378.67,1342.59 1413.61,1314.59 1439.58,1289.35 " fill="none" id="BoardPermissions-to-User" style="stroke:#1E90FF;stroke-width:1.0;"/><polygon fill="#1E90FF" points="1443.34,1285.65,1434.1194,1289.1113,1439.7761,1289.1569,1439.7305,1294.8136,1443.34,1285.65" style="stroke:#1E90FF;stroke-width:1.0;"/></g><!--link BoardPermissions to AccessLevel--><g id="link_BoardPermissions_AccessLevel"><path codeLine="115" d="M990.18,1074 C1042.19,1074 1105.87,1074 1155.65,1074 " fill="none" id="BoardPermissions-to-AccessLevel" style="stroke:#1E90FF;stroke-width:1.0;"/><polygon fill="#1E90FF" points="1160.73,1074,1151.73,1070,1155.73,1074,1151.73,1078,1160.73,1074" style="stroke:#1E90FF;stroke-width:1.0;"/></g><!--reverse link BoardCreateConfig to Board--><g id="link_BoardCreateConfig_Board"><path codeLine="119" d="M155.71,659.91 C197.15,612.31 276.54,537 364,537 C364,537 364,537 894.5,537 C937.69,537 951.47,535.48 990,555 C1065.45,593.24 1067.51,626.92 1129,685 C1148.77,703.68 1170.47,724.35 1189.26,742.31 " fill="none" id="BoardCreateConfig-backto-Board" style="stroke:#1E90FF;stroke-width:1.0;"/><polygon fill="#1E90FF" points="152.3,663.86,161.2111,659.6657,155.5692,660.0768,155.1581,654.435,152.3,663.86" style="stroke:#1E90FF;stroke-width:1.0;"/></g><!--link BoardCreateConfig to Number--><g id="link_BoardCreateConfig_Number"><path codeLine="120" d="M226.3,710.62 C244.78,710.89 263.86,710.75 281.71,710.19 " fill="none" id="BoardCreateConfig-to-Number" style="stroke:#1E90FF;stroke-width:1.0;"/><polygon fill="#1E90FF" points="286.72,710.02,277.5882,706.3307,281.7229,710.1913,277.8623,714.326,286.72,710.02" style="stroke:#1E90FF;stroke-width:1.0;"/></g><!--link BoardCreateConfig to Number--><g id="link_BoardCreateConfig_Number"><path codeLine="121" d="M226.3,684.65 C244.78,684.36 263.86,684.51 281.71,685.1 " fill="none" id="BoardCreateConfig-to-Number-1" style="stroke:#1E90FF;stroke-width:1.0;"/><polygon fill="#1E90FF" points="286.72,685.28,277.8623,680.974,281.7229,685.1087,277.5882,688.9693,286.72,685.28" style="stroke:#1E90FF;stroke-width:1.0;"/></g><!--link PostIt to User--><g id="link_PostIt_User"><path codeLine="127" d="M944.05,337.01 C1039.64,347.68 1248.21,385.94 1341,520 C1416.89,629.65 1464.68,1041.42 1479.53,1187.34 " fill="none" id="PostIt-to-User" style="stroke:#1E90FF;stroke-width:1.0;"/><polygon fill="#1E90FF" points="1480.05,1192.42,1483.1293,1183.0649,1479.5497,1187.4451,1475.1694,1183.8655,1480.05,1192.42" style="stroke:#1E90FF;stroke-width:1.0;"/><text fill="#000000" font-family="sans-serif" font-size="20" lengthAdjust="spacing" textLength="54" x="1212" y="375.7617">owner</text><text fill="#000000" font-family="sans-serif" font-size="20" lengthAdjust="spacing" textLength="11" x="1467.5786" y="1180.2218">1</text></g><!--link Board to User--><g id="link_Board_User"><path codeLine="128" d="M1265.47,835.89 C1311.62,920.81 1408.67,1099.44 1456.56,1187.58 " fill="none" id="Board-to-User" style="stroke:#1E90FF;stroke-width:1.0;"/><polygon fill="#1E90FF" points="1459.08,1192.22,1458.2931,1182.4026,1456.6908,1187.8278,1451.2656,1186.2254,1459.08,1192.22" style="stroke:#1E90FF;stroke-width:1.0;"/><text fill="#000000" font-family="sans-serif" font-size="20" lengthAdjust="spacing" textLength="54" x="1350" y="995.7617">owner</text><text fill="#000000" font-family="sans-serif" font-size="20" lengthAdjust="spacing" textLength="11" x="1443.7908" y="1179.995">1</text></g><!--link PostIt to Board--><g id="link_PostIt_Board"><path codeLine="129" d="M944.07,363.71 C996.17,398.15 1077.55,458.38 1129,528 C1176.87,592.79 1208.15,681.72 1224.44,737.25 " fill="none" id="PostIt-to-Board" style="stroke:#1E90FF;stroke-width:1.0;"/><polygon fill="#1E90FF" points="1225.88,742.19,1227.2268,732.4337,1224.4932,737.3862,1219.5407,734.6526,1225.88,742.19" style="stroke:#1E90FF;stroke-width:1.0;"/><text fill="#000000" font-family="sans-serif" font-size="20" lengthAdjust="spacing" textLength="68" x="1040.5" y="417.7617">belongs</text><text fill="#000000" font-family="sans-serif" font-size="20" lengthAdjust="spacing" textLength="11" x="1212.3779" y="729.9609">1</text></g><!--reverse link UpdateEventPostIt to PostIt--><g id="link_UpdateEventPostIt_PostIt"><path codeLine="137" d="M639.31,66.13 C655.07,78.33 672.81,92.79 688,107 C750.01,165.04 814.65,239.14 854.24,286.34 " fill="none" id="UpdateEventPostIt-backto-PostIt" style="stroke:#1E90FF;stroke-width:1.0;"/><polygon fill="#1E90FF" points="635.35,63.08,640.0267,71.7477,639.3067,66.1368,644.9176,65.4169,635.35,63.08" style="stroke:#1E90FF;stroke-width:1.0;"/><text fill="#000000" font-family="sans-serif" font-size="20" lengthAdjust="spacing" textLength="47" x="719" y="136.7617">notify</text></g><!--SRC=[pLPTRzem57tthx2wXpqXjPCcJGX52XGa94HHeNitoILu93QoJH6R-jztutoPn8NiRJnXd-DxppasjzK7BevCiIoLqG5Y6iEEdL8payAi-M-Wtnv92Zj3ZQIA9tj3OwuWCbmAGlOy1fg1sSjO4wAhIZHAcTQXCOflJmRcaHIsr6E7G_yGYfy5ty622nXB5OEQo5Gg-YpZ1DGuFS4rXKM7HCcJY0jQk5ejvfDmCtzPMbuR__ByO_PzDhDOg9GyUwj_qlZ35Np4oYo1jRcaGFC8c4XIS1qn5V__XhxIbTHcRaZffro6IQ8WOGOA0o0CDvSIewFHrAw3O3HIKfeW89Pb7HUS2RuNF8JKdmmxqPVjBume28fo7nt-gpptvgADtjmDp_2AM7QyVQ8bUZ2eKcb0gz07M3a-mEdTmDWGCt_JeEh4yuK_xnovdVPwBvLPiWnw93BD6B-Jd5CE9LkL-NPvqjrwEyQeTlgEIgjNKS9qo3561ThW-E2YT3oMAA6sR5T-pnRocSuvZHbBst2Jzd5koSj-RwpWzdjZbejNRFg8w2jsUSgszjfl45tt67iHRWqigxVQtg-UQck_T503dUl0kr0Nvqu-IU8V0hwRhzktg_ZAe6Krs9N91gjYhH0iOVTRAU9fBxtQRz7pAjsyLg0ohZN-KTHEQau6OHI1rWjuXpunN9NhXk72Wq7G_4QzgDEwAtoY09y2pi4TJrpbzM_Fm-eAkiBpdaMOzmdvgC1PyGefo_-ZqAGSBJdbuUcX72_oB91Rp0aVqZfK48TRIAL8TD71pYrDx5ru9jd8hlAhG4N-ILT-7Gff-Ev2o5y0]--></g></svg>