<?xml version="1.0" encoding="UTF-8" standalone="no"?><svg xmlns="http://www.w3.org/2000/svg" xmlns:xlink="http://www.w3.org/1999/xlink" contentStyleType="text/css" height="1602px" preserveAspectRatio="none" style="width:1306px;height:1602px;background:#FFFFFF;" version="1.1" viewBox="0 0 1306 1602" width="1306px" zoomAndPan="magnify"><defs/><g><!--cluster PostItAggregate--><g id="cluster_PostItAggregate"><rect fill="none" height="389" rx="2.5" ry="2.5" style="stroke:#000000;stroke-width:1.5;" width="473" x="230" y="79"/><text fill="#000000" font-family="sans-serif" font-size="20" font-weight="bold" lengthAdjust="spacing" textLength="152" x="390.5" y="101.7617">PostItAggregate</text></g><!--cluster UserAggregate--><g id="cluster_UserAggregate"><rect fill="none" height="207" rx="2.5" ry="2.5" style="stroke:#000000;stroke-width:1.5;" width="407" x="893" y="1111"/><text fill="#000000" font-family="sans-serif" font-size="20" font-weight="bold" lengthAdjust="spacing" textLength="141" x="1026" y="1133.7617">UserAggregate</text></g><!--cluster BoardAggregate--><g id="cluster_BoardAggregate"><rect fill="none" height="595" rx="2.5" ry="2.5" style="stroke:#000000;stroke-width:1.5;" width="1074" x="7" y="492"/><text fill="#000000" font-family="sans-serif" font-size="20" font-weight="bold" lengthAdjust="spacing" textLength="154" x="467" y="514.7617">BoardAggregate</text></g><!--cluster BoardConfigAggregate--><g id="cluster_BoardConfigAggregate"><rect fill="none" height="207" rx="2.5" ry="2.5" style="stroke:#000000;stroke-width:1.5;" width="562" x="519" y="1389"/><text fill="#000000" font-family="sans-serif" font-size="20" font-weight="bold" lengthAdjust="spacing" textLength="216" x="692" y="1411.7617">BoardConfigAggregate</text></g><!--class PostIt--><g id="elem_PostIt"><rect codeLine="26" fill="#D8F5FF" height="93.4688" id="PostIt" rx="2.5" ry="2.5" style="stroke:#1E90FF;stroke-width:0.5;" width="101" x="586" y="286.5"/><ellipse cx="602" cy="329.2344" fill="#ADD1B2" rx="12" ry="12" style="stroke:#181818;stroke-width:1.0;"/><path d="M599.9531,330.2969 L599.9531,333.2344 L605.0469,333.2344 L605.0469,332.1406 Q605.0469,331.4219 605.3281,331.125 Q605.6094,330.8125 606.0625,330.8125 Q606.5,330.8125 606.7813,331.125 Q607.0625,331.4219 607.0625,332.1406 L607.0625,335.2344 L597.625,335.2344 Q596.9063,335.2344 596.5938,334.9531 Q596.2969,334.6719 596.2969,334.2344 Q596.2969,333.7813 596.6094,333.5156 Q596.9219,333.2344 597.625,333.2344 L597.9375,333.2344 L597.9375,325.4063 L597.625,325.4063 Q596.9063,325.4063 596.5938,325.125 Q596.2969,324.8438 596.2969,324.3906 Q596.2969,323.9375 596.5938,323.6719 Q596.9063,323.3906 597.625,323.3906 L606.6094,323.3906 L606.6094,326.4375 Q606.6094,327.1563 606.3281,327.4688 Q606.0625,327.7656 605.625,327.7656 Q605.1719,327.7656 604.8906,327.4688 Q604.6094,327.1719 604.6094,326.4375 L604.6094,325.4063 L599.9531,325.4063 L599.9531,328.2969 L601.7031,328.2969 Q601.7031,327.5156 601.8438,327.2813 Q602.1563,326.8125 602.7031,326.8125 Q603.1563,326.8125 603.4219,327.125 Q603.7031,327.4219 603.7031,328.1406 L603.7031,330.4531 Q603.7031,331.1094 603.5469,331.3281 Q603.2344,331.7813 602.7031,331.7813 Q602.1563,331.7813 601.8438,331.3125 Q601.7031,331.0781 601.7031,330.2969 L599.9531,330.2969 Z " fill="#000000"/><text fill="#000000" font-family="sans-serif" font-size="20" font-style="italic" lengthAdjust="spacing" textLength="71" x="615" y="312.2617">«Entity»</text><text fill="#000000" font-family="sans-serif" font-size="20" font-style="italic" lengthAdjust="spacing" textLength="56" x="622.5" y="337.418">«root»</text><text fill="#000000" font-family="sans-serif" font-size="20" lengthAdjust="spacing" textLength="52" x="624.5" y="362.5742">PostIt</text><line style="stroke:#1E90FF;stroke-width:0.5;" x1="587" x2="686" y1="371.9688" y2="371.9688"/></g><!--entity PostItContent--><g id="elem_PostItContent"><rect fill="#D8F5FF" height="56.3125" rx="2.5" ry="2.5" style="stroke:#1E90FF;stroke-width:0.5;" width="156" x="254" y="123"/><text fill="#000000" font-family="sans-serif" font-size="20" font-style="italic" lengthAdjust="spacing" textLength="136" x="264" y="146.7617">«Value Object»</text><text fill="#000000" font-family="sans-serif" font-size="20" lengthAdjust="spacing" textLength="120" x="272" y="171.918">PostItContent</text></g><!--entity PostItRow--><g id="elem_PostItRow"><rect fill="#D8F5FF" height="56.3125" rx="2.5" ry="2.5" style="stroke:#1E90FF;stroke-width:0.5;" width="156" x="254" y="214"/><text fill="#000000" font-family="sans-serif" font-size="20" font-style="italic" lengthAdjust="spacing" textLength="136" x="264" y="237.7617">«Value Object»</text><text fill="#000000" font-family="sans-serif" font-size="20" lengthAdjust="spacing" textLength="92" x="286" y="262.918">PostItRow</text></g><!--entity PostItCol--><g id="elem_PostItCol"><rect fill="#D8F5FF" height="56.3125" rx="2.5" ry="2.5" style="stroke:#1E90FF;stroke-width:0.5;" width="156" x="254" y="305"/><text fill="#000000" font-family="sans-serif" font-size="20" font-style="italic" lengthAdjust="spacing" textLength="136" x="264" y="328.7617">«Value Object»</text><text fill="#000000" font-family="sans-serif" font-size="20" lengthAdjust="spacing" textLength="81" x="291.5" y="353.918">PostItCol</text></g><!--entity PostItTimeStamp--><g id="elem_PostItTimeStamp"><rect fill="#D8F5FF" height="56.3125" rx="2.5" ry="2.5" style="stroke:#1E90FF;stroke-width:0.5;" width="172" x="246" y="396"/><text fill="#000000" font-family="sans-serif" font-size="20" font-style="italic" lengthAdjust="spacing" textLength="136" x="264" y="419.7617">«Value Object»</text><text fill="#000000" font-family="sans-serif" font-size="20" lengthAdjust="spacing" textLength="152" x="256" y="444.918">PostItTimeStamp</text></g><!--class User--><g id="elem_User"><rect codeLine="49" fill="#D8F5FF" height="93.4688" id="User" rx="2.5" ry="2.5" style="stroke:#1E90FF;stroke-width:0.5;" width="101" x="1183" y="1155.5"/><ellipse cx="1199" cy="1198.2344" fill="#ADD1B2" rx="12" ry="12" style="stroke:#181818;stroke-width:1.0;"/><path d="M1196.9531,1199.2969 L1196.9531,1202.2344 L1202.0469,1202.2344 L1202.0469,1201.1406 Q1202.0469,1200.4219 1202.3281,1200.125 Q1202.6094,1199.8125 1203.0625,1199.8125 Q1203.5,1199.8125 1203.7813,1200.125 Q1204.0625,1200.4219 1204.0625,1201.1406 L1204.0625,1204.2344 L1194.625,1204.2344 Q1193.9063,1204.2344 1193.5938,1203.9531 Q1193.2969,1203.6719 1193.2969,1203.2344 Q1193.2969,1202.7813 1193.6094,1202.5156 Q1193.9219,1202.2344 1194.625,1202.2344 L1194.9375,1202.2344 L1194.9375,1194.4063 L1194.625,1194.4063 Q1193.9063,1194.4063 1193.5938,1194.125 Q1193.2969,1193.8438 1193.2969,1193.3906 Q1193.2969,1192.9375 1193.5938,1192.6719 Q1193.9063,1192.3906 1194.625,1192.3906 L1203.6094,1192.3906 L1203.6094,1195.4375 Q1203.6094,1196.1563 1203.3281,1196.4688 Q1203.0625,1196.7656 1202.625,1196.7656 Q1202.1719,1196.7656 1201.8906,1196.4688 Q1201.6094,1196.1719 1201.6094,1195.4375 L1201.6094,1194.4063 L1196.9531,1194.4063 L1196.9531,1197.2969 L1198.7031,1197.2969 Q1198.7031,1196.5156 1198.8438,1196.2813 Q1199.1563,1195.8125 1199.7031,1195.8125 Q1200.1563,1195.8125 1200.4219,1196.125 Q1200.7031,1196.4219 1200.7031,1197.1406 L1200.7031,1199.4531 Q1200.7031,1200.1094 1200.5469,1200.3281 Q1200.2344,1200.7813 1199.7031,1200.7813 Q1199.1563,1200.7813 1198.8438,1200.3125 Q1198.7031,1200.0781 1198.7031,1199.2969 L1196.9531,1199.2969 Z " fill="#000000"/><text fill="#000000" font-family="sans-serif" font-size="20" font-style="italic" lengthAdjust="spacing" textLength="71" x="1212" y="1181.2617">«Entity»</text><text fill="#000000" font-family="sans-serif" font-size="20" font-style="italic" lengthAdjust="spacing" textLength="56" x="1219.5" y="1206.418">«root»</text><text fill="#000000" font-family="sans-serif" font-size="20" lengthAdjust="spacing" textLength="41" x="1227" y="1231.5742">User</text><line style="stroke:#1E90FF;stroke-width:0.5;" x1="1184" x2="1283" y1="1240.9688" y2="1240.9688"/></g><!--entity ShortName--><g id="elem_ShortName"><rect fill="#D8F5FF" height="56.3125" rx="2.5" ry="2.5" style="stroke:#1E90FF;stroke-width:0.5;" width="156" x="909" y="1155"/><text fill="#000000" font-family="sans-serif" font-size="20" font-style="italic" lengthAdjust="spacing" textLength="136" x="919" y="1178.7617">«Value Object»</text><text fill="#000000" font-family="sans-serif" font-size="20" lengthAdjust="spacing" textLength="98" x="938" y="1203.918">ShortName</text></g><!--entity Email--><g id="elem_Email"><rect fill="#D8F5FF" height="56.3125" rx="2.5" ry="2.5" style="stroke:#1E90FF;stroke-width:0.5;" width="156" x="909" y="1246"/><text fill="#000000" font-family="sans-serif" font-size="20" font-style="italic" lengthAdjust="spacing" textLength="136" x="919" y="1269.7617">«Value Object»</text><text fill="#000000" font-family="sans-serif" font-size="20" lengthAdjust="spacing" textLength="48" x="963" y="1294.918">Email</text></g><!--class SharedBoard--><g id="elem_SharedBoard"><rect codeLine="65" fill="#D8F5FF" height="93.4688" id="SharedBoard" rx="2.5" ry="2.5" style="stroke:#1E90FF;stroke-width:0.5;" width="150" x="912" y="790.5"/><ellipse cx="928" cy="833.2344" fill="#ADD1B2" rx="12" ry="12" style="stroke:#181818;stroke-width:1.0;"/><path d="M925.9531,834.2969 L925.9531,837.2344 L931.0469,837.2344 L931.0469,836.1406 Q931.0469,835.4219 931.3281,835.125 Q931.6094,834.8125 932.0625,834.8125 Q932.5,834.8125 932.7813,835.125 Q933.0625,835.4219 933.0625,836.1406 L933.0625,839.2344 L923.625,839.2344 Q922.9063,839.2344 922.5938,838.9531 Q922.2969,838.6719 922.2969,838.2344 Q922.2969,837.7813 922.6094,837.5156 Q922.9219,837.2344 923.625,837.2344 L923.9375,837.2344 L923.9375,829.4063 L923.625,829.4063 Q922.9063,829.4063 922.5938,829.125 Q922.2969,828.8438 922.2969,828.3906 Q922.2969,827.9375 922.5938,827.6719 Q922.9063,827.3906 923.625,827.3906 L932.6094,827.3906 L932.6094,830.4375 Q932.6094,831.1563 932.3281,831.4688 Q932.0625,831.7656 931.625,831.7656 Q931.1719,831.7656 930.8906,831.4688 Q930.6094,831.1719 930.6094,830.4375 L930.6094,829.4063 L925.9531,829.4063 L925.9531,832.2969 L927.7031,832.2969 Q927.7031,831.5156 927.8438,831.2813 Q928.1563,830.8125 928.7031,830.8125 Q929.1563,830.8125 929.4219,831.125 Q929.7031,831.4219 929.7031,832.1406 L929.7031,834.4531 Q929.7031,835.1094 929.5469,835.3281 Q929.2344,835.7813 928.7031,835.7813 Q928.1563,835.7813 927.8438,835.3125 Q927.7031,835.0781 927.7031,834.2969 L925.9531,834.2969 Z " fill="#000000"/><text fill="#000000" font-family="sans-serif" font-size="20" font-style="italic" lengthAdjust="spacing" textLength="71" x="965.5" y="816.2617">«Entity»</text><text fill="#000000" font-family="sans-serif" font-size="20" font-style="italic" lengthAdjust="spacing" textLength="56" x="973" y="841.418">«root»</text><text fill="#000000" font-family="sans-serif" font-size="20" lengthAdjust="spacing" textLength="116" x="943" y="866.5742">SharedBoard</text><line style="stroke:#1E90FF;stroke-width:0.5;" x1="913" x2="1061" y1="875.9688" y2="875.9688"/></g><!--class BoardEntry--><g id="elem_BoardEntry"><rect codeLine="90" fill="#D8F5FF" height="68.3125" id="BoardEntry" rx="2.5" ry="2.5" style="stroke:#1E90FF;stroke-width:0.5;" width="133" x="570" y="900"/><ellipse cx="586" cy="930.1563" fill="#ADD1B2" rx="12" ry="12" style="stroke:#181818;stroke-width:1.0;"/><path d="M583.9531,931.2188 L583.9531,934.1563 L589.0469,934.1563 L589.0469,933.0625 Q589.0469,932.3438 589.3281,932.0469 Q589.6094,931.7344 590.0625,931.7344 Q590.5,931.7344 590.7813,932.0469 Q591.0625,932.3438 591.0625,933.0625 L591.0625,936.1563 L581.625,936.1563 Q580.9063,936.1563 580.5938,935.875 Q580.2969,935.5938 580.2969,935.1563 Q580.2969,934.7031 580.6094,934.4375 Q580.9219,934.1563 581.625,934.1563 L581.9375,934.1563 L581.9375,926.3281 L581.625,926.3281 Q580.9063,926.3281 580.5938,926.0469 Q580.2969,925.7656 580.2969,925.3125 Q580.2969,924.8594 580.5938,924.5938 Q580.9063,924.3125 581.625,924.3125 L590.6094,924.3125 L590.6094,927.3594 Q590.6094,928.0781 590.3281,928.3906 Q590.0625,928.6875 589.625,928.6875 Q589.1719,928.6875 588.8906,928.3906 Q588.6094,928.0938 588.6094,927.3594 L588.6094,926.3281 L583.9531,926.3281 L583.9531,929.2188 L585.7031,929.2188 Q585.7031,928.4375 585.8438,928.2031 Q586.1563,927.7344 586.7031,927.7344 Q587.1563,927.7344 587.4219,928.0469 Q587.7031,928.3438 587.7031,929.0625 L587.7031,931.375 Q587.7031,932.0313 587.5469,932.25 Q587.2344,932.7031 586.7031,932.7031 Q586.1563,932.7031 585.8438,932.2344 Q585.7031,932 585.7031,931.2188 L583.9531,931.2188 Z " fill="#000000"/><text fill="#000000" font-family="sans-serif" font-size="20" font-style="italic" lengthAdjust="spacing" textLength="71" x="615" y="925.7617">«Entity»</text><text fill="#000000" font-family="sans-serif" font-size="20" lengthAdjust="spacing" textLength="99" x="601" y="950.918">BoardEntry</text><line style="stroke:#1E90FF;stroke-width:0.5;" x1="571" x2="702" y1="960.3125" y2="960.3125"/></g><!--class BoardPermissions--><g id="elem_BoardPermissions"><rect codeLine="108" fill="#D8F5FF" height="68.3125" id="BoardPermissions" rx="2.5" ry="2.5" style="stroke:#1E90FF;stroke-width:0.5;" width="193" x="540" y="1003"/><ellipse cx="556" cy="1033.1563" fill="#ADD1B2" rx="12" ry="12" style="stroke:#181818;stroke-width:1.0;"/><path d="M553.9531,1034.2188 L553.9531,1037.1563 L559.0469,1037.1563 L559.0469,1036.0625 Q559.0469,1035.3438 559.3281,1035.0469 Q559.6094,1034.7344 560.0625,1034.7344 Q560.5,1034.7344 560.7813,1035.0469 Q561.0625,1035.3438 561.0625,1036.0625 L561.0625,1039.1563 L551.625,1039.1563 Q550.9063,1039.1563 550.5938,1038.875 Q550.2969,1038.5938 550.2969,1038.1563 Q550.2969,1037.7031 550.6094,1037.4375 Q550.9219,1037.1563 551.625,1037.1563 L551.9375,1037.1563 L551.9375,1029.3281 L551.625,1029.3281 Q550.9063,1029.3281 550.5938,1029.0469 Q550.2969,1028.7656 550.2969,1028.3125 Q550.2969,1027.8594 550.5938,1027.5938 Q550.9063,1027.3125 551.625,1027.3125 L560.6094,1027.3125 L560.6094,1030.3594 Q560.6094,1031.0781 560.3281,1031.3906 Q560.0625,1031.6875 559.625,1031.6875 Q559.1719,1031.6875 558.8906,1031.3906 Q558.6094,1031.0938 558.6094,1030.3594 L558.6094,1029.3281 L553.9531,1029.3281 L553.9531,1032.2188 L555.7031,1032.2188 Q555.7031,1031.4375 555.8438,1031.2031 Q556.1563,1030.7344 556.7031,1030.7344 Q557.1563,1030.7344 557.4219,1031.0469 Q557.7031,1031.3438 557.7031,1032.0625 L557.7031,1034.375 Q557.7031,1035.0313 557.5469,1035.25 Q557.2344,1035.7031 556.7031,1035.7031 Q556.1563,1035.7031 555.8438,1035.2344 Q555.7031,1035 555.7031,1034.2188 L553.9531,1034.2188 Z " fill="#000000"/><text fill="#000000" font-family="sans-serif" font-size="20" font-style="italic" lengthAdjust="spacing" textLength="71" x="615" y="1028.7617">«Entity»</text><text fill="#000000" font-family="sans-serif" font-size="20" lengthAdjust="spacing" textLength="159" x="571" y="1053.918">BoardPermissions</text><line style="stroke:#1E90FF;stroke-width:0.5;" x1="541" x2="732" y1="1063.3125" y2="1063.3125"/></g><!--entity BoardTitle--><g id="elem_BoardTitle"><rect fill="#D8F5FF" height="56.3125" rx="2.5" ry="2.5" style="stroke:#1E90FF;stroke-width:0.5;" width="156" x="558.5" y="627"/><text fill="#000000" font-family="sans-serif" font-size="20" font-style="italic" lengthAdjust="spacing" textLength="136" x="568.5" y="650.7617">«Value Object»</text><text fill="#000000" font-family="sans-serif" font-size="20" lengthAdjust="spacing" textLength="90" x="591.5" y="675.918">BoardTitle</text></g><!--entity BoardNRow--><g id="elem_BoardNRow"><rect fill="#D8F5FF" height="56.3125" rx="2.5" ry="2.5" style="stroke:#1E90FF;stroke-width:0.5;" width="156" x="558.5" y="718"/><text fill="#000000" font-family="sans-serif" font-size="20" font-style="italic" lengthAdjust="spacing" textLength="136" x="568.5" y="741.7617">«Value Object»</text><text fill="#000000" font-family="sans-serif" font-size="20" lengthAdjust="spacing" textLength="106" x="583.5" y="766.918">BoardNRow</text></g><!--entity BoardNCol--><g id="elem_BoardNCol"><rect fill="#D8F5FF" height="56.3125" rx="2.5" ry="2.5" style="stroke:#1E90FF;stroke-width:0.5;" width="156" x="558.5" y="809"/><text fill="#000000" font-family="sans-serif" font-size="20" font-style="italic" lengthAdjust="spacing" textLength="136" x="568.5" y="832.7617">«Value Object»</text><text fill="#000000" font-family="sans-serif" font-size="20" lengthAdjust="spacing" textLength="95" x="589" y="857.918">BoardNCol</text></g><!--entity BoardState--><g id="elem_BoardState"><rect fill="#D8F5FF" height="56.3125" rx="2.5" ry="2.5" style="stroke:#1E90FF;stroke-width:0.5;" width="156" x="558.5" y="536"/><text fill="#000000" font-family="sans-serif" font-size="20" font-style="italic" lengthAdjust="spacing" textLength="136" x="568.5" y="559.7617">«Value Object»</text><text fill="#000000" font-family="sans-serif" font-size="20" lengthAdjust="spacing" textLength="100" x="586.5" y="584.918">BoardState</text></g><!--entity Title--><g id="elem_Title"><rect fill="#D8F5FF" height="56.3125" rx="2.5" ry="2.5" style="stroke:#1E90FF;stroke-width:0.5;" width="156" x="23" y="861"/><text fill="#000000" font-family="sans-serif" font-size="20" font-style="italic" lengthAdjust="spacing" textLength="136" x="33" y="884.7617">«Value Object»</text><text fill="#000000" font-family="sans-serif" font-size="20" lengthAdjust="spacing" textLength="37" x="82.5" y="909.918">Title</text></g><!--entity Number--><g id="elem_Number"><rect fill="#D8F5FF" height="56.3125" rx="2.5" ry="2.5" style="stroke:#1E90FF;stroke-width:0.5;" width="156" x="23" y="952"/><text fill="#000000" font-family="sans-serif" font-size="20" font-style="italic" lengthAdjust="spacing" textLength="136" x="33" y="975.7617">«Value Object»</text><text fill="#000000" font-family="sans-serif" font-size="20" lengthAdjust="spacing" textLength="68" x="67" y="1000.918">Number</text></g><!--entity BoardRow--><g id="elem_BoardRow"><rect fill="#D8F5FF" height="56.3125" rx="2.5" ry="2.5" style="stroke:#1E90FF;stroke-width:0.5;" width="156" x="254" y="952"/><text fill="#000000" font-family="sans-serif" font-size="20" font-style="italic" lengthAdjust="spacing" textLength="136" x="264" y="975.7617">«Value Object»</text><text fill="#000000" font-family="sans-serif" font-size="20" lengthAdjust="spacing" textLength="93" x="285.5" y="1000.918">BoardRow</text></g><!--entity BoardCol--><g id="elem_BoardCol"><rect fill="#D8F5FF" height="56.3125" rx="2.5" ry="2.5" style="stroke:#1E90FF;stroke-width:0.5;" width="156" x="254" y="861"/><text fill="#000000" font-family="sans-serif" font-size="20" font-style="italic" lengthAdjust="spacing" textLength="136" x="264" y="884.7617">«Value Object»</text><text fill="#000000" font-family="sans-serif" font-size="20" lengthAdjust="spacing" textLength="82" x="291" y="909.918">BoardCol</text></g><!--entity AccessLevel--><g id="elem_AccessLevel"><rect fill="#D8F5FF" height="56.3125" rx="2.5" ry="2.5" style="stroke:#1E90FF;stroke-width:0.5;" width="156" x="909" y="1009"/><text fill="#000000" font-family="sans-serif" font-size="20" font-style="italic" lengthAdjust="spacing" textLength="136" x="919" y="1032.7617">«Value Object»</text><text fill="#000000" font-family="sans-serif" font-size="20" lengthAdjust="spacing" textLength="110" x="932" y="1057.918">AccessLevel</text></g><!--class BoardCreateConfig--><g id="elem_BoardCreateConfig"><rect codeLine="120" fill="#D8F5FF" height="93.4688" id="BoardCreateConfig" rx="2.5" ry="2.5" style="stroke:#1E90FF;stroke-width:0.5;" width="203" x="535" y="1433.5"/><ellipse cx="551" cy="1476.2344" fill="#ADD1B2" rx="12" ry="12" style="stroke:#181818;stroke-width:1.0;"/><path d="M548.9531,1477.2969 L548.9531,1480.2344 L554.0469,1480.2344 L554.0469,1479.1406 Q554.0469,1478.4219 554.3281,1478.125 Q554.6094,1477.8125 555.0625,1477.8125 Q555.5,1477.8125 555.7813,1478.125 Q556.0625,1478.4219 556.0625,1479.1406 L556.0625,1482.2344 L546.625,1482.2344 Q545.9063,1482.2344 545.5938,1481.9531 Q545.2969,1481.6719 545.2969,1481.2344 Q545.2969,1480.7813 545.6094,1480.5156 Q545.9219,1480.2344 546.625,1480.2344 L546.9375,1480.2344 L546.9375,1472.4063 L546.625,1472.4063 Q545.9063,1472.4063 545.5938,1472.125 Q545.2969,1471.8438 545.2969,1471.3906 Q545.2969,1470.9375 545.5938,1470.6719 Q545.9063,1470.3906 546.625,1470.3906 L555.6094,1470.3906 L555.6094,1473.4375 Q555.6094,1474.1563 555.3281,1474.4688 Q555.0625,1474.7656 554.625,1474.7656 Q554.1719,1474.7656 553.8906,1474.4688 Q553.6094,1474.1719 553.6094,1473.4375 L553.6094,1472.4063 L548.9531,1472.4063 L548.9531,1475.2969 L550.7031,1475.2969 Q550.7031,1474.5156 550.8438,1474.2813 Q551.1563,1473.8125 551.7031,1473.8125 Q552.1563,1473.8125 552.4219,1474.125 Q552.7031,1474.4219 552.7031,1475.1406 L552.7031,1477.4531 Q552.7031,1478.1094 552.5469,1478.3281 Q552.2344,1478.7813 551.7031,1478.7813 Q551.1563,1478.7813 550.8438,1478.3125 Q550.7031,1478.0781 550.7031,1477.2969 L548.9531,1477.2969 Z " fill="#000000"/><text fill="#000000" font-family="sans-serif" font-size="20" font-style="italic" lengthAdjust="spacing" textLength="71" x="615" y="1459.2617">«Entity»</text><text fill="#000000" font-family="sans-serif" font-size="20" font-style="italic" lengthAdjust="spacing" textLength="56" x="622.5" y="1484.418">«root»</text><text fill="#000000" font-family="sans-serif" font-size="20" lengthAdjust="spacing" textLength="169" x="566" y="1509.5742">BoardCreateConfig</text><line style="stroke:#1E90FF;stroke-width:0.5;" x1="536" x2="737" y1="1518.9688" y2="1518.9688"/></g><!--entity BoardMaxRow--><g id="elem_BoardMaxRow"><rect fill="#D8F5FF" height="56.3125" rx="2.5" ry="2.5" style="stroke:#1E90FF;stroke-width:0.5;" width="156" x="909" y="1524"/><text fill="#000000" font-family="sans-serif" font-size="20" font-style="italic" lengthAdjust="spacing" textLength="136" x="919" y="1547.7617">«Value Object»</text><text fill="#000000" font-family="sans-serif" font-size="20" lengthAdjust="spacing" textLength="130" x="922" y="1572.918">BoardMaxRow</text></g><!--entity BoardMaxCol--><g id="elem_BoardMaxCol"><rect fill="#D8F5FF" height="56.3125" rx="2.5" ry="2.5" style="stroke:#1E90FF;stroke-width:0.5;" width="156" x="909" y="1433"/><text fill="#000000" font-family="sans-serif" font-size="20" font-style="italic" lengthAdjust="spacing" textLength="136" x="919" y="1456.7617">«Value Object»</text><text fill="#000000" font-family="sans-serif" font-size="20" lengthAdjust="spacing" textLength="119" x="927.5" y="1481.918">BoardMaxCol</text></g><!--entity UpdateEventPostIt--><g id="elem_UpdateEventPostIt"><rect fill="#D8F5FF" height="56.3125" rx="2.5" ry="2.5" style="stroke:#1E90FF;stroke-width:0.5;" width="184" x="240" y="7"/><text fill="#000000" font-family="sans-serif" font-size="20" font-style="italic" lengthAdjust="spacing" textLength="72" x="296" y="30.7617">«Event»</text><text fill="#000000" font-family="sans-serif" font-size="20" lengthAdjust="spacing" textLength="164" x="250" y="55.918">UpdateEventPostIt</text></g><!--reverse link PostItContent to PostIt--><g id="link_PostItContent_PostIt"><path codeLine="40" d="M396.78,181.37 C406,186.1 415.31,191.06 424,196 C480.86,228.33 543.44,269.62 585.66,298.38 " fill="none" id="PostItContent-backto-PostIt" style="stroke:#1E90FF;stroke-width:1.0;"/><polygon fill="#1E90FF" points="392.26,179.07,398.4626,186.7204,396.7149,181.3403,402.095,179.5926,392.26,179.07" style="stroke:#1E90FF;stroke-width:1.0;"/></g><!--reverse link PostItRow to PostIt--><g id="link_PostItRow_PostIt"><path codeLine="41" d="M415.01,266.67 C469.49,283.06 539.26,304.05 585.57,317.98 " fill="none" id="PostItRow-backto-PostIt" style="stroke:#1E90FF;stroke-width:1.0;"/><polygon fill="#1E90FF" points="410.12,265.2,417.5823,271.6277,414.9072,266.6433,419.8915,263.9682,410.12,265.2" style="stroke:#1E90FF;stroke-width:1.0;"/></g><!--reverse link PostItCol to PostIt--><g id="link_PostItCol_PostIt"><path codeLine="42" d="M415.34,333 C469.77,333 539.35,333 585.57,333 " fill="none" id="PostItCol-backto-PostIt" style="stroke:#1E90FF;stroke-width:1.0;"/><polygon fill="#1E90FF" points="410.12,333,419.12,337,415.12,333,419.12,329,410.12,333" style="stroke:#1E90FF;stroke-width:1.0;"/></g><!--reverse link PostItTimeStamp to PostIt--><g id="link_PostItTimeStamp_PostIt"><path codeLine="43" d="M422.86,396.97 C476.22,380.92 541.85,361.17 585.97,347.9 " fill="none" id="PostItTimeStamp-backto-PostIt" style="stroke:#1E90FF;stroke-width:1.0;"/><polygon fill="#1E90FF" points="418.07,398.41,427.8415,399.6418,422.8572,396.9667,425.5323,391.9823,418.07,398.41" style="stroke:#1E90FF;stroke-width:1.0;"/></g><!--reverse link ShortName to User--><g id="link_ShortName_User"><path codeLine="57" d="M1070.02,1189.37 C1107.4,1192.28 1150.43,1195.62 1182.81,1198.14 " fill="none" id="ShortName-backto-User" style="stroke:#1E90FF;stroke-width:1.0;"/><polygon fill="#1E90FF" points="1065.03,1188.99,1073.6947,1193.6723,1070.0151,1189.3757,1074.3117,1185.6961,1065.03,1188.99" style="stroke:#1E90FF;stroke-width:1.0;"/></g><!--reverse link Email to User--><g id="link_Email_User"><path codeLine="58" d="M1070.02,1249.85 C1107.4,1238.84 1150.43,1226.17 1182.81,1216.63 " fill="none" id="Email-backto-User" style="stroke:#1E90FF;stroke-width:1.0;"/><polygon fill="#1E90FF" points="1065.03,1251.32,1074.7946,1252.6053,1069.825,1249.903,1072.5274,1244.9333,1065.03,1251.32" style="stroke:#1E90FF;stroke-width:1.0;"/></g><!--reverse link UpdateEventPostIt to User--><g id="link_UpdateEventPostIt_User"><path codeLine="59" d="M429.26,40.25 C513.48,47.59 637.69,65.12 738,107 C914.26,180.59 978.3,199.34 1089,355 C1182.24,486.11 1220.24,997.83 1229.89,1155.49 " fill="none" id="UpdateEventPostIt-backto-User" style="stroke:#1E90FF;stroke-width:1.0;"/><polygon fill="#1E90FF" points="424.27,39.83,432.8944,44.5861,429.2516,40.2582,433.5795,36.6155,424.27,39.83" style="stroke:#1E90FF;stroke-width:1.0;"/><text fill="#000000" font-family="sans-serif" font-size="20" lengthAdjust="spacing" textLength="107" x="769" y="115.7617">interested in</text></g><!--reverse link BoardTitle to SharedBoard--><g id="link_BoardTitle_SharedBoard"><path codeLine="85" d="M707,685.21 C717.46,690.01 728.06,695.04 738,700 C797.42,729.65 863.13,766.13 911.98,793.98 " fill="none" id="BoardTitle-backto-SharedBoard" style="stroke:#1E90FF;stroke-width:1.0;"/><polygon fill="#1E90FF" points="702.21,683.01,708.729,690.3926,706.7564,685.0908,712.0583,683.1183,702.21,683.01" style="stroke:#1E90FF;stroke-width:1.0;"/></g><!--reverse link BoardNRow to SharedBoard--><g id="link_BoardNRow_SharedBoard"><path codeLine="86" d="M719.71,767.47 C777.97,782.68 855.49,802.92 911.86,817.64 " fill="none" id="BoardNRow-backto-SharedBoard" style="stroke:#1E90FF;stroke-width:1.0;"/><polygon fill="#1E90FF" points="714.84,766.2,722.5418,772.3386,719.6787,767.4598,724.5575,764.5966,714.84,766.2" style="stroke:#1E90FF;stroke-width:1.0;"/></g><!--reverse link BoardNCol to SharedBoard--><g id="link_BoardNCol_SharedBoard"><path codeLine="87" d="M720.06,837 C778.28,837 855.6,837 911.86,837 " fill="none" id="BoardNCol-backto-SharedBoard" style="stroke:#1E90FF;stroke-width:1.0;"/><polygon fill="#1E90FF" points="714.84,837,723.84,841,719.84,837,723.84,833,714.84,837" style="stroke:#1E90FF;stroke-width:1.0;"/></g><!--reverse link BoardState to SharedBoard--><g id="link_BoardState_SharedBoard"><path codeLine="88" d="M712.83,594.48 C721.54,598.95 730.12,603.81 738,609 C818.12,661.74 897.36,740.48 943.97,790.26 " fill="none" id="BoardState-backto-SharedBoard" style="stroke:#1E90FF;stroke-width:1.0;"/><polygon fill="#1E90FF" points="707.98,592.04,714.2215,599.6586,712.4464,594.2875,717.8175,592.5124,707.98,592.04" style="stroke:#1E90FF;stroke-width:1.0;"/></g><!--reverse link BoardEntry to SharedBoard--><g id="link_BoardEntry_SharedBoard"><path codeLine="99" d="M707.99,914.38 C767.27,897.88 851.74,874.37 911.99,857.6 " fill="none" id="BoardEntry-backto-SharedBoard" style="stroke:#1E90FF;stroke-width:1.0;"/><polygon fill="#1E90FF" points="703.05,915.76,712.7938,917.1948,707.8662,914.4166,710.6444,909.489,703.05,915.76" style="stroke:#1E90FF;stroke-width:1.0;"/></g><!--reverse link BoardRow to BoardEntry--><g id="link_BoardRow_BoardEntry"><path codeLine="100" d="M415.08,967.52 C463.67,960.13 524.4,950.89 569.8,943.99 " fill="none" id="BoardRow-backto-BoardEntry" style="stroke:#1E90FF;stroke-width:1.0;"/><polygon fill="#1E90FF" points="410.12,968.27,419.6145,970.888,415.0645,967.5269,418.4256,962.9768,410.12,968.27" style="stroke:#1E90FF;stroke-width:1.0;"/></g><!--reverse link BoardCol to BoardEntry--><g id="link_BoardCol_BoardEntry"><path codeLine="101" d="M415.08,901.21 C463.67,908.44 524.4,917.47 569.8,924.23 " fill="none" id="BoardCol-backto-BoardEntry" style="stroke:#1E90FF;stroke-width:1.0;"/><polygon fill="#1E90FF" points="410.12,900.47,418.4256,905.7632,415.0645,901.2131,419.6145,897.852,410.12,900.47" style="stroke:#1E90FF;stroke-width:1.0;"/></g><!--reverse link Number to BoardRow--><g id="link_Number_BoardRow"><path d="M184.31,980 C206.94,980 231.4,980 253.74,980 " fill="none" id="Number-backto-BoardRow" style="stroke:#1E90FF;stroke-width:1.0;"/><polygon fill="#1E90FF" points="179.21,980,188.21,984,184.21,980,188.21,976,179.21,980" style="stroke:#1E90FF;stroke-width:1.0;"/></g><!--reverse link Title to BoardCol--><g id="link_Title_BoardCol"><path d="M184.31,889 C206.94,889 231.4,889 253.74,889 " fill="none" id="Title-backto-BoardCol" style="stroke:#1E90FF;stroke-width:1.0;"/><polygon fill="#1E90FF" points="179.21,889,188.21,893,184.21,889,188.21,885,179.21,889" style="stroke:#1E90FF;stroke-width:1.0;"/></g><!--reverse link Number to BoardCol--><g id="link_Number_BoardCol"><path d="M177.51,949.99 C204.17,939.4 234.02,927.54 260.26,917.11 " fill="none" id="Number-backto-BoardCol" style="stroke:#1E90FF;stroke-width:1.0;"/><polygon fill="#1E90FF" points="172.58,951.95,182.4208,952.3475,177.2273,950.1054,179.4694,944.9118,172.58,951.95" style="stroke:#1E90FF;stroke-width:1.0;"/></g><!--reverse link Title to BoardRow--><g id="link_Title_BoardRow"><path d="M177.51,919.01 C204.17,929.6 234.02,941.46 260.26,951.89 " fill="none" id="Title-backto-BoardRow" style="stroke:#1E90FF;stroke-width:1.0;"/><polygon fill="#1E90FF" points="172.58,917.05,179.4694,924.0882,177.2273,918.8946,182.4208,916.6525,172.58,917.05" style="stroke:#1E90FF;stroke-width:1.0;"/></g><!--reverse link BoardPermissions to SharedBoard--><g id="link_BoardPermissions_SharedBoard"><path codeLine="113" d="M708.71,1000.6 C718.58,995.42 728.57,990.12 738,985 C800.46,951.11 816.07,942.57 877,906 C888.91,898.85 901.44,891.12 913.6,883.51 " fill="none" id="BoardPermissions-backto-SharedBoard" style="stroke:#1E90FF;stroke-width:1.0;"/><polygon fill="#1E90FF" points="704.19,1002.96,714.0191,1002.3367,708.6214,1000.6442,710.3139,995.2465,704.19,1002.96" style="stroke:#1E90FF;stroke-width:1.0;"/></g><!--link BoardPermissions to User--><g id="link_BoardPermissions_User"><path codeLine="114" d="M653.54,1071.1 C686.21,1135.73 767.48,1273.74 885,1320 C969.37,1353.21 1003.65,1350.59 1089,1320 C1126.91,1306.41 1161.98,1278.01 1187.96,1252.48 " fill="none" id="BoardPermissions-to-User" style="stroke:#1E90FF;stroke-width:1.0;"/><polygon fill="#1E90FF" points="1191.72,1248.73,1182.5205,1252.247,1188.1773,1252.2584,1188.1659,1257.9152,1191.72,1248.73" style="stroke:#1E90FF;stroke-width:1.0;"/></g><!--link BoardPermissions to AccessLevel--><g id="link_BoardPermissions_AccessLevel"><path codeLine="115" d="M733.19,1037 C786.67,1037 852.63,1037 903.76,1037 " fill="none" id="BoardPermissions-to-AccessLevel" style="stroke:#1E90FF;stroke-width:1.0;"/><polygon fill="#1E90FF" points="908.98,1037,899.98,1033,903.98,1037,899.98,1041,908.98,1037" style="stroke:#1E90FF;stroke-width:1.0;"/></g><!--link BoardCreateConfig to BoardMaxRow--><g id="link_BoardCreateConfig_BoardMaxRow"><path codeLine="128" d="M738.3,1500.83 C790.87,1511.69 854.36,1524.8 903.9,1535.04 " fill="none" id="BoardCreateConfig-to-BoardMaxRow" style="stroke:#1E90FF;stroke-width:1.0;"/><polygon fill="#1E90FF" points="908.96,1536.08,900.961,1530.3341,904.0644,1535.0637,899.3348,1538.1671,908.96,1536.08" style="stroke:#1E90FF;stroke-width:1.0;"/></g><!--link BoardCreateConfig to BoardMaxCol--><g id="link_BoardCreateConfig_BoardMaxCol"><path codeLine="129" d="M738.3,1474.5 C790.87,1471.64 854.36,1468.18 903.9,1465.48 " fill="none" id="BoardCreateConfig-to-BoardMaxCol" style="stroke:#1E90FF;stroke-width:1.0;"/><polygon fill="#1E90FF" points="908.96,1465.2,899.7559,1461.6952,903.9674,1465.4718,900.1908,1469.6833,908.96,1465.2" style="stroke:#1E90FF;stroke-width:1.0;"/></g><!--link PostIt to User--><g id="link_PostIt_User"><path codeLine="133" d="M687.07,338.51 C780.91,351.7 984.42,394 1089,520 C1169.49,616.98 1214.01,1007.74 1227.8,1149.93 " fill="none" id="PostIt-to-User" style="stroke:#1E90FF;stroke-width:1.0;"/><polygon fill="#1E90FF" points="1228.31,1155.29,1231.4185,1145.9446,1227.8252,1150.3136,1223.4562,1146.7203,1228.31,1155.29" style="stroke:#1E90FF;stroke-width:1.0;"/><text fill="#000000" font-family="sans-serif" font-size="20" lengthAdjust="spacing" textLength="54" x="960" y="384.7617">owner</text><text fill="#000000" font-family="sans-serif" font-size="20" lengthAdjust="spacing" textLength="11" x="1215.8735" y="1143.0744">1</text></g><!--link SharedBoard to User--><g id="link_SharedBoard_User"><path codeLine="134" d="M1019.21,883.6 C1065.22,952.28 1150.92,1080.21 1198.48,1151.22 " fill="none" id="SharedBoard-to-User" style="stroke:#1E90FF;stroke-width:1.0;"/><polygon fill="#1E90FF" points="1201.28,1155.39,1199.5928,1145.6867,1198.4966,1151.2363,1192.947,1150.1401,1201.28,1155.39" style="stroke:#1E90FF;stroke-width:1.0;"/><text fill="#000000" font-family="sans-serif" font-size="20" lengthAdjust="spacing" textLength="54" x="1098" y="1003.7617">owner</text><text fill="#000000" font-family="sans-serif" font-size="20" lengthAdjust="spacing" textLength="11" x="1185.2114" y="1143.1878">1</text></g><!--link PostIt to SharedBoard--><g id="link_PostIt_SharedBoard"><path codeLine="135" d="M671.67,379.57 C718.74,444.02 805.78,564.31 877,669 C903.39,707.79 932.24,752.37 953.63,785.85 " fill="none" id="PostIt-to-SharedBoard" style="stroke:#1E90FF;stroke-width:1.0;"/><polygon fill="#1E90FF" points="956.47,790.29,954.9829,780.5541,953.7727,786.0799,948.2468,784.8697,956.47,790.29" style="stroke:#1E90FF;stroke-width:1.0;"/><text fill="#000000" font-family="sans-serif" font-size="20" lengthAdjust="spacing" textLength="68" x="788.5" y="515.7617">belongs</text><text fill="#000000" font-family="sans-serif" font-size="20" lengthAdjust="spacing" textLength="11" x="940.6285" y="778.0744">1</text></g><!--reverse link BoardCreateConfig to SharedBoard--><g id="link_BoardCreateConfig_SharedBoard"><path codeLine="136" d="M661.23,1428.5 C703.32,1338.25 795.12,1146.35 885,991 C906.38,954.05 932.92,913.76 953.44,883.66 " fill="none" id="BoardCreateConfig-backto-SharedBoard" style="stroke:#1E90FF;stroke-width:1.0;"/><polygon fill="#1E90FF" points="659.02,1433.24,666.444,1426.7682,661.1297,1428.7069,659.1911,1423.3926,659.02,1433.24" style="stroke:#1E90FF;stroke-width:1.0;"/><text fill="#000000" font-family="sans-serif" font-size="20" lengthAdjust="spacing" textLength="31" x="807" y="1011.7617">has</text></g><!--reverse link UpdateEventPostIt to PostIt--><g id="link_UpdateEventPostIt_PostIt"><path codeLine="144" d="M375.59,66.58 C391.23,78.72 408.82,93.03 424,107 C487.46,165.41 554.48,239.41 595.66,286.5 " fill="none" id="UpdateEventPostIt-backto-PostIt" style="stroke:#1E90FF;stroke-width:1.0;"/><polygon fill="#1E90FF" points="371.23,63.21,375.9263,71.8671,375.1937,66.2579,380.8029,65.5252,371.23,63.21" style="stroke:#1E90FF;stroke-width:1.0;"/><text fill="#000000" font-family="sans-serif" font-size="20" lengthAdjust="spacing" textLength="47" x="455" y="130.7617">notify</text></g><!--SRC=[pLR1Zjem4BtxAwpjeIUaRQLA5KAHW0K9YR9esUtT94FYajZ8DajfjV_UiPCG4moRlPKJzdiUptipcKHlkTWnnOfSnbj8Q08Rji_DL0gpud-0VhqdEMmCDP8gdcQ69bn1RBWKX6Gy0Lg0oMIY2T5r91hdJEkXCOglzmPciHGkrFq5X_ub57zple4v5p2IAW4rbhbKz44cAQXHleTp2ektgP9xaPIquN8vdus7pxF7XUEryKyFtwVVfbE73PMIXs3qAnU_-GdlC39BOMMEEL1h0HDf3huYffB_Nz1dkfJQp0ofz5JBOPegI9c1KW08mysnmkXWC77hA1eCb9GcYeXZESKbPupzWeUG-fFXJVHn_GijYg8otDi5_qaUEdDHHcVkCo-mHApOtJxHIhhNgrrfG9TX273fX03lxWR62z7p5mtgvBXTXFsso6stLvbKPi4AwE38f63y7UUyS9Yooz9kLoVzhPTTWjbENZ7JkYigcFOvsgX06nmVN5IAHn9JE4bsgx3cLSOK98uGacwPZIH7U-OcxwBVaHVTEgtaTkiqnyL2cov9T4rsiI_MhlWtYBvwDDzphe4NTT-6qRfvWsYbgGNxnN8xM2Drz6frnQ4F6F-kx_wzrxAlXJVS1gjbjx3Qz1h146w_yRW-7QJN-oswZNBfsX9KmRN65wVslFES6COnQ3s7L-XYnbcuQvRuf5ulQfxc8EebKBufoeSIf-I6f-UFShaNVg1BWWBSBsct9vgZ_s2_Fz0koBxLCQUHSPc9bUbTs85bQ-pCU8ASsSyUJQhvPrbtN-wg6IWF0htrXra8RntrwVqrv5AacWJyEwylxMSClxTiKcuUQ-Ai2KpeWLjPPr12U89NV_j26huv4l8F]--></g></svg>