<?xml version="1.0" encoding="UTF-8" standalone="no"?><svg xmlns="http://www.w3.org/2000/svg" xmlns:xlink="http://www.w3.org/1999/xlink" contentStyleType="text/css" height="1324px" preserveAspectRatio="none" style="width:1292px;height:1324px;background:#FFFFFF;" version="1.1" viewBox="0 0 1292 1324" width="1292px" zoomAndPan="magnify"><defs/><g><!--cluster PostItAggregate--><g id="cluster_PostItAggregate"><rect fill="none" height="389" rx="2.5" ry="2.5" style="stroke:#000000;stroke-width:1.5;" width="466" x="230" y="79"/><text fill="#000000" font-family="sans-serif" font-size="20" font-weight="bold" lengthAdjust="spacing" textLength="152" x="387" y="101.7617">PostItAggregate</text></g><!--cluster UserAggregate--><g id="cluster_UserAggregate"><rect fill="none" height="207" rx="2.5" ry="2.5" style="stroke:#000000;stroke-width:1.5;" width="405" x="881" y="1111"/><text fill="#000000" font-family="sans-serif" font-size="20" font-weight="bold" lengthAdjust="spacing" textLength="141" x="1013" y="1133.7617">UserAggregate</text></g><!--cluster BoardAggregate--><g id="cluster_BoardAggregate"><rect fill="none" height="595" rx="2.5" ry="2.5" style="stroke:#000000;stroke-width:1.5;" width="1034.5" x="7" y="492"/><text fill="#000000" font-family="sans-serif" font-size="20" font-weight="bold" lengthAdjust="spacing" textLength="154" x="447.25" y="514.7617">BoardAggregate</text></g><!--class PostIt--><g id="elem_PostIt"><rect codeLine="26" fill="#D8F5FF" height="93.4688" id="PostIt" rx="2.5" ry="2.5" style="stroke:#1E90FF;stroke-width:0.5;" width="101" x="579" y="286.5"/><ellipse cx="595" cy="329.2344" fill="#ADD1B2" rx="12" ry="12" style="stroke:#181818;stroke-width:1.0;"/><path d="M592.9531,330.2969 L592.9531,333.2344 L598.0469,333.2344 L598.0469,332.1406 Q598.0469,331.4219 598.3281,331.125 Q598.6094,330.8125 599.0625,330.8125 Q599.5,330.8125 599.7813,331.125 Q600.0625,331.4219 600.0625,332.1406 L600.0625,335.2344 L590.625,335.2344 Q589.9063,335.2344 589.5938,334.9531 Q589.2969,334.6719 589.2969,334.2344 Q589.2969,333.7813 589.6094,333.5156 Q589.9219,333.2344 590.625,333.2344 L590.9375,333.2344 L590.9375,325.4063 L590.625,325.4063 Q589.9063,325.4063 589.5938,325.125 Q589.2969,324.8438 589.2969,324.3906 Q589.2969,323.9375 589.5938,323.6719 Q589.9063,323.3906 590.625,323.3906 L599.6094,323.3906 L599.6094,326.4375 Q599.6094,327.1563 599.3281,327.4688 Q599.0625,327.7656 598.625,327.7656 Q598.1719,327.7656 597.8906,327.4688 Q597.6094,327.1719 597.6094,326.4375 L597.6094,325.4063 L592.9531,325.4063 L592.9531,328.2969 L594.7031,328.2969 Q594.7031,327.5156 594.8438,327.2813 Q595.1563,326.8125 595.7031,326.8125 Q596.1563,326.8125 596.4219,327.125 Q596.7031,327.4219 596.7031,328.1406 L596.7031,330.4531 Q596.7031,331.1094 596.5469,331.3281 Q596.2344,331.7813 595.7031,331.7813 Q595.1563,331.7813 594.8438,331.3125 Q594.7031,331.0781 594.7031,330.2969 L592.9531,330.2969 Z " fill="#000000"/><text fill="#000000" font-family="sans-serif" font-size="20" font-style="italic" lengthAdjust="spacing" textLength="71" x="608" y="312.2617">«Entity»</text><text fill="#000000" font-family="sans-serif" font-size="20" font-style="italic" lengthAdjust="spacing" textLength="56" x="615.5" y="337.418">«root»</text><text fill="#000000" font-family="sans-serif" font-size="20" lengthAdjust="spacing" textLength="52" x="617.5" y="362.5742">PostIt</text><line style="stroke:#1E90FF;stroke-width:0.5;" x1="580" x2="679" y1="371.9688" y2="371.9688"/></g><!--entity PostItContent--><g id="elem_PostItContent"><rect fill="#D8F5FF" height="56.3125" rx="2.5" ry="2.5" style="stroke:#1E90FF;stroke-width:0.5;" width="156" x="254" y="123"/><text fill="#000000" font-family="sans-serif" font-size="20" font-style="italic" lengthAdjust="spacing" textLength="136" x="264" y="146.7617">«Value Object»</text><text fill="#000000" font-family="sans-serif" font-size="20" lengthAdjust="spacing" textLength="120" x="272" y="171.918">PostItContent</text></g><!--entity PostItRow--><g id="elem_PostItRow"><rect fill="#D8F5FF" height="56.3125" rx="2.5" ry="2.5" style="stroke:#1E90FF;stroke-width:0.5;" width="156" x="254" y="214"/><text fill="#000000" font-family="sans-serif" font-size="20" font-style="italic" lengthAdjust="spacing" textLength="136" x="264" y="237.7617">«Value Object»</text><text fill="#000000" font-family="sans-serif" font-size="20" lengthAdjust="spacing" textLength="92" x="286" y="262.918">PostItRow</text></g><!--entity PostItCol--><g id="elem_PostItCol"><rect fill="#D8F5FF" height="56.3125" rx="2.5" ry="2.5" style="stroke:#1E90FF;stroke-width:0.5;" width="156" x="254" y="305"/><text fill="#000000" font-family="sans-serif" font-size="20" font-style="italic" lengthAdjust="spacing" textLength="136" x="264" y="328.7617">«Value Object»</text><text fill="#000000" font-family="sans-serif" font-size="20" lengthAdjust="spacing" textLength="81" x="291.5" y="353.918">PostItCol</text></g><!--entity PostItTimeStamp--><g id="elem_PostItTimeStamp"><rect fill="#D8F5FF" height="56.3125" rx="2.5" ry="2.5" style="stroke:#1E90FF;stroke-width:0.5;" width="172" x="246" y="396"/><text fill="#000000" font-family="sans-serif" font-size="20" font-style="italic" lengthAdjust="spacing" textLength="136" x="264" y="419.7617">«Value Object»</text><text fill="#000000" font-family="sans-serif" font-size="20" lengthAdjust="spacing" textLength="152" x="256" y="444.918">PostItTimeStamp</text></g><!--class User--><g id="elem_User"><rect codeLine="49" fill="#D8F5FF" height="93.4688" id="User" rx="2.5" ry="2.5" style="stroke:#1E90FF;stroke-width:0.5;" width="101" x="1169" y="1155.5"/><ellipse cx="1185" cy="1198.2344" fill="#ADD1B2" rx="12" ry="12" style="stroke:#181818;stroke-width:1.0;"/><path d="M1182.9531,1199.2969 L1182.9531,1202.2344 L1188.0469,1202.2344 L1188.0469,1201.1406 Q1188.0469,1200.4219 1188.3281,1200.125 Q1188.6094,1199.8125 1189.0625,1199.8125 Q1189.5,1199.8125 1189.7813,1200.125 Q1190.0625,1200.4219 1190.0625,1201.1406 L1190.0625,1204.2344 L1180.625,1204.2344 Q1179.9063,1204.2344 1179.5938,1203.9531 Q1179.2969,1203.6719 1179.2969,1203.2344 Q1179.2969,1202.7813 1179.6094,1202.5156 Q1179.9219,1202.2344 1180.625,1202.2344 L1180.9375,1202.2344 L1180.9375,1194.4063 L1180.625,1194.4063 Q1179.9063,1194.4063 1179.5938,1194.125 Q1179.2969,1193.8438 1179.2969,1193.3906 Q1179.2969,1192.9375 1179.5938,1192.6719 Q1179.9063,1192.3906 1180.625,1192.3906 L1189.6094,1192.3906 L1189.6094,1195.4375 Q1189.6094,1196.1563 1189.3281,1196.4688 Q1189.0625,1196.7656 1188.625,1196.7656 Q1188.1719,1196.7656 1187.8906,1196.4688 Q1187.6094,1196.1719 1187.6094,1195.4375 L1187.6094,1194.4063 L1182.9531,1194.4063 L1182.9531,1197.2969 L1184.7031,1197.2969 Q1184.7031,1196.5156 1184.8438,1196.2813 Q1185.1563,1195.8125 1185.7031,1195.8125 Q1186.1563,1195.8125 1186.4219,1196.125 Q1186.7031,1196.4219 1186.7031,1197.1406 L1186.7031,1199.4531 Q1186.7031,1200.1094 1186.5469,1200.3281 Q1186.2344,1200.7813 1185.7031,1200.7813 Q1185.1563,1200.7813 1184.8438,1200.3125 Q1184.7031,1200.0781 1184.7031,1199.2969 L1182.9531,1199.2969 Z " fill="#000000"/><text fill="#000000" font-family="sans-serif" font-size="20" font-style="italic" lengthAdjust="spacing" textLength="71" x="1198" y="1181.2617">«Entity»</text><text fill="#000000" font-family="sans-serif" font-size="20" font-style="italic" lengthAdjust="spacing" textLength="56" x="1205.5" y="1206.418">«root»</text><text fill="#000000" font-family="sans-serif" font-size="20" lengthAdjust="spacing" textLength="41" x="1213" y="1231.5742">User</text><line style="stroke:#1E90FF;stroke-width:0.5;" x1="1170" x2="1269" y1="1240.9688" y2="1240.9688"/></g><!--entity ShortName--><g id="elem_ShortName"><rect fill="#D8F5FF" height="56.3125" rx="2.5" ry="2.5" style="stroke:#1E90FF;stroke-width:0.5;" width="156" x="897" y="1155"/><text fill="#000000" font-family="sans-serif" font-size="20" font-style="italic" lengthAdjust="spacing" textLength="136" x="907" y="1178.7617">«Value Object»</text><text fill="#000000" font-family="sans-serif" font-size="20" lengthAdjust="spacing" textLength="98" x="926" y="1203.918">ShortName</text></g><!--entity Email--><g id="elem_Email"><rect fill="#D8F5FF" height="56.3125" rx="2.5" ry="2.5" style="stroke:#1E90FF;stroke-width:0.5;" width="156" x="897" y="1246"/><text fill="#000000" font-family="sans-serif" font-size="20" font-style="italic" lengthAdjust="spacing" textLength="136" x="907" y="1269.7617">«Value Object»</text><text fill="#000000" font-family="sans-serif" font-size="20" lengthAdjust="spacing" textLength="48" x="951" y="1294.918">Email</text></g><!--class Board--><g id="elem_Board"><rect codeLine="65" fill="#D8F5FF" height="93.4688" id="Board" rx="2.5" ry="2.5" style="stroke:#1E90FF;stroke-width:0.5;" width="101" x="924.5" y="756.5"/><ellipse cx="940.5" cy="799.2344" fill="#ADD1B2" rx="12" ry="12" style="stroke:#181818;stroke-width:1.0;"/><path d="M938.4531,800.2969 L938.4531,803.2344 L943.5469,803.2344 L943.5469,802.1406 Q943.5469,801.4219 943.8281,801.125 Q944.1094,800.8125 944.5625,800.8125 Q945,800.8125 945.2813,801.125 Q945.5625,801.4219 945.5625,802.1406 L945.5625,805.2344 L936.125,805.2344 Q935.4063,805.2344 935.0938,804.9531 Q934.7969,804.6719 934.7969,804.2344 Q934.7969,803.7813 935.1094,803.5156 Q935.4219,803.2344 936.125,803.2344 L936.4375,803.2344 L936.4375,795.4063 L936.125,795.4063 Q935.4063,795.4063 935.0938,795.125 Q934.7969,794.8438 934.7969,794.3906 Q934.7969,793.9375 935.0938,793.6719 Q935.4063,793.3906 936.125,793.3906 L945.1094,793.3906 L945.1094,796.4375 Q945.1094,797.1563 944.8281,797.4688 Q944.5625,797.7656 944.125,797.7656 Q943.6719,797.7656 943.3906,797.4688 Q943.1094,797.1719 943.1094,796.4375 L943.1094,795.4063 L938.4531,795.4063 L938.4531,798.2969 L940.2031,798.2969 Q940.2031,797.5156 940.3438,797.2813 Q940.6563,796.8125 941.2031,796.8125 Q941.6563,796.8125 941.9219,797.125 Q942.2031,797.4219 942.2031,798.1406 L942.2031,800.4531 Q942.2031,801.1094 942.0469,801.3281 Q941.7344,801.7813 941.2031,801.7813 Q940.6563,801.7813 940.3438,801.3125 Q940.2031,801.0781 940.2031,800.2969 L938.4531,800.2969 Z " fill="#000000"/><text fill="#000000" font-family="sans-serif" font-size="20" font-style="italic" lengthAdjust="spacing" textLength="71" x="953.5" y="782.2617">«Entity»</text><text fill="#000000" font-family="sans-serif" font-size="20" font-style="italic" lengthAdjust="spacing" textLength="56" x="961" y="807.418">«root»</text><text fill="#000000" font-family="sans-serif" font-size="20" lengthAdjust="spacing" textLength="53" x="962.5" y="832.5742">Board</text><line style="stroke:#1E90FF;stroke-width:0.5;" x1="925.5" x2="1024.5" y1="841.9688" y2="841.9688"/></g><!--class BoardEntry--><g id="elem_BoardEntry"><rect codeLine="90" fill="#D8F5FF" height="68.3125" id="BoardEntry" rx="2.5" ry="2.5" style="stroke:#1E90FF;stroke-width:0.5;" width="133" x="563" y="1003"/><ellipse cx="579" cy="1033.1563" fill="#ADD1B2" rx="12" ry="12" style="stroke:#181818;stroke-width:1.0;"/><path d="M576.9531,1034.2188 L576.9531,1037.1563 L582.0469,1037.1563 L582.0469,1036.0625 Q582.0469,1035.3438 582.3281,1035.0469 Q582.6094,1034.7344 583.0625,1034.7344 Q583.5,1034.7344 583.7813,1035.0469 Q584.0625,1035.3438 584.0625,1036.0625 L584.0625,1039.1563 L574.625,1039.1563 Q573.9063,1039.1563 573.5938,1038.875 Q573.2969,1038.5938 573.2969,1038.1563 Q573.2969,1037.7031 573.6094,1037.4375 Q573.9219,1037.1563 574.625,1037.1563 L574.9375,1037.1563 L574.9375,1029.3281 L574.625,1029.3281 Q573.9063,1029.3281 573.5938,1029.0469 Q573.2969,1028.7656 573.2969,1028.3125 Q573.2969,1027.8594 573.5938,1027.5938 Q573.9063,1027.3125 574.625,1027.3125 L583.6094,1027.3125 L583.6094,1030.3594 Q583.6094,1031.0781 583.3281,1031.3906 Q583.0625,1031.6875 582.625,1031.6875 Q582.1719,1031.6875 581.8906,1031.3906 Q581.6094,1031.0938 581.6094,1030.3594 L581.6094,1029.3281 L576.9531,1029.3281 L576.9531,1032.2188 L578.7031,1032.2188 Q578.7031,1031.4375 578.8438,1031.2031 Q579.1563,1030.7344 579.7031,1030.7344 Q580.1563,1030.7344 580.4219,1031.0469 Q580.7031,1031.3438 580.7031,1032.0625 L580.7031,1034.375 Q580.7031,1035.0313 580.5469,1035.25 Q580.2344,1035.7031 579.7031,1035.7031 Q579.1563,1035.7031 578.8438,1035.2344 Q578.7031,1035 578.7031,1034.2188 L576.9531,1034.2188 Z " fill="#000000"/><text fill="#000000" font-family="sans-serif" font-size="20" font-style="italic" lengthAdjust="spacing" textLength="71" x="608" y="1028.7617">«Entity»</text><text fill="#000000" font-family="sans-serif" font-size="20" lengthAdjust="spacing" textLength="99" x="594" y="1053.918">BoardEntry</text><line style="stroke:#1E90FF;stroke-width:0.5;" x1="564" x2="695" y1="1063.3125" y2="1063.3125"/></g><!--class BoardPermissions--><g id="elem_BoardPermissions"><rect codeLine="108" fill="#D8F5FF" height="68.3125" id="BoardPermissions" rx="2.5" ry="2.5" style="stroke:#1E90FF;stroke-width:0.5;" width="193" x="533" y="536"/><ellipse cx="549" cy="566.1563" fill="#ADD1B2" rx="12" ry="12" style="stroke:#181818;stroke-width:1.0;"/><path d="M546.9531,567.2188 L546.9531,570.1563 L552.0469,570.1563 L552.0469,569.0625 Q552.0469,568.3438 552.3281,568.0469 Q552.6094,567.7344 553.0625,567.7344 Q553.5,567.7344 553.7813,568.0469 Q554.0625,568.3438 554.0625,569.0625 L554.0625,572.1563 L544.625,572.1563 Q543.9063,572.1563 543.5938,571.875 Q543.2969,571.5938 543.2969,571.1563 Q543.2969,570.7031 543.6094,570.4375 Q543.9219,570.1563 544.625,570.1563 L544.9375,570.1563 L544.9375,562.3281 L544.625,562.3281 Q543.9063,562.3281 543.5938,562.0469 Q543.2969,561.7656 543.2969,561.3125 Q543.2969,560.8594 543.5938,560.5938 Q543.9063,560.3125 544.625,560.3125 L553.6094,560.3125 L553.6094,563.3594 Q553.6094,564.0781 553.3281,564.3906 Q553.0625,564.6875 552.625,564.6875 Q552.1719,564.6875 551.8906,564.3906 Q551.6094,564.0938 551.6094,563.3594 L551.6094,562.3281 L546.9531,562.3281 L546.9531,565.2188 L548.7031,565.2188 Q548.7031,564.4375 548.8438,564.2031 Q549.1563,563.7344 549.7031,563.7344 Q550.1563,563.7344 550.4219,564.0469 Q550.7031,564.3438 550.7031,565.0625 L550.7031,567.375 Q550.7031,568.0313 550.5469,568.25 Q550.2344,568.7031 549.7031,568.7031 Q549.1563,568.7031 548.8438,568.2344 Q548.7031,568 548.7031,567.2188 L546.9531,567.2188 Z " fill="#000000"/><text fill="#000000" font-family="sans-serif" font-size="20" font-style="italic" lengthAdjust="spacing" textLength="71" x="608" y="561.7617">«Entity»</text><text fill="#000000" font-family="sans-serif" font-size="20" lengthAdjust="spacing" textLength="159" x="564" y="586.918">BoardPermissions</text><line style="stroke:#1E90FF;stroke-width:0.5;" x1="534" x2="725" y1="596.3125" y2="596.3125"/></g><!--entity BoardTitle--><g id="elem_BoardTitle"><rect fill="#D8F5FF" height="56.3125" rx="2.5" ry="2.5" style="stroke:#1E90FF;stroke-width:0.5;" width="156" x="551.5" y="639"/><text fill="#000000" font-family="sans-serif" font-size="20" font-style="italic" lengthAdjust="spacing" textLength="136" x="561.5" y="662.7617">«Value Object»</text><text fill="#000000" font-family="sans-serif" font-size="20" lengthAdjust="spacing" textLength="90" x="584.5" y="687.918">BoardTitle</text></g><!--entity BoardMaxRow--><g id="elem_BoardMaxRow"><rect fill="#D8F5FF" height="56.3125" rx="2.5" ry="2.5" style="stroke:#1E90FF;stroke-width:0.5;" width="156" x="551.5" y="730"/><text fill="#000000" font-family="sans-serif" font-size="20" font-style="italic" lengthAdjust="spacing" textLength="136" x="561.5" y="753.7617">«Value Object»</text><text fill="#000000" font-family="sans-serif" font-size="20" lengthAdjust="spacing" textLength="130" x="564.5" y="778.918">BoardMaxRow</text></g><!--entity BoardMaxCol--><g id="elem_BoardMaxCol"><rect fill="#D8F5FF" height="56.3125" rx="2.5" ry="2.5" style="stroke:#1E90FF;stroke-width:0.5;" width="156" x="551.5" y="821"/><text fill="#000000" font-family="sans-serif" font-size="20" font-style="italic" lengthAdjust="spacing" textLength="136" x="561.5" y="844.7617">«Value Object»</text><text fill="#000000" font-family="sans-serif" font-size="20" lengthAdjust="spacing" textLength="119" x="570" y="869.918">BoardMaxCol</text></g><!--entity BoardState--><g id="elem_BoardState"><rect fill="#D8F5FF" height="56.3125" rx="2.5" ry="2.5" style="stroke:#1E90FF;stroke-width:0.5;" width="156" x="551.5" y="912"/><text fill="#000000" font-family="sans-serif" font-size="20" font-style="italic" lengthAdjust="spacing" textLength="136" x="561.5" y="935.7617">«Value Object»</text><text fill="#000000" font-family="sans-serif" font-size="20" lengthAdjust="spacing" textLength="100" x="579.5" y="960.918">BoardState</text></g><!--entity Title--><g id="elem_Title"><rect fill="#D8F5FF" height="56.3125" rx="2.5" ry="2.5" style="stroke:#1E90FF;stroke-width:0.5;" width="156" x="23" y="921"/><text fill="#000000" font-family="sans-serif" font-size="20" font-style="italic" lengthAdjust="spacing" textLength="136" x="33" y="944.7617">«Value Object»</text><text fill="#000000" font-family="sans-serif" font-size="20" lengthAdjust="spacing" textLength="37" x="82.5" y="969.918">Title</text></g><!--entity Number--><g id="elem_Number"><rect fill="#D8F5FF" height="56.3125" rx="2.5" ry="2.5" style="stroke:#1E90FF;stroke-width:0.5;" width="156" x="23" y="1012"/><text fill="#000000" font-family="sans-serif" font-size="20" font-style="italic" lengthAdjust="spacing" textLength="136" x="33" y="1035.7617">«Value Object»</text><text fill="#000000" font-family="sans-serif" font-size="20" lengthAdjust="spacing" textLength="68" x="67" y="1060.918">Number</text></g><!--entity BoardRow--><g id="elem_BoardRow"><rect fill="#D8F5FF" height="56.3125" rx="2.5" ry="2.5" style="stroke:#1E90FF;stroke-width:0.5;" width="156" x="254" y="1012"/><text fill="#000000" font-family="sans-serif" font-size="20" font-style="italic" lengthAdjust="spacing" textLength="136" x="264" y="1035.7617">«Value Object»</text><text fill="#000000" font-family="sans-serif" font-size="20" lengthAdjust="spacing" textLength="93" x="285.5" y="1060.918">BoardRow</text></g><!--entity BoardCol--><g id="elem_BoardCol"><rect fill="#D8F5FF" height="56.3125" rx="2.5" ry="2.5" style="stroke:#1E90FF;stroke-width:0.5;" width="156" x="254" y="921"/><text fill="#000000" font-family="sans-serif" font-size="20" font-style="italic" lengthAdjust="spacing" textLength="136" x="264" y="944.7617">«Value Object»</text><text fill="#000000" font-family="sans-serif" font-size="20" lengthAdjust="spacing" textLength="82" x="291" y="969.918">BoardCol</text></g><!--entity UpdateEventPostIt--><g id="elem_UpdateEventPostIt"><rect fill="#D8F5FF" height="56.3125" rx="2.5" ry="2.5" style="stroke:#1E90FF;stroke-width:0.5;" width="184" x="240" y="7"/><text fill="#000000" font-family="sans-serif" font-size="20" font-style="italic" lengthAdjust="spacing" textLength="72" x="296" y="30.7617">«Event»</text><text fill="#000000" font-family="sans-serif" font-size="20" lengthAdjust="spacing" textLength="164" x="250" y="55.918">UpdateEventPostIt</text></g><!--reverse link PostItContent to PostIt--><g id="link_PostItContent_PostIt"><path codeLine="40" d="M397.76,181.72 C406.68,186.32 415.63,191.16 424,196 C478.55,227.58 538.13,268.25 578.83,297.05 " fill="none" id="PostItContent-backto-PostIt" style="stroke:#1E90FF;stroke-width:1.0;"/><polygon fill="#1E90FF" points="392.82,179.19,398.9931,186.8642,397.2661,181.4774,402.6529,179.7504,392.82,179.19" style="stroke:#1E90FF;stroke-width:1.0;"/></g><!--reverse link PostItRow to PostIt--><g id="link_PostItRow_PostIt"><path codeLine="41" d="M415.28,267.34 C467.73,283.49 533.97,303.89 578.59,317.63 " fill="none" id="PostItRow-backto-PostIt" style="stroke:#1E90FF;stroke-width:1.0;"/><polygon fill="#1E90FF" points="410.25,265.79,417.6716,272.2646,415.028,267.2634,420.0291,264.6198,410.25,265.79" style="stroke:#1E90FF;stroke-width:1.0;"/></g><!--reverse link PostItCol to PostIt--><g id="link_PostItCol_PostIt"><path codeLine="42" d="M415.28,333 C467.73,333 533.97,333 578.59,333 " fill="none" id="PostItCol-backto-PostIt" style="stroke:#1E90FF;stroke-width:1.0;"/><polygon fill="#1E90FF" points="410.25,333,419.25,337,415.25,333,419.25,329,410.25,333" style="stroke:#1E90FF;stroke-width:1.0;"/></g><!--reverse link PostItTimeStamp to PostIt--><g id="link_PostItTimeStamp_PostIt"><path codeLine="43" d="M422.99,396.29 C474.1,380.55 536.17,361.43 578.63,348.36 " fill="none" id="PostItTimeStamp-backto-PostIt" style="stroke:#1E90FF;stroke-width:1.0;"/><polygon fill="#1E90FF" points="418.07,397.8,427.8491,398.9702,422.848,396.3266,425.4916,391.3254,418.07,397.8" style="stroke:#1E90FF;stroke-width:1.0;"/></g><!--reverse link ShortName to User--><g id="link_ShortName_User"><path codeLine="57" d="M1058.43,1189.46 C1095.07,1192.33 1137.01,1195.61 1168.76,1198.1 " fill="none" id="ShortName-backto-User" style="stroke:#1E90FF;stroke-width:1.0;"/><polygon fill="#1E90FF" points="1053.06,1189.04,1061.7247,1193.7223,1058.0451,1189.4257,1062.3417,1185.7461,1053.06,1189.04" style="stroke:#1E90FF;stroke-width:1.0;"/></g><!--reverse link Email to User--><g id="link_Email_User"><path codeLine="58" d="M1057.98,1249.66 C1094.73,1238.75 1136.88,1226.23 1168.76,1216.77 " fill="none" id="Email-backto-User" style="stroke:#1E90FF;stroke-width:1.0;"/><polygon fill="#1E90FF" points="1053.06,1251.12,1062.8246,1252.4053,1057.855,1249.703,1060.5574,1244.7333,1053.06,1251.12" style="stroke:#1E90FF;stroke-width:1.0;"/></g><!--reverse link UpdateEventPostIt to User--><g id="link_UpdateEventPostIt_User"><path codeLine="59" d="M429.42,39.71 C511.43,46.7 630.71,64.03 726,107 C894.51,182.99 947.47,212.24 1053,364 C1144.17,495.11 1199.08,998.75 1214.21,1155.29 " fill="none" id="UpdateEventPostIt-backto-User" style="stroke:#1E90FF;stroke-width:1.0;"/><polygon fill="#1E90FF" points="424.08,39.27,432.7179,44.0015,429.0628,39.684,433.3803,36.029,424.08,39.27" style="stroke:#1E90FF;stroke-width:1.0;"/><text fill="#000000" font-family="sans-serif" font-size="20" lengthAdjust="spacing" textLength="107" x="757" y="117.7617">interested in</text></g><!--reverse link BoardTitle to Board--><g id="link_BoardTitle_Board"><path codeLine="85" d="M705.99,696.89 C772.41,723.18 867.19,760.71 924.43,783.37 " fill="none" id="BoardTitle-backto-Board" style="stroke:#1E90FF;stroke-width:1.0;"/><polygon fill="#1E90FF" points="701.26,695.01,708.1494,702.0482,705.9073,696.8546,711.1008,694.6125,701.26,695.01" style="stroke:#1E90FF;stroke-width:1.0;"/></g><!--reverse link BoardMaxRow to Board--><g id="link_BoardMaxRow_Board"><path codeLine="86" d="M712.69,768.77 C778.58,777.4 868.9,789.23 924.25,796.48 " fill="none" id="BoardMaxRow-backto-Board" style="stroke:#1E90FF;stroke-width:1.0;"/><polygon fill="#1E90FF" points="707.59,768.1,716.0008,773.2242,712.5485,768.743,717.0297,765.2907,707.59,768.1" style="stroke:#1E90FF;stroke-width:1.0;"/></g><!--reverse link BoardMaxCol to Board--><g id="link_BoardMaxCol_Board"><path codeLine="87" d="M712.69,837.99 C778.58,829.17 868.9,817.07 924.25,809.66 " fill="none" id="BoardMaxCol-backto-Board" style="stroke:#1E90FF;stroke-width:1.0;"/><polygon fill="#1E90FF" points="707.59,838.68,717.0454,841.4358,712.5448,838.0089,715.9717,833.5082,707.59,838.68" style="stroke:#1E90FF;stroke-width:1.0;"/></g><!--reverse link BoardState to Board--><g id="link_BoardState_Board"><path codeLine="88" d="M705.57,910.06 C771.96,883.58 866.93,845.7 924.31,822.82 " fill="none" id="BoardState-backto-Board" style="stroke:#1E90FF;stroke-width:1.0;"/><polygon fill="#1E90FF" points="700.84,911.95,710.6808,912.3475,705.4873,910.1054,707.7294,904.9118,700.84,911.95" style="stroke:#1E90FF;stroke-width:1.0;"/></g><!--reverse link BoardEntry to Board--><g id="link_BoardEntry_Board"><path codeLine="99" d="M699.02,1000.45 C708.15,995.36 717.34,990.12 726,985 C789.14,947.66 806.07,939.69 865,896 C885.08,881.11 906.2,863.58 924.44,847.78 " fill="none" id="BoardEntry-backto-Board" style="stroke:#1E90FF;stroke-width:1.0;"/><polygon fill="#1E90FF" points="694.55,1002.94,704.36,1002.0658,698.9208,1000.5118,700.4748,995.0726,694.55,1002.94" style="stroke:#1E90FF;stroke-width:1.0;"/></g><!--reverse link BoardRow to BoardEntry--><g id="link_BoardRow_BoardEntry"><path codeLine="100" d="M415.29,1039.16 C461.82,1038.69 519.2,1038.11 562.71,1037.67 " fill="none" id="BoardRow-backto-BoardEntry" style="stroke:#1E90FF;stroke-width:1.0;"/><polygon fill="#1E90FF" points="410.25,1039.22,419.284,1043.1427,415.2498,1039.1771,419.2154,1035.143,410.25,1039.22" style="stroke:#1E90FF;stroke-width:1.0;"/></g><!--reverse link BoardCol to BoardEntry--><g id="link_BoardCol_BoardEntry"><path codeLine="101" d="M415.29,973.51 C461.82,987.36 519.2,1004.45 562.71,1017.41 " fill="none" id="BoardCol-backto-BoardEntry" style="stroke:#1E90FF;stroke-width:1.0;"/><polygon fill="#1E90FF" points="410.25,972.01,417.7474,978.3967,415.045,973.427,420.0146,970.7247,410.25,972.01" style="stroke:#1E90FF;stroke-width:1.0;"/></g><!--reverse link Number to BoardRow--><g id="link_Number_BoardRow"><path d="M184.31,1040 C206.94,1040 231.4,1040 253.74,1040 " fill="none" id="Number-backto-BoardRow" style="stroke:#1E90FF;stroke-width:1.0;"/><polygon fill="#1E90FF" points="179.21,1040,188.21,1044,184.21,1040,188.21,1036,179.21,1040" style="stroke:#1E90FF;stroke-width:1.0;"/></g><!--reverse link Title to BoardCol--><g id="link_Title_BoardCol"><path d="M184.31,949 C206.94,949 231.4,949 253.74,949 " fill="none" id="Title-backto-BoardCol" style="stroke:#1E90FF;stroke-width:1.0;"/><polygon fill="#1E90FF" points="179.21,949,188.21,953,184.21,949,188.21,945,179.21,949" style="stroke:#1E90FF;stroke-width:1.0;"/></g><!--reverse link Number to BoardCol--><g id="link_Number_BoardCol"><path d="M177.51,1009.99 C204.17,999.4 234.02,987.54 260.26,977.11 " fill="none" id="Number-backto-BoardCol" style="stroke:#1E90FF;stroke-width:1.0;"/><polygon fill="#1E90FF" points="172.58,1011.95,182.4208,1012.3475,177.2273,1010.1054,179.4694,1004.9118,172.58,1011.95" style="stroke:#1E90FF;stroke-width:1.0;"/></g><!--reverse link Title to BoardRow--><g id="link_Title_BoardRow"><path d="M177.51,979.01 C204.17,989.6 234.02,1001.46 260.26,1011.89 " fill="none" id="Title-backto-BoardRow" style="stroke:#1E90FF;stroke-width:1.0;"/><polygon fill="#1E90FF" points="172.58,977.05,179.4694,984.0882,177.2273,978.8946,182.4208,976.6525,172.58,977.05" style="stroke:#1E90FF;stroke-width:1.0;"/></g><!--reverse link BoardPermissions to Board--><g id="link_BoardPermissions_Board"><path codeLine="110" d="M701.8,606.63 C710.06,611.29 718.28,616.14 726,621 C797.41,665.95 875.14,724.74 924.19,763.17 " fill="none" id="BoardPermissions-backto-Board" style="stroke:#1E90FF;stroke-width:1.0;"/><polygon fill="#1E90FF" points="697.21,604.05,703.1042,611.9404,701.5713,606.4952,707.0165,604.9623,697.21,604.05" style="stroke:#1E90FF;stroke-width:1.0;"/></g><!--link PostIt to User--><g id="link_PostIt_User"><path codeLine="116" d="M680.08,340.43 C768.9,356.45 955.02,402.74 1053,520 C1134.38,617.38 1192.91,1007.89 1211.88,1149.98 " fill="none" id="PostIt-to-User" style="stroke:#1E90FF;stroke-width:1.0;"/><polygon fill="#1E90FF" points="1212.6,1155.33,1215.3826,1145.8824,1211.9429,1150.3734,1207.452,1146.9337,1212.6,1155.33" style="stroke:#1E90FF;stroke-width:1.0;"/><text fill="#000000" font-family="sans-serif" font-size="20" lengthAdjust="spacing" textLength="54" x="948" y="393.7617">owner</text><text fill="#000000" font-family="sans-serif" font-size="20" lengthAdjust="spacing" textLength="11" x="1199.9338" y="1143.1198">1</text></g><!--link Board to User--><g id="link_Board_User"><path codeLine="117" d="M1004.29,849.55 C1050.05,924.83 1139.93,1072.73 1187.41,1150.85 " fill="none" id="Board-to-User" style="stroke:#1E90FF;stroke-width:1.0;"/><polygon fill="#1E90FF" points="1190.2,1155.44,1188.9611,1145.6694,1187.6107,1151.1627,1182.1174,1149.8122,1190.2,1155.44" style="stroke:#1E90FF;stroke-width:1.0;"/><text fill="#000000" font-family="sans-serif" font-size="20" lengthAdjust="spacing" textLength="54" x="1084" y="985.7617">owner</text><text fill="#000000" font-family="sans-serif" font-size="20" lengthAdjust="spacing" textLength="11" x="1174.5238" y="1143.2445">1</text></g><!--link PostIt to Board--><g id="link_PostIt_Board"><path codeLine="118" d="M664.69,379.78 C729.51,468.47 869.74,660.35 936.81,752.11 " fill="none" id="PostIt-to-Board" style="stroke:#1E90FF;stroke-width:1.0;"/><polygon fill="#1E90FF" points="939.95,756.41,937.8874,746.7796,937.0074,752.3676,931.4194,751.4876,939.95,756.41" style="stroke:#1E90FF;stroke-width:1.0;"/><text fill="#000000" font-family="sans-serif" font-size="20" lengthAdjust="spacing" textLength="68" x="776.5" y="507.7617">belongs</text><text fill="#000000" font-family="sans-serif" font-size="20" lengthAdjust="spacing" textLength="11" x="923.5011" y="744.2105">1</text></g><!--reverse link UpdateEventPostIt to PostIt--><g id="link_UpdateEventPostIt_PostIt"><path codeLine="126" d="M375.31,66.13 C391.07,78.33 408.81,92.79 424,107 C486.01,165.03 550.65,239.13 590.24,286.34 " fill="none" id="UpdateEventPostIt-backto-PostIt" style="stroke:#1E90FF;stroke-width:1.0;"/><polygon fill="#1E90FF" points="371.35,63.08,376.0418,71.7395,375.3121,66.1299,380.9217,65.4002,371.35,63.08" style="stroke:#1E90FF;stroke-width:1.0;"/><text fill="#000000" font-family="sans-serif" font-size="20" lengthAdjust="spacing" textLength="47" x="455" y="136.7617">notify</text></g><!--SRC=[pLN1Zjem4BtxAwpjeIUaxKgLAeGY0GiI4cNHmlPkaY6uE3QoXr9QxRztuYGGWfTDRyi9-psFttlZ0RULUYUio9I9jv3m1DPYht1iD2xa7-0Fzqp16ZaQRcMwGPv82p5AendRo0Hu1hWnYMFCLPLuh8HpVKGhLtk4IMoqBtL_nU5_6QVFLAvXAZKCZ4t03eqobZ-Q90KxK7kuf8Xucrgprqb1wy_dqycmlvmypJolYNzw_3R-EXvxh6-jEGIhlt7nQrtmZYgB51PuLC3p28HE5TGT2PjyV4EV-Tmud20h_PJBVffQI0L2OG0qIZoM6E_rHduTHRsUDGQZY7cMTrnmXlHUw11HVmYwYJ-jVb94KLIKUxtYFvj3QoxPQCrToenQ9BBTxHCDqPrEbSePz0f3W9SJ0cftds6wa39_SM1FYUUBSDuvSZljnSPOd8aCMYGooeHy9xbQEPBiLURRvSdwriik8RMZNwIqUXKbpBkIOhJWa7u-f2uT3mn9E5dsgx1d3uLCvvop6KzRIbHjd7loT_6xtIkhsEtUcMTJcx6DaBQ2P_jivLj_WrXFWA8l0Zu1bTiWKZtP1bAwE05NRQ6Us6EjDs-ayHynlvjn_TvhnHSMFUkCNPWyOrMq5K8b_7uZIJeTf5Vx3NfUvJglETXCEaT_ZgwMMitO1U5aBvyO6fbdK2B_OtMidB1E9-9tN-xAAJC7JRDOZ4i8QHmgYDqLAADJLzpWnzSntux0GFVyAcy8AGeFVFcrgmtAzP6nVm00]--></g></svg>