<?xml version="1.0" encoding="us-ascii" standalone="no"?><svg xmlns="http://www.w3.org/2000/svg" xmlns:xlink="http://www.w3.org/1999/xlink" contentStyleType="text/css" height="940px" preserveAspectRatio="none" style="width:1561px;height:940px;background:#FFFFFF;" version="1.1" viewBox="0 0 1561 940" width="1561px" zoomAndPan="magnify"><defs/><g><rect fill="#FFFFFF" height="701.4023" style="stroke:#181818;stroke-width:1.0;" width="10" x="166.5" y="121.5332"/><rect fill="#FFFFFF" height="544.9473" style="stroke:#181818;stroke-width:1.0;" width="10" x="396.5" y="246.6973"/><rect fill="#FFFFFF" height="482.3652" style="stroke:#181818;stroke-width:1.0;" width="10" x="651.5" y="277.9883"/><rect fill="#FFFFFF" height="62.582" style="stroke:#181818;stroke-width:1.0;" width="10" x="818.5" y="541.3164"/><rect fill="#FFFFFF" height="200.7461" style="stroke:#181818;stroke-width:1.0;" width="10" x="943" y="309.2793"/><rect fill="#FFFFFF" height="75.582" style="stroke:#181818;stroke-width:1.0;" width="10" x="1121" y="403.1523"/><rect fill="#FFFFFF" height="31.291" style="stroke:#181818;stroke-width:1.0;" width="10" x="1371" y="635.1895"/><rect fill="#FFFFFF" height="31.291" style="stroke:#181818;stroke-width:1.0;" width="10" x="1500.5" y="697.7715"/><line style="stroke:#181818;stroke-width:0.5;stroke-dasharray:5.0,5.0;" x1="34" x2="34" y1="88.2422" y2="840.9355"/><line style="stroke:#181818;stroke-width:0.5;stroke-dasharray:5.0,5.0;" x1="171.5" x2="171.5" y1="88.2422" y2="840.9355"/><line style="stroke:#181818;stroke-width:0.5;stroke-dasharray:5.0,5.0;" x1="401.5" x2="401.5" y1="88.2422" y2="840.9355"/><line style="stroke:#181818;stroke-width:0.5;stroke-dasharray:5.0,5.0;" x1="656.5" x2="656.5" y1="88.2422" y2="840.9355"/><line style="stroke:#181818;stroke-width:0.5;stroke-dasharray:5.0,5.0;" x1="823.5" x2="823.5" y1="88.2422" y2="840.9355"/><line style="stroke:#181818;stroke-width:0.5;stroke-dasharray:5.0,5.0;" x1="947.5" x2="947.5" y1="88.2422" y2="840.9355"/><line style="stroke:#181818;stroke-width:0.5;stroke-dasharray:5.0,5.0;" x1="1125.5" x2="1125.5" y1="88.2422" y2="840.9355"/><line style="stroke:#181818;stroke-width:0.5;stroke-dasharray:5.0,5.0;" x1="1376" x2="1376" y1="88.2422" y2="840.9355"/><line style="stroke:#181818;stroke-width:0.5;stroke-dasharray:5.0,5.0;" x1="1505" x2="1505" y1="88.2422" y2="840.9355"/><text fill="#000000" font-family="FG Virgil" font-size="14" lengthAdjust="spacing" textLength="53" x="5" y="84.7285">Teacher</text><ellipse cx="34.5" cy="18.1211" fill="#E3E3E3" rx="8" ry="8" style="stroke:#181818;stroke-width:0.5;"/><path d="M34.5,26.1211 L34.5,53.1211 M21.5,34.1211 L47.5,34.1211 M34.5,53.1211 L21.5,68.1211 M34.5,53.1211 L47.5,68.1211 " fill="none" style="stroke:#181818;stroke-width:0.5;"/><text fill="#000000" font-family="FG Virgil" font-size="14" lengthAdjust="spacing" textLength="53" x="5" y="855.043">Teacher</text><ellipse cx="34.5" cy="867.0566" fill="#E3E3E3" rx="8" ry="8" style="stroke:#181818;stroke-width:0.5;"/><path d="M34.5,875.0566 L34.5,902.0566 M21.5,883.0566 L47.5,883.0566 M34.5,902.0566 L21.5,917.0566 M34.5,902.0566 L47.5,917.0566 " fill="none" style="stroke:#181818;stroke-width:0.5;"/><rect fill="#E3E3E3" height="51.2422" rx="2.5" ry="2.5" style="stroke:#181818;stroke-width:0.5;" width="120" x="111.5" y="36"/><text fill="#000000" font-family="FG Virgil" font-size="14" font-style="italic" lengthAdjust="spacing" textLength="95" x="124" y="58.1074">&#171;presentation&#187;</text><text fill="#000000" font-family="FG Virgil" font-size="14" lengthAdjust="spacing" textLength="106" x="118.5" y="76.7285">ScheduleClassUI</text><rect fill="#E3E3E3" height="51.2422" rx="2.5" ry="2.5" style="stroke:#181818;stroke-width:0.5;" width="120" x="111.5" y="839.9355"/><text fill="#000000" font-family="FG Virgil" font-size="14" font-style="italic" lengthAdjust="spacing" textLength="95" x="124" y="862.043">&#171;presentation&#187;</text><text fill="#000000" font-family="FG Virgil" font-size="14" lengthAdjust="spacing" textLength="106" x="118.5" y="880.6641">ScheduleClassUI</text><rect fill="#E3E3E3" height="51.2422" rx="2.5" ry="2.5" style="stroke:#181818;stroke-width:0.5;" width="170" x="316.5" y="36"/><text fill="#000000" font-family="FG Virgil" font-size="14" font-style="italic" lengthAdjust="spacing" textLength="84" x="359.5" y="58.1074">&#171;application&#187;</text><text fill="#000000" font-family="FG Virgil" font-size="14" lengthAdjust="spacing" textLength="156" x="323.5" y="76.7285">ScheduleClassController</text><rect fill="#E3E3E3" height="51.2422" rx="2.5" ry="2.5" style="stroke:#181818;stroke-width:0.5;" width="170" x="316.5" y="839.9355"/><text fill="#000000" font-family="FG Virgil" font-size="14" font-style="italic" lengthAdjust="spacing" textLength="84" x="359.5" y="862.043">&#171;application&#187;</text><text fill="#000000" font-family="FG Virgil" font-size="14" lengthAdjust="spacing" textLength="156" x="323.5" y="880.6641">ScheduleClassController</text><rect fill="#E3E3E3" height="51.2422" rx="2.5" ry="2.5" style="stroke:#181818;stroke-width:0.5;" width="178" x="567.5" y="36"/><text fill="#000000" font-family="FG Virgil" font-size="14" font-style="italic" lengthAdjust="spacing" textLength="60" x="626.5" y="58.1074">&#171;service&#187;</text><text fill="#000000" font-family="FG Virgil" font-size="14" lengthAdjust="spacing" textLength="164" x="574.5" y="76.7285">ClassManagementService</text><rect fill="#E3E3E3" height="51.2422" rx="2.5" ry="2.5" style="stroke:#181818;stroke-width:0.5;" width="178" x="567.5" y="839.9355"/><text fill="#000000" font-family="FG Virgil" font-size="14" font-style="italic" lengthAdjust="spacing" textLength="60" x="626.5" y="862.043">&#171;service&#187;</text><text fill="#000000" font-family="FG Virgil" font-size="14" lengthAdjust="spacing" textLength="164" x="574.5" y="880.6641">ClassManagementService</text><rect fill="#E3E3E3" height="51.2422" rx="2.5" ry="2.5" style="stroke:#181818;stroke-width:0.5;" width="136" x="755.5" y="36"/><text fill="#000000" font-family="FG Virgil" font-size="14" font-style="italic" lengthAdjust="spacing" textLength="89" x="779" y="58.1074">&#171;persistence&#187;</text><text fill="#000000" font-family="FG Virgil" font-size="14" lengthAdjust="spacing" textLength="122" x="762.5" y="76.7285">PersistenceContext</text><rect fill="#E3E3E3" height="51.2422" rx="2.5" ry="2.5" style="stroke:#181818;stroke-width:0.5;" width="136" x="755.5" y="839.9355"/><text fill="#000000" font-family="FG Virgil" font-size="14" font-style="italic" lengthAdjust="spacing" textLength="89" x="779" y="862.043">&#171;persistence&#187;</text><text fill="#000000" font-family="FG Virgil" font-size="14" lengthAdjust="spacing" textLength="122" x="762.5" y="880.6641">PersistenceContext</text><rect fill="#E3E3E3" height="51.2422" rx="2.5" ry="2.5" style="stroke:#181818;stroke-width:0.5;" width="93" x="901.5" y="36"/><text fill="#000000" font-family="FG Virgil" font-size="14" font-style="italic" lengthAdjust="spacing" textLength="59" x="918.5" y="58.1074">&#171;builder&#187;</text><text fill="#000000" font-family="FG Virgil" font-size="14" lengthAdjust="spacing" textLength="79" x="908.5" y="76.7285">ClassBuilder</text><rect fill="#E3E3E3" height="51.2422" rx="2.5" ry="2.5" style="stroke:#181818;stroke-width:0.5;" width="93" x="901.5" y="839.9355"/><text fill="#000000" font-family="FG Virgil" font-size="14" font-style="italic" lengthAdjust="spacing" textLength="59" x="918.5" y="862.043">&#171;builder&#187;</text><text fill="#000000" font-family="FG Virgil" font-size="14" lengthAdjust="spacing" textLength="79" x="908.5" y="880.6641">ClassBuilder</text><rect fill="#E3E3E3" height="51.2422" rx="2.5" ry="2.5" style="stroke:#181818;stroke-width:0.5;" width="85" x="1083.5" y="36"/><text fill="#000000" font-family="FG Virgil" font-size="14" font-style="italic" lengthAdjust="spacing" textLength="62" x="1095" y="58.1074">&#171;domain&#187;</text><text fill="#000000" font-family="FG Virgil" font-size="14" lengthAdjust="spacing" textLength="71" x="1090.5" y="76.7285">class:Class</text><rect fill="#E3E3E3" height="51.2422" rx="2.5" ry="2.5" style="stroke:#181818;stroke-width:0.5;" width="85" x="1083.5" y="839.9355"/><text fill="#000000" font-family="FG Virgil" font-size="14" font-style="italic" lengthAdjust="spacing" textLength="62" x="1095" y="862.043">&#171;domain&#187;</text><text fill="#000000" font-family="FG Virgil" font-size="14" lengthAdjust="spacing" textLength="71" x="1090.5" y="880.6641">class:Class</text><rect fill="#E3E3E3" height="51.2422" rx="2.5" ry="2.5" style="stroke:#181818;stroke-width:0.5;" width="130" x="1311" y="36"/><text fill="#000000" font-family="FG Virgil" font-size="14" font-style="italic" lengthAdjust="spacing" textLength="59" x="1346.5" y="58.1074">&#171;factory&#187;</text><text fill="#000000" font-family="FG Virgil" font-size="14" lengthAdjust="spacing" textLength="116" x="1318" y="76.7285">RepositoryFactory</text><rect fill="#E3E3E3" height="51.2422" rx="2.5" ry="2.5" style="stroke:#181818;stroke-width:0.5;" width="130" x="1311" y="839.9355"/><text fill="#000000" font-family="FG Virgil" font-size="14" font-style="italic" lengthAdjust="spacing" textLength="59" x="1346.5" y="862.043">&#171;factory&#187;</text><text fill="#000000" font-family="FG Virgil" font-size="14" lengthAdjust="spacing" textLength="116" x="1318" y="880.6641">RepositoryFactory</text><text fill="#000000" font-family="FG Virgil" font-size="14" font-style="italic" lengthAdjust="spacing" textLength="79" x="1463" y="66.1074">&#171;repository&#187;</text><text fill="#000000" font-family="FG Virgil" font-size="14" lengthAdjust="spacing" textLength="103" x="1451" y="84.7285">ClassRepository</text><path d="M1487.5,15 C1487.5,5 1505.5,5 1505.5,5 C1505.5,5 1523.5,5 1523.5,15 L1523.5,41 C1523.5,51 1505.5,51 1505.5,51 C1505.5,51 1487.5,51 1487.5,41 L1487.5,15 " fill="#E3E3E3" style="stroke:#181818;stroke-width:1.5;"/><path d="M1487.5,15 C1487.5,25 1505.5,25 1505.5,25 C1505.5,25 1523.5,25 1523.5,15 " fill="none" style="stroke:#181818;stroke-width:1.5;"/><text fill="#000000" font-family="FG Virgil" font-size="14" font-style="italic" lengthAdjust="spacing" textLength="79" x="1463" y="855.043">&#171;repository&#187;</text><text fill="#000000" font-family="FG Virgil" font-size="14" lengthAdjust="spacing" textLength="103" x="1451" y="873.6641">ClassRepository</text><path d="M1487.5,887.1777 C1487.5,877.1777 1505.5,877.1777 1505.5,877.1777 C1505.5,877.1777 1523.5,877.1777 1523.5,887.1777 L1523.5,913.1777 C1523.5,923.1777 1505.5,923.1777 1505.5,923.1777 C1505.5,923.1777 1487.5,923.1777 1487.5,913.1777 L1487.5,887.1777 " fill="#E3E3E3" style="stroke:#181818;stroke-width:1.5;"/><path d="M1487.5,887.1777 C1487.5,897.1777 1505.5,897.1777 1505.5,897.1777 C1505.5,897.1777 1523.5,897.1777 1523.5,887.1777 " fill="none" style="stroke:#181818;stroke-width:1.5;"/><rect fill="#FFFFFF" height="701.4023" style="stroke:#181818;stroke-width:1.0;" width="10" x="166.5" y="121.5332"/><rect fill="#FFFFFF" height="544.9473" style="stroke:#181818;stroke-width:1.0;" width="10" x="396.5" y="246.6973"/><rect fill="#FFFFFF" height="482.3652" style="stroke:#181818;stroke-width:1.0;" width="10" x="651.5" y="277.9883"/><rect fill="#FFFFFF" height="62.582" style="stroke:#181818;stroke-width:1.0;" width="10" x="818.5" y="541.3164"/><rect fill="#FFFFFF" height="200.7461" style="stroke:#181818;stroke-width:1.0;" width="10" x="943" y="309.2793"/><rect fill="#FFFFFF" height="75.582" style="stroke:#181818;stroke-width:1.0;" width="10" x="1121" y="403.1523"/><rect fill="#FFFFFF" height="31.291" style="stroke:#181818;stroke-width:1.0;" width="10" x="1371" y="635.1895"/><rect fill="#FFFFFF" height="31.291" style="stroke:#181818;stroke-width:1.0;" width="10" x="1500.5" y="697.7715"/><polygon fill="#181818" points="154.5,117.5332,164.5,121.5332,154.5,125.5332,158.5,121.5332" style="stroke:#181818;stroke-width:1.0;"/><line style="stroke:#181818;stroke-width:1.0;stroke-dasharray:2.0,2.0;" x1="34.5" x2="160.5" y1="121.5332" y2="121.5332"/><text fill="#000000" font-family="FG Virgil" font-size="13" lengthAdjust="spacing" textLength="87" x="41.5" y="116.2705">schedule class</text><polygon fill="#181818" points="389.5,148.8242,399.5,152.8242,389.5,156.8242,393.5,152.8242" style="stroke:#181818;stroke-width:1.0;"/><line style="stroke:#181818;stroke-width:1.0;" x1="176.5" x2="395.5" y1="152.8242" y2="152.8242"/><text fill="#000000" font-family="FG Virgil" font-size="13" lengthAdjust="spacing" textLength="44" x="183.5" y="147.5615">create()</text><polygon fill="#181818" points="45.5,180.1152,35.5,184.1152,45.5,188.1152,41.5,184.1152" style="stroke:#181818;stroke-width:1.0;"/><line style="stroke:#181818;stroke-width:1.0;" x1="39.5" x2="165.5" y1="184.1152" y2="184.1152"/><text fill="#000000" font-family="FG Virgil" font-size="13" lengthAdjust="spacing" textLength="98" x="51.5" y="178.8525">ask class details</text><polygon fill="#181818" points="154.5,211.4063,164.5,215.4063,154.5,219.4063,158.5,215.4063" style="stroke:#181818;stroke-width:1.0;"/><line style="stroke:#181818;stroke-width:1.0;" x1="34.5" x2="160.5" y1="215.4063" y2="215.4063"/><text fill="#000000" font-family="FG Virgil" font-size="13" lengthAdjust="spacing" textLength="108" x="41.5" y="210.1436">title, date, duration</text><polygon fill="#181818" points="384.5,242.6973,394.5,246.6973,384.5,250.6973,388.5,246.6973" style="stroke:#181818;stroke-width:1.0;"/><line style="stroke:#181818;stroke-width:1.0;" x1="176.5" x2="390.5" y1="246.6973" y2="246.6973"/><text fill="#000000" font-family="FG Virgil" font-size="13" lengthAdjust="spacing" textLength="201" x="183.5" y="241.4346">scheduleClass(title, date, duration)</text><polygon fill="#181818" points="639.5,273.9883,649.5,277.9883,639.5,281.9883,643.5,277.9883" style="stroke:#181818;stroke-width:1.0;"/><line style="stroke:#181818;stroke-width:1.0;" x1="406.5" x2="645.5" y1="277.9883" y2="277.9883"/><text fill="#000000" font-family="FG Virgil" font-size="13" lengthAdjust="spacing" textLength="226" x="413.5" y="272.7256">scheduleNewClass(title, date, duration)</text><polygon fill="#181818" points="931,305.2793,941,309.2793,931,313.2793,935,309.2793" style="stroke:#181818;stroke-width:1.0;"/><line style="stroke:#181818;stroke-width:1.0;" x1="661.5" x2="937" y1="309.2793" y2="309.2793"/><text fill="#000000" font-family="FG Virgil" font-size="13" lengthAdjust="spacing" textLength="44" x="668.5" y="304.0166">create()</text><polygon fill="#181818" points="931,336.5703,941,340.5703,931,344.5703,935,340.5703" style="stroke:#181818;stroke-width:1.0;"/><line style="stroke:#181818;stroke-width:1.0;" x1="661.5" x2="937" y1="340.5703" y2="340.5703"/><text fill="#000000" font-family="FG Virgil" font-size="13" lengthAdjust="spacing" textLength="139" x="668.5" y="335.3076">with(title, date, duration)</text><polygon fill="#181818" points="931,367.8613,941,371.8613,931,375.8613,935,371.8613" style="stroke:#181818;stroke-width:1.0;"/><line style="stroke:#181818;stroke-width:1.0;" x1="661.5" x2="937" y1="371.8613" y2="371.8613"/><text fill="#000000" font-family="FG Virgil" font-size="13" lengthAdjust="spacing" textLength="35" x="668.5" y="366.5986">build()</text><polygon fill="#181818" points="1109,399.1523,1119,403.1523,1109,407.1523,1113,403.1523" style="stroke:#181818;stroke-width:1.0;"/><line style="stroke:#181818;stroke-width:1.0;" x1="953" x2="1115" y1="403.1523" y2="403.1523"/><text fill="#000000" font-family="FG Virgil" font-size="13" lengthAdjust="spacing" textLength="149" x="960" y="397.8896">Class(title, date, duration)</text><line style="stroke:#181818;stroke-width:1.0;" x1="1131" x2="1173" y1="434.4434" y2="434.4434"/><line style="stroke:#181818;stroke-width:1.0;" x1="1173" x2="1173" y1="434.4434" y2="447.4434"/><line style="stroke:#181818;stroke-width:1.0;" x1="1132" x2="1173" y1="447.4434" y2="447.4434"/><polygon fill="#181818" points="1142,443.4434,1132,447.4434,1142,451.4434,1138,447.4434" style="stroke:#181818;stroke-width:1.0;"/><text fill="#000000" font-family="FG Virgil" font-size="13" lengthAdjust="spacing" textLength="226" x="1138" y="429.1807">validateParameters(title, date, duration)</text><polygon fill="#181818" points="964,474.7344,954,478.7344,964,482.7344,960,478.7344" style="stroke:#181818;stroke-width:1.0;"/><line style="stroke:#181818;stroke-width:1.0;" x1="958" x2="1125" y1="478.7344" y2="478.7344"/><text fill="#000000" font-family="FG Virgil" font-size="13" lengthAdjust="spacing" textLength="31" x="970" y="473.4717">class</text><polygon fill="#181818" points="672.5,506.0254,662.5,510.0254,672.5,514.0254,668.5,510.0254" style="stroke:#181818;stroke-width:1.0;"/><line style="stroke:#181818;stroke-width:1.0;" x1="666.5" x2="947" y1="510.0254" y2="510.0254"/><text fill="#000000" font-family="FG Virgil" font-size="13" lengthAdjust="spacing" textLength="31" x="678.5" y="504.7627">class</text><polygon fill="#181818" points="806.5,537.3164,816.5,541.3164,806.5,545.3164,810.5,541.3164" style="stroke:#181818;stroke-width:1.0;"/><line style="stroke:#181818;stroke-width:1.0;" x1="661.5" x2="812.5" y1="541.3164" y2="541.3164"/><text fill="#000000" font-family="FG Virgil" font-size="13" lengthAdjust="spacing" textLength="75" x="668.5" y="536.0537">repositories()</text><polygon fill="#181818" points="1364,568.6074,1374,572.6074,1364,576.6074,1368,572.6074" style="stroke:#181818;stroke-width:1.0;"/><line style="stroke:#181818;stroke-width:1.0;" x1="828.5" x2="1370" y1="572.6074" y2="572.6074"/><text fill="#000000" font-family="FG Virgil" font-size="13" lengthAdjust="spacing" textLength="44" x="835.5" y="567.3447">create()</text><polygon fill="#181818" points="672.5,599.8984,662.5,603.8984,672.5,607.8984,668.5,603.8984" style="stroke:#181818;stroke-width:1.0;"/><line style="stroke:#181818;stroke-width:1.0;" x1="666.5" x2="822.5" y1="603.8984" y2="603.8984"/><text fill="#000000" font-family="FG Virgil" font-size="13" lengthAdjust="spacing" textLength="39" x="678.5" y="598.6357">factory</text><polygon fill="#181818" points="1493.5,631.1895,1503.5,635.1895,1493.5,639.1895,1497.5,635.1895" style="stroke:#181818;stroke-width:1.0;"/><line style="stroke:#181818;stroke-width:1.0;" x1="1381" x2="1499.5" y1="635.1895" y2="635.1895"/><text fill="#000000" font-family="FG Virgil" font-size="13" lengthAdjust="spacing" textLength="44" x="1388" y="629.9268">create()</text><polygon fill="#181818" points="672.5,662.4805,662.5,666.4805,672.5,670.4805,668.5,666.4805" style="stroke:#181818;stroke-width:1.0;"/><line style="stroke:#181818;stroke-width:1.0;" x1="666.5" x2="1375" y1="666.4805" y2="666.4805"/><text fill="#000000" font-family="FG Virgil" font-size="13" lengthAdjust="spacing" textLength="93" x="678.5" y="661.2178">classRepository</text><polygon fill="#181818" points="1488.5,693.7715,1498.5,697.7715,1488.5,701.7715,1492.5,697.7715" style="stroke:#181818;stroke-width:1.0;"/><line style="stroke:#181818;stroke-width:1.0;" x1="661.5" x2="1494.5" y1="697.7715" y2="697.7715"/><text fill="#000000" font-family="FG Virgil" font-size="13" lengthAdjust="spacing" textLength="65" x="668.5" y="692.5088">save(class)</text><polygon fill="#181818" points="672.5,725.0625,662.5,729.0625,672.5,733.0625,668.5,729.0625" style="stroke:#181818;stroke-width:1.0;"/><line style="stroke:#181818;stroke-width:1.0;" x1="666.5" x2="1504.5" y1="729.0625" y2="729.0625"/><text fill="#000000" font-family="FG Virgil" font-size="13" lengthAdjust="spacing" textLength="31" x="678.5" y="723.7998">class</text><polygon fill="#181818" points="417.5,756.3535,407.5,760.3535,417.5,764.3535,413.5,760.3535" style="stroke:#181818;stroke-width:1.0;"/><line style="stroke:#181818;stroke-width:1.0;" x1="411.5" x2="655.5" y1="760.3535" y2="760.3535"/><text fill="#000000" font-family="FG Virgil" font-size="13" lengthAdjust="spacing" textLength="31" x="423.5" y="755.0908">class</text><polygon fill="#181818" points="187.5,787.6445,177.5,791.6445,187.5,795.6445,183.5,791.6445" style="stroke:#181818;stroke-width:1.0;"/><line style="stroke:#181818;stroke-width:1.0;" x1="181.5" x2="400.5" y1="791.6445" y2="791.6445"/><text fill="#000000" font-family="FG Virgil" font-size="13" lengthAdjust="spacing" textLength="31" x="193.5" y="786.3818">class</text><polygon fill="#181818" points="45.5,818.9355,35.5,822.9355,45.5,826.9355,41.5,822.9355" style="stroke:#181818;stroke-width:1.0;"/><line style="stroke:#181818;stroke-width:1.0;stroke-dasharray:2.0,2.0;" x1="39.5" x2="170.5" y1="822.9355" y2="822.9355"/><text fill="#000000" font-family="FG Virgil" font-size="13" lengthAdjust="spacing" textLength="107" x="51.5" y="817.6729">show class details</text><!--SRC=[ZLHDRzim3BthLmWzfS3w1mmXmDOXmmuhYcRRdPMPH8XY6PAIDFz-b6n5hEiKknYK-DuZnG-7lUbwy72G1zSvlVFkW3Bw8ufmzVIWzx35TRnOb1vrPBuMDt2qSUMw-0H4NVsGVutV6iimOGUjEvjkApTW0me1EZelVoFe7Ne9GNvD5uBGqMZJGnVbcbpjqUAZXH3-_4mW-YhLUmpOHOZ6TSlbRSeZ9UITjOC-Eoa5VM-DdbF8p5_GqMCF56ID_cGq9e5YAXK6Qy9yHXzCYDXfJB7mBPQmoQIqgtykvhUZiUsGQZ6LUXsi2VvE9qAJQNU9yDqTm7I4RxCnWRzWxuAXwbvMkUgNH2ccKfl18b8B4LuXu91GfIKyEodbhmTYYTmv-V2mJErfP1Xx87EMkTFc1179AmX0CDQAHcgFv5pSYz4vg3KKSpyeq7n5C3QKE6EOQAB5Bv9oJj-ZpyqKSn427uh5BE- -PbcfGZ0P4Yq3K1MVyFn_eYDLYA91SgNBh0HN_EYRXvzDtDsAE4l8KqJovOQSuyGqyjFyQq83NemqBd02QnBlEUqvHXhoMsgLp9wUPwJ5QI2UQwtx1tIf4tztsRX6NiVKO5XCMam8KP14Akl0ci6yDODnMNWEHKqK3IAmRPbhxuZaZCaZgm0FLNZykUz21JZX8WlmvZ4nXlwyiempBMvTtIdfEkRl5oVlwmSmNxIqjMptmywT9ylFYFGV-GS0]--></g></svg>