<?xml version="1.0" encoding="us-ascii" standalone="no"?><svg xmlns="http://www.w3.org/2000/svg" xmlns:xlink="http://www.w3.org/1999/xlink" contentStyleType="text/css" height="550.22px" preserveAspectRatio="none" style="width:397px;height:550px;background:#FFFFFF;" version="1.1" viewBox="0 0 397 550" width="397.11px" zoomAndPan="magnify"><defs/><g><!--class ListExamGradesUI--><g id="elem_ListExamGradesUI"><rect codeLine="7" fill="#F1F1F1" height="48.3139" id="ListExamGradesUI" rx="1.525" ry="1.525" style="stroke:#181818;stroke-width:0.305;" width="89.67" x="215.025" y="4.27"/><ellipse cx="224.175" cy="17.8675" fill="#C2C2C2" rx="6.71" ry="6.71" style="stroke:#181818;stroke-width:0.61;"/><path d="M225.862,15.3513 Q225.9573,15.2178 226.0717,15.1511 Q226.1861,15.0844 226.3195,15.0844 Q226.5483,15.0844 226.6913,15.2464 Q226.8342,15.3989 226.8342,15.7706 L226.8342,16.6571 Q226.8342,17.0288 226.6913,17.1908 Q226.5483,17.3528 226.3195,17.3528 Q226.1098,17.3528 225.9859,17.2289 Q225.862,17.1146 225.7953,16.8 Q225.7667,16.5808 225.6523,16.4664 Q225.4522,16.2377 225.0805,16.1042 Q224.7088,15.9708 224.3275,15.9708 Q223.8605,15.9708 223.4697,16.171 Q223.0884,16.3711 222.7834,16.8286 Q222.488,17.2861 222.488,17.9152 L222.488,18.5824 Q222.488,19.3353 223.0313,19.8405 Q223.5745,20.3361 224.5467,20.3361 Q225.1186,20.3361 225.5189,20.1836 Q225.7572,20.0883 226.0145,19.8214 Q226.1766,19.6594 226.2623,19.6117 Q226.3577,19.5641 226.4816,19.5641 Q226.6817,19.5641 226.8342,19.7261 Q226.9963,19.8786 226.9963,20.0883 Q226.9963,20.298 226.7866,20.5458 Q226.4816,20.8985 225.9955,21.0986 Q225.3378,21.375 224.5467,21.375 Q223.6222,21.375 222.8883,20.9938 Q222.2878,20.6888 221.8684,20.0406 Q221.4491,19.383 221.4491,18.6014 L221.4491,17.8961 Q221.4491,17.086 221.8208,16.3902 Q222.202,15.6849 222.8692,15.3131 Q223.5364,14.9319 224.2894,14.9319 Q224.7373,14.9319 225.1281,15.0367 Q225.5284,15.1321 225.862,15.3513 Z " fill="#000000"/><text fill="#000000" font-family="FG Virgil" font-size="7.32" font-style="italic" lengthAdjust="spacing" textLength="50.02" x="242.78" y="15.219">&#171;presentation&#187;</text><text fill="#000000" font-family="FG Virgil" font-size="8.54" lengthAdjust="spacing" textLength="70.15" x="232.715" y="26.2717">ListExamGradesUI</text><line style="stroke:#181818;stroke-width:0.305;" x1="215.635" x2="304.085" y1="31.465" y2="31.465"/><line style="stroke:#181818;stroke-width:0.305;" x1="215.635" x2="304.085" y1="36.345" y2="36.345"/><text fill="#000000" font-family="FG Virgil" font-size="8.54" lengthAdjust="spacing" textLength="36.6" x="218.685" y="48.0006">doShow()</text></g><!--class ListExamGradesController--><g id="elem_ListExamGradesController"><rect codeLine="11" fill="#F1F1F1" height="48.3139" id="ListExamGradesController" rx="1.525" ry="1.525" style="stroke:#181818;stroke-width:0.305;" width="120.17" x="199.775" y="100.65"/><ellipse cx="208.925" cy="114.2475" fill="#C2C2C2" rx="6.71" ry="6.71" style="stroke:#181818;stroke-width:0.61;"/><path d="M210.612,111.7313 Q210.7073,111.5978 210.8217,111.5311 Q210.9361,111.4644 211.0695,111.4644 Q211.2983,111.4644 211.4413,111.6264 Q211.5842,111.7789 211.5842,112.1506 L211.5842,113.0371 Q211.5842,113.4088 211.4413,113.5708 Q211.2983,113.7328 211.0695,113.7328 Q210.8598,113.7328 210.7359,113.6089 Q210.612,113.4946 210.5453,113.18 Q210.5167,112.9608 210.4023,112.8464 Q210.2022,112.6177 209.8305,112.4842 Q209.4588,112.3508 209.0775,112.3508 Q208.6105,112.3508 208.2197,112.551 Q207.8384,112.7511 207.5334,113.2086 Q207.238,113.6661 207.238,114.2952 L207.238,114.9624 Q207.238,115.7153 207.7813,116.2205 Q208.3245,116.7161 209.2967,116.7161 Q209.8686,116.7161 210.2689,116.5636 Q210.5072,116.4683 210.7645,116.2014 Q210.9266,116.0394 211.0123,115.9917 Q211.1077,115.9441 211.2316,115.9441 Q211.4317,115.9441 211.5842,116.1061 Q211.7463,116.2586 211.7463,116.4683 Q211.7463,116.678 211.5366,116.9258 Q211.2316,117.2785 210.7455,117.4786 Q210.0878,117.755 209.2967,117.755 Q208.3722,117.755 207.6383,117.3738 Q207.0378,117.0688 206.6184,116.4206 Q206.1991,115.763 206.1991,114.9814 L206.1991,114.2761 Q206.1991,113.466 206.5708,112.7702 Q206.952,112.0649 207.6192,111.6931 Q208.2864,111.3119 209.0394,111.3119 Q209.4873,111.3119 209.8781,111.4167 Q210.2784,111.5121 210.612,111.7313 Z " fill="#000000"/><text fill="#000000" font-family="FG Virgil" font-size="7.32" font-style="italic" lengthAdjust="spacing" textLength="39.65" x="247.965" y="111.599">&#171;controller&#187;</text><text fill="#000000" font-family="FG Virgil" font-size="8.54" lengthAdjust="spacing" textLength="100.65" x="217.465" y="122.6517">ListExamGradesController</text><line style="stroke:#181818;stroke-width:0.305;" x1="200.385" x2="319.335" y1="127.845" y2="127.845"/><line style="stroke:#181818;stroke-width:0.305;" x1="200.385" x2="319.335" y1="132.725" y2="132.725"/><text fill="#000000" font-family="FG Virgil" font-size="8.54" lengthAdjust="spacing" textLength="65.88" x="203.435" y="144.3806">listExamGrades()</text></g><!--class AuthorizationService--><g id="elem_AuthorizationService"><rect codeLine="15" fill="#F1F1F1" height="59.6728" id="AuthorizationService" rx="1.525" ry="1.525" style="stroke:#181818;stroke-width:0.305;" width="174.46" x="4.27" y="197.03"/><ellipse cx="49.5625" cy="210.6275" fill="#C2C2C2" rx="6.71" ry="6.71" style="stroke:#181818;stroke-width:0.61;"/><path d="M51.2495,208.1113 Q51.3448,207.9778 51.4592,207.9111 Q51.5736,207.8444 51.707,207.8444 Q51.9358,207.8444 52.0788,208.0064 Q52.2217,208.1589 52.2217,208.5306 L52.2217,209.4171 Q52.2217,209.7888 52.0788,209.9508 Q51.9358,210.1128 51.707,210.1128 Q51.4973,210.1128 51.3734,209.9889 Q51.2495,209.8746 51.1828,209.56 Q51.1542,209.3408 51.0398,209.2264 Q50.8397,208.9977 50.468,208.8642 Q50.0963,208.7308 49.715,208.7308 Q49.248,208.7308 48.8572,208.931 Q48.4759,209.1311 48.1709,209.5886 Q47.8755,210.0461 47.8755,210.6752 L47.8755,211.3424 Q47.8755,212.0953 48.4187,212.6005 Q48.962,213.0961 49.9342,213.0961 Q50.5061,213.0961 50.9064,212.9436 Q51.1447,212.8483 51.402,212.5814 Q51.5641,212.4194 51.6498,212.3717 Q51.7452,212.3241 51.8691,212.3241 Q52.0692,212.3241 52.2217,212.4861 Q52.3838,212.6386 52.3838,212.8483 Q52.3838,213.058 52.1741,213.3058 Q51.8691,213.6585 51.383,213.8586 Q50.7253,214.135 49.9342,214.135 Q49.0097,214.135 48.2758,213.7538 Q47.6753,213.4488 47.2559,212.8006 Q46.8366,212.143 46.8366,211.3614 L46.8366,210.6561 Q46.8366,209.846 47.2083,209.1502 Q47.5895,208.4449 48.2567,208.0731 Q48.9239,207.6919 49.6769,207.6919 Q50.1248,207.6919 50.5156,207.7967 Q50.9159,207.8921 51.2495,208.1113 Z " fill="#000000"/><text fill="#000000" font-family="FG Virgil" font-size="7.32" font-style="italic" lengthAdjust="spacing" textLength="32.33" x="85.2475" y="207.979">&#171;service&#187;</text><text fill="#000000" font-family="FG Virgil" font-size="8.54" lengthAdjust="spacing" textLength="78.69" x="62.0675" y="219.0317">AuthorizationService</text><line style="stroke:#181818;stroke-width:0.305;" x1="4.88" x2="178.12" y1="224.225" y2="224.225"/><line style="stroke:#181818;stroke-width:0.305;" x1="4.88" x2="178.12" y1="229.105" y2="229.105"/><text fill="#000000" font-family="FG Virgil" font-size="8.54" lengthAdjust="spacing" textLength="167.14" x="7.93" y="240.7606">ensureAuthenticatedUserHasAnyOf(Role...)</text><text fill="#000000" font-family="FG Virgil" font-size="8.54" lengthAdjust="spacing" textLength="35.38" x="7.93" y="252.1194">session()</text></g><!--class UserSession--><g id="elem_UserSession"><rect codeLine="20" fill="#F1F1F1" height="40.6389" id="UserSession" rx="1.525" ry="1.525" style="stroke:#181818;stroke-width:0.305;" width="83.57" x="49.715" y="308.66"/><ellipse cx="66.002" cy="318.42" fill="#C2C2C2" rx="6.71" ry="6.71" style="stroke:#181818;stroke-width:0.61;"/><path d="M67.689,315.9038 Q67.7843,315.7703 67.8987,315.7036 Q68.0131,315.6369 68.1465,315.6369 Q68.3753,315.6369 68.5183,315.7989 Q68.6612,315.9514 68.6612,316.3231 L68.6612,317.2095 Q68.6612,317.5813 68.5183,317.7433 Q68.3753,317.9053 68.1465,317.9053 Q67.9368,317.9053 67.8129,317.7814 Q67.689,317.667 67.6223,317.3525 Q67.5937,317.1333 67.4793,317.0189 Q67.2792,316.7902 66.9075,316.6567 Q66.5358,316.5233 66.1545,316.5233 Q65.6875,316.5233 65.2967,316.7234 Q64.9154,316.9236 64.6104,317.3811 Q64.315,317.8386 64.315,318.4677 L64.315,319.1348 Q64.315,319.8878 64.8583,320.393 Q65.4015,320.8886 66.3737,320.8886 Q66.9456,320.8886 67.3459,320.7361 Q67.5842,320.6408 67.8415,320.3739 Q68.0036,320.2119 68.0893,320.1642 Q68.1847,320.1166 68.3086,320.1166 Q68.5087,320.1166 68.6612,320.2786 Q68.8233,320.4311 68.8233,320.6408 Q68.8233,320.8505 68.6136,321.0983 Q68.3086,321.4509 67.8225,321.6511 Q67.1648,321.9275 66.3737,321.9275 Q65.4492,321.9275 64.7153,321.5463 Q64.1148,321.2413 63.6954,320.5931 Q63.2761,319.9355 63.2761,319.1539 L63.2761,318.4486 Q63.2761,317.6384 63.6478,316.9427 Q64.029,316.2373 64.6962,315.8656 Q65.3634,315.4844 66.1164,315.4844 Q66.5643,315.4844 66.9551,315.5892 Q67.3554,315.6845 67.689,315.9038 Z " fill="#000000"/><text fill="#000000" font-family="FG Virgil" font-size="8.54" lengthAdjust="spacing" textLength="48.19" x="76.128" y="321.9561">UserSession</text><line style="stroke:#181818;stroke-width:0.305;" x1="50.325" x2="132.675" y1="328.18" y2="328.18"/><line style="stroke:#181818;stroke-width:0.305;" x1="50.325" x2="132.675" y1="333.06" y2="333.06"/><text fill="#000000" font-family="FG Virgil" font-size="8.54" lengthAdjust="spacing" textLength="76.25" x="53.375" y="344.7155">authenticatedUser()</text></g><!--class ExamManagementService--><g id="elem_ExamManagementService"><rect codeLine="24" fill="#F1F1F1" height="48.3139" id="ExamManagementService" rx="1.525" ry="1.525" style="stroke:#181818;stroke-width:0.305;" width="118.95" x="200.385" y="202.825"/><ellipse cx="209.535" cy="216.4225" fill="#C2C2C2" rx="6.71" ry="6.71" style="stroke:#181818;stroke-width:0.61;"/><path d="M211.222,213.9063 Q211.3173,213.7728 211.4317,213.7061 Q211.5461,213.6394 211.6795,213.6394 Q211.9083,213.6394 212.0512,213.8014 Q212.1942,213.9539 212.1942,214.3256 L212.1942,215.2121 Q212.1942,215.5838 212.0512,215.7458 Q211.9083,215.9078 211.6795,215.9078 Q211.4698,215.9078 211.3459,215.7839 Q211.222,215.6696 211.1553,215.355 Q211.1267,215.1358 211.0123,215.0214 Q210.8122,214.7927 210.4405,214.6592 Q210.0688,214.5258 209.6875,214.5258 Q209.2205,214.5258 208.8297,214.726 Q208.4484,214.9261 208.1434,215.3836 Q207.848,215.8411 207.848,216.4702 L207.848,217.1374 Q207.848,217.8903 208.3912,218.3955 Q208.9345,218.8911 209.9067,218.8911 Q210.4786,218.8911 210.8789,218.7386 Q211.1172,218.6433 211.3745,218.3764 Q211.5366,218.2144 211.6223,218.1667 Q211.7177,218.1191 211.8416,218.1191 Q212.0417,218.1191 212.1942,218.2811 Q212.3563,218.4336 212.3563,218.6433 Q212.3563,218.853 212.1466,219.1008 Q211.8416,219.4535 211.3555,219.6536 Q210.6978,219.93 209.9067,219.93 Q208.9822,219.93 208.2483,219.5488 Q207.6478,219.2438 207.2284,218.5956 Q206.8091,217.938 206.8091,217.1564 L206.8091,216.4511 Q206.8091,215.641 207.1808,214.9452 Q207.562,214.2399 208.2292,213.8681 Q208.8964,213.4869 209.6494,213.4869 Q210.0973,213.4869 210.4881,213.5917 Q210.8884,213.6871 211.222,213.9063 Z " fill="#000000"/><text fill="#000000" font-family="FG Virgil" font-size="7.32" font-style="italic" lengthAdjust="spacing" textLength="32.33" x="251.625" y="213.774">&#171;service&#187;</text><text fill="#000000" font-family="FG Virgil" font-size="8.54" lengthAdjust="spacing" textLength="99.43" x="218.075" y="224.8267">ExamManagementService</text><line style="stroke:#181818;stroke-width:0.305;" x1="200.995" x2="318.725" y1="230.02" y2="230.02"/><line style="stroke:#181818;stroke-width:0.305;" x1="200.995" x2="318.725" y1="234.9" y2="234.9"/><text fill="#000000" font-family="FG Virgil" font-size="8.54" lengthAdjust="spacing" textLength="65.88" x="204.045" y="246.5556">listExamGrades()</text></g><!--class PersistenceContext--><g id="elem_PersistenceContext"><rect codeLine="28" fill="#F1F1F1" height="48.3139" id="PersistenceContext" rx="1.525" ry="1.525" style="stroke:#181818;stroke-width:0.305;" width="93.94" x="292.19" y="305"/><ellipse cx="301.34" cy="318.5975" fill="#C2C2C2" rx="6.71" ry="6.71" style="stroke:#181818;stroke-width:0.61;"/><path d="M303.027,316.0813 Q303.1223,315.9478 303.2367,315.8811 Q303.3511,315.8144 303.4845,315.8144 Q303.7133,315.8144 303.8563,315.9764 Q303.9992,316.1289 303.9992,316.5006 L303.9992,317.3871 Q303.9992,317.7588 303.8563,317.9208 Q303.7133,318.0828 303.4845,318.0828 Q303.2748,318.0828 303.1509,317.9589 Q303.027,317.8446 302.9603,317.53 Q302.9317,317.3108 302.8173,317.1964 Q302.6172,316.9677 302.2455,316.8342 Q301.8738,316.7008 301.4925,316.7008 Q301.0255,316.7008 300.6347,316.901 Q300.2534,317.1011 299.9484,317.5586 Q299.653,318.0161 299.653,318.6452 L299.653,319.3124 Q299.653,320.0653 300.1963,320.5705 Q300.7395,321.0661 301.7117,321.0661 Q302.2836,321.0661 302.6839,320.9136 Q302.9222,320.8183 303.1795,320.5514 Q303.3416,320.3894 303.4273,320.3417 Q303.5227,320.2941 303.6466,320.2941 Q303.8467,320.2941 303.9992,320.4561 Q304.1613,320.6086 304.1613,320.8183 Q304.1613,321.028 303.9516,321.2758 Q303.6466,321.6285 303.1605,321.8286 Q302.5028,322.105 301.7117,322.105 Q300.7872,322.105 300.0533,321.7238 Q299.4528,321.4188 299.0334,320.7706 Q298.6141,320.113 298.6141,319.3314 L298.6141,318.6261 Q298.6141,317.816 298.9858,317.1202 Q299.367,316.4149 300.0342,316.0431 Q300.7014,315.6619 301.4544,315.6619 Q301.9023,315.6619 302.2931,315.7667 Q302.6934,315.8621 303.027,316.0813 Z " fill="#000000"/><text fill="#000000" font-family="FG Virgil" font-size="7.32" font-style="italic" lengthAdjust="spacing" textLength="46.97" x="323.605" y="315.949">&#171;persistence&#187;</text><text fill="#000000" font-family="FG Virgil" font-size="8.54" lengthAdjust="spacing" textLength="74.42" x="309.88" y="327.0017">PersistenceContext</text><line style="stroke:#181818;stroke-width:0.305;" x1="292.8" x2="385.52" y1="332.195" y2="332.195"/><line style="stroke:#181818;stroke-width:0.305;" x1="292.8" x2="385.52" y1="337.075" y2="337.075"/><text fill="#000000" font-family="FG Virgil" font-size="8.54" lengthAdjust="spacing" textLength="51.24" x="295.85" y="348.7306">repositories()</text></g><!--class RepositoryFactory--><g id="elem_RepositoryFactory"><rect codeLine="32" fill="#F1F1F1" height="48.3139" id="RepositoryFactory" rx="1.525" ry="1.525" style="stroke:#181818;stroke-width:0.305;" width="90.28" x="292.8" y="401.38"/><ellipse cx="301.95" cy="414.9775" fill="#C2C2C2" rx="6.71" ry="6.71" style="stroke:#181818;stroke-width:0.61;"/><path d="M303.637,412.4613 Q303.7323,412.3278 303.8467,412.2611 Q303.9611,412.1944 304.0945,412.1944 Q304.3233,412.1944 304.4663,412.3564 Q304.6092,412.5089 304.6092,412.8806 L304.6092,413.7671 Q304.6092,414.1388 304.4663,414.3008 Q304.3233,414.4628 304.0945,414.4628 Q303.8848,414.4628 303.7609,414.3389 Q303.637,414.2246 303.5703,413.91 Q303.5417,413.6908 303.4273,413.5764 Q303.2272,413.3477 302.8555,413.2142 Q302.4838,413.0808 302.1025,413.0808 Q301.6355,413.0808 301.2447,413.281 Q300.8634,413.4811 300.5584,413.9386 Q300.263,414.3961 300.263,415.0252 L300.263,415.6924 Q300.263,416.4453 300.8063,416.9505 Q301.3495,417.4461 302.3217,417.4461 Q302.8936,417.4461 303.2939,417.2936 Q303.5322,417.1983 303.7895,416.9314 Q303.9516,416.7694 304.0373,416.7217 Q304.1327,416.6741 304.2566,416.6741 Q304.4567,416.6741 304.6092,416.8361 Q304.7713,416.9886 304.7713,417.1983 Q304.7713,417.408 304.5616,417.6558 Q304.2566,418.0085 303.7705,418.2086 Q303.1128,418.485 302.3217,418.485 Q301.3972,418.485 300.6633,418.1038 Q300.0628,417.7988 299.6434,417.1506 Q299.2241,416.493 299.2241,415.7114 L299.2241,415.0061 Q299.2241,414.196 299.5958,413.5002 Q299.977,412.7949 300.6442,412.4231 Q301.3114,412.0419 302.0644,412.0419 Q302.5123,412.0419 302.9031,412.1467 Q303.3034,412.2421 303.637,412.4613 Z " fill="#000000"/><text fill="#000000" font-family="FG Virgil" font-size="7.32" font-style="italic" lengthAdjust="spacing" textLength="30.5" x="330.62" y="412.329">&#171;factory&#187;</text><text fill="#000000" font-family="FG Virgil" font-size="8.54" lengthAdjust="spacing" textLength="70.76" x="310.49" y="423.3817">RepositoryFactory</text><line style="stroke:#181818;stroke-width:0.305;" x1="293.41" x2="382.47" y1="428.575" y2="428.575"/><line style="stroke:#181818;stroke-width:0.305;" x1="293.41" x2="382.47" y1="433.455" y2="433.455"/><text fill="#000000" font-family="FG Virgil" font-size="8.54" lengthAdjust="spacing" textLength="30.5" x="296.46" y="445.1106">exams()</text></g><!--class ExamRepository--><g id="elem_ExamRepository"><rect codeLine="36" fill="#F1F1F1" height="48.3139" id="ExamRepository" rx="1.525" ry="1.525" style="stroke:#181818;stroke-width:0.305;" width="95.77" x="229.665" y="497.76"/><ellipse cx="245.1285" cy="511.3575" fill="#C2C2C2" rx="6.71" ry="6.71" style="stroke:#181818;stroke-width:0.61;"/><path d="M246.8155,508.8413 Q246.9108,508.7078 247.0252,508.6411 Q247.1396,508.5744 247.273,508.5744 Q247.5018,508.5744 247.6448,508.7364 Q247.7877,508.8889 247.7877,509.2606 L247.7877,510.1471 Q247.7877,510.5188 247.6448,510.6808 Q247.5018,510.8428 247.273,510.8428 Q247.0633,510.8428 246.9394,510.7189 Q246.8155,510.6046 246.7488,510.29 Q246.7202,510.0708 246.6058,509.9564 Q246.4057,509.7277 246.034,509.5942 Q245.6623,509.4608 245.281,509.4608 Q244.814,509.4608 244.4232,509.661 Q244.0419,509.8611 243.7369,510.3186 Q243.4415,510.7761 243.4415,511.4052 L243.4415,512.0724 Q243.4415,512.8253 243.9848,513.3305 Q244.528,513.8261 245.5002,513.8261 Q246.0721,513.8261 246.4724,513.6736 Q246.7107,513.5783 246.968,513.3114 Q247.1301,513.1494 247.2158,513.1017 Q247.3112,513.0541 247.4351,513.0541 Q247.6352,513.0541 247.7877,513.2161 Q247.9498,513.3686 247.9498,513.5783 Q247.9498,513.788 247.7401,514.0358 Q247.4351,514.3885 246.949,514.5886 Q246.2913,514.865 245.5002,514.865 Q244.5757,514.865 243.8418,514.4838 Q243.2413,514.1788 242.8219,513.5306 Q242.4026,512.873 242.4026,512.0914 L242.4026,511.3861 Q242.4026,510.576 242.7743,509.8802 Q243.1555,509.1749 243.8227,508.8031 Q244.4899,508.4219 245.2429,508.4219 Q245.6908,508.4219 246.0816,508.5267 Q246.4819,508.6221 246.8155,508.8413 Z " fill="#000000"/><text fill="#000000" font-family="FG Virgil" font-size="7.32" font-style="italic" lengthAdjust="spacing" textLength="41.48" x="265.4415" y="508.709">&#171;repository&#187;</text><text fill="#000000" font-family="FG Virgil" font-size="8.54" lengthAdjust="spacing" textLength="62.22" x="255.0715" y="519.7617">ExamRepository</text><line style="stroke:#181818;stroke-width:0.305;" x1="230.275" x2="324.825" y1="524.955" y2="524.955"/><line style="stroke:#181818;stroke-width:0.305;" x1="230.275" x2="324.825" y1="529.835" y2="529.835"/><text fill="#000000" font-family="FG Virgil" font-size="8.54" lengthAdjust="spacing" textLength="88.45" x="233.325" y="541.4906">findGradesByStudent()</text></g><!--link ListExamGradesUI to ListExamGradesController--><g id="link_ListExamGradesUI_ListExamGradesController"><path codeLine="40" d="M259.86,52.4966 C259.86,66.1057 259.86,83.2833 259.86,97.4048 " fill="none" id="ListExamGradesUI-to-ListExamGradesController" style="stroke:#181818;stroke-width:0.61;"/><polygon fill="#181818" points="259.86,100.5524,262.3,95.0624,259.86,97.5024,257.42,95.0624,259.86,100.5524" style="stroke:#181818;stroke-width:0.61;"/><text fill="#000000" font-family="FG Virgil" font-size="7.93" lengthAdjust="spacing" textLength="45.75" x="260.47" y="79.9273">the controller</text></g><!--link ListExamGradesController to AuthorizationService--><g id="link_ListExamGradesController_AuthorizationService"><path codeLine="41" d="M220.6004,148.8949 C197.5363,162.7236 168.116,180.3709 143.1792,195.322 " fill="none" id="ListExamGradesController-to-AuthorizationService" style="stroke:#181818;stroke-width:0.61;"/><polygon fill="#181818" points="140.4769,196.9446,146.441,196.221,143.0946,195.3792,143.9364,192.0328,140.4769,196.9446" style="stroke:#181818;stroke-width:0.61;"/><text fill="#000000" font-family="FG Virgil" font-size="7.93" lengthAdjust="spacing" textLength="19.52" x="186.66" y="176.3073">autzh</text></g><!--link ListExamGradesController to ExamManagementService--><g id="link_ListExamGradesController_ExamManagementService"><path codeLine="42" d="M259.86,149.023 C259.86,164.212 259.86,183.9638 259.86,199.6957 " fill="none" id="ListExamGradesController-to-ExamManagementService" style="stroke:#181818;stroke-width:0.61;"/><polygon fill="#181818" points="259.86,202.7884,262.3,197.2984,259.86,199.7384,257.42,197.2984,259.86,202.7884" style="stroke:#181818;stroke-width:0.61;"/><text fill="#000000" font-family="FG Virgil" font-size="7.93" lengthAdjust="spacing" textLength="24.4" x="260.47" y="176.3073">service</text></g><!--link ListExamGradesController to PersistenceContext--><g id="link_ListExamGradesController_PersistenceContext"><path codeLine="43" d="M289.4633,148.9132 C303.7007,161.7232 319.8413,178.6812 330.01,197.03 C349.7557,232.654 353.5804,246.2387 348.92,286.7 C348.3527,291.6044 347.4316,296.765 346.3641,301.7304 " fill="none" id="ListExamGradesController-to-PersistenceContext" style="stroke:#181818;stroke-width:0.61;"/><polygon fill="#181818" points="345.687,304.7865,349.2628,299.9588,346.3505,301.8095,344.4997,298.8972,345.687,304.7865" style="stroke:#181818;stroke-width:0.61;"/><text fill="#000000" font-family="FG Virgil" font-size="7.93" lengthAdjust="spacing" textLength="40.87" x="351.36" y="230.2923">persistence</text></g><!--link AuthorizationService to UserSession--><g id="link_AuthorizationService_UserSession"><path codeLine="44" d="M91.5,256.9991 C91.5,272.4199 91.5,291.0249 91.5,305.3904 " fill="none" id="AuthorizationService-to-UserSession" style="stroke:#181818;stroke-width:0.61;"/><polygon fill="#181818" points="91.5,308.5746,93.94,303.0846,91.5,305.5246,89.06,303.0846,91.5,308.5746" style="stroke:#181818;stroke-width:0.61;"/><text fill="#000000" font-family="FG Virgil" font-size="7.93" lengthAdjust="spacing" textLength="27.45" x="92.11" y="284.2773">session</text></g><!--link ExamManagementService to PersistenceContext--><g id="link_ExamManagementService_PersistenceContext"><path codeLine="45" d="M277.1535,251.0577 C285.297,261.9889 295.2156,275.11 304.39,286.7 C308.416,291.7874 312.7897,297.1554 317.0292,302.2855 " fill="none" id="ExamManagementService-to-PersistenceContext" style="stroke:#181818;stroke-width:0.61;"/><polygon fill="#181818" points="319.0971,304.7865,317.4718,299.0027,317.1506,302.4384,313.7149,302.1172,319.0971,304.7865" style="stroke:#181818;stroke-width:0.61;"/><text fill="#000000" font-family="FG Virgil" font-size="7.93" lengthAdjust="spacing" textLength="40.87" x="305" y="284.2773">persistence</text></g><!--link ExamManagementService to ExamRepository--><g id="link_ExamManagementService_ExamRepository"><path codeLine="46" d="M261.2752,251.0699 C264.5265,305.0427 272.5053,437.4554 275.9335,494.4416 " fill="none" id="ExamManagementService-to-ExamRepository" style="stroke:#181818;stroke-width:0.61;"/><polygon fill="#181818" points="276.1226,497.5953,278.2284,491.9687,275.9394,494.5508,273.3573,492.2618,276.1226,497.5953" style="stroke:#181818;stroke-width:0.61;"/><text fill="#000000" font-family="FG Virgil" font-size="7.93" lengthAdjust="spacing" textLength="15.25" x="270.23" y="380.6573">repo</text></g><!--link PersistenceContext to RepositoryFactory--><g id="link_PersistenceContext_RepositoryFactory"><path codeLine="47" d="M338.8611,353.2266 C338.6842,366.8357 338.4646,384.0133 338.2816,398.1348 " fill="none" id="PersistenceContext-to-RepositoryFactory" style="stroke:#181818;stroke-width:0.61;"/><polygon fill="#181818" points="338.245,401.2824,340.7476,395.8206,338.2799,398.2326,335.8679,395.7649,338.245,401.2824" style="stroke:#181818;stroke-width:0.61;"/><text fill="#000000" font-family="FG Virgil" font-size="7.93" lengthAdjust="spacing" textLength="23.79" x="339.77" y="380.6573">factory</text></g><!--link RepositoryFactory to ExamRepository--><g id="link_RepositoryFactory_ExamRepository"><path codeLine="48" d="M323.0133,449.6066 C314.2659,463.3926 303.2005,480.8264 294.1786,495.0455 " fill="none" id="RepositoryFactory-to-ExamRepository" style="stroke:#181818;stroke-width:0.61;"/><polygon fill="#181818" points="292.5133,497.6624,297.5215,494.344,294.1525,495.0903,293.4061,491.7213,292.5133,497.6624" style="stroke:#181818;stroke-width:0.61;"/><text fill="#000000" font-family="FG Virgil" font-size="7.93" lengthAdjust="spacing" textLength="15.25" x="312.32" y="477.0373">repo</text></g><!--SRC=[ZLBBJiCm4BpxAtni3-q7HAXIGHIGU8a8xYjdqrWuTkHrA0NnxwoRDWbjKf5B4k_Cx7XdwLtR2ZoKidJMgSAx4cNmDGfgAnMeTrXZ6hO6fKSLUhKCSwXDM3aR7e6fgnlvflrQcnw62iZSHjkrpC4G2g4C4CbxJU7w4yeR3ndIwvsykAWy4je0GJkxMCXl8Vd9N5gupMGgVeQPLzpREsFGiu9gVrg- -OFkwophK3YlltRzKlGVMY5hKFFL2g2bscC4ipUj863sofXReANTFkMJ5sTmFfzFTs128bRhjudWj3dUAyAnLXyUlJw0vOcNZ1ctDNwlP_J4HRGAut3mCyJPTeUjXCVAaGuyWxy2BuVpxGfKV34_RxwwgN1hElRT4PdHgdUaNDkiyNkvJKETyGKRYPDbcCqMupadakSdkwp5A3BA3CQSn12-YlFCuIWIkO_YF7aWXKJsKX23lYAplp39OQF4i9b_THgd7eMMx5P230X6yEbQ97A_5kAqDYx_2m00]--></g></svg>