<?xml version="1.0" encoding="UTF-8" standalone="no"?><svg xmlns="http://www.w3.org/2000/svg" xmlns:xlink="http://www.w3.org/1999/xlink" contentStyleType="text/css" height="778px" preserveAspectRatio="none" style="width:948px;height:778px;background:#FFFFFF;" version="1.1" viewBox="0 0 948 778" width="948px" zoomAndPan="magnify"><defs/><g><!--MD5=[475f3b715ca7ffb20b7527e2f35f29f1]
class HttpServerAjax--><g id="elem_HttpServerAjax"><polygon fill="#F1F1F1" points="573,7,573,7.2102,583.2,6.5857,593.4,7.1933,603.6,7.3997,613.8,6.2866,624,6.9223,634.2,6.5735,644.4,6.6165,654.6,6.9318,664.8,6.3086,675,7.5536,685.2,6.3697,695.4,6.8022,705.6,7.4319,715.8,6.9142,726,7.0682,736.2,6.9681,746.4,7.1785,756.6,7.2391,766.8,7.5857,777,7,777.0856,7.2067,777.4402,7.3556,777.7396,7.3713,778.1198,7.5821,778.5038,7.802,778.7678,7.7322,778.5457,7.6402,779.1232,8.1723,778.9693,8.4015,779.3715,8.861,779.2011,9.0833,779.5,9.5,779.4315,9.5,780.2416,19.6875,779.4513,29.875,779.6053,40.0625,779.8386,50.25,779.9162,60.4375,779.4961,70.625,779.5,80.8125,779.5885,80.8491,779.1773,81.093,779.2947,81.5559,779.2295,81.9431,779.0511,82.2834,778.7678,82.5803,778.846,82.7691,778.3526,82.5779,777.9775,82.6723,777.6278,82.8282,777.346,83.1479,777,83.3125,777,83.116,766.8,83.9939,756.6,83.1378,746.4,82.9694,736.2,83.5408,726,82.6457,715.8,82.7934,705.6,83.9615,695.4,83.7482,685.2,84.047,675,82.9907,664.8,83.6317,654.6,83.9029,644.4,82.8401,634.2,83.2166,624,83.4385,613.8,83.9643,603.6,83.3083,593.4,83.7751,583.2,82.7587,573,83.3125,572.9136,83.1039,572.7107,83.3211,572.2014,82.7988,572.0043,83.0299,571.6121,82.7903,571.2322,82.5803,571.1497,82.5461,570.9768,82.1816,571.0806,81.9317,570.7007,81.4814,570.8287,81.2416,570.5,80.8125,569.9473,80.8125,571.1174,70.625,570.9843,60.4375,570.745,50.25,570.5472,40.0625,571.2266,29.875,571.1136,19.6875,570.5,9.5,570.5521,9.5216,570.729,9.1807,570.7528,8.7763,571.16,8.5307,571.1335,8.1055,571.2322,7.7322,571.2542,7.7854,571.5082,7.3984,571.8876,7.3145,572.3606,7.4563,572.7013,7.2788,573,7" style="stroke:#181818;stroke-width:0.5;"/><polygon fill="#C2C2C2" points="635.3108,31.0272,633.6984,33.2304,631.7912,36.4573,629.0636,38.632,626.1974,39.8212,623.912,39.9244,620.9747,38.4371,618.2032,37.4655,616.0995,35.4927,614.9961,33.2343,614.3417,31.4361,613.7006,29.0873,612.66,27.066,613.4596,25.0926,614.1602,22.9308,616.7893,21.221,618.639,19.0027,620.9284,18.266,623.6501,17.6316,627.1404,18.0085,629.0521,18.9101,631.2747,19.3188,633.9772,22.0875,634.9193,25.0105,635.3286,27.0049,634.865,30.2914" style="stroke:#181818;stroke-width:1.0;"/><path d="M627.0156,24.2266 Q627.1719,24.0078 627.3594,23.8984 Q627.5469,23.7891 627.7656,23.7891 Q628.1406,23.7891 628.375,24.0547 Q628.6094,24.3047 628.6094,24.9141 L628.6094,26.3672 Q628.6094,26.9766 628.375,27.2422 Q628.1406,27.5078 627.7656,27.5078 Q627.4219,27.5078 627.2188,27.3047 Q627.0156,27.1172 626.9063,26.6016 Q626.8594,26.2422 626.6719,26.0547 Q626.3438,25.6797 625.7344,25.4609 Q625.125,25.2422 624.5,25.2422 Q623.7344,25.2422 623.0938,25.5703 Q622.4688,25.8984 621.9688,26.6484 Q621.4844,27.3984 621.4844,28.4297 L621.4844,29.5234 Q621.4844,30.7578 622.375,31.5859 Q623.2656,32.3984 624.8594,32.3984 Q625.7969,32.3984 626.4531,32.1484 Q626.8438,31.9922 627.2656,31.5547 Q627.5313,31.2891 627.6719,31.2109 Q627.8281,31.1328 628.0313,31.1328 Q628.3594,31.1328 628.6094,31.3984 Q628.875,31.6484 628.875,31.9922 Q628.875,32.3359 628.5313,32.7422 Q628.0313,33.3203 627.2344,33.6484 Q626.1563,34.1016 624.8594,34.1016 Q623.3438,34.1016 622.1406,33.4766 Q621.1563,32.9766 620.4688,31.9141 Q619.7813,30.8359 619.7813,29.5547 L619.7813,28.3984 Q619.7813,27.0703 620.3906,25.9297 Q621.0156,24.7734 622.1094,24.1641 Q623.2031,23.5391 624.4375,23.5391 Q625.1719,23.5391 625.8125,23.7109 Q626.4688,23.8672 627.0156,24.2266 Z " fill="#000000"/><text fill="#000000" font-family="FG Virgil" font-size="12" font-style="italic" lengthAdjust="spacing" textLength="71" x="655.75" y="24.457">«http server»</text><text fill="#000000" font-family="FG Virgil" font-size="14" lengthAdjust="spacing" textLength="93" x="644.75" y="41.627">HttpServerAjax</text><path d="M571.5,49.7031 L571.5,49.9834 L581.3571,49.1507 L591.2143,49.9608 L601.0714,50.236 L610.9286,48.7519 L620.7857,49.5995 L630.6429,49.1345 L640.5,49.1918 L650.3571,49.6122 L660.2143,48.7813 L670.0714,50.4413 L679.9286,48.8628 L689.7857,49.4394 L699.6429,50.2791 L709.5,49.5888 L719.3571,49.7941 L729.2143,49.6605 L739.0714,49.9412 L748.9286,50.022 L758.7857,50.484 L768.6429,50.5979 L778.5,49.7031 " fill="#F1F1F1" style="stroke:#181818;stroke-width:0.5;"/><path d="M571.5,57.7031 L571.5,57.9834 L581.3571,57.1507 L591.2143,57.9608 L601.0714,58.236 L610.9286,56.7519 L620.7857,57.5995 L630.6429,57.1345 L640.5,57.1918 L650.3571,57.6122 L660.2143,56.7813 L670.0714,58.4413 L679.9286,56.8628 L689.7857,57.4394 L699.6429,58.2791 L709.5,57.5888 L719.3571,57.7941 L729.2143,57.6605 L739.0714,57.9412 L748.9286,58.022 L758.7857,58.484 L768.6429,58.5979 L778.5,57.7031 " fill="#F1F1F1" style="stroke:#181818;stroke-width:0.5;"/><text fill="#000000" font-family="FG Virgil" font-size="14" lengthAdjust="spacing" textLength="197" x="576.5" y="76.2363">createPostIt(PostItBody, String)</text></g><!--MD5=[178d76fd5a5a87d765fbfa46505325a1]
class CreatePostItController--><g id="elem_CreatePostItController"><polygon fill="#F1F1F1" points="390.5,161,390.5,161.2102,400.5333,160.5857,410.5667,161.1933,420.6,161.3997,430.6333,160.2866,440.6667,160.9223,450.7,160.5735,460.7333,160.6165,470.7667,160.9318,480.8,160.3086,490.8333,161.5536,500.8667,160.3697,510.9,160.8022,520.9333,161.4319,530.9667,160.9142,541,161.0682,551.0333,160.9681,561.0667,161.1785,571.1,161.2391,581.1333,161.5857,591.1667,161.6711,601.2,161.6793,611.2333,161.2546,621.2667,161.4636,631.3,161.7022,641.3333,160.2788,651.3667,161.6785,661.4,160.7035,671.4333,161.5338,681.4667,160.505,691.5,161,691.4913,160.9789,691.9482,161.3748,692.2009,161.2779,692.5741,161.4718,692.9574,161.6901,693.2678,161.7322,693.3959,161.7853,693.413,162.0853,693.6491,162.476,693.5308,162.7199,693.9411,163.1827,694,163.5,694.5482,163.5,694.4445,173.6875,694.613,183.875,693.5169,194.0625,693.3478,204.25,693.3786,214.4375,693.9411,224.625,694,234.8125,693.9395,234.7874,694.0634,235.253,693.6533,235.4973,693.455,235.8294,693.4845,236.2558,693.2678,236.5803,693.1827,236.3749,692.848,236.5668,692.6434,237.073,692.2627,237.1538,691.9472,237.3922,691.5,237.3125,691.5,236.9907,681.4667,237.6317,671.4333,237.9029,661.4,236.8401,651.3667,237.2166,641.3333,237.4385,631.3,237.9643,621.2667,237.3083,611.2333,237.7751,601.2,236.7587,591.1667,236.6352,581.1333,237.8161,571.1,236.5956,561.0667,237.8215,551.0333,237.5191,541,237.0446,530.9667,236.9587,520.9333,237.7713,510.9,237.0132,500.8667,237.9044,490.8333,236.7598,480.8,237.9299,470.7667,237.7968,460.7333,237.5575,450.7,237.3597,440.6667,238.0391,430.6333,237.9261,420.6,237.4818,410.5667,237.5807,400.5333,237.1822,390.5,237.3125,390.5914,237.5331,390.1662,237.2137,389.8149,237.0728,389.3617,236.6858,389.0341,236.6019,388.7322,236.5803,388.8957,236.648,388.7181,236.2815,388.4261,235.8677,388.1937,235.4785,388.079,235.1381,388,234.8125,387.3138,234.8125,388.4147,224.625,388.7396,214.4375,388.5264,204.25,388.6949,194.0625,387.8633,183.875,388.0872,173.6875,388,163.5,387.8806,163.4506,388.2339,163.1827,388.3689,162.8244,388.6095,162.5098,388.5151,162.0565,388.7322,161.7322,388.7151,161.6908,389.1424,161.7224,389.5117,161.6141,389.7275,161.1351,390.1217,161.0867,390.5,161" style="stroke:#181818;stroke-width:0.5;"/><polygon fill="#C2C2C2" points="477.8108,185.0272,476.1984,187.2304,474.2912,190.4573,471.5636,192.632,468.6974,193.8212,466.412,193.9244,463.4747,192.4371,460.7032,191.4655,458.5995,189.4927,457.4961,187.2343,456.8417,185.4361,456.2006,183.0873,455.16,181.066,455.9596,179.0926,456.6602,176.9308,459.2893,175.221,461.139,173.0027,463.4284,172.266,466.1501,171.6316,469.6404,172.0085,471.5521,172.9101,473.7747,173.3188,476.4772,176.0875,477.4193,179.0105,477.8286,181.0049,477.365,184.2914" style="stroke:#181818;stroke-width:1.0;"/><path d="M469.5156,178.2266 Q469.6719,178.0078 469.8594,177.8984 Q470.0469,177.7891 470.2656,177.7891 Q470.6406,177.7891 470.875,178.0547 Q471.1094,178.3047 471.1094,178.9141 L471.1094,180.3672 Q471.1094,180.9766 470.875,181.2422 Q470.6406,181.5078 470.2656,181.5078 Q469.9219,181.5078 469.7188,181.3047 Q469.5156,181.1172 469.4063,180.6016 Q469.3594,180.2422 469.1719,180.0547 Q468.8438,179.6797 468.2344,179.4609 Q467.625,179.2422 467,179.2422 Q466.2344,179.2422 465.5938,179.5703 Q464.9688,179.8984 464.4688,180.6484 Q463.9844,181.3984 463.9844,182.4297 L463.9844,183.5234 Q463.9844,184.7578 464.875,185.5859 Q465.7656,186.3984 467.3594,186.3984 Q468.2969,186.3984 468.9531,186.1484 Q469.3438,185.9922 469.7656,185.5547 Q470.0313,185.2891 470.1719,185.2109 Q470.3281,185.1328 470.5313,185.1328 Q470.8594,185.1328 471.1094,185.3984 Q471.375,185.6484 471.375,185.9922 Q471.375,186.3359 471.0313,186.7422 Q470.5313,187.3203 469.7344,187.6484 Q468.6563,188.1016 467.3594,188.1016 Q465.8438,188.1016 464.6406,187.4766 Q463.6563,186.9766 462.9688,185.9141 Q462.2813,184.8359 462.2813,183.5547 L462.2813,182.3984 Q462.2813,181.0703 462.8906,179.9297 Q463.5156,178.7734 464.6094,178.1641 Q465.7031,177.5391 466.9375,177.5391 Q467.6719,177.5391 468.3125,177.7109 Q468.9688,177.8672 469.5156,178.2266 Z " fill="#000000"/><text fill="#000000" font-family="FG Virgil" font-size="12" font-style="italic" lengthAdjust="spacing" textLength="74" x="520.25" y="178.457">«application»</text><text fill="#000000" font-family="FG Virgil" font-size="14" lengthAdjust="spacing" textLength="140" x="487.25" y="195.627">CreatePostItController</text><path d="M389,203.7031 L389,203.9834 L399.1333,203.1507 L409.2667,203.9608 L419.4,204.236 L429.5333,202.7519 L439.6667,203.5995 L449.8,203.1345 L459.9333,203.1918 L470.0667,203.6122 L480.2,202.7813 L490.3333,204.4413 L500.4667,202.8628 L510.6,203.4394 L520.7333,204.2791 L530.8667,203.5888 L541,203.7941 L551.1333,203.6605 L561.2667,203.9412 L571.4,204.022 L581.5333,204.484 L591.6667,204.5979 L601.8,204.6088 L611.9333,204.0426 L622.0667,204.3212 L632.2,204.6394 L642.3333,202.7415 L652.4667,204.6078 L662.6,203.3078 L672.7333,204.4149 L682.8667,203.0431 L693,203.7031 " fill="#F1F1F1" style="stroke:#181818;stroke-width:0.5;"/><path d="M389,211.7031 L389,211.9834 L399.1333,211.1507 L409.2667,211.9608 L419.4,212.236 L429.5333,210.7519 L439.6667,211.5995 L449.8,211.1345 L459.9333,211.1918 L470.0667,211.6122 L480.2,210.7813 L490.3333,212.4413 L500.4667,210.8628 L510.6,211.4394 L520.7333,212.2791 L530.8667,211.5888 L541,211.7941 L551.1333,211.6605 L561.2667,211.9412 L571.4,212.022 L581.5333,212.484 L591.6667,212.5979 L601.8,212.6088 L611.9333,212.0426 L622.0667,212.3212 L632.2,212.6394 L642.3333,210.7415 L652.4667,212.6078 L662.6,211.3078 L672.7333,212.4149 L682.8667,211.0431 L693,211.7031 " fill="#F1F1F1" style="stroke:#181818;stroke-width:0.5;"/><text fill="#000000" font-family="FG Virgil" font-size="14" lengthAdjust="spacing" textLength="294" x="394" y="230.2363">createPostIt(String, String, String, String, User)</text></g><!--MD5=[f097a9da547c6f19ba7a5c97c093eb18]
class SessionManager--><g id="elem_SessionManager"><polygon fill="#F1F1F1" points="731.5,166,731.5,166.2102,741.4375,165.5857,751.375,166.1933,761.3125,166.3997,771.25,165.2866,781.1875,165.9223,791.125,165.5735,801.0625,165.6165,811,165.9318,820.9375,165.3086,830.875,166.5536,840.8125,165.3697,850.75,165.8022,860.6875,166.4319,870.625,165.9142,880.5625,166.0682,890.5,166,890.4959,165.9902,890.8763,166.2014,891.2376,166.3665,891.6354,166.6197,891.9998,166.7924,892.2678,166.7322,892.477,166.8189,892.4926,167.1183,892.7034,167.4985,892.9234,167.8825,892.6315,168.0545,893,168.5,893.6785,168.5,892.7035,178.6016,893.5338,188.7031,892.505,198.8047,892.9315,208.9063,893.7416,219.0078,893,229.1094,892.985,229.1032,892.886,229.4764,892.8114,229.8597,892.6888,230.2231,892.413,230.5231,892.2678,230.8771,892.3044,230.9656,891.8412,230.8473,891.5969,231.2576,891.277,231.4853,890.9103,231.5998,890.5,231.6094,890.5,232.2224,880.5625,231.1263,870.625,230.9572,860.6875,230.988,850.75,231.5505,840.8125,231.4128,830.875,232.2908,820.9375,231.4347,811,231.2663,801.0625,231.8376,791.125,230.9425,781.1875,231.0902,771.25,232.2583,761.3125,232.045,751.375,232.3439,741.4375,231.2876,731.5,231.6094,731.5407,231.7077,731.2218,231.6448,730.7326,231.171,730.4271,231.1405,730.1019,231.0624,729.7322,230.8771,729.9329,230.9603,729.5845,230.5231,729.5818,230.229,729.1223,229.7458,728.9379,229.3765,729,229.1094,729.5036,229.1094,728.2831,219.0078,729.509,208.9063,729.2066,198.8047,728.7321,188.7031,728.6462,178.6016,729,168.5,729.1413,168.5585,729.0543,168.1083,729.4752,167.8684,729.2691,167.3688,729.7759,167.1645,729.7322,166.7322,729.794,166.8814,730.117,166.6612,730.4454,166.4539,730.8856,166.5167,731.2247,166.3354,731.5,166" style="stroke:#181818;stroke-width:0.5;"/><polygon fill="#C2C2C2" points="766.7608,184.6756,765.1484,186.8788,763.2412,190.1057,760.5136,192.2804,757.6474,193.4696,755.362,193.5728,752.4247,192.0855,749.6532,191.1139,747.5495,189.1412,746.4461,186.8828,745.7917,185.0845,745.1506,182.7357,744.11,180.7145,744.9096,178.741,745.6102,176.5792,748.2393,174.8695,750.089,172.6511,752.3784,171.9144,755.1001,171.2801,758.5904,171.657,760.5021,172.5585,762.7247,172.9672,765.4272,175.736,766.3693,178.659,766.7786,180.6534,766.315,183.9399" style="stroke:#181818;stroke-width:1.0;"/><path d="M758.4656,177.875 Q758.6219,177.6563 758.8094,177.5469 Q758.9969,177.4375 759.2156,177.4375 Q759.5906,177.4375 759.825,177.7031 Q760.0594,177.9531 760.0594,178.5625 L760.0594,180.0156 Q760.0594,180.625 759.825,180.8906 Q759.5906,181.1563 759.2156,181.1563 Q758.8719,181.1563 758.6688,180.9531 Q758.4656,180.7656 758.3563,180.25 Q758.3094,179.8906 758.1219,179.7031 Q757.7938,179.3281 757.1844,179.1094 Q756.575,178.8906 755.95,178.8906 Q755.1844,178.8906 754.5438,179.2188 Q753.9188,179.5469 753.4188,180.2969 Q752.9344,181.0469 752.9344,182.0781 L752.9344,183.1719 Q752.9344,184.4063 753.825,185.2344 Q754.7156,186.0469 756.3094,186.0469 Q757.2469,186.0469 757.9031,185.7969 Q758.2938,185.6406 758.7156,185.2031 Q758.9813,184.9375 759.1219,184.8594 Q759.2781,184.7813 759.4813,184.7813 Q759.8094,184.7813 760.0594,185.0469 Q760.325,185.2969 760.325,185.6406 Q760.325,185.9844 759.9813,186.3906 Q759.4813,186.9688 758.6844,187.2969 Q757.6063,187.75 756.3094,187.75 Q754.7938,187.75 753.5906,187.125 Q752.6063,186.625 751.9188,185.5625 Q751.2313,184.4844 751.2313,183.2031 L751.2313,182.0469 Q751.2313,180.7188 751.8406,179.5781 Q752.4656,178.4219 753.5594,177.8125 Q754.6531,177.1875 755.8875,177.1875 Q756.6219,177.1875 757.2625,177.3594 Q757.9188,177.5156 758.4656,177.875 Z " fill="#000000"/><text fill="#000000" font-family="FG Virgil" font-size="14" lengthAdjust="spacing" textLength="106" x="772.3" y="187.7285">SessionManager</text><path d="M730,198 L730,198.2802 L740.125,197.4476 L750.25,198.2577 L760.375,198.5329 L770.5,197.0488 L780.625,197.8964 L790.75,197.4313 L800.875,197.4887 L811,197.9091 L821.125,197.0782 L831.25,198.7382 L841.375,197.1596 L851.5,197.7363 L861.625,198.5759 L871.75,197.8856 L881.875,198.091 L892,198 " fill="#F1F1F1" style="stroke:#181818;stroke-width:0.5;"/><path d="M730,206 L730,206.2802 L740.125,205.4476 L750.25,206.2577 L760.375,206.5329 L770.5,205.0488 L780.625,205.8964 L790.75,205.4313 L800.875,205.4887 L811,205.9091 L821.125,205.0782 L831.25,206.7382 L841.375,205.1596 L851.5,205.7363 L861.625,206.5759 L871.75,205.8856 L881.875,206.091 L892,206 " fill="#F1F1F1" style="stroke:#181818;stroke-width:0.5;"/><text fill="#000000" font-family="FG Virgil" font-size="14" lengthAdjust="spacing" textLength="152" x="735" y="224.5332">getUserByToken(String)</text></g><!--MD5=[eb95342d67c177a44e4018fdebeb06c1]
class PostItService--><g id="elem_PostItService"><polygon fill="#F1F1F1" points="390.5,315,390.5,315.2102,400.5333,314.5857,410.5667,315.1933,420.6,315.3997,430.6333,314.2866,440.6667,314.9223,450.7,314.5735,460.7333,314.6165,470.7667,314.9318,480.8,314.3086,490.8333,315.5536,500.8667,314.3697,510.9,314.8022,520.9333,315.4319,530.9667,314.9142,541,315.0682,551.0333,314.9681,561.0667,315.1785,571.1,315.2391,581.1333,315.5857,591.1667,315.6711,601.2,315.6793,611.2333,315.2546,621.2667,315.4636,631.3,315.7022,641.3333,314.2788,651.3667,315.6785,661.4,314.7035,671.4333,315.5338,681.4667,314.505,691.5,315,691.4913,314.9789,691.9482,315.3748,692.2009,315.2779,692.5741,315.4718,692.9574,315.6901,693.2678,315.7322,693.3959,315.7853,693.413,316.0853,693.6491,316.476,693.5308,316.7199,693.9411,317.1827,694,317.5,694.5482,317.5,694.4445,327.625,694.613,337.75,693.5169,347.875,693.3478,358,693.3786,368.125,693.9411,378.25,693.8035,388.375,694.6814,398.5,693.8253,408.625,693.6569,418.75,694.2283,428.875,693.3332,439,693.4809,449.125,694,459.25,694.1999,459.3328,693.9877,459.6591,693.9333,460.0508,693.4616,460.2696,693.5125,460.7049,693.2678,461.0178,693.3431,461.1996,692.854,461.0187,692.5484,461.2811,692.2232,461.4959,691.9367,461.8043,691.5,461.75,691.5,461.7458,681.4667,462.2126,671.4333,461.1962,661.4,461.0727,651.3667,462.2536,641.3333,461.0331,631.3,462.259,621.2667,461.9566,611.2333,461.4821,601.2,461.3962,591.1667,462.2088,581.1333,461.4507,571.1,462.3419,561.0667,461.1973,551.0333,462.3674,541,462.2343,530.9667,461.995,520.9333,461.7972,510.9,462.4766,500.8667,462.3636,490.8333,461.9193,480.8,462.0182,470.7667,461.6197,460.7333,462.4665,450.7,461.9049,440.6667,461.9226,430.6333,461.1416,420.6,461.3448,410.5667,462.2807,400.5333,462.1798,390.5,461.75,390.4945,461.7368,390.1054,461.5043,389.765,461.3897,389.3518,461.0993,389.1387,461.2919,388.7322,461.0178,388.96,461.1121,388.7479,460.7314,388.6534,460.3993,388.2508,459.9397,388.1733,459.6147,388,459.25,387.6124,459.25,388.284,449.125,388.2468,439,388.5524,428.875,387.7703,418.75,387.8656,408.625,388.4435,398.5,388.5673,388.375,387.4875,378.25,387.8061,368.125,388.1493,358,387.3892,347.875,388.3534,337.75,388.258,327.625,388,317.5,387.969,317.4871,388.1903,317.1646,388.5173,316.8858,388.343,316.3994,388.6828,316.126,388.7322,315.7322,388.7687,315.8202,389.1006,315.6214,389.4573,315.4827,389.8074,315.3278,390.0668,314.9542,390.5,315" style="stroke:#181818;stroke-width:0.5;"/><polygon fill="#C2C2C2" points="506.8108,339.0272,505.1984,341.2304,503.2912,344.4573,500.5636,346.632,497.6974,347.8212,495.412,347.9244,492.4747,346.4371,489.7032,345.4655,487.5995,343.4927,486.4961,341.2343,485.8417,339.4361,485.2006,337.0873,484.16,335.066,484.9596,333.0926,485.6602,330.9308,488.2893,329.221,490.139,327.0027,492.4284,326.266,495.1501,325.6316,498.6404,326.0085,500.5521,326.9101,502.7747,327.3188,505.4772,330.0875,506.4193,333.0105,506.8286,335.0049,506.365,338.2914" style="stroke:#181818;stroke-width:1.0;"/><path d="M498.5156,332.2266 Q498.6719,332.0078 498.8594,331.8984 Q499.0469,331.7891 499.2656,331.7891 Q499.6406,331.7891 499.875,332.0547 Q500.1094,332.3047 500.1094,332.9141 L500.1094,334.3672 Q500.1094,334.9766 499.875,335.2422 Q499.6406,335.5078 499.2656,335.5078 Q498.9219,335.5078 498.7188,335.3047 Q498.5156,335.1172 498.4063,334.6016 Q498.3594,334.2422 498.1719,334.0547 Q497.8438,333.6797 497.2344,333.4609 Q496.625,333.2422 496,333.2422 Q495.2344,333.2422 494.5938,333.5703 Q493.9688,333.8984 493.4688,334.6484 Q492.9844,335.3984 492.9844,336.4297 L492.9844,337.5234 Q492.9844,338.7578 493.875,339.5859 Q494.7656,340.3984 496.3594,340.3984 Q497.2969,340.3984 497.9531,340.1484 Q498.3438,339.9922 498.7656,339.5547 Q499.0313,339.2891 499.1719,339.2109 Q499.3281,339.1328 499.5313,339.1328 Q499.8594,339.1328 500.1094,339.3984 Q500.375,339.6484 500.375,339.9922 Q500.375,340.3359 500.0313,340.7422 Q499.5313,341.3203 498.7344,341.6484 Q497.6563,342.1016 496.3594,342.1016 Q494.8438,342.1016 493.6406,341.4766 Q492.6563,340.9766 491.9688,339.9141 Q491.2813,338.8359 491.2813,337.5547 L491.2813,336.3984 Q491.2813,335.0703 491.8906,333.9297 Q492.5156,332.7734 493.6094,332.1641 Q494.7031,331.5391 495.9375,331.5391 Q496.6719,331.5391 497.3125,331.7109 Q497.9688,331.8672 498.5156,332.2266 Z " fill="#000000"/><text fill="#000000" font-family="FG Virgil" font-size="12" font-style="italic" lengthAdjust="spacing" textLength="53" x="530.75" y="332.457">«service»</text><text fill="#000000" font-family="FG Virgil" font-size="14" lengthAdjust="spacing" textLength="82" x="516.25" y="349.627">PostItService</text><path d="M389,357.7031 L389,357.9834 L399.1333,357.1507 L409.2667,357.9608 L419.4,358.236 L429.5333,356.7519 L439.6667,357.5995 L449.8,357.1345 L459.9333,357.1918 L470.0667,357.6122 L480.2,356.7813 L490.3333,358.4413 L500.4667,356.8628 L510.6,357.4394 L520.7333,358.2791 L530.8667,357.5888 L541,357.7941 L551.1333,357.6605 L561.2667,357.9412 L571.4,358.022 L581.5333,358.484 L591.6667,358.5979 L601.8,358.6088 L611.9333,358.0426 L622.0667,358.3212 L632.2,358.6394 L642.3333,356.7415 L652.4667,358.6078 L662.6,357.3078 L672.7333,358.4149 L682.8667,357.0431 L693,357.7031 " fill="#F1F1F1" style="stroke:#181818;stroke-width:0.5;"/><path d="M389,365.7031 L389,365.9834 L399.1333,365.1507 L409.2667,365.9608 L419.4,366.236 L429.5333,364.7519 L439.6667,365.5995 L449.8,365.1345 L459.9333,365.1918 L470.0667,365.6122 L480.2,364.7813 L490.3333,366.4413 L500.4667,364.8628 L510.6,365.4394 L520.7333,366.2791 L530.8667,365.5888 L541,365.7941 L551.1333,365.6605 L561.2667,365.9412 L571.4,366.022 L581.5333,366.484 L591.6667,366.5979 L601.8,366.6088 L611.9333,366.0426 L622.0667,366.3212 L632.2,366.6394 L642.3333,364.7415 L652.4667,366.6078 L662.6,365.3078 L672.7333,366.4149 L682.8667,365.0431 L693,365.7031 " fill="#F1F1F1" style="stroke:#181818;stroke-width:0.5;"/><text fill="#000000" font-family="FG Virgil" font-size="14" lengthAdjust="spacing" textLength="294" x="394" y="384.2363">createPostIt(String, String, String, User, String)</text><text fill="#000000" font-family="FG Virgil" font-size="14" lengthAdjust="spacing" textLength="234" x="394" y="401.8457">checkIfIsRowEntryTitle(String, Board)</text><text fill="#000000" font-family="FG Virgil" font-size="14" lengthAdjust="spacing" textLength="255" x="394" y="419.4551">checkIfIsColumnEntryTitle(String, Board)</text><text fill="#000000" font-family="FG Virgil" font-size="14" lengthAdjust="spacing" textLength="238" x="394" y="437.0645">postItByPosition(String, String, Board)</text><text fill="#000000" font-family="FG Virgil" font-size="14" lengthAdjust="spacing" textLength="108" x="394" y="454.6738">isNumeric(String)</text></g><!--MD5=[0182a422c6ed2cd05fe32b6e46ab69a0]
class PostItFactory--><g id="elem_PostItFactory"><polygon fill="#F1F1F1" points="9.5,549,9.5,549.2102,19.3889,548.5857,29.2778,549.1933,39.1667,549.3997,49.0556,548.2866,58.9444,548.9223,68.8333,548.5735,78.7222,548.6165,88.6111,548.9318,98.5,548.3086,108.3889,549.5536,118.2778,548.3697,128.1667,548.8022,138.0556,549.4319,147.9444,548.9142,157.8333,549.0682,167.7222,548.9681,177.6111,549.1785,187.5,549.2391,197.3889,549.5857,207.2778,549.6711,217.1667,549.6793,227.0556,549.2546,236.9444,549.4636,246.8333,549.7022,256.7222,548.2788,266.6111,549.6785,276.5,549,276.4622,548.9087,276.9216,549.3108,277.144,549.1404,277.5519,549.4182,278.0088,549.8142,278.2678,549.7322,278.2528,549.726,278.4466,550.0992,278.6649,550.4825,278.8353,550.846,278.8524,551.1459,279,551.5,279.2872,551.5,278.4276,561.6875,279.2844,571.875,279.5482,582.0625,279.4445,592.25,279.613,602.4375,278.5169,612.625,279,622.8125,278.7992,622.7293,278.6622,623.0868,278.689,623.5121,278.5001,623.8481,278.6241,624.3136,278.2678,624.5803,278.2455,624.5265,277.8705,624.6211,277.5898,624.9435,277.122,624.8142,276.7873,625.0062,276.5,625.3125,276.5,625.9615,266.6111,625.7482,256.7222,626.047,246.8333,624.9907,236.9444,625.6317,227.0556,625.9029,217.1667,624.8401,207.2778,625.2166,197.3889,625.4385,187.5,625.9643,177.6111,625.3083,167.7222,625.7751,157.8333,624.7587,147.9444,624.6352,138.0556,625.8161,128.1667,624.5956,118.2778,625.8215,108.3889,625.5191,98.5,625.0446,88.6111,624.9587,78.7222,625.7713,68.8333,625.0132,58.9444,625.9044,49.0556,624.7598,39.1667,625.9299,29.2778,625.7968,19.3889,625.5575,9.5,625.3125,9.506,625.327,9.2391,625.3898,8.8712,625.2086,8.4609,624.9253,8.12,624.8093,7.7322,624.5803,7.6921,624.5637,7.8064,624.3181,7.487,623.8929,7.346,623.5416,6.9591,623.0885,7,622.8125,6.5948,622.8125,7.5307,612.625,7.4298,602.4375,6.9571,592.25,6.6778,582.0625,6.7811,571.875,6.3138,561.6875,7,551.5,7.1277,551.5529,7.3742,551.2408,7.455,550.86,7.6534,550.528,7.5437,550.0683,7.7322,549.7322,7.7434,549.7591,8.0363,549.4664,8.4756,549.5268,8.8244,549.3689,9.2169,549.3166,9.5,549" style="stroke:#181818;stroke-width:0.5;"/><polygon fill="#C2C2C2" points="108.3108,573.0272,106.6984,575.2304,104.7912,578.4573,102.0636,580.632,99.1974,581.8212,96.912,581.9244,93.9747,580.4371,91.2032,579.4655,89.0995,577.4927,87.9961,575.2343,87.3417,573.4361,86.7006,571.0873,85.66,569.066,86.4596,567.0926,87.1602,564.9308,89.7893,563.221,91.639,561.0027,93.9284,560.266,96.6501,559.6316,100.1404,560.0085,102.0521,560.9101,104.2747,561.3188,106.9772,564.0875,107.9193,567.0105,108.3286,569.0049,107.865,572.2914" style="stroke:#181818;stroke-width:1.0;"/><path d="M100.0156,566.2266 Q100.1719,566.0078 100.3594,565.8984 Q100.5469,565.7891 100.7656,565.7891 Q101.1406,565.7891 101.375,566.0547 Q101.6094,566.3047 101.6094,566.9141 L101.6094,568.3672 Q101.6094,568.9766 101.375,569.2422 Q101.1406,569.5078 100.7656,569.5078 Q100.4219,569.5078 100.2188,569.3047 Q100.0156,569.1172 99.9063,568.6016 Q99.8594,568.2422 99.6719,568.0547 Q99.3438,567.6797 98.7344,567.4609 Q98.125,567.2422 97.5,567.2422 Q96.7344,567.2422 96.0938,567.5703 Q95.4688,567.8984 94.9688,568.6484 Q94.4844,569.3984 94.4844,570.4297 L94.4844,571.5234 Q94.4844,572.7578 95.375,573.5859 Q96.2656,574.3984 97.8594,574.3984 Q98.7969,574.3984 99.4531,574.1484 Q99.8438,573.9922 100.2656,573.5547 Q100.5313,573.2891 100.6719,573.2109 Q100.8281,573.1328 101.0313,573.1328 Q101.3594,573.1328 101.6094,573.3984 Q101.875,573.6484 101.875,573.9922 Q101.875,574.3359 101.5313,574.7422 Q101.0313,575.3203 100.2344,575.6484 Q99.1563,576.1016 97.8594,576.1016 Q96.3438,576.1016 95.1406,575.4766 Q94.1563,574.9766 93.4688,573.9141 Q92.7813,572.8359 92.7813,571.5547 L92.7813,570.3984 Q92.7813,569.0703 93.3906,567.9297 Q94.0156,566.7734 95.1094,566.1641 Q96.2031,565.5391 97.4375,565.5391 Q98.1719,565.5391 98.8125,565.7109 Q99.4688,565.8672 100.0156,566.2266 Z " fill="#000000"/><text fill="#000000" font-family="FG Virgil" font-size="12" font-style="italic" lengthAdjust="spacing" textLength="50" x="134.25" y="566.457">«factory»</text><text fill="#000000" font-family="FG Virgil" font-size="14" lengthAdjust="spacing" textLength="83" x="117.75" y="583.627">PostItFactory</text><path d="M8,591.7031 L8,591.9834 L18,591.1507 L28,591.9608 L38,592.236 L48,590.7519 L58,591.5995 L68,591.1345 L78,591.1918 L88,591.6122 L98,590.7813 L108,592.4413 L118,590.8628 L128,591.4394 L138,592.2791 L148,591.5888 L158,591.7941 L168,591.6605 L178,591.9412 L188,592.022 L198,592.484 L208,592.5979 L218,592.6088 L228,592.0426 L238,592.3212 L248,592.6394 L258,590.7415 L268,592.6078 L278,591.7031 " fill="#F1F1F1" style="stroke:#181818;stroke-width:0.5;"/><path d="M8,599.7031 L8,599.9834 L18,599.1507 L28,599.9608 L38,600.236 L48,598.7519 L58,599.5995 L68,599.1345 L78,599.1918 L88,599.6122 L98,598.7813 L108,600.4413 L118,598.8628 L128,599.4394 L138,600.2791 L148,599.5888 L158,599.7941 L168,599.6605 L178,599.9412 L188,600.022 L198,600.484 L208,600.5979 L218,600.6088 L228,600.0426 L238,600.3212 L248,600.6394 L258,598.7415 L268,600.6078 L278,599.7031 " fill="#F1F1F1" style="stroke:#181818;stroke-width:0.5;"/><text fill="#000000" font-family="FG Virgil" font-size="14" lengthAdjust="spacing" textLength="260" x="13" y="618.2363">create(String, String, String, User, Board)</text></g><!--MD5=[d98fa60e7e29446a1b02022748feb6fd]
class PostItRepository--><g id="elem_PostItRepository"><polygon fill="#F1F1F1" points="420.5,540,420.5,540.2102,430.5417,539.5857,440.5833,540.1933,450.625,540.3997,460.6667,539.2866,470.7083,539.9223,480.75,539.5735,490.7917,539.6165,500.8333,539.9318,510.875,539.3086,520.9167,540.5536,530.9583,539.3697,541,539.8022,551.0417,540.4319,561.0833,539.9142,571.125,540.0682,581.1667,539.9681,591.2083,540.1785,601.25,540.2391,611.2917,540.5857,621.3333,540.6711,631.375,540.6793,641.4167,540.2546,651.4583,540.4636,661.5,540,661.5896,540.2163,661.7616,539.9244,662.2937,540.5018,662.5228,540.348,662.9823,540.7502,663.2678,540.7322,663.1153,540.6691,663.3931,541.077,663.789,541.5339,663.6921,541.7867,663.886,542.1599,664,542.5,664.3386,542.5,664.4162,552.3802,663.9961,562.2604,664.2872,572.1406,663.4276,582.0208,664.2844,591.901,664.5482,601.7813,664.4445,611.6615,664.613,621.5417,664,631.4219,663.8512,631.3603,663.6527,631.6922,663.5157,632.0497,663.5425,632.475,663.3537,632.811,663.2678,633.1896,663.3547,633.3995,662.8919,633.2823,662.5169,633.3769,662.2362,633.6993,661.7685,633.5701,661.5,633.9219,661.5,633.4027,651.4583,634.5708,641.4167,634.3575,631.375,634.6564,621.3333,633.6001,611.2917,634.2411,601.25,634.5123,591.2083,633.4495,581.1667,633.826,571.125,634.0479,561.0833,634.5736,551.0417,633.9177,541,634.3844,530.9583,633.3681,520.9167,633.2446,510.875,634.4255,500.8333,633.2049,490.7917,634.4308,480.75,634.1285,470.7083,633.654,460.6667,633.5681,450.625,634.3806,440.5833,633.6225,430.5417,634.5137,420.5,633.9219,420.4295,633.7517,420.2252,633.9656,419.8547,633.7781,419.4706,633.558,419.0918,633.3506,418.7322,633.1896,418.956,633.2823,418.7747,632.9144,418.4915,632.5041,418.3755,632.1632,418.1063,631.7588,418,631.4219,418.7165,631.4219,418.1549,621.5417,418.1726,611.6615,417.3916,601.7813,417.5948,591.901,418.5307,582.0208,418.4298,572.1406,417.9571,562.2604,417.6778,552.3802,418,542.5,417.9326,542.4721,417.9351,542.0589,418.4206,541.8458,418.6671,541.5337,418.7479,541.1529,418.7322,540.7322,418.8209,540.9462,419.0683,540.5437,419.4505,540.4662,419.7435,540.1735,420.1827,540.2339,420.5,540" style="stroke:#181818;stroke-width:0.5;"/><polygon fill="#C2C2C2" points="496.3108,564.0272,494.6984,566.2304,492.7912,569.4573,490.0636,571.632,487.1974,572.8212,484.912,572.9244,481.9747,571.4371,479.2032,570.4655,477.0995,568.4927,475.9961,566.2343,475.3417,564.4361,474.7006,562.0873,473.66,560.066,474.4596,558.0926,475.1602,555.9308,477.7893,554.221,479.639,552.0027,481.9284,551.266,484.6501,550.6316,488.1404,551.0085,490.0521,551.9101,492.2747,552.3188,494.9772,555.0875,495.9193,558.0105,496.3286,560.0049,495.865,563.2914" style="stroke:#181818;stroke-width:1.0;"/><path d="M488.0156,557.2266 Q488.1719,557.0078 488.3594,556.8984 Q488.5469,556.7891 488.7656,556.7891 Q489.1406,556.7891 489.375,557.0547 Q489.6094,557.3047 489.6094,557.9141 L489.6094,559.3672 Q489.6094,559.9766 489.375,560.2422 Q489.1406,560.5078 488.7656,560.5078 Q488.4219,560.5078 488.2188,560.3047 Q488.0156,560.1172 487.9063,559.6016 Q487.8594,559.2422 487.6719,559.0547 Q487.3438,558.6797 486.7344,558.4609 Q486.125,558.2422 485.5,558.2422 Q484.7344,558.2422 484.0938,558.5703 Q483.4688,558.8984 482.9688,559.6484 Q482.4844,560.3984 482.4844,561.4297 L482.4844,562.5234 Q482.4844,563.7578 483.375,564.5859 Q484.2656,565.3984 485.8594,565.3984 Q486.7969,565.3984 487.4531,565.1484 Q487.8438,564.9922 488.2656,564.5547 Q488.5313,564.2891 488.6719,564.2109 Q488.8281,564.1328 489.0313,564.1328 Q489.3594,564.1328 489.6094,564.3984 Q489.875,564.6484 489.875,564.9922 Q489.875,565.3359 489.5313,565.7422 Q489.0313,566.3203 488.2344,566.6484 Q487.1563,567.1016 485.8594,567.1016 Q484.3438,567.1016 483.1406,566.4766 Q482.1563,565.9766 481.4688,564.9141 Q480.7813,563.8359 480.7813,562.5547 L480.7813,561.3984 Q480.7813,560.0703 481.3906,558.9297 Q482.0156,557.7734 483.1094,557.1641 Q484.2031,556.5391 485.4375,556.5391 Q486.1719,556.5391 486.8125,556.7109 Q487.4688,556.8672 488.0156,557.2266 Z " fill="#000000"/><text fill="#000000" font-family="FG Virgil" font-size="12" font-style="italic" lengthAdjust="spacing" textLength="68" x="523.25" y="557.457">«repository»</text><text fill="#000000" font-family="FG Virgil" font-size="14" lengthAdjust="spacing" textLength="103" x="505.75" y="574.627">PostItRepository</text><path d="M419,582.7031 L419,582.9834 L429.1667,582.1507 L439.3333,582.9608 L449.5,583.236 L459.6667,581.7519 L469.8333,582.5995 L480,582.1345 L490.1667,582.1918 L500.3333,582.6122 L510.5,581.7813 L520.6667,583.4413 L530.8333,581.8628 L541,582.4394 L551.1667,583.2791 L561.3333,582.5888 L571.5,582.7941 L581.6667,582.6605 L591.8333,582.9412 L602,583.022 L612.1667,583.484 L622.3333,583.5979 L632.5,583.6088 L642.6667,583.0426 L652.8333,583.3212 L663,582.7031 " fill="#F1F1F1" style="stroke:#181818;stroke-width:0.5;"/><path d="M419,590.7031 L419,590.9834 L429.1667,590.1507 L439.3333,590.9608 L449.5,591.236 L459.6667,589.7519 L469.8333,590.5995 L480,590.1345 L490.1667,590.1918 L500.3333,590.6122 L510.5,589.7813 L520.6667,591.4413 L530.8333,589.8628 L541,590.4394 L551.1667,591.2791 L561.3333,590.5888 L571.5,590.7941 L581.6667,590.6605 L591.8333,590.9412 L602,591.022 L612.1667,591.484 L622.3333,591.5979 L632.5,591.6088 L642.6667,591.0426 L652.8333,591.3212 L663,590.7031 " fill="#F1F1F1" style="stroke:#181818;stroke-width:0.5;"/><text fill="#000000" font-family="FG Virgil" font-size="14" lengthAdjust="spacing" textLength="234" x="424" y="609.2363">positByPosition(String, String, Board)</text><text fill="#000000" font-family="FG Virgil" font-size="14" lengthAdjust="spacing" textLength="75" x="424" y="626.8457">save(PostIt)</text></g><!--MD5=[343839bb48731e46d0fda742d45fdd31]
class BoardRepository--><g id="elem_BoardRepository"><polygon fill="#F1F1F1" points="805.5,549,805.5,549.2102,815.7308,548.5857,825.9615,549.1933,836.1923,549.3997,846.4231,548.2866,856.6538,548.9223,866.8846,548.5735,877.1154,548.6165,887.3462,548.9318,897.5769,548.3086,907.8077,549.5536,918.0385,548.3697,928.2692,548.8022,938.5,549,938.5551,549.133,938.8426,549.12,939.2158,549.3139,939.5566,549.4295,939.937,549.6408,940.2678,549.7322,940.3414,549.7627,940.5946,550.1605,940.7673,550.5249,940.9163,550.8795,940.932,551.1789,941,551.5,941.4636,551.5,941.7022,561.6875,940.2788,571.875,941.6785,582.0625,940.7035,592.25,941.5338,602.4375,940.505,612.625,941,622.8125,940.9789,622.8038,941.0819,623.2607,940.6921,623.5134,940.5931,623.8866,940.5185,624.2699,940.2678,624.5803,940.3209,624.7084,939.9137,624.7255,939.5973,624.9616,939.1341,624.8433,938.8898,625.2536,938.5,625.3125,938.5,625.8607,928.2692,625.757,918.0385,625.9255,907.8077,624.8294,897.5769,624.6603,887.3462,624.6911,877.1154,625.2536,866.8846,625.116,856.6538,625.9939,846.4231,625.1378,836.1923,624.9694,825.9615,625.5408,815.7308,624.6457,805.5,625.3125,805.4338,625.1526,805.2292,625.3659,804.8485,625.1538,804.533,625.0994,804.0447,624.6276,803.7322,624.5803,803.8305,624.621,803.7676,624.302,803.2939,623.8129,803.2634,623.5074,803.1852,623.1821,803,622.8125,803.6518,622.8125,802.9958,612.625,803.4626,602.4375,802.4462,592.25,802.3227,582.0625,803.5036,571.875,802.2831,561.6875,803,551.5,803.1567,551.5649,803.2101,551.1728,803.2104,550.7587,803.3304,550.3942,803.7271,550.1443,803.7322,549.7322,803.694,549.6401,804.1613,549.7681,804.3688,549.2691,804.8717,549.483,805.2082,549.2956,805.5,549" style="stroke:#181818;stroke-width:0.5;"/><polygon fill="#C2C2C2" points="829.0608,573.0272,827.4484,575.2304,825.5412,578.4573,822.8136,580.632,819.9474,581.8212,817.662,581.9244,814.7247,580.4371,811.9532,579.4655,809.8495,577.4927,808.7461,575.2343,808.0917,573.4361,807.4506,571.0873,806.41,569.066,807.2096,567.0926,807.9102,564.9308,810.5393,563.221,812.389,561.0027,814.6784,560.266,817.4001,559.6316,820.8904,560.0085,822.8021,560.9101,825.0247,561.3188,827.7272,564.0875,828.6693,567.0105,829.0786,569.0049,828.615,572.2914" style="stroke:#181818;stroke-width:1.0;"/><path d="M820.7656,566.2266 Q820.9219,566.0078 821.1094,565.8984 Q821.2969,565.7891 821.5156,565.7891 Q821.8906,565.7891 822.125,566.0547 Q822.3594,566.3047 822.3594,566.9141 L822.3594,568.3672 Q822.3594,568.9766 822.125,569.2422 Q821.8906,569.5078 821.5156,569.5078 Q821.1719,569.5078 820.9688,569.3047 Q820.7656,569.1172 820.6563,568.6016 Q820.6094,568.2422 820.4219,568.0547 Q820.0938,567.6797 819.4844,567.4609 Q818.875,567.2422 818.25,567.2422 Q817.4844,567.2422 816.8438,567.5703 Q816.2188,567.8984 815.7188,568.6484 Q815.2344,569.3984 815.2344,570.4297 L815.2344,571.5234 Q815.2344,572.7578 816.125,573.5859 Q817.0156,574.3984 818.6094,574.3984 Q819.5469,574.3984 820.2031,574.1484 Q820.5938,573.9922 821.0156,573.5547 Q821.2813,573.2891 821.4219,573.2109 Q821.5781,573.1328 821.7813,573.1328 Q822.1094,573.1328 822.3594,573.3984 Q822.625,573.6484 822.625,573.9922 Q822.625,574.3359 822.2813,574.7422 Q821.7813,575.3203 820.9844,575.6484 Q819.9063,576.1016 818.6094,576.1016 Q817.0938,576.1016 815.8906,575.4766 Q814.9063,574.9766 814.2188,573.9141 Q813.5313,572.8359 813.5313,571.5547 L813.5313,570.3984 Q813.5313,569.0703 814.1406,567.9297 Q814.7656,566.7734 815.8594,566.1641 Q816.9531,565.5391 818.1875,565.5391 Q818.9219,565.5391 819.5625,565.7109 Q820.2188,565.8672 820.7656,566.2266 Z " fill="#000000"/><text fill="#000000" font-family="FG Virgil" font-size="12" font-style="italic" lengthAdjust="spacing" textLength="68" x="851" y="566.457">«repository»</text><text fill="#000000" font-family="FG Virgil" font-size="14" lengthAdjust="spacing" textLength="106" x="832" y="583.627">BoardRepository</text><path d="M804,591.7031 L804,591.9834 L813.7143,591.1507 L823.4286,591.9608 L833.1429,592.236 L842.8571,590.7519 L852.5714,591.5995 L862.2857,591.1345 L872,591.1918 L881.7143,591.6122 L891.4286,590.7813 L901.1429,592.4413 L910.8571,590.8628 L920.5714,591.4394 L930.2857,592.2791 L940,591.7031 " fill="#F1F1F1" style="stroke:#181818;stroke-width:0.5;"/><path d="M804,599.7031 L804,599.9834 L813.7143,599.1507 L823.4286,599.9608 L833.1429,600.236 L842.8571,598.7519 L852.5714,599.5995 L862.2857,599.1345 L872,599.1918 L881.7143,599.6122 L891.4286,598.7813 L901.1429,600.4413 L910.8571,598.8628 L920.5714,599.4394 L930.2857,600.2791 L940,599.7031 " fill="#F1F1F1" style="stroke:#181818;stroke-width:0.5;"/><text fill="#000000" font-family="FG Virgil" font-size="14" lengthAdjust="spacing" textLength="99" x="809" y="618.2363">ofIdentity(Long)</text></g><!--MD5=[458552462bbdcbc92793825846cc11c0]
class PostIt--><g id="elem_PostIt"><polygon fill="#F1F1F1" points="309.5,703.5,309.5,703.7102,319.375,703.0857,329.25,703.6933,339.125,703.8997,349,702.7866,358.875,703.4223,368.75,703.0735,378.625,703.1165,388.5,703.5,388.4913,703.479,388.7654,703.4335,389.2777,703.9634,389.4803,703.7452,389.889,704.0249,390.2678,704.2322,390.4008,704.2873,390.3878,704.5748,390.5817,704.948,390.6973,705.2888,390.9085,705.6692,391,706,391.2391,706,391.5857,716.7406,391.6711,727.4813,391.6793,738.2219,391.2546,748.9625,391,759.7031,391.1428,759.7623,391.0698,760.1463,390.485,760.3182,390.7696,760.8503,390.3229,761.0795,390.2678,761.4709,390.3359,761.6353,389.8511,761.4649,389.5519,761.7427,389.3017,762.1386,388.8473,762.0417,388.5,762.2031,388.5,762.3084,378.625,762.5418,368.75,762.6194,358.875,762.1992,349,762.4903,339.125,761.6307,329.25,762.4875,319.375,762.7513,309.5,762.2031,309.5567,762.34,309.2246,762.2455,308.7313,761.7615,308.3561,761.5629,308.0065,761.426,307.7322,761.4709,307.7141,761.4634,307.5253,761.0923,307.6492,760.8507,307.2391,760.3879,307.0408,760.0129,307,759.7031,307.2283,759.7031,306.3332,748.9625,306.4809,738.2219,307.649,727.4813,307.4357,716.7406,307,706,307.2262,706.0937,307.0473,705.6054,307.3912,705.3336,307.6212,705.0147,307.4403,704.5255,307.7322,704.2322,307.72,704.2027,308.1019,704.1246,308.5225,704.1401,308.7924,703.7916,309.2055,703.7889,309.5,703.5" style="stroke:#181818;stroke-width:0.5;"/><polygon fill="#C2C2C2" points="333.0608,727.5272,331.4484,729.7304,329.5412,732.9573,326.8136,735.132,323.9474,736.3212,321.662,736.4244,318.7247,734.9371,315.9532,733.9655,313.8495,731.9927,312.7461,729.7343,312.0917,727.9361,311.4506,725.5873,310.41,723.566,311.2096,721.5926,311.9102,719.4308,314.5393,717.721,316.389,715.5027,318.6784,714.766,321.4001,714.1316,324.8904,714.5085,326.8021,715.4101,329.0247,715.8188,331.7272,718.5875,332.6693,721.5105,333.0786,723.5049,332.615,726.7914" style="stroke:#181818;stroke-width:1.0;"/><path d="M324.7656,720.7266 Q324.9219,720.5078 325.1094,720.3984 Q325.2969,720.2891 325.5156,720.2891 Q325.8906,720.2891 326.125,720.5547 Q326.3594,720.8047 326.3594,721.4141 L326.3594,722.8672 Q326.3594,723.4766 326.125,723.7422 Q325.8906,724.0078 325.5156,724.0078 Q325.1719,724.0078 324.9688,723.8047 Q324.7656,723.6172 324.6563,723.1016 Q324.6094,722.7422 324.4219,722.5547 Q324.0938,722.1797 323.4844,721.9609 Q322.875,721.7422 322.25,721.7422 Q321.4844,721.7422 320.8438,722.0703 Q320.2188,722.3984 319.7188,723.1484 Q319.2344,723.8984 319.2344,724.9297 L319.2344,726.0234 Q319.2344,727.2578 320.125,728.0859 Q321.0156,728.8984 322.6094,728.8984 Q323.5469,728.8984 324.2031,728.6484 Q324.5938,728.4922 325.0156,728.0547 Q325.2813,727.7891 325.4219,727.7109 Q325.5781,727.6328 325.7813,727.6328 Q326.1094,727.6328 326.3594,727.8984 Q326.625,728.1484 326.625,728.4922 Q326.625,728.8359 326.2813,729.2422 Q325.7813,729.8203 324.9844,730.1484 Q323.9063,730.6016 322.6094,730.6016 Q321.0938,730.6016 319.8906,729.9766 Q318.9063,729.4766 318.2188,728.4141 Q317.5313,727.3359 317.5313,726.0547 L317.5313,724.8984 Q317.5313,723.5703 318.1406,722.4297 Q318.7656,721.2734 319.8594,720.6641 Q320.9531,720.0391 322.1875,720.0391 Q322.9219,720.0391 323.5625,720.2109 Q324.2188,720.3672 324.7656,720.7266 Z " fill="#000000"/><text fill="#000000" font-family="FG Virgil" font-size="12" font-style="italic" lengthAdjust="spacing" textLength="56" x="334" y="720.957">«domain»</text><text fill="#000000" font-family="FG Virgil" font-size="14" lengthAdjust="spacing" textLength="35" x="344.5" y="738.127">PostIt</text><path d="M308,746.2031 L308,746.4834 L318.25,745.6507 L328.5,746.4608 L338.75,746.736 L349,745.2519 L359.25,746.0995 L369.5,745.6345 L379.75,745.6918 L390,746.2031 " fill="#F1F1F1" style="stroke:#181818;stroke-width:0.5;"/><path d="M308,754.2031 L308,754.4834 L318.25,753.6507 L328.5,754.4608 L338.75,754.736 L349,753.2519 L359.25,754.0995 L369.5,753.6345 L379.75,753.6918 L390,754.2031 " fill="#F1F1F1" style="stroke:#181818;stroke-width:0.5;"/></g><!--MD5=[3fd616f346a44cd59a91eb10b19e157c]
class User--><g id="elem_User"><polygon fill="#F1F1F1" points="771.5,359,771.5,359.2102,781.375,358.5857,791.25,359.1933,801.125,359.3997,811,358.2866,820.875,358.9223,830.75,358.5735,840.625,358.6165,850.5,359,850.4913,358.979,850.7654,358.9335,851.2777,359.4634,851.4803,359.2452,851.889,359.5249,852.2678,359.7322,852.4008,359.7873,852.3878,360.0748,852.5817,360.448,852.6973,360.7888,852.9085,361.1692,853,361.5,853.2391,361.5,853.5857,372.2406,853.6711,382.9813,853.6793,393.7219,853.2546,404.4625,853,415.2031,853.1428,415.2623,853.0698,415.6463,852.485,415.8182,852.7696,416.3503,852.3229,416.5795,852.2678,416.9709,852.3359,417.1353,851.8511,416.9649,851.5519,417.2427,851.3017,417.6386,850.8473,417.5417,850.5,417.7031,850.5,417.8084,840.625,418.0418,830.75,418.1194,820.875,417.6992,811,417.9903,801.125,417.1307,791.25,417.9875,781.375,418.2513,771.5,417.7031,771.5567,417.84,771.2246,417.7455,770.7313,417.2615,770.3561,417.0629,770.0065,416.926,769.7322,416.9709,769.7141,416.9634,769.5253,416.5923,769.6492,416.3507,769.2391,415.8879,769.0408,415.5129,769,415.2031,769.2283,415.2031,768.3332,404.4625,768.4809,393.7219,769.649,382.9813,769.4357,372.2406,769,361.5,769.2262,361.5937,769.0473,361.1054,769.3912,360.8336,769.6212,360.5147,769.4403,360.0255,769.7322,359.7322,769.72,359.7027,770.1019,359.6246,770.5225,359.6401,770.7924,359.2916,771.2055,359.2889,771.5,359" style="stroke:#181818;stroke-width:0.5;"/><polygon fill="#C2C2C2" points="795.0608,383.0272,793.4484,385.2304,791.5412,388.4573,788.8136,390.632,785.9474,391.8212,783.662,391.9244,780.7247,390.4371,777.9532,389.4655,775.8495,387.4927,774.7461,385.2343,774.0917,383.4361,773.4506,381.0873,772.41,379.066,773.2096,377.0926,773.9102,374.9308,776.5393,373.221,778.389,371.0027,780.6784,370.266,783.4001,369.6316,786.8904,370.0085,788.8021,370.9101,791.0247,371.3188,793.7272,374.0875,794.6693,377.0105,795.0786,379.0049,794.615,382.2914" style="stroke:#181818;stroke-width:1.0;"/><path d="M786.7656,376.2266 Q786.9219,376.0078 787.1094,375.8984 Q787.2969,375.7891 787.5156,375.7891 Q787.8906,375.7891 788.125,376.0547 Q788.3594,376.3047 788.3594,376.9141 L788.3594,378.3672 Q788.3594,378.9766 788.125,379.2422 Q787.8906,379.5078 787.5156,379.5078 Q787.1719,379.5078 786.9688,379.3047 Q786.7656,379.1172 786.6563,378.6016 Q786.6094,378.2422 786.4219,378.0547 Q786.0938,377.6797 785.4844,377.4609 Q784.875,377.2422 784.25,377.2422 Q783.4844,377.2422 782.8438,377.5703 Q782.2188,377.8984 781.7188,378.6484 Q781.2344,379.3984 781.2344,380.4297 L781.2344,381.5234 Q781.2344,382.7578 782.125,383.5859 Q783.0156,384.3984 784.6094,384.3984 Q785.5469,384.3984 786.2031,384.1484 Q786.5938,383.9922 787.0156,383.5547 Q787.2813,383.2891 787.4219,383.2109 Q787.5781,383.1328 787.7813,383.1328 Q788.1094,383.1328 788.3594,383.3984 Q788.625,383.6484 788.625,383.9922 Q788.625,384.3359 788.2813,384.7422 Q787.7813,385.3203 786.9844,385.6484 Q785.9063,386.1016 784.6094,386.1016 Q783.0938,386.1016 781.8906,385.4766 Q780.9063,384.9766 780.2188,383.9141 Q779.5313,382.8359 779.5313,381.5547 L779.5313,380.3984 Q779.5313,379.0703 780.1406,377.9297 Q780.7656,376.7734 781.8594,376.1641 Q782.9531,375.5391 784.1875,375.5391 Q784.9219,375.5391 785.5625,375.7109 Q786.2188,375.8672 786.7656,376.2266 Z " fill="#000000"/><text fill="#000000" font-family="FG Virgil" font-size="12" font-style="italic" lengthAdjust="spacing" textLength="56" x="796" y="376.457">«domain»</text><text fill="#000000" font-family="FG Virgil" font-size="14" lengthAdjust="spacing" textLength="29" x="809.5" y="393.627">User</text><path d="M770,401.7031 L770,401.9834 L780.25,401.1507 L790.5,401.9608 L800.75,402.236 L811,400.7519 L821.25,401.5995 L831.5,401.1345 L841.75,401.1918 L852,401.7031 " fill="#F1F1F1" style="stroke:#181818;stroke-width:0.5;"/><path d="M770,409.7031 L770,409.9834 L780.25,409.1507 L790.5,409.9608 L800.75,410.236 L811,408.7519 L821.25,409.5995 L831.5,409.1345 L841.75,409.1918 L852,409.7031 " fill="#F1F1F1" style="stroke:#181818;stroke-width:0.5;"/></g><!--MD5=[9563755d011c5cec7ec66dc53565a59e]
class Board--><g id="elem_Board"><polygon fill="#F1F1F1" points="652,695,652,695.2102,662.16,694.5857,672.32,695.1933,682.48,695.3997,692.64,694.2866,702.8,694.9223,712.96,694.5735,723.12,694.6165,733.28,694.9318,743.44,694.3086,753.6,695.5536,763.76,694.3697,773.92,694.8022,784.08,695.4319,794.24,694.9142,804.4,695.0682,814.56,694.9681,824.72,695.1785,834.88,695.2391,845.04,695.5857,855.2,695.6711,865.36,695.6793,875.52,695.2546,885.68,695.4636,895.84,695.7022,906,695,905.908,694.7779,906.4401,695.3554,906.6693,695.2016,907.1288,695.6037,907.3511,695.4333,907.7678,695.7322,907.7467,695.7235,908.1426,696.1804,908.0457,696.4331,908.2395,696.8063,908.4578,697.1896,908.5,697.5,908.9162,697.5,908.4961,707.6875,908.7872,717.875,907.9276,728.0625,908.7844,738.25,909.0482,748.4375,908.9445,758.625,908.5,768.8125,908.6888,768.8907,908.2048,769.1044,908.0063,769.4364,907.8693,769.7939,907.8961,770.2192,907.7678,770.5803,907.7427,770.5197,907.5011,770.9366,907.0384,770.8194,906.6633,770.914,906.3827,771.2364,906,771.3125,906,770.6457,895.84,770.7934,885.68,771.9615,875.52,771.7482,865.36,772.047,855.2,770.9907,845.04,771.6317,834.88,771.9029,824.72,770.8401,814.56,771.2166,804.4,771.4385,794.24,771.9643,784.08,771.3083,773.92,771.7751,763.76,770.7587,753.6,770.6352,743.44,771.8161,733.28,770.5956,723.12,771.8215,712.96,771.5191,702.8,771.0446,692.64,770.9587,682.48,771.7713,672.32,771.0132,662.16,771.9044,652,771.3125,651.9295,771.1423,651.7252,771.3562,651.3547,771.1688,650.9706,770.9486,650.5918,770.7413,650.2322,770.5803,650.456,770.673,650.2747,770.305,649.9915,769.8948,649.8755,769.5538,649.6063,769.1494,649.5,768.8125,650.2165,768.8125,649.6549,758.625,649.6726,748.4375,648.8916,738.25,649.0948,728.0625,650.0307,717.875,649.9298,707.6875,649.5,697.5,649.4868,697.4945,649.5472,697.1054,649.7255,696.765,649.728,696.3518,650.2135,696.1387,650.2322,695.7322,650.3266,695.96,650.6529,695.7479,651.028,695.6534,651.2755,695.2508,651.6576,695.1733,652,695" style="stroke:#181818;stroke-width:0.5;"/><polygon fill="#C2C2C2" points="759.8108,719.0272,758.1984,721.2304,756.2912,724.4573,753.5636,726.632,750.6974,727.8212,748.412,727.9244,745.4747,726.4371,742.7032,725.4655,740.5995,723.4927,739.4961,721.2343,738.8417,719.4361,738.2006,717.0873,737.16,715.066,737.9596,713.0926,738.6602,710.9308,741.2893,709.221,743.139,707.0027,745.4284,706.266,748.1501,705.6316,751.6404,706.0085,753.5521,706.9101,755.7747,707.3188,758.4772,710.0875,759.4193,713.0105,759.8286,715.0049,759.365,718.2914" style="stroke:#181818;stroke-width:1.0;"/><path d="M751.5156,712.2266 Q751.6719,712.0078 751.8594,711.8984 Q752.0469,711.7891 752.2656,711.7891 Q752.6406,711.7891 752.875,712.0547 Q753.1094,712.3047 753.1094,712.9141 L753.1094,714.3672 Q753.1094,714.9766 752.875,715.2422 Q752.6406,715.5078 752.2656,715.5078 Q751.9219,715.5078 751.7188,715.3047 Q751.5156,715.1172 751.4063,714.6016 Q751.3594,714.2422 751.1719,714.0547 Q750.8438,713.6797 750.2344,713.4609 Q749.625,713.2422 749,713.2422 Q748.2344,713.2422 747.5938,713.5703 Q746.9688,713.8984 746.4688,714.6484 Q745.9844,715.3984 745.9844,716.4297 L745.9844,717.5234 Q745.9844,718.7578 746.875,719.5859 Q747.7656,720.3984 749.3594,720.3984 Q750.2969,720.3984 750.9531,720.1484 Q751.3438,719.9922 751.7656,719.5547 Q752.0313,719.2891 752.1719,719.2109 Q752.3281,719.1328 752.5313,719.1328 Q752.8594,719.1328 753.1094,719.3984 Q753.375,719.6484 753.375,719.9922 Q753.375,720.3359 753.0313,720.7422 Q752.5313,721.3203 751.7344,721.6484 Q750.6563,722.1016 749.3594,722.1016 Q747.8438,722.1016 746.6406,721.4766 Q745.6563,720.9766 744.9688,719.9141 Q744.2813,718.8359 744.2813,717.5547 L744.2813,716.3984 Q744.2813,715.0703 744.8906,713.9297 Q745.5156,712.7734 746.6094,712.1641 Q747.7031,711.5391 748.9375,711.5391 Q749.6719,711.5391 750.3125,711.7109 Q750.9688,711.8672 751.5156,712.2266 Z " fill="#000000"/><text fill="#000000" font-family="FG Virgil" font-size="12" font-style="italic" lengthAdjust="spacing" textLength="56" x="767.25" y="712.457">«domain»</text><text fill="#000000" font-family="FG Virgil" font-size="14" lengthAdjust="spacing" textLength="38" x="776.25" y="729.627">Board</text><path d="M650.5,737.7031 L650.5,737.9834 L660.3846,737.1507 L670.2692,737.9608 L680.1538,738.236 L690.0385,736.7519 L699.9231,737.5995 L709.8077,737.1345 L719.6923,737.1918 L729.5769,737.6122 L739.4615,736.7813 L749.3462,738.4413 L759.2308,736.8628 L769.1154,737.4394 L779,738.2791 L788.8846,737.5888 L798.7692,737.7941 L808.6538,737.6605 L818.5385,737.9412 L828.4231,738.022 L838.3077,738.484 L848.1923,738.5979 L858.0769,738.6088 L867.9615,738.0426 L877.8462,738.3212 L887.7308,738.6394 L897.6154,736.7415 L907.5,737.7031 " fill="#F1F1F1" style="stroke:#181818;stroke-width:0.5;"/><path d="M650.5,745.7031 L650.5,745.9834 L660.3846,745.1507 L670.2692,745.9608 L680.1538,746.236 L690.0385,744.7519 L699.9231,745.5995 L709.8077,745.1345 L719.6923,745.1918 L729.5769,745.6122 L739.4615,744.7813 L749.3462,746.4413 L759.2308,744.8628 L769.1154,745.4394 L779,746.2791 L788.8846,745.5888 L798.7692,745.7941 L808.6538,745.6605 L818.5385,745.9412 L828.4231,746.022 L838.3077,746.484 L848.1923,746.5979 L858.0769,746.6088 L867.9615,746.0426 L877.8462,746.3212 L887.7308,746.6394 L897.6154,744.7415 L907.5,745.7031 " fill="#F1F1F1" style="stroke:#181818;stroke-width:0.5;"/><text fill="#000000" font-family="FG Virgil" font-size="14" lengthAdjust="spacing" textLength="247" x="655.5" y="764.2363">userHasPermission(User, AccessLevel)</text></g><!--MD5=[5b492439c7d72eccc85b0e7f3ef1fd85]
link HttpServerAjax to CreatePostItController--><g id="link_HttpServerAjax_CreatePostItController"><path d="M642.22,83.18 L642.4302,83.3653 L635.2976,90.1967 L629.3973,98.1144 L623.0957,105.6784 L615.4745,112.079 L609.6023,120.0215 L602.7454,127.0959 L596.2804,134.5159 L590.0878,142.1759 L582.9565,149.0084 L577.14,157 " fill="none" style="stroke:#181818;stroke-width:1.0;"/><polygon fill="#181818" points="573.67,160.94,573.6992,161.0037,575.4029,159.9934,577.2778,159.3564,579.097,158.5978,580.7328,157.4395,582.6224,156.8346,582.6208,156.8087,581.4843,156.7637,580.3561,156.849,579.2335,157.0249,578.0914,156.8886,576.9767,157.1896,577.1609,157.2011,576.696,156.0472,576.7689,154.9271,576.9074,153.8112,576.6641,152.6712,576.6217,151.5439,576.6434,151.5507,576.0212,153.4199,575.4978,155.3201,574.9267,157.2054,574.4466,159.1193,573.67,160.94" style="stroke:#181818;stroke-width:1.0;"/><text fill="#000000" font-family="FG Virgil" font-size="13" lengthAdjust="spacing" textLength="73" x="614" y="127.4951">theController</text></g><!--MD5=[886edeef38e246f68555233ed43ef7bd]
link HttpServerAjax to SessionManager--><g id="link_HttpServerAjax_SessionManager"><path d="M708.27,83.18 L708.4789,83.3669 L714.2756,89.9844 L721.2966,97.6973 L727.919,105.0535 L733.2302,111.2367 L740.2791,118.9745 L746.3498,125.8372 L752.8098,133.0482 L759.5405,140.5012 L765.3385,147.1199 L772.9929,155.3995 L778.86,162.08 " fill="none" style="stroke:#181818;stroke-width:1.0;"/><polygon fill="#181818" points="782.22,165.83,782.2867,165.8516,781.4827,163.9133,781.0695,162.1013,780.529,160.2482,779.57,158.2598,779.1904,156.4587,779.1645,156.4573,778.9868,157.5806,778.9395,158.7111,778.9828,159.8465,778.7138,160.9649,778.8823,162.1072,778.8923,162.2914,777.7411,161.8358,776.6193,161.9181,775.501,162.0661,774.362,161.8321,773.2338,161.7991,773.2431,161.8198,775.0267,162.5955,776.8526,163.4657,778.6582,164.2904,780.5027,165.2019,782.22,165.83" style="stroke:#181818;stroke-width:1.0;"/><text fill="#000000" font-family="FG Virgil" font-size="13" lengthAdjust="spacing" textLength="95" x="749" y="127.4951">sessionManager</text></g><!--MD5=[cfa8c6cc09150aa1a34895e749736282]
link SessionManager to User--><g id="link_SessionManager_User"><path d="M811,232.23 L811.2802,232.23 L810.4476,242.3267 L811.2577,252.4233 L811.5329,262.52 L810.0488,272.6167 L810.8964,282.7133 L810.4313,292.81 L810.4887,302.9067 L810.9091,313.0033 L810.0782,323.1 L811.7382,333.1967 L810.1596,343.2933 L811,353.39 " fill="none" style="stroke:#181818;stroke-width:1.0;stroke-dasharray:7.0,7.0;"/><polygon fill="#181818" points="811,358.76,811.064,358.7885,811.6738,356.9039,812.6589,355.1862,813.5217,353.4141,813.9827,351.4634,815,349.76,814.9817,349.7417,814.0995,350.4595,813.3096,351.2696,812.5839,352.1439,811.637,352.797,811,353.76,811.1305,353.8905,810.0514,352.8114,809.3534,352.1134,808.7018,351.4618,807.7798,350.5398,807,349.76,807.0208,349.7692,807.7903,351.5557,808.6544,353.3842,809.4728,355.1924,810.3784,357.0393,811,358.76" style="stroke:#181818;stroke-width:1.0;"/></g><!--MD5=[4b03a02e88ef3721d1a2bf82f5cad9dc]
link CreatePostItController to PostItService--><g id="link_CreatePostItController_PostItService"><path d="M541,237.04 L541.2802,237.04 L540.4476,247.4386 L541.2577,257.8371 L541.5329,268.2357 L540.0488,278.6343 L540.8964,289.0329 L540.4313,299.4314 L541,309.83 " fill="none" style="stroke:#181818;stroke-width:1.0;"/><polygon fill="#181818" points="541,314.84,541.064,314.8685,541.6738,312.9839,542.6589,311.2662,543.5217,309.4941,543.9827,307.5434,545,305.84,544.9817,305.8217,544.0995,306.5395,543.3096,307.3496,542.5839,308.2239,541.637,308.877,541,309.84,541.1305,309.9705,540.0514,308.8914,539.3534,308.1934,538.7018,307.5418,537.7798,306.6198,537,305.84,537.0208,305.8492,537.7903,307.6357,538.6544,309.4642,539.4728,311.2724,540.3784,313.1193,541,314.84" style="stroke:#181818;stroke-width:1.0;"/><text fill="#000000" font-family="FG Virgil" font-size="13" lengthAdjust="spacing" textLength="53" x="542" y="281.4951">boardSvc</text></g><!--MD5=[b9692feec0cb1506ec17cf1d0e1e1acb]
link PostItService to PostItFactory--><g id="link_PostItService_PostItFactory"><path d="M387.74,429.29 L387.7702,429.3784 L384.0806,430.3467 L380.5681,431.8331 L376.998,433.1509 L373.2381,433.9137 L369.7408,435.4446 L369.729,435.4122 L366.0315,436.5915 L362.3934,437.9345 L358.7967,439.3912 L355.0574,440.4559 L351.5178,442.0697 L351.6068,442.2991 L347.754,443.2287 L344.161,444.8281 L340.5997,446.5092 L336.854,447.7148 L333.2053,449.1705 L333.2169,449.1985 L329.5463,450.6738 L325.9286,452.2766 L322.2854,453.8179 L318.6908,455.4765 L314.9375,456.7525 L315.059,457.0249 L311.4427,458.6419 L307.7481,460.0833 L304.1682,461.7818 L300.5937,463.4924 L296.8488,464.8211 L296.7097,464.5323 L293.4246,466.8049 L289.6815,468.1265 L286.2865,470.1711 L282.533,471.4712 L279.0734,473.3816 L279.0593,473.3546 L275.7606,475.4852 L272.1323,476.9855 L268.6985,478.8577 L265.281,480.7612 L261.7457,482.4394 L261.8375,482.6001 L258.3957,484.35 L255.1107,486.3745 L251.5722,487.9548 L248.4118,490.1976 L245,492 L245.1302,492.206 L243.3271,493.2909 L241.5887,494.4782 L239.5501,495.1903 L237.7315,496.2507 L236.1079,497.6196 L235.9502,497.3929 L234.3387,498.8191 L232.5495,499.9898 L231.0181,501.531 L229.0465,502.4397 L227.3366,503.7244 L227.2447,503.6027 L225.6772,505.1034 L223.7172,506.0838 L222.0363,507.4342 L220.6286,509.1467 L218.7344,510.2145 L218.8561,510.3651 L217.2627,511.8235 L215.2908,512.8134 L213.7929,514.3901 L212.1918,515.839 L210.35,516.99 L210.2133,516.8306 L208.6986,518.3499 L207.1392,519.817 L205.6677,521.3866 L203.8543,522.5575 L202.2318,523.9512 L202.3696,524.1038 L200.5062,525.1779 L198.9087,526.5466 L197.6998,528.3455 L195.7756,529.3523 L194.4284,530.9981 L194.5838,531.1625 L193.0035,532.4714 L191.3706,533.7247 L189.8564,535.1036 L188.6164,536.7726 L186.9883,538.031 L186.895,537.9362 L185.7672,539.6023 L184.0046,540.6235 L182.9638,542.378 L181.5167,543.7196 L179.96,544.95 " fill="none" style="stroke:#181818;stroke-width:1.0;"/><polygon fill="#181818" points="176.4,548.56,176.4255,548.6252,178.1838,547.7132,180.0918,547.1835,181.9511,546.5293,183.6499,545.4656,185.5708,544.9688,185.5706,544.9429,184.4386,544.8335,183.3073,544.8547,182.1766,544.9667,181.044,544.7658,179.914,545.0031,180.0986,545.0042,179.6971,543.8705,179.8344,542.74,180.0375,541.6099,179.858,540.4775,179.8798,539.3464,179.901,539.3544,179.1738,541.1853,178.5435,543.0528,177.8665,544.9027,177.2786,546.7862,176.4,548.56" style="stroke:#181818;stroke-width:1.0;"/><text fill="#000000" font-family="FG Virgil" font-size="13" lengthAdjust="spacing" textLength="76" x="246" y="506.4951">postItFactory</text></g><!--MD5=[778855c556e50cd29727724975a88767]
link PostItService to PostItRepository--><g id="link_PostItService_PostItRepository"><path d="M541,462.11 L541.2802,462.11 L540.4476,472.4729 L541.2577,482.8357 L541.5329,493.1986 L540.0488,503.5614 L540.8964,513.9243 L540.4313,524.2871 L541,534.65 " fill="none" style="stroke:#181818;stroke-width:1.0;"/><polygon fill="#181818" points="541,539.89,541.064,539.9185,541.6738,538.0339,542.6589,536.3162,543.5217,534.5441,543.9827,532.5934,545,530.89,544.9817,530.8717,544.0995,531.5895,543.3096,532.3996,542.5839,533.2739,541.637,533.927,541,534.89,541.1305,535.0205,540.0514,533.9414,539.3534,533.2434,538.7018,532.5918,537.7798,531.6698,537,530.89,537.0208,530.8992,537.7903,532.6857,538.6544,534.5142,539.4728,536.3224,540.3784,538.1693,541,539.89" style="stroke:#181818;stroke-width:1.0;"/><text fill="#000000" font-family="FG Virgil" font-size="13" lengthAdjust="spacing" textLength="94" x="542" y="506.4951">postItRepository</text></g><!--MD5=[85f25023764845daeae7ec7566bd8a25]
link PostItService to BoardRepository--><g id="link_PostItService_BoardRepository"><path d="M694.24,454.95 L694.283,455.0329 L697.5358,456.538 L701.0406,458.5293 L704.4633,460.3623 L707.6163,461.6746 L711.1427,463.7077 L711.1261,463.6773 L714.3951,465.365 L717.7475,467.2055 L721.1578,469.1522 L724.3684,470.7328 L727.8588,472.8263 L727.9818,473.0393 L730.988,474.4723 L734.3535,476.5273 L737.7628,478.6583 L740.9171,480.3476 L744.2055,482.2692 L744.2214,482.295 L747.3569,484.2033 L750.5649,486.2291 L753.7379,488.1982 L756.9776,490.2755 L760,492 L760.1643,492.2489 L761.9891,493.4552 L763.708,494.501 L765.5819,495.7818 L767.4632,497.0735 L769.114,498.0163 L768.9301,497.7538 L771.1069,499.5383 L772.678,500.4584 L774.7095,502.0357 L776.2669,502.9362 L778.213,504.3914 L778.1949,504.3669 L780.2131,505.9866 L781.8092,507.0336 L783.6544,508.4185 L785.5205,509.8318 L787.2357,511.0404 L787.3485,511.1871 L789.0118,512.4067 L790.8678,513.8769 L792.4119,514.9418 L794.4212,516.6113 L796.1212,517.8788 L796.2734,518.0691 L797.982,519.4217 L799.7662,520.8687 L801.1996,521.8767 L802.8901,523.2066 L804.8085,524.8216 L804.6326,524.6087 L806.4774,526.1939 L808.124,527.5393 L810.0581,529.2326 L811.5014,530.3318 L813.2364,531.7842 L813.1369,531.6687 L816.4694,534.5902 L819.3764,537.018 L822.5859,539.7969 L826.0916,542.9193 L829.07,545.43 " fill="none" style="stroke:#181818;stroke-width:1.0;"/><polygon fill="#181818" points="833.01,548.93,833.0738,548.9589,832.0708,547.079,831.4418,545.3687,830.6911,543.6031,829.5397,541.6559,828.9429,539.9601,828.917,539.9586,828.8671,541.0812,828.9476,542.2115,829.1187,543.3471,828.9775,544.4644,829.2737,545.6073,829.2845,545.7915,828.132,545.4637,827.011,545.6738,825.8939,545.9495,824.7543,545.8434,823.6266,545.9381,823.6335,545.9598,825.5,546.5264,827.398,547.1916,829.2808,547.8092,831.1926,548.5176,833.01,548.93" style="stroke:#181818;stroke-width:1.0;"/><text fill="#000000" font-family="FG Virgil" font-size="13" lengthAdjust="spacing" textLength="94" x="784" y="506.4951">boardRepository</text></g><!--MD5=[2dd22cea3aeea39cf43778b727913196]
link PostItFactory to PostIt--><g id="link_PostItFactory_PostIt"><path d="M196.05,625.08 L196.2106,625.3097 L204.0335,630.4295 L212.7977,636.8958 L221.2553,642.9237 L228.705,647.5096 L237.4906,654.0066 L245.5242,659.4278 L253.857,665.2771 L262.3979,671.424 L270.2218,676.5453 L279.4729,683.7081 L286.8685,688.2166 L295.4989,694.4916 L303.95,700.51 " fill="none" style="stroke:#181818;stroke-width:1.0;"/><polygon fill="#181818" points="308.16,703.45,308.22,703.4861,307.0262,701.6909,306.1843,700.1075,305.2278,698.4551,303.8944,696.576,303.0827,695.0107,303.0572,695.0062,303.1391,696.1003,303.3496,697.2169,303.6494,698.3494,303.6412,699.4275,304.0645,700.5817,304.0965,700.7635,302.9138,700.5712,301.8247,700.9095,300.7469,701.3126,299.6027,701.339,298.4935,701.5635,298.4979,701.5858,300.4248,701.9304,302.3715,702.3765,304.3087,702.7736,306.2641,703.2643,308.16,703.45" style="stroke:#181818;stroke-width:1.0;"/></g><!--MD5=[a179befad2a701e07a9299659a8da84c]
link PostItRepository to PostIt--><g id="link_PostItRepository_PostIt"><path d="M479.46,634.16 L479.6281,634.3842 L471.0967,639.7417 L463.551,646.4134 L455.6843,652.6572 L446.762,657.4936 L439.2387,664.1953 L430.9279,669.8469 L422.9305,675.9164 L415.1509,682.2764 L406.6206,687.6353 L399.5847,694.9869 L391.11,700.42 " fill="none" style="stroke:#181818;stroke-width:1.0;"/><polygon fill="#181818" points="387.02,703.49,387.0356,703.5583,388.9092,702.9154,390.8744,702.6728,392.8098,702.2999,394.6469,701.4982,396.62,701.29,396.6163,701.2644,395.4799,700.9893,394.3619,700.8435,393.2568,700.7875,392.1074,700.4219,391.02,700.49,391.2027,700.5161,390.972,699.3403,391.2747,698.2407,391.6425,697.1504,391.6317,696.006,391.82,694.89,391.8399,694.9011,390.8507,696.6048,389.952,698.359,389.0096,700.0888,388.1505,701.8651,387.02,703.49" style="stroke:#181818;stroke-width:1.0;"/></g><!--MD5=[c2b2d28b8f8fd1e85bbeebc0fff5bd46]
link BoardRepository to Board--><g id="link_BoardRepository_Board"><path d="M848.05,625.08 L848.2854,625.232 L842.3284,632.9216 L837.7515,641.5023 L832.7252,649.7928 L826.2209,657.129 L821.6755,665.73 L816.0273,673.619 L810.818,681.7914 L805.99,690.21 " fill="none" style="stroke:#181818;stroke-width:1.0;"/><polygon fill="#181818" points="803.19,694.54,803.2283,694.5986,804.7633,693.3468,806.523,692.4388,808.2096,691.4189,809.6555,690.0307,811.4345,689.1522,811.4291,689.1269,810.2985,689.2509,809.1954,689.5026,808.1114,689.843,806.9616,689.8776,805.9039,690.3406,806.0843,690.3794,805.4608,689.1904,805.3641,688.1145,805.3316,687.0525,804.9252,685.9101,804.7155,684.81,804.738,684.8135,804.3999,686.7544,804.1641,688.7112,803.8789,690.6603,803.688,692.6242,803.19,694.54" style="stroke:#181818;stroke-width:1.0;"/></g><!--MD5=[90d69ff1202b184f782b05dfe7501887]
link PostItService to PostIt--><g id="link_PostItService_PostIt"><path d="M430.07,462.26 L430.1325,462.3294 L428.0772,463.8078 L426.3883,465.693 L424.5802,467.4458 L422.3794,468.7629 L420.7221,470.683 L420.6981,470.6582 L418.7639,472.3095 L416.9506,474.0862 L415.2213,475.9499 L413.2024,477.5135 L411.5892,479.4975 L411.7667,479.668 L409.6204,481.1424 L407.9922,483.1146 L406.4272,485.1475 L404.4945,486.8272 L402.7552,488.6926 L402.7779,488.7127 L401.0543,490.5962 L399.4341,492.5711 L397.764,494.5019 L396.1891,496.5169 L394.3038,498.2575 L394.5361,498.4445 L392.942,500.4315 L391.1979,502.298 L389.6733,504.3411 L388.1589,506.3923 L386.3187,508.1815 L386.0591,507.9936 L385.0761,510.4127 L383.238,512.2131 L382.05,514.4839 L380.1926,516.2703 L378.8839,518.4538 L378.8583,518.4373 L377.8012,520.7536 L376.1453,522.686 L374.8428,524.8449 L373.5699,527.0228 L372.0831,529.0635 L372.2447,529.1534 L370.8649,531.25 L369.7614,533.5002 L368.2109,535.5017 L367.3271,537.8741 L366,540 L366.2204,540.1039 L365.2692,542.0138 L364.4274,543.9752 L363.0772,545.697 L362.0997,547.5945 L361.4524,549.6476 L361.1956,549.546 L360.6372,551.6355 L359.7896,553.6105 L359.3616,555.7517 L358.217,557.6091 L357.4984,559.6353 L357.3536,559.5874 L356.9155,561.7195 L355.8587,563.6469 L355.2419,565.7198 L355.0556,567.9353 L354.1026,569.897 L354.2893,569.9483 L353.8428,572.0774 L352.8154,574.0472 L352.5156,576.2166 L352.0572,578.3425 L351.2295,580.367 L351.0247,580.321 L350.7108,582.4802 L350.3299,584.6242 L350.0807,586.798 L349.3191,588.8565 L348.8438,590.9794 L349.0461,591.016 L348.2148,593.0733 L347.7741,595.2013 L347.9038,597.4325 L346.9832,599.4736 L346.91,601.6681 L347.1339,601.6999 L346.6974,603.8209 L346.1851,605.9311 L345.8439,608.0656 L345.898,610.2561 L345.3926,612.3674 L345.2603,612.3532 L345.4269,614.5241 L344.6938,616.5988 L344.9837,618.7828 L344.6976,620.9053 L344.2563,623.0113 L344.3648,623.0194 L344.119,625.1173 L344.262,627.2445 L344.0537,629.3452 L343.6986,631.435 L343.4655,633.5338 L343.5845,633.5394 L343.3115,635.5982 L343.5913,637.6828 L343.2459,639.7383 L343.1576,641.8057 L342.9849,643.8692 L342.7145,643.8669 L342.7703,647.8368 L343.1517,651.8095 L343.0723,655.7783 L342.8278,659.7456 L342.8123,663.7148 L342.6692,663.7098 L342.8437,667.3726 L342.7647,671.0265 L343.3823,674.7049 L343.6551,678.3712 L343.4552,682.0208 L343.6886,682.0377 L343.9982,685.291 L343.8645,688.5121 L344.1987,691.7671 L344.2232,694.9997 L344.63,698.26 " fill="none" style="stroke:#181818;stroke-width:1.0;"/><polygon fill="#181818" points="345.13,703.49,345.1964,703.5123,345.6261,701.5787,346.4451,699.7759,347.1373,697.9305,347.4126,695.945,348.265,694.1534,348.2451,694.1369,347.4343,694.9346,346.7242,695.8155,346.0841,696.7542,345.2029,697.4936,344.6593,698.5122,344.777,698.6544,343.6536,697.6292,342.8738,697.0191,342.1358,696.4597,341.1541,695.6056,340.3005,694.9065,340.3204,694.9177,341.2572,696.618,342.2842,698.3691,343.2677,700.0957,344.3343,701.869,345.13,703.49" style="stroke:#181818;stroke-width:1.0;"/><text fill="#000000" font-family="FG Virgil" font-size="13" lengthAdjust="spacing" textLength="32" x="367" y="592.4951">postIt</text></g><!--MD5=[c1d64969c1e6637ffbfc0335cb94ce1b]
link PostItService to Board--><g id="link_PostItService_Board"><path d="M617.35,462.12 L617.4177,462.1843 L620.0467,464.9737 L623.0728,468.1402 L625.9696,471.1838 L628.4411,473.8237 L631.5013,477.0225 L631.4758,476.9992 L632.7339,478.3949 L634.1204,479.9082 L635.5963,481.5032 L636.7644,482.8166 L638.3636,484.5244 L638.5476,484.6877 L639.4814,485.8335 L640.9524,487.4563 L642.489,489.1372 L643.6442,490.4796 L645,492 L645.0232,492.0195 L646.9683,494.3438 L649.0191,496.7569 L651.0189,499.1272 L653.116,501.5793 L654.8959,503.7646 L655.1307,503.9486 L657.0548,506.4026 L658.8276,508.7379 L660.8219,511.2469 L662.8267,513.7641 L664.5023,516.0233 L664.244,515.8336 L666.6063,518.7348 L668.1181,521.0111 L670.2765,523.7625 L671.769,526.0247 L673.8074,528.6879 L673.7823,528.6705 L675.8767,531.4719 L677.3864,533.8683 L679.2411,536.5037 L681.1248,539.1591 L682.7995,541.6698 L682.9542,541.7713 L684.5316,544.3111 L686.3733,547.0243 L687.7874,549.457 L689.8393,552.3081 L691.4672,554.881 L691.6739,555.01 L693.3011,557.656 L695.0309,560.366 L696.2839,562.7785 L697.8864,565.4091 L699.7986,568.233 L699.5613,568.0917 L701.3728,570.9005 L702.917,573.5501 L704.8489,576.4307 L706.1187,578.9169 L707.7822,581.6375 L707.6497,581.562 L709.3951,584.3615 L710.5743,586.8382 L712.1562,589.5445 L714.132,592.4754 L715.4063,595.0062 L715.5761,595.0993 L717.1432,597.812 L718.182,600.2354 L719.8825,603.0212 L721.4388,605.728 L722.6592,608.2509 L722.4735,608.153 L723.9956,610.8375 L725.4568,613.4899 L727.0376,616.2053 L728.1537,618.6758 L729.5294,621.2831 L729.7126,621.3763 L730.6052,623.7178 L731.8514,626.2392 L733.6144,629.0235 L734.426,631.3238 L736.0052,634.0146 L736.2081,634.1144 L737.3015,636.5236 L738.3262,638.899 L739.5059,641.3507 L741.0439,643.9785 L742.0748,646.357 L741.9547,646.2998 L743.4427,648.8432 L744.1138,650.9974 L745.7138,653.5941 L746.7907,655.9417 L747.7268,658.2221 L747.8256,658.2678 L748.7904,660.4908 L750.109,662.8774 L751.1079,665.1162 L751.9732,667.2932 L752.9494,669.5215 L753.0584,669.5698 L754.7186,673.6077 L756.8848,677.87 L758.4787,681.8785 L760.308,685.9914 L762.06,690.07 " fill="none" style="stroke:#181818;stroke-width:1.0;"/><polygon fill="#181818" points="764.11,694.87,764.1801,694.8709,763.9982,692.8986,764.2269,690.9317,764.322,688.963,763.9773,686.9884,764.2413,685.022,764.2173,685.0124,763.6891,686.0197,763.2823,687.0754,762.9597,688.1649,762.3466,689.1382,762.1404,690.2743,762.2089,690.4456,761.0119,689.659,760.015,689.3727,759.0425,689.1474,757.928,688.567,756.8881,688.1734,756.9036,688.1901,758.3253,689.5049,759.8174,690.8957,761.2755,692.2498,762.7984,693.6738,764.11,694.87" style="stroke:#181818;stroke-width:1.0;"/><text fill="#000000" font-family="FG Virgil" font-size="13" lengthAdjust="spacing" textLength="32" x="737" y="592.4951">board</text></g><!--MD5=[3106210b3175f68852670dba7ede31f5]
@startuml
'http://plantuml.com/skinparam.html
skinparam handwritten true
skinparam monochrome true
skinparam packageStyle rect
skinparam defaultFontName FG Virgil
skinparam shadowing false


class HttpServerAjax <<http server>>
class CreatePostItController <<application>>
class SessionManager
class PostItService <<service>>
class PostItFactory <<factory>>
class PostItRepository <<repository>>
class BoardRepository <<repository>>
class PostIt <<domain>>
class User <<domain>>
class Board <<domain>>


HttpServerAjax - -> CreatePostItController: theController
HttpServerAjax - -> SessionManager: sessionManager
SessionManager ..> User
CreatePostItController - -> PostItService: boardSvc
PostItService - -> PostItFactory: postItFactory
PostItService - -> PostItRepository: postItRepository
PostItService - -> BoardRepository: boardRepository
PostItFactory - -> PostIt
PostItRepository - -> PostIt
BoardRepository - -> Board
PostItService - -> PostIt: postIt
PostItService - -> Board: board



HttpServerAjax : createPostIt(PostItBody, String)
SessionManager : getUserByToken(String)
CreatePostItController : createPostIt(String, String, String, String, User)
PostItService : createPostIt(String, String, String, User, String)
PostItService : checkIfIsRowEntryTitle(String, Board)
PostItService : checkIfIsColumnEntryTitle(String, Board)
PostItService : postItByPosition(String, String, Board)
PostItService : isNumeric(String)
PostItFactory : create(String, String, String, User, Board)
Board : userHasPermission(User, AccessLevel)
PostItRepository : positByPosition(String, String, Board)
PostItRepository : save(PostIt)
BoardRepository : ofIdentity(Long)


@enduml

@startuml
skinparam handwritten true
skinparam monochrome true
skinparam packageStyle rect
skinparam defaultFontName FG Virgil
skinparam shadowing false


class HttpServerAjax <<http server>>
class CreatePostItController <<application>>
class SessionManager
class PostItService <<service>>
class PostItFactory <<factory>>
class PostItRepository <<repository>>
class BoardRepository <<repository>>
class PostIt <<domain>>
class User <<domain>>
class Board <<domain>>


HttpServerAjax - -> CreatePostItController: theController
HttpServerAjax - -> SessionManager: sessionManager
SessionManager ..> User
CreatePostItController - -> PostItService: boardSvc
PostItService - -> PostItFactory: postItFactory
PostItService - -> PostItRepository: postItRepository
PostItService - -> BoardRepository: boardRepository
PostItFactory - -> PostIt
PostItRepository - -> PostIt
BoardRepository - -> Board
PostItService - -> PostIt: postIt
PostItService - -> Board: board



HttpServerAjax : createPostIt(PostItBody, String)
SessionManager : getUserByToken(String)
CreatePostItController : createPostIt(String, String, String, String, User)
PostItService : createPostIt(String, String, String, User, String)
PostItService : checkIfIsRowEntryTitle(String, Board)
PostItService : checkIfIsColumnEntryTitle(String, Board)
PostItService : postItByPosition(String, String, Board)
PostItService : isNumeric(String)
PostItFactory : create(String, String, String, User, Board)
Board : userHasPermission(User, AccessLevel)
PostItRepository : positByPosition(String, String, Board)
PostItRepository : save(PostIt)
BoardRepository : ofIdentity(Long)


@enduml

PlantUML version 1.2022.7(Mon Aug 22 18:01:30 BST 2022)
(GPL source distribution)
Java Runtime: Java(TM) SE Runtime Environment
JVM: Java HotSpot(TM) 64-Bit Server VM
Default Encoding: Cp1252
Language: pt
Country: PT
--></g></svg>