<?xml version="1.0" encoding="UTF-8" standalone="no"?><svg xmlns="http://www.w3.org/2000/svg" xmlns:xlink="http://www.w3.org/1999/xlink" contentStyleType="text/css" height="778px" preserveAspectRatio="none" style="width:1024px;height:778px;background:#FFFFFF;" version="1.1" viewBox="0 0 1024 778" width="1024px" zoomAndPan="magnify"><defs/><g><!--MD5=[475f3b715ca7ffb20b7527e2f35f29f1]
class HttpServerAjax--><g id="elem_HttpServerAjax"><polygon fill="#F1F1F1" points="649,7,649,7.2102,659.2,6.5857,669.4,7.1933,679.6,7.3997,689.8,6.2866,700,6.9223,710.2,6.5735,720.4,6.6165,730.6,6.9318,740.8,6.3086,751,7.5536,761.2,6.3697,771.4,6.8022,781.6,7.4319,791.8,6.9142,802,7.0682,812.2,6.9681,822.4,7.1785,832.6,7.2391,842.8,7.5857,853,7,853.0856,7.2067,853.4402,7.3556,853.7396,7.3713,854.1198,7.5821,854.5038,7.802,854.7678,7.7322,854.5457,7.6402,855.1232,8.1723,854.9693,8.4015,855.3715,8.861,855.2011,9.0833,855.5,9.5,855.4315,9.5,856.2416,19.6875,855.4513,29.875,855.6053,40.0625,855.8386,50.25,855.9162,60.4375,855.4961,70.625,855.5,80.8125,855.5885,80.8491,855.1773,81.093,855.2947,81.5559,855.2295,81.9431,855.0511,82.2834,854.7678,82.5803,854.846,82.7691,854.3526,82.5779,853.9775,82.6723,853.6278,82.8282,853.346,83.1479,853,83.3125,853,83.116,842.8,83.9939,832.6,83.1378,822.4,82.9694,812.2,83.5408,802,82.6457,791.8,82.7934,781.6,83.9615,771.4,83.7482,761.2,84.047,751,82.9907,740.8,83.6317,730.6,83.9029,720.4,82.8401,710.2,83.2166,700,83.4385,689.8,83.9643,679.6,83.3083,669.4,83.7751,659.2,82.7587,649,83.3125,648.9136,83.1039,648.7107,83.3211,648.2014,82.7988,648.0043,83.0299,647.6121,82.7903,647.2322,82.5803,647.1497,82.5461,646.9768,82.1816,647.0806,81.9317,646.7007,81.4814,646.8287,81.2416,646.5,80.8125,645.9473,80.8125,647.1174,70.625,646.9843,60.4375,646.745,50.25,646.5472,40.0625,647.2266,29.875,647.1136,19.6875,646.5,9.5,646.5521,9.5216,646.729,9.1807,646.7528,8.7763,647.16,8.5307,647.1335,8.1055,647.2322,7.7322,647.2542,7.7854,647.5082,7.3984,647.8876,7.3145,648.3606,7.4563,648.7013,7.2788,649,7" style="stroke:#181818;stroke-width:0.5;"/><polygon fill="#C2C2C2" points="711.3108,31.0272,709.6984,33.2304,707.7912,36.4573,705.0636,38.632,702.1974,39.8212,699.912,39.9244,696.9747,38.4371,694.2032,37.4655,692.0995,35.4927,690.9961,33.2343,690.3417,31.4361,689.7006,29.0873,688.66,27.066,689.4596,25.0926,690.1602,22.9308,692.7893,21.221,694.639,19.0027,696.9284,18.266,699.6501,17.6316,703.1404,18.0085,705.0521,18.9101,707.2747,19.3188,709.9772,22.0875,710.9193,25.0105,711.3286,27.0049,710.865,30.2914" style="stroke:#181818;stroke-width:1.0;"/><path d="M703.0156,24.2266 Q703.1719,24.0078 703.3594,23.8984 Q703.5469,23.7891 703.7656,23.7891 Q704.1406,23.7891 704.375,24.0547 Q704.6094,24.3047 704.6094,24.9141 L704.6094,26.3672 Q704.6094,26.9766 704.375,27.2422 Q704.1406,27.5078 703.7656,27.5078 Q703.4219,27.5078 703.2188,27.3047 Q703.0156,27.1172 702.9063,26.6016 Q702.8594,26.2422 702.6719,26.0547 Q702.3438,25.6797 701.7344,25.4609 Q701.125,25.2422 700.5,25.2422 Q699.7344,25.2422 699.0938,25.5703 Q698.4688,25.8984 697.9688,26.6484 Q697.4844,27.3984 697.4844,28.4297 L697.4844,29.5234 Q697.4844,30.7578 698.375,31.5859 Q699.2656,32.3984 700.8594,32.3984 Q701.7969,32.3984 702.4531,32.1484 Q702.8438,31.9922 703.2656,31.5547 Q703.5313,31.2891 703.6719,31.2109 Q703.8281,31.1328 704.0313,31.1328 Q704.3594,31.1328 704.6094,31.3984 Q704.875,31.6484 704.875,31.9922 Q704.875,32.3359 704.5313,32.7422 Q704.0313,33.3203 703.2344,33.6484 Q702.1563,34.1016 700.8594,34.1016 Q699.3438,34.1016 698.1406,33.4766 Q697.1563,32.9766 696.4688,31.9141 Q695.7813,30.8359 695.7813,29.5547 L695.7813,28.3984 Q695.7813,27.0703 696.3906,25.9297 Q697.0156,24.7734 698.1094,24.1641 Q699.2031,23.5391 700.4375,23.5391 Q701.1719,23.5391 701.8125,23.7109 Q702.4688,23.8672 703.0156,24.2266 Z " fill="#000000"/><text fill="#000000" font-family="FG Virgil" font-size="12" font-style="italic" lengthAdjust="spacing" textLength="71" x="731.75" y="24.457">«http server»</text><text fill="#000000" font-family="FG Virgil" font-size="14" lengthAdjust="spacing" textLength="93" x="720.75" y="41.627">HttpServerAjax</text><path d="M647.5,49.7031 L647.5,49.9834 L657.3571,49.1507 L667.2143,49.9608 L677.0714,50.236 L686.9286,48.7519 L696.7857,49.5995 L706.6429,49.1345 L716.5,49.1918 L726.3571,49.6122 L736.2143,48.7813 L746.0714,50.4413 L755.9286,48.8628 L765.7857,49.4394 L775.6429,50.2791 L785.5,49.5888 L795.3571,49.7941 L805.2143,49.6605 L815.0714,49.9412 L824.9286,50.022 L834.7857,50.484 L844.6429,50.5979 L854.5,49.7031 " fill="#F1F1F1" style="stroke:#181818;stroke-width:0.5;"/><path d="M647.5,57.7031 L647.5,57.9834 L657.3571,57.1507 L667.2143,57.9608 L677.0714,58.236 L686.9286,56.7519 L696.7857,57.5995 L706.6429,57.1345 L716.5,57.1918 L726.3571,57.6122 L736.2143,56.7813 L746.0714,58.4413 L755.9286,56.8628 L765.7857,57.4394 L775.6429,58.2791 L785.5,57.5888 L795.3571,57.7941 L805.2143,57.6605 L815.0714,57.9412 L824.9286,58.022 L834.7857,58.484 L844.6429,58.5979 L854.5,57.7031 " fill="#F1F1F1" style="stroke:#181818;stroke-width:0.5;"/><text fill="#000000" font-family="FG Virgil" font-size="14" lengthAdjust="spacing" textLength="197" x="652.5" y="76.2363">createPostIt(PostItBody, String)</text></g><!--MD5=[178d76fd5a5a87d765fbfa46505325a1]
class CreatePostItController--><g id="elem_CreatePostItController"><polygon fill="#F1F1F1" points="466.5,161,466.5,161.2102,476.5333,160.5857,486.5667,161.1933,496.6,161.3997,506.6333,160.2866,516.6667,160.9223,526.7,160.5735,536.7333,160.6165,546.7667,160.9318,556.8,160.3086,566.8333,161.5536,576.8667,160.3697,586.9,160.8022,596.9333,161.4319,606.9667,160.9142,617,161.0682,627.0333,160.9681,637.0667,161.1785,647.1,161.2391,657.1333,161.5857,667.1667,161.6711,677.2,161.6793,687.2333,161.2546,697.2667,161.4636,707.3,161.7022,717.3333,160.2788,727.3667,161.6785,737.4,160.7035,747.4333,161.5338,757.4667,160.505,767.5,161,767.4913,160.9789,767.9482,161.3748,768.2009,161.2779,768.5741,161.4718,768.9574,161.6901,769.2678,161.7322,769.3959,161.7853,769.413,162.0853,769.6491,162.476,769.5308,162.7199,769.9411,163.1827,770,163.5,770.5482,163.5,770.4445,173.6875,770.613,183.875,769.5169,194.0625,769.3478,204.25,769.3786,214.4375,769.9411,224.625,770,234.8125,769.9395,234.7874,770.0634,235.253,769.6533,235.4973,769.455,235.8294,769.4845,236.2558,769.2678,236.5803,769.1827,236.3749,768.848,236.5668,768.6434,237.073,768.2627,237.1538,767.9472,237.3922,767.5,237.3125,767.5,236.9907,757.4667,237.6317,747.4333,237.9029,737.4,236.8401,727.3667,237.2166,717.3333,237.4385,707.3,237.9643,697.2667,237.3083,687.2333,237.7751,677.2,236.7587,667.1667,236.6352,657.1333,237.8161,647.1,236.5956,637.0667,237.8215,627.0333,237.5191,617,237.0446,606.9667,236.9587,596.9333,237.7713,586.9,237.0132,576.8667,237.9044,566.8333,236.7598,556.8,237.9299,546.7667,237.7968,536.7333,237.5575,526.7,237.3597,516.6667,238.0391,506.6333,237.9261,496.6,237.4818,486.5667,237.5807,476.5333,237.1822,466.5,237.3125,466.5914,237.5331,466.1662,237.2137,465.8149,237.0728,465.3617,236.6858,465.0341,236.6019,464.7322,236.5803,464.8957,236.648,464.7181,236.2815,464.4261,235.8677,464.1937,235.4785,464.079,235.1381,464,234.8125,463.3138,234.8125,464.4147,224.625,464.7396,214.4375,464.5264,204.25,464.6949,194.0625,463.8633,183.875,464.0872,173.6875,464,163.5,463.8806,163.4506,464.2339,163.1827,464.3689,162.8244,464.6095,162.5098,464.5151,162.0565,464.7322,161.7322,464.7151,161.6908,465.1424,161.7224,465.5117,161.6141,465.7275,161.1351,466.1217,161.0867,466.5,161" style="stroke:#181818;stroke-width:0.5;"/><polygon fill="#C2C2C2" points="553.8108,185.0272,552.1984,187.2304,550.2912,190.4573,547.5636,192.632,544.6974,193.8212,542.412,193.9244,539.4747,192.4371,536.7032,191.4655,534.5995,189.4927,533.4961,187.2343,532.8417,185.4361,532.2006,183.0873,531.16,181.066,531.9596,179.0926,532.6602,176.9308,535.2893,175.221,537.139,173.0027,539.4284,172.266,542.1501,171.6316,545.6404,172.0085,547.5521,172.9101,549.7747,173.3188,552.4772,176.0875,553.4193,179.0105,553.8286,181.0049,553.365,184.2914" style="stroke:#181818;stroke-width:1.0;"/><path d="M545.5156,178.2266 Q545.6719,178.0078 545.8594,177.8984 Q546.0469,177.7891 546.2656,177.7891 Q546.6406,177.7891 546.875,178.0547 Q547.1094,178.3047 547.1094,178.9141 L547.1094,180.3672 Q547.1094,180.9766 546.875,181.2422 Q546.6406,181.5078 546.2656,181.5078 Q545.9219,181.5078 545.7188,181.3047 Q545.5156,181.1172 545.4063,180.6016 Q545.3594,180.2422 545.1719,180.0547 Q544.8438,179.6797 544.2344,179.4609 Q543.625,179.2422 543,179.2422 Q542.2344,179.2422 541.5938,179.5703 Q540.9688,179.8984 540.4688,180.6484 Q539.9844,181.3984 539.9844,182.4297 L539.9844,183.5234 Q539.9844,184.7578 540.875,185.5859 Q541.7656,186.3984 543.3594,186.3984 Q544.2969,186.3984 544.9531,186.1484 Q545.3438,185.9922 545.7656,185.5547 Q546.0313,185.2891 546.1719,185.2109 Q546.3281,185.1328 546.5313,185.1328 Q546.8594,185.1328 547.1094,185.3984 Q547.375,185.6484 547.375,185.9922 Q547.375,186.3359 547.0313,186.7422 Q546.5313,187.3203 545.7344,187.6484 Q544.6563,188.1016 543.3594,188.1016 Q541.8438,188.1016 540.6406,187.4766 Q539.6563,186.9766 538.9688,185.9141 Q538.2813,184.8359 538.2813,183.5547 L538.2813,182.3984 Q538.2813,181.0703 538.8906,179.9297 Q539.5156,178.7734 540.6094,178.1641 Q541.7031,177.5391 542.9375,177.5391 Q543.6719,177.5391 544.3125,177.7109 Q544.9688,177.8672 545.5156,178.2266 Z " fill="#000000"/><text fill="#000000" font-family="FG Virgil" font-size="12" font-style="italic" lengthAdjust="spacing" textLength="74" x="596.25" y="178.457">«application»</text><text fill="#000000" font-family="FG Virgil" font-size="14" lengthAdjust="spacing" textLength="140" x="563.25" y="195.627">CreatePostItController</text><path d="M465,203.7031 L465,203.9834 L475.1333,203.1507 L485.2667,203.9608 L495.4,204.236 L505.5333,202.7519 L515.6667,203.5995 L525.8,203.1345 L535.9333,203.1918 L546.0667,203.6122 L556.2,202.7813 L566.3333,204.4413 L576.4667,202.8628 L586.6,203.4394 L596.7333,204.2791 L606.8667,203.5888 L617,203.7941 L627.1333,203.6605 L637.2667,203.9412 L647.4,204.022 L657.5333,204.484 L667.6667,204.5979 L677.8,204.6088 L687.9333,204.0426 L698.0667,204.3212 L708.2,204.6394 L718.3333,202.7415 L728.4667,204.6078 L738.6,203.3078 L748.7333,204.4149 L758.8667,203.0431 L769,203.7031 " fill="#F1F1F1" style="stroke:#181818;stroke-width:0.5;"/><path d="M465,211.7031 L465,211.9834 L475.1333,211.1507 L485.2667,211.9608 L495.4,212.236 L505.5333,210.7519 L515.6667,211.5995 L525.8,211.1345 L535.9333,211.1918 L546.0667,211.6122 L556.2,210.7813 L566.3333,212.4413 L576.4667,210.8628 L586.6,211.4394 L596.7333,212.2791 L606.8667,211.5888 L617,211.7941 L627.1333,211.6605 L637.2667,211.9412 L647.4,212.022 L657.5333,212.484 L667.6667,212.5979 L677.8,212.6088 L687.9333,212.0426 L698.0667,212.3212 L708.2,212.6394 L718.3333,210.7415 L728.4667,212.6078 L738.6,211.3078 L748.7333,212.4149 L758.8667,211.0431 L769,211.7031 " fill="#F1F1F1" style="stroke:#181818;stroke-width:0.5;"/><text fill="#000000" font-family="FG Virgil" font-size="14" lengthAdjust="spacing" textLength="294" x="470" y="230.2363">createPostIt(String, String, String, String, User)</text></g><!--MD5=[f097a9da547c6f19ba7a5c97c093eb18]
class SessionManager--><g id="elem_SessionManager"><polygon fill="#F1F1F1" points="807.5,166,807.5,166.2102,817.4375,165.5857,827.375,166.1933,837.3125,166.3997,847.25,165.2866,857.1875,165.9223,867.125,165.5735,877.0625,165.6165,887,165.9318,896.9375,165.3086,906.875,166.5536,916.8125,165.3697,926.75,165.8022,936.6875,166.4319,946.625,165.9142,956.5625,166.0682,966.5,166,966.4959,165.9902,966.8763,166.2014,967.2376,166.3665,967.6354,166.6197,967.9998,166.7924,968.2678,166.7322,968.477,166.8189,968.4926,167.1183,968.7034,167.4985,968.9234,167.8825,968.6315,168.0545,969,168.5,969.6785,168.5,968.7035,178.6016,969.5338,188.7031,968.505,198.8047,968.9315,208.9063,969.7416,219.0078,969,229.1094,968.985,229.1032,968.886,229.4764,968.8114,229.8597,968.6888,230.2231,968.413,230.5231,968.2678,230.8771,968.3044,230.9656,967.8412,230.8473,967.5969,231.2576,967.277,231.4853,966.9103,231.5998,966.5,231.6094,966.5,232.2224,956.5625,231.1263,946.625,230.9572,936.6875,230.988,926.75,231.5505,916.8125,231.4128,906.875,232.2908,896.9375,231.4347,887,231.2663,877.0625,231.8376,867.125,230.9425,857.1875,231.0902,847.25,232.2583,837.3125,232.045,827.375,232.3439,817.4375,231.2876,807.5,231.6094,807.5407,231.7077,807.2218,231.6448,806.7326,231.171,806.4271,231.1405,806.1019,231.0624,805.7322,230.8771,805.9329,230.9603,805.5845,230.5231,805.5818,230.229,805.1223,229.7458,804.9379,229.3765,805,229.1094,805.5036,229.1094,804.2831,219.0078,805.509,208.9063,805.2066,198.8047,804.7321,188.7031,804.6462,178.6016,805,168.5,805.1413,168.5585,805.0543,168.1083,805.4752,167.8684,805.2691,167.3688,805.7759,167.1645,805.7322,166.7322,805.794,166.8814,806.117,166.6612,806.4454,166.4539,806.8856,166.5167,807.2247,166.3354,807.5,166" style="stroke:#181818;stroke-width:0.5;"/><polygon fill="#C2C2C2" points="842.7608,184.6756,841.1484,186.8788,839.2412,190.1057,836.5136,192.2804,833.6474,193.4696,831.362,193.5728,828.4247,192.0855,825.6532,191.1139,823.5495,189.1412,822.4461,186.8828,821.7917,185.0845,821.1506,182.7357,820.11,180.7145,820.9096,178.741,821.6102,176.5792,824.2393,174.8695,826.089,172.6511,828.3784,171.9144,831.1001,171.2801,834.5904,171.657,836.5021,172.5585,838.7247,172.9672,841.4272,175.736,842.3693,178.659,842.7786,180.6534,842.315,183.9399" style="stroke:#181818;stroke-width:1.0;"/><path d="M834.4656,177.875 Q834.6219,177.6563 834.8094,177.5469 Q834.9969,177.4375 835.2156,177.4375 Q835.5906,177.4375 835.825,177.7031 Q836.0594,177.9531 836.0594,178.5625 L836.0594,180.0156 Q836.0594,180.625 835.825,180.8906 Q835.5906,181.1563 835.2156,181.1563 Q834.8719,181.1563 834.6688,180.9531 Q834.4656,180.7656 834.3563,180.25 Q834.3094,179.8906 834.1219,179.7031 Q833.7938,179.3281 833.1844,179.1094 Q832.575,178.8906 831.95,178.8906 Q831.1844,178.8906 830.5438,179.2188 Q829.9188,179.5469 829.4188,180.2969 Q828.9344,181.0469 828.9344,182.0781 L828.9344,183.1719 Q828.9344,184.4063 829.825,185.2344 Q830.7156,186.0469 832.3094,186.0469 Q833.2469,186.0469 833.9031,185.7969 Q834.2938,185.6406 834.7156,185.2031 Q834.9813,184.9375 835.1219,184.8594 Q835.2781,184.7813 835.4813,184.7813 Q835.8094,184.7813 836.0594,185.0469 Q836.325,185.2969 836.325,185.6406 Q836.325,185.9844 835.9813,186.3906 Q835.4813,186.9688 834.6844,187.2969 Q833.6063,187.75 832.3094,187.75 Q830.7938,187.75 829.5906,187.125 Q828.6063,186.625 827.9188,185.5625 Q827.2313,184.4844 827.2313,183.2031 L827.2313,182.0469 Q827.2313,180.7188 827.8406,179.5781 Q828.4656,178.4219 829.5594,177.8125 Q830.6531,177.1875 831.8875,177.1875 Q832.6219,177.1875 833.2625,177.3594 Q833.9188,177.5156 834.4656,177.875 Z " fill="#000000"/><text fill="#000000" font-family="FG Virgil" font-size="14" lengthAdjust="spacing" textLength="106" x="848.3" y="187.7285">SessionManager</text><path d="M806,198 L806,198.2802 L816.125,197.4476 L826.25,198.2577 L836.375,198.5329 L846.5,197.0488 L856.625,197.8964 L866.75,197.4313 L876.875,197.4887 L887,197.9091 L897.125,197.0782 L907.25,198.7382 L917.375,197.1596 L927.5,197.7363 L937.625,198.5759 L947.75,197.8856 L957.875,198.091 L968,198 " fill="#F1F1F1" style="stroke:#181818;stroke-width:0.5;"/><path d="M806,206 L806,206.2802 L816.125,205.4476 L826.25,206.2577 L836.375,206.5329 L846.5,205.0488 L856.625,205.8964 L866.75,205.4313 L876.875,205.4887 L887,205.9091 L897.125,205.0782 L907.25,206.7382 L917.375,205.1596 L927.5,205.7363 L937.625,206.5759 L947.75,205.8856 L957.875,206.091 L968,206 " fill="#F1F1F1" style="stroke:#181818;stroke-width:0.5;"/><text fill="#000000" font-family="FG Virgil" font-size="14" lengthAdjust="spacing" textLength="152" x="811" y="224.5332">getUserByToken(String)</text></g><!--MD5=[eb95342d67c177a44e4018fdebeb06c1]
class PostItService--><g id="elem_PostItService"><polygon fill="#F1F1F1" points="466.5,315,466.5,315.2102,476.5333,314.5857,486.5667,315.1933,496.6,315.3997,506.6333,314.2866,516.6667,314.9223,526.7,314.5735,536.7333,314.6165,546.7667,314.9318,556.8,314.3086,566.8333,315.5536,576.8667,314.3697,586.9,314.8022,596.9333,315.4319,606.9667,314.9142,617,315.0682,627.0333,314.9681,637.0667,315.1785,647.1,315.2391,657.1333,315.5857,667.1667,315.6711,677.2,315.6793,687.2333,315.2546,697.2667,315.4636,707.3,315.7022,717.3333,314.2788,727.3667,315.6785,737.4,314.7035,747.4333,315.5338,757.4667,314.505,767.5,315,767.4913,314.9789,767.9482,315.3748,768.2009,315.2779,768.5741,315.4718,768.9574,315.6901,769.2678,315.7322,769.3959,315.7853,769.413,316.0853,769.6491,316.476,769.5308,316.7199,769.9411,317.1827,770,317.5,770.5482,317.5,770.4445,327.625,770.613,337.75,769.5169,347.875,769.3478,358,769.3786,368.125,769.9411,378.25,769.8035,388.375,770.6814,398.5,769.8253,408.625,769.6569,418.75,770.2283,428.875,769.3332,439,769.4809,449.125,770,459.25,770.1999,459.3328,769.9877,459.6591,769.9333,460.0508,769.4616,460.2696,769.5125,460.7049,769.2678,461.0178,769.3431,461.1996,768.854,461.0187,768.5484,461.2811,768.2232,461.4959,767.9367,461.8043,767.5,461.75,767.5,461.7458,757.4667,462.2126,747.4333,461.1962,737.4,461.0727,727.3667,462.2536,717.3333,461.0331,707.3,462.259,697.2667,461.9566,687.2333,461.4821,677.2,461.3962,667.1667,462.2088,657.1333,461.4507,647.1,462.3419,637.0667,461.1973,627.0333,462.3674,617,462.2343,606.9667,461.995,596.9333,461.7972,586.9,462.4766,576.8667,462.3636,566.8333,461.9193,556.8,462.0182,546.7667,461.6197,536.7333,462.4665,526.7,461.9049,516.6667,461.9226,506.6333,461.1416,496.6,461.3448,486.5667,462.2807,476.5333,462.1798,466.5,461.75,466.4945,461.7368,466.1054,461.5043,465.765,461.3897,465.3518,461.0993,465.1387,461.2919,464.7322,461.0178,464.96,461.1121,464.7479,460.7314,464.6534,460.3993,464.2508,459.9397,464.1733,459.6147,464,459.25,463.6124,459.25,464.284,449.125,464.2468,439,464.5524,428.875,463.7703,418.75,463.8656,408.625,464.4435,398.5,464.5673,388.375,463.4875,378.25,463.8061,368.125,464.1493,358,463.3892,347.875,464.3534,337.75,464.258,327.625,464,317.5,463.969,317.4871,464.1903,317.1646,464.5173,316.8858,464.343,316.3994,464.6828,316.126,464.7322,315.7322,464.7687,315.8202,465.1006,315.6214,465.4573,315.4827,465.8074,315.3278,466.0668,314.9542,466.5,315" style="stroke:#181818;stroke-width:0.5;"/><polygon fill="#C2C2C2" points="582.8108,339.0272,581.1984,341.2304,579.2912,344.4573,576.5636,346.632,573.6974,347.8212,571.412,347.9244,568.4747,346.4371,565.7032,345.4655,563.5995,343.4927,562.4961,341.2343,561.8417,339.4361,561.2006,337.0873,560.16,335.066,560.9596,333.0926,561.6602,330.9308,564.2893,329.221,566.139,327.0027,568.4284,326.266,571.1501,325.6316,574.6404,326.0085,576.5521,326.9101,578.7747,327.3188,581.4772,330.0875,582.4193,333.0105,582.8286,335.0049,582.365,338.2914" style="stroke:#181818;stroke-width:1.0;"/><path d="M574.5156,332.2266 Q574.6719,332.0078 574.8594,331.8984 Q575.0469,331.7891 575.2656,331.7891 Q575.6406,331.7891 575.875,332.0547 Q576.1094,332.3047 576.1094,332.9141 L576.1094,334.3672 Q576.1094,334.9766 575.875,335.2422 Q575.6406,335.5078 575.2656,335.5078 Q574.9219,335.5078 574.7188,335.3047 Q574.5156,335.1172 574.4063,334.6016 Q574.3594,334.2422 574.1719,334.0547 Q573.8438,333.6797 573.2344,333.4609 Q572.625,333.2422 572,333.2422 Q571.2344,333.2422 570.5938,333.5703 Q569.9688,333.8984 569.4688,334.6484 Q568.9844,335.3984 568.9844,336.4297 L568.9844,337.5234 Q568.9844,338.7578 569.875,339.5859 Q570.7656,340.3984 572.3594,340.3984 Q573.2969,340.3984 573.9531,340.1484 Q574.3438,339.9922 574.7656,339.5547 Q575.0313,339.2891 575.1719,339.2109 Q575.3281,339.1328 575.5313,339.1328 Q575.8594,339.1328 576.1094,339.3984 Q576.375,339.6484 576.375,339.9922 Q576.375,340.3359 576.0313,340.7422 Q575.5313,341.3203 574.7344,341.6484 Q573.6563,342.1016 572.3594,342.1016 Q570.8438,342.1016 569.6406,341.4766 Q568.6563,340.9766 567.9688,339.9141 Q567.2813,338.8359 567.2813,337.5547 L567.2813,336.3984 Q567.2813,335.0703 567.8906,333.9297 Q568.5156,332.7734 569.6094,332.1641 Q570.7031,331.5391 571.9375,331.5391 Q572.6719,331.5391 573.3125,331.7109 Q573.9688,331.8672 574.5156,332.2266 Z " fill="#000000"/><text fill="#000000" font-family="FG Virgil" font-size="12" font-style="italic" lengthAdjust="spacing" textLength="53" x="606.75" y="332.457">«service»</text><text fill="#000000" font-family="FG Virgil" font-size="14" lengthAdjust="spacing" textLength="82" x="592.25" y="349.627">PostItService</text><path d="M465,357.7031 L465,357.9834 L475.1333,357.1507 L485.2667,357.9608 L495.4,358.236 L505.5333,356.7519 L515.6667,357.5995 L525.8,357.1345 L535.9333,357.1918 L546.0667,357.6122 L556.2,356.7813 L566.3333,358.4413 L576.4667,356.8628 L586.6,357.4394 L596.7333,358.2791 L606.8667,357.5888 L617,357.7941 L627.1333,357.6605 L637.2667,357.9412 L647.4,358.022 L657.5333,358.484 L667.6667,358.5979 L677.8,358.6088 L687.9333,358.0426 L698.0667,358.3212 L708.2,358.6394 L718.3333,356.7415 L728.4667,358.6078 L738.6,357.3078 L748.7333,358.4149 L758.8667,357.0431 L769,357.7031 " fill="#F1F1F1" style="stroke:#181818;stroke-width:0.5;"/><path d="M465,365.7031 L465,365.9834 L475.1333,365.1507 L485.2667,365.9608 L495.4,366.236 L505.5333,364.7519 L515.6667,365.5995 L525.8,365.1345 L535.9333,365.1918 L546.0667,365.6122 L556.2,364.7813 L566.3333,366.4413 L576.4667,364.8628 L586.6,365.4394 L596.7333,366.2791 L606.8667,365.5888 L617,365.7941 L627.1333,365.6605 L637.2667,365.9412 L647.4,366.022 L657.5333,366.484 L667.6667,366.5979 L677.8,366.6088 L687.9333,366.0426 L698.0667,366.3212 L708.2,366.6394 L718.3333,364.7415 L728.4667,366.6078 L738.6,365.3078 L748.7333,366.4149 L758.8667,365.0431 L769,365.7031 " fill="#F1F1F1" style="stroke:#181818;stroke-width:0.5;"/><text fill="#000000" font-family="FG Virgil" font-size="14" lengthAdjust="spacing" textLength="294" x="470" y="384.2363">createPostIt(String, String, String, User, String)</text><text fill="#000000" font-family="FG Virgil" font-size="14" lengthAdjust="spacing" textLength="234" x="470" y="401.8457">checkIfIsRowEntryTitle(String, Board)</text><text fill="#000000" font-family="FG Virgil" font-size="14" lengthAdjust="spacing" textLength="255" x="470" y="419.4551">checkIfIsColumnEntryTitle(String, Board)</text><text fill="#000000" font-family="FG Virgil" font-size="14" lengthAdjust="spacing" textLength="238" x="470" y="437.0645">postItByPosition(String, String, Board)</text><text fill="#000000" font-family="FG Virgil" font-size="14" lengthAdjust="spacing" textLength="108" x="470" y="454.6738">isNumeric(String)</text></g><!--MD5=[0182a422c6ed2cd05fe32b6e46ab69a0]
class PostItFactory--><g id="elem_PostItFactory"><polygon fill="#F1F1F1" points="9.5,549,9.5,549.2102,19.5882,548.5857,29.6765,549.1933,39.7647,549.3997,49.8529,548.2866,59.9412,548.9223,70.0294,548.5735,80.1176,548.6165,90.2059,548.9318,100.2941,548.3086,110.3824,549.5536,120.4706,548.3697,130.5588,548.8022,140.6471,549.4319,150.7353,548.9142,160.8235,549.0682,170.9118,548.9681,181,549.1785,191.0882,549.2391,201.1765,549.5857,211.2647,549.6711,221.3529,549.6793,231.4412,549.2546,241.5294,549.4636,251.6176,549.7022,261.7059,548.2788,271.7941,549.6785,281.8824,548.7035,291.9706,549.5338,302.0588,548.505,312.1471,548.9315,322.2353,549.7416,332.3235,548.9513,342.4118,549.1053,352.5,549,352.5432,549.1043,352.9066,549.2746,353.2066,549.2917,353.5973,549.5278,353.8412,549.4095,354.2678,549.7322,354.3553,549.7685,354.583,550.1557,354.6976,550.496,354.8959,550.8711,354.7048,551.0848,355,551.5,354.3478,551.5,354.3786,561.6875,354.9411,571.875,354.8035,582.0625,355.6814,592.25,354.8253,602.4375,354.6569,612.625,355,622.8125,355.0703,622.8416,354.6482,623.081,354.5472,623.4534,354.7605,623.9559,354.5484,624.2823,354.2678,624.5803,354.3615,624.8065,353.8732,624.6276,353.6014,624.9715,353.2824,625.2014,352.7933,625.0206,352.5,625.3125,352.5,625.2166,342.4118,625.4385,332.3235,625.9643,322.2353,625.3083,312.1471,625.7751,302.0588,624.7587,291.9706,624.6352,281.8824,625.8161,271.7941,624.5956,261.7059,625.8215,251.6176,625.5191,241.5294,625.0446,231.4412,624.9587,221.3529,625.7713,211.2647,625.0132,201.1765,625.9044,191.0882,624.7598,181,625.9299,170.9118,625.7968,160.8235,625.5575,150.7353,625.3597,140.6471,626.0391,130.5588,625.9261,120.4706,625.4818,110.3824,625.5807,100.2941,625.1822,90.2059,626.029,80.1176,625.4674,70.0294,625.4851,59.9412,624.7041,49.8529,624.9073,39.7647,625.8432,29.6765,625.7423,19.5882,625.2696,9.5,625.3125,9.4589,625.2133,9.1185,625.0986,8.7054,624.8083,8.4922,625.0009,8.1801,624.9545,7.7322,624.5803,7.8943,624.6474,7.7998,624.3154,7.3972,623.8557,7.3198,623.5307,7.0271,623.1166,7,622.8125,7.284,622.8125,7.2468,612.625,7.5524,602.4375,6.7703,592.25,6.8656,582.0625,7.4435,571.875,7.5673,561.6875,7,551.5,6.8422,551.4346,7.0867,551.1217,7.3389,550.8119,7.2512,550.3614,7.6946,550.1309,7.7322,549.7322,7.7651,549.8117,8.0729,549.5548,8.4575,549.4831,8.8858,549.5173,9.1065,549.0501,9.5,549" style="stroke:#181818;stroke-width:0.5;"/><polygon fill="#C2C2C2" points="146.3108,573.0272,144.6984,575.2304,142.7912,578.4573,140.0636,580.632,137.1974,581.8212,134.912,581.9244,131.9747,580.4371,129.2032,579.4655,127.0995,577.4927,125.9961,575.2343,125.3417,573.4361,124.7006,571.0873,123.66,569.066,124.4596,567.0926,125.1602,564.9308,127.7893,563.221,129.639,561.0027,131.9284,560.266,134.6501,559.6316,138.1404,560.0085,140.0521,560.9101,142.2747,561.3188,144.9772,564.0875,145.9193,567.0105,146.3286,569.0049,145.865,572.2914" style="stroke:#181818;stroke-width:1.0;"/><path d="M138.0156,566.2266 Q138.1719,566.0078 138.3594,565.8984 Q138.5469,565.7891 138.7656,565.7891 Q139.1406,565.7891 139.375,566.0547 Q139.6094,566.3047 139.6094,566.9141 L139.6094,568.3672 Q139.6094,568.9766 139.375,569.2422 Q139.1406,569.5078 138.7656,569.5078 Q138.4219,569.5078 138.2188,569.3047 Q138.0156,569.1172 137.9063,568.6016 Q137.8594,568.2422 137.6719,568.0547 Q137.3438,567.6797 136.7344,567.4609 Q136.125,567.2422 135.5,567.2422 Q134.7344,567.2422 134.0938,567.5703 Q133.4688,567.8984 132.9688,568.6484 Q132.4844,569.3984 132.4844,570.4297 L132.4844,571.5234 Q132.4844,572.7578 133.375,573.5859 Q134.2656,574.3984 135.8594,574.3984 Q136.7969,574.3984 137.4531,574.1484 Q137.8438,573.9922 138.2656,573.5547 Q138.5313,573.2891 138.6719,573.2109 Q138.8281,573.1328 139.0313,573.1328 Q139.3594,573.1328 139.6094,573.3984 Q139.875,573.6484 139.875,573.9922 Q139.875,574.3359 139.5313,574.7422 Q139.0313,575.3203 138.2344,575.6484 Q137.1563,576.1016 135.8594,576.1016 Q134.3438,576.1016 133.1406,575.4766 Q132.1563,574.9766 131.4688,573.9141 Q130.7813,572.8359 130.7813,571.5547 L130.7813,570.3984 Q130.7813,569.0703 131.3906,567.9297 Q132.0156,566.7734 133.1094,566.1641 Q134.2031,565.5391 135.4375,565.5391 Q136.1719,565.5391 136.8125,565.7109 Q137.4688,565.8672 138.0156,566.2266 Z " fill="#000000"/><text fill="#000000" font-family="FG Virgil" font-size="12" font-style="italic" lengthAdjust="spacing" textLength="50" x="172.25" y="566.457">«factory»</text><text fill="#000000" font-family="FG Virgil" font-size="14" lengthAdjust="spacing" textLength="83" x="155.75" y="583.627">PostItFactory</text><path d="M8,591.7031 L8,591.9834 L17.8857,591.1507 L27.7714,591.9608 L37.6571,592.236 L47.5429,590.7519 L57.4286,591.5995 L67.3143,591.1345 L77.2,591.1918 L87.0857,591.6122 L96.9714,590.7813 L106.8571,592.4413 L116.7429,590.8628 L126.6286,591.4394 L136.5143,592.2791 L146.4,591.5888 L156.2857,591.7941 L166.1714,591.6605 L176.0571,591.9412 L185.9429,592.022 L195.8286,592.484 L205.7143,592.5979 L215.6,592.6088 L225.4857,592.0426 L235.3714,592.3212 L245.2571,592.6394 L255.1429,590.7415 L265.0286,592.6078 L274.9143,591.3078 L284.8,592.4149 L294.6857,591.0431 L304.5714,591.6118 L314.4571,592.6919 L324.3429,591.6381 L334.2286,591.8435 L344.1143,592.1546 L354,591.7031 " fill="#F1F1F1" style="stroke:#181818;stroke-width:0.5;"/><path d="M8,599.7031 L8,599.9834 L17.8857,599.1507 L27.7714,599.9608 L37.6571,600.236 L47.5429,598.7519 L57.4286,599.5995 L67.3143,599.1345 L77.2,599.1918 L87.0857,599.6122 L96.9714,598.7813 L106.8571,600.4413 L116.7429,598.8628 L126.6286,599.4394 L136.5143,600.2791 L146.4,599.5888 L156.2857,599.7941 L166.1714,599.6605 L176.0571,599.9412 L185.9429,600.022 L195.8286,600.484 L205.7143,600.5979 L215.6,600.6088 L225.4857,600.0426 L235.3714,600.3212 L245.2571,600.6394 L255.1429,598.7415 L265.0286,600.6078 L274.9143,599.3078 L284.8,600.4149 L294.6857,599.0431 L304.5714,599.6118 L314.4571,600.6919 L324.3429,599.6381 L334.2286,599.8435 L344.1143,600.1546 L354,599.7031 " fill="#F1F1F1" style="stroke:#181818;stroke-width:0.5;"/><text fill="#000000" font-family="FG Virgil" font-size="14" lengthAdjust="spacing" textLength="336" x="13" y="618.2363">create(String, String, String, User, Board, PostItState)</text></g><!--MD5=[d98fa60e7e29446a1b02022748feb6fd]
class PostItRepository--><g id="elem_PostItRepository"><polygon fill="#F1F1F1" points="496.5,540,496.5,540.2102,506.5417,539.5857,516.5833,540.1933,526.625,540.3997,536.6667,539.2866,546.7083,539.9223,556.75,539.5735,566.7917,539.6165,576.8333,539.9318,586.875,539.3086,596.9167,540.5536,606.9583,539.3697,617,539.8022,627.0417,540.4319,637.0833,539.9142,647.125,540.0682,657.1667,539.9681,667.2083,540.1785,677.25,540.2391,687.2917,540.5857,697.3333,540.6711,707.375,540.6793,717.4167,540.2546,727.4583,540.4636,737.5,540,737.5896,540.2163,737.7616,539.9244,738.2937,540.5018,738.5228,540.348,738.9823,540.7502,739.2678,540.7322,739.1153,540.6691,739.3931,541.077,739.789,541.5339,739.6921,541.7867,739.886,542.1599,740,542.5,740.3386,542.5,740.4162,552.3802,739.9961,562.2604,740.2872,572.1406,739.4276,582.0208,740.2844,591.901,740.5482,601.7813,740.4445,611.6615,740.613,621.5417,740,631.4219,739.8512,631.3603,739.6527,631.6922,739.5157,632.0497,739.5425,632.475,739.3537,632.811,739.2678,633.1896,739.3547,633.3995,738.8919,633.2823,738.5169,633.3769,738.2362,633.6993,737.7685,633.5701,737.5,633.9219,737.5,633.4027,727.4583,634.5708,717.4167,634.3575,707.375,634.6564,697.3333,633.6001,687.2917,634.2411,677.25,634.5123,667.2083,633.4495,657.1667,633.826,647.125,634.0479,637.0833,634.5736,627.0417,633.9177,617,634.3844,606.9583,633.3681,596.9167,633.2446,586.875,634.4255,576.8333,633.2049,566.7917,634.4308,556.75,634.1285,546.7083,633.654,536.6667,633.5681,526.625,634.3806,516.5833,633.6225,506.5417,634.5137,496.5,633.9219,496.4295,633.7517,496.2252,633.9656,495.8547,633.7781,495.4706,633.558,495.0918,633.3506,494.7322,633.1896,494.956,633.2823,494.7747,632.9144,494.4915,632.5041,494.3755,632.1632,494.1063,631.7588,494,631.4219,494.7165,631.4219,494.1549,621.5417,494.1726,611.6615,493.3916,601.7813,493.5948,591.901,494.5307,582.0208,494.4298,572.1406,493.9571,562.2604,493.6778,552.3802,494,542.5,493.9326,542.4721,493.9351,542.0589,494.4206,541.8458,494.6671,541.5337,494.7479,541.1529,494.7322,540.7322,494.8209,540.9462,495.0683,540.5437,495.4505,540.4662,495.7435,540.1735,496.1827,540.2339,496.5,540" style="stroke:#181818;stroke-width:0.5;"/><polygon fill="#C2C2C2" points="572.3108,564.0272,570.6984,566.2304,568.7912,569.4573,566.0636,571.632,563.1974,572.8212,560.912,572.9244,557.9747,571.4371,555.2032,570.4655,553.0995,568.4927,551.9961,566.2343,551.3417,564.4361,550.7006,562.0873,549.66,560.066,550.4596,558.0926,551.1602,555.9308,553.7893,554.221,555.639,552.0027,557.9284,551.266,560.6501,550.6316,564.1404,551.0085,566.0521,551.9101,568.2747,552.3188,570.9772,555.0875,571.9193,558.0105,572.3286,560.0049,571.865,563.2914" style="stroke:#181818;stroke-width:1.0;"/><path d="M564.0156,557.2266 Q564.1719,557.0078 564.3594,556.8984 Q564.5469,556.7891 564.7656,556.7891 Q565.1406,556.7891 565.375,557.0547 Q565.6094,557.3047 565.6094,557.9141 L565.6094,559.3672 Q565.6094,559.9766 565.375,560.2422 Q565.1406,560.5078 564.7656,560.5078 Q564.4219,560.5078 564.2188,560.3047 Q564.0156,560.1172 563.9063,559.6016 Q563.8594,559.2422 563.6719,559.0547 Q563.3438,558.6797 562.7344,558.4609 Q562.125,558.2422 561.5,558.2422 Q560.7344,558.2422 560.0938,558.5703 Q559.4688,558.8984 558.9688,559.6484 Q558.4844,560.3984 558.4844,561.4297 L558.4844,562.5234 Q558.4844,563.7578 559.375,564.5859 Q560.2656,565.3984 561.8594,565.3984 Q562.7969,565.3984 563.4531,565.1484 Q563.8438,564.9922 564.2656,564.5547 Q564.5313,564.2891 564.6719,564.2109 Q564.8281,564.1328 565.0313,564.1328 Q565.3594,564.1328 565.6094,564.3984 Q565.875,564.6484 565.875,564.9922 Q565.875,565.3359 565.5313,565.7422 Q565.0313,566.3203 564.2344,566.6484 Q563.1563,567.1016 561.8594,567.1016 Q560.3438,567.1016 559.1406,566.4766 Q558.1563,565.9766 557.4688,564.9141 Q556.7813,563.8359 556.7813,562.5547 L556.7813,561.3984 Q556.7813,560.0703 557.3906,558.9297 Q558.0156,557.7734 559.1094,557.1641 Q560.2031,556.5391 561.4375,556.5391 Q562.1719,556.5391 562.8125,556.7109 Q563.4688,556.8672 564.0156,557.2266 Z " fill="#000000"/><text fill="#000000" font-family="FG Virgil" font-size="12" font-style="italic" lengthAdjust="spacing" textLength="68" x="599.25" y="557.457">«repository»</text><text fill="#000000" font-family="FG Virgil" font-size="14" lengthAdjust="spacing" textLength="103" x="581.75" y="574.627">PostItRepository</text><path d="M495,582.7031 L495,582.9834 L505.1667,582.1507 L515.3333,582.9608 L525.5,583.236 L535.6667,581.7519 L545.8333,582.5995 L556,582.1345 L566.1667,582.1918 L576.3333,582.6122 L586.5,581.7813 L596.6667,583.4413 L606.8333,581.8628 L617,582.4394 L627.1667,583.2791 L637.3333,582.5888 L647.5,582.7941 L657.6667,582.6605 L667.8333,582.9412 L678,583.022 L688.1667,583.484 L698.3333,583.5979 L708.5,583.6088 L718.6667,583.0426 L728.8333,583.3212 L739,582.7031 " fill="#F1F1F1" style="stroke:#181818;stroke-width:0.5;"/><path d="M495,590.7031 L495,590.9834 L505.1667,590.1507 L515.3333,590.9608 L525.5,591.236 L535.6667,589.7519 L545.8333,590.5995 L556,590.1345 L566.1667,590.1918 L576.3333,590.6122 L586.5,589.7813 L596.6667,591.4413 L606.8333,589.8628 L617,590.4394 L627.1667,591.2791 L637.3333,590.5888 L647.5,590.7941 L657.6667,590.6605 L667.8333,590.9412 L678,591.022 L688.1667,591.484 L698.3333,591.5979 L708.5,591.6088 L718.6667,591.0426 L728.8333,591.3212 L739,590.7031 " fill="#F1F1F1" style="stroke:#181818;stroke-width:0.5;"/><text fill="#000000" font-family="FG Virgil" font-size="14" lengthAdjust="spacing" textLength="234" x="500" y="609.2363">positByPosition(String, String, Board)</text><text fill="#000000" font-family="FG Virgil" font-size="14" lengthAdjust="spacing" textLength="75" x="500" y="626.8457">save(PostIt)</text></g><!--MD5=[343839bb48731e46d0fda742d45fdd31]
class BoardRepository--><g id="elem_BoardRepository"><polygon fill="#F1F1F1" points="881.5,549,881.5,549.2102,891.7308,548.5857,901.9615,549.1933,912.1923,549.3997,922.4231,548.2866,932.6538,548.9223,942.8846,548.5735,953.1154,548.6165,963.3462,548.9318,973.5769,548.3086,983.8077,549.5536,994.0385,548.3697,1004.2692,548.8022,1014.5,549,1014.5551,549.133,1014.8426,549.12,1015.2158,549.3139,1015.5566,549.4295,1015.937,549.6408,1016.2678,549.7322,1016.3414,549.7627,1016.5946,550.1605,1016.7673,550.5249,1016.9163,550.8795,1016.932,551.1789,1017,551.5,1017.4636,551.5,1017.7022,561.6875,1016.2788,571.875,1017.6785,582.0625,1016.7035,592.25,1017.5338,602.4375,1016.505,612.625,1017,622.8125,1016.9789,622.8038,1017.0819,623.2607,1016.6921,623.5134,1016.5931,623.8866,1016.5185,624.2699,1016.2678,624.5803,1016.3209,624.7084,1015.9137,624.7255,1015.5973,624.9616,1015.1341,624.8433,1014.8898,625.2536,1014.5,625.3125,1014.5,625.8607,1004.2692,625.757,994.0385,625.9255,983.8077,624.8294,973.5769,624.6603,963.3462,624.6911,953.1154,625.2536,942.8846,625.116,932.6538,625.9939,922.4231,625.1378,912.1923,624.9694,901.9615,625.5408,891.7308,624.6457,881.5,625.3125,881.4338,625.1526,881.2292,625.3659,880.8485,625.1538,880.533,625.0994,880.0447,624.6276,879.7322,624.5803,879.8305,624.621,879.7676,624.302,879.2939,623.8129,879.2634,623.5074,879.1852,623.1821,879,622.8125,879.6518,622.8125,878.9958,612.625,879.4626,602.4375,878.4462,592.25,878.3227,582.0625,879.5036,571.875,878.2831,561.6875,879,551.5,879.1567,551.5649,879.2101,551.1728,879.2104,550.7587,879.3304,550.3942,879.7271,550.1443,879.7322,549.7322,879.694,549.6401,880.1613,549.7681,880.3688,549.2691,880.8717,549.483,881.2082,549.2956,881.5,549" style="stroke:#181818;stroke-width:0.5;"/><polygon fill="#C2C2C2" points="905.0608,573.0272,903.4484,575.2304,901.5412,578.4573,898.8136,580.632,895.9474,581.8212,893.662,581.9244,890.7247,580.4371,887.9532,579.4655,885.8495,577.4927,884.7461,575.2343,884.0917,573.4361,883.4506,571.0873,882.41,569.066,883.2096,567.0926,883.9102,564.9308,886.5393,563.221,888.389,561.0027,890.6784,560.266,893.4001,559.6316,896.8904,560.0085,898.8021,560.9101,901.0247,561.3188,903.7272,564.0875,904.6693,567.0105,905.0786,569.0049,904.615,572.2914" style="stroke:#181818;stroke-width:1.0;"/><path d="M896.7656,566.2266 Q896.9219,566.0078 897.1094,565.8984 Q897.2969,565.7891 897.5156,565.7891 Q897.8906,565.7891 898.125,566.0547 Q898.3594,566.3047 898.3594,566.9141 L898.3594,568.3672 Q898.3594,568.9766 898.125,569.2422 Q897.8906,569.5078 897.5156,569.5078 Q897.1719,569.5078 896.9688,569.3047 Q896.7656,569.1172 896.6563,568.6016 Q896.6094,568.2422 896.4219,568.0547 Q896.0938,567.6797 895.4844,567.4609 Q894.875,567.2422 894.25,567.2422 Q893.4844,567.2422 892.8438,567.5703 Q892.2188,567.8984 891.7188,568.6484 Q891.2344,569.3984 891.2344,570.4297 L891.2344,571.5234 Q891.2344,572.7578 892.125,573.5859 Q893.0156,574.3984 894.6094,574.3984 Q895.5469,574.3984 896.2031,574.1484 Q896.5938,573.9922 897.0156,573.5547 Q897.2813,573.2891 897.4219,573.2109 Q897.5781,573.1328 897.7813,573.1328 Q898.1094,573.1328 898.3594,573.3984 Q898.625,573.6484 898.625,573.9922 Q898.625,574.3359 898.2813,574.7422 Q897.7813,575.3203 896.9844,575.6484 Q895.9063,576.1016 894.6094,576.1016 Q893.0938,576.1016 891.8906,575.4766 Q890.9063,574.9766 890.2188,573.9141 Q889.5313,572.8359 889.5313,571.5547 L889.5313,570.3984 Q889.5313,569.0703 890.1406,567.9297 Q890.7656,566.7734 891.8594,566.1641 Q892.9531,565.5391 894.1875,565.5391 Q894.9219,565.5391 895.5625,565.7109 Q896.2188,565.8672 896.7656,566.2266 Z " fill="#000000"/><text fill="#000000" font-family="FG Virgil" font-size="12" font-style="italic" lengthAdjust="spacing" textLength="68" x="927" y="566.457">«repository»</text><text fill="#000000" font-family="FG Virgil" font-size="14" lengthAdjust="spacing" textLength="106" x="908" y="583.627">BoardRepository</text><path d="M880,591.7031 L880,591.9834 L889.7143,591.1507 L899.4286,591.9608 L909.1429,592.236 L918.8571,590.7519 L928.5714,591.5995 L938.2857,591.1345 L948,591.1918 L957.7143,591.6122 L967.4286,590.7813 L977.1429,592.4413 L986.8571,590.8628 L996.5714,591.4394 L1006.2857,592.2791 L1016,591.7031 " fill="#F1F1F1" style="stroke:#181818;stroke-width:0.5;"/><path d="M880,599.7031 L880,599.9834 L889.7143,599.1507 L899.4286,599.9608 L909.1429,600.236 L918.8571,598.7519 L928.5714,599.5995 L938.2857,599.1345 L948,599.1918 L957.7143,599.6122 L967.4286,598.7813 L977.1429,600.4413 L986.8571,598.8628 L996.5714,599.4394 L1006.2857,600.2791 L1016,599.7031 " fill="#F1F1F1" style="stroke:#181818;stroke-width:0.5;"/><text fill="#000000" font-family="FG Virgil" font-size="14" lengthAdjust="spacing" textLength="99" x="885" y="618.2363">ofIdentity(Long)</text></g><!--MD5=[458552462bbdcbc92793825846cc11c0]
class PostIt--><g id="elem_PostIt"><polygon fill="#F1F1F1" points="196.5,695,196.5,695.2102,206.4348,694.5857,216.3696,695.1933,226.3043,695.3997,236.2391,694.2866,246.1739,694.9223,256.1087,694.5735,266.0435,694.6165,275.9783,694.9318,285.913,694.3086,295.8478,695.5536,305.7826,694.3697,315.7174,694.8022,325.6522,695.4319,335.587,694.9142,345.5217,695.0682,355.4565,694.9681,365.3913,695.1785,375.3261,695.2391,385.2609,695.5857,395.1957,695.6711,405.1304,695.6793,415.0652,695.2546,425,695.4636,434.9348,695.7022,444.8696,694.2788,454.8043,695.6785,464.7391,694.7035,474.6739,695.5338,484.6087,694.505,494.5435,694.9315,504.4783,695.7416,514.413,694.9513,524.3478,695.1053,534.2826,695.3386,544.2174,695.4162,554.1522,694.9961,564.087,695.2872,574.0217,694.4276,583.9565,695.2844,593.8913,695.5482,603.8261,695.4445,613.7609,695.613,623.6957,694.5169,633.6304,694.3478,643.5652,694.3786,653.5,695,653.4925,694.9819,653.8285,695.0859,654.294,695.5027,654.5384,695.3855,654.8705,695.4801,655.2678,695.7322,655.3381,695.7614,655.2089,696.0007,655.4008,696.3731,655.907,696.8757,655.9877,697.202,656,697.5,656.7345,697.5,655.6782,707.6875,656.3192,717.875,656.5904,728.0625,655.5276,738.25,655.9041,748.4375,656.126,758.625,656,768.8125,656.2007,768.8956,655.8523,769.1655,655.8496,769.5786,655.3901,769.8025,655.2056,770.1403,655.2678,770.5803,655.332,770.7354,654.8228,770.5059,654.6256,771.0299,654.2335,771.0832,653.8194,771.0835,653.5,771.3125,653.5,770.9587,643.5652,771.7713,633.6304,771.0132,623.6957,771.9044,613.7609,770.7598,603.8261,771.9299,593.8913,771.7968,583.9565,771.5575,574.0217,771.3597,564.087,772.0391,554.1522,771.9261,544.2174,771.4818,534.2826,771.5807,524.3478,771.1822,514.413,772.029,504.4783,771.4674,494.5435,771.4851,484.6087,770.7041,474.6739,770.9073,464.7391,771.8432,454.8043,771.7423,444.8696,771.2696,434.9348,770.9903,425,771.0936,415.0652,770.6263,405.1304,771.7272,395.1957,772.0521,385.2609,771.8389,375.3261,772.0074,365.3913,771.1758,355.4565,771.3997,345.5217,770.9249,335.587,771.5965,325.6522,771.5593,315.7174,771.8649,305.7826,771.0828,295.8478,771.1781,285.913,771.756,275.9783,771.8798,266.0435,770.8,256.1087,771.1186,246.1739,771.4618,236.2391,770.7017,226.3043,771.6659,216.3696,771.5705,206.4348,771.2117,196.5,771.3125,196.5181,771.3563,196.2394,771.3905,195.753,770.9233,195.4795,770.9702,195.1222,770.8147,194.7322,770.5803,194.7679,770.595,194.6292,770.2447,194.4743,769.8876,194.1007,769.44,194.023,769.1149,194,768.8125,193.5385,768.8125,194.0638,758.625,194.0881,748.4375,194.1617,738.25,193.709,728.0625,193.9325,717.875,193.8798,707.6875,194,697.5,194.1776,697.5736,194.2778,697.2009,194.1434,696.731,194.4169,696.43,194.408,696.0122,194.7322,695.7322,194.769,695.821,195.1634,695.7732,195.5088,695.607,195.7373,695.1588,196.2056,695.2893,196.5,695" style="stroke:#181818;stroke-width:0.5;"/><polygon fill="#C2C2C2" points="405.8108,719.0272,404.1984,721.2304,402.2912,724.4573,399.5636,726.632,396.6974,727.8212,394.412,727.9244,391.4747,726.4371,388.7032,725.4655,386.5995,723.4927,385.4961,721.2343,384.8417,719.4361,384.2006,717.0873,383.16,715.066,383.9596,713.0926,384.6602,710.9308,387.2893,709.221,389.139,707.0027,391.4284,706.266,394.1501,705.6316,397.6404,706.0085,399.5521,706.9101,401.7747,707.3188,404.4772,710.0875,405.4193,713.0105,405.8286,715.0049,405.365,718.2914" style="stroke:#181818;stroke-width:1.0;"/><path d="M397.5156,712.2266 Q397.6719,712.0078 397.8594,711.8984 Q398.0469,711.7891 398.2656,711.7891 Q398.6406,711.7891 398.875,712.0547 Q399.1094,712.3047 399.1094,712.9141 L399.1094,714.3672 Q399.1094,714.9766 398.875,715.2422 Q398.6406,715.5078 398.2656,715.5078 Q397.9219,715.5078 397.7188,715.3047 Q397.5156,715.1172 397.4063,714.6016 Q397.3594,714.2422 397.1719,714.0547 Q396.8438,713.6797 396.2344,713.4609 Q395.625,713.2422 395,713.2422 Q394.2344,713.2422 393.5938,713.5703 Q392.9688,713.8984 392.4688,714.6484 Q391.9844,715.3984 391.9844,716.4297 L391.9844,717.5234 Q391.9844,718.7578 392.875,719.5859 Q393.7656,720.3984 395.3594,720.3984 Q396.2969,720.3984 396.9531,720.1484 Q397.3438,719.9922 397.7656,719.5547 Q398.0313,719.2891 398.1719,719.2109 Q398.3281,719.1328 398.5313,719.1328 Q398.8594,719.1328 399.1094,719.3984 Q399.375,719.6484 399.375,719.9922 Q399.375,720.3359 399.0313,720.7422 Q398.5313,721.3203 397.7344,721.6484 Q396.6563,722.1016 395.3594,722.1016 Q393.8438,722.1016 392.6406,721.4766 Q391.6563,720.9766 390.9688,719.9141 Q390.2813,718.8359 390.2813,717.5547 L390.2813,716.3984 Q390.2813,715.0703 390.8906,713.9297 Q391.5156,712.7734 392.6094,712.1641 Q393.7031,711.5391 394.9375,711.5391 Q395.6719,711.5391 396.3125,711.7109 Q396.9688,711.8672 397.5156,712.2266 Z " fill="#000000"/><text fill="#000000" font-family="FG Virgil" font-size="12" font-style="italic" lengthAdjust="spacing" textLength="56" x="413.25" y="712.457">«domain»</text><text fill="#000000" font-family="FG Virgil" font-size="14" lengthAdjust="spacing" textLength="35" x="423.75" y="729.627">PostIt</text><path d="M195,737.7031 L195,737.9834 L205,737.1507 L215,737.9608 L225,738.236 L235,736.7519 L245,737.5995 L255,737.1345 L265,737.1918 L275,737.6122 L285,736.7813 L295,738.4413 L305,736.8628 L315,737.4394 L325,738.2791 L335,737.5888 L345,737.7941 L355,737.6605 L365,737.9412 L375,738.022 L385,738.484 L395,738.5979 L405,738.6088 L415,738.0426 L425,738.3212 L435,738.6394 L445,736.7415 L455,738.6078 L465,737.3078 L475,738.4149 L485,737.0431 L495,737.6118 L505,738.6919 L515,737.6381 L525,737.8435 L535,738.1546 L545,738.2581 L555,737.6979 L565,738.0861 L575,736.9399 L585,738.0823 L595,738.4341 L605,738.2958 L615,738.5205 L625,737.059 L635,736.8335 L645,736.8746 L655,737.7031 " fill="#F1F1F1" style="stroke:#181818;stroke-width:0.5;"/><path d="M195,745.7031 L195,745.9834 L205,745.1507 L215,745.9608 L225,746.236 L235,744.7519 L245,745.5995 L255,745.1345 L265,745.1918 L275,745.6122 L285,744.7813 L295,746.4413 L305,744.8628 L315,745.4394 L325,746.2791 L335,745.5888 L345,745.7941 L355,745.6605 L365,745.9412 L375,746.022 L385,746.484 L395,746.5979 L405,746.6088 L415,746.0426 L425,746.3212 L435,746.6394 L445,744.7415 L455,746.6078 L465,745.3078 L475,746.4149 L485,745.0431 L495,745.6118 L505,746.6919 L515,745.6381 L525,745.8435 L535,746.1546 L545,746.2581 L555,745.6979 L565,746.0861 L575,744.9399 L585,746.0823 L595,746.4341 L605,746.2958 L615,746.5205 L625,745.059 L635,744.8335 L645,744.8746 L655,745.7031 " fill="#F1F1F1" style="stroke:#181818;stroke-width:0.5;"/><text fill="#000000" font-family="FG Virgil" font-size="14" lengthAdjust="spacing" textLength="450" x="200" y="764.2363">PostIt(PostItContent, PostItRow, PostItColumn, User, Board, PostItState)</text></g><!--MD5=[3fd616f346a44cd59a91eb10b19e157c]
class User--><g id="elem_User"><polygon fill="#F1F1F1" points="847.5,359,847.5,359.2102,857.375,358.5857,867.25,359.1933,877.125,359.3997,887,358.2866,896.875,358.9223,906.75,358.5735,916.625,358.6165,926.5,359,926.4913,358.979,926.7654,358.9335,927.2777,359.4634,927.4803,359.2452,927.889,359.5249,928.2678,359.7322,928.4008,359.7873,928.3878,360.0748,928.5817,360.448,928.6973,360.7888,928.9085,361.1692,929,361.5,929.2391,361.5,929.5857,372.2406,929.6711,382.9813,929.6793,393.7219,929.2546,404.4625,929,415.2031,929.1428,415.2623,929.0698,415.6463,928.485,415.8182,928.7696,416.3503,928.3229,416.5795,928.2678,416.9709,928.3359,417.1353,927.8511,416.9649,927.5519,417.2427,927.3017,417.6386,926.8473,417.5417,926.5,417.7031,926.5,417.8084,916.625,418.0418,906.75,418.1194,896.875,417.6992,887,417.9903,877.125,417.1307,867.25,417.9875,857.375,418.2513,847.5,417.7031,847.5567,417.84,847.2246,417.7455,846.7313,417.2615,846.3561,417.0629,846.0065,416.926,845.7322,416.9709,845.7141,416.9634,845.5253,416.5923,845.6492,416.3507,845.2391,415.8879,845.0408,415.5129,845,415.2031,845.2283,415.2031,844.3332,404.4625,844.4809,393.7219,845.649,382.9813,845.4357,372.2406,845,361.5,845.2262,361.5937,845.0473,361.1054,845.3912,360.8336,845.6212,360.5147,845.4403,360.0255,845.7322,359.7322,845.72,359.7027,846.1019,359.6246,846.5225,359.6401,846.7924,359.2916,847.2055,359.2889,847.5,359" style="stroke:#181818;stroke-width:0.5;"/><polygon fill="#C2C2C2" points="871.0608,383.0272,869.4484,385.2304,867.5412,388.4573,864.8136,390.632,861.9474,391.8212,859.662,391.9244,856.7247,390.4371,853.9532,389.4655,851.8495,387.4927,850.7461,385.2343,850.0917,383.4361,849.4506,381.0873,848.41,379.066,849.2096,377.0926,849.9102,374.9308,852.5393,373.221,854.389,371.0027,856.6784,370.266,859.4001,369.6316,862.8904,370.0085,864.8021,370.9101,867.0247,371.3188,869.7272,374.0875,870.6693,377.0105,871.0786,379.0049,870.615,382.2914" style="stroke:#181818;stroke-width:1.0;"/><path d="M862.7656,376.2266 Q862.9219,376.0078 863.1094,375.8984 Q863.2969,375.7891 863.5156,375.7891 Q863.8906,375.7891 864.125,376.0547 Q864.3594,376.3047 864.3594,376.9141 L864.3594,378.3672 Q864.3594,378.9766 864.125,379.2422 Q863.8906,379.5078 863.5156,379.5078 Q863.1719,379.5078 862.9688,379.3047 Q862.7656,379.1172 862.6563,378.6016 Q862.6094,378.2422 862.4219,378.0547 Q862.0938,377.6797 861.4844,377.4609 Q860.875,377.2422 860.25,377.2422 Q859.4844,377.2422 858.8438,377.5703 Q858.2188,377.8984 857.7188,378.6484 Q857.2344,379.3984 857.2344,380.4297 L857.2344,381.5234 Q857.2344,382.7578 858.125,383.5859 Q859.0156,384.3984 860.6094,384.3984 Q861.5469,384.3984 862.2031,384.1484 Q862.5938,383.9922 863.0156,383.5547 Q863.2813,383.2891 863.4219,383.2109 Q863.5781,383.1328 863.7813,383.1328 Q864.1094,383.1328 864.3594,383.3984 Q864.625,383.6484 864.625,383.9922 Q864.625,384.3359 864.2813,384.7422 Q863.7813,385.3203 862.9844,385.6484 Q861.9063,386.1016 860.6094,386.1016 Q859.0938,386.1016 857.8906,385.4766 Q856.9063,384.9766 856.2188,383.9141 Q855.5313,382.8359 855.5313,381.5547 L855.5313,380.3984 Q855.5313,379.0703 856.1406,377.9297 Q856.7656,376.7734 857.8594,376.1641 Q858.9531,375.5391 860.1875,375.5391 Q860.9219,375.5391 861.5625,375.7109 Q862.2188,375.8672 862.7656,376.2266 Z " fill="#000000"/><text fill="#000000" font-family="FG Virgil" font-size="12" font-style="italic" lengthAdjust="spacing" textLength="56" x="872" y="376.457">«domain»</text><text fill="#000000" font-family="FG Virgil" font-size="14" lengthAdjust="spacing" textLength="29" x="885.5" y="393.627">User</text><path d="M846,401.7031 L846,401.9834 L856.25,401.1507 L866.5,401.9608 L876.75,402.236 L887,400.7519 L897.25,401.5995 L907.5,401.1345 L917.75,401.1918 L928,401.7031 " fill="#F1F1F1" style="stroke:#181818;stroke-width:0.5;"/><path d="M846,409.7031 L846,409.9834 L856.25,409.1507 L866.5,409.9608 L876.75,410.236 L887,408.7519 L897.25,409.5995 L907.5,409.1345 L917.75,409.1918 L928,409.7031 " fill="#F1F1F1" style="stroke:#181818;stroke-width:0.5;"/></g><!--MD5=[9563755d011c5cec7ec66dc53565a59e]
class Board--><g id="elem_Board"><polygon fill="#F1F1F1" points="733,695,733,695.2102,743.16,694.5857,753.32,695.1933,763.48,695.3997,773.64,694.2866,783.8,694.9223,793.96,694.5735,804.12,694.6165,814.28,694.9318,824.44,694.3086,834.6,695.5536,844.76,694.3697,854.92,694.8022,865.08,695.4319,875.24,694.9142,885.4,695.0682,895.56,694.9681,905.72,695.1785,915.88,695.2391,926.04,695.5857,936.2,695.6711,946.36,695.6793,956.52,695.2546,966.68,695.4636,976.84,695.7022,987,695,986.908,694.7779,987.4401,695.3554,987.6693,695.2016,988.1288,695.6037,988.3511,695.4333,988.7678,695.7322,988.7467,695.7235,989.1426,696.1804,989.0457,696.4331,989.2395,696.8063,989.4578,697.1896,989.5,697.5,989.9162,697.5,989.4961,707.6875,989.7872,717.875,988.9276,728.0625,989.7844,738.25,990.0482,748.4375,989.9445,758.625,989.5,768.8125,989.6888,768.8907,989.2048,769.1044,989.0063,769.4364,988.8693,769.7939,988.8961,770.2192,988.7678,770.5803,988.7427,770.5197,988.5011,770.9366,988.0384,770.8194,987.6633,770.914,987.3827,771.2364,987,771.3125,987,770.6457,976.84,770.7934,966.68,771.9615,956.52,771.7482,946.36,772.047,936.2,770.9907,926.04,771.6317,915.88,771.9029,905.72,770.8401,895.56,771.2166,885.4,771.4385,875.24,771.9643,865.08,771.3083,854.92,771.7751,844.76,770.7587,834.6,770.6352,824.44,771.8161,814.28,770.5956,804.12,771.8215,793.96,771.5191,783.8,771.0446,773.64,770.9587,763.48,771.7713,753.32,771.0132,743.16,771.9044,733,771.3125,732.9295,771.1423,732.7252,771.3562,732.3547,771.1688,731.9706,770.9486,731.5918,770.7413,731.2322,770.5803,731.456,770.673,731.2747,770.305,730.9915,769.8948,730.8755,769.5538,730.6063,769.1494,730.5,768.8125,731.2165,768.8125,730.6549,758.625,730.6726,748.4375,729.8916,738.25,730.0948,728.0625,731.0307,717.875,730.9298,707.6875,730.5,697.5,730.4868,697.4945,730.5472,697.1054,730.7255,696.765,730.728,696.3518,731.2135,696.1387,731.2322,695.7322,731.3266,695.96,731.6529,695.7479,732.028,695.6534,732.2755,695.2508,732.6576,695.1733,733,695" style="stroke:#181818;stroke-width:0.5;"/><polygon fill="#C2C2C2" points="840.8108,719.0272,839.1984,721.2304,837.2912,724.4573,834.5636,726.632,831.6974,727.8212,829.412,727.9244,826.4747,726.4371,823.7032,725.4655,821.5995,723.4927,820.4961,721.2343,819.8417,719.4361,819.2006,717.0873,818.16,715.066,818.9596,713.0926,819.6602,710.9308,822.2893,709.221,824.139,707.0027,826.4284,706.266,829.1501,705.6316,832.6404,706.0085,834.5521,706.9101,836.7747,707.3188,839.4772,710.0875,840.4193,713.0105,840.8286,715.0049,840.365,718.2914" style="stroke:#181818;stroke-width:1.0;"/><path d="M832.5156,712.2266 Q832.6719,712.0078 832.8594,711.8984 Q833.0469,711.7891 833.2656,711.7891 Q833.6406,711.7891 833.875,712.0547 Q834.1094,712.3047 834.1094,712.9141 L834.1094,714.3672 Q834.1094,714.9766 833.875,715.2422 Q833.6406,715.5078 833.2656,715.5078 Q832.9219,715.5078 832.7188,715.3047 Q832.5156,715.1172 832.4063,714.6016 Q832.3594,714.2422 832.1719,714.0547 Q831.8438,713.6797 831.2344,713.4609 Q830.625,713.2422 830,713.2422 Q829.2344,713.2422 828.5938,713.5703 Q827.9688,713.8984 827.4688,714.6484 Q826.9844,715.3984 826.9844,716.4297 L826.9844,717.5234 Q826.9844,718.7578 827.875,719.5859 Q828.7656,720.3984 830.3594,720.3984 Q831.2969,720.3984 831.9531,720.1484 Q832.3438,719.9922 832.7656,719.5547 Q833.0313,719.2891 833.1719,719.2109 Q833.3281,719.1328 833.5313,719.1328 Q833.8594,719.1328 834.1094,719.3984 Q834.375,719.6484 834.375,719.9922 Q834.375,720.3359 834.0313,720.7422 Q833.5313,721.3203 832.7344,721.6484 Q831.6563,722.1016 830.3594,722.1016 Q828.8438,722.1016 827.6406,721.4766 Q826.6563,720.9766 825.9688,719.9141 Q825.2813,718.8359 825.2813,717.5547 L825.2813,716.3984 Q825.2813,715.0703 825.8906,713.9297 Q826.5156,712.7734 827.6094,712.1641 Q828.7031,711.5391 829.9375,711.5391 Q830.6719,711.5391 831.3125,711.7109 Q831.9688,711.8672 832.5156,712.2266 Z " fill="#000000"/><text fill="#000000" font-family="FG Virgil" font-size="12" font-style="italic" lengthAdjust="spacing" textLength="56" x="848.25" y="712.457">«domain»</text><text fill="#000000" font-family="FG Virgil" font-size="14" lengthAdjust="spacing" textLength="38" x="857.25" y="729.627">Board</text><path d="M731.5,737.7031 L731.5,737.9834 L741.3846,737.1507 L751.2692,737.9608 L761.1538,738.236 L771.0385,736.7519 L780.9231,737.5995 L790.8077,737.1345 L800.6923,737.1918 L810.5769,737.6122 L820.4615,736.7813 L830.3462,738.4413 L840.2308,736.8628 L850.1154,737.4394 L860,738.2791 L869.8846,737.5888 L879.7692,737.7941 L889.6538,737.6605 L899.5385,737.9412 L909.4231,738.022 L919.3077,738.484 L929.1923,738.5979 L939.0769,738.6088 L948.9615,738.0426 L958.8462,738.3212 L968.7308,738.6394 L978.6154,736.7415 L988.5,737.7031 " fill="#F1F1F1" style="stroke:#181818;stroke-width:0.5;"/><path d="M731.5,745.7031 L731.5,745.9834 L741.3846,745.1507 L751.2692,745.9608 L761.1538,746.236 L771.0385,744.7519 L780.9231,745.5995 L790.8077,745.1345 L800.6923,745.1918 L810.5769,745.6122 L820.4615,744.7813 L830.3462,746.4413 L840.2308,744.8628 L850.1154,745.4394 L860,746.2791 L869.8846,745.5888 L879.7692,745.7941 L889.6538,745.6605 L899.5385,745.9412 L909.4231,746.022 L919.3077,746.484 L929.1923,746.5979 L939.0769,746.6088 L948.9615,746.0426 L958.8462,746.3212 L968.7308,746.6394 L978.6154,744.7415 L988.5,745.7031 " fill="#F1F1F1" style="stroke:#181818;stroke-width:0.5;"/><text fill="#000000" font-family="FG Virgil" font-size="14" lengthAdjust="spacing" textLength="247" x="736.5" y="764.2363">userHasPermission(User, AccessLevel)</text></g><!--MD5=[5b492439c7d72eccc85b0e7f3ef1fd85]
link HttpServerAjax to CreatePostItController--><g id="link_HttpServerAjax_CreatePostItController"><path d="M718.22,83.18 L718.4302,83.3653 L711.2976,90.1967 L705.3973,98.1144 L699.0957,105.6784 L691.4745,112.079 L685.6023,120.0215 L678.7454,127.0959 L672.2804,134.5159 L666.0878,142.1759 L658.9565,149.0084 L653.14,157 " fill="none" style="stroke:#181818;stroke-width:1.0;"/><polygon fill="#181818" points="649.67,160.94,649.6992,161.0037,651.4029,159.9934,653.2778,159.3564,655.097,158.5978,656.7328,157.4395,658.6224,156.8346,658.6208,156.8087,657.4843,156.7637,656.3561,156.849,655.2335,157.0249,654.0914,156.8886,652.9767,157.1896,653.1609,157.2011,652.696,156.0472,652.7689,154.9271,652.9074,153.8112,652.6641,152.6712,652.6217,151.5439,652.6434,151.5507,652.0212,153.4199,651.4978,155.3201,650.9267,157.2054,650.4466,159.1193,649.67,160.94" style="stroke:#181818;stroke-width:1.0;"/><text fill="#000000" font-family="FG Virgil" font-size="13" lengthAdjust="spacing" textLength="73" x="690" y="127.4951">theController</text></g><!--MD5=[886edeef38e246f68555233ed43ef7bd]
link HttpServerAjax to SessionManager--><g id="link_HttpServerAjax_SessionManager"><path d="M784.27,83.18 L784.4789,83.3669 L790.2756,89.9844 L797.2966,97.6973 L803.919,105.0535 L809.2302,111.2367 L816.2791,118.9745 L822.3498,125.8372 L828.8098,133.0482 L835.5405,140.5012 L841.3385,147.1199 L848.9929,155.3995 L854.86,162.08 " fill="none" style="stroke:#181818;stroke-width:1.0;"/><polygon fill="#181818" points="858.22,165.83,858.2867,165.8516,857.4827,163.9133,857.0695,162.1013,856.529,160.2482,855.57,158.2598,855.1904,156.4587,855.1645,156.4573,854.9868,157.5806,854.9395,158.7111,854.9828,159.8465,854.7138,160.9649,854.8823,162.1072,854.8923,162.2914,853.7411,161.8358,852.6193,161.9181,851.501,162.0661,850.362,161.8321,849.2338,161.7991,849.2431,161.8198,851.0267,162.5955,852.8526,163.4657,854.6582,164.2904,856.5027,165.2019,858.22,165.83" style="stroke:#181818;stroke-width:1.0;"/><text fill="#000000" font-family="FG Virgil" font-size="13" lengthAdjust="spacing" textLength="95" x="825" y="127.4951">sessionManager</text></g><!--MD5=[cfa8c6cc09150aa1a34895e749736282]
link SessionManager to User--><g id="link_SessionManager_User"><path d="M887,232.23 L887.2802,232.23 L886.4476,242.3267 L887.2577,252.4233 L887.5329,262.52 L886.0488,272.6167 L886.8964,282.7133 L886.4313,292.81 L886.4887,302.9067 L886.9091,313.0033 L886.0782,323.1 L887.7382,333.1967 L886.1596,343.2933 L887,353.39 " fill="none" style="stroke:#181818;stroke-width:1.0;stroke-dasharray:7.0,7.0;"/><polygon fill="#181818" points="887,358.76,887.064,358.7885,887.6738,356.9039,888.6589,355.1862,889.5217,353.4141,889.9827,351.4634,891,349.76,890.9817,349.7417,890.0995,350.4595,889.3096,351.2696,888.5839,352.1439,887.637,352.797,887,353.76,887.1305,353.8905,886.0514,352.8114,885.3534,352.1134,884.7018,351.4618,883.7798,350.5398,883,349.76,883.0208,349.7692,883.7903,351.5557,884.6544,353.3842,885.4728,355.1924,886.3784,357.0393,887,358.76" style="stroke:#181818;stroke-width:1.0;"/></g><!--MD5=[4b03a02e88ef3721d1a2bf82f5cad9dc]
link CreatePostItController to PostItService--><g id="link_CreatePostItController_PostItService"><path d="M617,237.04 L617.2802,237.04 L616.4476,247.4386 L617.2577,257.8371 L617.5329,268.2357 L616.0488,278.6343 L616.8964,289.0329 L616.4313,299.4314 L617,309.83 " fill="none" style="stroke:#181818;stroke-width:1.0;"/><polygon fill="#181818" points="617,314.84,617.064,314.8685,617.6738,312.9839,618.6589,311.2662,619.5217,309.4941,619.9827,307.5434,621,305.84,620.9817,305.8217,620.0995,306.5395,619.3096,307.3496,618.5839,308.2239,617.637,308.877,617,309.84,617.1305,309.9705,616.0514,308.8914,615.3534,308.1934,614.7018,307.5418,613.7798,306.6198,613,305.84,613.0208,305.8492,613.7903,307.6357,614.6544,309.4642,615.4728,311.2724,616.3784,313.1193,617,314.84" style="stroke:#181818;stroke-width:1.0;"/><text fill="#000000" font-family="FG Virgil" font-size="13" lengthAdjust="spacing" textLength="53" x="618" y="281.4951">boardSvc</text></g><!--MD5=[b9692feec0cb1506ec17cf1d0e1e1acb]
link PostItService to PostItFactory--><g id="link_PostItService_PostItFactory"><path d="M463.72,434.2 L463.7505,434.2883 L460.1121,435.2498 L456.6524,436.7289 L453.1345,438.0395 L449.4253,438.7956 L445.9809,440.3192 L445.9692,440.2867 L442.3154,441.4319 L438.7204,442.7411 L435.1662,444.1642 L431.4712,445.1946 L427.9734,446.775 L428.0595,447.0055 L424.2442,447.869 L420.6803,449.4055 L417.147,451.0241 L413.4353,452.1649 L409.8174,453.557 L409.8284,453.5853 L406.1752,454.9634 L402.5723,456.4701 L398.9451,457.9148 L395.3641,459.4779 L391.6325,460.655 L391.7454,460.931 L388.128,462.4151 L384.4378,463.7212 L380.8542,465.2878 L377.2755,466.8667 L373.5386,468.0586 L373.4118,467.7642 L370.0812,469.8754 L366.3331,471.0171 L362.9024,472.8959 L359.145,474.0156 L355.6553,475.7575 L355.6427,475.7298 L352.2812,477.6543 L348.6252,478.9313 L345.143,480.5904 L341.6754,482.2816 L338.1025,483.7414 L338.183,483.908 L334.6813,485.3916 L331.317,487.1598 L327.7304,488.4675 L324.4755,490.4621 L321,492 L321.112,492.2164 L318.8161,493.3535 L316.5758,494.598 L314.077,495.3434 L311.7677,496.4547 L309.6262,497.8901 L309.4924,497.6485 L307.3335,499.1298 L305.0239,500.3388 L302.9329,501.9427 L300.4685,502.8724 L298.2261,504.2028 L298.1491,504.0712 L296.0089,505.6186 L293.5394,506.6036 L291.3042,507.9885 L289.298,509.7647 L286.8838,510.8441 L286.9852,511.0091 L284.8146,512.4975 L282.329,513.4726 L280.238,515.0905 L278.0611,516.5684 L275.6838,517.72 L275.5706,517.5431 L273.4661,519.0874 L271.3244,520.5738 L269.2556,522.174 L266.9038,523.3316 L264.7101,524.7365 L264.8236,524.9079 L262.4415,525.944 L260.2786,527.3108 L258.4358,529.161 L256.0037,530.1214 L254.047,531.7997 L254.1746,531.9865 L252.0452,533.2787 L249.8726,534.5077 L247.7975,535.8794 L245.9476,537.5807 L243.7789,538.8155 L243.7025,538.7066 L241.9723,540.4057 L239.7222,541.3643 L238.0633,543.1648 L236.0715,544.4912 L233.99,545.69 " fill="none" style="stroke:#181818;stroke-width:1.0;"/><polygon fill="#181818" points="229.64,548.79,229.6541,548.8586,231.5415,548.2576,233.5116,548.0588,235.4548,547.729,237.3093,546.9684,239.2866,546.8042,239.2823,546.7786,238.1472,546.4791,237.0334,546.3083,235.9344,546.2271,234.7843,545.8373,233.7058,545.8798,233.8878,545.9099,233.6834,544.7293,234.0105,543.6367,234.4025,542.5548,234.4171,541.4104,234.6302,540.299,234.6498,540.3105,233.623,541.9918,232.6854,543.7255,231.7048,545.434,230.8064,547.1907,229.64,548.79" style="stroke:#181818;stroke-width:1.0;"/><text fill="#000000" font-family="FG Virgil" font-size="13" lengthAdjust="spacing" textLength="76" x="322" y="506.4951">postItFactory</text></g><!--MD5=[778855c556e50cd29727724975a88767]
link PostItService to PostItRepository--><g id="link_PostItService_PostItRepository"><path d="M617,462.11 L617.2802,462.11 L616.4476,472.4729 L617.2577,482.8357 L617.5329,493.1986 L616.0488,503.5614 L616.8964,513.9243 L616.4313,524.2871 L617,534.65 " fill="none" style="stroke:#181818;stroke-width:1.0;"/><polygon fill="#181818" points="617,539.89,617.064,539.9185,617.6738,538.0339,618.6589,536.3162,619.5217,534.5441,619.9827,532.5934,621,530.89,620.9817,530.8717,620.0995,531.5895,619.3096,532.3996,618.5839,533.2739,617.637,533.927,617,534.89,617.1305,535.0205,616.0514,533.9414,615.3534,533.2434,614.7018,532.5918,613.7798,531.6698,613,530.89,613.0208,530.8992,613.7903,532.6857,614.6544,534.5142,615.4728,536.3224,616.3784,538.1693,617,539.89" style="stroke:#181818;stroke-width:1.0;"/><text fill="#000000" font-family="FG Virgil" font-size="13" lengthAdjust="spacing" textLength="94" x="618" y="506.4951">postItRepository</text></g><!--MD5=[85f25023764845daeae7ec7566bd8a25]
link PostItService to BoardRepository--><g id="link_PostItService_BoardRepository"><path d="M770.24,454.95 L770.283,455.0329 L773.5358,456.538 L777.0406,458.5293 L780.4633,460.3623 L783.6163,461.6746 L787.1427,463.7077 L787.1261,463.6773 L790.3951,465.365 L793.7475,467.2055 L797.1578,469.1522 L800.3684,470.7328 L803.8588,472.8263 L803.9818,473.0393 L806.988,474.4723 L810.3535,476.5273 L813.7628,478.6583 L816.9171,480.3476 L820.2055,482.2692 L820.2214,482.295 L823.3569,484.2033 L826.5649,486.2291 L829.7379,488.1982 L832.9776,490.2755 L836,492 L836.1643,492.2489 L837.9891,493.4552 L839.708,494.501 L841.5819,495.7818 L843.4632,497.0735 L845.114,498.0163 L844.9301,497.7538 L847.1069,499.5383 L848.678,500.4584 L850.7095,502.0357 L852.2669,502.9362 L854.213,504.3914 L854.1949,504.3669 L856.2131,505.9866 L857.8092,507.0336 L859.6544,508.4185 L861.5205,509.8318 L863.2357,511.0404 L863.3485,511.1871 L865.0118,512.4067 L866.8678,513.8769 L868.4119,514.9418 L870.4212,516.6113 L872.1212,517.8788 L872.2734,518.0691 L873.982,519.4217 L875.7662,520.8687 L877.1996,521.8767 L878.8901,523.2066 L880.8085,524.8216 L880.6326,524.6087 L882.4774,526.1939 L884.124,527.5393 L886.0581,529.2326 L887.5014,530.3318 L889.2364,531.7842 L889.1369,531.6687 L892.4694,534.5902 L895.3764,537.018 L898.5859,539.7969 L902.0916,542.9193 L905.07,545.43 " fill="none" style="stroke:#181818;stroke-width:1.0;"/><polygon fill="#181818" points="909.01,548.93,909.0738,548.9589,908.0708,547.079,907.4418,545.3687,906.6911,543.6031,905.5397,541.6559,904.9429,539.9601,904.917,539.9586,904.8671,541.0812,904.9476,542.2115,905.1187,543.3471,904.9775,544.4644,905.2737,545.6073,905.2845,545.7915,904.132,545.4637,903.011,545.6738,901.8939,545.9495,900.7543,545.8434,899.6266,545.9381,899.6335,545.9598,901.5,546.5264,903.398,547.1916,905.2808,547.8092,907.1926,548.5176,909.01,548.93" style="stroke:#181818;stroke-width:1.0;"/><text fill="#000000" font-family="FG Virgil" font-size="13" lengthAdjust="spacing" textLength="94" x="860" y="506.4951">boardRepository</text></g><!--MD5=[2dd22cea3aeea39cf43778b727913196]
link PostItFactory to PostIt--><g id="link_PostItFactory_PostIt"><path d="M243.84,625.08 L243.9824,625.3213 L252.2807,629.752 L261.4141,635.5973 L270.2755,640.982 L278.2427,644.8516 L287.395,650.7292 L295.8802,655.4764 L304.6309,660.6735 L313.5661,666.1833 L321.8653,670.6154 L331.4306,677.1926 L339.3498,680.9809 L348.3644,686.6252 L357.22,692 " fill="none" style="stroke:#181818;stroke-width:1.0;"/><polygon fill="#181818" points="361.95,694.79,362.007,694.8307,360.6931,693.1066,359.7135,691.6211,358.625,690.0579,357.1786,688.2391,356.2276,686.7741,356.2025,686.7676,356.373,687.834,356.6698,688.933,357.0546,690.0547,357.1364,691.0981,357.6425,692.2512,357.6887,692.4298,356.4946,692.3307,355.4352,692.7533,354.3923,693.2395,353.2537,693.3554,352.1655,693.6661,352.1681,693.6887,354.1212,693.8803,356.0861,694.1748,358.0453,694.4196,360.0154,694.7592,361.95,694.79" style="stroke:#181818;stroke-width:1.0;"/></g><!--MD5=[a179befad2a701e07a9299659a8da84c]
link PostItRepository to PostIt--><g id="link_PostItRepository_PostIt"><path d="M555.46,634.16 L555.6281,634.3842 L547.4286,639.492 L540.2146,645.9142 L532.6797,651.9084 L524.0893,656.495 L516.8978,662.9471 L508.9188,668.349 L501.2532,674.1689 L493.8055,680.2793 L485.607,685.3885 L478.46,691.9 " fill="none" style="stroke:#181818;stroke-width:1.0;"/><polygon fill="#181818" points="474.36,694.98,474.3756,695.0483,476.2492,694.4054,478.2144,694.1628,480.1498,693.7899,481.9869,692.9882,483.96,692.78,483.9563,692.7544,482.8199,692.4793,481.7019,692.3335,480.5968,692.2775,479.4474,691.9119,478.36,691.98,478.5427,692.0061,478.312,690.8303,478.6147,689.7307,478.9825,688.6404,478.9717,687.496,479.16,686.38,479.1799,686.3911,478.1907,688.0948,477.292,689.849,476.3496,691.5788,475.4905,693.3551,474.36,694.98" style="stroke:#181818;stroke-width:1.0;"/></g><!--MD5=[c2b2d28b8f8fd1e85bbeebc0fff5bd46]
link BoardRepository to Board--><g id="link_BoardRepository_Board"><path d="M925.34,625.08 L925.5791,625.2261 L919.8936,632.9332 L915.6099,641.4969 L910.8697,649.7816 L904.6284,657.149 L900.3766,665.7322 L895.0048,673.631 L890.0787,681.8021 L885.54,690.21 " fill="none" style="stroke:#181818;stroke-width:1.0;"/><polygon fill="#181818" points="882.89,694.54,882.9297,694.5978,884.4355,693.3109,886.1738,692.3627,887.8364,691.3041,889.25,689.8831,891.0083,688.9639,891.0023,688.9387,889.8749,689.0887,888.7778,689.3657,887.7019,689.731,886.5533,689.792,885.5065,690.2793,885.686,690.3222,885.0391,689.13,884.9162,688.0632,884.8573,687.0117,884.4264,685.8712,884.1911,684.7775,884.2136,684.7805,883.9203,686.7286,883.7296,688.6903,883.4895,690.6455,883.3437,692.6133,882.89,694.54" style="stroke:#181818;stroke-width:1.0;"/></g><!--MD5=[90d69ff1202b184f782b05dfe7501887]
link PostItService to PostIt--><g id="link_PostItService_PostIt"><path d="M506.07,462.26 L506.1325,462.3294 L504.0772,463.8078 L502.3883,465.693 L500.5802,467.4458 L498.3794,468.7629 L496.7221,470.683 L496.6981,470.6582 L494.7639,472.3095 L492.9506,474.0862 L491.2213,475.9499 L489.2024,477.5135 L487.5892,479.4975 L487.7667,479.668 L485.6204,481.1424 L483.9922,483.1146 L482.4272,485.1475 L480.4945,486.8272 L478.7552,488.6926 L478.7779,488.7127 L477.0543,490.5962 L475.4341,492.5711 L473.764,494.5019 L472.1891,496.5169 L470.3038,498.2575 L470.5361,498.4445 L468.942,500.4315 L467.1979,502.298 L465.6733,504.3411 L464.1589,506.3923 L462.3187,508.1815 L462.0591,507.9936 L461.0761,510.4127 L459.238,512.2131 L458.05,514.4839 L456.1926,516.2703 L454.8839,518.4538 L454.8583,518.4373 L453.8012,520.7536 L452.1453,522.686 L450.8428,524.8449 L449.5699,527.0228 L448.0831,529.0635 L448.2447,529.1534 L446.8649,531.25 L445.7614,533.5002 L444.2109,535.5017 L443.3271,537.8741 L442,540 L442.2232,540.0978 L440.5854,543.7201 L439.0585,547.391 L437.0168,550.8363 L435.3524,554.4469 L434.0224,558.2041 L433.7611,558.1148 L433.3486,560.0949 L432.6418,561.9744 L432.362,563.9998 L431.353,565.776 L430.7774,567.7004 L430.6309,567.6582 L430.3175,569.6661 L429.3778,571.4939 L428.8835,573.4497 L428.825,575.5309 L427.9905,577.3889 L428.1788,577.4341 L427.8364,579.4306 L426.9084,581.2867 L426.714,583.3187 L426.3597,585.3124 L425.633,587.2167 L425.4271,587.1761 L425.2,589.1913 L424.9055,591.1932 L424.7435,593.2213 L424.0662,595.1477 L423.6767,597.1308 L423.8798,597.1632 L423.1169,599.0816 L422.746,601.0625 L422.9476,603.1345 L422.0952,605.0387 L422.0931,607.0783 L422.3176,607.1064 L421.9364,609.0753 L421.4792,611.0348 L421.1935,613.0156 L421.3039,615.0459 L420.8538,617.0063 L420.7211,616.9957 L420.804,620.9442 L419.985,624.8208 L420.1915,628.7792 L419.8206,632.6915 L419.294,636.5915 L419.4029,636.5945 L419.2102,640.3664 L419.4073,644.1491 L419.2523,647.922 L418.9501,651.6908 L418.7702,655.463 L418.8893,655.4649 L418.7692,659.0088 L419.2023,662.5617 L419.0097,666.1045 L419.0744,669.6514 L419.0546,673.197 L418.7846,673.1826 L419.0479,676.422 L419.6363,679.6788 L419.7646,682.911 L419.7279,686.1344 L419.92,689.37 " fill="none" style="stroke:#181818;stroke-width:1.0;"/><polygon fill="#181818" points="420.33,694.72,420.396,694.7436,420.864,692.819,421.7188,691.0328,422.4476,689.2015,422.7624,687.222,423.6503,685.4477,423.6307,685.4308,422.8042,686.2121,422.0767,687.0787,421.418,688.0045,420.5223,688.7262,419.9585,689.7338,420.079,689.8736,418.9642,688.8363,418.2011,688.2072,417.4808,687.6278,416.511,686.7587,415.6724,686.042,415.6925,686.0528,416.5946,687.7726,417.5879,689.5414,418.5372,691.2865,419.5705,693.0767,420.33,694.72" style="stroke:#181818;stroke-width:1.0;"/><text fill="#000000" font-family="FG Virgil" font-size="13" lengthAdjust="spacing" textLength="32" x="443" y="592.4951">postIt</text></g><!--MD5=[c1d64969c1e6637ffbfc0335cb94ce1b]
link PostItService to Board--><g id="link_PostItService_Board"><path d="M693.35,462.12 L693.4177,462.1843 L696.0467,464.9737 L699.0728,468.1402 L701.9696,471.1838 L704.4411,473.8237 L707.5013,477.0225 L707.4758,476.9992 L708.7339,478.3949 L710.1204,479.9082 L711.5963,481.5032 L712.7644,482.8166 L714.3636,484.5244 L714.5476,484.6877 L715.4814,485.8335 L716.9524,487.4563 L718.489,489.1372 L719.6442,490.4796 L721,492 L721.0232,492.0196 L722.9844,494.356 L725.0512,496.7815 L727.0671,499.164 L729.1801,501.6285 L730.9764,503.8259 L731.2104,504.0108 L733.1576,506.4733 L734.9539,508.8165 L736.9711,511.3343 L738.9986,513.8603 L740.6981,516.1271 L740.441,515.9356 L742.8304,518.8452 L744.3733,521.1244 L746.5597,523.8828 L748.0834,526.1477 L750.1503,528.8171 L750.1254,528.7995 L752.2531,531.6056 L753.7996,534.0016 L755.6891,536.6395 L757.6074,539.2978 L759.318,541.8095 L759.4716,541.9127 L761.0902,544.4502 L762.9713,547.164 L764.4278,549.5927 L766.5176,552.4467 L768.1863,555.0179 L768.3914,555.1494 L770.0634,557.7921 L771.8373,560.5001 L773.138,562.9047 L774.7856,565.5316 L776.7404,568.3557 L776.5051,568.2111 L778.3631,571.0181 L779.956,573.6623 L781.9334,576.5427 L783.2542,579.0197 L784.9654,581.7365 L784.8341,581.6589 L786.6289,584.4555 L787.8626,586.9206 L789.4953,589.6215 L791.5184,592.553 L792.8463,595.0738 L793.0145,595.1696 L794.6343,597.8768 L795.7308,600.2859 L797.4827,603.0684 L799.0918,605.7695 L800.3682,608.2811 L800.1843,608.1799 L801.7605,610.8587 L803.2765,613.5044 L804.9109,616.2153 L806.0851,618.6729 L807.5163,621.272 L807.6978,621.3686 L808.651,623.6938 L809.9544,626.2056 L811.7695,628.99 L812.6426,631.2726 L814.2757,633.96 L814.4766,634.0638 L815.6284,636.4619 L816.7122,638.8248 L817.9494,641.267 L819.5414,643.8925 L820.6314,646.2586 L820.5122,646.1995 L823.1553,650.9921 L824.9877,655.3828 L827.7418,660.2304 L829.977,664.8208 L832.0724,669.3419 L832.1709,669.3882 L834.0209,673.4484 L836.2236,677.6747 L838.1077,681.7509 L839.8585,685.7644 L841.72,689.83 " fill="none" style="stroke:#181818;stroke-width:1.0;"/><polygon fill="#181818" points="843.9,694.61,843.9701,694.6108,843.7402,692.6388,843.9211,690.6714,843.9682,688.7025,843.5756,686.7288,843.7917,684.7617,843.7674,684.7527,843.2639,685.7725,842.8829,686.8379,842.5869,687.9349,841.9977,688.9228,841.8192,690.0636,841.8835,690.2365,840.6856,689.4721,839.6755,689.2128,838.6883,689.015,837.5678,688.4588,836.5174,688.091,836.5324,688.1081,837.9868,689.3869,839.5098,690.7432,840.9997,692.0622,842.5527,693.4526,843.9,694.61" style="stroke:#181818;stroke-width:1.0;"/><text fill="#000000" font-family="FG Virgil" font-size="13" lengthAdjust="spacing" textLength="32" x="816" y="592.4951">board</text></g><!--MD5=[ab92cfb1e41c6634ca51b575430de357]
@startuml
'http://plantuml.com/skinparam.html
skinparam handwritten true
skinparam monochrome true
skinparam packageStyle rect
skinparam defaultFontName FG Virgil
skinparam shadowing false


class HttpServerAjax <<http server>>
class CreatePostItController <<application>>
class SessionManager
class PostItService <<service>>
class PostItFactory <<factory>>
class PostItRepository <<repository>>
class BoardRepository <<repository>>
class PostIt <<domain>>
class User <<domain>>
class Board <<domain>>


HttpServerAjax - -> CreatePostItController: theController
HttpServerAjax - -> SessionManager: sessionManager
SessionManager ..> User
CreatePostItController - -> PostItService: boardSvc
PostItService - -> PostItFactory: postItFactory
PostItService - -> PostItRepository: postItRepository
PostItService - -> BoardRepository: boardRepository
PostItFactory - -> PostIt
PostItRepository - -> PostIt
BoardRepository - -> Board
PostItService - -> PostIt: postIt
PostItService - -> Board: board



HttpServerAjax : createPostIt(PostItBody, String)
SessionManager : getUserByToken(String)
CreatePostItController : createPostIt(String, String, String, String, User)
PostItService : createPostIt(String, String, String, User, String)
PostItService : checkIfIsRowEntryTitle(String, Board)
PostItService : checkIfIsColumnEntryTitle(String, Board)
PostItService : postItByPosition(String, String, Board)
PostItService : isNumeric(String)
PostItFactory : create(String, String, String, User, Board, PostItState)
Board : userHasPermission(User, AccessLevel)
PostItRepository : positByPosition(String, String, Board)
PostItRepository : save(PostIt)
BoardRepository : ofIdentity(Long)
PostIt : PostIt(PostItContent, PostItRow, PostItColumn, User, Board, PostItState)


@enduml

@startuml
skinparam handwritten true
skinparam monochrome true
skinparam packageStyle rect
skinparam defaultFontName FG Virgil
skinparam shadowing false


class HttpServerAjax <<http server>>
class CreatePostItController <<application>>
class SessionManager
class PostItService <<service>>
class PostItFactory <<factory>>
class PostItRepository <<repository>>
class BoardRepository <<repository>>
class PostIt <<domain>>
class User <<domain>>
class Board <<domain>>


HttpServerAjax - -> CreatePostItController: theController
HttpServerAjax - -> SessionManager: sessionManager
SessionManager ..> User
CreatePostItController - -> PostItService: boardSvc
PostItService - -> PostItFactory: postItFactory
PostItService - -> PostItRepository: postItRepository
PostItService - -> BoardRepository: boardRepository
PostItFactory - -> PostIt
PostItRepository - -> PostIt
BoardRepository - -> Board
PostItService - -> PostIt: postIt
PostItService - -> Board: board



HttpServerAjax : createPostIt(PostItBody, String)
SessionManager : getUserByToken(String)
CreatePostItController : createPostIt(String, String, String, String, User)
PostItService : createPostIt(String, String, String, User, String)
PostItService : checkIfIsRowEntryTitle(String, Board)
PostItService : checkIfIsColumnEntryTitle(String, Board)
PostItService : postItByPosition(String, String, Board)
PostItService : isNumeric(String)
PostItFactory : create(String, String, String, User, Board, PostItState)
Board : userHasPermission(User, AccessLevel)
PostItRepository : positByPosition(String, String, Board)
PostItRepository : save(PostIt)
BoardRepository : ofIdentity(Long)
PostIt : PostIt(PostItContent, PostItRow, PostItColumn, User, Board, PostItState)


@enduml

PlantUML version 1.2022.7(Mon Aug 22 18:01:30 BST 2022)
(GPL source distribution)
Java Runtime: Java(TM) SE Runtime Environment
JVM: Java HotSpot(TM) 64-Bit Server VM
Default Encoding: Cp1252
Language: pt
Country: PT
--></g></svg>