<?xml version="1.0" encoding="us-ascii" standalone="no"?><svg xmlns="http://www.w3.org/2000/svg" xmlns:xlink="http://www.w3.org/1999/xlink" contentStyleType="text/css" height="902px" preserveAspectRatio="none" style="width:660px;height:902px;background:#FFFFFF;" version="1.1" viewBox="0 0 660 902" width="660px" zoomAndPan="magnify"><defs/><g><!--class ListFutureExamsUI--><g id="elem_ListFutureExamsUI"><rect codeLine="7" fill="#F1F1F1" height="79.2031" id="ListFutureExamsUI" rx="2.5" ry="2.5" style="stroke:#181818;stroke-width:0.5;" width="149" x="355.5" y="7"/><ellipse cx="370.5" cy="29.291" fill="#C2C2C2" rx="11" ry="11" style="stroke:#181818;stroke-width:1.0;"/><path d="M373.2656,25.166 Q373.4219,24.9473 373.6094,24.8379 Q373.7969,24.7285 374.0156,24.7285 Q374.3906,24.7285 374.625,24.9941 Q374.8594,25.2441 374.8594,25.8535 L374.8594,27.3066 Q374.8594,27.916 374.625,28.1816 Q374.3906,28.4473 374.0156,28.4473 Q373.6719,28.4473 373.4688,28.2441 Q373.2656,28.0566 373.1563,27.541 Q373.1094,27.1816 372.9219,26.9941 Q372.5938,26.6191 371.9844,26.4004 Q371.375,26.1816 370.75,26.1816 Q369.9844,26.1816 369.3438,26.5098 Q368.7188,26.8379 368.2188,27.5879 Q367.7344,28.3379 367.7344,29.3691 L367.7344,30.4629 Q367.7344,31.6973 368.625,32.5254 Q369.5156,33.3379 371.1094,33.3379 Q372.0469,33.3379 372.7031,33.0879 Q373.0938,32.9316 373.5156,32.4941 Q373.7813,32.2285 373.9219,32.1504 Q374.0781,32.0723 374.2813,32.0723 Q374.6094,32.0723 374.8594,32.3379 Q375.125,32.5879 375.125,32.9316 Q375.125,33.2754 374.7813,33.6816 Q374.2813,34.2598 373.4844,34.5879 Q372.4063,35.041 371.1094,35.041 Q369.5938,35.041 368.3906,34.416 Q367.4063,33.916 366.7188,32.8535 Q366.0313,31.7754 366.0313,30.4941 L366.0313,29.3379 Q366.0313,28.0098 366.6406,26.8691 Q367.2656,25.7129 368.3594,25.1035 Q369.4531,24.4785 370.6875,24.4785 Q371.4219,24.4785 372.0625,24.6504 Q372.7188,24.8066 373.2656,25.166 Z " fill="#000000"/><text fill="#000000" font-family="FG Virgil" font-size="12" font-style="italic" lengthAdjust="spacing" textLength="82" x="402" y="24.9492">&#171;presentation&#187;</text><text fill="#000000" font-family="FG Virgil" font-size="14" lengthAdjust="spacing" textLength="117" x="384.5" y="43.0684">ListFutureExamsUI</text><line style="stroke:#181818;stroke-width:0.5;" x1="356.5" x2="503.5" y1="51.582" y2="51.582"/><line style="stroke:#181818;stroke-width:0.5;" x1="356.5" x2="503.5" y1="59.582" y2="59.582"/><text fill="#000000" font-family="FG Virgil" font-size="14" lengthAdjust="spacing" textLength="60" x="361.5" y="78.6895">doShow()</text></g><!--class ListFutureExamsController--><g id="elem_ListFutureExamsController"><rect codeLine="10" fill="#F1F1F1" height="79.2031" id="ListFutureExamsController" rx="2.5" ry="2.5" style="stroke:#181818;stroke-width:0.5;" width="199" x="330.5" y="165"/><ellipse cx="345.5" cy="187.291" fill="#C2C2C2" rx="11" ry="11" style="stroke:#181818;stroke-width:1.0;"/><path d="M348.2656,183.166 Q348.4219,182.9473 348.6094,182.8379 Q348.7969,182.7285 349.0156,182.7285 Q349.3906,182.7285 349.625,182.9941 Q349.8594,183.2441 349.8594,183.8535 L349.8594,185.3066 Q349.8594,185.916 349.625,186.1816 Q349.3906,186.4473 349.0156,186.4473 Q348.6719,186.4473 348.4688,186.2441 Q348.2656,186.0566 348.1563,185.541 Q348.1094,185.1816 347.9219,184.9941 Q347.5938,184.6191 346.9844,184.4004 Q346.375,184.1816 345.75,184.1816 Q344.9844,184.1816 344.3438,184.5098 Q343.7188,184.8379 343.2188,185.5879 Q342.7344,186.3379 342.7344,187.3691 L342.7344,188.4629 Q342.7344,189.6973 343.625,190.5254 Q344.5156,191.3379 346.1094,191.3379 Q347.0469,191.3379 347.7031,191.0879 Q348.0938,190.9316 348.5156,190.4941 Q348.7813,190.2285 348.9219,190.1504 Q349.0781,190.0723 349.2813,190.0723 Q349.6094,190.0723 349.8594,190.3379 Q350.125,190.5879 350.125,190.9316 Q350.125,191.2754 349.7813,191.6816 Q349.2813,192.2598 348.4844,192.5879 Q347.4063,193.041 346.1094,193.041 Q344.5938,193.041 343.3906,192.416 Q342.4063,191.916 341.7188,190.8535 Q341.0313,189.7754 341.0313,188.4941 L341.0313,187.3379 Q341.0313,186.0098 341.6406,184.8691 Q342.2656,183.7129 343.3594,183.1035 Q344.4531,182.4785 345.6875,182.4785 Q346.4219,182.4785 347.0625,182.6504 Q347.7188,182.8066 348.2656,183.166 Z " fill="#000000"/><text fill="#000000" font-family="FG Virgil" font-size="12" font-style="italic" lengthAdjust="spacing" textLength="74" x="406" y="182.9492">&#171;application&#187;</text><text fill="#000000" font-family="FG Virgil" font-size="14" lengthAdjust="spacing" textLength="167" x="359.5" y="201.0684">ListFutureExamsController</text><line style="stroke:#181818;stroke-width:0.5;" x1="331.5" x2="528.5" y1="209.582" y2="209.582"/><line style="stroke:#181818;stroke-width:0.5;" x1="331.5" x2="528.5" y1="217.582" y2="217.582"/><text fill="#000000" font-family="FG Virgil" font-size="14" lengthAdjust="spacing" textLength="159" x="336.5" y="236.6895">listStudentFutureExams()</text></g><!--class AuthorizationService--><g id="elem_AuthorizationService"><rect codeLine="14" fill="#F1F1F1" height="97.8242" id="AuthorizationService" rx="2.5" ry="2.5" style="stroke:#181818;stroke-width:0.5;" width="286" x="7" y="323"/><ellipse cx="81.25" cy="345.291" fill="#C2C2C2" rx="11" ry="11" style="stroke:#181818;stroke-width:1.0;"/><path d="M84.0156,341.166 Q84.1719,340.9473 84.3594,340.8379 Q84.5469,340.7285 84.7656,340.7285 Q85.1406,340.7285 85.375,340.9941 Q85.6094,341.2441 85.6094,341.8535 L85.6094,343.3066 Q85.6094,343.916 85.375,344.1816 Q85.1406,344.4473 84.7656,344.4473 Q84.4219,344.4473 84.2188,344.2441 Q84.0156,344.0566 83.9063,343.541 Q83.8594,343.1816 83.6719,342.9941 Q83.3438,342.6191 82.7344,342.4004 Q82.125,342.1816 81.5,342.1816 Q80.7344,342.1816 80.0938,342.5098 Q79.4688,342.8379 78.9688,343.5879 Q78.4844,344.3379 78.4844,345.3691 L78.4844,346.4629 Q78.4844,347.6973 79.375,348.5254 Q80.2656,349.3379 81.8594,349.3379 Q82.7969,349.3379 83.4531,349.0879 Q83.8438,348.9316 84.2656,348.4941 Q84.5313,348.2285 84.6719,348.1504 Q84.8281,348.0723 85.0313,348.0723 Q85.3594,348.0723 85.6094,348.3379 Q85.875,348.5879 85.875,348.9316 Q85.875,349.2754 85.5313,349.6816 Q85.0313,350.2598 84.2344,350.5879 Q83.1563,351.041 81.8594,351.041 Q80.3438,351.041 79.1406,350.416 Q78.1563,349.916 77.4688,348.8535 Q76.7813,347.7754 76.7813,346.4941 L76.7813,345.3379 Q76.7813,344.0098 77.3906,342.8691 Q78.0156,341.7129 79.1094,341.1035 Q80.2031,340.4785 81.4375,340.4785 Q82.1719,340.4785 82.8125,340.6504 Q83.4688,340.8066 84.0156,341.166 Z " fill="#000000"/><text fill="#000000" font-family="FG Virgil" font-size="12" font-style="italic" lengthAdjust="spacing" textLength="53" x="139.75" y="340.9492">&#171;service&#187;</text><text fill="#000000" font-family="FG Virgil" font-size="14" lengthAdjust="spacing" textLength="129" x="101.75" y="359.0684">AuthorizationService</text><line style="stroke:#181818;stroke-width:0.5;" x1="8" x2="292" y1="367.582" y2="367.582"/><line style="stroke:#181818;stroke-width:0.5;" x1="8" x2="292" y1="375.582" y2="375.582"/><text fill="#000000" font-family="FG Virgil" font-size="14" lengthAdjust="spacing" textLength="274" x="13" y="394.6895">ensureAuthenticatedUserHasAnyOf(Role...)</text><text fill="#000000" font-family="FG Virgil" font-size="14" lengthAdjust="spacing" textLength="58" x="13" y="413.3105">session()</text></g><!--class UserSession--><g id="elem_UserSession"><rect codeLine="19" fill="#F1F1F1" height="66.6211" id="UserSession" rx="2.5" ry="2.5" style="stroke:#181818;stroke-width:0.5;" width="137" x="81.5" y="506"/><ellipse cx="108.2" cy="522" fill="#C2C2C2" rx="11" ry="11" style="stroke:#181818;stroke-width:1.0;"/><path d="M110.9656,517.875 Q111.1219,517.6563 111.3094,517.5469 Q111.4969,517.4375 111.7156,517.4375 Q112.0906,517.4375 112.325,517.7031 Q112.5594,517.9531 112.5594,518.5625 L112.5594,520.0156 Q112.5594,520.625 112.325,520.8906 Q112.0906,521.1563 111.7156,521.1563 Q111.3719,521.1563 111.1688,520.9531 Q110.9656,520.7656 110.8563,520.25 Q110.8094,519.8906 110.6219,519.7031 Q110.2938,519.3281 109.6844,519.1094 Q109.075,518.8906 108.45,518.8906 Q107.6844,518.8906 107.0438,519.2188 Q106.4188,519.5469 105.9188,520.2969 Q105.4344,521.0469 105.4344,522.0781 L105.4344,523.1719 Q105.4344,524.4063 106.325,525.2344 Q107.2156,526.0469 108.8094,526.0469 Q109.7469,526.0469 110.4031,525.7969 Q110.7938,525.6406 111.2156,525.2031 Q111.4813,524.9375 111.6219,524.8594 Q111.7781,524.7813 111.9813,524.7813 Q112.3094,524.7813 112.5594,525.0469 Q112.825,525.2969 112.825,525.6406 Q112.825,525.9844 112.4813,526.3906 Q111.9813,526.9688 111.1844,527.2969 Q110.1063,527.75 108.8094,527.75 Q107.2938,527.75 106.0906,527.125 Q105.1063,526.625 104.4188,525.5625 Q103.7313,524.4844 103.7313,523.2031 L103.7313,522.0469 Q103.7313,520.7188 104.3406,519.5781 Q104.9656,518.4219 106.0594,517.8125 Q107.1531,517.1875 108.3875,517.1875 Q109.1219,517.1875 109.7625,517.3594 Q110.4188,517.5156 110.9656,517.875 Z " fill="#000000"/><text fill="#000000" font-family="FG Virgil" font-size="14" lengthAdjust="spacing" textLength="79" x="124.8" y="527.7969">UserSession</text><line style="stroke:#181818;stroke-width:0.5;" x1="82.5" x2="217.5" y1="538" y2="538"/><line style="stroke:#181818;stroke-width:0.5;" x1="82.5" x2="217.5" y1="546" y2="546"/><text fill="#000000" font-family="FG Virgil" font-size="14" lengthAdjust="spacing" textLength="125" x="87.5" y="565.1074">authenticatedUser()</text></g><!--class ExamManagementService--><g id="elem_ExamManagementService"><rect codeLine="23" fill="#F1F1F1" height="79.2031" id="ExamManagementService" rx="2.5" ry="2.5" style="stroke:#181818;stroke-width:0.5;" width="204" x="328" y="332.5"/><ellipse cx="347.05" cy="354.791" fill="#C2C2C2" rx="11" ry="11" style="stroke:#181818;stroke-width:1.0;"/><path d="M349.8156,350.666 Q349.9719,350.4473 350.1594,350.3379 Q350.3469,350.2285 350.5656,350.2285 Q350.9406,350.2285 351.175,350.4941 Q351.4094,350.7441 351.4094,351.3535 L351.4094,352.8066 Q351.4094,353.416 351.175,353.6816 Q350.9406,353.9473 350.5656,353.9473 Q350.2219,353.9473 350.0188,353.7441 Q349.8156,353.5566 349.7063,353.041 Q349.6594,352.6816 349.4719,352.4941 Q349.1438,352.1191 348.5344,351.9004 Q347.925,351.6816 347.3,351.6816 Q346.5344,351.6816 345.8938,352.0098 Q345.2688,352.3379 344.7688,353.0879 Q344.2844,353.8379 344.2844,354.8691 L344.2844,355.9629 Q344.2844,357.1973 345.175,358.0254 Q346.0656,358.8379 347.6594,358.8379 Q348.5969,358.8379 349.2531,358.5879 Q349.6438,358.4316 350.0656,357.9941 Q350.3313,357.7285 350.4719,357.6504 Q350.6281,357.5723 350.8313,357.5723 Q351.1594,357.5723 351.4094,357.8379 Q351.675,358.0879 351.675,358.4316 Q351.675,358.7754 351.3313,359.1816 Q350.8313,359.7598 350.0344,360.0879 Q348.9563,360.541 347.6594,360.541 Q346.1438,360.541 344.9406,359.916 Q343.9563,359.416 343.2688,358.3535 Q342.5813,357.2754 342.5813,355.9941 L342.5813,354.8379 Q342.5813,353.5098 343.1906,352.3691 Q343.8156,351.2129 344.9094,350.6035 Q346.0031,349.9785 347.2375,349.9785 Q347.9719,349.9785 348.6125,350.1504 Q349.2688,350.3066 349.8156,350.666 Z " fill="#000000"/><text fill="#000000" font-family="FG Virgil" font-size="12" font-style="italic" lengthAdjust="spacing" textLength="53" x="416.95" y="350.4492">&#171;service&#187;</text><text fill="#000000" font-family="FG Virgil" font-size="14" lengthAdjust="spacing" textLength="163" x="361.95" y="368.5684">ExamManagementService</text><line style="stroke:#181818;stroke-width:0.5;" x1="329" x2="531" y1="377.082" y2="377.082"/><line style="stroke:#181818;stroke-width:0.5;" x1="329" x2="531" y1="385.082" y2="385.082"/><text fill="#000000" font-family="FG Virgil" font-size="14" lengthAdjust="spacing" textLength="192" x="334" y="404.1895">findFutureExamsByStudentId()</text></g><!--class PersistenceContext--><g id="elem_PersistenceContext"><rect codeLine="27" fill="#F1F1F1" height="79.2031" id="PersistenceContext" rx="2.5" ry="2.5" style="stroke:#181818;stroke-width:0.5;" width="154" x="483" y="500"/><ellipse cx="498" cy="522.291" fill="#C2C2C2" rx="11" ry="11" style="stroke:#181818;stroke-width:1.0;"/><path d="M500.7656,518.166 Q500.9219,517.9473 501.1094,517.8379 Q501.2969,517.7285 501.5156,517.7285 Q501.8906,517.7285 502.125,517.9941 Q502.3594,518.2441 502.3594,518.8535 L502.3594,520.3066 Q502.3594,520.916 502.125,521.1816 Q501.8906,521.4473 501.5156,521.4473 Q501.1719,521.4473 500.9688,521.2441 Q500.7656,521.0566 500.6563,520.541 Q500.6094,520.1816 500.4219,519.9941 Q500.0938,519.6191 499.4844,519.4004 Q498.875,519.1816 498.25,519.1816 Q497.4844,519.1816 496.8438,519.5098 Q496.2188,519.8379 495.7188,520.5879 Q495.2344,521.3379 495.2344,522.3691 L495.2344,523.4629 Q495.2344,524.6973 496.125,525.5254 Q497.0156,526.3379 498.6094,526.3379 Q499.5469,526.3379 500.2031,526.0879 Q500.5938,525.9316 501.0156,525.4941 Q501.2813,525.2285 501.4219,525.1504 Q501.5781,525.0723 501.7813,525.0723 Q502.1094,525.0723 502.3594,525.3379 Q502.625,525.5879 502.625,525.9316 Q502.625,526.2754 502.2813,526.6816 Q501.7813,527.2598 500.9844,527.5879 Q499.9063,528.041 498.6094,528.041 Q497.0938,528.041 495.8906,527.416 Q494.9063,526.916 494.2188,525.8535 Q493.5313,524.7754 493.5313,523.4941 L493.5313,522.3379 Q493.5313,521.0098 494.1406,519.8691 Q494.7656,518.7129 495.8594,518.1035 Q496.9531,517.4785 498.1875,517.4785 Q498.9219,517.4785 499.5625,517.6504 Q500.2188,517.8066 500.7656,518.166 Z " fill="#000000"/><text fill="#000000" font-family="FG Virgil" font-size="12" font-style="italic" lengthAdjust="spacing" textLength="77" x="534.5" y="517.9492">&#171;persistence&#187;</text><text fill="#000000" font-family="FG Virgil" font-size="14" lengthAdjust="spacing" textLength="122" x="512" y="536.0684">PersistenceContext</text><line style="stroke:#181818;stroke-width:0.5;" x1="484" x2="636" y1="544.582" y2="544.582"/><line style="stroke:#181818;stroke-width:0.5;" x1="484" x2="636" y1="552.582" y2="552.582"/><text fill="#000000" font-family="FG Virgil" font-size="14" lengthAdjust="spacing" textLength="84" x="489" y="571.6895">repositories()</text></g><!--class RepositoryFactory--><g id="elem_RepositoryFactory"><rect codeLine="31" fill="#F1F1F1" height="79.2031" id="RepositoryFactory" rx="2.5" ry="2.5" style="stroke:#181818;stroke-width:0.5;" width="148" x="484" y="658"/><ellipse cx="499" cy="680.291" fill="#C2C2C2" rx="11" ry="11" style="stroke:#181818;stroke-width:1.0;"/><path d="M501.7656,676.166 Q501.9219,675.9473 502.1094,675.8379 Q502.2969,675.7285 502.5156,675.7285 Q502.8906,675.7285 503.125,675.9941 Q503.3594,676.2441 503.3594,676.8535 L503.3594,678.3066 Q503.3594,678.916 503.125,679.1816 Q502.8906,679.4473 502.5156,679.4473 Q502.1719,679.4473 501.9688,679.2441 Q501.7656,679.0566 501.6563,678.541 Q501.6094,678.1816 501.4219,677.9941 Q501.0938,677.6191 500.4844,677.4004 Q499.875,677.1816 499.25,677.1816 Q498.4844,677.1816 497.8438,677.5098 Q497.2188,677.8379 496.7188,678.5879 Q496.2344,679.3379 496.2344,680.3691 L496.2344,681.4629 Q496.2344,682.6973 497.125,683.5254 Q498.0156,684.3379 499.6094,684.3379 Q500.5469,684.3379 501.2031,684.0879 Q501.5938,683.9316 502.0156,683.4941 Q502.2813,683.2285 502.4219,683.1504 Q502.5781,683.0723 502.7813,683.0723 Q503.1094,683.0723 503.3594,683.3379 Q503.625,683.5879 503.625,683.9316 Q503.625,684.2754 503.2813,684.6816 Q502.7813,685.2598 501.9844,685.5879 Q500.9063,686.041 499.6094,686.041 Q498.0938,686.041 496.8906,685.416 Q495.9063,684.916 495.2188,683.8535 Q494.5313,682.7754 494.5313,681.4941 L494.5313,680.3379 Q494.5313,679.0098 495.1406,677.8691 Q495.7656,676.7129 496.8594,676.1035 Q497.9531,675.4785 499.1875,675.4785 Q499.9219,675.4785 500.5625,675.6504 Q501.2188,675.8066 501.7656,676.166 Z " fill="#000000"/><text fill="#000000" font-family="FG Virgil" font-size="12" font-style="italic" lengthAdjust="spacing" textLength="50" x="546" y="675.9492">&#171;factory&#187;</text><text fill="#000000" font-family="FG Virgil" font-size="14" lengthAdjust="spacing" textLength="116" x="513" y="694.0684">RepositoryFactory</text><line style="stroke:#181818;stroke-width:0.5;" x1="485" x2="631" y1="702.582" y2="702.582"/><line style="stroke:#181818;stroke-width:0.5;" x1="485" x2="631" y1="710.582" y2="710.582"/><text fill="#000000" font-family="FG Virgil" font-size="14" lengthAdjust="spacing" textLength="60" x="490" y="729.6895">courses()</text></g><!--class ExamRepository--><g id="elem_ExamRepository"><rect codeLine="35" fill="#F1F1F1" height="79.2031" id="ExamRepository" rx="2.5" ry="2.5" style="stroke:#181818;stroke-width:0.5;" width="134" x="392" y="816"/><ellipse cx="407" cy="838.291" fill="#C2C2C2" rx="11" ry="11" style="stroke:#181818;stroke-width:1.0;"/><path d="M409.7656,834.166 Q409.9219,833.9473 410.1094,833.8379 Q410.2969,833.7285 410.5156,833.7285 Q410.8906,833.7285 411.125,833.9941 Q411.3594,834.2441 411.3594,834.8535 L411.3594,836.3066 Q411.3594,836.916 411.125,837.1816 Q410.8906,837.4473 410.5156,837.4473 Q410.1719,837.4473 409.9688,837.2441 Q409.7656,837.0566 409.6563,836.541 Q409.6094,836.1816 409.4219,835.9941 Q409.0938,835.6191 408.4844,835.4004 Q407.875,835.1816 407.25,835.1816 Q406.4844,835.1816 405.8438,835.5098 Q405.2188,835.8379 404.7188,836.5879 Q404.2344,837.3379 404.2344,838.3691 L404.2344,839.4629 Q404.2344,840.6973 405.125,841.5254 Q406.0156,842.3379 407.6094,842.3379 Q408.5469,842.3379 409.2031,842.0879 Q409.5938,841.9316 410.0156,841.4941 Q410.2813,841.2285 410.4219,841.1504 Q410.5781,841.0723 410.7813,841.0723 Q411.1094,841.0723 411.3594,841.3379 Q411.625,841.5879 411.625,841.9316 Q411.625,842.2754 411.2813,842.6816 Q410.7813,843.2598 409.9844,843.5879 Q408.9063,844.041 407.6094,844.041 Q406.0938,844.041 404.8906,843.416 Q403.9063,842.916 403.2188,841.8535 Q402.5313,840.7754 402.5313,839.4941 L402.5313,838.3379 Q402.5313,837.0098 403.1406,835.8691 Q403.7656,834.7129 404.8594,834.1035 Q405.9531,833.4785 407.1875,833.4785 Q407.9219,833.4785 408.5625,833.6504 Q409.2188,833.8066 409.7656,834.166 Z " fill="#000000"/><text fill="#000000" font-family="FG Virgil" font-size="12" font-style="italic" lengthAdjust="spacing" textLength="68" x="438" y="833.9492">&#171;repository&#187;</text><text fill="#000000" font-family="FG Virgil" font-size="14" lengthAdjust="spacing" textLength="102" x="421" y="852.0684">ExamRepository</text><line style="stroke:#181818;stroke-width:0.5;" x1="393" x2="525" y1="860.582" y2="860.582"/><text fill="#000000" font-family="FG Virgil" font-size="14" lengthAdjust="spacing" textLength="78" x="398" y="879.6895">futureExams</text><line style="stroke:#181818;stroke-width:0.5;" x1="393" x2="525" y1="887.2031" y2="887.2031"/></g><!--link ListFutureExamsUI to ListFutureExamsController--><g id="link_ListFutureExamsUI_ListFutureExamsController"><path codeLine="39" d="M430,86.06 C430,108.37 430,136.53 430,159.68 " fill="none" id="ListFutureExamsUI-to-ListFutureExamsController" style="stroke:#181818;stroke-width:1.0;"/><polygon fill="#181818" points="430,164.84,434,155.84,430,159.84,426,155.84,430,164.84" style="stroke:#181818;stroke-width:1.0;"/><text fill="#000000" font-family="FG Virgil" font-size="13" lengthAdjust="spacing" textLength="75" x="431" y="131.0283">the controller</text></g><!--link ListFutureExamsController to AuthorizationService--><g id="link_ListFutureExamsController_AuthorizationService"><path codeLine="40" d="M364.71,244.09 C326.35,266.76 277.42,295.69 235.95,320.2 " fill="none" id="ListFutureExamsController-to-AuthorizationService" style="stroke:#181818;stroke-width:1.0;"/><polygon fill="#181818" points="231.45,322.86,241.23,321.6978,235.7475,320.3043,237.141,314.8218,231.45,322.86" style="stroke:#181818;stroke-width:1.0;"/><text fill="#000000" font-family="FG Virgil" font-size="13" lengthAdjust="spacing" textLength="32" x="308" y="289.0283">autzh</text></g><!--link ListFutureExamsController to ExamManagementService--><g id="link_ListFutureExamsController_ExamManagementService"><path codeLine="41" d="M430,244.3 C430,269.2 430,301.58 430,327.37 " fill="none" id="ListFutureExamsController-to-ExamManagementService" style="stroke:#181818;stroke-width:1.0;"/><polygon fill="#181818" points="430,332.44,434,323.44,430,327.44,426,323.44,430,332.44" style="stroke:#181818;stroke-width:1.0;"/><text fill="#000000" font-family="FG Virgil" font-size="13" lengthAdjust="spacing" textLength="40" x="431" y="289.0283">service</text></g><!--link ListFutureExamsController to PersistenceContext--><g id="link_ListFutureExamsController_PersistenceContext"><path codeLine="42" d="M480.55,244.07 C504.63,264.96 531.85,292.67 549,323 C581.87,381.12 589.45,403.9 580,470 C578.84,478.12 576.94,486.63 574.76,494.78 " fill="none" id="ListFutureExamsController-to-PersistenceContext" style="stroke:#181818;stroke-width:1.0;"/><polygon fill="#181818" points="573.37,499.8,579.641,492.2056,574.7134,494.9838,571.9352,490.0562,573.37,499.8" style="stroke:#181818;stroke-width:1.0;"/><text fill="#000000" font-family="FG Virgil" font-size="13" lengthAdjust="spacing" textLength="67" x="585" y="377.5283">persistence</text></g><!--link AuthorizationService to UserSession--><g id="link_AuthorizationService_UserSession"><path codeLine="43" d="M150,421.31 C150,446.59 150,477.09 150,500.64 " fill="none" id="AuthorizationService-to-UserSession" style="stroke:#181818;stroke-width:1.0;"/><polygon fill="#181818" points="150,505.86,154,496.86,150,500.86,146,496.86,150,505.86" style="stroke:#181818;stroke-width:1.0;"/><text fill="#000000" font-family="FG Virgil" font-size="13" lengthAdjust="spacing" textLength="45" x="151" y="466.0283">session</text></g><!--link ExamManagementService to PersistenceContext--><g id="link_ExamManagementService_PersistenceContext"><path codeLine="44" d="M460.48,411.8 C480.28,437.01 506.11,469.89 526.49,495.84 " fill="none" id="ExamManagementService-to-PersistenceContext" style="stroke:#181818;stroke-width:1.0;"/><polygon fill="#181818" points="529.71,499.94,527.2964,490.3915,526.6215,496.0079,521.0051,495.333,529.71,499.94" style="stroke:#181818;stroke-width:1.0;"/><text fill="#000000" font-family="FG Virgil" font-size="13" lengthAdjust="spacing" textLength="67" x="504" y="466.0283">persistence</text></g><!--link ExamManagementService to ExamRepository--><g id="link_ExamManagementService_ExamRepository"><path codeLine="45" d="M432.32,411.59 C437.65,500.07 450.73,717.14 456.35,810.56 " fill="none" id="ExamManagementService-to-ExamRepository" style="stroke:#181818;stroke-width:1.0;"/><polygon fill="#181818" points="456.66,815.73,460.1122,806.506,456.3597,810.739,452.1267,806.9865,456.66,815.73" style="stroke:#181818;stroke-width:1.0;"/><text fill="#000000" font-family="FG Virgil" font-size="13" lengthAdjust="spacing" textLength="25" x="447" y="624.0283">repo</text></g><!--link PersistenceContext to RepositoryFactory--><g id="link_PersistenceContext_RepositoryFactory"><path codeLine="46" d="M559.51,579.06 C559.22,601.37 558.86,629.53 558.56,652.68 " fill="none" id="PersistenceContext-to-RepositoryFactory" style="stroke:#181818;stroke-width:1.0;"/><polygon fill="#181818" points="558.5,657.84,562.6026,648.8863,558.5571,652.8403,554.6031,648.7949,558.5,657.84" style="stroke:#181818;stroke-width:1.0;"/><text fill="#000000" font-family="FG Virgil" font-size="13" lengthAdjust="spacing" textLength="39" x="561" y="624.0283">factory</text></g><!--link RepositoryFactory to ExamRepository--><g id="link_RepositoryFactory_ExamRepository"><path codeLine="47" d="M533.53,737.06 C519.19,759.66 501.05,788.24 486.26,811.55 " fill="none" id="RepositoryFactory-to-ExamRepository" style="stroke:#181818;stroke-width:1.0;"/><polygon fill="#181818" points="483.53,815.84,491.7401,810.3999,486.2172,811.6235,484.9936,806.1005,483.53,815.84" style="stroke:#181818;stroke-width:1.0;"/><text fill="#000000" font-family="FG Virgil" font-size="13" lengthAdjust="spacing" textLength="25" x="516" y="782.0283">repo</text></g><!--SRC=[ZPBRRi8m38RlynIv71Vm01L2OjFOa7OI5RkFKfT6f4aLf-CmxTtdG2a1obXl6Zd__zcnZKjbAk54oKjhh2oSBO5xLmF3zgOISYaMaFgD1kv0-kWkWrpKsa-iyM-2h9Cd_gdSGkb8WuN8x4gP1S-5Hc1CQe78NnJwIUrh1uzhKU9yoeV3oW62yS8hQqOZ_iquVPbD2xkwwx6VRkS39NTMQt1445MbbJm5QDAdliw87Dbsm8OuhdrXdThkV2cuBoM1OBW_jI0mIEuW9bJ80jcSDCy2nsRpdj_Dh8R1OD3RYH4GYHQd2U9q7sw8ufmLoqEPhy9GxqlIN2yhLoQB7dQ_QHuxpMBQ1pYaHe2H43e6QnyQVWosE0ULHUMf7t3IfDaXlfa86Nxap_UdrYjjxV3K5cewMidJye-s_5XzC5wkHhy_-cFi2QSkKkv3W5sN1b3dj9CmYsrnmzezaeGt8xdXxXX1mgCHiCxAWZFUdEImMgoxcdzbkcuzcrUosmVM0GpYovr8UBCJxFBkEfxz0W00]--></g></svg>