<?xml version="1.0" encoding="UTF-8" standalone="no"?><svg xmlns="http://www.w3.org/2000/svg" xmlns:xlink="http://www.w3.org/1999/xlink" contentStyleType="text/css" height="2177px" preserveAspectRatio="none" style="width:1451px;height:2177px;background:#FFFFFF;" version="1.1" viewBox="0 0 1451 2177" width="1451px" zoomAndPan="magnify"><defs/><g><!--cluster actors--><g id="cluster_actors"><path d="M143.5,699.7188 L208.5,699.7188 A3.75,3.75 0 0 1 211,702.2188 L218,729.2734 L616,729.2734 A2.5,2.5 0 0 1 618.5,731.7734 L618.5,1081.2188 A2.5,2.5 0 0 1 616,1083.7188 L143.5,1083.7188 A2.5,2.5 0 0 1 141,1081.2188 L141,702.2188 A2.5,2.5 0 0 1 143.5,699.7188 " fill="none" style="stroke:#000000;stroke-width:1.5;"/><line style="stroke:#000000;stroke-width:1.5;" x1="141" x2="218" y1="729.2734" y2="729.2734"/><text fill="#000000" font-family="sans-serif" font-size="20" font-weight="bold" lengthAdjust="spacing" textLength="64" x="145" y="721.0547">actors</text></g><!--cluster Users--><g id="cluster_Users"><path d="M792,6.7188 L851,6.7188 A3.75,3.75 0 0 1 853.5,9.2188 L860.5,36.2734 L1416.5,36.2734 A2.5,2.5 0 0 1 1419,38.7734 L1419,333.2188 A2.5,2.5 0 0 1 1416.5,335.7188 L792,335.7188 A2.5,2.5 0 0 1 789.5,333.2188 L789.5,9.2188 A2.5,2.5 0 0 1 792,6.7188 " fill="none" style="stroke:#000000;stroke-width:1.5;"/><line style="stroke:#000000;stroke-width:1.5;" x1="789.5" x2="860.5" y1="36.2734" y2="36.2734"/><text fill="#000000" font-family="sans-serif" font-size="20" font-weight="bold" lengthAdjust="spacing" textLength="58" x="793.5" y="28.0547">Users</text></g><!--cluster Courses--><g id="cluster_Courses"><path d="M725,359.7188 L809,359.7188 A3.75,3.75 0 0 1 811.5,362.2188 L818.5,389.2734 L1442,389.2734 A2.5,2.5 0 0 1 1444.5,391.7734 L1444.5,1434.2188 A2.5,2.5 0 0 1 1442,1436.7188 L725,1436.7188 A2.5,2.5 0 0 1 722.5,1434.2188 L722.5,362.2188 A2.5,2.5 0 0 1 725,359.7188 " fill="none" style="stroke:#000000;stroke-width:1.5;"/><line style="stroke:#000000;stroke-width:1.5;" x1="722.5" x2="818.5" y1="389.2734" y2="389.2734"/><text fill="#000000" font-family="sans-serif" font-size="20" font-weight="bold" lengthAdjust="spacing" textLength="83" x="726.5" y="381.0547">Courses</text></g><!--cluster Exams--><g id="cluster_Exams"><path d="M431,1129.7188 L498,1129.7188 A3.75,3.75 0 0 1 500.5,1132.2188 L507.5,1159.2734 L692,1159.2734 A2.5,2.5 0 0 1 694.5,1161.7734 L694.5,1631.2188 A2.5,2.5 0 0 1 692,1633.7188 L431,1633.7188 A2.5,2.5 0 0 1 428.5,1631.2188 L428.5,1132.2188 A2.5,2.5 0 0 1 431,1129.7188 " fill="none" style="stroke:#000000;stroke-width:1.5;"/><line style="stroke:#000000;stroke-width:1.5;" x1="428.5" x2="507.5" y1="1159.2734" y2="1159.2734"/><text fill="#000000" font-family="sans-serif" font-size="20" font-weight="bold" lengthAdjust="spacing" textLength="66" x="432.5" y="1151.0547">Exams</text></g><!--cluster Boards--><g id="cluster_Boards"><path d="M114.5,1107.7188 L263.5,1107.7188 A3.75,3.75 0 0 1 266,1110.2188 L273,1137.2734 L391.5,1137.2734 A2.5,2.5 0 0 1 394,1139.7734 L394,1778.2188 A2.5,2.5 0 0 1 391.5,1780.7188 L114.5,1780.7188 A2.5,2.5 0 0 1 112,1778.2188 L112,1110.2188 A2.5,2.5 0 0 1 114.5,1107.7188 " fill="none" style="stroke:#000000;stroke-width:1.5;"/><line style="stroke:#000000;stroke-width:1.5;" x1="112" x2="273" y1="1137.2734" y2="1137.2734"/><text fill="#000000" font-family="sans-serif" font-size="20" font-weight="bold" lengthAdjust="spacing" textLength="148" x="116" y="1129.0547">Shared Boards</text></g><!--cluster Meetings--><g id="cluster_Meetings"><path d="M108,1804.7188 L203,1804.7188 A3.75,3.75 0 0 1 205.5,1807.2188 L212.5,1834.2734 L679,1834.2734 A2.5,2.5 0 0 1 681.5,1836.7734 L681.5,2168.2188 A2.5,2.5 0 0 1 679,2170.7188 L108,2170.7188 A2.5,2.5 0 0 1 105.5,2168.2188 L105.5,1807.2188 A2.5,2.5 0 0 1 108,1804.7188 " fill="none" style="stroke:#000000;stroke-width:1.5;"/><line style="stroke:#000000;stroke-width:1.5;" x1="105.5" x2="212.5" y1="1834.2734" y2="1834.2734"/><text fill="#000000" font-family="sans-serif" font-size="20" font-weight="bold" lengthAdjust="spacing" textLength="94" x="109.5" y="1826.0547">Meetings</text></g><!--entity man--><g id="elem_man"><ellipse cx="561.5" cy="759.7188" fill="#F1F1F1" rx="16" ry="16" style="stroke:#181818;stroke-width:1.5;"/><path d="M561.5,779.7188 C565.5,779.7188 568.5,779.7188 572.5,775.7188 C580.5,775.7188 588.5,783.7188 588.5,791.7188 L588.5,795.7188 C588.5,799.7188 584.5,803.7188 580.5,803.7188 L542.5,803.7188 C538.5,803.7188 534.5,799.7188 534.5,795.7188 L534.5,791.7188 C534.5,783.7188 542.5,775.7188 550.5,775.7188 C554.5,779.7188 557.5,779.7188 561.5,779.7188 " fill="#F1F1F1" style="stroke:#181818;stroke-width:1.5;"/><text fill="#000000" font-family="sans-serif" font-size="20" lengthAdjust="spacing" textLength="82" x="520.5" y="824.5547">Manager</text></g><!--entity tea--><g id="elem_tea"><ellipse cx="253" cy="875.7188" fill="#F1F1F1" rx="16" ry="16" style="stroke:#181818;stroke-width:1.5;"/><path d="M253,895.7188 C257,895.7188 260,895.7188 264,891.7188 C272,891.7188 280,899.7188 280,907.7188 L280,911.7188 C280,915.7188 276,919.7188 272,919.7188 L234,919.7188 C230,919.7188 226,915.7188 226,911.7188 L226,907.7188 C226,899.7188 234,891.7188 242,891.7188 C246,895.7188 249,895.7188 253,895.7188 " fill="#F1F1F1" style="stroke:#181818;stroke-width:1.5;"/><text fill="#000000" font-family="sans-serif" font-size="20" lengthAdjust="spacing" textLength="76" x="215" y="940.5547">Teacher</text></g><!--entity stu--><g id="elem_stu"><ellipse cx="253" cy="997.7188" fill="#F1F1F1" rx="16" ry="16" style="stroke:#181818;stroke-width:1.5;"/><path d="M253,1017.7188 C257,1017.7188 260,1017.7188 264,1013.7188 C272,1013.7188 280,1021.7188 280,1029.7188 L280,1033.7188 C280,1037.7188 276,1041.7188 272,1041.7188 L234,1041.7188 C230,1041.7188 226,1037.7188 226,1033.7188 L226,1029.7188 C226,1021.7188 234,1013.7188 242,1013.7188 C246,1017.7188 249,1017.7188 253,1017.7188 " fill="#F1F1F1" style="stroke:#181818;stroke-width:1.5;"/><text fill="#000000" font-family="sans-serif" font-size="20" lengthAdjust="spacing" textLength="73" x="216.5" y="1062.5547">Student</text></g><g id="elem_GMN6"><path d="M157,742.2188 L157,822.8828 A0,0 0 0 0 157,822.8828 L349,822.8828 A0,0 0 0 0 349,822.8828 L349,787.6488 L520.21,785.3287 L349,779.6488 L349,752.2188 L339,742.2188 L157,742.2188 A0,0 0 0 0 157,742.2188 " fill="#FEFFDD" style="stroke:#181818;stroke-width:0.5;"/><path d="M339,742.2188 L339,752.2188 L349,752.2188 L339,742.2188 " fill="#FEFFDD" style="stroke:#181818;stroke-width:0.5;"/><text fill="#000000" font-family="sans-serif" font-size="20" lengthAdjust="spacing" textLength="165" x="163" y="766.5547">The manager can</text><text fill="#000000" font-family="sans-serif" font-size="20" lengthAdjust="spacing" textLength="171" x="163" y="790.1094">also be refered as</text><text fill="#000000" font-family="sans-serif" font-size="20" lengthAdjust="spacing" textLength="166" x="163" y="813.6641">the administrator</text></g><g id="elem_FRU01"><ellipse cx="933.6263" cy="222.744" fill="#F1F1F1" rx="128.1263" ry="28.0253" style="stroke:#181818;stroke-width:0.5;"/><text fill="#000000" font-family="sans-serif" font-size="20" lengthAdjust="spacing" textLength="207" x="827.1263" y="229.662">Management of Users</text></g><g id="elem_FRU011"><ellipse cx="1308.4579" cy="298.8103" fill="#F1F1F1" rx="90.9579" ry="20.5916" style="stroke:#181818;stroke-width:0.5;"/><text fill="#000000" font-family="sans-serif" font-size="20" lengthAdjust="spacing" textLength="111" x="1249.9579" y="305.7283">Create User</text></g><g id="elem_FRU012"><ellipse cx="1308.6261" cy="222.944" fill="#F1F1F1" rx="91.6261" ry="20.7252" style="stroke:#181818;stroke-width:0.5;"/><text fill="#000000" font-family="sans-serif" font-size="20" lengthAdjust="spacing" textLength="113" x="1249.1261" y="229.8619">Enable User</text></g><g id="elem_FRU013"><ellipse cx="1308.3596" cy="145.4907" fill="#F1F1F1" rx="94.3596" ry="21.2719" style="stroke:#181818;stroke-width:0.5;"/><text fill="#000000" font-family="sans-serif" font-size="20" lengthAdjust="spacing" textLength="121" x="1244.8596" y="152.4086">Disable User</text></g><g id="elem_FRU014"><ellipse cx="1308.6778" cy="68.9199" fill="#F1F1F1" rx="79.6778" ry="20.2012" style="stroke:#181818;stroke-width:0.5;"/><text fill="#000000" font-family="sans-serif" font-size="20" lengthAdjust="spacing" textLength="93" x="1259.1778" y="75.8379">List Users</text></g><g id="elem_FRC01"><ellipse cx="933.3565" cy="737.4901" fill="#F1F1F1" rx="99.3565" ry="22.2713" style="stroke:#181818;stroke-width:0.5;"/><text fill="#000000" font-family="sans-serif" font-size="20" lengthAdjust="spacing" textLength="135" x="862.8565" y="744.408">Create Course</text></g><g id="elem_FRC02"><ellipse cx="933.3011" cy="834.579" fill="#F1F1F1" rx="184.8011" ry="39.3602" style="stroke:#181818;stroke-width:0.5;"/><text fill="#000000" font-family="sans-serif" font-size="20" lengthAdjust="spacing" textLength="332" x="767.3011" y="840.1376">Open/Close Enrollments in Course</text></g><g id="elem_FRC021"><ellipse cx="1308.6134" cy="839.8414" fill="#F1F1F1" rx="113.6134" ry="25.1227" style="stroke:#181818;stroke-width:0.5;"/><text fill="#000000" font-family="sans-serif" font-size="20" lengthAdjust="spacing" textLength="172" x="1219.6134" y="846.7594">Open Enrollments</text></g><g id="elem_FRC022"><ellipse cx="1308.5161" cy="754.922" fill="#F1F1F1" rx="114.0161" ry="25.2032" style="stroke:#181818;stroke-width:0.5;"/><text fill="#000000" font-family="sans-serif" font-size="20" lengthAdjust="spacing" textLength="173" x="1219.0161" y="761.8399">Close Enrollments</text></g><g id="elem_FRC03"><ellipse cx="933.6466" cy="935.6481" fill="#F1F1F1" rx="120.1466" ry="26.4293" style="stroke:#181818;stroke-width:0.5;"/><text fill="#000000" font-family="sans-serif" font-size="20" lengthAdjust="spacing" textLength="188" x="836.6466" y="942.566">Open/Close Course</text></g><g id="elem_FRC031"><ellipse cx="1308.2609" cy="1008.7709" fill="#F1F1F1" rx="95.7609" ry="21.5522" style="stroke:#181818;stroke-width:0.5;"/><text fill="#000000" font-family="sans-serif" font-size="20" lengthAdjust="spacing" textLength="125" x="1242.7609" y="1015.6889">Open Course</text></g><g id="elem_FRC032"><ellipse cx="1308.6146" cy="930.8417" fill="#F1F1F1" rx="96.1146" ry="21.6229" style="stroke:#181818;stroke-width:0.5;"/><text fill="#000000" font-family="sans-serif" font-size="20" lengthAdjust="spacing" textLength="126" x="1242.6146" y="937.7596">Close Course</text></g><g id="elem_FRC04"><ellipse cx="933.6425" cy="428.6473" fill="#F1F1F1" rx="122.6425" ry="26.9285" style="stroke:#181818;stroke-width:0.5;"/><text fill="#000000" font-family="sans-serif" font-size="20" lengthAdjust="spacing" textLength="194" x="833.6425" y="435.5652">Set Course Teachers</text></g><g id="elem_FRC05"><ellipse cx="933.481" cy="1209.715" fill="#F1F1F1" rx="92.981" ry="20.9962" style="stroke:#181818;stroke-width:0.5;"/><text fill="#000000" font-family="sans-serif" font-size="20" lengthAdjust="spacing" textLength="117" x="871.981" y="1216.6329">List Courses</text></g><g id="elem_FRC06"><ellipse cx="933.6112" cy="526.541" fill="#F1F1F1" rx="164.6112" ry="35.3222" style="stroke:#181818;stroke-width:0.5;"/><text fill="#000000" font-family="sans-serif" font-size="20" lengthAdjust="spacing" textLength="289" x="788.9176" y="532.1985">Bulk Enroll Students in Course</text></g><g id="elem_FRC07"><ellipse cx="933.2923" cy="1385.5772" fill="#F1F1F1" rx="162.2923" ry="34.8585" style="stroke:#181818;stroke-width:0.5;"/><text fill="#000000" font-family="sans-serif" font-size="20" lengthAdjust="spacing" textLength="284" x="790.7224" y="1391.4222">Request Enrollment in Course</text></g><g id="elem_FRC08"><ellipse cx="933.2652" cy="638.5718" fill="#F1F1F1" rx="194.7652" ry="41.353" style="stroke:#181818;stroke-width:0.5;"/><text fill="#000000" font-family="sans-serif" font-size="20" lengthAdjust="spacing" textLength="353" x="756.7652" y="644.1304">Approve/Reject Enlistment in Course</text></g><g id="elem_FRC081"><ellipse cx="1308.6466" cy="650.6481" fill="#F1F1F1" rx="120.1466" ry="26.4293" style="stroke:#181818;stroke-width:0.5;"/><text fill="#000000" font-family="sans-serif" font-size="20" lengthAdjust="spacing" textLength="188" x="1211.6466" y="657.566">Approve Enlistment</text></g><g id="elem_FRC082"><ellipse cx="1308.3174" cy="564.7822" fill="#F1F1F1" rx="110.8174" ry="24.5635" style="stroke:#181818;stroke-width:0.5;"/><text fill="#000000" font-family="sans-serif" font-size="20" lengthAdjust="spacing" textLength="165" x="1222.8174" y="571.7002">Reject Enlistment</text></g><g id="elem_FRC09"><ellipse cx="933.5107" cy="1290.5209" fill="#F1F1F1" rx="112.0107" ry="24.8021" style="stroke:#181818;stroke-width:0.5;"/><text fill="#000000" font-family="sans-serif" font-size="20" lengthAdjust="spacing" textLength="168" x="846.5107" y="1297.4389">Schedule of Class</text></g><g id="elem_FRC10"><ellipse cx="933.5022" cy="1026.6192" fill="#F1F1F1" rx="135.0022" ry="29.4004" style="stroke:#181818;stroke-width:0.5;"/><text fill="#000000" font-family="sans-serif" font-size="20" lengthAdjust="spacing" textLength="223" x="819.0022" y="1033.5372">Schedule of Extra Class</text></g><g id="elem_FRC11"><ellipse cx="933.2643" cy="1122.8716" fill="#F1F1F1" rx="143.7643" ry="31.1529" style="stroke:#181818;stroke-width:0.5;"/><text fill="#000000" font-family="sans-serif" font-size="20" lengthAdjust="spacing" textLength="243" x="808.7643" y="1129.7896">Update Schedule of Class</text></g><g id="elem_FRE01"><ellipse cx="561.3596" cy="1193.4907" fill="#F1F1F1" rx="94.3596" ry="21.2719" style="stroke:#181818;stroke-width:0.5;"/><text fill="#000000" font-family="sans-serif" font-size="20" lengthAdjust="spacing" textLength="121" x="497.8596" y="1200.4086">Create Exam</text></g><g id="elem_FRE02"><ellipse cx="561.6652" cy="1520.9578" fill="#F1F1F1" rx="87.1652" ry="20.239" style="stroke:#181818;stroke-width:0.5;"/><text fill="#000000" font-family="sans-serif" font-size="20" lengthAdjust="spacing" textLength="103" x="507.1652" y="1527.8757">List Exams</text></g><g id="elem_FRE03"><ellipse cx="561.7289" cy="1275.6645" fill="#F1F1F1" rx="115.2289" ry="25.4458" style="stroke:#181818;stroke-width:0.5;"/><text fill="#000000" font-family="sans-serif" font-size="20" lengthAdjust="spacing" textLength="176" x="470.7289" y="1282.5825">List Course Exams</text></g><g id="elem_FRE04"><ellipse cx="561.3153" cy="1444.4818" fill="#F1F1F1" rx="89.3153" ry="20.2631" style="stroke:#181818;stroke-width:0.5;"/><text fill="#000000" font-family="sans-serif" font-size="20" lengthAdjust="spacing" textLength="106" x="505.3153" y="1451.3998">Take Exam</text></g><g id="elem_FRE05"><ellipse cx="561.6405" cy="1596.5469" fill="#F1F1F1" rx="89.6405" ry="20.3281" style="stroke:#181818;stroke-width:0.5;"/><text fill="#000000" font-family="sans-serif" font-size="20" lengthAdjust="spacing" textLength="107" x="505.1405" y="1603.4648">List Grades</text></g><g id="elem_FRE06"><ellipse cx="561.3566" cy="1362.4901" fill="#F1F1F1" rx="116.8566" ry="25.7713" style="stroke:#181818;stroke-width:0.5;"/><text fill="#000000" font-family="sans-serif" font-size="20" lengthAdjust="spacing" textLength="180" x="468.3566" y="1369.408">List Course Grades</text></g><g id="elem_FRB01"><ellipse cx="252.9085" cy="1171.7005" fill="#F1F1F1" rx="95.4085" ry="21.4817" style="stroke:#181818;stroke-width:0.5;"/><text fill="#000000" font-family="sans-serif" font-size="20" lengthAdjust="spacing" textLength="124" x="187.9085" y="1178.6184">Create Board</text></g><g id="elem_FRB02"><ellipse cx="252.8005" cy="1249.5789" fill="#F1F1F1" rx="92.3005" ry="20.8601" style="stroke:#181818;stroke-width:0.5;"/><text fill="#000000" font-family="sans-serif" font-size="20" lengthAdjust="spacing" textLength="115" x="192.3005" y="1256.4968">Share Board</text></g><g id="elem_FRB03"><ellipse cx="253.1405" cy="1326.5469" fill="#F1F1F1" rx="89.6405" ry="20.3281" style="stroke:#181818;stroke-width:0.5;"/><text fill="#000000" font-family="sans-serif" font-size="20" lengthAdjust="spacing" textLength="107" x="196.6405" y="1333.4648">View Board</text></g><g id="elem_FRB04"><ellipse cx="253.1273" cy="1404.8442" fill="#F1F1F1" rx="98.6273" ry="22.1255" style="stroke:#181818;stroke-width:0.5;"/><text fill="#000000" font-family="sans-serif" font-size="20" lengthAdjust="spacing" textLength="133" x="183.6273" y="1411.7622">Create Post-it</text></g><g id="elem_FRB05"><ellipse cx="252.8206" cy="1484.5829" fill="#F1F1F1" rx="102.3206" ry="22.8641" style="stroke:#181818;stroke-width:0.5;"/><text fill="#000000" font-family="sans-serif" font-size="20" lengthAdjust="spacing" textLength="143" x="178.3206" y="1491.5008">Change Post-it</text></g><g id="elem_FRB06"><ellipse cx="253.1611" cy="1570.651" fill="#F1F1F1" rx="125.1611" ry="27.4322" style="stroke:#181818;stroke-width:0.5;"/><text fill="#000000" font-family="sans-serif" font-size="20" lengthAdjust="spacing" textLength="200" x="150.1611" y="1577.5689">Undo Post-it Change</text></g><g id="elem_FRB07"><ellipse cx="252.7654" cy="1659.5718" fill="#F1F1F1" rx="117.2654" ry="25.8531" style="stroke:#181818;stroke-width:0.5;"/><text fill="#000000" font-family="sans-serif" font-size="20" lengthAdjust="spacing" textLength="181" x="159.2654" y="1666.4898">View Board History</text></g><g id="elem_FRB08"><ellipse cx="253.1273" cy="1742.8442" fill="#F1F1F1" rx="98.6273" ry="22.1255" style="stroke:#181818;stroke-width:0.5;"/><text fill="#000000" font-family="sans-serif" font-size="20" lengthAdjust="spacing" textLength="133" x="183.6273" y="1749.7622">Archive Board</text></g><g id="elem_FRM01"><ellipse cx="252.9077" cy="1872.9003" fill="#F1F1F1" rx="118.9077" ry="26.1815" style="stroke:#181818;stroke-width:0.5;"/><text fill="#000000" font-family="sans-serif" font-size="20" lengthAdjust="spacing" textLength="185" x="157.4077" y="1879.8182">Schedule a Meeting</text></g><g id="elem_FRM02"><ellipse cx="252.9507" cy="1956.8089" fill="#F1F1F1" rx="103.4507" ry="23.0901" style="stroke:#181818;stroke-width:0.5;"/><text fill="#000000" font-family="sans-serif" font-size="20" lengthAdjust="spacing" textLength="146" x="176.9507" y="1963.7269">Cancel Meeting</text></g><g id="elem_FRM03"><ellipse cx="253.048" cy="2043.9283" fill="#F1F1F1" rx="131.548" ry="28.7096" style="stroke:#181818;stroke-width:0.5;"/><text fill="#000000" font-family="sans-serif" font-size="20" lengthAdjust="spacing" textLength="215" x="142.548" y="2050.8463">Accept/Reject Meeting</text></g><g id="elem_FRM031"><ellipse cx="561.3295" cy="2084.8846" fill="#F1F1F1" rx="103.8295" ry="23.1659" style="stroke:#181818;stroke-width:0.5;"/><text fill="#000000" font-family="sans-serif" font-size="20" lengthAdjust="spacing" textLength="147" x="484.8295" y="2091.8026">Accept Meeting</text></g><g id="elem_FRM032"><ellipse cx="561.7005" cy="2003.8588" fill="#F1F1F1" rx="101.2005" ry="22.6401" style="stroke:#181818;stroke-width:0.5;"/><text fill="#000000" font-family="sans-serif" font-size="20" lengthAdjust="spacing" textLength="140" x="488.7005" y="2010.7768">Reject Meeting</text></g><g id="elem_FRM04"><ellipse cx="253.2392" cy="2130.7666" fill="#F1F1F1" rx="105.7392" ry="23.5478" style="stroke:#181818;stroke-width:0.5;"/><text fill="#000000" font-family="sans-serif" font-size="20" lengthAdjust="spacing" textLength="152" x="174.2392" y="2137.6846">List Participants</text></g><!--entity usr--><g id="elem_usr"><ellipse cx="33" cy="1458.7188" fill="#F1F1F1" rx="16" ry="16" style="stroke:#181818;stroke-width:1.5;"/><path d="M33,1478.7188 C37,1478.7188 40,1478.7188 44,1474.7188 C52,1474.7188 60,1482.7188 60,1490.7188 L60,1494.7188 C60,1498.7188 56,1502.7188 52,1502.7188 L14,1502.7188 C10,1502.7188 6,1498.7188 6,1494.7188 L6,1490.7188 C6,1482.7188 14,1474.7188 22,1474.7188 C26,1478.7188 29,1478.7188 33,1478.7188 " fill="#F1F1F1" style="stroke:#181818;stroke-width:1.5;"/><text fill="#000000" font-family="sans-serif" font-size="20" lengthAdjust="spacing" textLength="43" x="11.5" y="1523.5547">User</text></g><!--link man to FRU01--><g id="link_man_FRU01"><path d="M570.72,741.8287 C587.07,663.7388 629.65,498.2787 714.5,385.7188 C758.5,327.3488 828.92,279.9988 877.77,251.6688 " fill="none" id="man-to-FRU01" style="stroke:#181818;stroke-width:1.0;"/><polygon fill="#181818" points="881.73,248.8187,871.9334,249.8319,877.3941,251.3087,875.9173,256.7694,881.73,248.8187" style="stroke:#181818;stroke-width:1.0;"/></g><!--link FRU01 to FRU011--><g id="link_FRU01_FRU011"><path d="M1028.14,241.7987 C1091.9,254.7887 1175.11,271.7388 1234.08,283.7587 " fill="none" id="FRU01-to-FRU011" style="stroke:#181818;stroke-width:1.0;"/><polygon fill="#181818" points="1238.71,284.9088,1230.6916,279.1899,1233.811,283.9089,1229.0919,287.0283,1238.71,284.9088" style="stroke:#181818;stroke-width:1.0;"/></g><!--link FRU01 to FRU012--><g id="link_FRU01_FRU012"><path d="M1061.82,222.7188 C1110.6,222.7188 1165.4,222.7188 1210.85,222.7188 " fill="none" id="FRU01-to-FRU012" style="stroke:#181818;stroke-width:1.0;"/><polygon fill="#181818" points="1215.62,222.7188,1206.62,218.7188,1210.62,222.7188,1206.62,226.7188,1215.62,222.7188" style="stroke:#181818;stroke-width:1.0;"/></g><!--link FRU01 to FRU013--><g id="link_FRU01_FRU013"><path d="M1027.66,203.4887 C1090.58,190.4987 1172.6,173.5687 1231.55,161.3988 " fill="none" id="FRU01-to-FRU013" style="stroke:#181818;stroke-width:1.0;"/><polygon fill="#181818" points="1236.19,160.2387,1226.5719,158.1192,1231.291,161.2386,1228.1716,165.9576,1236.19,160.2387" style="stroke:#181818;stroke-width:1.0;"/></g><!--link FRU01 to FRU014--><g id="link_FRU01_FRU014"><path d="M986.26,196.8788 C1037.04,172.0387 1117.05,134.3288 1188.5,106.7188 C1208.11,99.1388 1229.93,91.8587 1249.47,85.7288 " fill="none" id="FRU01-to-FRU014" style="stroke:#181818;stroke-width:1.0;"/><polygon fill="#181818" points="1254.19,83.9387,1244.4077,82.7953,1249.4161,85.4252,1246.7861,90.4336,1254.19,83.9387" style="stroke:#181818;stroke-width:1.0;"/></g><!--link man to FRC01--><g id="link_man_FRC01"><path d="M602.8,780.4888 C659.48,773.1388 764.33,759.5387 840.62,749.6388 " fill="none" id="man-to-FRC01" style="stroke:#181818;stroke-width:1.0;"/><polygon fill="#181818" points="845.52,748.8688,836.0803,746.0594,840.5615,749.5118,837.1092,753.993,845.52,748.8688" style="stroke:#181818;stroke-width:1.0;"/></g><!--link man to FRC02--><g id="link_man_FRC02"><path d="M602.8,791.0587 C643.17,796.3988 707.98,804.9888 769.5,813.1288 " fill="none" id="man-to-FRC02" style="stroke:#181818;stroke-width:1.0;"/><polygon fill="#181818" points="774.45,813.9188,766.0537,808.7707,769.4934,813.2617,765.0024,816.7013,774.45,813.9188" style="stroke:#181818;stroke-width:1.0;"/></g><!--link FRC02 to FRC021--><g id="link_FRC02_FRC021"><path d="M1118.54,837.1888 C1142.49,837.5088 1166.49,837.8287 1188.97,838.1288 " fill="none" id="FRC02-to-FRC021" style="stroke:#181818;stroke-width:1.0;"/><polygon fill="#181818" points="1193.95,838.2088,1185.0081,834.0806,1188.9505,838.1373,1184.8938,842.0798,1193.95,838.2088" style="stroke:#181818;stroke-width:1.0;"/></g><!--link FRC02 to FRC022--><g id="link_FRC02_FRC022"><path d="M1065.48,806.6288 C1116.61,795.6588 1173.87,783.3788 1219.85,773.5188 " fill="none" id="FRC02-to-FRC022" style="stroke:#181818;stroke-width:1.0;"/><polygon fill="#181818" points="1224.69,772.2688,1215.0488,770.2567,1219.8025,773.3232,1216.736,778.0768,1224.69,772.2688" style="stroke:#181818;stroke-width:1.0;"/></g><!--link man to FRC03--><g id="link_man_FRC03"><path d="M602.73,796.9288 C633.95,807.5687 676.21,826.4888 702.5,856.7188 C713.29,869.1288 702.14,880.8788 714.5,891.7188 C740.16,914.2188 774.09,926.4288 807.52,932.7688 " fill="none" id="man-to-FRC03" style="stroke:#181818;stroke-width:1.0;"/><polygon fill="#181818" points="812.31,933.8087,804.1594,928.2799,807.3888,932.9244,802.7444,936.1538,812.31,933.8087" style="stroke:#181818;stroke-width:1.0;"/></g><!--link FRC03 to FRC031--><g id="link_FRC03_FRC031"><path d="M1024.32,953.2987 C1086.86,965.5387 1169.46,981.6988 1229.3,993.4088 " fill="none" id="FRC03-to-FRC031" style="stroke:#181818;stroke-width:1.0;"/><polygon fill="#181818" points="1234.01,994.5288,1225.9438,988.8775,1229.1027,993.5702,1224.4101,996.7291,1234.01,994.5288" style="stroke:#181818;stroke-width:1.0;"/></g><!--link FRC03 to FRC032--><g id="link_FRC03_FRC032"><path d="M1053.55,934.1188 C1102.72,933.4688 1159.12,932.7088 1206.26,932.0787 " fill="none" id="FRC03-to-FRC032" style="stroke:#181818;stroke-width:1.0;"/><polygon fill="#181818" points="1211.26,931.9988,1202.2149,928.1019,1206.2603,932.0559,1202.3063,936.1013,1211.26,931.9988" style="stroke:#181818;stroke-width:1.0;"/></g><!--link man to FRC04--><g id="link_man_FRC04"><path d="M570.97,741.9788 C586.62,673.5188 626.83,541.8287 714.5,473.7188 C740.9,453.2088 774.34,441.4288 807.06,434.8087 " fill="none" id="man-to-FRC04" style="stroke:#181818;stroke-width:1.0;"/><polygon fill="#181818" points="811.73,433.7088,802.1375,431.4762,806.8196,434.6509,803.6449,439.3329,811.73,433.7088" style="stroke:#181818;stroke-width:1.0;"/></g><!--link man to FRC05--><g id="link_man_FRC05"><path d="M601.08,829.4688 C634.47,870.1888 680.7,934.1488 702.5,998.7188 C714.75,1035.0188 688.9,1142.2088 714.5,1170.7188 C745.66,1205.4188 796.24,1215.9888 840.83,1217.5088 " fill="none" id="man-to-FRC05" style="stroke:#181818;stroke-width:1.0;"/><polygon fill="#181818" points="845.8,1217.6588,836.9058,1213.4287,840.8017,1217.5302,836.7002,1221.4261,845.8,1217.6588" style="stroke:#181818;stroke-width:1.0;"/></g><!--link tea to FRC05--><g id="link_tea_FRC05"><path d="M291.37,909.0288 C324.13,917.1488 371.2,933.1988 402,962.7188 C416.14,976.2688 405.34,990.3187 420.5,1002.7188 C520.23,1084.2688 616.79,973.5387 702.5,1069.7188 C732.57,1103.4688 683.49,1137.8288 714.5,1170.7188 C746.05,1204.1788 795.72,1214.8888 839.68,1216.7988 " fill="none" id="tea-to-FRC05" style="stroke:#181818;stroke-width:1.0;"/><polygon fill="#181818" points="844.57,1216.9988,835.7123,1212.6927,839.5729,1216.8274,835.4382,1220.688,844.57,1216.9988" style="stroke:#181818;stroke-width:1.0;"/></g><!--link stu to FRC05--><g id="link_stu_FRC05"><path d="M289.77,1038.9188 C325.33,1056.1588 377.93,1087.9588 402,1133.7188 C427.88,1182.9188 380.47,1595.1388 420.5,1633.7188 C510.75,1720.6888 612.51,1720.9588 702.5,1633.7188 C733.31,1603.8488 686.38,1280.1287 714.5,1247.7188 C745.59,1211.8888 797.4,1201.7788 842.71,1200.9188 " fill="none" id="stu-to-FRC05" style="stroke:#181818;stroke-width:1.0;"/><polygon fill="#181818" points="847.49,1200.8587,838.456,1196.936,842.4902,1200.9016,838.5246,1204.9357,847.49,1200.8587" style="stroke:#181818;stroke-width:1.0;"/></g><!--link man to FRC06--><g id="link_man_FRC06"><path d="M583.09,741.9588 C607.67,694.6088 653.25,620.4488 714.5,579.7188 C736.3,565.2188 761.68,554.6888 787.26,547.0288 " fill="none" id="man-to-FRC06" style="stroke:#181818;stroke-width:1.0;"/><polygon fill="#181818" points="791.72,545.4388,781.96,544.1188,786.92,546.8388,784.2,551.7988,791.72,545.4388" style="stroke:#181818;stroke-width:1.0;"/></g><!--link stu to FRC07--><g id="link_stu_FRC07"><path d="M289.82,1038.8888 C325.41,1056.1188 378.04,1087.9088 402,1133.7188 C416.76,1161.9388 397.62,1684.5688 420.5,1706.7188 C510.54,1793.8988 591.02,1763.9888 702.5,1706.7188 C818.55,1647.1087 889.15,1498.7488 917.76,1426.5188 " fill="none" id="stu-to-FRC07" style="stroke:#181818;stroke-width:1.0;"/><polygon fill="#181818" points="919.91,1422.0388,912.8974,1428.9542,918.0826,1426.6929,920.344,1431.878,919.91,1422.0388" style="stroke:#181818;stroke-width:1.0;"/></g><!--link man to FRC08--><g id="link_man_FRC08"><path d="M602.93,758.4088 C632.73,739.2588 674.81,714.2488 714.5,697.7188 C739.34,687.3788 766.52,678.3387 793.01,670.6488 " fill="none" id="man-to-FRC08" style="stroke:#181818;stroke-width:1.0;"/><polygon fill="#181818" points="797.65,669.0288,787.8947,667.6742,792.8451,670.4118,790.1076,675.3621,797.65,669.0288" style="stroke:#181818;stroke-width:1.0;"/></g><!--link FRC08 to FRC081--><g id="link_FRC08_FRC081"><path d="M1126.74,644.8988 C1146.05,645.5288 1165.28,646.1388 1183.59,646.7288 " fill="none" id="FRC08-to-FRC081" style="stroke:#181818;stroke-width:1.0;"/><polygon fill="#181818" points="1188.25,646.9188,1179.3805,642.6372,1183.2525,646.7612,1179.1285,650.6332,1188.25,646.9188" style="stroke:#181818;stroke-width:1.0;"/></g><!--link FRC08 to FRC082--><g id="link_FRC08_FRC082"><path d="M1077.38,610.3688 C1125.08,600.9088 1176.82,590.6488 1219.14,582.2488 " fill="none" id="FRC08-to-FRC082" style="stroke:#181818;stroke-width:1.0;"/><polygon fill="#181818" points="1223.78,581.1288,1214.174,578.9553,1218.8755,582.1011,1215.7297,586.8026,1223.78,581.1288" style="stroke:#181818;stroke-width:1.0;"/></g><!--link tea to FRC09--><g id="link_tea_FRC09"><path d="M291.41,906.7788 C325.63,913.4688 374.91,928.6988 402,962.7188 C433.16,1001.8387 387.28,1036.3288 420.5,1073.7188 C507.2,1171.2888 617.54,1056.6288 702.5,1155.7188 C729.34,1187.0188 686.31,1217.6287 714.5,1247.7188 C740.65,1275.6188 779.23,1288.3688 816.7,1293.4988 " fill="none" id="tea-to-FRC09" style="stroke:#181818;stroke-width:1.0;"/><polygon fill="#181818" points="821.21,1294.2088,812.7992,1289.0845,816.2515,1293.5657,811.7703,1297.0181,821.21,1294.2088" style="stroke:#181818;stroke-width:1.0;"/></g><!--link tea to FRC10--><g id="link_tea_FRC10"><path d="M291.25,890.6388 C375.57,868.0387 582.99,826.8588 702.5,927.7188 C720.63,943.0188 697.61,963.0687 714.5,979.7188 C736.05,1000.9588 764.75,1013.6088 794.23,1020.9388 " fill="none" id="tea-to-FRC10" style="stroke:#181818;stroke-width:1.0;"/><polygon fill="#181818" points="798.74,1022.2388,790.912,1016.2619,793.8761,1021.08,789.058,1024.0441,798.74,1022.2388" style="stroke:#181818;stroke-width:1.0;"/></g><!--link tea to FRC11--><g id="link_tea_FRC11"><path d="M291.22,908.5887 C396.23,928.1188 688.14,983.5487 702.5,998.7188 C725.71,1023.2288 691.39,1049.1188 714.5,1073.7188 C733.66,1094.1088 759.32,1106.8988 786.3,1114.7588 " fill="none" id="tea-to-FRC11" style="stroke:#181818;stroke-width:1.0;"/><polygon fill="#181818" points="791.08,1116.3588,783.4636,1110.1145,786.2592,1115.0323,781.3413,1117.8278,791.08,1116.3588" style="stroke:#181818;stroke-width:1.0;"/></g><!--link tea to FRE01--><g id="link_tea_FRE01"><path d="M291.47,906.4188 C325.97,912.8688 375.67,927.9288 402,962.7188 C444.93,1019.4488 379.99,1063.2388 420.5,1121.7188 C438.01,1146.9988 467.17,1163.9588 494.35,1175.0388 " fill="none" id="tea-to-FRE01" style="stroke:#181818;stroke-width:1.0;"/><polygon fill="#181818" points="498.76,1177.1788,491.8445,1170.1662,494.1059,1175.3514,488.9207,1177.6128,498.76,1177.1788" style="stroke:#181818;stroke-width:1.0;"/></g><!--link stu to FRE02--><g id="link_stu_FRE02"><path d="M289.95,1039.1588 C325.38,1056.4988 377.64,1088.2988 402,1133.7188 C420.35,1167.9388 396.1,1452.5088 420.5,1482.7188 C433.3,1498.5688 451.99,1508.1988 471.57,1513.9488 " fill="none" id="stu-to-FRE02" style="stroke:#181818;stroke-width:1.0;"/><polygon fill="#181818" points="476.11,1515.4688,468.4765,1509.2455,471.2855,1514.1556,466.3754,1516.9646,476.11,1515.4688" style="stroke:#181818;stroke-width:1.0;"/></g><!--link tea to FRE03--><g id="link_tea_FRE03"><path d="M291.18,906.0288 C325.98,912.1988 376.34,927.0887 402,962.7188 C437.15,1011.5188 383.12,1185.5988 420.5,1232.7188 C430.21,1244.9588 443.33,1253.7988 457.65,1260.1688 " fill="none" id="tea-to-FRE03" style="stroke:#181818;stroke-width:1.0;"/><polygon fill="#181818" points="461.98,1262.4088,455.2375,1255.2297,457.3718,1260.4685,452.1331,1262.6028,461.98,1262.4088" style="stroke:#181818;stroke-width:1.0;"/></g><!--link stu to FRE04--><g id="link_stu_FRE04"><path d="M289.81,1039.2288 C325.13,1056.6388 377.3,1088.4788 402,1133.7188 C431.03,1186.8888 382.24,1358.7488 420.5,1405.7188 C433.1,1421.1888 451.27,1430.8188 470.37,1436.7488 " fill="none" id="stu-to-FRE04" style="stroke:#181818;stroke-width:1.0;"/><polygon fill="#181818" points="474.78,1438.3188,467.26,1431.9587,469.98,1436.9187,465.02,1439.6387,474.78,1438.3188" style="stroke:#181818;stroke-width:1.0;"/></g><!--link stu to FRE05--><g id="link_stu_FRE05"><path d="M289.71,1038.9488 C325.22,1056.2188 377.78,1088.0388 402,1133.7188 C424.14,1175.4788 390.98,1521.8088 420.5,1558.7188 C432.87,1574.1788 450.84,1583.7288 469.81,1589.5388 " fill="none" id="stu-to-FRE05" style="stroke:#181818;stroke-width:1.0;"/><polygon fill="#181818" points="474.18,1591.0788,466.6426,1584.7394,469.3762,1589.6919,464.4237,1592.4255,474.18,1591.0788" style="stroke:#181818;stroke-width:1.0;"/></g><!--link tea to FRE06--><g id="link_tea_FRE06"><path d="M291.31,905.9388 C326.2,912.0387 376.63,926.8788 402,962.7188 C447.76,1027.3788 371.99,1256.0888 420.5,1318.7188 C430.02,1331.0088 442.95,1339.9388 457.13,1346.4088 " fill="none" id="tea-to-FRE06" style="stroke:#181818;stroke-width:1.0;"/><polygon fill="#181818" points="461.41,1348.6888,454.7405,1341.4418,456.8217,1346.7019,451.5616,1348.7831,461.41,1348.6888" style="stroke:#181818;stroke-width:1.0;"/></g><!--link usr to FRB01--><g id="link_usr_FRB01"><path d="M38.61,1440.8987 C46.74,1372.0488 65.83,1243.0088 97.5,1210.7188 C112.97,1194.9488 133.82,1185.2188 155.2,1179.2988 " fill="none" id="usr-to-FRB01" style="stroke:#181818;stroke-width:1.0;"/><polygon fill="#181818" points="159.94,1177.7988,150.2237,1176.1884,155.1004,1179.055,152.2338,1183.9318,159.94,1177.7988" style="stroke:#181818;stroke-width:1.0;"/></g><!--link usr to FRB02--><g id="link_usr_FRB02"><path d="M36.29,1440.8688 C41,1396.2888 55.2,1328.3188 97.5,1288.7188 C114.35,1272.9488 136.63,1263.3088 159,1257.4888 " fill="none" id="usr-to-FRB02" style="stroke:#181818;stroke-width:1.0;"/><polygon fill="#181818" points="163.69,1256.0888,153.9981,1254.3372,158.8326,1257.2745,155.8954,1262.109,163.69,1256.0888" style="stroke:#181818;stroke-width:1.0;"/></g><!--link usr to FRB03--><g id="link_usr_FRB03"><path d="M47,1440.9988 C56.86,1415.1688 72.97,1383.8587 97.5,1364.7188 C116.35,1350.0088 140.12,1340.8987 163.32,1335.2888 " fill="none" id="usr-to-FRB03" style="stroke:#181818;stroke-width:1.0;"/><polygon fill="#181818" points="167.89,1334.0088,158.2194,1332.1432,163.019,1335.1372,160.025,1339.9368,167.89,1334.0088" style="stroke:#181818;stroke-width:1.0;"/></g><!--link usr to FRB04--><g id="link_usr_FRB04"><path d="M61.73,1464.6388 C72.49,1457.5588 85.18,1450.0388 97.5,1444.7188 C120.81,1434.6487 147.24,1426.6588 171.55,1420.5588 " fill="none" id="usr-to-FRB04" style="stroke:#181818;stroke-width:1.0;"/><polygon fill="#181818" points="176.36,1419.1287,166.6669,1417.3838,171.5034,1420.3178,168.5695,1425.1543,176.36,1419.1287" style="stroke:#181818;stroke-width:1.0;"/></g><!--link usr to FRB05--><g id="link_usr_FRB05"><path d="M61.61,1484.7188 C82.86,1484.7188 113.69,1484.7188 144.38,1484.7188 " fill="none" id="usr-to-FRB05" style="stroke:#181818;stroke-width:1.0;"/><polygon fill="#181818" points="149.11,1484.7188,140.11,1480.7188,144.11,1484.7188,140.11,1488.7188,149.11,1484.7188" style="stroke:#181818;stroke-width:1.0;"/></g><!--link usr to FRB06--><g id="link_usr_FRB06"><path d="M61.76,1505.1287 C72.52,1512.3688 85.21,1520.1087 97.5,1525.7188 C117.33,1534.7788 139.42,1542.4888 160.56,1548.8388 " fill="none" id="usr-to-FRB06" style="stroke:#181818;stroke-width:1.0;"/><polygon fill="#181818" points="165.2,1550.5088,157.6975,1544.1282,160.4039,1549.0956,155.4364,1551.802,165.2,1550.5088" style="stroke:#181818;stroke-width:1.0;"/></g><!--link usr to FRB07--><g id="link_usr_FRB07"><path d="M45.11,1528.5788 C54.54,1557.2388 70.89,1593.3688 97.5,1615.7188 C112.34,1628.1788 130.5,1637.1188 149.09,1643.5188 " fill="none" id="usr-to-FRB07" style="stroke:#181818;stroke-width:1.0;"/><polygon fill="#181818" points="153.34,1645.2688,146.0728,1638.6214,148.598,1643.6833,143.5361,1646.2086,153.34,1645.2688" style="stroke:#181818;stroke-width:1.0;"/></g><!--link usr to FRB08--><g id="link_usr_FRB08"><path d="M34.42,1528.6287 C37.34,1578.1188 49.8,1657.6588 97.5,1703.7188 C112.94,1718.6288 133.2,1728.0788 153.96,1734.0188 " fill="none" id="usr-to-FRB08" style="stroke:#181818;stroke-width:1.0;"/><polygon fill="#181818" points="158.53,1735.5288,150.8965,1729.3055,153.7055,1734.2156,148.7954,1737.0246,158.53,1735.5288" style="stroke:#181818;stroke-width:1.0;"/></g><!--link usr to FRM01--><g id="link_usr_FRM01"><path d="M39.07,1528.6487 C48.12,1600.8787 68.81,1740.7388 97.5,1780.7188 C119.1,1810.8088 153.86,1832.7688 184.94,1847.6688 " fill="none" id="usr-to-FRM01" style="stroke:#181818;stroke-width:1.0;"/><polygon fill="#181818" points="189.3,1850.1888,182.8655,1842.7324,184.7775,1848.0563,179.4536,1849.9684,189.3,1850.1888" style="stroke:#181818;stroke-width:1.0;"/></g><!--link usr to FRM02--><g id="link_usr_FRM02"><path d="M34.49,1528.4888 C36.51,1626.6287 46.66,1860.1087 97.5,1916.7188 C111.04,1931.7888 129.45,1941.5188 148.84,1947.7188 " fill="none" id="usr-to-FRM02" style="stroke:#181818;stroke-width:1.0;"/><polygon fill="#181818" points="153.33,1949.3788,145.8677,1942.9511,148.5428,1947.9355,143.5585,1950.6106,153.33,1949.3788" style="stroke:#181818;stroke-width:1.0;"/></g><!--link usr to FRM03--><g id="link_usr_FRM03"><path d="M33.48,1528.5088 C33.08,1639.3787 37.94,1927.3288 97.5,1997.7188 C108.06,2010.1988 121.84,2019.3688 136.82,2026.1087 " fill="none" id="usr-to-FRM03" style="stroke:#181818;stroke-width:1.0;"/><polygon fill="#181818" points="140.95,2028.2988,134.2615,2021.0694,136.3565,2026.324,131.1019,2028.419,140.95,2028.2988" style="stroke:#181818;stroke-width:1.0;"/></g><!--link FRM03 to FRM031--><g id="link_FRM03_FRM031"><path d="M365.95,2058.6988 C398.8,2063.0888 434.37,2067.8488 466.01,2072.0788 " fill="none" id="FRM03-to-FRM031" style="stroke:#181818;stroke-width:1.0;"/><polygon fill="#181818" points="470.87,2072.8588,462.4883,2067.687,465.9152,2072.1876,461.4146,2075.6146,470.87,2072.8588" style="stroke:#181818;stroke-width:1.0;"/></g><!--link FRM03 to FRM032--><g id="link_FRM03_FRM032"><path d="M366.39,2029.0488 C399.68,2024.7088 435.75,2019.9988 467.66,2015.8388 " fill="none" id="FRM03-to-FRM032" style="stroke:#181818;stroke-width:1.0;"/><polygon fill="#181818" points="472.57,2015.0588,463.1224,2012.2762,467.6134,2015.7158,464.1737,2020.2068,472.57,2015.0588" style="stroke:#181818;stroke-width:1.0;"/></g><!--link usr to FRM04--><g id="link_usr_FRM04"><path d="M35.76,1528.4188 C41.44,1660.1988 61.1,2047.1988 97.5,2089.7188 C110.53,2104.9388 128.5,2114.8388 147.59,2121.2088 " fill="none" id="usr-to-FRM04" style="stroke:#181818;stroke-width:1.0;"/><polygon fill="#181818" points="152,2122.9088,144.6139,2116.3938,147.2301,2121.4092,142.2147,2124.0255,152,2122.9088" style="stroke:#181818;stroke-width:1.0;"/></g><!--reverse link usr to man--><g id="link_usr_man"><path d="M34.51,1420.0488 C36.56,1244.9188 46.78,771.3788 97.5,724.7188 C216.54,615.2088 431.23,713.4288 520.19,762.1188 " fill="none" id="usr-backto-man" style="stroke:#181818;stroke-width:1.0;"/><polygon fill="none" points="41.5,1419.9088,34.29,1439.8288,27.5,1419.7588,41.5,1419.9088" style="stroke:#181818;stroke-width:1.0;"/></g><!--reverse link usr to tea--><g id="link_usr_tea"><path d="M33.84,1420.2088 C34.8,1296.6988 43.33,1032.8288 97.5,962.7188 C125.63,926.3187 178.68,911.5988 214.68,905.6688 " fill="none" id="usr-backto-tea" style="stroke:#181818;stroke-width:1.0;"/><polygon fill="none" points="40.84,1419.8987,33.74,1439.8688,26.84,1419.8388,40.84,1419.8987" style="stroke:#181818;stroke-width:1.0;"/></g><!--reverse link usr to stu--><g id="link_usr_stu"><path d="M39.84,1420.0088 C48.77,1332.0288 67.94,1180.2888 97.5,1133.7188 C126,1088.8188 180.03,1056.7888 216.03,1039.2688 " fill="none" id="usr-backto-stu" style="stroke:#181818;stroke-width:1.0;"/><polygon fill="none" points="46.71,1420.6788,37.8,1439.8987,32.78,1419.3088,46.71,1420.6788" style="stroke:#181818;stroke-width:1.0;"/></g><!--SRC=[nLTDSzem4BtxLsYuf3amuHioq-bCe4vxADDC2BqhzW8kHgAId8-s-U_LXssanQItX1DUxNlxj4zUstARiJqLT9VpP0ifIM55YrnTSwOMsMyWlKuagnH24yN5GZtdGEWZIBw3A8UL8eeJaQqtYgIPW4Hbd4LHjAV9bgx1WUIVYEYV_K_cbEa5GQWaEygyXJkWoSOjAA3Uma8LAJ1b5gGgDBbTOrm1iGBugcOolxiDc6jR9F7YD9USt0CHi0AXDqjblQGqXAQxZ6LI2QfhsXLWgQqIlUYIJifIEe65555qrdw3tzcXbwQuRgNLLaX8g0HoVRliT8sYbklhpZHADyJcjXfoNV9C05MEiIcfPvDYHk_pqqbzc_Gvawzc3MpMDztOG9CsYBJRdyW7ctJkWcupXx2EDuLxpU5-StYWoL_UtgmPBuG4OrTqwCUi4xJVvUYEUDsOsMxu46V6zpsmYrdETJ1cWkUvSLgIZ9rWwM6MRatZ4xJ295Vhg8mcBqcz0bhdSH2NxMFnpMhx6EQfhH31kY-qfYofFDfAOn346jqHNO0gcQf99B7A0G8E3sUxj1iZXkUHdcN1jHvXmNN0EBACqoBVbkslXjyhJeyGnzXotCAl0hImWui1Gw1YZ1Wcbk5glnVy0IvkuQSUwveerniz8WgaJ31HrsVoA48t9xrICYfKMJhnt9jKbWP1REcbirIxc1PwEEc1ECkfDFO4Tbo6i6xd21O_wGT28xZRGM2tr-K-DRVs_qgRsVOUOob-eZipb0x2ut0ccOHGQumcKbnE97lkBLzudc8qU-9o27ZtIGqBolGHpDsNTtHRgmgg352wTpT-4JI58rb311WToQfnWQxH-rZLMcoeUK-PSYfIsJ9YtT_0lcbedyrecGHHRM2A_9kM_bdwPa0F0Po1Fp9uRCxle_o1B-c6IzNE5COC4CRPDzjGjZw96IACSt39KbuXY2F0m142Zj66o5Tz2hXunhWnmfMJKIIRxE54xoRlSrhc02fZw_1mpCl3KKyZMkM5gkVeYCpB8pAZB87y5AQ7CEwKN2K9x5Nrr3W1xMDeryCUG45Ay90uy9Py7hTxGg0W5kkzbzvGeR8asrFtfXC8VUEtHrFxuzzsstxGr1VcSwY-C9z0_m00]--></g></svg>