<?xml version="1.0" encoding="UTF-8" standalone="no"?><svg xmlns="http://www.w3.org/2000/svg" xmlns:xlink="http://www.w3.org/1999/xlink" contentStyleType="text/css" height="2183px" preserveAspectRatio="none" style="width:1402px;height:2183px;background:#FFFFFF;" version="1.1" viewBox="0 0 1402 2183" width="1402px" zoomAndPan="magnify"><defs/><g><!--cluster actors--><g id="cluster_actors"><path d="M144,697.8945 L205,697.8945 A3.75,3.75 0 0 1 207.5,700.3945 L214.5,729.0508 L604.5,729.0508 A2.5,2.5 0 0 1 607,731.5508 L607,1087.3945 A2.5,2.5 0 0 1 604.5,1089.8945 L144,1089.8945 A2.5,2.5 0 0 1 141.5,1087.3945 L141.5,700.3945 A2.5,2.5 0 0 1 144,697.8945 " fill="none" style="stroke:#000000;stroke-width:1.5;"/><line style="stroke:#000000;stroke-width:1.5;" x1="141.5" x2="214.5" y1="729.0508" y2="729.0508"/><text fill="#000000" font-family="sans-serif" font-size="20" font-weight="bold" lengthAdjust="spacing" textLength="60" x="145.5" y="720.6563">actors</text></g><!--cluster Users--><g id="cluster_Users"><path d="M770.5,6.8945 L826.5,6.8945 A3.75,3.75 0 0 1 829,9.3945 L836,38.0508 L1372,38.0508 A2.5,2.5 0 0 1 1374.5,40.5508 L1374.5,342.3945 A2.5,2.5 0 0 1 1372,344.8945 L770.5,344.8945 A2.5,2.5 0 0 1 768,342.3945 L768,9.3945 A2.5,2.5 0 0 1 770.5,6.8945 " fill="none" style="stroke:#000000;stroke-width:1.5;"/><line style="stroke:#000000;stroke-width:1.5;" x1="768" x2="836" y1="38.0508" y2="38.0508"/><text fill="#000000" font-family="sans-serif" font-size="20" font-weight="bold" lengthAdjust="spacing" textLength="55" x="772" y="29.6563">Users</text></g><!--cluster Courses--><g id="cluster_Courses"><path d="M715,368.8945 L795,368.8945 A3.75,3.75 0 0 1 797.5,371.3945 L804.5,400.0508 L1393,400.0508 A2.5,2.5 0 0 1 1395.5,402.5508 L1395.5,1423.3945 A2.5,2.5 0 0 1 1393,1425.8945 L715,1425.8945 A2.5,2.5 0 0 1 712.5,1423.3945 L712.5,371.3945 A2.5,2.5 0 0 1 715,368.8945 " fill="none" style="stroke:#000000;stroke-width:1.5;"/><line style="stroke:#000000;stroke-width:1.5;" x1="712.5" x2="804.5" y1="400.0508" y2="400.0508"/><text fill="#000000" font-family="sans-serif" font-size="20" font-weight="bold" lengthAdjust="spacing" textLength="79" x="716.5" y="391.6563">Courses</text></g><!--cluster Exams--><g id="cluster_Exams"><path d="M422,1129.8945 L486,1129.8945 A3.75,3.75 0 0 1 488.5,1132.3945 L495.5,1161.0508 L682,1161.0508 A2.5,2.5 0 0 1 684.5,1163.5508 L684.5,1637.3945 A2.5,2.5 0 0 1 682,1639.8945 L422,1639.8945 A2.5,2.5 0 0 1 419.5,1637.3945 L419.5,1132.3945 A2.5,2.5 0 0 1 422,1129.8945 " fill="none" style="stroke:#000000;stroke-width:1.5;"/><line style="stroke:#000000;stroke-width:1.5;" x1="419.5" x2="495.5" y1="1161.0508" y2="1161.0508"/><text fill="#000000" font-family="sans-serif" font-size="20" font-weight="bold" lengthAdjust="spacing" textLength="63" x="423.5" y="1152.6563">Exams</text></g><!--cluster Boards--><g id="cluster_Boards"><path d="M115,1113.8945 L257,1113.8945 A3.75,3.75 0 0 1 259.5,1116.3945 L266.5,1145.0508 L382,1145.0508 A2.5,2.5 0 0 1 384.5,1147.5508 L384.5,1785.3945 A2.5,2.5 0 0 1 382,1787.8945 L115,1787.8945 A2.5,2.5 0 0 1 112.5,1785.3945 L112.5,1116.3945 A2.5,2.5 0 0 1 115,1113.8945 " fill="none" style="stroke:#000000;stroke-width:1.5;"/><line style="stroke:#000000;stroke-width:1.5;" x1="112.5" x2="266.5" y1="1145.0508" y2="1145.0508"/><text fill="#000000" font-family="sans-serif" font-size="20" font-weight="bold" lengthAdjust="spacing" textLength="141" x="116.5" y="1136.6563">Shared Boards</text></g><!--cluster Meetings--><g id="cluster_Meetings"><path d="M108,1811.8945 L195,1811.8945 A3.75,3.75 0 0 1 197.5,1814.3945 L204.5,1843.0508 L668.5,1843.0508 A2.5,2.5 0 0 1 671,1845.5508 L671,2174.3945 A2.5,2.5 0 0 1 668.5,2176.8945 L108,2176.8945 A2.5,2.5 0 0 1 105.5,2174.3945 L105.5,1814.3945 A2.5,2.5 0 0 1 108,1811.8945 " fill="none" style="stroke:#000000;stroke-width:1.5;"/><line style="stroke:#000000;stroke-width:1.5;" x1="105.5" x2="204.5" y1="1843.0508" y2="1843.0508"/><text fill="#000000" font-family="sans-serif" font-size="20" font-weight="bold" lengthAdjust="spacing" textLength="86" x="109.5" y="1834.6563">Meetings</text></g><!--entity man--><g id="elem_man"><ellipse cx="552" cy="759.3945" fill="#F1F1F1" rx="16" ry="16" style="stroke:#181818;stroke-width:1.5;"/><path d="M552,779.3945 C556,779.3945 559,779.3945 563,775.3945 C571,775.3945 579,783.3945 579,791.3945 L579,795.3945 C579,799.3945 575,803.3945 571,803.3945 L533,803.3945 C529,803.3945 525,799.3945 525,795.3945 L525,791.3945 C525,783.3945 533,775.3945 541,775.3945 C545,779.3945 548,779.3945 552,779.3945 " fill="#F1F1F1" style="stroke:#181818;stroke-width:1.5;"/><text fill="#000000" font-family="sans-serif" font-size="20" lengthAdjust="spacing" textLength="78" x="513" y="825.6563">Manager</text></g><!--entity tea--><g id="elem_tea"><ellipse cx="248.5" cy="880.3945" fill="#F1F1F1" rx="16" ry="16" style="stroke:#181818;stroke-width:1.5;"/><path d="M248.5,900.3945 C252.5,900.3945 255.5,900.3945 259.5,896.3945 C267.5,896.3945 275.5,904.3945 275.5,912.3945 L275.5,916.3945 C275.5,920.3945 271.5,924.3945 267.5,924.3945 L229.5,924.3945 C225.5,924.3945 221.5,920.3945 221.5,916.3945 L221.5,912.3945 C221.5,904.3945 229.5,896.3945 237.5,896.3945 C241.5,900.3945 244.5,900.3945 248.5,900.3945 " fill="#F1F1F1" style="stroke:#181818;stroke-width:1.5;"/><text fill="#000000" font-family="sans-serif" font-size="20" lengthAdjust="spacing" textLength="72" x="212.5" y="946.6563">Teacher</text></g><!--entity stu--><g id="elem_stu"><ellipse cx="248.5" cy="1003.3945" fill="#F1F1F1" rx="16" ry="16" style="stroke:#181818;stroke-width:1.5;"/><path d="M248.5,1023.3945 C252.5,1023.3945 255.5,1023.3945 259.5,1019.3945 C267.5,1019.3945 275.5,1027.3945 275.5,1035.3945 L275.5,1039.3945 C275.5,1043.3945 271.5,1047.3945 267.5,1047.3945 L229.5,1047.3945 C225.5,1047.3945 221.5,1043.3945 221.5,1039.3945 L221.5,1035.3945 C221.5,1027.3945 229.5,1019.3945 237.5,1019.3945 C241.5,1023.3945 244.5,1023.3945 248.5,1023.3945 " fill="#F1F1F1" style="stroke:#181818;stroke-width:1.5;"/><text fill="#000000" font-family="sans-serif" font-size="20" lengthAdjust="spacing" textLength="67" x="215" y="1069.6563">Student</text></g><g id="elem_GMN6"><path d="M157.5,742.3945 L157.5,827.8633 A0,0 0 0 0 157.5,827.8633 L339.5,827.8633 A0,0 0 0 0 339.5,827.8633 L339.5,789.1945 L512.72,785.7645 L339.5,781.1945 L339.5,752.3945 L329.5,742.3945 L157.5,742.3945 A0,0 0 0 0 157.5,742.3945 " fill="#FEFFDD" style="stroke:#181818;stroke-width:0.5;"/><path d="M329.5,742.3945 L329.5,752.3945 L339.5,752.3945 L329.5,742.3945 " fill="#FEFFDD" style="stroke:#181818;stroke-width:0.5;"/><text fill="#000000" font-family="sans-serif" font-size="20" lengthAdjust="spacing" textLength="153" x="163.5" y="768.1563">The manager can</text><text fill="#000000" font-family="sans-serif" font-size="20" lengthAdjust="spacing" textLength="161" x="163.5" y="793.3125">also be refered as</text><text fill="#000000" font-family="sans-serif" font-size="20" lengthAdjust="spacing" textLength="147" x="163.5" y="818.4688">the administrator</text></g><g id="elem_FRU01"><ellipse cx="909.1384" cy="228.8222" fill="#F1F1F1" rx="125.1384" ry="27.4277" style="stroke:#181818;stroke-width:0.5;"/><text fill="#000000" font-family="sans-serif" font-size="20" lengthAdjust="spacing" textLength="194" x="809.1384" y="236.4531">Management of Users</text></g><g id="elem_FRU011"><ellipse cx="1264.6439" cy="306.8165" fill="#F1F1F1" rx="90.1439" ry="21.422" style="stroke:#181818;stroke-width:0.5;"/><text fill="#000000" font-family="sans-serif" font-size="20" lengthAdjust="spacing" textLength="107" x="1208.1439" y="314.4474">Create User</text></g><g id="elem_FRU012"><ellipse cx="1264.6439" cy="228.8165" fill="#F1F1F1" rx="90.1439" ry="21.422" style="stroke:#181818;stroke-width:0.5;"/><text fill="#000000" font-family="sans-serif" font-size="20" lengthAdjust="spacing" textLength="107" x="1208.1439" y="236.4474">Enable User</text></g><g id="elem_FRU013"><ellipse cx="1264.3872" cy="150.8331" fill="#F1F1F1" rx="93.8872" ry="21.4386" style="stroke:#181818;stroke-width:0.5;"/><text fill="#000000" font-family="sans-serif" font-size="20" lengthAdjust="spacing" textLength="112" x="1205.3872" y="158.464">Disable User</text></g><g id="elem_FRU014"><ellipse cx="1264.4206" cy="72.7386" fill="#F1F1F1" rx="75.9206" ry="21.3441" style="stroke:#181818;stroke-width:0.5;"/><text fill="#000000" font-family="sans-serif" font-size="20" lengthAdjust="spacing" textLength="88" x="1217.4206" y="80.3695">List Users</text></g><g id="elem_FRC01"><ellipse cx="908.8347" cy="738.8615" fill="#F1F1F1" rx="100.3347" ry="22.4669" style="stroke:#181818;stroke-width:0.5;"/><text fill="#000000" font-family="sans-serif" font-size="20" lengthAdjust="spacing" textLength="129" x="841.3347" y="746.4923">Create Course</text></g><g id="elem_FRC02"><ellipse cx="908.7703" cy="833.6486" fill="#F1F1F1" rx="171.7703" ry="36.7541" style="stroke:#181818;stroke-width:0.5;"/><text fill="#000000" font-family="sans-serif" font-size="20" lengthAdjust="spacing" textLength="301" x="756.0348" y="840.9448">Open/Close Enrollments in Course</text></g><g id="elem_FRC021"><ellipse cx="1264.6391" cy="837.8224" fill="#F1F1F1" rx="110.1391" ry="24.4278" style="stroke:#181818;stroke-width:0.5;"/><text fill="#000000" font-family="sans-serif" font-size="20" lengthAdjust="spacing" textLength="156" x="1183.6391" y="845.4532">Open Enrollments</text></g><g id="elem_FRC022"><ellipse cx="1264.3971" cy="753.974" fill="#F1F1F1" rx="110.8971" ry="24.5794" style="stroke:#181818;stroke-width:0.5;"/><text fill="#000000" font-family="sans-serif" font-size="20" lengthAdjust="spacing" textLength="158" x="1182.3971" y="761.6048">Close Enrollments</text></g><g id="elem_FRC03"><ellipse cx="909.2015" cy="932.1348" fill="#F1F1F1" rx="116.7015" ry="25.7403" style="stroke:#181818;stroke-width:0.5;"/><text fill="#000000" font-family="sans-serif" font-size="20" lengthAdjust="spacing" textLength="173" x="819.7015" y="939.7657">Open/Close Course</text></g><g id="elem_FRC031"><ellipse cx="1264.274" cy="1007.0493" fill="#F1F1F1" rx="96.274" ry="21.6548" style="stroke:#181818;stroke-width:0.5;"/><text fill="#000000" font-family="sans-serif" font-size="20" lengthAdjust="spacing" textLength="117" x="1202.774" y="1014.6802">Open Course</text></g><g id="elem_FRC032"><ellipse cx="1264.4364" cy="927.6818" fill="#F1F1F1" rx="96.9364" ry="21.7873" style="stroke:#181818;stroke-width:0.5;"/><text fill="#000000" font-family="sans-serif" font-size="20" lengthAdjust="spacing" textLength="119" x="1201.9364" y="935.3127">Close Course</text></g><g id="elem_FRC04"><ellipse cx="908.7897" cy="439.7525" fill="#F1F1F1" rx="122.2897" ry="26.8579" style="stroke:#181818;stroke-width:0.5;"/><text fill="#000000" font-family="sans-serif" font-size="20" lengthAdjust="spacing" textLength="187" x="812.2897" y="447.3833">Set Course Teachers</text></g><g id="elem_FRC05"><ellipse cx="908.8899" cy="1202.8266" fill="#F1F1F1" rx="92.3899" ry="21.4321" style="stroke:#181818;stroke-width:0.5;"/><text fill="#000000" font-family="sans-serif" font-size="20" lengthAdjust="spacing" textLength="110" x="850.8899" y="1210.4575">List Courses</text></g><g id="elem_FRC06"><ellipse cx="909.1275" cy="535.82" fill="#F1F1F1" rx="155.1275" ry="33.4255" style="stroke:#181818;stroke-width:0.5;"/><text fill="#000000" font-family="sans-serif" font-size="20" lengthAdjust="spacing" textLength="264" x="774.1275" y="543.4509">Bulk Enroll Students in Course</text></g><g id="elem_FRC07"><ellipse cx="908.8555" cy="1376.9656" fill="#F1F1F1" rx="153.3555" ry="33.0711" style="stroke:#181818;stroke-width:0.5;"/><text fill="#000000" font-family="sans-serif" font-size="20" lengthAdjust="spacing" textLength="260" x="775.8555" y="1384.5965">Request Enrollment in Course</text></g><g id="elem_FRC08"><ellipse cx="909.0297" cy="642.9005" fill="#F1F1F1" rx="180.5297" ry="38.5059" style="stroke:#181818;stroke-width:0.5;"/><text fill="#000000" font-family="sans-serif" font-size="20" lengthAdjust="spacing" textLength="320" x="748.1943" y="649.525">Approve/Reject Enlistment in Course</text></g><g id="elem_FRC081"><ellipse cx="1264.634" cy="653.8213" fill="#F1F1F1" rx="115.134" ry="25.4268" style="stroke:#181818;stroke-width:0.5;"/><text fill="#000000" font-family="sans-serif" font-size="20" lengthAdjust="spacing" textLength="169" x="1177.134" y="661.4522">Approve Enlistment</text></g><g id="elem_FRC082"><ellipse cx="1264.6352" cy="569.0216" fill="#F1F1F1" rx="108.6352" ry="24.127" style="stroke:#181818;stroke-width:0.5;"/><text fill="#000000" font-family="sans-serif" font-size="20" lengthAdjust="spacing" textLength="152" x="1185.6352" y="576.6524">Reject Enlistment</text></g><g id="elem_FRC09"><ellipse cx="908.8971" cy="1283.974" fill="#F1F1F1" rx="110.8971" ry="24.5794" style="stroke:#181818;stroke-width:0.5;"/><text fill="#000000" font-family="sans-serif" font-size="20" lengthAdjust="spacing" textLength="158" x="826.8971" y="1291.6048">Schedule of Class</text></g><g id="elem_FRC10"><ellipse cx="908.7703" cy="1021.6486" fill="#F1F1F1" rx="131.7703" ry="28.7541" style="stroke:#181818;stroke-width:0.5;"/><text fill="#000000" font-family="sans-serif" font-size="20" lengthAdjust="spacing" textLength="210" x="800.7703" y="1029.2795">Schedule of Extra Class</text></g><g id="elem_FRC11"><ellipse cx="908.9781" cy="1116.0901" fill="#F1F1F1" rx="138.9781" ry="30.1956" style="stroke:#181818;stroke-width:0.5;"/><text fill="#000000" font-family="sans-serif" font-size="20" lengthAdjust="spacing" textLength="227" x="792.4781" y="1123.721">Update Schedule of Class</text></g><g id="elem_FRE01"><ellipse cx="552.1177" cy="1195.9181" fill="#F1F1F1" rx="95.6177" ry="21.5235" style="stroke:#181818;stroke-width:0.5;"/><text fill="#000000" font-family="sans-serif" font-size="20" lengthAdjust="spacing" textLength="115" x="491.6177" y="1203.5489">Create Exam</text></g><g id="elem_FRE02"><ellipse cx="551.9091" cy="1523.7747" fill="#F1F1F1" rx="81.9091" ry="21.3802" style="stroke:#181818;stroke-width:0.5;"/><text fill="#000000" font-family="sans-serif" font-size="20" lengthAdjust="spacing" textLength="96" x="500.9091" y="1531.4056">List Exams</text></g><g id="elem_FRE03"><ellipse cx="552.0805" cy="1278.0106" fill="#F1F1F1" rx="113.5805" ry="25.1161" style="stroke:#181818;stroke-width:0.5;"/><text fill="#000000" font-family="sans-serif" font-size="20" lengthAdjust="spacing" textLength="165" x="466.5805" y="1285.6415">List Course Exams</text></g><g id="elem_FRE04"><ellipse cx="552.1549" cy="1445.7869" fill="#F1F1F1" rx="84.1549" ry="21.3924" style="stroke:#181818;stroke-width:0.5;"/><text fill="#000000" font-family="sans-serif" font-size="20" lengthAdjust="spacing" textLength="99" x="499.6549" y="1453.4178">Take Exam</text></g><g id="elem_FRE05"><ellipse cx="552.1494" cy="1601.8022" fill="#F1F1F1" rx="87.1494" ry="21.4077" style="stroke:#181818;stroke-width:0.5;"/><text fill="#000000" font-family="sans-serif" font-size="20" lengthAdjust="spacing" textLength="103" x="497.6494" y="1609.4331">List Grades</text></g><g id="elem_FRE06"><ellipse cx="551.8084" cy="1364.0562" fill="#F1F1F1" rx="116.3084" ry="25.6617" style="stroke:#181818;stroke-width:0.5;"/><text fill="#000000" font-family="sans-serif" font-size="20" lengthAdjust="spacing" textLength="172" x="462.8084" y="1371.6871">List Course Grades</text></g><g id="elem_FRB01"><ellipse cx="248.4364" cy="1179.6818" fill="#F1F1F1" rx="96.9364" ry="21.7873" style="stroke:#181818;stroke-width:0.5;"/><text fill="#000000" font-family="sans-serif" font-size="20" lengthAdjust="spacing" textLength="119" x="185.9364" y="1187.3127">Create Board</text></g><g id="elem_FRB02"><ellipse cx="248.6386" cy="1258.8299" fill="#F1F1F1" rx="93.1386" ry="21.4354" style="stroke:#181818;stroke-width:0.5;"/><text fill="#000000" font-family="sans-serif" font-size="20" lengthAdjust="spacing" textLength="111" x="190.1386" y="1266.4607">Share Board</text></g><g id="elem_FRB03"><ellipse cx="248.4008" cy="1336.7985" fill="#F1F1F1" rx="86.4008" ry="21.404" style="stroke:#181818;stroke-width:0.5;"/><text fill="#000000" font-family="sans-serif" font-size="20" lengthAdjust="spacing" textLength="102" x="194.4008" y="1344.4293">View Board</text></g><g id="elem_FRB04"><ellipse cx="248.2787" cy="1415.9503" fill="#F1F1F1" rx="98.2787" ry="22.0557" style="stroke:#181818;stroke-width:0.5;"/><text fill="#000000" font-family="sans-serif" font-size="20" lengthAdjust="spacing" textLength="123" x="183.7787" y="1423.5811">Create Post-it</text></g><g id="elem_FRB05"><ellipse cx="248.6821" cy="1495.9309" fill="#F1F1F1" rx="100.6821" ry="22.5364" style="stroke:#181818;stroke-width:0.5;"/><text fill="#000000" font-family="sans-serif" font-size="20" lengthAdjust="spacing" textLength="130" x="180.6821" y="1503.5618">Change Post-it</text></g><g id="elem_FRB06"><ellipse cx="248.3762" cy="1579.7698" fill="#F1F1F1" rx="119.8762" ry="26.3752" style="stroke:#181818;stroke-width:0.5;"/><text fill="#000000" font-family="sans-serif" font-size="20" lengthAdjust="spacing" textLength="181" x="154.8762" y="1587.4006">Undo Post-it Change</text></g><g id="elem_FRB07"><ellipse cx="248.634" cy="1666.8213" fill="#F1F1F1" rx="115.134" ry="25.4268" style="stroke:#181818;stroke-width:0.5;"/><text fill="#000000" font-family="sans-serif" font-size="20" lengthAdjust="spacing" textLength="169" x="161.134" y="1674.4522">View Board History</text></g><g id="elem_FRB08"><ellipse cx="248.2787" cy="1749.9503" fill="#F1F1F1" rx="98.2787" ry="22.0557" style="stroke:#181818;stroke-width:0.5;"/><text fill="#000000" font-family="sans-serif" font-size="20" lengthAdjust="spacing" textLength="123" x="183.7787" y="1757.5811">Archive Board</text></g><g id="elem_FRM01"><ellipse cx="248.7015" cy="1882.1348" fill="#F1F1F1" rx="116.7015" ry="25.7403" style="stroke:#181818;stroke-width:0.5;"/><text fill="#000000" font-family="sans-serif" font-size="20" lengthAdjust="spacing" textLength="173" x="159.2015" y="1889.7657">Schedule a Meeting</text></g><g id="elem_FRM02"><ellipse cx="248.2937" cy="1965.8533" fill="#F1F1F1" rx="102.7937" ry="22.9587" style="stroke:#181818;stroke-width:0.5;"/><text fill="#000000" font-family="sans-serif" font-size="20" lengthAdjust="spacing" textLength="136" x="177.2937" y="1973.4841">Cancel Meeting</text></g><g id="elem_FRM03"><ellipse cx="248.6936" cy="2051.7332" fill="#F1F1F1" rx="127.1936" ry="27.8387" style="stroke:#181818;stroke-width:0.5;"/><text fill="#000000" font-family="sans-serif" font-size="20" lengthAdjust="spacing" textLength="199" x="146.1936" y="2059.3641">Accept/Reject Meeting</text></g><g id="elem_FRM031"><ellipse cx="552.1501" cy="2092.9245" fill="#F1F1F1" rx="103.1501" ry="23.03" style="stroke:#181818;stroke-width:0.5;"/><text fill="#000000" font-family="sans-serif" font-size="20" lengthAdjust="spacing" textLength="137" x="480.6501" y="2100.5554">Accept Meeting</text></g><g id="elem_FRM032"><ellipse cx="551.8808" cy="2012.0707" fill="#F1F1F1" rx="101.3808" ry="22.6762" style="stroke:#181818;stroke-width:0.5;"/><text fill="#000000" font-family="sans-serif" font-size="20" lengthAdjust="spacing" textLength="132" x="482.8808" y="2019.7016">Reject Meeting</text></g><g id="elem_FRM04"><ellipse cx="248.7264" cy="2138.1398" fill="#F1F1F1" rx="104.2264" ry="23.2453" style="stroke:#181818;stroke-width:0.5;"/><text fill="#000000" font-family="sans-serif" font-size="20" lengthAdjust="spacing" textLength="140" x="175.7264" y="2145.7707">List Participants</text></g><!--entity usr--><g id="elem_usr"><ellipse cx="33" cy="1469.3945" fill="#F1F1F1" rx="16" ry="16" style="stroke:#181818;stroke-width:1.5;"/><path d="M33,1489.3945 C37,1489.3945 40,1489.3945 44,1485.3945 C52,1485.3945 60,1493.3945 60,1501.3945 L60,1505.3945 C60,1509.3945 56,1513.3945 52,1513.3945 L14,1513.3945 C10,1513.3945 6,1509.3945 6,1505.3945 L6,1501.3945 C6,1493.3945 14,1485.3945 22,1485.3945 C26,1489.3945 29,1489.3945 33,1489.3945 " fill="#F1F1F1" style="stroke:#181818;stroke-width:1.5;"/><text fill="#000000" font-family="sans-serif" font-size="20" lengthAdjust="spacing" textLength="41" x="12.5" y="1535.6563">User</text></g><!--link man to FRU01--><g id="link_man_FRU01"><path d="M562.42,741.8145 C580.26,665.7645 624.56,507.4545 704.5,396.8945 C747.15,337.9145 815.24,287.4345 860.77,257.6245 " fill="none" id="man-to-FRU01" style="stroke:#181818;stroke-width:1.0;"/><polygon fill="#181818" points="865.1,254.8045,855.3724,256.3451,860.9048,257.5249,859.725,263.0574,865.1,254.8045" style="stroke:#181818;stroke-width:1.0;"/></g><!--link FRU01 to FRU011--><g id="link_FRU01_FRU011"><path d="M997.84,248.2745 C1057.98,261.5445 1136.69,278.9145 1192.79,291.2945 " fill="none" id="FRU01-to-FRU011" style="stroke:#181818;stroke-width:1.0;"/><polygon fill="#181818" points="1197.81,292.4045,1189.8757,286.5695,1192.9261,291.3335,1188.1621,294.3838,1197.81,292.4045" style="stroke:#181818;stroke-width:1.0;"/></g><!--link FRU01 to FRU012--><g id="link_FRU01_FRU012"><path d="M1034.13,228.8945 C1078.58,228.8945 1127.91,228.8945 1169.4,228.8945 " fill="none" id="FRU01-to-FRU012" style="stroke:#181818;stroke-width:1.0;"/><polygon fill="#181818" points="1174.42,228.8945,1165.42,224.8945,1169.42,228.8945,1165.42,232.8945,1174.42,228.8945" style="stroke:#181818;stroke-width:1.0;"/></g><!--link FRU01 to FRU013--><g id="link_FRU01_FRU013"><path d="M997.84,209.5145 C1057.38,196.3745 1135.14,179.2145 1191.12,166.8645 " fill="none" id="FRU01-to-FRU013" style="stroke:#181818;stroke-width:1.0;"/><polygon fill="#181818" points="1196.13,165.7645,1186.4821,163.7853,1191.2461,166.8356,1188.1957,171.5996,1196.13,165.7645" style="stroke:#181818;stroke-width:1.0;"/></g><!--link FRU01 to FRU014--><g id="link_FRU01_FRU014"><path d="M957.81,203.3345 C1005.58,178.3345 1081.5,140.0045 1149.5,111.8945 C1168.14,104.1845 1188.92,96.7545 1207.57,90.4745 " fill="none" id="FRU01-to-FRU014" style="stroke:#181818;stroke-width:1.0;"/><polygon fill="#181818" points="1212.77,88.7445,1202.9661,87.8047,1208.028,90.33,1205.5028,95.3919,1212.77,88.7445" style="stroke:#181818;stroke-width:1.0;"/></g><!--link man to FRC01--><g id="link_man_FRC01"><path d="M591.33,780.8245 C644.9,773.7245 743.81,760.6345 816.89,750.9545 " fill="none" id="man-to-FRC01" style="stroke:#181818;stroke-width:1.0;"/><polygon fill="#181818" points="822.11,750.2645,812.6624,747.482,817.1534,750.9216,813.7137,755.4126,822.11,750.2645" style="stroke:#181818;stroke-width:1.0;"/></g><!--link man to FRC02--><g id="link_man_FRC02"><path d="M591.33,791.0745 C631.35,796.4845 696.67,805.3245 757.62,813.5645 " fill="none" id="man-to-FRC02" style="stroke:#181818;stroke-width:1.0;"/><polygon fill="#181818" points="762.75,814.2545,754.3703,809.0795,757.7955,813.5815,753.2935,817.0067,762.75,814.2545" style="stroke:#181818;stroke-width:1.0;"/></g><!--link FRC02 to FRC021--><g id="link_FRC02_FRC021"><path d="M1080.8,835.8245 C1103.99,836.0945 1127.31,836.3545 1149.17,836.6045 " fill="none" id="FRC02-to-FRC021" style="stroke:#181818;stroke-width:1.0;"/><polygon fill="#181818" points="1154.4,836.6645,1145.4463,832.5619,1149.4003,836.6074,1145.3549,840.5614,1154.4,836.6645" style="stroke:#181818;stroke-width:1.0;"/></g><!--link FRC02 to FRC022--><g id="link_FRC02_FRC022"><path d="M1028.2,807.1445 C1078.46,795.7745 1135.83,782.7845 1181.34,772.4845 " fill="none" id="FRC02-to-FRC022" style="stroke:#181818;stroke-width:1.0;"/><polygon fill="#181818" points="1186.27,771.3745,1176.6047,769.4821,1181.3959,772.4894,1178.3885,777.2806,1186.27,771.3745" style="stroke:#181818;stroke-width:1.0;"/></g><!--link man to FRC03--><g id="link_man_FRC03"><path d="M591.2,796.8845 C622.27,807.5945 665.27,826.7445 692.5,856.8945 C702.4,867.8545 693.27,878.2945 704.5,887.8945 C728.07,908.0445 758.7,919.6245 789,926.1245 " fill="none" id="man-to-FRC03" style="stroke:#181818;stroke-width:1.0;"/><polygon fill="#181818" points="794.26,927.2045,786.2416,921.4857,789.361,926.2047,784.6419,929.3241,794.26,927.2045" style="stroke:#181818;stroke-width:1.0;"/></g><!--link FRC03 to FRC031--><g id="link_FRC03_FRC031"><path d="M993.33,949.5745 C1052.67,962.1645 1131.73,978.9345 1188.98,991.0845 " fill="none" id="FRC03-to-FRC031" style="stroke:#181818;stroke-width:1.0;"/><polygon fill="#181818" points="1194.11,992.1745,1186.1433,986.3839,1189.2202,991.1308,1184.4733,994.2077,1194.11,992.1745" style="stroke:#181818;stroke-width:1.0;"/></g><!--link FRC03 to FRC032--><g id="link_FRC03_FRC032"><path d="M1025.75,930.5845 C1069.87,930.0845 1119.76,929.5245 1162.41,929.0345 " fill="none" id="FRC03-to-FRC032" style="stroke:#181818;stroke-width:1.0;"/><polygon fill="#181818" points="1167.58,928.9845,1158.5349,925.0876,1162.5803,929.0417,1158.6263,933.0871,1167.58,928.9845" style="stroke:#181818;stroke-width:1.0;"/></g><!--link man to FRC04--><g id="link_man_FRC04"><path d="M562.52,741.6445 C579.23,675.1645 620.34,550.3545 704.5,484.8945 C727.99,466.6245 757.39,455.4445 786.48,448.6945 " fill="none" id="man-to-FRC04" style="stroke:#181818;stroke-width:1.0;"/><polygon fill="#181818" points="791.52,447.5645,781.8654,445.6182,786.6397,448.6522,783.6057,453.4266,791.52,447.5645" style="stroke:#181818;stroke-width:1.0;"/></g><!--link man to FRC05--><g id="link_man_FRC05"><path d="M591.07,829.2845 C624.32,870.0145 670.6,934.2045 692.5,998.8945 C704.22,1033.5045 680.27,1135.5445 704.5,1162.8945 C731.57,1193.4645 774.6,1204.7945 814.13,1207.9445 " fill="none" id="man-to-FRC05" style="stroke:#181818;stroke-width:1.0;"/><polygon fill="#181818" points="819.43,1208.3145,810.7256,1203.7065,814.4418,1207.9715,810.1768,1211.6877,819.43,1208.3145" style="stroke:#181818;stroke-width:1.0;"/></g><!--link tea to FRC05--><g id="link_tea_FRC05"><path d="M284.57,914.8245 C315.96,923.4245 361.66,939.8245 392.5,967.8945 C405.59,979.8045 397.45,992.1345 411.5,1002.8945 C513.42,1080.9745 606.64,974.4345 692.5,1069.8945 C720.37,1100.8845 676.02,1132.4745 704.5,1162.8945 C732.06,1192.3245 774.44,1203.6645 813.41,1207.1045 " fill="none" id="tea-to-FRC05" style="stroke:#181818;stroke-width:1.0;"/><polygon fill="#181818" points="818.63,1207.5245,809.9787,1202.8176,813.646,1207.1247,809.3389,1210.792,818.63,1207.5245" style="stroke:#181818;stroke-width:1.0;"/></g><!--link stu to FRC05--><g id="link_stu_FRC05"><path d="M282.2,1044.8845 C316.59,1062.6245 368.9,1095.6945 392.5,1141.8945 C417.69,1191.2045 371.61,1601.4945 411.5,1639.8945 C501.48,1726.5045 602.87,1726.8645 692.5,1639.8945 C724.25,1609.0845 675.8,1275.5645 704.5,1241.8945 C731.35,1210.3845 775.19,1199.3245 815.31,1196.6945 " fill="none" id="stu-to-FRC05" style="stroke:#181818;stroke-width:1.0;"/><polygon fill="#181818" points="820.69,1196.3945,811.4765,1192.9145,815.6981,1196.6798,811.9329,1200.9015,820.69,1196.3945" style="stroke:#181818;stroke-width:1.0;"/></g><!--link man to FRC06--><g id="link_man_FRC06"><path d="M575.06,741.6145 C600.15,695.8745 645.41,625.8445 704.5,586.8945 C725.45,573.0845 749.87,563.0045 774.37,555.6645 " fill="none" id="man-to-FRC06" style="stroke:#181818;stroke-width:1.0;"/><polygon fill="#181818" points="779.27,554.2345,769.51,552.9145,774.47,555.6345,771.75,560.5945,779.27,554.2345" style="stroke:#181818;stroke-width:1.0;"/></g><!--link stu to FRC07--><g id="link_stu_FRC07"><path d="M282.25,1044.8645 C316.67,1062.5845 369.02,1095.6445 392.5,1141.8945 C421.24,1198.4945 365.87,1668.7645 411.5,1712.8945 C501.27,1799.7245 582.92,1772.7945 692.5,1712.8945 C810.52,1648.3745 873.46,1488.5545 896.99,1415.0245 " fill="none" id="stu-to-FRC07" style="stroke:#181818;stroke-width:1.0;"/><polygon fill="#181818" points="898.62,1409.8745,892.0849,1417.2429,897.1075,1414.6403,899.7101,1419.6629,898.62,1409.8745" style="stroke:#181818;stroke-width:1.0;"/></g><!--link man to FRC08--><g id="link_man_FRC08"><path d="M591.16,760.3545 C620.99,741.3045 664.05,715.7545 704.5,698.8945 C728.6,688.8545 755.05,680.0545 780.67,672.6045 " fill="none" id="man-to-FRC08" style="stroke:#181818;stroke-width:1.0;"/><polygon fill="#181818" points="785.78,671.1245,776.0237,669.7777,780.9762,672.5113,778.2426,677.4639,785.78,671.1245" style="stroke:#181818;stroke-width:1.0;"/></g><!--link FRC08 to FRC081--><g id="link_FRC08_FRC081"><path d="M1087.79,648.4245 C1107.27,649.0345 1126.74,649.6345 1145.25,650.2145 " fill="none" id="FRC08-to-FRC081" style="stroke:#181818;stroke-width:1.0;"/><polygon fill="#181818" points="1150.44,650.3745,1141.5701,646.0938,1145.4425,650.2175,1141.3188,654.0898,1150.44,650.3745" style="stroke:#181818;stroke-width:1.0;"/></g><!--link FRC08 to FRC082--><g id="link_FRC08_FRC082"><path d="M1038.37,616.0245 C1085.53,606.1445 1137.67,595.2345 1179.89,586.3945 " fill="none" id="FRC08-to-FRC082" style="stroke:#181818;stroke-width:1.0;"/><polygon fill="#181818" points="1184.99,585.3345,1175.3648,583.2475,1180.0944,586.3509,1176.991,591.0804,1184.99,585.3345" style="stroke:#181818;stroke-width:1.0;"/></g><!--link tea to FRC09--><g id="link_tea_FRC09"><path d="M284.64,912.2045 C317.69,919.1145 365.94,934.5345 392.5,967.8945 C422.31,1005.3345 379.62,1038.1945 411.5,1073.8945 C498.31,1171.1245 607.42,1059.1345 692.5,1157.8945 C717.11,1186.4645 678.67,1214.4145 704.5,1241.8945 C727.31,1266.1545 760.13,1278.3845 792.78,1284.0945 " fill="none" id="tea-to-FRC09" style="stroke:#181818;stroke-width:1.0;"/><polygon fill="#181818" points="798.01,1284.9545,789.7824,1279.541,793.0769,1284.1395,788.4783,1287.434,798.01,1284.9545" style="stroke:#181818;stroke-width:1.0;"/></g><!--link tea to FRC10--><g id="link_tea_FRC10"><path d="M284.53,896.0945 C366.34,873.2445 572.11,829.7245 692.5,927.8945 C709.21,941.5145 689.08,959.8245 704.5,974.8945 C724.03,993.9845 749.68,1005.9045 776.16,1013.2245 " fill="none" id="tea-to-FRC10" style="stroke:#181818;stroke-width:1.0;"/><polygon fill="#181818" points="781.12,1014.5445,773.4523,1008.3635,776.2884,1013.258,771.3938,1016.0941,781.12,1014.5445" style="stroke:#181818;stroke-width:1.0;"/></g><!--link tea to FRC11--><g id="link_tea_FRC11"><path d="M284.78,913.1045 C387.18,931.2845 678.11,984.0245 692.5,998.8945 C714.15,1021.2645 683.15,1045.2445 704.5,1067.8945 C722.12,1086.5945 745.55,1098.6245 770.24,1106.2445 " fill="none" id="tea-to-FRC11" style="stroke:#181818;stroke-width:1.0;"/><polygon fill="#181818" points="775.19,1107.7045,767.6875,1101.3239,770.3939,1106.2914,765.4264,1108.9978,775.19,1107.7045" style="stroke:#181818;stroke-width:1.0;"/></g><!--link tea to FRE01--><g id="link_tea_FRE01"><path d="M284.73,911.8245 C318.09,918.4745 366.77,933.7145 392.5,967.8945 C433.97,1022.9945 372.39,1065.0945 411.5,1121.8945 C429.5,1148.0445 459.76,1165.6745 487.51,1177.1545 " fill="none" id="tea-to-FRE01" style="stroke:#181818;stroke-width:1.0;"/><polygon fill="#181818" points="492.29,1179.0745,485.438,1171.9999,487.6526,1177.2053,482.4472,1179.4198,492.29,1179.0745" style="stroke:#181818;stroke-width:1.0;"/></g><!--link stu to FRE02--><g id="link_stu_FRE02"><path d="M282.05,1044.9645 C316.3,1062.7745 368.51,1095.9045 392.5,1141.8945 C427.81,1209.5745 363.69,1425.3845 411.5,1484.8945 C425.21,1501.9545 445.71,1511.9245 466.81,1517.6545 " fill="none" id="stu-to-FRE02" style="stroke:#181818;stroke-width:1.0;"/><polygon fill="#181818" points="471.9,1518.9445,464.1768,1512.8329,467.0569,1517.7016,462.1882,1520.5817,471.9,1518.9445" style="stroke:#181818;stroke-width:1.0;"/></g><!--link tea to FRE03--><g id="link_tea_FRE03"><path d="M284.8,911.4845 C318.46,917.8845 367.59,932.9545 392.5,967.8945 C427.03,1016.3345 374.5,1188.3245 411.5,1234.8945 C421.57,1247.5745 435.31,1256.6045 450.25,1263.0145 " fill="none" id="tea-to-FRE03" style="stroke:#181818;stroke-width:1.0;"/><polygon fill="#181818" points="454.92,1264.9145,448.0944,1257.8145,450.2895,1263.028,445.076,1265.2232,454.92,1264.9145" style="stroke:#181818;stroke-width:1.0;"/></g><!--link stu to FRE04--><g id="link_stu_FRE04"><path d="M282.22,1045.2045 C316.35,1063.1145 368.21,1096.2345 392.5,1141.8945 C420.23,1194.0145 374.15,1361.1645 411.5,1406.8945 C425.05,1423.4845 445.02,1433.3545 465.65,1439.1345 " fill="none" id="stu-to-FRE04" style="stroke:#181818;stroke-width:1.0;"/><polygon fill="#181818" points="470.62,1440.4445,462.9307,1434.2903,465.7839,1439.1749,460.8993,1442.028,470.62,1440.4445" style="stroke:#181818;stroke-width:1.0;"/></g><!--link stu to FRE05--><g id="link_stu_FRE05"><path d="M282.14,1044.9145 C316.47,1062.6845 368.74,1095.7845 392.5,1141.8945 C413.95,1183.5245 382.36,1526.2445 411.5,1562.8945 C424.34,1579.0445 443.28,1588.8545 463.09,1594.7145 " fill="none" id="stu-to-FRE05" style="stroke:#181818;stroke-width:1.0;"/><polygon fill="#181818" points="468.14,1596.1245,460.5456,1589.8535,463.3238,1594.7812,458.3962,1597.5594,468.14,1596.1245" style="stroke:#181818;stroke-width:1.0;"/></g><!--link tea to FRE06--><g id="link_tea_FRE06"><path d="M284.61,911.3245 C318.38,917.6245 367.81,932.6245 392.5,967.8945 C437.42,1032.0645 363.5,1257.9945 411.5,1319.8945 C421.22,1332.4245 434.49,1341.4645 449.01,1347.9645 " fill="none" id="tea-to-FRE06" style="stroke:#181818;stroke-width:1.0;"/><polygon fill="#181818" points="453.98,1350.0745,447.2455,1342.888,449.374,1348.1291,444.1328,1350.2576,453.98,1350.0745" style="stroke:#181818;stroke-width:1.0;"/></g><!--link usr to FRB01--><g id="link_usr_FRB01"><path d="M38.62,1451.8145 C46.76,1382.5245 65.86,1252.6445 97.5,1219.8945 C112.24,1204.6445 132.09,1194.9845 152.51,1188.9245 " fill="none" id="usr-to-FRB01" style="stroke:#181818;stroke-width:1.0;"/><polygon fill="#181818" points="157.44,1187.5445,147.6923,1186.1365,152.6276,1188.9012,149.8629,1193.8364,157.44,1187.5445" style="stroke:#181818;stroke-width:1.0;"/></g><!--link usr to FRB02--><g id="link_usr_FRB02"><path d="M36.21,1451.6645 C40.87,1406.6945 55.01,1338.0745 97.5,1297.8945 C113.43,1282.8345 134.41,1273.4045 155.62,1267.5545 " fill="none" id="usr-to-FRB02" style="stroke:#181818;stroke-width:1.0;"/><polygon fill="#181818" points="160.72,1266.2145,150.9993,1264.631,155.8839,1267.4842,153.0307,1272.3688,160.72,1266.2145" style="stroke:#181818;stroke-width:1.0;"/></g><!--link usr to FRB03--><g id="link_usr_FRB03"><path d="M47.31,1451.7045 C57.22,1426.0245 73.28,1395.0545 97.5,1375.8945 C116.22,1361.0845 139.97,1351.8645 163.02,1346.1245 " fill="none" id="usr-to-FRB03" style="stroke:#181818;stroke-width:1.0;"/><polygon fill="#181818" points="167.93,1344.9545,158.248,1343.1492,163.0661,1346.1133,160.102,1350.9314,167.93,1344.9545" style="stroke:#181818;stroke-width:1.0;"/></g><!--link usr to FRB04--><g id="link_usr_FRB04"><path d="M61.75,1475.8645 C72.52,1468.7845 85.2,1461.2645 97.5,1455.8945 C120.22,1445.9845 145.97,1438.0345 169.64,1431.9145 " fill="none" id="usr-to-FRB04" style="stroke:#181818;stroke-width:1.0;"/><polygon fill="#181818" points="174.66,1430.6345,164.9482,1428.9973,169.8169,1431.8774,166.9368,1436.7462,174.66,1430.6345" style="stroke:#181818;stroke-width:1.0;"/></g><!--link usr to FRB05--><g id="link_usr_FRB05"><path d="M61.91,1495.8945 C82.85,1495.8945 112.94,1495.8945 142.82,1495.8945 " fill="none" id="usr-to-FRB05" style="stroke:#181818;stroke-width:1.0;"/><polygon fill="#181818" points="148,1495.8945,139,1491.8945,143,1495.8945,139,1499.8945,148,1495.8945" style="stroke:#181818;stroke-width:1.0;"/></g><!--link usr to FRB06--><g id="link_usr_FRB06"><path d="M61.51,1515.5645 C72.35,1522.6745 85.15,1530.3245 97.5,1535.8945 C117.62,1544.9745 140.11,1552.7245 161.41,1559.0745 " fill="none" id="usr-to-FRB06" style="stroke:#181818;stroke-width:1.0;"/><polygon fill="#181818" points="166.23,1560.4945,158.7151,1554.1285,161.4311,1559.0907,156.4689,1561.8067,166.23,1560.4945" style="stroke:#181818;stroke-width:1.0;"/></g><!--link usr to FRB07--><g id="link_usr_FRB07"><path d="M45.8,1539.9745 C55.4,1567.7745 71.68,1602.3745 97.5,1623.8945 C111.96,1635.9445 129.61,1644.6145 147.67,1650.8645 " fill="none" id="usr-to-FRB07" style="stroke:#181818;stroke-width:1.0;"/><polygon fill="#181818" points="152.77,1652.5645,145.5028,1645.9172,148.028,1650.9791,142.9661,1653.5044,152.77,1652.5645" style="stroke:#181818;stroke-width:1.0;"/></g><!--link usr to FRB08--><g id="link_usr_FRB08"><path d="M34.93,1540.0145 C38.37,1588.3745 51.38,1665.0445 97.5,1709.8945 C112.53,1724.5045 132.26,1733.9345 152.47,1739.9745 " fill="none" id="usr-to-FRB08" style="stroke:#181818;stroke-width:1.0;"/><polygon fill="#181818" points="157.33,1741.3645,149.7702,1735.0519,152.5213,1739.9947,147.5785,1742.7458,157.33,1741.3645" style="stroke:#181818;stroke-width:1.0;"/></g><!--link usr to FRM01--><g id="link_usr_FRM01"><path d="M33.31,1539.9145 C34.47,1600.9945 44.48,1712.4445 97.5,1787.8945 C119.31,1818.9345 154.96,1841.8945 186.03,1857.3445 " fill="none" id="usr-to-FRM01" style="stroke:#181818;stroke-width:1.0;"/><polygon fill="#181818" points="190.58,1859.5745,184.2609,1852.0202,186.0908,1857.3728,180.7382,1859.2028,190.58,1859.5745" style="stroke:#181818;stroke-width:1.0;"/></g><!--link usr to FRM02--><g id="link_usr_FRM02"><path d="M34.61,1540.0445 C36.86,1637.8345 47.48,1868.4945 97.5,1924.8945 C110.71,1939.7945 128.76,1949.5045 147.76,1955.7945 " fill="none" id="usr-to-FRM02" style="stroke:#181818;stroke-width:1.0;"/><polygon fill="#181818" points="152.61,1957.3145,145.2239,1950.7995,147.8401,1955.815,142.8247,1958.4313,152.61,1957.3145" style="stroke:#181818;stroke-width:1.0;"/></g><!--link usr to FRM03--><g id="link_usr_FRM03"><path d="M33.52,1539.9145 C33.21,1650.6245 38.29,1936.8145 97.5,2006.8945 C107.92,2019.2245 121.57,2028.2545 136.39,2034.8545 " fill="none" id="usr-to-FRM03" style="stroke:#181818;stroke-width:1.0;"/><polygon fill="#181818" points="141.03,2036.8245,134.3144,2029.6203,136.4291,2034.867,131.1824,2036.9817,141.03,2036.8245" style="stroke:#181818;stroke-width:1.0;"/></g><!--link FRM03 to FRM031--><g id="link_FRM03_FRM031"><path d="M357.07,2066.5245 C390.14,2071.0245 426.24,2075.9245 458.22,2080.2745 " fill="none" id="FRM03-to-FRM031" style="stroke:#181818;stroke-width:1.0;"/><polygon fill="#181818" points="463.32,2080.9745,454.9383,2075.8027,458.3652,2080.3034,453.8646,2083.7303,463.32,2080.9745" style="stroke:#181818;stroke-width:1.0;"/></g><!--link FRM03 to FRM032--><g id="link_FRM03_FRM032"><path d="M357.92,2037.5145 C391.09,2033.1045 427.24,2028.3145 459.19,2024.0745 " fill="none" id="FRM03-to-FRM032" style="stroke:#181818;stroke-width:1.0;"/><polygon fill="#181818" points="464.29,2023.3945,454.8424,2020.612,459.3334,2024.0516,455.8937,2028.5426,464.29,2023.3945" style="stroke:#181818;stroke-width:1.0;"/></g><!--link usr to FRM04--><g id="link_usr_FRM04"><path d="M35.81,1540.3145 C41.6,1672.3145 61.38,2055.6645 97.5,2097.8945 C109.99,2112.4945 127.16,2122.0645 145.43,2128.2745 " fill="none" id="usr-to-FRM04" style="stroke:#181818;stroke-width:1.0;"/><polygon fill="#181818" points="150.61,2129.9445,143.2651,2123.383,145.8497,2128.4149,140.8178,2130.9995,150.61,2129.9445" style="stroke:#181818;stroke-width:1.0;"/></g><!--reverse link usr to man--><g id="link_usr_man"><path d="M34.42,1431.4145 C36.25,1254.6545 45.97,772.3545 97.5,724.8945 C214.66,616.9845 426.48,715.5245 512.82,763.3245 " fill="none" id="usr-backto-man" style="stroke:#181818;stroke-width:1.0;"/><polygon fill="none" points="41.42,1431.7145,34.24,1451.6445,27.42,1431.5745,41.42,1431.7145" style="stroke:#181818;stroke-width:1.0;"/></g><!--reverse link usr to tea--><g id="link_usr_tea"><path d="M33.8,1431.4745 C34.66,1306.9645 43.01,1039.2545 97.5,967.8945 C124.97,931.9245 177.21,917.0645 212.21,910.9945 " fill="none" id="usr-backto-tea" style="stroke:#181818;stroke-width:1.0;"/><polygon fill="none" points="40.8,1431.6045,33.72,1451.5745,26.8,1431.5445,40.8,1431.6045" style="stroke:#181818;stroke-width:1.0;"/></g><!--reverse link usr to stu--><g id="link_usr_stu"><path d="M39.82,1431.8445 C48.8,1343.4045 68.14,1189.4145 97.5,1141.8945 C125.69,1096.2745 179.85,1062.9345 214.8,1044.9945 " fill="none" id="usr-backto-stu" style="stroke:#181818;stroke-width:1.0;"/><polygon fill="none" points="46.79,1432.5445,37.86,1451.7645,32.85,1431.1745,46.79,1432.5445" style="stroke:#181818;stroke-width:1.0;"/></g><!--SRC=[nLTDSzem4BtxLsYuf3amuHioq-bCe4vxADDC2BqhzW8kHgAId8-s-U_LXssanQItX1DUxNlxj4zUstARiJqLT9VpP0ifIM55YrnTSwOMsMyWlKuagnH24yN5GZtdGEWZIBw3A8UL8eeJaQqtYgIPW4Hbd4LHjAV9bgx1WUIVYEYV_K_cbEa5GQWaEygyXJkWoSOjAA3Uma8LAJ1b5gGgDBbTOrm1iGBugcOolxiDc6jR9F7YD9USt0CHi0AXDqjblQGqXAQxZ6LI2QfhsXLWgQqIlUYIJifIEe65555qrdw3tzcXbwQuRgNLLaX8g0HoVRliT8sYbklhpZHADyJcjXfoNV9C05MEiIcfPvDYHk_pqqbzc_Gvawzc3MpMDztOG9CsYBJRdyW7ctJkWcupXx2EDuLxpU5-StYWoL_UtgmPBuG4OrTqwCUi4xJVvUYEUDsOsMxu46V6zpsmYrdETJ1cWkUvSLgIZ9rWwM6MRatZ4xJ295Vhg8mcBqcz0bhdSH2NxMFnpMhx6EQfhH31kY-qfYofFDfAOn346jqHNO0gcQf99B7A0G8E3sUxj1iZXkUHdcN1jHvXmNN0EBACqoBVbkslXjyhJeyGnzXotCAl0hImWui1Gw1YZ1Wcbk5glnVy0IvkuQSUwveerniz8WgaJ31HrsVoA48t9xrICYfKMJhnt9jKbWP1REcbirIxc1PwEEc1ECkfDFO4Tbo6i6xd21O_wGT28xZRGM2tr-K-DRVs_qgRsVOUOob-eZipb0x2ut0ccOHGQumcKbnE97lkBLzudc8qU-9o27ZtIGqBolGHpDsNTtHRgmgg352wTpT-4JI58rb311WToQfnWQxH-rZLMcoeUK-PSYfIsJ9YtT_0lcbedyrecGHHRM2A_9kM_bdwPa0F0Po1Fp9uRCxle_o1B-c6IzNE5COC4CRPDzjGjZw96IACSt39KbuXY2F0m142Zj66o5Tz2hXunhWnmfMJKIIRxE54xoRlSrhc02fZw_1mpCl3KKyZMkM5gkVeYCpB8pAZB87y5AQ7CEwKN2K9x5Nrr3W1xMDeryCUG45Ay90uy9Py7hTxGg0W5kkzbzvGeR8asrFtfXC8VUEtHrFxuzzsstxGr1VcSwY-C9z0_m00]--></g></svg>