<?xml version="1.0" encoding="UTF-8" standalone="no"?><svg xmlns="http://www.w3.org/2000/svg" xmlns:xlink="http://www.w3.org/1999/xlink" contentStyleType="text/css" height="810px" preserveAspectRatio="none" style="width:1317px;height:810px;background:#FFFFFF;" version="1.1" viewBox="0 0 1317 810" width="1317px" zoomAndPan="magnify"><defs/><g><polygon fill="#FFFFFF" points="179,118.5703,179,118.6404,181,118.4322,183,118.6347,185,118.7035,187,118.3325,189,118.5703,188.9223,118.5703,188.5735,128.5131,188.6165,138.4558,188.9318,148.3986,188.3086,158.3413,189.5536,168.2841,188.3697,178.2268,188.8022,188.1696,189.4319,198.1123,188.9142,208.0551,189.0682,217.9978,188.9681,227.9406,189.1785,237.8834,189.2391,247.8261,189.5857,257.7689,189.6711,267.7116,189.6793,277.6544,189.2546,287.5971,189.4636,297.5399,189.7022,307.4826,188.2788,317.4254,189.6785,327.3681,188.7035,337.3109,189.5338,347.2536,188.505,357.1964,188.9315,367.1391,189.7416,377.0819,188.9513,387.0246,189.1053,396.9674,189.3386,406.9102,189.4162,416.8529,188.9961,426.7957,189.2872,436.7384,188.4276,446.6812,189.2844,456.6239,189.5482,466.5667,189.4445,476.5094,189.613,486.4522,188.5169,496.3949,188.3478,506.3377,188.3786,516.2804,188.9411,526.2232,188.8035,536.1659,189.6814,546.1087,188.8253,556.0515,188.6569,565.9942,189.2283,575.937,188.3332,585.8797,188.4809,595.8225,189.649,605.7652,189.4357,615.708,189.7345,625.6507,188.6782,635.5935,189.3192,645.5362,189.5904,655.479,188.5276,665.4217,188.9041,675.3645,189.126,685.3072,189,695.25,189,695.4673,187,695.2486,185,695.4042,183,695.0654,181,695.0242,179,695.25,179.5036,695.25,178.2831,685.3072,179.509,675.3645,179.2066,665.4217,178.7321,655.479,178.6462,645.5362,179.4588,635.5935,178.7007,625.6507,179.5919,615.708,178.4473,605.7652,179.6174,595.8225,179.4843,585.8797,179.245,575.937,179.0472,565.9942,179.7266,556.0515,179.6136,546.1087,179.1693,536.1659,179.2682,526.2232,178.8697,516.2804,179.7165,506.3377,179.1549,496.3949,179.1726,486.4522,178.3916,476.5094,178.5948,466.5667,179.5307,456.6239,179.4298,446.6812,178.9571,436.7384,178.6778,426.7957,178.7811,416.8529,178.3138,406.9102,179.4147,396.9674,179.7396,387.0246,179.5264,377.0819,179.6949,367.1391,178.8633,357.1964,179.0872,347.2536,178.6124,337.3109,179.284,327.3681,179.2468,317.4254,179.5524,307.4826,178.7703,297.5399,178.8656,287.5971,179.4435,277.6544,179.5673,267.7116,178.4875,257.7689,178.8061,247.8261,179.1493,237.8834,178.3892,227.9406,179.3534,217.9978,179.258,208.0551,178.8992,198.1123,179.1422,188.1696,179.7287,178.2268,178.6871,168.2841,179.315,158.3413,179.2856,148.3986,179.1158,138.4558,179.1409,128.5131,179,118.5703" style="stroke:#181818;stroke-width:1.0;"/><polygon fill="#FFFFFF" points="364,239.9766,364,240.0466,366,239.8385,368,240.041,370,240.1098,372,239.7388,374,239.9766,373.9223,239.9766,373.5735,250.0938,373.6165,260.2109,373.9318,270.3281,373.3086,280.4453,374.5536,290.5625,373.3697,300.6797,373.8022,310.7969,374.4319,320.9141,373.9142,331.0313,374.0682,341.1484,373.9681,351.2656,374.1785,361.3828,374.2391,371.5,374.5857,381.6172,374.6711,391.7344,374.6793,401.8516,374.2546,411.9688,374.4636,422.0859,374.7022,432.2031,373.2788,442.3203,374.6785,452.4375,373.7035,462.5547,374.5338,472.6719,373.505,482.7891,373.9315,492.9063,374.7416,503.0234,373.9513,513.1406,374.1053,523.2578,374.3386,533.375,374.4162,543.4922,373.9961,553.6094,374.2872,563.7266,373.4276,573.8438,374.2844,583.9609,374.5482,594.0781,374.4445,604.1953,374.613,614.3125,373.5169,624.4297,373.3478,634.5469,373.3786,644.6641,373.9411,654.7813,374,664.8984,374,664.8329,372,665.1256,370,664.8402,368,664.7841,366,664.9745,364,664.8984,363.3332,664.8984,363.4809,654.7813,364.649,644.6641,364.4357,634.5469,364.7345,624.4297,363.6782,614.3125,364.3192,604.1953,364.5904,594.0781,363.5276,583.9609,363.9041,573.8438,364.126,563.7266,364.6518,553.6094,363.9958,543.4922,364.4626,533.375,363.4462,523.2578,363.3227,513.1406,364.5036,503.0234,363.2831,492.9063,364.509,482.7891,364.2066,472.6719,363.7321,462.5547,363.6462,452.4375,364.4588,442.3203,363.7007,432.2031,364.5919,422.0859,363.4473,411.9688,364.6174,401.8516,364.4843,391.7344,364.245,381.6172,364.0472,371.5,364.7266,361.3828,364.6136,351.2656,364.1693,341.1484,364.2682,331.0313,363.8697,320.9141,364.7165,310.7969,364.1549,300.6797,364.1726,290.5625,363.3916,280.4453,363.5948,270.3281,364.5307,260.2109,364.4298,250.0938,364,239.9766" style="stroke:#181818;stroke-width:1.0;"/><polygon fill="#FFFFFF" points="755,452.4375,755,452.5076,757,452.2994,759,452.5019,761,452.5707,763,452.1997,765,452.4375,764.9741,452.4375,764.8578,458.5078,764.8722,464.5781,764.9773,470.6484,764.7695,476.7188,765,482.7891,765,482.9736,763,482.579,761,482.7231,759,482.933,757,482.7605,755,482.7891,755.0227,482.7891,754.9894,476.7188,755.0595,470.6484,755.0797,464.5781,755.1952,458.5078,755,452.4375" style="stroke:#181818;stroke-width:1.0;"/><polygon fill="#FFFFFF" points="990.5,270.3281,990.5,270.3982,992.5,270.19,994.5,270.3926,996.5,270.4614,998.5,270.0903,1000.5,270.3281,1000.4223,270.3281,1000.0735,280.4453,1000.1165,290.5625,1000.4318,300.6797,999.8086,310.7969,1001.0536,320.9141,1000.5,331.0313,1000.5,330.8212,998.5,330.9653,996.5,331.1752,994.5,331.0027,992.5,331.054,990.5,331.0313,990.4681,331.0313,990.6785,320.9141,990.7391,310.7969,991.0857,300.6797,991.1711,290.5625,991.1793,280.4453,990.5,270.3281" style="stroke:#181818;stroke-width:1.0;"/><polygon fill="#FFFFFF" points="1133.5,361.3828,1133.5,361.4529,1135.5,361.2447,1137.5,361.4472,1139.5,361.516,1141.5,361.145,1143.5,361.3828,1143.4223,361.3828,1143.0735,371.5,1143.1165,381.6172,1143.4318,391.7344,1142.8086,401.8516,1144.0536,411.9688,1143.5,422.0859,1143.5,421.8758,1141.5,422.02,1139.5,422.2299,1137.5,422.0573,1135.5,422.1087,1133.5,422.0859,1133.4681,422.0859,1133.6785,411.9688,1133.7391,401.8516,1134.0857,391.7344,1134.1711,381.6172,1134.1793,371.5,1133.5,361.3828" style="stroke:#181818;stroke-width:1.0;"/><polygon fill="#FFFFFF" points="1260,513.1406,1260,513.2107,1262,513.0025,1264,513.2051,1266,513.2739,1268,512.9028,1270,513.1406,1269.9741,513.1406,1269.8578,519.2109,1269.8722,525.2813,1269.9773,531.3516,1269.7695,537.4219,1270,543.4922,1270,543.6767,1268,543.2821,1266,543.4263,1264,543.6362,1262,543.4636,1260,543.4922,1260.0227,543.4922,1259.9894,537.4219,1260.0595,531.3516,1260.0797,525.2813,1260.1952,519.2109,1260,513.1406" style="stroke:#181818;stroke-width:1.0;"/><polygon fill="#FFFFFF" points="1260,604.1953,1260,604.2654,1262,604.0572,1264,604.2597,1266,604.3285,1268,603.9575,1270,604.1953,1269.9741,604.1953,1269.8578,610.2656,1269.8722,616.3359,1269.9773,622.4063,1269.7695,628.4766,1270,634.5469,1270,634.7314,1268,634.3368,1266,634.481,1264,634.6909,1262,634.5183,1260,634.5469,1260.0227,634.5469,1259.9894,628.4766,1260.0595,622.4063,1260.0797,616.3359,1260.1952,610.2656,1260,604.1953" style="stroke:#181818;stroke-width:1.0;"/><path d="M36,86.2188 L36.2802,86.2188 L35.4476,96.1716 L36.2577,106.1245 L36.5329,116.0774 L35.0488,126.0303 L35.8964,135.9831 L35.4313,145.936 L35.4887,155.8889 L35.9091,165.8418 L35.0782,175.7946 L36.7382,185.7475 L35.1596,195.7004 L35.7363,205.6533 L36.5759,215.6062 L35.8856,225.559 L36.091,235.5119 L35.9574,245.4648 L36.238,255.4177 L36.3188,265.3705 L36.7809,275.3234 L36.8947,285.2763 L36.9057,295.2292 L36.3395,305.182 L36.6181,315.1349 L36.9363,325.0878 L35.0384,335.0407 L36.9047,344.9936 L35.6047,354.9464 L36.7117,364.8993 L35.34,374.8522 L35.9087,384.8051 L36.9888,394.7579 L35.935,404.7108 L36.1404,414.6637 L36.4515,424.6166 L36.555,434.5694 L35.9948,444.5223 L36.383,454.4752 L35.2368,464.4281 L36.3792,474.381 L36.7309,484.3338 L36.5927,494.2867 L36.8174,504.2396 L35.3559,514.1925 L35.1304,524.1453 L35.1715,534.0982 L35.9215,544.0511 L35.738,554.004 L36.9085,563.9568 L35.7671,573.9097 L35.5426,583.8626 L36.3044,593.8155 L35.1109,603.7684 L35.3078,613.7212 L36.8653,623.6741 L36.5809,633.627 L36.9793,643.5799 L35.5709,653.5327 L36.4256,663.4856 L36.7872,673.4385 L35.3701,683.3914 L35.8722,693.3442 L36.168,703.2971 L36,713.25 " fill="none" style="stroke:#181818;stroke-width:0.5;stroke-dasharray:5.0,5.0;"/><path d="M184,86.2188 L184.2802,86.2188 L183.4476,96.1716 L184.2577,106.1245 L184.5329,116.0774 L183.0488,126.0303 L183.8964,135.9831 L183.4313,145.936 L183.4887,155.8889 L183.9091,165.8418 L183.0782,175.7946 L184.7382,185.7475 L183.1596,195.7004 L183.7363,205.6533 L184.5759,215.6062 L183.8856,225.559 L184.091,235.5119 L183.9574,245.4648 L184.238,255.4177 L184.3188,265.3705 L184.7809,275.3234 L184.8947,285.2763 L184.9057,295.2292 L184.3395,305.182 L184.6181,315.1349 L184.9363,325.0878 L183.0384,335.0407 L184.9047,344.9936 L183.6047,354.9464 L184.7117,364.8993 L183.34,374.8522 L183.9087,384.8051 L184.9888,394.7579 L183.935,404.7108 L184.1404,414.6637 L184.4515,424.6166 L184.555,434.5694 L183.9948,444.5223 L184.383,454.4752 L183.2368,464.4281 L184.3792,474.381 L184.7309,484.3338 L184.5927,494.2867 L184.8174,504.2396 L183.3559,514.1925 L183.1304,524.1453 L183.1715,534.0982 L183.9215,544.0511 L183.738,554.004 L184.9085,563.9568 L183.7671,573.9097 L183.5426,583.8626 L184.3044,593.8155 L183.1109,603.7684 L183.3078,613.7212 L184.8653,623.6741 L184.5809,633.627 L184.9793,643.5799 L183.5709,653.5327 L184.4256,663.4856 L184.7872,673.4385 L183.3701,683.3914 L183.8722,693.3442 L184.168,703.2971 L184,713.25 " fill="none" style="stroke:#181818;stroke-width:0.5;stroke-dasharray:5.0,5.0;"/><path d="M369,86.2188 L369.2802,86.2188 L368.4476,96.1716 L369.2577,106.1245 L369.5329,116.0774 L368.0488,126.0303 L368.8964,135.9831 L368.4313,145.936 L368.4887,155.8889 L368.9091,165.8418 L368.0782,175.7946 L369.7382,185.7475 L368.1596,195.7004 L368.7363,205.6533 L369.5759,215.6062 L368.8856,225.559 L369.091,235.5119 L368.9574,245.4648 L369.238,255.4177 L369.3188,265.3705 L369.7809,275.3234 L369.8947,285.2763 L369.9057,295.2292 L369.3395,305.182 L369.6181,315.1349 L369.9363,325.0878 L368.0384,335.0407 L369.9047,344.9936 L368.6047,354.9464 L369.7117,364.8993 L368.34,374.8522 L368.9087,384.8051 L369.9888,394.7579 L368.935,404.7108 L369.1404,414.6637 L369.4515,424.6166 L369.555,434.5694 L368.9948,444.5223 L369.383,454.4752 L368.2368,464.4281 L369.3792,474.381 L369.7309,484.3338 L369.5927,494.2867 L369.8174,504.2396 L368.3559,514.1925 L368.1304,524.1453 L368.1715,534.0982 L368.9215,544.0511 L368.738,554.004 L369.9085,563.9568 L368.7671,573.9097 L368.5426,583.8626 L369.3044,593.8155 L368.1109,603.7684 L368.3078,613.7212 L369.8653,623.6741 L369.5809,633.627 L369.9793,643.5799 L368.5709,653.5327 L369.4256,663.4856 L369.7872,673.4385 L368.3701,683.3914 L368.8722,693.3442 L369.168,703.2971 L369,713.25 " fill="none" style="stroke:#181818;stroke-width:0.5;stroke-dasharray:5.0,5.0;"/><path d="M759.5,86.2188 L759.7802,86.2188 L758.9476,96.1716 L759.7577,106.1245 L760.0329,116.0774 L758.5488,126.0303 L759.3964,135.9831 L758.9313,145.936 L758.9887,155.8889 L759.4091,165.8418 L758.5782,175.7946 L760.2382,185.7475 L758.6596,195.7004 L759.2363,205.6533 L760.0759,215.6062 L759.3856,225.559 L759.591,235.5119 L759.4574,245.4648 L759.738,255.4177 L759.8188,265.3705 L760.2809,275.3234 L760.3947,285.2763 L760.4057,295.2292 L759.8395,305.182 L760.1181,315.1349 L760.4363,325.0878 L758.5384,335.0407 L760.4047,344.9936 L759.1047,354.9464 L760.2117,364.8993 L758.84,374.8522 L759.4087,384.8051 L760.4888,394.7579 L759.435,404.7108 L759.6404,414.6637 L759.9515,424.6166 L760.055,434.5694 L759.4948,444.5223 L759.883,454.4752 L758.7368,464.4281 L759.8792,474.381 L760.2309,484.3338 L760.0927,494.2867 L760.3174,504.2396 L758.8559,514.1925 L758.6304,524.1453 L758.6715,534.0982 L759.4215,544.0511 L759.238,554.004 L760.4085,563.9568 L759.2671,573.9097 L759.0426,583.8626 L759.8044,593.8155 L758.6109,603.7684 L758.8078,613.7212 L760.3653,623.6741 L760.0809,633.627 L760.4793,643.5799 L759.0709,653.5327 L759.9256,663.4856 L760.2872,673.4385 L758.8701,683.3914 L759.3722,693.3442 L759.668,703.2971 L759.5,713.25 " fill="none" style="stroke:#181818;stroke-width:0.5;stroke-dasharray:5.0,5.0;"/><path d="M879.5,86.2188 L879.7802,86.2188 L878.9476,96.1716 L879.7577,106.1245 L880.0329,116.0774 L878.5488,126.0303 L879.3964,135.9831 L878.9313,145.936 L878.9887,155.8889 L879.4091,165.8418 L878.5782,175.7946 L880.2382,185.7475 L878.6596,195.7004 L879.2363,205.6533 L880.0759,215.6062 L879.3856,225.559 L879.591,235.5119 L879.4574,245.4648 L879.738,255.4177 L879.8188,265.3705 L880.2809,275.3234 L880.3947,285.2763 L880.4057,295.2292 L879.8395,305.182 L880.1181,315.1349 L880.4363,325.0878 L878.5384,335.0407 L880.4047,344.9936 L879.1047,354.9464 L880.2117,364.8993 L878.84,374.8522 L879.4087,384.8051 L880.4888,394.7579 L879.435,404.7108 L879.6404,414.6637 L879.9515,424.6166 L880.055,434.5694 L879.4948,444.5223 L879.883,454.4752 L878.7368,464.4281 L879.8792,474.381 L880.2309,484.3338 L880.0927,494.2867 L880.3174,504.2396 L878.8559,514.1925 L878.6304,524.1453 L878.6715,534.0982 L879.4215,544.0511 L879.238,554.004 L880.4085,563.9568 L879.2671,573.9097 L879.0426,583.8626 L879.8044,593.8155 L878.6109,603.7684 L878.8078,613.7212 L880.3653,623.6741 L880.0809,633.627 L880.4793,643.5799 L879.0709,653.5327 L879.9256,663.4856 L880.2872,673.4385 L878.8701,683.3914 L879.3722,693.3442 L879.668,703.2971 L879.5,713.25 " fill="none" style="stroke:#181818;stroke-width:0.5;stroke-dasharray:5.0,5.0;"/><path d="M995.5,86.2188 L995.7802,86.2188 L994.9476,96.1716 L995.7577,106.1245 L996.0329,116.0774 L994.5488,126.0303 L995.3964,135.9831 L994.9313,145.936 L994.9887,155.8889 L995.4091,165.8418 L994.5782,175.7946 L996.2382,185.7475 L994.6596,195.7004 L995.2363,205.6533 L996.0759,215.6062 L995.3856,225.559 L995.591,235.5119 L995.4574,245.4648 L995.738,255.4177 L995.8188,265.3705 L996.2809,275.3234 L996.3947,285.2763 L996.4057,295.2292 L995.8395,305.182 L996.1181,315.1349 L996.4363,325.0878 L994.5384,335.0407 L996.4047,344.9936 L995.1047,354.9464 L996.2117,364.8993 L994.84,374.8522 L995.4087,384.8051 L996.4888,394.7579 L995.435,404.7108 L995.6404,414.6637 L995.9515,424.6166 L996.055,434.5694 L995.4948,444.5223 L995.883,454.4752 L994.7368,464.4281 L995.8792,474.381 L996.2309,484.3338 L996.0927,494.2867 L996.3174,504.2396 L994.8559,514.1925 L994.6304,524.1453 L994.6715,534.0982 L995.4215,544.0511 L995.238,554.004 L996.4085,563.9568 L995.2671,573.9097 L995.0426,583.8626 L995.8044,593.8155 L994.6109,603.7684 L994.8078,613.7212 L996.3653,623.6741 L996.0809,633.627 L996.4793,643.5799 L995.0709,653.5327 L995.9256,663.4856 L996.2872,673.4385 L994.8701,683.3914 L995.3722,693.3442 L995.668,703.2971 L995.5,713.25 " fill="none" style="stroke:#181818;stroke-width:0.5;stroke-dasharray:5.0,5.0;"/><path d="M1138.5,86.2188 L1138.7802,86.2188 L1137.9476,96.1716 L1138.7577,106.1245 L1139.0329,116.0774 L1137.5488,126.0303 L1138.3964,135.9831 L1137.9313,145.936 L1137.9887,155.8889 L1138.4091,165.8418 L1137.5782,175.7946 L1139.2382,185.7475 L1137.6596,195.7004 L1138.2363,205.6533 L1139.0759,215.6062 L1138.3856,225.559 L1138.591,235.5119 L1138.4574,245.4648 L1138.738,255.4177 L1138.8188,265.3705 L1139.2809,275.3234 L1139.3947,285.2763 L1139.4057,295.2292 L1138.8395,305.182 L1139.1181,315.1349 L1139.4363,325.0878 L1137.5384,335.0407 L1139.4047,344.9936 L1138.1047,354.9464 L1139.2117,364.8993 L1137.84,374.8522 L1138.4087,384.8051 L1139.4888,394.7579 L1138.435,404.7108 L1138.6404,414.6637 L1138.9515,424.6166 L1139.055,434.5694 L1138.4948,444.5223 L1138.883,454.4752 L1137.7368,464.4281 L1138.8792,474.381 L1139.2309,484.3338 L1139.0927,494.2867 L1139.3174,504.2396 L1137.8559,514.1925 L1137.6304,524.1453 L1137.6715,534.0982 L1138.4215,544.0511 L1138.238,554.004 L1139.4085,563.9568 L1138.2671,573.9097 L1138.0426,583.8626 L1138.8044,593.8155 L1137.6109,603.7684 L1137.8078,613.7212 L1139.3653,623.6741 L1139.0809,633.627 L1139.4793,643.5799 L1138.0709,653.5327 L1138.9256,663.4856 L1139.2872,673.4385 L1137.8701,683.3914 L1138.3722,693.3442 L1138.668,703.2971 L1138.5,713.25 " fill="none" style="stroke:#181818;stroke-width:0.5;stroke-dasharray:5.0,5.0;"/><path d="M1264.5,86.2188 L1264.7802,86.2188 L1263.9476,96.1716 L1264.7577,106.1245 L1265.0329,116.0774 L1263.5488,126.0303 L1264.3964,135.9831 L1263.9313,145.936 L1263.9887,155.8889 L1264.4091,165.8418 L1263.5782,175.7946 L1265.2382,185.7475 L1263.6596,195.7004 L1264.2363,205.6533 L1265.0759,215.6062 L1264.3856,225.559 L1264.591,235.5119 L1264.4574,245.4648 L1264.738,255.4177 L1264.8188,265.3705 L1265.2809,275.3234 L1265.3947,285.2763 L1265.4057,295.2292 L1264.8395,305.182 L1265.1181,315.1349 L1265.4363,325.0878 L1263.5384,335.0407 L1265.4047,344.9936 L1264.1047,354.9464 L1265.2117,364.8993 L1263.84,374.8522 L1264.4087,384.8051 L1265.4888,394.7579 L1264.435,404.7108 L1264.6404,414.6637 L1264.9515,424.6166 L1265.055,434.5694 L1264.4948,444.5223 L1264.883,454.4752 L1263.7368,464.4281 L1264.8792,474.381 L1265.2309,484.3338 L1265.0927,494.2867 L1265.3174,504.2396 L1263.8559,514.1925 L1263.6304,524.1453 L1263.6715,534.0982 L1264.4215,544.0511 L1264.238,554.004 L1265.4085,563.9568 L1264.2671,573.9097 L1264.0426,583.8626 L1264.8044,593.8155 L1263.6109,603.7684 L1263.8078,613.7212 L1265.3653,623.6741 L1265.0809,633.627 L1265.4793,643.5799 L1264.0709,653.5327 L1264.9256,663.4856 L1265.2872,673.4385 L1263.8701,683.3914 L1264.3722,693.3442 L1264.668,703.2971 L1264.5,713.25 " fill="none" style="stroke:#181818;stroke-width:0.5;stroke-dasharray:5.0,5.0;"/><text fill="#000000" font-family="FG Virgil" font-size="14" lengthAdjust="spacing" textLength="56" x="5" y="83.1426">Manager</text><polygon fill="#E3E3E3" points="44.0442,19.0553,42.8715,20.6576,41.4845,23.0044,39.5008,24.586,37.4163,25.4509,35.7542,25.526,33.618,24.4443,31.6023,23.7377,30.0724,22.303,29.2699,20.6605,28.7939,19.3527,28.3277,17.6444,27.5709,16.1744,28.1525,14.7392,28.662,13.167,30.574,11.9235,31.9192,10.3102,33.5843,9.7744,35.5637,9.313,38.1021,9.5872,39.4924,10.2429,41.1089,10.5401,43.0743,12.5537,43.7595,14.6795,44.0571,16.13,43.72,18.5202" style="stroke:#181818;stroke-width:0.5;"/><path d="M36,25.1094 L36.1868,25.1094 L35.6317,30.5094 L36.1718,35.9094 L36.3553,41.3094 L35.3659,46.7094 L36,52.1094 M23,33.1094 L23,33.0403 L28.2,32.7303 L33.4,32.7685 L38.6,33.0488 L43.8,32.4948 L49,33.1094 M36,52.1094 L36.3719,52.4317 L32.9766,54.7425 L30.6672,57.9942 L28.4901,61.3608 L25.5424,64.0594 L23,67.1094 M36,52.1094 L36.0458,52.1491 L38.5785,55.0908 L41.3199,58.2133 L43.9606,61.2486 L46.7934,64.4503 L49,67.1094 " fill="none" style="stroke:#181818;stroke-width:0.5;"/><text fill="#000000" font-family="FG Virgil" font-size="14" lengthAdjust="spacing" textLength="56" x="5" y="726.7832">Manager</text><polygon fill="#E3E3E3" points="44.0442,740.3053,42.8715,741.9076,41.4845,744.2544,39.5008,745.836,37.4163,746.7009,35.7542,746.776,33.618,745.6943,31.6023,744.9877,30.0724,743.553,29.2699,741.9105,28.7939,740.6027,28.3277,738.8944,27.5709,737.4244,28.1525,735.9892,28.662,734.417,30.574,733.1735,31.9192,731.5602,33.5843,731.0244,35.5637,730.563,38.1021,730.8372,39.4924,731.4929,41.1089,731.7901,43.0743,733.8037,43.7595,735.9295,44.0571,737.38,43.72,739.7702" style="stroke:#181818;stroke-width:0.5;"/><path d="M36,746.3594 L36.1868,746.3594 L35.6317,751.7594 L36.1718,757.1594 L36.3553,762.5594 L35.3659,767.9594 L36,773.3594 M23,754.3594 L23,754.2903 L28.2,753.9803 L33.4,754.0185 L38.6,754.2988 L43.8,753.7448 L49,754.3594 M36,773.3594 L36.3719,773.6817 L32.9766,775.9925 L30.6672,779.2442 L28.4901,782.6108 L25.5424,785.3094 L23,788.3594 M36,773.3594 L36.0458,773.3991 L38.5785,776.3408 L41.3199,779.4633 L43.9606,782.4986 L46.7934,785.7003 L49,788.3594 " fill="none" style="stroke:#181818;stroke-width:0.5;"/><polygon fill="#E3E3E3" points="117.5,36,117.5,36.2102,127.7308,35.5857,137.9615,36.1933,148.1923,36.3997,158.4231,35.2866,168.6538,35.9223,178.8846,35.5735,189.1154,35.6165,199.3462,35.9318,209.5769,35.3086,219.8077,36.5536,230.0385,35.3697,240.2692,35.8022,250.5,36,250.5551,36.133,250.8426,36.12,251.2158,36.3139,251.5566,36.4295,251.937,36.6408,252.2678,36.7322,252.3414,36.7627,252.5946,37.1605,252.7673,37.5249,252.9163,37.8795,252.932,38.1789,253,38.5,253.1545,38.5,253.2341,47.3438,252.7596,56.1875,253.2262,65.0313,252.9012,73.875,253,82.7188,253.1644,82.7868,252.7011,83.0092,252.686,83.4171,252.789,83.874,252.3992,84.1267,252.2678,84.4865,252.2812,84.5189,251.9574,84.7372,251.6138,84.9076,251.2066,84.9247,250.8902,85.1608,250.5,85.2188,250.5,84.6463,240.2692,85.5031,230.0385,85.7669,219.8077,85.6633,209.5769,85.8318,199.3462,84.7357,189.1154,84.5666,178.8846,84.5973,168.6538,85.1599,158.4231,85.0222,148.1923,85.9002,137.9615,85.0441,127.7308,84.8757,117.5,85.2188,117.5291,85.289,117.0614,84.8669,116.7267,84.766,116.5221,84.9793,116.1414,84.7671,115.7322,84.4865,115.9584,84.5802,115.4867,84.0919,115.5376,83.8201,115.4747,83.5012,115.001,83.012,115,82.7188,114.968,82.7188,115.042,73.875,115.2173,65.0313,114.9986,56.1875,115.1542,47.3438,115,38.5,114.8295,38.4294,114.9379,38.0601,115.448,37.8571,115.2186,37.3479,115.7425,37.1507,115.7322,36.7322,115.7586,36.7959,116.0516,36.5033,116.3942,36.3304,116.8514,36.4342,117.1083,36.0543,117.5,36" style="stroke:#181818;stroke-width:0.5;"/><text fill="#000000" font-family="FG Virgil" font-size="14" font-style="italic" lengthAdjust="spacing" textLength="95" x="136.5" y="57.5332">«presentation»</text><text fill="#000000" font-family="FG Virgil" font-size="14" lengthAdjust="spacing" textLength="124" x="122" y="75.1426">ChangeUserStateUI</text><polygon fill="#E3E3E3" points="117.5,712.25,117.5,712.4602,127.7308,711.8357,137.9615,712.4433,148.1923,712.6497,158.4231,711.5366,168.6538,712.1723,178.8846,711.8235,189.1154,711.8665,199.3462,712.1818,209.5769,711.5586,219.8077,712.8036,230.0385,711.6197,240.2692,712.0522,250.5,712.25,250.5551,712.383,250.8426,712.37,251.2158,712.5639,251.5566,712.6795,251.937,712.8908,252.2678,712.9822,252.3414,713.0127,252.5946,713.4105,252.7673,713.7749,252.9163,714.1295,252.932,714.4289,253,714.75,253.1545,714.75,253.2341,723.5938,252.7596,732.4375,253.2262,741.2813,252.9012,750.125,253,758.9688,253.1644,759.0368,252.7011,759.2592,252.686,759.6671,252.789,760.124,252.3992,760.3767,252.2678,760.7365,252.2812,760.7689,251.9574,760.9872,251.6138,761.1576,251.2066,761.1747,250.8902,761.4108,250.5,761.4688,250.5,760.8963,240.2692,761.7531,230.0385,762.0169,219.8077,761.9133,209.5769,762.0818,199.3462,760.9857,189.1154,760.8166,178.8846,760.8473,168.6538,761.4099,158.4231,761.2722,148.1923,762.1502,137.9615,761.2941,127.7308,761.1257,117.5,761.4688,117.5291,761.539,117.0614,761.1169,116.7267,761.016,116.5221,761.2293,116.1414,761.0171,115.7322,760.7365,115.9584,760.8302,115.4867,760.3419,115.5376,760.0701,115.4747,759.7512,115.001,759.262,115,758.9688,114.968,758.9688,115.042,750.125,115.2173,741.2813,114.9986,732.4375,115.1542,723.5938,115,714.75,114.8295,714.6794,114.9379,714.3101,115.448,714.1071,115.2186,713.5979,115.7425,713.4007,115.7322,712.9822,115.7586,713.0459,116.0516,712.7533,116.3942,712.5804,116.8514,712.6842,117.1083,712.3043,117.5,712.25" style="stroke:#181818;stroke-width:0.5;"/><text fill="#000000" font-family="FG Virgil" font-size="14" font-style="italic" lengthAdjust="spacing" textLength="95" x="136.5" y="733.7832">«presentation»</text><text fill="#000000" font-family="FG Virgil" font-size="14" lengthAdjust="spacing" textLength="124" x="122" y="751.3926">ChangeUserStateUI</text><polygon fill="#E3E3E3" points="277.5,36,277.5,36.2102,287.6667,35.5857,297.8333,36.1933,308,36.3997,318.1667,35.2866,328.3333,35.9223,338.5,35.5735,348.6667,35.6165,358.8333,35.9318,369,35.3086,379.1667,36.5536,389.3333,35.3697,399.5,35.8022,409.6667,36.4319,419.8333,35.9142,430,36.0682,440.1667,35.9681,450.3333,36.1785,460.5,36,460.5305,36.0736,460.9283,36.3268,461.2927,36.4996,461.6473,36.6485,461.9467,36.6642,462.2678,36.7322,462.4105,36.7914,462.6305,37.1754,462.3386,37.3473,462.9161,37.8794,462.7622,38.1086,463,38.5,463.1779,38.5,462.835,47.3438,462.9772,56.1875,463.2472,65.0313,462.9838,73.875,463,82.7188,463.0324,82.7322,462.9578,83.1155,462.8353,83.479,462.5595,83.7789,462.5027,84.1696,462.2678,84.4865,462.1947,84.3102,461.9505,84.7205,461.6306,84.9482,461.2638,85.0628,460.9318,85.2611,460.5,85.2188,460.5,84.7357,450.3333,84.5666,440.1667,84.5973,430,85.1599,419.8333,85.0222,409.6667,85.9002,399.5,85.0441,389.3333,84.8757,379.1667,85.447,369,84.5519,358.8333,84.6996,348.6667,85.8677,338.5,85.6544,328.3333,85.9532,318.1667,84.897,308,85.5379,297.8333,85.8092,287.6667,84.7463,277.5,85.2188,277.4878,85.1892,277.1625,85.1111,276.876,85.1266,276.4388,84.7781,276.1448,84.7754,275.7322,84.4865,275.5617,84.4159,275.3772,84.0466,275.5944,83.8437,275.0721,83.3344,275.3032,83.1372,275,82.7188,275.0689,82.7188,274.9107,73.875,274.8821,65.0313,275.1529,56.1875,274.9002,47.3438,275,38.5,275.1823,38.5755,274.9762,38.0759,275.483,37.8717,275.5885,37.5011,275.6612,37.117,275.7322,36.7322,275.7383,36.7468,276.1785,36.8096,276.5176,36.6283,276.8145,36.345,277.1807,36.229,277.5,36" style="stroke:#181818;stroke-width:0.5;"/><text fill="#000000" font-family="FG Virgil" font-size="14" font-style="italic" lengthAdjust="spacing" textLength="84" x="327" y="57.5332">«application»</text><text fill="#000000" font-family="FG Virgil" font-size="14" lengthAdjust="spacing" textLength="174" x="282" y="75.1426">ChangeUserStateController</text><polygon fill="#E3E3E3" points="277.5,712.25,277.5,712.4602,287.6667,711.8357,297.8333,712.4433,308,712.6497,318.1667,711.5366,328.3333,712.1723,338.5,711.8235,348.6667,711.8665,358.8333,712.1818,369,711.5586,379.1667,712.8036,389.3333,711.6197,399.5,712.0522,409.6667,712.6819,419.8333,712.1642,430,712.3182,440.1667,712.2181,450.3333,712.4285,460.5,712.25,460.5305,712.3236,460.9283,712.5768,461.2927,712.7496,461.6473,712.8985,461.9467,712.9142,462.2678,712.9822,462.4105,713.0414,462.6305,713.4254,462.3386,713.5973,462.9161,714.1294,462.7622,714.3586,463,714.75,463.1779,714.75,462.835,723.5938,462.9772,732.4375,463.2472,741.2813,462.9838,750.125,463,758.9688,463.0324,758.9822,462.9578,759.3655,462.8353,759.729,462.5595,760.0289,462.5027,760.4196,462.2678,760.7365,462.1947,760.5602,461.9505,760.9705,461.6306,761.1982,461.2638,761.3128,460.9318,761.5111,460.5,761.4688,460.5,760.9857,450.3333,760.8166,440.1667,760.8473,430,761.4099,419.8333,761.2722,409.6667,762.1502,399.5,761.2941,389.3333,761.1257,379.1667,761.697,369,760.8019,358.8333,760.9496,348.6667,762.1177,338.5,761.9044,328.3333,762.2032,318.1667,761.147,308,761.7879,297.8333,762.0592,287.6667,760.9963,277.5,761.4688,277.4878,761.4392,277.1625,761.3611,276.876,761.3766,276.4388,761.0281,276.1448,761.0254,275.7322,760.7365,275.5617,760.6659,275.3772,760.2966,275.5944,760.0937,275.0721,759.5844,275.3032,759.3872,275,758.9688,275.0689,758.9688,274.9107,750.125,274.8821,741.2813,275.1529,732.4375,274.9002,723.5938,275,714.75,275.1823,714.8255,274.9762,714.3259,275.483,714.1217,275.5885,713.7511,275.6612,713.367,275.7322,712.9822,275.7383,712.9968,276.1785,713.0596,276.5176,712.8783,276.8145,712.595,277.1807,712.479,277.5,712.25" style="stroke:#181818;stroke-width:0.5;"/><text fill="#000000" font-family="FG Virgil" font-size="14" font-style="italic" lengthAdjust="spacing" textLength="84" x="327" y="733.7832">«application»</text><text fill="#000000" font-family="FG Virgil" font-size="14" lengthAdjust="spacing" textLength="174" x="282" y="751.3926">ChangeUserStateController</text><polygon fill="#E3E3E3" points="691,36,691,36.2102,700.8571,35.5857,710.7143,36.1933,720.5714,36.3997,730.4286,35.2866,740.2857,35.9223,750.1429,35.5735,760,35.6165,769.8571,35.9318,779.7143,35.3086,789.5714,36.5536,799.4286,35.3697,809.2857,35.8022,819.1429,36.4319,829,36,828.9891,35.9736,829.3623,36.1675,829.703,36.2831,830.0834,36.4943,830.4447,36.6594,830.7678,36.7322,830.9481,36.8069,831.1209,37.1714,831.2698,37.526,831.2855,37.8254,831.4963,38.2056,831.5,38.5,831.7341,38.5,831.2596,47.3438,831.7262,56.1875,831.4012,65.0313,831.6779,73.875,831.5,82.7188,831.3476,82.6556,831.3325,83.0636,831.4355,83.5205,831.0457,83.7732,830.9466,84.1464,830.7678,84.4865,830.811,84.5908,830.4673,84.7611,830.0602,84.7782,829.7437,85.0143,829.2805,84.896,829,85.2188,829,85.5031,819.1429,85.7669,809.2857,85.6633,799.4286,85.8318,789.5714,84.7357,779.7143,84.5666,769.8571,84.5973,760,85.1599,750.1429,85.0222,740.2857,85.9002,730.4286,85.0441,720.5714,84.8757,710.7143,85.447,700.8571,84.5519,691,85.2188,690.9338,85.0589,690.7292,85.2722,690.3485,85.06,690.033,85.0056,689.5447,84.5339,689.2322,84.4865,689.3305,84.5272,689.2676,84.2083,688.7939,83.7191,688.7634,83.4136,688.6852,83.0884,688.5,82.7188,688.7173,82.7188,688.4986,73.875,688.6542,65.0313,688.3154,56.1875,688.2742,47.3438,688.5,38.5,688.6551,38.5642,688.4257,38.055,688.9496,37.8578,689.003,37.4657,689.0033,37.0516,689.2322,36.7322,689.1871,36.6233,689.6443,36.7271,689.9012,36.3472,690.3684,36.4752,690.5759,35.9762,691,36" style="stroke:#181818;stroke-width:0.5;"/><text fill="#000000" font-family="FG Virgil" font-size="14" font-style="italic" lengthAdjust="spacing" textLength="60" x="730" y="57.5332">«service»</text><text fill="#000000" font-family="FG Virgil" font-size="14" lengthAdjust="spacing" textLength="129" x="695.5" y="75.1426">AuthorizationService</text><polygon fill="#E3E3E3" points="691,712.25,691,712.4602,700.8571,711.8357,710.7143,712.4433,720.5714,712.6497,730.4286,711.5366,740.2857,712.1723,750.1429,711.8235,760,711.8665,769.8571,712.1818,779.7143,711.5586,789.5714,712.8036,799.4286,711.6197,809.2857,712.0522,819.1429,712.6819,829,712.25,828.9891,712.2236,829.3623,712.4175,829.703,712.5331,830.0834,712.7443,830.4447,712.9094,830.7678,712.9822,830.9481,713.0569,831.1209,713.4214,831.2698,713.776,831.2855,714.0754,831.4963,714.4556,831.5,714.75,831.7341,714.75,831.2596,723.5938,831.7262,732.4375,831.4012,741.2813,831.6779,750.125,831.5,758.9688,831.3476,758.9056,831.3325,759.3136,831.4355,759.7705,831.0457,760.0232,830.9466,760.3964,830.7678,760.7365,830.811,760.8408,830.4673,761.0111,830.0602,761.0282,829.7437,761.2643,829.2805,761.146,829,761.4688,829,761.7531,819.1429,762.0169,809.2857,761.9133,799.4286,762.0818,789.5714,760.9857,779.7143,760.8166,769.8571,760.8473,760,761.4099,750.1429,761.2722,740.2857,762.1502,730.4286,761.2941,720.5714,761.1257,710.7143,761.697,700.8571,760.8019,691,761.4688,690.9338,761.3089,690.7292,761.5222,690.3485,761.31,690.033,761.2556,689.5447,760.7839,689.2322,760.7365,689.3305,760.7772,689.2676,760.4583,688.7939,759.9691,688.7634,759.6636,688.6852,759.3384,688.5,758.9688,688.7173,758.9688,688.4986,750.125,688.6542,741.2813,688.3154,732.4375,688.2742,723.5938,688.5,714.75,688.6551,714.8142,688.4257,714.305,688.9496,714.1078,689.003,713.7157,689.0033,713.3016,689.2322,712.9822,689.1871,712.8733,689.6443,712.9771,689.9012,712.5972,690.3684,712.7252,690.5759,712.2262,691,712.25" style="stroke:#181818;stroke-width:0.5;"/><text fill="#000000" font-family="FG Virgil" font-size="14" font-style="italic" lengthAdjust="spacing" textLength="60" x="730" y="733.7832">«service»</text><text fill="#000000" font-family="FG Virgil" font-size="14" lengthAdjust="spacing" textLength="129" x="695.5" y="751.3926">AuthorizationService</text><polygon fill="#E3E3E3" points="844,36,844,36.2102,854.1429,35.5857,864.2857,36.1933,874.4286,36.3997,884.5714,35.2866,894.7143,35.9223,904.8571,35.5735,915,36,914.9511,35.8819,915.3449,36.1255,915.6189,36.08,916.1313,36.6098,916.3338,36.3917,916.7678,36.7322,916.7069,36.707,917.0472,37.1409,917.0342,37.4284,917.2281,37.8016,917.3437,38.1424,917.5,38.5,917.5595,38.5,917.5797,47.3438,917.6952,56.1875,917.7237,65.0313,917.7264,73.875,917.5,82.7188,917.5784,82.7512,917.4963,83.1314,917.4234,83.5154,916.8386,83.6874,917.1232,84.2195,916.7678,84.4865,916.7299,84.3952,916.4823,84.7974,915.9975,84.627,915.6984,84.9048,915.4482,85.3007,915,85.2188,915,85.17,904.8571,85.3241,894.7143,85.5574,884.5714,85.635,874.4286,85.2148,864.2857,85.506,854.1429,84.6463,844,85.2188,844.0363,85.3063,843.7164,85.2411,843.3496,85.0628,843.0175,84.9682,842.5242,84.4842,842.2322,84.4865,842.0314,84.4033,841.8944,84.0537,841.9212,83.7719,841.7324,83.4008,841.8563,83.1592,841.5,82.7188,841.4418,82.7188,841.3856,73.875,841.5761,65.0313,841.2777,56.1875,841.327,47.3438,841.5,38.5,841.6999,38.5828,841.7806,38.202,842.0191,37.8866,841.8402,37.3983,842.1841,37.1265,842.2322,36.7322,842.3075,36.9141,842.5255,36.4403,842.9271,36.4098,843.309,36.3317,843.7296,36.3472,844,36" style="stroke:#181818;stroke-width:0.5;"/><text fill="#000000" font-family="FG Virgil" font-size="14" font-style="italic" lengthAdjust="spacing" textLength="62" x="848.5" y="57.5332">«domain»</text><text fill="#000000" font-family="FG Virgil" font-size="14" lengthAdjust="spacing" textLength="61" x="849" y="75.1426">user:User</text><polygon fill="#E3E3E3" points="844,712.25,844,712.4602,854.1429,711.8357,864.2857,712.4433,874.4286,712.6497,884.5714,711.5366,894.7143,712.1723,904.8571,711.8235,915,712.25,914.9511,712.1319,915.3449,712.3755,915.6189,712.33,916.1313,712.8598,916.3338,712.6417,916.7678,712.9822,916.7069,712.957,917.0472,713.3909,917.0342,713.6784,917.2281,714.0516,917.3437,714.3924,917.5,714.75,917.5595,714.75,917.5797,723.5938,917.6952,732.4375,917.7237,741.2813,917.7264,750.125,917.5,758.9688,917.5784,759.0012,917.4963,759.3814,917.4234,759.7654,916.8386,759.9374,917.1232,760.4695,916.7678,760.7365,916.7299,760.6452,916.4823,761.0474,915.9975,760.877,915.6984,761.1548,915.4482,761.5507,915,761.4688,915,761.42,904.8571,761.5741,894.7143,761.8074,884.5714,761.885,874.4286,761.4648,864.2857,761.756,854.1429,760.8963,844,761.4688,844.0363,761.5563,843.7164,761.4911,843.3496,761.3128,843.0175,761.2182,842.5242,760.7342,842.2322,760.7365,842.0314,760.6533,841.8944,760.3037,841.9212,760.0219,841.7324,759.6508,841.8563,759.4092,841.5,758.9688,841.4418,758.9688,841.3856,750.125,841.5761,741.2813,841.2777,732.4375,841.327,723.5938,841.5,714.75,841.6999,714.8328,841.7806,714.452,842.0191,714.1366,841.8402,713.6483,842.1841,713.3765,842.2322,712.9822,842.3075,713.1641,842.5255,712.6903,842.9271,712.6598,843.309,712.5817,843.7296,712.5972,844,712.25" style="stroke:#181818;stroke-width:0.5;"/><text fill="#000000" font-family="FG Virgil" font-size="14" font-style="italic" lengthAdjust="spacing" textLength="62" x="848.5" y="733.7832">«domain»</text><text fill="#000000" font-family="FG Virgil" font-size="14" lengthAdjust="spacing" textLength="61" x="849" y="751.3926">user:User</text><polygon fill="#E3E3E3" points="930,36,930,36.2102,940.0769,35.5857,950.1538,36.1933,960.2308,36.3997,970.3077,35.2866,980.3846,35.9223,990.4615,35.5735,1000.5385,35.6165,1010.6154,35.9318,1020.6923,35.3086,1030.7692,36.5536,1040.8462,35.3697,1050.9231,35.8022,1061,36,1061.0551,36.133,1061.3426,36.12,1061.7158,36.3139,1062.0566,36.4295,1062.437,36.6408,1062.7678,36.7322,1062.8414,36.7627,1063.0946,37.1605,1063.2673,37.5249,1063.4163,37.8795,1063.432,38.1789,1063.5,38.5,1063.6545,38.5,1063.7341,47.3438,1063.2596,56.1875,1063.7262,65.0313,1063.4012,73.875,1063.5,82.7188,1063.6644,82.7868,1063.2011,83.0092,1063.186,83.4171,1063.289,83.874,1062.8992,84.1267,1062.7678,84.4865,1062.7812,84.5189,1062.4574,84.7372,1062.1138,84.9076,1061.7066,84.9247,1061.3902,85.1608,1061,85.2188,1061,84.6463,1050.9231,85.5031,1040.8462,85.7669,1030.7692,85.6633,1020.6923,85.8318,1010.6154,84.7357,1000.5385,84.5666,990.4615,84.5973,980.3846,85.1599,970.3077,85.0222,960.2308,85.9002,950.1538,85.0441,940.0769,84.8757,930,85.2188,930.0291,85.289,929.5614,84.8669,929.2267,84.766,929.0221,84.9793,928.6414,84.7671,928.2322,84.4865,928.4584,84.5802,927.9867,84.0919,928.0376,83.8201,927.9747,83.5012,927.501,83.012,927.5,82.7188,927.468,82.7188,927.542,73.875,927.7173,65.0313,927.4986,56.1875,927.6542,47.3438,927.5,38.5,927.3295,38.4294,927.4379,38.0601,927.948,37.8571,927.7186,37.3479,928.2425,37.1507,928.2322,36.7322,928.2586,36.7959,928.5516,36.5033,928.8942,36.3304,929.3514,36.4342,929.6083,36.0543,930,36" style="stroke:#181818;stroke-width:0.5;"/><text fill="#000000" font-family="FG Virgil" font-size="14" font-style="italic" lengthAdjust="spacing" textLength="89" x="951" y="57.5332">«persistence»</text><text fill="#000000" font-family="FG Virgil" font-size="14" lengthAdjust="spacing" textLength="122" x="934.5" y="75.1426">PersistenceContext</text><polygon fill="#E3E3E3" points="930,712.25,930,712.4602,940.0769,711.8357,950.1538,712.4433,960.2308,712.6497,970.3077,711.5366,980.3846,712.1723,990.4615,711.8235,1000.5385,711.8665,1010.6154,712.1818,1020.6923,711.5586,1030.7692,712.8036,1040.8462,711.6197,1050.9231,712.0522,1061,712.25,1061.0551,712.383,1061.3426,712.37,1061.7158,712.5639,1062.0566,712.6795,1062.437,712.8908,1062.7678,712.9822,1062.8414,713.0127,1063.0946,713.4105,1063.2673,713.7749,1063.4163,714.1295,1063.432,714.4289,1063.5,714.75,1063.6545,714.75,1063.7341,723.5938,1063.2596,732.4375,1063.7262,741.2813,1063.4012,750.125,1063.5,758.9688,1063.6644,759.0368,1063.2011,759.2592,1063.186,759.6671,1063.289,760.124,1062.8992,760.3767,1062.7678,760.7365,1062.7812,760.7689,1062.4574,760.9872,1062.1138,761.1576,1061.7066,761.1747,1061.3902,761.4108,1061,761.4688,1061,760.8963,1050.9231,761.7531,1040.8462,762.0169,1030.7692,761.9133,1020.6923,762.0818,1010.6154,760.9857,1000.5385,760.8166,990.4615,760.8473,980.3846,761.4099,970.3077,761.2722,960.2308,762.1502,950.1538,761.2941,940.0769,761.1257,930,761.4688,930.0291,761.539,929.5614,761.1169,929.2267,761.016,929.0221,761.2293,928.6414,761.0171,928.2322,760.7365,928.4584,760.8302,927.9867,760.3419,928.0376,760.0701,927.9747,759.7512,927.501,759.262,927.5,758.9688,927.468,758.9688,927.542,750.125,927.7173,741.2813,927.4986,732.4375,927.6542,723.5938,927.5,714.75,927.3295,714.6794,927.4379,714.3101,927.948,714.1071,927.7186,713.5979,928.2425,713.4007,928.2322,712.9822,928.2586,713.0459,928.5516,712.7533,928.8942,712.5804,929.3514,712.6842,929.6083,712.3043,930,712.25" style="stroke:#181818;stroke-width:0.5;"/><text fill="#000000" font-family="FG Virgil" font-size="14" font-style="italic" lengthAdjust="spacing" textLength="89" x="951" y="733.7832">«persistence»</text><text fill="#000000" font-family="FG Virgil" font-size="14" lengthAdjust="spacing" textLength="122" x="934.5" y="751.3926">PersistenceContext</text><polygon fill="#E3E3E3" points="1076,36,1076,36.2102,1085.6154,35.5857,1095.2308,36.1933,1104.8462,36.3997,1114.4615,35.2866,1124.0769,35.9223,1133.6923,35.5735,1143.3077,35.6165,1152.9231,35.9318,1162.5385,35.3086,1172.1538,36.5536,1181.7692,35.3697,1191.3846,35.8022,1201,36,1201.0551,36.133,1201.3426,36.12,1201.7158,36.3139,1202.0566,36.4295,1202.437,36.6408,1202.7678,36.7322,1202.8414,36.7627,1203.0946,37.1605,1203.2673,37.5249,1203.4163,37.8795,1203.432,38.1789,1203.5,38.5,1203.6545,38.5,1203.7341,47.3438,1203.2596,56.1875,1203.7262,65.0313,1203.4012,73.875,1203.5,82.7188,1203.6644,82.7868,1203.2011,83.0092,1203.186,83.4171,1203.289,83.874,1202.8992,84.1267,1202.7678,84.4865,1202.7812,84.5189,1202.4574,84.7372,1202.1138,84.9076,1201.7066,84.9247,1201.3902,85.1608,1201,85.2188,1201,84.6463,1191.3846,85.5031,1181.7692,85.7669,1172.1538,85.6633,1162.5385,85.8318,1152.9231,84.7357,1143.3077,84.5666,1133.6923,84.5973,1124.0769,85.1599,1114.4615,85.0222,1104.8462,85.9002,1095.2308,85.0441,1085.6154,84.8757,1076,85.2188,1076.0291,85.289,1075.5614,84.8669,1075.2267,84.766,1075.0221,84.9793,1074.6414,84.7671,1074.2322,84.4865,1074.4584,84.5802,1073.9867,84.0919,1074.0376,83.8201,1073.9747,83.5012,1073.501,83.012,1073.5,82.7188,1073.468,82.7188,1073.542,73.875,1073.7173,65.0313,1073.4986,56.1875,1073.6542,47.3438,1073.5,38.5,1073.3295,38.4294,1073.4379,38.0601,1073.948,37.8571,1073.7186,37.3479,1074.2425,37.1507,1074.2322,36.7322,1074.2586,36.7959,1074.5516,36.5033,1074.8942,36.3304,1075.3514,36.4342,1075.6083,36.0543,1076,36" style="stroke:#181818;stroke-width:0.5;"/><text fill="#000000" font-family="FG Virgil" font-size="14" font-style="italic" lengthAdjust="spacing" textLength="59" x="1109" y="57.5332">«factory»</text><text fill="#000000" font-family="FG Virgil" font-size="14" lengthAdjust="spacing" textLength="116" x="1080.5" y="75.1426">RepositoryFactory</text><polygon fill="#E3E3E3" points="1076,712.25,1076,712.4602,1085.6154,711.8357,1095.2308,712.4433,1104.8462,712.6497,1114.4615,711.5366,1124.0769,712.1723,1133.6923,711.8235,1143.3077,711.8665,1152.9231,712.1818,1162.5385,711.5586,1172.1538,712.8036,1181.7692,711.6197,1191.3846,712.0522,1201,712.25,1201.0551,712.383,1201.3426,712.37,1201.7158,712.5639,1202.0566,712.6795,1202.437,712.8908,1202.7678,712.9822,1202.8414,713.0127,1203.0946,713.4105,1203.2673,713.7749,1203.4163,714.1295,1203.432,714.4289,1203.5,714.75,1203.6545,714.75,1203.7341,723.5938,1203.2596,732.4375,1203.7262,741.2813,1203.4012,750.125,1203.5,758.9688,1203.6644,759.0368,1203.2011,759.2592,1203.186,759.6671,1203.289,760.124,1202.8992,760.3767,1202.7678,760.7365,1202.7812,760.7689,1202.4574,760.9872,1202.1138,761.1576,1201.7066,761.1747,1201.3902,761.4108,1201,761.4688,1201,760.8963,1191.3846,761.7531,1181.7692,762.0169,1172.1538,761.9133,1162.5385,762.0818,1152.9231,760.9857,1143.3077,760.8166,1133.6923,760.8473,1124.0769,761.4099,1114.4615,761.2722,1104.8462,762.1502,1095.2308,761.2941,1085.6154,761.1257,1076,761.4688,1076.0291,761.539,1075.5614,761.1169,1075.2267,761.016,1075.0221,761.2293,1074.6414,761.0171,1074.2322,760.7365,1074.4584,760.8302,1073.9867,760.3419,1074.0376,760.0701,1073.9747,759.7512,1073.501,759.262,1073.5,758.9688,1073.468,758.9688,1073.542,750.125,1073.7173,741.2813,1073.4986,732.4375,1073.6542,723.5938,1073.5,714.75,1073.3295,714.6794,1073.4379,714.3101,1073.948,714.1071,1073.7186,713.5979,1074.2425,713.4007,1074.2322,712.9822,1074.2586,713.0459,1074.5516,712.7533,1074.8942,712.5804,1075.3514,712.6842,1075.6083,712.3043,1076,712.25" style="stroke:#181818;stroke-width:0.5;"/><text fill="#000000" font-family="FG Virgil" font-size="14" font-style="italic" lengthAdjust="spacing" textLength="59" x="1109" y="733.7832">«factory»</text><text fill="#000000" font-family="FG Virgil" font-size="14" lengthAdjust="spacing" textLength="116" x="1080.5" y="751.3926">RepositoryFactory</text><text fill="#000000" font-family="FG Virgil" font-size="14" font-style="italic" lengthAdjust="spacing" textLength="79" x="1222.5" y="65.5332">«repository»</text><text fill="#000000" font-family="FG Virgil" font-size="14" lengthAdjust="spacing" textLength="97" x="1213.5" y="83.1426">UserRepository</text><path d="M1247,15 L1247,15 L1247.0651,15.067 L1248.6716,13.118 L1250.6599,11.5616 L1252.5238,9.8774 L1253.979,7.7727 L1256,6.25 L1255.9952,6.2158 L1257.7739,5.8122 L1259.5766,5.5812 L1261.3958,5.47 L1263.1577,4.9456 L1265,5 L1265,5 L1265.0339,5.2437 L1266.7615,4.9725 L1268.5879,5.4129 L1270.4264,5.9402 L1272.1948,5.9622 L1274,6.25 L1274.0211,6.2717 L1275.7901,7.9898 L1277.6553,9.8069 L1279.4741,11.5762 L1281.3815,13.4366 L1283,15 L1283.5965,15 L1283.6038,20.2 L1283.2263,25.4 L1283.4121,30.6 L1283.6242,35.8 L1283,41 L1283,41 L1282.7766,40.7702 L1281.4102,42.9662 L1279.3081,44.4055 L1277.7654,46.4201 L1275.6466,47.8423 L1274,49.75 L1273.9958,49.7198 L1272.2453,50.3265 L1270.397,50.2285 L1268.6064,50.5464 L1266.8207,50.8991 L1265,51 L1265,51 L1265.0254,51.1832 L1263.1998,50.7483 L1261.4176,50.6264 L1259.565,49.998 L1257.8174,50.1252 L1256,49.75 L1256.1698,49.9247 L1254.3377,48.1417 L1252.5899,46.4453 L1250.4503,44.3461 L1248.5979,42.5422 L1247,41 L1246.4476,41 L1246.9477,35.8 L1246.8253,30.6 L1247.6057,25.4 L1246.8447,20.2 L1247,15 " fill="#E3E3E3" style="stroke:#181818;stroke-width:1.5;"/><path d="M1247,15 L1247,15 L1247.0651,15.067 L1248.6716,16.618 L1250.6599,18.5616 L1252.5238,20.3774 L1253.979,21.7727 L1256,23.75 L1255.9952,23.7158 L1257.7739,23.8122 L1259.5766,24.0812 L1261.3958,24.47 L1263.1577,24.4456 L1265,25 L1265,25 L1265.0339,25.2437 L1266.7615,24.4725 L1268.5879,24.4129 L1270.4264,24.4402 L1272.1948,23.9622 L1274,23.75 L1274.0211,23.7717 L1275.7901,21.9898 L1277.6553,20.3069 L1279.4741,18.5762 L1281.3815,16.9366 L1283,15 " fill="none" style="stroke:#181818;stroke-width:1.5;"/><text fill="#000000" font-family="FG Virgil" font-size="14" font-style="italic" lengthAdjust="spacing" textLength="79" x="1222.5" y="726.7832">«repository»</text><text fill="#000000" font-family="FG Virgil" font-size="14" lengthAdjust="spacing" textLength="97" x="1213.5" y="744.3926">UserRepository</text><path d="M1247,757.4688 L1247,757.4688 L1247.0651,757.5357 L1248.6716,755.5867 L1250.6599,754.0303 L1252.5238,752.3461 L1253.979,750.2414 L1256,748.7188 L1255.9952,748.6845 L1257.7739,748.281 L1259.5766,748.0499 L1261.3958,747.9387 L1263.1577,747.4144 L1265,747.4688 L1265,747.4688 L1265.0339,747.7125 L1266.7615,747.4413 L1268.5879,747.8817 L1270.4264,748.4089 L1272.1948,748.431 L1274,748.7188 L1274.0211,748.7405 L1275.7901,750.4586 L1277.6553,752.2756 L1279.4741,754.045 L1281.3815,755.9054 L1283,757.4688 L1283.5965,757.4688 L1283.6038,762.6688 L1283.2263,767.8688 L1283.4121,773.0688 L1283.6242,778.2688 L1283,783.4688 L1283,783.4688 L1282.7766,783.2389 L1281.4102,785.435 L1279.3081,786.8743 L1277.7654,788.8889 L1275.6466,790.311 L1274,792.2188 L1273.9958,792.1886 L1272.2453,792.7952 L1270.397,792.6973 L1268.6064,793.0151 L1266.8207,793.3678 L1265,793.4688 L1265,793.4688 L1265.0254,793.652 L1263.1998,793.217 L1261.4176,793.0952 L1259.565,792.4668 L1257.8174,792.5939 L1256,792.2188 L1256.1698,792.3934 L1254.3377,790.6104 L1252.5899,788.9141 L1250.4503,786.8148 L1248.5979,785.0109 L1247,783.4688 L1246.4476,783.4688 L1246.9477,778.2688 L1246.8253,773.0688 L1247.6057,767.8688 L1246.8447,762.6688 L1247,757.4688 " fill="#E3E3E3" style="stroke:#181818;stroke-width:1.5;"/><path d="M1247,757.4688 L1247,757.4688 L1247.0651,757.5357 L1248.6716,759.0867 L1250.6599,761.0303 L1252.5238,762.8461 L1253.979,764.2414 L1256,766.2188 L1255.9952,766.1845 L1257.7739,766.281 L1259.5766,766.5499 L1261.3958,766.9387 L1263.1577,766.9144 L1265,767.4688 L1265,767.4688 L1265.0339,767.7125 L1266.7615,766.9413 L1268.5879,766.8817 L1270.4264,766.9089 L1272.1948,766.431 L1274,766.2188 L1274.0211,766.2405 L1275.7901,764.4586 L1277.6553,762.7756 L1279.4741,761.045 L1281.3815,759.4054 L1283,757.4688 " fill="none" style="stroke:#181818;stroke-width:1.5;"/><polygon fill="#FFFFFF" points="179,118.5703,179,118.6404,181,118.4322,183,118.6347,185,118.7035,187,118.3325,189,118.5703,188.9223,118.5703,188.5735,128.5131,188.6165,138.4558,188.9318,148.3986,188.3086,158.3413,189.5536,168.2841,188.3697,178.2268,188.8022,188.1696,189.4319,198.1123,188.9142,208.0551,189.0682,217.9978,188.9681,227.9406,189.1785,237.8834,189.2391,247.8261,189.5857,257.7689,189.6711,267.7116,189.6793,277.6544,189.2546,287.5971,189.4636,297.5399,189.7022,307.4826,188.2788,317.4254,189.6785,327.3681,188.7035,337.3109,189.5338,347.2536,188.505,357.1964,188.9315,367.1391,189.7416,377.0819,188.9513,387.0246,189.1053,396.9674,189.3386,406.9102,189.4162,416.8529,188.9961,426.7957,189.2872,436.7384,188.4276,446.6812,189.2844,456.6239,189.5482,466.5667,189.4445,476.5094,189.613,486.4522,188.5169,496.3949,188.3478,506.3377,188.3786,516.2804,188.9411,526.2232,188.8035,536.1659,189.6814,546.1087,188.8253,556.0515,188.6569,565.9942,189.2283,575.937,188.3332,585.8797,188.4809,595.8225,189.649,605.7652,189.4357,615.708,189.7345,625.6507,188.6782,635.5935,189.3192,645.5362,189.5904,655.479,188.5276,665.4217,188.9041,675.3645,189.126,685.3072,189,695.25,189,695.4673,187,695.2486,185,695.4042,183,695.0654,181,695.0242,179,695.25,179.5036,695.25,178.2831,685.3072,179.509,675.3645,179.2066,665.4217,178.7321,655.479,178.6462,645.5362,179.4588,635.5935,178.7007,625.6507,179.5919,615.708,178.4473,605.7652,179.6174,595.8225,179.4843,585.8797,179.245,575.937,179.0472,565.9942,179.7266,556.0515,179.6136,546.1087,179.1693,536.1659,179.2682,526.2232,178.8697,516.2804,179.7165,506.3377,179.1549,496.3949,179.1726,486.4522,178.3916,476.5094,178.5948,466.5667,179.5307,456.6239,179.4298,446.6812,178.9571,436.7384,178.6778,426.7957,178.7811,416.8529,178.3138,406.9102,179.4147,396.9674,179.7396,387.0246,179.5264,377.0819,179.6949,367.1391,178.8633,357.1964,179.0872,347.2536,178.6124,337.3109,179.284,327.3681,179.2468,317.4254,179.5524,307.4826,178.7703,297.5399,178.8656,287.5971,179.4435,277.6544,179.5673,267.7116,178.4875,257.7689,178.8061,247.8261,179.1493,237.8834,178.3892,227.9406,179.3534,217.9978,179.258,208.0551,178.8992,198.1123,179.1422,188.1696,179.7287,178.2268,178.6871,168.2841,179.315,158.3413,179.2856,148.3986,179.1158,138.4558,179.1409,128.5131,179,118.5703" style="stroke:#181818;stroke-width:1.0;"/><polygon fill="#FFFFFF" points="364,239.9766,364,240.0466,366,239.8385,368,240.041,370,240.1098,372,239.7388,374,239.9766,373.9223,239.9766,373.5735,250.0938,373.6165,260.2109,373.9318,270.3281,373.3086,280.4453,374.5536,290.5625,373.3697,300.6797,373.8022,310.7969,374.4319,320.9141,373.9142,331.0313,374.0682,341.1484,373.9681,351.2656,374.1785,361.3828,374.2391,371.5,374.5857,381.6172,374.6711,391.7344,374.6793,401.8516,374.2546,411.9688,374.4636,422.0859,374.7022,432.2031,373.2788,442.3203,374.6785,452.4375,373.7035,462.5547,374.5338,472.6719,373.505,482.7891,373.9315,492.9063,374.7416,503.0234,373.9513,513.1406,374.1053,523.2578,374.3386,533.375,374.4162,543.4922,373.9961,553.6094,374.2872,563.7266,373.4276,573.8438,374.2844,583.9609,374.5482,594.0781,374.4445,604.1953,374.613,614.3125,373.5169,624.4297,373.3478,634.5469,373.3786,644.6641,373.9411,654.7813,374,664.8984,374,664.8329,372,665.1256,370,664.8402,368,664.7841,366,664.9745,364,664.8984,363.3332,664.8984,363.4809,654.7813,364.649,644.6641,364.4357,634.5469,364.7345,624.4297,363.6782,614.3125,364.3192,604.1953,364.5904,594.0781,363.5276,583.9609,363.9041,573.8438,364.126,563.7266,364.6518,553.6094,363.9958,543.4922,364.4626,533.375,363.4462,523.2578,363.3227,513.1406,364.5036,503.0234,363.2831,492.9063,364.509,482.7891,364.2066,472.6719,363.7321,462.5547,363.6462,452.4375,364.4588,442.3203,363.7007,432.2031,364.5919,422.0859,363.4473,411.9688,364.6174,401.8516,364.4843,391.7344,364.245,381.6172,364.0472,371.5,364.7266,361.3828,364.6136,351.2656,364.1693,341.1484,364.2682,331.0313,363.8697,320.9141,364.7165,310.7969,364.1549,300.6797,364.1726,290.5625,363.3916,280.4453,363.5948,270.3281,364.5307,260.2109,364.4298,250.0938,364,239.9766" style="stroke:#181818;stroke-width:1.0;"/><polygon fill="#FFFFFF" points="755,452.4375,755,452.5076,757,452.2994,759,452.5019,761,452.5707,763,452.1997,765,452.4375,764.9741,452.4375,764.8578,458.5078,764.8722,464.5781,764.9773,470.6484,764.7695,476.7188,765,482.7891,765,482.9736,763,482.579,761,482.7231,759,482.933,757,482.7605,755,482.7891,755.0227,482.7891,754.9894,476.7188,755.0595,470.6484,755.0797,464.5781,755.1952,458.5078,755,452.4375" style="stroke:#181818;stroke-width:1.0;"/><polygon fill="#FFFFFF" points="990.5,270.3281,990.5,270.3982,992.5,270.19,994.5,270.3926,996.5,270.4614,998.5,270.0903,1000.5,270.3281,1000.4223,270.3281,1000.0735,280.4453,1000.1165,290.5625,1000.4318,300.6797,999.8086,310.7969,1001.0536,320.9141,1000.5,331.0313,1000.5,330.8212,998.5,330.9653,996.5,331.1752,994.5,331.0027,992.5,331.054,990.5,331.0313,990.4681,331.0313,990.6785,320.9141,990.7391,310.7969,991.0857,300.6797,991.1711,290.5625,991.1793,280.4453,990.5,270.3281" style="stroke:#181818;stroke-width:1.0;"/><polygon fill="#FFFFFF" points="1133.5,361.3828,1133.5,361.4529,1135.5,361.2447,1137.5,361.4472,1139.5,361.516,1141.5,361.145,1143.5,361.3828,1143.4223,361.3828,1143.0735,371.5,1143.1165,381.6172,1143.4318,391.7344,1142.8086,401.8516,1144.0536,411.9688,1143.5,422.0859,1143.5,421.8758,1141.5,422.02,1139.5,422.2299,1137.5,422.0573,1135.5,422.1087,1133.5,422.0859,1133.4681,422.0859,1133.6785,411.9688,1133.7391,401.8516,1134.0857,391.7344,1134.1711,381.6172,1134.1793,371.5,1133.5,361.3828" style="stroke:#181818;stroke-width:1.0;"/><polygon fill="#FFFFFF" points="1260,513.1406,1260,513.2107,1262,513.0025,1264,513.2051,1266,513.2739,1268,512.9028,1270,513.1406,1269.9741,513.1406,1269.8578,519.2109,1269.8722,525.2813,1269.9773,531.3516,1269.7695,537.4219,1270,543.4922,1270,543.6767,1268,543.2821,1266,543.4263,1264,543.6362,1262,543.4636,1260,543.4922,1260.0227,543.4922,1259.9894,537.4219,1260.0595,531.3516,1260.0797,525.2813,1260.1952,519.2109,1260,513.1406" style="stroke:#181818;stroke-width:1.0;"/><polygon fill="#FFFFFF" points="1260,604.1953,1260,604.2654,1262,604.0572,1264,604.2597,1266,604.3285,1268,603.9575,1270,604.1953,1269.9741,604.1953,1269.8578,610.2656,1269.8722,616.3359,1269.9773,622.4063,1269.7695,628.4766,1270,634.5469,1270,634.7314,1268,634.3368,1266,634.481,1264,634.6909,1262,634.5183,1260,634.5469,1260.0227,634.5469,1259.9894,628.4766,1260.0595,622.4063,1260.0797,616.3359,1260.1952,610.2656,1260,604.1953" style="stroke:#181818;stroke-width:1.0;"/><polygon fill="#181818" points="167,114.5703,167.026,114.6354,168.9487,115.2421,171.0239,116.2301,173.0495,117.094,174.9117,117.5495,177,118.5703,176.9904,118.5463,174.9472,119.2383,172.9525,120.0516,170.9916,120.9492,168.9144,121.5563,167,122.5703,167.1305,122.7008,167.6514,121.6218,168.5534,120.9237,169.5018,120.2721,170.1798,119.3501,171,118.5703,171.0161,118.5864,170.1925,117.7628,169.4421,117.0124,168.6564,116.2267,167.938,115.5084,167,114.5703" style="stroke:#181818;stroke-width:1.0;"/><path d="M36,118.5703 L36,118.8506 L45.7857,118.0179 L55.5714,118.828 L65.3571,119.1032 L75.1429,117.6191 L84.9286,118.4667 L94.7143,118.0017 L104.5,118.059 L114.2857,118.4794 L124.0714,117.6485 L133.8571,119.3085 L143.6429,117.7299 L153.4286,118.3066 L163.2143,119.1462 L173,118.5703 " fill="none" style="stroke:#181818;stroke-width:1.0;stroke-dasharray:2.0,2.0;"/><text fill="#000000" font-family="FG Virgil" font-size="13" lengthAdjust="spacing" textLength="74" x="43" y="113.7139">Disable User</text><polygon fill="#181818" points="357,144.9219,357.026,144.9869,358.9487,145.5936,361.0239,146.5817,363.0495,147.4456,364.9117,147.9011,367,148.9219,366.9904,148.8978,364.9472,149.5899,362.9525,150.4032,360.9916,151.3008,358.9144,151.9079,357,152.9219,357.1305,153.0524,357.6514,151.9733,358.5534,151.2753,359.5018,150.6237,360.1798,149.7017,361,148.9219,361.0161,148.938,360.1925,148.1143,359.4421,147.364,358.6564,146.5782,357.938,145.8599,357,144.9219" style="stroke:#181818;stroke-width:1.0;"/><path d="M189,148.9219 L189,149.2021 L199.2353,148.3694 L209.4706,149.1796 L219.7059,149.4548 L229.9412,147.9707 L240.1765,148.8183 L250.4118,148.3532 L260.6471,148.4105 L270.8824,148.831 L281.1176,148 L291.3529,149.6601 L301.5882,148.0815 L311.8235,148.6582 L322.0588,149.4978 L332.2941,148.8075 L342.5294,149.0129 L352.7647,148.8793 L363,148.9219 " fill="none" style="stroke:#181818;stroke-width:1.0;"/><text fill="#000000" font-family="FG Virgil" font-size="13" lengthAdjust="spacing" textLength="44" x="196" y="144.0654">create()</text><polygon fill="#181818" points="47,175.2734,47.026,175.3385,44.9487,175.9452,43.0239,176.9333,41.0495,177.7971,38.9117,178.2526,37,179.2734,36.9904,179.2494,38.9472,179.9414,40.9525,180.7547,42.9916,181.6523,44.9144,182.2595,47,183.2734,47.1305,183.4039,46.0514,182.3249,45.3534,181.6268,44.7018,180.9752,43.7798,180.0532,43,179.2734,43.0161,179.2895,43.7925,178.4659,44.6421,177.7155,45.4564,176.9298,46.338,176.2115,47,175.2734" style="stroke:#181818;stroke-width:1.0;"/><path d="M41,179.2734 L41,179.5537 L50.7857,178.721 L60.5714,179.5312 L70.3571,179.8063 L80.1429,178.3222 L89.9286,179.1698 L99.7143,178.7048 L109.5,178.7621 L119.2857,179.1826 L129.0714,178.3516 L138.8571,180.0116 L148.6429,178.4331 L158.4286,179.0097 L168.2143,179.8494 L178,179.2734 " fill="none" style="stroke:#181818;stroke-width:1.0;stroke-dasharray:2.0,2.0;"/><text fill="#000000" font-family="FG Virgil" font-size="13" lengthAdjust="spacing" textLength="119" x="53" y="174.417">Ask user information</text><polygon fill="#181818" points="167,205.625,167.026,205.69,168.9487,206.2968,171.0239,207.2848,173.0495,208.1487,174.9117,208.6042,177,209.625,176.9904,209.6009,174.9472,210.293,172.9525,211.1063,170.9916,212.0039,168.9144,212.611,167,213.625,167.1305,213.7555,167.6514,212.6764,168.5534,211.9784,169.5018,211.3268,170.1798,210.4048,171,209.625,171.0161,209.6411,170.1925,208.8175,169.4421,208.0671,168.6564,207.2814,167.938,206.563,167,205.625" style="stroke:#181818;stroke-width:1.0;"/><path d="M36,209.625 L36,209.9052 L45.7857,209.0726 L55.5714,209.8827 L65.3571,210.1579 L75.1429,208.6738 L84.9286,209.5214 L94.7143,209.0563 L104.5,209.1137 L114.2857,209.5341 L124.0714,208.7032 L133.8571,210.3632 L143.6429,208.7846 L153.4286,209.3613 L163.2143,210.2009 L173,209.625 " fill="none" style="stroke:#181818;stroke-width:1.0;stroke-dasharray:2.0,2.0;"/><text fill="#000000" font-family="FG Virgil" font-size="13" lengthAdjust="spacing" textLength="31" x="43" y="204.7686">email</text><polygon fill="#181818" points="352,235.9766,352.026,236.0416,353.9487,236.6483,356.0239,237.6364,358.0495,238.5003,359.9117,238.9558,362,239.9766,361.9904,239.9525,359.9472,240.6446,357.9525,241.4579,355.9916,242.3555,353.9144,242.9626,352,243.9766,352.1305,244.1071,352.6514,243.028,353.5534,242.3299,354.5018,241.6784,355.1798,240.7563,356,239.9766,356.0161,239.9926,355.1925,239.169,354.4421,238.4186,353.6564,237.6329,352.938,236.9146,352,235.9766" style="stroke:#181818;stroke-width:1.0;"/><path d="M189,239.9766 L189,240.2568 L198.9412,239.4241 L208.8824,240.2343 L218.8235,240.5095 L228.7647,239.0254 L238.7059,239.8729 L248.6471,239.4079 L258.5882,239.4652 L268.5294,239.8857 L278.4706,239.0547 L288.4118,240.7148 L298.3529,239.1362 L308.2941,239.7129 L318.2353,240.5525 L328.1765,239.8622 L338.1176,240.0675 L348.0588,239.934 L358,239.9766 " fill="none" style="stroke:#181818;stroke-width:1.0;"/><text fill="#000000" font-family="FG Virgil" font-size="13" lengthAdjust="spacing" textLength="156" x="196" y="235.1201">disableUserByEmail(email)</text><polygon fill="#181818" points="978.5,266.3281,978.526,266.3932,980.4487,266.9999,982.5239,267.9879,984.5495,268.8518,986.4117,269.3073,988.5,270.3281,988.4904,270.3041,986.4472,270.9961,984.4525,271.8094,982.4916,272.707,980.4144,273.3142,978.5,274.3281,978.6305,274.4586,979.1514,273.3796,980.0534,272.6815,981.0018,272.0299,981.6798,271.1079,982.5,270.3281,982.5161,270.3442,981.6925,269.5206,980.9421,268.7702,980.1564,267.9845,979.438,267.2662,978.5,266.3281" style="stroke:#181818;stroke-width:1.0;"/><path d="M374,270.3281 L374,270.6084 L384.0082,269.7757 L394.0164,270.5858 L404.0246,270.861 L414.0328,269.3769 L424.041,270.2245 L434.0492,269.7595 L444.0574,269.8168 L454.0656,270.2372 L464.0738,269.4063 L474.082,271.0663 L484.0902,269.4878 L494.0984,270.0644 L504.1066,270.9041 L514.1148,270.2138 L524.123,270.4191 L534.1311,270.2855 L544.1393,270.5662 L554.1475,270.647 L564.1557,271.109 L574.1639,271.2229 L584.1721,271.2338 L594.1803,270.6676 L604.1885,270.9462 L614.1967,271.2644 L624.2049,269.3665 L634.2131,271.2328 L644.2213,269.9328 L654.2295,271.0399 L664.2377,269.6681 L674.2459,270.2368 L684.2541,271.3169 L694.2623,270.2631 L704.2705,270.4685 L714.2787,270.7796 L724.2869,270.8831 L734.2951,270.3229 L744.3033,270.7111 L754.3115,269.5649 L764.3197,270.7073 L774.3279,271.0591 L784.3361,270.9208 L794.3443,271.1455 L804.3525,269.684 L814.3607,269.4585 L824.3689,269.4996 L834.377,270.2496 L844.3852,270.0661 L854.3934,271.2367 L864.4016,270.0952 L874.4098,269.8707 L884.418,270.6325 L894.4262,269.439 L904.4344,269.636 L914.4426,271.1934 L924.4508,270.909 L934.459,271.3074 L944.4672,269.8991 L954.4754,270.7537 L964.4836,271.1154 L974.4918,269.6983 L984.5,270.3281 " fill="none" style="stroke:#181818;stroke-width:1.0;"/><text fill="#000000" font-family="FG Virgil" font-size="13" lengthAdjust="spacing" textLength="75" x="381" y="265.4717">repositories()</text><polygon fill="#181818" points="1126.5,296.6797,1126.526,296.7447,1128.4487,297.3515,1130.5239,298.3395,1132.5495,299.2034,1134.4117,299.6589,1136.5,300.6797,1136.4904,300.6556,1134.4472,301.3477,1132.4525,302.161,1130.4916,303.0586,1128.4144,303.6657,1126.5,304.6797,1126.6305,304.8102,1127.1514,303.7311,1128.0534,303.0331,1129.0018,302.3815,1129.6798,301.4595,1130.5,300.6797,1130.5161,300.6958,1129.6925,299.8722,1128.9421,299.1218,1128.1564,298.3361,1127.438,297.6177,1126.5,296.6797" style="stroke:#181818;stroke-width:1.0;"/><path d="M1000.5,300.6797 L1000.5,300.9599 L1010.6538,300.1273 L1020.8077,300.9374 L1030.9615,301.2126 L1041.1154,299.7285 L1051.2692,300.5761 L1061.4231,300.111 L1071.5769,300.1684 L1081.7308,300.5888 L1091.8846,299.7579 L1102.0385,301.4179 L1112.1923,299.8393 L1122.3462,300.416 L1132.5,300.6797 " fill="none" style="stroke:#181818;stroke-width:1.0;"/><text fill="#000000" font-family="FG Virgil" font-size="13" lengthAdjust="spacing" textLength="44" x="1007.5" y="295.8232">create()</text><polygon fill="#181818" points="385,327.0313,385.026,327.0963,382.9487,327.703,381.0239,328.6911,379.0495,329.5549,376.9117,330.0105,375,331.0313,374.9904,331.0072,376.9472,331.6993,378.9525,332.5126,380.9916,333.4102,382.9144,334.0173,385,335.0313,385.1305,335.1617,384.0514,334.0827,383.3534,333.3846,382.7018,332.7331,381.7798,331.811,381,331.0313,381.0161,331.0473,381.7925,330.2237,382.6421,329.4733,383.4564,328.6876,384.338,327.9693,385,327.0313" style="stroke:#181818;stroke-width:1.0;"/><path d="M379,331.0313 L379,331.3115 L388.9274,330.4788 L398.8548,331.289 L408.7823,331.5642 L418.7097,330.0801 L428.6371,330.9276 L438.5645,330.4626 L448.4919,330.5199 L458.4194,330.9404 L468.3468,330.1094 L478.2742,331.7694 L488.2016,330.1909 L498.129,330.7676 L508.0565,331.6072 L517.9839,330.9169 L527.9113,331.1222 L537.8387,330.9887 L547.7661,331.2693 L557.6935,331.3501 L567.621,331.8122 L577.5484,331.926 L587.4758,331.9369 L597.4032,331.3708 L607.3306,331.6494 L617.2581,331.9676 L627.1855,330.0697 L637.1129,331.9359 L647.0403,330.6359 L656.9677,331.743 L666.8952,330.3712 L676.8226,330.9399 L686.75,332.0201 L696.6774,330.9663 L706.6048,331.1717 L716.5323,331.4828 L726.4597,331.5862 L736.3871,331.026 L746.3145,331.4142 L756.2419,330.268 L766.1694,331.4104 L776.0968,331.7622 L786.0242,331.624 L795.9516,331.8486 L805.879,330.3871 L815.8065,330.1617 L825.7339,330.2027 L835.6613,330.9527 L845.5887,330.7692 L855.5161,331.9398 L865.4435,330.7983 L875.371,330.5738 L885.2984,331.3356 L895.2258,330.1421 L905.1532,330.3391 L915.0806,331.8965 L925.0081,331.6121 L934.9355,332.0106 L944.8629,330.6022 L954.7903,331.4568 L964.7177,331.8185 L974.6452,330.4014 L984.5726,330.9034 L994.5,331.0313 " fill="none" style="stroke:#181818;stroke-width:1.0;"/><text fill="#000000" font-family="FG Virgil" font-size="13" lengthAdjust="spacing" textLength="39" x="391" y="326.1748">factory</text><polygon fill="#181818" points="1121.5,357.3828,1121.526,357.4479,1123.4487,358.0546,1125.5239,359.0426,1127.5495,359.9065,1129.4117,360.362,1131.5,361.3828,1131.4904,361.3588,1129.4472,362.0508,1127.4525,362.8641,1125.4916,363.7617,1123.4144,364.3688,1121.5,365.3828,1121.6305,365.5133,1122.1514,364.4343,1123.0534,363.7362,1124.0018,363.0846,1124.6798,362.1626,1125.5,361.3828,1125.5161,361.3989,1124.6925,360.5753,1123.9421,359.8249,1123.1564,359.0392,1122.438,358.3209,1121.5,357.3828" style="stroke:#181818;stroke-width:1.0;"/><path d="M374,361.3828 L374,361.6631 L384.0467,360.8304 L394.0933,361.6405 L404.14,361.9157 L414.1867,360.4316 L424.2333,361.2792 L434.28,360.8142 L444.3267,360.8715 L454.3733,361.2919 L464.42,360.461 L474.4667,362.121 L484.5133,360.5424 L494.56,361.1191 L504.6067,361.9587 L514.6533,361.2684 L524.7,361.4738 L534.7467,361.3402 L544.7933,361.6208 L554.84,361.7017 L564.8867,362.1637 L574.9333,362.2776 L584.98,362.2885 L595.0267,361.7223 L605.0733,362.0009 L615.12,362.3191 L625.1667,360.4212 L635.2133,362.2875 L645.26,360.9875 L655.3067,362.0946 L665.3533,360.7228 L675.4,361.2915 L685.4467,362.3716 L695.4933,361.3178 L705.54,361.5232 L715.5867,361.8343 L725.6333,361.9378 L735.68,361.3776 L745.7267,361.7658 L755.7733,360.6196 L765.82,361.762 L775.8667,362.1137 L785.9133,361.9755 L795.96,362.2002 L806.0067,360.7387 L816.0533,360.5132 L826.1,360.5543 L836.1467,361.3043 L846.1933,361.1208 L856.24,362.2914 L866.2867,361.1499 L876.3333,360.9254 L886.38,361.6872 L896.4267,360.4937 L906.4733,360.6906 L916.52,362.2481 L926.5667,361.9637 L936.6133,362.3621 L946.66,360.9538 L956.7067,361.8084 L966.7533,362.17 L976.8,360.7529 L986.8467,361.255 L996.8933,361.5508 L1006.94,362.2518 L1016.9867,361.3772 L1027.0333,361.9996 L1037.08,360.6444 L1047.1267,360.4798 L1057.1733,362.0543 L1067.22,360.4269 L1077.2667,362.0614 L1087.3133,361.6583 L1097.36,361.0256 L1107.4067,360.9111 L1117.4533,361.9945 L1127.5,361.3828 " fill="none" style="stroke:#181818;stroke-width:1.0;"/><text fill="#000000" font-family="FG Virgil" font-size="13" lengthAdjust="spacing" textLength="40" x="381" y="356.5264">users()</text><polygon fill="#181818" points="1253,387.7344,1253.026,387.7994,1254.9487,388.4061,1257.0239,389.3942,1259.0495,390.2581,1260.9117,390.7136,1263,391.7344,1262.9904,391.7103,1260.9472,392.4024,1258.9525,393.2157,1256.9916,394.1133,1254.9144,394.7204,1253,395.7344,1253.1305,395.8649,1253.6514,394.7858,1254.5534,394.0878,1255.5018,393.4362,1256.1798,392.5142,1257,391.7344,1257.0161,391.7505,1256.1925,390.9268,1255.4421,390.1765,1254.6564,389.3907,1253.938,388.6724,1253,387.7344" style="stroke:#181818;stroke-width:1.0;"/><path d="M1143.5,391.7344 L1143.5,392.0146 L1153.125,391.1819 L1162.75,391.9921 L1172.375,392.2673 L1182,390.7832 L1191.625,391.6308 L1201.25,391.1657 L1210.875,391.223 L1220.5,391.6435 L1230.125,390.8125 L1239.75,392.4726 L1249.375,390.894 L1259,391.7344 " fill="none" style="stroke:#181818;stroke-width:1.0;"/><text fill="#000000" font-family="FG Virgil" font-size="13" lengthAdjust="spacing" textLength="44" x="1150.5" y="386.8779">create()</text><polygon fill="#181818" points="385,418.0859,385.026,418.151,382.9487,418.7577,381.0239,419.7458,379.0495,420.6096,376.9117,421.0651,375,422.0859,374.9904,422.0619,376.9472,422.7539,378.9525,423.5672,380.9916,424.4648,382.9144,425.072,385,426.0859,385.1305,426.2164,384.0514,425.1374,383.3534,424.4393,382.7018,423.7877,381.7798,422.8657,381,422.0859,381.0161,422.102,381.7925,421.2784,382.6421,420.528,383.4564,419.7423,384.338,419.024,385,418.0859" style="stroke:#181818;stroke-width:1.0;"/><path d="M379,422.0859 L379,422.3662 L388.9803,421.5335 L398.9605,422.3437 L408.9408,422.6188 L418.9211,421.1347 L428.9013,421.9823 L438.8816,421.5173 L448.8618,421.5746 L458.8421,421.9951 L468.8224,421.1641 L478.8026,422.8241 L488.7829,421.2456 L498.7632,421.8222 L508.7434,422.6619 L518.7237,421.9716 L528.7039,422.1769 L538.6842,422.0433 L548.6645,422.324 L558.6447,422.4048 L568.625,422.8669 L578.6053,422.9807 L588.5855,422.9916 L598.5658,422.4254 L608.5461,422.7041 L618.5263,423.0222 L628.5066,421.1244 L638.4868,422.9906 L648.4671,421.6906 L658.4474,422.7977 L668.4276,421.4259 L678.4079,421.9946 L688.3882,423.0747 L698.3684,422.021 L708.3487,422.2263 L718.3289,422.5374 L728.3092,422.6409 L738.2895,422.0807 L748.2697,422.4689 L758.25,421.3227 L768.2303,422.4651 L778.2105,422.8169 L788.1908,422.6786 L798.1711,422.9033 L808.1513,421.4418 L818.1316,421.2164 L828.1118,421.2574 L838.0921,422.0074 L848.0724,421.8239 L858.0526,422.9945 L868.0329,421.853 L878.0132,421.6285 L887.9934,422.3903 L897.9737,421.1968 L907.9539,421.3938 L917.9342,422.9512 L927.9145,422.6668 L937.8947,423.0653 L947.875,421.6569 L957.8553,422.5115 L967.8355,422.8732 L977.8158,421.4561 L987.7961,421.9581 L997.7763,422.2539 L1007.7566,422.955 L1017.7368,422.0803 L1027.7171,422.7027 L1037.6974,421.3476 L1047.6776,421.1829 L1057.6579,422.7574 L1067.6382,421.13 L1077.6184,422.7646 L1087.5987,422.3614 L1097.5789,421.7287 L1107.5592,421.6142 L1117.5395,422.6976 L1127.5197,421.6868 L1137.5,422.0859 " fill="none" style="stroke:#181818;stroke-width:1.0;"/><text fill="#000000" font-family="FG Virgil" font-size="13" lengthAdjust="spacing" textLength="87" x="391" y="417.2295">userRepository</text><polygon fill="#181818" points="743,448.4375,743.026,448.5025,744.9487,449.1093,747.0239,450.0973,749.0495,450.9612,750.9117,451.4167,753,452.4375,752.9904,452.4134,750.9472,453.1055,748.9525,453.9188,746.9916,454.8164,744.9144,455.4235,743,456.4375,743.1305,456.568,743.6514,455.4889,744.5534,454.7909,745.5018,454.1393,746.1798,453.2173,747,452.4375,747.0161,452.4536,746.1925,451.63,745.4421,450.8796,744.6564,450.0939,743.938,449.3755,743,448.4375" style="stroke:#181818;stroke-width:1.0;"/><path d="M374,452.4375 L374,452.7177 L383.8684,451.8851 L393.7368,452.6952 L403.6053,452.9704 L413.4737,451.4863 L423.3421,452.3339 L433.2105,451.8688 L443.0789,451.9262 L452.9474,452.3466 L462.8158,451.5157 L472.6842,453.1757 L482.5526,451.5971 L492.4211,452.1738 L502.2895,453.0134 L512.1579,452.3231 L522.0263,452.5285 L531.8947,452.3949 L541.7632,452.6755 L551.6316,452.7563 L561.5,453.2184 L571.3684,453.3322 L581.2368,453.3432 L591.1053,452.777 L600.9737,453.0556 L610.8421,453.3738 L620.7105,451.4759 L630.5789,453.3422 L640.4474,452.0422 L650.3158,453.1492 L660.1842,451.7775 L670.0526,452.3462 L679.9211,453.4263 L689.7895,452.3725 L699.6579,452.5779 L709.5263,452.889 L719.3947,452.9925 L729.2632,452.4323 L739.1316,452.8205 L749,452.4375 " fill="none" style="stroke:#181818;stroke-width:1.0;"/><text fill="#000000" font-family="FG Virgil" font-size="13" lengthAdjust="spacing" textLength="44" x="381" y="447.5811">create()</text><polygon fill="#181818" points="748,478.7891,748.026,478.8541,749.9487,479.4608,752.0239,480.4489,754.0495,481.3128,755.9117,481.7683,758,482.7891,757.9904,482.765,755.9472,483.4571,753.9525,484.2704,751.9916,485.168,749.9144,485.7751,748,486.7891,748.1305,486.9196,748.6514,485.8405,749.5534,485.1424,750.5018,484.4909,751.1798,483.5688,752,482.7891,752.0161,482.8051,751.1925,481.9815,750.4421,481.2311,749.6564,480.4454,748.938,479.7271,748,478.7891" style="stroke:#181818;stroke-width:1.0;"/><path d="M374,482.7891 L374,483.0693 L384,482.2366 L394,483.0468 L404,483.322 L414,481.8379 L424,482.6854 L434,482.2204 L444,482.2777 L454,482.6982 L464,481.8672 L474,483.5273 L484,481.9487 L494,482.5254 L504,483.365 L514,482.6747 L524,482.88 L534,482.7465 L544,483.0271 L554,483.1079 L564,483.57 L574,483.6838 L584,483.6947 L594,483.1286 L604,483.4072 L614,483.7254 L624,481.8275 L634,483.6937 L644,482.3937 L654,483.5008 L664,482.129 L674,482.6977 L684,483.7779 L694,482.7241 L704,482.9295 L714,483.2406 L724,483.344 L734,482.7839 L744,483.172 L754,482.7891 " fill="none" style="stroke:#181818;stroke-width:1.0;"/><text fill="#000000" font-family="FG Virgil" font-size="13" lengthAdjust="spacing" textLength="357" x="381" y="477.9326">ensureAuthenticatedUserHasAnyOf(CourseRoles.MANAGER)</text><polygon fill="#181818" points="1248,509.1406,1248.026,509.2057,1249.9487,509.8124,1252.0239,510.8004,1254.0495,511.6643,1255.9117,512.1198,1258,513.1406,1257.9904,513.1166,1255.9472,513.8086,1253.9525,514.6219,1251.9916,515.5195,1249.9144,516.1267,1248,517.1406,1248.1305,517.2711,1248.6514,516.1921,1249.5534,515.494,1250.5018,514.8424,1251.1798,513.9204,1252,513.1406,1252.0161,513.1567,1251.1925,512.3331,1250.4421,511.5827,1249.6564,510.797,1248.938,510.0787,1248,509.1406" style="stroke:#181818;stroke-width:1.0;"/><path d="M374,513.1406 L374,513.4209 L384,512.5882 L394,513.3983 L404,513.6735 L414,512.1894 L424,513.037 L434,512.572 L444,512.6293 L454,513.0497 L464,512.2188 L474,513.8788 L484,512.3003 L494,512.8769 L504,513.7166 L514,513.0263 L524,513.2316 L534,513.098 L544,513.3787 L554,513.4595 L564,513.9215 L574,514.0354 L584,514.0463 L594,513.4801 L604,513.7587 L614,514.0769 L624,512.179 L634,514.0453 L644,512.7453 L654,513.8524 L664,512.4806 L674,513.0493 L684,514.1294 L694,513.0756 L704,513.281 L714,513.5921 L724,513.6956 L734,513.1354 L744,513.5236 L754,512.3774 L764,513.5198 L774,513.8716 L784,513.7333 L794,513.958 L804,512.4965 L814,512.271 L824,512.3121 L834,513.0621 L844,512.8786 L854,514.0492 L864,512.9077 L874,512.6832 L884,513.445 L894,512.2515 L904,512.4485 L914,514.0059 L924,513.7215 L934,514.1199 L944,512.7116 L954,513.5662 L964,513.9279 L974,512.5108 L984,513.0128 L994,513.3086 L1004,514.0096 L1014,513.135 L1024,513.7574 L1034,512.4022 L1044,512.2376 L1054,513.8121 L1064,512.1847 L1074,513.8192 L1084,513.4161 L1094,512.7834 L1104,512.6689 L1114,513.7523 L1124,512.7415 L1134,513.9298 L1144,512.4036 L1154,513.9639 L1164,513.7864 L1174,513.4672 L1184,513.2036 L1194,514.1094 L1204,513.9587 L1214,513.3663 L1224,513.4982 L1234,512.9669 L1244,514.0959 L1254,513.1406 " fill="none" style="stroke:#181818;stroke-width:1.0;"/><text fill="#000000" font-family="FG Virgil" font-size="13" lengthAdjust="spacing" textLength="135" x="381" y="508.2842">findUserByEmail(email)</text><polygon fill="#181818" points="385,539.4922,385.026,539.5572,382.9487,540.164,381.0239,541.152,379.0495,542.0159,376.9117,542.4714,375,543.4922,374.9904,543.4681,376.9472,544.1602,378.9525,544.9735,380.9916,545.8711,382.9144,546.4782,385,547.4922,385.1305,547.6227,384.0514,546.5436,383.3534,545.8456,382.7018,545.194,381.7798,544.272,381,543.4922,381.0161,543.5083,381.7925,542.6847,382.6421,541.9343,383.4564,541.1486,384.338,540.4302,385,539.4922" style="stroke:#181818;stroke-width:1.0;"/><path d="M379,543.4922 L379,543.7724 L388.9438,542.9398 L398.8876,543.7499 L408.8315,544.0251 L418.7753,542.541 L428.7191,543.3886 L438.6629,542.9235 L448.6067,542.9809 L458.5506,543.4013 L468.4944,542.5704 L478.4382,544.2304 L488.382,542.6518 L498.3258,543.2285 L508.2697,544.0681 L518.2135,543.3778 L528.1573,543.5832 L538.1011,543.4496 L548.0449,543.7302 L557.9888,543.811 L567.9326,544.2731 L577.8764,544.3869 L587.8202,544.3979 L597.764,543.8317 L607.7079,544.1103 L617.6517,544.4285 L627.5955,542.5306 L637.5393,544.3969 L647.4831,543.0968 L657.427,544.2039 L667.3708,542.8322 L677.3146,543.4009 L687.2584,544.481 L697.2022,543.4272 L707.1461,543.6326 L717.0899,543.9437 L727.0337,544.0472 L736.9775,543.487 L746.9213,543.8751 L756.8652,542.729 L766.809,543.8714 L776.7528,544.2231 L786.6966,544.0849 L796.6404,544.3096 L806.5843,542.8481 L816.5281,542.6226 L826.4719,542.6637 L836.4157,543.4137 L846.3596,543.2301 L856.3034,544.4007 L866.2472,543.2593 L876.191,543.0348 L886.1348,543.7965 L896.0787,542.6031 L906.0225,542.8 L915.9663,544.3575 L925.9101,544.0731 L935.8539,544.4715 L945.7978,543.0631 L955.7416,543.9178 L965.6854,544.2794 L975.6292,542.8623 L985.573,543.3644 L995.5169,543.6602 L1005.4607,544.3612 L1015.4045,543.4866 L1025.3483,544.1089 L1035.2921,542.7538 L1045.236,542.5892 L1055.1798,544.1637 L1065.1236,542.5363 L1075.0674,544.1708 L1085.0112,543.7677 L1094.9551,543.135 L1104.8989,543.0205 L1114.8427,544.1039 L1124.7865,543.0931 L1134.7303,544.2813 L1144.6742,542.7552 L1154.618,544.3154 L1164.5618,544.1379 L1174.5056,543.8188 L1184.4494,543.5551 L1194.3933,544.461 L1204.3371,544.3103 L1214.2809,543.7179 L1224.2247,543.8498 L1234.1685,543.3185 L1244.1124,544.4475 L1254.0562,543.6987 L1264,543.4922 " fill="none" style="stroke:#181818;stroke-width:1.0;"/><text fill="#000000" font-family="FG Virgil" font-size="13" lengthAdjust="spacing" textLength="25" x="391" y="538.6357">user</text><polygon fill="#181818" points="867.5,569.8438,867.526,569.9088,869.4487,570.5155,871.5239,571.5036,873.5495,572.3674,875.4117,572.823,877.5,573.8438,877.4904,573.8197,875.4472,574.5118,873.4525,575.3251,871.4916,576.2227,869.4144,576.8298,867.5,577.8438,867.6305,577.9742,868.1514,576.8952,869.0534,576.1971,870.0018,575.5456,870.6798,574.6235,871.5,573.8438,871.5161,573.8598,870.6925,573.0362,869.9421,572.2858,869.1564,571.5001,868.438,570.7818,867.5,569.8438" style="stroke:#181818;stroke-width:1.0;"/><path d="M374,573.8438 L374,574.124 L383.99,573.2913 L393.98,574.1015 L403.97,574.3767 L413.96,572.8926 L423.95,573.7401 L433.94,573.2751 L443.93,573.3324 L453.92,573.7529 L463.91,572.9219 L473.9,574.5819 L483.89,573.0034 L493.88,573.5801 L503.87,574.4197 L513.86,573.7294 L523.85,573.9347 L533.84,573.8012 L543.83,574.0818 L553.82,574.1626 L563.81,574.6247 L573.8,574.7385 L583.79,574.7494 L593.78,574.1833 L603.77,574.4619 L613.76,574.7801 L623.75,572.8822 L633.74,574.7484 L643.73,573.4484 L653.72,574.5555 L663.71,573.1837 L673.7,573.7524 L683.69,574.8326 L693.68,573.7788 L703.67,573.9842 L713.66,574.2953 L723.65,574.3987 L733.64,573.8385 L743.63,574.2267 L753.62,573.0805 L763.61,574.2229 L773.6,574.5747 L783.59,574.4365 L793.58,574.6611 L803.57,573.1996 L813.56,572.9742 L823.55,573.0152 L833.54,573.7652 L843.53,573.5817 L853.52,574.7523 L863.51,573.6108 L873.5,573.8438 " fill="none" style="stroke:#181818;stroke-width:1.0;"/><text fill="#000000" font-family="FG Virgil" font-size="13" lengthAdjust="spacing" textLength="49" x="381" y="568.9873">disable()</text><polygon fill="#181818" points="1248,600.1953,1248.026,600.2604,1249.9487,600.8671,1252.0239,601.8551,1254.0495,602.719,1255.9117,603.1745,1258,604.1953,1257.9904,604.1713,1255.9472,604.8633,1253.9525,605.6766,1251.9916,606.5742,1249.9144,607.1813,1248,608.1953,1248.1305,608.3258,1248.6514,607.2468,1249.5534,606.5487,1250.5018,605.8971,1251.1798,604.9751,1252,604.1953,1252.0161,604.2114,1251.1925,603.3878,1250.4421,602.6374,1249.6564,601.8517,1248.938,601.1334,1248,600.1953" style="stroke:#181818;stroke-width:1.0;"/><path d="M374,604.1953 L374,604.4756 L384,603.6429 L394,604.453 L404,604.7282 L414,603.2441 L424,604.0917 L434,603.6267 L444,603.684 L454,604.1044 L464,603.2735 L474,604.9335 L484,603.3549 L494,603.9316 L504,604.7712 L514,604.0809 L524,604.2863 L534,604.1527 L544,604.4333 L554,604.5142 L564,604.9762 L574,605.0901 L584,605.101 L594,604.5348 L604,604.8134 L614,605.1316 L624,603.2337 L634,605.1 L644,603.8 L654,604.9071 L664,603.5353 L674,604.104 L684,605.1841 L694,604.1303 L704,604.3357 L714,604.6468 L724,604.7503 L734,604.1901 L744,604.5783 L754,603.4321 L764,604.5745 L774,604.9262 L784,604.788 L794,605.0127 L804,603.5512 L814,603.3257 L824,603.3668 L834,604.1168 L844,603.9333 L854,605.1039 L864,603.9624 L874,603.7379 L884,604.4997 L894,603.3062 L904,603.5031 L914,605.0606 L924,604.7762 L934,605.1746 L944,603.7663 L954,604.6209 L964,604.9825 L974,603.5654 L984,604.0675 L994,604.3633 L1004,605.0643 L1014,604.1897 L1024,604.8121 L1034,603.4569 L1044,603.2923 L1054,604.8668 L1064,603.2394 L1074,604.8739 L1084,604.4708 L1094,603.8381 L1104,603.7236 L1114,604.807 L1124,603.7962 L1134,604.9845 L1144,603.4583 L1154,605.0185 L1164,604.8411 L1174,604.5219 L1184,604.2583 L1194,605.1641 L1204,605.0134 L1214,604.421 L1224,604.5529 L1234,604.0216 L1244,605.1506 L1254,604.1953 " fill="none" style="stroke:#181818;stroke-width:1.0;"/><text fill="#000000" font-family="FG Virgil" font-size="13" lengthAdjust="spacing" textLength="59" x="381" y="599.3389">save(user)</text><polygon fill="#181818" points="385,630.5469,385.026,630.6119,382.9487,631.2186,381.0239,632.2067,379.0495,633.0706,376.9117,633.5261,375,634.5469,374.9904,634.5228,376.9472,635.2149,378.9525,636.0282,380.9916,636.9258,382.9144,637.5329,385,638.5469,385.1305,638.6774,384.0514,637.5983,383.3534,636.9003,382.7018,636.2487,381.7798,635.3267,381,634.5469,381.0161,634.563,381.7925,633.7393,382.6421,632.989,383.4564,632.2032,384.338,631.4849,385,630.5469" style="stroke:#181818;stroke-width:1.0;"/><path d="M379,634.5469 L379,634.8271 L388.9438,633.9944 L398.8876,634.8046 L408.8315,635.0798 L418.7753,633.5957 L428.7191,634.4433 L438.6629,633.9782 L448.6067,634.0355 L458.5506,634.456 L468.4944,633.625 L478.4382,635.2851 L488.382,633.7065 L498.3258,634.2832 L508.2697,635.1228 L518.2135,634.4325 L528.1573,634.6379 L538.1011,634.5043 L548.0449,634.7849 L557.9888,634.8657 L567.9326,635.3278 L577.8764,635.4416 L587.8202,635.4526 L597.764,634.8864 L607.7079,635.165 L617.6517,635.4832 L627.5955,633.5853 L637.5393,635.4516 L647.4831,634.1515 L657.427,635.2586 L667.3708,633.8868 L677.3146,634.4555 L687.2584,635.5357 L697.2022,634.4819 L707.1461,634.6873 L717.0899,634.9984 L727.0337,635.1019 L736.9775,634.5417 L746.9213,634.9298 L756.8652,633.7837 L766.809,634.9261 L776.7528,635.2778 L786.6966,635.1396 L796.6404,635.3642 L806.5843,633.9028 L816.5281,633.6773 L826.4719,633.7183 L836.4157,634.4684 L846.3596,634.2848 L856.3034,635.4554 L866.2472,634.314 L876.191,634.0895 L886.1348,634.8512 L896.0787,633.6578 L906.0225,633.8547 L915.9663,635.4121 L925.9101,635.1278 L935.8539,635.5262 L945.7978,634.1178 L955.7416,634.9725 L965.6854,635.3341 L975.6292,633.917 L985.573,634.4191 L995.5169,634.7149 L1005.4607,635.4159 L1015.4045,634.5413 L1025.3483,635.1636 L1035.2921,633.8085 L1045.236,633.6439 L1055.1798,635.2184 L1065.1236,633.591 L1075.0674,635.2255 L1085.0112,634.8224 L1094.9551,634.1897 L1104.8989,634.0752 L1114.8427,635.1586 L1124.7865,634.1478 L1134.7303,635.336 L1144.6742,633.8099 L1154.618,635.3701 L1164.5618,635.1926 L1174.5056,634.8735 L1184.4494,634.6098 L1194.3933,635.5157 L1204.3371,635.365 L1214.2809,634.7725 L1224.2247,634.9045 L1234.1685,634.3732 L1244.1124,635.5021 L1254.0562,634.7534 L1264,634.5469 " fill="none" style="stroke:#181818;stroke-width:1.0;"/><text fill="#000000" font-family="FG Virgil" font-size="13" lengthAdjust="spacing" textLength="25" x="391" y="629.6904">user</text><polygon fill="#181818" points="200,660.8984,200.026,660.9635,197.9487,661.5702,196.0239,662.5583,194.0495,663.4221,191.9117,663.8776,190,664.8984,189.9904,664.8744,191.9472,665.5664,193.9525,666.3797,195.9916,667.2773,197.9144,667.8845,200,668.8984,200.1305,669.0289,199.0514,667.9499,198.3534,667.2518,197.7018,666.6002,196.7798,665.6782,196,664.8984,196.0161,664.9145,196.7925,664.0909,197.6421,663.3405,198.4564,662.5548,199.338,661.8365,200,660.8984" style="stroke:#181818;stroke-width:1.0;"/><path d="M194,664.8984 L194,665.1787 L204.2353,664.346 L214.4706,665.1562 L224.7059,665.4313 L234.9412,663.9472 L245.1765,664.7948 L255.4118,664.3298 L265.6471,664.3871 L275.8824,664.8076 L286.1176,663.9766 L296.3529,665.6366 L306.5882,664.0581 L316.8235,664.6347 L327.0588,665.4744 L337.2941,664.7841 L347.5294,664.9894 L357.7647,664.8558 L368,664.8984 " fill="none" style="stroke:#181818;stroke-width:1.0;"/><text fill="#000000" font-family="FG Virgil" font-size="13" lengthAdjust="spacing" textLength="25" x="206" y="660.042">user</text><polygon fill="#181818" points="47,691.25,47.026,691.315,44.9487,691.9218,43.0239,692.9098,41.0495,693.7737,38.9117,694.2292,37,695.25,36.9904,695.2259,38.9472,695.918,40.9525,696.7313,42.9916,697.6289,44.9144,698.236,47,699.25,47.1305,699.3805,46.0514,698.3014,45.3534,697.6034,44.7018,696.9518,43.7798,696.0298,43,695.25,43.0161,695.2661,43.7925,694.4425,44.6421,693.6921,45.4564,692.9064,46.338,692.188,47,691.25" style="stroke:#181818;stroke-width:1.0;"/><path d="M41,695.25 L41,695.5302 L51.1429,694.6976 L61.2857,695.5077 L71.4286,695.7829 L81.5714,694.2988 L91.7143,695.1464 L101.8571,694.6813 L112,694.7387 L122.1429,695.1591 L132.2857,694.3282 L142.4286,695.9882 L152.5714,694.4096 L162.7143,694.9863 L172.8571,695.8259 L183,695.25 " fill="none" style="stroke:#181818;stroke-width:1.0;stroke-dasharray:2.0,2.0;"/><text fill="#000000" font-family="FG Virgil" font-size="13" lengthAdjust="spacing" textLength="111" x="53" y="690.3936">displayUserDisable</text><!--MD5=[7722d27e02effa1f4786e9bd3bd0260f]
@startuml
'http://plantuml.com/skinparam.html
skinparam handwritten true
skinparam monochrome true
skinparam packageStyle rect
skinparam defaultFontName FG Virgil
skinparam shadowing false

actor Manager as Actor
participant ChangeUserStateUI as UI <<presentation>>
participant ChangeUserStateController as Controller <<application>>
participant AuthorizationService as AuthzService <<service>>
participant "user:User" as Domain <<domain>>
participant PersistenceContext as Persistence <<persistence>>
participant RepositoryFactory as Factory <<factory>>
database UserRepository as Repository <<repository>>


Actor - -> UI: Disable User
activate UI
    UI -> Controller: create()
    UI - -> Actor: Ask user information

    Actor - -> UI: email
        
    UI -> Controller: disableUserByEmail(email)
    activate Controller

        Controller -> Persistence: repositories()
        activate Persistence
        Persistence -> Factory: create()
        Persistence -> Controller: factory
        deactivate Persistence

        Controller -> Factory: users()
        activate Factory
        Factory -> Repository: create()
        Factory -> Controller: userRepository
        deactivate Factory

        Controller -> AuthzService: create()
        activate AuthzService
        Controller -> AuthzService: ensureAuthenticatedUserHasAnyOf(CourseRoles.MANAGER)
        deactivate AuthzService

        Controller -> Repository: findUserByEmail(email)
        activate Repository
        Repository -> Controller: user
        deactivate Repository

        Controller -> Domain: disable()

        Controller -> Repository: save(user)
        activate Repository
        Repository -> Controller: user
        deactivate Repository

        Controller -> UI:user
        deactivate Controller
        UI - -> Actor: displayUserDisable

deactivate UI
@enduml

@startuml
skinparam handwritten true
skinparam monochrome true
skinparam packageStyle rect
skinparam defaultFontName FG Virgil
skinparam shadowing false

actor Manager as Actor
participant ChangeUserStateUI as UI <<presentation>>
participant ChangeUserStateController as Controller <<application>>
participant AuthorizationService as AuthzService <<service>>
participant "user:User" as Domain <<domain>>
participant PersistenceContext as Persistence <<persistence>>
participant RepositoryFactory as Factory <<factory>>
database UserRepository as Repository <<repository>>


Actor - -> UI: Disable User
activate UI
    UI -> Controller: create()
    UI - -> Actor: Ask user information

    Actor - -> UI: email
        
    UI -> Controller: disableUserByEmail(email)
    activate Controller

        Controller -> Persistence: repositories()
        activate Persistence
        Persistence -> Factory: create()
        Persistence -> Controller: factory
        deactivate Persistence

        Controller -> Factory: users()
        activate Factory
        Factory -> Repository: create()
        Factory -> Controller: userRepository
        deactivate Factory

        Controller -> AuthzService: create()
        activate AuthzService
        Controller -> AuthzService: ensureAuthenticatedUserHasAnyOf(CourseRoles.MANAGER)
        deactivate AuthzService

        Controller -> Repository: findUserByEmail(email)
        activate Repository
        Repository -> Controller: user
        deactivate Repository

        Controller -> Domain: disable()

        Controller -> Repository: save(user)
        activate Repository
        Repository -> Controller: user
        deactivate Repository

        Controller -> UI:user
        deactivate Controller
        UI - -> Actor: displayUserDisable

deactivate UI
@enduml

PlantUML version 1.2022.7(Mon Aug 22 18:01:30 BST 2022)
(GPL source distribution)
Java Runtime: Java(TM) SE Runtime Environment
JVM: Java HotSpot(TM) 64-Bit Server VM
Default Encoding: Cp1252
Language: pt
Country: PT
--></g></svg>