<?xml version="1.0" encoding="UTF-8" standalone="no"?><svg xmlns="http://www.w3.org/2000/svg" xmlns:xlink="http://www.w3.org/1999/xlink" contentStyleType="text/css" height="840px" preserveAspectRatio="none" style="width:1309px;height:840px;background:#FFFFFF;" version="1.1" viewBox="0 0 1309 840" width="1309px" zoomAndPan="magnify"><defs/><g><polygon fill="#FFFFFF" points="179,118.5703,179,118.6404,181,118.4322,183,118.6347,185,118.7035,187,118.3325,189,118.5703,188.9223,118.5703,188.5735,128.5216,188.6165,138.473,188.9318,148.4243,188.3086,158.3756,189.5536,168.327,188.3697,178.2783,188.8022,188.2296,189.4319,198.181,188.9142,208.1323,189.0682,218.0836,188.9681,228.035,189.1785,237.9863,189.2391,247.9376,189.5857,257.889,189.6711,267.8403,189.6793,277.7916,189.2546,287.743,189.4636,297.6943,189.7022,307.6456,188.2788,317.597,189.6785,327.5483,188.7035,337.4996,189.5338,347.4509,188.505,357.4023,188.9315,367.3536,189.7416,377.3049,188.9513,387.2563,189.1053,397.2076,189.3386,407.1589,189.4162,417.1103,188.9961,427.0616,189.2872,437.0129,188.4276,446.9643,189.2844,456.9156,189.5482,466.8669,189.4445,476.8183,189.613,486.7696,188.5169,496.7209,188.3478,506.6723,188.3786,516.6236,188.9411,526.5749,188.8035,536.5263,189.6814,546.4776,188.8253,556.4289,188.6569,566.3803,189.2283,576.3316,188.3332,586.2829,188.4809,596.2342,189.649,606.1856,189.4357,616.1369,189.7345,626.0882,188.6782,636.0396,189.3192,645.9909,189.5904,655.9422,188.5276,665.8936,188.9041,675.8449,189.126,685.7962,189.6518,695.7476,188.9958,705.6989,189.4626,715.6502,189,725.6016,189,725.417,187,725.3758,185,725.7694,183,725.3626,181,725.7712,179,725.6016,179.2066,725.6016,178.7321,715.6502,178.6462,705.6989,179.4588,695.7476,178.7007,685.7962,179.5919,675.8449,178.4473,665.8936,179.6174,655.9422,179.4843,645.9909,179.245,636.0396,179.0472,626.0882,179.7266,616.1369,179.6136,606.1856,179.1693,596.2342,179.2682,586.2829,178.8697,576.3316,179.7165,566.3803,179.1549,556.4289,179.1726,546.4776,178.3916,536.5263,178.5948,526.5749,179.5307,516.6236,179.4298,506.6723,178.9571,496.7209,178.6778,486.7696,178.7811,476.8183,178.3138,466.8669,179.4147,456.9156,179.7396,446.9643,179.5264,437.0129,179.6949,427.0616,178.8633,417.1103,179.0872,407.1589,178.6124,397.2076,179.284,387.2563,179.2468,377.3049,179.5524,367.3536,178.7703,357.4023,178.8656,347.4509,179.4435,337.4996,179.5673,327.5483,178.4875,317.597,178.8061,307.6456,179.1493,297.6943,178.3892,287.743,179.3534,277.7916,179.258,267.8403,178.8992,257.889,179.1422,247.9376,179.7287,237.9863,178.6871,228.035,179.315,218.0836,179.2856,208.1323,179.1158,198.181,179.1409,188.2296,179.1135,178.2783,178.3758,168.327,178.5992,158.3756,178.5385,148.4243,179.0638,138.473,179.0881,128.5216,179,118.5703" style="stroke:#181818;stroke-width:1.0;"/><polygon fill="#FFFFFF" points="361,239.9766,361,240.0466,363,239.8385,365,240.041,367,240.1098,369,239.7388,371,239.9766,370.9223,239.9766,370.5735,249.8738,370.6165,259.7711,370.9318,269.6683,370.3086,279.5656,371.5536,289.4628,370.3697,299.3601,370.8022,309.2573,371.4319,319.1546,370.9142,329.0518,371.0682,338.949,370.9681,348.8463,371.1785,358.7435,371.2391,368.6408,371.5857,378.538,371.6711,388.4353,371.6793,398.3325,371.2546,408.2298,371.4636,418.127,371.7022,428.0243,370.2788,437.9215,371.6785,447.8188,370.7035,457.716,371.5338,467.6133,370.505,477.5105,370.9315,487.4078,371.7416,497.305,370.9513,507.2023,371.1053,517.0995,371.3386,526.9968,371.4162,536.894,370.9961,546.7913,371.2872,556.6885,370.4276,566.5858,371.2844,576.483,371.5482,586.3803,371.4445,596.2775,371.613,606.1748,370.5169,616.072,370.3478,625.9693,370.3786,635.8665,370.9411,645.7638,370.8035,655.661,371.6814,665.5583,370.8253,675.4555,370.6569,685.3528,371,695.25,371,695.3261,369,695.0277,367,695.077,365,695.4663,363,695.3952,361,695.25,361.7345,695.25,360.6782,685.3528,361.3192,675.4555,361.5904,665.5583,360.5276,655.661,360.9041,645.7638,361.126,635.8665,361.6518,625.9693,360.9958,616.072,361.4626,606.1748,360.4462,596.2775,360.3227,586.3803,361.5036,576.483,360.2831,566.5858,361.509,556.6885,361.2066,546.7913,360.7321,536.894,360.6462,526.9968,361.4588,517.0995,360.7007,507.2023,361.5919,497.305,360.4473,487.4078,361.6174,477.5105,361.4843,467.6133,361.245,457.716,361.0472,447.8188,361.7266,437.9215,361.6136,428.0243,361.1693,418.127,361.2682,408.2298,360.8697,398.3325,361.7165,388.4353,361.1549,378.538,361.1726,368.6408,360.3916,358.7435,360.5948,348.8463,361.5307,338.949,361.4298,329.0518,360.9571,319.1546,360.6778,309.2573,360.7811,299.3601,360.3138,289.4628,361.4147,279.5656,361.7396,269.6683,361.5264,259.7711,361.6949,249.8738,361,239.9766" style="stroke:#181818;stroke-width:1.0;"/><polygon fill="#FFFFFF" points="515.5,452.4375,515.5,452.5076,517.5,452.2994,519.5,452.5019,521.5,452.5707,523.5,452.1997,525.5,452.4375,525.4741,452.4375,525.3578,458.5078,525.3722,464.5781,525.4773,470.6484,525.2695,476.7188,525.5,482.7891,525.5,482.9736,523.5,482.579,521.5,482.7231,519.5,482.933,517.5,482.7605,515.5,482.7891,515.5227,482.7891,515.4894,476.7188,515.5595,470.6484,515.5797,464.5781,515.6952,458.5078,515.5,452.4375" style="stroke:#181818;stroke-width:1.0;"/><polygon fill="#FFFFFF" points="982.5,270.3281,982.5,270.3982,984.5,270.19,986.5,270.3926,988.5,270.4614,990.5,270.0903,992.5,270.3281,992.4223,270.3281,992.0735,280.4453,992.1165,290.5625,992.4318,300.6797,991.8086,310.7969,993.0536,320.9141,992.5,331.0313,992.5,330.8212,990.5,330.9653,988.5,331.1752,986.5,331.0027,984.5,331.054,982.5,331.0313,982.4681,331.0313,982.6785,320.9141,982.7391,310.7969,983.0857,300.6797,983.1711,290.5625,983.1793,280.4453,982.5,270.3281" style="stroke:#181818;stroke-width:1.0;"/><polygon fill="#FFFFFF" points="1125.5,361.3828,1125.5,361.4529,1127.5,361.2447,1129.5,361.4472,1131.5,361.516,1133.5,361.145,1135.5,361.3828,1135.4223,361.3828,1135.0735,371.5,1135.1165,381.6172,1135.4318,391.7344,1134.8086,401.8516,1136.0536,411.9688,1135.5,422.0859,1135.5,421.8758,1133.5,422.02,1131.5,422.2299,1129.5,422.0573,1127.5,422.1087,1125.5,422.0859,1125.4681,422.0859,1125.6785,411.9688,1125.7391,401.8516,1126.0857,391.7344,1126.1711,381.6172,1126.1793,371.5,1125.5,361.3828" style="stroke:#181818;stroke-width:1.0;"/><polygon fill="#FFFFFF" points="1252,543.4922,1252,543.5622,1254,543.3541,1256,543.5566,1258,543.6254,1260,543.2544,1262,543.4922,1261.9741,543.4922,1261.8578,549.5625,1261.8722,555.6328,1261.9773,561.7031,1261.7695,567.7734,1262,573.8438,1262,574.0283,1260,573.6337,1258,573.7778,1256,573.9877,1254,573.8152,1252,573.8438,1252.0227,573.8438,1251.9894,567.7734,1252.0595,561.7031,1252.0797,555.6328,1252.1952,549.5625,1252,543.4922" style="stroke:#181818;stroke-width:1.0;"/><polygon fill="#FFFFFF" points="1252,634.5469,1252,634.6169,1254,634.4088,1256,634.6113,1258,634.6801,1260,634.3091,1262,634.5469,1261.9741,634.5469,1261.8578,640.6172,1261.8722,646.6875,1261.9773,652.7578,1261.7695,658.8281,1262,664.8984,1262,665.083,1260,664.6883,1258,664.8325,1256,665.0424,1254,664.8698,1252,664.8984,1252.0227,664.8984,1251.9894,658.8281,1252.0595,652.7578,1252.0797,646.6875,1252.1952,640.6172,1252,634.5469" style="stroke:#181818;stroke-width:1.0;"/><path d="M36,86.2188 L36.2802,86.2188 L35.4476,96.1791 L36.2577,106.1394 L36.5329,116.0998 L35.0488,126.0601 L35.8964,136.0205 L35.4313,145.9808 L35.4887,155.9412 L35.9091,165.9015 L35.0782,175.8619 L36.7382,185.8222 L35.1596,195.7826 L35.7363,205.7429 L36.5759,215.7032 L35.8856,225.6636 L36.091,235.6239 L35.9574,245.5843 L36.238,255.5446 L36.3188,265.505 L36.7809,275.4653 L36.8947,285.4257 L36.9057,295.386 L36.3395,305.3464 L36.6181,315.3067 L36.9363,325.267 L35.0384,335.2274 L36.9047,345.1877 L35.6047,355.1481 L36.7117,365.1084 L35.34,375.0688 L35.9087,385.0291 L36.9888,394.9895 L35.935,404.9498 L36.1404,414.9102 L36.4515,424.8705 L36.555,434.8308 L35.9948,444.7912 L36.383,454.7515 L35.2368,464.7119 L36.3792,474.6722 L36.7309,484.6326 L36.5927,494.5929 L36.8174,504.5533 L35.3559,514.5136 L35.1304,524.474 L35.1715,534.4343 L35.9215,544.3946 L35.738,554.355 L36.9085,564.3153 L35.7671,574.2757 L35.5426,584.236 L36.3044,594.1964 L35.1109,604.1567 L35.3078,614.1171 L36.8653,624.0774 L36.5809,634.0378 L36.9793,643.9981 L35.5709,653.9585 L36.4256,663.9188 L36.7872,673.8791 L35.3701,683.8395 L35.8722,693.7998 L36.168,703.7602 L36.869,713.7205 L35.9944,723.6809 L36.6168,733.6412 L36,743.6016 " fill="none" style="stroke:#181818;stroke-width:0.5;stroke-dasharray:5.0,5.0;"/><path d="M184,86.2188 L184.2802,86.2188 L183.4476,96.1791 L184.2577,106.1394 L184.5329,116.0998 L183.0488,126.0601 L183.8964,136.0205 L183.4313,145.9808 L183.4887,155.9412 L183.9091,165.9015 L183.0782,175.8619 L184.7382,185.8222 L183.1596,195.7826 L183.7363,205.7429 L184.5759,215.7032 L183.8856,225.6636 L184.091,235.6239 L183.9574,245.5843 L184.238,255.5446 L184.3188,265.505 L184.7809,275.4653 L184.8947,285.4257 L184.9057,295.386 L184.3395,305.3464 L184.6181,315.3067 L184.9363,325.267 L183.0384,335.2274 L184.9047,345.1877 L183.6047,355.1481 L184.7117,365.1084 L183.34,375.0688 L183.9087,385.0291 L184.9888,394.9895 L183.935,404.9498 L184.1404,414.9102 L184.4515,424.8705 L184.555,434.8308 L183.9948,444.7912 L184.383,454.7515 L183.2368,464.7119 L184.3792,474.6722 L184.7309,484.6326 L184.5927,494.5929 L184.8174,504.5533 L183.3559,514.5136 L183.1304,524.474 L183.1715,534.4343 L183.9215,544.3946 L183.738,554.355 L184.9085,564.3153 L183.7671,574.2757 L183.5426,584.236 L184.3044,594.1964 L183.1109,604.1567 L183.3078,614.1171 L184.8653,624.0774 L184.5809,634.0378 L184.9793,643.9981 L183.5709,653.9585 L184.4256,663.9188 L184.7872,673.8791 L183.3701,683.8395 L183.8722,693.7998 L184.168,703.7602 L184.869,713.7205 L183.9944,723.6809 L184.6168,733.6412 L184,743.6016 " fill="none" style="stroke:#181818;stroke-width:0.5;stroke-dasharray:5.0,5.0;"/><path d="M366,86.2188 L366.2802,86.2188 L365.4476,96.1791 L366.2577,106.1394 L366.5329,116.0998 L365.0488,126.0601 L365.8964,136.0205 L365.4313,145.9808 L365.4887,155.9412 L365.9091,165.9015 L365.0782,175.8619 L366.7382,185.8222 L365.1596,195.7826 L365.7363,205.7429 L366.5759,215.7032 L365.8856,225.6636 L366.091,235.6239 L365.9574,245.5843 L366.238,255.5446 L366.3188,265.505 L366.7809,275.4653 L366.8947,285.4257 L366.9057,295.386 L366.3395,305.3464 L366.6181,315.3067 L366.9363,325.267 L365.0384,335.2274 L366.9047,345.1877 L365.6047,355.1481 L366.7117,365.1084 L365.34,375.0688 L365.9087,385.0291 L366.9888,394.9895 L365.935,404.9498 L366.1404,414.9102 L366.4515,424.8705 L366.555,434.8308 L365.9948,444.7912 L366.383,454.7515 L365.2368,464.7119 L366.3792,474.6722 L366.7309,484.6326 L366.5927,494.5929 L366.8174,504.5533 L365.3559,514.5136 L365.1304,524.474 L365.1715,534.4343 L365.9215,544.3946 L365.738,554.355 L366.9085,564.3153 L365.7671,574.2757 L365.5426,584.236 L366.3044,594.1964 L365.1109,604.1567 L365.3078,614.1171 L366.8653,624.0774 L366.5809,634.0378 L366.9793,643.9981 L365.5709,653.9585 L366.4256,663.9188 L366.7872,673.8791 L365.3701,683.8395 L365.8722,693.7998 L366.168,703.7602 L366.869,713.7205 L365.9944,723.6809 L366.6168,733.6412 L366,743.6016 " fill="none" style="stroke:#181818;stroke-width:0.5;stroke-dasharray:5.0,5.0;"/><path d="M520,86.2188 L520.2802,86.2188 L519.4476,96.1791 L520.2577,106.1394 L520.5329,116.0998 L519.0488,126.0601 L519.8964,136.0205 L519.4313,145.9808 L519.4887,155.9412 L519.9091,165.9015 L519.0782,175.8619 L520.7382,185.8222 L519.1596,195.7826 L519.7363,205.7429 L520.5759,215.7032 L519.8856,225.6636 L520.091,235.6239 L519.9574,245.5843 L520.238,255.5446 L520.3188,265.505 L520.7809,275.4653 L520.8947,285.4257 L520.9057,295.386 L520.3395,305.3464 L520.6181,315.3067 L520.9363,325.267 L519.0384,335.2274 L520.9047,345.1877 L519.6047,355.1481 L520.7117,365.1084 L519.34,375.0688 L519.9087,385.0291 L520.9888,394.9895 L519.935,404.9498 L520.1404,414.9102 L520.4515,424.8705 L520.555,434.8308 L519.9948,444.7912 L520.383,454.7515 L519.2368,464.7119 L520.3792,474.6722 L520.7309,484.6326 L520.5927,494.5929 L520.8174,504.5533 L519.3559,514.5136 L519.1304,524.474 L519.1715,534.4343 L519.9215,544.3946 L519.738,554.355 L520.9085,564.3153 L519.7671,574.2757 L519.5426,584.236 L520.3044,594.1964 L519.1109,604.1567 L519.3078,614.1171 L520.8653,624.0774 L520.5809,634.0378 L520.9793,643.9981 L519.5709,653.9585 L520.4256,663.9188 L520.7872,673.8791 L519.3701,683.8395 L519.8722,693.7998 L520.168,703.7602 L520.869,713.7205 L519.9944,723.6809 L520.6168,733.6412 L520,743.6016 " fill="none" style="stroke:#181818;stroke-width:0.5;stroke-dasharray:5.0,5.0;"/><path d="M751.5,86.2188 L751.7802,86.2188 L750.9476,96.1791 L751.7577,106.1394 L752.0329,116.0998 L750.5488,126.0601 L751.3964,136.0205 L750.9313,145.9808 L750.9887,155.9412 L751.4091,165.9015 L750.5782,175.8619 L752.2382,185.8222 L750.6596,195.7826 L751.2363,205.7429 L752.0759,215.7032 L751.3856,225.6636 L751.591,235.6239 L751.4574,245.5843 L751.738,255.5446 L751.8188,265.505 L752.2809,275.4653 L752.3947,285.4257 L752.4057,295.386 L751.8395,305.3464 L752.1181,315.3067 L752.4363,325.267 L750.5384,335.2274 L752.4047,345.1877 L751.1047,355.1481 L752.2117,365.1084 L750.84,375.0688 L751.4087,385.0291 L752.4888,394.9895 L751.435,404.9498 L751.6404,414.9102 L751.9515,424.8705 L752.055,434.8308 L751.4948,444.7912 L751.883,454.7515 L750.7368,464.7119 L751.8792,474.6722 L752.2309,484.6326 L752.0927,494.5929 L752.3174,504.5533 L750.8559,514.5136 L750.6304,524.474 L750.6715,534.4343 L751.4215,544.3946 L751.238,554.355 L752.4085,564.3153 L751.2671,574.2757 L751.0426,584.236 L751.8044,594.1964 L750.6109,604.1567 L750.8078,614.1171 L752.3653,624.0774 L752.0809,634.0378 L752.4793,643.9981 L751.0709,653.9585 L751.9256,663.9188 L752.2872,673.8791 L750.8701,683.8395 L751.3722,693.7998 L751.668,703.7602 L752.369,713.7205 L751.4944,723.6809 L752.1168,733.6412 L751.5,743.6016 " fill="none" style="stroke:#181818;stroke-width:0.5;stroke-dasharray:5.0,5.0;"/><path d="M871.5,86.2188 L871.7802,86.2188 L870.9476,96.1791 L871.7577,106.1394 L872.0329,116.0998 L870.5488,126.0601 L871.3964,136.0205 L870.9313,145.9808 L870.9887,155.9412 L871.4091,165.9015 L870.5782,175.8619 L872.2382,185.8222 L870.6596,195.7826 L871.2363,205.7429 L872.0759,215.7032 L871.3856,225.6636 L871.591,235.6239 L871.4574,245.5843 L871.738,255.5446 L871.8188,265.505 L872.2809,275.4653 L872.3947,285.4257 L872.4057,295.386 L871.8395,305.3464 L872.1181,315.3067 L872.4363,325.267 L870.5384,335.2274 L872.4047,345.1877 L871.1047,355.1481 L872.2117,365.1084 L870.84,375.0688 L871.4087,385.0291 L872.4888,394.9895 L871.435,404.9498 L871.6404,414.9102 L871.9515,424.8705 L872.055,434.8308 L871.4948,444.7912 L871.883,454.7515 L870.7368,464.7119 L871.8792,474.6722 L872.2309,484.6326 L872.0927,494.5929 L872.3174,504.5533 L870.8559,514.5136 L870.6304,524.474 L870.6715,534.4343 L871.4215,544.3946 L871.238,554.355 L872.4085,564.3153 L871.2671,574.2757 L871.0426,584.236 L871.8044,594.1964 L870.6109,604.1567 L870.8078,614.1171 L872.3653,624.0774 L872.0809,634.0378 L872.4793,643.9981 L871.0709,653.9585 L871.9256,663.9188 L872.2872,673.8791 L870.8701,683.8395 L871.3722,693.7998 L871.668,703.7602 L872.369,713.7205 L871.4944,723.6809 L872.1168,733.6412 L871.5,743.6016 " fill="none" style="stroke:#181818;stroke-width:0.5;stroke-dasharray:5.0,5.0;"/><path d="M987.5,86.2188 L987.7802,86.2188 L986.9476,96.1791 L987.7577,106.1394 L988.0329,116.0998 L986.5488,126.0601 L987.3964,136.0205 L986.9313,145.9808 L986.9887,155.9412 L987.4091,165.9015 L986.5782,175.8619 L988.2382,185.8222 L986.6596,195.7826 L987.2363,205.7429 L988.0759,215.7032 L987.3856,225.6636 L987.591,235.6239 L987.4574,245.5843 L987.738,255.5446 L987.8188,265.505 L988.2809,275.4653 L988.3947,285.4257 L988.4057,295.386 L987.8395,305.3464 L988.1181,315.3067 L988.4363,325.267 L986.5384,335.2274 L988.4047,345.1877 L987.1047,355.1481 L988.2117,365.1084 L986.84,375.0688 L987.4087,385.0291 L988.4888,394.9895 L987.435,404.9498 L987.6404,414.9102 L987.9515,424.8705 L988.055,434.8308 L987.4948,444.7912 L987.883,454.7515 L986.7368,464.7119 L987.8792,474.6722 L988.2309,484.6326 L988.0927,494.5929 L988.3174,504.5533 L986.8559,514.5136 L986.6304,524.474 L986.6715,534.4343 L987.4215,544.3946 L987.238,554.355 L988.4085,564.3153 L987.2671,574.2757 L987.0426,584.236 L987.8044,594.1964 L986.6109,604.1567 L986.8078,614.1171 L988.3653,624.0774 L988.0809,634.0378 L988.4793,643.9981 L987.0709,653.9585 L987.9256,663.9188 L988.2872,673.8791 L986.8701,683.8395 L987.3722,693.7998 L987.668,703.7602 L988.369,713.7205 L987.4944,723.6809 L988.1168,733.6412 L987.5,743.6016 " fill="none" style="stroke:#181818;stroke-width:0.5;stroke-dasharray:5.0,5.0;"/><path d="M1130.5,86.2188 L1130.7802,86.2188 L1129.9476,96.1791 L1130.7577,106.1394 L1131.0329,116.0998 L1129.5488,126.0601 L1130.3964,136.0205 L1129.9313,145.9808 L1129.9887,155.9412 L1130.4091,165.9015 L1129.5782,175.8619 L1131.2382,185.8222 L1129.6596,195.7826 L1130.2363,205.7429 L1131.0759,215.7032 L1130.3856,225.6636 L1130.591,235.6239 L1130.4574,245.5843 L1130.738,255.5446 L1130.8188,265.505 L1131.2809,275.4653 L1131.3947,285.4257 L1131.4057,295.386 L1130.8395,305.3464 L1131.1181,315.3067 L1131.4363,325.267 L1129.5384,335.2274 L1131.4047,345.1877 L1130.1047,355.1481 L1131.2117,365.1084 L1129.84,375.0688 L1130.4087,385.0291 L1131.4888,394.9895 L1130.435,404.9498 L1130.6404,414.9102 L1130.9515,424.8705 L1131.055,434.8308 L1130.4948,444.7912 L1130.883,454.7515 L1129.7368,464.7119 L1130.8792,474.6722 L1131.2309,484.6326 L1131.0927,494.5929 L1131.3174,504.5533 L1129.8559,514.5136 L1129.6304,524.474 L1129.6715,534.4343 L1130.4215,544.3946 L1130.238,554.355 L1131.4085,564.3153 L1130.2671,574.2757 L1130.0426,584.236 L1130.8044,594.1964 L1129.6109,604.1567 L1129.8078,614.1171 L1131.3653,624.0774 L1131.0809,634.0378 L1131.4793,643.9981 L1130.0709,653.9585 L1130.9256,663.9188 L1131.2872,673.8791 L1129.8701,683.8395 L1130.3722,693.7998 L1130.668,703.7602 L1131.369,713.7205 L1130.4944,723.6809 L1131.1168,733.6412 L1130.5,743.6016 " fill="none" style="stroke:#181818;stroke-width:0.5;stroke-dasharray:5.0,5.0;"/><path d="M1256.5,86.2188 L1256.7802,86.2188 L1255.9476,96.1791 L1256.7577,106.1394 L1257.0329,116.0998 L1255.5488,126.0601 L1256.3964,136.0205 L1255.9313,145.9808 L1255.9887,155.9412 L1256.4091,165.9015 L1255.5782,175.8619 L1257.2382,185.8222 L1255.6596,195.7826 L1256.2363,205.7429 L1257.0759,215.7032 L1256.3856,225.6636 L1256.591,235.6239 L1256.4574,245.5843 L1256.738,255.5446 L1256.8188,265.505 L1257.2809,275.4653 L1257.3947,285.4257 L1257.4057,295.386 L1256.8395,305.3464 L1257.1181,315.3067 L1257.4363,325.267 L1255.5384,335.2274 L1257.4047,345.1877 L1256.1047,355.1481 L1257.2117,365.1084 L1255.84,375.0688 L1256.4087,385.0291 L1257.4888,394.9895 L1256.435,404.9498 L1256.6404,414.9102 L1256.9515,424.8705 L1257.055,434.8308 L1256.4948,444.7912 L1256.883,454.7515 L1255.7368,464.7119 L1256.8792,474.6722 L1257.2309,484.6326 L1257.0927,494.5929 L1257.3174,504.5533 L1255.8559,514.5136 L1255.6304,524.474 L1255.6715,534.4343 L1256.4215,544.3946 L1256.238,554.355 L1257.4085,564.3153 L1256.2671,574.2757 L1256.0426,584.236 L1256.8044,594.1964 L1255.6109,604.1567 L1255.8078,614.1171 L1257.3653,624.0774 L1257.0809,634.0378 L1257.4793,643.9981 L1256.0709,653.9585 L1256.9256,663.9188 L1257.2872,673.8791 L1255.8701,683.8395 L1256.3722,693.7998 L1256.668,703.7602 L1257.369,713.7205 L1256.4944,723.6809 L1257.1168,733.6412 L1256.5,743.6016 " fill="none" style="stroke:#181818;stroke-width:0.5;stroke-dasharray:5.0,5.0;"/><text fill="#000000" font-family="FG Virgil" font-size="14" lengthAdjust="spacing" textLength="56" x="5" y="83.1426">Manager</text><polygon fill="#E3E3E3" points="44.0442,19.0553,42.8715,20.6576,41.4845,23.0044,39.5008,24.586,37.4163,25.4509,35.7542,25.526,33.618,24.4443,31.6023,23.7377,30.0724,22.303,29.2699,20.6605,28.7939,19.3527,28.3277,17.6444,27.5709,16.1744,28.1525,14.7392,28.662,13.167,30.574,11.9235,31.9192,10.3102,33.5843,9.7744,35.5637,9.313,38.1021,9.5872,39.4924,10.2429,41.1089,10.5401,43.0743,12.5537,43.7595,14.6795,44.0571,16.13,43.72,18.5202" style="stroke:#181818;stroke-width:0.5;"/><path d="M36,25.1094 L36.1868,25.1094 L35.6317,30.5094 L36.1718,35.9094 L36.3553,41.3094 L35.3659,46.7094 L36,52.1094 M23,33.1094 L23,33.0403 L28.2,32.7303 L33.4,32.7685 L38.6,33.0488 L43.8,32.4948 L49,33.1094 M36,52.1094 L36.3719,52.4317 L32.9766,54.7425 L30.6672,57.9942 L28.4901,61.3608 L25.5424,64.0594 L23,67.1094 M36,52.1094 L36.0458,52.1491 L38.5785,55.0908 L41.3199,58.2133 L43.9606,61.2486 L46.7934,64.4503 L49,67.1094 " fill="none" style="stroke:#181818;stroke-width:0.5;"/><text fill="#000000" font-family="FG Virgil" font-size="14" lengthAdjust="spacing" textLength="56" x="5" y="757.1348">Manager</text><polygon fill="#E3E3E3" points="44.0442,770.6569,42.8715,772.2592,41.4845,774.606,39.5008,776.1876,37.4163,777.0525,35.7542,777.1275,33.618,776.0459,31.6023,775.3392,30.0724,773.9045,29.2699,772.262,28.7939,770.9542,28.3277,769.246,27.5709,767.776,28.1525,766.3408,28.662,764.7686,30.574,763.5251,31.9192,761.9117,33.5843,761.376,35.5637,760.9146,38.1021,761.1887,39.4924,761.8444,41.1089,762.1416,43.0743,764.1553,43.7595,766.2811,44.0571,767.7316,43.72,770.1218" style="stroke:#181818;stroke-width:0.5;"/><path d="M36,776.7109 L36.1868,776.7109 L35.6317,782.1109 L36.1718,787.5109 L36.3553,792.9109 L35.3659,798.3109 L36,803.7109 M23,784.7109 L23,784.6419 L28.2,784.3318 L33.4,784.37 L38.6,784.6504 L43.8,784.0964 L49,784.7109 M36,803.7109 L36.3719,804.0332 L32.9766,806.344 L30.6672,809.5958 L28.4901,812.9624 L25.5424,815.661 L23,818.7109 M36,803.7109 L36.0458,803.7507 L38.5785,806.6923 L41.3199,809.8149 L43.9606,812.8502 L46.7934,816.0519 L49,818.7109 " fill="none" style="stroke:#181818;stroke-width:0.5;"/><polygon fill="#E3E3E3" points="117.5,36,117.5,36.2102,127.7308,35.5857,137.9615,36.1933,148.1923,36.3997,158.4231,35.2866,168.6538,35.9223,178.8846,35.5735,189.1154,35.6165,199.3462,35.9318,209.5769,35.3086,219.8077,36.5536,230.0385,35.3697,240.2692,35.8022,250.5,36,250.5551,36.133,250.8426,36.12,251.2158,36.3139,251.5566,36.4295,251.937,36.6408,252.2678,36.7322,252.3414,36.7627,252.5946,37.1605,252.7673,37.5249,252.9163,37.8795,252.932,38.1789,253,38.5,253.1545,38.5,253.2341,47.3438,252.7596,56.1875,253.2262,65.0313,252.9012,73.875,253,82.7188,253.1644,82.7868,252.7011,83.0092,252.686,83.4171,252.789,83.874,252.3992,84.1267,252.2678,84.4865,252.2812,84.5189,251.9574,84.7372,251.6138,84.9076,251.2066,84.9247,250.8902,85.1608,250.5,85.2188,250.5,84.6463,240.2692,85.5031,230.0385,85.7669,219.8077,85.6633,209.5769,85.8318,199.3462,84.7357,189.1154,84.5666,178.8846,84.5973,168.6538,85.1599,158.4231,85.0222,148.1923,85.9002,137.9615,85.0441,127.7308,84.8757,117.5,85.2188,117.5291,85.289,117.0614,84.8669,116.7267,84.766,116.5221,84.9793,116.1414,84.7671,115.7322,84.4865,115.9584,84.5802,115.4867,84.0919,115.5376,83.8201,115.4747,83.5012,115.001,83.012,115,82.7188,114.968,82.7188,115.042,73.875,115.2173,65.0313,114.9986,56.1875,115.1542,47.3438,115,38.5,114.8295,38.4294,114.9379,38.0601,115.448,37.8571,115.2186,37.3479,115.7425,37.1507,115.7322,36.7322,115.7586,36.7959,116.0516,36.5033,116.3942,36.3304,116.8514,36.4342,117.1083,36.0543,117.5,36" style="stroke:#181818;stroke-width:0.5;"/><text fill="#000000" font-family="FG Virgil" font-size="14" font-style="italic" lengthAdjust="spacing" textLength="95" x="136.5" y="57.5332">«presentation»</text><text fill="#000000" font-family="FG Virgil" font-size="14" lengthAdjust="spacing" textLength="124" x="122" y="75.1426">ChangeUserStateUI</text><polygon fill="#E3E3E3" points="117.5,742.6016,117.5,742.8117,127.7308,742.1872,137.9615,742.7948,148.1923,743.0012,158.4231,741.8882,168.6538,742.5238,178.8846,742.1751,189.1154,742.2181,199.3462,742.5334,209.5769,741.9102,219.8077,743.1552,230.0385,741.9713,240.2692,742.4038,250.5,742.6016,250.5551,742.7346,250.8426,742.7216,251.2158,742.9155,251.5566,743.0311,251.937,743.2423,252.2678,743.3338,252.3414,743.3643,252.5946,743.7621,252.7673,744.1265,252.9163,744.4811,252.932,744.7805,253,745.1016,253.1545,745.1016,253.2341,753.9453,252.7596,762.7891,253.2262,771.6328,252.9012,780.4766,253,789.3203,253.1644,789.3884,252.7011,789.6107,252.686,790.0187,252.789,790.4756,252.3992,790.7283,252.2678,791.0881,252.2812,791.1205,251.9574,791.3388,251.6138,791.5092,251.2066,791.5262,250.8902,791.7623,250.5,791.8203,250.5,791.2479,240.2692,792.1047,230.0385,792.3685,219.8077,792.2648,209.5769,792.4333,199.3462,791.3372,189.1154,791.1681,178.8846,791.1989,168.6538,791.7614,158.4231,791.6238,148.1923,792.5017,137.9615,791.6456,127.7308,791.4773,117.5,791.8203,117.5291,791.8906,117.0614,791.4685,116.7267,791.3675,116.5221,791.5808,116.1414,791.3687,115.7322,791.0881,115.9584,791.1818,115.4867,790.6935,115.5376,790.4217,115.4747,790.1027,115.001,789.6136,115,789.3203,114.968,789.3203,115.042,780.4766,115.2173,771.6328,114.9986,762.7891,115.1542,753.9453,115,745.1016,114.8295,745.0309,114.9379,744.6616,115.448,744.4587,115.2186,743.9494,115.7425,743.7523,115.7322,743.3338,115.7586,743.3974,116.0516,743.1048,116.3942,742.932,116.8514,743.0357,117.1083,742.6558,117.5,742.6016" style="stroke:#181818;stroke-width:0.5;"/><text fill="#000000" font-family="FG Virgil" font-size="14" font-style="italic" lengthAdjust="spacing" textLength="95" x="136.5" y="764.1348">«presentation»</text><text fill="#000000" font-family="FG Virgil" font-size="14" lengthAdjust="spacing" textLength="124" x="122" y="781.7441">ChangeUserStateUI</text><polygon fill="#E3E3E3" points="274.5,36,274.5,36.2102,284.6667,35.5857,294.8333,36.1933,305,36.3997,315.1667,35.2866,325.3333,35.9223,335.5,35.5735,345.6667,35.6165,355.8333,35.9318,366,35.3086,376.1667,36.5536,386.3333,35.3697,396.5,35.8022,406.6667,36.4319,416.8333,35.9142,427,36.0682,437.1667,35.9681,447.3333,36.1785,457.5,36,457.5305,36.0736,457.9283,36.3268,458.2927,36.4996,458.6473,36.6485,458.9467,36.6642,459.2678,36.7322,459.4105,36.7914,459.6305,37.1754,459.3386,37.3473,459.9161,37.8794,459.7622,38.1086,460,38.5,460.1779,38.5,459.835,47.3438,459.9772,56.1875,460.2472,65.0313,459.9838,73.875,460,82.7188,460.0324,82.7322,459.9578,83.1155,459.8353,83.479,459.5595,83.7789,459.5027,84.1696,459.2678,84.4865,459.1947,84.3102,458.9505,84.7205,458.6306,84.9482,458.2638,85.0628,457.9318,85.2611,457.5,85.2188,457.5,84.7357,447.3333,84.5666,437.1667,84.5973,427,85.1599,416.8333,85.0222,406.6667,85.9002,396.5,85.0441,386.3333,84.8757,376.1667,85.447,366,84.5519,355.8333,84.6996,345.6667,85.8677,335.5,85.6544,325.3333,85.9532,315.1667,84.897,305,85.5379,294.8333,85.8092,284.6667,84.7463,274.5,85.2188,274.4878,85.1892,274.1625,85.1111,273.876,85.1266,273.4388,84.7781,273.1448,84.7754,272.7322,84.4865,272.5617,84.4159,272.3772,84.0466,272.5944,83.8437,272.0721,83.3344,272.3032,83.1372,272,82.7188,272.0689,82.7188,271.9107,73.875,271.8821,65.0313,272.1529,56.1875,271.9002,47.3438,272,38.5,272.1823,38.5755,271.9762,38.0759,272.483,37.8717,272.5885,37.5011,272.6612,37.117,272.7322,36.7322,272.7383,36.7468,273.1785,36.8096,273.5176,36.6283,273.8145,36.345,274.1807,36.229,274.5,36" style="stroke:#181818;stroke-width:0.5;"/><text fill="#000000" font-family="FG Virgil" font-size="14" font-style="italic" lengthAdjust="spacing" textLength="84" x="324" y="57.5332">«application»</text><text fill="#000000" font-family="FG Virgil" font-size="14" lengthAdjust="spacing" textLength="174" x="279" y="75.1426">ChangeUserStateController</text><polygon fill="#E3E3E3" points="274.5,742.6016,274.5,742.8117,284.6667,742.1872,294.8333,742.7948,305,743.0012,315.1667,741.8882,325.3333,742.5238,335.5,742.1751,345.6667,742.2181,355.8333,742.5334,366,741.9102,376.1667,743.1552,386.3333,741.9713,396.5,742.4038,406.6667,743.0335,416.8333,742.5158,427,742.6698,437.1667,742.5696,447.3333,742.7801,457.5,742.6016,457.5305,742.6752,457.9283,742.9284,458.2927,743.1011,458.6473,743.2501,458.9467,743.2658,459.2678,743.3338,459.4105,743.3929,459.6305,743.7769,459.3386,743.9489,459.9161,744.481,459.7622,744.7102,460,745.1016,460.1779,745.1016,459.835,753.9453,459.9772,762.7891,460.2472,771.6328,459.9838,780.4766,460,789.3203,460.0324,789.3337,459.9578,789.7171,459.8353,790.0805,459.5595,790.3805,459.5027,790.7712,459.2678,791.0881,459.1947,790.9118,458.9505,791.3221,458.6306,791.5498,458.2638,791.6643,457.9318,791.8627,457.5,791.8203,457.5,791.3372,447.3333,791.1681,437.1667,791.1989,427,791.7614,416.8333,791.6238,406.6667,792.5017,396.5,791.6456,386.3333,791.4773,376.1667,792.0486,366,791.1535,355.8333,791.3012,345.6667,792.4693,335.5,792.256,325.3333,792.5548,315.1667,791.4985,305,792.1395,294.8333,792.4107,284.6667,791.3479,274.5,791.8203,274.4878,791.7908,274.1625,791.7127,273.876,791.7281,273.4388,791.3797,273.1448,791.377,272.7322,791.0881,272.5617,791.0174,272.3772,790.6481,272.5944,790.4452,272.0721,789.936,272.3032,789.7388,272,789.3203,272.0689,789.3203,271.9107,780.4766,271.8821,771.6328,272.1529,762.7891,271.9002,753.9453,272,745.1016,272.1823,745.1771,271.9762,744.6775,272.483,744.4732,272.5885,744.1027,272.6612,743.7186,272.7322,743.3338,272.7383,743.3483,273.1785,743.4111,273.5176,743.2299,273.8145,742.9466,274.1807,742.8306,274.5,742.6016" style="stroke:#181818;stroke-width:0.5;"/><text fill="#000000" font-family="FG Virgil" font-size="14" font-style="italic" lengthAdjust="spacing" textLength="84" x="324" y="764.1348">«application»</text><text fill="#000000" font-family="FG Virgil" font-size="14" lengthAdjust="spacing" textLength="174" x="279" y="781.7441">ChangeUserStateController</text><polygon fill="#E3E3E3" points="472.5,36,472.5,36.2102,482.1,35.5857,491.7,36.1933,501.3,36.3997,510.9,35.2866,520.5,35.9223,530.1,35.5735,539.7,35.6165,549.3,35.9318,558.9,35.3086,568.5,36,568.5706,36.1705,568.7732,35.9523,569.1819,36.232,569.6158,36.5724,569.9033,36.5594,570.2678,36.7322,570.2888,36.7409,570.4044,37.0817,570.6156,37.4621,570.7808,37.8234,571.0339,38.2212,571,38.5,571.2237,38.5,571.2264,47.3438,571.0849,56.1875,571.1545,65.0313,571.2341,73.875,571,82.7188,570.7779,82.6268,571.0625,83.1589,570.6158,83.388,570.7251,83.8475,570.2618,84.0698,570.2678,84.4865,570.259,84.4654,570.0088,84.8613,569.5544,84.7644,569.2205,84.9583,568.8967,85.1766,568.5,85.2188,568.5,85.635,558.9,85.2148,549.3,85.506,539.7,84.6463,530.1,85.5031,520.5,85.7669,510.9,85.6633,501.3,85.8318,491.7,84.7357,482.1,84.5666,472.5,85.2188,472.4207,85.0274,472.1389,85.0542,471.7678,84.8653,471.5263,84.9893,471.0635,84.5792,470.7322,84.4865,470.6266,84.4428,470.6561,84.1621,470.234,83.6943,470.133,83.3596,470.3463,83.1551,470,82.7188,470.1452,82.7188,470.2448,73.875,469.8927,65.0313,470.1064,56.1875,470.1968,47.3438,470,38.5,469.8545,38.4397,470.1169,38.1342,470.3317,37.809,470.6401,37.5225,470.5845,37.0853,470.7322,36.7322,470.7912,36.8747,471.0151,36.4152,471.3529,36.2308,471.8571,36.448,472.055,35.9257,472.5,36" style="stroke:#181818;stroke-width:0.5;"/><text fill="#000000" font-family="FG Virgil" font-size="14" font-style="italic" lengthAdjust="spacing" textLength="34" x="503.5" y="57.5332">«util»</text><text fill="#000000" font-family="FG Virgil" font-size="14" lengthAdjust="spacing" textLength="87" x="477" y="75.1426">AuthzRegistry</text><polygon fill="#E3E3E3" points="472.5,742.6016,472.5,742.8117,482.1,742.1872,491.7,742.7948,501.3,743.0012,510.9,741.8882,520.5,742.5238,530.1,742.1751,539.7,742.2181,549.3,742.5334,558.9,741.9102,568.5,742.6016,568.5706,742.7721,568.7732,742.5539,569.1819,742.8336,569.6158,743.1739,569.9033,743.1609,570.2678,743.3338,570.2888,743.3425,570.4044,743.6833,570.6156,744.0637,570.7808,744.425,571.0339,744.8227,571,745.1016,571.2237,745.1016,571.2264,753.9453,571.0849,762.7891,571.1545,771.6328,571.2341,780.4766,571,789.3203,570.7779,789.2283,571.0625,789.7604,570.6158,789.9896,570.7251,790.4491,570.2618,790.6714,570.2678,791.0881,570.259,791.067,570.0088,791.4629,569.5544,791.366,569.2205,791.5598,568.8967,791.7781,568.5,791.8203,568.5,792.2365,558.9,791.8164,549.3,792.1075,539.7,791.2479,530.1,792.1047,520.5,792.3685,510.9,792.2648,501.3,792.4333,491.7,791.3372,482.1,791.1681,472.5,791.8203,472.4207,791.6289,472.1389,791.6557,471.7678,791.4669,471.5263,791.5908,471.0635,791.1807,470.7322,791.0881,470.6266,791.0443,470.6561,790.7636,470.234,790.2959,470.133,789.9612,470.3463,789.7566,470,789.3203,470.1452,789.3203,470.2448,780.4766,469.8927,771.6328,470.1064,762.7891,470.1968,753.9453,470,745.1016,469.8545,745.0413,470.1169,744.7358,470.3317,744.4105,470.6401,744.124,470.5845,743.6868,470.7322,743.3338,470.7912,743.4762,471.0151,743.0168,471.3529,742.8323,471.8571,743.0495,472.055,742.5272,472.5,742.6016" style="stroke:#181818;stroke-width:0.5;"/><text fill="#000000" font-family="FG Virgil" font-size="14" font-style="italic" lengthAdjust="spacing" textLength="34" x="503.5" y="764.1348">«util»</text><text fill="#000000" font-family="FG Virgil" font-size="14" lengthAdjust="spacing" textLength="87" x="477" y="781.7441">AuthzRegistry</text><polygon fill="#E3E3E3" points="683,36,683,36.2102,692.8571,35.5857,702.7143,36.1933,712.5714,36.3997,722.4286,35.2866,732.2857,35.9223,742.1429,35.5735,752,35.6165,761.8571,35.9318,771.7143,35.3086,781.5714,36.5536,791.4286,35.3697,801.2857,35.8022,811.1429,36.4319,821,36,820.9891,35.9736,821.3623,36.1675,821.703,36.2831,822.0834,36.4943,822.4447,36.6594,822.7678,36.7322,822.9481,36.8069,823.1209,37.1714,823.2698,37.526,823.2855,37.8254,823.4963,38.2056,823.5,38.5,823.7341,38.5,823.2596,47.3438,823.7262,56.1875,823.4012,65.0313,823.6779,73.875,823.5,82.7188,823.3476,82.6556,823.3325,83.0636,823.4355,83.5205,823.0457,83.7732,822.9466,84.1464,822.7678,84.4865,822.811,84.5908,822.4673,84.7611,822.0602,84.7782,821.7437,85.0143,821.2805,84.896,821,85.2188,821,85.5031,811.1429,85.7669,801.2857,85.6633,791.4286,85.8318,781.5714,84.7357,771.7143,84.5666,761.8571,84.5973,752,85.1599,742.1429,85.0222,732.2857,85.9002,722.4286,85.0441,712.5714,84.8757,702.7143,85.447,692.8571,84.5519,683,85.2188,682.9338,85.0589,682.7292,85.2722,682.3485,85.06,682.033,85.0056,681.5447,84.5339,681.2322,84.4865,681.3305,84.5272,681.2676,84.2083,680.7939,83.7191,680.7634,83.4136,680.6852,83.0884,680.5,82.7188,680.7173,82.7188,680.4986,73.875,680.6542,65.0313,680.3154,56.1875,680.2742,47.3438,680.5,38.5,680.6551,38.5642,680.4257,38.055,680.9496,37.8578,681.003,37.4657,681.0033,37.0516,681.2322,36.7322,681.1871,36.6233,681.6443,36.7271,681.9012,36.3472,682.3684,36.4752,682.5759,35.9762,683,36" style="stroke:#181818;stroke-width:0.5;"/><text fill="#000000" font-family="FG Virgil" font-size="14" font-style="italic" lengthAdjust="spacing" textLength="60" x="722" y="57.5332">«service»</text><text fill="#000000" font-family="FG Virgil" font-size="14" lengthAdjust="spacing" textLength="129" x="687.5" y="75.1426">AuthorizationService</text><polygon fill="#E3E3E3" points="683,742.6016,683,742.8117,692.8571,742.1872,702.7143,742.7948,712.5714,743.0012,722.4286,741.8882,732.2857,742.5238,742.1429,742.1751,752,742.2181,761.8571,742.5334,771.7143,741.9102,781.5714,743.1552,791.4286,741.9713,801.2857,742.4038,811.1429,743.0335,821,742.6016,820.9891,742.5751,821.3623,742.769,821.703,742.8846,822.0834,743.0959,822.4447,743.261,822.7678,743.3338,822.9481,743.4085,823.1209,743.7729,823.2698,744.1275,823.2855,744.4269,823.4963,744.8071,823.5,745.1016,823.7341,745.1016,823.2596,753.9453,823.7262,762.7891,823.4012,771.6328,823.6779,780.4766,823.5,789.3203,823.3476,789.2572,823.3325,789.6651,823.4355,790.122,823.0457,790.3748,822.9466,790.748,822.7678,791.0881,822.811,791.1924,822.4673,791.3627,822.0602,791.3798,821.7437,791.6159,821.2805,791.4976,821,791.8203,821,792.1047,811.1429,792.3685,801.2857,792.2648,791.4286,792.4333,781.5714,791.3372,771.7143,791.1681,761.8571,791.1989,752,791.7614,742.1429,791.6238,732.2857,792.5017,722.4286,791.6456,712.5714,791.4773,702.7143,792.0486,692.8571,791.1535,683,791.8203,682.9338,791.6604,682.7292,791.8737,682.3485,791.6616,682.033,791.6072,681.5447,791.1354,681.2322,791.0881,681.3305,791.1288,681.2676,790.8098,680.7939,790.3207,680.7634,790.0152,680.6852,789.6899,680.5,789.3203,680.7173,789.3203,680.4986,780.4766,680.6542,771.6328,680.3154,762.7891,680.2742,753.9453,680.5,745.1016,680.6551,745.1658,680.4257,744.6566,680.9496,744.4594,681.003,744.0673,681.0033,743.6532,681.2322,743.3338,681.1871,743.2248,681.6443,743.3286,681.9012,742.9487,682.3684,743.0767,682.5759,742.5778,683,742.6016" style="stroke:#181818;stroke-width:0.5;"/><text fill="#000000" font-family="FG Virgil" font-size="14" font-style="italic" lengthAdjust="spacing" textLength="60" x="722" y="764.1348">«service»</text><text fill="#000000" font-family="FG Virgil" font-size="14" lengthAdjust="spacing" textLength="129" x="687.5" y="781.7441">AuthorizationService</text><polygon fill="#E3E3E3" points="836,36,836,36.2102,846.1429,35.5857,856.2857,36.1933,866.4286,36.3997,876.5714,35.2866,886.7143,35.9223,896.8571,35.5735,907,36,906.9511,35.8819,907.3449,36.1255,907.6189,36.08,908.1313,36.6098,908.3338,36.3917,908.7678,36.7322,908.7069,36.707,909.0472,37.1409,909.0342,37.4284,909.2281,37.8016,909.3437,38.1424,909.5,38.5,909.5595,38.5,909.5797,47.3438,909.6952,56.1875,909.7237,65.0313,909.7264,73.875,909.5,82.7188,909.5784,82.7512,909.4963,83.1314,909.4234,83.5154,908.8386,83.6874,909.1232,84.2195,908.7678,84.4865,908.7299,84.3952,908.4823,84.7974,907.9975,84.627,907.6984,84.9048,907.4482,85.3007,907,85.2188,907,85.17,896.8571,85.3241,886.7143,85.5574,876.5714,85.635,866.4286,85.2148,856.2857,85.506,846.1429,84.6463,836,85.2188,836.0363,85.3063,835.7164,85.2411,835.3496,85.0628,835.0175,84.9682,834.5242,84.4842,834.2322,84.4865,834.0314,84.4033,833.8944,84.0537,833.9212,83.7719,833.7324,83.4008,833.8563,83.1592,833.5,82.7188,833.4418,82.7188,833.3856,73.875,833.5761,65.0313,833.2777,56.1875,833.327,47.3438,833.5,38.5,833.6999,38.5828,833.7806,38.202,834.0191,37.8866,833.8402,37.3983,834.1841,37.1265,834.2322,36.7322,834.3075,36.9141,834.5255,36.4403,834.9271,36.4098,835.309,36.3317,835.7296,36.3472,836,36" style="stroke:#181818;stroke-width:0.5;"/><text fill="#000000" font-family="FG Virgil" font-size="14" font-style="italic" lengthAdjust="spacing" textLength="62" x="840.5" y="57.5332">«domain»</text><text fill="#000000" font-family="FG Virgil" font-size="14" lengthAdjust="spacing" textLength="61" x="841" y="75.1426">user:User</text><polygon fill="#E3E3E3" points="836,742.6016,836,742.8117,846.1429,742.1872,856.2857,742.7948,866.4286,743.0012,876.5714,741.8882,886.7143,742.5238,896.8571,742.1751,907,742.6016,906.9511,742.4835,907.3449,742.727,907.6189,742.6815,908.1313,743.2114,908.3338,742.9932,908.7678,743.3338,908.7069,743.3086,909.0472,743.7424,909.0342,744.03,909.2281,744.4032,909.3437,744.7439,909.5,745.1016,909.5595,745.1016,909.5797,753.9453,909.6952,762.7891,909.7237,771.6328,909.7264,780.4766,909.5,789.3203,909.5784,789.3528,909.4963,789.733,909.4234,790.117,908.8386,790.289,909.1232,790.8211,908.7678,791.0881,908.7299,790.9968,908.4823,791.3989,907.9975,791.2285,907.6984,791.5063,907.4482,791.9023,907,791.8203,907,791.7716,896.8571,791.9256,886.7143,792.1589,876.5714,792.2365,866.4286,791.8164,856.2857,792.1075,846.1429,791.2479,836,791.8203,836.0363,791.9079,835.7164,791.8427,835.3496,791.6643,835.0175,791.5698,834.5242,791.0858,834.2322,791.0881,834.0314,791.0049,833.8944,790.6553,833.9212,790.3735,833.7324,790.0023,833.8563,789.7608,833.5,789.3203,833.4418,789.3203,833.3856,780.4766,833.5761,771.6328,833.2777,762.7891,833.327,753.9453,833.5,745.1016,833.6999,745.1843,833.7806,744.8036,834.0191,744.4881,833.8402,743.9999,834.1841,743.7281,834.2322,743.3338,834.3075,743.5156,834.5255,743.0419,834.9271,743.0114,835.309,742.9333,835.7296,742.9487,836,742.6016" style="stroke:#181818;stroke-width:0.5;"/><text fill="#000000" font-family="FG Virgil" font-size="14" font-style="italic" lengthAdjust="spacing" textLength="62" x="840.5" y="764.1348">«domain»</text><text fill="#000000" font-family="FG Virgil" font-size="14" lengthAdjust="spacing" textLength="61" x="841" y="781.7441">user:User</text><polygon fill="#E3E3E3" points="922,36,922,36.2102,932.0769,35.5857,942.1538,36.1933,952.2308,36.3997,962.3077,35.2866,972.3846,35.9223,982.4615,35.5735,992.5385,35.6165,1002.6154,35.9318,1012.6923,35.3086,1022.7692,36.5536,1032.8462,35.3697,1042.9231,35.8022,1053,36,1053.0551,36.133,1053.3426,36.12,1053.7158,36.3139,1054.0566,36.4295,1054.437,36.6408,1054.7678,36.7322,1054.8414,36.7627,1055.0946,37.1605,1055.2673,37.5249,1055.4163,37.8795,1055.432,38.1789,1055.5,38.5,1055.6545,38.5,1055.7341,47.3438,1055.2596,56.1875,1055.7262,65.0313,1055.4012,73.875,1055.5,82.7188,1055.6644,82.7868,1055.2011,83.0092,1055.186,83.4171,1055.289,83.874,1054.8992,84.1267,1054.7678,84.4865,1054.7812,84.5189,1054.4574,84.7372,1054.1138,84.9076,1053.7066,84.9247,1053.3902,85.1608,1053,85.2188,1053,84.6463,1042.9231,85.5031,1032.8462,85.7669,1022.7692,85.6633,1012.6923,85.8318,1002.6154,84.7357,992.5385,84.5666,982.4615,84.5973,972.3846,85.1599,962.3077,85.0222,952.2308,85.9002,942.1538,85.0441,932.0769,84.8757,922,85.2188,922.0291,85.289,921.5614,84.8669,921.2267,84.766,921.0221,84.9793,920.6414,84.7671,920.2322,84.4865,920.4584,84.5802,919.9867,84.0919,920.0376,83.8201,919.9747,83.5012,919.501,83.012,919.5,82.7188,919.468,82.7188,919.542,73.875,919.7173,65.0313,919.4986,56.1875,919.6542,47.3438,919.5,38.5,919.3295,38.4294,919.4379,38.0601,919.948,37.8571,919.7186,37.3479,920.2425,37.1507,920.2322,36.7322,920.2586,36.7959,920.5516,36.5033,920.8942,36.3304,921.3514,36.4342,921.6083,36.0543,922,36" style="stroke:#181818;stroke-width:0.5;"/><text fill="#000000" font-family="FG Virgil" font-size="14" font-style="italic" lengthAdjust="spacing" textLength="89" x="943" y="57.5332">«persistence»</text><text fill="#000000" font-family="FG Virgil" font-size="14" lengthAdjust="spacing" textLength="122" x="926.5" y="75.1426">PersistenceContext</text><polygon fill="#E3E3E3" points="922,742.6016,922,742.8117,932.0769,742.1872,942.1538,742.7948,952.2308,743.0012,962.3077,741.8882,972.3846,742.5238,982.4615,742.1751,992.5385,742.2181,1002.6154,742.5334,1012.6923,741.9102,1022.7692,743.1552,1032.8462,741.9713,1042.9231,742.4038,1053,742.6016,1053.0551,742.7346,1053.3426,742.7216,1053.7158,742.9155,1054.0566,743.0311,1054.437,743.2423,1054.7678,743.3338,1054.8414,743.3643,1055.0946,743.7621,1055.2673,744.1265,1055.4163,744.4811,1055.432,744.7805,1055.5,745.1016,1055.6545,745.1016,1055.7341,753.9453,1055.2596,762.7891,1055.7262,771.6328,1055.4012,780.4766,1055.5,789.3203,1055.6644,789.3884,1055.2011,789.6107,1055.186,790.0187,1055.289,790.4756,1054.8992,790.7283,1054.7678,791.0881,1054.7812,791.1205,1054.4574,791.3388,1054.1138,791.5092,1053.7066,791.5262,1053.3902,791.7623,1053,791.8203,1053,791.2479,1042.9231,792.1047,1032.8462,792.3685,1022.7692,792.2648,1012.6923,792.4333,1002.6154,791.3372,992.5385,791.1681,982.4615,791.1989,972.3846,791.7614,962.3077,791.6238,952.2308,792.5017,942.1538,791.6456,932.0769,791.4773,922,791.8203,922.0291,791.8906,921.5614,791.4685,921.2267,791.3675,921.0221,791.5808,920.6414,791.3687,920.2322,791.0881,920.4584,791.1818,919.9867,790.6935,920.0376,790.4217,919.9747,790.1027,919.501,789.6136,919.5,789.3203,919.468,789.3203,919.542,780.4766,919.7173,771.6328,919.4986,762.7891,919.6542,753.9453,919.5,745.1016,919.3295,745.0309,919.4379,744.6616,919.948,744.4587,919.7186,743.9494,920.2425,743.7523,920.2322,743.3338,920.2586,743.3974,920.5516,743.1048,920.8942,742.932,921.3514,743.0357,921.6083,742.6558,922,742.6016" style="stroke:#181818;stroke-width:0.5;"/><text fill="#000000" font-family="FG Virgil" font-size="14" font-style="italic" lengthAdjust="spacing" textLength="89" x="943" y="764.1348">«persistence»</text><text fill="#000000" font-family="FG Virgil" font-size="14" lengthAdjust="spacing" textLength="122" x="926.5" y="781.7441">PersistenceContext</text><polygon fill="#E3E3E3" points="1068,36,1068,36.2102,1077.6154,35.5857,1087.2308,36.1933,1096.8462,36.3997,1106.4615,35.2866,1116.0769,35.9223,1125.6923,35.5735,1135.3077,35.6165,1144.9231,35.9318,1154.5385,35.3086,1164.1538,36.5536,1173.7692,35.3697,1183.3846,35.8022,1193,36,1193.0551,36.133,1193.3426,36.12,1193.7158,36.3139,1194.0566,36.4295,1194.437,36.6408,1194.7678,36.7322,1194.8414,36.7627,1195.0946,37.1605,1195.2673,37.5249,1195.4163,37.8795,1195.432,38.1789,1195.5,38.5,1195.6545,38.5,1195.7341,47.3438,1195.2596,56.1875,1195.7262,65.0313,1195.4012,73.875,1195.5,82.7188,1195.6644,82.7868,1195.2011,83.0092,1195.186,83.4171,1195.289,83.874,1194.8992,84.1267,1194.7678,84.4865,1194.7812,84.5189,1194.4574,84.7372,1194.1138,84.9076,1193.7066,84.9247,1193.3902,85.1608,1193,85.2188,1193,84.6463,1183.3846,85.5031,1173.7692,85.7669,1164.1538,85.6633,1154.5385,85.8318,1144.9231,84.7357,1135.3077,84.5666,1125.6923,84.5973,1116.0769,85.1599,1106.4615,85.0222,1096.8462,85.9002,1087.2308,85.0441,1077.6154,84.8757,1068,85.2188,1068.0291,85.289,1067.5614,84.8669,1067.2267,84.766,1067.0221,84.9793,1066.6414,84.7671,1066.2322,84.4865,1066.4584,84.5802,1065.9867,84.0919,1066.0376,83.8201,1065.9747,83.5012,1065.501,83.012,1065.5,82.7188,1065.468,82.7188,1065.542,73.875,1065.7173,65.0313,1065.4986,56.1875,1065.6542,47.3438,1065.5,38.5,1065.3295,38.4294,1065.4379,38.0601,1065.948,37.8571,1065.7186,37.3479,1066.2425,37.1507,1066.2322,36.7322,1066.2586,36.7959,1066.5516,36.5033,1066.8942,36.3304,1067.3514,36.4342,1067.6083,36.0543,1068,36" style="stroke:#181818;stroke-width:0.5;"/><text fill="#000000" font-family="FG Virgil" font-size="14" font-style="italic" lengthAdjust="spacing" textLength="59" x="1101" y="57.5332">«factory»</text><text fill="#000000" font-family="FG Virgil" font-size="14" lengthAdjust="spacing" textLength="116" x="1072.5" y="75.1426">RepositoryFactory</text><polygon fill="#E3E3E3" points="1068,742.6016,1068,742.8117,1077.6154,742.1872,1087.2308,742.7948,1096.8462,743.0012,1106.4615,741.8882,1116.0769,742.5238,1125.6923,742.1751,1135.3077,742.2181,1144.9231,742.5334,1154.5385,741.9102,1164.1538,743.1552,1173.7692,741.9713,1183.3846,742.4038,1193,742.6016,1193.0551,742.7346,1193.3426,742.7216,1193.7158,742.9155,1194.0566,743.0311,1194.437,743.2423,1194.7678,743.3338,1194.8414,743.3643,1195.0946,743.7621,1195.2673,744.1265,1195.4163,744.4811,1195.432,744.7805,1195.5,745.1016,1195.6545,745.1016,1195.7341,753.9453,1195.2596,762.7891,1195.7262,771.6328,1195.4012,780.4766,1195.5,789.3203,1195.6644,789.3884,1195.2011,789.6107,1195.186,790.0187,1195.289,790.4756,1194.8992,790.7283,1194.7678,791.0881,1194.7812,791.1205,1194.4574,791.3388,1194.1138,791.5092,1193.7066,791.5262,1193.3902,791.7623,1193,791.8203,1193,791.2479,1183.3846,792.1047,1173.7692,792.3685,1164.1538,792.2648,1154.5385,792.4333,1144.9231,791.3372,1135.3077,791.1681,1125.6923,791.1989,1116.0769,791.7614,1106.4615,791.6238,1096.8462,792.5017,1087.2308,791.6456,1077.6154,791.4773,1068,791.8203,1068.0291,791.8906,1067.5614,791.4685,1067.2267,791.3675,1067.0221,791.5808,1066.6414,791.3687,1066.2322,791.0881,1066.4584,791.1818,1065.9867,790.6935,1066.0376,790.4217,1065.9747,790.1027,1065.501,789.6136,1065.5,789.3203,1065.468,789.3203,1065.542,780.4766,1065.7173,771.6328,1065.4986,762.7891,1065.6542,753.9453,1065.5,745.1016,1065.3295,745.0309,1065.4379,744.6616,1065.948,744.4587,1065.7186,743.9494,1066.2425,743.7523,1066.2322,743.3338,1066.2586,743.3974,1066.5516,743.1048,1066.8942,742.932,1067.3514,743.0357,1067.6083,742.6558,1068,742.6016" style="stroke:#181818;stroke-width:0.5;"/><text fill="#000000" font-family="FG Virgil" font-size="14" font-style="italic" lengthAdjust="spacing" textLength="59" x="1101" y="764.1348">«factory»</text><text fill="#000000" font-family="FG Virgil" font-size="14" lengthAdjust="spacing" textLength="116" x="1072.5" y="781.7441">RepositoryFactory</text><text fill="#000000" font-family="FG Virgil" font-size="14" font-style="italic" lengthAdjust="spacing" textLength="79" x="1214.5" y="65.5332">«repository»</text><text fill="#000000" font-family="FG Virgil" font-size="14" lengthAdjust="spacing" textLength="97" x="1205.5" y="83.1426">UserRepository</text><path d="M1239,15 L1239,15 L1239.0651,15.067 L1240.6716,13.118 L1242.6599,11.5616 L1244.5238,9.8774 L1245.979,7.7727 L1248,6.25 L1247.9952,6.2158 L1249.7739,5.8122 L1251.5766,5.5812 L1253.3958,5.47 L1255.1577,4.9456 L1257,5 L1257,5 L1257.0339,5.2437 L1258.7615,4.9725 L1260.5879,5.4129 L1262.4264,5.9402 L1264.1948,5.9622 L1266,6.25 L1266.0211,6.2717 L1267.7901,7.9898 L1269.6553,9.8069 L1271.4741,11.5762 L1273.3815,13.4366 L1275,15 L1275.5965,15 L1275.6038,20.2 L1275.2263,25.4 L1275.4121,30.6 L1275.6242,35.8 L1275,41 L1275,41 L1274.7766,40.7702 L1273.4102,42.9662 L1271.3081,44.4055 L1269.7654,46.4201 L1267.6466,47.8423 L1266,49.75 L1265.9958,49.7198 L1264.2453,50.3265 L1262.397,50.2285 L1260.6064,50.5464 L1258.8207,50.8991 L1257,51 L1257,51 L1257.0254,51.1832 L1255.1998,50.7483 L1253.4176,50.6264 L1251.565,49.998 L1249.8174,50.1252 L1248,49.75 L1248.1698,49.9247 L1246.3377,48.1417 L1244.5899,46.4453 L1242.4503,44.3461 L1240.5979,42.5422 L1239,41 L1238.4476,41 L1238.9477,35.8 L1238.8253,30.6 L1239.6057,25.4 L1238.8447,20.2 L1239,15 " fill="#E3E3E3" style="stroke:#181818;stroke-width:1.5;"/><path d="M1239,15 L1239,15 L1239.0651,15.067 L1240.6716,16.618 L1242.6599,18.5616 L1244.5238,20.3774 L1245.979,21.7727 L1248,23.75 L1247.9952,23.7158 L1249.7739,23.8122 L1251.5766,24.0812 L1253.3958,24.47 L1255.1577,24.4456 L1257,25 L1257,25 L1257.0339,25.2437 L1258.7615,24.4725 L1260.5879,24.4129 L1262.4264,24.4402 L1264.1948,23.9622 L1266,23.75 L1266.0211,23.7717 L1267.7901,21.9898 L1269.6553,20.3069 L1271.4741,18.5762 L1273.3815,16.9366 L1275,15 " fill="none" style="stroke:#181818;stroke-width:1.5;"/><text fill="#000000" font-family="FG Virgil" font-size="14" font-style="italic" lengthAdjust="spacing" textLength="79" x="1214.5" y="757.1348">«repository»</text><text fill="#000000" font-family="FG Virgil" font-size="14" lengthAdjust="spacing" textLength="97" x="1205.5" y="774.7441">UserRepository</text><path d="M1239,787.8203 L1239,787.8203 L1239.0651,787.8873 L1240.6716,785.9383 L1242.6599,784.3819 L1244.5238,782.6977 L1245.979,780.593 L1248,779.0703 L1247.9952,779.0361 L1249.7739,778.6326 L1251.5766,778.4015 L1253.3958,778.2903 L1255.1577,777.766 L1257,777.8203 L1257,777.8203 L1257.0339,778.064 L1258.7615,777.7929 L1260.5879,778.2333 L1262.4264,778.7605 L1264.1948,778.7826 L1266,779.0703 L1266.0211,779.0921 L1267.7901,780.8101 L1269.6553,782.6272 L1271.4741,784.3965 L1273.3815,786.257 L1275,787.8203 L1275.5965,787.8203 L1275.6038,793.0203 L1275.2263,798.2203 L1275.4121,803.4203 L1275.6242,808.6203 L1275,813.8203 L1275,813.8203 L1274.7766,813.5905 L1273.4102,815.7865 L1271.3081,817.2258 L1269.7654,819.2404 L1267.6466,820.6626 L1266,822.5703 L1265.9958,822.5402 L1264.2453,823.1468 L1262.397,823.0489 L1260.6064,823.3667 L1258.8207,823.7194 L1257,823.8203 L1257,823.8203 L1257.0254,824.0035 L1255.1998,823.5686 L1253.4176,823.4467 L1251.565,822.8183 L1249.8174,822.9455 L1248,822.5703 L1248.1698,822.745 L1246.3377,820.962 L1244.5899,819.2657 L1242.4503,817.1664 L1240.5979,815.3625 L1239,813.8203 L1238.4476,813.8203 L1238.9477,808.6203 L1238.8253,803.4203 L1239.6057,798.2203 L1238.8447,793.0203 L1239,787.8203 " fill="#E3E3E3" style="stroke:#181818;stroke-width:1.5;"/><path d="M1239,787.8203 L1239,787.8203 L1239.0651,787.8873 L1240.6716,789.4383 L1242.6599,791.3819 L1244.5238,793.1977 L1245.979,794.593 L1248,796.5703 L1247.9952,796.5361 L1249.7739,796.6326 L1251.5766,796.9015 L1253.3958,797.2903 L1255.1577,797.266 L1257,797.8203 L1257,797.8203 L1257.0339,798.064 L1258.7615,797.2929 L1260.5879,797.2333 L1262.4264,797.2605 L1264.1948,796.7826 L1266,796.5703 L1266.0211,796.5921 L1267.7901,794.8101 L1269.6553,793.1272 L1271.4741,791.3965 L1273.3815,789.757 L1275,787.8203 " fill="none" style="stroke:#181818;stroke-width:1.5;"/><polygon fill="#FFFFFF" points="179,118.5703,179,118.6404,181,118.4322,183,118.6347,185,118.7035,187,118.3325,189,118.5703,188.9223,118.5703,188.5735,128.5216,188.6165,138.473,188.9318,148.4243,188.3086,158.3756,189.5536,168.327,188.3697,178.2783,188.8022,188.2296,189.4319,198.181,188.9142,208.1323,189.0682,218.0836,188.9681,228.035,189.1785,237.9863,189.2391,247.9376,189.5857,257.889,189.6711,267.8403,189.6793,277.7916,189.2546,287.743,189.4636,297.6943,189.7022,307.6456,188.2788,317.597,189.6785,327.5483,188.7035,337.4996,189.5338,347.4509,188.505,357.4023,188.9315,367.3536,189.7416,377.3049,188.9513,387.2563,189.1053,397.2076,189.3386,407.1589,189.4162,417.1103,188.9961,427.0616,189.2872,437.0129,188.4276,446.9643,189.2844,456.9156,189.5482,466.8669,189.4445,476.8183,189.613,486.7696,188.5169,496.7209,188.3478,506.6723,188.3786,516.6236,188.9411,526.5749,188.8035,536.5263,189.6814,546.4776,188.8253,556.4289,188.6569,566.3803,189.2283,576.3316,188.3332,586.2829,188.4809,596.2342,189.649,606.1856,189.4357,616.1369,189.7345,626.0882,188.6782,636.0396,189.3192,645.9909,189.5904,655.9422,188.5276,665.8936,188.9041,675.8449,189.126,685.7962,189.6518,695.7476,188.9958,705.6989,189.4626,715.6502,189,725.6016,189,725.417,187,725.3758,185,725.7694,183,725.3626,181,725.7712,179,725.6016,179.2066,725.6016,178.7321,715.6502,178.6462,705.6989,179.4588,695.7476,178.7007,685.7962,179.5919,675.8449,178.4473,665.8936,179.6174,655.9422,179.4843,645.9909,179.245,636.0396,179.0472,626.0882,179.7266,616.1369,179.6136,606.1856,179.1693,596.2342,179.2682,586.2829,178.8697,576.3316,179.7165,566.3803,179.1549,556.4289,179.1726,546.4776,178.3916,536.5263,178.5948,526.5749,179.5307,516.6236,179.4298,506.6723,178.9571,496.7209,178.6778,486.7696,178.7811,476.8183,178.3138,466.8669,179.4147,456.9156,179.7396,446.9643,179.5264,437.0129,179.6949,427.0616,178.8633,417.1103,179.0872,407.1589,178.6124,397.2076,179.284,387.2563,179.2468,377.3049,179.5524,367.3536,178.7703,357.4023,178.8656,347.4509,179.4435,337.4996,179.5673,327.5483,178.4875,317.597,178.8061,307.6456,179.1493,297.6943,178.3892,287.743,179.3534,277.7916,179.258,267.8403,178.8992,257.889,179.1422,247.9376,179.7287,237.9863,178.6871,228.035,179.315,218.0836,179.2856,208.1323,179.1158,198.181,179.1409,188.2296,179.1135,178.2783,178.3758,168.327,178.5992,158.3756,178.5385,148.4243,179.0638,138.473,179.0881,128.5216,179,118.5703" style="stroke:#181818;stroke-width:1.0;"/><polygon fill="#FFFFFF" points="361,239.9766,361,240.0466,363,239.8385,365,240.041,367,240.1098,369,239.7388,371,239.9766,370.9223,239.9766,370.5735,249.8738,370.6165,259.7711,370.9318,269.6683,370.3086,279.5656,371.5536,289.4628,370.3697,299.3601,370.8022,309.2573,371.4319,319.1546,370.9142,329.0518,371.0682,338.949,370.9681,348.8463,371.1785,358.7435,371.2391,368.6408,371.5857,378.538,371.6711,388.4353,371.6793,398.3325,371.2546,408.2298,371.4636,418.127,371.7022,428.0243,370.2788,437.9215,371.6785,447.8188,370.7035,457.716,371.5338,467.6133,370.505,477.5105,370.9315,487.4078,371.7416,497.305,370.9513,507.2023,371.1053,517.0995,371.3386,526.9968,371.4162,536.894,370.9961,546.7913,371.2872,556.6885,370.4276,566.5858,371.2844,576.483,371.5482,586.3803,371.4445,596.2775,371.613,606.1748,370.5169,616.072,370.3478,625.9693,370.3786,635.8665,370.9411,645.7638,370.8035,655.661,371.6814,665.5583,370.8253,675.4555,370.6569,685.3528,371,695.25,371,695.3261,369,695.0277,367,695.077,365,695.4663,363,695.3952,361,695.25,361.7345,695.25,360.6782,685.3528,361.3192,675.4555,361.5904,665.5583,360.5276,655.661,360.9041,645.7638,361.126,635.8665,361.6518,625.9693,360.9958,616.072,361.4626,606.1748,360.4462,596.2775,360.3227,586.3803,361.5036,576.483,360.2831,566.5858,361.509,556.6885,361.2066,546.7913,360.7321,536.894,360.6462,526.9968,361.4588,517.0995,360.7007,507.2023,361.5919,497.305,360.4473,487.4078,361.6174,477.5105,361.4843,467.6133,361.245,457.716,361.0472,447.8188,361.7266,437.9215,361.6136,428.0243,361.1693,418.127,361.2682,408.2298,360.8697,398.3325,361.7165,388.4353,361.1549,378.538,361.1726,368.6408,360.3916,358.7435,360.5948,348.8463,361.5307,338.949,361.4298,329.0518,360.9571,319.1546,360.6778,309.2573,360.7811,299.3601,360.3138,289.4628,361.4147,279.5656,361.7396,269.6683,361.5264,259.7711,361.6949,249.8738,361,239.9766" style="stroke:#181818;stroke-width:1.0;"/><polygon fill="#FFFFFF" points="515.5,452.4375,515.5,452.5076,517.5,452.2994,519.5,452.5019,521.5,452.5707,523.5,452.1997,525.5,452.4375,525.4741,452.4375,525.3578,458.5078,525.3722,464.5781,525.4773,470.6484,525.2695,476.7188,525.5,482.7891,525.5,482.9736,523.5,482.579,521.5,482.7231,519.5,482.933,517.5,482.7605,515.5,482.7891,515.5227,482.7891,515.4894,476.7188,515.5595,470.6484,515.5797,464.5781,515.6952,458.5078,515.5,452.4375" style="stroke:#181818;stroke-width:1.0;"/><polygon fill="#FFFFFF" points="982.5,270.3281,982.5,270.3982,984.5,270.19,986.5,270.3926,988.5,270.4614,990.5,270.0903,992.5,270.3281,992.4223,270.3281,992.0735,280.4453,992.1165,290.5625,992.4318,300.6797,991.8086,310.7969,993.0536,320.9141,992.5,331.0313,992.5,330.8212,990.5,330.9653,988.5,331.1752,986.5,331.0027,984.5,331.054,982.5,331.0313,982.4681,331.0313,982.6785,320.9141,982.7391,310.7969,983.0857,300.6797,983.1711,290.5625,983.1793,280.4453,982.5,270.3281" style="stroke:#181818;stroke-width:1.0;"/><polygon fill="#FFFFFF" points="1125.5,361.3828,1125.5,361.4529,1127.5,361.2447,1129.5,361.4472,1131.5,361.516,1133.5,361.145,1135.5,361.3828,1135.4223,361.3828,1135.0735,371.5,1135.1165,381.6172,1135.4318,391.7344,1134.8086,401.8516,1136.0536,411.9688,1135.5,422.0859,1135.5,421.8758,1133.5,422.02,1131.5,422.2299,1129.5,422.0573,1127.5,422.1087,1125.5,422.0859,1125.4681,422.0859,1125.6785,411.9688,1125.7391,401.8516,1126.0857,391.7344,1126.1711,381.6172,1126.1793,371.5,1125.5,361.3828" style="stroke:#181818;stroke-width:1.0;"/><polygon fill="#FFFFFF" points="1252,543.4922,1252,543.5622,1254,543.3541,1256,543.5566,1258,543.6254,1260,543.2544,1262,543.4922,1261.9741,543.4922,1261.8578,549.5625,1261.8722,555.6328,1261.9773,561.7031,1261.7695,567.7734,1262,573.8438,1262,574.0283,1260,573.6337,1258,573.7778,1256,573.9877,1254,573.8152,1252,573.8438,1252.0227,573.8438,1251.9894,567.7734,1252.0595,561.7031,1252.0797,555.6328,1252.1952,549.5625,1252,543.4922" style="stroke:#181818;stroke-width:1.0;"/><polygon fill="#FFFFFF" points="1252,634.5469,1252,634.6169,1254,634.4088,1256,634.6113,1258,634.6801,1260,634.3091,1262,634.5469,1261.9741,634.5469,1261.8578,640.6172,1261.8722,646.6875,1261.9773,652.7578,1261.7695,658.8281,1262,664.8984,1262,665.083,1260,664.6883,1258,664.8325,1256,665.0424,1254,664.8698,1252,664.8984,1252.0227,664.8984,1251.9894,658.8281,1252.0595,652.7578,1252.0797,646.6875,1252.1952,640.6172,1252,634.5469" style="stroke:#181818;stroke-width:1.0;"/><polygon fill="#181818" points="167,114.5703,167.026,114.6354,168.9487,115.2421,171.0239,116.2301,173.0495,117.094,174.9117,117.5495,177,118.5703,176.9904,118.5463,174.9472,119.2383,172.9525,120.0516,170.9916,120.9492,168.9144,121.5563,167,122.5703,167.1305,122.7008,167.6514,121.6218,168.5534,120.9237,169.5018,120.2721,170.1798,119.3501,171,118.5703,171.0161,118.5864,170.1925,117.7628,169.4421,117.0124,168.6564,116.2267,167.938,115.5084,167,114.5703" style="stroke:#181818;stroke-width:1.0;"/><path d="M36,118.5703 L36,118.8506 L45.7857,118.0179 L55.5714,118.828 L65.3571,119.1032 L75.1429,117.6191 L84.9286,118.4667 L94.7143,118.0017 L104.5,118.059 L114.2857,118.4794 L124.0714,117.6485 L133.8571,119.3085 L143.6429,117.7299 L153.4286,118.3066 L163.2143,119.1462 L173,118.5703 " fill="none" style="stroke:#181818;stroke-width:1.0;stroke-dasharray:2.0,2.0;"/><text fill="#000000" font-family="FG Virgil" font-size="13" lengthAdjust="spacing" textLength="71" x="43" y="113.7139">Enable User</text><polygon fill="#181818" points="354,144.9219,354.026,144.9869,355.9487,145.5936,358.0239,146.5817,360.0495,147.4456,361.9117,147.9011,364,148.9219,363.9904,148.8978,361.9472,149.5899,359.9525,150.4032,357.9916,151.3008,355.9144,151.9079,354,152.9219,354.1305,153.0524,354.6514,151.9733,355.5534,151.2753,356.5018,150.6237,357.1798,149.7017,358,148.9219,358.0161,148.938,357.1925,148.1143,356.4421,147.364,355.6564,146.5782,354.938,145.8599,354,144.9219" style="stroke:#181818;stroke-width:1.0;"/><path d="M189,148.9219 L189,149.2021 L199.0588,148.3694 L209.1176,149.1796 L219.1765,149.4548 L229.2353,147.9707 L239.2941,148.8183 L249.3529,148.3532 L259.4118,148.4105 L269.4706,148.831 L279.5294,148 L289.5882,149.6601 L299.6471,148.0815 L309.7059,148.6582 L319.7647,149.4978 L329.8235,148.8075 L339.8824,149.0129 L349.9412,148.8793 L360,148.9219 " fill="none" style="stroke:#181818;stroke-width:1.0;"/><text fill="#000000" font-family="FG Virgil" font-size="13" lengthAdjust="spacing" textLength="44" x="196" y="144.0654">create()</text><polygon fill="#181818" points="47,175.2734,47.026,175.3385,44.9487,175.9452,43.0239,176.9333,41.0495,177.7971,38.9117,178.2526,37,179.2734,36.9904,179.2494,38.9472,179.9414,40.9525,180.7547,42.9916,181.6523,44.9144,182.2595,47,183.2734,47.1305,183.4039,46.0514,182.3249,45.3534,181.6268,44.7018,180.9752,43.7798,180.0532,43,179.2734,43.0161,179.2895,43.7925,178.4659,44.6421,177.7155,45.4564,176.9298,46.338,176.2115,47,175.2734" style="stroke:#181818;stroke-width:1.0;"/><path d="M41,179.2734 L41,179.5537 L50.7857,178.721 L60.5714,179.5312 L70.3571,179.8063 L80.1429,178.3222 L89.9286,179.1698 L99.7143,178.7048 L109.5,178.7621 L119.2857,179.1826 L129.0714,178.3516 L138.8571,180.0116 L148.6429,178.4331 L158.4286,179.0097 L168.2143,179.8494 L178,179.2734 " fill="none" style="stroke:#181818;stroke-width:1.0;stroke-dasharray:2.0,2.0;"/><text fill="#000000" font-family="FG Virgil" font-size="13" lengthAdjust="spacing" textLength="119" x="53" y="174.417">Ask user information</text><polygon fill="#181818" points="167,205.625,167.026,205.69,168.9487,206.2968,171.0239,207.2848,173.0495,208.1487,174.9117,208.6042,177,209.625,176.9904,209.6009,174.9472,210.293,172.9525,211.1063,170.9916,212.0039,168.9144,212.611,167,213.625,167.1305,213.7555,167.6514,212.6764,168.5534,211.9784,169.5018,211.3268,170.1798,210.4048,171,209.625,171.0161,209.6411,170.1925,208.8175,169.4421,208.0671,168.6564,207.2814,167.938,206.563,167,205.625" style="stroke:#181818;stroke-width:1.0;"/><path d="M36,209.625 L36,209.9052 L45.7857,209.0726 L55.5714,209.8827 L65.3571,210.1579 L75.1429,208.6738 L84.9286,209.5214 L94.7143,209.0563 L104.5,209.1137 L114.2857,209.5341 L124.0714,208.7032 L133.8571,210.3632 L143.6429,208.7846 L153.4286,209.3613 L163.2143,210.2009 L173,209.625 " fill="none" style="stroke:#181818;stroke-width:1.0;stroke-dasharray:2.0,2.0;"/><text fill="#000000" font-family="FG Virgil" font-size="13" lengthAdjust="spacing" textLength="31" x="43" y="204.7686">email</text><polygon fill="#181818" points="349,235.9766,349.026,236.0416,350.9487,236.6483,353.0239,237.6364,355.0495,238.5003,356.9117,238.9558,359,239.9766,358.9904,239.9525,356.9472,240.6446,354.9525,241.4579,352.9916,242.3555,350.9144,242.9626,349,243.9766,349.1305,244.1071,349.6514,243.028,350.5534,242.3299,351.5018,241.6784,352.1798,240.7563,353,239.9766,353.0161,239.9926,352.1925,239.169,351.4421,238.4186,350.6564,237.6329,349.938,236.9146,349,235.9766" style="stroke:#181818;stroke-width:1.0;"/><path d="M189,239.9766 L189,240.2568 L198.7647,239.4241 L208.5294,240.2343 L218.2941,240.5095 L228.0588,239.0254 L237.8235,239.8729 L247.5882,239.4079 L257.3529,239.4652 L267.1176,239.8857 L276.8824,239.0547 L286.6471,240.7148 L296.4118,239.1362 L306.1765,239.7129 L315.9412,240.5525 L325.7059,239.8622 L335.4706,240.0675 L345.2353,239.934 L355,239.9766 " fill="none" style="stroke:#181818;stroke-width:1.0;"/><text fill="#000000" font-family="FG Virgil" font-size="13" lengthAdjust="spacing" textLength="153" x="196" y="235.1201">enableUserByEmail(email)</text><polygon fill="#181818" points="970.5,266.3281,970.526,266.3932,972.4487,266.9999,974.5239,267.9879,976.5495,268.8518,978.4117,269.3073,980.5,270.3281,980.4904,270.3041,978.4472,270.9961,976.4525,271.8094,974.4916,272.707,972.4144,273.3142,970.5,274.3281,970.6305,274.4586,971.1514,273.3796,972.0534,272.6815,973.0018,272.0299,973.6798,271.1079,974.5,270.3281,974.5161,270.3442,973.6925,269.5206,972.9421,268.7702,972.1564,267.9845,971.438,267.2662,970.5,266.3281" style="stroke:#181818;stroke-width:1.0;"/><path d="M371,270.3281 L371,270.6084 L380.9262,269.7757 L390.8525,270.5858 L400.7787,270.861 L410.7049,269.3769 L420.6311,270.2245 L430.5574,269.7595 L440.4836,269.8168 L450.4098,270.2372 L460.3361,269.4063 L470.2623,271.0663 L480.1885,269.4878 L490.1148,270.0644 L500.041,270.9041 L509.9672,270.2138 L519.8934,270.4191 L529.8197,270.2855 L539.7459,270.5662 L549.6721,270.647 L559.5984,271.109 L569.5246,271.2229 L579.4508,271.2338 L589.377,270.6676 L599.3033,270.9462 L609.2295,271.2644 L619.1557,269.3665 L629.082,271.2328 L639.0082,269.9328 L648.9344,271.0399 L658.8607,269.6681 L668.7869,270.2368 L678.7131,271.3169 L688.6393,270.2631 L698.5656,270.4685 L708.4918,270.7796 L718.418,270.8831 L728.3443,270.3229 L738.2705,270.7111 L748.1967,269.5649 L758.123,270.7073 L768.0492,271.0591 L777.9754,270.9208 L787.9016,271.1455 L797.8279,269.684 L807.7541,269.4585 L817.6803,269.4996 L827.6066,270.2496 L837.5328,270.0661 L847.459,271.2367 L857.3852,270.0952 L867.3115,269.8707 L877.2377,270.6325 L887.1639,269.439 L897.0902,269.636 L907.0164,271.1934 L916.9426,270.909 L926.8689,271.3074 L936.7951,269.8991 L946.7213,270.7537 L956.6475,271.1154 L966.5738,269.6983 L976.5,270.3281 " fill="none" style="stroke:#181818;stroke-width:1.0;"/><text fill="#000000" font-family="FG Virgil" font-size="13" lengthAdjust="spacing" textLength="75" x="378" y="265.4717">repositories()</text><polygon fill="#181818" points="1118.5,296.6797,1118.526,296.7447,1120.4487,297.3515,1122.5239,298.3395,1124.5495,299.2034,1126.4117,299.6589,1128.5,300.6797,1128.4904,300.6556,1126.4472,301.3477,1124.4525,302.161,1122.4916,303.0586,1120.4144,303.6657,1118.5,304.6797,1118.6305,304.8102,1119.1514,303.7311,1120.0534,303.0331,1121.0018,302.3815,1121.6798,301.4595,1122.5,300.6797,1122.5161,300.6958,1121.6925,299.8722,1120.9421,299.1218,1120.1564,298.3361,1119.438,297.6177,1118.5,296.6797" style="stroke:#181818;stroke-width:1.0;"/><path d="M992.5,300.6797 L992.5,300.9599 L1002.6538,300.1273 L1012.8077,300.9374 L1022.9615,301.2126 L1033.1154,299.7285 L1043.2692,300.5761 L1053.4231,300.111 L1063.5769,300.1684 L1073.7308,300.5888 L1083.8846,299.7579 L1094.0385,301.4179 L1104.1923,299.8393 L1114.3462,300.416 L1124.5,300.6797 " fill="none" style="stroke:#181818;stroke-width:1.0;"/><text fill="#000000" font-family="FG Virgil" font-size="13" lengthAdjust="spacing" textLength="44" x="999.5" y="295.8232">create()</text><polygon fill="#181818" points="382,327.0313,382.026,327.0963,379.9487,327.703,378.0239,328.6911,376.0495,329.5549,373.9117,330.0105,372,331.0313,371.9904,331.0072,373.9472,331.6993,375.9525,332.5126,377.9916,333.4102,379.9144,334.0173,382,335.0313,382.1305,335.1617,381.0514,334.0827,380.3534,333.3846,379.7018,332.7331,378.7798,331.811,378,331.0313,378.0161,331.0473,378.7925,330.2237,379.6421,329.4733,380.4564,328.6876,381.338,327.9693,382,327.0313" style="stroke:#181818;stroke-width:1.0;"/><path d="M376,331.0313 L376,331.3115 L386.0082,330.4788 L396.0164,331.289 L406.0246,331.5642 L416.0328,330.0801 L426.041,330.9276 L436.0492,330.4626 L446.0574,330.5199 L456.0656,330.9404 L466.0738,330.1094 L476.082,331.7694 L486.0902,330.1909 L496.0984,330.7676 L506.1066,331.6072 L516.1148,330.9169 L526.123,331.1222 L536.1311,330.9887 L546.1393,331.2693 L556.1475,331.3501 L566.1557,331.8122 L576.1639,331.926 L586.1721,331.9369 L596.1803,331.3708 L606.1885,331.6494 L616.1967,331.9676 L626.2049,330.0697 L636.2131,331.9359 L646.2213,330.6359 L656.2295,331.743 L666.2377,330.3712 L676.2459,330.9399 L686.2541,332.0201 L696.2623,330.9663 L706.2705,331.1717 L716.2787,331.4828 L726.2869,331.5862 L736.2951,331.026 L746.3033,331.4142 L756.3115,330.268 L766.3197,331.4104 L776.3279,331.7622 L786.3361,331.624 L796.3443,331.8486 L806.3525,330.3871 L816.3607,330.1617 L826.3689,330.2027 L836.377,330.9527 L846.3852,330.7692 L856.3934,331.9398 L866.4016,330.7983 L876.4098,330.5738 L886.418,331.3356 L896.4262,330.1421 L906.4344,330.3391 L916.4426,331.8965 L926.4508,331.6121 L936.459,332.0106 L946.4672,330.6022 L956.4754,331.4568 L966.4836,331.8185 L976.4918,330.4014 L986.5,331.0313 " fill="none" style="stroke:#181818;stroke-width:1.0;"/><text fill="#000000" font-family="FG Virgil" font-size="13" lengthAdjust="spacing" textLength="39" x="388" y="326.1748">factory</text><polygon fill="#181818" points="1113.5,357.3828,1113.526,357.4479,1115.4487,358.0546,1117.5239,359.0426,1119.5495,359.9065,1121.4117,360.362,1123.5,361.3828,1123.4904,361.3588,1121.4472,362.0508,1119.4525,362.8641,1117.4916,363.7617,1115.4144,364.3688,1113.5,365.3828,1113.6305,365.5133,1114.1514,364.4343,1115.0534,363.7362,1116.0018,363.0846,1116.6798,362.1626,1117.5,361.3828,1117.5161,361.3989,1116.6925,360.5753,1115.9421,359.8249,1115.1564,359.0392,1114.438,358.3209,1113.5,357.3828" style="stroke:#181818;stroke-width:1.0;"/><path d="M371,361.3828 L371,361.6631 L380.98,360.8304 L390.96,361.6405 L400.94,361.9157 L410.92,360.4316 L420.9,361.2792 L430.88,360.8142 L440.86,360.8715 L450.84,361.2919 L460.82,360.461 L470.8,362.121 L480.78,360.5424 L490.76,361.1191 L500.74,361.9587 L510.72,361.2684 L520.7,361.4738 L530.68,361.3402 L540.66,361.6208 L550.64,361.7017 L560.62,362.1637 L570.6,362.2776 L580.58,362.2885 L590.56,361.7223 L600.54,362.0009 L610.52,362.3191 L620.5,360.4212 L630.48,362.2875 L640.46,360.9875 L650.44,362.0946 L660.42,360.7228 L670.4,361.2915 L680.38,362.3716 L690.36,361.3178 L700.34,361.5232 L710.32,361.8343 L720.3,361.9378 L730.28,361.3776 L740.26,361.7658 L750.24,360.6196 L760.22,361.762 L770.2,362.1137 L780.18,361.9755 L790.16,362.2002 L800.14,360.7387 L810.12,360.5132 L820.1,360.5543 L830.08,361.3043 L840.06,361.1208 L850.04,362.2914 L860.02,361.1499 L870,360.9254 L879.98,361.6872 L889.96,360.4937 L899.94,360.6906 L909.92,362.2481 L919.9,361.9637 L929.88,362.3621 L939.86,360.9538 L949.84,361.8084 L959.82,362.17 L969.8,360.7529 L979.78,361.255 L989.76,361.5508 L999.74,362.2518 L1009.72,361.3772 L1019.7,361.9996 L1029.68,360.6444 L1039.66,360.4798 L1049.64,362.0543 L1059.62,360.4269 L1069.6,362.0614 L1079.58,361.6583 L1089.56,361.0256 L1099.54,360.9111 L1109.52,361.9945 L1119.5,361.3828 " fill="none" style="stroke:#181818;stroke-width:1.0;"/><text fill="#000000" font-family="FG Virgil" font-size="13" lengthAdjust="spacing" textLength="40" x="378" y="356.5264">users()</text><polygon fill="#181818" points="1245,387.7344,1245.026,387.7994,1246.9487,388.4061,1249.0239,389.3942,1251.0495,390.2581,1252.9117,390.7136,1255,391.7344,1254.9904,391.7103,1252.9472,392.4024,1250.9525,393.2157,1248.9916,394.1133,1246.9144,394.7204,1245,395.7344,1245.1305,395.8649,1245.6514,394.7858,1246.5534,394.0878,1247.5018,393.4362,1248.1798,392.5142,1249,391.7344,1249.0161,391.7505,1248.1925,390.9268,1247.4421,390.1765,1246.6564,389.3907,1245.938,388.6724,1245,387.7344" style="stroke:#181818;stroke-width:1.0;"/><path d="M1135.5,391.7344 L1135.5,392.0146 L1145.125,391.1819 L1154.75,391.9921 L1164.375,392.2673 L1174,390.7832 L1183.625,391.6308 L1193.25,391.1657 L1202.875,391.223 L1212.5,391.6435 L1222.125,390.8125 L1231.75,392.4726 L1241.375,390.894 L1251,391.7344 " fill="none" style="stroke:#181818;stroke-width:1.0;"/><text fill="#000000" font-family="FG Virgil" font-size="13" lengthAdjust="spacing" textLength="44" x="1142.5" y="386.8779">create()</text><polygon fill="#181818" points="382,418.0859,382.026,418.151,379.9487,418.7577,378.0239,419.7458,376.0495,420.6096,373.9117,421.0651,372,422.0859,371.9904,422.0619,373.9472,422.7539,375.9525,423.5672,377.9916,424.4648,379.9144,425.072,382,426.0859,382.1305,426.2164,381.0514,425.1374,380.3534,424.4393,379.7018,423.7877,378.7798,422.8657,378,422.0859,378.0161,422.102,378.7925,421.2784,379.6421,420.528,380.4564,419.7423,381.338,419.024,382,418.0859" style="stroke:#181818;stroke-width:1.0;"/><path d="M376,422.0859 L376,422.3662 L386.0467,421.5335 L396.0933,422.3437 L406.14,422.6188 L416.1867,421.1347 L426.2333,421.9823 L436.28,421.5173 L446.3267,421.5746 L456.3733,421.9951 L466.42,421.1641 L476.4667,422.8241 L486.5133,421.2456 L496.56,421.8222 L506.6067,422.6619 L516.6533,421.9716 L526.7,422.1769 L536.7467,422.0433 L546.7933,422.324 L556.84,422.4048 L566.8867,422.8669 L576.9333,422.9807 L586.98,422.9916 L597.0267,422.4254 L607.0733,422.7041 L617.12,423.0222 L627.1667,421.1244 L637.2133,422.9906 L647.26,421.6906 L657.3067,422.7977 L667.3533,421.4259 L677.4,421.9946 L687.4467,423.0747 L697.4933,422.021 L707.54,422.2263 L717.5867,422.5374 L727.6333,422.6409 L737.68,422.0807 L747.7267,422.4689 L757.7733,421.3227 L767.82,422.4651 L777.8667,422.8169 L787.9133,422.6786 L797.96,422.9033 L808.0067,421.4418 L818.0533,421.2164 L828.1,421.2574 L838.1467,422.0074 L848.1933,421.8239 L858.24,422.9945 L868.2867,421.853 L878.3333,421.6285 L888.38,422.3903 L898.4267,421.1968 L908.4733,421.3938 L918.52,422.9512 L928.5667,422.6668 L938.6133,423.0653 L948.66,421.6569 L958.7067,422.5115 L968.7533,422.8732 L978.8,421.4561 L988.8467,421.9581 L998.8933,422.2539 L1008.94,422.955 L1018.9867,422.0803 L1029.0333,422.7027 L1039.08,421.3476 L1049.1267,421.1829 L1059.1733,422.7574 L1069.22,421.13 L1079.2667,422.7646 L1089.3133,422.3614 L1099.36,421.7287 L1109.4067,421.6142 L1119.4533,422.6976 L1129.5,422.0859 " fill="none" style="stroke:#181818;stroke-width:1.0;"/><text fill="#000000" font-family="FG Virgil" font-size="13" lengthAdjust="spacing" textLength="87" x="388" y="417.2295">userRepository</text><polygon fill="#181818" points="503.5,448.4375,503.526,448.5025,505.4487,449.1093,507.5239,450.0973,509.5495,450.9612,511.4117,451.4167,513.5,452.4375,513.4904,452.4134,511.4472,453.1055,509.4525,453.9188,507.4916,454.8164,505.4144,455.4235,503.5,456.4375,503.6305,456.568,504.1514,455.4889,505.0534,454.7909,506.0018,454.1393,506.6798,453.2173,507.5,452.4375,507.5161,452.4536,506.6925,451.63,505.9421,450.8796,505.1564,450.0939,504.438,449.3755,503.5,448.4375" style="stroke:#181818;stroke-width:1.0;"/><path d="M371,452.4375 L371,452.7177 L380.8929,451.8851 L390.7857,452.6952 L400.6786,452.9704 L410.5714,451.4863 L420.4643,452.3339 L430.3571,451.8688 L440.25,451.9262 L450.1429,452.3466 L460.0357,451.5157 L469.9286,453.1757 L479.8214,451.5971 L489.7143,452.1738 L499.6071,453.0134 L509.5,452.4375 " fill="none" style="stroke:#181818;stroke-width:1.0;"/><text fill="#000000" font-family="FG Virgil" font-size="13" lengthAdjust="spacing" textLength="124" x="378" y="447.5811">authorizationService()</text><polygon fill="#181818" points="382,478.7891,382.026,478.8541,379.9487,479.4608,378.0239,480.4489,376.0495,481.3128,373.9117,481.7683,372,482.7891,371.9904,482.765,373.9472,483.4571,375.9525,484.2704,377.9916,485.168,379.9144,485.7751,382,486.7891,382.1305,486.9196,381.0514,485.8405,380.3534,485.1424,379.7018,484.4909,378.7798,483.5688,378,482.7891,378.0161,482.8051,378.7925,481.9815,379.6421,481.2311,380.4564,480.4454,381.338,479.7271,382,478.7891" style="stroke:#181818;stroke-width:1.0;"/><path d="M376,482.7891 L376,483.0693 L386.25,482.2366 L396.5,483.0468 L406.75,483.322 L417,481.8379 L427.25,482.6854 L437.5,482.2204 L447.75,482.2777 L458,482.6982 L468.25,481.8672 L478.5,483.5273 L488.75,481.9487 L499,482.5254 L509.25,483.365 L519.5,482.7891 " fill="none" style="stroke:#181818;stroke-width:1.0;"/><text fill="#000000" font-family="FG Virgil" font-size="13" lengthAdjust="spacing" textLength="32" x="388" y="477.9326">authz</text><polygon fill="#181818" points="740,509.1406,740.026,509.2057,741.9487,509.8124,744.0239,510.8004,746.0495,511.6643,747.9117,512.1198,750,513.1406,749.9904,513.1166,747.9472,513.8086,745.9525,514.6219,743.9916,515.5195,741.9144,516.1267,740,517.1406,740.1305,517.2711,740.6514,516.1921,741.5534,515.494,742.5018,514.8424,743.1798,513.9204,744,513.1406,744.0161,513.1567,743.1925,512.3331,742.4421,511.5827,741.6564,510.797,740.938,510.0787,740,509.1406" style="stroke:#181818;stroke-width:1.0;"/><path d="M371,513.1406 L371,513.4209 L380.8684,512.5882 L390.7368,513.3983 L400.6053,513.6735 L410.4737,512.1894 L420.3421,513.037 L430.2105,512.572 L440.0789,512.6293 L449.9474,513.0497 L459.8158,512.2188 L469.6842,513.8788 L479.5526,512.3003 L489.4211,512.8769 L499.2895,513.7166 L509.1579,513.0263 L519.0263,513.2316 L528.8947,513.098 L538.7632,513.3787 L548.6316,513.4595 L558.5,513.9215 L568.3684,514.0354 L578.2368,514.0463 L588.1053,513.4801 L597.9737,513.7587 L607.8421,514.0769 L617.7105,512.179 L627.5789,514.0453 L637.4474,512.7453 L647.3158,513.8524 L657.1842,512.4806 L667.0526,513.0493 L676.9211,514.1294 L686.7895,513.0756 L696.6579,513.281 L706.5263,513.5921 L716.3947,513.6956 L726.2632,513.1354 L736.1316,513.5236 L746,513.1406 " fill="none" style="stroke:#181818;stroke-width:1.0;"/><text fill="#000000" font-family="FG Virgil" font-size="13" lengthAdjust="spacing" textLength="357" x="378" y="508.2842">ensureAuthenticatedUserHasAnyOf(CourseRoles.MANAGER)</text><polygon fill="#181818" points="1240,539.4922,1240.026,539.5572,1241.9487,540.164,1244.0239,541.152,1246.0495,542.0159,1247.9117,542.4714,1250,543.4922,1249.9904,543.4681,1247.9472,544.1602,1245.9525,544.9735,1243.9916,545.8711,1241.9144,546.4782,1240,547.4922,1240.1305,547.6227,1240.6514,546.5436,1241.5534,545.8456,1242.5018,545.194,1243.1798,544.272,1244,543.4922,1244.0161,543.5083,1243.1925,542.6847,1242.4421,541.9343,1241.6564,541.1486,1240.938,540.4302,1240,539.4922" style="stroke:#181818;stroke-width:1.0;"/><path d="M371,543.4922 L371,543.7724 L380.9432,542.9398 L390.8864,543.7499 L400.8295,544.0251 L410.7727,542.541 L420.7159,543.3886 L430.6591,542.9235 L440.6023,542.9809 L450.5455,543.4013 L460.4886,542.5704 L470.4318,544.2304 L480.375,542.6518 L490.3182,543.2285 L500.2614,544.0681 L510.2045,543.3778 L520.1477,543.5832 L530.0909,543.4496 L540.0341,543.7302 L549.9773,543.811 L559.9205,544.2731 L569.8636,544.3869 L579.8068,544.3979 L589.75,543.8317 L599.6932,544.1103 L609.6364,544.4285 L619.5795,542.5306 L629.5227,544.3969 L639.4659,543.0968 L649.4091,544.2039 L659.3523,542.8322 L669.2955,543.4009 L679.2386,544.481 L689.1818,543.4272 L699.125,543.6326 L709.0682,543.9437 L719.0114,544.0472 L728.9545,543.487 L738.8977,543.8751 L748.8409,542.729 L758.7841,543.8714 L768.7273,544.2231 L778.6705,544.0849 L788.6136,544.3096 L798.5568,542.8481 L808.5,542.6226 L818.4432,542.6637 L828.3864,543.4137 L838.3295,543.2301 L848.2727,544.4007 L858.2159,543.2593 L868.1591,543.0348 L878.1023,543.7965 L888.0455,542.6031 L897.9886,542.8 L907.9318,544.3575 L917.875,544.0731 L927.8182,544.4715 L937.7614,543.0631 L947.7045,543.9178 L957.6477,544.2794 L967.5909,542.8623 L977.5341,543.3644 L987.4773,543.6602 L997.4205,544.3612 L1007.3636,543.4866 L1017.3068,544.1089 L1027.25,542.7538 L1037.1932,542.5892 L1047.1364,544.1637 L1057.0795,542.5363 L1067.0227,544.1708 L1076.9659,543.7677 L1086.9091,543.135 L1096.8523,543.0205 L1106.7955,544.1039 L1116.7386,543.0931 L1126.6818,544.2813 L1136.625,542.7552 L1146.5682,544.3154 L1156.5114,544.1379 L1166.4545,543.8188 L1176.3977,543.5551 L1186.3409,544.461 L1196.2841,544.3103 L1206.2273,543.7179 L1216.1705,543.8498 L1226.1136,543.3185 L1236.0568,544.4475 L1246,543.4922 " fill="none" style="stroke:#181818;stroke-width:1.0;"/><text fill="#000000" font-family="FG Virgil" font-size="13" lengthAdjust="spacing" textLength="135" x="378" y="538.6357">findUserByEmail(email)</text><polygon fill="#181818" points="382,569.8438,382.026,569.9088,379.9487,570.5155,378.0239,571.5036,376.0495,572.3674,373.9117,572.823,372,573.8438,371.9904,573.8197,373.9472,574.5118,375.9525,575.3251,377.9916,576.2227,379.9144,576.8298,382,577.8438,382.1305,577.9742,381.0514,576.8952,380.3534,576.1971,379.7018,575.5456,378.7798,574.6235,378,573.8438,378.0161,573.8598,378.7925,573.0362,379.6421,572.2858,380.4564,571.5001,381.338,570.7818,382,569.8438" style="stroke:#181818;stroke-width:1.0;"/><path d="M376,573.8438 L376,574.124 L386,573.2913 L396,574.1015 L406,574.3767 L416,572.8926 L426,573.7401 L436,573.2751 L446,573.3324 L456,573.7529 L466,572.9219 L476,574.5819 L486,573.0034 L496,573.5801 L506,574.4197 L516,573.7294 L526,573.9347 L536,573.8012 L546,574.0818 L556,574.1626 L566,574.6247 L576,574.7385 L586,574.7494 L596,574.1833 L606,574.4619 L616,574.7801 L626,572.8822 L636,574.7484 L646,573.4484 L656,574.5555 L666,573.1837 L676,573.7524 L686,574.8326 L696,573.7788 L706,573.9842 L716,574.2953 L726,574.3987 L736,573.8385 L746,574.2267 L756,573.0805 L766,574.2229 L776,574.5747 L786,574.4365 L796,574.6611 L806,573.1996 L816,572.9742 L826,573.0152 L836,573.7652 L846,573.5817 L856,574.7523 L866,573.6108 L876,573.3863 L886,574.1481 L896,572.9546 L906,573.1516 L916,574.709 L926,574.4246 L936,574.8231 L946,573.4147 L956,574.2693 L966,574.631 L976,573.2139 L986,573.7159 L996,574.0117 L1006,574.7128 L1016,573.8382 L1026,574.4605 L1036,573.1054 L1046,572.9407 L1056,574.5152 L1066,572.8878 L1076,574.5224 L1086,574.1193 L1096,573.4865 L1106,573.3721 L1116,574.4554 L1126,573.4446 L1136,574.6329 L1146,573.1068 L1156,574.667 L1166,574.4895 L1176,574.1704 L1186,573.9067 L1196,574.8126 L1206,574.6619 L1216,574.0694 L1226,574.2013 L1236,573.6701 L1246,574.799 L1256,573.8438 " fill="none" style="stroke:#181818;stroke-width:1.0;"/><text fill="#000000" font-family="FG Virgil" font-size="13" lengthAdjust="spacing" textLength="25" x="388" y="568.9873">user</text><polygon fill="#181818" points="859.5,600.1953,859.526,600.2604,861.4487,600.8671,863.5239,601.8551,865.5495,602.719,867.4117,603.1745,869.5,604.1953,869.4904,604.1713,867.4472,604.8633,865.4525,605.6766,863.4916,606.5742,861.4144,607.1813,859.5,608.1953,859.6305,608.3258,860.1514,607.2468,861.0534,606.5487,862.0018,605.8971,862.6798,604.9751,863.5,604.1953,863.5161,604.2114,862.6925,603.3878,861.9421,602.6374,861.1564,601.8517,860.438,601.1334,859.5,600.1953" style="stroke:#181818;stroke-width:1.0;"/><path d="M371,604.1953 L371,604.4756 L381.0918,603.6429 L391.1837,604.453 L401.2755,604.7282 L411.3673,603.2441 L421.4592,604.0917 L431.551,603.6267 L441.6429,603.684 L451.7347,604.1044 L461.8265,603.2735 L471.9184,604.9335 L482.0102,603.3549 L492.102,603.9316 L502.1939,604.7712 L512.2857,604.0809 L522.3776,604.2863 L532.4694,604.1527 L542.5612,604.4333 L552.6531,604.5142 L562.7449,604.9762 L572.8367,605.0901 L582.9286,605.101 L593.0204,604.5348 L603.1122,604.8134 L613.2041,605.1316 L623.2959,603.2337 L633.3878,605.1 L643.4796,603.8 L653.5714,604.9071 L663.6633,603.5353 L673.7551,604.104 L683.8469,605.1841 L693.9388,604.1303 L704.0306,604.3357 L714.1224,604.6468 L724.2143,604.7503 L734.3061,604.1901 L744.398,604.5783 L754.4898,603.4321 L764.5816,604.5745 L774.6735,604.9262 L784.7653,604.788 L794.8571,605.0127 L804.949,603.5512 L815.0408,603.3257 L825.1327,603.3668 L835.2245,604.1168 L845.3163,603.9333 L855.4082,605.1039 L865.5,604.1953 " fill="none" style="stroke:#181818;stroke-width:1.0;"/><text fill="#000000" font-family="FG Virgil" font-size="13" lengthAdjust="spacing" textLength="46" x="378" y="599.3389">enable()</text><polygon fill="#181818" points="1240,630.5469,1240.026,630.6119,1241.9487,631.2186,1244.0239,632.2067,1246.0495,633.0706,1247.9117,633.5261,1250,634.5469,1249.9904,634.5228,1247.9472,635.2149,1245.9525,636.0282,1243.9916,636.9258,1241.9144,637.5329,1240,638.5469,1240.1305,638.6774,1240.6514,637.5983,1241.5534,636.9003,1242.5018,636.2487,1243.1798,635.3267,1244,634.5469,1244.0161,634.563,1243.1925,633.7393,1242.4421,632.989,1241.6564,632.2032,1240.938,631.4849,1240,630.5469" style="stroke:#181818;stroke-width:1.0;"/><path d="M371,634.5469 L371,634.8271 L380.9432,633.9944 L390.8864,634.8046 L400.8295,635.0798 L410.7727,633.5957 L420.7159,634.4433 L430.6591,633.9782 L440.6023,634.0355 L450.5455,634.456 L460.4886,633.625 L470.4318,635.2851 L480.375,633.7065 L490.3182,634.2832 L500.2614,635.1228 L510.2045,634.4325 L520.1477,634.6379 L530.0909,634.5043 L540.0341,634.7849 L549.9773,634.8657 L559.9205,635.3278 L569.8636,635.4416 L579.8068,635.4526 L589.75,634.8864 L599.6932,635.165 L609.6364,635.4832 L619.5795,633.5853 L629.5227,635.4516 L639.4659,634.1515 L649.4091,635.2586 L659.3523,633.8868 L669.2955,634.4555 L679.2386,635.5357 L689.1818,634.4819 L699.125,634.6873 L709.0682,634.9984 L719.0114,635.1019 L728.9545,634.5417 L738.8977,634.9298 L748.8409,633.7837 L758.7841,634.9261 L768.7273,635.2778 L778.6705,635.1396 L788.6136,635.3642 L798.5568,633.9028 L808.5,633.6773 L818.4432,633.7183 L828.3864,634.4684 L838.3295,634.2848 L848.2727,635.4554 L858.2159,634.314 L868.1591,634.0895 L878.1023,634.8512 L888.0455,633.6578 L897.9886,633.8547 L907.9318,635.4121 L917.875,635.1278 L927.8182,635.5262 L937.7614,634.1178 L947.7045,634.9725 L957.6477,635.3341 L967.5909,633.917 L977.5341,634.4191 L987.4773,634.7149 L997.4205,635.4159 L1007.3636,634.5413 L1017.3068,635.1636 L1027.25,633.8085 L1037.1932,633.6439 L1047.1364,635.2184 L1057.0795,633.591 L1067.0227,635.2255 L1076.9659,634.8224 L1086.9091,634.1897 L1096.8523,634.0752 L1106.7955,635.1586 L1116.7386,634.1478 L1126.6818,635.336 L1136.625,633.8099 L1146.5682,635.3701 L1156.5114,635.1926 L1166.4545,634.8735 L1176.3977,634.6098 L1186.3409,635.5157 L1196.2841,635.365 L1206.2273,634.7725 L1216.1705,634.9045 L1226.1136,634.3732 L1236.0568,635.5021 L1246,634.5469 " fill="none" style="stroke:#181818;stroke-width:1.0;"/><text fill="#000000" font-family="FG Virgil" font-size="13" lengthAdjust="spacing" textLength="59" x="378" y="629.6904">save(user)</text><polygon fill="#181818" points="382,660.8984,382.026,660.9635,379.9487,661.5702,378.0239,662.5583,376.0495,663.4221,373.9117,663.8776,372,664.8984,371.9904,664.8744,373.9472,665.5664,375.9525,666.3797,377.9916,667.2773,379.9144,667.8845,382,668.8984,382.1305,669.0289,381.0514,667.9499,380.3534,667.2518,379.7018,666.6002,378.7798,665.6782,378,664.8984,378.0161,664.9145,378.7925,664.0909,379.6421,663.3405,380.4564,662.5548,381.338,661.8365,382,660.8984" style="stroke:#181818;stroke-width:1.0;"/><path d="M376,664.8984 L376,665.1787 L386,664.346 L396,665.1562 L406,665.4313 L416,663.9472 L426,664.7948 L436,664.3298 L446,664.3871 L456,664.8076 L466,663.9766 L476,665.6366 L486,664.0581 L496,664.6347 L506,665.4744 L516,664.7841 L526,664.9894 L536,664.8558 L546,665.1365 L556,665.2173 L566,665.6794 L576,665.7932 L586,665.8041 L596,665.2379 L606,665.5166 L616,665.8347 L626,663.9369 L636,665.8031 L646,664.5031 L656,665.6102 L666,664.2384 L676,664.8071 L686,665.8872 L696,664.8335 L706,665.0388 L716,665.3499 L726,665.4534 L736,664.8932 L746,665.2814 L756,664.1352 L766,665.2776 L776,665.6294 L786,665.4911 L796,665.7158 L806,664.2543 L816,664.0289 L826,664.0699 L836,664.8199 L846,664.6364 L856,665.807 L866,664.6655 L876,664.441 L886,665.2028 L896,664.0093 L906,664.2063 L916,665.7637 L926,665.4793 L936,665.8778 L946,664.4694 L956,665.324 L966,665.6857 L976,664.2686 L986,664.7706 L996,665.0664 L1006,665.7675 L1016,664.8928 L1026,665.5152 L1036,664.1601 L1046,663.9954 L1056,665.5699 L1066,663.9425 L1076,665.5771 L1086,665.1739 L1096,664.5412 L1106,664.4267 L1116,665.5101 L1126,664.4993 L1136,665.6876 L1146,664.1614 L1156,665.7217 L1166,665.5442 L1176,665.2251 L1186,664.9614 L1196,665.8673 L1206,665.7165 L1216,665.1241 L1226,665.256 L1236,664.7248 L1246,665.8537 L1256,664.8984 " fill="none" style="stroke:#181818;stroke-width:1.0;"/><text fill="#000000" font-family="FG Virgil" font-size="13" lengthAdjust="spacing" textLength="25" x="388" y="660.042">user</text><polygon fill="#181818" points="200,691.25,200.026,691.315,197.9487,691.9218,196.0239,692.9098,194.0495,693.7737,191.9117,694.2292,190,695.25,189.9904,695.2259,191.9472,695.918,193.9525,696.7313,195.9916,697.6289,197.9144,698.236,200,699.25,200.1305,699.3805,199.0514,698.3014,198.3534,697.6034,197.7018,696.9518,196.7798,696.0298,196,695.25,196.0161,695.2661,196.7925,694.4425,197.6421,693.6921,198.4564,692.9064,199.338,692.188,200,691.25" style="stroke:#181818;stroke-width:1.0;"/><path d="M194,695.25 L194,695.5302 L204.0588,694.6976 L214.1176,695.5077 L224.1765,695.7829 L234.2353,694.2988 L244.2941,695.1464 L254.3529,694.6813 L264.4118,694.7387 L274.4706,695.1591 L284.5294,694.3282 L294.5882,695.9882 L304.6471,694.4096 L314.7059,694.9863 L324.7647,695.8259 L334.8235,695.1356 L344.8824,695.341 L354.9412,695.2074 L365,695.25 " fill="none" style="stroke:#181818;stroke-width:1.0;"/><text fill="#000000" font-family="FG Virgil" font-size="13" lengthAdjust="spacing" textLength="25" x="206" y="690.3936">user</text><polygon fill="#181818" points="47,721.6016,47.026,721.6666,44.9487,722.2733,43.0239,723.2614,41.0495,724.1253,38.9117,724.5808,37,725.6016,36.9904,725.5775,38.9472,726.2696,40.9525,727.0829,42.9916,727.9805,44.9144,728.5876,47,729.6016,47.1305,729.7321,46.0514,728.653,45.3534,727.9549,44.7018,727.3034,43.7798,726.3813,43,725.6016,43.0161,725.6176,43.7925,724.794,44.6421,724.0436,45.4564,723.2579,46.338,722.5396,47,721.6016" style="stroke:#181818;stroke-width:1.0;"/><path d="M41,725.6016 L41,725.8818 L51.1429,725.0491 L61.2857,725.8593 L71.4286,726.1345 L81.5714,724.6504 L91.7143,725.4979 L101.8571,725.0329 L112,725.0902 L122.1429,725.5107 L132.2857,724.6797 L142.4286,726.3398 L152.5714,724.7612 L162.7143,725.3379 L172.8571,726.1775 L183,725.6016 " fill="none" style="stroke:#181818;stroke-width:1.0;stroke-dasharray:2.0,2.0;"/><text fill="#000000" font-family="FG Virgil" font-size="13" lengthAdjust="spacing" textLength="108" x="53" y="720.7451">displayUserEnable</text><!--MD5=[afdb0bf49b6c69feee6598883044840f]
@startuml
'http://plantuml.com/skinparam.html
skinparam handwritten true
skinparam monochrome true
skinparam packageStyle rect
skinparam defaultFontName FG Virgil
skinparam shadowing false

actor Manager as Actor
participant ChangeUserStateUI as UI <<presentation>>
participant ChangeUserStateController as Controller <<application>>
participant AuthzRegistry as Registry <<util>>
participant AuthorizationService as AuthzService <<service>>
participant "user:User" as Domain <<domain>>
participant PersistenceContext as Persistence <<persistence>>
participant RepositoryFactory as Factory <<factory>>
database UserRepository as Repository <<repository>>


Actor - -> UI: Enable User
activate UI
    UI -> Controller: create()
    UI - -> Actor: Ask user information

    Actor - -> UI: email
        
    UI -> Controller: enableUserByEmail(email)
    activate Controller

        Controller -> Persistence: repositories()
        activate Persistence
        Persistence -> Factory: create()
        Persistence -> Controller: factory
        deactivate Persistence

        Controller -> Factory: users()
        activate Factory
        Factory -> Repository: create()
        Factory -> Controller: userRepository
        deactivate Factory


        Controller -> Registry: authorizationService()
        activate Registry
        Registry -> Controller: authz
        deactivate Registry

        Controller -> AuthzService: ensureAuthenticatedUserHasAnyOf(CourseRoles.MANAGER)


        Controller -> Repository: findUserByEmail(email)
        activate Repository
        Repository -> Controller: user
        deactivate Repository

        Controller -> Domain: enable()

        Controller -> Repository: save(user)
        activate Repository
        Repository -> Controller: user
        deactivate Repository

        Controller -> UI:user
        deactivate Controller
        UI - -> Actor: displayUserEnable

deactivate UI
@enduml

@startuml
skinparam handwritten true
skinparam monochrome true
skinparam packageStyle rect
skinparam defaultFontName FG Virgil
skinparam shadowing false

actor Manager as Actor
participant ChangeUserStateUI as UI <<presentation>>
participant ChangeUserStateController as Controller <<application>>
participant AuthzRegistry as Registry <<util>>
participant AuthorizationService as AuthzService <<service>>
participant "user:User" as Domain <<domain>>
participant PersistenceContext as Persistence <<persistence>>
participant RepositoryFactory as Factory <<factory>>
database UserRepository as Repository <<repository>>


Actor - -> UI: Enable User
activate UI
    UI -> Controller: create()
    UI - -> Actor: Ask user information

    Actor - -> UI: email
        
    UI -> Controller: enableUserByEmail(email)
    activate Controller

        Controller -> Persistence: repositories()
        activate Persistence
        Persistence -> Factory: create()
        Persistence -> Controller: factory
        deactivate Persistence

        Controller -> Factory: users()
        activate Factory
        Factory -> Repository: create()
        Factory -> Controller: userRepository
        deactivate Factory


        Controller -> Registry: authorizationService()
        activate Registry
        Registry -> Controller: authz
        deactivate Registry

        Controller -> AuthzService: ensureAuthenticatedUserHasAnyOf(CourseRoles.MANAGER)


        Controller -> Repository: findUserByEmail(email)
        activate Repository
        Repository -> Controller: user
        deactivate Repository

        Controller -> Domain: enable()

        Controller -> Repository: save(user)
        activate Repository
        Repository -> Controller: user
        deactivate Repository

        Controller -> UI:user
        deactivate Controller
        UI - -> Actor: displayUserEnable

deactivate UI
@enduml

PlantUML version 1.2022.7(Mon Aug 22 18:01:30 BST 2022)
(GPL source distribution)
Java Runtime: Java(TM) SE Runtime Environment
JVM: Java HotSpot(TM) 64-Bit Server VM
Default Encoding: Cp1252
Language: pt
Country: PT
--></g></svg>