<?xml version="1.0" encoding="UTF-8" standalone="no"?><svg xmlns="http://www.w3.org/2000/svg" xmlns:xlink="http://www.w3.org/1999/xlink" contentStyleType="text/css" height="840px" preserveAspectRatio="none" style="width:1312px;height:840px;background:#FFFFFF;" version="1.1" viewBox="0 0 1312 840" width="1312px" zoomAndPan="magnify"><defs/><g><polygon fill="#FFFFFF" points="179,118.5703,179,118.6404,181,118.4322,183,118.6347,185,118.7035,187,118.3325,189,118.5703,188.9223,118.5703,188.5735,128.5216,188.6165,138.473,188.9318,148.4243,188.3086,158.3756,189.5536,168.327,188.3697,178.2783,188.8022,188.2296,189.4319,198.181,188.9142,208.1323,189.0682,218.0836,188.9681,228.035,189.1785,237.9863,189.2391,247.9376,189.5857,257.889,189.6711,267.8403,189.6793,277.7916,189.2546,287.743,189.4636,297.6943,189.7022,307.6456,188.2788,317.597,189.6785,327.5483,188.7035,337.4996,189.5338,347.4509,188.505,357.4023,188.9315,367.3536,189.7416,377.3049,188.9513,387.2563,189.1053,397.2076,189.3386,407.1589,189.4162,417.1103,188.9961,427.0616,189.2872,437.0129,188.4276,446.9643,189.2844,456.9156,189.5482,466.8669,189.4445,476.8183,189.613,486.7696,188.5169,496.7209,188.3478,506.6723,188.3786,516.6236,188.9411,526.5749,188.8035,536.5263,189.6814,546.4776,188.8253,556.4289,188.6569,566.3803,189.2283,576.3316,188.3332,586.2829,188.4809,596.2342,189.649,606.1856,189.4357,616.1369,189.7345,626.0882,188.6782,636.0396,189.3192,645.9909,189.5904,655.9422,188.5276,665.8936,188.9041,675.8449,189.126,685.7962,189.6518,695.7476,188.9958,705.6989,189.4626,715.6502,189,725.6016,189,725.417,187,725.3758,185,725.7694,183,725.3626,181,725.7712,179,725.6016,179.2066,725.6016,178.7321,715.6502,178.6462,705.6989,179.4588,695.7476,178.7007,685.7962,179.5919,675.8449,178.4473,665.8936,179.6174,655.9422,179.4843,645.9909,179.245,636.0396,179.0472,626.0882,179.7266,616.1369,179.6136,606.1856,179.1693,596.2342,179.2682,586.2829,178.8697,576.3316,179.7165,566.3803,179.1549,556.4289,179.1726,546.4776,178.3916,536.5263,178.5948,526.5749,179.5307,516.6236,179.4298,506.6723,178.9571,496.7209,178.6778,486.7696,178.7811,476.8183,178.3138,466.8669,179.4147,456.9156,179.7396,446.9643,179.5264,437.0129,179.6949,427.0616,178.8633,417.1103,179.0872,407.1589,178.6124,397.2076,179.284,387.2563,179.2468,377.3049,179.5524,367.3536,178.7703,357.4023,178.8656,347.4509,179.4435,337.4996,179.5673,327.5483,178.4875,317.597,178.8061,307.6456,179.1493,297.6943,178.3892,287.743,179.3534,277.7916,179.258,267.8403,178.8992,257.889,179.1422,247.9376,179.7287,237.9863,178.6871,228.035,179.315,218.0836,179.2856,208.1323,179.1158,198.181,179.1409,188.2296,179.1135,178.2783,178.3758,168.327,178.5992,158.3756,178.5385,148.4243,179.0638,138.473,179.0881,128.5216,179,118.5703" style="stroke:#181818;stroke-width:1.0;"/><polygon fill="#FFFFFF" points="364,239.9766,364,240.0466,366,239.8385,368,240.041,370,240.1098,372,239.7388,374,239.9766,373.9223,239.9766,373.5735,249.8738,373.6165,259.7711,373.9318,269.6683,373.3086,279.5656,374.5536,289.4628,373.3697,299.3601,373.8022,309.2573,374.4319,319.1546,373.9142,329.0518,374.0682,338.949,373.9681,348.8463,374.1785,358.7435,374.2391,368.6408,374.5857,378.538,374.6711,388.4353,374.6793,398.3325,374.2546,408.2298,374.4636,418.127,374.7022,428.0243,373.2788,437.9215,374.6785,447.8188,373.7035,457.716,374.5338,467.6133,373.505,477.5105,373.9315,487.4078,374.7416,497.305,373.9513,507.2023,374.1053,517.0995,374.3386,526.9968,374.4162,536.894,373.9961,546.7913,374.2872,556.6885,373.4276,566.5858,374.2844,576.483,374.5482,586.3803,374.4445,596.2775,374.613,606.1748,373.5169,616.072,373.3478,625.9693,373.3786,635.8665,373.9411,645.7638,373.8035,655.661,374.6814,665.5583,373.8253,675.4555,373.6569,685.3528,374,695.25,374,695.3261,372,695.0277,370,695.077,368,695.4663,366,695.3952,364,695.25,364.7345,695.25,363.6782,685.3528,364.3192,675.4555,364.5904,665.5583,363.5276,655.661,363.9041,645.7638,364.126,635.8665,364.6518,625.9693,363.9958,616.072,364.4626,606.1748,363.4462,596.2775,363.3227,586.3803,364.5036,576.483,363.2831,566.5858,364.509,556.6885,364.2066,546.7913,363.7321,536.894,363.6462,526.9968,364.4588,517.0995,363.7007,507.2023,364.5919,497.305,363.4473,487.4078,364.6174,477.5105,364.4843,467.6133,364.245,457.716,364.0472,447.8188,364.7266,437.9215,364.6136,428.0243,364.1693,418.127,364.2682,408.2298,363.8697,398.3325,364.7165,388.4353,364.1549,378.538,364.1726,368.6408,363.3916,358.7435,363.5948,348.8463,364.5307,338.949,364.4298,329.0518,363.9571,319.1546,363.6778,309.2573,363.7811,299.3601,363.3138,289.4628,364.4147,279.5656,364.7396,269.6683,364.5264,259.7711,364.6949,249.8738,364,239.9766" style="stroke:#181818;stroke-width:1.0;"/><polygon fill="#FFFFFF" points="518.5,452.4375,518.5,452.5076,520.5,452.2994,522.5,452.5019,524.5,452.5707,526.5,452.1997,528.5,452.4375,528.4741,452.4375,528.3578,458.5078,528.3722,464.5781,528.4773,470.6484,528.2695,476.7188,528.5,482.7891,528.5,482.9736,526.5,482.579,524.5,482.7231,522.5,482.933,520.5,482.7605,518.5,482.7891,518.5227,482.7891,518.4894,476.7188,518.5595,470.6484,518.5797,464.5781,518.6952,458.5078,518.5,452.4375" style="stroke:#181818;stroke-width:1.0;"/><polygon fill="#FFFFFF" points="985.5,270.3281,985.5,270.3982,987.5,270.19,989.5,270.3926,991.5,270.4614,993.5,270.0903,995.5,270.3281,995.4223,270.3281,995.0735,280.4453,995.1165,290.5625,995.4318,300.6797,994.8086,310.7969,996.0536,320.9141,995.5,331.0313,995.5,330.8212,993.5,330.9653,991.5,331.1752,989.5,331.0027,987.5,331.054,985.5,331.0313,985.4681,331.0313,985.6785,320.9141,985.7391,310.7969,986.0857,300.6797,986.1711,290.5625,986.1793,280.4453,985.5,270.3281" style="stroke:#181818;stroke-width:1.0;"/><polygon fill="#FFFFFF" points="1128.5,361.3828,1128.5,361.4529,1130.5,361.2447,1132.5,361.4472,1134.5,361.516,1136.5,361.145,1138.5,361.3828,1138.4223,361.3828,1138.0735,371.5,1138.1165,381.6172,1138.4318,391.7344,1137.8086,401.8516,1139.0536,411.9688,1138.5,422.0859,1138.5,421.8758,1136.5,422.02,1134.5,422.2299,1132.5,422.0573,1130.5,422.1087,1128.5,422.0859,1128.4681,422.0859,1128.6785,411.9688,1128.7391,401.8516,1129.0857,391.7344,1129.1711,381.6172,1129.1793,371.5,1128.5,361.3828" style="stroke:#181818;stroke-width:1.0;"/><polygon fill="#FFFFFF" points="1255,543.4922,1255,543.5622,1257,543.3541,1259,543.5566,1261,543.6254,1263,543.2544,1265,543.4922,1264.9741,543.4922,1264.8578,549.5625,1264.8722,555.6328,1264.9773,561.7031,1264.7695,567.7734,1265,573.8438,1265,574.0283,1263,573.6337,1261,573.7778,1259,573.9877,1257,573.8152,1255,573.8438,1255.0227,573.8438,1254.9894,567.7734,1255.0595,561.7031,1255.0797,555.6328,1255.1952,549.5625,1255,543.4922" style="stroke:#181818;stroke-width:1.0;"/><polygon fill="#FFFFFF" points="1255,634.5469,1255,634.6169,1257,634.4088,1259,634.6113,1261,634.6801,1263,634.3091,1265,634.5469,1264.9741,634.5469,1264.8578,640.6172,1264.8722,646.6875,1264.9773,652.7578,1264.7695,658.8281,1265,664.8984,1265,665.083,1263,664.6883,1261,664.8325,1259,665.0424,1257,664.8698,1255,664.8984,1255.0227,664.8984,1254.9894,658.8281,1255.0595,652.7578,1255.0797,646.6875,1255.1952,640.6172,1255,634.5469" style="stroke:#181818;stroke-width:1.0;"/><path d="M36,86.2188 L36.2802,86.2188 L35.4476,96.1791 L36.2577,106.1394 L36.5329,116.0998 L35.0488,126.0601 L35.8964,136.0205 L35.4313,145.9808 L35.4887,155.9412 L35.9091,165.9015 L35.0782,175.8619 L36.7382,185.8222 L35.1596,195.7826 L35.7363,205.7429 L36.5759,215.7032 L35.8856,225.6636 L36.091,235.6239 L35.9574,245.5843 L36.238,255.5446 L36.3188,265.505 L36.7809,275.4653 L36.8947,285.4257 L36.9057,295.386 L36.3395,305.3464 L36.6181,315.3067 L36.9363,325.267 L35.0384,335.2274 L36.9047,345.1877 L35.6047,355.1481 L36.7117,365.1084 L35.34,375.0688 L35.9087,385.0291 L36.9888,394.9895 L35.935,404.9498 L36.1404,414.9102 L36.4515,424.8705 L36.555,434.8308 L35.9948,444.7912 L36.383,454.7515 L35.2368,464.7119 L36.3792,474.6722 L36.7309,484.6326 L36.5927,494.5929 L36.8174,504.5533 L35.3559,514.5136 L35.1304,524.474 L35.1715,534.4343 L35.9215,544.3946 L35.738,554.355 L36.9085,564.3153 L35.7671,574.2757 L35.5426,584.236 L36.3044,594.1964 L35.1109,604.1567 L35.3078,614.1171 L36.8653,624.0774 L36.5809,634.0378 L36.9793,643.9981 L35.5709,653.9585 L36.4256,663.9188 L36.7872,673.8791 L35.3701,683.8395 L35.8722,693.7998 L36.168,703.7602 L36.869,713.7205 L35.9944,723.6809 L36.6168,733.6412 L36,743.6016 " fill="none" style="stroke:#181818;stroke-width:0.5;stroke-dasharray:5.0,5.0;"/><path d="M184,86.2188 L184.2802,86.2188 L183.4476,96.1791 L184.2577,106.1394 L184.5329,116.0998 L183.0488,126.0601 L183.8964,136.0205 L183.4313,145.9808 L183.4887,155.9412 L183.9091,165.9015 L183.0782,175.8619 L184.7382,185.8222 L183.1596,195.7826 L183.7363,205.7429 L184.5759,215.7032 L183.8856,225.6636 L184.091,235.6239 L183.9574,245.5843 L184.238,255.5446 L184.3188,265.505 L184.7809,275.4653 L184.8947,285.4257 L184.9057,295.386 L184.3395,305.3464 L184.6181,315.3067 L184.9363,325.267 L183.0384,335.2274 L184.9047,345.1877 L183.6047,355.1481 L184.7117,365.1084 L183.34,375.0688 L183.9087,385.0291 L184.9888,394.9895 L183.935,404.9498 L184.1404,414.9102 L184.4515,424.8705 L184.555,434.8308 L183.9948,444.7912 L184.383,454.7515 L183.2368,464.7119 L184.3792,474.6722 L184.7309,484.6326 L184.5927,494.5929 L184.8174,504.5533 L183.3559,514.5136 L183.1304,524.474 L183.1715,534.4343 L183.9215,544.3946 L183.738,554.355 L184.9085,564.3153 L183.7671,574.2757 L183.5426,584.236 L184.3044,594.1964 L183.1109,604.1567 L183.3078,614.1171 L184.8653,624.0774 L184.5809,634.0378 L184.9793,643.9981 L183.5709,653.9585 L184.4256,663.9188 L184.7872,673.8791 L183.3701,683.8395 L183.8722,693.7998 L184.168,703.7602 L184.869,713.7205 L183.9944,723.6809 L184.6168,733.6412 L184,743.6016 " fill="none" style="stroke:#181818;stroke-width:0.5;stroke-dasharray:5.0,5.0;"/><path d="M369,86.2188 L369.2802,86.2188 L368.4476,96.1791 L369.2577,106.1394 L369.5329,116.0998 L368.0488,126.0601 L368.8964,136.0205 L368.4313,145.9808 L368.4887,155.9412 L368.9091,165.9015 L368.0782,175.8619 L369.7382,185.8222 L368.1596,195.7826 L368.7363,205.7429 L369.5759,215.7032 L368.8856,225.6636 L369.091,235.6239 L368.9574,245.5843 L369.238,255.5446 L369.3188,265.505 L369.7809,275.4653 L369.8947,285.4257 L369.9057,295.386 L369.3395,305.3464 L369.6181,315.3067 L369.9363,325.267 L368.0384,335.2274 L369.9047,345.1877 L368.6047,355.1481 L369.7117,365.1084 L368.34,375.0688 L368.9087,385.0291 L369.9888,394.9895 L368.935,404.9498 L369.1404,414.9102 L369.4515,424.8705 L369.555,434.8308 L368.9948,444.7912 L369.383,454.7515 L368.2368,464.7119 L369.3792,474.6722 L369.7309,484.6326 L369.5927,494.5929 L369.8174,504.5533 L368.3559,514.5136 L368.1304,524.474 L368.1715,534.4343 L368.9215,544.3946 L368.738,554.355 L369.9085,564.3153 L368.7671,574.2757 L368.5426,584.236 L369.3044,594.1964 L368.1109,604.1567 L368.3078,614.1171 L369.8653,624.0774 L369.5809,634.0378 L369.9793,643.9981 L368.5709,653.9585 L369.4256,663.9188 L369.7872,673.8791 L368.3701,683.8395 L368.8722,693.7998 L369.168,703.7602 L369.869,713.7205 L368.9944,723.6809 L369.6168,733.6412 L369,743.6016 " fill="none" style="stroke:#181818;stroke-width:0.5;stroke-dasharray:5.0,5.0;"/><path d="M523,86.2188 L523.2802,86.2188 L522.4476,96.1791 L523.2577,106.1394 L523.5329,116.0998 L522.0488,126.0601 L522.8964,136.0205 L522.4313,145.9808 L522.4887,155.9412 L522.9091,165.9015 L522.0782,175.8619 L523.7382,185.8222 L522.1596,195.7826 L522.7363,205.7429 L523.5759,215.7032 L522.8856,225.6636 L523.091,235.6239 L522.9574,245.5843 L523.238,255.5446 L523.3188,265.505 L523.7809,275.4653 L523.8947,285.4257 L523.9057,295.386 L523.3395,305.3464 L523.6181,315.3067 L523.9363,325.267 L522.0384,335.2274 L523.9047,345.1877 L522.6047,355.1481 L523.7117,365.1084 L522.34,375.0688 L522.9087,385.0291 L523.9888,394.9895 L522.935,404.9498 L523.1404,414.9102 L523.4515,424.8705 L523.555,434.8308 L522.9948,444.7912 L523.383,454.7515 L522.2368,464.7119 L523.3792,474.6722 L523.7309,484.6326 L523.5927,494.5929 L523.8174,504.5533 L522.3559,514.5136 L522.1304,524.474 L522.1715,534.4343 L522.9215,544.3946 L522.738,554.355 L523.9085,564.3153 L522.7671,574.2757 L522.5426,584.236 L523.3044,594.1964 L522.1109,604.1567 L522.3078,614.1171 L523.8653,624.0774 L523.5809,634.0378 L523.9793,643.9981 L522.5709,653.9585 L523.4256,663.9188 L523.7872,673.8791 L522.3701,683.8395 L522.8722,693.7998 L523.168,703.7602 L523.869,713.7205 L522.9944,723.6809 L523.6168,733.6412 L523,743.6016 " fill="none" style="stroke:#181818;stroke-width:0.5;stroke-dasharray:5.0,5.0;"/><path d="M754.5,86.2188 L754.7802,86.2188 L753.9476,96.1791 L754.7577,106.1394 L755.0329,116.0998 L753.5488,126.0601 L754.3964,136.0205 L753.9313,145.9808 L753.9887,155.9412 L754.4091,165.9015 L753.5782,175.8619 L755.2382,185.8222 L753.6596,195.7826 L754.2363,205.7429 L755.0759,215.7032 L754.3856,225.6636 L754.591,235.6239 L754.4574,245.5843 L754.738,255.5446 L754.8188,265.505 L755.2809,275.4653 L755.3947,285.4257 L755.4057,295.386 L754.8395,305.3464 L755.1181,315.3067 L755.4363,325.267 L753.5384,335.2274 L755.4047,345.1877 L754.1047,355.1481 L755.2117,365.1084 L753.84,375.0688 L754.4087,385.0291 L755.4888,394.9895 L754.435,404.9498 L754.6404,414.9102 L754.9515,424.8705 L755.055,434.8308 L754.4948,444.7912 L754.883,454.7515 L753.7368,464.7119 L754.8792,474.6722 L755.2309,484.6326 L755.0927,494.5929 L755.3174,504.5533 L753.8559,514.5136 L753.6304,524.474 L753.6715,534.4343 L754.4215,544.3946 L754.238,554.355 L755.4085,564.3153 L754.2671,574.2757 L754.0426,584.236 L754.8044,594.1964 L753.6109,604.1567 L753.8078,614.1171 L755.3653,624.0774 L755.0809,634.0378 L755.4793,643.9981 L754.0709,653.9585 L754.9256,663.9188 L755.2872,673.8791 L753.8701,683.8395 L754.3722,693.7998 L754.668,703.7602 L755.369,713.7205 L754.4944,723.6809 L755.1168,733.6412 L754.5,743.6016 " fill="none" style="stroke:#181818;stroke-width:0.5;stroke-dasharray:5.0,5.0;"/><path d="M874.5,86.2188 L874.7802,86.2188 L873.9476,96.1791 L874.7577,106.1394 L875.0329,116.0998 L873.5488,126.0601 L874.3964,136.0205 L873.9313,145.9808 L873.9887,155.9412 L874.4091,165.9015 L873.5782,175.8619 L875.2382,185.8222 L873.6596,195.7826 L874.2363,205.7429 L875.0759,215.7032 L874.3856,225.6636 L874.591,235.6239 L874.4574,245.5843 L874.738,255.5446 L874.8188,265.505 L875.2809,275.4653 L875.3947,285.4257 L875.4057,295.386 L874.8395,305.3464 L875.1181,315.3067 L875.4363,325.267 L873.5384,335.2274 L875.4047,345.1877 L874.1047,355.1481 L875.2117,365.1084 L873.84,375.0688 L874.4087,385.0291 L875.4888,394.9895 L874.435,404.9498 L874.6404,414.9102 L874.9515,424.8705 L875.055,434.8308 L874.4948,444.7912 L874.883,454.7515 L873.7368,464.7119 L874.8792,474.6722 L875.2309,484.6326 L875.0927,494.5929 L875.3174,504.5533 L873.8559,514.5136 L873.6304,524.474 L873.6715,534.4343 L874.4215,544.3946 L874.238,554.355 L875.4085,564.3153 L874.2671,574.2757 L874.0426,584.236 L874.8044,594.1964 L873.6109,604.1567 L873.8078,614.1171 L875.3653,624.0774 L875.0809,634.0378 L875.4793,643.9981 L874.0709,653.9585 L874.9256,663.9188 L875.2872,673.8791 L873.8701,683.8395 L874.3722,693.7998 L874.668,703.7602 L875.369,713.7205 L874.4944,723.6809 L875.1168,733.6412 L874.5,743.6016 " fill="none" style="stroke:#181818;stroke-width:0.5;stroke-dasharray:5.0,5.0;"/><path d="M990.5,86.2188 L990.7802,86.2188 L989.9476,96.1791 L990.7577,106.1394 L991.0329,116.0998 L989.5488,126.0601 L990.3964,136.0205 L989.9313,145.9808 L989.9887,155.9412 L990.4091,165.9015 L989.5782,175.8619 L991.2382,185.8222 L989.6596,195.7826 L990.2363,205.7429 L991.0759,215.7032 L990.3856,225.6636 L990.591,235.6239 L990.4574,245.5843 L990.738,255.5446 L990.8188,265.505 L991.2809,275.4653 L991.3947,285.4257 L991.4057,295.386 L990.8395,305.3464 L991.1181,315.3067 L991.4363,325.267 L989.5384,335.2274 L991.4047,345.1877 L990.1047,355.1481 L991.2117,365.1084 L989.84,375.0688 L990.4087,385.0291 L991.4888,394.9895 L990.435,404.9498 L990.6404,414.9102 L990.9515,424.8705 L991.055,434.8308 L990.4948,444.7912 L990.883,454.7515 L989.7368,464.7119 L990.8792,474.6722 L991.2309,484.6326 L991.0927,494.5929 L991.3174,504.5533 L989.8559,514.5136 L989.6304,524.474 L989.6715,534.4343 L990.4215,544.3946 L990.238,554.355 L991.4085,564.3153 L990.2671,574.2757 L990.0426,584.236 L990.8044,594.1964 L989.6109,604.1567 L989.8078,614.1171 L991.3653,624.0774 L991.0809,634.0378 L991.4793,643.9981 L990.0709,653.9585 L990.9256,663.9188 L991.2872,673.8791 L989.8701,683.8395 L990.3722,693.7998 L990.668,703.7602 L991.369,713.7205 L990.4944,723.6809 L991.1168,733.6412 L990.5,743.6016 " fill="none" style="stroke:#181818;stroke-width:0.5;stroke-dasharray:5.0,5.0;"/><path d="M1133.5,86.2188 L1133.7802,86.2188 L1132.9476,96.1791 L1133.7577,106.1394 L1134.0329,116.0998 L1132.5488,126.0601 L1133.3964,136.0205 L1132.9313,145.9808 L1132.9887,155.9412 L1133.4091,165.9015 L1132.5782,175.8619 L1134.2382,185.8222 L1132.6596,195.7826 L1133.2363,205.7429 L1134.0759,215.7032 L1133.3856,225.6636 L1133.591,235.6239 L1133.4574,245.5843 L1133.738,255.5446 L1133.8188,265.505 L1134.2809,275.4653 L1134.3947,285.4257 L1134.4057,295.386 L1133.8395,305.3464 L1134.1181,315.3067 L1134.4363,325.267 L1132.5384,335.2274 L1134.4047,345.1877 L1133.1047,355.1481 L1134.2117,365.1084 L1132.84,375.0688 L1133.4087,385.0291 L1134.4888,394.9895 L1133.435,404.9498 L1133.6404,414.9102 L1133.9515,424.8705 L1134.055,434.8308 L1133.4948,444.7912 L1133.883,454.7515 L1132.7368,464.7119 L1133.8792,474.6722 L1134.2309,484.6326 L1134.0927,494.5929 L1134.3174,504.5533 L1132.8559,514.5136 L1132.6304,524.474 L1132.6715,534.4343 L1133.4215,544.3946 L1133.238,554.355 L1134.4085,564.3153 L1133.2671,574.2757 L1133.0426,584.236 L1133.8044,594.1964 L1132.6109,604.1567 L1132.8078,614.1171 L1134.3653,624.0774 L1134.0809,634.0378 L1134.4793,643.9981 L1133.0709,653.9585 L1133.9256,663.9188 L1134.2872,673.8791 L1132.8701,683.8395 L1133.3722,693.7998 L1133.668,703.7602 L1134.369,713.7205 L1133.4944,723.6809 L1134.1168,733.6412 L1133.5,743.6016 " fill="none" style="stroke:#181818;stroke-width:0.5;stroke-dasharray:5.0,5.0;"/><path d="M1259.5,86.2188 L1259.7802,86.2188 L1258.9476,96.1791 L1259.7577,106.1394 L1260.0329,116.0998 L1258.5488,126.0601 L1259.3964,136.0205 L1258.9313,145.9808 L1258.9887,155.9412 L1259.4091,165.9015 L1258.5782,175.8619 L1260.2382,185.8222 L1258.6596,195.7826 L1259.2363,205.7429 L1260.0759,215.7032 L1259.3856,225.6636 L1259.591,235.6239 L1259.4574,245.5843 L1259.738,255.5446 L1259.8188,265.505 L1260.2809,275.4653 L1260.3947,285.4257 L1260.4057,295.386 L1259.8395,305.3464 L1260.1181,315.3067 L1260.4363,325.267 L1258.5384,335.2274 L1260.4047,345.1877 L1259.1047,355.1481 L1260.2117,365.1084 L1258.84,375.0688 L1259.4087,385.0291 L1260.4888,394.9895 L1259.435,404.9498 L1259.6404,414.9102 L1259.9515,424.8705 L1260.055,434.8308 L1259.4948,444.7912 L1259.883,454.7515 L1258.7368,464.7119 L1259.8792,474.6722 L1260.2309,484.6326 L1260.0927,494.5929 L1260.3174,504.5533 L1258.8559,514.5136 L1258.6304,524.474 L1258.6715,534.4343 L1259.4215,544.3946 L1259.238,554.355 L1260.4085,564.3153 L1259.2671,574.2757 L1259.0426,584.236 L1259.8044,594.1964 L1258.6109,604.1567 L1258.8078,614.1171 L1260.3653,624.0774 L1260.0809,634.0378 L1260.4793,643.9981 L1259.0709,653.9585 L1259.9256,663.9188 L1260.2872,673.8791 L1258.8701,683.8395 L1259.3722,693.7998 L1259.668,703.7602 L1260.369,713.7205 L1259.4944,723.6809 L1260.1168,733.6412 L1259.5,743.6016 " fill="none" style="stroke:#181818;stroke-width:0.5;stroke-dasharray:5.0,5.0;"/><text fill="#000000" font-family="FG Virgil" font-size="14" lengthAdjust="spacing" textLength="56" x="5" y="83.1426">Manager</text><polygon fill="#E3E3E3" points="44.0442,19.0553,42.8715,20.6576,41.4845,23.0044,39.5008,24.586,37.4163,25.4509,35.7542,25.526,33.618,24.4443,31.6023,23.7377,30.0724,22.303,29.2699,20.6605,28.7939,19.3527,28.3277,17.6444,27.5709,16.1744,28.1525,14.7392,28.662,13.167,30.574,11.9235,31.9192,10.3102,33.5843,9.7744,35.5637,9.313,38.1021,9.5872,39.4924,10.2429,41.1089,10.5401,43.0743,12.5537,43.7595,14.6795,44.0571,16.13,43.72,18.5202" style="stroke:#181818;stroke-width:0.5;"/><path d="M36,25.1094 L36.1868,25.1094 L35.6317,30.5094 L36.1718,35.9094 L36.3553,41.3094 L35.3659,46.7094 L36,52.1094 M23,33.1094 L23,33.0403 L28.2,32.7303 L33.4,32.7685 L38.6,33.0488 L43.8,32.4948 L49,33.1094 M36,52.1094 L36.3719,52.4317 L32.9766,54.7425 L30.6672,57.9942 L28.4901,61.3608 L25.5424,64.0594 L23,67.1094 M36,52.1094 L36.0458,52.1491 L38.5785,55.0908 L41.3199,58.2133 L43.9606,61.2486 L46.7934,64.4503 L49,67.1094 " fill="none" style="stroke:#181818;stroke-width:0.5;"/><text fill="#000000" font-family="FG Virgil" font-size="14" lengthAdjust="spacing" textLength="56" x="5" y="757.1348">Manager</text><polygon fill="#E3E3E3" points="44.0442,770.6569,42.8715,772.2592,41.4845,774.606,39.5008,776.1876,37.4163,777.0525,35.7542,777.1275,33.618,776.0459,31.6023,775.3392,30.0724,773.9045,29.2699,772.262,28.7939,770.9542,28.3277,769.246,27.5709,767.776,28.1525,766.3408,28.662,764.7686,30.574,763.5251,31.9192,761.9117,33.5843,761.376,35.5637,760.9146,38.1021,761.1887,39.4924,761.8444,41.1089,762.1416,43.0743,764.1553,43.7595,766.2811,44.0571,767.7316,43.72,770.1218" style="stroke:#181818;stroke-width:0.5;"/><path d="M36,776.7109 L36.1868,776.7109 L35.6317,782.1109 L36.1718,787.5109 L36.3553,792.9109 L35.3659,798.3109 L36,803.7109 M23,784.7109 L23,784.6419 L28.2,784.3318 L33.4,784.37 L38.6,784.6504 L43.8,784.0964 L49,784.7109 M36,803.7109 L36.3719,804.0332 L32.9766,806.344 L30.6672,809.5958 L28.4901,812.9624 L25.5424,815.661 L23,818.7109 M36,803.7109 L36.0458,803.7507 L38.5785,806.6923 L41.3199,809.8149 L43.9606,812.8502 L46.7934,816.0519 L49,818.7109 " fill="none" style="stroke:#181818;stroke-width:0.5;"/><polygon fill="#E3E3E3" points="117.5,36,117.5,36.2102,127.7308,35.5857,137.9615,36.1933,148.1923,36.3997,158.4231,35.2866,168.6538,35.9223,178.8846,35.5735,189.1154,35.6165,199.3462,35.9318,209.5769,35.3086,219.8077,36.5536,230.0385,35.3697,240.2692,35.8022,250.5,36,250.5551,36.133,250.8426,36.12,251.2158,36.3139,251.5566,36.4295,251.937,36.6408,252.2678,36.7322,252.3414,36.7627,252.5946,37.1605,252.7673,37.5249,252.9163,37.8795,252.932,38.1789,253,38.5,253.1545,38.5,253.2341,47.3438,252.7596,56.1875,253.2262,65.0313,252.9012,73.875,253,82.7188,253.1644,82.7868,252.7011,83.0092,252.686,83.4171,252.789,83.874,252.3992,84.1267,252.2678,84.4865,252.2812,84.5189,251.9574,84.7372,251.6138,84.9076,251.2066,84.9247,250.8902,85.1608,250.5,85.2188,250.5,84.6463,240.2692,85.5031,230.0385,85.7669,219.8077,85.6633,209.5769,85.8318,199.3462,84.7357,189.1154,84.5666,178.8846,84.5973,168.6538,85.1599,158.4231,85.0222,148.1923,85.9002,137.9615,85.0441,127.7308,84.8757,117.5,85.2188,117.5291,85.289,117.0614,84.8669,116.7267,84.766,116.5221,84.9793,116.1414,84.7671,115.7322,84.4865,115.9584,84.5802,115.4867,84.0919,115.5376,83.8201,115.4747,83.5012,115.001,83.012,115,82.7188,114.968,82.7188,115.042,73.875,115.2173,65.0313,114.9986,56.1875,115.1542,47.3438,115,38.5,114.8295,38.4294,114.9379,38.0601,115.448,37.8571,115.2186,37.3479,115.7425,37.1507,115.7322,36.7322,115.7586,36.7959,116.0516,36.5033,116.3942,36.3304,116.8514,36.4342,117.1083,36.0543,117.5,36" style="stroke:#181818;stroke-width:0.5;"/><text fill="#000000" font-family="FG Virgil" font-size="14" font-style="italic" lengthAdjust="spacing" textLength="95" x="136.5" y="57.5332">«presentation»</text><text fill="#000000" font-family="FG Virgil" font-size="14" lengthAdjust="spacing" textLength="124" x="122" y="75.1426">ChangeUserStateUI</text><polygon fill="#E3E3E3" points="117.5,742.6016,117.5,742.8117,127.7308,742.1872,137.9615,742.7948,148.1923,743.0012,158.4231,741.8882,168.6538,742.5238,178.8846,742.1751,189.1154,742.2181,199.3462,742.5334,209.5769,741.9102,219.8077,743.1552,230.0385,741.9713,240.2692,742.4038,250.5,742.6016,250.5551,742.7346,250.8426,742.7216,251.2158,742.9155,251.5566,743.0311,251.937,743.2423,252.2678,743.3338,252.3414,743.3643,252.5946,743.7621,252.7673,744.1265,252.9163,744.4811,252.932,744.7805,253,745.1016,253.1545,745.1016,253.2341,753.9453,252.7596,762.7891,253.2262,771.6328,252.9012,780.4766,253,789.3203,253.1644,789.3884,252.7011,789.6107,252.686,790.0187,252.789,790.4756,252.3992,790.7283,252.2678,791.0881,252.2812,791.1205,251.9574,791.3388,251.6138,791.5092,251.2066,791.5262,250.8902,791.7623,250.5,791.8203,250.5,791.2479,240.2692,792.1047,230.0385,792.3685,219.8077,792.2648,209.5769,792.4333,199.3462,791.3372,189.1154,791.1681,178.8846,791.1989,168.6538,791.7614,158.4231,791.6238,148.1923,792.5017,137.9615,791.6456,127.7308,791.4773,117.5,791.8203,117.5291,791.8906,117.0614,791.4685,116.7267,791.3675,116.5221,791.5808,116.1414,791.3687,115.7322,791.0881,115.9584,791.1818,115.4867,790.6935,115.5376,790.4217,115.4747,790.1027,115.001,789.6136,115,789.3203,114.968,789.3203,115.042,780.4766,115.2173,771.6328,114.9986,762.7891,115.1542,753.9453,115,745.1016,114.8295,745.0309,114.9379,744.6616,115.448,744.4587,115.2186,743.9494,115.7425,743.7523,115.7322,743.3338,115.7586,743.3974,116.0516,743.1048,116.3942,742.932,116.8514,743.0357,117.1083,742.6558,117.5,742.6016" style="stroke:#181818;stroke-width:0.5;"/><text fill="#000000" font-family="FG Virgil" font-size="14" font-style="italic" lengthAdjust="spacing" textLength="95" x="136.5" y="764.1348">«presentation»</text><text fill="#000000" font-family="FG Virgil" font-size="14" lengthAdjust="spacing" textLength="124" x="122" y="781.7441">ChangeUserStateUI</text><polygon fill="#E3E3E3" points="277.5,36,277.5,36.2102,287.6667,35.5857,297.8333,36.1933,308,36.3997,318.1667,35.2866,328.3333,35.9223,338.5,35.5735,348.6667,35.6165,358.8333,35.9318,369,35.3086,379.1667,36.5536,389.3333,35.3697,399.5,35.8022,409.6667,36.4319,419.8333,35.9142,430,36.0682,440.1667,35.9681,450.3333,36.1785,460.5,36,460.5305,36.0736,460.9283,36.3268,461.2927,36.4996,461.6473,36.6485,461.9467,36.6642,462.2678,36.7322,462.4105,36.7914,462.6305,37.1754,462.3386,37.3473,462.9161,37.8794,462.7622,38.1086,463,38.5,463.1779,38.5,462.835,47.3438,462.9772,56.1875,463.2472,65.0313,462.9838,73.875,463,82.7188,463.0324,82.7322,462.9578,83.1155,462.8353,83.479,462.5595,83.7789,462.5027,84.1696,462.2678,84.4865,462.1947,84.3102,461.9505,84.7205,461.6306,84.9482,461.2638,85.0628,460.9318,85.2611,460.5,85.2188,460.5,84.7357,450.3333,84.5666,440.1667,84.5973,430,85.1599,419.8333,85.0222,409.6667,85.9002,399.5,85.0441,389.3333,84.8757,379.1667,85.447,369,84.5519,358.8333,84.6996,348.6667,85.8677,338.5,85.6544,328.3333,85.9532,318.1667,84.897,308,85.5379,297.8333,85.8092,287.6667,84.7463,277.5,85.2188,277.4878,85.1892,277.1625,85.1111,276.876,85.1266,276.4388,84.7781,276.1448,84.7754,275.7322,84.4865,275.5617,84.4159,275.3772,84.0466,275.5944,83.8437,275.0721,83.3344,275.3032,83.1372,275,82.7188,275.0689,82.7188,274.9107,73.875,274.8821,65.0313,275.1529,56.1875,274.9002,47.3438,275,38.5,275.1823,38.5755,274.9762,38.0759,275.483,37.8717,275.5885,37.5011,275.6612,37.117,275.7322,36.7322,275.7383,36.7468,276.1785,36.8096,276.5176,36.6283,276.8145,36.345,277.1807,36.229,277.5,36" style="stroke:#181818;stroke-width:0.5;"/><text fill="#000000" font-family="FG Virgil" font-size="14" font-style="italic" lengthAdjust="spacing" textLength="84" x="327" y="57.5332">«application»</text><text fill="#000000" font-family="FG Virgil" font-size="14" lengthAdjust="spacing" textLength="174" x="282" y="75.1426">ChangeUserStateController</text><polygon fill="#E3E3E3" points="277.5,742.6016,277.5,742.8117,287.6667,742.1872,297.8333,742.7948,308,743.0012,318.1667,741.8882,328.3333,742.5238,338.5,742.1751,348.6667,742.2181,358.8333,742.5334,369,741.9102,379.1667,743.1552,389.3333,741.9713,399.5,742.4038,409.6667,743.0335,419.8333,742.5158,430,742.6698,440.1667,742.5696,450.3333,742.7801,460.5,742.6016,460.5305,742.6752,460.9283,742.9284,461.2927,743.1011,461.6473,743.2501,461.9467,743.2658,462.2678,743.3338,462.4105,743.3929,462.6305,743.7769,462.3386,743.9489,462.9161,744.481,462.7622,744.7102,463,745.1016,463.1779,745.1016,462.835,753.9453,462.9772,762.7891,463.2472,771.6328,462.9838,780.4766,463,789.3203,463.0324,789.3337,462.9578,789.7171,462.8353,790.0805,462.5595,790.3805,462.5027,790.7712,462.2678,791.0881,462.1947,790.9118,461.9505,791.3221,461.6306,791.5498,461.2638,791.6643,460.9318,791.8627,460.5,791.8203,460.5,791.3372,450.3333,791.1681,440.1667,791.1989,430,791.7614,419.8333,791.6238,409.6667,792.5017,399.5,791.6456,389.3333,791.4773,379.1667,792.0486,369,791.1535,358.8333,791.3012,348.6667,792.4693,338.5,792.256,328.3333,792.5548,318.1667,791.4985,308,792.1395,297.8333,792.4107,287.6667,791.3479,277.5,791.8203,277.4878,791.7908,277.1625,791.7127,276.876,791.7281,276.4388,791.3797,276.1448,791.377,275.7322,791.0881,275.5617,791.0174,275.3772,790.6481,275.5944,790.4452,275.0721,789.936,275.3032,789.7388,275,789.3203,275.0689,789.3203,274.9107,780.4766,274.8821,771.6328,275.1529,762.7891,274.9002,753.9453,275,745.1016,275.1823,745.1771,274.9762,744.6775,275.483,744.4732,275.5885,744.1027,275.6612,743.7186,275.7322,743.3338,275.7383,743.3483,276.1785,743.4111,276.5176,743.2299,276.8145,742.9466,277.1807,742.8306,277.5,742.6016" style="stroke:#181818;stroke-width:0.5;"/><text fill="#000000" font-family="FG Virgil" font-size="14" font-style="italic" lengthAdjust="spacing" textLength="84" x="327" y="764.1348">«application»</text><text fill="#000000" font-family="FG Virgil" font-size="14" lengthAdjust="spacing" textLength="174" x="282" y="781.7441">ChangeUserStateController</text><polygon fill="#E3E3E3" points="475.5,36,475.5,36.2102,485.1,35.5857,494.7,36.1933,504.3,36.3997,513.9,35.2866,523.5,35.9223,533.1,35.5735,542.7,35.6165,552.3,35.9318,561.9,35.3086,571.5,36,571.5706,36.1705,571.7732,35.9523,572.1819,36.232,572.6158,36.5724,572.9033,36.5594,573.2678,36.7322,573.2888,36.7409,573.4044,37.0817,573.6156,37.4621,573.7808,37.8234,574.0339,38.2212,574,38.5,574.2237,38.5,574.2264,47.3438,574.0849,56.1875,574.1545,65.0313,574.2341,73.875,574,82.7188,573.7779,82.6268,574.0625,83.1589,573.6158,83.388,573.7251,83.8475,573.2618,84.0698,573.2678,84.4865,573.259,84.4654,573.0088,84.8613,572.5544,84.7644,572.2205,84.9583,571.8967,85.1766,571.5,85.2188,571.5,85.635,561.9,85.2148,552.3,85.506,542.7,84.6463,533.1,85.5031,523.5,85.7669,513.9,85.6633,504.3,85.8318,494.7,84.7357,485.1,84.5666,475.5,85.2188,475.4207,85.0274,475.1389,85.0542,474.7678,84.8653,474.5263,84.9893,474.0635,84.5792,473.7322,84.4865,473.6266,84.4428,473.6561,84.1621,473.234,83.6943,473.133,83.3596,473.3463,83.1551,473,82.7188,473.1452,82.7188,473.2448,73.875,472.8927,65.0313,473.1064,56.1875,473.1968,47.3438,473,38.5,472.8545,38.4397,473.1169,38.1342,473.3317,37.809,473.6401,37.5225,473.5845,37.0853,473.7322,36.7322,473.7912,36.8747,474.0151,36.4152,474.3529,36.2308,474.8571,36.448,475.055,35.9257,475.5,36" style="stroke:#181818;stroke-width:0.5;"/><text fill="#000000" font-family="FG Virgil" font-size="14" font-style="italic" lengthAdjust="spacing" textLength="34" x="506.5" y="57.5332">«util»</text><text fill="#000000" font-family="FG Virgil" font-size="14" lengthAdjust="spacing" textLength="87" x="480" y="75.1426">AuthzRegistry</text><polygon fill="#E3E3E3" points="475.5,742.6016,475.5,742.8117,485.1,742.1872,494.7,742.7948,504.3,743.0012,513.9,741.8882,523.5,742.5238,533.1,742.1751,542.7,742.2181,552.3,742.5334,561.9,741.9102,571.5,742.6016,571.5706,742.7721,571.7732,742.5539,572.1819,742.8336,572.6158,743.1739,572.9033,743.1609,573.2678,743.3338,573.2888,743.3425,573.4044,743.6833,573.6156,744.0637,573.7808,744.425,574.0339,744.8227,574,745.1016,574.2237,745.1016,574.2264,753.9453,574.0849,762.7891,574.1545,771.6328,574.2341,780.4766,574,789.3203,573.7779,789.2283,574.0625,789.7604,573.6158,789.9896,573.7251,790.4491,573.2618,790.6714,573.2678,791.0881,573.259,791.067,573.0088,791.4629,572.5544,791.366,572.2205,791.5598,571.8967,791.7781,571.5,791.8203,571.5,792.2365,561.9,791.8164,552.3,792.1075,542.7,791.2479,533.1,792.1047,523.5,792.3685,513.9,792.2648,504.3,792.4333,494.7,791.3372,485.1,791.1681,475.5,791.8203,475.4207,791.6289,475.1389,791.6557,474.7678,791.4669,474.5263,791.5908,474.0635,791.1807,473.7322,791.0881,473.6266,791.0443,473.6561,790.7636,473.234,790.2959,473.133,789.9612,473.3463,789.7566,473,789.3203,473.1452,789.3203,473.2448,780.4766,472.8927,771.6328,473.1064,762.7891,473.1968,753.9453,473,745.1016,472.8545,745.0413,473.1169,744.7358,473.3317,744.4105,473.6401,744.124,473.5845,743.6868,473.7322,743.3338,473.7912,743.4762,474.0151,743.0168,474.3529,742.8323,474.8571,743.0495,475.055,742.5272,475.5,742.6016" style="stroke:#181818;stroke-width:0.5;"/><text fill="#000000" font-family="FG Virgil" font-size="14" font-style="italic" lengthAdjust="spacing" textLength="34" x="506.5" y="764.1348">«util»</text><text fill="#000000" font-family="FG Virgil" font-size="14" lengthAdjust="spacing" textLength="87" x="480" y="781.7441">AuthzRegistry</text><polygon fill="#E3E3E3" points="686,36,686,36.2102,695.8571,35.5857,705.7143,36.1933,715.5714,36.3997,725.4286,35.2866,735.2857,35.9223,745.1429,35.5735,755,35.6165,764.8571,35.9318,774.7143,35.3086,784.5714,36.5536,794.4286,35.3697,804.2857,35.8022,814.1429,36.4319,824,36,823.9891,35.9736,824.3623,36.1675,824.703,36.2831,825.0834,36.4943,825.4447,36.6594,825.7678,36.7322,825.9481,36.8069,826.1209,37.1714,826.2698,37.526,826.2855,37.8254,826.4963,38.2056,826.5,38.5,826.7341,38.5,826.2596,47.3438,826.7262,56.1875,826.4012,65.0313,826.6779,73.875,826.5,82.7188,826.3476,82.6556,826.3325,83.0636,826.4355,83.5205,826.0457,83.7732,825.9466,84.1464,825.7678,84.4865,825.811,84.5908,825.4673,84.7611,825.0602,84.7782,824.7437,85.0143,824.2805,84.896,824,85.2188,824,85.5031,814.1429,85.7669,804.2857,85.6633,794.4286,85.8318,784.5714,84.7357,774.7143,84.5666,764.8571,84.5973,755,85.1599,745.1429,85.0222,735.2857,85.9002,725.4286,85.0441,715.5714,84.8757,705.7143,85.447,695.8571,84.5519,686,85.2188,685.9338,85.0589,685.7292,85.2722,685.3485,85.06,685.033,85.0056,684.5447,84.5339,684.2322,84.4865,684.3305,84.5272,684.2676,84.2083,683.7939,83.7191,683.7634,83.4136,683.6852,83.0884,683.5,82.7188,683.7173,82.7188,683.4986,73.875,683.6542,65.0313,683.3154,56.1875,683.2742,47.3438,683.5,38.5,683.6551,38.5642,683.4257,38.055,683.9496,37.8578,684.003,37.4657,684.0033,37.0516,684.2322,36.7322,684.1871,36.6233,684.6443,36.7271,684.9012,36.3472,685.3684,36.4752,685.5759,35.9762,686,36" style="stroke:#181818;stroke-width:0.5;"/><text fill="#000000" font-family="FG Virgil" font-size="14" font-style="italic" lengthAdjust="spacing" textLength="60" x="725" y="57.5332">«service»</text><text fill="#000000" font-family="FG Virgil" font-size="14" lengthAdjust="spacing" textLength="129" x="690.5" y="75.1426">AuthorizationService</text><polygon fill="#E3E3E3" points="686,742.6016,686,742.8117,695.8571,742.1872,705.7143,742.7948,715.5714,743.0012,725.4286,741.8882,735.2857,742.5238,745.1429,742.1751,755,742.2181,764.8571,742.5334,774.7143,741.9102,784.5714,743.1552,794.4286,741.9713,804.2857,742.4038,814.1429,743.0335,824,742.6016,823.9891,742.5751,824.3623,742.769,824.703,742.8846,825.0834,743.0959,825.4447,743.261,825.7678,743.3338,825.9481,743.4085,826.1209,743.7729,826.2698,744.1275,826.2855,744.4269,826.4963,744.8071,826.5,745.1016,826.7341,745.1016,826.2596,753.9453,826.7262,762.7891,826.4012,771.6328,826.6779,780.4766,826.5,789.3203,826.3476,789.2572,826.3325,789.6651,826.4355,790.122,826.0457,790.3748,825.9466,790.748,825.7678,791.0881,825.811,791.1924,825.4673,791.3627,825.0602,791.3798,824.7437,791.6159,824.2805,791.4976,824,791.8203,824,792.1047,814.1429,792.3685,804.2857,792.2648,794.4286,792.4333,784.5714,791.3372,774.7143,791.1681,764.8571,791.1989,755,791.7614,745.1429,791.6238,735.2857,792.5017,725.4286,791.6456,715.5714,791.4773,705.7143,792.0486,695.8571,791.1535,686,791.8203,685.9338,791.6604,685.7292,791.8737,685.3485,791.6616,685.033,791.6072,684.5447,791.1354,684.2322,791.0881,684.3305,791.1288,684.2676,790.8098,683.7939,790.3207,683.7634,790.0152,683.6852,789.6899,683.5,789.3203,683.7173,789.3203,683.4986,780.4766,683.6542,771.6328,683.3154,762.7891,683.2742,753.9453,683.5,745.1016,683.6551,745.1658,683.4257,744.6566,683.9496,744.4594,684.003,744.0673,684.0033,743.6532,684.2322,743.3338,684.1871,743.2248,684.6443,743.3286,684.9012,742.9487,685.3684,743.0767,685.5759,742.5778,686,742.6016" style="stroke:#181818;stroke-width:0.5;"/><text fill="#000000" font-family="FG Virgil" font-size="14" font-style="italic" lengthAdjust="spacing" textLength="60" x="725" y="764.1348">«service»</text><text fill="#000000" font-family="FG Virgil" font-size="14" lengthAdjust="spacing" textLength="129" x="690.5" y="781.7441">AuthorizationService</text><polygon fill="#E3E3E3" points="839,36,839,36.2102,849.1429,35.5857,859.2857,36.1933,869.4286,36.3997,879.5714,35.2866,889.7143,35.9223,899.8571,35.5735,910,36,909.9511,35.8819,910.3449,36.1255,910.6189,36.08,911.1313,36.6098,911.3338,36.3917,911.7678,36.7322,911.7069,36.707,912.0472,37.1409,912.0342,37.4284,912.2281,37.8016,912.3437,38.1424,912.5,38.5,912.5595,38.5,912.5797,47.3438,912.6952,56.1875,912.7237,65.0313,912.7264,73.875,912.5,82.7188,912.5784,82.7512,912.4963,83.1314,912.4234,83.5154,911.8386,83.6874,912.1232,84.2195,911.7678,84.4865,911.7299,84.3952,911.4823,84.7974,910.9975,84.627,910.6984,84.9048,910.4482,85.3007,910,85.2188,910,85.17,899.8571,85.3241,889.7143,85.5574,879.5714,85.635,869.4286,85.2148,859.2857,85.506,849.1429,84.6463,839,85.2188,839.0363,85.3063,838.7164,85.2411,838.3496,85.0628,838.0175,84.9682,837.5242,84.4842,837.2322,84.4865,837.0314,84.4033,836.8944,84.0537,836.9212,83.7719,836.7324,83.4008,836.8563,83.1592,836.5,82.7188,836.4418,82.7188,836.3856,73.875,836.5761,65.0313,836.2777,56.1875,836.327,47.3438,836.5,38.5,836.6999,38.5828,836.7806,38.202,837.0191,37.8866,836.8402,37.3983,837.1841,37.1265,837.2322,36.7322,837.3075,36.9141,837.5255,36.4403,837.9271,36.4098,838.309,36.3317,838.7296,36.3472,839,36" style="stroke:#181818;stroke-width:0.5;"/><text fill="#000000" font-family="FG Virgil" font-size="14" font-style="italic" lengthAdjust="spacing" textLength="62" x="843.5" y="57.5332">«domain»</text><text fill="#000000" font-family="FG Virgil" font-size="14" lengthAdjust="spacing" textLength="61" x="844" y="75.1426">user:User</text><polygon fill="#E3E3E3" points="839,742.6016,839,742.8117,849.1429,742.1872,859.2857,742.7948,869.4286,743.0012,879.5714,741.8882,889.7143,742.5238,899.8571,742.1751,910,742.6016,909.9511,742.4835,910.3449,742.727,910.6189,742.6815,911.1313,743.2114,911.3338,742.9932,911.7678,743.3338,911.7069,743.3086,912.0472,743.7424,912.0342,744.03,912.2281,744.4032,912.3437,744.7439,912.5,745.1016,912.5595,745.1016,912.5797,753.9453,912.6952,762.7891,912.7237,771.6328,912.7264,780.4766,912.5,789.3203,912.5784,789.3528,912.4963,789.733,912.4234,790.117,911.8386,790.289,912.1232,790.8211,911.7678,791.0881,911.7299,790.9968,911.4823,791.3989,910.9975,791.2285,910.6984,791.5063,910.4482,791.9023,910,791.8203,910,791.7716,899.8571,791.9256,889.7143,792.1589,879.5714,792.2365,869.4286,791.8164,859.2857,792.1075,849.1429,791.2479,839,791.8203,839.0363,791.9079,838.7164,791.8427,838.3496,791.6643,838.0175,791.5698,837.5242,791.0858,837.2322,791.0881,837.0314,791.0049,836.8944,790.6553,836.9212,790.3735,836.7324,790.0023,836.8563,789.7608,836.5,789.3203,836.4418,789.3203,836.3856,780.4766,836.5761,771.6328,836.2777,762.7891,836.327,753.9453,836.5,745.1016,836.6999,745.1843,836.7806,744.8036,837.0191,744.4881,836.8402,743.9999,837.1841,743.7281,837.2322,743.3338,837.3075,743.5156,837.5255,743.0419,837.9271,743.0114,838.309,742.9333,838.7296,742.9487,839,742.6016" style="stroke:#181818;stroke-width:0.5;"/><text fill="#000000" font-family="FG Virgil" font-size="14" font-style="italic" lengthAdjust="spacing" textLength="62" x="843.5" y="764.1348">«domain»</text><text fill="#000000" font-family="FG Virgil" font-size="14" lengthAdjust="spacing" textLength="61" x="844" y="781.7441">user:User</text><polygon fill="#E3E3E3" points="925,36,925,36.2102,935.0769,35.5857,945.1538,36.1933,955.2308,36.3997,965.3077,35.2866,975.3846,35.9223,985.4615,35.5735,995.5385,35.6165,1005.6154,35.9318,1015.6923,35.3086,1025.7692,36.5536,1035.8462,35.3697,1045.9231,35.8022,1056,36,1056.0551,36.133,1056.3426,36.12,1056.7158,36.3139,1057.0566,36.4295,1057.437,36.6408,1057.7678,36.7322,1057.8414,36.7627,1058.0946,37.1605,1058.2673,37.5249,1058.4163,37.8795,1058.432,38.1789,1058.5,38.5,1058.6545,38.5,1058.7341,47.3438,1058.2596,56.1875,1058.7262,65.0313,1058.4012,73.875,1058.5,82.7188,1058.6644,82.7868,1058.2011,83.0092,1058.186,83.4171,1058.289,83.874,1057.8992,84.1267,1057.7678,84.4865,1057.7812,84.5189,1057.4574,84.7372,1057.1138,84.9076,1056.7066,84.9247,1056.3902,85.1608,1056,85.2188,1056,84.6463,1045.9231,85.5031,1035.8462,85.7669,1025.7692,85.6633,1015.6923,85.8318,1005.6154,84.7357,995.5385,84.5666,985.4615,84.5973,975.3846,85.1599,965.3077,85.0222,955.2308,85.9002,945.1538,85.0441,935.0769,84.8757,925,85.2188,925.0291,85.289,924.5614,84.8669,924.2267,84.766,924.0221,84.9793,923.6414,84.7671,923.2322,84.4865,923.4584,84.5802,922.9867,84.0919,923.0376,83.8201,922.9747,83.5012,922.501,83.012,922.5,82.7188,922.468,82.7188,922.542,73.875,922.7173,65.0313,922.4986,56.1875,922.6542,47.3438,922.5,38.5,922.3295,38.4294,922.4379,38.0601,922.948,37.8571,922.7186,37.3479,923.2425,37.1507,923.2322,36.7322,923.2586,36.7959,923.5516,36.5033,923.8942,36.3304,924.3514,36.4342,924.6083,36.0543,925,36" style="stroke:#181818;stroke-width:0.5;"/><text fill="#000000" font-family="FG Virgil" font-size="14" font-style="italic" lengthAdjust="spacing" textLength="89" x="946" y="57.5332">«persistence»</text><text fill="#000000" font-family="FG Virgil" font-size="14" lengthAdjust="spacing" textLength="122" x="929.5" y="75.1426">PersistenceContext</text><polygon fill="#E3E3E3" points="925,742.6016,925,742.8117,935.0769,742.1872,945.1538,742.7948,955.2308,743.0012,965.3077,741.8882,975.3846,742.5238,985.4615,742.1751,995.5385,742.2181,1005.6154,742.5334,1015.6923,741.9102,1025.7692,743.1552,1035.8462,741.9713,1045.9231,742.4038,1056,742.6016,1056.0551,742.7346,1056.3426,742.7216,1056.7158,742.9155,1057.0566,743.0311,1057.437,743.2423,1057.7678,743.3338,1057.8414,743.3643,1058.0946,743.7621,1058.2673,744.1265,1058.4163,744.4811,1058.432,744.7805,1058.5,745.1016,1058.6545,745.1016,1058.7341,753.9453,1058.2596,762.7891,1058.7262,771.6328,1058.4012,780.4766,1058.5,789.3203,1058.6644,789.3884,1058.2011,789.6107,1058.186,790.0187,1058.289,790.4756,1057.8992,790.7283,1057.7678,791.0881,1057.7812,791.1205,1057.4574,791.3388,1057.1138,791.5092,1056.7066,791.5262,1056.3902,791.7623,1056,791.8203,1056,791.2479,1045.9231,792.1047,1035.8462,792.3685,1025.7692,792.2648,1015.6923,792.4333,1005.6154,791.3372,995.5385,791.1681,985.4615,791.1989,975.3846,791.7614,965.3077,791.6238,955.2308,792.5017,945.1538,791.6456,935.0769,791.4773,925,791.8203,925.0291,791.8906,924.5614,791.4685,924.2267,791.3675,924.0221,791.5808,923.6414,791.3687,923.2322,791.0881,923.4584,791.1818,922.9867,790.6935,923.0376,790.4217,922.9747,790.1027,922.501,789.6136,922.5,789.3203,922.468,789.3203,922.542,780.4766,922.7173,771.6328,922.4986,762.7891,922.6542,753.9453,922.5,745.1016,922.3295,745.0309,922.4379,744.6616,922.948,744.4587,922.7186,743.9494,923.2425,743.7523,923.2322,743.3338,923.2586,743.3974,923.5516,743.1048,923.8942,742.932,924.3514,743.0357,924.6083,742.6558,925,742.6016" style="stroke:#181818;stroke-width:0.5;"/><text fill="#000000" font-family="FG Virgil" font-size="14" font-style="italic" lengthAdjust="spacing" textLength="89" x="946" y="764.1348">«persistence»</text><text fill="#000000" font-family="FG Virgil" font-size="14" lengthAdjust="spacing" textLength="122" x="929.5" y="781.7441">PersistenceContext</text><polygon fill="#E3E3E3" points="1071,36,1071,36.2102,1080.6154,35.5857,1090.2308,36.1933,1099.8462,36.3997,1109.4615,35.2866,1119.0769,35.9223,1128.6923,35.5735,1138.3077,35.6165,1147.9231,35.9318,1157.5385,35.3086,1167.1538,36.5536,1176.7692,35.3697,1186.3846,35.8022,1196,36,1196.0551,36.133,1196.3426,36.12,1196.7158,36.3139,1197.0566,36.4295,1197.437,36.6408,1197.7678,36.7322,1197.8414,36.7627,1198.0946,37.1605,1198.2673,37.5249,1198.4163,37.8795,1198.432,38.1789,1198.5,38.5,1198.6545,38.5,1198.7341,47.3438,1198.2596,56.1875,1198.7262,65.0313,1198.4012,73.875,1198.5,82.7188,1198.6644,82.7868,1198.2011,83.0092,1198.186,83.4171,1198.289,83.874,1197.8992,84.1267,1197.7678,84.4865,1197.7812,84.5189,1197.4574,84.7372,1197.1138,84.9076,1196.7066,84.9247,1196.3902,85.1608,1196,85.2188,1196,84.6463,1186.3846,85.5031,1176.7692,85.7669,1167.1538,85.6633,1157.5385,85.8318,1147.9231,84.7357,1138.3077,84.5666,1128.6923,84.5973,1119.0769,85.1599,1109.4615,85.0222,1099.8462,85.9002,1090.2308,85.0441,1080.6154,84.8757,1071,85.2188,1071.0291,85.289,1070.5614,84.8669,1070.2267,84.766,1070.0221,84.9793,1069.6414,84.7671,1069.2322,84.4865,1069.4584,84.5802,1068.9867,84.0919,1069.0376,83.8201,1068.9747,83.5012,1068.501,83.012,1068.5,82.7188,1068.468,82.7188,1068.542,73.875,1068.7173,65.0313,1068.4986,56.1875,1068.6542,47.3438,1068.5,38.5,1068.3295,38.4294,1068.4379,38.0601,1068.948,37.8571,1068.7186,37.3479,1069.2425,37.1507,1069.2322,36.7322,1069.2586,36.7959,1069.5516,36.5033,1069.8942,36.3304,1070.3514,36.4342,1070.6083,36.0543,1071,36" style="stroke:#181818;stroke-width:0.5;"/><text fill="#000000" font-family="FG Virgil" font-size="14" font-style="italic" lengthAdjust="spacing" textLength="59" x="1104" y="57.5332">«factory»</text><text fill="#000000" font-family="FG Virgil" font-size="14" lengthAdjust="spacing" textLength="116" x="1075.5" y="75.1426">RepositoryFactory</text><polygon fill="#E3E3E3" points="1071,742.6016,1071,742.8117,1080.6154,742.1872,1090.2308,742.7948,1099.8462,743.0012,1109.4615,741.8882,1119.0769,742.5238,1128.6923,742.1751,1138.3077,742.2181,1147.9231,742.5334,1157.5385,741.9102,1167.1538,743.1552,1176.7692,741.9713,1186.3846,742.4038,1196,742.6016,1196.0551,742.7346,1196.3426,742.7216,1196.7158,742.9155,1197.0566,743.0311,1197.437,743.2423,1197.7678,743.3338,1197.8414,743.3643,1198.0946,743.7621,1198.2673,744.1265,1198.4163,744.4811,1198.432,744.7805,1198.5,745.1016,1198.6545,745.1016,1198.7341,753.9453,1198.2596,762.7891,1198.7262,771.6328,1198.4012,780.4766,1198.5,789.3203,1198.6644,789.3884,1198.2011,789.6107,1198.186,790.0187,1198.289,790.4756,1197.8992,790.7283,1197.7678,791.0881,1197.7812,791.1205,1197.4574,791.3388,1197.1138,791.5092,1196.7066,791.5262,1196.3902,791.7623,1196,791.8203,1196,791.2479,1186.3846,792.1047,1176.7692,792.3685,1167.1538,792.2648,1157.5385,792.4333,1147.9231,791.3372,1138.3077,791.1681,1128.6923,791.1989,1119.0769,791.7614,1109.4615,791.6238,1099.8462,792.5017,1090.2308,791.6456,1080.6154,791.4773,1071,791.8203,1071.0291,791.8906,1070.5614,791.4685,1070.2267,791.3675,1070.0221,791.5808,1069.6414,791.3687,1069.2322,791.0881,1069.4584,791.1818,1068.9867,790.6935,1069.0376,790.4217,1068.9747,790.1027,1068.501,789.6136,1068.5,789.3203,1068.468,789.3203,1068.542,780.4766,1068.7173,771.6328,1068.4986,762.7891,1068.6542,753.9453,1068.5,745.1016,1068.3295,745.0309,1068.4379,744.6616,1068.948,744.4587,1068.7186,743.9494,1069.2425,743.7523,1069.2322,743.3338,1069.2586,743.3974,1069.5516,743.1048,1069.8942,742.932,1070.3514,743.0357,1070.6083,742.6558,1071,742.6016" style="stroke:#181818;stroke-width:0.5;"/><text fill="#000000" font-family="FG Virgil" font-size="14" font-style="italic" lengthAdjust="spacing" textLength="59" x="1104" y="764.1348">«factory»</text><text fill="#000000" font-family="FG Virgil" font-size="14" lengthAdjust="spacing" textLength="116" x="1075.5" y="781.7441">RepositoryFactory</text><text fill="#000000" font-family="FG Virgil" font-size="14" font-style="italic" lengthAdjust="spacing" textLength="79" x="1217.5" y="65.5332">«repository»</text><text fill="#000000" font-family="FG Virgil" font-size="14" lengthAdjust="spacing" textLength="97" x="1208.5" y="83.1426">UserRepository</text><path d="M1242,15 L1242,15 L1242.0651,15.067 L1243.6716,13.118 L1245.6599,11.5616 L1247.5238,9.8774 L1248.979,7.7727 L1251,6.25 L1250.9952,6.2158 L1252.7739,5.8122 L1254.5766,5.5812 L1256.3958,5.47 L1258.1577,4.9456 L1260,5 L1260,5 L1260.0339,5.2437 L1261.7615,4.9725 L1263.5879,5.4129 L1265.4264,5.9402 L1267.1948,5.9622 L1269,6.25 L1269.0211,6.2717 L1270.7901,7.9898 L1272.6553,9.8069 L1274.4741,11.5762 L1276.3815,13.4366 L1278,15 L1278.5965,15 L1278.6038,20.2 L1278.2263,25.4 L1278.4121,30.6 L1278.6242,35.8 L1278,41 L1278,41 L1277.7766,40.7702 L1276.4102,42.9662 L1274.3081,44.4055 L1272.7654,46.4201 L1270.6466,47.8423 L1269,49.75 L1268.9958,49.7198 L1267.2453,50.3265 L1265.397,50.2285 L1263.6064,50.5464 L1261.8207,50.8991 L1260,51 L1260,51 L1260.0254,51.1832 L1258.1998,50.7483 L1256.4176,50.6264 L1254.565,49.998 L1252.8174,50.1252 L1251,49.75 L1251.1698,49.9247 L1249.3377,48.1417 L1247.5899,46.4453 L1245.4503,44.3461 L1243.5979,42.5422 L1242,41 L1241.4476,41 L1241.9477,35.8 L1241.8253,30.6 L1242.6057,25.4 L1241.8447,20.2 L1242,15 " fill="#E3E3E3" style="stroke:#181818;stroke-width:1.5;"/><path d="M1242,15 L1242,15 L1242.0651,15.067 L1243.6716,16.618 L1245.6599,18.5616 L1247.5238,20.3774 L1248.979,21.7727 L1251,23.75 L1250.9952,23.7158 L1252.7739,23.8122 L1254.5766,24.0812 L1256.3958,24.47 L1258.1577,24.4456 L1260,25 L1260,25 L1260.0339,25.2437 L1261.7615,24.4725 L1263.5879,24.4129 L1265.4264,24.4402 L1267.1948,23.9622 L1269,23.75 L1269.0211,23.7717 L1270.7901,21.9898 L1272.6553,20.3069 L1274.4741,18.5762 L1276.3815,16.9366 L1278,15 " fill="none" style="stroke:#181818;stroke-width:1.5;"/><text fill="#000000" font-family="FG Virgil" font-size="14" font-style="italic" lengthAdjust="spacing" textLength="79" x="1217.5" y="757.1348">«repository»</text><text fill="#000000" font-family="FG Virgil" font-size="14" lengthAdjust="spacing" textLength="97" x="1208.5" y="774.7441">UserRepository</text><path d="M1242,787.8203 L1242,787.8203 L1242.0651,787.8873 L1243.6716,785.9383 L1245.6599,784.3819 L1247.5238,782.6977 L1248.979,780.593 L1251,779.0703 L1250.9952,779.0361 L1252.7739,778.6326 L1254.5766,778.4015 L1256.3958,778.2903 L1258.1577,777.766 L1260,777.8203 L1260,777.8203 L1260.0339,778.064 L1261.7615,777.7929 L1263.5879,778.2333 L1265.4264,778.7605 L1267.1948,778.7826 L1269,779.0703 L1269.0211,779.0921 L1270.7901,780.8101 L1272.6553,782.6272 L1274.4741,784.3965 L1276.3815,786.257 L1278,787.8203 L1278.5965,787.8203 L1278.6038,793.0203 L1278.2263,798.2203 L1278.4121,803.4203 L1278.6242,808.6203 L1278,813.8203 L1278,813.8203 L1277.7766,813.5905 L1276.4102,815.7865 L1274.3081,817.2258 L1272.7654,819.2404 L1270.6466,820.6626 L1269,822.5703 L1268.9958,822.5402 L1267.2453,823.1468 L1265.397,823.0489 L1263.6064,823.3667 L1261.8207,823.7194 L1260,823.8203 L1260,823.8203 L1260.0254,824.0035 L1258.1998,823.5686 L1256.4176,823.4467 L1254.565,822.8183 L1252.8174,822.9455 L1251,822.5703 L1251.1698,822.745 L1249.3377,820.962 L1247.5899,819.2657 L1245.4503,817.1664 L1243.5979,815.3625 L1242,813.8203 L1241.4476,813.8203 L1241.9477,808.6203 L1241.8253,803.4203 L1242.6057,798.2203 L1241.8447,793.0203 L1242,787.8203 " fill="#E3E3E3" style="stroke:#181818;stroke-width:1.5;"/><path d="M1242,787.8203 L1242,787.8203 L1242.0651,787.8873 L1243.6716,789.4383 L1245.6599,791.3819 L1247.5238,793.1977 L1248.979,794.593 L1251,796.5703 L1250.9952,796.5361 L1252.7739,796.6326 L1254.5766,796.9015 L1256.3958,797.2903 L1258.1577,797.266 L1260,797.8203 L1260,797.8203 L1260.0339,798.064 L1261.7615,797.2929 L1263.5879,797.2333 L1265.4264,797.2605 L1267.1948,796.7826 L1269,796.5703 L1269.0211,796.5921 L1270.7901,794.8101 L1272.6553,793.1272 L1274.4741,791.3965 L1276.3815,789.757 L1278,787.8203 " fill="none" style="stroke:#181818;stroke-width:1.5;"/><polygon fill="#FFFFFF" points="179,118.5703,179,118.6404,181,118.4322,183,118.6347,185,118.7035,187,118.3325,189,118.5703,188.9223,118.5703,188.5735,128.5216,188.6165,138.473,188.9318,148.4243,188.3086,158.3756,189.5536,168.327,188.3697,178.2783,188.8022,188.2296,189.4319,198.181,188.9142,208.1323,189.0682,218.0836,188.9681,228.035,189.1785,237.9863,189.2391,247.9376,189.5857,257.889,189.6711,267.8403,189.6793,277.7916,189.2546,287.743,189.4636,297.6943,189.7022,307.6456,188.2788,317.597,189.6785,327.5483,188.7035,337.4996,189.5338,347.4509,188.505,357.4023,188.9315,367.3536,189.7416,377.3049,188.9513,387.2563,189.1053,397.2076,189.3386,407.1589,189.4162,417.1103,188.9961,427.0616,189.2872,437.0129,188.4276,446.9643,189.2844,456.9156,189.5482,466.8669,189.4445,476.8183,189.613,486.7696,188.5169,496.7209,188.3478,506.6723,188.3786,516.6236,188.9411,526.5749,188.8035,536.5263,189.6814,546.4776,188.8253,556.4289,188.6569,566.3803,189.2283,576.3316,188.3332,586.2829,188.4809,596.2342,189.649,606.1856,189.4357,616.1369,189.7345,626.0882,188.6782,636.0396,189.3192,645.9909,189.5904,655.9422,188.5276,665.8936,188.9041,675.8449,189.126,685.7962,189.6518,695.7476,188.9958,705.6989,189.4626,715.6502,189,725.6016,189,725.417,187,725.3758,185,725.7694,183,725.3626,181,725.7712,179,725.6016,179.2066,725.6016,178.7321,715.6502,178.6462,705.6989,179.4588,695.7476,178.7007,685.7962,179.5919,675.8449,178.4473,665.8936,179.6174,655.9422,179.4843,645.9909,179.245,636.0396,179.0472,626.0882,179.7266,616.1369,179.6136,606.1856,179.1693,596.2342,179.2682,586.2829,178.8697,576.3316,179.7165,566.3803,179.1549,556.4289,179.1726,546.4776,178.3916,536.5263,178.5948,526.5749,179.5307,516.6236,179.4298,506.6723,178.9571,496.7209,178.6778,486.7696,178.7811,476.8183,178.3138,466.8669,179.4147,456.9156,179.7396,446.9643,179.5264,437.0129,179.6949,427.0616,178.8633,417.1103,179.0872,407.1589,178.6124,397.2076,179.284,387.2563,179.2468,377.3049,179.5524,367.3536,178.7703,357.4023,178.8656,347.4509,179.4435,337.4996,179.5673,327.5483,178.4875,317.597,178.8061,307.6456,179.1493,297.6943,178.3892,287.743,179.3534,277.7916,179.258,267.8403,178.8992,257.889,179.1422,247.9376,179.7287,237.9863,178.6871,228.035,179.315,218.0836,179.2856,208.1323,179.1158,198.181,179.1409,188.2296,179.1135,178.2783,178.3758,168.327,178.5992,158.3756,178.5385,148.4243,179.0638,138.473,179.0881,128.5216,179,118.5703" style="stroke:#181818;stroke-width:1.0;"/><polygon fill="#FFFFFF" points="364,239.9766,364,240.0466,366,239.8385,368,240.041,370,240.1098,372,239.7388,374,239.9766,373.9223,239.9766,373.5735,249.8738,373.6165,259.7711,373.9318,269.6683,373.3086,279.5656,374.5536,289.4628,373.3697,299.3601,373.8022,309.2573,374.4319,319.1546,373.9142,329.0518,374.0682,338.949,373.9681,348.8463,374.1785,358.7435,374.2391,368.6408,374.5857,378.538,374.6711,388.4353,374.6793,398.3325,374.2546,408.2298,374.4636,418.127,374.7022,428.0243,373.2788,437.9215,374.6785,447.8188,373.7035,457.716,374.5338,467.6133,373.505,477.5105,373.9315,487.4078,374.7416,497.305,373.9513,507.2023,374.1053,517.0995,374.3386,526.9968,374.4162,536.894,373.9961,546.7913,374.2872,556.6885,373.4276,566.5858,374.2844,576.483,374.5482,586.3803,374.4445,596.2775,374.613,606.1748,373.5169,616.072,373.3478,625.9693,373.3786,635.8665,373.9411,645.7638,373.8035,655.661,374.6814,665.5583,373.8253,675.4555,373.6569,685.3528,374,695.25,374,695.3261,372,695.0277,370,695.077,368,695.4663,366,695.3952,364,695.25,364.7345,695.25,363.6782,685.3528,364.3192,675.4555,364.5904,665.5583,363.5276,655.661,363.9041,645.7638,364.126,635.8665,364.6518,625.9693,363.9958,616.072,364.4626,606.1748,363.4462,596.2775,363.3227,586.3803,364.5036,576.483,363.2831,566.5858,364.509,556.6885,364.2066,546.7913,363.7321,536.894,363.6462,526.9968,364.4588,517.0995,363.7007,507.2023,364.5919,497.305,363.4473,487.4078,364.6174,477.5105,364.4843,467.6133,364.245,457.716,364.0472,447.8188,364.7266,437.9215,364.6136,428.0243,364.1693,418.127,364.2682,408.2298,363.8697,398.3325,364.7165,388.4353,364.1549,378.538,364.1726,368.6408,363.3916,358.7435,363.5948,348.8463,364.5307,338.949,364.4298,329.0518,363.9571,319.1546,363.6778,309.2573,363.7811,299.3601,363.3138,289.4628,364.4147,279.5656,364.7396,269.6683,364.5264,259.7711,364.6949,249.8738,364,239.9766" style="stroke:#181818;stroke-width:1.0;"/><polygon fill="#FFFFFF" points="518.5,452.4375,518.5,452.5076,520.5,452.2994,522.5,452.5019,524.5,452.5707,526.5,452.1997,528.5,452.4375,528.4741,452.4375,528.3578,458.5078,528.3722,464.5781,528.4773,470.6484,528.2695,476.7188,528.5,482.7891,528.5,482.9736,526.5,482.579,524.5,482.7231,522.5,482.933,520.5,482.7605,518.5,482.7891,518.5227,482.7891,518.4894,476.7188,518.5595,470.6484,518.5797,464.5781,518.6952,458.5078,518.5,452.4375" style="stroke:#181818;stroke-width:1.0;"/><polygon fill="#FFFFFF" points="985.5,270.3281,985.5,270.3982,987.5,270.19,989.5,270.3926,991.5,270.4614,993.5,270.0903,995.5,270.3281,995.4223,270.3281,995.0735,280.4453,995.1165,290.5625,995.4318,300.6797,994.8086,310.7969,996.0536,320.9141,995.5,331.0313,995.5,330.8212,993.5,330.9653,991.5,331.1752,989.5,331.0027,987.5,331.054,985.5,331.0313,985.4681,331.0313,985.6785,320.9141,985.7391,310.7969,986.0857,300.6797,986.1711,290.5625,986.1793,280.4453,985.5,270.3281" style="stroke:#181818;stroke-width:1.0;"/><polygon fill="#FFFFFF" points="1128.5,361.3828,1128.5,361.4529,1130.5,361.2447,1132.5,361.4472,1134.5,361.516,1136.5,361.145,1138.5,361.3828,1138.4223,361.3828,1138.0735,371.5,1138.1165,381.6172,1138.4318,391.7344,1137.8086,401.8516,1139.0536,411.9688,1138.5,422.0859,1138.5,421.8758,1136.5,422.02,1134.5,422.2299,1132.5,422.0573,1130.5,422.1087,1128.5,422.0859,1128.4681,422.0859,1128.6785,411.9688,1128.7391,401.8516,1129.0857,391.7344,1129.1711,381.6172,1129.1793,371.5,1128.5,361.3828" style="stroke:#181818;stroke-width:1.0;"/><polygon fill="#FFFFFF" points="1255,543.4922,1255,543.5622,1257,543.3541,1259,543.5566,1261,543.6254,1263,543.2544,1265,543.4922,1264.9741,543.4922,1264.8578,549.5625,1264.8722,555.6328,1264.9773,561.7031,1264.7695,567.7734,1265,573.8438,1265,574.0283,1263,573.6337,1261,573.7778,1259,573.9877,1257,573.8152,1255,573.8438,1255.0227,573.8438,1254.9894,567.7734,1255.0595,561.7031,1255.0797,555.6328,1255.1952,549.5625,1255,543.4922" style="stroke:#181818;stroke-width:1.0;"/><polygon fill="#FFFFFF" points="1255,634.5469,1255,634.6169,1257,634.4088,1259,634.6113,1261,634.6801,1263,634.3091,1265,634.5469,1264.9741,634.5469,1264.8578,640.6172,1264.8722,646.6875,1264.9773,652.7578,1264.7695,658.8281,1265,664.8984,1265,665.083,1263,664.6883,1261,664.8325,1259,665.0424,1257,664.8698,1255,664.8984,1255.0227,664.8984,1254.9894,658.8281,1255.0595,652.7578,1255.0797,646.6875,1255.1952,640.6172,1255,634.5469" style="stroke:#181818;stroke-width:1.0;"/><polygon fill="#181818" points="167,114.5703,167.026,114.6354,168.9487,115.2421,171.0239,116.2301,173.0495,117.094,174.9117,117.5495,177,118.5703,176.9904,118.5463,174.9472,119.2383,172.9525,120.0516,170.9916,120.9492,168.9144,121.5563,167,122.5703,167.1305,122.7008,167.6514,121.6218,168.5534,120.9237,169.5018,120.2721,170.1798,119.3501,171,118.5703,171.0161,118.5864,170.1925,117.7628,169.4421,117.0124,168.6564,116.2267,167.938,115.5084,167,114.5703" style="stroke:#181818;stroke-width:1.0;"/><path d="M36,118.5703 L36,118.8506 L45.7857,118.0179 L55.5714,118.828 L65.3571,119.1032 L75.1429,117.6191 L84.9286,118.4667 L94.7143,118.0017 L104.5,118.059 L114.2857,118.4794 L124.0714,117.6485 L133.8571,119.3085 L143.6429,117.7299 L153.4286,118.3066 L163.2143,119.1462 L173,118.5703 " fill="none" style="stroke:#181818;stroke-width:1.0;stroke-dasharray:2.0,2.0;"/><text fill="#000000" font-family="FG Virgil" font-size="13" lengthAdjust="spacing" textLength="74" x="43" y="113.7139">Disable User</text><polygon fill="#181818" points="357,144.9219,357.026,144.9869,358.9487,145.5936,361.0239,146.5817,363.0495,147.4456,364.9117,147.9011,367,148.9219,366.9904,148.8978,364.9472,149.5899,362.9525,150.4032,360.9916,151.3008,358.9144,151.9079,357,152.9219,357.1305,153.0524,357.6514,151.9733,358.5534,151.2753,359.5018,150.6237,360.1798,149.7017,361,148.9219,361.0161,148.938,360.1925,148.1143,359.4421,147.364,358.6564,146.5782,357.938,145.8599,357,144.9219" style="stroke:#181818;stroke-width:1.0;"/><path d="M189,148.9219 L189,149.2021 L199.2353,148.3694 L209.4706,149.1796 L219.7059,149.4548 L229.9412,147.9707 L240.1765,148.8183 L250.4118,148.3532 L260.6471,148.4105 L270.8824,148.831 L281.1176,148 L291.3529,149.6601 L301.5882,148.0815 L311.8235,148.6582 L322.0588,149.4978 L332.2941,148.8075 L342.5294,149.0129 L352.7647,148.8793 L363,148.9219 " fill="none" style="stroke:#181818;stroke-width:1.0;"/><text fill="#000000" font-family="FG Virgil" font-size="13" lengthAdjust="spacing" textLength="44" x="196" y="144.0654">create()</text><polygon fill="#181818" points="47,175.2734,47.026,175.3385,44.9487,175.9452,43.0239,176.9333,41.0495,177.7971,38.9117,178.2526,37,179.2734,36.9904,179.2494,38.9472,179.9414,40.9525,180.7547,42.9916,181.6523,44.9144,182.2595,47,183.2734,47.1305,183.4039,46.0514,182.3249,45.3534,181.6268,44.7018,180.9752,43.7798,180.0532,43,179.2734,43.0161,179.2895,43.7925,178.4659,44.6421,177.7155,45.4564,176.9298,46.338,176.2115,47,175.2734" style="stroke:#181818;stroke-width:1.0;"/><path d="M41,179.2734 L41,179.5537 L50.7857,178.721 L60.5714,179.5312 L70.3571,179.8063 L80.1429,178.3222 L89.9286,179.1698 L99.7143,178.7048 L109.5,178.7621 L119.2857,179.1826 L129.0714,178.3516 L138.8571,180.0116 L148.6429,178.4331 L158.4286,179.0097 L168.2143,179.8494 L178,179.2734 " fill="none" style="stroke:#181818;stroke-width:1.0;stroke-dasharray:2.0,2.0;"/><text fill="#000000" font-family="FG Virgil" font-size="13" lengthAdjust="spacing" textLength="119" x="53" y="174.417">Ask user information</text><polygon fill="#181818" points="167,205.625,167.026,205.69,168.9487,206.2968,171.0239,207.2848,173.0495,208.1487,174.9117,208.6042,177,209.625,176.9904,209.6009,174.9472,210.293,172.9525,211.1063,170.9916,212.0039,168.9144,212.611,167,213.625,167.1305,213.7555,167.6514,212.6764,168.5534,211.9784,169.5018,211.3268,170.1798,210.4048,171,209.625,171.0161,209.6411,170.1925,208.8175,169.4421,208.0671,168.6564,207.2814,167.938,206.563,167,205.625" style="stroke:#181818;stroke-width:1.0;"/><path d="M36,209.625 L36,209.9052 L45.7857,209.0726 L55.5714,209.8827 L65.3571,210.1579 L75.1429,208.6738 L84.9286,209.5214 L94.7143,209.0563 L104.5,209.1137 L114.2857,209.5341 L124.0714,208.7032 L133.8571,210.3632 L143.6429,208.7846 L153.4286,209.3613 L163.2143,210.2009 L173,209.625 " fill="none" style="stroke:#181818;stroke-width:1.0;stroke-dasharray:2.0,2.0;"/><text fill="#000000" font-family="FG Virgil" font-size="13" lengthAdjust="spacing" textLength="31" x="43" y="204.7686">email</text><polygon fill="#181818" points="352,235.9766,352.026,236.0416,353.9487,236.6483,356.0239,237.6364,358.0495,238.5003,359.9117,238.9558,362,239.9766,361.9904,239.9525,359.9472,240.6446,357.9525,241.4579,355.9916,242.3555,353.9144,242.9626,352,243.9766,352.1305,244.1071,352.6514,243.028,353.5534,242.3299,354.5018,241.6784,355.1798,240.7563,356,239.9766,356.0161,239.9926,355.1925,239.169,354.4421,238.4186,353.6564,237.6329,352.938,236.9146,352,235.9766" style="stroke:#181818;stroke-width:1.0;"/><path d="M189,239.9766 L189,240.2568 L198.9412,239.4241 L208.8824,240.2343 L218.8235,240.5095 L228.7647,239.0254 L238.7059,239.8729 L248.6471,239.4079 L258.5882,239.4652 L268.5294,239.8857 L278.4706,239.0547 L288.4118,240.7148 L298.3529,239.1362 L308.2941,239.7129 L318.2353,240.5525 L328.1765,239.8622 L338.1176,240.0675 L348.0588,239.934 L358,239.9766 " fill="none" style="stroke:#181818;stroke-width:1.0;"/><text fill="#000000" font-family="FG Virgil" font-size="13" lengthAdjust="spacing" textLength="156" x="196" y="235.1201">disableUserByEmail(email)</text><polygon fill="#181818" points="973.5,266.3281,973.526,266.3932,975.4487,266.9999,977.5239,267.9879,979.5495,268.8518,981.4117,269.3073,983.5,270.3281,983.4904,270.3041,981.4472,270.9961,979.4525,271.8094,977.4916,272.707,975.4144,273.3142,973.5,274.3281,973.6305,274.4586,974.1514,273.3796,975.0534,272.6815,976.0018,272.0299,976.6798,271.1079,977.5,270.3281,977.5161,270.3442,976.6925,269.5206,975.9421,268.7702,975.1564,267.9845,974.438,267.2662,973.5,266.3281" style="stroke:#181818;stroke-width:1.0;"/><path d="M374,270.3281 L374,270.6084 L383.9262,269.7757 L393.8525,270.5858 L403.7787,270.861 L413.7049,269.3769 L423.6311,270.2245 L433.5574,269.7595 L443.4836,269.8168 L453.4098,270.2372 L463.3361,269.4063 L473.2623,271.0663 L483.1885,269.4878 L493.1148,270.0644 L503.041,270.9041 L512.9672,270.2138 L522.8934,270.4191 L532.8197,270.2855 L542.7459,270.5662 L552.6721,270.647 L562.5984,271.109 L572.5246,271.2229 L582.4508,271.2338 L592.377,270.6676 L602.3033,270.9462 L612.2295,271.2644 L622.1557,269.3665 L632.082,271.2328 L642.0082,269.9328 L651.9344,271.0399 L661.8607,269.6681 L671.7869,270.2368 L681.7131,271.3169 L691.6393,270.2631 L701.5656,270.4685 L711.4918,270.7796 L721.418,270.8831 L731.3443,270.3229 L741.2705,270.7111 L751.1967,269.5649 L761.123,270.7073 L771.0492,271.0591 L780.9754,270.9208 L790.9016,271.1455 L800.8279,269.684 L810.7541,269.4585 L820.6803,269.4996 L830.6066,270.2496 L840.5328,270.0661 L850.459,271.2367 L860.3852,270.0952 L870.3115,269.8707 L880.2377,270.6325 L890.1639,269.439 L900.0902,269.636 L910.0164,271.1934 L919.9426,270.909 L929.8689,271.3074 L939.7951,269.8991 L949.7213,270.7537 L959.6475,271.1154 L969.5738,269.6983 L979.5,270.3281 " fill="none" style="stroke:#181818;stroke-width:1.0;"/><text fill="#000000" font-family="FG Virgil" font-size="13" lengthAdjust="spacing" textLength="75" x="381" y="265.4717">repositories()</text><polygon fill="#181818" points="1121.5,296.6797,1121.526,296.7447,1123.4487,297.3515,1125.5239,298.3395,1127.5495,299.2034,1129.4117,299.6589,1131.5,300.6797,1131.4904,300.6556,1129.4472,301.3477,1127.4525,302.161,1125.4916,303.0586,1123.4144,303.6657,1121.5,304.6797,1121.6305,304.8102,1122.1514,303.7311,1123.0534,303.0331,1124.0018,302.3815,1124.6798,301.4595,1125.5,300.6797,1125.5161,300.6958,1124.6925,299.8722,1123.9421,299.1218,1123.1564,298.3361,1122.438,297.6177,1121.5,296.6797" style="stroke:#181818;stroke-width:1.0;"/><path d="M995.5,300.6797 L995.5,300.9599 L1005.6538,300.1273 L1015.8077,300.9374 L1025.9615,301.2126 L1036.1154,299.7285 L1046.2692,300.5761 L1056.4231,300.111 L1066.5769,300.1684 L1076.7308,300.5888 L1086.8846,299.7579 L1097.0385,301.4179 L1107.1923,299.8393 L1117.3462,300.416 L1127.5,300.6797 " fill="none" style="stroke:#181818;stroke-width:1.0;"/><text fill="#000000" font-family="FG Virgil" font-size="13" lengthAdjust="spacing" textLength="44" x="1002.5" y="295.8232">create()</text><polygon fill="#181818" points="385,327.0313,385.026,327.0963,382.9487,327.703,381.0239,328.6911,379.0495,329.5549,376.9117,330.0105,375,331.0313,374.9904,331.0072,376.9472,331.6993,378.9525,332.5126,380.9916,333.4102,382.9144,334.0173,385,335.0313,385.1305,335.1617,384.0514,334.0827,383.3534,333.3846,382.7018,332.7331,381.7798,331.811,381,331.0313,381.0161,331.0473,381.7925,330.2237,382.6421,329.4733,383.4564,328.6876,384.338,327.9693,385,327.0313" style="stroke:#181818;stroke-width:1.0;"/><path d="M379,331.0313 L379,331.3115 L389.0082,330.4788 L399.0164,331.289 L409.0246,331.5642 L419.0328,330.0801 L429.041,330.9276 L439.0492,330.4626 L449.0574,330.5199 L459.0656,330.9404 L469.0738,330.1094 L479.082,331.7694 L489.0902,330.1909 L499.0984,330.7676 L509.1066,331.6072 L519.1148,330.9169 L529.123,331.1222 L539.1311,330.9887 L549.1393,331.2693 L559.1475,331.3501 L569.1557,331.8122 L579.1639,331.926 L589.1721,331.9369 L599.1803,331.3708 L609.1885,331.6494 L619.1967,331.9676 L629.2049,330.0697 L639.2131,331.9359 L649.2213,330.6359 L659.2295,331.743 L669.2377,330.3712 L679.2459,330.9399 L689.2541,332.0201 L699.2623,330.9663 L709.2705,331.1717 L719.2787,331.4828 L729.2869,331.5862 L739.2951,331.026 L749.3033,331.4142 L759.3115,330.268 L769.3197,331.4104 L779.3279,331.7622 L789.3361,331.624 L799.3443,331.8486 L809.3525,330.3871 L819.3607,330.1617 L829.3689,330.2027 L839.377,330.9527 L849.3852,330.7692 L859.3934,331.9398 L869.4016,330.7983 L879.4098,330.5738 L889.418,331.3356 L899.4262,330.1421 L909.4344,330.3391 L919.4426,331.8965 L929.4508,331.6121 L939.459,332.0106 L949.4672,330.6022 L959.4754,331.4568 L969.4836,331.8185 L979.4918,330.4014 L989.5,331.0313 " fill="none" style="stroke:#181818;stroke-width:1.0;"/><text fill="#000000" font-family="FG Virgil" font-size="13" lengthAdjust="spacing" textLength="39" x="391" y="326.1748">factory</text><polygon fill="#181818" points="1116.5,357.3828,1116.526,357.4479,1118.4487,358.0546,1120.5239,359.0426,1122.5495,359.9065,1124.4117,360.362,1126.5,361.3828,1126.4904,361.3588,1124.4472,362.0508,1122.4525,362.8641,1120.4916,363.7617,1118.4144,364.3688,1116.5,365.3828,1116.6305,365.5133,1117.1514,364.4343,1118.0534,363.7362,1119.0018,363.0846,1119.6798,362.1626,1120.5,361.3828,1120.5161,361.3989,1119.6925,360.5753,1118.9421,359.8249,1118.1564,359.0392,1117.438,358.3209,1116.5,357.3828" style="stroke:#181818;stroke-width:1.0;"/><path d="M374,361.3828 L374,361.6631 L383.98,360.8304 L393.96,361.6405 L403.94,361.9157 L413.92,360.4316 L423.9,361.2792 L433.88,360.8142 L443.86,360.8715 L453.84,361.2919 L463.82,360.461 L473.8,362.121 L483.78,360.5424 L493.76,361.1191 L503.74,361.9587 L513.72,361.2684 L523.7,361.4738 L533.68,361.3402 L543.66,361.6208 L553.64,361.7017 L563.62,362.1637 L573.6,362.2776 L583.58,362.2885 L593.56,361.7223 L603.54,362.0009 L613.52,362.3191 L623.5,360.4212 L633.48,362.2875 L643.46,360.9875 L653.44,362.0946 L663.42,360.7228 L673.4,361.2915 L683.38,362.3716 L693.36,361.3178 L703.34,361.5232 L713.32,361.8343 L723.3,361.9378 L733.28,361.3776 L743.26,361.7658 L753.24,360.6196 L763.22,361.762 L773.2,362.1137 L783.18,361.9755 L793.16,362.2002 L803.14,360.7387 L813.12,360.5132 L823.1,360.5543 L833.08,361.3043 L843.06,361.1208 L853.04,362.2914 L863.02,361.1499 L873,360.9254 L882.98,361.6872 L892.96,360.4937 L902.94,360.6906 L912.92,362.2481 L922.9,361.9637 L932.88,362.3621 L942.86,360.9538 L952.84,361.8084 L962.82,362.17 L972.8,360.7529 L982.78,361.255 L992.76,361.5508 L1002.74,362.2518 L1012.72,361.3772 L1022.7,361.9996 L1032.68,360.6444 L1042.66,360.4798 L1052.64,362.0543 L1062.62,360.4269 L1072.6,362.0614 L1082.58,361.6583 L1092.56,361.0256 L1102.54,360.9111 L1112.52,361.9945 L1122.5,361.3828 " fill="none" style="stroke:#181818;stroke-width:1.0;"/><text fill="#000000" font-family="FG Virgil" font-size="13" lengthAdjust="spacing" textLength="40" x="381" y="356.5264">users()</text><polygon fill="#181818" points="1248,387.7344,1248.026,387.7994,1249.9487,388.4061,1252.0239,389.3942,1254.0495,390.2581,1255.9117,390.7136,1258,391.7344,1257.9904,391.7103,1255.9472,392.4024,1253.9525,393.2157,1251.9916,394.1133,1249.9144,394.7204,1248,395.7344,1248.1305,395.8649,1248.6514,394.7858,1249.5534,394.0878,1250.5018,393.4362,1251.1798,392.5142,1252,391.7344,1252.0161,391.7505,1251.1925,390.9268,1250.4421,390.1765,1249.6564,389.3907,1248.938,388.6724,1248,387.7344" style="stroke:#181818;stroke-width:1.0;"/><path d="M1138.5,391.7344 L1138.5,392.0146 L1148.125,391.1819 L1157.75,391.9921 L1167.375,392.2673 L1177,390.7832 L1186.625,391.6308 L1196.25,391.1657 L1205.875,391.223 L1215.5,391.6435 L1225.125,390.8125 L1234.75,392.4726 L1244.375,390.894 L1254,391.7344 " fill="none" style="stroke:#181818;stroke-width:1.0;"/><text fill="#000000" font-family="FG Virgil" font-size="13" lengthAdjust="spacing" textLength="44" x="1145.5" y="386.8779">create()</text><polygon fill="#181818" points="385,418.0859,385.026,418.151,382.9487,418.7577,381.0239,419.7458,379.0495,420.6096,376.9117,421.0651,375,422.0859,374.9904,422.0619,376.9472,422.7539,378.9525,423.5672,380.9916,424.4648,382.9144,425.072,385,426.0859,385.1305,426.2164,384.0514,425.1374,383.3534,424.4393,382.7018,423.7877,381.7798,422.8657,381,422.0859,381.0161,422.102,381.7925,421.2784,382.6421,420.528,383.4564,419.7423,384.338,419.024,385,418.0859" style="stroke:#181818;stroke-width:1.0;"/><path d="M379,422.0859 L379,422.3662 L389.0467,421.5335 L399.0933,422.3437 L409.14,422.6188 L419.1867,421.1347 L429.2333,421.9823 L439.28,421.5173 L449.3267,421.5746 L459.3733,421.9951 L469.42,421.1641 L479.4667,422.8241 L489.5133,421.2456 L499.56,421.8222 L509.6067,422.6619 L519.6533,421.9716 L529.7,422.1769 L539.7467,422.0433 L549.7933,422.324 L559.84,422.4048 L569.8867,422.8669 L579.9333,422.9807 L589.98,422.9916 L600.0267,422.4254 L610.0733,422.7041 L620.12,423.0222 L630.1667,421.1244 L640.2133,422.9906 L650.26,421.6906 L660.3067,422.7977 L670.3533,421.4259 L680.4,421.9946 L690.4467,423.0747 L700.4933,422.021 L710.54,422.2263 L720.5867,422.5374 L730.6333,422.6409 L740.68,422.0807 L750.7267,422.4689 L760.7733,421.3227 L770.82,422.4651 L780.8667,422.8169 L790.9133,422.6786 L800.96,422.9033 L811.0067,421.4418 L821.0533,421.2164 L831.1,421.2574 L841.1467,422.0074 L851.1933,421.8239 L861.24,422.9945 L871.2867,421.853 L881.3333,421.6285 L891.38,422.3903 L901.4267,421.1968 L911.4733,421.3938 L921.52,422.9512 L931.5667,422.6668 L941.6133,423.0653 L951.66,421.6569 L961.7067,422.5115 L971.7533,422.8732 L981.8,421.4561 L991.8467,421.9581 L1001.8933,422.2539 L1011.94,422.955 L1021.9867,422.0803 L1032.0333,422.7027 L1042.08,421.3476 L1052.1267,421.1829 L1062.1733,422.7574 L1072.22,421.13 L1082.2667,422.7646 L1092.3133,422.3614 L1102.36,421.7287 L1112.4067,421.6142 L1122.4533,422.6976 L1132.5,422.0859 " fill="none" style="stroke:#181818;stroke-width:1.0;"/><text fill="#000000" font-family="FG Virgil" font-size="13" lengthAdjust="spacing" textLength="87" x="391" y="417.2295">userRepository</text><polygon fill="#181818" points="506.5,448.4375,506.526,448.5025,508.4487,449.1093,510.5239,450.0973,512.5495,450.9612,514.4117,451.4167,516.5,452.4375,516.4904,452.4134,514.4472,453.1055,512.4525,453.9188,510.4916,454.8164,508.4144,455.4235,506.5,456.4375,506.6305,456.568,507.1514,455.4889,508.0534,454.7909,509.0018,454.1393,509.6798,453.2173,510.5,452.4375,510.5161,452.4536,509.6925,451.63,508.9421,450.8796,508.1564,450.0939,507.438,449.3755,506.5,448.4375" style="stroke:#181818;stroke-width:1.0;"/><path d="M374,452.4375 L374,452.7177 L383.8929,451.8851 L393.7857,452.6952 L403.6786,452.9704 L413.5714,451.4863 L423.4643,452.3339 L433.3571,451.8688 L443.25,451.9262 L453.1429,452.3466 L463.0357,451.5157 L472.9286,453.1757 L482.8214,451.5971 L492.7143,452.1738 L502.6071,453.0134 L512.5,452.4375 " fill="none" style="stroke:#181818;stroke-width:1.0;"/><text fill="#000000" font-family="FG Virgil" font-size="13" lengthAdjust="spacing" textLength="124" x="381" y="447.5811">authorizationService()</text><polygon fill="#181818" points="385,478.7891,385.026,478.8541,382.9487,479.4608,381.0239,480.4489,379.0495,481.3128,376.9117,481.7683,375,482.7891,374.9904,482.765,376.9472,483.4571,378.9525,484.2704,380.9916,485.168,382.9144,485.7751,385,486.7891,385.1305,486.9196,384.0514,485.8405,383.3534,485.1424,382.7018,484.4909,381.7798,483.5688,381,482.7891,381.0161,482.8051,381.7925,481.9815,382.6421,481.2311,383.4564,480.4454,384.338,479.7271,385,478.7891" style="stroke:#181818;stroke-width:1.0;"/><path d="M379,482.7891 L379,483.0693 L389.25,482.2366 L399.5,483.0468 L409.75,483.322 L420,481.8379 L430.25,482.6854 L440.5,482.2204 L450.75,482.2777 L461,482.6982 L471.25,481.8672 L481.5,483.5273 L491.75,481.9487 L502,482.5254 L512.25,483.365 L522.5,482.7891 " fill="none" style="stroke:#181818;stroke-width:1.0;"/><text fill="#000000" font-family="FG Virgil" font-size="13" lengthAdjust="spacing" textLength="32" x="391" y="477.9326">authz</text><polygon fill="#181818" points="743,509.1406,743.026,509.2057,744.9487,509.8124,747.0239,510.8004,749.0495,511.6643,750.9117,512.1198,753,513.1406,752.9904,513.1166,750.9472,513.8086,748.9525,514.6219,746.9916,515.5195,744.9144,516.1267,743,517.1406,743.1305,517.2711,743.6514,516.1921,744.5534,515.494,745.5018,514.8424,746.1798,513.9204,747,513.1406,747.0161,513.1567,746.1925,512.3331,745.4421,511.5827,744.6564,510.797,743.938,510.0787,743,509.1406" style="stroke:#181818;stroke-width:1.0;"/><path d="M374,513.1406 L374,513.4209 L383.8684,512.5882 L393.7368,513.3983 L403.6053,513.6735 L413.4737,512.1894 L423.3421,513.037 L433.2105,512.572 L443.0789,512.6293 L452.9474,513.0497 L462.8158,512.2188 L472.6842,513.8788 L482.5526,512.3003 L492.4211,512.8769 L502.2895,513.7166 L512.1579,513.0263 L522.0263,513.2316 L531.8947,513.098 L541.7632,513.3787 L551.6316,513.4595 L561.5,513.9215 L571.3684,514.0354 L581.2368,514.0463 L591.1053,513.4801 L600.9737,513.7587 L610.8421,514.0769 L620.7105,512.179 L630.5789,514.0453 L640.4474,512.7453 L650.3158,513.8524 L660.1842,512.4806 L670.0526,513.0493 L679.9211,514.1294 L689.7895,513.0756 L699.6579,513.281 L709.5263,513.5921 L719.3947,513.6956 L729.2632,513.1354 L739.1316,513.5236 L749,513.1406 " fill="none" style="stroke:#181818;stroke-width:1.0;"/><text fill="#000000" font-family="FG Virgil" font-size="13" lengthAdjust="spacing" textLength="357" x="381" y="508.2842">ensureAuthenticatedUserHasAnyOf(CourseRoles.MANAGER)</text><polygon fill="#181818" points="1243,539.4922,1243.026,539.5572,1244.9487,540.164,1247.0239,541.152,1249.0495,542.0159,1250.9117,542.4714,1253,543.4922,1252.9904,543.4681,1250.9472,544.1602,1248.9525,544.9735,1246.9916,545.8711,1244.9144,546.4782,1243,547.4922,1243.1305,547.6227,1243.6514,546.5436,1244.5534,545.8456,1245.5018,545.194,1246.1798,544.272,1247,543.4922,1247.0161,543.5083,1246.1925,542.6847,1245.4421,541.9343,1244.6564,541.1486,1243.938,540.4302,1243,539.4922" style="stroke:#181818;stroke-width:1.0;"/><path d="M374,543.4922 L374,543.7724 L383.9432,542.9398 L393.8864,543.7499 L403.8295,544.0251 L413.7727,542.541 L423.7159,543.3886 L433.6591,542.9235 L443.6023,542.9809 L453.5455,543.4013 L463.4886,542.5704 L473.4318,544.2304 L483.375,542.6518 L493.3182,543.2285 L503.2614,544.0681 L513.2045,543.3778 L523.1477,543.5832 L533.0909,543.4496 L543.0341,543.7302 L552.9773,543.811 L562.9205,544.2731 L572.8636,544.3869 L582.8068,544.3979 L592.75,543.8317 L602.6932,544.1103 L612.6364,544.4285 L622.5795,542.5306 L632.5227,544.3969 L642.4659,543.0968 L652.4091,544.2039 L662.3523,542.8322 L672.2955,543.4009 L682.2386,544.481 L692.1818,543.4272 L702.125,543.6326 L712.0682,543.9437 L722.0114,544.0472 L731.9545,543.487 L741.8977,543.8751 L751.8409,542.729 L761.7841,543.8714 L771.7273,544.2231 L781.6705,544.0849 L791.6136,544.3096 L801.5568,542.8481 L811.5,542.6226 L821.4432,542.6637 L831.3864,543.4137 L841.3295,543.2301 L851.2727,544.4007 L861.2159,543.2593 L871.1591,543.0348 L881.1023,543.7965 L891.0455,542.6031 L900.9886,542.8 L910.9318,544.3575 L920.875,544.0731 L930.8182,544.4715 L940.7614,543.0631 L950.7045,543.9178 L960.6477,544.2794 L970.5909,542.8623 L980.5341,543.3644 L990.4773,543.6602 L1000.4205,544.3612 L1010.3636,543.4866 L1020.3068,544.1089 L1030.25,542.7538 L1040.1932,542.5892 L1050.1364,544.1637 L1060.0795,542.5363 L1070.0227,544.1708 L1079.9659,543.7677 L1089.9091,543.135 L1099.8523,543.0205 L1109.7955,544.1039 L1119.7386,543.0931 L1129.6818,544.2813 L1139.625,542.7552 L1149.5682,544.3154 L1159.5114,544.1379 L1169.4545,543.8188 L1179.3977,543.5551 L1189.3409,544.461 L1199.2841,544.3103 L1209.2273,543.7179 L1219.1705,543.8498 L1229.1136,543.3185 L1239.0568,544.4475 L1249,543.4922 " fill="none" style="stroke:#181818;stroke-width:1.0;"/><text fill="#000000" font-family="FG Virgil" font-size="13" lengthAdjust="spacing" textLength="135" x="381" y="538.6357">findUserByEmail(email)</text><polygon fill="#181818" points="385,569.8438,385.026,569.9088,382.9487,570.5155,381.0239,571.5036,379.0495,572.3674,376.9117,572.823,375,573.8438,374.9904,573.8197,376.9472,574.5118,378.9525,575.3251,380.9916,576.2227,382.9144,576.8298,385,577.8438,385.1305,577.9742,384.0514,576.8952,383.3534,576.1971,382.7018,575.5456,381.7798,574.6235,381,573.8438,381.0161,573.8598,381.7925,573.0362,382.6421,572.2858,383.4564,571.5001,384.338,570.7818,385,569.8438" style="stroke:#181818;stroke-width:1.0;"/><path d="M379,573.8438 L379,574.124 L389,573.2913 L399,574.1015 L409,574.3767 L419,572.8926 L429,573.7401 L439,573.2751 L449,573.3324 L459,573.7529 L469,572.9219 L479,574.5819 L489,573.0034 L499,573.5801 L509,574.4197 L519,573.7294 L529,573.9347 L539,573.8012 L549,574.0818 L559,574.1626 L569,574.6247 L579,574.7385 L589,574.7494 L599,574.1833 L609,574.4619 L619,574.7801 L629,572.8822 L639,574.7484 L649,573.4484 L659,574.5555 L669,573.1837 L679,573.7524 L689,574.8326 L699,573.7788 L709,573.9842 L719,574.2953 L729,574.3987 L739,573.8385 L749,574.2267 L759,573.0805 L769,574.2229 L779,574.5747 L789,574.4365 L799,574.6611 L809,573.1996 L819,572.9742 L829,573.0152 L839,573.7652 L849,573.5817 L859,574.7523 L869,573.6108 L879,573.3863 L889,574.1481 L899,572.9546 L909,573.1516 L919,574.709 L929,574.4246 L939,574.8231 L949,573.4147 L959,574.2693 L969,574.631 L979,573.2139 L989,573.7159 L999,574.0117 L1009,574.7128 L1019,573.8382 L1029,574.4605 L1039,573.1054 L1049,572.9407 L1059,574.5152 L1069,572.8878 L1079,574.5224 L1089,574.1193 L1099,573.4865 L1109,573.3721 L1119,574.4554 L1129,573.4446 L1139,574.6329 L1149,573.1068 L1159,574.667 L1169,574.4895 L1179,574.1704 L1189,573.9067 L1199,574.8126 L1209,574.6619 L1219,574.0694 L1229,574.2013 L1239,573.6701 L1249,574.799 L1259,573.8438 " fill="none" style="stroke:#181818;stroke-width:1.0;"/><text fill="#000000" font-family="FG Virgil" font-size="13" lengthAdjust="spacing" textLength="25" x="391" y="568.9873">user</text><polygon fill="#181818" points="862.5,600.1953,862.526,600.2604,864.4487,600.8671,866.5239,601.8551,868.5495,602.719,870.4117,603.1745,872.5,604.1953,872.4904,604.1713,870.4472,604.8633,868.4525,605.6766,866.4916,606.5742,864.4144,607.1813,862.5,608.1953,862.6305,608.3258,863.1514,607.2468,864.0534,606.5487,865.0018,605.8971,865.6798,604.9751,866.5,604.1953,866.5161,604.2114,865.6925,603.3878,864.9421,602.6374,864.1564,601.8517,863.438,601.1334,862.5,600.1953" style="stroke:#181818;stroke-width:1.0;"/><path d="M374,604.1953 L374,604.4756 L384.0918,603.6429 L394.1837,604.453 L404.2755,604.7282 L414.3673,603.2441 L424.4592,604.0917 L434.551,603.6267 L444.6429,603.684 L454.7347,604.1044 L464.8265,603.2735 L474.9184,604.9335 L485.0102,603.3549 L495.102,603.9316 L505.1939,604.7712 L515.2857,604.0809 L525.3776,604.2863 L535.4694,604.1527 L545.5612,604.4333 L555.6531,604.5142 L565.7449,604.9762 L575.8367,605.0901 L585.9286,605.101 L596.0204,604.5348 L606.1122,604.8134 L616.2041,605.1316 L626.2959,603.2337 L636.3878,605.1 L646.4796,603.8 L656.5714,604.9071 L666.6633,603.5353 L676.7551,604.104 L686.8469,605.1841 L696.9388,604.1303 L707.0306,604.3357 L717.1224,604.6468 L727.2143,604.7503 L737.3061,604.1901 L747.398,604.5783 L757.4898,603.4321 L767.5816,604.5745 L777.6735,604.9262 L787.7653,604.788 L797.8571,605.0127 L807.949,603.5512 L818.0408,603.3257 L828.1327,603.3668 L838.2245,604.1168 L848.3163,603.9333 L858.4082,605.1039 L868.5,604.1953 " fill="none" style="stroke:#181818;stroke-width:1.0;"/><text fill="#000000" font-family="FG Virgil" font-size="13" lengthAdjust="spacing" textLength="49" x="381" y="599.3389">disable()</text><polygon fill="#181818" points="1243,630.5469,1243.026,630.6119,1244.9487,631.2186,1247.0239,632.2067,1249.0495,633.0706,1250.9117,633.5261,1253,634.5469,1252.9904,634.5228,1250.9472,635.2149,1248.9525,636.0282,1246.9916,636.9258,1244.9144,637.5329,1243,638.5469,1243.1305,638.6774,1243.6514,637.5983,1244.5534,636.9003,1245.5018,636.2487,1246.1798,635.3267,1247,634.5469,1247.0161,634.563,1246.1925,633.7393,1245.4421,632.989,1244.6564,632.2032,1243.938,631.4849,1243,630.5469" style="stroke:#181818;stroke-width:1.0;"/><path d="M374,634.5469 L374,634.8271 L383.9432,633.9944 L393.8864,634.8046 L403.8295,635.0798 L413.7727,633.5957 L423.7159,634.4433 L433.6591,633.9782 L443.6023,634.0355 L453.5455,634.456 L463.4886,633.625 L473.4318,635.2851 L483.375,633.7065 L493.3182,634.2832 L503.2614,635.1228 L513.2045,634.4325 L523.1477,634.6379 L533.0909,634.5043 L543.0341,634.7849 L552.9773,634.8657 L562.9205,635.3278 L572.8636,635.4416 L582.8068,635.4526 L592.75,634.8864 L602.6932,635.165 L612.6364,635.4832 L622.5795,633.5853 L632.5227,635.4516 L642.4659,634.1515 L652.4091,635.2586 L662.3523,633.8868 L672.2955,634.4555 L682.2386,635.5357 L692.1818,634.4819 L702.125,634.6873 L712.0682,634.9984 L722.0114,635.1019 L731.9545,634.5417 L741.8977,634.9298 L751.8409,633.7837 L761.7841,634.9261 L771.7273,635.2778 L781.6705,635.1396 L791.6136,635.3642 L801.5568,633.9028 L811.5,633.6773 L821.4432,633.7183 L831.3864,634.4684 L841.3295,634.2848 L851.2727,635.4554 L861.2159,634.314 L871.1591,634.0895 L881.1023,634.8512 L891.0455,633.6578 L900.9886,633.8547 L910.9318,635.4121 L920.875,635.1278 L930.8182,635.5262 L940.7614,634.1178 L950.7045,634.9725 L960.6477,635.3341 L970.5909,633.917 L980.5341,634.4191 L990.4773,634.7149 L1000.4205,635.4159 L1010.3636,634.5413 L1020.3068,635.1636 L1030.25,633.8085 L1040.1932,633.6439 L1050.1364,635.2184 L1060.0795,633.591 L1070.0227,635.2255 L1079.9659,634.8224 L1089.9091,634.1897 L1099.8523,634.0752 L1109.7955,635.1586 L1119.7386,634.1478 L1129.6818,635.336 L1139.625,633.8099 L1149.5682,635.3701 L1159.5114,635.1926 L1169.4545,634.8735 L1179.3977,634.6098 L1189.3409,635.5157 L1199.2841,635.365 L1209.2273,634.7725 L1219.1705,634.9045 L1229.1136,634.3732 L1239.0568,635.5021 L1249,634.5469 " fill="none" style="stroke:#181818;stroke-width:1.0;"/><text fill="#000000" font-family="FG Virgil" font-size="13" lengthAdjust="spacing" textLength="59" x="381" y="629.6904">save(user)</text><polygon fill="#181818" points="385,660.8984,385.026,660.9635,382.9487,661.5702,381.0239,662.5583,379.0495,663.4221,376.9117,663.8776,375,664.8984,374.9904,664.8744,376.9472,665.5664,378.9525,666.3797,380.9916,667.2773,382.9144,667.8845,385,668.8984,385.1305,669.0289,384.0514,667.9499,383.3534,667.2518,382.7018,666.6002,381.7798,665.6782,381,664.8984,381.0161,664.9145,381.7925,664.0909,382.6421,663.3405,383.4564,662.5548,384.338,661.8365,385,660.8984" style="stroke:#181818;stroke-width:1.0;"/><path d="M379,664.8984 L379,665.1787 L389,664.346 L399,665.1562 L409,665.4313 L419,663.9472 L429,664.7948 L439,664.3298 L449,664.3871 L459,664.8076 L469,663.9766 L479,665.6366 L489,664.0581 L499,664.6347 L509,665.4744 L519,664.7841 L529,664.9894 L539,664.8558 L549,665.1365 L559,665.2173 L569,665.6794 L579,665.7932 L589,665.8041 L599,665.2379 L609,665.5166 L619,665.8347 L629,663.9369 L639,665.8031 L649,664.5031 L659,665.6102 L669,664.2384 L679,664.8071 L689,665.8872 L699,664.8335 L709,665.0388 L719,665.3499 L729,665.4534 L739,664.8932 L749,665.2814 L759,664.1352 L769,665.2776 L779,665.6294 L789,665.4911 L799,665.7158 L809,664.2543 L819,664.0289 L829,664.0699 L839,664.8199 L849,664.6364 L859,665.807 L869,664.6655 L879,664.441 L889,665.2028 L899,664.0093 L909,664.2063 L919,665.7637 L929,665.4793 L939,665.8778 L949,664.4694 L959,665.324 L969,665.6857 L979,664.2686 L989,664.7706 L999,665.0664 L1009,665.7675 L1019,664.8928 L1029,665.5152 L1039,664.1601 L1049,663.9954 L1059,665.5699 L1069,663.9425 L1079,665.5771 L1089,665.1739 L1099,664.5412 L1109,664.4267 L1119,665.5101 L1129,664.4993 L1139,665.6876 L1149,664.1614 L1159,665.7217 L1169,665.5442 L1179,665.2251 L1189,664.9614 L1199,665.8673 L1209,665.7165 L1219,665.1241 L1229,665.256 L1239,664.7248 L1249,665.8537 L1259,664.8984 " fill="none" style="stroke:#181818;stroke-width:1.0;"/><text fill="#000000" font-family="FG Virgil" font-size="13" lengthAdjust="spacing" textLength="25" x="391" y="660.042">user</text><polygon fill="#181818" points="200,691.25,200.026,691.315,197.9487,691.9218,196.0239,692.9098,194.0495,693.7737,191.9117,694.2292,190,695.25,189.9904,695.2259,191.9472,695.918,193.9525,696.7313,195.9916,697.6289,197.9144,698.236,200,699.25,200.1305,699.3805,199.0514,698.3014,198.3534,697.6034,197.7018,696.9518,196.7798,696.0298,196,695.25,196.0161,695.2661,196.7925,694.4425,197.6421,693.6921,198.4564,692.9064,199.338,692.188,200,691.25" style="stroke:#181818;stroke-width:1.0;"/><path d="M194,695.25 L194,695.5302 L204.2353,694.6976 L214.4706,695.5077 L224.7059,695.7829 L234.9412,694.2988 L245.1765,695.1464 L255.4118,694.6813 L265.6471,694.7387 L275.8824,695.1591 L286.1176,694.3282 L296.3529,695.9882 L306.5882,694.4096 L316.8235,694.9863 L327.0588,695.8259 L337.2941,695.1356 L347.5294,695.341 L357.7647,695.2074 L368,695.25 " fill="none" style="stroke:#181818;stroke-width:1.0;"/><text fill="#000000" font-family="FG Virgil" font-size="13" lengthAdjust="spacing" textLength="25" x="206" y="690.3936">user</text><polygon fill="#181818" points="47,721.6016,47.026,721.6666,44.9487,722.2733,43.0239,723.2614,41.0495,724.1253,38.9117,724.5808,37,725.6016,36.9904,725.5775,38.9472,726.2696,40.9525,727.0829,42.9916,727.9805,44.9144,728.5876,47,729.6016,47.1305,729.7321,46.0514,728.653,45.3534,727.9549,44.7018,727.3034,43.7798,726.3813,43,725.6016,43.0161,725.6176,43.7925,724.794,44.6421,724.0436,45.4564,723.2579,46.338,722.5396,47,721.6016" style="stroke:#181818;stroke-width:1.0;"/><path d="M41,725.6016 L41,725.8818 L51.1429,725.0491 L61.2857,725.8593 L71.4286,726.1345 L81.5714,724.6504 L91.7143,725.4979 L101.8571,725.0329 L112,725.0902 L122.1429,725.5107 L132.2857,724.6797 L142.4286,726.3398 L152.5714,724.7612 L162.7143,725.3379 L172.8571,726.1775 L183,725.6016 " fill="none" style="stroke:#181818;stroke-width:1.0;stroke-dasharray:2.0,2.0;"/><text fill="#000000" font-family="FG Virgil" font-size="13" lengthAdjust="spacing" textLength="111" x="53" y="720.7451">displayUserDisable</text><!--MD5=[5ac5f42bf40d3f46958775b40d9adf43]
@startuml
'http://plantuml.com/skinparam.html
skinparam handwritten true
skinparam monochrome true
skinparam packageStyle rect
skinparam defaultFontName FG Virgil
skinparam shadowing false

actor Manager as Actor
participant ChangeUserStateUI as UI <<presentation>>
participant ChangeUserStateController as Controller <<application>>
participant AuthzRegistry as Registry <<util>>
participant AuthorizationService as AuthzService <<service>>
participant "user:User" as Domain <<domain>>
participant PersistenceContext as Persistence <<persistence>>
participant RepositoryFactory as Factory <<factory>>
database UserRepository as Repository <<repository>>


Actor - -> UI: Disable User
activate UI
    UI -> Controller: create()
    UI - -> Actor: Ask user information

    Actor - -> UI: email
        
    UI -> Controller: disableUserByEmail(email)
    activate Controller

        Controller -> Persistence: repositories()
        activate Persistence
        Persistence -> Factory: create()
        Persistence -> Controller: factory
        deactivate Persistence

        Controller -> Factory: users()
        activate Factory
        Factory -> Repository: create()
        Factory -> Controller: userRepository
        deactivate Factory

        Controller -> Registry: authorizationService()
        activate Registry
        Registry -> Controller: authz
        deactivate Registry

        Controller -> AuthzService: ensureAuthenticatedUserHasAnyOf(CourseRoles.MANAGER)


        Controller -> Repository: findUserByEmail(email)
        activate Repository
        Repository -> Controller: user
        deactivate Repository

        Controller -> Domain: disable()

        Controller -> Repository: save(user)
        activate Repository
        Repository -> Controller: user
        deactivate Repository

        Controller -> UI:user
        deactivate Controller
        UI - -> Actor: displayUserDisable

deactivate UI
@enduml

@startuml
skinparam handwritten true
skinparam monochrome true
skinparam packageStyle rect
skinparam defaultFontName FG Virgil
skinparam shadowing false

actor Manager as Actor
participant ChangeUserStateUI as UI <<presentation>>
participant ChangeUserStateController as Controller <<application>>
participant AuthzRegistry as Registry <<util>>
participant AuthorizationService as AuthzService <<service>>
participant "user:User" as Domain <<domain>>
participant PersistenceContext as Persistence <<persistence>>
participant RepositoryFactory as Factory <<factory>>
database UserRepository as Repository <<repository>>


Actor - -> UI: Disable User
activate UI
    UI -> Controller: create()
    UI - -> Actor: Ask user information

    Actor - -> UI: email
        
    UI -> Controller: disableUserByEmail(email)
    activate Controller

        Controller -> Persistence: repositories()
        activate Persistence
        Persistence -> Factory: create()
        Persistence -> Controller: factory
        deactivate Persistence

        Controller -> Factory: users()
        activate Factory
        Factory -> Repository: create()
        Factory -> Controller: userRepository
        deactivate Factory

        Controller -> Registry: authorizationService()
        activate Registry
        Registry -> Controller: authz
        deactivate Registry

        Controller -> AuthzService: ensureAuthenticatedUserHasAnyOf(CourseRoles.MANAGER)


        Controller -> Repository: findUserByEmail(email)
        activate Repository
        Repository -> Controller: user
        deactivate Repository

        Controller -> Domain: disable()

        Controller -> Repository: save(user)
        activate Repository
        Repository -> Controller: user
        deactivate Repository

        Controller -> UI:user
        deactivate Controller
        UI - -> Actor: displayUserDisable

deactivate UI
@enduml

PlantUML version 1.2022.7(Mon Aug 22 18:01:30 BST 2022)
(GPL source distribution)
Java Runtime: Java(TM) SE Runtime Environment
JVM: Java HotSpot(TM) 64-Bit Server VM
Default Encoding: Cp1252
Language: pt
Country: PT
--></g></svg>