<?xml version="1.0" encoding="UTF-8" standalone="no"?><svg xmlns="http://www.w3.org/2000/svg" xmlns:xlink="http://www.w3.org/1999/xlink" contentStyleType="text/css" height="810px" preserveAspectRatio="none" style="width:1314px;height:810px;background:#FFFFFF;" version="1.1" viewBox="0 0 1314 810" width="1314px" zoomAndPan="magnify"><defs/><g><polygon fill="#FFFFFF" points="179,118.5703,179,118.6404,181,118.4322,183,118.6347,185,118.7035,187,118.3325,189,118.5703,188.9223,118.5703,188.5735,128.5131,188.6165,138.4558,188.9318,148.3986,188.3086,158.3413,189.5536,168.2841,188.3697,178.2268,188.8022,188.1696,189.4319,198.1123,188.9142,208.0551,189.0682,217.9978,188.9681,227.9406,189.1785,237.8834,189.2391,247.8261,189.5857,257.7689,189.6711,267.7116,189.6793,277.6544,189.2546,287.5971,189.4636,297.5399,189.7022,307.4826,188.2788,317.4254,189.6785,327.3681,188.7035,337.3109,189.5338,347.2536,188.505,357.1964,188.9315,367.1391,189.7416,377.0819,188.9513,387.0246,189.1053,396.9674,189.3386,406.9102,189.4162,416.8529,188.9961,426.7957,189.2872,436.7384,188.4276,446.6812,189.2844,456.6239,189.5482,466.5667,189.4445,476.5094,189.613,486.4522,188.5169,496.3949,188.3478,506.3377,188.3786,516.2804,188.9411,526.2232,188.8035,536.1659,189.6814,546.1087,188.8253,556.0515,188.6569,565.9942,189.2283,575.937,188.3332,585.8797,188.4809,595.8225,189.649,605.7652,189.4357,615.708,189.7345,625.6507,188.6782,635.5935,189.3192,645.5362,189.5904,655.479,188.5276,665.4217,188.9041,675.3645,189.126,685.3072,189,695.25,189,695.4673,187,695.2486,185,695.4042,183,695.0654,181,695.0242,179,695.25,179.5036,695.25,178.2831,685.3072,179.509,675.3645,179.2066,665.4217,178.7321,655.479,178.6462,645.5362,179.4588,635.5935,178.7007,625.6507,179.5919,615.708,178.4473,605.7652,179.6174,595.8225,179.4843,585.8797,179.245,575.937,179.0472,565.9942,179.7266,556.0515,179.6136,546.1087,179.1693,536.1659,179.2682,526.2232,178.8697,516.2804,179.7165,506.3377,179.1549,496.3949,179.1726,486.4522,178.3916,476.5094,178.5948,466.5667,179.5307,456.6239,179.4298,446.6812,178.9571,436.7384,178.6778,426.7957,178.7811,416.8529,178.3138,406.9102,179.4147,396.9674,179.7396,387.0246,179.5264,377.0819,179.6949,367.1391,178.8633,357.1964,179.0872,347.2536,178.6124,337.3109,179.284,327.3681,179.2468,317.4254,179.5524,307.4826,178.7703,297.5399,178.8656,287.5971,179.4435,277.6544,179.5673,267.7116,178.4875,257.7689,178.8061,247.8261,179.1493,237.8834,178.3892,227.9406,179.3534,217.9978,179.258,208.0551,178.8992,198.1123,179.1422,188.1696,179.7287,178.2268,178.6871,168.2841,179.315,158.3413,179.2856,148.3986,179.1158,138.4558,179.1409,128.5131,179,118.5703" style="stroke:#181818;stroke-width:1.0;"/><polygon fill="#FFFFFF" points="361,239.9766,361,240.0466,363,239.8385,365,240.041,367,240.1098,369,239.7388,371,239.9766,370.9223,239.9766,370.5735,250.0938,370.6165,260.2109,370.9318,270.3281,370.3086,280.4453,371.5536,290.5625,370.3697,300.6797,370.8022,310.7969,371.4319,320.9141,370.9142,331.0313,371.0682,341.1484,370.9681,351.2656,371.1785,361.3828,371.2391,371.5,371.5857,381.6172,371.6711,391.7344,371.6793,401.8516,371.2546,411.9688,371.4636,422.0859,371.7022,432.2031,370.2788,442.3203,371.6785,452.4375,370.7035,462.5547,371.5338,472.6719,370.505,482.7891,370.9315,492.9063,371.7416,503.0234,370.9513,513.1406,371.1053,523.2578,371.3386,533.375,371.4162,543.4922,370.9961,553.6094,371.2872,563.7266,370.4276,573.8438,371.2844,583.9609,371.5482,594.0781,371.4445,604.1953,371.613,614.3125,370.5169,624.4297,370.3478,634.5469,370.3786,644.6641,370.9411,654.7813,371,664.8984,371,664.8329,369,665.1256,367,664.8402,365,664.7841,363,664.9745,361,664.8984,360.3332,664.8984,360.4809,654.7813,361.649,644.6641,361.4357,634.5469,361.7345,624.4297,360.6782,614.3125,361.3192,604.1953,361.5904,594.0781,360.5276,583.9609,360.9041,573.8438,361.126,563.7266,361.6518,553.6094,360.9958,543.4922,361.4626,533.375,360.4462,523.2578,360.3227,513.1406,361.5036,503.0234,360.2831,492.9063,361.509,482.7891,361.2066,472.6719,360.7321,462.5547,360.6462,452.4375,361.4588,442.3203,360.7007,432.2031,361.5919,422.0859,360.4473,411.9688,361.6174,401.8516,361.4843,391.7344,361.245,381.6172,361.0472,371.5,361.7266,361.3828,361.6136,351.2656,361.1693,341.1484,361.2682,331.0313,360.8697,320.9141,361.7165,310.7969,361.1549,300.6797,361.1726,290.5625,360.3916,280.4453,360.5948,270.3281,361.5307,260.2109,361.4298,250.0938,361,239.9766" style="stroke:#181818;stroke-width:1.0;"/><polygon fill="#FFFFFF" points="752,452.4375,752,452.5076,754,452.2994,756,452.5019,758,452.5707,760,452.1997,762,452.4375,761.9741,452.4375,761.8578,458.5078,761.8722,464.5781,761.9773,470.6484,761.7695,476.7188,762,482.7891,762,482.9736,760,482.579,758,482.7231,756,482.933,754,482.7605,752,482.7891,752.0227,482.7891,751.9894,476.7188,752.0595,470.6484,752.0797,464.5781,752.1952,458.5078,752,452.4375" style="stroke:#181818;stroke-width:1.0;"/><polygon fill="#FFFFFF" points="987.5,270.3281,987.5,270.3982,989.5,270.19,991.5,270.3926,993.5,270.4614,995.5,270.0903,997.5,270.3281,997.4223,270.3281,997.0735,280.4453,997.1165,290.5625,997.4318,300.6797,996.8086,310.7969,998.0536,320.9141,997.5,331.0313,997.5,330.8212,995.5,330.9653,993.5,331.1752,991.5,331.0027,989.5,331.054,987.5,331.0313,987.4681,331.0313,987.6785,320.9141,987.7391,310.7969,988.0857,300.6797,988.1711,290.5625,988.1793,280.4453,987.5,270.3281" style="stroke:#181818;stroke-width:1.0;"/><polygon fill="#FFFFFF" points="1130.5,361.3828,1130.5,361.4529,1132.5,361.2447,1134.5,361.4472,1136.5,361.516,1138.5,361.145,1140.5,361.3828,1140.4223,361.3828,1140.0735,371.5,1140.1165,381.6172,1140.4318,391.7344,1139.8086,401.8516,1141.0536,411.9688,1140.5,422.0859,1140.5,421.8758,1138.5,422.02,1136.5,422.2299,1134.5,422.0573,1132.5,422.1087,1130.5,422.0859,1130.4681,422.0859,1130.6785,411.9688,1130.7391,401.8516,1131.0857,391.7344,1131.1711,381.6172,1131.1793,371.5,1130.5,361.3828" style="stroke:#181818;stroke-width:1.0;"/><polygon fill="#FFFFFF" points="1257,513.1406,1257,513.2107,1259,513.0025,1261,513.2051,1263,513.2739,1265,512.9028,1267,513.1406,1266.9741,513.1406,1266.8578,519.2109,1266.8722,525.2813,1266.9773,531.3516,1266.7695,537.4219,1267,543.4922,1267,543.6767,1265,543.2821,1263,543.4263,1261,543.6362,1259,543.4636,1257,543.4922,1257.0227,543.4922,1256.9894,537.4219,1257.0595,531.3516,1257.0797,525.2813,1257.1952,519.2109,1257,513.1406" style="stroke:#181818;stroke-width:1.0;"/><polygon fill="#FFFFFF" points="1257,604.1953,1257,604.2654,1259,604.0572,1261,604.2597,1263,604.3285,1265,603.9575,1267,604.1953,1266.9741,604.1953,1266.8578,610.2656,1266.8722,616.3359,1266.9773,622.4063,1266.7695,628.4766,1267,634.5469,1267,634.7314,1265,634.3368,1263,634.481,1261,634.6909,1259,634.5183,1257,634.5469,1257.0227,634.5469,1256.9894,628.4766,1257.0595,622.4063,1257.0797,616.3359,1257.1952,610.2656,1257,604.1953" style="stroke:#181818;stroke-width:1.0;"/><path d="M36,86.2188 L36.2802,86.2188 L35.4476,96.1716 L36.2577,106.1245 L36.5329,116.0774 L35.0488,126.0303 L35.8964,135.9831 L35.4313,145.936 L35.4887,155.8889 L35.9091,165.8418 L35.0782,175.7946 L36.7382,185.7475 L35.1596,195.7004 L35.7363,205.6533 L36.5759,215.6062 L35.8856,225.559 L36.091,235.5119 L35.9574,245.4648 L36.238,255.4177 L36.3188,265.3705 L36.7809,275.3234 L36.8947,285.2763 L36.9057,295.2292 L36.3395,305.182 L36.6181,315.1349 L36.9363,325.0878 L35.0384,335.0407 L36.9047,344.9936 L35.6047,354.9464 L36.7117,364.8993 L35.34,374.8522 L35.9087,384.8051 L36.9888,394.7579 L35.935,404.7108 L36.1404,414.6637 L36.4515,424.6166 L36.555,434.5694 L35.9948,444.5223 L36.383,454.4752 L35.2368,464.4281 L36.3792,474.381 L36.7309,484.3338 L36.5927,494.2867 L36.8174,504.2396 L35.3559,514.1925 L35.1304,524.1453 L35.1715,534.0982 L35.9215,544.0511 L35.738,554.004 L36.9085,563.9568 L35.7671,573.9097 L35.5426,583.8626 L36.3044,593.8155 L35.1109,603.7684 L35.3078,613.7212 L36.8653,623.6741 L36.5809,633.627 L36.9793,643.5799 L35.5709,653.5327 L36.4256,663.4856 L36.7872,673.4385 L35.3701,683.3914 L35.8722,693.3442 L36.168,703.2971 L36,713.25 " fill="none" style="stroke:#181818;stroke-width:0.5;stroke-dasharray:5.0,5.0;"/><path d="M184,86.2188 L184.2802,86.2188 L183.4476,96.1716 L184.2577,106.1245 L184.5329,116.0774 L183.0488,126.0303 L183.8964,135.9831 L183.4313,145.936 L183.4887,155.8889 L183.9091,165.8418 L183.0782,175.7946 L184.7382,185.7475 L183.1596,195.7004 L183.7363,205.6533 L184.5759,215.6062 L183.8856,225.559 L184.091,235.5119 L183.9574,245.4648 L184.238,255.4177 L184.3188,265.3705 L184.7809,275.3234 L184.8947,285.2763 L184.9057,295.2292 L184.3395,305.182 L184.6181,315.1349 L184.9363,325.0878 L183.0384,335.0407 L184.9047,344.9936 L183.6047,354.9464 L184.7117,364.8993 L183.34,374.8522 L183.9087,384.8051 L184.9888,394.7579 L183.935,404.7108 L184.1404,414.6637 L184.4515,424.6166 L184.555,434.5694 L183.9948,444.5223 L184.383,454.4752 L183.2368,464.4281 L184.3792,474.381 L184.7309,484.3338 L184.5927,494.2867 L184.8174,504.2396 L183.3559,514.1925 L183.1304,524.1453 L183.1715,534.0982 L183.9215,544.0511 L183.738,554.004 L184.9085,563.9568 L183.7671,573.9097 L183.5426,583.8626 L184.3044,593.8155 L183.1109,603.7684 L183.3078,613.7212 L184.8653,623.6741 L184.5809,633.627 L184.9793,643.5799 L183.5709,653.5327 L184.4256,663.4856 L184.7872,673.4385 L183.3701,683.3914 L183.8722,693.3442 L184.168,703.2971 L184,713.25 " fill="none" style="stroke:#181818;stroke-width:0.5;stroke-dasharray:5.0,5.0;"/><path d="M366,86.2188 L366.2802,86.2188 L365.4476,96.1716 L366.2577,106.1245 L366.5329,116.0774 L365.0488,126.0303 L365.8964,135.9831 L365.4313,145.936 L365.4887,155.8889 L365.9091,165.8418 L365.0782,175.7946 L366.7382,185.7475 L365.1596,195.7004 L365.7363,205.6533 L366.5759,215.6062 L365.8856,225.559 L366.091,235.5119 L365.9574,245.4648 L366.238,255.4177 L366.3188,265.3705 L366.7809,275.3234 L366.8947,285.2763 L366.9057,295.2292 L366.3395,305.182 L366.6181,315.1349 L366.9363,325.0878 L365.0384,335.0407 L366.9047,344.9936 L365.6047,354.9464 L366.7117,364.8993 L365.34,374.8522 L365.9087,384.8051 L366.9888,394.7579 L365.935,404.7108 L366.1404,414.6637 L366.4515,424.6166 L366.555,434.5694 L365.9948,444.5223 L366.383,454.4752 L365.2368,464.4281 L366.3792,474.381 L366.7309,484.3338 L366.5927,494.2867 L366.8174,504.2396 L365.3559,514.1925 L365.1304,524.1453 L365.1715,534.0982 L365.9215,544.0511 L365.738,554.004 L366.9085,563.9568 L365.7671,573.9097 L365.5426,583.8626 L366.3044,593.8155 L365.1109,603.7684 L365.3078,613.7212 L366.8653,623.6741 L366.5809,633.627 L366.9793,643.5799 L365.5709,653.5327 L366.4256,663.4856 L366.7872,673.4385 L365.3701,683.3914 L365.8722,693.3442 L366.168,703.2971 L366,713.25 " fill="none" style="stroke:#181818;stroke-width:0.5;stroke-dasharray:5.0,5.0;"/><path d="M756.5,86.2188 L756.7802,86.2188 L755.9476,96.1716 L756.7577,106.1245 L757.0329,116.0774 L755.5488,126.0303 L756.3964,135.9831 L755.9313,145.936 L755.9887,155.8889 L756.4091,165.8418 L755.5782,175.7946 L757.2382,185.7475 L755.6596,195.7004 L756.2363,205.6533 L757.0759,215.6062 L756.3856,225.559 L756.591,235.5119 L756.4574,245.4648 L756.738,255.4177 L756.8188,265.3705 L757.2809,275.3234 L757.3947,285.2763 L757.4057,295.2292 L756.8395,305.182 L757.1181,315.1349 L757.4363,325.0878 L755.5384,335.0407 L757.4047,344.9936 L756.1047,354.9464 L757.2117,364.8993 L755.84,374.8522 L756.4087,384.8051 L757.4888,394.7579 L756.435,404.7108 L756.6404,414.6637 L756.9515,424.6166 L757.055,434.5694 L756.4948,444.5223 L756.883,454.4752 L755.7368,464.4281 L756.8792,474.381 L757.2309,484.3338 L757.0927,494.2867 L757.3174,504.2396 L755.8559,514.1925 L755.6304,524.1453 L755.6715,534.0982 L756.4215,544.0511 L756.238,554.004 L757.4085,563.9568 L756.2671,573.9097 L756.0426,583.8626 L756.8044,593.8155 L755.6109,603.7684 L755.8078,613.7212 L757.3653,623.6741 L757.0809,633.627 L757.4793,643.5799 L756.0709,653.5327 L756.9256,663.4856 L757.2872,673.4385 L755.8701,683.3914 L756.3722,693.3442 L756.668,703.2971 L756.5,713.25 " fill="none" style="stroke:#181818;stroke-width:0.5;stroke-dasharray:5.0,5.0;"/><path d="M876.5,86.2188 L876.7802,86.2188 L875.9476,96.1716 L876.7577,106.1245 L877.0329,116.0774 L875.5488,126.0303 L876.3964,135.9831 L875.9313,145.936 L875.9887,155.8889 L876.4091,165.8418 L875.5782,175.7946 L877.2382,185.7475 L875.6596,195.7004 L876.2363,205.6533 L877.0759,215.6062 L876.3856,225.559 L876.591,235.5119 L876.4574,245.4648 L876.738,255.4177 L876.8188,265.3705 L877.2809,275.3234 L877.3947,285.2763 L877.4057,295.2292 L876.8395,305.182 L877.1181,315.1349 L877.4363,325.0878 L875.5384,335.0407 L877.4047,344.9936 L876.1047,354.9464 L877.2117,364.8993 L875.84,374.8522 L876.4087,384.8051 L877.4888,394.7579 L876.435,404.7108 L876.6404,414.6637 L876.9515,424.6166 L877.055,434.5694 L876.4948,444.5223 L876.883,454.4752 L875.7368,464.4281 L876.8792,474.381 L877.2309,484.3338 L877.0927,494.2867 L877.3174,504.2396 L875.8559,514.1925 L875.6304,524.1453 L875.6715,534.0982 L876.4215,544.0511 L876.238,554.004 L877.4085,563.9568 L876.2671,573.9097 L876.0426,583.8626 L876.8044,593.8155 L875.6109,603.7684 L875.8078,613.7212 L877.3653,623.6741 L877.0809,633.627 L877.4793,643.5799 L876.0709,653.5327 L876.9256,663.4856 L877.2872,673.4385 L875.8701,683.3914 L876.3722,693.3442 L876.668,703.2971 L876.5,713.25 " fill="none" style="stroke:#181818;stroke-width:0.5;stroke-dasharray:5.0,5.0;"/><path d="M992.5,86.2188 L992.7802,86.2188 L991.9476,96.1716 L992.7577,106.1245 L993.0329,116.0774 L991.5488,126.0303 L992.3964,135.9831 L991.9313,145.936 L991.9887,155.8889 L992.4091,165.8418 L991.5782,175.7946 L993.2382,185.7475 L991.6596,195.7004 L992.2363,205.6533 L993.0759,215.6062 L992.3856,225.559 L992.591,235.5119 L992.4574,245.4648 L992.738,255.4177 L992.8188,265.3705 L993.2809,275.3234 L993.3947,285.2763 L993.4057,295.2292 L992.8395,305.182 L993.1181,315.1349 L993.4363,325.0878 L991.5384,335.0407 L993.4047,344.9936 L992.1047,354.9464 L993.2117,364.8993 L991.84,374.8522 L992.4087,384.8051 L993.4888,394.7579 L992.435,404.7108 L992.6404,414.6637 L992.9515,424.6166 L993.055,434.5694 L992.4948,444.5223 L992.883,454.4752 L991.7368,464.4281 L992.8792,474.381 L993.2309,484.3338 L993.0927,494.2867 L993.3174,504.2396 L991.8559,514.1925 L991.6304,524.1453 L991.6715,534.0982 L992.4215,544.0511 L992.238,554.004 L993.4085,563.9568 L992.2671,573.9097 L992.0426,583.8626 L992.8044,593.8155 L991.6109,603.7684 L991.8078,613.7212 L993.3653,623.6741 L993.0809,633.627 L993.4793,643.5799 L992.0709,653.5327 L992.9256,663.4856 L993.2872,673.4385 L991.8701,683.3914 L992.3722,693.3442 L992.668,703.2971 L992.5,713.25 " fill="none" style="stroke:#181818;stroke-width:0.5;stroke-dasharray:5.0,5.0;"/><path d="M1135.5,86.2188 L1135.7802,86.2188 L1134.9476,96.1716 L1135.7577,106.1245 L1136.0329,116.0774 L1134.5488,126.0303 L1135.3964,135.9831 L1134.9313,145.936 L1134.9887,155.8889 L1135.4091,165.8418 L1134.5782,175.7946 L1136.2382,185.7475 L1134.6596,195.7004 L1135.2363,205.6533 L1136.0759,215.6062 L1135.3856,225.559 L1135.591,235.5119 L1135.4574,245.4648 L1135.738,255.4177 L1135.8188,265.3705 L1136.2809,275.3234 L1136.3947,285.2763 L1136.4057,295.2292 L1135.8395,305.182 L1136.1181,315.1349 L1136.4363,325.0878 L1134.5384,335.0407 L1136.4047,344.9936 L1135.1047,354.9464 L1136.2117,364.8993 L1134.84,374.8522 L1135.4087,384.8051 L1136.4888,394.7579 L1135.435,404.7108 L1135.6404,414.6637 L1135.9515,424.6166 L1136.055,434.5694 L1135.4948,444.5223 L1135.883,454.4752 L1134.7368,464.4281 L1135.8792,474.381 L1136.2309,484.3338 L1136.0927,494.2867 L1136.3174,504.2396 L1134.8559,514.1925 L1134.6304,524.1453 L1134.6715,534.0982 L1135.4215,544.0511 L1135.238,554.004 L1136.4085,563.9568 L1135.2671,573.9097 L1135.0426,583.8626 L1135.8044,593.8155 L1134.6109,603.7684 L1134.8078,613.7212 L1136.3653,623.6741 L1136.0809,633.627 L1136.4793,643.5799 L1135.0709,653.5327 L1135.9256,663.4856 L1136.2872,673.4385 L1134.8701,683.3914 L1135.3722,693.3442 L1135.668,703.2971 L1135.5,713.25 " fill="none" style="stroke:#181818;stroke-width:0.5;stroke-dasharray:5.0,5.0;"/><path d="M1261.5,86.2188 L1261.7802,86.2188 L1260.9476,96.1716 L1261.7577,106.1245 L1262.0329,116.0774 L1260.5488,126.0303 L1261.3964,135.9831 L1260.9313,145.936 L1260.9887,155.8889 L1261.4091,165.8418 L1260.5782,175.7946 L1262.2382,185.7475 L1260.6596,195.7004 L1261.2363,205.6533 L1262.0759,215.6062 L1261.3856,225.559 L1261.591,235.5119 L1261.4574,245.4648 L1261.738,255.4177 L1261.8188,265.3705 L1262.2809,275.3234 L1262.3947,285.2763 L1262.4057,295.2292 L1261.8395,305.182 L1262.1181,315.1349 L1262.4363,325.0878 L1260.5384,335.0407 L1262.4047,344.9936 L1261.1047,354.9464 L1262.2117,364.8993 L1260.84,374.8522 L1261.4087,384.8051 L1262.4888,394.7579 L1261.435,404.7108 L1261.6404,414.6637 L1261.9515,424.6166 L1262.055,434.5694 L1261.4948,444.5223 L1261.883,454.4752 L1260.7368,464.4281 L1261.8792,474.381 L1262.2309,484.3338 L1262.0927,494.2867 L1262.3174,504.2396 L1260.8559,514.1925 L1260.6304,524.1453 L1260.6715,534.0982 L1261.4215,544.0511 L1261.238,554.004 L1262.4085,563.9568 L1261.2671,573.9097 L1261.0426,583.8626 L1261.8044,593.8155 L1260.6109,603.7684 L1260.8078,613.7212 L1262.3653,623.6741 L1262.0809,633.627 L1262.4793,643.5799 L1261.0709,653.5327 L1261.9256,663.4856 L1262.2872,673.4385 L1260.8701,683.3914 L1261.3722,693.3442 L1261.668,703.2971 L1261.5,713.25 " fill="none" style="stroke:#181818;stroke-width:0.5;stroke-dasharray:5.0,5.0;"/><text fill="#000000" font-family="FG Virgil" font-size="14" lengthAdjust="spacing" textLength="56" x="5" y="83.1426">Manager</text><polygon fill="#E3E3E3" points="44.0442,19.0553,42.8715,20.6576,41.4845,23.0044,39.5008,24.586,37.4163,25.4509,35.7542,25.526,33.618,24.4443,31.6023,23.7377,30.0724,22.303,29.2699,20.6605,28.7939,19.3527,28.3277,17.6444,27.5709,16.1744,28.1525,14.7392,28.662,13.167,30.574,11.9235,31.9192,10.3102,33.5843,9.7744,35.5637,9.313,38.1021,9.5872,39.4924,10.2429,41.1089,10.5401,43.0743,12.5537,43.7595,14.6795,44.0571,16.13,43.72,18.5202" style="stroke:#181818;stroke-width:0.5;"/><path d="M36,25.1094 L36.1868,25.1094 L35.6317,30.5094 L36.1718,35.9094 L36.3553,41.3094 L35.3659,46.7094 L36,52.1094 M23,33.1094 L23,33.0403 L28.2,32.7303 L33.4,32.7685 L38.6,33.0488 L43.8,32.4948 L49,33.1094 M36,52.1094 L36.3719,52.4317 L32.9766,54.7425 L30.6672,57.9942 L28.4901,61.3608 L25.5424,64.0594 L23,67.1094 M36,52.1094 L36.0458,52.1491 L38.5785,55.0908 L41.3199,58.2133 L43.9606,61.2486 L46.7934,64.4503 L49,67.1094 " fill="none" style="stroke:#181818;stroke-width:0.5;"/><text fill="#000000" font-family="FG Virgil" font-size="14" lengthAdjust="spacing" textLength="56" x="5" y="726.7832">Manager</text><polygon fill="#E3E3E3" points="44.0442,740.3053,42.8715,741.9076,41.4845,744.2544,39.5008,745.836,37.4163,746.7009,35.7542,746.776,33.618,745.6943,31.6023,744.9877,30.0724,743.553,29.2699,741.9105,28.7939,740.6027,28.3277,738.8944,27.5709,737.4244,28.1525,735.9892,28.662,734.417,30.574,733.1735,31.9192,731.5602,33.5843,731.0244,35.5637,730.563,38.1021,730.8372,39.4924,731.4929,41.1089,731.7901,43.0743,733.8037,43.7595,735.9295,44.0571,737.38,43.72,739.7702" style="stroke:#181818;stroke-width:0.5;"/><path d="M36,746.3594 L36.1868,746.3594 L35.6317,751.7594 L36.1718,757.1594 L36.3553,762.5594 L35.3659,767.9594 L36,773.3594 M23,754.3594 L23,754.2903 L28.2,753.9803 L33.4,754.0185 L38.6,754.2988 L43.8,753.7448 L49,754.3594 M36,773.3594 L36.3719,773.6817 L32.9766,775.9925 L30.6672,779.2442 L28.4901,782.6108 L25.5424,785.3094 L23,788.3594 M36,773.3594 L36.0458,773.3991 L38.5785,776.3408 L41.3199,779.4633 L43.9606,782.4986 L46.7934,785.7003 L49,788.3594 " fill="none" style="stroke:#181818;stroke-width:0.5;"/><polygon fill="#E3E3E3" points="117.5,36,117.5,36.2102,127.7308,35.5857,137.9615,36.1933,148.1923,36.3997,158.4231,35.2866,168.6538,35.9223,178.8846,35.5735,189.1154,35.6165,199.3462,35.9318,209.5769,35.3086,219.8077,36.5536,230.0385,35.3697,240.2692,35.8022,250.5,36,250.5551,36.133,250.8426,36.12,251.2158,36.3139,251.5566,36.4295,251.937,36.6408,252.2678,36.7322,252.3414,36.7627,252.5946,37.1605,252.7673,37.5249,252.9163,37.8795,252.932,38.1789,253,38.5,253.1545,38.5,253.2341,47.3438,252.7596,56.1875,253.2262,65.0313,252.9012,73.875,253,82.7188,253.1644,82.7868,252.7011,83.0092,252.686,83.4171,252.789,83.874,252.3992,84.1267,252.2678,84.4865,252.2812,84.5189,251.9574,84.7372,251.6138,84.9076,251.2066,84.9247,250.8902,85.1608,250.5,85.2188,250.5,84.6463,240.2692,85.5031,230.0385,85.7669,219.8077,85.6633,209.5769,85.8318,199.3462,84.7357,189.1154,84.5666,178.8846,84.5973,168.6538,85.1599,158.4231,85.0222,148.1923,85.9002,137.9615,85.0441,127.7308,84.8757,117.5,85.2188,117.5291,85.289,117.0614,84.8669,116.7267,84.766,116.5221,84.9793,116.1414,84.7671,115.7322,84.4865,115.9584,84.5802,115.4867,84.0919,115.5376,83.8201,115.4747,83.5012,115.001,83.012,115,82.7188,114.968,82.7188,115.042,73.875,115.2173,65.0313,114.9986,56.1875,115.1542,47.3438,115,38.5,114.8295,38.4294,114.9379,38.0601,115.448,37.8571,115.2186,37.3479,115.7425,37.1507,115.7322,36.7322,115.7586,36.7959,116.0516,36.5033,116.3942,36.3304,116.8514,36.4342,117.1083,36.0543,117.5,36" style="stroke:#181818;stroke-width:0.5;"/><text fill="#000000" font-family="FG Virgil" font-size="14" font-style="italic" lengthAdjust="spacing" textLength="95" x="136.5" y="57.5332">«presentation»</text><text fill="#000000" font-family="FG Virgil" font-size="14" lengthAdjust="spacing" textLength="124" x="122" y="75.1426">ChangeUserStateUI</text><polygon fill="#E3E3E3" points="117.5,712.25,117.5,712.4602,127.7308,711.8357,137.9615,712.4433,148.1923,712.6497,158.4231,711.5366,168.6538,712.1723,178.8846,711.8235,189.1154,711.8665,199.3462,712.1818,209.5769,711.5586,219.8077,712.8036,230.0385,711.6197,240.2692,712.0522,250.5,712.25,250.5551,712.383,250.8426,712.37,251.2158,712.5639,251.5566,712.6795,251.937,712.8908,252.2678,712.9822,252.3414,713.0127,252.5946,713.4105,252.7673,713.7749,252.9163,714.1295,252.932,714.4289,253,714.75,253.1545,714.75,253.2341,723.5938,252.7596,732.4375,253.2262,741.2813,252.9012,750.125,253,758.9688,253.1644,759.0368,252.7011,759.2592,252.686,759.6671,252.789,760.124,252.3992,760.3767,252.2678,760.7365,252.2812,760.7689,251.9574,760.9872,251.6138,761.1576,251.2066,761.1747,250.8902,761.4108,250.5,761.4688,250.5,760.8963,240.2692,761.7531,230.0385,762.0169,219.8077,761.9133,209.5769,762.0818,199.3462,760.9857,189.1154,760.8166,178.8846,760.8473,168.6538,761.4099,158.4231,761.2722,148.1923,762.1502,137.9615,761.2941,127.7308,761.1257,117.5,761.4688,117.5291,761.539,117.0614,761.1169,116.7267,761.016,116.5221,761.2293,116.1414,761.0171,115.7322,760.7365,115.9584,760.8302,115.4867,760.3419,115.5376,760.0701,115.4747,759.7512,115.001,759.262,115,758.9688,114.968,758.9688,115.042,750.125,115.2173,741.2813,114.9986,732.4375,115.1542,723.5938,115,714.75,114.8295,714.6794,114.9379,714.3101,115.448,714.1071,115.2186,713.5979,115.7425,713.4007,115.7322,712.9822,115.7586,713.0459,116.0516,712.7533,116.3942,712.5804,116.8514,712.6842,117.1083,712.3043,117.5,712.25" style="stroke:#181818;stroke-width:0.5;"/><text fill="#000000" font-family="FG Virgil" font-size="14" font-style="italic" lengthAdjust="spacing" textLength="95" x="136.5" y="733.7832">«presentation»</text><text fill="#000000" font-family="FG Virgil" font-size="14" lengthAdjust="spacing" textLength="124" x="122" y="751.3926">ChangeUserStateUI</text><polygon fill="#E3E3E3" points="274.5,36,274.5,36.2102,284.6667,35.5857,294.8333,36.1933,305,36.3997,315.1667,35.2866,325.3333,35.9223,335.5,35.5735,345.6667,35.6165,355.8333,35.9318,366,35.3086,376.1667,36.5536,386.3333,35.3697,396.5,35.8022,406.6667,36.4319,416.8333,35.9142,427,36.0682,437.1667,35.9681,447.3333,36.1785,457.5,36,457.5305,36.0736,457.9283,36.3268,458.2927,36.4996,458.6473,36.6485,458.9467,36.6642,459.2678,36.7322,459.4105,36.7914,459.6305,37.1754,459.3386,37.3473,459.9161,37.8794,459.7622,38.1086,460,38.5,460.1779,38.5,459.835,47.3438,459.9772,56.1875,460.2472,65.0313,459.9838,73.875,460,82.7188,460.0324,82.7322,459.9578,83.1155,459.8353,83.479,459.5595,83.7789,459.5027,84.1696,459.2678,84.4865,459.1947,84.3102,458.9505,84.7205,458.6306,84.9482,458.2638,85.0628,457.9318,85.2611,457.5,85.2188,457.5,84.7357,447.3333,84.5666,437.1667,84.5973,427,85.1599,416.8333,85.0222,406.6667,85.9002,396.5,85.0441,386.3333,84.8757,376.1667,85.447,366,84.5519,355.8333,84.6996,345.6667,85.8677,335.5,85.6544,325.3333,85.9532,315.1667,84.897,305,85.5379,294.8333,85.8092,284.6667,84.7463,274.5,85.2188,274.4878,85.1892,274.1625,85.1111,273.876,85.1266,273.4388,84.7781,273.1448,84.7754,272.7322,84.4865,272.5617,84.4159,272.3772,84.0466,272.5944,83.8437,272.0721,83.3344,272.3032,83.1372,272,82.7188,272.0689,82.7188,271.9107,73.875,271.8821,65.0313,272.1529,56.1875,271.9002,47.3438,272,38.5,272.1823,38.5755,271.9762,38.0759,272.483,37.8717,272.5885,37.5011,272.6612,37.117,272.7322,36.7322,272.7383,36.7468,273.1785,36.8096,273.5176,36.6283,273.8145,36.345,274.1807,36.229,274.5,36" style="stroke:#181818;stroke-width:0.5;"/><text fill="#000000" font-family="FG Virgil" font-size="14" font-style="italic" lengthAdjust="spacing" textLength="84" x="324" y="57.5332">«application»</text><text fill="#000000" font-family="FG Virgil" font-size="14" lengthAdjust="spacing" textLength="174" x="279" y="75.1426">ChangeUserStateController</text><polygon fill="#E3E3E3" points="274.5,712.25,274.5,712.4602,284.6667,711.8357,294.8333,712.4433,305,712.6497,315.1667,711.5366,325.3333,712.1723,335.5,711.8235,345.6667,711.8665,355.8333,712.1818,366,711.5586,376.1667,712.8036,386.3333,711.6197,396.5,712.0522,406.6667,712.6819,416.8333,712.1642,427,712.3182,437.1667,712.2181,447.3333,712.4285,457.5,712.25,457.5305,712.3236,457.9283,712.5768,458.2927,712.7496,458.6473,712.8985,458.9467,712.9142,459.2678,712.9822,459.4105,713.0414,459.6305,713.4254,459.3386,713.5973,459.9161,714.1294,459.7622,714.3586,460,714.75,460.1779,714.75,459.835,723.5938,459.9772,732.4375,460.2472,741.2813,459.9838,750.125,460,758.9688,460.0324,758.9822,459.9578,759.3655,459.8353,759.729,459.5595,760.0289,459.5027,760.4196,459.2678,760.7365,459.1947,760.5602,458.9505,760.9705,458.6306,761.1982,458.2638,761.3128,457.9318,761.5111,457.5,761.4688,457.5,760.9857,447.3333,760.8166,437.1667,760.8473,427,761.4099,416.8333,761.2722,406.6667,762.1502,396.5,761.2941,386.3333,761.1257,376.1667,761.697,366,760.8019,355.8333,760.9496,345.6667,762.1177,335.5,761.9044,325.3333,762.2032,315.1667,761.147,305,761.7879,294.8333,762.0592,284.6667,760.9963,274.5,761.4688,274.4878,761.4392,274.1625,761.3611,273.876,761.3766,273.4388,761.0281,273.1448,761.0254,272.7322,760.7365,272.5617,760.6659,272.3772,760.2966,272.5944,760.0937,272.0721,759.5844,272.3032,759.3872,272,758.9688,272.0689,758.9688,271.9107,750.125,271.8821,741.2813,272.1529,732.4375,271.9002,723.5938,272,714.75,272.1823,714.8255,271.9762,714.3259,272.483,714.1217,272.5885,713.7511,272.6612,713.367,272.7322,712.9822,272.7383,712.9968,273.1785,713.0596,273.5176,712.8783,273.8145,712.595,274.1807,712.479,274.5,712.25" style="stroke:#181818;stroke-width:0.5;"/><text fill="#000000" font-family="FG Virgil" font-size="14" font-style="italic" lengthAdjust="spacing" textLength="84" x="324" y="733.7832">«application»</text><text fill="#000000" font-family="FG Virgil" font-size="14" lengthAdjust="spacing" textLength="174" x="279" y="751.3926">ChangeUserStateController</text><polygon fill="#E3E3E3" points="688,36,688,36.2102,697.8571,35.5857,707.7143,36.1933,717.5714,36.3997,727.4286,35.2866,737.2857,35.9223,747.1429,35.5735,757,35.6165,766.8571,35.9318,776.7143,35.3086,786.5714,36.5536,796.4286,35.3697,806.2857,35.8022,816.1429,36.4319,826,36,825.9891,35.9736,826.3623,36.1675,826.703,36.2831,827.0834,36.4943,827.4447,36.6594,827.7678,36.7322,827.9481,36.8069,828.1209,37.1714,828.2698,37.526,828.2855,37.8254,828.4963,38.2056,828.5,38.5,828.7341,38.5,828.2596,47.3438,828.7262,56.1875,828.4012,65.0313,828.6779,73.875,828.5,82.7188,828.3476,82.6556,828.3325,83.0636,828.4355,83.5205,828.0457,83.7732,827.9466,84.1464,827.7678,84.4865,827.811,84.5908,827.4673,84.7611,827.0602,84.7782,826.7437,85.0143,826.2805,84.896,826,85.2188,826,85.5031,816.1429,85.7669,806.2857,85.6633,796.4286,85.8318,786.5714,84.7357,776.7143,84.5666,766.8571,84.5973,757,85.1599,747.1429,85.0222,737.2857,85.9002,727.4286,85.0441,717.5714,84.8757,707.7143,85.447,697.8571,84.5519,688,85.2188,687.9338,85.0589,687.7292,85.2722,687.3485,85.06,687.033,85.0056,686.5447,84.5339,686.2322,84.4865,686.3305,84.5272,686.2676,84.2083,685.7939,83.7191,685.7634,83.4136,685.6852,83.0884,685.5,82.7188,685.7173,82.7188,685.4986,73.875,685.6542,65.0313,685.3154,56.1875,685.2742,47.3438,685.5,38.5,685.6551,38.5642,685.4257,38.055,685.9496,37.8578,686.003,37.4657,686.0033,37.0516,686.2322,36.7322,686.1871,36.6233,686.6443,36.7271,686.9012,36.3472,687.3684,36.4752,687.5759,35.9762,688,36" style="stroke:#181818;stroke-width:0.5;"/><text fill="#000000" font-family="FG Virgil" font-size="14" font-style="italic" lengthAdjust="spacing" textLength="60" x="727" y="57.5332">«service»</text><text fill="#000000" font-family="FG Virgil" font-size="14" lengthAdjust="spacing" textLength="129" x="692.5" y="75.1426">AuthorizationService</text><polygon fill="#E3E3E3" points="688,712.25,688,712.4602,697.8571,711.8357,707.7143,712.4433,717.5714,712.6497,727.4286,711.5366,737.2857,712.1723,747.1429,711.8235,757,711.8665,766.8571,712.1818,776.7143,711.5586,786.5714,712.8036,796.4286,711.6197,806.2857,712.0522,816.1429,712.6819,826,712.25,825.9891,712.2236,826.3623,712.4175,826.703,712.5331,827.0834,712.7443,827.4447,712.9094,827.7678,712.9822,827.9481,713.0569,828.1209,713.4214,828.2698,713.776,828.2855,714.0754,828.4963,714.4556,828.5,714.75,828.7341,714.75,828.2596,723.5938,828.7262,732.4375,828.4012,741.2813,828.6779,750.125,828.5,758.9688,828.3476,758.9056,828.3325,759.3136,828.4355,759.7705,828.0457,760.0232,827.9466,760.3964,827.7678,760.7365,827.811,760.8408,827.4673,761.0111,827.0602,761.0282,826.7437,761.2643,826.2805,761.146,826,761.4688,826,761.7531,816.1429,762.0169,806.2857,761.9133,796.4286,762.0818,786.5714,760.9857,776.7143,760.8166,766.8571,760.8473,757,761.4099,747.1429,761.2722,737.2857,762.1502,727.4286,761.2941,717.5714,761.1257,707.7143,761.697,697.8571,760.8019,688,761.4688,687.9338,761.3089,687.7292,761.5222,687.3485,761.31,687.033,761.2556,686.5447,760.7839,686.2322,760.7365,686.3305,760.7772,686.2676,760.4583,685.7939,759.9691,685.7634,759.6636,685.6852,759.3384,685.5,758.9688,685.7173,758.9688,685.4986,750.125,685.6542,741.2813,685.3154,732.4375,685.2742,723.5938,685.5,714.75,685.6551,714.8142,685.4257,714.305,685.9496,714.1078,686.003,713.7157,686.0033,713.3016,686.2322,712.9822,686.1871,712.8733,686.6443,712.9771,686.9012,712.5972,687.3684,712.7252,687.5759,712.2262,688,712.25" style="stroke:#181818;stroke-width:0.5;"/><text fill="#000000" font-family="FG Virgil" font-size="14" font-style="italic" lengthAdjust="spacing" textLength="60" x="727" y="733.7832">«service»</text><text fill="#000000" font-family="FG Virgil" font-size="14" lengthAdjust="spacing" textLength="129" x="692.5" y="751.3926">AuthorizationService</text><polygon fill="#E3E3E3" points="841,36,841,36.2102,851.1429,35.5857,861.2857,36.1933,871.4286,36.3997,881.5714,35.2866,891.7143,35.9223,901.8571,35.5735,912,36,911.9511,35.8819,912.3449,36.1255,912.6189,36.08,913.1313,36.6098,913.3338,36.3917,913.7678,36.7322,913.7069,36.707,914.0472,37.1409,914.0342,37.4284,914.2281,37.8016,914.3437,38.1424,914.5,38.5,914.5595,38.5,914.5797,47.3438,914.6952,56.1875,914.7237,65.0313,914.7264,73.875,914.5,82.7188,914.5784,82.7512,914.4963,83.1314,914.4234,83.5154,913.8386,83.6874,914.1232,84.2195,913.7678,84.4865,913.7299,84.3952,913.4823,84.7974,912.9975,84.627,912.6984,84.9048,912.4482,85.3007,912,85.2188,912,85.17,901.8571,85.3241,891.7143,85.5574,881.5714,85.635,871.4286,85.2148,861.2857,85.506,851.1429,84.6463,841,85.2188,841.0363,85.3063,840.7164,85.2411,840.3496,85.0628,840.0175,84.9682,839.5242,84.4842,839.2322,84.4865,839.0314,84.4033,838.8944,84.0537,838.9212,83.7719,838.7324,83.4008,838.8563,83.1592,838.5,82.7188,838.4418,82.7188,838.3856,73.875,838.5761,65.0313,838.2777,56.1875,838.327,47.3438,838.5,38.5,838.6999,38.5828,838.7806,38.202,839.0191,37.8866,838.8402,37.3983,839.1841,37.1265,839.2322,36.7322,839.3075,36.9141,839.5255,36.4403,839.9271,36.4098,840.309,36.3317,840.7296,36.3472,841,36" style="stroke:#181818;stroke-width:0.5;"/><text fill="#000000" font-family="FG Virgil" font-size="14" font-style="italic" lengthAdjust="spacing" textLength="62" x="845.5" y="57.5332">«domain»</text><text fill="#000000" font-family="FG Virgil" font-size="14" lengthAdjust="spacing" textLength="61" x="846" y="75.1426">user:User</text><polygon fill="#E3E3E3" points="841,712.25,841,712.4602,851.1429,711.8357,861.2857,712.4433,871.4286,712.6497,881.5714,711.5366,891.7143,712.1723,901.8571,711.8235,912,712.25,911.9511,712.1319,912.3449,712.3755,912.6189,712.33,913.1313,712.8598,913.3338,712.6417,913.7678,712.9822,913.7069,712.957,914.0472,713.3909,914.0342,713.6784,914.2281,714.0516,914.3437,714.3924,914.5,714.75,914.5595,714.75,914.5797,723.5938,914.6952,732.4375,914.7237,741.2813,914.7264,750.125,914.5,758.9688,914.5784,759.0012,914.4963,759.3814,914.4234,759.7654,913.8386,759.9374,914.1232,760.4695,913.7678,760.7365,913.7299,760.6452,913.4823,761.0474,912.9975,760.877,912.6984,761.1548,912.4482,761.5507,912,761.4688,912,761.42,901.8571,761.5741,891.7143,761.8074,881.5714,761.885,871.4286,761.4648,861.2857,761.756,851.1429,760.8963,841,761.4688,841.0363,761.5563,840.7164,761.4911,840.3496,761.3128,840.0175,761.2182,839.5242,760.7342,839.2322,760.7365,839.0314,760.6533,838.8944,760.3037,838.9212,760.0219,838.7324,759.6508,838.8563,759.4092,838.5,758.9688,838.4418,758.9688,838.3856,750.125,838.5761,741.2813,838.2777,732.4375,838.327,723.5938,838.5,714.75,838.6999,714.8328,838.7806,714.452,839.0191,714.1366,838.8402,713.6483,839.1841,713.3765,839.2322,712.9822,839.3075,713.1641,839.5255,712.6903,839.9271,712.6598,840.309,712.5817,840.7296,712.5972,841,712.25" style="stroke:#181818;stroke-width:0.5;"/><text fill="#000000" font-family="FG Virgil" font-size="14" font-style="italic" lengthAdjust="spacing" textLength="62" x="845.5" y="733.7832">«domain»</text><text fill="#000000" font-family="FG Virgil" font-size="14" lengthAdjust="spacing" textLength="61" x="846" y="751.3926">user:User</text><polygon fill="#E3E3E3" points="927,36,927,36.2102,937.0769,35.5857,947.1538,36.1933,957.2308,36.3997,967.3077,35.2866,977.3846,35.9223,987.4615,35.5735,997.5385,35.6165,1007.6154,35.9318,1017.6923,35.3086,1027.7692,36.5536,1037.8462,35.3697,1047.9231,35.8022,1058,36,1058.0551,36.133,1058.3426,36.12,1058.7158,36.3139,1059.0566,36.4295,1059.437,36.6408,1059.7678,36.7322,1059.8414,36.7627,1060.0946,37.1605,1060.2673,37.5249,1060.4163,37.8795,1060.432,38.1789,1060.5,38.5,1060.6545,38.5,1060.7341,47.3438,1060.2596,56.1875,1060.7262,65.0313,1060.4012,73.875,1060.5,82.7188,1060.6644,82.7868,1060.2011,83.0092,1060.186,83.4171,1060.289,83.874,1059.8992,84.1267,1059.7678,84.4865,1059.7812,84.5189,1059.4574,84.7372,1059.1138,84.9076,1058.7066,84.9247,1058.3902,85.1608,1058,85.2188,1058,84.6463,1047.9231,85.5031,1037.8462,85.7669,1027.7692,85.6633,1017.6923,85.8318,1007.6154,84.7357,997.5385,84.5666,987.4615,84.5973,977.3846,85.1599,967.3077,85.0222,957.2308,85.9002,947.1538,85.0441,937.0769,84.8757,927,85.2188,927.0291,85.289,926.5614,84.8669,926.2267,84.766,926.0221,84.9793,925.6414,84.7671,925.2322,84.4865,925.4584,84.5802,924.9867,84.0919,925.0376,83.8201,924.9747,83.5012,924.501,83.012,924.5,82.7188,924.468,82.7188,924.542,73.875,924.7173,65.0313,924.4986,56.1875,924.6542,47.3438,924.5,38.5,924.3295,38.4294,924.4379,38.0601,924.948,37.8571,924.7186,37.3479,925.2425,37.1507,925.2322,36.7322,925.2586,36.7959,925.5516,36.5033,925.8942,36.3304,926.3514,36.4342,926.6083,36.0543,927,36" style="stroke:#181818;stroke-width:0.5;"/><text fill="#000000" font-family="FG Virgil" font-size="14" font-style="italic" lengthAdjust="spacing" textLength="89" x="948" y="57.5332">«persistence»</text><text fill="#000000" font-family="FG Virgil" font-size="14" lengthAdjust="spacing" textLength="122" x="931.5" y="75.1426">PersistenceContext</text><polygon fill="#E3E3E3" points="927,712.25,927,712.4602,937.0769,711.8357,947.1538,712.4433,957.2308,712.6497,967.3077,711.5366,977.3846,712.1723,987.4615,711.8235,997.5385,711.8665,1007.6154,712.1818,1017.6923,711.5586,1027.7692,712.8036,1037.8462,711.6197,1047.9231,712.0522,1058,712.25,1058.0551,712.383,1058.3426,712.37,1058.7158,712.5639,1059.0566,712.6795,1059.437,712.8908,1059.7678,712.9822,1059.8414,713.0127,1060.0946,713.4105,1060.2673,713.7749,1060.4163,714.1295,1060.432,714.4289,1060.5,714.75,1060.6545,714.75,1060.7341,723.5938,1060.2596,732.4375,1060.7262,741.2813,1060.4012,750.125,1060.5,758.9688,1060.6644,759.0368,1060.2011,759.2592,1060.186,759.6671,1060.289,760.124,1059.8992,760.3767,1059.7678,760.7365,1059.7812,760.7689,1059.4574,760.9872,1059.1138,761.1576,1058.7066,761.1747,1058.3902,761.4108,1058,761.4688,1058,760.8963,1047.9231,761.7531,1037.8462,762.0169,1027.7692,761.9133,1017.6923,762.0818,1007.6154,760.9857,997.5385,760.8166,987.4615,760.8473,977.3846,761.4099,967.3077,761.2722,957.2308,762.1502,947.1538,761.2941,937.0769,761.1257,927,761.4688,927.0291,761.539,926.5614,761.1169,926.2267,761.016,926.0221,761.2293,925.6414,761.0171,925.2322,760.7365,925.4584,760.8302,924.9867,760.3419,925.0376,760.0701,924.9747,759.7512,924.501,759.262,924.5,758.9688,924.468,758.9688,924.542,750.125,924.7173,741.2813,924.4986,732.4375,924.6542,723.5938,924.5,714.75,924.3295,714.6794,924.4379,714.3101,924.948,714.1071,924.7186,713.5979,925.2425,713.4007,925.2322,712.9822,925.2586,713.0459,925.5516,712.7533,925.8942,712.5804,926.3514,712.6842,926.6083,712.3043,927,712.25" style="stroke:#181818;stroke-width:0.5;"/><text fill="#000000" font-family="FG Virgil" font-size="14" font-style="italic" lengthAdjust="spacing" textLength="89" x="948" y="733.7832">«persistence»</text><text fill="#000000" font-family="FG Virgil" font-size="14" lengthAdjust="spacing" textLength="122" x="931.5" y="751.3926">PersistenceContext</text><polygon fill="#E3E3E3" points="1073,36,1073,36.2102,1082.6154,35.5857,1092.2308,36.1933,1101.8462,36.3997,1111.4615,35.2866,1121.0769,35.9223,1130.6923,35.5735,1140.3077,35.6165,1149.9231,35.9318,1159.5385,35.3086,1169.1538,36.5536,1178.7692,35.3697,1188.3846,35.8022,1198,36,1198.0551,36.133,1198.3426,36.12,1198.7158,36.3139,1199.0566,36.4295,1199.437,36.6408,1199.7678,36.7322,1199.8414,36.7627,1200.0946,37.1605,1200.2673,37.5249,1200.4163,37.8795,1200.432,38.1789,1200.5,38.5,1200.6545,38.5,1200.7341,47.3438,1200.2596,56.1875,1200.7262,65.0313,1200.4012,73.875,1200.5,82.7188,1200.6644,82.7868,1200.2011,83.0092,1200.186,83.4171,1200.289,83.874,1199.8992,84.1267,1199.7678,84.4865,1199.7812,84.5189,1199.4574,84.7372,1199.1138,84.9076,1198.7066,84.9247,1198.3902,85.1608,1198,85.2188,1198,84.6463,1188.3846,85.5031,1178.7692,85.7669,1169.1538,85.6633,1159.5385,85.8318,1149.9231,84.7357,1140.3077,84.5666,1130.6923,84.5973,1121.0769,85.1599,1111.4615,85.0222,1101.8462,85.9002,1092.2308,85.0441,1082.6154,84.8757,1073,85.2188,1073.0291,85.289,1072.5614,84.8669,1072.2267,84.766,1072.0221,84.9793,1071.6414,84.7671,1071.2322,84.4865,1071.4584,84.5802,1070.9867,84.0919,1071.0376,83.8201,1070.9747,83.5012,1070.501,83.012,1070.5,82.7188,1070.468,82.7188,1070.542,73.875,1070.7173,65.0313,1070.4986,56.1875,1070.6542,47.3438,1070.5,38.5,1070.3295,38.4294,1070.4379,38.0601,1070.948,37.8571,1070.7186,37.3479,1071.2425,37.1507,1071.2322,36.7322,1071.2586,36.7959,1071.5516,36.5033,1071.8942,36.3304,1072.3514,36.4342,1072.6083,36.0543,1073,36" style="stroke:#181818;stroke-width:0.5;"/><text fill="#000000" font-family="FG Virgil" font-size="14" font-style="italic" lengthAdjust="spacing" textLength="59" x="1106" y="57.5332">«factory»</text><text fill="#000000" font-family="FG Virgil" font-size="14" lengthAdjust="spacing" textLength="116" x="1077.5" y="75.1426">RepositoryFactory</text><polygon fill="#E3E3E3" points="1073,712.25,1073,712.4602,1082.6154,711.8357,1092.2308,712.4433,1101.8462,712.6497,1111.4615,711.5366,1121.0769,712.1723,1130.6923,711.8235,1140.3077,711.8665,1149.9231,712.1818,1159.5385,711.5586,1169.1538,712.8036,1178.7692,711.6197,1188.3846,712.0522,1198,712.25,1198.0551,712.383,1198.3426,712.37,1198.7158,712.5639,1199.0566,712.6795,1199.437,712.8908,1199.7678,712.9822,1199.8414,713.0127,1200.0946,713.4105,1200.2673,713.7749,1200.4163,714.1295,1200.432,714.4289,1200.5,714.75,1200.6545,714.75,1200.7341,723.5938,1200.2596,732.4375,1200.7262,741.2813,1200.4012,750.125,1200.5,758.9688,1200.6644,759.0368,1200.2011,759.2592,1200.186,759.6671,1200.289,760.124,1199.8992,760.3767,1199.7678,760.7365,1199.7812,760.7689,1199.4574,760.9872,1199.1138,761.1576,1198.7066,761.1747,1198.3902,761.4108,1198,761.4688,1198,760.8963,1188.3846,761.7531,1178.7692,762.0169,1169.1538,761.9133,1159.5385,762.0818,1149.9231,760.9857,1140.3077,760.8166,1130.6923,760.8473,1121.0769,761.4099,1111.4615,761.2722,1101.8462,762.1502,1092.2308,761.2941,1082.6154,761.1257,1073,761.4688,1073.0291,761.539,1072.5614,761.1169,1072.2267,761.016,1072.0221,761.2293,1071.6414,761.0171,1071.2322,760.7365,1071.4584,760.8302,1070.9867,760.3419,1071.0376,760.0701,1070.9747,759.7512,1070.501,759.262,1070.5,758.9688,1070.468,758.9688,1070.542,750.125,1070.7173,741.2813,1070.4986,732.4375,1070.6542,723.5938,1070.5,714.75,1070.3295,714.6794,1070.4379,714.3101,1070.948,714.1071,1070.7186,713.5979,1071.2425,713.4007,1071.2322,712.9822,1071.2586,713.0459,1071.5516,712.7533,1071.8942,712.5804,1072.3514,712.6842,1072.6083,712.3043,1073,712.25" style="stroke:#181818;stroke-width:0.5;"/><text fill="#000000" font-family="FG Virgil" font-size="14" font-style="italic" lengthAdjust="spacing" textLength="59" x="1106" y="733.7832">«factory»</text><text fill="#000000" font-family="FG Virgil" font-size="14" lengthAdjust="spacing" textLength="116" x="1077.5" y="751.3926">RepositoryFactory</text><text fill="#000000" font-family="FG Virgil" font-size="14" font-style="italic" lengthAdjust="spacing" textLength="79" x="1219.5" y="65.5332">«repository»</text><text fill="#000000" font-family="FG Virgil" font-size="14" lengthAdjust="spacing" textLength="97" x="1210.5" y="83.1426">UserRepository</text><path d="M1244,15 L1244,15 L1244.0651,15.067 L1245.6716,13.118 L1247.6599,11.5616 L1249.5238,9.8774 L1250.979,7.7727 L1253,6.25 L1252.9952,6.2158 L1254.7739,5.8122 L1256.5766,5.5812 L1258.3958,5.47 L1260.1577,4.9456 L1262,5 L1262,5 L1262.0339,5.2437 L1263.7615,4.9725 L1265.5879,5.4129 L1267.4264,5.9402 L1269.1948,5.9622 L1271,6.25 L1271.0211,6.2717 L1272.7901,7.9898 L1274.6553,9.8069 L1276.4741,11.5762 L1278.3815,13.4366 L1280,15 L1280.5965,15 L1280.6038,20.2 L1280.2263,25.4 L1280.4121,30.6 L1280.6242,35.8 L1280,41 L1280,41 L1279.7766,40.7702 L1278.4102,42.9662 L1276.3081,44.4055 L1274.7654,46.4201 L1272.6466,47.8423 L1271,49.75 L1270.9958,49.7198 L1269.2453,50.3265 L1267.397,50.2285 L1265.6064,50.5464 L1263.8207,50.8991 L1262,51 L1262,51 L1262.0254,51.1832 L1260.1998,50.7483 L1258.4176,50.6264 L1256.565,49.998 L1254.8174,50.1252 L1253,49.75 L1253.1698,49.9247 L1251.3377,48.1417 L1249.5899,46.4453 L1247.4503,44.3461 L1245.5979,42.5422 L1244,41 L1243.4476,41 L1243.9477,35.8 L1243.8253,30.6 L1244.6057,25.4 L1243.8447,20.2 L1244,15 " fill="#E3E3E3" style="stroke:#181818;stroke-width:1.5;"/><path d="M1244,15 L1244,15 L1244.0651,15.067 L1245.6716,16.618 L1247.6599,18.5616 L1249.5238,20.3774 L1250.979,21.7727 L1253,23.75 L1252.9952,23.7158 L1254.7739,23.8122 L1256.5766,24.0812 L1258.3958,24.47 L1260.1577,24.4456 L1262,25 L1262,25 L1262.0339,25.2437 L1263.7615,24.4725 L1265.5879,24.4129 L1267.4264,24.4402 L1269.1948,23.9622 L1271,23.75 L1271.0211,23.7717 L1272.7901,21.9898 L1274.6553,20.3069 L1276.4741,18.5762 L1278.3815,16.9366 L1280,15 " fill="none" style="stroke:#181818;stroke-width:1.5;"/><text fill="#000000" font-family="FG Virgil" font-size="14" font-style="italic" lengthAdjust="spacing" textLength="79" x="1219.5" y="726.7832">«repository»</text><text fill="#000000" font-family="FG Virgil" font-size="14" lengthAdjust="spacing" textLength="97" x="1210.5" y="744.3926">UserRepository</text><path d="M1244,757.4688 L1244,757.4688 L1244.0651,757.5357 L1245.6716,755.5867 L1247.6599,754.0303 L1249.5238,752.3461 L1250.979,750.2414 L1253,748.7188 L1252.9952,748.6845 L1254.7739,748.281 L1256.5766,748.0499 L1258.3958,747.9387 L1260.1577,747.4144 L1262,747.4688 L1262,747.4688 L1262.0339,747.7125 L1263.7615,747.4413 L1265.5879,747.8817 L1267.4264,748.4089 L1269.1948,748.431 L1271,748.7188 L1271.0211,748.7405 L1272.7901,750.4586 L1274.6553,752.2756 L1276.4741,754.045 L1278.3815,755.9054 L1280,757.4688 L1280.5965,757.4688 L1280.6038,762.6688 L1280.2263,767.8688 L1280.4121,773.0688 L1280.6242,778.2688 L1280,783.4688 L1280,783.4688 L1279.7766,783.2389 L1278.4102,785.435 L1276.3081,786.8743 L1274.7654,788.8889 L1272.6466,790.311 L1271,792.2188 L1270.9958,792.1886 L1269.2453,792.7952 L1267.397,792.6973 L1265.6064,793.0151 L1263.8207,793.3678 L1262,793.4688 L1262,793.4688 L1262.0254,793.652 L1260.1998,793.217 L1258.4176,793.0952 L1256.565,792.4668 L1254.8174,792.5939 L1253,792.2188 L1253.1698,792.3934 L1251.3377,790.6104 L1249.5899,788.9141 L1247.4503,786.8148 L1245.5979,785.0109 L1244,783.4688 L1243.4476,783.4688 L1243.9477,778.2688 L1243.8253,773.0688 L1244.6057,767.8688 L1243.8447,762.6688 L1244,757.4688 " fill="#E3E3E3" style="stroke:#181818;stroke-width:1.5;"/><path d="M1244,757.4688 L1244,757.4688 L1244.0651,757.5357 L1245.6716,759.0867 L1247.6599,761.0303 L1249.5238,762.8461 L1250.979,764.2414 L1253,766.2188 L1252.9952,766.1845 L1254.7739,766.281 L1256.5766,766.5499 L1258.3958,766.9387 L1260.1577,766.9144 L1262,767.4688 L1262,767.4688 L1262.0339,767.7125 L1263.7615,766.9413 L1265.5879,766.8817 L1267.4264,766.9089 L1269.1948,766.431 L1271,766.2188 L1271.0211,766.2405 L1272.7901,764.4586 L1274.6553,762.7756 L1276.4741,761.045 L1278.3815,759.4054 L1280,757.4688 " fill="none" style="stroke:#181818;stroke-width:1.5;"/><polygon fill="#FFFFFF" points="179,118.5703,179,118.6404,181,118.4322,183,118.6347,185,118.7035,187,118.3325,189,118.5703,188.9223,118.5703,188.5735,128.5131,188.6165,138.4558,188.9318,148.3986,188.3086,158.3413,189.5536,168.2841,188.3697,178.2268,188.8022,188.1696,189.4319,198.1123,188.9142,208.0551,189.0682,217.9978,188.9681,227.9406,189.1785,237.8834,189.2391,247.8261,189.5857,257.7689,189.6711,267.7116,189.6793,277.6544,189.2546,287.5971,189.4636,297.5399,189.7022,307.4826,188.2788,317.4254,189.6785,327.3681,188.7035,337.3109,189.5338,347.2536,188.505,357.1964,188.9315,367.1391,189.7416,377.0819,188.9513,387.0246,189.1053,396.9674,189.3386,406.9102,189.4162,416.8529,188.9961,426.7957,189.2872,436.7384,188.4276,446.6812,189.2844,456.6239,189.5482,466.5667,189.4445,476.5094,189.613,486.4522,188.5169,496.3949,188.3478,506.3377,188.3786,516.2804,188.9411,526.2232,188.8035,536.1659,189.6814,546.1087,188.8253,556.0515,188.6569,565.9942,189.2283,575.937,188.3332,585.8797,188.4809,595.8225,189.649,605.7652,189.4357,615.708,189.7345,625.6507,188.6782,635.5935,189.3192,645.5362,189.5904,655.479,188.5276,665.4217,188.9041,675.3645,189.126,685.3072,189,695.25,189,695.4673,187,695.2486,185,695.4042,183,695.0654,181,695.0242,179,695.25,179.5036,695.25,178.2831,685.3072,179.509,675.3645,179.2066,665.4217,178.7321,655.479,178.6462,645.5362,179.4588,635.5935,178.7007,625.6507,179.5919,615.708,178.4473,605.7652,179.6174,595.8225,179.4843,585.8797,179.245,575.937,179.0472,565.9942,179.7266,556.0515,179.6136,546.1087,179.1693,536.1659,179.2682,526.2232,178.8697,516.2804,179.7165,506.3377,179.1549,496.3949,179.1726,486.4522,178.3916,476.5094,178.5948,466.5667,179.5307,456.6239,179.4298,446.6812,178.9571,436.7384,178.6778,426.7957,178.7811,416.8529,178.3138,406.9102,179.4147,396.9674,179.7396,387.0246,179.5264,377.0819,179.6949,367.1391,178.8633,357.1964,179.0872,347.2536,178.6124,337.3109,179.284,327.3681,179.2468,317.4254,179.5524,307.4826,178.7703,297.5399,178.8656,287.5971,179.4435,277.6544,179.5673,267.7116,178.4875,257.7689,178.8061,247.8261,179.1493,237.8834,178.3892,227.9406,179.3534,217.9978,179.258,208.0551,178.8992,198.1123,179.1422,188.1696,179.7287,178.2268,178.6871,168.2841,179.315,158.3413,179.2856,148.3986,179.1158,138.4558,179.1409,128.5131,179,118.5703" style="stroke:#181818;stroke-width:1.0;"/><polygon fill="#FFFFFF" points="361,239.9766,361,240.0466,363,239.8385,365,240.041,367,240.1098,369,239.7388,371,239.9766,370.9223,239.9766,370.5735,250.0938,370.6165,260.2109,370.9318,270.3281,370.3086,280.4453,371.5536,290.5625,370.3697,300.6797,370.8022,310.7969,371.4319,320.9141,370.9142,331.0313,371.0682,341.1484,370.9681,351.2656,371.1785,361.3828,371.2391,371.5,371.5857,381.6172,371.6711,391.7344,371.6793,401.8516,371.2546,411.9688,371.4636,422.0859,371.7022,432.2031,370.2788,442.3203,371.6785,452.4375,370.7035,462.5547,371.5338,472.6719,370.505,482.7891,370.9315,492.9063,371.7416,503.0234,370.9513,513.1406,371.1053,523.2578,371.3386,533.375,371.4162,543.4922,370.9961,553.6094,371.2872,563.7266,370.4276,573.8438,371.2844,583.9609,371.5482,594.0781,371.4445,604.1953,371.613,614.3125,370.5169,624.4297,370.3478,634.5469,370.3786,644.6641,370.9411,654.7813,371,664.8984,371,664.8329,369,665.1256,367,664.8402,365,664.7841,363,664.9745,361,664.8984,360.3332,664.8984,360.4809,654.7813,361.649,644.6641,361.4357,634.5469,361.7345,624.4297,360.6782,614.3125,361.3192,604.1953,361.5904,594.0781,360.5276,583.9609,360.9041,573.8438,361.126,563.7266,361.6518,553.6094,360.9958,543.4922,361.4626,533.375,360.4462,523.2578,360.3227,513.1406,361.5036,503.0234,360.2831,492.9063,361.509,482.7891,361.2066,472.6719,360.7321,462.5547,360.6462,452.4375,361.4588,442.3203,360.7007,432.2031,361.5919,422.0859,360.4473,411.9688,361.6174,401.8516,361.4843,391.7344,361.245,381.6172,361.0472,371.5,361.7266,361.3828,361.6136,351.2656,361.1693,341.1484,361.2682,331.0313,360.8697,320.9141,361.7165,310.7969,361.1549,300.6797,361.1726,290.5625,360.3916,280.4453,360.5948,270.3281,361.5307,260.2109,361.4298,250.0938,361,239.9766" style="stroke:#181818;stroke-width:1.0;"/><polygon fill="#FFFFFF" points="752,452.4375,752,452.5076,754,452.2994,756,452.5019,758,452.5707,760,452.1997,762,452.4375,761.9741,452.4375,761.8578,458.5078,761.8722,464.5781,761.9773,470.6484,761.7695,476.7188,762,482.7891,762,482.9736,760,482.579,758,482.7231,756,482.933,754,482.7605,752,482.7891,752.0227,482.7891,751.9894,476.7188,752.0595,470.6484,752.0797,464.5781,752.1952,458.5078,752,452.4375" style="stroke:#181818;stroke-width:1.0;"/><polygon fill="#FFFFFF" points="987.5,270.3281,987.5,270.3982,989.5,270.19,991.5,270.3926,993.5,270.4614,995.5,270.0903,997.5,270.3281,997.4223,270.3281,997.0735,280.4453,997.1165,290.5625,997.4318,300.6797,996.8086,310.7969,998.0536,320.9141,997.5,331.0313,997.5,330.8212,995.5,330.9653,993.5,331.1752,991.5,331.0027,989.5,331.054,987.5,331.0313,987.4681,331.0313,987.6785,320.9141,987.7391,310.7969,988.0857,300.6797,988.1711,290.5625,988.1793,280.4453,987.5,270.3281" style="stroke:#181818;stroke-width:1.0;"/><polygon fill="#FFFFFF" points="1130.5,361.3828,1130.5,361.4529,1132.5,361.2447,1134.5,361.4472,1136.5,361.516,1138.5,361.145,1140.5,361.3828,1140.4223,361.3828,1140.0735,371.5,1140.1165,381.6172,1140.4318,391.7344,1139.8086,401.8516,1141.0536,411.9688,1140.5,422.0859,1140.5,421.8758,1138.5,422.02,1136.5,422.2299,1134.5,422.0573,1132.5,422.1087,1130.5,422.0859,1130.4681,422.0859,1130.6785,411.9688,1130.7391,401.8516,1131.0857,391.7344,1131.1711,381.6172,1131.1793,371.5,1130.5,361.3828" style="stroke:#181818;stroke-width:1.0;"/><polygon fill="#FFFFFF" points="1257,513.1406,1257,513.2107,1259,513.0025,1261,513.2051,1263,513.2739,1265,512.9028,1267,513.1406,1266.9741,513.1406,1266.8578,519.2109,1266.8722,525.2813,1266.9773,531.3516,1266.7695,537.4219,1267,543.4922,1267,543.6767,1265,543.2821,1263,543.4263,1261,543.6362,1259,543.4636,1257,543.4922,1257.0227,543.4922,1256.9894,537.4219,1257.0595,531.3516,1257.0797,525.2813,1257.1952,519.2109,1257,513.1406" style="stroke:#181818;stroke-width:1.0;"/><polygon fill="#FFFFFF" points="1257,604.1953,1257,604.2654,1259,604.0572,1261,604.2597,1263,604.3285,1265,603.9575,1267,604.1953,1266.9741,604.1953,1266.8578,610.2656,1266.8722,616.3359,1266.9773,622.4063,1266.7695,628.4766,1267,634.5469,1267,634.7314,1265,634.3368,1263,634.481,1261,634.6909,1259,634.5183,1257,634.5469,1257.0227,634.5469,1256.9894,628.4766,1257.0595,622.4063,1257.0797,616.3359,1257.1952,610.2656,1257,604.1953" style="stroke:#181818;stroke-width:1.0;"/><polygon fill="#181818" points="167,114.5703,167.026,114.6354,168.9487,115.2421,171.0239,116.2301,173.0495,117.094,174.9117,117.5495,177,118.5703,176.9904,118.5463,174.9472,119.2383,172.9525,120.0516,170.9916,120.9492,168.9144,121.5563,167,122.5703,167.1305,122.7008,167.6514,121.6218,168.5534,120.9237,169.5018,120.2721,170.1798,119.3501,171,118.5703,171.0161,118.5864,170.1925,117.7628,169.4421,117.0124,168.6564,116.2267,167.938,115.5084,167,114.5703" style="stroke:#181818;stroke-width:1.0;"/><path d="M36,118.5703 L36,118.8506 L45.7857,118.0179 L55.5714,118.828 L65.3571,119.1032 L75.1429,117.6191 L84.9286,118.4667 L94.7143,118.0017 L104.5,118.059 L114.2857,118.4794 L124.0714,117.6485 L133.8571,119.3085 L143.6429,117.7299 L153.4286,118.3066 L163.2143,119.1462 L173,118.5703 " fill="none" style="stroke:#181818;stroke-width:1.0;stroke-dasharray:2.0,2.0;"/><text fill="#000000" font-family="FG Virgil" font-size="13" lengthAdjust="spacing" textLength="71" x="43" y="113.7139">Enable User</text><polygon fill="#181818" points="354,144.9219,354.026,144.9869,355.9487,145.5936,358.0239,146.5817,360.0495,147.4456,361.9117,147.9011,364,148.9219,363.9904,148.8978,361.9472,149.5899,359.9525,150.4032,357.9916,151.3008,355.9144,151.9079,354,152.9219,354.1305,153.0524,354.6514,151.9733,355.5534,151.2753,356.5018,150.6237,357.1798,149.7017,358,148.9219,358.0161,148.938,357.1925,148.1143,356.4421,147.364,355.6564,146.5782,354.938,145.8599,354,144.9219" style="stroke:#181818;stroke-width:1.0;"/><path d="M189,148.9219 L189,149.2021 L199.0588,148.3694 L209.1176,149.1796 L219.1765,149.4548 L229.2353,147.9707 L239.2941,148.8183 L249.3529,148.3532 L259.4118,148.4105 L269.4706,148.831 L279.5294,148 L289.5882,149.6601 L299.6471,148.0815 L309.7059,148.6582 L319.7647,149.4978 L329.8235,148.8075 L339.8824,149.0129 L349.9412,148.8793 L360,148.9219 " fill="none" style="stroke:#181818;stroke-width:1.0;"/><text fill="#000000" font-family="FG Virgil" font-size="13" lengthAdjust="spacing" textLength="44" x="196" y="144.0654">create()</text><polygon fill="#181818" points="47,175.2734,47.026,175.3385,44.9487,175.9452,43.0239,176.9333,41.0495,177.7971,38.9117,178.2526,37,179.2734,36.9904,179.2494,38.9472,179.9414,40.9525,180.7547,42.9916,181.6523,44.9144,182.2595,47,183.2734,47.1305,183.4039,46.0514,182.3249,45.3534,181.6268,44.7018,180.9752,43.7798,180.0532,43,179.2734,43.0161,179.2895,43.7925,178.4659,44.6421,177.7155,45.4564,176.9298,46.338,176.2115,47,175.2734" style="stroke:#181818;stroke-width:1.0;"/><path d="M41,179.2734 L41,179.5537 L50.7857,178.721 L60.5714,179.5312 L70.3571,179.8063 L80.1429,178.3222 L89.9286,179.1698 L99.7143,178.7048 L109.5,178.7621 L119.2857,179.1826 L129.0714,178.3516 L138.8571,180.0116 L148.6429,178.4331 L158.4286,179.0097 L168.2143,179.8494 L178,179.2734 " fill="none" style="stroke:#181818;stroke-width:1.0;stroke-dasharray:2.0,2.0;"/><text fill="#000000" font-family="FG Virgil" font-size="13" lengthAdjust="spacing" textLength="119" x="53" y="174.417">Ask user information</text><polygon fill="#181818" points="167,205.625,167.026,205.69,168.9487,206.2968,171.0239,207.2848,173.0495,208.1487,174.9117,208.6042,177,209.625,176.9904,209.6009,174.9472,210.293,172.9525,211.1063,170.9916,212.0039,168.9144,212.611,167,213.625,167.1305,213.7555,167.6514,212.6764,168.5534,211.9784,169.5018,211.3268,170.1798,210.4048,171,209.625,171.0161,209.6411,170.1925,208.8175,169.4421,208.0671,168.6564,207.2814,167.938,206.563,167,205.625" style="stroke:#181818;stroke-width:1.0;"/><path d="M36,209.625 L36,209.9052 L45.7857,209.0726 L55.5714,209.8827 L65.3571,210.1579 L75.1429,208.6738 L84.9286,209.5214 L94.7143,209.0563 L104.5,209.1137 L114.2857,209.5341 L124.0714,208.7032 L133.8571,210.3632 L143.6429,208.7846 L153.4286,209.3613 L163.2143,210.2009 L173,209.625 " fill="none" style="stroke:#181818;stroke-width:1.0;stroke-dasharray:2.0,2.0;"/><text fill="#000000" font-family="FG Virgil" font-size="13" lengthAdjust="spacing" textLength="31" x="43" y="204.7686">email</text><polygon fill="#181818" points="349,235.9766,349.026,236.0416,350.9487,236.6483,353.0239,237.6364,355.0495,238.5003,356.9117,238.9558,359,239.9766,358.9904,239.9525,356.9472,240.6446,354.9525,241.4579,352.9916,242.3555,350.9144,242.9626,349,243.9766,349.1305,244.1071,349.6514,243.028,350.5534,242.3299,351.5018,241.6784,352.1798,240.7563,353,239.9766,353.0161,239.9926,352.1925,239.169,351.4421,238.4186,350.6564,237.6329,349.938,236.9146,349,235.9766" style="stroke:#181818;stroke-width:1.0;"/><path d="M189,239.9766 L189,240.2568 L198.7647,239.4241 L208.5294,240.2343 L218.2941,240.5095 L228.0588,239.0254 L237.8235,239.8729 L247.5882,239.4079 L257.3529,239.4652 L267.1176,239.8857 L276.8824,239.0547 L286.6471,240.7148 L296.4118,239.1362 L306.1765,239.7129 L315.9412,240.5525 L325.7059,239.8622 L335.4706,240.0675 L345.2353,239.934 L355,239.9766 " fill="none" style="stroke:#181818;stroke-width:1.0;"/><text fill="#000000" font-family="FG Virgil" font-size="13" lengthAdjust="spacing" textLength="153" x="196" y="235.1201">enableUserByEmail(email)</text><polygon fill="#181818" points="975.5,266.3281,975.526,266.3932,977.4487,266.9999,979.5239,267.9879,981.5495,268.8518,983.4117,269.3073,985.5,270.3281,985.4904,270.3041,983.4472,270.9961,981.4525,271.8094,979.4916,272.707,977.4144,273.3142,975.5,274.3281,975.6305,274.4586,976.1514,273.3796,977.0534,272.6815,978.0018,272.0299,978.6798,271.1079,979.5,270.3281,979.5161,270.3442,978.6925,269.5206,977.9421,268.7702,977.1564,267.9845,976.438,267.2662,975.5,266.3281" style="stroke:#181818;stroke-width:1.0;"/><path d="M371,270.3281 L371,270.6084 L381.0082,269.7757 L391.0164,270.5858 L401.0246,270.861 L411.0328,269.3769 L421.041,270.2245 L431.0492,269.7595 L441.0574,269.8168 L451.0656,270.2372 L461.0738,269.4063 L471.082,271.0663 L481.0902,269.4878 L491.0984,270.0644 L501.1066,270.9041 L511.1148,270.2138 L521.123,270.4191 L531.1311,270.2855 L541.1393,270.5662 L551.1475,270.647 L561.1557,271.109 L571.1639,271.2229 L581.1721,271.2338 L591.1803,270.6676 L601.1885,270.9462 L611.1967,271.2644 L621.2049,269.3665 L631.2131,271.2328 L641.2213,269.9328 L651.2295,271.0399 L661.2377,269.6681 L671.2459,270.2368 L681.2541,271.3169 L691.2623,270.2631 L701.2705,270.4685 L711.2787,270.7796 L721.2869,270.8831 L731.2951,270.3229 L741.3033,270.7111 L751.3115,269.5649 L761.3197,270.7073 L771.3279,271.0591 L781.3361,270.9208 L791.3443,271.1455 L801.3525,269.684 L811.3607,269.4585 L821.3689,269.4996 L831.377,270.2496 L841.3852,270.0661 L851.3934,271.2367 L861.4016,270.0952 L871.4098,269.8707 L881.418,270.6325 L891.4262,269.439 L901.4344,269.636 L911.4426,271.1934 L921.4508,270.909 L931.459,271.3074 L941.4672,269.8991 L951.4754,270.7537 L961.4836,271.1154 L971.4918,269.6983 L981.5,270.3281 " fill="none" style="stroke:#181818;stroke-width:1.0;"/><text fill="#000000" font-family="FG Virgil" font-size="13" lengthAdjust="spacing" textLength="75" x="378" y="265.4717">repositories()</text><polygon fill="#181818" points="1123.5,296.6797,1123.526,296.7447,1125.4487,297.3515,1127.5239,298.3395,1129.5495,299.2034,1131.4117,299.6589,1133.5,300.6797,1133.4904,300.6556,1131.4472,301.3477,1129.4525,302.161,1127.4916,303.0586,1125.4144,303.6657,1123.5,304.6797,1123.6305,304.8102,1124.1514,303.7311,1125.0534,303.0331,1126.0018,302.3815,1126.6798,301.4595,1127.5,300.6797,1127.5161,300.6958,1126.6925,299.8722,1125.9421,299.1218,1125.1564,298.3361,1124.438,297.6177,1123.5,296.6797" style="stroke:#181818;stroke-width:1.0;"/><path d="M997.5,300.6797 L997.5,300.9599 L1007.6538,300.1273 L1017.8077,300.9374 L1027.9615,301.2126 L1038.1154,299.7285 L1048.2692,300.5761 L1058.4231,300.111 L1068.5769,300.1684 L1078.7308,300.5888 L1088.8846,299.7579 L1099.0385,301.4179 L1109.1923,299.8393 L1119.3462,300.416 L1129.5,300.6797 " fill="none" style="stroke:#181818;stroke-width:1.0;"/><text fill="#000000" font-family="FG Virgil" font-size="13" lengthAdjust="spacing" textLength="44" x="1004.5" y="295.8232">create()</text><polygon fill="#181818" points="382,327.0313,382.026,327.0963,379.9487,327.703,378.0239,328.6911,376.0495,329.5549,373.9117,330.0105,372,331.0313,371.9904,331.0072,373.9472,331.6993,375.9525,332.5126,377.9916,333.4102,379.9144,334.0173,382,335.0313,382.1305,335.1617,381.0514,334.0827,380.3534,333.3846,379.7018,332.7331,378.7798,331.811,378,331.0313,378.0161,331.0473,378.7925,330.2237,379.6421,329.4733,380.4564,328.6876,381.338,327.9693,382,327.0313" style="stroke:#181818;stroke-width:1.0;"/><path d="M376,331.0313 L376,331.3115 L385.9274,330.4788 L395.8548,331.289 L405.7823,331.5642 L415.7097,330.0801 L425.6371,330.9276 L435.5645,330.4626 L445.4919,330.5199 L455.4194,330.9404 L465.3468,330.1094 L475.2742,331.7694 L485.2016,330.1909 L495.129,330.7676 L505.0565,331.6072 L514.9839,330.9169 L524.9113,331.1222 L534.8387,330.9887 L544.7661,331.2693 L554.6935,331.3501 L564.621,331.8122 L574.5484,331.926 L584.4758,331.9369 L594.4032,331.3708 L604.3306,331.6494 L614.2581,331.9676 L624.1855,330.0697 L634.1129,331.9359 L644.0403,330.6359 L653.9677,331.743 L663.8952,330.3712 L673.8226,330.9399 L683.75,332.0201 L693.6774,330.9663 L703.6048,331.1717 L713.5323,331.4828 L723.4597,331.5862 L733.3871,331.026 L743.3145,331.4142 L753.2419,330.268 L763.1694,331.4104 L773.0968,331.7622 L783.0242,331.624 L792.9516,331.8486 L802.879,330.3871 L812.8065,330.1617 L822.7339,330.2027 L832.6613,330.9527 L842.5887,330.7692 L852.5161,331.9398 L862.4435,330.7983 L872.371,330.5738 L882.2984,331.3356 L892.2258,330.1421 L902.1532,330.3391 L912.0806,331.8965 L922.0081,331.6121 L931.9355,332.0106 L941.8629,330.6022 L951.7903,331.4568 L961.7177,331.8185 L971.6452,330.4014 L981.5726,330.9034 L991.5,331.0313 " fill="none" style="stroke:#181818;stroke-width:1.0;"/><text fill="#000000" font-family="FG Virgil" font-size="13" lengthAdjust="spacing" textLength="39" x="388" y="326.1748">factory</text><polygon fill="#181818" points="1118.5,357.3828,1118.526,357.4479,1120.4487,358.0546,1122.5239,359.0426,1124.5495,359.9065,1126.4117,360.362,1128.5,361.3828,1128.4904,361.3588,1126.4472,362.0508,1124.4525,362.8641,1122.4916,363.7617,1120.4144,364.3688,1118.5,365.3828,1118.6305,365.5133,1119.1514,364.4343,1120.0534,363.7362,1121.0018,363.0846,1121.6798,362.1626,1122.5,361.3828,1122.5161,361.3989,1121.6925,360.5753,1120.9421,359.8249,1120.1564,359.0392,1119.438,358.3209,1118.5,357.3828" style="stroke:#181818;stroke-width:1.0;"/><path d="M371,361.3828 L371,361.6631 L381.0467,360.8304 L391.0933,361.6405 L401.14,361.9157 L411.1867,360.4316 L421.2333,361.2792 L431.28,360.8142 L441.3267,360.8715 L451.3733,361.2919 L461.42,360.461 L471.4667,362.121 L481.5133,360.5424 L491.56,361.1191 L501.6067,361.9587 L511.6533,361.2684 L521.7,361.4738 L531.7467,361.3402 L541.7933,361.6208 L551.84,361.7017 L561.8867,362.1637 L571.9333,362.2776 L581.98,362.2885 L592.0267,361.7223 L602.0733,362.0009 L612.12,362.3191 L622.1667,360.4212 L632.2133,362.2875 L642.26,360.9875 L652.3067,362.0946 L662.3533,360.7228 L672.4,361.2915 L682.4467,362.3716 L692.4933,361.3178 L702.54,361.5232 L712.5867,361.8343 L722.6333,361.9378 L732.68,361.3776 L742.7267,361.7658 L752.7733,360.6196 L762.82,361.762 L772.8667,362.1137 L782.9133,361.9755 L792.96,362.2002 L803.0067,360.7387 L813.0533,360.5132 L823.1,360.5543 L833.1467,361.3043 L843.1933,361.1208 L853.24,362.2914 L863.2867,361.1499 L873.3333,360.9254 L883.38,361.6872 L893.4267,360.4937 L903.4733,360.6906 L913.52,362.2481 L923.5667,361.9637 L933.6133,362.3621 L943.66,360.9538 L953.7067,361.8084 L963.7533,362.17 L973.8,360.7529 L983.8467,361.255 L993.8933,361.5508 L1003.94,362.2518 L1013.9867,361.3772 L1024.0333,361.9996 L1034.08,360.6444 L1044.1267,360.4798 L1054.1733,362.0543 L1064.22,360.4269 L1074.2667,362.0614 L1084.3133,361.6583 L1094.36,361.0256 L1104.4067,360.9111 L1114.4533,361.9945 L1124.5,361.3828 " fill="none" style="stroke:#181818;stroke-width:1.0;"/><text fill="#000000" font-family="FG Virgil" font-size="13" lengthAdjust="spacing" textLength="40" x="378" y="356.5264">users()</text><polygon fill="#181818" points="1250,387.7344,1250.026,387.7994,1251.9487,388.4061,1254.0239,389.3942,1256.0495,390.2581,1257.9117,390.7136,1260,391.7344,1259.9904,391.7103,1257.9472,392.4024,1255.9525,393.2157,1253.9916,394.1133,1251.9144,394.7204,1250,395.7344,1250.1305,395.8649,1250.6514,394.7858,1251.5534,394.0878,1252.5018,393.4362,1253.1798,392.5142,1254,391.7344,1254.0161,391.7505,1253.1925,390.9268,1252.4421,390.1765,1251.6564,389.3907,1250.938,388.6724,1250,387.7344" style="stroke:#181818;stroke-width:1.0;"/><path d="M1140.5,391.7344 L1140.5,392.0146 L1150.125,391.1819 L1159.75,391.9921 L1169.375,392.2673 L1179,390.7832 L1188.625,391.6308 L1198.25,391.1657 L1207.875,391.223 L1217.5,391.6435 L1227.125,390.8125 L1236.75,392.4726 L1246.375,390.894 L1256,391.7344 " fill="none" style="stroke:#181818;stroke-width:1.0;"/><text fill="#000000" font-family="FG Virgil" font-size="13" lengthAdjust="spacing" textLength="44" x="1147.5" y="386.8779">create()</text><polygon fill="#181818" points="382,418.0859,382.026,418.151,379.9487,418.7577,378.0239,419.7458,376.0495,420.6096,373.9117,421.0651,372,422.0859,371.9904,422.0619,373.9472,422.7539,375.9525,423.5672,377.9916,424.4648,379.9144,425.072,382,426.0859,382.1305,426.2164,381.0514,425.1374,380.3534,424.4393,379.7018,423.7877,378.7798,422.8657,378,422.0859,378.0161,422.102,378.7925,421.2784,379.6421,420.528,380.4564,419.7423,381.338,419.024,382,418.0859" style="stroke:#181818;stroke-width:1.0;"/><path d="M376,422.0859 L376,422.3662 L385.9803,421.5335 L395.9605,422.3437 L405.9408,422.6188 L415.9211,421.1347 L425.9013,421.9823 L435.8816,421.5173 L445.8618,421.5746 L455.8421,421.9951 L465.8224,421.1641 L475.8026,422.8241 L485.7829,421.2456 L495.7632,421.8222 L505.7434,422.6619 L515.7237,421.9716 L525.7039,422.1769 L535.6842,422.0433 L545.6645,422.324 L555.6447,422.4048 L565.625,422.8669 L575.6053,422.9807 L585.5855,422.9916 L595.5658,422.4254 L605.5461,422.7041 L615.5263,423.0222 L625.5066,421.1244 L635.4868,422.9906 L645.4671,421.6906 L655.4474,422.7977 L665.4276,421.4259 L675.4079,421.9946 L685.3882,423.0747 L695.3684,422.021 L705.3487,422.2263 L715.3289,422.5374 L725.3092,422.6409 L735.2895,422.0807 L745.2697,422.4689 L755.25,421.3227 L765.2303,422.4651 L775.2105,422.8169 L785.1908,422.6786 L795.1711,422.9033 L805.1513,421.4418 L815.1316,421.2164 L825.1118,421.2574 L835.0921,422.0074 L845.0724,421.8239 L855.0526,422.9945 L865.0329,421.853 L875.0132,421.6285 L884.9934,422.3903 L894.9737,421.1968 L904.9539,421.3938 L914.9342,422.9512 L924.9145,422.6668 L934.8947,423.0653 L944.875,421.6569 L954.8553,422.5115 L964.8355,422.8732 L974.8158,421.4561 L984.7961,421.9581 L994.7763,422.2539 L1004.7566,422.955 L1014.7368,422.0803 L1024.7171,422.7027 L1034.6974,421.3476 L1044.6776,421.1829 L1054.6579,422.7574 L1064.6382,421.13 L1074.6184,422.7646 L1084.5987,422.3614 L1094.5789,421.7287 L1104.5592,421.6142 L1114.5395,422.6976 L1124.5197,421.6868 L1134.5,422.0859 " fill="none" style="stroke:#181818;stroke-width:1.0;"/><text fill="#000000" font-family="FG Virgil" font-size="13" lengthAdjust="spacing" textLength="87" x="388" y="417.2295">userRepository</text><polygon fill="#181818" points="740,448.4375,740.026,448.5025,741.9487,449.1093,744.0239,450.0973,746.0495,450.9612,747.9117,451.4167,750,452.4375,749.9904,452.4134,747.9472,453.1055,745.9525,453.9188,743.9916,454.8164,741.9144,455.4235,740,456.4375,740.1305,456.568,740.6514,455.4889,741.5534,454.7909,742.5018,454.1393,743.1798,453.2173,744,452.4375,744.0161,452.4536,743.1925,451.63,742.4421,450.8796,741.6564,450.0939,740.938,449.3755,740,448.4375" style="stroke:#181818;stroke-width:1.0;"/><path d="M371,452.4375 L371,452.7177 L380.8684,451.8851 L390.7368,452.6952 L400.6053,452.9704 L410.4737,451.4863 L420.3421,452.3339 L430.2105,451.8688 L440.0789,451.9262 L449.9474,452.3466 L459.8158,451.5157 L469.6842,453.1757 L479.5526,451.5971 L489.4211,452.1738 L499.2895,453.0134 L509.1579,452.3231 L519.0263,452.5285 L528.8947,452.3949 L538.7632,452.6755 L548.6316,452.7563 L558.5,453.2184 L568.3684,453.3322 L578.2368,453.3432 L588.1053,452.777 L597.9737,453.0556 L607.8421,453.3738 L617.7105,451.4759 L627.5789,453.3422 L637.4474,452.0422 L647.3158,453.1492 L657.1842,451.7775 L667.0526,452.3462 L676.9211,453.4263 L686.7895,452.3725 L696.6579,452.5779 L706.5263,452.889 L716.3947,452.9925 L726.2632,452.4323 L736.1316,452.8205 L746,452.4375 " fill="none" style="stroke:#181818;stroke-width:1.0;"/><text fill="#000000" font-family="FG Virgil" font-size="13" lengthAdjust="spacing" textLength="44" x="378" y="447.5811">create()</text><polygon fill="#181818" points="745,478.7891,745.026,478.8541,746.9487,479.4608,749.0239,480.4489,751.0495,481.3128,752.9117,481.7683,755,482.7891,754.9904,482.765,752.9472,483.4571,750.9525,484.2704,748.9916,485.168,746.9144,485.7751,745,486.7891,745.1305,486.9196,745.6514,485.8405,746.5534,485.1424,747.5018,484.4909,748.1798,483.5688,749,482.7891,749.0161,482.8051,748.1925,481.9815,747.4421,481.2311,746.6564,480.4454,745.938,479.7271,745,478.7891" style="stroke:#181818;stroke-width:1.0;"/><path d="M371,482.7891 L371,483.0693 L381,482.2366 L391,483.0468 L401,483.322 L411,481.8379 L421,482.6854 L431,482.2204 L441,482.2777 L451,482.6982 L461,481.8672 L471,483.5273 L481,481.9487 L491,482.5254 L501,483.365 L511,482.6747 L521,482.88 L531,482.7465 L541,483.0271 L551,483.1079 L561,483.57 L571,483.6838 L581,483.6947 L591,483.1286 L601,483.4072 L611,483.7254 L621,481.8275 L631,483.6937 L641,482.3937 L651,483.5008 L661,482.129 L671,482.6977 L681,483.7779 L691,482.7241 L701,482.9295 L711,483.2406 L721,483.344 L731,482.7839 L741,483.172 L751,482.7891 " fill="none" style="stroke:#181818;stroke-width:1.0;"/><text fill="#000000" font-family="FG Virgil" font-size="13" lengthAdjust="spacing" textLength="357" x="378" y="477.9326">ensureAuthenticatedUserHasAnyOf(CourseRoles.MANAGER)</text><polygon fill="#181818" points="1245,509.1406,1245.026,509.2057,1246.9487,509.8124,1249.0239,510.8004,1251.0495,511.6643,1252.9117,512.1198,1255,513.1406,1254.9904,513.1166,1252.9472,513.8086,1250.9525,514.6219,1248.9916,515.5195,1246.9144,516.1267,1245,517.1406,1245.1305,517.2711,1245.6514,516.1921,1246.5534,515.494,1247.5018,514.8424,1248.1798,513.9204,1249,513.1406,1249.0161,513.1567,1248.1925,512.3331,1247.4421,511.5827,1246.6564,510.797,1245.938,510.0787,1245,509.1406" style="stroke:#181818;stroke-width:1.0;"/><path d="M371,513.1406 L371,513.4209 L381,512.5882 L391,513.3983 L401,513.6735 L411,512.1894 L421,513.037 L431,512.572 L441,512.6293 L451,513.0497 L461,512.2188 L471,513.8788 L481,512.3003 L491,512.8769 L501,513.7166 L511,513.0263 L521,513.2316 L531,513.098 L541,513.3787 L551,513.4595 L561,513.9215 L571,514.0354 L581,514.0463 L591,513.4801 L601,513.7587 L611,514.0769 L621,512.179 L631,514.0453 L641,512.7453 L651,513.8524 L661,512.4806 L671,513.0493 L681,514.1294 L691,513.0756 L701,513.281 L711,513.5921 L721,513.6956 L731,513.1354 L741,513.5236 L751,512.3774 L761,513.5198 L771,513.8716 L781,513.7333 L791,513.958 L801,512.4965 L811,512.271 L821,512.3121 L831,513.0621 L841,512.8786 L851,514.0492 L861,512.9077 L871,512.6832 L881,513.445 L891,512.2515 L901,512.4485 L911,514.0059 L921,513.7215 L931,514.1199 L941,512.7116 L951,513.5662 L961,513.9279 L971,512.5108 L981,513.0128 L991,513.3086 L1001,514.0096 L1011,513.135 L1021,513.7574 L1031,512.4022 L1041,512.2376 L1051,513.8121 L1061,512.1847 L1071,513.8192 L1081,513.4161 L1091,512.7834 L1101,512.6689 L1111,513.7523 L1121,512.7415 L1131,513.9298 L1141,512.4036 L1151,513.9639 L1161,513.7864 L1171,513.4672 L1181,513.2036 L1191,514.1094 L1201,513.9587 L1211,513.3663 L1221,513.4982 L1231,512.9669 L1241,514.0959 L1251,513.1406 " fill="none" style="stroke:#181818;stroke-width:1.0;"/><text fill="#000000" font-family="FG Virgil" font-size="13" lengthAdjust="spacing" textLength="135" x="378" y="508.2842">findUserByEmail(email)</text><polygon fill="#181818" points="382,539.4922,382.026,539.5572,379.9487,540.164,378.0239,541.152,376.0495,542.0159,373.9117,542.4714,372,543.4922,371.9904,543.4681,373.9472,544.1602,375.9525,544.9735,377.9916,545.8711,379.9144,546.4782,382,547.4922,382.1305,547.6227,381.0514,546.5436,380.3534,545.8456,379.7018,545.194,378.7798,544.272,378,543.4922,378.0161,543.5083,378.7925,542.6847,379.6421,541.9343,380.4564,541.1486,381.338,540.4302,382,539.4922" style="stroke:#181818;stroke-width:1.0;"/><path d="M376,543.4922 L376,543.7724 L385.9438,542.9398 L395.8876,543.7499 L405.8315,544.0251 L415.7753,542.541 L425.7191,543.3886 L435.6629,542.9235 L445.6067,542.9809 L455.5506,543.4013 L465.4944,542.5704 L475.4382,544.2304 L485.382,542.6518 L495.3258,543.2285 L505.2697,544.0681 L515.2135,543.3778 L525.1573,543.5832 L535.1011,543.4496 L545.0449,543.7302 L554.9888,543.811 L564.9326,544.2731 L574.8764,544.3869 L584.8202,544.3979 L594.764,543.8317 L604.7079,544.1103 L614.6517,544.4285 L624.5955,542.5306 L634.5393,544.3969 L644.4831,543.0968 L654.427,544.2039 L664.3708,542.8322 L674.3146,543.4009 L684.2584,544.481 L694.2022,543.4272 L704.1461,543.6326 L714.0899,543.9437 L724.0337,544.0472 L733.9775,543.487 L743.9213,543.8751 L753.8652,542.729 L763.809,543.8714 L773.7528,544.2231 L783.6966,544.0849 L793.6404,544.3096 L803.5843,542.8481 L813.5281,542.6226 L823.4719,542.6637 L833.4157,543.4137 L843.3596,543.2301 L853.3034,544.4007 L863.2472,543.2593 L873.191,543.0348 L883.1348,543.7965 L893.0787,542.6031 L903.0225,542.8 L912.9663,544.3575 L922.9101,544.0731 L932.8539,544.4715 L942.7978,543.0631 L952.7416,543.9178 L962.6854,544.2794 L972.6292,542.8623 L982.573,543.3644 L992.5169,543.6602 L1002.4607,544.3612 L1012.4045,543.4866 L1022.3483,544.1089 L1032.2921,542.7538 L1042.236,542.5892 L1052.1798,544.1637 L1062.1236,542.5363 L1072.0674,544.1708 L1082.0112,543.7677 L1091.9551,543.135 L1101.8989,543.0205 L1111.8427,544.1039 L1121.7865,543.0931 L1131.7303,544.2813 L1141.6742,542.7552 L1151.618,544.3154 L1161.5618,544.1379 L1171.5056,543.8188 L1181.4494,543.5551 L1191.3933,544.461 L1201.3371,544.3103 L1211.2809,543.7179 L1221.2247,543.8498 L1231.1685,543.3185 L1241.1124,544.4475 L1251.0562,543.6987 L1261,543.4922 " fill="none" style="stroke:#181818;stroke-width:1.0;"/><text fill="#000000" font-family="FG Virgil" font-size="13" lengthAdjust="spacing" textLength="25" x="388" y="538.6357">user</text><polygon fill="#181818" points="864.5,569.8438,864.526,569.9088,866.4487,570.5155,868.5239,571.5036,870.5495,572.3674,872.4117,572.823,874.5,573.8438,874.4904,573.8197,872.4472,574.5118,870.4525,575.3251,868.4916,576.2227,866.4144,576.8298,864.5,577.8438,864.6305,577.9742,865.1514,576.8952,866.0534,576.1971,867.0018,575.5456,867.6798,574.6235,868.5,573.8438,868.5161,573.8598,867.6925,573.0362,866.9421,572.2858,866.1564,571.5001,865.438,570.7818,864.5,569.8438" style="stroke:#181818;stroke-width:1.0;"/><path d="M371,573.8438 L371,574.124 L380.99,573.2913 L390.98,574.1015 L400.97,574.3767 L410.96,572.8926 L420.95,573.7401 L430.94,573.2751 L440.93,573.3324 L450.92,573.7529 L460.91,572.9219 L470.9,574.5819 L480.89,573.0034 L490.88,573.5801 L500.87,574.4197 L510.86,573.7294 L520.85,573.9347 L530.84,573.8012 L540.83,574.0818 L550.82,574.1626 L560.81,574.6247 L570.8,574.7385 L580.79,574.7494 L590.78,574.1833 L600.77,574.4619 L610.76,574.7801 L620.75,572.8822 L630.74,574.7484 L640.73,573.4484 L650.72,574.5555 L660.71,573.1837 L670.7,573.7524 L680.69,574.8326 L690.68,573.7788 L700.67,573.9842 L710.66,574.2953 L720.65,574.3987 L730.64,573.8385 L740.63,574.2267 L750.62,573.0805 L760.61,574.2229 L770.6,574.5747 L780.59,574.4365 L790.58,574.6611 L800.57,573.1996 L810.56,572.9742 L820.55,573.0152 L830.54,573.7652 L840.53,573.5817 L850.52,574.7523 L860.51,573.6108 L870.5,573.8438 " fill="none" style="stroke:#181818;stroke-width:1.0;"/><text fill="#000000" font-family="FG Virgil" font-size="13" lengthAdjust="spacing" textLength="46" x="378" y="568.9873">enable()</text><polygon fill="#181818" points="1245,600.1953,1245.026,600.2604,1246.9487,600.8671,1249.0239,601.8551,1251.0495,602.719,1252.9117,603.1745,1255,604.1953,1254.9904,604.1713,1252.9472,604.8633,1250.9525,605.6766,1248.9916,606.5742,1246.9144,607.1813,1245,608.1953,1245.1305,608.3258,1245.6514,607.2468,1246.5534,606.5487,1247.5018,605.8971,1248.1798,604.9751,1249,604.1953,1249.0161,604.2114,1248.1925,603.3878,1247.4421,602.6374,1246.6564,601.8517,1245.938,601.1334,1245,600.1953" style="stroke:#181818;stroke-width:1.0;"/><path d="M371,604.1953 L371,604.4756 L381,603.6429 L391,604.453 L401,604.7282 L411,603.2441 L421,604.0917 L431,603.6267 L441,603.684 L451,604.1044 L461,603.2735 L471,604.9335 L481,603.3549 L491,603.9316 L501,604.7712 L511,604.0809 L521,604.2863 L531,604.1527 L541,604.4333 L551,604.5142 L561,604.9762 L571,605.0901 L581,605.101 L591,604.5348 L601,604.8134 L611,605.1316 L621,603.2337 L631,605.1 L641,603.8 L651,604.9071 L661,603.5353 L671,604.104 L681,605.1841 L691,604.1303 L701,604.3357 L711,604.6468 L721,604.7503 L731,604.1901 L741,604.5783 L751,603.4321 L761,604.5745 L771,604.9262 L781,604.788 L791,605.0127 L801,603.5512 L811,603.3257 L821,603.3668 L831,604.1168 L841,603.9333 L851,605.1039 L861,603.9624 L871,603.7379 L881,604.4997 L891,603.3062 L901,603.5031 L911,605.0606 L921,604.7762 L931,605.1746 L941,603.7663 L951,604.6209 L961,604.9825 L971,603.5654 L981,604.0675 L991,604.3633 L1001,605.0643 L1011,604.1897 L1021,604.8121 L1031,603.4569 L1041,603.2923 L1051,604.8668 L1061,603.2394 L1071,604.8739 L1081,604.4708 L1091,603.8381 L1101,603.7236 L1111,604.807 L1121,603.7962 L1131,604.9845 L1141,603.4583 L1151,605.0185 L1161,604.8411 L1171,604.5219 L1181,604.2583 L1191,605.1641 L1201,605.0134 L1211,604.421 L1221,604.5529 L1231,604.0216 L1241,605.1506 L1251,604.1953 " fill="none" style="stroke:#181818;stroke-width:1.0;"/><text fill="#000000" font-family="FG Virgil" font-size="13" lengthAdjust="spacing" textLength="59" x="378" y="599.3389">save(user)</text><polygon fill="#181818" points="382,630.5469,382.026,630.6119,379.9487,631.2186,378.0239,632.2067,376.0495,633.0706,373.9117,633.5261,372,634.5469,371.9904,634.5228,373.9472,635.2149,375.9525,636.0282,377.9916,636.9258,379.9144,637.5329,382,638.5469,382.1305,638.6774,381.0514,637.5983,380.3534,636.9003,379.7018,636.2487,378.7798,635.3267,378,634.5469,378.0161,634.563,378.7925,633.7393,379.6421,632.989,380.4564,632.2032,381.338,631.4849,382,630.5469" style="stroke:#181818;stroke-width:1.0;"/><path d="M376,634.5469 L376,634.8271 L385.9438,633.9944 L395.8876,634.8046 L405.8315,635.0798 L415.7753,633.5957 L425.7191,634.4433 L435.6629,633.9782 L445.6067,634.0355 L455.5506,634.456 L465.4944,633.625 L475.4382,635.2851 L485.382,633.7065 L495.3258,634.2832 L505.2697,635.1228 L515.2135,634.4325 L525.1573,634.6379 L535.1011,634.5043 L545.0449,634.7849 L554.9888,634.8657 L564.9326,635.3278 L574.8764,635.4416 L584.8202,635.4526 L594.764,634.8864 L604.7079,635.165 L614.6517,635.4832 L624.5955,633.5853 L634.5393,635.4516 L644.4831,634.1515 L654.427,635.2586 L664.3708,633.8868 L674.3146,634.4555 L684.2584,635.5357 L694.2022,634.4819 L704.1461,634.6873 L714.0899,634.9984 L724.0337,635.1019 L733.9775,634.5417 L743.9213,634.9298 L753.8652,633.7837 L763.809,634.9261 L773.7528,635.2778 L783.6966,635.1396 L793.6404,635.3642 L803.5843,633.9028 L813.5281,633.6773 L823.4719,633.7183 L833.4157,634.4684 L843.3596,634.2848 L853.3034,635.4554 L863.2472,634.314 L873.191,634.0895 L883.1348,634.8512 L893.0787,633.6578 L903.0225,633.8547 L912.9663,635.4121 L922.9101,635.1278 L932.8539,635.5262 L942.7978,634.1178 L952.7416,634.9725 L962.6854,635.3341 L972.6292,633.917 L982.573,634.4191 L992.5169,634.7149 L1002.4607,635.4159 L1012.4045,634.5413 L1022.3483,635.1636 L1032.2921,633.8085 L1042.236,633.6439 L1052.1798,635.2184 L1062.1236,633.591 L1072.0674,635.2255 L1082.0112,634.8224 L1091.9551,634.1897 L1101.8989,634.0752 L1111.8427,635.1586 L1121.7865,634.1478 L1131.7303,635.336 L1141.6742,633.8099 L1151.618,635.3701 L1161.5618,635.1926 L1171.5056,634.8735 L1181.4494,634.6098 L1191.3933,635.5157 L1201.3371,635.365 L1211.2809,634.7725 L1221.2247,634.9045 L1231.1685,634.3732 L1241.1124,635.5021 L1251.0562,634.7534 L1261,634.5469 " fill="none" style="stroke:#181818;stroke-width:1.0;"/><text fill="#000000" font-family="FG Virgil" font-size="13" lengthAdjust="spacing" textLength="25" x="388" y="629.6904">user</text><polygon fill="#181818" points="200,660.8984,200.026,660.9635,197.9487,661.5702,196.0239,662.5583,194.0495,663.4221,191.9117,663.8776,190,664.8984,189.9904,664.8744,191.9472,665.5664,193.9525,666.3797,195.9916,667.2773,197.9144,667.8845,200,668.8984,200.1305,669.0289,199.0514,667.9499,198.3534,667.2518,197.7018,666.6002,196.7798,665.6782,196,664.8984,196.0161,664.9145,196.7925,664.0909,197.6421,663.3405,198.4564,662.5548,199.338,661.8365,200,660.8984" style="stroke:#181818;stroke-width:1.0;"/><path d="M194,664.8984 L194,665.1787 L204.0588,664.346 L214.1176,665.1562 L224.1765,665.4313 L234.2353,663.9472 L244.2941,664.7948 L254.3529,664.3298 L264.4118,664.3871 L274.4706,664.8076 L284.5294,663.9766 L294.5882,665.6366 L304.6471,664.0581 L314.7059,664.6347 L324.7647,665.4744 L334.8235,664.7841 L344.8824,664.9894 L354.9412,664.8558 L365,664.8984 " fill="none" style="stroke:#181818;stroke-width:1.0;"/><text fill="#000000" font-family="FG Virgil" font-size="13" lengthAdjust="spacing" textLength="25" x="206" y="660.042">user</text><polygon fill="#181818" points="47,691.25,47.026,691.315,44.9487,691.9218,43.0239,692.9098,41.0495,693.7737,38.9117,694.2292,37,695.25,36.9904,695.2259,38.9472,695.918,40.9525,696.7313,42.9916,697.6289,44.9144,698.236,47,699.25,47.1305,699.3805,46.0514,698.3014,45.3534,697.6034,44.7018,696.9518,43.7798,696.0298,43,695.25,43.0161,695.2661,43.7925,694.4425,44.6421,693.6921,45.4564,692.9064,46.338,692.188,47,691.25" style="stroke:#181818;stroke-width:1.0;"/><path d="M41,695.25 L41,695.5302 L51.1429,694.6976 L61.2857,695.5077 L71.4286,695.7829 L81.5714,694.2988 L91.7143,695.1464 L101.8571,694.6813 L112,694.7387 L122.1429,695.1591 L132.2857,694.3282 L142.4286,695.9882 L152.5714,694.4096 L162.7143,694.9863 L172.8571,695.8259 L183,695.25 " fill="none" style="stroke:#181818;stroke-width:1.0;stroke-dasharray:2.0,2.0;"/><text fill="#000000" font-family="FG Virgil" font-size="13" lengthAdjust="spacing" textLength="108" x="53" y="690.3936">displayUserEnable</text><!--MD5=[4e454e54af7cb5660ce8a741118ec2de]
@startuml
'http://plantuml.com/skinparam.html
skinparam handwritten true
skinparam monochrome true
skinparam packageStyle rect
skinparam defaultFontName FG Virgil
skinparam shadowing false

actor Manager as Actor
participant ChangeUserStateUI as UI <<presentation>>
participant ChangeUserStateController as Controller <<application>>
participant AuthorizationService as AuthzService <<service>>
participant "user:User" as Domain <<domain>>
participant PersistenceContext as Persistence <<persistence>>
participant RepositoryFactory as Factory <<factory>>
database UserRepository as Repository <<repository>>


Actor - -> UI: Enable User
activate UI
    UI -> Controller: create()
    UI - -> Actor: Ask user information

    Actor - -> UI: email
        
    UI -> Controller: enableUserByEmail(email)
    activate Controller

        Controller -> Persistence: repositories()
        activate Persistence
        Persistence -> Factory: create()
        Persistence -> Controller: factory
        deactivate Persistence

        Controller -> Factory: users()
        activate Factory
        Factory -> Repository: create()
        Factory -> Controller: userRepository
        deactivate Factory

        Controller -> AuthzService: create()
        activate AuthzService
        Controller -> AuthzService: ensureAuthenticatedUserHasAnyOf(CourseRoles.MANAGER)
        deactivate AuthzService

        Controller -> Repository: findUserByEmail(email)
        activate Repository
        Repository -> Controller: user
        deactivate Repository

        Controller -> Domain: enable()

        Controller -> Repository: save(user)
        activate Repository
        Repository -> Controller: user
        deactivate Repository

        Controller -> UI:user
        deactivate Controller
        UI - -> Actor: displayUserEnable

deactivate UI
@enduml

@startuml
skinparam handwritten true
skinparam monochrome true
skinparam packageStyle rect
skinparam defaultFontName FG Virgil
skinparam shadowing false

actor Manager as Actor
participant ChangeUserStateUI as UI <<presentation>>
participant ChangeUserStateController as Controller <<application>>
participant AuthorizationService as AuthzService <<service>>
participant "user:User" as Domain <<domain>>
participant PersistenceContext as Persistence <<persistence>>
participant RepositoryFactory as Factory <<factory>>
database UserRepository as Repository <<repository>>


Actor - -> UI: Enable User
activate UI
    UI -> Controller: create()
    UI - -> Actor: Ask user information

    Actor - -> UI: email
        
    UI -> Controller: enableUserByEmail(email)
    activate Controller

        Controller -> Persistence: repositories()
        activate Persistence
        Persistence -> Factory: create()
        Persistence -> Controller: factory
        deactivate Persistence

        Controller -> Factory: users()
        activate Factory
        Factory -> Repository: create()
        Factory -> Controller: userRepository
        deactivate Factory

        Controller -> AuthzService: create()
        activate AuthzService
        Controller -> AuthzService: ensureAuthenticatedUserHasAnyOf(CourseRoles.MANAGER)
        deactivate AuthzService

        Controller -> Repository: findUserByEmail(email)
        activate Repository
        Repository -> Controller: user
        deactivate Repository

        Controller -> Domain: enable()

        Controller -> Repository: save(user)
        activate Repository
        Repository -> Controller: user
        deactivate Repository

        Controller -> UI:user
        deactivate Controller
        UI - -> Actor: displayUserEnable

deactivate UI
@enduml

PlantUML version 1.2022.7(Mon Aug 22 18:01:30 BST 2022)
(GPL source distribution)
Java Runtime: Java(TM) SE Runtime Environment
JVM: Java HotSpot(TM) 64-Bit Server VM
Default Encoding: Cp1252
Language: pt
Country: PT
--></g></svg>