<?xml version="1.0" encoding="UTF-8" standalone="no"?><svg xmlns="http://www.w3.org/2000/svg" xmlns:xlink="http://www.w3.org/1999/xlink" contentStyleType="text/css" height="853px" preserveAspectRatio="none" style="width:1315px;height:853px;background:#FFFFFF;" version="1.1" viewBox="0 0 1315 853" width="1315px" zoomAndPan="magnify"><defs/><g><polygon fill="#FFFFFF" points="139,118.5703,139,118.6404,141,118.4322,143,118.6347,145,118.7035,147,118.3325,149,118.5703,148.9223,118.5703,148.5735,128.5708,148.6165,138.5713,148.9318,148.5718,148.3086,158.5723,149.5536,168.5728,148.3697,178.5733,148.8022,188.5738,149.4319,198.5743,148.9142,208.5748,149.0682,218.5754,148.9681,228.5759,149.1785,238.5764,149.2391,248.5769,149.5857,258.5774,149.6711,268.5779,149.6793,278.5784,149.2546,288.5789,149.4636,298.5794,149.7022,308.5799,148.2788,318.5804,149.6785,328.5809,148.7035,338.5814,149.5338,348.5819,148.505,358.5824,148.9315,368.5829,149.7416,378.5834,148.9513,388.5839,149.1053,398.5844,149.3386,408.5849,149.4162,418.5854,148.9961,428.5859,149.2872,438.5864,148.4276,448.5869,149.2844,458.5874,149.5482,468.588,149.4445,478.5885,149.613,488.589,148.5169,498.5895,148.3478,508.59,148.3786,518.5905,148.9411,528.591,148.8035,538.5915,149.6814,548.592,148.8253,558.5925,148.6569,568.593,149.2283,578.5935,148.3332,588.594,148.4809,598.5945,149.649,608.595,149.4357,618.5955,149.7345,628.596,148.6782,638.5965,149.3192,648.597,149.5904,658.5975,148.5276,668.598,148.9041,678.5985,149.126,688.599,149.6518,698.5995,148.9958,708.6001,149.4626,718.6006,148.4462,728.6011,149,738.6016,149,738.3758,147,738.7694,145,738.3626,143,738.7712,141,738.6704,139,738.6016,138.7321,738.6016,138.6462,728.6011,139.4588,718.6006,138.7007,708.6001,139.5919,698.5995,138.4473,688.599,139.6174,678.5985,139.4843,668.598,139.245,658.5975,139.0472,648.597,139.7266,638.5965,139.6136,628.596,139.1693,618.5955,139.2682,608.595,138.8697,598.5945,139.7165,588.594,139.1549,578.5935,139.1726,568.593,138.3916,558.5925,138.5948,548.592,139.5307,538.5915,139.4298,528.591,138.9571,518.5905,138.6778,508.59,138.7811,498.5895,138.3138,488.589,139.4147,478.5885,139.7396,468.588,139.5264,458.5874,139.6949,448.5869,138.8633,438.5864,139.0872,428.5859,138.6124,418.5854,139.284,408.5849,139.2468,398.5844,139.5524,388.5839,138.7703,378.5834,138.8656,368.5829,139.4435,358.5824,139.5673,348.5819,138.4875,338.5814,138.8061,328.5809,139.1493,318.5804,138.3892,308.5799,139.3534,298.5794,139.258,288.5789,138.8992,278.5784,139.1422,268.5779,139.7287,258.5774,138.6871,248.5769,139.315,238.5764,139.2856,228.5759,139.1158,218.5754,139.1409,208.5748,139.1135,198.5743,138.3758,188.5738,138.5992,178.5733,138.5385,168.5728,139.0638,158.5723,139.0881,148.5718,139.1617,138.5713,138.709,128.5708,139,118.5703" style="stroke:#181818;stroke-width:1.0;"/><polygon fill="#FFFFFF" points="270.5,179.2734,270.5,179.3435,272.5,179.1353,274.5,179.3379,276.5,179.4067,278.5,179.0356,280.5,179.2734,280.4223,179.2734,280.0735,189.1842,280.1165,199.0949,280.4318,209.0056,279.8086,218.9163,281.0536,228.827,279.8697,238.7377,280.3022,248.6484,280.9319,258.5592,280.4142,268.4699,280.5682,278.3806,280.4681,288.2913,280.6785,298.202,280.7391,308.1127,281.0857,318.0234,281.1711,327.9342,281.1793,337.8449,280.7546,347.7556,280.9636,357.6663,281.2022,367.577,279.7788,377.4877,281.1785,387.3984,280.2035,397.3092,281.0338,407.2199,280.005,417.1306,280.4315,427.0413,281.2416,436.952,280.4513,446.8627,280.6053,456.7734,280.8386,466.6842,280.9162,476.5949,280.4961,486.5056,280.7872,496.4163,279.9276,506.327,280.7844,516.2377,281.0482,526.1484,280.9445,536.0592,281.113,545.9699,280.0169,555.8806,279.8478,565.7913,279.8786,575.702,280.4411,585.6127,280.3035,595.5234,281.1814,605.4342,280.3253,615.3449,280.1569,625.2556,280.7283,635.1663,279.8332,645.077,279.9809,654.9877,280.5,664.8984,280.5,665.1148,278.5,665.0437,276.5,665.1433,274.5,664.7912,272.5,665.0048,270.5,664.8984,271.0904,664.8984,270.0276,654.9877,270.4041,645.077,270.626,635.1663,271.1518,625.2556,270.4958,615.3449,270.9626,605.4342,269.9462,595.5234,269.8227,585.6127,271.0036,575.702,269.7831,565.7913,271.009,555.8806,270.7066,545.9699,270.2321,536.0592,270.1462,526.1484,270.9588,516.2377,270.2007,506.327,271.0919,496.4163,269.9473,486.5056,271.1174,476.5949,270.9843,466.6842,270.745,456.7734,270.5472,446.8627,271.2266,436.952,271.1136,427.0413,270.6693,417.1306,270.7682,407.2199,270.3697,397.3092,271.2165,387.3984,270.6549,377.4877,270.6726,367.577,269.8916,357.6663,270.0948,347.7556,271.0307,337.8449,270.9298,327.9342,270.4571,318.0234,270.1778,308.1127,270.2811,298.202,269.8138,288.2913,270.9147,278.3806,271.2396,268.4699,271.0264,258.5592,271.1949,248.6484,270.3633,238.7377,270.5872,228.827,270.1124,218.9163,270.784,209.0056,270.7468,199.0949,271.0524,189.1842,270.5,179.2734" style="stroke:#181818;stroke-width:1.0;"/><polygon fill="#FFFFFF" points="423.5,209.625,423.5,209.6951,425.5,209.4869,427.5,209.6894,429.5,209.7582,431.5,209.3872,433.5,209.625,433.4223,209.625,433.0735,219.7422,433.1165,229.8594,433.4318,239.9766,432.8086,250.0938,434.0536,260.2109,432.8697,270.3281,433.3022,280.4453,433.9319,290.5625,433.5,300.6797,433.5,300.6511,431.5,300.7024,429.5,300.669,427.5,300.7392,425.5,300.7594,423.5,300.6797,424.0857,300.6797,424.1711,290.5625,424.1793,280.4453,423.7546,270.3281,423.9636,260.2109,424.2022,250.0938,422.7788,239.9766,424.1785,229.8594,423.2035,219.7422,423.5,209.625" style="stroke:#181818;stroke-width:1.0;"/><polygon fill="#FFFFFF" points="824,361.3828,824,361.4529,826,361.2447,828,361.4472,830,361.516,832,361.145,834,361.3828,833.9223,361.3828,833.5735,371.5,833.6165,381.6172,833.9318,391.7344,833.3086,401.8516,834.5536,411.9688,833.3697,422.0859,833.8022,432.2031,834.4319,442.3203,833.9142,452.4375,834.0682,462.5547,833.9681,472.6719,834.1785,482.7891,834.2391,492.9063,834.5857,503.0234,834.6711,513.1406,834.6793,523.2578,834.2546,533.375,834.4636,543.4922,834.7022,553.6094,833.2788,563.7266,834.6785,573.8438,833.7035,583.9609,834.5338,594.0781,833.505,604.1953,833.9315,614.3125,834.7416,624.4297,834,634.5469,834,634.5306,832,634.582,830,634.6598,828,634.6856,826,634.5456,824,634.5469,824.2872,634.5469,823.4276,624.4297,824.2844,614.3125,824.5482,604.1953,824.4445,594.0781,824.613,583.9609,823.5169,573.8438,823.3478,563.7266,823.3786,553.6094,823.9411,543.4922,823.8035,533.375,824.6814,523.2578,823.8253,513.1406,823.6569,503.0234,824.2283,492.9063,823.3332,482.7891,823.4809,472.6719,824.649,462.5547,824.4357,452.4375,824.7345,442.3203,823.6782,432.2031,824.3192,422.0859,824.5904,411.9688,823.5276,401.8516,823.9041,391.7344,824.126,381.6172,824.6518,371.5,824,361.3828" style="stroke:#181818;stroke-width:1.0;"/><polygon fill="#FFFFFF" points="988,391.7344,988,391.8044,990,391.5963,992,391.7988,994,391.8676,996,391.4966,998,391.7344,997.9223,391.7344,997.5735,401.8516,997.6165,411.9688,997.9318,422.0859,997.3086,432.2031,998.5536,442.3203,998,452.4375,998,452.2274,996,452.3716,994,452.5815,992,452.4089,990,452.4602,988,452.4375,987.9681,452.4375,988.1785,442.3203,988.2391,432.2031,988.5857,422.0859,988.6711,411.9688,988.6793,401.8516,988,391.7344" style="stroke:#181818;stroke-width:1.0;"/><polygon fill="#FFFFFF" points="1131,482.7891,1131,482.8591,1133,482.651,1135,482.8535,1137,482.9223,1139,482.5513,1141,482.7891,1140.9223,482.7891,1140.5735,492.9063,1140.6165,503.0234,1140.9318,513.1406,1140.3086,523.2578,1141.5536,533.375,1141,543.4922,1141,543.2821,1139,543.4263,1137,543.6362,1135,543.4636,1133,543.5149,1131,543.4922,1130.9681,543.4922,1131.1785,533.375,1131.2391,523.2578,1131.5857,513.1406,1131.6711,503.0234,1131.6793,492.9063,1131,482.7891" style="stroke:#181818;stroke-width:1.0;"/><polygon fill="#FFFFFF" points="1257.5,573.8438,1257.5,573.9138,1259.5,573.7056,1261.5,573.9082,1263.5,573.977,1265.5,573.606,1267.5,573.8438,1267.4741,573.8438,1267.3578,579.9141,1267.3722,585.9844,1267.4773,592.0547,1267.2695,598.125,1267.5,604.1953,1267.5,604.3799,1265.5,603.9852,1263.5,604.1294,1261.5,604.3393,1259.5,604.1667,1257.5,604.1953,1257.5227,604.1953,1257.4894,598.125,1257.5595,592.0547,1257.5797,585.9844,1257.6952,579.9141,1257.5,573.8438" style="stroke:#181818;stroke-width:1.0;"/><path d="M36,86.2188 L36.2802,86.2188 L35.4476,96.2245 L36.2577,106.2302 L36.5329,116.2359 L35.0488,126.2416 L35.8964,136.2473 L35.4313,146.253 L35.4887,156.2587 L35.9091,166.2645 L35.0782,176.2702 L36.7382,186.2759 L35.1596,196.2816 L35.7363,206.2873 L36.5759,216.293 L35.8856,226.2987 L36.091,236.3045 L35.9574,246.3102 L36.238,256.3159 L36.3188,266.3216 L36.7809,276.3273 L36.8947,286.333 L36.9057,296.3387 L36.3395,306.3444 L36.6181,316.3502 L36.9363,326.3559 L35.0384,336.3616 L36.9047,346.3673 L35.6047,356.373 L36.7117,366.3787 L35.34,376.3844 L35.9087,386.3902 L36.9888,396.3959 L35.935,406.4016 L36.1404,416.4073 L36.4515,426.413 L36.555,436.4187 L35.9948,446.4244 L36.383,456.4302 L35.2368,466.4359 L36.3792,476.4416 L36.7309,486.4473 L36.5927,496.453 L36.8174,506.4587 L35.3559,516.4644 L35.1304,526.4701 L35.1715,536.4759 L35.9215,546.4816 L35.738,556.4873 L36.9085,566.493 L35.7671,576.4987 L35.5426,586.5044 L36.3044,596.5101 L35.1109,606.5159 L35.3078,616.5216 L36.8653,626.5273 L36.5809,636.533 L36.9793,646.5387 L35.5709,656.5444 L36.4256,666.5501 L36.7872,676.5559 L35.3701,686.5616 L35.8722,696.5673 L36.168,706.573 L36.869,716.5787 L35.9944,726.5844 L36.6168,736.5901 L35.2616,746.5958 L36,756.6016 " fill="none" style="stroke:#181818;stroke-width:0.5;stroke-dasharray:5.0,5.0;"/><path d="M143.5,86.2188 L143.7802,86.2188 L142.9476,96.2245 L143.7577,106.2302 L144.0329,116.2359 L142.5488,126.2416 L143.3964,136.2473 L142.9313,146.253 L142.9887,156.2587 L143.4091,166.2645 L142.5782,176.2702 L144.2382,186.2759 L142.6596,196.2816 L143.2363,206.2873 L144.0759,216.293 L143.3856,226.2987 L143.591,236.3045 L143.4574,246.3102 L143.738,256.3159 L143.8188,266.3216 L144.2809,276.3273 L144.3947,286.333 L144.4057,296.3387 L143.8395,306.3444 L144.1181,316.3502 L144.4363,326.3559 L142.5384,336.3616 L144.4047,346.3673 L143.1047,356.373 L144.2117,366.3787 L142.84,376.3844 L143.4087,386.3902 L144.4888,396.3959 L143.435,406.4016 L143.6404,416.4073 L143.9515,426.413 L144.055,436.4187 L143.4948,446.4244 L143.883,456.4302 L142.7368,466.4359 L143.8792,476.4416 L144.2309,486.4473 L144.0927,496.453 L144.3174,506.4587 L142.8559,516.4644 L142.6304,526.4701 L142.6715,536.4759 L143.4215,546.4816 L143.238,556.4873 L144.4085,566.493 L143.2671,576.4987 L143.0426,586.5044 L143.8044,596.5101 L142.6109,606.5159 L142.8078,616.5216 L144.3653,626.5273 L144.0809,636.533 L144.4793,646.5387 L143.0709,656.5444 L143.9256,666.5501 L144.2872,676.5559 L142.8701,686.5616 L143.3722,696.5673 L143.668,706.573 L144.369,716.5787 L143.4944,726.5844 L144.1168,736.5901 L142.7616,746.5958 L143.5,756.6016 " fill="none" style="stroke:#181818;stroke-width:0.5;stroke-dasharray:5.0,5.0;"/><path d="M275.5,86.2188 L275.7802,86.2188 L274.9476,96.2245 L275.7577,106.2302 L276.0329,116.2359 L274.5488,126.2416 L275.3964,136.2473 L274.9313,146.253 L274.9887,156.2587 L275.4091,166.2645 L274.5782,176.2702 L276.2382,186.2759 L274.6596,196.2816 L275.2363,206.2873 L276.0759,216.293 L275.3856,226.2987 L275.591,236.3045 L275.4574,246.3102 L275.738,256.3159 L275.8188,266.3216 L276.2809,276.3273 L276.3947,286.333 L276.4057,296.3387 L275.8395,306.3444 L276.1181,316.3502 L276.4363,326.3559 L274.5384,336.3616 L276.4047,346.3673 L275.1047,356.373 L276.2117,366.3787 L274.84,376.3844 L275.4087,386.3902 L276.4888,396.3959 L275.435,406.4016 L275.6404,416.4073 L275.9515,426.413 L276.055,436.4187 L275.4948,446.4244 L275.883,456.4302 L274.7368,466.4359 L275.8792,476.4416 L276.2309,486.4473 L276.0927,496.453 L276.3174,506.4587 L274.8559,516.4644 L274.6304,526.4701 L274.6715,536.4759 L275.4215,546.4816 L275.238,556.4873 L276.4085,566.493 L275.2671,576.4987 L275.0426,586.5044 L275.8044,596.5101 L274.6109,606.5159 L274.8078,616.5216 L276.3653,626.5273 L276.0809,636.533 L276.4793,646.5387 L275.0709,656.5444 L275.9256,666.5501 L276.2872,676.5559 L274.8701,686.5616 L275.3722,696.5673 L275.668,706.573 L276.369,716.5787 L275.4944,726.5844 L276.1168,736.5901 L274.7616,746.5958 L275.5,756.6016 " fill="none" style="stroke:#181818;stroke-width:0.5;stroke-dasharray:5.0,5.0;"/><path d="M428,86.2188 L428.2802,86.2188 L427.4476,96.2245 L428.2577,106.2302 L428.5329,116.2359 L427.0488,126.2416 L427.8964,136.2473 L427.4313,146.253 L427.4887,156.2587 L427.9091,166.2645 L427.0782,176.2702 L428.7382,186.2759 L427.1596,196.2816 L427.7363,206.2873 L428.5759,216.293 L427.8856,226.2987 L428.091,236.3045 L427.9574,246.3102 L428.238,256.3159 L428.3188,266.3216 L428.7809,276.3273 L428.8947,286.333 L428.9057,296.3387 L428.3395,306.3444 L428.6181,316.3502 L428.9363,326.3559 L427.0384,336.3616 L428.9047,346.3673 L427.6047,356.373 L428.7117,366.3787 L427.34,376.3844 L427.9087,386.3902 L428.9888,396.3959 L427.935,406.4016 L428.1404,416.4073 L428.4515,426.413 L428.555,436.4187 L427.9948,446.4244 L428.383,456.4302 L427.2368,466.4359 L428.3792,476.4416 L428.7309,486.4473 L428.5927,496.453 L428.8174,506.4587 L427.3559,516.4644 L427.1304,526.4701 L427.1715,536.4759 L427.9215,546.4816 L427.738,556.4873 L428.9085,566.493 L427.7671,576.4987 L427.5426,586.5044 L428.3044,596.5101 L427.1109,606.5159 L427.3078,616.5216 L428.8653,626.5273 L428.5809,636.533 L428.9793,646.5387 L427.5709,656.5444 L428.4256,666.5501 L428.7872,676.5559 L427.3701,686.5616 L427.8722,696.5673 L428.168,706.573 L428.869,716.5787 L427.9944,726.5844 L428.6168,736.5901 L427.2616,746.5958 L428,756.6016 " fill="none" style="stroke:#181818;stroke-width:0.5;stroke-dasharray:5.0,5.0;"/><path d="M661,86.2188 L661.2802,86.2188 L660.4476,96.2245 L661.2577,106.2302 L661.5329,116.2359 L660.0488,126.2416 L660.8964,136.2473 L660.4313,146.253 L660.4887,156.2587 L660.9091,166.2645 L660.0782,176.2702 L661.7382,186.2759 L660.1596,196.2816 L660.7363,206.2873 L661.5759,216.293 L660.8856,226.2987 L661.091,236.3045 L660.9574,246.3102 L661.238,256.3159 L661.3188,266.3216 L661.7809,276.3273 L661.8947,286.333 L661.9057,296.3387 L661.3395,306.3444 L661.6181,316.3502 L661.9363,326.3559 L660.0384,336.3616 L661.9047,346.3673 L660.6047,356.373 L661.7117,366.3787 L660.34,376.3844 L660.9087,386.3902 L661.9888,396.3959 L660.935,406.4016 L661.1404,416.4073 L661.4515,426.413 L661.555,436.4187 L660.9948,446.4244 L661.383,456.4302 L660.2368,466.4359 L661.3792,476.4416 L661.7309,486.4473 L661.5927,496.453 L661.8174,506.4587 L660.3559,516.4644 L660.1304,526.4701 L660.1715,536.4759 L660.9215,546.4816 L660.738,556.4873 L661.9085,566.493 L660.7671,576.4987 L660.5426,586.5044 L661.3044,596.5101 L660.1109,606.5159 L660.3078,616.5216 L661.8653,626.5273 L661.5809,636.533 L661.9793,646.5387 L660.5709,656.5444 L661.4256,666.5501 L661.7872,676.5559 L660.3701,686.5616 L660.8722,696.5673 L661.168,706.573 L661.869,716.5787 L660.9944,726.5844 L661.6168,736.5901 L660.2616,746.5958 L661,756.6016 " fill="none" style="stroke:#181818;stroke-width:0.5;stroke-dasharray:5.0,5.0;"/><path d="M829,86.2188 L829.2802,86.2188 L828.4476,96.2245 L829.2577,106.2302 L829.5329,116.2359 L828.0488,126.2416 L828.8964,136.2473 L828.4313,146.253 L828.4887,156.2587 L828.9091,166.2645 L828.0782,176.2702 L829.7382,186.2759 L828.1596,196.2816 L828.7363,206.2873 L829.5759,216.293 L828.8856,226.2987 L829.091,236.3045 L828.9574,246.3102 L829.238,256.3159 L829.3188,266.3216 L829.7809,276.3273 L829.8947,286.333 L829.9057,296.3387 L829.3395,306.3444 L829.6181,316.3502 L829.9363,326.3559 L828.0384,336.3616 L829.9047,346.3673 L828.6047,356.373 L829.7117,366.3787 L828.34,376.3844 L828.9087,386.3902 L829.9888,396.3959 L828.935,406.4016 L829.1404,416.4073 L829.4515,426.413 L829.555,436.4187 L828.9948,446.4244 L829.383,456.4302 L828.2368,466.4359 L829.3792,476.4416 L829.7309,486.4473 L829.5927,496.453 L829.8174,506.4587 L828.3559,516.4644 L828.1304,526.4701 L828.1715,536.4759 L828.9215,546.4816 L828.738,556.4873 L829.9085,566.493 L828.7671,576.4987 L828.5426,586.5044 L829.3044,596.5101 L828.1109,606.5159 L828.3078,616.5216 L829.8653,626.5273 L829.5809,636.533 L829.9793,646.5387 L828.5709,656.5444 L829.4256,666.5501 L829.7872,676.5559 L828.3701,686.5616 L828.8722,696.5673 L829.168,706.573 L829.869,716.5787 L828.9944,726.5844 L829.6168,736.5901 L828.2616,746.5958 L829,756.6016 " fill="none" style="stroke:#181818;stroke-width:0.5;stroke-dasharray:5.0,5.0;"/><path d="M993,86.2188 L993.2802,86.2188 L992.4476,96.2245 L993.2577,106.2302 L993.5329,116.2359 L992.0488,126.2416 L992.8964,136.2473 L992.4313,146.253 L992.4887,156.2587 L992.9091,166.2645 L992.0782,176.2702 L993.7382,186.2759 L992.1596,196.2816 L992.7363,206.2873 L993.5759,216.293 L992.8856,226.2987 L993.091,236.3045 L992.9574,246.3102 L993.238,256.3159 L993.3188,266.3216 L993.7809,276.3273 L993.8947,286.333 L993.9057,296.3387 L993.3395,306.3444 L993.6181,316.3502 L993.9363,326.3559 L992.0384,336.3616 L993.9047,346.3673 L992.6047,356.373 L993.7117,366.3787 L992.34,376.3844 L992.9087,386.3902 L993.9888,396.3959 L992.935,406.4016 L993.1404,416.4073 L993.4515,426.413 L993.555,436.4187 L992.9948,446.4244 L993.383,456.4302 L992.2368,466.4359 L993.3792,476.4416 L993.7309,486.4473 L993.5927,496.453 L993.8174,506.4587 L992.3559,516.4644 L992.1304,526.4701 L992.1715,536.4759 L992.9215,546.4816 L992.738,556.4873 L993.9085,566.493 L992.7671,576.4987 L992.5426,586.5044 L993.3044,596.5101 L992.1109,606.5159 L992.3078,616.5216 L993.8653,626.5273 L993.5809,636.533 L993.9793,646.5387 L992.5709,656.5444 L993.4256,666.5501 L993.7872,676.5559 L992.3701,686.5616 L992.8722,696.5673 L993.168,706.573 L993.869,716.5787 L992.9944,726.5844 L993.6168,736.5901 L992.2616,746.5958 L993,756.6016 " fill="none" style="stroke:#181818;stroke-width:0.5;stroke-dasharray:5.0,5.0;"/><path d="M1136,86.2188 L1136.2802,86.2188 L1135.4476,96.2245 L1136.2577,106.2302 L1136.5329,116.2359 L1135.0488,126.2416 L1135.8964,136.2473 L1135.4313,146.253 L1135.4887,156.2587 L1135.9091,166.2645 L1135.0782,176.2702 L1136.7382,186.2759 L1135.1596,196.2816 L1135.7363,206.2873 L1136.5759,216.293 L1135.8856,226.2987 L1136.091,236.3045 L1135.9574,246.3102 L1136.238,256.3159 L1136.3188,266.3216 L1136.7809,276.3273 L1136.8947,286.333 L1136.9057,296.3387 L1136.3395,306.3444 L1136.6181,316.3502 L1136.9363,326.3559 L1135.0384,336.3616 L1136.9047,346.3673 L1135.6047,356.373 L1136.7117,366.3787 L1135.34,376.3844 L1135.9087,386.3902 L1136.9888,396.3959 L1135.935,406.4016 L1136.1404,416.4073 L1136.4515,426.413 L1136.555,436.4187 L1135.9948,446.4244 L1136.383,456.4302 L1135.2368,466.4359 L1136.3792,476.4416 L1136.7309,486.4473 L1136.5927,496.453 L1136.8174,506.4587 L1135.3559,516.4644 L1135.1304,526.4701 L1135.1715,536.4759 L1135.9215,546.4816 L1135.738,556.4873 L1136.9085,566.493 L1135.7671,576.4987 L1135.5426,586.5044 L1136.3044,596.5101 L1135.1109,606.5159 L1135.3078,616.5216 L1136.8653,626.5273 L1136.5809,636.533 L1136.9793,646.5387 L1135.5709,656.5444 L1136.4256,666.5501 L1136.7872,676.5559 L1135.3701,686.5616 L1135.8722,696.5673 L1136.168,706.573 L1136.869,716.5787 L1135.9944,726.5844 L1136.6168,736.5901 L1135.2616,746.5958 L1136,756.6016 " fill="none" style="stroke:#181818;stroke-width:0.5;stroke-dasharray:5.0,5.0;"/><path d="M1262,86.2188 L1262.2802,86.2188 L1261.4476,96.2245 L1262.2577,106.2302 L1262.5329,116.2359 L1261.0488,126.2416 L1261.8964,136.2473 L1261.4313,146.253 L1261.4887,156.2587 L1261.9091,166.2645 L1261.0782,176.2702 L1262.7382,186.2759 L1261.1596,196.2816 L1261.7363,206.2873 L1262.5759,216.293 L1261.8856,226.2987 L1262.091,236.3045 L1261.9574,246.3102 L1262.238,256.3159 L1262.3188,266.3216 L1262.7809,276.3273 L1262.8947,286.333 L1262.9057,296.3387 L1262.3395,306.3444 L1262.6181,316.3502 L1262.9363,326.3559 L1261.0384,336.3616 L1262.9047,346.3673 L1261.6047,356.373 L1262.7117,366.3787 L1261.34,376.3844 L1261.9087,386.3902 L1262.9888,396.3959 L1261.935,406.4016 L1262.1404,416.4073 L1262.4515,426.413 L1262.555,436.4187 L1261.9948,446.4244 L1262.383,456.4302 L1261.2368,466.4359 L1262.3792,476.4416 L1262.7309,486.4473 L1262.5927,496.453 L1262.8174,506.4587 L1261.3559,516.4644 L1261.1304,526.4701 L1261.1715,536.4759 L1261.9215,546.4816 L1261.738,556.4873 L1262.9085,566.493 L1261.7671,576.4987 L1261.5426,586.5044 L1262.3044,596.5101 L1261.1109,606.5159 L1261.3078,616.5216 L1262.8653,626.5273 L1262.5809,636.533 L1262.9793,646.5387 L1261.5709,656.5444 L1262.4256,666.5501 L1262.7872,676.5559 L1261.3701,686.5616 L1261.8722,696.5673 L1262.168,706.573 L1262.869,716.5787 L1261.9944,726.5844 L1262.6168,736.5901 L1261.2616,746.5958 L1262,756.6016 " fill="none" style="stroke:#181818;stroke-width:0.5;stroke-dasharray:5.0,5.0;"/><text fill="#000000" font-family="FG Virgil" font-size="14" lengthAdjust="spacing" textLength="56" x="5" y="83.1426">Manager</text><polygon fill="#E3E3E3" points="44.0442,19.0553,42.8715,20.6576,41.4845,23.0044,39.5008,24.586,37.4163,25.4509,35.7542,25.526,33.618,24.4443,31.6023,23.7377,30.0724,22.303,29.2699,20.6605,28.7939,19.3527,28.3277,17.6444,27.5709,16.1744,28.1525,14.7392,28.662,13.167,30.574,11.9235,31.9192,10.3102,33.5843,9.7744,35.5637,9.313,38.1021,9.5872,39.4924,10.2429,41.1089,10.5401,43.0743,12.5537,43.7595,14.6795,44.0571,16.13,43.72,18.5202" style="stroke:#181818;stroke-width:0.5;"/><path d="M36,25.1094 L36.1868,25.1094 L35.6317,30.5094 L36.1718,35.9094 L36.3553,41.3094 L35.3659,46.7094 L36,52.1094 M23,33.1094 L23,33.0403 L28.2,32.7303 L33.4,32.7685 L38.6,33.0488 L43.8,32.4948 L49,33.1094 M36,52.1094 L36.3719,52.4317 L32.9766,54.7425 L30.6672,57.9942 L28.4901,61.3608 L25.5424,64.0594 L23,67.1094 M36,52.1094 L36.0458,52.1491 L38.5785,55.0908 L41.3199,58.2133 L43.9606,61.2486 L46.7934,64.4503 L49,67.1094 " fill="none" style="stroke:#181818;stroke-width:0.5;"/><text fill="#000000" font-family="FG Virgil" font-size="14" lengthAdjust="spacing" textLength="56" x="5" y="770.1348">Manager</text><polygon fill="#E3E3E3" points="44.0442,783.6569,42.8715,785.2592,41.4845,787.606,39.5008,789.1876,37.4163,790.0525,35.7542,790.1275,33.618,789.0459,31.6023,788.3392,30.0724,786.9045,29.2699,785.262,28.7939,783.9542,28.3277,782.246,27.5709,780.776,28.1525,779.3408,28.662,777.7686,30.574,776.5251,31.9192,774.9117,33.5843,774.376,35.5637,773.9146,38.1021,774.1887,39.4924,774.8444,41.1089,775.1416,43.0743,777.1553,43.7595,779.2811,44.0571,780.7316,43.72,783.1218" style="stroke:#181818;stroke-width:0.5;"/><path d="M36,789.7109 L36.1868,789.7109 L35.6317,795.1109 L36.1718,800.5109 L36.3553,805.9109 L35.3659,811.3109 L36,816.7109 M23,797.7109 L23,797.6419 L28.2,797.3318 L33.4,797.37 L38.6,797.6504 L43.8,797.0964 L49,797.7109 M36,816.7109 L36.3719,817.0332 L32.9766,819.344 L30.6672,822.5958 L28.4901,825.9624 L25.5424,828.661 L23,831.7109 M36,816.7109 L36.0458,816.7507 L38.5785,819.6923 L41.3199,822.8149 L43.9606,825.8502 L46.7934,829.0519 L49,831.7109 " fill="none" style="stroke:#181818;stroke-width:0.5;"/><polygon fill="#E3E3E3" points="92,36,92,36.2102,102.4,35.5857,112.8,36.1933,123.2,36.3997,133.6,35.2866,144,35.9223,154.4,35.5735,164.8,35.6165,175.2,35.9318,185.6,35.3086,196,36,196.0706,36.1705,196.2732,35.9523,196.6819,36.232,197.1158,36.5724,197.4033,36.5594,197.7678,36.7322,197.7888,36.7409,197.9044,37.0817,198.1156,37.4621,198.2808,37.8234,198.5339,38.2212,198.5,38.5,198.7237,38.5,198.7264,47.3438,198.5849,56.1875,198.6545,65.0313,198.7341,73.875,198.5,82.7188,198.2779,82.6268,198.5625,83.1589,198.1158,83.388,198.2251,83.8475,197.7618,84.0698,197.7678,84.4865,197.759,84.4654,197.5088,84.8613,197.0544,84.7644,196.7205,84.9583,196.3967,85.1766,196,85.2188,196,85.635,185.6,85.2148,175.2,85.506,164.8,84.6463,154.4,85.5031,144,85.7669,133.6,85.6633,123.2,85.8318,112.8,84.7357,102.4,84.5666,92,85.2188,91.9207,85.0274,91.6389,85.0542,91.2678,84.8653,91.0263,84.9893,90.5635,84.5792,90.2322,84.4865,90.1266,84.4428,90.1561,84.1621,89.734,83.6943,89.633,83.3596,89.8463,83.1551,89.5,82.7188,89.6452,82.7188,89.7448,73.875,89.3927,65.0313,89.6064,56.1875,89.6968,47.3438,89.5,38.5,89.3545,38.4397,89.6169,38.1342,89.8317,37.809,90.1401,37.5225,90.0845,37.0853,90.2322,36.7322,90.2912,36.8747,90.5151,36.4152,90.8529,36.2308,91.3571,36.448,91.555,35.9257,92,36" style="stroke:#181818;stroke-width:0.5;"/><text fill="#000000" font-family="FG Virgil" font-size="14" font-style="italic" lengthAdjust="spacing" textLength="95" x="96.5" y="57.5332">«presentation»</text><text fill="#000000" font-family="FG Virgil" font-size="14" lengthAdjust="spacing" textLength="70" x="109" y="75.1426">ListUsersUI</text><polygon fill="#E3E3E3" points="92,755.6016,92,755.8117,102.4,755.1872,112.8,755.7948,123.2,756.0012,133.6,754.8882,144,755.5238,154.4,755.1751,164.8,755.2181,175.2,755.5334,185.6,754.9102,196,755.6016,196.0706,755.7721,196.2732,755.5539,196.6819,755.8336,197.1158,756.1739,197.4033,756.1609,197.7678,756.3338,197.7888,756.3425,197.9044,756.6833,198.1156,757.0637,198.2808,757.425,198.5339,757.8227,198.5,758.1016,198.7237,758.1016,198.7264,766.9453,198.5849,775.7891,198.6545,784.6328,198.7341,793.4766,198.5,802.3203,198.2779,802.2283,198.5625,802.7604,198.1158,802.9896,198.2251,803.4491,197.7618,803.6714,197.7678,804.0881,197.759,804.067,197.5088,804.4629,197.0544,804.366,196.7205,804.5598,196.3967,804.7781,196,804.8203,196,805.2365,185.6,804.8164,175.2,805.1075,164.8,804.2479,154.4,805.1047,144,805.3685,133.6,805.2648,123.2,805.4333,112.8,804.3372,102.4,804.1681,92,804.8203,91.9207,804.6289,91.6389,804.6557,91.2678,804.4669,91.0263,804.5908,90.5635,804.1807,90.2322,804.0881,90.1266,804.0443,90.1561,803.7636,89.734,803.2959,89.633,802.9612,89.8463,802.7566,89.5,802.3203,89.6452,802.3203,89.7448,793.4766,89.3927,784.6328,89.6064,775.7891,89.6968,766.9453,89.5,758.1016,89.3545,758.0413,89.6169,757.7358,89.8317,757.4105,90.1401,757.124,90.0845,756.6868,90.2322,756.3338,90.2912,756.4762,90.5151,756.0168,90.8529,755.8323,91.3571,756.0495,91.555,755.5272,92,755.6016" style="stroke:#181818;stroke-width:0.5;"/><text fill="#000000" font-family="FG Virgil" font-size="14" font-style="italic" lengthAdjust="spacing" textLength="95" x="96.5" y="777.1348">«presentation»</text><text fill="#000000" font-family="FG Virgil" font-size="14" lengthAdjust="spacing" textLength="70" x="109" y="794.7441">ListUsersUI</text><polygon fill="#E3E3E3" points="211,36,211,36.2102,220.9231,35.5857,230.8462,36.1933,240.7692,36.3997,250.6923,35.2866,260.6154,35.9223,270.5385,35.5735,280.4615,35.6165,290.3846,35.9318,300.3077,35.3086,310.2308,36.5536,320.1538,35.3697,330.0769,35.8022,340,36,340.0551,36.133,340.3426,36.12,340.7158,36.3139,341.0566,36.4295,341.437,36.6408,341.7678,36.7322,341.8414,36.7627,342.0946,37.1605,342.2673,37.5249,342.4163,37.8795,342.432,38.1789,342.5,38.5,342.6545,38.5,342.7341,47.3438,342.2596,56.1875,342.7262,65.0313,342.4012,73.875,342.5,82.7188,342.6644,82.7868,342.2011,83.0092,342.186,83.4171,342.289,83.874,341.8992,84.1267,341.7678,84.4865,341.7812,84.5189,341.4574,84.7372,341.1138,84.9076,340.7066,84.9247,340.3902,85.1608,340,85.2188,340,84.6463,330.0769,85.5031,320.1538,85.7669,310.2308,85.6633,300.3077,85.8318,290.3846,84.7357,280.4615,84.5666,270.5385,84.5973,260.6154,85.1599,250.6923,85.0222,240.7692,85.9002,230.8462,85.0441,220.9231,84.8757,211,85.2188,211.0291,85.289,210.5614,84.8669,210.2267,84.766,210.0221,84.9793,209.6414,84.7671,209.2322,84.4865,209.4584,84.5802,208.9867,84.0919,209.0376,83.8201,208.9747,83.5012,208.501,83.012,208.5,82.7188,208.468,82.7188,208.542,73.875,208.7173,65.0313,208.4986,56.1875,208.6542,47.3438,208.5,38.5,208.3295,38.4294,208.4379,38.0601,208.948,37.8571,208.7186,37.3479,209.2425,37.1507,209.2322,36.7322,209.2586,36.7959,209.5516,36.5033,209.8942,36.3304,210.3514,36.4342,210.6083,36.0543,211,36" style="stroke:#181818;stroke-width:0.5;"/><text fill="#000000" font-family="FG Virgil" font-size="14" font-style="italic" lengthAdjust="spacing" textLength="84" x="233.5" y="57.5332">«application»</text><text fill="#000000" font-family="FG Virgil" font-size="14" lengthAdjust="spacing" textLength="120" x="215.5" y="75.1426">ListUsersController</text><polygon fill="#E3E3E3" points="211,755.6016,211,755.8117,220.9231,755.1872,230.8462,755.7948,240.7692,756.0012,250.6923,754.8882,260.6154,755.5238,270.5385,755.1751,280.4615,755.2181,290.3846,755.5334,300.3077,754.9102,310.2308,756.1552,320.1538,754.9713,330.0769,755.4038,340,755.6016,340.0551,755.7346,340.3426,755.7216,340.7158,755.9155,341.0566,756.0311,341.437,756.2423,341.7678,756.3338,341.8414,756.3643,342.0946,756.7621,342.2673,757.1265,342.4163,757.4811,342.432,757.7805,342.5,758.1016,342.6545,758.1016,342.7341,766.9453,342.2596,775.7891,342.7262,784.6328,342.4012,793.4766,342.5,802.3203,342.6644,802.3884,342.2011,802.6107,342.186,803.0187,342.289,803.4756,341.8992,803.7283,341.7678,804.0881,341.7812,804.1205,341.4574,804.3388,341.1138,804.5092,340.7066,804.5262,340.3902,804.7623,340,804.8203,340,804.2479,330.0769,805.1047,320.1538,805.3685,310.2308,805.2648,300.3077,805.4333,290.3846,804.3372,280.4615,804.1681,270.5385,804.1989,260.6154,804.7614,250.6923,804.6238,240.7692,805.5017,230.8462,804.6456,220.9231,804.4773,211,804.8203,211.0291,804.8906,210.5614,804.4685,210.2267,804.3675,210.0221,804.5808,209.6414,804.3687,209.2322,804.0881,209.4584,804.1818,208.9867,803.6935,209.0376,803.4217,208.9747,803.1027,208.501,802.6136,208.5,802.3203,208.468,802.3203,208.542,793.4766,208.7173,784.6328,208.4986,775.7891,208.6542,766.9453,208.5,758.1016,208.3295,758.0309,208.4379,757.6616,208.948,757.4587,208.7186,756.9494,209.2425,756.7523,209.2322,756.3338,209.2586,756.3974,209.5516,756.1048,209.8942,755.932,210.3514,756.0357,210.6083,755.6558,211,755.6016" style="stroke:#181818;stroke-width:0.5;"/><text fill="#000000" font-family="FG Virgil" font-size="14" font-style="italic" lengthAdjust="spacing" textLength="84" x="233.5" y="777.1348">«application»</text><text fill="#000000" font-family="FG Virgil" font-size="14" lengthAdjust="spacing" textLength="120" x="215.5" y="794.7441">ListUsersController</text><polygon fill="#E3E3E3" points="380.5,36,380.5,36.2102,390.1,35.5857,399.7,36.1933,409.3,36.3997,418.9,35.2866,428.5,35.9223,438.1,35.5735,447.7,35.6165,457.3,35.9318,466.9,35.3086,476.5,36,476.5706,36.1705,476.7732,35.9523,477.1819,36.232,477.6158,36.5724,477.9033,36.5594,478.2678,36.7322,478.2888,36.7409,478.4044,37.0817,478.6156,37.4621,478.7808,37.8234,479.0339,38.2212,479,38.5,479.2237,38.5,479.2264,47.3438,479.0849,56.1875,479.1545,65.0313,479.2341,73.875,479,82.7188,478.7779,82.6268,479.0625,83.1589,478.6158,83.388,478.7251,83.8475,478.2618,84.0698,478.2678,84.4865,478.259,84.4654,478.0088,84.8613,477.5544,84.7644,477.2205,84.9583,476.8967,85.1766,476.5,85.2188,476.5,85.635,466.9,85.2148,457.3,85.506,447.7,84.6463,438.1,85.5031,428.5,85.7669,418.9,85.6633,409.3,85.8318,399.7,84.7357,390.1,84.5666,380.5,85.2188,380.4207,85.0274,380.1389,85.0542,379.7678,84.8653,379.5263,84.9893,379.0635,84.5792,378.7322,84.4865,378.6266,84.4428,378.6561,84.1621,378.234,83.6943,378.133,83.3596,378.3463,83.1551,378,82.7188,378.1452,82.7188,378.2448,73.875,377.8927,65.0313,378.1064,56.1875,378.1968,47.3438,378,38.5,377.8545,38.4397,378.1169,38.1342,378.3317,37.809,378.6401,37.5225,378.5845,37.0853,378.7322,36.7322,378.7912,36.8747,379.0151,36.4152,379.3529,36.2308,379.8571,36.448,380.055,35.9257,380.5,36" style="stroke:#181818;stroke-width:0.5;"/><text fill="#000000" font-family="FG Virgil" font-size="14" font-style="italic" lengthAdjust="spacing" textLength="34" x="411.5" y="57.5332">«util»</text><text fill="#000000" font-family="FG Virgil" font-size="14" lengthAdjust="spacing" textLength="87" x="385" y="75.1426">AuthzRegistry</text><polygon fill="#E3E3E3" points="380.5,755.6016,380.5,755.8117,390.1,755.1872,399.7,755.7948,409.3,756.0012,418.9,754.8882,428.5,755.5238,438.1,755.1751,447.7,755.2181,457.3,755.5334,466.9,754.9102,476.5,755.6016,476.5706,755.7721,476.7732,755.5539,477.1819,755.8336,477.6158,756.1739,477.9033,756.1609,478.2678,756.3338,478.2888,756.3425,478.4044,756.6833,478.6156,757.0637,478.7808,757.425,479.0339,757.8227,479,758.1016,479.2237,758.1016,479.2264,766.9453,479.0849,775.7891,479.1545,784.6328,479.2341,793.4766,479,802.3203,478.7779,802.2283,479.0625,802.7604,478.6158,802.9896,478.7251,803.4491,478.2618,803.6714,478.2678,804.0881,478.259,804.067,478.0088,804.4629,477.5544,804.366,477.2205,804.5598,476.8967,804.7781,476.5,804.8203,476.5,805.2365,466.9,804.8164,457.3,805.1075,447.7,804.2479,438.1,805.1047,428.5,805.3685,418.9,805.2648,409.3,805.4333,399.7,804.3372,390.1,804.1681,380.5,804.8203,380.4207,804.6289,380.1389,804.6557,379.7678,804.4669,379.5263,804.5908,379.0635,804.1807,378.7322,804.0881,378.6266,804.0443,378.6561,803.7636,378.234,803.2959,378.133,802.9612,378.3463,802.7566,378,802.3203,378.1452,802.3203,378.2448,793.4766,377.8927,784.6328,378.1064,775.7891,378.1968,766.9453,378,758.1016,377.8545,758.0413,378.1169,757.7358,378.3317,757.4105,378.6401,757.124,378.5845,756.6868,378.7322,756.3338,378.7912,756.4762,379.0151,756.0168,379.3529,755.8323,379.8571,756.0495,380.055,755.5272,380.5,755.6016" style="stroke:#181818;stroke-width:0.5;"/><text fill="#000000" font-family="FG Virgil" font-size="14" font-style="italic" lengthAdjust="spacing" textLength="34" x="411.5" y="777.1348">«util»</text><text fill="#000000" font-family="FG Virgil" font-size="14" lengthAdjust="spacing" textLength="87" x="385" y="794.7441">AuthzRegistry</text><polygon fill="#E3E3E3" points="592.5,36,592.5,36.2102,602.3571,35.5857,612.2143,36.1933,622.0714,36.3997,631.9286,35.2866,641.7857,35.9223,651.6429,35.5735,661.5,35.6165,671.3571,35.9318,681.2143,35.3086,691.0714,36.5536,700.9286,35.3697,710.7857,35.8022,720.6429,36.4319,730.5,36,730.4891,35.9736,730.8623,36.1675,731.203,36.2831,731.5834,36.4943,731.9447,36.6594,732.2678,36.7322,732.4481,36.8069,732.6209,37.1714,732.7698,37.526,732.7855,37.8254,732.9963,38.2056,733,38.5,733.2341,38.5,732.7596,47.3438,733.2262,56.1875,732.9012,65.0313,733.1779,73.875,733,82.7188,732.8476,82.6556,732.8325,83.0636,732.9355,83.5205,732.5457,83.7732,732.4466,84.1464,732.2678,84.4865,732.311,84.5908,731.9673,84.7611,731.5602,84.7782,731.2437,85.0143,730.7805,84.896,730.5,85.2188,730.5,85.5031,720.6429,85.7669,710.7857,85.6633,700.9286,85.8318,691.0714,84.7357,681.2143,84.5666,671.3571,84.5973,661.5,85.1599,651.6429,85.0222,641.7857,85.9002,631.9286,85.0441,622.0714,84.8757,612.2143,85.447,602.3571,84.5519,592.5,85.2188,592.4338,85.0589,592.2292,85.2722,591.8485,85.06,591.533,85.0056,591.0447,84.5339,590.7322,84.4865,590.8305,84.5272,590.7676,84.2083,590.2939,83.7191,590.2634,83.4136,590.1852,83.0884,590,82.7188,590.2173,82.7188,589.9986,73.875,590.1542,65.0313,589.8154,56.1875,589.7742,47.3438,590,38.5,590.1551,38.5642,589.9257,38.055,590.4496,37.8578,590.503,37.4657,590.5033,37.0516,590.7322,36.7322,590.6871,36.6233,591.1443,36.7271,591.4012,36.3472,591.8684,36.4752,592.0759,35.9762,592.5,36" style="stroke:#181818;stroke-width:0.5;"/><text fill="#000000" font-family="FG Virgil" font-size="14" font-style="italic" lengthAdjust="spacing" textLength="60" x="631.5" y="57.5332">«service»</text><text fill="#000000" font-family="FG Virgil" font-size="14" lengthAdjust="spacing" textLength="129" x="597" y="75.1426">AuthorizationService</text><polygon fill="#E3E3E3" points="592.5,755.6016,592.5,755.8117,602.3571,755.1872,612.2143,755.7948,622.0714,756.0012,631.9286,754.8882,641.7857,755.5238,651.6429,755.1751,661.5,755.2181,671.3571,755.5334,681.2143,754.9102,691.0714,756.1552,700.9286,754.9713,710.7857,755.4038,720.6429,756.0335,730.5,755.6016,730.4891,755.5751,730.8623,755.769,731.203,755.8846,731.5834,756.0959,731.9447,756.261,732.2678,756.3338,732.4481,756.4085,732.6209,756.7729,732.7698,757.1275,732.7855,757.4269,732.9963,757.8071,733,758.1016,733.2341,758.1016,732.7596,766.9453,733.2262,775.7891,732.9012,784.6328,733.1779,793.4766,733,802.3203,732.8476,802.2572,732.8325,802.6651,732.9355,803.122,732.5457,803.3748,732.4466,803.748,732.2678,804.0881,732.311,804.1924,731.9673,804.3627,731.5602,804.3798,731.2437,804.6159,730.7805,804.4976,730.5,804.8203,730.5,805.1047,720.6429,805.3685,710.7857,805.2648,700.9286,805.4333,691.0714,804.3372,681.2143,804.1681,671.3571,804.1989,661.5,804.7614,651.6429,804.6238,641.7857,805.5017,631.9286,804.6456,622.0714,804.4773,612.2143,805.0486,602.3571,804.1535,592.5,804.8203,592.4338,804.6604,592.2292,804.8737,591.8485,804.6616,591.533,804.6072,591.0447,804.1354,590.7322,804.0881,590.8305,804.1288,590.7676,803.8098,590.2939,803.3207,590.2634,803.0152,590.1852,802.6899,590,802.3203,590.2173,802.3203,589.9986,793.4766,590.1542,784.6328,589.8154,775.7891,589.7742,766.9453,590,758.1016,590.1551,758.1658,589.9257,757.6566,590.4496,757.4594,590.503,757.0673,590.5033,756.6532,590.7322,756.3338,590.6871,756.2248,591.1443,756.3286,591.4012,755.9487,591.8684,756.0767,592.0759,755.5778,592.5,755.6016" style="stroke:#181818;stroke-width:0.5;"/><text fill="#000000" font-family="FG Virgil" font-size="14" font-style="italic" lengthAdjust="spacing" textLength="60" x="631.5" y="777.1348">«service»</text><text fill="#000000" font-family="FG Virgil" font-size="14" lengthAdjust="spacing" textLength="129" x="597" y="794.7441">AuthorizationService</text><polygon fill="#E3E3E3" points="745.5,36,745.5,36.2102,755.3235,35.5857,765.1471,36.1933,774.9706,36.3997,784.7941,35.2866,794.6176,35.9223,804.4412,35.5735,814.2647,35.6165,824.0882,35.9318,833.9118,35.3086,843.7353,36.5536,853.5588,35.3697,863.3824,35.8022,873.2059,36.4319,883.0294,35.9142,892.8529,36.0682,902.6765,35.9681,912.5,36,912.5228,36.055,912.8841,36.2201,913.2818,36.4733,913.6463,36.646,914.0009,36.795,914.2678,36.7322,914.3462,36.7647,914.557,37.1449,914.7769,37.5289,914.485,37.7009,915.0625,38.233,915,38.5,914.9012,38.5,915.1779,47.3438,914.835,56.1875,914.9772,65.0313,915.2472,73.875,915,82.7188,914.985,82.7125,914.886,83.0857,914.8114,83.4691,914.6888,83.8325,914.413,84.1325,914.2678,84.4865,914.3044,84.575,913.8412,84.4567,913.5969,84.867,913.277,85.0947,912.9103,85.2092,912.5,85.2188,912.5,85.8318,902.6765,84.7357,892.8529,84.5666,883.0294,84.5973,873.2059,85.1599,863.3824,85.0222,853.5588,85.9002,843.7353,85.0441,833.9118,84.8757,824.0882,85.447,814.2647,84.5519,804.4412,84.6996,794.6176,85.8677,784.7941,85.6544,774.9706,85.9532,765.1471,84.897,755.3235,85.5379,745.5,85.2188,745.5753,85.4006,745.0862,84.9268,744.7807,84.8963,744.4554,84.8182,744.1689,84.8337,743.7322,84.4865,743.7309,84.486,743.7282,84.192,743.2688,83.7088,743.0843,83.3395,743.3015,83.1365,743,82.7188,742.761,82.7188,743.1697,73.875,743.0689,65.0313,742.9107,56.1875,742.8821,47.3438,743,38.5,743.1413,38.5585,743.0543,38.1083,743.4752,37.8684,743.2691,37.3688,743.7759,37.1645,743.7322,36.7322,743.794,36.8814,744.117,36.6612,744.4454,36.4539,744.8856,36.5167,745.2247,36.3354,745.5,36" style="stroke:#181818;stroke-width:0.5;"/><text fill="#000000" font-family="FG Virgil" font-size="14" font-style="italic" lengthAdjust="spacing" textLength="60" x="799" y="57.5332">«service»</text><text fill="#000000" font-family="FG Virgil" font-size="14" lengthAdjust="spacing" textLength="158" x="750" y="75.1426">UserManagementService</text><polygon fill="#E3E3E3" points="745.5,755.6016,745.5,755.8117,755.3235,755.1872,765.1471,755.7948,774.9706,756.0012,784.7941,754.8882,794.6176,755.5238,804.4412,755.1751,814.2647,755.2181,824.0882,755.5334,833.9118,754.9102,843.7353,756.1552,853.5588,754.9713,863.3824,755.4038,873.2059,756.0335,883.0294,755.5158,892.8529,755.6698,902.6765,755.5696,912.5,755.6016,912.5228,755.6565,912.8841,755.8217,913.2818,756.0748,913.6463,756.2476,914.0009,756.3965,914.2678,756.3338,914.3462,756.3663,914.557,756.7465,914.7769,757.1305,914.485,757.3025,915.0625,757.8346,915,758.1016,914.9012,758.1016,915.1779,766.9453,914.835,775.7891,914.9772,784.6328,915.2472,793.4766,915,802.3203,914.985,802.3141,914.886,802.6873,914.8114,803.0706,914.6888,803.4341,914.413,803.734,914.2678,804.0881,914.3044,804.1765,913.8412,804.0582,913.5969,804.4686,913.277,804.6962,912.9103,804.8108,912.5,804.8203,912.5,805.4333,902.6765,804.3372,892.8529,804.1681,883.0294,804.1989,873.2059,804.7614,863.3824,804.6238,853.5588,805.5017,843.7353,804.6456,833.9118,804.4773,824.0882,805.0486,814.2647,804.1535,804.4412,804.3012,794.6176,805.4693,784.7941,805.256,774.9706,805.5548,765.1471,804.4985,755.3235,805.1395,745.5,804.8203,745.5753,805.0021,745.0862,804.5284,744.7807,804.4979,744.4554,804.4198,744.1689,804.4352,743.7322,804.0881,743.7309,804.0875,743.7282,803.7935,743.2688,803.3103,743.0843,802.941,743.3015,802.7381,743,802.3203,742.761,802.3203,743.1697,793.4766,743.0689,784.6328,742.9107,775.7891,742.8821,766.9453,743,758.1016,743.1413,758.1601,743.0543,757.7098,743.4752,757.47,743.2691,756.9704,743.7759,756.7661,743.7322,756.3338,743.794,756.4829,744.117,756.2628,744.4454,756.0554,744.8856,756.1182,745.2247,755.937,745.5,755.6016" style="stroke:#181818;stroke-width:0.5;"/><text fill="#000000" font-family="FG Virgil" font-size="14" font-style="italic" lengthAdjust="spacing" textLength="60" x="799" y="777.1348">«service»</text><text fill="#000000" font-family="FG Virgil" font-size="14" lengthAdjust="spacing" textLength="158" x="750" y="794.7441">UserManagementService</text><polygon fill="#E3E3E3" points="927.5,36,927.5,36.2102,937.5769,35.5857,947.6538,36.1933,957.7308,36.3997,967.8077,35.2866,977.8846,35.9223,987.9615,35.5735,998.0385,35.6165,1008.1154,35.9318,1018.1923,35.3086,1028.2692,36.5536,1038.3462,35.3697,1048.4231,35.8022,1058.5,36,1058.5551,36.133,1058.8426,36.12,1059.2158,36.3139,1059.5566,36.4295,1059.937,36.6408,1060.2678,36.7322,1060.3414,36.7627,1060.5946,37.1605,1060.7673,37.5249,1060.9163,37.8795,1060.932,38.1789,1061,38.5,1061.1545,38.5,1061.2341,47.3438,1060.7596,56.1875,1061.2262,65.0313,1060.9012,73.875,1061,82.7188,1061.1644,82.7868,1060.7011,83.0092,1060.686,83.4171,1060.789,83.874,1060.3992,84.1267,1060.2678,84.4865,1060.2812,84.5189,1059.9574,84.7372,1059.6138,84.9076,1059.2066,84.9247,1058.8902,85.1608,1058.5,85.2188,1058.5,84.6463,1048.4231,85.5031,1038.3462,85.7669,1028.2692,85.6633,1018.1923,85.8318,1008.1154,84.7357,998.0385,84.5666,987.9615,84.5973,977.8846,85.1599,967.8077,85.0222,957.7308,85.9002,947.6538,85.0441,937.5769,84.8757,927.5,85.2188,927.5291,85.289,927.0614,84.8669,926.7267,84.766,926.5221,84.9793,926.1414,84.7671,925.7322,84.4865,925.9584,84.5802,925.4867,84.0919,925.5376,83.8201,925.4747,83.5012,925.001,83.012,925,82.7188,924.968,82.7188,925.042,73.875,925.2173,65.0313,924.9986,56.1875,925.1542,47.3438,925,38.5,924.8295,38.4294,924.9379,38.0601,925.448,37.8571,925.2186,37.3479,925.7425,37.1507,925.7322,36.7322,925.7586,36.7959,926.0516,36.5033,926.3942,36.3304,926.8514,36.4342,927.1083,36.0543,927.5,36" style="stroke:#181818;stroke-width:0.5;"/><text fill="#000000" font-family="FG Virgil" font-size="14" font-style="italic" lengthAdjust="spacing" textLength="89" x="948.5" y="57.5332">«persistence»</text><text fill="#000000" font-family="FG Virgil" font-size="14" lengthAdjust="spacing" textLength="122" x="932" y="75.1426">PersistenceContext</text><polygon fill="#E3E3E3" points="927.5,755.6016,927.5,755.8117,937.5769,755.1872,947.6538,755.7948,957.7308,756.0012,967.8077,754.8882,977.8846,755.5238,987.9615,755.1751,998.0385,755.2181,1008.1154,755.5334,1018.1923,754.9102,1028.2692,756.1552,1038.3462,754.9713,1048.4231,755.4038,1058.5,755.6016,1058.5551,755.7346,1058.8426,755.7216,1059.2158,755.9155,1059.5566,756.0311,1059.937,756.2423,1060.2678,756.3338,1060.3414,756.3643,1060.5946,756.7621,1060.7673,757.1265,1060.9163,757.4811,1060.932,757.7805,1061,758.1016,1061.1545,758.1016,1061.2341,766.9453,1060.7596,775.7891,1061.2262,784.6328,1060.9012,793.4766,1061,802.3203,1061.1644,802.3884,1060.7011,802.6107,1060.686,803.0187,1060.789,803.4756,1060.3992,803.7283,1060.2678,804.0881,1060.2812,804.1205,1059.9574,804.3388,1059.6138,804.5092,1059.2066,804.5262,1058.8902,804.7623,1058.5,804.8203,1058.5,804.2479,1048.4231,805.1047,1038.3462,805.3685,1028.2692,805.2648,1018.1923,805.4333,1008.1154,804.3372,998.0385,804.1681,987.9615,804.1989,977.8846,804.7614,967.8077,804.6238,957.7308,805.5017,947.6538,804.6456,937.5769,804.4773,927.5,804.8203,927.5291,804.8906,927.0614,804.4685,926.7267,804.3675,926.5221,804.5808,926.1414,804.3687,925.7322,804.0881,925.9584,804.1818,925.4867,803.6935,925.5376,803.4217,925.4747,803.1027,925.001,802.6136,925,802.3203,924.968,802.3203,925.042,793.4766,925.2173,784.6328,924.9986,775.7891,925.1542,766.9453,925,758.1016,924.8295,758.0309,924.9379,757.6616,925.448,757.4587,925.2186,756.9494,925.7425,756.7523,925.7322,756.3338,925.7586,756.3974,926.0516,756.1048,926.3942,755.932,926.8514,756.0357,927.1083,755.6558,927.5,755.6016" style="stroke:#181818;stroke-width:0.5;"/><text fill="#000000" font-family="FG Virgil" font-size="14" font-style="italic" lengthAdjust="spacing" textLength="89" x="948.5" y="777.1348">«persistence»</text><text fill="#000000" font-family="FG Virgil" font-size="14" lengthAdjust="spacing" textLength="122" x="932" y="794.7441">PersistenceContext</text><polygon fill="#E3E3E3" points="1073.5,36,1073.5,36.2102,1083.1154,35.5857,1092.7308,36.1933,1102.3462,36.3997,1111.9615,35.2866,1121.5769,35.9223,1131.1923,35.5735,1140.8077,35.6165,1150.4231,35.9318,1160.0385,35.3086,1169.6538,36.5536,1179.2692,35.3697,1188.8846,35.8022,1198.5,36,1198.5551,36.133,1198.8426,36.12,1199.2158,36.3139,1199.5566,36.4295,1199.937,36.6408,1200.2678,36.7322,1200.3414,36.7627,1200.5946,37.1605,1200.7673,37.5249,1200.9163,37.8795,1200.932,38.1789,1201,38.5,1201.1545,38.5,1201.2341,47.3438,1200.7596,56.1875,1201.2262,65.0313,1200.9012,73.875,1201,82.7188,1201.1644,82.7868,1200.7011,83.0092,1200.686,83.4171,1200.789,83.874,1200.3992,84.1267,1200.2678,84.4865,1200.2812,84.5189,1199.9574,84.7372,1199.6138,84.9076,1199.2066,84.9247,1198.8902,85.1608,1198.5,85.2188,1198.5,84.6463,1188.8846,85.5031,1179.2692,85.7669,1169.6538,85.6633,1160.0385,85.8318,1150.4231,84.7357,1140.8077,84.5666,1131.1923,84.5973,1121.5769,85.1599,1111.9615,85.0222,1102.3462,85.9002,1092.7308,85.0441,1083.1154,84.8757,1073.5,85.2188,1073.5291,85.289,1073.0614,84.8669,1072.7267,84.766,1072.5221,84.9793,1072.1414,84.7671,1071.7322,84.4865,1071.9584,84.5802,1071.4867,84.0919,1071.5376,83.8201,1071.4747,83.5012,1071.001,83.012,1071,82.7188,1070.968,82.7188,1071.042,73.875,1071.2173,65.0313,1070.9986,56.1875,1071.1542,47.3438,1071,38.5,1070.8295,38.4294,1070.9379,38.0601,1071.448,37.8571,1071.2186,37.3479,1071.7425,37.1507,1071.7322,36.7322,1071.7586,36.7959,1072.0516,36.5033,1072.3942,36.3304,1072.8514,36.4342,1073.1083,36.0543,1073.5,36" style="stroke:#181818;stroke-width:0.5;"/><text fill="#000000" font-family="FG Virgil" font-size="14" font-style="italic" lengthAdjust="spacing" textLength="59" x="1106.5" y="57.5332">«factory»</text><text fill="#000000" font-family="FG Virgil" font-size="14" lengthAdjust="spacing" textLength="116" x="1078" y="75.1426">RepositoryFactory</text><polygon fill="#E3E3E3" points="1073.5,755.6016,1073.5,755.8117,1083.1154,755.1872,1092.7308,755.7948,1102.3462,756.0012,1111.9615,754.8882,1121.5769,755.5238,1131.1923,755.1751,1140.8077,755.2181,1150.4231,755.5334,1160.0385,754.9102,1169.6538,756.1552,1179.2692,754.9713,1188.8846,755.4038,1198.5,755.6016,1198.5551,755.7346,1198.8426,755.7216,1199.2158,755.9155,1199.5566,756.0311,1199.937,756.2423,1200.2678,756.3338,1200.3414,756.3643,1200.5946,756.7621,1200.7673,757.1265,1200.9163,757.4811,1200.932,757.7805,1201,758.1016,1201.1545,758.1016,1201.2341,766.9453,1200.7596,775.7891,1201.2262,784.6328,1200.9012,793.4766,1201,802.3203,1201.1644,802.3884,1200.7011,802.6107,1200.686,803.0187,1200.789,803.4756,1200.3992,803.7283,1200.2678,804.0881,1200.2812,804.1205,1199.9574,804.3388,1199.6138,804.5092,1199.2066,804.5262,1198.8902,804.7623,1198.5,804.8203,1198.5,804.2479,1188.8846,805.1047,1179.2692,805.3685,1169.6538,805.2648,1160.0385,805.4333,1150.4231,804.3372,1140.8077,804.1681,1131.1923,804.1989,1121.5769,804.7614,1111.9615,804.6238,1102.3462,805.5017,1092.7308,804.6456,1083.1154,804.4773,1073.5,804.8203,1073.5291,804.8906,1073.0614,804.4685,1072.7267,804.3675,1072.5221,804.5808,1072.1414,804.3687,1071.7322,804.0881,1071.9584,804.1818,1071.4867,803.6935,1071.5376,803.4217,1071.4747,803.1027,1071.001,802.6136,1071,802.3203,1070.968,802.3203,1071.042,793.4766,1071.2173,784.6328,1070.9986,775.7891,1071.1542,766.9453,1071,758.1016,1070.8295,758.0309,1070.9379,757.6616,1071.448,757.4587,1071.2186,756.9494,1071.7425,756.7523,1071.7322,756.3338,1071.7586,756.3974,1072.0516,756.1048,1072.3942,755.932,1072.8514,756.0357,1073.1083,755.6558,1073.5,755.6016" style="stroke:#181818;stroke-width:0.5;"/><text fill="#000000" font-family="FG Virgil" font-size="14" font-style="italic" lengthAdjust="spacing" textLength="59" x="1106.5" y="777.1348">«factory»</text><text fill="#000000" font-family="FG Virgil" font-size="14" lengthAdjust="spacing" textLength="116" x="1078" y="794.7441">RepositoryFactory</text><text fill="#000000" font-family="FG Virgil" font-size="14" font-style="italic" lengthAdjust="spacing" textLength="79" x="1220" y="65.5332">«repository»</text><text fill="#000000" font-family="FG Virgil" font-size="14" lengthAdjust="spacing" textLength="97" x="1211" y="83.1426">UserRepository</text><path d="M1244.5,15 L1244.5,15 L1244.5651,15.067 L1246.1716,13.118 L1248.1599,11.5616 L1250.0238,9.8774 L1251.479,7.7727 L1253.5,6.25 L1253.4952,6.2158 L1255.2739,5.8122 L1257.0766,5.5812 L1258.8958,5.47 L1260.6577,4.9456 L1262.5,5 L1262.5,5 L1262.5339,5.2437 L1264.2615,4.9725 L1266.0879,5.4129 L1267.9264,5.9402 L1269.6948,5.9622 L1271.5,6.25 L1271.5211,6.2717 L1273.2901,7.9898 L1275.1553,9.8069 L1276.9741,11.5762 L1278.8815,13.4366 L1280.5,15 L1281.0965,15 L1281.1038,20.2 L1280.7263,25.4 L1280.9121,30.6 L1281.1242,35.8 L1280.5,41 L1280.5,41 L1280.2766,40.7702 L1278.9102,42.9662 L1276.8081,44.4055 L1275.2654,46.4201 L1273.1466,47.8423 L1271.5,49.75 L1271.4958,49.7198 L1269.7453,50.3265 L1267.897,50.2285 L1266.1064,50.5464 L1264.3207,50.8991 L1262.5,51 L1262.5,51 L1262.5254,51.1832 L1260.6998,50.7483 L1258.9176,50.6264 L1257.065,49.998 L1255.3174,50.1252 L1253.5,49.75 L1253.6698,49.9247 L1251.8377,48.1417 L1250.0899,46.4453 L1247.9503,44.3461 L1246.0979,42.5422 L1244.5,41 L1243.9476,41 L1244.4477,35.8 L1244.3253,30.6 L1245.1057,25.4 L1244.3447,20.2 L1244.5,15 " fill="#E3E3E3" style="stroke:#181818;stroke-width:1.5;"/><path d="M1244.5,15 L1244.5,15 L1244.5651,15.067 L1246.1716,16.618 L1248.1599,18.5616 L1250.0238,20.3774 L1251.479,21.7727 L1253.5,23.75 L1253.4952,23.7158 L1255.2739,23.8122 L1257.0766,24.0812 L1258.8958,24.47 L1260.6577,24.4456 L1262.5,25 L1262.5,25 L1262.5339,25.2437 L1264.2615,24.4725 L1266.0879,24.4129 L1267.9264,24.4402 L1269.6948,23.9622 L1271.5,23.75 L1271.5211,23.7717 L1273.2901,21.9898 L1275.1553,20.3069 L1276.9741,18.5762 L1278.8815,16.9366 L1280.5,15 " fill="none" style="stroke:#181818;stroke-width:1.5;"/><text fill="#000000" font-family="FG Virgil" font-size="14" font-style="italic" lengthAdjust="spacing" textLength="79" x="1220" y="770.1348">«repository»</text><text fill="#000000" font-family="FG Virgil" font-size="14" lengthAdjust="spacing" textLength="97" x="1211" y="787.7441">UserRepository</text><path d="M1244.5,800.8203 L1244.5,800.8203 L1244.5651,800.8873 L1246.1716,798.9383 L1248.1599,797.3819 L1250.0238,795.6977 L1251.479,793.593 L1253.5,792.0703 L1253.4952,792.0361 L1255.2739,791.6326 L1257.0766,791.4015 L1258.8958,791.2903 L1260.6577,790.766 L1262.5,790.8203 L1262.5,790.8203 L1262.5339,791.064 L1264.2615,790.7929 L1266.0879,791.2333 L1267.9264,791.7605 L1269.6948,791.7826 L1271.5,792.0703 L1271.5211,792.0921 L1273.2901,793.8101 L1275.1553,795.6272 L1276.9741,797.3965 L1278.8815,799.257 L1280.5,800.8203 L1281.0965,800.8203 L1281.1038,806.0203 L1280.7263,811.2203 L1280.9121,816.4203 L1281.1242,821.6203 L1280.5,826.8203 L1280.5,826.8203 L1280.2766,826.5905 L1278.9102,828.7865 L1276.8081,830.2258 L1275.2654,832.2404 L1273.1466,833.6626 L1271.5,835.5703 L1271.4958,835.5402 L1269.7453,836.1468 L1267.897,836.0489 L1266.1064,836.3667 L1264.3207,836.7194 L1262.5,836.8203 L1262.5,836.8203 L1262.5254,837.0035 L1260.6998,836.5686 L1258.9176,836.4467 L1257.065,835.8183 L1255.3174,835.9455 L1253.5,835.5703 L1253.6698,835.745 L1251.8377,833.962 L1250.0899,832.2657 L1247.9503,830.1664 L1246.0979,828.3625 L1244.5,826.8203 L1243.9476,826.8203 L1244.4477,821.6203 L1244.3253,816.4203 L1245.1057,811.2203 L1244.3447,806.0203 L1244.5,800.8203 " fill="#E3E3E3" style="stroke:#181818;stroke-width:1.5;"/><path d="M1244.5,800.8203 L1244.5,800.8203 L1244.5651,800.8873 L1246.1716,802.4383 L1248.1599,804.3819 L1250.0238,806.1977 L1251.479,807.593 L1253.5,809.5703 L1253.4952,809.5361 L1255.2739,809.6326 L1257.0766,809.9015 L1258.8958,810.2903 L1260.6577,810.266 L1262.5,810.8203 L1262.5,810.8203 L1262.5339,811.064 L1264.2615,810.2929 L1266.0879,810.2333 L1267.9264,810.2605 L1269.6948,809.7826 L1271.5,809.5703 L1271.5211,809.5921 L1273.2901,807.8101 L1275.1553,806.1272 L1276.9741,804.3965 L1278.8815,802.757 L1280.5,800.8203 " fill="none" style="stroke:#181818;stroke-width:1.5;"/><polygon fill="#FFFFFF" points="139,118.5703,139,118.6404,141,118.4322,143,118.6347,145,118.7035,147,118.3325,149,118.5703,148.9223,118.5703,148.5735,128.5708,148.6165,138.5713,148.9318,148.5718,148.3086,158.5723,149.5536,168.5728,148.3697,178.5733,148.8022,188.5738,149.4319,198.5743,148.9142,208.5748,149.0682,218.5754,148.9681,228.5759,149.1785,238.5764,149.2391,248.5769,149.5857,258.5774,149.6711,268.5779,149.6793,278.5784,149.2546,288.5789,149.4636,298.5794,149.7022,308.5799,148.2788,318.5804,149.6785,328.5809,148.7035,338.5814,149.5338,348.5819,148.505,358.5824,148.9315,368.5829,149.7416,378.5834,148.9513,388.5839,149.1053,398.5844,149.3386,408.5849,149.4162,418.5854,148.9961,428.5859,149.2872,438.5864,148.4276,448.5869,149.2844,458.5874,149.5482,468.588,149.4445,478.5885,149.613,488.589,148.5169,498.5895,148.3478,508.59,148.3786,518.5905,148.9411,528.591,148.8035,538.5915,149.6814,548.592,148.8253,558.5925,148.6569,568.593,149.2283,578.5935,148.3332,588.594,148.4809,598.5945,149.649,608.595,149.4357,618.5955,149.7345,628.596,148.6782,638.5965,149.3192,648.597,149.5904,658.5975,148.5276,668.598,148.9041,678.5985,149.126,688.599,149.6518,698.5995,148.9958,708.6001,149.4626,718.6006,148.4462,728.6011,149,738.6016,149,738.3758,147,738.7694,145,738.3626,143,738.7712,141,738.6704,139,738.6016,138.7321,738.6016,138.6462,728.6011,139.4588,718.6006,138.7007,708.6001,139.5919,698.5995,138.4473,688.599,139.6174,678.5985,139.4843,668.598,139.245,658.5975,139.0472,648.597,139.7266,638.5965,139.6136,628.596,139.1693,618.5955,139.2682,608.595,138.8697,598.5945,139.7165,588.594,139.1549,578.5935,139.1726,568.593,138.3916,558.5925,138.5948,548.592,139.5307,538.5915,139.4298,528.591,138.9571,518.5905,138.6778,508.59,138.7811,498.5895,138.3138,488.589,139.4147,478.5885,139.7396,468.588,139.5264,458.5874,139.6949,448.5869,138.8633,438.5864,139.0872,428.5859,138.6124,418.5854,139.284,408.5849,139.2468,398.5844,139.5524,388.5839,138.7703,378.5834,138.8656,368.5829,139.4435,358.5824,139.5673,348.5819,138.4875,338.5814,138.8061,328.5809,139.1493,318.5804,138.3892,308.5799,139.3534,298.5794,139.258,288.5789,138.8992,278.5784,139.1422,268.5779,139.7287,258.5774,138.6871,248.5769,139.315,238.5764,139.2856,228.5759,139.1158,218.5754,139.1409,208.5748,139.1135,198.5743,138.3758,188.5738,138.5992,178.5733,138.5385,168.5728,139.0638,158.5723,139.0881,148.5718,139.1617,138.5713,138.709,128.5708,139,118.5703" style="stroke:#181818;stroke-width:1.0;"/><polygon fill="#FFFFFF" points="270.5,179.2734,270.5,179.3435,272.5,179.1353,274.5,179.3379,276.5,179.4067,278.5,179.0356,280.5,179.2734,280.4223,179.2734,280.0735,189.1842,280.1165,199.0949,280.4318,209.0056,279.8086,218.9163,281.0536,228.827,279.8697,238.7377,280.3022,248.6484,280.9319,258.5592,280.4142,268.4699,280.5682,278.3806,280.4681,288.2913,280.6785,298.202,280.7391,308.1127,281.0857,318.0234,281.1711,327.9342,281.1793,337.8449,280.7546,347.7556,280.9636,357.6663,281.2022,367.577,279.7788,377.4877,281.1785,387.3984,280.2035,397.3092,281.0338,407.2199,280.005,417.1306,280.4315,427.0413,281.2416,436.952,280.4513,446.8627,280.6053,456.7734,280.8386,466.6842,280.9162,476.5949,280.4961,486.5056,280.7872,496.4163,279.9276,506.327,280.7844,516.2377,281.0482,526.1484,280.9445,536.0592,281.113,545.9699,280.0169,555.8806,279.8478,565.7913,279.8786,575.702,280.4411,585.6127,280.3035,595.5234,281.1814,605.4342,280.3253,615.3449,280.1569,625.2556,280.7283,635.1663,279.8332,645.077,279.9809,654.9877,280.5,664.8984,280.5,665.1148,278.5,665.0437,276.5,665.1433,274.5,664.7912,272.5,665.0048,270.5,664.8984,271.0904,664.8984,270.0276,654.9877,270.4041,645.077,270.626,635.1663,271.1518,625.2556,270.4958,615.3449,270.9626,605.4342,269.9462,595.5234,269.8227,585.6127,271.0036,575.702,269.7831,565.7913,271.009,555.8806,270.7066,545.9699,270.2321,536.0592,270.1462,526.1484,270.9588,516.2377,270.2007,506.327,271.0919,496.4163,269.9473,486.5056,271.1174,476.5949,270.9843,466.6842,270.745,456.7734,270.5472,446.8627,271.2266,436.952,271.1136,427.0413,270.6693,417.1306,270.7682,407.2199,270.3697,397.3092,271.2165,387.3984,270.6549,377.4877,270.6726,367.577,269.8916,357.6663,270.0948,347.7556,271.0307,337.8449,270.9298,327.9342,270.4571,318.0234,270.1778,308.1127,270.2811,298.202,269.8138,288.2913,270.9147,278.3806,271.2396,268.4699,271.0264,258.5592,271.1949,248.6484,270.3633,238.7377,270.5872,228.827,270.1124,218.9163,270.784,209.0056,270.7468,199.0949,271.0524,189.1842,270.5,179.2734" style="stroke:#181818;stroke-width:1.0;"/><polygon fill="#FFFFFF" points="423.5,209.625,423.5,209.6951,425.5,209.4869,427.5,209.6894,429.5,209.7582,431.5,209.3872,433.5,209.625,433.4223,209.625,433.0735,219.7422,433.1165,229.8594,433.4318,239.9766,432.8086,250.0938,434.0536,260.2109,432.8697,270.3281,433.3022,280.4453,433.9319,290.5625,433.5,300.6797,433.5,300.6511,431.5,300.7024,429.5,300.669,427.5,300.7392,425.5,300.7594,423.5,300.6797,424.0857,300.6797,424.1711,290.5625,424.1793,280.4453,423.7546,270.3281,423.9636,260.2109,424.2022,250.0938,422.7788,239.9766,424.1785,229.8594,423.2035,219.7422,423.5,209.625" style="stroke:#181818;stroke-width:1.0;"/><polygon fill="#FFFFFF" points="824,361.3828,824,361.4529,826,361.2447,828,361.4472,830,361.516,832,361.145,834,361.3828,833.9223,361.3828,833.5735,371.5,833.6165,381.6172,833.9318,391.7344,833.3086,401.8516,834.5536,411.9688,833.3697,422.0859,833.8022,432.2031,834.4319,442.3203,833.9142,452.4375,834.0682,462.5547,833.9681,472.6719,834.1785,482.7891,834.2391,492.9063,834.5857,503.0234,834.6711,513.1406,834.6793,523.2578,834.2546,533.375,834.4636,543.4922,834.7022,553.6094,833.2788,563.7266,834.6785,573.8438,833.7035,583.9609,834.5338,594.0781,833.505,604.1953,833.9315,614.3125,834.7416,624.4297,834,634.5469,834,634.5306,832,634.582,830,634.6598,828,634.6856,826,634.5456,824,634.5469,824.2872,634.5469,823.4276,624.4297,824.2844,614.3125,824.5482,604.1953,824.4445,594.0781,824.613,583.9609,823.5169,573.8438,823.3478,563.7266,823.3786,553.6094,823.9411,543.4922,823.8035,533.375,824.6814,523.2578,823.8253,513.1406,823.6569,503.0234,824.2283,492.9063,823.3332,482.7891,823.4809,472.6719,824.649,462.5547,824.4357,452.4375,824.7345,442.3203,823.6782,432.2031,824.3192,422.0859,824.5904,411.9688,823.5276,401.8516,823.9041,391.7344,824.126,381.6172,824.6518,371.5,824,361.3828" style="stroke:#181818;stroke-width:1.0;"/><polygon fill="#FFFFFF" points="988,391.7344,988,391.8044,990,391.5963,992,391.7988,994,391.8676,996,391.4966,998,391.7344,997.9223,391.7344,997.5735,401.8516,997.6165,411.9688,997.9318,422.0859,997.3086,432.2031,998.5536,442.3203,998,452.4375,998,452.2274,996,452.3716,994,452.5815,992,452.4089,990,452.4602,988,452.4375,987.9681,452.4375,988.1785,442.3203,988.2391,432.2031,988.5857,422.0859,988.6711,411.9688,988.6793,401.8516,988,391.7344" style="stroke:#181818;stroke-width:1.0;"/><polygon fill="#FFFFFF" points="1131,482.7891,1131,482.8591,1133,482.651,1135,482.8535,1137,482.9223,1139,482.5513,1141,482.7891,1140.9223,482.7891,1140.5735,492.9063,1140.6165,503.0234,1140.9318,513.1406,1140.3086,523.2578,1141.5536,533.375,1141,543.4922,1141,543.2821,1139,543.4263,1137,543.6362,1135,543.4636,1133,543.5149,1131,543.4922,1130.9681,543.4922,1131.1785,533.375,1131.2391,523.2578,1131.5857,513.1406,1131.6711,503.0234,1131.6793,492.9063,1131,482.7891" style="stroke:#181818;stroke-width:1.0;"/><polygon fill="#FFFFFF" points="1257.5,573.8438,1257.5,573.9138,1259.5,573.7056,1261.5,573.9082,1263.5,573.977,1265.5,573.606,1267.5,573.8438,1267.4741,573.8438,1267.3578,579.9141,1267.3722,585.9844,1267.4773,592.0547,1267.2695,598.125,1267.5,604.1953,1267.5,604.3799,1265.5,603.9852,1263.5,604.1294,1261.5,604.3393,1259.5,604.1667,1257.5,604.1953,1257.5227,604.1953,1257.4894,598.125,1257.5595,592.0547,1257.5797,585.9844,1257.6952,579.9141,1257.5,573.8438" style="stroke:#181818;stroke-width:1.0;"/><polygon fill="#181818" points="127,114.5703,127.026,114.6354,128.9487,115.2421,131.0239,116.2301,133.0495,117.094,134.9117,117.5495,137,118.5703,136.9904,118.5463,134.9472,119.2383,132.9525,120.0516,130.9916,120.9492,128.9144,121.5563,127,122.5703,127.1305,122.7008,127.6514,121.6218,128.5534,120.9237,129.5018,120.2721,130.1798,119.3501,131,118.5703,131.0161,118.5864,130.1925,117.7628,129.4421,117.0124,128.6564,116.2267,127.938,115.5084,127,114.5703" style="stroke:#181818;stroke-width:1.0;"/><path d="M36,118.5703 L36,118.8506 L45.7,118.0179 L55.4,118.828 L65.1,119.1032 L74.8,117.6191 L84.5,118.4667 L94.2,118.0017 L103.9,118.059 L113.6,118.4794 L123.3,117.6485 L133,118.5703 " fill="none" style="stroke:#181818;stroke-width:1.0;stroke-dasharray:2.0,2.0;"/><text fill="#000000" font-family="FG Virgil" font-size="13" lengthAdjust="spacing" textLength="59" x="43" y="113.7139">List Users</text><polygon fill="#181818" points="263.5,144.9219,263.526,144.9869,265.4487,145.5936,267.5239,146.5817,269.5495,147.4456,271.4117,147.9011,273.5,148.9219,273.4904,148.8978,271.4472,149.5899,269.4525,150.4032,267.4916,151.3008,265.4144,151.9079,263.5,152.9219,263.6305,153.0524,264.1514,151.9733,265.0534,151.2753,266.0018,150.6237,266.6798,149.7017,267.5,148.9219,267.5161,148.938,266.6925,148.1143,265.9421,147.364,265.1564,146.5782,264.438,145.8599,263.5,144.9219" style="stroke:#181818;stroke-width:1.0;"/><path d="M149,148.9219 L149,149.2021 L159.0417,148.3694 L169.0833,149.1796 L179.125,149.4548 L189.1667,147.9707 L199.2083,148.8183 L209.25,148.3532 L219.2917,148.4105 L229.3333,148.831 L239.375,148 L249.4167,149.6601 L259.4583,148.0815 L269.5,148.9219 " fill="none" style="stroke:#181818;stroke-width:1.0;"/><text fill="#000000" font-family="FG Virgil" font-size="13" lengthAdjust="spacing" textLength="44" x="156" y="144.0654">create()</text><polygon fill="#181818" points="258.5,175.2734,258.526,175.3385,260.4487,175.9452,262.5239,176.9333,264.5495,177.7971,266.4117,178.2526,268.5,179.2734,268.4904,179.2494,266.4472,179.9414,264.4525,180.7547,262.4916,181.6523,260.4144,182.2595,258.5,183.2734,258.6305,183.4039,259.1514,182.3249,260.0534,181.6268,261.0018,180.9752,261.6798,180.0532,262.5,179.2734,262.5161,179.2895,261.6925,178.4659,260.9421,177.7155,260.1564,176.9298,259.438,176.2115,258.5,175.2734" style="stroke:#181818;stroke-width:1.0;"/><path d="M149,179.2734 L149,179.5537 L158.625,178.721 L168.25,179.5312 L177.875,179.8063 L187.5,178.3222 L197.125,179.1698 L206.75,178.7048 L216.375,178.7621 L226,179.1826 L235.625,178.3516 L245.25,180.0116 L254.875,178.4331 L264.5,179.2734 " fill="none" style="stroke:#181818;stroke-width:1.0;"/><text fill="#000000" font-family="FG Virgil" font-size="13" lengthAdjust="spacing" textLength="74" x="156" y="174.417">listAllUsers()</text><polygon fill="#181818" points="411.5,205.625,411.526,205.69,413.4487,206.2968,415.5239,207.2848,417.5495,208.1487,419.4117,208.6042,421.5,209.625,421.4904,209.6009,419.4472,210.293,417.4525,211.1063,415.4916,212.0039,413.4144,212.611,411.5,213.625,411.6305,213.7555,412.1514,212.6764,413.0534,211.9784,414.0018,211.3268,414.6798,210.4048,415.5,209.625,415.5161,209.6411,414.6925,208.8175,413.9421,208.0671,413.1564,207.2814,412.438,206.563,411.5,205.625" style="stroke:#181818;stroke-width:1.0;"/><path d="M280.5,209.625 L280.5,209.9052 L290.2857,209.0726 L300.0714,209.8827 L309.8571,210.1579 L319.6429,208.6738 L329.4286,209.5214 L339.2143,209.0563 L349,209.1137 L358.7857,209.5341 L368.5714,208.7032 L378.3571,210.3632 L388.1429,208.7846 L397.9286,209.3613 L407.7143,210.2009 L417.5,209.625 " fill="none" style="stroke:#181818;stroke-width:1.0;"/><text fill="#000000" font-family="FG Virgil" font-size="13" lengthAdjust="spacing" textLength="124" x="287.5" y="204.7686">authorizationService()</text><polygon fill="#181818" points="291.5,235.9766,291.526,236.0416,289.4487,236.6483,287.5239,237.6364,285.5495,238.5003,283.4117,238.9558,281.5,239.9766,281.4904,239.9525,283.4472,240.6446,285.4525,241.4579,287.4916,242.3555,289.4144,242.9626,291.5,243.9766,291.6305,244.1071,290.5514,243.028,289.8534,242.3299,289.2018,241.6784,288.2798,240.7563,287.5,239.9766,287.5161,239.9926,288.2925,239.169,289.1421,238.4186,289.9564,237.6329,290.838,236.9146,291.5,235.9766" style="stroke:#181818;stroke-width:1.0;"/><path d="M285.5,239.9766 L285.5,240.2568 L295.2857,239.4241 L305.0714,240.2343 L314.8571,240.5095 L324.6429,239.0254 L334.4286,239.8729 L344.2143,239.4079 L354,239.4652 L363.7857,239.8857 L373.5714,239.0547 L383.3571,240.7148 L393.1429,239.1362 L402.9286,239.7129 L412.7143,240.5525 L422.5,239.9766 " fill="none" style="stroke:#181818;stroke-width:1.0;"/><text fill="#000000" font-family="FG Virgil" font-size="13" lengthAdjust="spacing" textLength="32" x="297.5" y="235.1201">authz</text><polygon fill="#181818" points="411.5,266.3281,411.526,266.3932,413.4487,266.9999,415.5239,267.9879,417.5495,268.8518,419.4117,269.3073,421.5,270.3281,421.4904,270.3041,419.4472,270.9961,417.4525,271.8094,415.4916,272.707,413.4144,273.3142,411.5,274.3281,411.6305,274.4586,412.1514,273.3796,413.0534,272.6815,414.0018,272.0299,414.6798,271.1079,415.5,270.3281,415.5161,270.3442,414.6925,269.5206,413.9421,268.7702,413.1564,267.9845,412.438,267.2662,411.5,266.3281" style="stroke:#181818;stroke-width:1.0;"/><path d="M280.5,270.3281 L280.5,270.6084 L290.2857,269.7757 L300.0714,270.5858 L309.8571,270.861 L319.6429,269.3769 L329.4286,270.2245 L339.2143,269.7595 L349,269.8168 L358.7857,270.2372 L368.5714,269.4063 L378.3571,271.0663 L388.1429,269.4878 L397.9286,270.0644 L407.7143,270.9041 L417.5,270.3281 " fill="none" style="stroke:#181818;stroke-width:1.0;"/><text fill="#000000" font-family="FG Virgil" font-size="13" lengthAdjust="spacing" textLength="75" x="287.5" y="265.4717">userService()</text><polygon fill="#181818" points="291.5,296.6797,291.526,296.7447,289.4487,297.3515,287.5239,298.3395,285.5495,299.2034,283.4117,299.6589,281.5,300.6797,281.4904,300.6556,283.4472,301.3477,285.4525,302.161,287.4916,303.0586,289.4144,303.6657,291.5,304.6797,291.6305,304.8102,290.5514,303.7311,289.8534,303.0331,289.2018,302.3815,288.2798,301.4595,287.5,300.6797,287.5161,300.6958,288.2925,299.8722,289.1421,299.1218,289.9564,298.3361,290.838,297.6177,291.5,296.6797" style="stroke:#181818;stroke-width:1.0;"/><path d="M285.5,300.6797 L285.5,300.9599 L295.6429,300.1273 L305.7857,300.9374 L315.9286,301.2126 L326.0714,299.7285 L336.2143,300.5761 L346.3571,300.111 L356.5,300.1684 L366.6429,300.5888 L376.7857,299.7579 L386.9286,301.4179 L397.0714,299.8393 L407.2143,300.416 L417.3571,301.2556 L427.5,300.6797 " fill="none" style="stroke:#181818;stroke-width:1.0;"/><text fill="#000000" font-family="FG Virgil" font-size="13" lengthAdjust="spacing" textLength="46" x="297.5" y="295.8232">userSvc</text><polygon fill="#181818" points="649.5,327.0313,649.526,327.0963,651.4487,327.703,653.5239,328.6911,655.5495,329.5549,657.4117,330.0105,659.5,331.0313,659.4904,331.0072,657.4472,331.6993,655.4525,332.5126,653.4916,333.4102,651.4144,334.0173,649.5,335.0313,649.6305,335.1617,650.1514,334.0827,651.0534,333.3846,652.0018,332.7331,652.6798,331.811,653.5,331.0313,653.5161,331.0473,652.6925,330.2237,651.9421,329.4733,651.1564,328.6876,650.438,327.9693,649.5,327.0313" style="stroke:#181818;stroke-width:1.0;"/><path d="M280.5,331.0313 L280.5,331.3115 L290.3684,330.4788 L300.2368,331.289 L310.1053,331.5642 L319.9737,330.0801 L329.8421,330.9276 L339.7105,330.4626 L349.5789,330.5199 L359.4474,330.9404 L369.3158,330.1094 L379.1842,331.7694 L389.0526,330.1909 L398.9211,330.7676 L408.7895,331.6072 L418.6579,330.9169 L428.5263,331.1222 L438.3947,330.9887 L448.2632,331.2693 L458.1316,331.3501 L468,331.8122 L477.8684,331.926 L487.7368,331.9369 L497.6053,331.3708 L507.4737,331.6494 L517.3421,331.9676 L527.2105,330.0697 L537.0789,331.9359 L546.9474,330.6359 L556.8158,331.743 L566.6842,330.3712 L576.5526,330.9399 L586.4211,332.0201 L596.2895,330.9663 L606.1579,331.1717 L616.0263,331.4828 L625.8947,331.5862 L635.7632,331.026 L645.6316,331.4142 L655.5,331.0313 " fill="none" style="stroke:#181818;stroke-width:1.0;"/><text fill="#000000" font-family="FG Virgil" font-size="13" lengthAdjust="spacing" textLength="357" x="287.5" y="326.1748">ensureAuthenticatedUserHasAnyOf(CourseRoles.MANAGER)</text><polygon fill="#181818" points="812,357.3828,812.026,357.4479,813.9487,358.0546,816.0239,359.0426,818.0495,359.9065,819.9117,360.362,822,361.3828,821.9904,361.3588,819.9472,362.0508,817.9525,362.8641,815.9916,363.7617,813.9144,364.3688,812,365.3828,812.1305,365.5133,812.6514,364.4343,813.5534,363.7362,814.5018,363.0846,815.1798,362.1626,816,361.3828,816.0161,361.3989,815.1925,360.5753,814.4421,359.8249,813.6564,359.0392,812.938,358.3209,812,357.3828" style="stroke:#181818;stroke-width:1.0;"/><path d="M280.5,361.3828 L280.5,361.6631 L290.4537,360.8304 L300.4074,361.6405 L310.3611,361.9157 L320.3148,360.4316 L330.2685,361.2792 L340.2222,360.8142 L350.1759,360.8715 L360.1296,361.2919 L370.0833,360.461 L380.037,362.121 L389.9907,360.5424 L399.9444,361.1191 L409.8981,361.9587 L419.8519,361.2684 L429.8056,361.4738 L439.7593,361.3402 L449.713,361.6208 L459.6667,361.7017 L469.6204,362.1637 L479.5741,362.2776 L489.5278,362.2885 L499.4815,361.7223 L509.4352,362.0009 L519.3889,362.3191 L529.3426,360.4212 L539.2963,362.2875 L549.25,360.9875 L559.2037,362.0946 L569.1574,360.7228 L579.1111,361.2915 L589.0648,362.3716 L599.0185,361.3178 L608.9722,361.5232 L618.9259,361.8343 L628.8796,361.9378 L638.8333,361.3776 L648.787,361.7658 L658.7407,360.6196 L668.6944,361.762 L678.6481,362.1137 L688.6019,361.9755 L698.5556,362.2002 L708.5093,360.7387 L718.463,360.5132 L728.4167,360.5543 L738.3704,361.3043 L748.3241,361.1208 L758.2778,362.2914 L768.2315,361.1499 L778.1852,360.9254 L788.1389,361.6872 L798.0926,360.4937 L808.0463,360.6906 L818,361.3828 " fill="none" style="stroke:#181818;stroke-width:1.0;"/><text fill="#000000" font-family="FG Virgil" font-size="13" lengthAdjust="spacing" textLength="55" x="287.5" y="356.5264">allUsers()</text><polygon fill="#181818" points="976,387.7344,976.026,387.7994,977.9487,388.4061,980.0239,389.3942,982.0495,390.2581,983.9117,390.7136,986,391.7344,985.9904,391.7103,983.9472,392.4024,981.9525,393.2157,979.9916,394.1133,977.9144,394.7204,976,395.7344,976.1305,395.8649,976.6514,394.7858,977.5534,394.0878,978.5018,393.4362,979.1798,392.5142,980,391.7344,980.0161,391.7505,979.1925,390.9268,978.4421,390.1765,977.6564,389.3907,976.938,388.6724,976,387.7344" style="stroke:#181818;stroke-width:1.0;"/><path d="M834,391.7344 L834,392.0146 L843.8667,391.1819 L853.7333,391.9921 L863.6,392.2673 L873.4667,390.7832 L883.3333,391.6308 L893.2,391.1657 L903.0667,391.223 L912.9333,391.6435 L922.8,390.8125 L932.6667,392.4726 L942.5333,390.894 L952.4,391.4707 L962.2667,392.3103 L972.1333,391.62 L982,391.7344 " fill="none" style="stroke:#181818;stroke-width:1.0;"/><text fill="#000000" font-family="FG Virgil" font-size="13" lengthAdjust="spacing" textLength="75" x="841" y="386.8779">repositories()</text><polygon fill="#181818" points="1124,418.0859,1124.026,418.151,1125.9487,418.7577,1128.0239,419.7458,1130.0495,420.6096,1131.9117,421.0651,1134,422.0859,1133.9904,422.0619,1131.9472,422.7539,1129.9525,423.5672,1127.9916,424.4648,1125.9144,425.072,1124,426.0859,1124.1305,426.2164,1124.6514,425.1374,1125.5534,424.4393,1126.5018,423.7877,1127.1798,422.8657,1128,422.0859,1128.0161,422.102,1127.1925,421.2784,1126.4421,420.528,1125.6564,419.7423,1124.938,419.024,1124,418.0859" style="stroke:#181818;stroke-width:1.0;"/><path d="M998,422.0859 L998,422.3662 L1008.1538,421.5335 L1018.3077,422.3437 L1028.4615,422.6188 L1038.6154,421.1347 L1048.7692,421.9823 L1058.9231,421.5173 L1069.0769,421.5746 L1079.2308,421.9951 L1089.3846,421.1641 L1099.5385,422.8241 L1109.6923,421.2456 L1119.8462,421.8222 L1130,422.0859 " fill="none" style="stroke:#181818;stroke-width:1.0;"/><text fill="#000000" font-family="FG Virgil" font-size="13" lengthAdjust="spacing" textLength="44" x="1005" y="417.2295">create()</text><polygon fill="#181818" points="845,448.4375,845.026,448.5025,842.9487,449.1093,841.0239,450.0973,839.0495,450.9612,836.9117,451.4167,835,452.4375,834.9904,452.4134,836.9472,453.1055,838.9525,453.9188,840.9916,454.8164,842.9144,455.4235,845,456.4375,845.1305,456.568,844.0514,455.4889,843.3534,454.7909,842.7018,454.1393,841.7798,453.2173,841,452.4375,841.0161,452.4536,841.7925,451.63,842.6421,450.8796,843.4564,450.0939,844.338,449.3755,845,448.4375" style="stroke:#181818;stroke-width:1.0;"/><path d="M839,452.4375 L839,452.7177 L849.2,451.8851 L859.4,452.6952 L869.6,452.9704 L879.8,451.4863 L890,452.3339 L900.2,451.8688 L910.4,451.9262 L920.6,452.3466 L930.8,451.5157 L941,453.1757 L951.2,451.5971 L961.4,452.1738 L971.6,453.0134 L981.8,452.3231 L992,452.4375 " fill="none" style="stroke:#181818;stroke-width:1.0;"/><text fill="#000000" font-family="FG Virgil" font-size="13" lengthAdjust="spacing" textLength="39" x="851" y="447.5811">factory</text><polygon fill="#181818" points="1119,478.7891,1119.026,478.8541,1120.9487,479.4608,1123.0239,480.4489,1125.0495,481.3128,1126.9117,481.7683,1129,482.7891,1128.9904,482.765,1126.9472,483.4571,1124.9525,484.2704,1122.9916,485.168,1120.9144,485.7751,1119,486.7891,1119.1305,486.9196,1119.6514,485.8405,1120.5534,485.1424,1121.5018,484.4909,1122.1798,483.5688,1123,482.7891,1123.0161,482.8051,1122.1925,481.9815,1121.4421,481.2311,1120.6564,480.4454,1119.938,479.7271,1119,478.7891" style="stroke:#181818;stroke-width:1.0;"/><path d="M834,482.7891 L834,483.0693 L844.0345,482.2366 L854.069,483.0468 L864.1034,483.322 L874.1379,481.8379 L884.1724,482.6854 L894.2069,482.2204 L904.2414,482.2777 L914.2759,482.6982 L924.3103,481.8672 L934.3448,483.5273 L944.3793,481.9487 L954.4138,482.5254 L964.4483,483.365 L974.4828,482.6747 L984.5172,482.88 L994.5517,482.7465 L1004.5862,483.0271 L1014.6207,483.1079 L1024.6552,483.57 L1034.6897,483.6838 L1044.7241,483.6947 L1054.7586,483.1286 L1064.7931,483.4072 L1074.8276,483.7254 L1084.8621,481.8275 L1094.8966,483.6937 L1104.931,482.3937 L1114.9655,483.5008 L1125,482.7891 " fill="none" style="stroke:#181818;stroke-width:1.0;"/><text fill="#000000" font-family="FG Virgil" font-size="13" lengthAdjust="spacing" textLength="40" x="841" y="477.9326">users()</text><polygon fill="#181818" points="1250.5,509.1406,1250.526,509.2057,1252.4487,509.8124,1254.5239,510.8004,1256.5495,511.6643,1258.4117,512.1198,1260.5,513.1406,1260.4904,513.1166,1258.4472,513.8086,1256.4525,514.6219,1254.4916,515.5195,1252.4144,516.1267,1250.5,517.1406,1250.6305,517.2711,1251.1514,516.1921,1252.0534,515.494,1253.0018,514.8424,1253.6798,513.9204,1254.5,513.1406,1254.5161,513.1567,1253.6925,512.3331,1252.9421,511.5827,1252.1564,510.797,1251.438,510.0787,1250.5,509.1406" style="stroke:#181818;stroke-width:1.0;"/><path d="M1141,513.1406 L1141,513.4209 L1150.625,512.5882 L1160.25,513.3983 L1169.875,513.6735 L1179.5,512.1894 L1189.125,513.037 L1198.75,512.572 L1208.375,512.6293 L1218,513.0497 L1227.625,512.2188 L1237.25,513.8788 L1246.875,512.3003 L1256.5,513.1406 " fill="none" style="stroke:#181818;stroke-width:1.0;"/><text fill="#000000" font-family="FG Virgil" font-size="13" lengthAdjust="spacing" textLength="44" x="1148" y="508.2842">create()</text><polygon fill="#181818" points="845,539.4922,845.026,539.5572,842.9487,540.164,841.0239,541.152,839.0495,542.0159,836.9117,542.4714,835,543.4922,834.9904,543.4681,836.9472,544.1602,838.9525,544.9735,840.9916,545.8711,842.9144,546.4782,845,547.4922,845.1305,547.6227,844.0514,546.5436,843.3534,545.8456,842.7018,545.194,841.7798,544.272,841,543.4922,841.0161,543.5083,841.7925,542.6847,842.6421,541.9343,843.4564,541.1486,844.338,540.4302,845,539.4922" style="stroke:#181818;stroke-width:1.0;"/><path d="M839,543.4922 L839,543.7724 L848.8667,542.9398 L858.7333,543.7499 L868.6,544.0251 L878.4667,542.541 L888.3333,543.3886 L898.2,542.9235 L908.0667,542.9809 L917.9333,543.4013 L927.8,542.5704 L937.6667,544.2304 L947.5333,542.6518 L957.4,543.2285 L967.2667,544.0681 L977.1333,543.3778 L987,543.5832 L996.8667,543.4496 L1006.7333,543.7302 L1016.6,543.811 L1026.4667,544.2731 L1036.3333,544.3869 L1046.2,544.3979 L1056.0667,543.8317 L1065.9333,544.1103 L1075.8,544.4285 L1085.6667,542.5306 L1095.5333,544.3969 L1105.4,543.0968 L1115.2667,544.2039 L1125.1333,542.8322 L1135,543.4922 " fill="none" style="stroke:#181818;stroke-width:1.0;"/><text fill="#000000" font-family="FG Virgil" font-size="13" lengthAdjust="spacing" textLength="87" x="851" y="538.6357">userRepository</text><polygon fill="#181818" points="1245.5,569.8438,1245.526,569.9088,1247.4487,570.5155,1249.5239,571.5036,1251.5495,572.3674,1253.4117,572.823,1255.5,573.8438,1255.4904,573.8197,1253.4472,574.5118,1251.4525,575.3251,1249.4916,576.2227,1247.4144,576.8298,1245.5,577.8438,1245.6305,577.9742,1246.1514,576.8952,1247.0534,576.1971,1248.0018,575.5456,1248.6798,574.6235,1249.5,573.8438,1249.5161,573.8598,1248.6925,573.0362,1247.9421,572.2858,1247.1564,571.5001,1246.438,570.7818,1245.5,569.8438" style="stroke:#181818;stroke-width:1.0;"/><path d="M834,573.8438 L834,574.124 L843.9405,573.2913 L853.881,574.1015 L863.8214,574.3767 L873.7619,572.8926 L883.7024,573.7401 L893.6429,573.2751 L903.5833,573.3324 L913.5238,573.7529 L923.4643,572.9219 L933.4048,574.5819 L943.3452,573.0034 L953.2857,573.5801 L963.2262,574.4197 L973.1667,573.7294 L983.1071,573.9347 L993.0476,573.8012 L1002.9881,574.0818 L1012.9286,574.1626 L1022.869,574.6247 L1032.8095,574.7385 L1042.75,574.7494 L1052.6905,574.1833 L1062.631,574.4619 L1072.5714,574.7801 L1082.5119,572.8822 L1092.4524,574.7484 L1102.3929,573.4484 L1112.3333,574.5555 L1122.2738,573.1837 L1132.2143,573.7524 L1142.1548,574.8326 L1152.0952,573.7788 L1162.0357,573.9842 L1171.9762,574.2953 L1181.9167,574.3987 L1191.8571,573.8385 L1201.7976,574.2267 L1211.7381,573.0805 L1221.6786,574.2229 L1231.619,574.5747 L1241.5595,574.4365 L1251.5,573.8438 " fill="none" style="stroke:#181818;stroke-width:1.0;"/><text fill="#000000" font-family="FG Virgil" font-size="13" lengthAdjust="spacing" textLength="43" x="841" y="568.9873">findAll()</text><polygon fill="#181818" points="845,600.1953,845.026,600.2604,842.9487,600.8671,841.0239,601.8551,839.0495,602.719,836.9117,603.1745,835,604.1953,834.9904,604.1713,836.9472,604.8633,838.9525,605.6766,840.9916,606.5742,842.9144,607.1813,845,608.1953,845.1305,608.3258,844.0514,607.2468,843.3534,606.5487,842.7018,605.8971,841.7798,604.9751,841,604.1953,841.0161,604.2114,841.7925,603.3878,842.6421,602.6374,843.4564,601.8517,844.338,601.1334,845,600.1953" style="stroke:#181818;stroke-width:1.0;"/><path d="M839,604.1953 L839,604.4756 L849.0595,603.6429 L859.119,604.453 L869.1786,604.7282 L879.2381,603.2441 L889.2976,604.0917 L899.3571,603.6267 L909.4167,603.684 L919.4762,604.1044 L929.5357,603.2735 L939.5952,604.9335 L949.6548,603.3549 L959.7143,603.9316 L969.7738,604.7712 L979.8333,604.0809 L989.8929,604.2863 L999.9524,604.1527 L1010.0119,604.4333 L1020.0714,604.5142 L1030.131,604.9762 L1040.1905,605.0901 L1050.25,605.101 L1060.3095,604.5348 L1070.369,604.8134 L1080.4286,605.1316 L1090.4881,603.2337 L1100.5476,605.1 L1110.6071,603.8 L1120.6667,604.9071 L1130.7262,603.5353 L1140.7857,604.104 L1150.8452,605.1841 L1160.9048,604.1303 L1170.9643,604.3357 L1181.0238,604.6468 L1191.0833,604.7503 L1201.1429,604.1901 L1211.2024,604.5783 L1221.2619,603.4321 L1231.3214,604.5745 L1241.381,604.9262 L1251.4405,604.788 L1261.5,604.1953 " fill="none" style="stroke:#181818;stroke-width:1.0;"/><text fill="#000000" font-family="FG Virgil" font-size="13" lengthAdjust="spacing" textLength="47" x="851" y="599.3389">allUsers</text><polygon fill="#181818" points="291.5,630.5469,291.526,630.6119,289.4487,631.2186,287.5239,632.2067,285.5495,633.0706,283.4117,633.5261,281.5,634.5469,281.4904,634.5228,283.4472,635.2149,285.4525,636.0282,287.4916,636.9258,289.4144,637.5329,291.5,638.5469,291.6305,638.6774,290.5514,637.5983,289.8534,636.9003,289.2018,636.2487,288.2798,635.3267,287.5,634.5469,287.5161,634.563,288.2925,633.7393,289.1421,632.989,289.9564,632.2032,290.838,631.4849,291.5,630.5469" style="stroke:#181818;stroke-width:1.0;"/><path d="M285.5,634.5469 L285.5,634.8271 L295.5463,633.9944 L305.5926,634.8046 L315.6389,635.0798 L325.6852,633.5957 L335.7315,634.4433 L345.7778,633.9782 L355.8241,634.0355 L365.8704,634.456 L375.9167,633.625 L385.963,635.2851 L396.0093,633.7065 L406.0556,634.2832 L416.1019,635.1228 L426.1481,634.4325 L436.1944,634.6379 L446.2407,634.5043 L456.287,634.7849 L466.3333,634.8657 L476.3796,635.3278 L486.4259,635.4416 L496.4722,635.4526 L506.5185,634.8864 L516.5648,635.165 L526.6111,635.4832 L536.6574,633.5853 L546.7037,635.4516 L556.75,634.1515 L566.7963,635.2586 L576.8426,633.8868 L586.8889,634.4555 L596.9352,635.5357 L606.9815,634.4819 L617.0278,634.6873 L627.0741,634.9984 L637.1204,635.1019 L647.1667,634.5417 L657.213,634.9298 L667.2593,633.7837 L677.3056,634.9261 L687.3519,635.2778 L697.3981,635.1396 L707.4444,635.3642 L717.4907,633.9028 L727.537,633.6773 L737.5833,633.7183 L747.6296,634.4684 L757.6759,634.2848 L767.7222,635.4554 L777.7685,634.314 L787.8148,634.0895 L797.8611,634.8512 L807.9074,633.6578 L817.9537,633.8547 L828,634.5469 " fill="none" style="stroke:#181818;stroke-width:1.0;"/><text fill="#000000" font-family="FG Virgil" font-size="13" lengthAdjust="spacing" textLength="47" x="297.5" y="629.6904">allUsers</text><polygon fill="#181818" points="160,660.8984,160.026,660.9635,157.9487,661.5702,156.0239,662.5583,154.0495,663.4221,151.9117,663.8776,150,664.8984,149.9904,664.8744,151.9472,665.5664,153.9525,666.3797,155.9916,667.2773,157.9144,667.8845,160,668.8984,160.1305,669.0289,159.0514,667.9499,158.3534,667.2518,157.7018,666.6002,156.7798,665.6782,156,664.8984,156.0161,664.9145,156.7925,664.0909,157.6421,663.3405,158.4564,662.5548,159.338,661.8365,160,660.8984" style="stroke:#181818;stroke-width:1.0;"/><path d="M154,664.8984 L154,665.1787 L164.0417,664.346 L174.0833,665.1562 L184.125,665.4313 L194.1667,663.9472 L204.2083,664.7948 L214.25,664.3298 L224.2917,664.3871 L234.3333,664.8076 L244.375,663.9766 L254.4167,665.6366 L264.4583,664.0581 L274.5,664.8984 " fill="none" style="stroke:#181818;stroke-width:1.0;"/><text fill="#000000" font-family="FG Virgil" font-size="13" lengthAdjust="spacing" textLength="47" x="166" y="660.042">allUsers</text><path d="M149,695.25 L149,695.3434 L157.4,695.0659 L165.8,695.3359 L174.2,695.4276 L182.6,694.9329 L191,695.25 " fill="none" style="stroke:#181818;stroke-width:1.0;"/><path d="M191,695.25 L191.0934,695.25 L190.8159,697.85 L191.0859,700.45 L191.1776,703.05 L190.6829,705.65 L191,708.25 " fill="none" style="stroke:#181818;stroke-width:1.0;"/><path d="M150,708.25 L150,708.3434 L158.2,708.0659 L166.4,708.3359 L174.6,708.4276 L182.8,707.9329 L191,708.25 " fill="none" style="stroke:#181818;stroke-width:1.0;"/><polygon fill="#181818" points="160,704.25,160.026,704.315,157.9487,704.9218,156.0239,705.9098,154.0495,706.7737,151.9117,707.2292,150,708.25,149.9904,708.2259,151.9472,708.918,153.9525,709.7313,155.9916,710.6289,157.9144,711.236,160,712.25,160.1305,712.3805,159.0514,711.3014,158.3534,710.6034,157.7018,709.9518,156.7798,709.0298,156,708.25,156.0161,708.2661,156.7925,707.4425,157.6421,706.6921,158.4564,705.9064,159.338,705.188,160,704.25" style="stroke:#181818;stroke-width:1.0;"/><text fill="#000000" font-family="FG Virgil" font-size="13" lengthAdjust="spacing" textLength="38" x="156" y="690.3936">show()</text><polygon fill="#181818" points="47,734.6016,47.026,734.6666,44.9487,735.2733,43.0239,736.2614,41.0495,737.1253,38.9117,737.5808,37,738.6016,36.9904,738.5775,38.9472,739.2696,40.9525,740.0829,42.9916,740.9805,44.9144,741.5876,47,742.6016,47.1305,742.7321,46.0514,741.653,45.3534,740.9549,44.7018,740.3034,43.7798,739.3813,43,738.6016,43.0161,738.6176,43.7925,737.794,44.6421,737.0436,45.4564,736.2579,46.338,735.5396,47,734.6016" style="stroke:#181818;stroke-width:1.0;"/><path d="M41,738.6016 L41,738.8818 L51.2,738.0491 L61.4,738.8593 L71.6,739.1345 L81.8,737.6504 L92,738.4979 L102.2,738.0329 L112.4,738.0902 L122.6,738.5107 L132.8,737.6797 L143,738.6016 " fill="none" style="stroke:#181818;stroke-width:1.0;"/><text fill="#000000" font-family="FG Virgil" font-size="13" lengthAdjust="spacing" textLength="79" x="53" y="733.7451">back to menu</text><!--MD5=[6daf935cceaf5855a93676f3e2e5d15c]
@startuml
'http://plantuml.com/skinparam.html
skinparam handwritten true
skinparam monochrome true
skinparam packageStyle rect
skinparam defaultFontName FG Virgil
skinparam shadowing false

actor Manager as Actor
participant ListUsersUI as UI <<presentation>>
participant ListUsersController as Controller <<application>>
participant AuthzRegistry as Registry <<util>>
participant AuthorizationService as AuthzService <<service>>
participant UserManagementService as Service <<service>>
participant PersistenceContext as Persistence <<persistence>>
participant RepositoryFactory as Factory <<factory>>
database UserRepository as Repository <<repository>>


Actor - -> UI: List Users
activate UI
    UI -> Controller: create()

    UI -> Controller: listAllUsers()
    activate Controller

    Controller -> Registry: authorizationService()
    activate Registry
    Registry -> Controller: authz
    Controller -> Registry: userService()
    Registry -> Controller: userSvc
    deactivate Registry

    Controller -> AuthzService: ensureAuthenticatedUserHasAnyOf(CourseRoles.MANAGER)


    Controller -> Service: allUsers()
    activate Service

        Service -> Persistence: repositories()
        activate Persistence
        Persistence -> Factory: create()
        Persistence -> Service: factory
        deactivate Persistence

        Service -> Factory: users()
        activate Factory
        Factory -> Repository: create()
        Factory -> Service: userRepository
        deactivate Factory

        Service -> Repository: findAll()
        activate Repository
        Repository -> Service: allUsers
        deactivate Repository

        Service -> Controller: allUsers
        deactivate Service
        Controller -> UI: allUsers
        deactivate Controller
        
        UI -> UI: show()
        UI -> Actor: back to menu

deactivate UI
@enduml

@startuml
skinparam handwritten true
skinparam monochrome true
skinparam packageStyle rect
skinparam defaultFontName FG Virgil
skinparam shadowing false

actor Manager as Actor
participant ListUsersUI as UI <<presentation>>
participant ListUsersController as Controller <<application>>
participant AuthzRegistry as Registry <<util>>
participant AuthorizationService as AuthzService <<service>>
participant UserManagementService as Service <<service>>
participant PersistenceContext as Persistence <<persistence>>
participant RepositoryFactory as Factory <<factory>>
database UserRepository as Repository <<repository>>


Actor - -> UI: List Users
activate UI
    UI -> Controller: create()

    UI -> Controller: listAllUsers()
    activate Controller

    Controller -> Registry: authorizationService()
    activate Registry
    Registry -> Controller: authz
    Controller -> Registry: userService()
    Registry -> Controller: userSvc
    deactivate Registry

    Controller -> AuthzService: ensureAuthenticatedUserHasAnyOf(CourseRoles.MANAGER)


    Controller -> Service: allUsers()
    activate Service

        Service -> Persistence: repositories()
        activate Persistence
        Persistence -> Factory: create()
        Persistence -> Service: factory
        deactivate Persistence

        Service -> Factory: users()
        activate Factory
        Factory -> Repository: create()
        Factory -> Service: userRepository
        deactivate Factory

        Service -> Repository: findAll()
        activate Repository
        Repository -> Service: allUsers
        deactivate Repository

        Service -> Controller: allUsers
        deactivate Service
        Controller -> UI: allUsers
        deactivate Controller
        
        UI -> UI: show()
        UI -> Actor: back to menu

deactivate UI
@enduml

PlantUML version 1.2022.7(Mon Aug 22 18:01:30 BST 2022)
(GPL source distribution)
Java Runtime: Java(TM) SE Runtime Environment
JVM: Java HotSpot(TM) 64-Bit Server VM
Default Encoding: Cp1252
Language: pt
Country: PT
--></g></svg>